<svg xmlns="http://www.w3.org/2000/svg" height="339" preserveAspectRatio="none" style="width:390px;height:339px" width="390">
  <path fill="#F4F4F4" stroke="#000" d="M28.5 97.695h10v226.063h-10zM234.5 97.695h10v159.797h-10z"/>
  <path stroke="#000" stroke-dasharray="5,5" d="M33 66.563v266.195M239 66.563v266.195"/>
  <path fill="#F4F4F4" stroke="#383838" stroke-width="1.5" d="M5 5h57v60.563H5z"/>
  <text font-family="Verdana" font-size="20" font-weight="bold" lengthAdjust="spacingAndGlyphs" textLength="43" x="12" y="53.846">
    FSP
  </text>
  <path fill="#F4F4F4" stroke="#383838" stroke-width="1.5" d="M187 5h105v60.563H187z"/>
  <text font-family="Verdana" font-size="20" font-weight="bold" lengthAdjust="spacingAndGlyphs" textLength="91" x="194" y="30.564">
    Account
  </text>
  <text font-family="Verdana" font-size="20" font-weight="bold" lengthAdjust="spacingAndGlyphs" textLength="82" x="198.5" y="53.846">
    Lookup
  </text>
  <path fill="#F4F4F4" stroke="#000" d="M28.5 97.695h10v226.063h-10zM234.5 97.695h10v159.797h-10z"/>
  <path stroke="#000" d="M232.5 97.695l-10-4M232.5 97.695l-10 4M38.5 97.695h195"/>
  <text font-family="Verdana" font-size="13" font-weight="bold" lengthAdjust="spacingAndGlyphs" textLength="121" x="58.5" y="92.629">
    DELETE /service/
  </text>
  <text font-family="Verdana" font-size="13" font-style="italic" lengthAdjust="spacingAndGlyphs" textLength="35" x="179.5" y="92.629">
    &lt;ID&gt;
  </text>
  <path stroke="#000" d="M38.5 126.828l10-4M38.5 126.828l10 4"/>
  <path stroke="#000" stroke-dasharray="2,2" d="M38.5 126.828h195"/>
  <text font-family="Verdana" font-size="13" font-weight="bold" lengthAdjust="spacingAndGlyphs" textLength="69" x="65" y="121.762">
    HTTP 202
  </text>
  <text font-family="Verdana" font-size="13" lengthAdjust="spacingAndGlyphs" textLength="70" x="138" y="121.762">
    (Accepted)
  </text>
  <path stroke="#000" d="M244.5 171.094h42M286.5 171.094v13M245.5 184.094h41M255.5 180.094l-10 4 10 4-4-4z"/>
  <text font-family="Verdana" font-size="13" lengthAdjust="spacingAndGlyphs" textLength="85" x="251.5" y="150.895">
    Delete object
  </text>
  <text font-family="Verdana" font-size="13" lengthAdjust="spacingAndGlyphs" textLength="132" x="251.5" y="166.028">
    according to request
  </text>
  <path stroke="#000" d="M38.5 228.359l10-4M38.5 228.359l10 4M38.5 228.359h195"/>
  <text font-family="Verdana" font-size="13" font-weight="bold" lengthAdjust="spacingAndGlyphs" textLength="95" x="71.5" y="208.161">
    PUT /service/
  </text>
  <text font-family="Verdana" font-size="13" font-style="italic" lengthAdjust="spacingAndGlyphs" textLength="35" x="166.5" y="208.161">
    &lt;ID&gt;
  </text>
  <text font-family="Verdana" font-size="13" lengthAdjust="spacingAndGlyphs" textLength="172" x="50.5" y="223.293">
    (Delete object information)
  </text>
  <path stroke="#000" d="M237.5 257.492l-10-4M237.5 257.492l-10 4"/>
  <path stroke="#000" stroke-dasharray="2,2" d="M38.5 257.492h200"/>
  <text font-family="Verdana" font-size="13" font-weight="bold" lengthAdjust="spacingAndGlyphs" textLength="69" x="88.5" y="252.426">
    HTTP 200
  </text>
  <text font-family="Verdana" font-size="13" lengthAdjust="spacingAndGlyphs" textLength="28" x="161.5" y="252.426">
    (OK)
  </text>
  <path stroke="#000" d="M38.5 301.758h42M80.5 301.758v13M39.5 314.758h41M49.5 310.758l-10 4 10 4-4-4z"/>
  <text font-family="Verdana" font-size="13" lengthAdjust="spacingAndGlyphs" textLength="132" x="45.5" y="281.559">
    Handle delete object
  </text>
  <text font-family="Verdana" font-size="13" lengthAdjust="spacingAndGlyphs" textLength="73" x="45.5" y="296.692">
    information
  </text>
</svg>
