<?xml version="1.0" encoding="UTF-8" standalone="no"?>
<svg xmlns="http://www.w3.org/2000/svg" xmlns:xlink="http://www.w3.org/1999/xlink" contentScriptType="application/ecmascript" contentStyleType="text/css" height="339px" preserveAspectRatio="none" style="width:390px;height:339px" version="1.1" viewBox="0 0 390 339" width="390px" zoomAndPan="magnify">
  <defs/>
  <g>
    <rect fill="#F4F4F4" height="226.0625" style="stroke:#000000;stroke-width:1.0" width="10" x="28.5" y="97.6953"/>
    <rect fill="#F4F4F4" height="159.7969" style="stroke:#000000;stroke-width:1.0" width="10" x="234.5" y="97.6953"/>
    <line style="stroke:#000000;stroke-width:1.0;stroke-dasharray:5.0,5.0" x1="33" x2="33" y1="66.5625" y2="332.7578"/>
    <line style="stroke:#000000;stroke-width:1.0;stroke-dasharray:5.0,5.0" x1="239" x2="239" y1="66.5625" y2="332.7578"/>
    <rect fill="#F4F4F4" height="60.5625" style="stroke:#383838;stroke-width:1.5" width="57" x="5" y="5"/>
    <text fill="#000000" font-family="Verdana" font-size="20" font-weight="bold" lengthAdjust="spacingAndGlyphs" textLength="0" x="37" y="30.5645"/>
    <text fill="#000000" font-family="Verdana" font-size="20" font-weight="bold" lengthAdjust="spacingAndGlyphs" textLength="43" x="12" y="53.8457">FSP</text>
    <rect fill="#F4F4F4" height="60.5625" style="stroke:#383838;stroke-width:1.5" width="105" x="187" y="5"/>
    <text fill="#000000" font-family="Verdana" font-size="20" font-weight="bold" lengthAdjust="spacingAndGlyphs" textLength="91" x="194" y="30.5645">Account</text>
    <text fill="#000000" font-family="Verdana" font-size="20" font-weight="bold" lengthAdjust="spacingAndGlyphs" textLength="82" x="198.5" y="53.8457">Lookup</text>
    <rect fill="#F4F4F4" height="226.0625" style="stroke:#000000;stroke-width:1.0" width="10" x="28.5" y="97.6953"/>
    <rect fill="#F4F4F4" height="159.7969" style="stroke:#000000;stroke-width:1.0" width="10" x="234.5" y="97.6953"/>
    <line style="stroke:#000000;stroke-width:1.0" x1="232.5" x2="222.5" y1="97.6953" y2="93.6953"/>
    <line style="stroke:#000000;stroke-width:1.0" x1="232.5" x2="222.5" y1="97.6953" y2="101.6953"/>
    <line style="stroke:#000000;stroke-width:1.0" x1="38.5" x2="233.5" y1="97.6953" y2="97.6953"/>
    <text fill="#000000" font-family="Verdana" font-size="13" font-weight="bold" lengthAdjust="spacingAndGlyphs" textLength="121" x="58.5" y="92.6294">DELETE /service/</text>
    <text fill="#000000" font-family="Verdana" font-size="13" font-style="italic" lengthAdjust="spacingAndGlyphs" textLength="35" x="179.5" y="92.6294">&lt;ID&gt;</text>
    <line style="stroke:#000000;stroke-width:1.0" x1="38.5" x2="48.5" y1="126.8281" y2="122.8281"/>
    <line style="stroke:#000000;stroke-width:1.0" x1="38.5" x2="48.5" y1="126.8281" y2="130.8281"/>
    <line style="stroke:#000000;stroke-width:1.0;stroke-dasharray:2.0,2.0" x1="38.5" x2="233.5" y1="126.8281" y2="126.8281"/>
    <text fill="#000000" font-family="Verdana" font-size="13" font-weight="bold" lengthAdjust="spacingAndGlyphs" textLength="69" x="65" y="121.7622">HTTP 202</text>
    <text fill="#000000" font-family="Verdana" font-size="13" lengthAdjust="spacingAndGlyphs" textLength="70" x="138" y="121.7622">(Accepted)</text>
    <line style="stroke:#000000;stroke-width:1.0" x1="244.5" x2="286.5" y1="171.0938" y2="171.0938"/>
    <line style="stroke:#000000;stroke-width:1.0" x1="286.5" x2="286.5" y1="171.0938" y2="184.0938"/>
    <line style="stroke:#000000;stroke-width:1.0" x1="245.5" x2="286.5" y1="184.0938" y2="184.0938"/>
    <polygon fill="#000000" points="255.5,180.0938,245.5,184.0938,255.5,188.0938,251.5,184.0938" style="stroke:#000000;stroke-width:1.0"/>
    <text fill="#000000" font-family="Verdana" font-size="13" lengthAdjust="spacingAndGlyphs" textLength="85" x="251.5" y="150.895">Delete object</text>
    <text fill="#000000" font-family="Verdana" font-size="13" lengthAdjust="spacingAndGlyphs" textLength="132" x="251.5" y="166.0278">according to request</text>
    <line style="stroke:#000000;stroke-width:1.0" x1="38.5" x2="48.5" y1="228.3594" y2="224.3594"/>
    <line style="stroke:#000000;stroke-width:1.0" x1="38.5" x2="48.5" y1="228.3594" y2="232.3594"/>
    <line style="stroke:#000000;stroke-width:1.0" x1="38.5" x2="233.5" y1="228.3594" y2="228.3594"/>
    <text fill="#000000" font-family="Verdana" font-size="13" font-weight="bold" lengthAdjust="spacingAndGlyphs" textLength="95" x="71.5" y="208.1606">PUT /service/</text>
    <text fill="#000000" font-family="Verdana" font-size="13" font-style="italic" lengthAdjust="spacingAndGlyphs" textLength="35" x="166.5" y="208.1606">&lt;ID&gt;</text>
    <text fill="#000000" font-family="Verdana" font-size="13" lengthAdjust="spacingAndGlyphs" textLength="172" x="50.5" y="223.2935">(Delete object information)</text>
    <line style="stroke:#000000;stroke-width:1.0" x1="237.5" x2="227.5" y1="257.4922" y2="253.4922"/>
    <line style="stroke:#000000;stroke-width:1.0" x1="237.5" x2="227.5" y1="257.4922" y2="261.4922"/>
    <line style="stroke:#000000;stroke-width:1.0;stroke-dasharray:2.0,2.0" x1="38.5" x2="238.5" y1="257.4922" y2="257.4922"/>
    <text fill="#000000" font-family="Verdana" font-size="13" font-weight="bold" lengthAdjust="spacingAndGlyphs" textLength="69" x="88.5" y="252.4263">HTTP 200</text>
    <text fill="#000000" font-family="Verdana" font-size="13" lengthAdjust="spacingAndGlyphs" textLength="28" x="161.5" y="252.4263">(OK)</text>
    <line style="stroke:#000000;stroke-width:1.0" x1="38.5" x2="80.5" y1="301.7578" y2="301.7578"/>
    <line style="stroke:#000000;stroke-width:1.0" x1="80.5" x2="80.5" y1="301.7578" y2="314.7578"/>
    <line style="stroke:#000000;stroke-width:1.0" x1="39.5" x2="80.5" y1="314.7578" y2="314.7578"/>
    <polygon fill="#000000" points="49.5,310.7578,39.5,314.7578,49.5,318.7578,45.5,314.7578" style="stroke:#000000;stroke-width:1.0"/>
    <text fill="#000000" font-family="Verdana" font-size="13" lengthAdjust="spacingAndGlyphs" textLength="132" x="45.5" y="281.5591">Handle delete object</text>
    <text fill="#000000" font-family="Verdana" font-size="13" lengthAdjust="spacingAndGlyphs" textLength="73" x="45.5" y="296.6919">information</text>
  </g>
</svg>
