<svg xmlns="http://www.w3.org/2000/svg" height="388" preserveAspectRatio="none" style="width:298px;height:388px" width="298">
  <path fill="#F4F4F4" stroke="#000" d="M40.5 74.414h10v289.328h-10zM242.5 160.813h10v202.93h-10z"/>
  <path stroke="#000" stroke-dasharray="5,5" d="M45 43.281v338.461M247 43.281v338.461"/>
  <path fill="#F4F4F4" stroke="#383838" stroke-width="1.5" d="M5 5h81v37.281H5z"/>
  <text font-family="Verdana" font-size="20" font-weight="bold" lengthAdjust="spacingAndGlyphs" textLength="67" x="12" y="30.564">
    Client
  </text>
  <path fill="#F4F4F4" stroke="#383838" stroke-width="1.5" d="M203 5h89v37.281h-89z"/>
  <text font-family="Verdana" font-size="20" font-weight="bold" lengthAdjust="spacingAndGlyphs" textLength="75" x="210" y="30.564">
    Server
  </text>
  <path fill="#F4F4F4" stroke="#000" d="M40.5 74.414h10v289.328h-10zM242.5 160.813h10v202.93h-10z"/>
  <path stroke="#000" d="M245.5 74.414l-10-4M245.5 74.414l-10 4M50.5 74.414h196"/>
  <text font-family="Verdana" font-size="13" font-weight="bold" lengthAdjust="spacingAndGlyphs" textLength="21" x="86.5" y="69.348">
    [1]
  </text>
  <text font-family="Verdana" font-size="13" font-weight="bold" lengthAdjust="spacingAndGlyphs" textLength="100" x="111.5" y="69.348">
    POST /service
  </text>
  <path stroke="#000" d="M50.5 118.68h42M92.5 118.68v13M51.5 131.68h41M61.5 127.68l-10 4 10 4-4-4z"/>
  <text font-family="Verdana" font-size="13" font-weight="bold" lengthAdjust="spacingAndGlyphs" textLength="21" x="57.5" y="106.047">
    [2]
  </text>
  <text font-family="Verdana" font-size="13" lengthAdjust="spacingAndGlyphs" textLength="104" x="82.5" y="98.481">
    Timeout, resend
  </text>
  <text font-family="Verdana" font-size="13" lengthAdjust="spacingAndGlyphs" textLength="98" x="82.5" y="113.614">
    service request
  </text>
  <path stroke="#000" d="M240.5 160.813l-10-4M240.5 160.813l-10 4M50.5 160.813h191"/>
  <text font-family="Verdana" font-size="13" font-weight="bold" lengthAdjust="spacingAndGlyphs" textLength="21" x="84" y="155.747">
    [3]
  </text>
  <text font-family="Verdana" font-size="13" font-weight="bold" lengthAdjust="spacingAndGlyphs" textLength="100" x="109" y="155.747">
    POST /service
  </text>
  <path stroke="#000" d="M50.5 189.945l10-4M50.5 189.945l10 4"/>
  <path stroke="#000" stroke-dasharray="2,2" d="M50.5 189.945h191"/>
  <text font-family="Verdana" font-size="13" font-weight="bold" lengthAdjust="spacingAndGlyphs" textLength="21" x="62.5" y="184.879">
    [4]
  </text>
  <text font-family="Verdana" font-size="13" font-weight="bold" lengthAdjust="spacingAndGlyphs" textLength="69" x="87.5" y="184.879">
    HTTP 202
  </text>
  <text font-family="Verdana" font-size="13" lengthAdjust="spacingAndGlyphs" textLength="70" x="160.5" y="184.879">
    (Accepted)
  </text>
  <path stroke="#000" d="M50.5 234.211h42M92.5 234.211v13M51.5 247.211h41M61.5 243.21l-10 4 10 4-4-4z"/>
  <text font-family="Verdana" font-size="13" lengthAdjust="spacingAndGlyphs" textLength="104" x="57.5" y="214.012">
    Timeout, resend
  </text>
  <text font-family="Verdana" font-size="13" lengthAdjust="spacingAndGlyphs" textLength="98" x="57.5" y="229.145">
    service request
  </text>
  <path stroke="#000" d="M240.5 276.344l-10-4M240.5 276.344l-10 4M50.5 276.344h191"/>
  <text font-family="Verdana" font-size="13" font-weight="bold" lengthAdjust="spacingAndGlyphs" textLength="21" x="84" y="271.278">
    [5]
  </text>
  <text font-family="Verdana" font-size="13" font-weight="bold" lengthAdjust="spacingAndGlyphs" textLength="100" x="109" y="271.278">
    POST /service
  </text>
  <path stroke="#000" d="M50.5 305.477l10-4M50.5 305.477l10 4"/>
  <path stroke="#000" stroke-dasharray="2,2" d="M50.5 305.477h191"/>
  <text font-family="Verdana" font-size="13" font-weight="bold" lengthAdjust="spacingAndGlyphs" textLength="69" x="75" y="300.411">
    HTTP 202
  </text>
  <text font-family="Verdana" font-size="13" lengthAdjust="spacingAndGlyphs" textLength="70" x="148" y="300.411">
    (Accepted)
  </text>
  <path stroke="#000" d="M50.5 334.609l10-4M50.5 334.609l10 4M50.5 334.609h191"/>
  <text font-family="Verdana" font-size="13" font-weight="bold" lengthAdjust="spacingAndGlyphs" textLength="21" x="69" y="329.543">
    [6]
  </text>
  <text font-family="Verdana" font-size="13" font-weight="bold" lengthAdjust="spacingAndGlyphs" textLength="95" x="94" y="329.543">
    PUT /service/
  </text>
  <text font-family="Verdana" font-size="13" font-style="italic" lengthAdjust="spacingAndGlyphs" textLength="35" x="189" y="329.543">
    &lt;ID&gt;
  </text>
  <path stroke="#000" d="M245.5 363.742l-10-4M245.5 363.742l-10 4"/>
  <path stroke="#000" stroke-dasharray="2,2" d="M45.5 363.742h201"/>
  <text font-family="Verdana" font-size="13" font-weight="bold" lengthAdjust="spacingAndGlyphs" textLength="21" x="83.5" y="358.676">
    [7]
  </text>
  <text font-family="Verdana" font-size="13" font-weight="bold" lengthAdjust="spacingAndGlyphs" textLength="69" x="108.5" y="358.676">
    HTTP 200
  </text>
  <text font-family="Verdana" font-size="13" lengthAdjust="spacingAndGlyphs" textLength="28" x="181.5" y="358.676">
    (OK)
  </text>
</svg>
