<svg xmlns="http://www.w3.org/2000/svg" height="492" preserveAspectRatio="none" style="width:426px;height:492px" width="426">
  <path fill="#F4F4F4" stroke="#000" d="M44.5 53.281h10V395.14h-10zM255.5 53.281h10v196.063h-10zM255.5 366.008h10v110.531h-10z"/>
  <path stroke="#000" stroke-dasharray="5,5" d="M49 43.281v442.258M260 43.281v442.258"/>
  <path fill="#F4F4F4" stroke="#383838" stroke-width="1.5" d="M5 5h89v37.281H5z"/>
  <text font-family="Verdana" font-size="20" font-weight="bold" lengthAdjust="spacingAndGlyphs" textLength="75" x="12" y="30.564">
    Switch
  </text>
  <path fill="#F4F4F4" stroke="#383838" stroke-width="1.5" d="M232 5h57v37.281h-57z"/>
  <text font-family="Verdana" font-size="20" font-weight="bold" lengthAdjust="spacingAndGlyphs" textLength="43" x="239" y="30.564">
    FSP
  </text>
  <path fill="#F4F4F4" stroke="#000" d="M44.5 53.281h10V395.14h-10zM255.5 53.281h10v196.063h-10zM255.5 366.008h10v110.531h-10z"/>
  <path stroke="#000" d="M253.5 74.414l-10-4M253.5 74.414l-10 4M54.5 74.414h200"/>
  <text font-family="Verdana" font-size="13" font-weight="bold" lengthAdjust="spacingAndGlyphs" textLength="105" x="85" y="69.348">
    POST /service/
  </text>
  <text font-family="Verdana" font-size="13" font-style="italic" lengthAdjust="spacingAndGlyphs" textLength="35" x="190" y="69.348">
    &lt;ID&gt;
  </text>
  <path stroke="#000" d="M54.5 103.547l10-4M54.5 103.547l10 4"/>
  <path stroke="#000" stroke-dasharray="2,2" d="M54.5 103.547h200"/>
  <text font-family="Verdana" font-size="13" font-weight="bold" lengthAdjust="spacingAndGlyphs" textLength="69" x="83.5" y="98.481">
    HTTP 202
  </text>
  <text font-family="Verdana" font-size="13" lengthAdjust="spacingAndGlyphs" textLength="70" x="156.5" y="98.481">
    (Accepted)
  </text>
  <path stroke="#000" d="M265.5 162.945h42M307.5 162.945v13M266.5 175.945h41M266.5 175.945l10-4M266.5 175.945l10 4"/>
  <text font-family="Verdana" font-size="13" lengthAdjust="spacingAndGlyphs" textLength="143" x="272.5" y="127.614">
    Create object, state of
  </text>
  <text font-family="Verdana" font-size="13" lengthAdjust="spacingAndGlyphs" textLength="118" x="272.5" y="142.747">
    created object is a
  </text>
  <text font-family="Verdana" font-size="13" lengthAdjust="spacingAndGlyphs" textLength="121" x="272.5" y="157.879">
    non-fiinalized state
  </text>
  <path stroke="#000" d="M54.5 220.211l10-4M54.5 220.211l10 4M54.5 220.211h200"/>
  <text font-family="Verdana" font-size="13" font-weight="bold" lengthAdjust="spacingAndGlyphs" textLength="95" x="88" y="200.012">
    PUT /service/
  </text>
  <text font-family="Verdana" font-size="13" lengthAdjust="spacingAndGlyphs" textLength="35" x="183" y="200.012">
    &lt;ID&gt;
  </text>
  <text font-family="Verdana" font-size="13" lengthAdjust="spacingAndGlyphs" textLength="130" x="90" y="215.145">
    (Non-finalized state)
  </text>
  <path stroke="#000" d="M258.5 249.344l-10-4M258.5 249.344l-10 4"/>
  <path stroke="#000" stroke-dasharray="2,2" d="M54.5 249.344h205"/>
  <text font-family="Verdana" font-size="13" font-weight="bold" lengthAdjust="spacingAndGlyphs" textLength="69" x="107" y="244.278">
    HTTP 200
  </text>
  <text font-family="Verdana" font-size="13" lengthAdjust="spacingAndGlyphs" textLength="28" x="180" y="244.278">
    (OK)
  </text>
  <path stroke="#000" d="M54.5 308.742h42M96.5 308.742v13M55.5 321.742h41M55.5 321.742l10-4M55.5 321.742l10 4"/>
  <text font-family="Verdana" font-size="13" lengthAdjust="spacingAndGlyphs" textLength="139" x="61.5" y="273.411">
    Handle callback, send
  </text>
  <text font-family="Verdana" font-size="13" lengthAdjust="spacingAndGlyphs" textLength="187" x="61.5" y="288.543">
    notificaction to FSP regarding
  </text>
  <text font-family="Verdana" font-size="13" lengthAdjust="spacingAndGlyphs" textLength="167" x="61.5" y="303.676">
    the object&apos;s finalized state
  </text>
  <path stroke="#000" d="M253.5 366.008l-10-4M253.5 366.008l-10 4M54.5 366.008h200"/>
  <text font-family="Verdana" font-size="13" font-weight="bold" lengthAdjust="spacingAndGlyphs" textLength="116" x="79.5" y="345.809">
    PATCH /service/
  </text>
  <text font-family="Verdana" font-size="13" lengthAdjust="spacingAndGlyphs" textLength="35" x="195.5" y="345.809">
    &lt;ID&gt;
  </text>
  <text font-family="Verdana" font-size="13" lengthAdjust="spacingAndGlyphs" textLength="102" x="104" y="360.942">
    (Finalized state)
  </text>
  <path stroke="#000" d="M49.5 395.141l10-4M49.5 395.141l10 4"/>
  <path stroke="#000" stroke-dasharray="2,2" d="M49.5 395.141h205"/>
  <text font-family="Verdana" font-size="13" font-weight="bold" lengthAdjust="spacingAndGlyphs" textLength="69" x="81" y="390.075">
    HTTP 202
  </text>
  <text font-family="Verdana" font-size="13" lengthAdjust="spacingAndGlyphs" textLength="70" x="154" y="390.075">
    (Accepted)
  </text>
  <path stroke="#000" d="M265.5 454.539h42M307.5 454.539v13M266.5 467.539h41M266.5 467.539l10-4M266.5 467.539l10 4"/>
  <text font-family="Verdana" font-size="13" lengthAdjust="spacingAndGlyphs" textLength="137" x="272.5" y="419.207">
    Update object&apos;s state
  </text>
  <text font-family="Verdana" font-size="13" lengthAdjust="spacingAndGlyphs" textLength="108" x="272.5" y="434.34">
    according to new
  </text>
  <text font-family="Verdana" font-size="13" lengthAdjust="spacingAndGlyphs" textLength="73" x="272.5" y="449.473">
    information
  </text>
</svg>
