<svg xmlns="http://www.w3.org/2000/svg" height="515" preserveAspectRatio="none" style="width:609px;height:515px" width="609">
  <path fill="#F4F4F4" stroke="#000" d="M28.5 112.828h10v377.859h-10zM239.5 112.828h10v306.594h-10zM450.5 186.227h10v159.797h-10z"/>
  <path stroke="#000" stroke-dasharray="5,5" d="M33 66.563v442.125M244 66.563v442.125M455 66.563v442.125"/>
  <path fill="#F4F4F4" stroke="#383838" stroke-width="1.5" d="M5 5h57v60.563H5z"/>
  <text font-family="Verdana" font-size="20" font-weight="bold" lengthAdjust="spacingAndGlyphs" textLength="43" x="12" y="53.846">
    FSP
  </text>
  <path fill="#F4F4F4" stroke="#383838" stroke-width="1.5" d="M189 5h111v60.563H189z"/>
  <text font-family="Verdana" font-size="20" font-weight="bold" lengthAdjust="spacingAndGlyphs" textLength="97" x="196" y="30.564">
    Optional
  </text>
  <text font-family="Verdana" font-size="20" font-weight="bold" lengthAdjust="spacingAndGlyphs" textLength="75" x="207" y="53.846">
    Switch
  </text>
  <path fill="#F4F4F4" stroke="#383838" stroke-width="1.5" d="M422 5h67v60.563h-67z"/>
  <text font-family="Verdana" font-size="20" font-weight="bold" lengthAdjust="spacingAndGlyphs" textLength="53" x="429" y="30.564">
    Peer
  </text>
  <text font-family="Verdana" font-size="20" font-weight="bold" lengthAdjust="spacingAndGlyphs" textLength="43" x="434" y="53.846">
    FSP
  </text>
  <path fill="#F4F4F4" stroke="#000" d="M28.5 112.828h10v377.859h-10zM239.5 112.828h10v306.594h-10zM450.5 186.227h10v159.797h-10z"/>
  <path stroke="#000" d="M237.5 112.828l-10-4M237.5 112.828l-10 4M38.5 112.828h200"/>
  <text font-family="Verdana" font-size="13" font-weight="bold" lengthAdjust="spacingAndGlyphs" textLength="100" x="89" y="92.629">
    POST /service
  </text>
  <text font-family="Verdana" font-size="13" lengthAdjust="spacingAndGlyphs" textLength="155" x="61.5" y="107.762">
    (Service information, ID)
  </text>
  <path stroke="#000" d="M38.5 141.961l10-4M38.5 141.961l10 4"/>
  <path stroke="#000" stroke-dasharray="2,2" d="M38.5 141.961h200"/>
  <text font-family="Verdana" font-size="13" font-weight="bold" lengthAdjust="spacingAndGlyphs" textLength="69" x="67.5" y="136.895">
    HTTP 202
  </text>
  <text font-family="Verdana" font-size="13" lengthAdjust="spacingAndGlyphs" textLength="70" x="140.5" y="136.895">
    (Accepted)
  </text>
  <path stroke="#000" d="M448.5 186.227l-10-4M448.5 186.227l-10 4M249.5 186.227h200"/>
  <text font-family="Verdana" font-size="13" font-weight="bold" lengthAdjust="spacingAndGlyphs" textLength="100" x="300" y="166.028">
    POST /service
  </text>
  <text font-family="Verdana" font-size="13" lengthAdjust="spacingAndGlyphs" textLength="155" x="272.5" y="181.161">
    (Service information, ID)
  </text>
  <path stroke="#000" d="M249.5 215.359l10-4M249.5 215.359l10 4"/>
  <path stroke="#000" stroke-dasharray="2,2" d="M249.5 215.359h200"/>
  <text font-family="Verdana" font-size="13" font-weight="bold" lengthAdjust="spacingAndGlyphs" textLength="69" x="278.5" y="210.293">
    HTTP 202
  </text>
  <text font-family="Verdana" font-size="13" lengthAdjust="spacingAndGlyphs" textLength="70" x="351.5" y="210.293">
    (Accepted)
  </text>
  <path stroke="#000" d="M460.5 259.625h42M502.5 259.625v13M461.5 272.625h41M471.5 268.625l-10 4 10 4-4-4z"/>
  <text font-family="Verdana" font-size="13" lengthAdjust="spacingAndGlyphs" textLength="135" x="467.5" y="239.426">
    Create service object
  </text>
  <text font-family="Verdana" font-size="13" lengthAdjust="spacingAndGlyphs" textLength="132" x="467.5" y="254.559">
    according to request
  </text>
  <path stroke="#000" d="M249.5 316.891l10-4M249.5 316.891l10 4M249.5 316.891h200"/>
  <text font-family="Verdana" font-size="13" font-weight="bold" lengthAdjust="spacingAndGlyphs" textLength="95" x="285" y="296.692">
    PUT /service/
  </text>
  <text font-family="Verdana" font-size="13" font-style="italic" lengthAdjust="spacingAndGlyphs" textLength="35" x="380" y="296.692">
    &lt;ID&gt;
  </text>
  <text font-family="Verdana" font-size="13" lengthAdjust="spacingAndGlyphs" textLength="177" x="261.5" y="311.825">
    (Service object information)
  </text>
  <path stroke="#000" d="M453.5 346.023l-10-4M453.5 346.023l-10 4"/>
  <path stroke="#000" stroke-dasharray="2,2" d="M249.5 346.023h205"/>
  <text font-family="Verdana" font-size="13" font-weight="bold" lengthAdjust="spacingAndGlyphs" textLength="69" x="302" y="340.957">
    HTTP 200
  </text>
  <text font-family="Verdana" font-size="13" lengthAdjust="spacingAndGlyphs" textLength="28" x="375" y="340.957">
    (OK)
  </text>
  <path stroke="#000" d="M38.5 390.289l10-4M38.5 390.289l10 4M38.5 390.289h200"/>
  <text font-family="Verdana" font-size="13" font-weight="bold" lengthAdjust="spacingAndGlyphs" textLength="95" x="74" y="370.09">
    PUT /service/
  </text>
  <text font-family="Verdana" font-size="13" font-style="italic" lengthAdjust="spacingAndGlyphs" textLength="35" x="169" y="370.09">
    &lt;ID&gt;
  </text>
  <text font-family="Verdana" font-size="13" lengthAdjust="spacingAndGlyphs" textLength="177" x="50.5" y="385.223">
    (Service object information)
  </text>
  <path stroke="#000" d="M242.5 419.422l-10-4M242.5 419.422l-10 4"/>
  <path stroke="#000" stroke-dasharray="2,2" d="M38.5 419.422h205"/>
  <text font-family="Verdana" font-size="13" font-weight="bold" lengthAdjust="spacingAndGlyphs" textLength="69" x="91" y="414.356">
    HTTP 200
  </text>
  <text font-family="Verdana" font-size="13" lengthAdjust="spacingAndGlyphs" textLength="28" x="164" y="414.356">
    (OK)
  </text>
  <path stroke="#000" d="M38.5 463.688h42M80.5 463.688v13M39.5 476.688h41M49.5 472.688l-10 4 10 4-4-4z"/>
  <text font-family="Verdana" font-size="13" lengthAdjust="spacingAndGlyphs" textLength="94" x="45.5" y="443.489">
    Handle service
  </text>
  <text font-family="Verdana" font-size="13" lengthAdjust="spacingAndGlyphs" textLength="116" x="45.5" y="458.622">
    object information
  </text>
</svg>
