<svg xmlns="http://www.w3.org/2000/svg" height="317" preserveAspectRatio="none" style="width:310px;height:317px" width="310">
  <path fill="#F4F4F4" stroke="#000" d="M40.5 74.414h10v218.063h-10zM254.5 74.414h10v218.063h-10z"/>
  <path stroke="#000" stroke-dasharray="5,5" d="M45 43.281v267.196M259 43.281v267.196"/>
  <path fill="#F4F4F4" stroke="#383838" stroke-width="1.5" d="M5 5h81v37.281H5z"/>
  <text font-family="Verdana" font-size="20" font-weight="bold" lengthAdjust="spacingAndGlyphs" textLength="67" x="12" y="30.564">
    Client
  </text>
  <path fill="#F4F4F4" stroke="#383838" stroke-width="1.5" d="M215 5h89v37.281h-89z"/>
  <text font-family="Verdana" font-size="20" font-weight="bold" lengthAdjust="spacingAndGlyphs" textLength="75" x="222" y="30.564">
    Server
  </text>
  <path fill="#F4F4F4" stroke="#000" d="M40.5 74.414h10v218.063h-10zM254.5 74.414h10v218.063h-10z"/>
  <path stroke="#383838" d="M252.5 74.414l-10-4M252.5 74.414l-10 4M50.5 74.414h203"/>
  <text font-family="Verdana" font-size="13" font-weight="bold" lengthAdjust="spacingAndGlyphs" textLength="21" x="90" y="69.348">
    [1]
  </text>
  <text font-family="Verdana" font-size="13" font-weight="bold" lengthAdjust="spacingAndGlyphs" textLength="100" x="115" y="69.348">
    POST /service
  </text>
  <path stroke="#383838" d="M50.5 103.547l10-4M50.5 103.547l10 4"/>
  <path stroke="#383838" stroke-dasharray="2,2" d="M50.5 103.547h203"/>
  <text font-family="Verdana" font-size="13" font-weight="bold" lengthAdjust="spacingAndGlyphs" textLength="21" x="68.5" y="98.481">
    [2]
  </text>
  <text font-family="Verdana" font-size="13" font-weight="bold" lengthAdjust="spacingAndGlyphs" textLength="69" x="93.5" y="98.481">
    HTTP 202
  </text>
  <text font-family="Verdana" font-size="13" lengthAdjust="spacingAndGlyphs" textLength="70" x="166.5" y="98.481">
    (Accepted)
  </text>
  <path stroke="#383838" d="M50.5 162.945h42M92.5 162.945v13M51.5 175.945h41"/>
  <path fill="#383838" stroke="#383838" d="M61.5 171.945l-10 4 10 4-4-4z"/>
  <text font-family="Verdana" font-size="13" font-weight="bold" lengthAdjust="spacingAndGlyphs" textLength="21" x="57.5" y="142.747">
    [3]
  </text>
  <text font-family="Verdana" font-size="13" lengthAdjust="spacingAndGlyphs" textLength="165" x="82.5" y="127.614">
    No update received within
  </text>
  <text font-family="Verdana" font-size="13" lengthAdjust="spacingAndGlyphs" textLength="152" x="82.5" y="142.747">
    reasonable time period,
  </text>
  <text font-family="Verdana" font-size="13" lengthAdjust="spacingAndGlyphs" textLength="81" x="82.5" y="157.879">
    check status
  </text>
  <path stroke="#383838" d="M252.5 205.078l-10-4M252.5 205.078l-10 4M50.5 205.078h203"/>
  <text font-family="Verdana" font-size="13" font-weight="bold" lengthAdjust="spacingAndGlyphs" textLength="21" x="77.5" y="200.012">
    [4]
  </text>
  <text font-family="Verdana" font-size="13" font-weight="bold" lengthAdjust="spacingAndGlyphs" textLength="90" x="102.5" y="200.012">
    GET /service
  </text>
  <text font-family="Verdana" font-size="13" font-style="italic" lengthAdjust="spacingAndGlyphs" textLength="35" x="192.5" y="200.012">
    &lt;ID&gt;
  </text>
  <path stroke="#383838" d="M50.5 234.211l10-4M50.5 234.211l10 4"/>
  <path stroke="#383838" stroke-dasharray="2,2" d="M50.5 234.211h203"/>
  <text font-family="Verdana" font-size="13" font-weight="bold" lengthAdjust="spacingAndGlyphs" textLength="69" x="81" y="229.145">
    HTTP 202
  </text>
  <text font-family="Verdana" font-size="13" lengthAdjust="spacingAndGlyphs" textLength="70" x="154" y="229.145">
    (Accepted)
  </text>
  <path stroke="#383838" d="M50.5 263.344l10-4M50.5 263.344l10 4M50.5 263.344h203"/>
  <text font-family="Verdana" font-size="13" font-weight="bold" lengthAdjust="spacingAndGlyphs" textLength="21" x="75" y="258.278">
    [5]
  </text>
  <text font-family="Verdana" font-size="13" font-weight="bold" lengthAdjust="spacingAndGlyphs" textLength="95" x="100" y="258.278">
    PUT /service/
  </text>
  <text font-family="Verdana" font-size="13" font-style="italic" lengthAdjust="spacingAndGlyphs" textLength="35" x="195" y="258.278">
    &lt;ID&gt;
  </text>
  <path stroke="#383838" d="M257.5 292.477l-10-4M257.5 292.477l-10 4"/>
  <path stroke="#383838" stroke-dasharray="2,2" d="M45.5 292.477h213"/>
  <text font-family="Verdana" font-size="13" font-weight="bold" lengthAdjust="spacingAndGlyphs" textLength="21" x="89.5" y="287.411">
    [6]
  </text>
  <text font-family="Verdana" font-size="13" font-weight="bold" lengthAdjust="spacingAndGlyphs" textLength="69" x="114.5" y="287.411">
    HTTP 200
  </text>
  <text font-family="Verdana" font-size="13" lengthAdjust="spacingAndGlyphs" textLength="28" x="187.5" y="287.411">
    (OK)
  </text>
</svg>
