<svg xmlns="http://www.w3.org/2000/svg" height="500" preserveAspectRatio="none" style="width:636px;height:500px" width="636">
  <path fill="#F4F4F4" stroke="#000" d="M28.5 112.828h10v362.727h-10zM266.5 112.828h10v306.594h-10zM477.5 186.227h10v159.797h-10z"/>
  <path stroke="#000" stroke-dasharray="5,5" d="M33 66.563v426.992M271 66.563v426.992M482 66.563v426.992"/>
  <path fill="#F4F4F4" stroke="#383838" stroke-width="1.5" d="M5 5h57v60.563H5z"/>
  <text font-family="Verdana" font-size="20" font-weight="bold" lengthAdjust="spacingAndGlyphs" textLength="43" x="12" y="53.846">
    FSP
  </text>
  <path fill="#F4F4F4" stroke="#383838" stroke-width="1.5" d="M216 5h111v60.563H216z"/>
  <text font-family="Verdana" font-size="20" font-weight="bold" lengthAdjust="spacingAndGlyphs" textLength="97" x="223" y="30.564">
    Optional
  </text>
  <text font-family="Verdana" font-size="20" font-weight="bold" lengthAdjust="spacingAndGlyphs" textLength="75" x="234" y="53.846">
    Switch
  </text>
  <path fill="#F4F4F4" stroke="#383838" stroke-width="1.5" d="M449 5h67v60.563h-67z"/>
  <text font-family="Verdana" font-size="20" font-weight="bold" lengthAdjust="spacingAndGlyphs" textLength="53" x="456" y="30.564">
    Peer
  </text>
  <text font-family="Verdana" font-size="20" font-weight="bold" lengthAdjust="spacingAndGlyphs" textLength="43" x="461" y="53.846">
    FSP
  </text>
  <path fill="#F4F4F4" stroke="#000" d="M28.5 112.828h10v362.727h-10zM266.5 112.828h10v306.594h-10zM477.5 186.227h10v159.797h-10z"/>
  <path stroke="#000" d="M264.5 112.828l-10-4M264.5 112.828l-10 4M38.5 112.828h227"/>
  <text font-family="Verdana" font-size="13" font-weight="bold" lengthAdjust="spacingAndGlyphs" textLength="100" x="102.5" y="92.629">
    POST /service
  </text>
  <text font-family="Verdana" font-size="13" lengthAdjust="spacingAndGlyphs" textLength="155" x="75" y="107.762">
    (Service information, ID)
  </text>
  <path stroke="#4c4c4c" d="M38.5 141.961l10-4M38.5 141.961l10 4"/>
  <path stroke="#4c4c4c" stroke-dasharray="2,2" d="M38.5 141.961h227"/>
  <text font-family="Verdana" font-size="13" font-weight="bold" lengthAdjust="spacingAndGlyphs" textLength="69" x="81" y="136.895">
    HTTP 202
  </text>
  <text font-family="Verdana" font-size="13" lengthAdjust="spacingAndGlyphs" textLength="70" x="154" y="136.895">
    (Accepted)
  </text>
  <path stroke="#000" d="M475.5 186.227l-10-4M475.5 186.227l-10 4M276.5 186.227h200"/>
  <text font-family="Verdana" font-size="13" font-weight="bold" lengthAdjust="spacingAndGlyphs" textLength="100" x="327" y="166.028">
    POST /service
  </text>
  <text font-family="Verdana" font-size="13" lengthAdjust="spacingAndGlyphs" textLength="155" x="299.5" y="181.161">
    (Service information, ID)
  </text>
  <path stroke="#4c4c4c" d="M276.5 215.359l10-4M276.5 215.359l10 4"/>
  <path stroke="#4c4c4c" stroke-dasharray="2,2" d="M276.5 215.359h200"/>
  <text font-family="Verdana" font-size="13" font-weight="bold" lengthAdjust="spacingAndGlyphs" textLength="69" x="305.5" y="210.293">
    HTTP 202
  </text>
  <text font-family="Verdana" font-size="13" lengthAdjust="spacingAndGlyphs" textLength="70" x="378.5" y="210.293">
    (Accepted)
  </text>
  <path stroke="#000" d="M487.5 259.625h42M529.5 259.625v13M488.5 272.625h41M498.5 268.625l-10 4 10 4-4-4z"/>
  <text font-family="Verdana" font-size="13" lengthAdjust="spacingAndGlyphs" textLength="135" x="494.5" y="239.426">
    Create service object
  </text>
  <text font-family="Verdana" font-size="13" lengthAdjust="spacingAndGlyphs" textLength="132" x="494.5" y="254.559">
    according to request
  </text>
  <path stroke="#000" d="M276.5 316.891l10-4M276.5 316.891l10 4M276.5 316.891h200"/>
  <text font-family="Verdana" font-size="13" font-weight="bold" lengthAdjust="spacingAndGlyphs" textLength="95" x="312" y="296.692">
    PUT /service/
  </text>
  <text font-family="Verdana" font-size="13" font-style="italic" lengthAdjust="spacingAndGlyphs" textLength="35" x="407" y="296.692">
    &lt;ID&gt;
  </text>
  <text font-family="Verdana" font-size="13" lengthAdjust="spacingAndGlyphs" textLength="177" x="288.5" y="311.825">
    (Service object information)
  </text>
  <path stroke="#4c4c4c" d="M480.5 346.023l-10-4M480.5 346.023l-10 4"/>
  <path stroke="#4c4c4c" stroke-dasharray="2,2" d="M276.5 346.023h205"/>
  <text font-family="Verdana" font-size="13" font-weight="bold" lengthAdjust="spacingAndGlyphs" textLength="69" x="329" y="340.957">
    HTTP 200
  </text>
  <text font-family="Verdana" font-size="13" lengthAdjust="spacingAndGlyphs" textLength="28" x="402" y="340.957">
    (OK)
  </text>
  <path stroke="#000" d="M38.5 390.289l10-4M38.5 390.289l10 4M38.5 390.289h227"/>
  <text font-family="Verdana" font-size="13" font-weight="bold" lengthAdjust="spacingAndGlyphs" textLength="95" x="87.5" y="370.09">
    PUT /service/
  </text>
  <text font-family="Verdana" font-size="13" font-style="italic" lengthAdjust="spacingAndGlyphs" textLength="35" x="182.5" y="370.09">
    &lt;ID&gt;
  </text>
  <text font-family="Verdana" font-size="13" lengthAdjust="spacingAndGlyphs" textLength="177" x="64" y="385.223">
    (Service object information)
  </text>
  <path stroke="#4c4c4c" d="M269.5 419.422l-10-4M269.5 419.422l-10 4"/>
  <path stroke="#4c4c4c" stroke-dasharray="2,2" d="M38.5 419.422h232"/>
  <text font-family="Verdana" font-size="13" font-weight="bold" lengthAdjust="spacingAndGlyphs" textLength="69" x="104.5" y="414.356">
    HTTP 200
  </text>
  <text font-family="Verdana" font-size="13" lengthAdjust="spacingAndGlyphs" textLength="28" x="177.5" y="414.356">
    (OK)
  </text>
  <path stroke="#000" d="M38.5 448.555h42M80.5 448.555v13M39.5 461.555h41M49.5 457.555l-10 4 10 4-4-4z"/>
  <text font-family="Verdana" font-size="13" lengthAdjust="spacingAndGlyphs" textLength="214" x="45.5" y="443.489">
    Handle service object information
  </text>
</svg>
