<svg xmlns="http://www.w3.org/2000/svg" height="707" preserveAspectRatio="none" style="width:786px;height:707px" width="786">
  <path fill="#F4F4F4" stroke="#000" d="M28.5 127.961h10v554.055h-10zM267.5 127.961h10v554.055h-10zM511.5 273.758h10v312.727h-10z"/>
  <path stroke="#000" stroke-dasharray="5,5" d="M33 66.563v633.453M272 66.563v633.453M516 66.563v633.453"/>
  <path fill="#F4F4F4" stroke="#383838" stroke-width="1.5" d="M5 5h57v60.563H5z"/>
  <text font-family="Verdana" font-size="20" font-weight="bold" lengthAdjust="spacingAndGlyphs" textLength="43" x="12" y="53.846">
    FSP
  </text>
  <path fill="#F4F4F4" stroke="#383838" stroke-width="1.5" d="M217 5h111v60.563H217z"/>
  <text font-family="Verdana" font-size="20" font-weight="bold" lengthAdjust="spacingAndGlyphs" textLength="97" x="224" y="30.564">
    Optional
  </text>
  <text font-family="Verdana" font-size="20" font-weight="bold" lengthAdjust="spacingAndGlyphs" textLength="75" x="235" y="53.846">
    Switch
  </text>
  <path fill="#F4F4F4" stroke="#383838" stroke-width="1.5" d="M483 5h67v60.563h-67z"/>
  <text font-family="Verdana" font-size="20" font-weight="bold" lengthAdjust="spacingAndGlyphs" textLength="53" x="490" y="30.564">
    Peer
  </text>
  <text font-family="Verdana" font-size="20" font-weight="bold" lengthAdjust="spacingAndGlyphs" textLength="43" x="495" y="53.846">
    FSP
  </text>
  <path fill="#F4F4F4" stroke="#000" d="M28.5 127.961h10v554.055h-10zM267.5 127.961h10v554.055h-10zM511.5 273.758h10v312.727h-10z"/>
  <path stroke="#000" d="M265.5 127.961l-10-4M265.5 127.961l-10 4M38.5 127.961h228"/>
  <text font-family="Verdana" font-size="13" font-weight="bold" lengthAdjust="spacingAndGlyphs" textLength="100" x="103" y="92.629">
    POST /service
  </text>
  <text font-family="Verdana" font-size="13" lengthAdjust="spacingAndGlyphs" textLength="5" x="77" y="107.762">
    (
  </text>
  <text font-family="Verdana" font-size="13" font-weight="bold" lengthAdjust="spacingAndGlyphs" textLength="119" x="82" y="107.762">
    FSPIOP-Source=
  </text>
  <text font-family="Verdana" font-size="13" lengthAdjust="spacingAndGlyphs" textLength="28" x="201" y="107.762">
    FSP,
  </text>
  <text font-family="Verdana" font-size="13" font-weight="bold" lengthAdjust="spacingAndGlyphs" textLength="153" x="45.5" y="122.895">
    FSPIOP-Destination=
  </text>
  <text font-family="Verdana" font-size="13" lengthAdjust="spacingAndGlyphs" textLength="62" x="198.5" y="122.895">
    Peer FSP)
  </text>
  <path stroke="#000" d="M38.5 157.094l10-4M38.5 157.094l10 4"/>
  <path stroke="#000" stroke-dasharray="2,2" d="M38.5 157.094h228"/>
  <text font-family="Verdana" font-size="13" font-weight="bold" lengthAdjust="spacingAndGlyphs" textLength="69" x="81.5" y="152.028">
    HTTP 202
  </text>
  <text font-family="Verdana" font-size="13" lengthAdjust="spacingAndGlyphs" textLength="70" x="154.5" y="152.028">
    (Accepted)
  </text>
  <path stroke="#000" d="M277.5 201.359h42M319.5 201.359v13M278.5 214.359h41M288.5 210.36l-10 4 10 4-4-4z"/>
  <text font-family="Verdana" font-size="13" lengthAdjust="spacingAndGlyphs" textLength="166" x="284.5" y="181.161">
    Route message according
  </text>
  <text font-family="Verdana" font-size="13" lengthAdjust="spacingAndGlyphs" textLength="13" x="284.5" y="196.293">
    to
  </text>
  <text font-family="Verdana" font-size="13" font-weight="bold" lengthAdjust="spacingAndGlyphs" textLength="142" x="301.5" y="196.293">
    FSPIOP-Destination
  </text>
  <path stroke="#000" d="M509.5 273.758l-10-4M509.5 273.758l-10 4M277.5 273.758h233"/>
  <text font-family="Verdana" font-size="13" font-weight="bold" lengthAdjust="spacingAndGlyphs" textLength="100" x="344.5" y="238.426">
    POST /service
  </text>
  <text font-family="Verdana" font-size="13" lengthAdjust="spacingAndGlyphs" textLength="5" x="318.5" y="253.559">
    (
  </text>
  <text font-family="Verdana" font-size="13" font-weight="bold" lengthAdjust="spacingAndGlyphs" textLength="119" x="323.5" y="253.559">
    FSPIOP-Source=
  </text>
  <text font-family="Verdana" font-size="13" lengthAdjust="spacingAndGlyphs" textLength="28" x="442.5" y="253.559">
    FSP,
  </text>
  <text font-family="Verdana" font-size="13" font-weight="bold" lengthAdjust="spacingAndGlyphs" textLength="153" x="287" y="268.692">
    FSPIOP-Destination=
  </text>
  <text font-family="Verdana" font-size="13" lengthAdjust="spacingAndGlyphs" textLength="62" x="440" y="268.692">
    Peer FSP)
  </text>
  <path stroke="#000" d="M277.5 302.891l10-4M277.5 302.891l10 4"/>
  <path stroke="#000" stroke-dasharray="2,2" d="M277.5 302.891h233"/>
  <text font-family="Verdana" font-size="13" font-weight="bold" lengthAdjust="spacingAndGlyphs" textLength="69" x="323" y="297.825">
    HTTP 202
  </text>
  <text font-family="Verdana" font-size="13" lengthAdjust="spacingAndGlyphs" textLength="70" x="396" y="297.825">
    (Accepted)
  </text>
  <path stroke="#000" d="M521.5 362.289h42M563.5 362.289v13M522.5 375.289h41M532.5 371.29l-10 4 10 4-4-4z"/>
  <text font-family="Verdana" font-size="13" lengthAdjust="spacingAndGlyphs" textLength="251" x="528.5" y="326.957">
    Optionally validate messages signature
  </text>
  <text font-family="Verdana" font-size="13" lengthAdjust="spacingAndGlyphs" textLength="167" x="528.5" y="342.09">
    using stored certificate for
  </text>
  <text font-family="Verdana" font-size="13" lengthAdjust="spacingAndGlyphs" textLength="39" x="528.5" y="357.223">
    FSP in
  </text>
  <text font-family="Verdana" font-size="13" font-weight="bold" lengthAdjust="spacingAndGlyphs" textLength="108" x="571.5" y="357.223">
    FSPIOP-Source
  </text>
  <path stroke="#000" d="M521.5 434.688h42M563.5 434.688v13M522.5 447.688h41M532.5 443.688l-10 4 10 4-4-4z"/>
  <text font-family="Verdana" font-size="13" lengthAdjust="spacingAndGlyphs" textLength="50" x="528.5" y="399.356">
    Replace
  </text>
  <text font-family="Verdana" font-size="13" font-weight="bold" lengthAdjust="spacingAndGlyphs" textLength="108" x="582.5" y="399.356">
    FSPIOP-Source
  </text>
  <text font-family="Verdana" font-size="13" lengthAdjust="spacingAndGlyphs" textLength="25" x="528.5" y="414.489">
    with
  </text>
  <text font-family="Verdana" font-size="13" font-weight="bold" lengthAdjust="spacingAndGlyphs" textLength="142" x="557.5" y="414.489">
    FSPIOP-Destination
  </text>
  <text font-family="Verdana" font-size="13" lengthAdjust="spacingAndGlyphs" textLength="233" x="528.5" y="429.622">
    and visa versa for routing of callback
  </text>
  <path stroke="#000" d="M277.5 507.086l10-4M277.5 507.086l10 4M277.5 507.086h233"/>
  <text font-family="Verdana" font-size="13" font-weight="bold" lengthAdjust="spacingAndGlyphs" textLength="95" x="329.5" y="471.754">
    PUT /service/
  </text>
  <text font-family="Verdana" font-size="13" font-style="italic" lengthAdjust="spacingAndGlyphs" textLength="35" x="424.5" y="471.754">
    &lt;ID&gt;
  </text>
  <text font-family="Verdana" font-size="13" lengthAdjust="spacingAndGlyphs" textLength="5" x="302" y="486.887">
    (
  </text>
  <text font-family="Verdana" font-size="13" font-weight="bold" lengthAdjust="spacingAndGlyphs" textLength="119" x="307" y="486.887">
    FSPIOP-Source=
  </text>
  <text font-family="Verdana" font-size="13" lengthAdjust="spacingAndGlyphs" textLength="61" x="426" y="486.887">
    Peer FSP,
  </text>
  <text font-family="Verdana" font-size="13" font-weight="bold" lengthAdjust="spacingAndGlyphs" textLength="153" x="303.5" y="502.02">
    FSPIOP-Destination=
  </text>
  <text font-family="Verdana" font-size="13" lengthAdjust="spacingAndGlyphs" textLength="29" x="456.5" y="502.02">
    FSP)
  </text>
  <path stroke="#000" d="M509.5 536.219l-10-4M509.5 536.219l-10 4"/>
  <path stroke="#000" stroke-dasharray="2,2" d="M277.5 536.219h233"/>
  <text font-family="Verdana" font-size="13" font-weight="bold" lengthAdjust="spacingAndGlyphs" textLength="69" x="344" y="531.153">
    HTTP 200
  </text>
  <text font-family="Verdana" font-size="13" lengthAdjust="spacingAndGlyphs" textLength="28" x="417" y="531.153">
    (OK)
  </text>
  <path stroke="#000" d="M277.5 585.484h42M319.5 585.484v13M272.5 598.484h47M282.5 594.484l-10 4 10 4-4-4z"/>
  <text font-family="Verdana" font-size="13" lengthAdjust="spacingAndGlyphs" textLength="166" x="284.5" y="565.286">
    Route message according
  </text>
  <text font-family="Verdana" font-size="13" lengthAdjust="spacingAndGlyphs" textLength="13" x="284.5" y="580.418">
    to
  </text>
  <text font-family="Verdana" font-size="13" font-weight="bold" lengthAdjust="spacingAndGlyphs" textLength="142" x="301.5" y="580.418">
    FSPIOP-Destination
  </text>
  <path stroke="#000" d="M38.5 652.883l10-4M38.5 652.883l10 4M38.5 652.883h228"/>
  <text font-family="Verdana" font-size="13" font-weight="bold" lengthAdjust="spacingAndGlyphs" textLength="95" x="88" y="617.551">
    PUT /service/
  </text>
  <text font-family="Verdana" font-size="13" font-style="italic" lengthAdjust="spacingAndGlyphs" textLength="35" x="183" y="617.551">
    &lt;ID&gt;
  </text>
  <text font-family="Verdana" font-size="13" lengthAdjust="spacingAndGlyphs" textLength="5" x="60.5" y="632.684">
    (
  </text>
  <text font-family="Verdana" font-size="13" font-weight="bold" lengthAdjust="spacingAndGlyphs" textLength="119" x="65.5" y="632.684">
    FSPIOP-Source=
  </text>
  <text font-family="Verdana" font-size="13" lengthAdjust="spacingAndGlyphs" textLength="61" x="184.5" y="632.684">
    Peer FSP,
  </text>
  <text font-family="Verdana" font-size="13" font-weight="bold" lengthAdjust="spacingAndGlyphs" textLength="153" x="62" y="647.817">
    FSPIOP-Destination=
  </text>
  <text font-family="Verdana" font-size="13" lengthAdjust="spacingAndGlyphs" textLength="29" x="215" y="647.817">
    FSP)
  </text>
  <path stroke="#000" d="M270.5 682.016l-10-4M270.5 682.016l-10 4"/>
  <path stroke="#000" stroke-dasharray="2,2" d="M33.5 682.016h238"/>
  <text font-family="Verdana" font-size="13" font-weight="bold" lengthAdjust="spacingAndGlyphs" textLength="69" x="102.5" y="676.95">
    HTTP 200
  </text>
  <text font-family="Verdana" font-size="13" lengthAdjust="spacingAndGlyphs" textLength="28" x="175.5" y="676.95">
    (OK)
  </text>
</svg>
