<svg xmlns="http://www.w3.org/2000/svg" height="941" preserveAspectRatio="none" style="width:1030px;height:941px" width="1030">
  <path fill="#F4F4F4" stroke="#000" d="M28.5 112.828h10v803.516h-10zM296.5 112.828h10v803.516h-10zM601.5 201.359h10v205.195h-10zM796.5 523.219h10v247.328h-10z"/>
  <path stroke="#000" stroke-dasharray="5,5" d="M33 66.563v867.781M301 66.563v867.781M606 66.563v867.781M801 66.563v867.781"/>
  <path fill="#F4F4F4" stroke="#383838" stroke-width="1.5" d="M5 5h57v60.563H5z"/>
  <text font-family="Verdana" font-size="20" font-weight="bold" lengthAdjust="spacingAndGlyphs" textLength="43" x="12" y="53.846">
    FSP
  </text>
  <path fill="#F4F4F4" stroke="#383838" stroke-width="1.5" d="M246 5h111v60.563H246z"/>
  <text font-family="Verdana" font-size="20" font-weight="bold" lengthAdjust="spacingAndGlyphs" textLength="97" x="253" y="30.564">
    Optional
  </text>
  <text font-family="Verdana" font-size="20" font-weight="bold" lengthAdjust="spacingAndGlyphs" textLength="75" x="264" y="53.846">
    Switch
  </text>
  <path fill="#F4F4F4" stroke="#383838" stroke-width="1.5" d="M554 5h105v60.563H554z"/>
  <text font-family="Verdana" font-size="20" font-weight="bold" lengthAdjust="spacingAndGlyphs" textLength="91" x="561" y="30.564">
    Account
  </text>
  <text font-family="Verdana" font-size="20" font-weight="bold" lengthAdjust="spacingAndGlyphs" textLength="82" x="565.5" y="53.846">
    Lookup
  </text>
  <path fill="#F4F4F4" stroke="#383838" stroke-width="1.5" d="M768 5h67v60.563h-67z"/>
  <text font-family="Verdana" font-size="20" font-weight="bold" lengthAdjust="spacingAndGlyphs" textLength="53" x="775" y="30.564">
    Peer
  </text>
  <text font-family="Verdana" font-size="20" font-weight="bold" lengthAdjust="spacingAndGlyphs" textLength="43" x="780" y="53.846">
    FSP
  </text>
  <path fill="#F4F4F4" stroke="#000" d="M28.5 112.828h10v803.516h-10zM296.5 112.828h10v803.516h-10zM601.5 201.359h10v205.195h-10zM796.5 523.219h10v247.328h-10z"/>
  <path stroke="#000" d="M294.5 112.828l-10-4M294.5 112.828l-10 4M38.5 112.828h257"/>
  <text font-family="Verdana" font-size="13" font-weight="bold" lengthAdjust="spacingAndGlyphs" textLength="234" x="50.5" y="92.629">
    GET /parties/msisdn/123456789
  </text>
  <text font-family="Verdana" font-size="13" lengthAdjust="spacingAndGlyphs" textLength="5" x="91" y="107.762">
    (
  </text>
  <text font-family="Verdana" font-size="13" font-weight="bold" lengthAdjust="spacingAndGlyphs" textLength="119" x="96" y="107.762">
    FSPIOP-Source=
  </text>
  <text font-family="Verdana" font-size="13" lengthAdjust="spacingAndGlyphs" textLength="29" x="215" y="107.762">
    FSP)
  </text>
  <path stroke="#000" d="M38.5 141.961l10-4M38.5 141.961l10 4"/>
  <path stroke="#000" stroke-dasharray="2,2" d="M38.5 141.961h257"/>
  <text font-family="Verdana" font-size="13" font-weight="bold" lengthAdjust="spacingAndGlyphs" textLength="69" x="96" y="136.895">
    HTTP 202
  </text>
  <text font-family="Verdana" font-size="13" lengthAdjust="spacingAndGlyphs" textLength="70" x="169" y="136.895">
    (Accepted)
  </text>
  <path stroke="#000" d="M599.5 201.359l-10-4M599.5 201.359l-10 4M306.5 201.359h294"/>
  <text font-family="Verdana" font-size="13" font-weight="bold" lengthAdjust="spacingAndGlyphs" textLength="271" x="318.5" y="166.028">
    GET /participants/msisdn/123456789
  </text>
  <text font-family="Verdana" font-size="13" lengthAdjust="spacingAndGlyphs" textLength="5" x="369.5" y="181.161">
    (
  </text>
  <text font-family="Verdana" font-size="13" font-weight="bold" lengthAdjust="spacingAndGlyphs" textLength="119" x="374.5" y="181.161">
    FSPIOP-Source=
  </text>
  <text font-family="Verdana" font-size="13" lengthAdjust="spacingAndGlyphs" textLength="45" x="493.5" y="181.161">
    Switch,
  </text>
  <text font-family="Verdana" font-size="13" font-weight="bold" lengthAdjust="spacingAndGlyphs" textLength="153" x="324" y="196.293">
    FSPIOP-Destination=
  </text>
  <text font-family="Verdana" font-size="13" lengthAdjust="spacingAndGlyphs" textLength="107" x="477" y="196.293">
    Account Lookup)
  </text>
  <path stroke="#000" d="M306.5 230.492l10-4M306.5 230.492l10 4"/>
  <path stroke="#000" stroke-dasharray="2,2" d="M306.5 230.492h294"/>
  <text font-family="Verdana" font-size="13" font-weight="bold" lengthAdjust="spacingAndGlyphs" textLength="69" x="382.5" y="225.426">
    HTTP 202
  </text>
  <text font-family="Verdana" font-size="13" lengthAdjust="spacingAndGlyphs" textLength="70" x="455.5" y="225.426">
    (Accepted)
  </text>
  <path stroke="#000" d="M611.5 305.023h42M653.5 305.023v13M612.5 318.023h41M622.5 314.023l-10 4 10 4-4-4z"/>
  <text font-family="Verdana" font-size="13" lengthAdjust="spacingAndGlyphs" textLength="50" x="618.5" y="254.559">
    Replace
  </text>
  <text font-family="Verdana" font-size="13" font-weight="bold" lengthAdjust="spacingAndGlyphs" textLength="108" x="672.5" y="254.559">
    FSPIOP-Source
  </text>
  <text font-family="Verdana" font-size="13" lengthAdjust="spacingAndGlyphs" textLength="25" x="618.5" y="269.692">
    with
  </text>
  <text font-family="Verdana" font-size="13" font-weight="bold" lengthAdjust="spacingAndGlyphs" textLength="142" x="647.5" y="269.692">
    FSPIOP-Destination
  </text>
  <text font-family="Verdana" font-size="13" lengthAdjust="spacingAndGlyphs" textLength="113" x="618.5" y="284.825">
    and vice versa for
  </text>
  <text font-family="Verdana" font-size="13" lengthAdjust="spacingAndGlyphs" textLength="116" x="618.5" y="299.957">
    routing of callback
  </text>
  <path stroke="#000" d="M306.5 377.422l10-4M306.5 377.422l10 4M306.5 377.422h294"/>
  <text font-family="Verdana" font-size="13" font-weight="bold" lengthAdjust="spacingAndGlyphs" textLength="271" x="318.5" y="342.09">
    PUT /participants/msisdn/123456789
  </text>
  <text font-family="Verdana" font-size="13" lengthAdjust="spacingAndGlyphs" textLength="5" x="339" y="357.223">
    (
  </text>
  <text font-family="Verdana" font-size="13" font-weight="bold" lengthAdjust="spacingAndGlyphs" textLength="119" x="344" y="357.223">
    FSPIOP-Source=
  </text>
  <text font-family="Verdana" font-size="13" lengthAdjust="spacingAndGlyphs" textLength="106" x="463" y="357.223">
    Account Lookup,
  </text>
  <text font-family="Verdana" font-size="13" font-weight="bold" lengthAdjust="spacingAndGlyphs" textLength="153" x="354.5" y="372.356">
    FSPIOP-Destination=
  </text>
  <text font-family="Verdana" font-size="13" lengthAdjust="spacingAndGlyphs" textLength="46" x="507.5" y="372.356">
    Switch)
  </text>
  <path stroke="#000" d="M604.5 406.555l-10-4M604.5 406.555l-10 4"/>
  <path stroke="#000" stroke-dasharray="2,2" d="M306.5 406.555h299"/>
  <text font-family="Verdana" font-size="13" font-weight="bold" lengthAdjust="spacingAndGlyphs" textLength="69" x="406" y="401.489">
    HTTP 200
  </text>
  <text font-family="Verdana" font-size="13" lengthAdjust="spacingAndGlyphs" textLength="28" x="479" y="401.489">
    (OK)
  </text>
  <path stroke="#000" d="M306.5 465.953h42M348.5 465.953v13M307.5 478.953h41M317.5 474.953l-10 4 10 4-4-4z"/>
  <text font-family="Verdana" font-size="13" lengthAdjust="spacingAndGlyphs" textLength="22" x="313.5" y="430.622">
    Set
  </text>
  <text font-family="Verdana" font-size="13" font-weight="bold" lengthAdjust="spacingAndGlyphs" textLength="142" x="339.5" y="430.622">
    FSPIOP-Destination
  </text>
  <text font-family="Verdana" font-size="13" lengthAdjust="spacingAndGlyphs" textLength="197" x="313.5" y="445.754">
    in original messages according
  </text>
  <text font-family="Verdana" font-size="13" lengthAdjust="spacingAndGlyphs" textLength="76" x="313.5" y="460.887">
    to results of
  </text>
  <text font-family="Verdana" font-size="13" font-weight="bold" lengthAdjust="spacingAndGlyphs" textLength="127" x="393.5" y="460.887">
    PUT /participants
  </text>
  <path stroke="#000" d="M794.5 523.219l-10-4M794.5 523.219l-10 4M306.5 523.219h489"/>
  <text font-family="Verdana" font-size="13" font-weight="bold" lengthAdjust="spacingAndGlyphs" textLength="234" x="434.5" y="503.02">
    GET /parties/msisdn/123456789
  </text>
  <text font-family="Verdana" font-size="13" lengthAdjust="spacingAndGlyphs" textLength="5" x="366" y="518.153">
    (
  </text>
  <text font-family="Verdana" font-size="13" font-weight="bold" lengthAdjust="spacingAndGlyphs" textLength="119" x="371" y="518.153">
    FSPIOP-Source=
  </text>
  <text font-family="Verdana" font-size="13" lengthAdjust="spacingAndGlyphs" textLength="28" x="490" y="518.153">
    FSP,
  </text>
  <text font-family="Verdana" font-size="13" font-weight="bold" lengthAdjust="spacingAndGlyphs" textLength="153" x="522" y="518.153">
    FSPIOP-Destination=
  </text>
  <text font-family="Verdana" font-size="13" lengthAdjust="spacingAndGlyphs" textLength="62" x="675" y="518.153">
    Peer FSP)
  </text>
  <path stroke="#000" d="M306.5 552.352l10-4M306.5 552.352l10 4"/>
  <path stroke="#000" stroke-dasharray="2,2" d="M306.5 552.352h489"/>
  <text font-family="Verdana" font-size="13" font-weight="bold" lengthAdjust="spacingAndGlyphs" textLength="69" x="480" y="547.286">
    HTTP 202
  </text>
  <text font-family="Verdana" font-size="13" lengthAdjust="spacingAndGlyphs" textLength="70" x="553" y="547.286">
    (Accepted)
  </text>
  <path stroke="#000" d="M806.5 611.75h42M848.5 611.75v13M807.5 624.75h41M817.5 620.75l-10 4 10 4-4-4z"/>
  <text font-family="Verdana" font-size="13" lengthAdjust="spacingAndGlyphs" textLength="180" x="813.5" y="576.418">
    Optionally validate message
  </text>
  <text font-family="Verdana" font-size="13" lengthAdjust="spacingAndGlyphs" textLength="210" x="813.5" y="591.551">
    signature using stored certificate
  </text>
  <text font-family="Verdana" font-size="13" lengthAdjust="spacingAndGlyphs" textLength="60" x="813.5" y="606.684">
    for FSP in
  </text>
  <text font-family="Verdana" font-size="13" font-weight="bold" lengthAdjust="spacingAndGlyphs" textLength="108" x="877.5" y="606.684">
    FSPIOP-Source
  </text>
  <path stroke="#000" d="M806.5 684.148h42M848.5 684.148v13M807.5 697.148h41M817.5 693.148l-10 4 10 4-4-4z"/>
  <text font-family="Verdana" font-size="13" lengthAdjust="spacingAndGlyphs" textLength="50" x="813.5" y="648.817">
    Replace
  </text>
  <text font-family="Verdana" font-size="13" font-weight="bold" lengthAdjust="spacingAndGlyphs" textLength="108" x="867.5" y="648.817">
    FSPIOP-Source
  </text>
  <text font-family="Verdana" font-size="13" lengthAdjust="spacingAndGlyphs" textLength="25" x="813.5" y="663.95">
    with
  </text>
  <text font-family="Verdana" font-size="13" font-weight="bold" lengthAdjust="spacingAndGlyphs" textLength="142" x="842.5" y="663.95">
    FSPIOP-Destination
  </text>
  <text font-family="Verdana" font-size="13" lengthAdjust="spacingAndGlyphs" textLength="24" x="988.5" y="663.95">
    and
  </text>
  <text font-family="Verdana" font-size="13" lengthAdjust="spacingAndGlyphs" textLength="205" x="813.5" y="679.082">
    vice versa for routing of callback
  </text>
  <path stroke="#000" d="M306.5 741.414l10-4M306.5 741.414l10 4M306.5 741.414h489"/>
  <text font-family="Verdana" font-size="13" font-weight="bold" lengthAdjust="spacingAndGlyphs" textLength="234" x="434.5" y="721.215">
    PUT /parties/msisdn/123456789
  </text>
  <text font-family="Verdana" font-size="13" lengthAdjust="spacingAndGlyphs" textLength="5" x="366" y="736.348">
    (
  </text>
  <text font-family="Verdana" font-size="13" font-weight="bold" lengthAdjust="spacingAndGlyphs" textLength="119" x="371" y="736.348">
    FSPIOP-Source=
  </text>
  <text font-family="Verdana" font-size="13" lengthAdjust="spacingAndGlyphs" textLength="61" x="490" y="736.348">
    Peer FSP,
  </text>
  <text font-family="Verdana" font-size="13" font-weight="bold" lengthAdjust="spacingAndGlyphs" textLength="153" x="555" y="736.348">
    FSPIOP-Destination=
  </text>
  <text font-family="Verdana" font-size="13" lengthAdjust="spacingAndGlyphs" textLength="29" x="708" y="736.348">
    FSP)
  </text>
  <path stroke="#000" d="M799.5 770.547l-10-4M799.5 770.547l-10 4"/>
  <path stroke="#000" stroke-dasharray="2,2" d="M306.5 770.547h494"/>
  <text font-family="Verdana" font-size="13" font-weight="bold" lengthAdjust="spacingAndGlyphs" textLength="69" x="503.5" y="765.481">
    HTTP 200
  </text>
  <text font-family="Verdana" font-size="13" lengthAdjust="spacingAndGlyphs" textLength="28" x="576.5" y="765.481">
    (OK)
  </text>
  <path stroke="#000" d="M306.5 814.813h42M348.5 814.813v13M307.5 827.813h41M317.5 823.813l-10 4 10 4-4-4z"/>
  <text font-family="Verdana" font-size="13" lengthAdjust="spacingAndGlyphs" textLength="173" x="313.5" y="794.614">
    Route messages according
  </text>
  <text font-family="Verdana" font-size="13" lengthAdjust="spacingAndGlyphs" textLength="13" x="313.5" y="809.747">
    to
  </text>
  <text font-family="Verdana" font-size="13" font-weight="bold" lengthAdjust="spacingAndGlyphs" textLength="142" x="330.5" y="809.747">
    FSPIOP-Destination
  </text>
  <path stroke="#000" d="M38.5 887.211l10-4M38.5 887.211l10 4M38.5 887.211h257"/>
  <text font-family="Verdana" font-size="13" font-weight="bold" lengthAdjust="spacingAndGlyphs" textLength="234" x="50.5" y="851.879">
    PUT /parties/msisdn/123456789
  </text>
  <text font-family="Verdana" font-size="13" lengthAdjust="spacingAndGlyphs" textLength="5" x="75" y="867.012">
    (
  </text>
  <text font-family="Verdana" font-size="13" font-weight="bold" lengthAdjust="spacingAndGlyphs" textLength="119" x="80" y="867.012">
    FSPIOP-Source=
  </text>
  <text font-family="Verdana" font-size="13" lengthAdjust="spacingAndGlyphs" textLength="61" x="199" y="867.012">
    Peer FSP,
  </text>
  <text font-family="Verdana" font-size="13" font-weight="bold" lengthAdjust="spacingAndGlyphs" textLength="153" x="76.5" y="882.145">
    FSPIOP-Destination=
  </text>
  <text font-family="Verdana" font-size="13" lengthAdjust="spacingAndGlyphs" textLength="29" x="229.5" y="882.145">
    FSP)
  </text>
  <path stroke="#000" d="M299.5 916.344l-10-4M299.5 916.344l-10 4"/>
  <path stroke="#000" stroke-dasharray="2,2" d="M33.5 916.344h267"/>
  <text font-family="Verdana" font-size="13" font-weight="bold" lengthAdjust="spacingAndGlyphs" textLength="69" x="117" y="911.278">
    HTTP 200
  </text>
  <text font-family="Verdana" font-size="13" lengthAdjust="spacingAndGlyphs" textLength="28" x="190" y="911.278">
    (OK)
  </text>
</svg>
