<svg xmlns="http://www.w3.org/2000/svg" height="274" preserveAspectRatio="none" style="width:441px;height:274px" width="441">
  <path fill="#F4F4F4" stroke="#000" d="M40.5 74.414h10v174.93h-10zM270.5 74.414h10v174.93h-10z"/>
  <path stroke="#000" stroke-dasharray="5,5" d="M45 43.281v224.063M275 43.281v224.063"/>
  <path fill="#F4F4F4" stroke="#383838" stroke-width="1.5" d="M5 5h81v37.281H5z"/>
  <text font-family="Verdana" font-size="20" font-weight="bold" lengthAdjust="spacingAndGlyphs" textLength="67" x="12" y="30.564">
    Client
  </text>
  <path fill="#F4F4F4" stroke="#383838" stroke-width="1.5" d="M231 5h89v37.281h-89z"/>
  <text font-family="Verdana" font-size="20" font-weight="bold" lengthAdjust="spacingAndGlyphs" textLength="75" x="238" y="30.564">
    Server
  </text>
  <path fill="#F4F4F4" stroke="#000" d="M40.5 74.414h10v174.93h-10zM270.5 74.414h10v174.93h-10z"/>
  <path stroke="#000" d="M268.5 74.414l-10-4M268.5 74.414l-10 4M50.5 74.414h219"/>
  <text font-family="Verdana" font-size="13" font-weight="bold" lengthAdjust="spacingAndGlyphs" textLength="21" x="98" y="69.348">
    [1]
  </text>
  <text font-family="Verdana" font-size="13" font-weight="bold" lengthAdjust="spacingAndGlyphs" textLength="100" x="123" y="69.348">
    POST /service
  </text>
  <path stroke="#000" d="M50.5 103.547l10-4M50.5 103.547l10 4"/>
  <path stroke="#000" stroke-dasharray="2,2" d="M50.5 103.547h219"/>
  <text font-family="Verdana" font-size="13" font-weight="bold" lengthAdjust="spacingAndGlyphs" textLength="21" x="76.5" y="98.481">
    [2]
  </text>
  <text font-family="Verdana" font-size="13" font-weight="bold" lengthAdjust="spacingAndGlyphs" textLength="69" x="101.5" y="98.481">
    HTTP 202
  </text>
  <text font-family="Verdana" font-size="13" lengthAdjust="spacingAndGlyphs" textLength="70" x="174.5" y="98.481">
    (Accepted)
  </text>
  <path stroke="#000" d="M280.5 178.078h42M322.5 178.078v13M281.5 191.078h41M291.5 187.078l-10 4 10 4-4-4z"/>
  <text font-family="Verdana" font-size="13" lengthAdjust="spacingAndGlyphs" textLength="146" x="287.5" y="127.614">
    Some processing error
  </text>
  <text font-family="Verdana" font-size="13" lengthAdjust="spacingAndGlyphs" textLength="147" x="287.5" y="142.747">
    occurs, i.e. the request
  </text>
  <text font-family="Verdana" font-size="13" lengthAdjust="spacingAndGlyphs" textLength="142" x="287.5" y="157.879">
    can not be handled as
  </text>
  <text font-family="Verdana" font-size="13" lengthAdjust="spacingAndGlyphs" textLength="69" x="287.5" y="173.012">
    requested.
  </text>
  <path stroke="#000" d="M50.5 220.211l10-4M50.5 220.211l10 4M50.5 220.211h219"/>
  <text font-family="Verdana" font-size="13" font-weight="bold" lengthAdjust="spacingAndGlyphs" textLength="21" x="62.5" y="215.145">
    [3]
  </text>
  <text font-family="Verdana" font-size="13" font-weight="bold" lengthAdjust="spacingAndGlyphs" textLength="95" x="87.5" y="215.145">
    PUT /service/
  </text>
  <text font-family="Verdana" font-size="13" font-style="italic" lengthAdjust="spacingAndGlyphs" textLength="35" x="182.5" y="215.145">
    &lt;ID&gt;
  </text>
  <text font-family="Verdana" font-size="13" font-weight="bold" lengthAdjust="spacingAndGlyphs" textLength="41" x="217.5" y="215.145">
    /error
  </text>
  <path stroke="#000" d="M273.5 249.344l-10-4M273.5 249.344l-10 4"/>
  <path stroke="#000" stroke-dasharray="2,2" d="M45.5 249.344h229"/>
  <text font-family="Verdana" font-size="13" font-weight="bold" lengthAdjust="spacingAndGlyphs" textLength="21" x="97.5" y="244.278">
    [4]
  </text>
  <text font-family="Verdana" font-size="13" font-weight="bold" lengthAdjust="spacingAndGlyphs" textLength="69" x="122.5" y="244.278">
    HTTP 200
  </text>
  <text font-family="Verdana" font-size="13" lengthAdjust="spacingAndGlyphs" textLength="28" x="195.5" y="244.278">
    (OK)
  </text>
</svg>
