<svg xmlns="http://www.w3.org/2000/svg" height="513" preserveAspectRatio="none" style="width:612px;height:513px" width="612">
  <path fill="#F4F4F4" stroke="#000" d="M28.5 97.695h10v383.859h-10zM239.5 97.695h10v306.594h-10zM450.5 155.961h10v174.93h-10z"/>
  <path stroke="#000" stroke-dasharray="5,5" d="M33 66.563v439.992M244 66.563v439.992M455 66.563v439.992"/>
  <path fill="#F4F4F4" stroke="#383838" stroke-width="1.5" d="M5 5h57v60.563H5z"/>
  <text font-family="Verdana" font-size="20" font-weight="bold" lengthAdjust="spacingAndGlyphs" textLength="43" x="12" y="53.846">
    FSP
  </text>
  <path fill="#F4F4F4" stroke="#383838" stroke-width="1.5" d="M189 5h111v60.563H189z"/>
  <text font-family="Verdana" font-size="20" font-weight="bold" lengthAdjust="spacingAndGlyphs" textLength="97" x="196" y="30.564">
    Optional
  </text>
  <text font-family="Verdana" font-size="20" font-weight="bold" lengthAdjust="spacingAndGlyphs" textLength="75" x="207" y="53.846">
    Switch
  </text>
  <path fill="#F4F4F4" stroke="#383838" stroke-width="1.5" d="M422 5h67v60.563h-67z"/>
  <text font-family="Verdana" font-size="20" font-weight="bold" lengthAdjust="spacingAndGlyphs" textLength="53" x="429" y="30.564">
    Peer
  </text>
  <text font-family="Verdana" font-size="20" font-weight="bold" lengthAdjust="spacingAndGlyphs" textLength="43" x="434" y="53.846">
    FSP
  </text>
  <path fill="#F4F4F4" stroke="#000" d="M28.5 97.695h10v383.859h-10zM239.5 97.695h10v306.594h-10zM450.5 155.961h10v174.93h-10z"/>
  <path stroke="#000" d="M237.5 97.695l-10-4M237.5 97.695l-10 4M38.5 97.695h200"/>
  <text font-family="Verdana" font-size="13" font-weight="bold" lengthAdjust="spacingAndGlyphs" textLength="95" x="74" y="92.629">
    GET /service/
  </text>
  <text font-family="Verdana" font-size="13" font-style="italic" lengthAdjust="spacingAndGlyphs" textLength="35" x="169" y="92.629">
    &lt;ID&gt;
  </text>
  <path stroke="#000" d="M38.5 126.828l10-4M38.5 126.828l10 4"/>
  <path stroke="#000" stroke-dasharray="2,2" d="M38.5 126.828h200"/>
  <text font-family="Verdana" font-size="13" font-weight="bold" lengthAdjust="spacingAndGlyphs" textLength="69" x="67.5" y="121.762">
    HTTP 202
  </text>
  <text font-family="Verdana" font-size="13" lengthAdjust="spacingAndGlyphs" textLength="70" x="140.5" y="121.762">
    (Accepted)
  </text>
  <path stroke="#000" d="M448.5 155.961l-10-4M448.5 155.961l-10 4M249.5 155.961h200"/>
  <text font-family="Verdana" font-size="13" font-weight="bold" lengthAdjust="spacingAndGlyphs" textLength="95" x="285" y="150.895">
    GET /service/
  </text>
  <text font-family="Verdana" font-size="13" font-style="italic" lengthAdjust="spacingAndGlyphs" textLength="35" x="380" y="150.895">
    &lt;ID&gt;
  </text>
  <path stroke="#000" d="M249.5 185.094l10-4M249.5 185.094l10 4"/>
  <path stroke="#000" stroke-dasharray="2,2" d="M249.5 185.094h200"/>
  <text font-family="Verdana" font-size="13" font-weight="bold" lengthAdjust="spacingAndGlyphs" textLength="69" x="278.5" y="180.028">
    HTTP 202
  </text>
  <text font-family="Verdana" font-size="13" lengthAdjust="spacingAndGlyphs" textLength="70" x="351.5" y="180.028">
    (Accepted)
  </text>
  <path stroke="#000" d="M460.5 244.492h42M502.5 244.492v13M461.5 257.492h41M471.5 253.492l-10 4 10 4-4-4z"/>
  <text font-family="Verdana" font-size="13" lengthAdjust="spacingAndGlyphs" textLength="95" x="467.5" y="209.161">
    Lookup service
  </text>
  <text font-family="Verdana" font-size="13" lengthAdjust="spacingAndGlyphs" textLength="138" x="467.5" y="224.293">
    information regarding
  </text>
  <text font-family="Verdana" font-size="13" lengthAdjust="spacingAndGlyphs" textLength="74" x="467.5" y="239.426">
    service with
  </text>
  <text font-family="Verdana" font-size="13" font-style="italic" lengthAdjust="spacingAndGlyphs" textLength="35" x="541.5" y="239.426">
    &lt;ID&gt;
  </text>
  <path stroke="#4c4c4c" d="M249.5 301.758l10-4M249.5 301.758l10 4M249.5 301.758h200"/>
  <text font-family="Verdana" font-size="13" font-weight="bold" lengthAdjust="spacingAndGlyphs" textLength="95" x="285" y="281.559">
    PUT /service/
  </text>
  <text font-family="Verdana" font-size="13" font-style="italic" lengthAdjust="spacingAndGlyphs" textLength="35" x="380" y="281.559">
    &lt;ID&gt;
  </text>
  <text font-family="Verdana" font-size="13" lengthAdjust="spacingAndGlyphs" textLength="177" x="261.5" y="296.692">
    (Service object information)
  </text>
  <path stroke="#000" d="M453.5 330.891l-10-4M453.5 330.891l-10 4"/>
  <path stroke="#000" stroke-dasharray="2,2" d="M249.5 330.891h205"/>
  <text font-family="Verdana" font-size="13" font-weight="bold" lengthAdjust="spacingAndGlyphs" textLength="69" x="302" y="325.825">
    HTTP 200
  </text>
  <text font-family="Verdana" font-size="13" lengthAdjust="spacingAndGlyphs" textLength="28" x="375" y="325.825">
    (OK)
  </text>
  <path stroke="#4c4c4c" d="M38.5 375.156l10-4M38.5 375.156l10 4M38.5 375.156h200"/>
  <text font-family="Verdana" font-size="13" font-weight="bold" lengthAdjust="spacingAndGlyphs" textLength="95" x="74" y="354.957">
    PUT /service/
  </text>
  <text font-family="Verdana" font-size="13" font-style="italic" lengthAdjust="spacingAndGlyphs" textLength="35" x="169" y="354.957">
    &lt;ID&gt;
  </text>
  <text font-family="Verdana" font-size="13" lengthAdjust="spacingAndGlyphs" textLength="177" x="50.5" y="370.09">
    (Service object information)
  </text>
  <path stroke="#000" d="M242.5 404.289l-10-4M242.5 404.289l-10 4"/>
  <path stroke="#000" stroke-dasharray="2,2" d="M38.5 404.289h205"/>
  <text font-family="Verdana" font-size="13" font-weight="bold" lengthAdjust="spacingAndGlyphs" textLength="69" x="91" y="399.223">
    HTTP 200
  </text>
  <text font-family="Verdana" font-size="13" lengthAdjust="spacingAndGlyphs" textLength="28" x="164" y="399.223">
    (OK)
  </text>
  <path stroke="#000" d="M38.5 448.555h42M80.5 448.555v13M39.5 461.555h41M49.5 457.555l-10 4 10 4-4-4z"/>
  <text font-family="Verdana" font-size="13" lengthAdjust="spacingAndGlyphs" textLength="137" x="45.5" y="428.356">
    Handle service object
  </text>
  <text font-family="Verdana" font-size="13" lengthAdjust="spacingAndGlyphs" textLength="122" x="45.5" y="443.489">
    information update
  </text>
</svg>
