<svg xmlns="http://www.w3.org/2000/svg" height="500" preserveAspectRatio="none" style="width:673px;height:500px" width="673">
  <path fill="#F4F4F4" stroke="#000" d="M28.5 112.828h10v362.727h-10zM303.5 112.828h10v306.594h-10zM514.5 186.227h10v159.797h-10z"/>
  <path stroke="#000" stroke-dasharray="5,5" d="M33 66.563v426.992M308 66.563v426.992M519 66.563v426.992"/>
  <path fill="#F4F4F4" stroke="#383838" stroke-width="1.5" d="M5 5h57v60.563H5z"/>
  <text font-family="Verdana" font-size="20" font-weight="bold" lengthAdjust="spacingAndGlyphs" textLength="43" x="12" y="53.846">
    FSP
  </text>
  <path fill="#F4F4F4" stroke="#383838" stroke-width="1.5" d="M253 5h111v60.563H253z"/>
  <text font-family="Verdana" font-size="20" font-weight="bold" lengthAdjust="spacingAndGlyphs" textLength="97" x="260" y="30.564">
    Optional
  </text>
  <text font-family="Verdana" font-size="20" font-weight="bold" lengthAdjust="spacingAndGlyphs" textLength="75" x="271" y="53.846">
    Switch
  </text>
  <path fill="#F4F4F4" stroke="#383838" stroke-width="1.5" d="M486 5h67v60.563h-67z"/>
  <text font-family="Verdana" font-size="20" font-weight="bold" lengthAdjust="spacingAndGlyphs" textLength="53" x="493" y="30.564">
    Peer
  </text>
  <text font-family="Verdana" font-size="20" font-weight="bold" lengthAdjust="spacingAndGlyphs" textLength="43" x="498" y="53.846">
    FSP
  </text>
  <path fill="#F4F4F4" stroke="#000" d="M28.5 112.828h10v362.727h-10zM303.5 112.828h10v306.594h-10zM514.5 186.227h10v159.797h-10z"/>
  <path stroke="#000" d="M301.5 112.828l-10-4M301.5 112.828l-10 4M38.5 112.828h264"/>
  <text font-family="Verdana" font-size="13" font-weight="bold" lengthAdjust="spacingAndGlyphs" textLength="100" x="121" y="92.629">
    POST /service
  </text>
  <text font-family="Verdana" font-size="13" lengthAdjust="spacingAndGlyphs" textLength="251" x="45.5" y="107.762">
    (Service information, ID) HELLO WORLD
  </text>
  <path stroke="#4c4c4c" d="M38.5 141.961l10-4M38.5 141.961l10 4"/>
  <path stroke="#4c4c4c" stroke-dasharray="2,2" d="M38.5 141.961h264"/>
  <text font-family="Verdana" font-size="13" font-weight="bold" lengthAdjust="spacingAndGlyphs" textLength="69" x="99.5" y="136.895">
    HTTP 202
  </text>
  <text font-family="Verdana" font-size="13" lengthAdjust="spacingAndGlyphs" textLength="70" x="172.5" y="136.895">
    (Accepted)
  </text>
  <path stroke="#000" d="M512.5 186.227l-10-4M512.5 186.227l-10 4M313.5 186.227h200"/>
  <text font-family="Verdana" font-size="13" font-weight="bold" lengthAdjust="spacingAndGlyphs" textLength="100" x="364" y="166.028">
    POST /service
  </text>
  <text font-family="Verdana" font-size="13" lengthAdjust="spacingAndGlyphs" textLength="155" x="336.5" y="181.161">
    (Service information, ID)
  </text>
  <path stroke="#4c4c4c" d="M313.5 215.359l10-4M313.5 215.359l10 4"/>
  <path stroke="#4c4c4c" stroke-dasharray="2,2" d="M313.5 215.359h200"/>
  <text font-family="Verdana" font-size="13" font-weight="bold" lengthAdjust="spacingAndGlyphs" textLength="69" x="342.5" y="210.293">
    HTTP 202
  </text>
  <text font-family="Verdana" font-size="13" lengthAdjust="spacingAndGlyphs" textLength="70" x="415.5" y="210.293">
    (Accepted)
  </text>
  <path stroke="#000" d="M524.5 259.625h42M566.5 259.625v13M525.5 272.625h41M535.5 268.625l-10 4 10 4-4-4z"/>
  <text font-family="Verdana" font-size="13" lengthAdjust="spacingAndGlyphs" textLength="135" x="531.5" y="239.426">
    Create service object
  </text>
  <text font-family="Verdana" font-size="13" lengthAdjust="spacingAndGlyphs" textLength="132" x="531.5" y="254.559">
    according to request
  </text>
  <path stroke="#000" d="M313.5 316.891l10-4M313.5 316.891l10 4M313.5 316.891h200"/>
  <text font-family="Verdana" font-size="13" font-weight="bold" lengthAdjust="spacingAndGlyphs" textLength="95" x="349" y="296.692">
    PUT /service/
  </text>
  <text font-family="Verdana" font-size="13" font-style="italic" lengthAdjust="spacingAndGlyphs" textLength="35" x="444" y="296.692">
    &lt;ID&gt;
  </text>
  <text font-family="Verdana" font-size="13" lengthAdjust="spacingAndGlyphs" textLength="177" x="325.5" y="311.825">
    (Service object information)
  </text>
  <path stroke="#4c4c4c" d="M517.5 346.023l-10-4M517.5 346.023l-10 4"/>
  <path stroke="#4c4c4c" stroke-dasharray="2,2" d="M313.5 346.023h205"/>
  <text font-family="Verdana" font-size="13" font-weight="bold" lengthAdjust="spacingAndGlyphs" textLength="69" x="366" y="340.957">
    HTTP 200
  </text>
  <text font-family="Verdana" font-size="13" lengthAdjust="spacingAndGlyphs" textLength="28" x="439" y="340.957">
    (OK)
  </text>
  <path stroke="#000" d="M38.5 390.289l10-4M38.5 390.289l10 4M38.5 390.289h264"/>
  <text font-family="Verdana" font-size="13" font-weight="bold" lengthAdjust="spacingAndGlyphs" textLength="95" x="106" y="370.09">
    PUT /service/
  </text>
  <text font-family="Verdana" font-size="13" font-style="italic" lengthAdjust="spacingAndGlyphs" textLength="35" x="201" y="370.09">
    &lt;ID&gt;
  </text>
  <text font-family="Verdana" font-size="13" lengthAdjust="spacingAndGlyphs" textLength="177" x="82.5" y="385.223">
    (Service object information)
  </text>
  <path stroke="#4c4c4c" d="M306.5 419.422l-10-4M306.5 419.422l-10 4"/>
  <path stroke="#4c4c4c" stroke-dasharray="2,2" d="M38.5 419.422h269"/>
  <text font-family="Verdana" font-size="13" font-weight="bold" lengthAdjust="spacingAndGlyphs" textLength="69" x="123" y="414.356">
    HTTP 200
  </text>
  <text font-family="Verdana" font-size="13" lengthAdjust="spacingAndGlyphs" textLength="28" x="196" y="414.356">
    (OK)
  </text>
  <path stroke="#000" d="M38.5 448.555h42M80.5 448.555v13M39.5 461.555h41M49.5 457.555l-10 4 10 4-4-4z"/>
  <text font-family="Verdana" font-size="13" lengthAdjust="spacingAndGlyphs" textLength="214" x="45.5" y="443.489">
    Handle service object information
  </text>
</svg>
