<?xml version="1.0" encoding="UTF-8" standalone="no"?><svg xmlns="http://www.w3.org/2000/svg" xmlns:xlink="http://www.w3.org/1999/xlink" contentScriptType="application/ecmascript" contentStyleType="text/css" height="1653px" preserveAspectRatio="none" style="width:1707px;height:1653px;" version="1.1" viewBox="0 0 1707 1653" width="1707px" zoomAndPan="magnify"><defs><filter height="300%" id="f1as0212fdbe98" width="300%" x="-1" y="-1"><feGaussianBlur result="blurOut" stdDeviation="2.0"/><feColorMatrix in="blurOut" result="blurOut2" type="matrix" values="0 0 0 0 0 0 0 0 0 0 0 0 0 0 0 0 0 0 .4 0"/><feOffset dx="4.0" dy="4.0" in="blurOut2" result="blurOut3"/><feBlend in="SourceGraphic" in2="blurOut3" mode="normal"/></filter></defs><g><text fill="#000000" font-family="sans-serif" font-size="14" font-weight="bold" lengthAdjust="spacingAndGlyphs" textLength="256" x="726.5" y="22.9951">3.1.0 Get Participant Callback Details</text><rect fill="#ADD8E6" height="1608.6406" style="stroke: #A80036; stroke-width: 1.0;" width="155" x="23" y="34.2969"/><text fill="#000000" font-family="sans-serif" font-size="13" font-weight="bold" lengthAdjust="spacingAndGlyphs" textLength="149" x="26" y="46.3638">ML API Adapter Service</text><rect fill="#FFFFE0" height="1608.6406" style="stroke: #A80036; stroke-width: 1.0;" width="1045.5" x="598" y="34.2969"/><text fill="#000000" font-family="sans-serif" font-size="13" font-weight="bold" lengthAdjust="spacingAndGlyphs" textLength="104" x="1068.75" y="46.3638">Central Services</text><rect fill="#FFFFFF" filter="url(#f1as0212fdbe98)" height="1434.9141" style="stroke: #A80036; stroke-width: 1.0;" width="10" x="95.5" y="125.7266"/><rect fill="#FFFFFF" filter="url(#f1as0212fdbe98)" height="1389.6484" style="stroke: #A80036; stroke-width: 1.0;" width="10" x="660.5" y="170.9922"/><rect fill="#FFFFFF" filter="url(#f1as0212fdbe98)" height="645.1875" style="stroke: #A80036; stroke-width: 1.0;" width="10" x="929.5" y="200.125"/><rect fill="#FFFFFF" filter="url(#f1as0212fdbe98)" height="642.0625" style="stroke: #A80036; stroke-width: 1.0;" width="10" x="929.5" y="874.4453"/><rect fill="#FFFFFF" filter="url(#f1as0212fdbe98)" height="120.5313" style="stroke: #A80036; stroke-width: 1.0;" width="10" x="1252.5" y="244.3906"/><rect fill="#FFFFFF" filter="url(#f1as0212fdbe98)" height="189.9297" style="stroke: #A80036; stroke-width: 1.0;" width="10" x="1252.5" y="541.7188"/><rect fill="#FFFFFF" filter="url(#f1as0212fdbe98)" height="174.7969" style="stroke: #A80036; stroke-width: 1.0;" width="10" x="1252.5" y="933.5156"/><rect fill="#FFFFFF" filter="url(#f1as0212fdbe98)" height="62.2656" style="stroke: #A80036; stroke-width: 1.0;" width="10" x="1590.5" y="273.5234"/><rect fill="#FFFFFF" filter="url(#f1as0212fdbe98)" height="131.6641" style="stroke: #A80036; stroke-width: 1.0;" width="10" x="1590.5" y="570.8516"/><rect fill="#FFFFFF" filter="url(#f1as0212fdbe98)" height="116.5313" style="stroke: #A80036; stroke-width: 1.0;" width="10" x="1590.5" y="962.6484"/><rect fill="#FFFFFF" filter="url(#f1as0212fdbe98)" height="1427.9141" style="stroke: #000000; stroke-width: 2.0;" width="1683" x="13" y="132.7266"/><rect fill="#FFFFFF" filter="url(#f1as0212fdbe98)" height="1131.5859" style="stroke: #000000; stroke-width: 2.0;" width="1663" x="23" y="422.0547"/><rect fill="#FFFFFF" filter="url(#f1as0212fdbe98)" height="816.1875" style="stroke: #000000; stroke-width: 2.0;" width="1643" x="33" y="488.3203"/><rect fill="#FFFFFF" height="422.0625" style="stroke: none; stroke-width: 1.0;" width="1643" x="33" y="882.4453"/><rect fill="#FFFFFF" height="242.1328" style="stroke: none; stroke-width: 1.0;" width="1663" x="23" y="1311.5078"/><line style="stroke: #A80036; stroke-width: 1.0; stroke-dasharray: 5.0,5.0;" x1="100" x2="100" y1="115.7266" y2="1577.6406"/><line style="stroke: #A80036; stroke-width: 1.0; stroke-dasharray: 5.0,5.0;" x1="665" x2="665" y1="115.7266" y2="1577.6406"/><line style="stroke: #A80036; stroke-width: 1.0; stroke-dasharray: 5.0,5.0;" x1="934.5" x2="934.5" y1="115.7266" y2="1577.6406"/><line style="stroke: #A80036; stroke-width: 1.0; stroke-dasharray: 5.0,5.0;" x1="1257.5" x2="1257.5" y1="115.7266" y2="1577.6406"/><line style="stroke: #A80036; stroke-width: 1.0; stroke-dasharray: 5.0,5.0;" x1="1595.5" x2="1595.5" y1="115.7266" y2="1577.6406"/><text fill="#000000" font-family="sans-serif" font-size="14" lengthAdjust="spacingAndGlyphs" textLength="109" x="43" y="112.4248">ML-API-ADAPTER</text><ellipse cx="100.5" cy="83.4297" fill="#FEFECE" filter="url(#f1as0212fdbe98)" rx="12" ry="12" style="stroke: #A80036; stroke-width: 2.0;"/><line style="stroke: #A80036; stroke-width: 2.0;" x1="88.5" x2="112.5" y1="97.4297" y2="97.4297"/><text fill="#000000" font-family="sans-serif" font-size="14" lengthAdjust="spacingAndGlyphs" textLength="109" x="43" y="1589.6357">ML-API-ADAPTER</text><ellipse cx="100.5" cy="1608.9375" fill="#FEFECE" filter="url(#f1as0212fdbe98)" rx="12" ry="12" style="stroke: #A80036; stroke-width: 2.0;"/><line style="stroke: #A80036; stroke-width: 2.0;" x1="88.5" x2="112.5" y1="1622.9375" y2="1622.9375"/><text fill="#000000" font-family="sans-serif" font-size="14" lengthAdjust="spacingAndGlyphs" textLength="121" x="602" y="112.4248">Central Service API</text><path d="M645,71.4297 L645,95.4297 M645,83.4297 L662,83.4297 " fill="none" filter="url(#f1as0212fdbe98)" style="stroke: #A80036; stroke-width: 2.0;"/><ellipse cx="674" cy="83.4297" fill="#FEFECE" filter="url(#f1as0212fdbe98)" rx="12" ry="12" style="stroke: #A80036; stroke-width: 2.0;"/><text fill="#000000" font-family="sans-serif" font-size="14" lengthAdjust="spacingAndGlyphs" textLength="121" x="602" y="1589.6357">Central Service API</text><path d="M645,1596.9375 L645,1620.9375 M645,1608.9375 L662,1608.9375 " fill="none" filter="url(#f1as0212fdbe98)" style="stroke: #A80036; stroke-width: 2.0;"/><ellipse cx="674" cy="1608.9375" fill="#FEFECE" filter="url(#f1as0212fdbe98)" rx="12" ry="12" style="stroke: #A80036; stroke-width: 2.0;"/><text fill="#000000" font-family="sans-serif" font-size="14" lengthAdjust="spacingAndGlyphs" textLength="122" x="870.5" y="112.4248">Participant Handler</text><ellipse cx="934.5" cy="83.4297" fill="#FEFECE" filter="url(#f1as0212fdbe98)" rx="12" ry="12" style="stroke: #A80036; stroke-width: 2.0;"/><polygon fill="#A80036" points="930.5,71.4297,936.5,66.4297,934.5,71.4297,936.5,76.4297,930.5,71.4297" style="stroke: #A80036; stroke-width: 1.0;"/><text fill="#000000" font-family="sans-serif" font-size="14" lengthAdjust="spacingAndGlyphs" textLength="122" x="870.5" y="1589.6357">Participant Handler</text><ellipse cx="934.5" cy="1608.9375" fill="#FEFECE" filter="url(#f1as0212fdbe98)" rx="12" ry="12" style="stroke: #A80036; stroke-width: 2.0;"/><polygon fill="#A80036" points="930.5,1596.9375,936.5,1591.9375,934.5,1596.9375,936.5,1601.9375,930.5,1596.9375" style="stroke: #A80036; stroke-width: 1.0;"/><text fill="#000000" font-family="sans-serif" font-size="14" lengthAdjust="spacingAndGlyphs" textLength="102" x="1203.5" y="112.4248">Participant DAO</text><ellipse cx="1257.5" cy="83.4297" fill="#FEFECE" filter="url(#f1as0212fdbe98)" rx="12" ry="12" style="stroke: #A80036; stroke-width: 2.0;"/><line style="stroke: #A80036; stroke-width: 2.0;" x1="1245.5" x2="1269.5" y1="97.4297" y2="97.4297"/><text fill="#000000" font-family="sans-serif" font-size="14" lengthAdjust="spacingAndGlyphs" textLength="102" x="1203.5" y="1589.6357">Participant DAO</text><ellipse cx="1257.5" cy="1608.9375" fill="#FEFECE" filter="url(#f1as0212fdbe98)" rx="12" ry="12" style="stroke: #A80036; stroke-width: 2.0;"/><line style="stroke: #A80036; stroke-width: 2.0;" x1="1245.5" x2="1269.5" y1="1622.9375" y2="1622.9375"/><text fill="#000000" font-family="sans-serif" font-size="14" lengthAdjust="spacingAndGlyphs" textLength="82" x="1551.5" y="112.4248">Central Store</text><path d="M1577.5,63.4297 C1577.5,53.4297 1595.5,53.4297 1595.5,53.4297 C1595.5,53.4297 1613.5,53.4297 1613.5,63.4297 L1613.5,89.4297 C1613.5,99.4297 1595.5,99.4297 1595.5,99.4297 C1595.5,99.4297 1577.5,99.4297 1577.5,89.4297 L1577.5,63.4297 " fill="#FEFECE" filter="url(#f1as0212fdbe98)" style="stroke: #000000; stroke-width: 1.5;"/><path d="M1577.5,63.4297 C1577.5,73.4297 1595.5,73.4297 1595.5,73.4297 C1595.5,73.4297 1613.5,73.4297 1613.5,63.4297 " fill="none" style="stroke: #000000; stroke-width: 1.5;"/><text fill="#000000" font-family="sans-serif" font-size="14" lengthAdjust="spacingAndGlyphs" textLength="82" x="1551.5" y="1589.6357">Central Store</text><path d="M1577.5,1602.9375 C1577.5,1592.9375 1595.5,1592.9375 1595.5,1592.9375 C1595.5,1592.9375 1613.5,1592.9375 1613.5,1602.9375 L1613.5,1628.9375 C1613.5,1638.9375 1595.5,1638.9375 1595.5,1638.9375 C1595.5,1638.9375 1577.5,1638.9375 1577.5,1628.9375 L1577.5,1602.9375 " fill="#FEFECE" filter="url(#f1as0212fdbe98)" style="stroke: #000000; stroke-width: 1.5;"/><path d="M1577.5,1602.9375 C1577.5,1612.9375 1595.5,1612.9375 1595.5,1612.9375 C1595.5,1612.9375 1613.5,1612.9375 1613.5,1602.9375 " fill="none" style="stroke: #000000; stroke-width: 1.5;"/><rect fill="#FFFFFF" filter="url(#f1as0212fdbe98)" height="1434.9141" style="stroke: #A80036; stroke-width: 1.0;" width="10" x="95.5" y="125.7266"/><rect fill="#FFFFFF" filter="url(#f1as0212fdbe98)" height="1389.6484" style="stroke: #A80036; stroke-width: 1.0;" width="10" x="660.5" y="170.9922"/><rect fill="#FFFFFF" filter="url(#f1as0212fdbe98)" height="645.1875" style="stroke: #A80036; stroke-width: 1.0;" width="10" x="929.5" y="200.125"/><rect fill="#FFFFFF" filter="url(#f1as0212fdbe98)" height="642.0625" style="stroke: #A80036; stroke-width: 1.0;" width="10" x="929.5" y="874.4453"/><rect fill="#FFFFFF" filter="url(#f1as0212fdbe98)" height="120.5313" style="stroke: #A80036; stroke-width: 1.0;" width="10" x="1252.5" y="244.3906"/><rect fill="#FFFFFF" filter="url(#f1as0212fdbe98)" height="189.9297" style="stroke: #A80036; stroke-width: 1.0;" width="10" x="1252.5" y="541.7188"/><rect fill="#FFFFFF" filter="url(#f1as0212fdbe98)" height="174.7969" style="stroke: #A80036; stroke-width: 1.0;" width="10" x="1252.5" y="933.5156"/><rect fill="#FFFFFF" filter="url(#f1as0212fdbe98)" height="62.2656" style="stroke: #A80036; stroke-width: 1.0;" width="10" x="1590.5" y="273.5234"/><rect fill="#FFFFFF" filter="url(#f1as0212fdbe98)" height="131.6641" style="stroke: #A80036; stroke-width: 1.0;" width="10" x="1590.5" y="570.8516"/><rect fill="#FFFFFF" filter="url(#f1as0212fdbe98)" height="116.5313" style="stroke: #A80036; stroke-width: 1.0;" width="10" x="1590.5" y="962.6484"/><path d="M13,132.7266 L187,132.7266 L187,139.7266 L177,149.7266 L13,149.7266 L13,132.7266 " fill="#EEEEEE" style="stroke: #000000; stroke-width: 1.0;"/><rect fill="none" height="1427.9141" style="stroke: #000000; stroke-width: 2.0;" width="1683" x="13" y="132.7266"/><text fill="#000000" font-family="sans-serif" font-size="13" font-weight="bold" lengthAdjust="spacingAndGlyphs" textLength="129" x="28" y="145.7935">Get Callback Details</text><polygon fill="#A80036" points="648.5,166.9922,658.5,170.9922,648.5,174.9922,652.5,170.9922" style="stroke: #A80036; stroke-width: 1.0;"/><line style="stroke: #A80036; stroke-width: 1.0;" x1="105.5" x2="654.5" y1="170.9922" y2="170.9922"/><text fill="#000000" font-family="sans-serif" font-size="13" font-weight="bold" lengthAdjust="spacingAndGlyphs" textLength="7" x="112.5" y="165.9263">1</text><text fill="#000000" font-family="sans-serif" font-size="13" lengthAdjust="spacingAndGlyphs" textLength="509" x="123.5" y="165.9263">Request to get callback details - GET - /participants/{name}/endpoints?type={typeValue}</text><polygon fill="#A80036" points="917.5,196.125,927.5,200.125,917.5,204.125,921.5,200.125" style="stroke: #A80036; stroke-width: 1.0;"/><line style="stroke: #A80036; stroke-width: 1.0;" x1="670.5" x2="923.5" y1="200.125" y2="200.125"/><text fill="#000000" font-family="sans-serif" font-size="13" font-weight="bold" lengthAdjust="spacingAndGlyphs" textLength="7" x="677.5" y="195.0591">2</text><text fill="#000000" font-family="sans-serif" font-size="13" lengthAdjust="spacingAndGlyphs" textLength="208" x="688.5" y="195.0591">Fetch Callback details for Participant</text><polygon fill="#A80036" points="1240.5,240.3906,1250.5,244.3906,1240.5,248.3906,1244.5,244.3906" style="stroke: #A80036; stroke-width: 1.0;"/><line style="stroke: #A80036; stroke-width: 1.0;" x1="939.5" x2="1246.5" y1="244.3906" y2="244.3906"/><text fill="#000000" font-family="sans-serif" font-size="13" font-weight="bold" lengthAdjust="spacingAndGlyphs" textLength="7" x="946.5" y="231.7583">3</text><text fill="#000000" font-family="sans-serif" font-size="13" lengthAdjust="spacingAndGlyphs" textLength="96" x="957.5" y="224.1919">Fetch Participant</text><text fill="#FF0000" font-family="sans-serif" font-size="13" font-weight="bold" lengthAdjust="spacingAndGlyphs" textLength="71" x="957.5" y="239.3247">Error code:</text><text fill="#FF0000" font-family="sans-serif" font-size="13" lengthAdjust="spacingAndGlyphs" textLength="28" x="1031.5" y="239.3247">3200</text><polygon fill="#A80036" points="1578.5,269.5234,1588.5,273.5234,1578.5,277.5234,1582.5,273.5234" style="stroke: #A80036; stroke-width: 1.0;"/><line style="stroke: #A80036; stroke-width: 1.0;" x1="1262.5" x2="1584.5" y1="273.5234" y2="273.5234"/><text fill="#000000" font-family="sans-serif" font-size="13" font-weight="bold" lengthAdjust="spacingAndGlyphs" textLength="7" x="1269.5" y="268.4575">4</text><text fill="#000000" font-family="sans-serif" font-size="13" lengthAdjust="spacingAndGlyphs" textLength="96" x="1280.5" y="268.4575">Fetch Participant</text><polygon fill="#FFFFE0" filter="url(#f1as0212fdbe98)" points="1562,286.5234,1629,286.5234,1639,297.5234,1629,309.5234,1562,309.5234,1552,297.5234,1562,286.5234" style="stroke: #A80036; stroke-width: 1.0;"/><text fill="#000000" font-family="sans-serif" font-size="13" lengthAdjust="spacingAndGlyphs" textLength="63" x="1564" y="302.5903">participant</text><polygon fill="#A80036" points="1273.5,331.7891,1263.5,335.7891,1273.5,339.7891,1269.5,335.7891" style="stroke: #A80036; stroke-width: 1.0;"/><line style="stroke: #A80036; stroke-width: 1.0; stroke-dasharray: 2.0,2.0;" x1="1267.5" x2="1594.5" y1="335.7891" y2="335.7891"/><text fill="#000000" font-family="sans-serif" font-size="13" font-weight="bold" lengthAdjust="spacingAndGlyphs" textLength="7" x="1279.5" y="330.7231">5</text><text fill="#000000" font-family="sans-serif" font-size="13" lengthAdjust="spacingAndGlyphs" textLength="120" x="1290.5" y="330.7231">Retrieved Participant</text><polygon fill="#A80036" points="950.5,360.9219,940.5,364.9219,950.5,368.9219,946.5,364.9219" style="stroke: #A80036; stroke-width: 1.0;"/><line style="stroke: #A80036; stroke-width: 1.0; stroke-dasharray: 2.0,2.0;" x1="944.5" x2="1256.5" y1="364.9219" y2="364.9219"/><text fill="#000000" font-family="sans-serif" font-size="13" font-weight="bold" lengthAdjust="spacingAndGlyphs" textLength="7" x="956.5" y="359.856">6</text><text fill="#000000" font-family="sans-serif" font-size="13" lengthAdjust="spacingAndGlyphs" textLength="105" x="967.5" y="359.856">Return Participant</text><line style="stroke: #A80036; stroke-width: 1.0;" x1="939.5" x2="981.5" y1="394.0547" y2="394.0547"/><line style="stroke: #A80036; stroke-width: 1.0;" x1="981.5" x2="981.5" y1="394.0547" y2="407.0547"/><line style="stroke: #A80036; stroke-width: 1.0;" x1="940.5" x2="981.5" y1="407.0547" y2="407.0547"/><polygon fill="#A80036" points="950.5,403.0547,940.5,407.0547,950.5,411.0547,946.5,407.0547" style="stroke: #A80036; stroke-width: 1.0;"/><text fill="#000000" font-family="sans-serif" font-size="13" font-weight="bold" lengthAdjust="spacingAndGlyphs" textLength="7" x="946.5" y="388.9888">7</text><text fill="#000000" font-family="sans-serif" font-size="13" lengthAdjust="spacingAndGlyphs" textLength="78" x="957.5" y="388.9888">Validate DFSP</text><path d="M23,422.0547 L86,422.0547 L86,429.0547 L76,439.0547 L23,439.0547 L23,422.0547 " fill="#EEEEEE" style="stroke: #000000; stroke-width: 1.0;"/><rect fill="none" height="1131.5859" style="stroke: #000000; stroke-width: 2.0;" width="1663" x="23" y="422.0547"/><text fill="#000000" font-family="sans-serif" font-size="13" font-weight="bold" lengthAdjust="spacingAndGlyphs" textLength="18" x="38" y="435.1216">alt</text><text fill="#000000" font-family="sans-serif" font-size="11" font-weight="bold" lengthAdjust="spacingAndGlyphs" textLength="165" x="101" y="434.2651">[Validate participant (success)]</text><line style="stroke: #A80036; stroke-width: 1.0;" x1="939.5" x2="981.5" y1="460.3203" y2="460.3203"/><line style="stroke: #A80036; stroke-width: 1.0;" x1="981.5" x2="981.5" y1="460.3203" y2="473.3203"/><line style="stroke: #A80036; stroke-width: 1.0;" x1="940.5" x2="981.5" y1="473.3203" y2="473.3203"/><polygon fill="#A80036" points="950.5,469.3203,940.5,473.3203,950.5,477.3203,946.5,473.3203" style="stroke: #A80036; stroke-width: 1.0;"/><text fill="#000000" font-family="sans-serif" font-size="13" font-weight="bold" lengthAdjust="spacingAndGlyphs" textLength="7" x="946.5" y="455.2544">8</text><text fill="#000000" font-family="sans-serif" font-size="13" lengthAdjust="spacingAndGlyphs" textLength="185" x="957.5" y="455.2544">check if "type" parameter is sent</text><path d="M33,488.3203 L96,488.3203 L96,495.3203 L86,505.3203 L33,505.3203 L33,488.3203 " fill="#EEEEEE" style="stroke: #000000; stroke-width: 1.0;"/><rect fill="none" height="816.1875" style="stroke: #000000; stroke-width: 2.0;" width="1643" x="33" y="488.3203"/><text fill="#000000" font-family="sans-serif" font-size="13" font-weight="bold" lengthAdjust="spacingAndGlyphs" textLength="18" x="48" y="501.3872">alt</text><text fill="#000000" font-family="sans-serif" font-size="11" font-weight="bold" lengthAdjust="spacingAndGlyphs" textLength="219" x="111" y="500.5308">[Check if "type" parameter is sent (Sent)]</text><polygon fill="#A80036" points="1240.5,537.7188,1250.5,541.7188,1240.5,545.7188,1244.5,541.7188" style="stroke: #A80036; stroke-width: 1.0;"/><line style="stroke: #A80036; stroke-width: 1.0;" x1="939.5" x2="1246.5" y1="541.7188" y2="541.7188"/><text fill="#000000" font-family="sans-serif" font-size="13" font-weight="bold" lengthAdjust="spacingAndGlyphs" textLength="7" x="946.5" y="529.0864">9</text><text fill="#000000" font-family="sans-serif" font-size="13" lengthAdjust="spacingAndGlyphs" textLength="262" x="957.5" y="521.52">Fetch Callback details for Participant and type</text><text fill="#FF0000" font-family="sans-serif" font-size="13" font-weight="bold" lengthAdjust="spacingAndGlyphs" textLength="71" x="957.5" y="536.6528">Error code:</text><text fill="#FF0000" font-family="sans-serif" font-size="13" lengthAdjust="spacingAndGlyphs" textLength="28" x="1031.5" y="536.6528">3000</text><polygon fill="#A80036" points="1578.5,566.8516,1588.5,570.8516,1578.5,574.8516,1582.5,570.8516" style="stroke: #A80036; stroke-width: 1.0;"/><line style="stroke: #A80036; stroke-width: 1.0;" x1="1262.5" x2="1584.5" y1="570.8516" y2="570.8516"/><text fill="#000000" font-family="sans-serif" font-size="13" font-weight="bold" lengthAdjust="spacingAndGlyphs" textLength="14" x="1269.5" y="565.7856">10</text><text fill="#000000" font-family="sans-serif" font-size="13" lengthAdjust="spacingAndGlyphs" textLength="262" x="1287.5" y="565.7856">Fetch Callback details for Participant and type</text><path d="M1267,583.8516 L1267,638.8516 L1455,638.8516 L1455,593.8516 L1445,583.8516 L1267,583.8516 " fill="#D3D3D3" filter="url(#f1as0212fdbe98)" style="stroke: #A80036; stroke-width: 1.0;"/><path d="M1445,583.8516 L1445,593.8516 L1455,593.8516 L1445,583.8516 " fill="#D3D3D3" style="stroke: #A80036; stroke-width: 1.0;"/><text fill="#000000" font-family="sans-serif" font-size="13" lengthAdjust="spacingAndGlyphs" textLength="61" x="1273" y="600.9185">Condition:</text><text fill="#000000" font-family="sans-serif" font-size="13" lengthAdjust="spacingAndGlyphs" textLength="63" x="1285" y="616.0513">isActive = 1</text><text fill="#000000" font-family="sans-serif" font-size="13" lengthAdjust="spacingAndGlyphs" textLength="155" x="1285" y="631.1841">[endpointTypeId = &lt;type&gt;]</text><polygon fill="#FFFFE0" filter="url(#f1as0212fdbe98)" points="1535,653.25,1656,653.25,1666,664.25,1656,676.25,1535,676.25,1525,664.25,1535,653.25" style="stroke: #A80036; stroke-width: 1.0;"/><text fill="#000000" font-family="sans-serif" font-size="13" lengthAdjust="spacingAndGlyphs" textLength="117" x="1537" y="669.3169">participantEndpoint</text><polygon fill="#A80036" points="1273.5,698.5156,1263.5,702.5156,1273.5,706.5156,1269.5,702.5156" style="stroke: #A80036; stroke-width: 1.0;"/><line style="stroke: #A80036; stroke-width: 1.0; stroke-dasharray: 2.0,2.0;" x1="1267.5" x2="1594.5" y1="702.5156" y2="702.5156"/><text fill="#000000" font-family="sans-serif" font-size="13" font-weight="bold" lengthAdjust="spacingAndGlyphs" textLength="14" x="1279.5" y="697.4497">11</text><text fill="#000000" font-family="sans-serif" font-size="13" lengthAdjust="spacingAndGlyphs" textLength="286" x="1297.5" y="697.4497">Retrieved Callback details for Participant and type</text><polygon fill="#A80036" points="950.5,727.6484,940.5,731.6484,950.5,735.6484,946.5,731.6484" style="stroke: #A80036; stroke-width: 1.0;"/><line style="stroke: #A80036; stroke-width: 1.0; stroke-dasharray: 2.0,2.0;" x1="944.5" x2="1256.5" y1="731.6484" y2="731.6484"/><text fill="#000000" font-family="sans-serif" font-size="13" font-weight="bold" lengthAdjust="spacingAndGlyphs" textLength="14" x="956.5" y="726.5825">12</text><text fill="#000000" font-family="sans-serif" font-size="13" lengthAdjust="spacingAndGlyphs" textLength="271" x="974.5" y="726.5825">Return Callback details for Participant and type</text><path d="M944,744.6484 L944,814.6484 L1211,814.6484 L1211,754.6484 L1201,744.6484 L944,744.6484 " fill="#FFFF00" filter="url(#f1as0212fdbe98)" style="stroke: #A80036; stroke-width: 1.0;"/><path d="M1201,744.6484 L1201,754.6484 L1211,754.6484 L1201,744.6484 " fill="#FFFF00" style="stroke: #A80036; stroke-width: 1.0;"/><text fill="#000000" font-family="sans-serif" font-size="13" lengthAdjust="spacingAndGlyphs" textLength="54" x="950" y="761.7153">Message:</text><text fill="#000000" font-family="sans-serif" font-size="13" lengthAdjust="spacingAndGlyphs" textLength="5" x="950" y="776.8481">{</text><text fill="#000000" font-family="sans-serif" font-size="13" lengthAdjust="spacingAndGlyphs" textLength="234" x="962" y="791.981">endpoints: {type: &lt;type&gt;, value: &lt;value&gt;}</text><text fill="#000000" font-family="sans-serif" font-size="13" lengthAdjust="spacingAndGlyphs" textLength="5" x="950" y="807.1138">}</text><polygon fill="#A80036" points="681.5,841.3125,671.5,845.3125,681.5,849.3125,677.5,845.3125" style="stroke: #A80036; stroke-width: 1.0;"/><line style="stroke: #A80036; stroke-width: 1.0; stroke-dasharray: 2.0,2.0;" x1="675.5" x2="933.5" y1="845.3125" y2="845.3125"/><text fill="#000000" font-family="sans-serif" font-size="13" font-weight="bold" lengthAdjust="spacingAndGlyphs" textLength="14" x="687.5" y="840.2466">13</text><text fill="#000000" font-family="sans-serif" font-size="13" lengthAdjust="spacingAndGlyphs" textLength="217" x="705.5" y="840.2466">Return Callback details for Participant</text><polygon fill="#A80036" points="116.5,870.4453,106.5,874.4453,116.5,878.4453,112.5,874.4453" style="stroke: #A80036; stroke-width: 1.0;"/><line style="stroke: #A80036; stroke-width: 1.0; stroke-dasharray: 2.0,2.0;" x1="110.5" x2="659.5" y1="874.4453" y2="874.4453"/><text fill="#000000" font-family="sans-serif" font-size="13" font-weight="bold" lengthAdjust="spacingAndGlyphs" textLength="14" x="122.5" y="869.3794">14</text><text fill="#000000" font-family="sans-serif" font-size="13" lengthAdjust="spacingAndGlyphs" textLength="217" x="140.5" y="869.3794">Return Callback details for Participant</text><line style="stroke: #000000; stroke-width: 1.0; stroke-dasharray: 2.0,2.0;" x1="33" x2="1676" y1="883.4453" y2="883.4453"/><text fill="#000000" font-family="sans-serif" font-size="11" font-weight="bold" lengthAdjust="spacingAndGlyphs" textLength="242" x="38" y="893.6558">[Check if "type" parameter is sent (Not Sent)]</text><polygon fill="#A80036" points="1240.5,929.5156,1250.5,933.5156,1240.5,937.5156,1244.5,933.5156" style="stroke: #A80036; stroke-width: 1.0;"/><line style="stroke: #A80036; stroke-width: 1.0;" x1="939.5" x2="1246.5" y1="933.5156" y2="933.5156"/><text fill="#000000" font-family="sans-serif" font-size="13" font-weight="bold" lengthAdjust="spacingAndGlyphs" textLength="14" x="946.5" y="920.8833">15</text><text fill="#000000" font-family="sans-serif" font-size="13" lengthAdjust="spacingAndGlyphs" textLength="208" x="964.5" y="913.3169">Fetch Callback details for Participant</text><text fill="#FF0000" font-family="sans-serif" font-size="13" font-weight="bold" lengthAdjust="spacingAndGlyphs" textLength="71" x="964.5" y="928.4497">Error code:</text><text fill="#FF0000" font-family="sans-serif" font-size="13" lengthAdjust="spacingAndGlyphs" textLength="28" x="1038.5" y="928.4497">3000</text><polygon fill="#A80036" points="1578.5,958.6484,1588.5,962.6484,1578.5,966.6484,1582.5,962.6484" style="stroke: #A80036; stroke-width: 1.0;"/><line style="stroke: #A80036; stroke-width: 1.0;" x1="1262.5" x2="1584.5" y1="962.6484" y2="962.6484"/><text fill="#000000" font-family="sans-serif" font-size="13" font-weight="bold" lengthAdjust="spacingAndGlyphs" textLength="14" x="1269.5" y="957.5825">16</text><text fill="#000000" font-family="sans-serif" font-size="13" lengthAdjust="spacingAndGlyphs" textLength="208" x="1287.5" y="957.5825">Fetch Callback details for Participant</text><path d="M1267,975.6484 L1267,1015.6484 L1363,1015.6484 L1363,985.6484 L1353,975.6484 L1267,975.6484 " fill="#D3D3D3" filter="url(#f1as0212fdbe98)" style="stroke: #A80036; stroke-width: 1.0;"/><path d="M1353,975.6484 L1353,985.6484 L1363,985.6484 L1353,975.6484 " fill="#D3D3D3" style="stroke: #A80036; stroke-width: 1.0;"/><text fill="#000000" font-family="sans-serif" font-size="13" lengthAdjust="spacingAndGlyphs" textLength="61" x="1273" y="992.7153">Condition:</text><text fill="#000000" font-family="sans-serif" font-size="13" lengthAdjust="spacingAndGlyphs" textLength="63" x="1285" y="1007.8481">isActive = 1</text><polygon fill="#FFFFE0" filter="url(#f1as0212fdbe98)" points="1535,1029.9141,1656,1029.9141,1666,1040.9141,1656,1052.9141,1535,1052.9141,1525,1040.9141,1535,1029.9141" style="stroke: #A80036; stroke-width: 1.0;"/><text fill="#000000" font-family="sans-serif" font-size="13" lengthAdjust="spacingAndGlyphs" textLength="117" x="1537" y="1045.981">participantEndpoint</text><polygon fill="#A80036" points="1273.5,1075.1797,1263.5,1079.1797,1273.5,1083.1797,1269.5,1079.1797" style="stroke: #A80036; stroke-width: 1.0;"/><line style="stroke: #A80036; stroke-width: 1.0; stroke-dasharray: 2.0,2.0;" x1="1267.5" x2="1594.5" y1="1079.1797" y2="1079.1797"/><text fill="#000000" font-family="sans-serif" font-size="13" font-weight="bold" lengthAdjust="spacingAndGlyphs" textLength="14" x="1279.5" y="1074.1138">17</text><text fill="#000000" font-family="sans-serif" font-size="13" lengthAdjust="spacingAndGlyphs" textLength="232" x="1297.5" y="1074.1138">Retrieved Callback details for Participant</text><polygon fill="#A80036" points="950.5,1104.3125,940.5,1108.3125,950.5,1112.3125,946.5,1108.3125" style="stroke: #A80036; stroke-width: 1.0;"/><line style="stroke: #A80036; stroke-width: 1.0; stroke-dasharray: 2.0,2.0;" x1="944.5" x2="1256.5" y1="1108.3125" y2="1108.3125"/><text fill="#000000" font-family="sans-serif" font-size="13" font-weight="bold" lengthAdjust="spacingAndGlyphs" textLength="14" x="956.5" y="1103.2466">18</text><text fill="#000000" font-family="sans-serif" font-size="13" lengthAdjust="spacingAndGlyphs" textLength="217" x="974.5" y="1103.2466">Return Callback details for Participant</text><path d="M944,1121.3125 L944,1236.3125 L1160,1236.3125 L1160,1131.3125 L1150,1121.3125 L944,1121.3125 " fill="#FFFF00" filter="url(#f1as0212fdbe98)" style="stroke: #A80036; stroke-width: 1.0;"/><path d="M1150,1121.3125 L1150,1131.3125 L1160,1131.3125 L1150,1121.3125 " fill="#FFFF00" style="stroke: #A80036; stroke-width: 1.0;"/><text fill="#000000" font-family="sans-serif" font-size="13" lengthAdjust="spacingAndGlyphs" textLength="54" x="950" y="1138.3794">Message:</text><text fill="#000000" font-family="sans-serif" font-size="13" lengthAdjust="spacingAndGlyphs" textLength="5" x="950" y="1153.5122">{</text><text fill="#000000" font-family="sans-serif" font-size="13" lengthAdjust="spacingAndGlyphs" textLength="70" x="962" y="1168.645">endpoints: [</text><text fill="#000000" font-family="sans-serif" font-size="13" lengthAdjust="spacingAndGlyphs" textLength="171" x="974" y="1183.7778">{type: &lt;type&gt;, value: &lt;value&gt;},</text><text fill="#000000" font-family="sans-serif" font-size="13" lengthAdjust="spacingAndGlyphs" textLength="168" x="974" y="1198.9106">{type: &lt;type&gt;, value: &lt;value&gt;}</text><text fill="#000000" font-family="sans-serif" font-size="13" lengthAdjust="spacingAndGlyphs" textLength="4" x="962" y="1214.0435">]</text><text fill="#000000" font-family="sans-serif" font-size="13" lengthAdjust="spacingAndGlyphs" textLength="5" x="950" y="1229.1763">}</text><polygon fill="#A80036" points="681.5,1263.375,671.5,1267.375,681.5,1271.375,677.5,1267.375" style="stroke: #A80036; stroke-width: 1.0;"/><line style="stroke: #A80036; stroke-width: 1.0; stroke-dasharray: 2.0,2.0;" x1="675.5" x2="928.5" y1="1267.375" y2="1267.375"/><text fill="#000000" font-family="sans-serif" font-size="13" font-weight="bold" lengthAdjust="spacingAndGlyphs" textLength="14" x="687.5" y="1262.3091">19</text><text fill="#000000" font-family="sans-serif" font-size="13" lengthAdjust="spacingAndGlyphs" textLength="217" x="705.5" y="1262.3091">Return Callback details for Participant</text><polygon fill="#A80036" points="116.5,1292.5078,106.5,1296.5078,116.5,1300.5078,112.5,1296.5078" style="stroke: #A80036; stroke-width: 1.0;"/><line style="stroke: #A80036; stroke-width: 1.0; stroke-dasharray: 2.0,2.0;" x1="110.5" x2="659.5" y1="1296.5078" y2="1296.5078"/><text fill="#000000" font-family="sans-serif" font-size="13" font-weight="bold" lengthAdjust="spacingAndGlyphs" textLength="14" x="122.5" y="1291.4419">20</text><text fill="#000000" font-family="sans-serif" font-size="13" lengthAdjust="spacingAndGlyphs" textLength="217" x="140.5" y="1291.4419">Return Callback details for Participant</text><line style="stroke: #000000; stroke-width: 1.0; stroke-dasharray: 2.0,2.0;" x1="23" x2="1686" y1="1312.5078" y2="1312.5078"/><text fill="#000000" font-family="sans-serif" font-size="11" font-weight="bold" lengthAdjust="spacingAndGlyphs" textLength="196" x="28" y="1322.7183">[Validate participant (failure)/ Error]</text><path d="M944,1331.3125 L944,1356.3125 L1105,1356.3125 L1105,1341.3125 L1095,1331.3125 L944,1331.3125 " fill="#FF0000" filter="url(#f1as0212fdbe98)" style="stroke: #A80036; stroke-width: 1.0;"/><path d="M1095,1331.3125 L1095,1341.3125 L1105,1341.3125 L1095,1331.3125 " fill="#FF0000" style="stroke: #A80036; stroke-width: 1.0;"/><text fill="#000000" font-family="sans-serif" font-size="13" lengthAdjust="spacingAndGlyphs" textLength="140" x="950" y="1348.3794">Validation failure/ Error!</text><path d="M944,1370.4453 L944,1485.4453 L1200,1485.4453 L1200,1380.4453 L1190,1370.4453 L944,1370.4453 " fill="#FFFF00" filter="url(#f1as0212fdbe98)" style="stroke: #A80036; stroke-width: 1.0;"/><path d="M1190,1370.4453 L1190,1380.4453 L1200,1380.4453 L1190,1370.4453 " fill="#FFFF00" style="stroke: #A80036; stroke-width: 1.0;"/><text fill="#000000" font-family="sans-serif" font-size="13" lengthAdjust="spacingAndGlyphs" textLength="54" x="950" y="1387.5122">Message:</text><text fill="#000000" font-family="sans-serif" font-size="13" lengthAdjust="spacingAndGlyphs" textLength="5" x="950" y="1402.645">{</text><text fill="#000000" font-family="sans-serif" font-size="13" lengthAdjust="spacingAndGlyphs" textLength="122" x="962" y="1417.7778">"errorInformation": {</text><text fill="#000000" font-family="sans-serif" font-size="13" lengthAdjust="spacingAndGlyphs" textLength="155" x="974" y="1432.9106">"errorCode": &lt;errorCode&gt;,</text><text fill="#000000" font-family="sans-serif" font-size="13" lengthAdjust="spacingAndGlyphs" textLength="211" x="974" y="1448.0435">"errorDescription": &lt;ErrorMessage&gt;,</text><text fill="#000000" font-family="sans-serif" font-size="13" lengthAdjust="spacingAndGlyphs" textLength="5" x="962" y="1463.1763">}</text><text fill="#000000" font-family="sans-serif" font-size="13" lengthAdjust="spacingAndGlyphs" textLength="5" x="950" y="1478.3091">}</text><polygon fill="#A80036" points="681.5,1512.5078,671.5,1516.5078,681.5,1520.5078,677.5,1516.5078" style="stroke: #A80036; stroke-width: 1.0;"/><line style="stroke: #A80036; stroke-width: 1.0; stroke-dasharray: 2.0,2.0;" x1="675.5" x2="933.5" y1="1516.5078" y2="1516.5078"/><text fill="#000000" font-family="sans-serif" font-size="13" font-weight="bold" lengthAdjust="spacingAndGlyphs" textLength="14" x="687.5" y="1511.4419">21</text><text fill="#000000" font-family="sans-serif" font-size="13" lengthAdjust="spacingAndGlyphs" textLength="40" x="705.5" y="1511.4419">Return</text><text fill="#FF0000" font-family="sans-serif" font-size="13" font-weight="bold" lengthAdjust="spacingAndGlyphs" textLength="71" x="748.5" y="1511.4419">Error code:</text><text fill="#FF0000" font-family="sans-serif" font-size="13" lengthAdjust="spacingAndGlyphs" textLength="62" x="822.5" y="1511.4419">3000, 3200</text><polygon fill="#A80036" points="116.5,1541.6406,106.5,1545.6406,116.5,1549.6406,112.5,1545.6406" style="stroke: #A80036; stroke-width: 1.0;"/><line style="stroke: #A80036; stroke-width: 1.0; stroke-dasharray: 2.0,2.0;" x1="110.5" x2="659.5" y1="1545.6406" y2="1545.6406"/><text fill="#000000" font-family="sans-serif" font-size="13" font-weight="bold" lengthAdjust="spacingAndGlyphs" textLength="14" x="122.5" y="1540.5747">22</text><text fill="#000000" font-family="sans-serif" font-size="13" lengthAdjust="spacingAndGlyphs" textLength="40" x="140.5" y="1540.5747">Return</text><text fill="#FF0000" font-family="sans-serif" font-size="13" font-weight="bold" lengthAdjust="spacingAndGlyphs" textLength="71" x="183.5" y="1540.5747">Error code:</text><text fill="#FF0000" font-family="sans-serif" font-size="13" lengthAdjust="spacingAndGlyphs" textLength="62" x="257.5" y="1540.5747">3000, 3200</text><!--
@startuml
title 3.1.0 Get Participant Callback Details

autonumber

entity "ML-API-ADAPTER" as MLAPI
boundary "Central Service API" as CSAPI
control "Participant Handler" as PARTICIPANT_HANDLER
entity "Central Service API" as CSAPI
entity "Participant DAO" as PARTICIPANT_DAO
database "Central Store" as DB
box "ML API Adapter Service" #LightBlue
participant MLAPI
end box

box "Central Services" #LightYellow
participant CSAPI
participant PARTICIPANT_HANDLER
participant PARTICIPANT_DAO
participant DB
end box


activate MLAPI
group Get Callback Details
    MLAPI -> CSAPI: Request to get callback details - GET - /participants/{name}/endpoints?type={typeValue}
    activate CSAPI
    CSAPI -> PARTICIPANT_HANDLER: Fetch Callback details for Participant
    activate PARTICIPANT_HANDLER
    PARTICIPANT_HANDLER ->PARTICIPANT_DAO: Fetch Participant \n<color #FF0000><b>Error code:</b> 3200</color>

    activate PARTICIPANT_DAO
    PARTICIPANT_DAO ->DB: Fetch Participant
    activate DB
    hnote over DB #lightyellow
        participant
    end note
    DB - -> PARTICIPANT_DAO: Retrieved Participant
    deactivate DB
    PARTICIPANT_DAO - ->PARTICIPANT_HANDLER: Return Participant
    deactivate PARTICIPANT_DAO
    PARTICIPANT_HANDLER ->PARTICIPANT_HANDLER: Validate DFSP
    alt Validate participant (success)
        PARTICIPANT_HANDLER -> PARTICIPANT_HANDLER: check if "type" parameter is sent
        alt Check if "type" parameter is sent (Sent)
            PARTICIPANT_HANDLER ->PARTICIPANT_DAO: Fetch Callback details for Participant and type \n<color #FF0000><b>Error code:</b> 3000</color>
            activate PARTICIPANT_DAO
            PARTICIPANT_DAO ->DB: Fetch Callback details for Participant and type
            note right of PARTICIPANT_DAO #lightgrey
                Condition:
                    isActive = 1
                    [endpointTypeId = <type>]
            end note

            activate DB
            hnote over DB #lightyellow
                participantEndpoint
            end note
            DB - -> PARTICIPANT_DAO: Retrieved Callback details for Participant and type
            deactivate DB
            PARTICIPANT_DAO - ->PARTICIPANT_HANDLER: Return Callback details for Participant and type
            deactivate PARTICIPANT_DAO
            note right of PARTICIPANT_HANDLER #yellow
                Message:
                {
                    endpoints: {type: <type>, value: <value>}
                }
            end note
            PARTICIPANT_HANDLER - ->CSAPI: Return Callback details for Participant
            deactivate PARTICIPANT_HANDLER
            CSAPI - ->MLAPI: Return Callback details for Participant
        else Check if "type" parameter is sent (Not Sent)
            activate PARTICIPANT_HANDLER
            PARTICIPANT_HANDLER ->PARTICIPANT_DAO: Fetch Callback details for Participant \n<color #FF0000><b>Error code:</b> 3000</color>
            activate PARTICIPANT_DAO
            PARTICIPANT_DAO ->DB: Fetch Callback details for Participant
            note right of PARTICIPANT_DAO #lightgrey
                Condition:
                    isActive = 1
            end note

            activate DB
            hnote over DB #lightyellow
                participantEndpoint
            end note
            DB - -> PARTICIPANT_DAO: Retrieved Callback details for Participant
            deactivate DB
            PARTICIPANT_DAO - ->PARTICIPANT_HANDLER: Return Callback details for Participant
            deactivate PARTICIPANT_DAO
            note right of PARTICIPANT_HANDLER #yellow
                Message:
                {
                    endpoints: [
                        {type: <type>, value: <value>},
                        {type: <type>, value: <value>}
                    ]
                }
            end note
            PARTICIPANT_HANDLER - ->CSAPI: Return Callback details for Participant
            CSAPI - ->MLAPI: Return Callback details for Participant
        end


    else Validate participant (failure)/ Error
        activate PARTICIPANT_HANDLER
        note right of PARTICIPANT_HANDLER #red: Validation failure/ Error!
        activate PARTICIPANT_HANDLER
        note right of PARTICIPANT_HANDLER #yellow
            Message:
            {
                "errorInformation": {
                    "errorCode": <errorCode>,
                    "errorDescription": <ErrorMessage>,
                }
            }
        end note
        PARTICIPANT_HANDLER - ->CSAPI: Return <color #FF0000><b>Error code:</b> 3000, 3200</color>
        deactivate PARTICIPANT_HANDLER
        CSAPI - ->MLAPI: Return <color #FF0000><b>Error code:</b> 3000, 3200</color>

    end
    deactivate CSAPI
    deactivate MLAPI
end

@enduml

PlantUML version 1.2018.02(Fri Mar 09 17:20:44 GMT 2018)
(GPL source distribution)
Java Runtime: OpenJDK Runtime Environment
JVM: OpenJDK 64-Bit Server VM
Java Version: 1.8.0_212-b04
Operating System: Linux
OS Version: 4.15.0-1035-aws
Default Encoding: UTF-8
Language: en
Country: US
--></g></svg>