<svg xmlns="http://www.w3.org/2000/svg" height="2137" preserveAspectRatio="none" style="width:1306px;height:2137px" width="1306">
  <defs>
    <filter height="300%" id="a" width="300%" x="-1" y="-1">
      <feGaussianBlur result="blurOut" stdDeviation="2"/>
      <feColorMatrix in="blurOut" result="blurOut2" values="0 0 0 0 0 0 0 0 0 0 0 0 0 0 0 0 0 0 .4 0"/>
      <feOffset dx="4" dy="4" in="blurOut2" result="blurOut3"/>
      <feBlend in="SourceGraphic" in2="blurOut3"/>
    </filter>
  </defs>
  <text font-family="sans-serif" font-size="18" lengthAdjust="spacingAndGlyphs" textLength="246" x="528" y="28.708">
    Retrieve Quote Information
  </text>
  <path fill="#FFF" filter="url(#a)" stroke="#a80036" d="M984 877.297h10v122.797h-10z"/>
  <path fill="#FFF" filter="url(#a)" stroke="#000" stroke-width="2" d="M10 406.172h1282v1638.063H10z"/>
  <path fill="#FFF" filter="url(#a)" stroke="#000" stroke-width="2" d="M20 584.969h1147v1324.93H20z"/>
  <path fill="#FFF" filter="url(#a)" stroke="#000" stroke-width="2" d="M30 748.633h1127v841.133H30z"/>
  <path fill="#FFF" filter="url(#a)" stroke="#000" stroke-width="2" d="M309 772.766h811v242.328H309z"/>
  <path fill="#FFF" filter="url(#a)" stroke="#000" stroke-width="2" d="M319 839.031h791v169.063H319zM319 1029.094h364v116.203H319z"/>
  <path fill="#FFF" d="M319 1088.359h364v56.938H319z"/>
  <path fill="#FFF" filter="url(#a)" stroke="#000" stroke-width="2" d="M40 1159.297h1107v241.867H40z"/>
  <path fill="#FFF" d="M40 1288.961h1107v112.203H40zM30 1408.164h1127v181.602H30zM20 1596.766h1147v313.133H20z"/>
  <path fill="#FFF" filter="url(#a)" stroke="#000" stroke-width="2" d="M319 1731.102h279v59.266H319z"/>
  <path fill="#FFF" d="M10 1916.898h1282v127.336H10z"/>
  <path stroke="#a80036" stroke-dasharray="5,5" d="M181 107.844v1953.39M368 107.844v1953.39M989 107.844v1953.39M1092 107.844v1953.39"/>
  <path fill="#FEFECE" filter="url(#a)" stroke="#a80036" stroke-width="1.5" d="M138 72.547h82v30.297h-82z"/>
  <text font-family="sans-serif" font-size="14" lengthAdjust="spacingAndGlyphs" textLength="68" x="145" y="92.542">
    Payer FSP
  </text>
  <path fill="#FEFECE" filter="url(#a)" stroke="#a80036" stroke-width="1.5" d="M138 2060.234h82v30.297h-82z"/>
  <text font-family="sans-serif" font-size="14" lengthAdjust="spacingAndGlyphs" textLength="68" x="145" y="2080.229">
    Payer FSP
  </text>
  <path fill="#FEFECE" filter="url(#a)" stroke="#a80036" stroke-width="1.5" d="M329 39.953h74v62.891h-74z"/>
  <text font-family="sans-serif" font-size="14" lengthAdjust="spacingAndGlyphs" textLength="45" x="343.5" y="59.948">
    Switch
  </text>
  <text font-family="sans-serif" font-size="14" lengthAdjust="spacingAndGlyphs" textLength="60" x="336" y="76.245">
    [Quoting
  </text>
  <text font-family="sans-serif" font-size="14" lengthAdjust="spacingAndGlyphs" textLength="55" x="338.5" y="92.542">
    Service]
  </text>
  <path fill="#FEFECE" filter="url(#a)" stroke="#a80036" stroke-width="1.5" d="M329 2060.234h74v62.891h-74z"/>
  <text font-family="sans-serif" font-size="14" lengthAdjust="spacingAndGlyphs" textLength="45" x="343.5" y="2080.229">
    Switch
  </text>
  <text font-family="sans-serif" font-size="14" lengthAdjust="spacingAndGlyphs" textLength="60" x="336" y="2096.526">
    [Quoting
  </text>
  <text font-family="sans-serif" font-size="14" lengthAdjust="spacingAndGlyphs" textLength="55" x="338.5" y="2112.823">
    Service]
  </text>
  <text font-family="sans-serif" font-size="14" lengthAdjust="spacingAndGlyphs" textLength="90" x="941" y="104.542">
    Central Store
  </text>
  <path d="M971 55.547c0-10 18-10 18-10s18 0 18 10v26c0 10-18 10-18 10s-18 0-18-10v-26" fill="#FEFECE" filter="url(#a)" stroke="#000" stroke-width="1.5"/>
  <path d="M971 55.547c0 10 18 10 18 10s18 0 18-10" fill="none" stroke="#000" stroke-width="1.5"/>
  <text font-family="sans-serif" font-size="14" lengthAdjust="spacingAndGlyphs" textLength="90" x="941" y="2073.229">
    Central Store
  </text>
  <path d="M971 2086.531c0-10 18-10 18-10s18 0 18 10v26c0 10-18 10-18 10s-18 0-18-10v-26" fill="#FEFECE" filter="url(#a)" stroke="#000" stroke-width="1.5"/>
  <path d="M971 2086.531c0 10 18 10 18 10s18 0 18-10" fill="none" stroke="#000" stroke-width="1.5"/>
  <path fill="#FEFECE" filter="url(#a)" stroke="#a80036" stroke-width="1.5" d="M1047 72.547h86v30.297h-86z"/>
  <text font-family="sans-serif" font-size="14" lengthAdjust="spacingAndGlyphs" textLength="72" x="1054" y="92.542">
    Payee FSP
  </text>
  <path fill="#FEFECE" filter="url(#a)" stroke="#a80036" stroke-width="1.5" d="M1047 2060.234h86v30.297h-86z"/>
  <text font-family="sans-serif" font-size="14" lengthAdjust="spacingAndGlyphs" textLength="72" x="1054" y="2080.229">
    Payee FSP
  </text>
  <path fill="#FFF" filter="url(#a)" stroke="#a80036" d="M984 877.297h10v122.797h-10z"/>
  <path d="M186 122.844v40h313v-30l-10-10H186" fill="#FBFB77" filter="url(#a)" stroke="#a80036"/>
  <path d="M489 122.844v10h10l-10-10" fill="#FBFB77" stroke="#a80036"/>
  <text font-family="sans-serif" font-size="13" lengthAdjust="spacingAndGlyphs" textLength="288" x="192" y="139.911">
    Payer FSP sends request to get quote details
  </text>
  <text font-family="sans-serif" font-size="13" lengthAdjust="spacingAndGlyphs" textLength="176" x="192" y="155.043">
    to Payee FSP via the Switch
  </text>
  <path fill="#A80036" stroke="#a80036" d="M356 189.242l10 4h-10z"/>
  <path stroke="#a80036" d="M181 193.242h186"/>
  <text font-family="sans-serif" font-size="13" font-weight="bold" lengthAdjust="spacingAndGlyphs" textLength="9" x="188" y="188.176">
    1
  </text>
  <text font-family="sans-serif" font-size="13" lengthAdjust="spacingAndGlyphs" textLength="110" x="201" y="188.176">
    GET /quotes/{ID}
  </text>
  <path d="M373 206.242v70h248v-60l-10-10H373" fill="#AAA" filter="url(#a)" stroke="#a80036"/>
  <path d="M611 206.242v10h10l-10-10" fill="#AAA" stroke="#a80036"/>
  <text font-family="sans-serif" font-size="13" lengthAdjust="spacingAndGlyphs" textLength="156" x="379" y="223.309">
    Validate request against
  </text>
  <text font-family="sans-serif" font-size="13" lengthAdjust="spacingAndGlyphs" textLength="200" x="379" y="238.442">
    Mojaloop interface specification
  </text>
  <text fill="red" font-family="sans-serif" font-size="13" font-weight="bold" lengthAdjust="spacingAndGlyphs" textLength="167" x="379" y="253.575">
    Error code: 300x, 310x
  </text>
  <text fill="red" font-family="sans-serif" font-size="13" font-weight="bold" lengthAdjust="spacingAndGlyphs" textLength="227" x="379" y="268.707">
    HTTP error response code: 4xx
  </text>
  <path stroke="#a80036" d="M368 306.906h42M410 306.906v13M369 319.906h41"/>
  <path fill="#A80036" stroke="#a80036" d="M379 315.906l-10 4 10 4-4-4z"/>
  <text font-family="sans-serif" font-size="13" font-weight="bold" lengthAdjust="spacingAndGlyphs" textLength="9" x="375" y="301.84">
    2
  </text>
  <text font-family="sans-serif" font-size="13" lengthAdjust="spacingAndGlyphs" textLength="118" x="388" y="301.84">
    Schema validation
  </text>
  <path fill="#A80036" stroke="#a80036" d="M192 350.04h-10l10 4z"/>
  <path stroke="#a80036" stroke-dasharray="2,2" d="M181 349.039h186"/>
  <text font-family="sans-serif" font-size="13" font-weight="bold" lengthAdjust="spacingAndGlyphs" textLength="9" x="198" y="343.973">
    3
  </text>
  <text font-family="sans-serif" font-size="13" lengthAdjust="spacingAndGlyphs" textLength="88" x="211" y="343.973">
    202 Accepted
  </text>
  <path stroke="#a80036" d="M368 378.172h42M410 378.172v13M369 391.172h41"/>
  <path fill="#A80036" stroke="#a80036" d="M379 387.172l-10 4 10 4-4-4z"/>
  <text font-family="sans-serif" font-size="13" font-weight="bold" lengthAdjust="spacingAndGlyphs" textLength="9" x="375" y="373.106">
    4
  </text>
  <text font-family="sans-serif" font-size="13" lengthAdjust="spacingAndGlyphs" textLength="252" x="388" y="373.106">
    Retrieve quotes endpoint for Payee FSP
  </text>
  <path d="M10 406.172h64v7l-10 10H10v-17" fill="#EEE" stroke="#000"/>
  <path fill="none" stroke="#000" stroke-width="2" d="M10 406.172h1282v1638.063H10z"/>
  <text font-family="sans-serif" font-size="13" font-weight="bold" lengthAdjust="spacingAndGlyphs" textLength="19" x="25" y="419.239">
    alt
  </text>
  <text font-family="sans-serif" font-size="11" font-weight="bold" lengthAdjust="spacingAndGlyphs" textLength="242" x="89" y="418.382">
    [Payee FSP quotes endpoint is found]
  </text>
  <path d="M373 428.305v40h401v-30l-10-10H373" fill="#FBFB77" filter="url(#a)" stroke="#a80036"/>
  <path d="M764 428.305v10h10l-10-10" fill="#FBFB77" stroke="#a80036"/>
  <text font-family="sans-serif" font-size="13" lengthAdjust="spacingAndGlyphs" textLength="380" x="379" y="445.372">
    Switch forwards request to Payee FSP (pass-through mode)
  </text>
  <text font-family="sans-serif" font-size="13" lengthAdjust="spacingAndGlyphs" textLength="139" x="379" y="460.504">
    &lt;Payer based Rules&gt;
  </text>
  <path fill="#A80036" stroke="#a80036" d="M1080 494.703l10 4h-10z"/>
  <path stroke="#a80036" d="M368 498.703h723"/>
  <text font-family="sans-serif" font-size="13" font-weight="bold" lengthAdjust="spacingAndGlyphs" textLength="9" x="375" y="493.637">
    5
  </text>
  <text font-family="sans-serif" font-size="13" lengthAdjust="spacingAndGlyphs" textLength="110" x="388" y="493.637">
    GET /quotes/{ID}
  </text>
  <path fill="#A80036" stroke="#a80036" d="M379 528.836h-10l10 4z"/>
  <path stroke="#a80036" stroke-dasharray="2,2" d="M368 527.836h723"/>
  <text font-family="sans-serif" font-size="13" font-weight="bold" lengthAdjust="spacingAndGlyphs" textLength="9" x="385" y="522.77">
    6
  </text>
  <text font-family="sans-serif" font-size="13" lengthAdjust="spacingAndGlyphs" textLength="88" x="398" y="522.77">
    202 Accepted
  </text>
  <path stroke="#a80036" d="M1092 556.969h42M1134 556.969v13M1093 569.969h41"/>
  <path fill="#A80036" stroke="#a80036" d="M1103 565.969l-10 4 10 4-4-4z"/>
  <text font-family="sans-serif" font-size="13" font-weight="bold" lengthAdjust="spacingAndGlyphs" textLength="9" x="1099" y="551.903">
    7
  </text>
  <text font-family="sans-serif" font-size="13" lengthAdjust="spacingAndGlyphs" textLength="168" x="1112" y="551.903">
    Payee FSP retireves quote
  </text>
  <path d="M20 584.969h64v7l-10 10H20v-17" fill="#EEE" stroke="#000"/>
  <path fill="none" stroke="#000" stroke-width="2" d="M20 584.969h1147v1324.93H20z"/>
  <text font-family="sans-serif" font-size="13" font-weight="bold" lengthAdjust="spacingAndGlyphs" textLength="19" x="35" y="598.036">
    alt
  </text>
  <text font-family="sans-serif" font-size="11" font-weight="bold" lengthAdjust="spacingAndGlyphs" textLength="257" x="99" y="597.179">
    [Payee FSP successfully retieves quote]
  </text>
  <path d="M821 607.102v25h262v-15l-10-10H821" fill="#FBFB77" filter="url(#a)" stroke="#a80036"/>
  <path d="M1073 607.102v10h10l-10-10" fill="#FBFB77" stroke="#a80036"/>
  <text font-family="sans-serif" font-size="13" lengthAdjust="spacingAndGlyphs" textLength="241" x="827" y="624.168">
    Payee FSP responds to quote request
  </text>
  <path fill="#A80036" stroke="#a80036" d="M379 658.367l-10 4h10z"/>
  <path stroke="#a80036" d="M368 662.367h723"/>
  <text font-family="sans-serif" font-size="13" font-weight="bold" lengthAdjust="spacingAndGlyphs" textLength="9" x="385" y="657.301">
    8
  </text>
  <text font-family="sans-serif" font-size="13" lengthAdjust="spacingAndGlyphs" textLength="110" x="398" y="657.301">
    PUT /quotes/{ID}
  </text>
  <path fill="#A80036" stroke="#a80036" d="M1080 692.5h10l-10 4z"/>
  <path stroke="#a80036" stroke-dasharray="2,2" d="M368 691.5h723"/>
  <text font-family="sans-serif" font-size="13" font-weight="bold" lengthAdjust="spacingAndGlyphs" textLength="9" x="375" y="686.434">
    9
  </text>
  <text font-family="sans-serif" font-size="13" lengthAdjust="spacingAndGlyphs" textLength="45" x="388" y="686.434">
    200 Ok
  </text>
  <path stroke="#a80036" d="M368 720.633h42M410 720.633v13M369 733.633h41"/>
  <path fill="#A80036" stroke="#a80036" d="M379 729.633l-10 4 10 4-4-4z"/>
  <text font-family="sans-serif" font-size="13" font-weight="bold" lengthAdjust="spacingAndGlyphs" textLength="18" x="375" y="715.567">
    10
  </text>
  <text font-family="sans-serif" font-size="13" lengthAdjust="spacingAndGlyphs" textLength="244" x="397" y="715.567">
    Validate response (schema, headers (
  </text>
  <text fill="red" font-family="sans-serif" font-size="13" font-weight="bold" lengthAdjust="spacingAndGlyphs" textLength="123" x="641" y="715.567">
    Error code: 3100
  </text>
  <text font-family="sans-serif" font-size="13" lengthAdjust="spacingAndGlyphs" textLength="10" x="764" y="715.567">
    ))
  </text>
  <path d="M30 748.633h64v7l-10 10H30v-17" fill="#EEE" stroke="#000"/>
  <path fill="none" stroke="#000" stroke-width="2" d="M30 748.633h1127v841.133H30z"/>
  <text font-family="sans-serif" font-size="13" font-weight="bold" lengthAdjust="spacingAndGlyphs" textLength="19" x="45" y="761.7">
    alt
  </text>
  <text font-family="sans-serif" font-size="11" font-weight="bold" lengthAdjust="spacingAndGlyphs" textLength="106" x="109" y="760.843">
    [Response is ok]
  </text>
  <path d="M309 772.766h64v7l-10 10h-54v-17" fill="#EEE" stroke="#000"/>
  <path fill="none" stroke="#000" stroke-width="2" d="M309 772.766h811v242.328H309z"/>
  <text font-family="sans-serif" font-size="13" font-weight="bold" lengthAdjust="spacingAndGlyphs" textLength="19" x="324" y="785.832">
    alt
  </text>
  <text font-family="sans-serif" font-size="11" font-weight="bold" lengthAdjust="spacingAndGlyphs" textLength="195" x="388" y="784.976">
    [SimpleRoutingMode is FALSE]
  </text>
  <path stroke="#a80036" d="M368 811.031h42M410 811.031v13M369 824.031h41"/>
  <path fill="#A80036" stroke="#a80036" d="M379 820.031l-10 4 10 4-4-4z"/>
  <text font-family="sans-serif" font-size="13" font-weight="bold" lengthAdjust="spacingAndGlyphs" textLength="18" x="375" y="805.965">
    11
  </text>
  <text font-family="sans-serif" font-size="13" lengthAdjust="spacingAndGlyphs" textLength="452" x="397" y="805.965">
    Validate response (duplicate response check, handle resend scenario (
  </text>
  <text fill="red" font-family="sans-serif" font-size="13" font-weight="bold" lengthAdjust="spacingAndGlyphs" textLength="123" x="849" y="805.965">
    Error code: 3106
  </text>
  <text font-family="sans-serif" font-size="13" lengthAdjust="spacingAndGlyphs" textLength="10" x="972" y="805.965">
    ))
  </text>
  <path d="M319 839.031h64v7l-10 10h-54v-17" fill="#EEE" stroke="#000"/>
  <path fill="none" stroke="#000" stroke-width="2" d="M319 839.031h791v169.063H319z"/>
  <text font-family="sans-serif" font-size="13" font-weight="bold" lengthAdjust="spacingAndGlyphs" textLength="19" x="334" y="852.098">
    alt
  </text>
  <text font-family="sans-serif" font-size="11" font-weight="bold" lengthAdjust="spacingAndGlyphs" textLength="125" x="398" y="851.242">
    [Validation passed]
  </text>
  <path fill="#A80036" stroke="#a80036" d="M972 873.297l10 4h-10z"/>
  <path stroke="#a80036" d="M368 877.297h615"/>
  <text font-family="sans-serif" font-size="13" font-weight="bold" lengthAdjust="spacingAndGlyphs" textLength="18" x="375" y="872.231">
    12
  </text>
  <text font-family="sans-serif" font-size="13" lengthAdjust="spacingAndGlyphs" textLength="147" x="397" y="872.231">
    Persist quote response
  </text>
  <path fill="#FBFB77" filter="url(#a)" stroke="#a80036" d="M888 890.297h202l10 41-10 42H888l-10-42 10-41z"/>
  <text font-family="sans-serif" font-size="13" lengthAdjust="spacingAndGlyphs" textLength="99" x="890" y="906.364">
    quoteResponse
  </text>
  <text font-family="sans-serif" font-size="13" lengthAdjust="spacingAndGlyphs" textLength="198" x="890" y="921.497">
    quoteResponseDuplicateCheck
  </text>
  <text font-family="sans-serif" font-size="13" lengthAdjust="spacingAndGlyphs" textLength="156" x="890" y="936.629">
    quoteResponseIlpPacket
  </text>
  <text font-family="sans-serif" font-size="13" lengthAdjust="spacingAndGlyphs" textLength="106" x="890" y="951.762">
    quoteExtensions
  </text>
  <text font-family="sans-serif" font-size="13" lengthAdjust="spacingAndGlyphs" textLength="57" x="890" y="966.895">
    geoCode
  </text>
  <path fill="#A80036" stroke="#a80036" d="M379 1001.094h-10l10 4z"/>
  <path stroke="#a80036" stroke-dasharray="2,2" d="M368 1000.094h620"/>
  <text font-family="sans-serif" font-size="13" font-weight="bold" lengthAdjust="spacingAndGlyphs" textLength="18" x="385" y="995.028">
    13
  </text>
  <text font-family="sans-serif" font-size="13" lengthAdjust="spacingAndGlyphs" textLength="144" x="407" y="995.028">
    Quote response saved
  </text>
  <path d="M319 1029.094h64v7l-10 10h-54v-17" fill="#EEE" stroke="#000"/>
  <path fill="none" stroke="#000" stroke-width="2" d="M319 1029.094h364v116.203H319z"/>
  <text font-family="sans-serif" font-size="13" font-weight="bold" lengthAdjust="spacingAndGlyphs" textLength="19" x="334" y="1042.161">
    alt
  </text>
  <text font-family="sans-serif" font-size="11" font-weight="bold" lengthAdjust="spacingAndGlyphs" textLength="189" x="398" y="1041.304">
    [SimpleRoutingMode is TRUE]
  </text>
  <path stroke="#a80036" d="M368 1067.359h42M410 1067.359v13M369 1080.359h41"/>
  <path fill="#A80036" stroke="#a80036" d="M379 1076.36l-10 4 10 4-4-4z"/>
  <text font-family="sans-serif" font-size="13" font-weight="bold" lengthAdjust="spacingAndGlyphs" textLength="18" x="375" y="1062.293">
    14
  </text>
  <text font-family="sans-serif" font-size="13" lengthAdjust="spacingAndGlyphs" textLength="274" x="397" y="1062.293">
    Retrieve quotes endpoint for the Payer FSP
  </text>
  <path stroke="#000" stroke-dasharray="2,2" d="M319 1089.359h364"/>
  <text font-family="sans-serif" font-size="11" font-weight="bold" lengthAdjust="spacingAndGlyphs" textLength="195" x="324" y="1099.57">
    [SimpleRoutingMode is FALSE]
  </text>
  <path stroke="#a80036" d="M368 1124.297h42M410 1124.297v13M369 1137.297h41"/>
  <path fill="#A80036" stroke="#a80036" d="M379 1133.297l-10 4 10 4-4-4z"/>
  <text font-family="sans-serif" font-size="13" font-weight="bold" lengthAdjust="spacingAndGlyphs" textLength="18" x="375" y="1119.231">
    15
  </text>
  <text font-family="sans-serif" font-size="13" lengthAdjust="spacingAndGlyphs" textLength="244" x="397" y="1119.231">
    Retrieve quote party endpoint (PAYER)
  </text>
  <path d="M40 1159.297h64v7l-10 10H40v-17" fill="#EEE" stroke="#000"/>
  <path fill="none" stroke="#000" stroke-width="2" d="M40 1159.297h1107v241.867H40z"/>
  <text font-family="sans-serif" font-size="13" font-weight="bold" lengthAdjust="spacingAndGlyphs" textLength="19" x="55" y="1172.364">
    alt
  </text>
  <text font-family="sans-serif" font-size="11" font-weight="bold" lengthAdjust="spacingAndGlyphs" textLength="215" x="119" y="1171.507">
    [Quotes callback endpoint found]
  </text>
  <path d="M50 1181.43v40h309v-30l-10-10H50" fill="#FBFB77" filter="url(#a)" stroke="#a80036"/>
  <path d="M349 1181.43v10h10l-10-10" fill="#FBFB77" stroke="#a80036"/>
  <text font-family="sans-serif" font-size="13" lengthAdjust="spacingAndGlyphs" textLength="288" x="56" y="1198.497">
    Switch forwards quote response to Payer FSP
  </text>
  <text font-family="sans-serif" font-size="13" lengthAdjust="spacingAndGlyphs" textLength="185" x="56" y="1213.629">
    &lt;Payee whole request Rule&gt;
  </text>
  <path fill="#A80036" stroke="#a80036" d="M192 1247.828l-10 4h10z"/>
  <path stroke="#a80036" d="M181 1251.828h186"/>
  <text font-family="sans-serif" font-size="13" font-weight="bold" lengthAdjust="spacingAndGlyphs" textLength="18" x="198" y="1246.762">
    16
  </text>
  <text font-family="sans-serif" font-size="13" lengthAdjust="spacingAndGlyphs" textLength="110" x="220" y="1246.762">
    PUT /quotes/{ID}
  </text>
  <path fill="#A80036" stroke="#a80036" d="M356 1281.96h10l-10 4z"/>
  <path stroke="#a80036" stroke-dasharray="2,2" d="M181 1280.961h186"/>
  <text font-family="sans-serif" font-size="13" font-weight="bold" lengthAdjust="spacingAndGlyphs" textLength="18" x="188" y="1275.895">
    17
  </text>
  <text font-family="sans-serif" font-size="13" lengthAdjust="spacingAndGlyphs" textLength="45" x="210" y="1275.895">
    200 Ok
  </text>
  <path stroke="#000" stroke-dasharray="2,2" d="M40 1289.961h1107"/>
  <text font-family="sans-serif" font-size="11" font-weight="bold" lengthAdjust="spacingAndGlyphs" textLength="240" x="45" y="1300.171">
    [Quotes callback endpoint not found]
  </text>
  <path d="M373 1308.766v25h235v-15l-10-10H373" fill="#FBFB77" filter="url(#a)" stroke="#a80036"/>
  <path d="M598 1308.766v10h10l-10-10" fill="#FBFB77" stroke="#a80036"/>
  <text font-family="sans-serif" font-size="13" lengthAdjust="spacingAndGlyphs" textLength="214" x="379" y="1325.832">
    Switch returns error to Payee FSP
  </text>
  <path fill="#A80036" stroke="#a80036" d="M1080 1360.031l10 4h-10z"/>
  <path stroke="#a80036" d="M368 1364.031h723"/>
  <text font-family="sans-serif" font-size="13" font-weight="bold" lengthAdjust="spacingAndGlyphs" textLength="18" x="375" y="1358.965">
    18
  </text>
  <text font-family="sans-serif" font-size="13" lengthAdjust="spacingAndGlyphs" textLength="145" x="397" y="1358.965">
    PUT /quotes/{ID}/error
  </text>
  <path fill="#A80036" stroke="#a80036" d="M379 1394.164h-10l10 4z"/>
  <path stroke="#a80036" stroke-dasharray="2,2" d="M368 1393.164h723"/>
  <text font-family="sans-serif" font-size="13" font-weight="bold" lengthAdjust="spacingAndGlyphs" textLength="18" x="385" y="1388.098">
    19
  </text>
  <text font-family="sans-serif" font-size="13" lengthAdjust="spacingAndGlyphs" textLength="45" x="407" y="1388.098">
    200 Ok
  </text>
  <path stroke="#000" stroke-dasharray="2,2" d="M30 1409.164h1127"/>
  <text font-family="sans-serif" font-size="11" font-weight="bold" lengthAdjust="spacingAndGlyphs" textLength="134" x="35" y="1419.374">
    [Response is invalid]
  </text>
  <path d="M373 1427.969v25h235v-15l-10-10H373" fill="#FBFB77" filter="url(#a)" stroke="#a80036"/>
  <path d="M598 1427.969v10h10l-10-10" fill="#FBFB77" stroke="#a80036"/>
  <text font-family="sans-serif" font-size="13" lengthAdjust="spacingAndGlyphs" textLength="214" x="379" y="1445.036">
    Switch returns error to Payee FSP
  </text>
  <path fill="#A80036" stroke="#a80036" d="M1080 1479.234l10 4h-10z"/>
  <path stroke="#a80036" d="M368 1483.234h723"/>
  <text font-family="sans-serif" font-size="13" font-weight="bold" lengthAdjust="spacingAndGlyphs" textLength="18" x="375" y="1478.168">
    20
  </text>
  <text font-family="sans-serif" font-size="13" lengthAdjust="spacingAndGlyphs" textLength="145" x="397" y="1478.168">
    PUT /quotes/{ID}/error
  </text>
  <path fill="#A80036" stroke="#a80036" d="M379 1513.367h-10l10 4z"/>
  <path stroke="#a80036" stroke-dasharray="2,2" d="M368 1512.367h723"/>
  <text font-family="sans-serif" font-size="13" font-weight="bold" lengthAdjust="spacingAndGlyphs" textLength="18" x="385" y="1507.301">
    21
  </text>
  <text font-family="sans-serif" font-size="13" lengthAdjust="spacingAndGlyphs" textLength="45" x="407" y="1507.301">
    200 Ok
  </text>
  <path d="M328 1525.367v55h803v-45l-10-10H328" fill="#EC7063" filter="url(#a)" stroke="#a80036"/>
  <path d="M1121 1525.367v10h10l-10-10" fill="#EC7063" stroke="#a80036"/>
  <text font-family="sans-serif" font-size="13" lengthAdjust="spacingAndGlyphs" textLength="129" x="634" y="1542.434">
    Note that under this
  </text>
  <text font-family="sans-serif" font-size="13" lengthAdjust="spacingAndGlyphs" textLength="147" x="634" y="1557.567">
    scenario the Payer FSP
  </text>
  <text font-family="sans-serif" font-size="13" lengthAdjust="spacingAndGlyphs" textLength="178" x="634" y="1572.7">
    may not receive a response
  </text>
  <path stroke="#000" stroke-dasharray="2,2" d="M20 1597.766h1147"/>
  <text font-family="sans-serif" font-size="11" font-weight="bold" lengthAdjust="spacingAndGlyphs" textLength="115" x="25" y="1607.976">
    [Quote not found]
  </text>
  <path d="M848 1616.57v40h235v-30l-10-10H848" fill="#FBFB77" filter="url(#a)" stroke="#a80036"/>
  <path d="M1073 1616.57v10h10l-10-10" fill="#FBFB77" stroke="#a80036"/>
  <text font-family="sans-serif" font-size="13" lengthAdjust="spacingAndGlyphs" textLength="214" x="854" y="1633.637">
    Payee FSP returns error to Switch
  </text>
  <text fill="red" font-family="sans-serif" font-size="13" font-weight="bold" lengthAdjust="spacingAndGlyphs" textLength="123" x="858" y="1648.77">
    Error code: 3205
  </text>
  <path fill="#A80036" stroke="#a80036" d="M379 1682.969l-10 4h10z"/>
  <path stroke="#a80036" d="M368 1686.969h723"/>
  <text font-family="sans-serif" font-size="13" font-weight="bold" lengthAdjust="spacingAndGlyphs" textLength="18" x="385" y="1681.903">
    22
  </text>
  <text font-family="sans-serif" font-size="13" lengthAdjust="spacingAndGlyphs" textLength="141" x="407" y="1681.903">
    PUT quotes/{ID}/error
  </text>
  <path fill="#A80036" stroke="#a80036" d="M1080 1717.102h10l-10 4z"/>
  <path stroke="#a80036" stroke-dasharray="2,2" d="M368 1716.102h723"/>
  <text font-family="sans-serif" font-size="13" font-weight="bold" lengthAdjust="spacingAndGlyphs" textLength="18" x="375" y="1711.036">
    23
  </text>
  <text font-family="sans-serif" font-size="13" lengthAdjust="spacingAndGlyphs" textLength="46" x="397" y="1711.036">
    200 OK
  </text>
  <path d="M319 1731.102h64v7l-10 10h-54v-17" fill="#EEE" stroke="#000"/>
  <path fill="none" stroke="#000" stroke-width="2" d="M319 1731.102h279v59.266H319z"/>
  <text font-family="sans-serif" font-size="13" font-weight="bold" lengthAdjust="spacingAndGlyphs" textLength="19" x="334" y="1744.168">
    alt
  </text>
  <text font-family="sans-serif" font-size="11" font-weight="bold" lengthAdjust="spacingAndGlyphs" textLength="195" x="398" y="1743.312">
    [SimpleRoutingMode is FALSE]
  </text>
  <path stroke="#a80036" d="M368 1769.367h42M410 1769.367v13M369 1782.367h41"/>
  <path fill="#A80036" stroke="#a80036" d="M379 1778.367l-10 4 10 4-4-4z"/>
  <text font-family="sans-serif" font-size="13" font-weight="bold" lengthAdjust="spacingAndGlyphs" textLength="18" x="375" y="1764.301">
    24
  </text>
  <text font-family="sans-serif" font-size="13" lengthAdjust="spacingAndGlyphs" textLength="111" x="397" y="1764.301">
    Persist error data
  </text>
  <path d="M127 1802.367v40h232v-30l-10-10H127" fill="#FBFB77" filter="url(#a)" stroke="#a80036"/>
  <path d="M349 1802.367v10h10l-10-10" fill="#FBFB77" stroke="#a80036"/>
  <text font-family="sans-serif" font-size="13" lengthAdjust="spacingAndGlyphs" textLength="211" x="133" y="1819.434">
    Switch returns error to Payer FSP
  </text>
  <text fill="red" font-family="sans-serif" font-size="13" font-weight="bold" lengthAdjust="spacingAndGlyphs" textLength="123" x="137" y="1834.567">
    Error code: 3205
  </text>
  <path fill="#A80036" stroke="#a80036" d="M192 1868.766l-10 4h10z"/>
  <path stroke="#a80036" d="M181 1872.766h186"/>
  <text font-family="sans-serif" font-size="13" font-weight="bold" lengthAdjust="spacingAndGlyphs" textLength="18" x="198" y="1867.7">
    25
  </text>
  <text font-family="sans-serif" font-size="13" lengthAdjust="spacingAndGlyphs" textLength="141" x="220" y="1867.7">
    PUT quotes/{ID}/error
  </text>
  <path fill="#A80036" stroke="#a80036" d="M356 1902.898h10l-10 4z"/>
  <path stroke="#a80036" stroke-dasharray="2,2" d="M181 1901.898h186"/>
  <text font-family="sans-serif" font-size="13" font-weight="bold" lengthAdjust="spacingAndGlyphs" textLength="18" x="188" y="1896.832">
    26
  </text>
  <text font-family="sans-serif" font-size="13" lengthAdjust="spacingAndGlyphs" textLength="46" x="210" y="1896.832">
    200 OK
  </text>
  <path stroke="#000" stroke-dasharray="2,2" d="M10 1917.898h1282"/>
  <text font-family="sans-serif" font-size="11" font-weight="bold" lengthAdjust="spacingAndGlyphs" textLength="267" x="15" y="1928.109">
    [Payee FSP quotes endpoint is not found]
  </text>
  <path d="M127 1936.703v40h232v-30l-10-10H127" fill="#FBFB77" filter="url(#a)" stroke="#a80036"/>
  <path d="M349 1936.703v10h10l-10-10" fill="#FBFB77" stroke="#a80036"/>
  <text font-family="sans-serif" font-size="13" lengthAdjust="spacingAndGlyphs" textLength="211" x="133" y="1953.77">
    Switch returns error to Payer FSP
  </text>
  <text fill="red" font-family="sans-serif" font-size="13" font-weight="bold" lengthAdjust="spacingAndGlyphs" textLength="123" x="133" y="1968.903">
    Error code: 3201
  </text>
  <path fill="#A80036" stroke="#a80036" d="M192 2003.102l-10 4h10z"/>
  <path stroke="#a80036" d="M181 2007.102h186"/>
  <text font-family="sans-serif" font-size="13" font-weight="bold" lengthAdjust="spacingAndGlyphs" textLength="18" x="198" y="2002.036">
    27
  </text>
  <text font-family="sans-serif" font-size="13" lengthAdjust="spacingAndGlyphs" textLength="137" x="220" y="2002.036">
    PUT quotes/{ID}error
  </text>
  <path fill="#A80036" stroke="#a80036" d="M356 2037.234h10l-10 4z"/>
  <path stroke="#a80036" stroke-dasharray="2,2" d="M181 2036.234h186"/>
  <text font-family="sans-serif" font-size="13" font-weight="bold" lengthAdjust="spacingAndGlyphs" textLength="18" x="188" y="2031.168">
    28
  </text>
  <text font-family="sans-serif" font-size="13" lengthAdjust="spacingAndGlyphs" textLength="46" x="210" y="2031.168">
    200 OK
  </text>
</svg>
