<svg xmlns="http://www.w3.org/2000/svg" height="1898" preserveAspectRatio="none" style="width:984px;height:1898px" width="984">
  <defs>
    <filter height="300%" id="a" width="300%" x="-1" y="-1">
      <feGaussianBlur result="blurOut" stdDeviation="2"/>
      <feColorMatrix in="blurOut" result="blurOut2" values="0 0 0 0 0 0 0 0 0 0 0 0 0 0 0 0 0 0 .4 0"/>
      <feOffset dx="4" dy="4" in="blurOut2" result="blurOut3"/>
      <feBlend in="SourceGraphic" in2="blurOut3"/>
    </filter>
  </defs>
  <text font-family="sans-serif" font-size="18" lengthAdjust="spacingAndGlyphs" textLength="258" x="361" y="28.708">
    Request Bulk Quote Creation
  </text>
  <path fill="#FFF" filter="url(#a)" stroke="#000" stroke-width="2" d="M63 507.008h518V743.61H63z"/>
  <path fill="#FFF" d="M63 686.672h518v56.938H63z"/>
  <path fill="#FFF" filter="url(#a)" stroke="#000" stroke-width="2" d="M10 839.875h960v981.594H10z"/>
  <path fill="#FFF" filter="url(#a)" stroke="#000" stroke-width="2" d="M20 1018.672h745v668.461H20z"/>
  <path fill="#FFF" filter="url(#a)" stroke="#000" stroke-width="2" d="M269.5 1224.469H738v75.398H269.5zM269.5 1313.867h335v59.266h-335z"/>
  <path fill="#FFF" d="M20 1477.531h745v209.602H20zM10 1694.133h960v127.336H10z"/>
  <path stroke="#a80036" stroke-dasharray="5,5" d="M129 91.547v1746.922M347.5 91.547v1746.922M683 91.547v1746.922"/>
  <path fill="#FEFECE" filter="url(#a)" stroke="#a80036" stroke-width="1.5" d="M86 56.25h82v30.297H86z"/>
  <text font-family="sans-serif" font-size="14" lengthAdjust="spacingAndGlyphs" textLength="68" x="93" y="76.245">
    Payer FSP
  </text>
  <path fill="#FEFECE" filter="url(#a)" stroke="#a80036" stroke-width="1.5" d="M86 1837.469h82v30.297H86z"/>
  <text font-family="sans-serif" font-size="14" lengthAdjust="spacingAndGlyphs" textLength="68" x="93" y="1857.464">
    Payer FSP
  </text>
  <path fill="#FEFECE" filter="url(#a)" stroke="#a80036" stroke-width="1.5" d="M279.5 39.953h133v46.594h-133z"/>
  <text font-family="sans-serif" font-size="14" lengthAdjust="spacingAndGlyphs" textLength="45" x="323.5" y="59.948">
    Switch
  </text>
  <text font-family="sans-serif" font-size="14" lengthAdjust="spacingAndGlyphs" textLength="119" x="286.5" y="76.245">
    [Quoting Service]
  </text>
  <path fill="#FEFECE" filter="url(#a)" stroke="#a80036" stroke-width="1.5" d="M279.5 1837.469h133v46.594h-133z"/>
  <text font-family="sans-serif" font-size="14" lengthAdjust="spacingAndGlyphs" textLength="45" x="323.5" y="1857.464">
    Switch
  </text>
  <text font-family="sans-serif" font-size="14" lengthAdjust="spacingAndGlyphs" textLength="119" x="286.5" y="1873.761">
    [Quoting Service]
  </text>
  <path fill="#FEFECE" filter="url(#a)" stroke="#a80036" stroke-width="1.5" d="M638 56.25h86v30.297h-86z"/>
  <text font-family="sans-serif" font-size="14" lengthAdjust="spacingAndGlyphs" textLength="72" x="645" y="76.245">
    Payee FSP
  </text>
  <path fill="#FEFECE" filter="url(#a)" stroke="#a80036" stroke-width="1.5" d="M638 1837.469h86v30.297h-86z"/>
  <text font-family="sans-serif" font-size="14" lengthAdjust="spacingAndGlyphs" textLength="72" x="645" y="1857.464">
    Payee FSP
  </text>
  <path d="M75 106.547v40h325v-30l-10-10H75" fill="#FBFB77" filter="url(#a)" stroke="#a80036"/>
  <path d="M390 106.547v10h10l-10-10" fill="#FBFB77" stroke="#a80036"/>
  <text font-family="sans-serif" font-size="13" lengthAdjust="spacingAndGlyphs" textLength="230" x="116.25" y="123.614">
    Payer FSP sends bulk quote request
  </text>
  <text font-family="sans-serif" font-size="13" lengthAdjust="spacingAndGlyphs" textLength="176" x="116.25" y="138.747">
    to Payee FSP via the Switch
  </text>
  <path fill="#A80036" stroke="#a80036" d="M336 172.945l10 4h-10z"/>
  <path stroke="#a80036" d="M129 176.945h218"/>
  <text font-family="sans-serif" font-size="13" font-weight="bold" lengthAdjust="spacingAndGlyphs" textLength="9" x="136" y="171.879">
    1
  </text>
  <text font-family="sans-serif" font-size="13" lengthAdjust="spacingAndGlyphs" textLength="114" x="149" y="171.879">
    POST /bulkQuotes
  </text>
  <path d="M353 189.945v70h248v-60l-10-10H353" fill="#AAA" filter="url(#a)" stroke="#a80036"/>
  <path d="M591 189.945v10h10l-10-10" fill="#AAA" stroke="#a80036"/>
  <text font-family="sans-serif" font-size="13" lengthAdjust="spacingAndGlyphs" textLength="156" x="359" y="207.012">
    Validate request against
  </text>
  <text font-family="sans-serif" font-size="13" lengthAdjust="spacingAndGlyphs" textLength="200" x="359" y="222.145">
    Mojaloop interface specification
  </text>
  <text fill="red" font-family="sans-serif" font-size="13" font-weight="bold" lengthAdjust="spacingAndGlyphs" textLength="167" x="359" y="237.278">
    Error code: 300x, 310x
  </text>
  <text fill="red" font-family="sans-serif" font-size="13" font-weight="bold" lengthAdjust="spacingAndGlyphs" textLength="227" x="359" y="252.411">
    HTTP error response code: 4xx
  </text>
  <path stroke="#a80036" d="M348 290.609h42M390 290.609v13M349 303.609h41"/>
  <path fill="#A80036" stroke="#a80036" d="M359 299.61l-10 4 10 4-4-4z"/>
  <text font-family="sans-serif" font-size="13" font-weight="bold" lengthAdjust="spacingAndGlyphs" textLength="9" x="355" y="285.543">
    2
  </text>
  <text font-family="sans-serif" font-size="13" lengthAdjust="spacingAndGlyphs" textLength="118" x="368" y="285.543">
    Schema validation
  </text>
  <path fill="#A80036" stroke="#a80036" d="M140 333.742h-10l10 4z"/>
  <path stroke="#a80036" stroke-dasharray="2,2" d="M129 332.742h218"/>
  <text font-family="sans-serif" font-size="13" font-weight="bold" lengthAdjust="spacingAndGlyphs" textLength="9" x="146" y="327.676">
    3
  </text>
  <text font-family="sans-serif" font-size="13" lengthAdjust="spacingAndGlyphs" textLength="88" x="159" y="327.676">
    202 Accepted
  </text>
  <path stroke="#a80036" d="M348 386.875h42M390 386.875v13M349 399.875h41"/>
  <path fill="#A80036" stroke="#a80036" d="M359 395.875l-10 4 10 4-4-4z"/>
  <text font-family="sans-serif" font-size="13" font-weight="bold" lengthAdjust="spacingAndGlyphs" textLength="9" x="355" y="381.809">
    4
  </text>
  <text font-family="sans-serif" font-size="13" lengthAdjust="spacingAndGlyphs" textLength="308" x="368" y="381.809">
    Bulk Quote request validation (rules engine etc.)
  </text>
  <path stroke="#a80036" d="M348 454.008h42M390 454.008v13M349 467.008h41"/>
  <path fill="#A80036" stroke="#a80036" d="M359 463.008l-10 4 10 4-4-4z"/>
  <text font-family="sans-serif" font-size="13" font-weight="bold" lengthAdjust="spacingAndGlyphs" textLength="9" x="355" y="448.942">
    5
  </text>
  <text font-family="sans-serif" font-size="13" lengthAdjust="spacingAndGlyphs" textLength="101" x="368" y="448.942">
    Duplicate check
  </text>
  <path d="M63 507.008h64v7l-10 10H63v-17" fill="#EEE" stroke="#000"/>
  <path fill="none" stroke="#000" stroke-width="2" d="M63 507.008h518V743.61H63z"/>
  <text font-family="sans-serif" font-size="13" font-weight="bold" lengthAdjust="spacingAndGlyphs" textLength="19" x="78" y="520.075">
    alt
  </text>
  <text font-family="sans-serif" font-size="11" font-weight="bold" lengthAdjust="spacingAndGlyphs" textLength="263" x="142" y="519.218">
    [Request is a duplicate but not a resend]
  </text>
  <path d="M73 554.14v40h266v-30l-10-10H73" fill="#FBFB77" filter="url(#a)" stroke="#a80036"/>
  <path d="M329 554.14v10h10l-10-10" fill="#FBFB77" stroke="#a80036"/>
  <text font-family="sans-serif" font-size="13" lengthAdjust="spacingAndGlyphs" textLength="245" x="79" y="571.207">
    Switch returns error back to Payer FSP
  </text>
  <text fill="red" font-family="sans-serif" font-size="13" font-weight="bold" lengthAdjust="spacingAndGlyphs" textLength="123" x="79" y="586.34">
    Error code: 3106
  </text>
  <path fill="#A80036" stroke="#a80036" d="M140 620.54l-10 4h10z"/>
  <path stroke="#a80036" d="M129 624.539h218"/>
  <text font-family="sans-serif" font-size="13" font-weight="bold" lengthAdjust="spacingAndGlyphs" textLength="9" x="146" y="619.473">
    6
  </text>
  <text font-family="sans-serif" font-size="13" lengthAdjust="spacingAndGlyphs" textLength="173" x="159" y="619.473">
    PUT /bulkQuotes/{ID}/error
  </text>
  <path fill="#A80036" stroke="#a80036" d="M336 654.672h10l-10 4z"/>
  <path stroke="#a80036" stroke-dasharray="2,2" d="M129 653.672h218"/>
  <text font-family="sans-serif" font-size="13" font-weight="bold" lengthAdjust="spacingAndGlyphs" textLength="9" x="136" y="648.606">
    7
  </text>
  <text font-family="sans-serif" font-size="13" lengthAdjust="spacingAndGlyphs" textLength="46" x="149" y="648.606">
    200 OK
  </text>
  <path stroke="#000" stroke-dasharray="2,2" d="M63 687.672h518"/>
  <text font-family="sans-serif" font-size="11" font-weight="bold" lengthAdjust="spacingAndGlyphs" textLength="241" x="68" y="697.882">
    [Request is a duplicate and a resend]
  </text>
  <path stroke="#a80036" d="M348 722.609h42M390 722.609v13M349 735.609h41"/>
  <path fill="#A80036" stroke="#a80036" d="M359 731.61l-10 4 10 4-4-4z"/>
  <text font-family="sans-serif" font-size="13" font-weight="bold" lengthAdjust="spacingAndGlyphs" textLength="9" x="355" y="717.543">
    8
  </text>
  <text font-family="sans-serif" font-size="13" lengthAdjust="spacingAndGlyphs" textLength="201" x="368" y="717.543">
    Switch handles resend scenario
  </text>
  <path stroke="#a80036" d="M348 811.875h42M390 811.875v13M349 824.875h41"/>
  <path fill="#A80036" stroke="#a80036" d="M359 820.875l-10 4 10 4-4-4z"/>
  <text font-family="sans-serif" font-size="13" font-weight="bold" lengthAdjust="spacingAndGlyphs" textLength="9" x="355" y="799.243">
    9
  </text>
  <text font-family="sans-serif" font-size="13" lengthAdjust="spacingAndGlyphs" textLength="262" x="368" y="791.676">
    Use fspiop-destination header to retrieve
  </text>
  <text font-family="sans-serif" font-size="13" lengthAdjust="spacingAndGlyphs" textLength="236" x="372" y="806.809">
    bulk quotes endpoint for Payee DFSP
  </text>
  <path d="M10 839.875h64v7l-10 10H10v-17" fill="#EEE" stroke="#000"/>
  <path fill="none" stroke="#000" stroke-width="2" d="M10 839.875h960v981.594H10z"/>
  <text font-family="sans-serif" font-size="13" font-weight="bold" lengthAdjust="spacingAndGlyphs" textLength="19" x="25" y="852.942">
    alt
  </text>
  <text font-family="sans-serif" font-size="11" font-weight="bold" lengthAdjust="spacingAndGlyphs" textLength="230" x="89" y="852.085">
    [Payee bulk quotes endpoint found]
  </text>
  <path d="M353 862.008v25h332v-15l-10-10H353" fill="#FBFB77" filter="url(#a)" stroke="#a80036"/>
  <path d="M675 862.008v10h10l-10-10" fill="#FBFB77" stroke="#a80036"/>
  <text font-family="sans-serif" font-size="13" lengthAdjust="spacingAndGlyphs" textLength="311" x="359" y="879.075">
    Switch forwards bulk quote request to Payee FSP
  </text>
  <path fill="#A80036" stroke="#a80036" d="M671 913.273l10 4h-10z"/>
  <path stroke="#a80036" d="M348 917.273h334"/>
  <text font-family="sans-serif" font-size="13" font-weight="bold" lengthAdjust="spacingAndGlyphs" textLength="18" x="355" y="912.207">
    10
  </text>
  <text font-family="sans-serif" font-size="13" lengthAdjust="spacingAndGlyphs" textLength="114" x="377" y="912.207">
    POST /bulkQuotes
  </text>
  <path fill="#A80036" stroke="#a80036" d="M359 947.406h-10l10 4z"/>
  <path stroke="#a80036" stroke-dasharray="2,2" d="M348 946.406h334"/>
  <text font-family="sans-serif" font-size="13" font-weight="bold" lengthAdjust="spacingAndGlyphs" textLength="18" x="365" y="941.34">
    11
  </text>
  <text font-family="sans-serif" font-size="13" lengthAdjust="spacingAndGlyphs" textLength="46" x="387" y="941.34">
    202 OK
  </text>
  <path stroke="#a80036" d="M683 990.672h42M725 990.672v13M684 1003.672h41"/>
  <path fill="#A80036" stroke="#a80036" d="M694 999.672l-10 4 10 4-4-4z"/>
  <text font-family="sans-serif" font-size="13" font-weight="bold" lengthAdjust="spacingAndGlyphs" textLength="18" x="690" y="978.04">
    12
  </text>
  <text font-family="sans-serif" font-size="13" lengthAdjust="spacingAndGlyphs" textLength="246" x="712" y="970.473">
    Payee FSP calculates individual quotes
  </text>
  <text font-family="sans-serif" font-size="13" lengthAdjust="spacingAndGlyphs" textLength="239" x="712" y="985.606">
    and responds with a bulk quote result
  </text>
  <path d="M20 1018.672h64v7l-10 10H20v-17" fill="#EEE" stroke="#000"/>
  <path fill="none" stroke="#000" stroke-width="2" d="M20 1018.672h745v668.461H20z"/>
  <text font-family="sans-serif" font-size="13" font-weight="bold" lengthAdjust="spacingAndGlyphs" textLength="19" x="35" y="1031.739">
    alt
  </text>
  <text font-family="sans-serif" font-size="11" font-weight="bold" lengthAdjust="spacingAndGlyphs" textLength="272" x="99" y="1030.882">
    [Payee bulkQuotes processing successful]
  </text>
  <path d="M276 1040.805v25h475v-15l-10-10H276" fill="#FBFB77" filter="url(#a)" stroke="#a80036"/>
  <path d="M741 1040.805v10h10l-10-10" fill="#FBFB77" stroke="#a80036"/>
  <text font-family="sans-serif" font-size="13" lengthAdjust="spacingAndGlyphs" textLength="454" x="282" y="1057.872">
    Payee FSP sends bulk quote response back to Payer FSP via the Switch
  </text>
  <path fill="#A80036" stroke="#a80036" d="M359 1092.07l-10 4h10z"/>
  <path stroke="#a80036" d="M348 1096.07h334"/>
  <text font-family="sans-serif" font-size="13" font-weight="bold" lengthAdjust="spacingAndGlyphs" textLength="18" x="365" y="1091.004">
    13
  </text>
  <text font-family="sans-serif" font-size="13" lengthAdjust="spacingAndGlyphs" textLength="138" x="387" y="1091.004">
    PUT /bulkQuotes/{ID}
  </text>
  <path fill="#A80036" stroke="#a80036" d="M671 1126.203h10l-10 4z"/>
  <path stroke="#a80036" stroke-dasharray="2,2" d="M348 1125.203h334"/>
  <text font-family="sans-serif" font-size="13" font-weight="bold" lengthAdjust="spacingAndGlyphs" textLength="18" x="355" y="1120.137">
    14
  </text>
  <text font-family="sans-serif" font-size="13" lengthAdjust="spacingAndGlyphs" textLength="46" x="377" y="1120.137">
    200 OK
  </text>
  <path stroke="#a80036" d="M348 1154.336h42M390 1154.336v13M349 1167.336h41"/>
  <path fill="#A80036" stroke="#a80036" d="M359 1163.336l-10 4 10 4-4-4z"/>
  <text font-family="sans-serif" font-size="13" font-weight="bold" lengthAdjust="spacingAndGlyphs" textLength="18" x="355" y="1149.27">
    15
  </text>
  <text font-family="sans-serif" font-size="13" lengthAdjust="spacingAndGlyphs" textLength="186" x="377" y="1149.27">
    Validate bulk quote response
  </text>
  <path stroke="#a80036" d="M348 1196.469h42M390 1196.469v13M349 1209.469h41"/>
  <path fill="#A80036" stroke="#a80036" d="M359 1205.469l-10 4 10 4-4-4z"/>
  <text font-family="sans-serif" font-size="13" font-weight="bold" lengthAdjust="spacingAndGlyphs" textLength="18" x="355" y="1191.403">
    16
  </text>
  <text font-family="sans-serif" font-size="13" lengthAdjust="spacingAndGlyphs" textLength="101" x="377" y="1191.403">
    Duplicate check
  </text>
  <path d="M269.5 1224.469h64v7l-10 10h-54v-17" fill="#EEE" stroke="#000"/>
  <path fill="none" stroke="#000" stroke-width="2" d="M269.5 1224.469H738v75.398H269.5z"/>
  <text font-family="sans-serif" font-size="13" font-weight="bold" lengthAdjust="spacingAndGlyphs" textLength="19" x="284.5" y="1237.536">
    alt
  </text>
  <text font-family="sans-serif" font-size="11" font-weight="bold" lengthAdjust="spacingAndGlyphs" textLength="261" x="348.5" y="1236.679">
    [Response is duplicate but not a resend]
  </text>
  <path fill="#A80036" stroke="#a80036" d="M671 1258.734l10 4h-10z"/>
  <path stroke="#a80036" d="M348 1262.734h334"/>
  <text font-family="sans-serif" font-size="13" font-weight="bold" lengthAdjust="spacingAndGlyphs" textLength="18" x="355" y="1257.668">
    17
  </text>
  <text font-family="sans-serif" font-size="13" lengthAdjust="spacingAndGlyphs" textLength="173" x="377" y="1257.668">
    PUT /bulkQuotes/{ID}/error
  </text>
  <path fill="#A80036" stroke="#a80036" d="M359 1292.867h-10l10 4z"/>
  <path stroke="#a80036" stroke-dasharray="2,2" d="M348 1291.867h334"/>
  <text font-family="sans-serif" font-size="13" font-weight="bold" lengthAdjust="spacingAndGlyphs" textLength="18" x="365" y="1286.801">
    18
  </text>
  <text font-family="sans-serif" font-size="13" lengthAdjust="spacingAndGlyphs" textLength="46" x="387" y="1286.801">
    200 OK
  </text>
  <path d="M269.5 1313.867h64v7l-10 10h-54v-17" fill="#EEE" stroke="#000"/>
  <path fill="none" stroke="#000" stroke-width="2" d="M269.5 1313.867h335v59.266h-335z"/>
  <text font-family="sans-serif" font-size="13" font-weight="bold" lengthAdjust="spacingAndGlyphs" textLength="19" x="284.5" y="1326.934">
    alt
  </text>
  <text font-family="sans-serif" font-size="11" font-weight="bold" lengthAdjust="spacingAndGlyphs" textLength="251" x="348.5" y="1326.078">
    [Response is a duplicate and a resend]
  </text>
  <path stroke="#a80036" d="M348 1352.133h42M390 1352.133v13M349 1365.133h41"/>
  <path fill="#A80036" stroke="#a80036" d="M359 1361.133l-10 4 10 4-4-4z"/>
  <text font-family="sans-serif" font-size="13" font-weight="bold" lengthAdjust="spacingAndGlyphs" textLength="18" x="355" y="1347.067">
    19
  </text>
  <text font-family="sans-serif" font-size="13" lengthAdjust="spacingAndGlyphs" textLength="201" x="377" y="1347.067">
    Switch handles resend scenario
  </text>
  <path d="M30 1385.133v25h309v-15l-10-10H30" fill="#FBFB77" filter="url(#a)" stroke="#a80036"/>
  <path d="M329 1385.133v10h10l-10-10" fill="#FBFB77" stroke="#a80036"/>
  <text font-family="sans-serif" font-size="13" lengthAdjust="spacingAndGlyphs" textLength="288" x="36" y="1402.2">
    Switch forwards quote response to Payer FSP
  </text>
  <path fill="#A80036" stroke="#a80036" d="M140 1436.398l-10 4h10z"/>
  <path stroke="#a80036" d="M129 1440.398h218"/>
  <text font-family="sans-serif" font-size="13" font-weight="bold" lengthAdjust="spacingAndGlyphs" textLength="18" x="146" y="1435.332">
    20
  </text>
  <text font-family="sans-serif" font-size="13" lengthAdjust="spacingAndGlyphs" textLength="138" x="168" y="1435.332">
    PUT /bulkQuotes/{ID}
  </text>
  <path fill="#A80036" stroke="#a80036" d="M336 1470.531h10l-10 4z"/>
  <path stroke="#a80036" stroke-dasharray="2,2" d="M129 1469.531h218"/>
  <text font-family="sans-serif" font-size="13" font-weight="bold" lengthAdjust="spacingAndGlyphs" textLength="18" x="136" y="1464.465">
    21
  </text>
  <text font-family="sans-serif" font-size="13" lengthAdjust="spacingAndGlyphs" textLength="46" x="158" y="1464.465">
    200 OK
  </text>
  <path stroke="#000" stroke-dasharray="2,2" d="M20 1478.531h745"/>
  <text font-family="sans-serif" font-size="11" font-weight="bold" lengthAdjust="spacingAndGlyphs" textLength="317" x="25" y="1488.742">
    [Payee rejects bulk quote or encounters an error]
  </text>
  <path d="M277 1497.336v25h397v-15l-10-10H277" fill="#FBFB77" filter="url(#a)" stroke="#a80036"/>
  <path d="M664 1497.336v10h10l-10-10" fill="#FBFB77" stroke="#a80036"/>
  <text font-family="sans-serif" font-size="13" lengthAdjust="spacingAndGlyphs" textLength="376" x="283" y="1514.403">
    Payee FSP sends error callback to Payer FSP via the Switch
  </text>
  <path fill="#A80036" stroke="#a80036" d="M359 1548.602l-10 4h10z"/>
  <path stroke="#a80036" d="M348 1552.602h334"/>
  <text font-family="sans-serif" font-size="13" font-weight="bold" lengthAdjust="spacingAndGlyphs" textLength="18" x="365" y="1547.536">
    22
  </text>
  <text font-family="sans-serif" font-size="13" lengthAdjust="spacingAndGlyphs" textLength="173" x="387" y="1547.536">
    PUT /bulkQuotes/{ID}/error
  </text>
  <path fill="#A80036" stroke="#a80036" d="M671 1582.734h10l-10 4z"/>
  <path stroke="#a80036" stroke-dasharray="2,2" d="M348 1581.734h334"/>
  <text font-family="sans-serif" font-size="13" font-weight="bold" lengthAdjust="spacingAndGlyphs" textLength="18" x="355" y="1576.668">
    23
  </text>
  <text font-family="sans-serif" font-size="13" lengthAdjust="spacingAndGlyphs" textLength="46" x="377" y="1576.668">
    200 OK
  </text>
  <path d="M44 1594.734v25h295v-15l-10-10H44" fill="#FBFB77" filter="url(#a)" stroke="#a80036"/>
  <path d="M329 1594.734v10h10l-10-10" fill="#FBFB77" stroke="#a80036"/>
  <text font-family="sans-serif" font-size="13" lengthAdjust="spacingAndGlyphs" textLength="274" x="50" y="1611.801">
    Switch forwards error callback to Payer FSP
  </text>
  <path fill="#A80036" stroke="#a80036" d="M140 1646l-10 4h10z"/>
  <path stroke="#a80036" d="M129 1650h218"/>
  <text font-family="sans-serif" font-size="13" font-weight="bold" lengthAdjust="spacingAndGlyphs" textLength="18" x="146" y="1644.934">
    24
  </text>
  <text font-family="sans-serif" font-size="13" lengthAdjust="spacingAndGlyphs" textLength="173" x="168" y="1644.934">
    PUT /bulkQuotes/{ID}/error
  </text>
  <path fill="#A80036" stroke="#a80036" d="M336 1680.133h10l-10 4z"/>
  <path stroke="#a80036" stroke-dasharray="2,2" d="M129 1679.133h218"/>
  <text font-family="sans-serif" font-size="13" font-weight="bold" lengthAdjust="spacingAndGlyphs" textLength="18" x="136" y="1674.067">
    25
  </text>
  <text font-family="sans-serif" font-size="13" lengthAdjust="spacingAndGlyphs" textLength="46" x="158" y="1674.067">
    200 OK
  </text>
  <path stroke="#000" stroke-dasharray="2,2" d="M10 1695.133h960"/>
  <text font-family="sans-serif" font-size="11" font-weight="bold" lengthAdjust="spacingAndGlyphs" textLength="252" x="15" y="1705.343">
    [Payee FSP quotes endpoint not found]
  </text>
  <path d="M36 1713.938v40h303v-30l-10-10H36" fill="#FBFB77" filter="url(#a)" stroke="#a80036"/>
  <path d="M329 1713.938v10h10l-10-10" fill="#FBFB77" stroke="#a80036"/>
  <text font-family="sans-serif" font-size="13" lengthAdjust="spacingAndGlyphs" textLength="278" x="42" y="1731.004">
    Switch sends an error callback to Payer FSP
  </text>
  <text fill="red" font-family="sans-serif" font-size="13" font-weight="bold" lengthAdjust="spacingAndGlyphs" textLength="123" x="46" y="1746.137">
    Error code: 3201
  </text>
  <path fill="#A80036" stroke="#a80036" d="M140 1780.336l-10 4h10z"/>
  <path stroke="#a80036" d="M129 1784.336h218"/>
  <text font-family="sans-serif" font-size="13" font-weight="bold" lengthAdjust="spacingAndGlyphs" textLength="18" x="146" y="1779.27">
    26
  </text>
  <text font-family="sans-serif" font-size="13" lengthAdjust="spacingAndGlyphs" textLength="173" x="168" y="1779.27">
    PUT /bulkQuotes/{ID}/error
  </text>
  <path fill="#A80036" stroke="#a80036" d="M336 1809.469l10 4h-10z"/>
  <path stroke="#a80036" stroke-dasharray="2,2" d="M129 1813.469h218"/>
  <text font-family="sans-serif" font-size="13" font-weight="bold" lengthAdjust="spacingAndGlyphs" textLength="18" x="136" y="1808.403">
    27
  </text>
  <text font-family="sans-serif" font-size="13" lengthAdjust="spacingAndGlyphs" textLength="46" x="158" y="1808.403">
    200 OK
  </text>
</svg>
