<svg xmlns="http://www.w3.org/2000/svg" xmlns:xlink="http://www.w3.org/1999/xlink" xmlns:lucid="lucid" width="1220" height="601.6"><g transform="translate(-300 -140)" lucid:page-tab-id="0_0"><path d="M464 200c8.84 0 16 13.43 16 30s-7.16 30-16 30H336c-8.84 0-16-13.43-16-30s7.16-30 16-30z" stroke="#000" stroke-width="2" fill="url(#a)"/><path d="M464 260c-8.84 0-16-13.43-16-30s7.16-30 16-30" stroke="#000" stroke-width="2" fill="none"/><use xlink:href="#b" transform="matrix(1,0,0,1,325,205) translate(10.549999999999997 30.025)"/><path d="M540 661.6h240v60H540z" stroke="#000" stroke-opacity="0" stroke-width="2" fill="#fff" fill-opacity="0"/><use xlink:href="#c" transform="matrix(1,0,0,1,545,666.5999999999999) translate(17.599999999999994 30.025)"/><use xlink:href="#d" transform="matrix(1,0,0,1,545,666.5999999999999) translate(68.6 30.025)"/><use xlink:href="#e" transform="matrix(1,0,0,1,545,666.5999999999999) translate(131.5 30.025)"/><path d="M1300 170h160v120h-160z" stroke="#000" stroke-width="2" fill="url(#f)"/><use xlink:href="#g" transform="matrix(1,0,0,1,1305,175) translate(42.525 59.0875)"/><path d="M1320 190h160v120h-160z" stroke="#000" stroke-width="2" fill="url(#h)"/><use xlink:href="#g" transform="matrix(1,0,0,1,1325,195) translate(42.525 59.0875)"/><path d="M1340 210h160v120h-160z" stroke="#000" stroke-width="2" fill="url(#i)"/><use xlink:href="#j" transform="matrix(1,0,0,1,1345,215) translate(27.049999999999997 38.4625)"/><use xlink:href="#k" transform="matrix(1,0,0,1,1345,215) translate(67 38.4625)"/><use xlink:href="#l" transform="matrix(1,0,0,1,1345,215) translate(117 38.4625)"/><use xlink:href="#m" transform="matrix(1,0,0,1,1345,215) translate(19.074999999999996 60.0625)"/><use xlink:href="#n" transform="matrix(1,0,0,1,1345,215) translate(22.549999999999997 81.66250000000001)"/><use xlink:href="#o" transform="matrix(1,0,0,1,1345,215) translate(88.5 81.66250000000001)"/><path d="M482 230h77.83" stroke="#000" stroke-width="2" fill="none"/><path d="M482.03 231h-1.1l.07-.98-.03-1.02h1.06z"/><path d="M575.1 230l-14.27 4.64v-9.28z" stroke="#000" stroke-width="2"/><path d="M660 170l80 60-80 60-80-60z" stroke="#000" stroke-width="2" fill="#fff"/><use xlink:href="#p" transform="matrix(1,0,0,1,585,175) translate(40.55499999999999 59.0875)"/><path d="M786.7 231h-44.03v-2h44.02zm493.8 0H810.64v-2h469.86z"/><path d="M742.7 231h-2.37l1.34-1-1.34-1h2.36zM1295.76 230l-14.26 4.64v-9.28z"/><path d="M1299 230l-18.5 6v-12zm-16.5 3.26l10.03-3.26-10.03-3.26z"/><use xlink:href="#q" transform="matrix(1,0,0,1,786.6916666666666,219.2) translate(0 14.4)"/><path d="M661 340.32h-2v-4.48h2zm0-26.08h-2v-22h2z"/><path d="M661 292.28h-2v-1.78l1 .75 1-.75zM660 355.58l-4.64-14.26h9.28z"/><path d="M660 358.82l-6-18.5h12zm-3.26-16.5l3.26 10.03 3.26-10.03z"/><use xlink:href="#r" transform="matrix(1,0,0,1,640.025,314.23537617924643) translate(0 14.4)"/><path d="M660 360l80 50-80 50-80-50z" stroke="#000" stroke-width="2" fill="#fff"/><use xlink:href="#s" transform="matrix(1,0,0,1,585,365) translate(20.07999999999999 48.15)"/><use xlink:href="#t" transform="matrix(1,0,0,1,585,365) translate(75.03 48.15)"/><use xlink:href="#u" transform="matrix(1,0,0,1,585,365) translate(50.505 69.75)"/><path d="M881.44 411H742.9v-2h136.54v-33.2h2zm119.06-90H881.44v33.2h-2V319h121.06zM742.9 411h-2.6l1.6-1-1.6-1h2.6zM1015.76 320l-14.26 4.64v-9.28z"/><path d="M1019 320l-18.5 6v-12zm-16.5 3.26l10.03-3.26-10.03-3.26z"/><use xlink:href="#v" transform="matrix(1,0,0,1,868.9683981132056,354.19999999999993) translate(0 14.4)"/><path d="M1020 300h160v40h-160z" stroke="#000" stroke-width="2" fill="#fff"/><use xlink:href="#w" transform="matrix(1,0,0,1,1025,305) translate(29.525 18.15)"/><use xlink:href="#x" transform="matrix(1,0,0,1,1025,305) translate(73.475 18.15)"/><path d="M1182 320h138.5" stroke="#000" stroke-width="2" fill="none"/><path d="M1182.03 321H1181v-2h1.03z"/><path d="M1335.76 320l-14.26 4.64v-9.28z" stroke="#000" stroke-width="2"/><path d="M661 511.3h-2v-13.17h2zm0-34.77h-2v-14.35h2z"/><path d="M661 462.2h-2v-1.65l1 .63 1-.63zM660 526.56l-4.64-14.26h9.28z"/><path d="M660 529.8l-6-18.5h12zm-3.26-16.5l3.26 10.03 3.26-10.03z"/><use xlink:href="#y" transform="matrix(1,0,0,1,645.325,476.5333333333333) translate(0 14.4)"/><path d="M565 530.8h190v60H565z" stroke="#000" stroke-width="2" fill="#fff"/><use xlink:href="#z" transform="matrix(1,0,0,1,570,535.8) translate(1.0999999999999943 30.025)"/><use xlink:href="#A" transform="matrix(1,0,0,1,570,535.8) translate(60 30.025)"/><use xlink:href="#B" transform="matrix(1,0,0,1,570,535.8) translate(113 30.025)"/><use xlink:href="#C" transform="matrix(1,0,0,1,570,535.8) translate(138.95 30.025)"/><path d="M757 560.8h22.62" stroke="#000" stroke-width="2" fill="none"/><path d="M757.03 561.8H756v-2h1.03z"/><path d="M794.9 560.8l-14.28 4.64v-9.28z" stroke="#000" stroke-width="2"/><path d="M880 510.4l80 50.4-80 50.4-80-50.4z" stroke="#000" stroke-width="2" fill="#fff"/><use xlink:href="#D" transform="matrix(1,0,0,1,805,515.4) translate(25.055 48.525)"/><use xlink:href="#E" transform="matrix(1,0,0,1,805,515.4) translate(43.005 48.525)"/><use xlink:href="#u" transform="matrix(1,0,0,1,805,515.4) translate(75.95500000000001 48.525)"/><path d="M973.33 561.8h-10.45v-2h10.45zm47.17 0h-17.83v-2h17.83z"/><path d="M962.9 561.8h-2.6l1.58-1-1.6-1h2.62zM1035.76 560.8l-14.26 4.64v-9.28z"/><path d="M1039 560.8l-18.5 6v-12zm-16.5 3.26l10.03-3.26-10.03-3.26z"/><use xlink:href="#y" transform="matrix(1,0,0,1,973.325,550) translate(0 14.4)"/><path d="M1040 526.2h120v69.2h-120z" stroke="#000" stroke-width="2" fill="#fff"/><g><use xlink:href="#F" transform="matrix(1,0,0,1,1045,531.1999999999999) translate(18.549999999999997 21.9)"/><use xlink:href="#G" transform="matrix(1,0,0,1,1045,531.1999999999999) translate(9.074999999999996 43.5)"/><use xlink:href="#C" transform="matrix(1,0,0,1,1045,531.1999999999999) translate(60.975 43.5)"/></g><path d="M1100 524.2V359.5" stroke="#000" stroke-width="2" fill="none"/><path d="M1101 525.2h-2v-1.03h2z"/><path d="M1100 344.24l4.64 14.26h-9.28z" stroke="#000" stroke-width="2"/><path d="M881 625.3h-2v-11.92h2z"/><path d="M881 613.4h-2v-1.65l1 .63 1-.63zM880 656.56l-3.14-9.67h6.28z"/><path d="M880 659.8l-4.2-12.9h2.1l2.1 6.43 2.1-6.44h2.1z"/><g><use xlink:href="#v" transform="matrix(1,0,0,1,868.525,625.2906408799081) translate(0 14.4)"/></g><path d="M900 680c0 10.6-8.95 19.2-20 19.2s-20-8.6-20-19.2 8.95-19.2 20-19.2 20 8.6 20 19.2z" stroke="#000" stroke-width="2" fill="#fff"/><g><use xlink:href="#H" transform="matrix(1,0,0,1,865,665.8) translate(1.0299999999999996 14.4)"/></g><path d="M900 210h160v40H900z" stroke="#000" stroke-width="2" fill="#fff"/><g><use xlink:href="#I" transform="matrix(1,0,0,1,905,215) translate(4.574999999999989 18.15)"/><use xlink:href="#J" transform="matrix(1,0,0,1,905,215) translate(116.425 18.15)"/></g><path d="M1170 160c16.57 0 30 13.43 30 30v500c0 16.57-13.43 30-30 30H550c-16.57 0-30-13.43-30-30V190c0-16.57 13.43-30 30-30z" stroke="#000" stroke-width="2" fill="#ffdba9" fill-opacity=".26"/><defs><linearGradient gradientUnits="userSpaceOnUse" id="a" x1="320" y1="200" x2="320" y2="260"><stop offset="0%" stop-color="#f0f0f0"/><stop offset="56%" stop-color="#ccc"/><stop offset="100%" stop-color="#a8a8a8"/></linearGradient><path d="M59-47c-2 24 18 29 38 22v24C64 9 27 4 27-40v-127H5v-23h24l9-43h21v43h35v23H59v120" id="K"/><path d="M100-194c62-1 85 37 85 99 1 63-27 99-86 99S16-35 15-95c0-66 28-99 85-99zM99-20c44 1 53-31 53-75 0-43-8-75-51-75s-53 32-53 75 10 74 51 75" id="L"/><path d="M115-194c55 1 70 41 70 98S169 2 115 4C84 4 66-9 55-30l1 105H24l-1-265h31l2 30c10-21 28-34 59-34zm-8 174c40 0 45-34 45-75s-6-73-45-74c-42 0-51 32-51 76 0 43 10 73 51 73" id="M"/><path d="M24-231v-30h32v30H24zM24 0v-190h32V0H24" id="N"/><path d="M96-169c-40 0-48 33-48 73s9 75 48 75c24 0 41-14 43-38l32 2c-6 37-31 61-74 61-59 0-76-41-82-99-10-93 101-131 147-64 4 7 5 14 7 22l-32 3c-4-21-16-35-41-35" id="O"/><path d="M16-82v-28h88v28H16" id="P"/><path d="M100-194c63 0 86 42 84 106H49c0 40 14 67 53 68 26 1 43-12 49-29l28 8c-11 28-37 45-77 45C44 4 14-33 15-96c1-61 26-98 85-98zm52 81c6-60-76-77-97-28-3 7-6 17-6 28h103" id="Q"/><path d="M108 0H70L1-190h34L89-25l56-165h34" id="R"/><path d="M117-194c89-4 53 116 60 194h-32v-121c0-31-8-49-39-48C34-167 62-67 57 0H25l-1-190h30c1 10-1 24 2 32 11-22 29-35 61-36" id="S"/><path d="M135-143c-3-34-86-38-87 0 15 53 115 12 119 90S17 21 10-45l28-5c4 36 97 45 98 0-10-56-113-15-118-90-4-57 82-63 122-42 12 7 21 19 24 35" id="T"/><g id="b"><use transform="matrix(0.05,0,0,0.05,0,0)" xlink:href="#K"/><use transform="matrix(0.05,0,0,0.05,5,0)" xlink:href="#L"/><use transform="matrix(0.05,0,0,0.05,15,0)" xlink:href="#M"/><use transform="matrix(0.05,0,0,0.05,25,0)" xlink:href="#N"/><use transform="matrix(0.05,0,0,0.05,28.950000000000003,0)" xlink:href="#O"/><use transform="matrix(0.05,0,0,0.05,37.95,0)" xlink:href="#P"/><use transform="matrix(0.05,0,0,0.05,43.900000000000006,0)" xlink:href="#Q"/><use transform="matrix(0.05,0,0,0.05,53.900000000000006,0)" xlink:href="#R"/><use transform="matrix(0.05,0,0,0.05,62.900000000000006,0)" xlink:href="#Q"/><use transform="matrix(0.05,0,0,0.05,72.9,0)" xlink:href="#S"/><use transform="matrix(0.05,0,0,0.05,82.9,0)" xlink:href="#K"/><use transform="matrix(0.05,0,0,0.05,87.9,0)" xlink:href="#T"/></g><path d="M30 0v-248h187v28H63v79h144v27H63v87h162V0H30" id="U"/><g id="c"><use transform="matrix(0.05,0,0,0.05,0,0)" xlink:href="#U"/><use transform="matrix(0.05,0,0,0.05,12,0)" xlink:href="#R"/><use transform="matrix(0.05,0,0,0.05,21,0)" xlink:href="#Q"/><use transform="matrix(0.05,0,0,0.05,31,0)" xlink:href="#S"/><use transform="matrix(0.05,0,0,0.05,41,0)" xlink:href="#K"/></g><path d="M185-189c-5-48-123-54-124 2 14 75 158 14 163 119 3 78-121 87-175 55-17-10-28-26-33-46l33-7c5 56 141 63 141-1 0-78-155-14-162-118-5-82 145-84 179-34 5 7 8 16 11 25" id="V"/><path d="M114-163C36-179 61-72 57 0H25l-1-190h30c1 12-1 29 2 39 6-27 23-49 58-41v29" id="W"/><path d="M141-36C126-15 110 5 73 4 37 3 15-17 15-53c-1-64 63-63 125-63 3-35-9-54-41-54-24 1-41 7-42 31l-33-3c5-37 33-52 76-52 45 0 72 20 72 64v82c-1 20 7 32 28 27v20c-31 9-61-2-59-35zM48-53c0 20 12 33 32 33 41-3 63-29 60-74-43 2-92-5-92 41" id="X"/><path d="M210-169c-67 3-38 105-44 169h-31v-121c0-29-5-50-35-48C34-165 62-65 56 0H25l-1-190h30c1 10-1 24 2 32 10-44 99-50 107 0 11-21 27-35 58-36 85-2 47 119 55 194h-31v-121c0-29-5-49-35-48" id="Y"/><g id="d"><use transform="matrix(0.05,0,0,0.05,0,0)" xlink:href="#V"/><use transform="matrix(0.05,0,0,0.05,12,0)" xlink:href="#K"/><use transform="matrix(0.05,0,0,0.05,17,0)" xlink:href="#W"/><use transform="matrix(0.05,0,0,0.05,22.95,0)" xlink:href="#Q"/><use transform="matrix(0.05,0,0,0.05,32.95,0)" xlink:href="#X"/><use transform="matrix(0.05,0,0,0.05,42.95,0)" xlink:href="#Y"/></g><path d="M30-248c87 1 191-15 191 75 0 78-77 80-158 76V0H30v-248zm33 125c57 0 124 11 124-50 0-59-68-47-124-48v98" id="Z"/><g id="e"><use transform="matrix(0.05,0,0,0.05,0,0)" xlink:href="#Z"/><use transform="matrix(0.05,0,0,0.05,12,0)" xlink:href="#W"/><use transform="matrix(0.05,0,0,0.05,17.95,0)" xlink:href="#L"/><use transform="matrix(0.05,0,0,0.05,27.950000000000003,0)" xlink:href="#O"/><use transform="matrix(0.05,0,0,0.05,36.95,0)" xlink:href="#Q"/><use transform="matrix(0.05,0,0,0.05,46.95,0)" xlink:href="#T"/><use transform="matrix(0.05,0,0,0.05,55.95,0)" xlink:href="#T"/><use transform="matrix(0.05,0,0,0.05,64.95,0)" xlink:href="#L"/><use transform="matrix(0.05,0,0,0.05,74.95,0)" xlink:href="#W"/></g><linearGradient gradientUnits="userSpaceOnUse" id="f" x1="1300" y1="170" x2="1300" y2="290"><stop offset="0%" stop-color="#fff"/><stop offset="42.35%" stop-color="#f0f0f0"/><stop offset="100%" stop-color="#ccc"/></linearGradient><g id="g"><use transform="matrix(0.05,0,0,0.05,0,0)" xlink:href="#Z"/><use transform="matrix(0.05,0,0,0.05,12,0)" xlink:href="#W"/><use transform="matrix(0.05,0,0,0.05,17.95,0)" xlink:href="#L"/><use transform="matrix(0.05,0,0,0.05,27.950000000000003,0)" xlink:href="#O"/><use transform="matrix(0.05,0,0,0.05,36.95,0)" xlink:href="#Q"/><use transform="matrix(0.05,0,0,0.05,46.95,0)" xlink:href="#T"/><use transform="matrix(0.05,0,0,0.05,55.95,0)" xlink:href="#T"/></g><linearGradient gradientUnits="userSpaceOnUse" id="h" x1="1320" y1="190" x2="1320" y2="310"><stop offset="0%" stop-color="#fff"/><stop offset="42.35%" stop-color="#f0f0f0"/><stop offset="100%" stop-color="#ccc"/></linearGradient><linearGradient gradientUnits="userSpaceOnUse" id="i" x1="1340" y1="210" x2="1340" y2="330"><stop offset="0%" stop-color="#f0f0f0"/><stop offset="56%" stop-color="#ccc"/><stop offset="100%" stop-color="#a8a8a8"/></linearGradient><path d="M63-220v92h138v28H63V0H30v-248h175v28H63" id="aa"/><path d="M194 0L95-120 63-95V0H30v-248h33v124l119-124h40L117-140 236 0h-42" id="ab"/><g id="j"><use transform="matrix(0.05,0,0,0.05,0,0)" xlink:href="#U"/><use transform="matrix(0.05,0,0,0.05,12,0)" xlink:href="#aa"/><use transform="matrix(0.05,0,0,0.05,22.950000000000003,0)" xlink:href="#ab"/></g><path d="M143 0L79-87 56-68V0H24v-261h32v163l83-92h37l-77 82L181 0h-38" id="ac"/><g id="k"><use transform="matrix(0.05,0,0,0.05,0,0)" xlink:href="#V"/><use transform="matrix(0.05,0,0,0.05,12,0)" xlink:href="#K"/><use transform="matrix(0.05,0,0,0.05,17,0)" xlink:href="#X"/><use transform="matrix(0.05,0,0,0.05,27,0)" xlink:href="#O"/><use transform="matrix(0.05,0,0,0.05,36,0)" xlink:href="#ac"/></g><use transform="matrix(0.05,0,0,0.05,0,0)" xlink:href="#P" id="l"/><path d="M24 0v-261h32V0H24" id="ad"/><path d="M106-169C34-169 62-67 57 0H25v-261h32l-1 103c12-21 28-36 61-36 89 0 53 116 60 194h-32v-121c2-32-8-49-39-48" id="ae"/><path d="M68-38c1 34 0 65-14 84H32c9-13 17-26 17-46H33v-38h35" id="af"/><g id="m"><use transform="matrix(0.05,0,0,0.05,0,0)" xlink:href="#U"/><use transform="matrix(0.05,0,0,0.05,12,0)" xlink:href="#ad"/><use transform="matrix(0.05,0,0,0.05,15.949999999999998,0)" xlink:href="#X"/><use transform="matrix(0.05,0,0,0.05,25.950000000000003,0)" xlink:href="#T"/><use transform="matrix(0.05,0,0,0.05,34.95,0)" xlink:href="#K"/><use transform="matrix(0.05,0,0,0.05,39.95,0)" xlink:href="#N"/><use transform="matrix(0.05,0,0,0.05,43.900000000000006,0)" xlink:href="#O"/><use transform="matrix(0.05,0,0,0.05,52.900000000000006,0)" xlink:href="#T"/><use transform="matrix(0.05,0,0,0.05,61.900000000000006,0)" xlink:href="#Q"/><use transform="matrix(0.05,0,0,0.05,71.9,0)" xlink:href="#X"/><use transform="matrix(0.05,0,0,0.05,81.9,0)" xlink:href="#W"/><use transform="matrix(0.05,0,0,0.05,87.85000000000001,0)" xlink:href="#O"/><use transform="matrix(0.05,0,0,0.05,96.85000000000001,0)" xlink:href="#ae"/><use transform="matrix(0.05,0,0,0.05,106.85000000000001,0)" xlink:href="#af"/></g><path d="M115-194c53 0 69 39 70 98 0 66-23 100-70 100C84 3 66-7 56-30L54 0H23l1-261h32v101c10-23 28-34 59-34zm-8 174c40 0 45-34 45-75 0-40-5-75-45-74-42 0-51 32-51 76 0 43 10 73 51 73" id="ag"/><g id="n"><use transform="matrix(0.05,0,0,0.05,0,0)" xlink:href="#ab"/><use transform="matrix(0.05,0,0,0.05,12,0)" xlink:href="#N"/><use transform="matrix(0.05,0,0,0.05,15.949999999999998,0)" xlink:href="#ag"/><use transform="matrix(0.05,0,0,0.05,25.950000000000003,0)" xlink:href="#X"/><use transform="matrix(0.05,0,0,0.05,35.95,0)" xlink:href="#S"/><use transform="matrix(0.05,0,0,0.05,45.95,0)" xlink:href="#X"/><use transform="matrix(0.05,0,0,0.05,55.95,0)" xlink:href="#af"/></g><path d="M205 0l-28-72H64L36 0H1l101-248h38L239 0h-34zm-38-99l-47-123c-12 45-31 82-46 123h93" id="ah"/><path d="M240 0l2-218c-23 76-54 145-80 218h-23L58-218 59 0H30v-248h44l77 211c21-75 51-140 76-211h43V0h-30" id="ai"/><g id="o"><use transform="matrix(0.05,0,0,0.05,0,0)" xlink:href="#ah"/><use transform="matrix(0.05,0,0,0.05,12,0)" xlink:href="#Z"/><use transform="matrix(0.05,0,0,0.05,24,0)" xlink:href="#ai"/></g><path d="M177-190C167-65 218 103 67 71c-23-6-38-20-44-43l32-5c15 47 100 32 89-28v-30C133-14 115 1 83 1 29 1 15-40 15-95c0-56 16-97 71-98 29-1 48 16 59 35 1-10 0-23 2-32h30zM94-22c36 0 50-32 50-73 0-42-14-75-50-75-39 0-46 34-46 75s6 73 46 73" id="aj"/><path d="M0 4l72-265h28L28 4H0" id="ak"/><g id="p"><use transform="matrix(0.05,0,0,0.05,0,0)" xlink:href="#ad"/><use transform="matrix(0.05,0,0,0.05,3.95,0)" xlink:href="#L"/><use transform="matrix(0.05,0,0,0.05,13.949999999999998,0)" xlink:href="#aj"/><use transform="matrix(0.05,0,0,0.05,23.95,0)" xlink:href="#ak"/><use transform="matrix(0.05,0,0,0.05,28.950000000000003,0)" xlink:href="#K"/><use transform="matrix(0.05,0,0,0.05,33.95,0)" xlink:href="#W"/><use transform="matrix(0.05,0,0,0.05,39.900000000000006,0)" xlink:href="#X"/><use transform="matrix(0.05,0,0,0.05,49.900000000000006,0)" xlink:href="#O"/><use transform="matrix(0.05,0,0,0.05,58.900000000000006,0)" xlink:href="#Q"/></g><g id="q"><use transform="matrix(0.05,0,0,0.05,0,0)" xlink:href="#ad"/><use transform="matrix(0.05,0,0,0.05,3.95,0)" xlink:href="#L"/><use transform="matrix(0.05,0,0,0.05,13.949999999999998,0)" xlink:href="#aj"/></g><g id="r"><use transform="matrix(0.05,0,0,0.05,0,0)" xlink:href="#K"/><use transform="matrix(0.05,0,0,0.05,5,0)" xlink:href="#W"/><use transform="matrix(0.05,0,0,0.05,10.95,0)" xlink:href="#X"/><use transform="matrix(0.05,0,0,0.05,20.95,0)" xlink:href="#O"/><use transform="matrix(0.05,0,0,0.05,29.950000000000003,0)" xlink:href="#Q"/></g><g id="s"><use transform="matrix(0.05,0,0,0.05,0,0)" xlink:href="#O"/><use transform="matrix(0.05,0,0,0.05,9,0)" xlink:href="#W"/><use transform="matrix(0.05,0,0,0.05,14.949999999999998,0)" xlink:href="#Q"/><use transform="matrix(0.05,0,0,0.05,24.95,0)" xlink:href="#X"/><use transform="matrix(0.05,0,0,0.05,34.95,0)" xlink:href="#K"/><use transform="matrix(0.05,0,0,0.05,39.95,0)" xlink:href="#Q"/></g><g id="t"><use transform="matrix(0.05,0,0,0.05,0,0)" xlink:href="#Y"/><use transform="matrix(0.05,0,0,0.05,14.950000000000001,0)" xlink:href="#X"/><use transform="matrix(0.05,0,0,0.05,24.950000000000003,0)" xlink:href="#T"/><use transform="matrix(0.05,0,0,0.05,33.95,0)" xlink:href="#K"/><use transform="matrix(0.05,0,0,0.05,38.95,0)" xlink:href="#Q"/><use transform="matrix(0.05,0,0,0.05,48.95,0)" xlink:href="#W"/></g><path d="M103-251c84 0 111 97 45 133-19 10-37 24-39 52H78c0-63 77-55 77-114 0-30-21-42-52-43-32 0-53 17-56 46l-32-2c7-45 34-72 88-72zM77 0v-35h34V0H77" id="al"/><g id="u"><use transform="matrix(0.05,0,0,0.05,0,0)" xlink:href="#T"/><use transform="matrix(0.05,0,0,0.05,9,0)" xlink:href="#M"/><use transform="matrix(0.05,0,0,0.05,19,0)" xlink:href="#X"/><use transform="matrix(0.05,0,0,0.05,29,0)" xlink:href="#S"/><use transform="matrix(0.05,0,0,0.05,39,0)" xlink:href="#al"/></g><path d="M190 0L58-211 59 0H30v-248h39L202-35l-2-213h31V0h-41" id="am"/><g id="v"><use transform="matrix(0.05,0,0,0.05,0,0)" xlink:href="#am"/><use transform="matrix(0.05,0,0,0.05,12.950000000000001,0)" xlink:href="#L"/></g><g id="w"><use transform="matrix(0.05,0,0,0.05,0,0)" xlink:href="#ah"/><use transform="matrix(0.05,0,0,0.05,12,0)" xlink:href="#Z"/><use transform="matrix(0.05,0,0,0.05,24,0)" xlink:href="#ai"/></g><g id="x"><use transform="matrix(0.05,0,0,0.05,0,0)" xlink:href="#ah"/><use transform="matrix(0.05,0,0,0.05,12,0)" xlink:href="#aj"/><use transform="matrix(0.05,0,0,0.05,22,0)" xlink:href="#Q"/><use transform="matrix(0.05,0,0,0.05,32,0)" xlink:href="#S"/><use transform="matrix(0.05,0,0,0.05,42,0)" xlink:href="#K"/></g><path d="M137-103V0h-34v-103L8-248h37l75 118 75-118h37" id="an"/><g id="y"><use transform="matrix(0.05,0,0,0.05,0,0)" xlink:href="#an"/><use transform="matrix(0.05,0,0,0.05,10.35,0)" xlink:href="#Q"/><use transform="matrix(0.05,0,0,0.05,20.35,0)" xlink:href="#T"/></g><path d="M212-179c-10-28-35-45-73-45-59 0-87 40-87 99 0 60 29 101 89 101 43 0 62-24 78-52l27 14C228-24 195 4 139 4 59 4 22-46 18-125c-6-104 99-153 187-111 19 9 31 26 39 46" id="ao"/><g id="z"><use transform="matrix(0.05,0,0,0.05,0,0)" xlink:href="#ao"/><use transform="matrix(0.05,0,0,0.05,12.950000000000001,0)" xlink:href="#W"/><use transform="matrix(0.05,0,0,0.05,18.900000000000002,0)" xlink:href="#Q"/><use transform="matrix(0.05,0,0,0.05,28.900000000000002,0)" xlink:href="#X"/><use transform="matrix(0.05,0,0,0.05,38.900000000000006,0)" xlink:href="#K"/><use transform="matrix(0.05,0,0,0.05,43.900000000000006,0)" xlink:href="#Q"/></g><g id="A"><use transform="matrix(0.05,0,0,0.05,0,0)" xlink:href="#O"/><use transform="matrix(0.05,0,0,0.05,9,0)" xlink:href="#X"/><use transform="matrix(0.05,0,0,0.05,19,0)" xlink:href="#O"/><use transform="matrix(0.05,0,0,0.05,28,0)" xlink:href="#ae"/><use transform="matrix(0.05,0,0,0.05,38,0)" xlink:href="#Q"/></g><path d="M101-234c-31-9-42 10-38 44h38v23H63V0H32v-167H5v-23h27c-7-52 17-82 69-68v24" id="ap"/><g id="B"><use transform="matrix(0.05,0,0,0.05,0,0)" xlink:href="#ap"/><use transform="matrix(0.05,0,0,0.05,5,0)" xlink:href="#L"/><use transform="matrix(0.05,0,0,0.05,15,0)" xlink:href="#W"/></g><g id="C"><use transform="matrix(0.05,0,0,0.05,0,0)" xlink:href="#K"/><use transform="matrix(0.05,0,0,0.05,5,0)" xlink:href="#W"/><use transform="matrix(0.05,0,0,0.05,10.95,0)" xlink:href="#X"/><use transform="matrix(0.05,0,0,0.05,20.95,0)" xlink:href="#O"/><use transform="matrix(0.05,0,0,0.05,29.950000000000003,0)" xlink:href="#Q"/></g><g id="D"><use transform="matrix(0.05,0,0,0.05,0,0)" xlink:href="#N"/><use transform="matrix(0.05,0,0,0.05,3.95,0)" xlink:href="#T"/></g><g id="E"><use transform="matrix(0.05,0,0,0.05,0,0)" xlink:href="#ad"/><use transform="matrix(0.05,0,0,0.05,3.95,0)" xlink:href="#X"/><use transform="matrix(0.05,0,0,0.05,13.949999999999998,0)" xlink:href="#T"/><use transform="matrix(0.05,0,0,0.05,22.95,0)" xlink:href="#K"/></g><path d="M233-177c-1 41-23 64-60 70L243 0h-38l-65-103H63V0H30v-248c88 3 205-21 203 71zM63-129c60-2 137 13 137-47 0-61-80-42-137-45v92" id="aq"/><g id="F"><use transform="matrix(0.05,0,0,0.05,0,0)" xlink:href="#aq"/><use transform="matrix(0.05,0,0,0.05,12.950000000000001,0)" xlink:href="#Q"/><use transform="matrix(0.05,0,0,0.05,22.950000000000003,0)" xlink:href="#O"/><use transform="matrix(0.05,0,0,0.05,31.950000000000003,0)" xlink:href="#W"/><use transform="matrix(0.05,0,0,0.05,37.900000000000006,0)" xlink:href="#Q"/><use transform="matrix(0.05,0,0,0.05,47.900000000000006,0)" xlink:href="#X"/><use transform="matrix(0.05,0,0,0.05,57.900000000000006,0)" xlink:href="#K"/><use transform="matrix(0.05,0,0,0.05,62.900000000000006,0)" xlink:href="#Q"/></g><path d="M206 0h-36l-40-164L89 0H53L-1-190h32L70-26l43-164h34l41 164 42-164h31" id="ar"/><g id="G"><use transform="matrix(0.05,0,0,0.05,0,0)" xlink:href="#ar"/><use transform="matrix(0.05,0,0,0.05,12.950000000000001,0)" xlink:href="#ae"/><use transform="matrix(0.05,0,0,0.05,22.950000000000003,0)" xlink:href="#L"/><use transform="matrix(0.05,0,0,0.05,32.95,0)" xlink:href="#ad"/><use transform="matrix(0.05,0,0,0.05,36.900000000000006,0)" xlink:href="#Q"/></g><path d="M141 0L90-78 38 0H4l68-98-65-92h35l48 74 47-74h35l-64 92 68 98h-35" id="as"/><g id="H"><use transform="matrix(0.05,0,0,0.05,0,0)" xlink:href="#Q"/><use transform="matrix(0.05,0,0,0.05,10,0)" xlink:href="#as"/><use transform="matrix(0.05,0,0,0.05,19,0)" xlink:href="#N"/><use transform="matrix(0.05,0,0,0.05,22.95,0)" xlink:href="#K"/></g><g id="I"><use transform="matrix(0.05,0,0,0.05,0,0)" xlink:href="#U"/><use transform="matrix(0.05,0,0,0.05,12,0)" xlink:href="#ad"/><use transform="matrix(0.05,0,0,0.05,15.949999999999998,0)" xlink:href="#X"/><use transform="matrix(0.05,0,0,0.05,25.950000000000003,0)" xlink:href="#T"/><use transform="matrix(0.05,0,0,0.05,34.95,0)" xlink:href="#K"/><use transform="matrix(0.05,0,0,0.05,39.95,0)" xlink:href="#N"/><use transform="matrix(0.05,0,0,0.05,43.900000000000006,0)" xlink:href="#O"/><use transform="matrix(0.05,0,0,0.05,52.900000000000006,0)" xlink:href="#T"/><use transform="matrix(0.05,0,0,0.05,61.900000000000006,0)" xlink:href="#Q"/><use transform="matrix(0.05,0,0,0.05,71.9,0)" xlink:href="#X"/><use transform="matrix(0.05,0,0,0.05,81.9,0)" xlink:href="#W"/><use transform="matrix(0.05,0,0,0.05,87.85000000000001,0)" xlink:href="#O"/><use transform="matrix(0.05,0,0,0.05,96.85000000000001,0)" xlink:href="#ae"/></g><path d="M33 0v-248h34V0H33" id="at"/><g id="J"><use transform="matrix(0.05,0,0,0.05,0,0)" xlink:href="#ah"/><use transform="matrix(0.05,0,0,0.05,12,0)" xlink:href="#Z"/><use transform="matrix(0.05,0,0,0.05,24,0)" xlink:href="#at"/></g></defs></g></svg>