<svg xmlns="http://www.w3.org/2000/svg" xmlns:xlink="http://www.w3.org/1999/xlink" contentStyleType="text/css" height="339px" preserveAspectRatio="none" style="width:397px;height:339px;background:#FFFFFF;" version="1.1" viewBox="0 0 397 339" width="397px" zoomAndPan="magnify">
  <defs/>
  <g>
    <rect fill="#F5F5F5" height="226.0625" style="stroke:#000000;stroke-width:1.0;" width="10" x="28.3623" y="97.6953"/>
    <rect fill="#F5F5F5" height="159.7969" style="stroke:#000000;stroke-width:1.0;" width="10" x="238.8018" y="97.6953"/>
    <line style="stroke:#000000;stroke-width:0.5;stroke-dasharray:5.0,5.0;" x1="33" x2="33" y1="66.5625" y2="332.7578"/>
    <line style="stroke:#000000;stroke-width:0.5;stroke-dasharray:5.0,5.0;" x1="243.3184" x2="243.3184" y1="66.5625" y2="332.7578"/>
    <rect fill="#F5F5F5" height="60.5625" rx="2.5" ry="2.5" style="stroke:#181818;stroke-width:0.5;" width="56.7246" x="5" y="5"/>
    <text fill="#000000" font-family="Verdana" font-size="20" font-weight="bold" lengthAdjust="spacing" textLength="6.9629" x="29.8809" y="30.5645"> </text>
    <text fill="#000000" font-family="Verdana" font-size="20" font-weight="bold" lengthAdjust="spacing" textLength="42.7246" x="12" y="53.8457">FSP</text>
    <rect fill="#F5F5F5" height="60.5625" rx="2.5" ry="2.5" style="stroke:#181818;stroke-width:0.5;" width="104.9668" x="191.3184" y="5"/>
    <text fill="#000000" font-family="Verdana" font-size="20" font-weight="bold" lengthAdjust="spacing" textLength="90.9668" x="198.3184" y="30.5645">Account</text>
    <text fill="#000000" font-family="Verdana" font-size="20" font-weight="bold" lengthAdjust="spacing" textLength="82.0801" x="202.7617" y="53.8457">Lookup</text>
    <rect fill="#F5F5F5" height="226.0625" style="stroke:#000000;stroke-width:1.0;" width="10" x="28.3623" y="97.6953"/>
    <rect fill="#F5F5F5" height="159.7969" style="stroke:#000000;stroke-width:1.0;" width="10" x="238.8018" y="97.6953"/>
    <line style="stroke:#000000;stroke-width:1.0;" x1="236.8018" x2="226.8018" y1="97.6953" y2="93.6953"/>
    <line style="stroke:#000000;stroke-width:1.0;" x1="236.8018" x2="226.8018" y1="97.6953" y2="101.6953"/>
    <line style="stroke:#000000;stroke-width:1.0;" x1="38.3623" x2="237.8018" y1="97.6953" y2="97.6953"/>
    <text fill="#000000" font-family="Verdana" font-size="13" font-weight="bold" lengthAdjust="spacing" textLength="121.0244" x="60.2551" y="92.6294">DELETE /service/</text>
    <text fill="#000000" font-family="Verdana" font-size="13" font-style="italic" lengthAdjust="spacing" textLength="35.6294" x="181.2795" y="92.6294">&lt;ID&gt;</text>
    <line style="stroke:#000000;stroke-width:1.0;" x1="39.3623" x2="49.3623" y1="126.8281" y2="122.8281"/>
    <line style="stroke:#000000;stroke-width:1.0;" x1="39.3623" x2="49.3623" y1="126.8281" y2="130.8281"/>
    <line style="stroke:#000000;stroke-width:1.0;stroke-dasharray:2.0,2.0;" x1="38.3623" x2="237.8018" y1="126.8281" y2="126.8281"/>
    <text fill="#000000" font-family="Verdana" font-size="13" font-weight="bold" lengthAdjust="spacing" textLength="69.8052" x="66.1489" y="121.7622">HTTP 202</text>
    <text fill="#000000" font-family="Verdana" font-size="13" lengthAdjust="spacing" textLength="70.9287" x="140.0864" y="121.7622">(Accepted)</text>
    <line style="stroke:#000000;stroke-width:1.0;" x1="248.8018" x2="290.8018" y1="171.0938" y2="171.0938"/>
    <line style="stroke:#000000;stroke-width:1.0;" x1="290.8018" x2="290.8018" y1="171.0938" y2="184.0938"/>
    <line style="stroke:#000000;stroke-width:1.0;" x1="249.8018" x2="290.8018" y1="184.0938" y2="184.0938"/>
    <polygon fill="#000000" points="259.8018,180.0938,249.8018,184.0938,259.8018,188.0938,255.8018,184.0938" style="stroke:#000000;stroke-width:1.0;"/>
    <text fill="#000000" font-family="Verdana" font-size="13" lengthAdjust="spacing" textLength="86.9058" x="279.8149" y="150.895">Delete object</text>
    <text fill="#000000" font-family="Verdana" font-size="13" lengthAdjust="spacing" textLength="134.9321" x="255.8018" y="166.0278">according to request</text>
    <line style="stroke:#000000;stroke-width:1.0;" x1="39.3623" x2="49.3623" y1="228.3594" y2="224.3594"/>
    <line style="stroke:#000000;stroke-width:1.0;" x1="39.3623" x2="49.3623" y1="228.3594" y2="232.3594"/>
    <line style="stroke:#000000;stroke-width:1.0;" x1="38.3623" x2="237.8018" y1="228.3594" y2="228.3594"/>
    <text fill="#000000" font-family="Verdana" font-size="13" font-weight="bold" lengthAdjust="spacing" textLength="95.3926" x="73.071" y="208.1606">PUT /service/</text>
    <text fill="#000000" font-family="Verdana" font-size="13" font-style="italic" lengthAdjust="spacing" textLength="35.6294" x="168.4636" y="208.1606">&lt;ID&gt;</text>
    <text fill="#000000" font-family="Verdana" font-size="13" lengthAdjust="spacing" textLength="176.4395" x="50.3623" y="223.2935">(Delete object information)</text>
    <line style="stroke:#000000;stroke-width:1.0;" x1="241.8018" x2="231.8018" y1="257.4922" y2="253.4922"/>
    <line style="stroke:#000000;stroke-width:1.0;" x1="241.8018" x2="231.8018" y1="257.4922" y2="261.4922"/>
    <line style="stroke:#000000;stroke-width:1.0;stroke-dasharray:2.0,2.0;" x1="38.3623" x2="242.8018" y1="257.4922" y2="257.4922"/>
    <text fill="#000000" font-family="Verdana" font-size="13" font-weight="bold" lengthAdjust="spacing" textLength="69.8052" x="89.6628" y="252.4263">HTTP 200</text>
    <text fill="#000000" font-family="Verdana" font-size="13" lengthAdjust="spacing" textLength="28.9009" x="163.6003" y="252.4263">(OK)</text>
    <line style="stroke:#000000;stroke-width:1.0;" x1="38.3623" x2="80.3623" y1="301.7578" y2="301.7578"/>
    <line style="stroke:#000000;stroke-width:1.0;" x1="80.3623" x2="80.3623" y1="301.7578" y2="314.7578"/>
    <line style="stroke:#000000;stroke-width:1.0;" x1="39.3623" x2="80.3623" y1="314.7578" y2="314.7578"/>
    <polygon fill="#000000" points="49.3623,310.7578,39.3623,314.7578,49.3623,318.7578,45.3623,314.7578" style="stroke:#000000;stroke-width:1.0;"/>
    <text fill="#000000" font-family="Verdana" font-size="13" lengthAdjust="spacing" textLength="135.1226" x="45.3623" y="281.5591">Handle delete object</text>
    <text fill="#000000" font-family="Verdana" font-size="13" lengthAdjust="spacing" textLength="75.2578" x="75.2947" y="296.6919">information</text>
  </g>
</svg>
