<?xml version="1.0" encoding="UTF-8" standalone="no"?>
<svg xmlns="http://www.w3.org/2000/svg" xmlns:xlink="http://www.w3.org/1999/xlink" contentScriptType="application/ecmascript" contentStyleType="text/css" height="757px" preserveAspectRatio="none" style="width:944px;height:757px" version="1.1" viewBox="0 0 944 757" width="944px" zoomAndPan="magnify">
  <defs>
    <filter height="300%" id="f1wn7mwskz3e7g" width="300%" x="-1" y="-1">
      <feGaussianBlur result="blurOut" stdDeviation="2.0"/>
      <feColorMatrix in="blurOut" result="blurOut2" type="matrix" values="0 0 0 0 0 0 0 0 0 0 0 0 0 0 0 0 0 0 .4 0"/>
      <feOffset dx="4.0" dy="4.0" in="blurOut2" result="blurOut3"/>
      <feBlend in="SourceGraphic" in2="blurOut3" mode="normal"/>
    </filter>
  </defs>
  <g>
    <text fill="#000000" font-family="sans-serif" font-size="18" lengthAdjust="spacingAndGlyphs" textLength="254" x="343.25" y="28.708">7.3.0 Delete Endpoint Cache</text>
    <rect fill="#FFFFE0" height="710.5156" style="stroke:#A80036;stroke-width:1.0" width="498" x="416.5" y="40.9531"/>
    <text fill="#000000" font-family="sans-serif" font-size="13" font-weight="bold" lengthAdjust="spacingAndGlyphs" textLength="176" x="577.5" y="53.02">Account Lookup Service</text>
    <rect fill="#FFFFFF" filter="url(#f1wn7mwskz3e7g)" height="273.3281" style="stroke:#A80036;stroke-width:1.0" width="10" x="84" y="132.3828"/>
    <rect fill="#FFFFFF" filter="url(#f1wn7mwskz3e7g)" height="476.5234" style="stroke:#A80036;stroke-width:1.0" width="10" x="519" y="177.6484"/>
    <rect fill="#FFFFFF" filter="url(#f1wn7mwskz3e7g)" height="228.0625" style="stroke:#A80036;stroke-width:1.0" width="10" x="519" y="177.6484"/>
    <rect fill="#FFFFFF" filter="url(#f1wn7mwskz3e7g)" height="169.7969" style="stroke:#A80036;stroke-width:1.0" width="10" x="734" y="206.7813"/>
    <rect fill="#FFFFFF" filter="url(#f1wn7mwskz3e7g)" height="53.2656" style="stroke:#A80036;stroke-width:1.0" width="10" x="880.5" y="235.9141"/>
    <rect fill="#FFFFFF" filter="url(#f1wn7mwskz3e7g)" height="29.1328" style="stroke:#A80036;stroke-width:1.0" width="10" x="880.5" y="318.3125"/>
    <rect fill="#FFFFFF" filter="url(#f1wn7mwskz3e7g)" height="529.7891" style="stroke:#000000;stroke-width:2.0" width="920.5" x="10" y="139.3828"/>
    <rect fill="#FFFFFF" filter="url(#f1wn7mwskz3e7g)" height="162.7969" style="stroke:#000000;stroke-width:2.0" width="900.5" x="20" y="250.9141"/>
    <rect fill="#FFFFFF" filter="url(#f1wn7mwskz3e7g)" height="234.4609" style="stroke:#000000;stroke-width:2.0" width="900.5" x="20" y="427.7109"/>
    <line style="stroke:#A80036;stroke-width:1.0;stroke-dasharray:5.0,5.0" x1="89" x2="89" y1="122.3828" y2="686.1719"/>
    <line style="stroke:#A80036;stroke-width:1.0;stroke-dasharray:5.0,5.0" x1="518.5" x2="518.5" y1="122.3828" y2="686.1719"/>
    <line style="stroke:#A80036;stroke-width:1.0;stroke-dasharray:5.0,5.0" x1="738.5" x2="738.5" y1="122.3828" y2="686.1719"/>
    <line style="stroke:#A80036;stroke-width:1.0;stroke-dasharray:5.0,5.0" x1="885.5" x2="885.5" y1="122.3828" y2="686.1719"/>
    <text fill="#000000" font-family="sans-serif" font-size="14" lengthAdjust="spacingAndGlyphs" textLength="112" x="30" y="119.0811">HUB OPERATOR</text>
    <ellipse cx="89" cy="90.0859" fill="#FEFECE" filter="url(#f1wn7mwskz3e7g)" rx="12" ry="12" style="stroke:#A80036;stroke-width:2.0"/>
    <line style="stroke:#A80036;stroke-width:2.0" x1="77" x2="101" y1="104.0859" y2="104.0859"/>
    <text fill="#000000" font-family="sans-serif" font-size="14" lengthAdjust="spacingAndGlyphs" textLength="112" x="30" y="698.167">HUB OPERATOR</text>
    <ellipse cx="89" cy="717.4688" fill="#FEFECE" filter="url(#f1wn7mwskz3e7g)" rx="12" ry="12" style="stroke:#A80036;stroke-width:2.0"/>
    <line style="stroke:#A80036;stroke-width:2.0" x1="77" x2="101" y1="731.4688" y2="731.4688"/>
    <text fill="#000000" font-family="sans-serif" font-size="14" lengthAdjust="spacingAndGlyphs" textLength="191" x="420.5" y="119.0811">Account Lookup Service API</text>
    <path d="M498.5,78.0859 L498.5,102.0859 M498.5,90.0859 L515.5,90.0859 " fill="none" filter="url(#f1wn7mwskz3e7g)" style="stroke:#A80036;stroke-width:2.0"/>
    <ellipse cx="527.5" cy="90.0859" fill="#FEFECE" filter="url(#f1wn7mwskz3e7g)" rx="12" ry="12" style="stroke:#A80036;stroke-width:2.0"/>
    <text fill="#000000" font-family="sans-serif" font-size="14" lengthAdjust="spacingAndGlyphs" textLength="191" x="420.5" y="698.167">Account Lookup Service API</text>
    <path d="M498.5,705.4688 L498.5,729.4688 M498.5,717.4688 L515.5,717.4688 " fill="none" filter="url(#f1wn7mwskz3e7g)" style="stroke:#A80036;stroke-width:2.0"/>
    <ellipse cx="527.5" cy="717.4688" fill="#FEFECE" filter="url(#f1wn7mwskz3e7g)" rx="12" ry="12" style="stroke:#A80036;stroke-width:2.0"/>
    <text fill="#000000" font-family="sans-serif" font-size="14" lengthAdjust="spacingAndGlyphs" textLength="217" x="627.5" y="119.0811">Delete Endpoint Cache Handler</text>
    <ellipse cx="739" cy="90.0859" fill="#FEFECE" filter="url(#f1wn7mwskz3e7g)" rx="12" ry="12" style="stroke:#A80036;stroke-width:2.0"/>
    <polygon fill="#A80036" points="735,78.0859,741,73.0859,739,78.0859,741,83.0859,735,78.0859" style="stroke:#A80036;stroke-width:1.0"/>
    <text fill="#000000" font-family="sans-serif" font-size="14" lengthAdjust="spacingAndGlyphs" textLength="217" x="627.5" y="698.167">Delete Endpoint Cache Handler</text>
    <ellipse cx="739" cy="717.4688" fill="#FEFECE" filter="url(#f1wn7mwskz3e7g)" rx="12" ry="12" style="stroke:#A80036;stroke-width:2.0"/>
    <polygon fill="#A80036" points="735,705.4688,741,700.4688,739,705.4688,741,710.4688,735,705.4688" style="stroke:#A80036;stroke-width:1.0"/>
    <text fill="#000000" font-family="sans-serif" font-size="14" lengthAdjust="spacingAndGlyphs" textLength="44" x="860.5" y="119.0811">Cache</text>
    <path d="M867.5,70.0859 C867.5,60.0859 885.5,60.0859 885.5,60.0859 C885.5,60.0859 903.5,60.0859 903.5,70.0859 L903.5,96.0859 C903.5,106.0859 885.5,106.0859 885.5,106.0859 C885.5,106.0859 867.5,106.0859 867.5,96.0859 L867.5,70.0859 " fill="#FEFECE" filter="url(#f1wn7mwskz3e7g)" style="stroke:#000000;stroke-width:1.5"/>
    <path d="M867.5,70.0859 C867.5,80.0859 885.5,80.0859 885.5,80.0859 C885.5,80.0859 903.5,80.0859 903.5,70.0859 " fill="none" style="stroke:#000000;stroke-width:1.5"/>
    <text fill="#000000" font-family="sans-serif" font-size="14" lengthAdjust="spacingAndGlyphs" textLength="44" x="860.5" y="698.167">Cache</text>
    <path d="M867.5,711.4688 C867.5,701.4688 885.5,701.4688 885.5,701.4688 C885.5,701.4688 903.5,701.4688 903.5,711.4688 L903.5,737.4688 C903.5,747.4688 885.5,747.4688 885.5,747.4688 C885.5,747.4688 867.5,747.4688 867.5,737.4688 L867.5,711.4688 " fill="#FEFECE" filter="url(#f1wn7mwskz3e7g)" style="stroke:#000000;stroke-width:1.5"/>
    <path d="M867.5,711.4688 C867.5,721.4688 885.5,721.4688 885.5,721.4688 C885.5,721.4688 903.5,721.4688 903.5,711.4688 " fill="none" style="stroke:#000000;stroke-width:1.5"/>
    <rect fill="#FFFFFF" filter="url(#f1wn7mwskz3e7g)" height="273.3281" style="stroke:#A80036;stroke-width:1.0" width="10" x="84" y="132.3828"/>
    <rect fill="#FFFFFF" filter="url(#f1wn7mwskz3e7g)" height="476.5234" style="stroke:#A80036;stroke-width:1.0" width="10" x="519" y="177.6484"/>
    <rect fill="#FFFFFF" filter="url(#f1wn7mwskz3e7g)" height="228.0625" style="stroke:#A80036;stroke-width:1.0" width="10" x="519" y="177.6484"/>
    <rect fill="#FFFFFF" filter="url(#f1wn7mwskz3e7g)" height="169.7969" style="stroke:#A80036;stroke-width:1.0" width="10" x="734" y="206.7813"/>
    <rect fill="#FFFFFF" filter="url(#f1wn7mwskz3e7g)" height="53.2656" style="stroke:#A80036;stroke-width:1.0" width="10" x="880.5" y="235.9141"/>
    <rect fill="#FFFFFF" filter="url(#f1wn7mwskz3e7g)" height="29.1328" style="stroke:#A80036;stroke-width:1.0" width="10" x="880.5" y="318.3125"/>
    <path d="M10,139.3828 L224,139.3828 L224,146.3828 L214,156.3828 L10,156.3828 L10,139.3828 " fill="#EEEEEE" style="stroke:#000000;stroke-width:1.0"/>
    <rect fill="none" height="529.7891" style="stroke:#000000;stroke-width:2.0" width="920.5" x="10" y="139.3828"/>
    <text fill="#000000" font-family="sans-serif" font-size="13" font-weight="bold" lengthAdjust="spacingAndGlyphs" textLength="169" x="25" y="152.4497">Delete Endpoint Cache</text>
    <polygon fill="#A80036" points="507,173.6484,517,177.6484,507,181.6484,511,177.6484" style="stroke:#A80036;stroke-width:1.0"/>
    <line style="stroke:#A80036;stroke-width:1.0" x1="94" x2="513" y1="177.6484" y2="177.6484"/>
    <text fill="#000000" font-family="sans-serif" font-size="13" font-weight="bold" lengthAdjust="spacingAndGlyphs" textLength="9" x="101" y="172.5825">1</text>
    <text fill="#000000" font-family="sans-serif" font-size="13" lengthAdjust="spacingAndGlyphs" textLength="388" x="114" y="172.5825">Request to DELETE Endpoint Cache - DELETE /endpointcache</text>
    <polygon fill="#A80036" points="722,202.7813,732,206.7813,722,210.7813,726,206.7813" style="stroke:#A80036;stroke-width:1.0"/>
    <line style="stroke:#A80036;stroke-width:1.0" x1="529" x2="728" y1="206.7813" y2="206.7813"/>
    <text fill="#000000" font-family="sans-serif" font-size="13" font-weight="bold" lengthAdjust="spacingAndGlyphs" textLength="9" x="536" y="201.7153">2</text>
    <text fill="#000000" font-family="sans-serif" font-size="13" lengthAdjust="spacingAndGlyphs" textLength="86" x="549" y="201.7153">Delete Cache</text>
    <polygon fill="#A80036" points="868.5,231.9141,878.5,235.9141,868.5,239.9141,872.5,235.9141" style="stroke:#A80036;stroke-width:1.0"/>
    <line style="stroke:#A80036;stroke-width:1.0" x1="744" x2="874.5" y1="235.9141" y2="235.9141"/>
    <text fill="#000000" font-family="sans-serif" font-size="13" font-weight="bold" lengthAdjust="spacingAndGlyphs" textLength="9" x="751" y="230.8481">3</text>
    <text fill="#000000" font-family="sans-serif" font-size="13" lengthAdjust="spacingAndGlyphs" textLength="74" x="764" y="230.8481">Stop Cache</text>
    <path d="M20,250.9141 L84,250.9141 L84,257.9141 L74,267.9141 L20,267.9141 L20,250.9141 " fill="#EEEEEE" style="stroke:#000000;stroke-width:1.0"/>
    <rect fill="none" height="162.7969" style="stroke:#000000;stroke-width:2.0" width="900.5" x="20" y="250.9141"/>
    <text fill="#000000" font-family="sans-serif" font-size="13" font-weight="bold" lengthAdjust="spacingAndGlyphs" textLength="19" x="35" y="263.981">alt</text>
    <text fill="#000000" font-family="sans-serif" font-size="11" font-weight="bold" lengthAdjust="spacingAndGlyphs" textLength="193" x="99" y="263.1245">[Stop Cache Status (success)]</text>
    <polygon fill="#A80036" points="755,285.1797,745,289.1797,755,293.1797,751,289.1797" style="stroke:#A80036;stroke-width:1.0"/>
    <line style="stroke:#A80036;stroke-width:1.0;stroke-dasharray:2.0,2.0" x1="749" x2="884.5" y1="289.1797" y2="289.1797"/>
    <text fill="#000000" font-family="sans-serif" font-size="13" font-weight="bold" lengthAdjust="spacingAndGlyphs" textLength="9" x="761" y="284.1138">4</text>
    <text fill="#000000" font-family="sans-serif" font-size="13" lengthAdjust="spacingAndGlyphs" textLength="86" x="774" y="284.1138">Return status</text>
    <polygon fill="#A80036" points="868.5,314.3125,878.5,318.3125,868.5,322.3125,872.5,318.3125" style="stroke:#A80036;stroke-width:1.0"/>
    <line style="stroke:#A80036;stroke-width:1.0" x1="744" x2="874.5" y1="318.3125" y2="318.3125"/>
    <text fill="#000000" font-family="sans-serif" font-size="13" font-weight="bold" lengthAdjust="spacingAndGlyphs" textLength="9" x="751" y="313.2466">5</text>
    <text fill="#000000" font-family="sans-serif" font-size="13" lengthAdjust="spacingAndGlyphs" textLength="95" x="764" y="313.2466">Initialize Cache</text>
    <polygon fill="#A80036" points="755,343.4453,745,347.4453,755,351.4453,751,347.4453" style="stroke:#A80036;stroke-width:1.0"/>
    <line style="stroke:#A80036;stroke-width:1.0" x1="749" x2="884.5" y1="347.4453" y2="347.4453"/>
    <text fill="#000000" font-family="sans-serif" font-size="13" font-weight="bold" lengthAdjust="spacingAndGlyphs" textLength="9" x="761" y="342.3794">6</text>
    <text fill="#000000" font-family="sans-serif" font-size="13" lengthAdjust="spacingAndGlyphs" textLength="88" x="774" y="342.3794">Return Status</text>
    <polygon fill="#A80036" points="540,372.5781,530,376.5781,540,380.5781,536,376.5781" style="stroke:#A80036;stroke-width:1.0"/>
    <line style="stroke:#A80036;stroke-width:1.0" x1="534" x2="738" y1="376.5781" y2="376.5781"/>
    <text fill="#000000" font-family="sans-serif" font-size="13" font-weight="bold" lengthAdjust="spacingAndGlyphs" textLength="9" x="546" y="371.5122">7</text>
    <text fill="#000000" font-family="sans-serif" font-size="13" lengthAdjust="spacingAndGlyphs" textLength="88" x="559" y="371.5122">Return Status</text>
    <polygon fill="#A80036" points="100,401.7109,90,405.7109,100,409.7109,96,405.7109" style="stroke:#A80036;stroke-width:1.0"/>
    <line style="stroke:#A80036;stroke-width:1.0;stroke-dasharray:2.0,2.0" x1="94" x2="513" y1="405.7109" y2="405.7109"/>
    <text fill="#000000" font-family="sans-serif" font-size="13" font-weight="bold" lengthAdjust="spacingAndGlyphs" textLength="9" x="106" y="400.645">8</text>
    <text fill="#000000" font-family="sans-serif" font-size="13" lengthAdjust="spacingAndGlyphs" textLength="42" x="119" y="400.645">Return</text>
    <text fill="#000000" font-family="sans-serif" font-size="13" font-weight="bold" lengthAdjust="spacingAndGlyphs" textLength="94" x="165" y="400.645">HTTP Status:</text>
    <text fill="#000000" font-family="sans-serif" font-size="13" lengthAdjust="spacingAndGlyphs" textLength="24" x="263" y="400.645">202</text>
    <path d="M20,427.7109 L84,427.7109 L84,434.7109 L74,444.7109 L20,444.7109 L20,427.7109 " fill="#EEEEEE" style="stroke:#000000;stroke-width:1.0"/>
    <rect fill="none" height="234.4609" style="stroke:#000000;stroke-width:2.0" width="900.5" x="20" y="427.7109"/>
    <text fill="#000000" font-family="sans-serif" font-size="13" font-weight="bold" lengthAdjust="spacingAndGlyphs" textLength="19" x="35" y="440.7778">alt</text>
    <text fill="#000000" font-family="sans-serif" font-size="11" font-weight="bold" lengthAdjust="spacingAndGlyphs" textLength="214" x="99" y="439.9214">[Validate Status (service failure)]</text>
    <polygon fill="#A80036" points="750,461.9766,740,465.9766,750,469.9766,746,465.9766" style="stroke:#A80036;stroke-width:1.0"/>
    <line style="stroke:#A80036;stroke-width:1.0;stroke-dasharray:2.0,2.0" x1="744" x2="884.5" y1="465.9766" y2="465.9766"/>
    <text fill="#000000" font-family="sans-serif" font-size="13" font-weight="bold" lengthAdjust="spacingAndGlyphs" textLength="9" x="756" y="460.9106">9</text>
    <text fill="#000000" font-family="sans-serif" font-size="13" lengthAdjust="spacingAndGlyphs" textLength="72" x="769" y="460.9106">Throw Error</text>
    <polygon fill="#A80036" points="535,491.1094,525,495.1094,535,499.1094,531,495.1094" style="stroke:#A80036;stroke-width:1.0"/>
    <line style="stroke:#A80036;stroke-width:1.0" x1="529" x2="738" y1="495.1094" y2="495.1094"/>
    <text fill="#000000" font-family="sans-serif" font-size="13" font-weight="bold" lengthAdjust="spacingAndGlyphs" textLength="18" x="541" y="490.0435">10</text>
    <text fill="#000000" font-family="sans-serif" font-size="13" lengthAdjust="spacingAndGlyphs" textLength="72" x="563" y="490.0435">Throw Error</text>
    <path d="M276,508.1094 L276,623.1094 L505,623.1094 L505,518.1094 L495,508.1094 L276,508.1094 " fill="#FFFF00" filter="url(#f1wn7mwskz3e7g)" style="stroke:#A80036;stroke-width:1.0"/>
    <path d="M495,508.1094 L495,518.1094 L505,518.1094 L495,508.1094 " fill="#FFFF00" style="stroke:#A80036;stroke-width:1.0"/>
    <text fill="#000000" font-family="sans-serif" font-size="13" lengthAdjust="spacingAndGlyphs" textLength="61" x="282" y="525.1763">Message:</text>
    <text fill="#000000" font-family="sans-serif" font-size="13" lengthAdjust="spacingAndGlyphs" textLength="8" x="282" y="540.3091">{</text>
    <text fill="#000000" font-family="sans-serif" font-size="13" lengthAdjust="spacingAndGlyphs" textLength="130" x="298" y="555.4419">&quot;errorInformation&quot;: {</text>
    <text fill="#000000" font-family="sans-serif" font-size="13" lengthAdjust="spacingAndGlyphs" textLength="176" x="314" y="570.5747">&quot;errorCode&quot;: &lt;Error Code&gt;,</text>
    <text fill="#000000" font-family="sans-serif" font-size="13" lengthAdjust="spacingAndGlyphs" textLength="173" x="314" y="585.7075">&quot;errorDescription&quot;: &lt;Msg&gt;,</text>
    <text fill="#000000" font-family="sans-serif" font-size="13" lengthAdjust="spacingAndGlyphs" textLength="8" x="298" y="600.8403">}</text>
    <text fill="#000000" font-family="sans-serif" font-size="13" lengthAdjust="spacingAndGlyphs" textLength="8" x="282" y="615.9731">}</text>
    <polygon fill="#A80036" points="100,650.1719,90,654.1719,100,658.1719,96,654.1719" style="stroke:#A80036;stroke-width:1.0"/>
    <line style="stroke:#A80036;stroke-width:1.0;stroke-dasharray:2.0,2.0" x1="94" x2="518" y1="654.1719" y2="654.1719"/>
    <text fill="#000000" font-family="sans-serif" font-size="13" font-weight="bold" lengthAdjust="spacingAndGlyphs" textLength="18" x="106" y="649.106">11</text>
    <text fill="#000000" font-family="sans-serif" font-size="13" lengthAdjust="spacingAndGlyphs" textLength="42" x="128" y="649.106">Return</text>
    <text fill="#FF0000" font-family="sans-serif" font-size="13" font-weight="bold" lengthAdjust="spacingAndGlyphs" textLength="94" x="174" y="649.106">HTTP Status:</text>
    <text fill="#FF0000" font-family="sans-serif" font-size="13" lengthAdjust="spacingAndGlyphs" textLength="24" x="272" y="649.106">502</text>
  </g>
</svg>
