<svg xmlns="http://www.w3.org/2000/svg" xmlns:xlink="http://www.w3.org/1999/xlink" contentStyleType="text/css" height="762px" preserveAspectRatio="none" style="width:951px;height:762px;background:#FFFFFF;" version="1.1" viewBox="0 0 951 762" width="951px" zoomAndPan="magnify">
  <title>7.3.0 Delete Endpoint Cache</title>
  <defs/>
  <g>
    <text fill="#000000" font-family="sans-serif" font-size="14" font-weight="bold" lengthAdjust="spacing" textLength="224.2119" x="365.2534" y="27.9951">7.3.0 Delete Endpoint Cache</text>
    <rect fill="#FFFFE0" height="706.5156" style="stroke:#181818;stroke-width:0.5;" width="504.6709" x="425.0479" y="43.2969"/>
    <text fill="#000000" font-family="sans-serif" font-size="13" font-weight="bold" lengthAdjust="spacing" textLength="175.5762" x="589.5952" y="55.3638">Account Lookup Service</text>
    <rect fill="#FFFFFF" height="273.3281" style="stroke:#181818;stroke-width:1.0;" width="10" x="83.8701" y="134.7266"/>
    <rect fill="#FFFFFF" height="472.5234" style="stroke:#181818;stroke-width:1.0;" width="10" x="524.4531" y="179.9922"/>
    <rect fill="#FFFFFF" height="228.0625" style="stroke:#181818;stroke-width:1.0;" width="10" x="529.4531" y="179.9922"/>
    <rect fill="#FFFFFF" height="169.7969" style="stroke:#181818;stroke-width:1.0;" width="10" x="748.0195" y="209.125"/>
    <rect fill="#FFFFFF" height="53.2656" style="stroke:#181818;stroke-width:1.0;" width="10" x="895.9497" y="238.2578"/>
    <rect fill="#FFFFFF" height="29.1328" style="stroke:#181818;stroke-width:1.0;" width="10" x="895.9497" y="320.6563"/>
    <rect fill="none" height="525.7891" style="stroke:#000000;stroke-width:1.5;" width="935.7188" x="10" y="141.7266"/>
    <rect fill="none" height="162.7969" style="stroke:#000000;stroke-width:1.5;" width="915.7188" x="20" y="253.2578"/>
    <rect fill="none" height="230.4609" style="stroke:#000000;stroke-width:1.5;" width="915.7188" x="20" y="430.0547"/>
    <line style="stroke:#181818;stroke-width:0.5;stroke-dasharray:5.0,5.0;" x1="88" x2="88" y1="124.7266" y2="684.5156"/>
    <line style="stroke:#181818;stroke-width:0.5;stroke-dasharray:5.0,5.0;" x1="529.0479" x2="529.0479" y1="124.7266" y2="684.5156"/>
    <line style="stroke:#181818;stroke-width:0.5;stroke-dasharray:5.0,5.0;" x1="752.8584" x2="752.8584" y1="124.7266" y2="684.5156"/>
    <line style="stroke:#181818;stroke-width:0.5;stroke-dasharray:5.0,5.0;" x1="900.1807" x2="900.1807" y1="124.7266" y2="684.5156"/>
    <text fill="#000000" font-family="sans-serif" font-size="14" lengthAdjust="spacing" textLength="111.7402" x="30" y="121.4248">HUB OPERATOR</text>
    <ellipse cx="88.8701" cy="92.4297" fill="#E2E2F0" rx="12" ry="12" style="stroke:#181818;stroke-width:0.5;"/>
    <line style="stroke:#181818;stroke-width:0.5;" x1="76.8701" x2="100.8701" y1="106.4297" y2="106.4297"/>
    <text fill="#000000" font-family="sans-serif" font-size="14" lengthAdjust="spacing" textLength="111.7402" x="30" y="696.5107">HUB OPERATOR</text>
    <ellipse cx="88.8701" cy="715.8125" fill="#E2E2F0" rx="12" ry="12" style="stroke:#181818;stroke-width:0.5;"/>
    <line style="stroke:#181818;stroke-width:0.5;" x1="76.8701" x2="100.8701" y1="729.8125" y2="729.8125"/>
    <text fill="#000000" font-family="sans-serif" font-size="14" lengthAdjust="spacing" textLength="194.8105" x="429.0479" y="121.4248">Account Lookup Service API</text>
    <path d="M508.9531,80.4297 L508.9531,104.4297 M508.9531,92.4297 L525.9531,92.4297 " fill="none" style="stroke:#181818;stroke-width:0.5;"/>
    <ellipse cx="537.9531" cy="92.4297" fill="#E2E2F0" rx="12" ry="12" style="stroke:#181818;stroke-width:0.5;"/>
    <text fill="#000000" font-family="sans-serif" font-size="14" lengthAdjust="spacing" textLength="194.8105" x="429.0479" y="696.5107">Account Lookup Service API</text>
    <path d="M508.9531,703.8125 L508.9531,727.8125 M508.9531,715.8125 L525.9531,715.8125 " fill="none" style="stroke:#181818;stroke-width:0.5;"/>
    <ellipse cx="537.9531" cy="715.8125" fill="#E2E2F0" rx="12" ry="12" style="stroke:#181818;stroke-width:0.5;"/>
    <text fill="#000000" font-family="sans-serif" font-size="14" lengthAdjust="spacing" textLength="220.3223" x="639.8584" y="121.4248">Delete Endpoint Cache Handler</text>
    <ellipse cx="753.0195" cy="92.4297" fill="#E2E2F0" rx="12" ry="12" style="stroke:#181818;stroke-width:0.5;"/>
    <polygon fill="#181818" points="749.0195,80.4297,755.0195,75.4297,753.0195,80.4297,755.0195,85.4297,749.0195,80.4297" style="stroke:#181818;stroke-width:1.0;"/>
    <text fill="#000000" font-family="sans-serif" font-size="14" lengthAdjust="spacing" textLength="220.3223" x="639.8584" y="696.5107">Delete Endpoint Cache Handler</text>
    <ellipse cx="753.0195" cy="715.8125" fill="#E2E2F0" rx="12" ry="12" style="stroke:#181818;stroke-width:0.5;"/>
    <polygon fill="#181818" points="749.0195,703.8125,755.0195,698.8125,753.0195,703.8125,755.0195,708.8125,749.0195,703.8125" style="stroke:#181818;stroke-width:1.0;"/>
    <text fill="#000000" font-family="sans-serif" font-size="14" lengthAdjust="spacing" textLength="43.5381" x="876.1807" y="121.4248">Cache</text>
    <path d="M882.9497,72.4297 C882.9497,62.4297 900.9497,62.4297 900.9497,62.4297 C900.9497,62.4297 918.9497,62.4297 918.9497,72.4297 L918.9497,98.4297 C918.9497,108.4297 900.9497,108.4297 900.9497,108.4297 C900.9497,108.4297 882.9497,108.4297 882.9497,98.4297 L882.9497,72.4297 " fill="#E2E2F0" style="stroke:#181818;stroke-width:1.5;"/>
    <path d="M882.9497,72.4297 C882.9497,82.4297 900.9497,82.4297 900.9497,82.4297 C900.9497,82.4297 918.9497,82.4297 918.9497,72.4297 " fill="none" style="stroke:#181818;stroke-width:1.5;"/>
    <text fill="#000000" font-family="sans-serif" font-size="14" lengthAdjust="spacing" textLength="43.5381" x="876.1807" y="696.5107">Cache</text>
    <path d="M882.9497,709.8125 C882.9497,699.8125 900.9497,699.8125 900.9497,699.8125 C900.9497,699.8125 918.9497,699.8125 918.9497,709.8125 L918.9497,735.8125 C918.9497,745.8125 900.9497,745.8125 900.9497,745.8125 C900.9497,745.8125 882.9497,745.8125 882.9497,735.8125 L882.9497,709.8125 " fill="#E2E2F0" style="stroke:#181818;stroke-width:1.5;"/>
    <path d="M882.9497,709.8125 C882.9497,719.8125 900.9497,719.8125 900.9497,719.8125 C900.9497,719.8125 918.9497,719.8125 918.9497,709.8125 " fill="none" style="stroke:#181818;stroke-width:1.5;"/>
    <rect fill="#FFFFFF" height="273.3281" style="stroke:#181818;stroke-width:1.0;" width="10" x="83.8701" y="134.7266"/>
    <rect fill="#FFFFFF" height="472.5234" style="stroke:#181818;stroke-width:1.0;" width="10" x="524.4531" y="179.9922"/>
    <rect fill="#FFFFFF" height="228.0625" style="stroke:#181818;stroke-width:1.0;" width="10" x="529.4531" y="179.9922"/>
    <rect fill="#FFFFFF" height="169.7969" style="stroke:#181818;stroke-width:1.0;" width="10" x="748.0195" y="209.125"/>
    <rect fill="#FFFFFF" height="53.2656" style="stroke:#181818;stroke-width:1.0;" width="10" x="895.9497" y="238.2578"/>
    <rect fill="#FFFFFF" height="29.1328" style="stroke:#181818;stroke-width:1.0;" width="10" x="895.9497" y="320.6563"/>
    <path d="M10,141.7266 L221.6577,141.7266 L221.6577,148.8594 L211.6577,158.8594 L10,158.8594 L10,141.7266 " fill="#EEEEEE" style="stroke:#000000;stroke-width:1.5;"/>
    <rect fill="none" height="525.7891" style="stroke:#000000;stroke-width:1.5;" width="935.7188" x="10" y="141.7266"/>
    <text fill="#000000" font-family="sans-serif" font-size="13" font-weight="bold" lengthAdjust="spacing" textLength="166.6577" x="25" y="154.7935">Delete Endpoint Cache</text>
    <polygon fill="#181818" points="517.4531,175.9922,527.4531,179.9922,517.4531,183.9922,521.4531,179.9922" style="stroke:#181818;stroke-width:1.0;"/>
    <line style="stroke:#181818;stroke-width:1.0;" x1="93.8701" x2="523.4531" y1="179.9922" y2="179.9922"/>
    <text fill="#000000" font-family="sans-serif" font-size="13" font-weight="bold" lengthAdjust="spacing" textLength="9.0454" x="100.8701" y="174.9263">1</text>
    <text fill="#000000" font-family="sans-serif" font-size="13" lengthAdjust="spacing" textLength="398.5376" x="113.9155" y="174.9263">Request to DELETE Endpoint Cache - DELETE /endpointcache</text>
    <polygon fill="#181818" points="736.0195,205.125,746.0195,209.125,736.0195,213.125,740.0195,209.125" style="stroke:#181818;stroke-width:1.0;"/>
    <line style="stroke:#181818;stroke-width:1.0;" x1="539.4531" x2="742.0195" y1="209.125" y2="209.125"/>
    <text fill="#000000" font-family="sans-serif" font-size="13" font-weight="bold" lengthAdjust="spacing" textLength="9.0454" x="546.4531" y="204.0591">2</text>
    <text fill="#000000" font-family="sans-serif" font-size="13" lengthAdjust="spacing" textLength="87.2739" x="559.4985" y="204.0591">Delete Cache</text>
    <polygon fill="#181818" points="883.9497,234.2578,893.9497,238.2578,883.9497,242.2578,887.9497,238.2578" style="stroke:#181818;stroke-width:1.0;"/>
    <line style="stroke:#181818;stroke-width:1.0;" x1="758.0195" x2="889.9497" y1="238.2578" y2="238.2578"/>
    <text fill="#000000" font-family="sans-serif" font-size="13" font-weight="bold" lengthAdjust="spacing" textLength="9.0454" x="765.0195" y="233.1919">3</text>
    <text fill="#000000" font-family="sans-serif" font-size="13" lengthAdjust="spacing" textLength="74.1152" x="778.0649" y="233.1919">Stop Cache</text>
    <path d="M20,253.2578 L84.4429,253.2578 L84.4429,260.3906 L74.4429,270.3906 L20,270.3906 L20,253.2578 " fill="#EEEEEE" style="stroke:#000000;stroke-width:1.5;"/>
    <rect fill="none" height="162.7969" style="stroke:#000000;stroke-width:1.5;" width="915.7188" x="20" y="253.2578"/>
    <text fill="#000000" font-family="sans-serif" font-size="13" font-weight="bold" lengthAdjust="spacing" textLength="19.4429" x="35" y="266.3247">alt</text>
    <text fill="#000000" font-family="sans-serif" font-size="11" font-weight="bold" lengthAdjust="spacing" textLength="185.7324" x="99.4429" y="265.4683">[Stop Cache Status (success)]</text>
    <polygon fill="#181818" points="769.0195,287.5234,759.0195,291.5234,769.0195,295.5234,765.0195,291.5234" style="stroke:#181818;stroke-width:1.0;"/>
    <line style="stroke:#181818;stroke-width:1.0;stroke-dasharray:2.0,2.0;" x1="763.0195" x2="899.9497" y1="291.5234" y2="291.5234"/>
    <text fill="#000000" font-family="sans-serif" font-size="13" font-weight="bold" lengthAdjust="spacing" textLength="9.0454" x="775.0195" y="286.4575">4</text>
    <text fill="#000000" font-family="sans-serif" font-size="13" lengthAdjust="spacing" textLength="88.0293" x="788.0649" y="286.4575">Return status</text>
    <polygon fill="#181818" points="883.9497,316.6563,893.9497,320.6563,883.9497,324.6563,887.9497,320.6563" style="stroke:#181818;stroke-width:1.0;"/>
    <line style="stroke:#181818;stroke-width:1.0;" x1="758.0195" x2="889.9497" y1="320.6563" y2="320.6563"/>
    <text fill="#000000" font-family="sans-serif" font-size="13" font-weight="bold" lengthAdjust="spacing" textLength="9.0454" x="765.0195" y="315.5903">5</text>
    <text fill="#000000" font-family="sans-serif" font-size="13" lengthAdjust="spacing" textLength="98.9663" x="778.0649" y="315.5903">Initialize Cache</text>
    <polygon fill="#181818" points="769.0195,345.7891,759.0195,349.7891,769.0195,353.7891,765.0195,349.7891" style="stroke:#181818;stroke-width:1.0;"/>
    <line style="stroke:#181818;stroke-width:1.0;" x1="763.0195" x2="899.9497" y1="349.7891" y2="349.7891"/>
    <text fill="#000000" font-family="sans-serif" font-size="13" font-weight="bold" lengthAdjust="spacing" textLength="9.0454" x="775.0195" y="344.7231">6</text>
    <text fill="#000000" font-family="sans-serif" font-size="13" lengthAdjust="spacing" textLength="89.5083" x="788.0649" y="344.7231">Return Status</text>
    <polygon fill="#181818" points="550.4531,374.9219,540.4531,378.9219,550.4531,382.9219,546.4531,378.9219" style="stroke:#181818;stroke-width:1.0;"/>
    <line style="stroke:#181818;stroke-width:1.0;" x1="544.4531" x2="752.0195" y1="378.9219" y2="378.9219"/>
    <text fill="#000000" font-family="sans-serif" font-size="13" font-weight="bold" lengthAdjust="spacing" textLength="9.0454" x="556.4531" y="373.856">7</text>
    <text fill="#000000" font-family="sans-serif" font-size="13" lengthAdjust="spacing" textLength="89.5083" x="569.4985" y="373.856">Return Status</text>
    <polygon fill="#181818" points="99.8701,404.0547,89.8701,408.0547,99.8701,412.0547,95.8701,408.0547" style="stroke:#181818;stroke-width:1.0;"/>
    <line style="stroke:#181818;stroke-width:1.0;stroke-dasharray:2.0,2.0;" x1="93.8701" x2="523.4531" y1="408.0547" y2="408.0547"/>
    <text fill="#000000" font-family="sans-serif" font-size="13" font-weight="bold" lengthAdjust="spacing" textLength="9.0454" x="105.8701" y="402.9888">8</text>
    <text fill="#000000" font-family="sans-serif" font-size="13" lengthAdjust="spacing" textLength="43.9512" x="118.9155" y="402.9888">Return</text>
    <text fill="#000000" font-family="sans-serif" font-size="13" font-weight="bold" lengthAdjust="spacing" textLength="95.4243" x="166.999" y="402.9888">HTTP Status:</text>
    <text fill="#000000" font-family="sans-serif" font-size="13" lengthAdjust="spacing" textLength="24.813" x="266.5557" y="402.9888">202</text>
    <path d="M20,430.0547 L84.4429,430.0547 L84.4429,437.1875 L74.4429,447.1875 L20,447.1875 L20,430.0547 " fill="#EEEEEE" style="stroke:#000000;stroke-width:1.5;"/>
    <rect fill="none" height="230.4609" style="stroke:#000000;stroke-width:1.5;" width="915.7188" x="20" y="430.0547"/>
    <text fill="#000000" font-family="sans-serif" font-size="13" font-weight="bold" lengthAdjust="spacing" textLength="19.4429" x="35" y="443.1216">alt</text>
    <text fill="#000000" font-family="sans-serif" font-size="11" font-weight="bold" lengthAdjust="spacing" textLength="208.1514" x="99.4429" y="442.2651">[Validate Status (service failure)]</text>
    <polygon fill="#181818" points="764.0195,464.3203,754.0195,468.3203,764.0195,472.3203,760.0195,468.3203" style="stroke:#181818;stroke-width:1.0;"/>
    <line style="stroke:#181818;stroke-width:1.0;stroke-dasharray:2.0,2.0;" x1="758.0195" x2="899.9497" y1="468.3203" y2="468.3203"/>
    <text fill="#000000" font-family="sans-serif" font-size="13" font-weight="bold" lengthAdjust="spacing" textLength="9.0454" x="770.0195" y="463.2544">9</text>
    <text fill="#000000" font-family="sans-serif" font-size="13" lengthAdjust="spacing" textLength="76.4448" x="783.0649" y="463.2544">Throw Error</text>
    <polygon fill="#181818" points="545.4531,493.4531,535.4531,497.4531,545.4531,501.4531,541.4531,497.4531" style="stroke:#181818;stroke-width:1.0;"/>
    <line style="stroke:#181818;stroke-width:1.0;" x1="539.4531" x2="752.0195" y1="497.4531" y2="497.4531"/>
    <text fill="#000000" font-family="sans-serif" font-size="13" font-weight="bold" lengthAdjust="spacing" textLength="18.0908" x="551.4531" y="492.3872">10</text>
    <text fill="#000000" font-family="sans-serif" font-size="13" lengthAdjust="spacing" textLength="76.4448" x="573.5439" y="492.3872">Throw Error</text>
    <path d="M284,510.4531 L284,625.4531 L519,625.4531 L519,520.4531 L509,510.4531 L284,510.4531 " fill="#FFFF00" style="stroke:#181818;stroke-width:0.5;"/>
    <path d="M509,510.4531 L509,520.4531 L519,520.4531 L509,510.4531 " fill="#FFFF00" style="stroke:#181818;stroke-width:0.5;"/>
    <text fill="#000000" font-family="sans-serif" font-size="13" lengthAdjust="spacing" textLength="61.3564" x="290" y="527.52">Message:</text>
    <text fill="#000000" font-family="sans-serif" font-size="13" lengthAdjust="spacing" textLength="8.271" x="290" y="542.6528">{</text>
    <text fill="#000000" font-family="sans-serif" font-size="13" lengthAdjust="spacing" textLength="136.208" x="306.5293" y="557.7856">&quot;errorInformation&quot;: {</text>
    <text fill="#000000" font-family="sans-serif" font-size="13" lengthAdjust="spacing" textLength="181.27" x="323.0586" y="572.9185">&quot;errorCode&quot;: &lt;Error Code&gt;,</text>
    <text fill="#000000" font-family="sans-serif" font-size="13" lengthAdjust="spacing" textLength="178.6548" x="323.0586" y="588.0513">&quot;errorDescription&quot;: &lt;Msg&gt;,</text>
    <text fill="#000000" font-family="sans-serif" font-size="13" lengthAdjust="spacing" textLength="8.271" x="306.5293" y="603.1841">}</text>
    <text fill="#000000" font-family="sans-serif" font-size="13" lengthAdjust="spacing" textLength="8.271" x="290" y="618.3169">}</text>
    <polygon fill="#181818" points="99.8701,648.5156,89.8701,652.5156,99.8701,656.5156,95.8701,652.5156" style="stroke:#181818;stroke-width:1.0;"/>
    <line style="stroke:#181818;stroke-width:1.0;stroke-dasharray:2.0,2.0;" x1="93.8701" x2="528.4531" y1="652.5156" y2="652.5156"/>
    <text fill="#000000" font-family="sans-serif" font-size="13" font-weight="bold" lengthAdjust="spacing" textLength="18.0908" x="105.8701" y="647.4497">11</text>
    <text fill="#000000" font-family="sans-serif" font-size="13" lengthAdjust="spacing" textLength="43.9512" x="127.9609" y="647.4497">Return</text>
    <text fill="#FF0000" font-family="sans-serif" font-size="13" font-weight="bold" lengthAdjust="spacing" textLength="95.4243" x="176.0444" y="647.4497">HTTP Status:</text>
    <text fill="#FF0000" font-family="sans-serif" font-size="13" lengthAdjust="spacing" textLength="24.813" x="275.6011" y="647.4497">502</text>
  </g>
</svg>
