<svg xmlns="http://www.w3.org/2000/svg" xmlns:xlink="http://www.w3.org/1999/xlink" contentStyleType="text/css" height="966px" preserveAspectRatio="none" style="width:894px;height:966px;background:#FFFFFF;" version="1.1" viewBox="0 0 894 966" width="894px" zoomAndPan="magnify">
  <title>7.3.1 Get All Oracle Endpoints</title>
  <defs/>
  <g>
    <text fill="#000000" font-family="sans-serif" font-size="14" font-weight="bold" lengthAdjust="spacing" textLength="237.2959" x="330.21" y="27.9951">7.3.1 Get All Oracle Endpoints</text>
    <rect fill="#FFFFE0" height="910.375" style="stroke:#181818;stroke-width:0.5;" width="585.2437" x="287.4722" y="43.2969"/>
    <text fill="#000000" font-family="sans-serif" font-size="13" font-weight="bold" lengthAdjust="spacing" textLength="175.5762" x="492.3059" y="55.3638">Account Lookup Service</text>
    <rect fill="#FFFFFF" height="477.1875" style="stroke:#181818;stroke-width:1.0;" width="10" x="83.8701" y="134.7266"/>
    <rect fill="#FFFFFF" height="416.7891" style="stroke:#181818;stroke-width:1.0;" width="10" x="411.5347" y="195.125"/>
    <rect fill="#FFFFFF" height="111.5313" style="stroke:#181818;stroke-width:1.0;" width="10" x="620.5098" y="224.2578"/>
    <rect fill="#FFFFFF" height="53.2656" style="stroke:#181818;stroke-width:1.0;" width="10" x="826.7036" y="253.3906"/>
    <rect fill="none" height="729.6484" style="stroke:#000000;stroke-width:1.5;" width="878.7158" x="10" y="141.7266"/>
    <rect fill="none" height="351.5234" style="stroke:#000000;stroke-width:1.5;" width="858.7158" x="20" y="268.3906"/>
    <rect fill="none" height="230.4609" style="stroke:#000000;stroke-width:1.5;" width="858.7158" x="20" y="633.9141"/>
    <line style="stroke:#181818;stroke-width:0.5;stroke-dasharray:5.0,5.0;" x1="88" x2="88" y1="124.7266" y2="888.375"/>
    <line style="stroke:#181818;stroke-width:0.5;stroke-dasharray:5.0,5.0;" x1="416.4722" x2="416.4722" y1="124.7266" y2="888.375"/>
    <line style="stroke:#181818;stroke-width:0.5;stroke-dasharray:5.0,5.0;" x1="624.5972" x2="624.5972" y1="124.7266" y2="888.375"/>
    <line style="stroke:#181818;stroke-width:0.5;stroke-dasharray:5.0,5.0;" x1="831.6914" x2="831.6914" y1="124.7266" y2="888.375"/>
    <text fill="#000000" font-family="sans-serif" font-size="14" lengthAdjust="spacing" textLength="111.7402" x="30" y="121.4248">HUB OPERATOR</text>
    <ellipse cx="88.8701" cy="92.4297" fill="#E2E2F0" rx="12" ry="12" style="stroke:#181818;stroke-width:0.5;"/>
    <line style="stroke:#181818;stroke-width:0.5;" x1="76.8701" x2="100.8701" y1="106.4297" y2="106.4297"/>
    <text fill="#000000" font-family="sans-serif" font-size="14" lengthAdjust="spacing" textLength="111.7402" x="30" y="900.3701">HUB OPERATOR</text>
    <ellipse cx="88.8701" cy="919.6719" fill="#E2E2F0" rx="12" ry="12" style="stroke:#181818;stroke-width:0.5;"/>
    <line style="stroke:#181818;stroke-width:0.5;" x1="76.8701" x2="100.8701" y1="933.6719" y2="933.6719"/>
    <text fill="#000000" font-family="sans-serif" font-size="14" lengthAdjust="spacing" textLength="244.125" x="291.4722" y="121.4248">Account Lookup Service Admin API</text>
    <path d="M396.0347,80.4297 L396.0347,104.4297 M396.0347,92.4297 L413.0347,92.4297 " fill="none" style="stroke:#181818;stroke-width:0.5;"/>
    <ellipse cx="425.0347" cy="92.4297" fill="#E2E2F0" rx="12" ry="12" style="stroke:#181818;stroke-width:0.5;"/>
    <text fill="#000000" font-family="sans-serif" font-size="14" lengthAdjust="spacing" textLength="244.125" x="291.4722" y="900.3701">Account Lookup Service Admin API</text>
    <path d="M396.0347,907.6719 L396.0347,931.6719 M396.0347,919.6719 L413.0347,919.6719 " fill="none" style="stroke:#181818;stroke-width:0.5;"/>
    <ellipse cx="425.0347" cy="919.6719" fill="#E2E2F0" rx="12" ry="12" style="stroke:#181818;stroke-width:0.5;"/>
    <text fill="#000000" font-family="sans-serif" font-size="14" lengthAdjust="spacing" textLength="141.8252" x="551.5972" y="121.4248">Get Oracles Handler</text>
    <ellipse cx="625.5098" cy="92.4297" fill="#E2E2F0" rx="12" ry="12" style="stroke:#181818;stroke-width:0.5;"/>
    <polygon fill="#181818" points="621.5098,80.4297,627.5098,75.4297,625.5098,80.4297,627.5098,85.4297,621.5098,80.4297" style="stroke:#181818;stroke-width:1.0;"/>
    <text fill="#000000" font-family="sans-serif" font-size="14" lengthAdjust="spacing" textLength="141.8252" x="551.5972" y="900.3701">Get Oracles Handler</text>
    <ellipse cx="625.5098" cy="919.6719" fill="#E2E2F0" rx="12" ry="12" style="stroke:#181818;stroke-width:0.5;"/>
    <polygon fill="#181818" points="621.5098,907.6719,627.5098,902.6719,625.5098,907.6719,627.5098,912.6719,621.5098,907.6719" style="stroke:#181818;stroke-width:1.0;"/>
    <text fill="#000000" font-family="sans-serif" font-size="14" lengthAdjust="spacing" textLength="68.0244" x="794.6914" y="121.4248">ALS Store</text>
    <path d="M813.7036,72.4297 C813.7036,62.4297 831.7036,62.4297 831.7036,62.4297 C831.7036,62.4297 849.7036,62.4297 849.7036,72.4297 L849.7036,98.4297 C849.7036,108.4297 831.7036,108.4297 831.7036,108.4297 C831.7036,108.4297 813.7036,108.4297 813.7036,98.4297 L813.7036,72.4297 " fill="#E2E2F0" style="stroke:#181818;stroke-width:1.5;"/>
    <path d="M813.7036,72.4297 C813.7036,82.4297 831.7036,82.4297 831.7036,82.4297 C831.7036,82.4297 849.7036,82.4297 849.7036,72.4297 " fill="none" style="stroke:#181818;stroke-width:1.5;"/>
    <text fill="#000000" font-family="sans-serif" font-size="14" lengthAdjust="spacing" textLength="68.0244" x="794.6914" y="900.3701">ALS Store</text>
    <path d="M813.7036,913.6719 C813.7036,903.6719 831.7036,903.6719 831.7036,903.6719 C831.7036,903.6719 849.7036,903.6719 849.7036,913.6719 L849.7036,939.6719 C849.7036,949.6719 831.7036,949.6719 831.7036,949.6719 C831.7036,949.6719 813.7036,949.6719 813.7036,939.6719 L813.7036,913.6719 " fill="#E2E2F0" style="stroke:#181818;stroke-width:1.5;"/>
    <path d="M813.7036,913.6719 C813.7036,923.6719 831.7036,923.6719 831.7036,923.6719 C831.7036,923.6719 849.7036,923.6719 849.7036,913.6719 " fill="none" style="stroke:#181818;stroke-width:1.5;"/>
    <rect fill="#FFFFFF" height="477.1875" style="stroke:#181818;stroke-width:1.0;" width="10" x="83.8701" y="134.7266"/>
    <rect fill="#FFFFFF" height="416.7891" style="stroke:#181818;stroke-width:1.0;" width="10" x="411.5347" y="195.125"/>
    <rect fill="#FFFFFF" height="111.5313" style="stroke:#181818;stroke-width:1.0;" width="10" x="620.5098" y="224.2578"/>
    <rect fill="#FFFFFF" height="53.2656" style="stroke:#181818;stroke-width:1.0;" width="10" x="826.7036" y="253.3906"/>
    <path d="M10,141.7266 L210.3081,141.7266 L210.3081,148.8594 L200.3081,158.8594 L10,158.8594 L10,141.7266 " fill="#EEEEEE" style="stroke:#000000;stroke-width:1.5;"/>
    <rect fill="none" height="729.6484" style="stroke:#000000;stroke-width:1.5;" width="878.7158" x="10" y="141.7266"/>
    <text fill="#000000" font-family="sans-serif" font-size="13" font-weight="bold" lengthAdjust="spacing" textLength="155.3081" x="25" y="154.7935">Get Oracle Endpoints</text>
    <polygon fill="#181818" points="399.5347,191.125,409.5347,195.125,399.5347,199.125,403.5347,195.125" style="stroke:#181818;stroke-width:1.0;"/>
    <line style="stroke:#181818;stroke-width:1.0;" x1="93.8701" x2="405.5347" y1="195.125" y2="195.125"/>
    <text fill="#000000" font-family="sans-serif" font-size="13" font-weight="bold" lengthAdjust="spacing" textLength="9.0454" x="100.8701" y="182.4927">1</text>
    <text fill="#000000" font-family="sans-serif" font-size="13" lengthAdjust="spacing" textLength="244.2769" x="113.9155" y="174.9263">Request to GET all Oracle Endpoints -</text>
    <text fill="#000000" font-family="sans-serif" font-size="13" lengthAdjust="spacing" textLength="285.6191" x="113.9155" y="190.0591">GET /oracles?currency=USD&amp;type=MSISDN</text>
    <polygon fill="#181818" points="608.5098,220.2578,618.5098,224.2578,608.5098,228.2578,612.5098,224.2578" style="stroke:#181818;stroke-width:1.0;"/>
    <line style="stroke:#181818;stroke-width:1.0;" x1="421.5347" x2="614.5098" y1="224.2578" y2="224.2578"/>
    <text fill="#000000" font-family="sans-serif" font-size="13" font-weight="bold" lengthAdjust="spacing" textLength="9.0454" x="428.5347" y="219.1919">2</text>
    <text fill="#000000" font-family="sans-serif" font-size="13" lengthAdjust="spacing" textLength="138.3662" x="441.5801" y="219.1919">Get Oracle Endpoints</text>
    <polygon fill="#181818" points="814.7036,249.3906,824.7036,253.3906,814.7036,257.3906,818.7036,253.3906" style="stroke:#181818;stroke-width:1.0;"/>
    <line style="stroke:#181818;stroke-width:1.0;" x1="630.5098" x2="820.7036" y1="253.3906" y2="253.3906"/>
    <text fill="#000000" font-family="sans-serif" font-size="13" font-weight="bold" lengthAdjust="spacing" textLength="9.0454" x="637.5098" y="248.3247">3</text>
    <text fill="#000000" font-family="sans-serif" font-size="13" lengthAdjust="spacing" textLength="135.8716" x="650.5552" y="248.3247">Get oracle endpoints</text>
    <path d="M20,268.3906 L84.4429,268.3906 L84.4429,275.5234 L74.4429,285.5234 L20,285.5234 L20,268.3906 " fill="#EEEEEE" style="stroke:#000000;stroke-width:1.5;"/>
    <rect fill="none" height="351.5234" style="stroke:#000000;stroke-width:1.5;" width="858.7158" x="20" y="268.3906"/>
    <text fill="#000000" font-family="sans-serif" font-size="13" font-weight="bold" lengthAdjust="spacing" textLength="19.4429" x="35" y="281.4575">alt</text>
    <text fill="#000000" font-family="sans-serif" font-size="11" font-weight="bold" lengthAdjust="spacing" textLength="203.3281" x="99.4429" y="280.6011">[Get Oracle Endpoints (success)]</text>
    <polygon fill="#181818" points="641.5098,302.6563,631.5098,306.6563,641.5098,310.6563,637.5098,306.6563" style="stroke:#181818;stroke-width:1.0;"/>
    <line style="stroke:#181818;stroke-width:1.0;stroke-dasharray:2.0,2.0;" x1="635.5098" x2="830.7036" y1="306.6563" y2="306.6563"/>
    <text fill="#000000" font-family="sans-serif" font-size="13" font-weight="bold" lengthAdjust="spacing" textLength="9.0454" x="647.5098" y="301.5903">4</text>
    <text fill="#000000" font-family="sans-serif" font-size="13" lengthAdjust="spacing" textLength="159.1484" x="660.5552" y="301.5903">Return Oracle Endpoints</text>
    <polygon fill="#181818" points="432.5347,331.7891,422.5347,335.7891,432.5347,339.7891,428.5347,335.7891" style="stroke:#181818;stroke-width:1.0;"/>
    <line style="stroke:#181818;stroke-width:1.0;" x1="426.5347" x2="624.5098" y1="335.7891" y2="335.7891"/>
    <text fill="#000000" font-family="sans-serif" font-size="13" font-weight="bold" lengthAdjust="spacing" textLength="9.0454" x="438.5347" y="330.7231">5</text>
    <text fill="#000000" font-family="sans-serif" font-size="13" lengthAdjust="spacing" textLength="159.1484" x="451.5801" y="330.7231">Return Oracle Endpoints</text>
    <path d="M97,348.7891 L97,584.7891 L405,584.7891 L405,358.7891 L395,348.7891 L97,348.7891 " fill="#FFFF00" style="stroke:#181818;stroke-width:0.5;"/>
    <path d="M395,348.7891 L395,358.7891 L405,358.7891 L395,348.7891 " fill="#FFFF00" style="stroke:#181818;stroke-width:0.5;"/>
    <text fill="#000000" font-family="sans-serif" font-size="13" lengthAdjust="spacing" textLength="61.3564" x="103" y="365.856">Message:</text>
    <text fill="#000000" font-family="sans-serif" font-size="13" lengthAdjust="spacing" textLength="8.271" x="103" y="380.9888">{</text>
    <text fill="#000000" font-family="sans-serif" font-size="13" lengthAdjust="spacing" textLength="5.0718" x="119.5293" y="396.1216">[</text>
    <text fill="#000000" font-family="sans-serif" font-size="13" lengthAdjust="spacing" textLength="8.271" x="136.0586" y="411.2544">{</text>
    <text fill="#000000" font-family="sans-serif" font-size="13" lengthAdjust="spacing" textLength="135.8145" x="152.5879" y="426.3872">&quot;oracleId&quot;: &lt;string&gt;,</text>
    <text fill="#000000" font-family="sans-serif" font-size="13" lengthAdjust="spacing" textLength="208.292" x="152.5879" y="441.52">&quot;oracleIdType&quot;: &lt;PartyIdType&gt;,</text>
    <text fill="#000000" font-family="sans-serif" font-size="13" lengthAdjust="spacing" textLength="86.3853" x="152.5879" y="456.6528">&quot;endpoint&quot;: {</text>
    <text fill="#000000" font-family="sans-serif" font-size="13" lengthAdjust="spacing" textLength="119.2153" x="169.1172" y="471.7856">&quot;value&quot;: &lt;string&gt;,</text>
    <text fill="#000000" font-family="sans-serif" font-size="13" lengthAdjust="spacing" textLength="221.5269" x="169.1172" y="486.9185">&quot;endpointType&quot;: &lt;EndpointType&gt;</text>
    <text fill="#000000" font-family="sans-serif" font-size="13" lengthAdjust="spacing" textLength="12.4033" x="152.5879" y="502.0513">},</text>
    <text fill="#000000" font-family="sans-serif" font-size="13" lengthAdjust="spacing" textLength="162.627" x="152.5879" y="517.1841">&quot;currency&quot;: &lt;Currency&gt;,</text>
    <text fill="#000000" font-family="sans-serif" font-size="13" lengthAdjust="spacing" textLength="152.1152" x="152.5879" y="532.3169">&quot;isDefault&quot;: &lt;boolean&gt;</text>
    <text fill="#000000" font-family="sans-serif" font-size="13" lengthAdjust="spacing" textLength="8.271" x="136.0586" y="547.4497">}</text>
    <text fill="#000000" font-family="sans-serif" font-size="13" lengthAdjust="spacing" textLength="5.0718" x="119.5293" y="562.5825">]</text>
    <text fill="#000000" font-family="sans-serif" font-size="13" lengthAdjust="spacing" textLength="8.271" x="103" y="577.7153">}</text>
    <polygon fill="#181818" points="99.8701,607.9141,89.8701,611.9141,99.8701,615.9141,95.8701,611.9141" style="stroke:#181818;stroke-width:1.0;"/>
    <line style="stroke:#181818;stroke-width:1.0;stroke-dasharray:2.0,2.0;" x1="93.8701" x2="415.5347" y1="611.9141" y2="611.9141"/>
    <text fill="#000000" font-family="sans-serif" font-size="13" font-weight="bold" lengthAdjust="spacing" textLength="9.0454" x="105.8701" y="606.8481">6</text>
    <text fill="#000000" font-family="sans-serif" font-size="13" lengthAdjust="spacing" textLength="43.9512" x="118.9155" y="606.8481">Return</text>
    <text fill="#000000" font-family="sans-serif" font-size="13" font-weight="bold" lengthAdjust="spacing" textLength="95.4243" x="166.999" y="606.8481">HTTP Status:</text>
    <text fill="#000000" font-family="sans-serif" font-size="13" lengthAdjust="spacing" textLength="24.813" x="266.5557" y="606.8481">200</text>
    <path d="M20,633.9141 L84.4429,633.9141 L84.4429,641.0469 L74.4429,651.0469 L20,651.0469 L20,633.9141 " fill="#EEEEEE" style="stroke:#000000;stroke-width:1.5;"/>
    <rect fill="none" height="230.4609" style="stroke:#000000;stroke-width:1.5;" width="858.7158" x="20" y="633.9141"/>
    <text fill="#000000" font-family="sans-serif" font-size="13" font-weight="bold" lengthAdjust="spacing" textLength="19.4429" x="35" y="646.981">alt</text>
    <text fill="#000000" font-family="sans-serif" font-size="11" font-weight="bold" lengthAdjust="spacing" textLength="195.8193" x="99.4429" y="646.1245">[Get Oracle Endpoints (failure)]</text>
    <polygon fill="#181818" points="636.5098,668.1797,626.5098,672.1797,636.5098,676.1797,632.5098,672.1797" style="stroke:#181818;stroke-width:1.0;"/>
    <line style="stroke:#181818;stroke-width:1.0;stroke-dasharray:2.0,2.0;" x1="630.5098" x2="830.7036" y1="672.1797" y2="672.1797"/>
    <text fill="#000000" font-family="sans-serif" font-size="13" font-weight="bold" lengthAdjust="spacing" textLength="9.0454" x="642.5098" y="667.1138">7</text>
    <text fill="#000000" font-family="sans-serif" font-size="13" lengthAdjust="spacing" textLength="76.4448" x="655.5552" y="667.1138">Throw Error</text>
    <polygon fill="#181818" points="427.5347,697.3125,417.5347,701.3125,427.5347,705.3125,423.5347,701.3125" style="stroke:#181818;stroke-width:1.0;"/>
    <line style="stroke:#181818;stroke-width:1.0;" x1="421.5347" x2="624.5098" y1="701.3125" y2="701.3125"/>
    <text fill="#000000" font-family="sans-serif" font-size="13" font-weight="bold" lengthAdjust="spacing" textLength="9.0454" x="433.5347" y="696.2466">8</text>
    <text fill="#000000" font-family="sans-serif" font-size="13" lengthAdjust="spacing" textLength="76.4448" x="446.5801" y="696.2466">Throw Error</text>
    <path d="M176,714.3125 L176,829.3125 L411,829.3125 L411,724.3125 L401,714.3125 L176,714.3125 " fill="#FFFF00" style="stroke:#181818;stroke-width:0.5;"/>
    <path d="M401,714.3125 L401,724.3125 L411,724.3125 L401,714.3125 " fill="#FFFF00" style="stroke:#181818;stroke-width:0.5;"/>
    <text fill="#000000" font-family="sans-serif" font-size="13" lengthAdjust="spacing" textLength="61.3564" x="182" y="731.3794">Message:</text>
    <text fill="#000000" font-family="sans-serif" font-size="13" lengthAdjust="spacing" textLength="8.271" x="182" y="746.5122">{</text>
    <text fill="#000000" font-family="sans-serif" font-size="13" lengthAdjust="spacing" textLength="136.208" x="198.5293" y="761.645">&quot;errorInformation&quot;: {</text>
    <text fill="#000000" font-family="sans-serif" font-size="13" lengthAdjust="spacing" textLength="181.27" x="215.0586" y="776.7778">&quot;errorCode&quot;: &lt;Error Code&gt;,</text>
    <text fill="#000000" font-family="sans-serif" font-size="13" lengthAdjust="spacing" textLength="178.6548" x="215.0586" y="791.9106">&quot;errorDescription&quot;: &lt;Msg&gt;,</text>
    <text fill="#000000" font-family="sans-serif" font-size="13" lengthAdjust="spacing" textLength="8.271" x="198.5293" y="807.0435">}</text>
    <text fill="#000000" font-family="sans-serif" font-size="13" lengthAdjust="spacing" textLength="8.271" x="182" y="822.1763">}</text>
    <polygon fill="#181818" points="99.8701,852.375,89.8701,856.375,99.8701,860.375,95.8701,856.375" style="stroke:#181818;stroke-width:1.0;"/>
    <line style="stroke:#181818;stroke-width:1.0;stroke-dasharray:2.0,2.0;" x1="93.8701" x2="415.5347" y1="856.375" y2="856.375"/>
    <text fill="#000000" font-family="sans-serif" font-size="13" font-weight="bold" lengthAdjust="spacing" textLength="9.0454" x="105.8701" y="851.3091">9</text>
    <text fill="#000000" font-family="sans-serif" font-size="13" lengthAdjust="spacing" textLength="43.9512" x="118.9155" y="851.3091">Return</text>
    <text fill="#FF0000" font-family="sans-serif" font-size="13" font-weight="bold" lengthAdjust="spacing" textLength="95.4243" x="166.999" y="851.3091">HTTP Status:</text>
    <text fill="#FF0000" font-family="sans-serif" font-size="13" lengthAdjust="spacing" textLength="24.813" x="266.5557" y="851.3091">502</text>
  </g>
</svg>
