<?xml version="1.0" encoding="UTF-8" standalone="no"?>
<svg xmlns="http://www.w3.org/2000/svg" xmlns:xlink="http://www.w3.org/1999/xlink" contentScriptType="application/ecmascript" contentStyleType="text/css" height="1779px" preserveAspectRatio="none" style="width:2331px;height:1779px" version="1.1" viewBox="0 0 2331 1779" width="2331px" zoomAndPan="magnify">
  <defs>
    <filter height="300%" id="f1848pezy2cnji" width="300%" x="-1" y="-1">
      <feGaussianBlur result="blurOut" stdDeviation="2.0"/>
      <feColorMatrix in="blurOut" result="blurOut2" type="matrix" values="0 0 0 0 0 0 0 0 0 0 0 0 0 0 0 0 0 0 .4 0"/>
      <feOffset dx="4.0" dy="4.0" in="blurOut2" result="blurOut3"/>
      <feBlend in="SourceGraphic" in2="blurOut3" mode="normal"/>
    </filter>
  </defs>
  <g>
    <text fill="#000000" font-family="sans-serif" font-size="18" lengthAdjust="spacingAndGlyphs" textLength="255" x="1035.75" y="28.708">7.1.0. Get Participant Details</text>
    <rect fill="#D3D3D3" height="1732.5703" style="stroke:#A80036;stroke-width:1.0" width="196" x="1" y="40.9531"/>
    <text fill="#000000" font-family="sans-serif" font-size="13" font-weight="bold" lengthAdjust="spacingAndGlyphs" textLength="190" x="4" y="53.02">Financial Service Provider</text>
    <rect fill="#FFFFE0" height="1732.5703" style="stroke:#A80036;stroke-width:1.0" width="1171.5" x="563" y="40.9531"/>
    <text fill="#000000" font-family="sans-serif" font-size="13" font-weight="bold" lengthAdjust="spacingAndGlyphs" textLength="176" x="1060.75" y="53.02">Account Lookup Service</text>
    <rect fill="#90EE90" height="1732.5703" style="stroke:#A80036;stroke-width:1.0" width="142" x="1973.5" y="40.9531"/>
    <text fill="#000000" font-family="sans-serif" font-size="13" font-weight="bold" lengthAdjust="spacingAndGlyphs" textLength="119" x="1985" y="53.02">Central Services</text>
    <rect fill="#ADD8E6" height="1732.5703" style="stroke:#A80036;stroke-width:1.0" width="208" x="2117.5" y="40.9531"/>
    <text fill="#000000" font-family="sans-serif" font-size="13" font-weight="bold" lengthAdjust="spacingAndGlyphs" textLength="202" x="2120.5" y="53.02">ALS Oracle Service/Adapter</text>
    <rect fill="#FFFFFF" filter="url(#f1848pezy2cnji)" height="1426.1797" style="stroke:#A80036;stroke-width:1.0" width="10" x="621" y="244.0469"/>
    <rect fill="#FFFFFF" filter="url(#f1848pezy2cnji)" height="1327.6484" style="stroke:#A80036;stroke-width:1.0" width="10" x="913" y="342.5781"/>
    <rect fill="#FFFFFF" filter="url(#f1848pezy2cnji)" height="181.0625" style="stroke:#A80036;stroke-width:1.0" width="10" x="1279" y="450.2422"/>
    <rect fill="#FFFFFF" filter="url(#f1848pezy2cnji)" height="132.7969" style="stroke:#A80036;stroke-width:1.0" width="10" x="1410" y="795.1016"/>
    <rect fill="#FFFFFF" filter="url(#f1848pezy2cnji)" height="107.6641" style="stroke:#A80036;stroke-width:1.0" width="10" x="1531" y="494.5078"/>
    <rect fill="#FFFFFF" filter="url(#f1848pezy2cnji)" height="132.7969" style="stroke:#A80036;stroke-width:1.0" width="10" x="1658.5" y="979.1641"/>
    <rect fill="#FFFFFF" filter="url(#f1848pezy2cnji)" height="132.7969" style="stroke:#A80036;stroke-width:1.0" width="10" x="1658.5" y="1286.5625"/>
    <rect fill="#FFFFFF" filter="url(#f1848pezy2cnji)" height="29.1328" style="stroke:#A80036;stroke-width:1.0" width="10" x="2039.5" y="1053.6953"/>
    <rect fill="#FFFFFF" filter="url(#f1848pezy2cnji)" height="29.1328" style="stroke:#A80036;stroke-width:1.0" width="10" x="2039.5" y="1361.0938"/>
    <rect fill="#FFFFFF" filter="url(#f1848pezy2cnji)" height="29.1328" style="stroke:#A80036;stroke-width:1.0" width="10" x="2216.5" y="869.6328"/>
    <rect fill="#FFFFFF" filter="url(#f1848pezy2cnji)" height="1509.8438" style="stroke:#000000;stroke-width:2.0" width="2274" x="42" y="160.3828"/>
    <rect fill="#FFFFFF" filter="url(#f1848pezy2cnji)" height="1305.6484" style="stroke:#000000;stroke-width:2.0" width="2254" x="52" y="357.5781"/>
    <rect fill="#87CEFA" filter="url(#f1848pezy2cnji)" height="330.8594" style="stroke:#000000;stroke-width:2.0" width="773.5" x="844.5" y="381.7109"/>
    <rect fill="#87CEFA" filter="url(#f1848pezy2cnji)" height="59.2656" style="stroke:#000000;stroke-width:2.0" width="249" x="854.5" y="646.3047"/>
    <rect fill="#87CEFA" filter="url(#f1848pezy2cnji)" height="209.3281" style="stroke:#000000;stroke-width:2.0" width="1441.5" x="854.5" y="726.5703"/>
    <rect fill="#FFFFFF" height="322.5313" style="stroke:none;stroke-width:1.0" width="2254" x="52" y="1235.4922"/>
    <rect fill="#FFFFFF" height="105.2031" style="stroke:none;stroke-width:1.0" width="2254" x="52" y="1558.0234"/>
    <line style="stroke:#A80036;stroke-width:1.0;stroke-dasharray:5.0,5.0" x1="99" x2="99" y1="143.3828" y2="1687.2266"/>
    <line style="stroke:#A80036;stroke-width:1.0;stroke-dasharray:5.0,5.0" x1="626" x2="626" y1="143.3828" y2="1687.2266"/>
    <line style="stroke:#A80036;stroke-width:1.0;stroke-dasharray:5.0,5.0" x1="917.5" x2="917.5" y1="143.3828" y2="1687.2266"/>
    <line style="stroke:#A80036;stroke-width:1.0;stroke-dasharray:5.0,5.0" x1="1283.5" x2="1283.5" y1="143.3828" y2="1687.2266"/>
    <line style="stroke:#A80036;stroke-width:1.0;stroke-dasharray:5.0,5.0" x1="1414.5" x2="1414.5" y1="143.3828" y2="1687.2266"/>
    <line style="stroke:#A80036;stroke-width:1.0;stroke-dasharray:5.0,5.0" x1="1535.5" x2="1535.5" y1="143.3828" y2="1687.2266"/>
    <line style="stroke:#A80036;stroke-width:1.0;stroke-dasharray:5.0,5.0" x1="1663.5" x2="1663.5" y1="143.3828" y2="1687.2266"/>
    <line style="stroke:#A80036;stroke-width:1.0;stroke-dasharray:5.0,5.0" x1="2044.5" x2="2044.5" y1="143.3828" y2="1687.2266"/>
    <line style="stroke:#A80036;stroke-width:1.0;stroke-dasharray:5.0,5.0" x1="2221" x2="2221" y1="143.3828" y2="1687.2266"/>
    <text fill="#000000" font-family="sans-serif" font-size="14" lengthAdjust="spacingAndGlyphs" textLength="68" x="62" y="140.0811">Payer FSP</text>
    <ellipse cx="99" cy="70.0859" fill="#FEFECE" filter="url(#f1848pezy2cnji)" rx="8" ry="8" style="stroke:#A80036;stroke-width:2.0"/>
    <path d="M99,78.0859 L99,105.0859 M86,86.0859 L112,86.0859 M99,105.0859 L86,120.0859 M99,105.0859 L112,120.0859 " fill="none" filter="url(#f1848pezy2cnji)" style="stroke:#A80036;stroke-width:2.0"/>
    <text fill="#000000" font-family="sans-serif" font-size="14" lengthAdjust="spacingAndGlyphs" textLength="68" x="62" y="1699.2217">Payer FSP</text>
    <ellipse cx="99" cy="1712.5234" fill="#FEFECE" filter="url(#f1848pezy2cnji)" rx="8" ry="8" style="stroke:#A80036;stroke-width:2.0"/>
    <path d="M99,1720.5234 L99,1747.5234 M86,1728.5234 L112,1728.5234 M99,1747.5234 L86,1762.5234 M99,1747.5234 L112,1762.5234 " fill="none" filter="url(#f1848pezy2cnji)" style="stroke:#A80036;stroke-width:2.0"/>
    <text fill="#000000" font-family="sans-serif" font-size="14" lengthAdjust="spacingAndGlyphs" textLength="112" x="567" y="123.7842">Account Lookup</text>
    <text fill="#000000" font-family="sans-serif" font-size="14" lengthAdjust="spacingAndGlyphs" textLength="89" x="578.5" y="140.0811">Service (ALS)</text>
    <path d="M605.5,82.7891 L605.5,106.7891 M605.5,94.7891 L622.5,94.7891 " fill="none" filter="url(#f1848pezy2cnji)" style="stroke:#A80036;stroke-width:2.0"/>
    <ellipse cx="634.5" cy="94.7891" fill="#FEFECE" filter="url(#f1848pezy2cnji)" rx="12" ry="12" style="stroke:#A80036;stroke-width:2.0"/>
    <text fill="#000000" font-family="sans-serif" font-size="14" lengthAdjust="spacingAndGlyphs" textLength="112" x="567" y="1699.2217">Account Lookup</text>
    <text fill="#000000" font-family="sans-serif" font-size="14" lengthAdjust="spacingAndGlyphs" textLength="89" x="578.5" y="1715.5186">Service (ALS)</text>
    <path d="M605.5,1722.8203 L605.5,1746.8203 M605.5,1734.8203 L622.5,1734.8203 " fill="none" filter="url(#f1848pezy2cnji)" style="stroke:#A80036;stroke-width:2.0"/>
    <ellipse cx="634.5" cy="1734.8203" fill="#FEFECE" filter="url(#f1848pezy2cnji)" rx="12" ry="12" style="stroke:#A80036;stroke-width:2.0"/>
    <text fill="#000000" font-family="sans-serif" font-size="14" lengthAdjust="spacingAndGlyphs" textLength="101" x="864.5" y="123.7842">ALS Participant</text>
    <text fill="#000000" font-family="sans-serif" font-size="14" lengthAdjust="spacingAndGlyphs" textLength="53" x="888.5" y="140.0811">Handler</text>
    <ellipse cx="918" cy="94.7891" fill="#FEFECE" filter="url(#f1848pezy2cnji)" rx="12" ry="12" style="stroke:#A80036;stroke-width:2.0"/>
    <polygon fill="#A80036" points="914,82.7891,920,77.7891,918,82.7891,920,87.7891,914,82.7891" style="stroke:#A80036;stroke-width:1.0"/>
    <text fill="#000000" font-family="sans-serif" font-size="14" lengthAdjust="spacingAndGlyphs" textLength="101" x="864.5" y="1699.2217">ALS Participant</text>
    <text fill="#000000" font-family="sans-serif" font-size="14" lengthAdjust="spacingAndGlyphs" textLength="53" x="888.5" y="1715.5186">Handler</text>
    <ellipse cx="918" cy="1734.8203" fill="#FEFECE" filter="url(#f1848pezy2cnji)" rx="12" ry="12" style="stroke:#A80036;stroke-width:2.0"/>
    <polygon fill="#A80036" points="914,1722.8203,920,1717.8203,918,1722.8203,920,1727.8203,914,1722.8203" style="stroke:#A80036;stroke-width:1.0"/>
    <text fill="#000000" font-family="sans-serif" font-size="14" lengthAdjust="spacingAndGlyphs" textLength="129" x="1216.5" y="123.7842">ALS Endpoint Type</text>
    <text fill="#000000" font-family="sans-serif" font-size="14" lengthAdjust="spacingAndGlyphs" textLength="79" x="1241.5" y="140.0811">Config DAO</text>
    <ellipse cx="1284" cy="94.7891" fill="#FEFECE" filter="url(#f1848pezy2cnji)" rx="12" ry="12" style="stroke:#A80036;stroke-width:2.0"/>
    <line style="stroke:#A80036;stroke-width:2.0" x1="1272" x2="1296" y1="108.7891" y2="108.7891"/>
    <text fill="#000000" font-family="sans-serif" font-size="14" lengthAdjust="spacingAndGlyphs" textLength="129" x="1216.5" y="1699.2217">ALS Endpoint Type</text>
    <text fill="#000000" font-family="sans-serif" font-size="14" lengthAdjust="spacingAndGlyphs" textLength="79" x="1241.5" y="1715.5186">Config DAO</text>
    <ellipse cx="1284" cy="1734.8203" fill="#FEFECE" filter="url(#f1848pezy2cnji)" rx="12" ry="12" style="stroke:#A80036;stroke-width:2.0"/>
    <line style="stroke:#A80036;stroke-width:2.0" x1="1272" x2="1296" y1="1748.8203" y2="1748.8203"/>
    <text fill="#000000" font-family="sans-serif" font-size="14" lengthAdjust="spacingAndGlyphs" textLength="101" x="1361.5" y="123.7842">ALS Participant</text>
    <text fill="#000000" font-family="sans-serif" font-size="14" lengthAdjust="spacingAndGlyphs" textLength="79" x="1372.5" y="140.0811">Oracle DAO</text>
    <ellipse cx="1415" cy="94.7891" fill="#FEFECE" filter="url(#f1848pezy2cnji)" rx="12" ry="12" style="stroke:#A80036;stroke-width:2.0"/>
    <line style="stroke:#A80036;stroke-width:2.0" x1="1403" x2="1427" y1="108.7891" y2="108.7891"/>
    <text fill="#000000" font-family="sans-serif" font-size="14" lengthAdjust="spacingAndGlyphs" textLength="101" x="1361.5" y="1699.2217">ALS Participant</text>
    <text fill="#000000" font-family="sans-serif" font-size="14" lengthAdjust="spacingAndGlyphs" textLength="79" x="1372.5" y="1715.5186">Oracle DAO</text>
    <ellipse cx="1415" cy="1734.8203" fill="#FEFECE" filter="url(#f1848pezy2cnji)" rx="12" ry="12" style="stroke:#A80036;stroke-width:2.0"/>
    <line style="stroke:#A80036;stroke-width:2.0" x1="1403" x2="1427" y1="1748.8203" y2="1748.8203"/>
    <text fill="#000000" font-family="sans-serif" font-size="14" lengthAdjust="spacingAndGlyphs" textLength="95" x="1485.5" y="140.0811">ALS Database</text>
    <path d="M1518,91.0859 C1518,81.0859 1536,81.0859 1536,81.0859 C1536,81.0859 1554,81.0859 1554,91.0859 L1554,117.0859 C1554,127.0859 1536,127.0859 1536,127.0859 C1536,127.0859 1518,127.0859 1518,117.0859 L1518,91.0859 " fill="#FEFECE" filter="url(#f1848pezy2cnji)" style="stroke:#000000;stroke-width:1.5"/>
    <path d="M1518,91.0859 C1518,101.0859 1536,101.0859 1536,101.0859 C1536,101.0859 1554,101.0859 1554,91.0859 " fill="none" style="stroke:#000000;stroke-width:1.5"/>
    <text fill="#000000" font-family="sans-serif" font-size="14" lengthAdjust="spacingAndGlyphs" textLength="95" x="1485.5" y="1699.2217">ALS Database</text>
    <path d="M1518,1712.5234 C1518,1702.5234 1536,1702.5234 1536,1702.5234 C1536,1702.5234 1554,1702.5234 1554,1712.5234 L1554,1738.5234 C1554,1748.5234 1536,1748.5234 1536,1748.5234 C1536,1748.5234 1518,1748.5234 1518,1738.5234 L1518,1712.5234 " fill="#FEFECE" filter="url(#f1848pezy2cnji)" style="stroke:#000000;stroke-width:1.5"/>
    <path d="M1518,1712.5234 C1518,1722.5234 1536,1722.5234 1536,1722.5234 C1536,1722.5234 1554,1722.5234 1554,1712.5234 " fill="none" style="stroke:#000000;stroke-width:1.5"/>
    <text fill="#000000" font-family="sans-serif" font-size="14" lengthAdjust="spacingAndGlyphs" textLength="128" x="1596.5" y="123.7842">ALS CentralService</text>
    <text fill="#000000" font-family="sans-serif" font-size="14" lengthAdjust="spacingAndGlyphs" textLength="97" x="1612" y="140.0811">Endpoint DAO</text>
    <ellipse cx="1663.5" cy="94.7891" fill="#FEFECE" filter="url(#f1848pezy2cnji)" rx="12" ry="12" style="stroke:#A80036;stroke-width:2.0"/>
    <line style="stroke:#A80036;stroke-width:2.0" x1="1651.5" x2="1675.5" y1="108.7891" y2="108.7891"/>
    <text fill="#000000" font-family="sans-serif" font-size="14" lengthAdjust="spacingAndGlyphs" textLength="128" x="1596.5" y="1699.2217">ALS CentralService</text>
    <text fill="#000000" font-family="sans-serif" font-size="14" lengthAdjust="spacingAndGlyphs" textLength="97" x="1612" y="1715.5186">Endpoint DAO</text>
    <ellipse cx="1663.5" cy="1734.8203" fill="#FEFECE" filter="url(#f1848pezy2cnji)" rx="12" ry="12" style="stroke:#A80036;stroke-width:2.0"/>
    <line style="stroke:#A80036;stroke-width:2.0" x1="1651.5" x2="1675.5" y1="1748.8203" y2="1748.8203"/>
    <text fill="#000000" font-family="sans-serif" font-size="14" lengthAdjust="spacingAndGlyphs" textLength="128" x="1977.5" y="140.0811">Central Service API</text>
    <path d="M2024,99.0859 L2024,123.0859 M2024,111.0859 L2041,111.0859 " fill="none" filter="url(#f1848pezy2cnji)" style="stroke:#A80036;stroke-width:2.0"/>
    <ellipse cx="2053" cy="111.0859" fill="#FEFECE" filter="url(#f1848pezy2cnji)" rx="12" ry="12" style="stroke:#A80036;stroke-width:2.0"/>
    <text fill="#000000" font-family="sans-serif" font-size="14" lengthAdjust="spacingAndGlyphs" textLength="128" x="1977.5" y="1699.2217">Central Service API</text>
    <path d="M2024,1706.5234 L2024,1730.5234 M2024,1718.5234 L2041,1718.5234 " fill="none" filter="url(#f1848pezy2cnji)" style="stroke:#A80036;stroke-width:2.0"/>
    <ellipse cx="2053" cy="1718.5234" fill="#FEFECE" filter="url(#f1848pezy2cnji)" rx="12" ry="12" style="stroke:#A80036;stroke-width:2.0"/>
    <text fill="#000000" font-family="sans-serif" font-size="14" lengthAdjust="spacingAndGlyphs" textLength="123" x="2157" y="140.0811">Oracle Service API</text>
    <path d="M2201,99.0859 L2201,123.0859 M2201,111.0859 L2218,111.0859 " fill="none" filter="url(#f1848pezy2cnji)" style="stroke:#A80036;stroke-width:2.0"/>
    <ellipse cx="2230" cy="111.0859" fill="#FEFECE" filter="url(#f1848pezy2cnji)" rx="12" ry="12" style="stroke:#A80036;stroke-width:2.0"/>
    <text fill="#000000" font-family="sans-serif" font-size="14" lengthAdjust="spacingAndGlyphs" textLength="123" x="2157" y="1699.2217">Oracle Service API</text>
    <path d="M2201,1706.5234 L2201,1730.5234 M2201,1718.5234 L2218,1718.5234 " fill="none" filter="url(#f1848pezy2cnji)" style="stroke:#A80036;stroke-width:2.0"/>
    <ellipse cx="2230" cy="1718.5234" fill="#FEFECE" filter="url(#f1848pezy2cnji)" rx="12" ry="12" style="stroke:#A80036;stroke-width:2.0"/>
    <rect fill="#FFFFFF" filter="url(#f1848pezy2cnji)" height="1426.1797" style="stroke:#A80036;stroke-width:1.0" width="10" x="621" y="244.0469"/>
    <rect fill="#FFFFFF" filter="url(#f1848pezy2cnji)" height="1327.6484" style="stroke:#A80036;stroke-width:1.0" width="10" x="913" y="342.5781"/>
    <rect fill="#FFFFFF" filter="url(#f1848pezy2cnji)" height="181.0625" style="stroke:#A80036;stroke-width:1.0" width="10" x="1279" y="450.2422"/>
    <rect fill="#FFFFFF" filter="url(#f1848pezy2cnji)" height="132.7969" style="stroke:#A80036;stroke-width:1.0" width="10" x="1410" y="795.1016"/>
    <rect fill="#FFFFFF" filter="url(#f1848pezy2cnji)" height="107.6641" style="stroke:#A80036;stroke-width:1.0" width="10" x="1531" y="494.5078"/>
    <rect fill="#FFFFFF" filter="url(#f1848pezy2cnji)" height="132.7969" style="stroke:#A80036;stroke-width:1.0" width="10" x="1658.5" y="979.1641"/>
    <rect fill="#FFFFFF" filter="url(#f1848pezy2cnji)" height="132.7969" style="stroke:#A80036;stroke-width:1.0" width="10" x="1658.5" y="1286.5625"/>
    <rect fill="#FFFFFF" filter="url(#f1848pezy2cnji)" height="29.1328" style="stroke:#A80036;stroke-width:1.0" width="10" x="2039.5" y="1053.6953"/>
    <rect fill="#FFFFFF" filter="url(#f1848pezy2cnji)" height="29.1328" style="stroke:#A80036;stroke-width:1.0" width="10" x="2039.5" y="1361.0938"/>
    <rect fill="#FFFFFF" filter="url(#f1848pezy2cnji)" height="29.1328" style="stroke:#A80036;stroke-width:1.0" width="10" x="2216.5" y="869.6328"/>
    <path d="M42,160.3828 L300,160.3828 L300,167.3828 L290,177.3828 L42,177.3828 L42,160.3828 " fill="#EEEEEE" style="stroke:#000000;stroke-width:1.0"/>
    <rect fill="none" height="1509.8438" style="stroke:#000000;stroke-width:2.0" width="2274" x="42" y="160.3828"/>
    <text fill="#000000" font-family="sans-serif" font-size="13" font-weight="bold" lengthAdjust="spacingAndGlyphs" textLength="213" x="57" y="173.4497">Get Participant&apos;s FSP Details</text>
    <line style="stroke:#A80036;stroke-width:1.0" x1="619" x2="609" y1="244.0469" y2="240.0469"/>
    <line style="stroke:#A80036;stroke-width:1.0" x1="619" x2="609" y1="244.0469" y2="248.0469"/>
    <line style="stroke:#A80036;stroke-width:1.0" x1="99" x2="620" y1="244.0469" y2="244.0469"/>
    <text fill="#000000" font-family="sans-serif" font-size="13" font-weight="bold" lengthAdjust="spacingAndGlyphs" textLength="9" x="106" y="216.2817">1</text>
    <text fill="#000000" font-family="sans-serif" font-size="13" lengthAdjust="spacingAndGlyphs" textLength="250" x="119" y="193.5825">Request to get participant&apos;s FSP details</text>
    <text fill="#000000" font-family="sans-serif" font-size="13" lengthAdjust="spacingAndGlyphs" textLength="358" x="119" y="208.7153">GET - /participants/{TYPE}/{ID}?currency={CURRENCY}</text>
    <text fill="#388724" font-family="sans-serif" font-size="13" font-weight="bold" lengthAdjust="spacingAndGlyphs" textLength="118" x="119" y="223.8481">Response code:</text>
    <text fill="#388724" font-family="sans-serif" font-size="13" lengthAdjust="spacingAndGlyphs" textLength="24" x="241" y="223.8481">202</text>
    <text fill="#000000" font-family="sans-serif" font-size="13" lengthAdjust="spacingAndGlyphs" textLength="0" x="269" y="223.8481"/>
    <text fill="#FF0000" font-family="sans-serif" font-size="13" font-weight="bold" lengthAdjust="spacingAndGlyphs" textLength="82" x="119" y="238.981">Error code:</text>
    <text fill="#FF0000" font-family="sans-serif" font-size="13" lengthAdjust="spacingAndGlyphs" textLength="148" x="205" y="238.981">200x, 300x, 310x, 320x</text>
    <path d="M385,257.0469 L385,312.0469 L612,312.0469 L612,267.0469 L602,257.0469 L385,257.0469 " fill="#D3D3D3" filter="url(#f1848pezy2cnji)" style="stroke:#A80036;stroke-width:1.0"/>
    <path d="M602,257.0469 L602,267.0469 L612,267.0469 L602,257.0469 " fill="#D3D3D3" style="stroke:#A80036;stroke-width:1.0"/>
    <text fill="#000000" font-family="sans-serif" font-size="13" lengthAdjust="spacingAndGlyphs" textLength="156" x="391" y="274.1138">Validate request against</text>
    <text fill="#000000" font-family="sans-serif" font-size="13" lengthAdjust="spacingAndGlyphs" textLength="206" x="391" y="289.2466">Mojaloop Interface Specification.</text>
    <text fill="#FF0000" font-family="sans-serif" font-size="13" font-weight="bold" lengthAdjust="spacingAndGlyphs" textLength="82" x="391" y="304.3794">Error code:</text>
    <text fill="#FF0000" font-family="sans-serif" font-size="13" lengthAdjust="spacingAndGlyphs" textLength="70" x="477" y="304.3794">300x, 310x</text>
    <polygon fill="#A80036" points="901,338.5781,911,342.5781,901,346.5781,905,342.5781" style="stroke:#A80036;stroke-width:1.0"/>
    <line style="stroke:#A80036;stroke-width:1.0" x1="631" x2="907" y1="342.5781" y2="342.5781"/>
    <text fill="#000000" font-family="sans-serif" font-size="13" font-weight="bold" lengthAdjust="spacingAndGlyphs" textLength="9" x="638" y="337.5122">2</text>
    <text fill="#000000" font-family="sans-serif" font-size="13" lengthAdjust="spacingAndGlyphs" textLength="250" x="651" y="337.5122">Request to get participant&apos;s FSP details</text>
    <path d="M52,357.5781 L116,357.5781 L116,364.5781 L106,374.5781 L52,374.5781 L52,357.5781 " fill="#EEEEEE" style="stroke:#000000;stroke-width:1.0"/>
    <rect fill="none" height="1305.6484" style="stroke:#000000;stroke-width:2.0" width="2254" x="52" y="357.5781"/>
    <text fill="#000000" font-family="sans-serif" font-size="13" font-weight="bold" lengthAdjust="spacingAndGlyphs" textLength="19" x="67" y="370.645">alt</text>
    <text fill="#000000" font-family="sans-serif" font-size="11" font-weight="bold" lengthAdjust="spacingAndGlyphs" textLength="191" x="131" y="369.7886">[oracleEndpoint match found]</text>
    <path d="M844.5,381.7109 L1303.5,381.7109 L1303.5,388.7109 L1293.5,398.7109 L844.5,398.7109 L844.5,381.7109 " fill="#EEEEEE" style="stroke:#000000;stroke-width:1.0"/>
    <rect fill="none" height="330.8594" style="stroke:#000000;stroke-width:2.0" width="773.5" x="844.5" y="381.7109"/>
    <text fill="#000000" font-family="sans-serif" font-size="13" font-weight="bold" lengthAdjust="spacingAndGlyphs" textLength="409" x="859.5" y="394.7778">IMPLEMENTATION: Get Oracle Routing Config Sequence</text>
    <text fill="#000000" font-family="sans-serif" font-size="11" font-weight="bold" lengthAdjust="spacingAndGlyphs" textLength="62" x="1318.5" y="393.9214">[CACHED]</text>
    <polygon fill="#A80036" points="1267,446.2422,1277,450.2422,1267,454.2422,1271,450.2422" style="stroke:#A80036;stroke-width:1.0"/>
    <line style="stroke:#A80036;stroke-width:1.0" x1="923" x2="1273" y1="450.2422" y2="450.2422"/>
    <text fill="#000000" font-family="sans-serif" font-size="13" font-weight="bold" lengthAdjust="spacingAndGlyphs" textLength="9" x="930" y="430.0435">3</text>
    <text fill="#000000" font-family="sans-serif" font-size="13" lengthAdjust="spacingAndGlyphs" textLength="272" x="943" y="414.9106">Fetch Oracle Routing information based on</text>
    <text fill="#000000" font-family="sans-serif" font-size="13" lengthAdjust="spacingAndGlyphs" textLength="233" x="943" y="430.0435">{TYPE} and {CURRENCY} if provided</text>
    <text fill="#FF0000" font-family="sans-serif" font-size="13" font-weight="bold" lengthAdjust="spacingAndGlyphs" textLength="82" x="943" y="445.1763">Error code:</text>
    <text fill="#FF0000" font-family="sans-serif" font-size="13" lengthAdjust="spacingAndGlyphs" textLength="31" x="1029" y="445.1763">200x</text>
    <polygon fill="#A80036" points="1519,490.5078,1529,494.5078,1519,498.5078,1523,494.5078" style="stroke:#A80036;stroke-width:1.0"/>
    <line style="stroke:#A80036;stroke-width:1.0" x1="1289" x2="1525" y1="494.5078" y2="494.5078"/>
    <text fill="#000000" font-family="sans-serif" font-size="13" font-weight="bold" lengthAdjust="spacingAndGlyphs" textLength="9" x="1296" y="481.8755">4</text>
    <text fill="#000000" font-family="sans-serif" font-size="13" lengthAdjust="spacingAndGlyphs" textLength="151" x="1309" y="474.3091">Retrieve oracleEndpoint</text>
    <text fill="#FF0000" font-family="sans-serif" font-size="13" font-weight="bold" lengthAdjust="spacingAndGlyphs" textLength="82" x="1309" y="489.4419">Error code:</text>
    <text fill="#FF0000" font-family="sans-serif" font-size="13" lengthAdjust="spacingAndGlyphs" textLength="31" x="1395" y="489.4419">200x</text>
    <polygon fill="#FFFFE0" filter="url(#f1848pezy2cnji)" points="1474,507.5078,1598,507.5078,1608,541.5078,1598,575.5078,1474,575.5078,1464,541.5078,1474,507.5078" style="stroke:#A80036;stroke-width:1.0"/>
    <text fill="#000000" font-family="sans-serif" font-size="13" lengthAdjust="spacingAndGlyphs" textLength="95" x="1476" y="523.5747">oracleEndpoint</text>
    <text fill="#000000" font-family="sans-serif" font-size="13" lengthAdjust="spacingAndGlyphs" textLength="86" x="1476" y="538.7075">endpointType</text>
    <text fill="#000000" font-family="sans-serif" font-size="13" lengthAdjust="spacingAndGlyphs" textLength="74" x="1476" y="553.8403">partyIdType</text>
    <text fill="#000000" font-family="sans-serif" font-size="13" lengthAdjust="spacingAndGlyphs" textLength="120" x="1476" y="568.9731">currency (optional)</text>
    <polygon fill="#A80036" points="1300,598.1719,1290,602.1719,1300,606.1719,1296,602.1719" style="stroke:#A80036;stroke-width:1.0"/>
    <line style="stroke:#A80036;stroke-width:1.0;stroke-dasharray:2.0,2.0" x1="1294" x2="1535" y1="602.1719" y2="602.1719"/>
    <text fill="#000000" font-family="sans-serif" font-size="13" font-weight="bold" lengthAdjust="spacingAndGlyphs" textLength="9" x="1306" y="597.106">5</text>
    <text fill="#000000" font-family="sans-serif" font-size="13" lengthAdjust="spacingAndGlyphs" textLength="205" x="1319" y="597.106">Return oracleEndpoint result set</text>
    <polygon fill="#A80036" points="934,627.3047,924,631.3047,934,635.3047,930,631.3047" style="stroke:#A80036;stroke-width:1.0"/>
    <line style="stroke:#A80036;stroke-width:1.0;stroke-dasharray:2.0,2.0" x1="928" x2="1283" y1="631.3047" y2="631.3047"/>
    <text fill="#000000" font-family="sans-serif" font-size="13" font-weight="bold" lengthAdjust="spacingAndGlyphs" textLength="9" x="940" y="626.2388">6</text>
    <text fill="#000000" font-family="sans-serif" font-size="13" lengthAdjust="spacingAndGlyphs" textLength="38" x="953" y="626.2388">List of</text>
    <text fill="#000000" font-family="sans-serif" font-size="13" font-weight="bold" lengthAdjust="spacingAndGlyphs" textLength="111" x="995" y="626.2388">oracleEndpoint</text>
    <text fill="#000000" font-family="sans-serif" font-size="13" lengthAdjust="spacingAndGlyphs" textLength="114" x="1110" y="626.2388">for the Participant</text>
    <path d="M854.5,646.3047 L924.5,646.3047 L924.5,653.3047 L914.5,663.3047 L854.5,663.3047 L854.5,646.3047 " fill="#EEEEEE" style="stroke:#000000;stroke-width:1.0"/>
    <rect fill="none" height="59.2656" style="stroke:#000000;stroke-width:2.0" width="249" x="854.5" y="646.3047"/>
    <text fill="#000000" font-family="sans-serif" font-size="13" font-weight="bold" lengthAdjust="spacingAndGlyphs" textLength="25" x="869.5" y="659.3716">opt</text>
    <text fill="#000000" font-family="sans-serif" font-size="11" font-weight="bold" lengthAdjust="spacingAndGlyphs" textLength="159" x="939.5" y="658.5151">[oracleEndpoint IS NULL]</text>
    <line style="stroke:#A80036;stroke-width:1.0" x1="923" x2="965" y1="684.5703" y2="684.5703"/>
    <line style="stroke:#A80036;stroke-width:1.0" x1="965" x2="965" y1="684.5703" y2="697.5703"/>
    <line style="stroke:#A80036;stroke-width:1.0" x1="924" x2="965" y1="697.5703" y2="697.5703"/>
    <polygon fill="#A80036" points="934,693.5703,924,697.5703,934,701.5703,930,697.5703" style="stroke:#A80036;stroke-width:1.0"/>
    <text fill="#000000" font-family="sans-serif" font-size="13" font-weight="bold" lengthAdjust="spacingAndGlyphs" textLength="9" x="930" y="679.5044">7</text>
    <text fill="#FF0000" font-family="sans-serif" font-size="13" font-weight="bold" lengthAdjust="spacingAndGlyphs" textLength="82" x="943" y="679.5044">Error code:</text>
    <text fill="#FF0000" font-family="sans-serif" font-size="13" lengthAdjust="spacingAndGlyphs" textLength="32" x="1029" y="679.5044">3200</text>
    <path d="M854.5,726.5703 L1444.5,726.5703 L1444.5,733.5703 L1434.5,743.5703 L854.5,743.5703 L854.5,726.5703 " fill="#EEEEEE" style="stroke:#000000;stroke-width:1.0"/>
    <rect fill="none" height="209.3281" style="stroke:#000000;stroke-width:2.0" width="1441.5" x="854.5" y="726.5703"/>
    <text fill="#000000" font-family="sans-serif" font-size="13" font-weight="bold" lengthAdjust="spacingAndGlyphs" textLength="545" x="869.5" y="739.6372">IMPLEMENTATION: Request Participant Information from Oracle Sequence</text>
    <polygon fill="#A80036" points="1398,791.1016,1408,795.1016,1398,799.1016,1402,795.1016" style="stroke:#A80036;stroke-width:1.0"/>
    <line style="stroke:#A80036;stroke-width:1.0" x1="923" x2="1404" y1="795.1016" y2="795.1016"/>
    <text fill="#000000" font-family="sans-serif" font-size="13" font-weight="bold" lengthAdjust="spacingAndGlyphs" textLength="9" x="930" y="774.9028">8</text>
    <text fill="#000000" font-family="sans-serif" font-size="13" lengthAdjust="spacingAndGlyphs" textLength="250" x="943" y="759.77">Request to get participant&apos;s FSP details</text>
    <text fill="#000000" font-family="sans-serif" font-size="13" lengthAdjust="spacingAndGlyphs" textLength="358" x="943" y="774.9028">GET - /participants/{TYPE}/{ID}?currency={CURRENCY}</text>
    <text fill="#FF0000" font-family="sans-serif" font-size="13" font-weight="bold" lengthAdjust="spacingAndGlyphs" textLength="82" x="943" y="790.0356">Error code:</text>
    <text fill="#FF0000" font-family="sans-serif" font-size="13" lengthAdjust="spacingAndGlyphs" textLength="109" x="1029" y="790.0356">200x, 310x, 320x</text>
    <polygon fill="#A80036" points="2204.5,865.6328,2214.5,869.6328,2204.5,873.6328,2208.5,869.6328" style="stroke:#A80036;stroke-width:1.0"/>
    <line style="stroke:#A80036;stroke-width:1.0" x1="1420" x2="2210.5" y1="869.6328" y2="869.6328"/>
    <text fill="#000000" font-family="sans-serif" font-size="13" font-weight="bold" lengthAdjust="spacingAndGlyphs" textLength="9" x="1427" y="841.8677">9</text>
    <text fill="#000000" font-family="sans-serif" font-size="13" lengthAdjust="spacingAndGlyphs" textLength="250" x="1440" y="819.1685">Request to get participant&apos;s FSP details</text>
    <text fill="#000000" font-family="sans-serif" font-size="13" lengthAdjust="spacingAndGlyphs" textLength="358" x="1440" y="834.3013">GET - /participants/{TYPE}/{ID}?currency={CURRENCY}</text>
    <text fill="#388724" font-family="sans-serif" font-size="13" font-weight="bold" lengthAdjust="spacingAndGlyphs" textLength="118" x="1440" y="849.4341">Response code:</text>
    <text fill="#388724" font-family="sans-serif" font-size="13" lengthAdjust="spacingAndGlyphs" textLength="24" x="1562" y="849.4341">200</text>
    <text fill="#000000" font-family="sans-serif" font-size="13" lengthAdjust="spacingAndGlyphs" textLength="0" x="1590" y="849.4341"/>
    <text fill="#FF0000" font-family="sans-serif" font-size="13" font-weight="bold" lengthAdjust="spacingAndGlyphs" textLength="82" x="1440" y="864.5669">Error code:</text>
    <text fill="#FF0000" font-family="sans-serif" font-size="13" lengthAdjust="spacingAndGlyphs" textLength="109" x="1526" y="864.5669">200x, 310x, 320x</text>
    <polygon fill="#A80036" points="1431,894.7656,1421,898.7656,1431,902.7656,1427,898.7656" style="stroke:#A80036;stroke-width:1.0"/>
    <line style="stroke:#A80036;stroke-width:1.0;stroke-dasharray:2.0,2.0" x1="1425" x2="2220.5" y1="898.7656" y2="898.7656"/>
    <text fill="#000000" font-family="sans-serif" font-size="13" font-weight="bold" lengthAdjust="spacingAndGlyphs" textLength="18" x="1437" y="893.6997">10</text>
    <text fill="#000000" font-family="sans-serif" font-size="13" lengthAdjust="spacingAndGlyphs" textLength="229" x="1459" y="893.6997">Return list of Participant information</text>
    <polygon fill="#A80036" points="934,923.8984,924,927.8984,934,931.8984,930,927.8984" style="stroke:#A80036;stroke-width:1.0"/>
    <line style="stroke:#A80036;stroke-width:1.0;stroke-dasharray:2.0,2.0" x1="928" x2="1414" y1="927.8984" y2="927.8984"/>
    <text fill="#000000" font-family="sans-serif" font-size="13" font-weight="bold" lengthAdjust="spacingAndGlyphs" textLength="18" x="940" y="922.8325">11</text>
    <text fill="#000000" font-family="sans-serif" font-size="13" lengthAdjust="spacingAndGlyphs" textLength="229" x="962" y="922.8325">Return list of Participant information</text>
    <polygon fill="#A80036" points="1646.5,975.1641,1656.5,979.1641,1646.5,983.1641,1650.5,979.1641" style="stroke:#A80036;stroke-width:1.0"/>
    <line style="stroke:#A80036;stroke-width:1.0" x1="923" x2="1652.5" y1="979.1641" y2="979.1641"/>
    <text fill="#000000" font-family="sans-serif" font-size="13" font-weight="bold" lengthAdjust="spacingAndGlyphs" textLength="18" x="930" y="966.5317">12</text>
    <text fill="#000000" font-family="sans-serif" font-size="13" lengthAdjust="spacingAndGlyphs" textLength="330" x="952" y="958.9653">Retrieve the PayerFSP Participant Callback Endpoint</text>
    <text fill="#FF0000" font-family="sans-serif" font-size="13" font-weight="bold" lengthAdjust="spacingAndGlyphs" textLength="82" x="952" y="974.0981">Error code:</text>
    <text fill="#FF0000" font-family="sans-serif" font-size="13" lengthAdjust="spacingAndGlyphs" textLength="109" x="1038" y="974.0981">200x, 310x, 320x</text>
    <polygon fill="#A80036" points="2027.5,1049.6953,2037.5,1053.6953,2027.5,1057.6953,2031.5,1053.6953" style="stroke:#A80036;stroke-width:1.0"/>
    <line style="stroke:#A80036;stroke-width:1.0" x1="1668.5" x2="2033.5" y1="1053.6953" y2="1053.6953"/>
    <text fill="#000000" font-family="sans-serif" font-size="13" font-weight="bold" lengthAdjust="spacingAndGlyphs" textLength="18" x="1675.5" y="1025.9302">13</text>
    <text fill="#000000" font-family="sans-serif" font-size="13" lengthAdjust="spacingAndGlyphs" textLength="330" x="1697.5" y="1003.231">Retrieve the PayerFSP Participant Callback Endpoint</text>
    <text fill="#000000" font-family="sans-serif" font-size="13" lengthAdjust="spacingAndGlyphs" textLength="299" x="1697.5" y="1018.3638">GET - /participants/{FSPIOP-Source}/endpoints</text>
    <text fill="#388724" font-family="sans-serif" font-size="13" font-weight="bold" lengthAdjust="spacingAndGlyphs" textLength="118" x="1697.5" y="1033.4966">Response code:</text>
    <text fill="#388724" font-family="sans-serif" font-size="13" lengthAdjust="spacingAndGlyphs" textLength="24" x="1819.5" y="1033.4966">200</text>
    <text fill="#000000" font-family="sans-serif" font-size="13" lengthAdjust="spacingAndGlyphs" textLength="0" x="1847.5" y="1033.4966"/>
    <text fill="#FF0000" font-family="sans-serif" font-size="13" font-weight="bold" lengthAdjust="spacingAndGlyphs" textLength="82" x="1697.5" y="1048.6294">Error code:</text>
    <text fill="#FF0000" font-family="sans-serif" font-size="13" lengthAdjust="spacingAndGlyphs" textLength="109" x="1783.5" y="1048.6294">200x, 310x, 320x</text>
    <polygon fill="#A80036" points="1679.5,1078.8281,1669.5,1082.8281,1679.5,1086.8281,1675.5,1082.8281" style="stroke:#A80036;stroke-width:1.0"/>
    <line style="stroke:#A80036;stroke-width:1.0;stroke-dasharray:2.0,2.0" x1="1673.5" x2="2043.5" y1="1082.8281" y2="1082.8281"/>
    <text fill="#000000" font-family="sans-serif" font-size="13" font-weight="bold" lengthAdjust="spacingAndGlyphs" textLength="18" x="1685.5" y="1077.7622">14</text>
    <text fill="#000000" font-family="sans-serif" font-size="13" lengthAdjust="spacingAndGlyphs" textLength="298" x="1707.5" y="1077.7622">List of PayerFSP Participant Callback Endpoints</text>
    <polygon fill="#A80036" points="934,1107.9609,924,1111.9609,934,1115.9609,930,1111.9609" style="stroke:#A80036;stroke-width:1.0"/>
    <line style="stroke:#A80036;stroke-width:1.0;stroke-dasharray:2.0,2.0" x1="928" x2="1662.5" y1="1111.9609" y2="1111.9609"/>
    <text fill="#000000" font-family="sans-serif" font-size="13" font-weight="bold" lengthAdjust="spacingAndGlyphs" textLength="18" x="940" y="1106.895">15</text>
    <text fill="#000000" font-family="sans-serif" font-size="13" lengthAdjust="spacingAndGlyphs" textLength="298" x="962" y="1106.895">List of PayerFSP Participant Callback Endpoints</text>
    <line style="stroke:#A80036;stroke-width:1.0" x1="923" x2="965" y1="1156.2266" y2="1156.2266"/>
    <line style="stroke:#A80036;stroke-width:1.0" x1="965" x2="965" y1="1156.2266" y2="1169.2266"/>
    <line style="stroke:#A80036;stroke-width:1.0" x1="924" x2="965" y1="1169.2266" y2="1169.2266"/>
    <polygon fill="#A80036" points="934,1165.2266,924,1169.2266,934,1173.2266,930,1169.2266" style="stroke:#A80036;stroke-width:1.0"/>
    <text fill="#000000" font-family="sans-serif" font-size="13" font-weight="bold" lengthAdjust="spacingAndGlyphs" textLength="18" x="930" y="1143.5942">16</text>
    <text fill="#000000" font-family="sans-serif" font-size="13" lengthAdjust="spacingAndGlyphs" textLength="320" x="952" y="1136.0278">Match PayerFSP Participant Callback Endpoints for</text>
    <text fill="#000000" font-family="sans-serif" font-size="13" lengthAdjust="spacingAndGlyphs" textLength="271" x="952" y="1151.1606">FSPIOP_CALLBACK_URL_PARTICIPANT_PUT</text>
    <polygon fill="#A80036" points="642,1194.3594,632,1198.3594,642,1202.3594,638,1198.3594" style="stroke:#A80036;stroke-width:1.0"/>
    <line style="stroke:#A80036;stroke-width:1.0;stroke-dasharray:2.0,2.0" x1="636" x2="912" y1="1198.3594" y2="1198.3594"/>
    <text fill="#000000" font-family="sans-serif" font-size="13" font-weight="bold" lengthAdjust="spacingAndGlyphs" textLength="18" x="648" y="1193.2935">17</text>
    <text fill="#000000" font-family="sans-serif" font-size="13" lengthAdjust="spacingAndGlyphs" textLength="229" x="670" y="1193.2935">Return list of Participant information</text>
    <line style="stroke:#A80036;stroke-width:1.0" x1="99" x2="109" y1="1227.4922" y2="1223.4922"/>
    <line style="stroke:#A80036;stroke-width:1.0" x1="99" x2="109" y1="1227.4922" y2="1231.4922"/>
    <line style="stroke:#A80036;stroke-width:1.0" x1="99" x2="620" y1="1227.4922" y2="1227.4922"/>
    <text fill="#000000" font-family="sans-serif" font-size="13" font-weight="bold" lengthAdjust="spacingAndGlyphs" textLength="18" x="116" y="1222.4263">18</text>
    <text fill="#000000" font-family="sans-serif" font-size="13" lengthAdjust="spacingAndGlyphs" textLength="419" x="138" y="1222.4263">Callback: PUT - /participants/{TYPE}/{ID}?currency={CURRENCY}</text>
    <line style="stroke:#000000;stroke-width:1.0;stroke-dasharray:2.0,2.0" x1="52" x2="2306" y1="1236.4922" y2="1236.4922"/>
    <text fill="#000000" font-family="sans-serif" font-size="11" font-weight="bold" lengthAdjust="spacingAndGlyphs" textLength="276" x="57" y="1246.7026">[oracleEndpoint IS NULL OR error occurred]</text>
    <polygon fill="#A80036" points="1646.5,1282.5625,1656.5,1286.5625,1646.5,1290.5625,1650.5,1286.5625" style="stroke:#A80036;stroke-width:1.0"/>
    <line style="stroke:#A80036;stroke-width:1.0" x1="923" x2="1652.5" y1="1286.5625" y2="1286.5625"/>
    <text fill="#000000" font-family="sans-serif" font-size="13" font-weight="bold" lengthAdjust="spacingAndGlyphs" textLength="18" x="930" y="1273.9302">19</text>
    <text fill="#000000" font-family="sans-serif" font-size="13" lengthAdjust="spacingAndGlyphs" textLength="266" x="952" y="1266.3638">Retrieve the Participant Callback Endpoint</text>
    <text fill="#FF0000" font-family="sans-serif" font-size="13" font-weight="bold" lengthAdjust="spacingAndGlyphs" textLength="82" x="952" y="1281.4966">Error code:</text>
    <text fill="#FF0000" font-family="sans-serif" font-size="13" lengthAdjust="spacingAndGlyphs" textLength="109" x="1038" y="1281.4966">200x, 310x, 320x</text>
    <polygon fill="#A80036" points="2027.5,1357.0938,2037.5,1361.0938,2027.5,1365.0938,2031.5,1361.0938" style="stroke:#A80036;stroke-width:1.0"/>
    <line style="stroke:#A80036;stroke-width:1.0" x1="1668.5" x2="2033.5" y1="1361.0938" y2="1361.0938"/>
    <text fill="#000000" font-family="sans-serif" font-size="13" font-weight="bold" lengthAdjust="spacingAndGlyphs" textLength="18" x="1675.5" y="1333.3286">20</text>
    <text fill="#000000" font-family="sans-serif" font-size="13" lengthAdjust="spacingAndGlyphs" textLength="266" x="1697.5" y="1310.6294">Retrieve the Participant Callback Endpoint</text>
    <text fill="#000000" font-family="sans-serif" font-size="13" lengthAdjust="spacingAndGlyphs" textLength="303" x="1697.5" y="1325.7622">GET - /participants/{FSPIOP-Source}/endpoints.</text>
    <text fill="#388724" font-family="sans-serif" font-size="13" font-weight="bold" lengthAdjust="spacingAndGlyphs" textLength="118" x="1697.5" y="1340.895">Response code:</text>
    <text fill="#388724" font-family="sans-serif" font-size="13" lengthAdjust="spacingAndGlyphs" textLength="24" x="1820.5" y="1340.895">200</text>
    <text fill="#000000" font-family="sans-serif" font-size="13" lengthAdjust="spacingAndGlyphs" textLength="0" x="1848.5" y="1340.895"/>
    <text fill="#FF0000" font-family="sans-serif" font-size="13" font-weight="bold" lengthAdjust="spacingAndGlyphs" textLength="82" x="1697.5" y="1356.0278">Error code:</text>
    <text fill="#FF0000" font-family="sans-serif" font-size="13" lengthAdjust="spacingAndGlyphs" textLength="109" x="1783.5" y="1356.0278">200x, 310x, 320x</text>
    <polygon fill="#A80036" points="1679.5,1386.2266,1669.5,1390.2266,1679.5,1394.2266,1675.5,1390.2266" style="stroke:#A80036;stroke-width:1.0"/>
    <line style="stroke:#A80036;stroke-width:1.0;stroke-dasharray:2.0,2.0" x1="1673.5" x2="2043.5" y1="1390.2266" y2="1390.2266"/>
    <text fill="#000000" font-family="sans-serif" font-size="13" font-weight="bold" lengthAdjust="spacingAndGlyphs" textLength="18" x="1685.5" y="1385.1606">21</text>
    <text fill="#000000" font-family="sans-serif" font-size="13" lengthAdjust="spacingAndGlyphs" textLength="234" x="1707.5" y="1385.1606">List of Participant Callback Endpoints</text>
    <polygon fill="#A80036" points="934,1415.3594,924,1419.3594,934,1423.3594,930,1419.3594" style="stroke:#A80036;stroke-width:1.0"/>
    <line style="stroke:#A80036;stroke-width:1.0;stroke-dasharray:2.0,2.0" x1="928" x2="1662.5" y1="1419.3594" y2="1419.3594"/>
    <text fill="#000000" font-family="sans-serif" font-size="13" font-weight="bold" lengthAdjust="spacingAndGlyphs" textLength="18" x="940" y="1414.2935">22</text>
    <text fill="#000000" font-family="sans-serif" font-size="13" lengthAdjust="spacingAndGlyphs" textLength="234" x="962" y="1414.2935">List of Participant Callback Endpoints</text>
    <line style="stroke:#A80036;stroke-width:1.0" x1="923" x2="965" y1="1463.625" y2="1463.625"/>
    <line style="stroke:#A80036;stroke-width:1.0" x1="965" x2="965" y1="1463.625" y2="1476.625"/>
    <line style="stroke:#A80036;stroke-width:1.0" x1="924" x2="965" y1="1476.625" y2="1476.625"/>
    <polygon fill="#A80036" points="934,1472.625,924,1476.625,934,1480.625,930,1476.625" style="stroke:#A80036;stroke-width:1.0"/>
    <text fill="#000000" font-family="sans-serif" font-size="13" font-weight="bold" lengthAdjust="spacingAndGlyphs" textLength="18" x="930" y="1450.9927">23</text>
    <text fill="#000000" font-family="sans-serif" font-size="13" lengthAdjust="spacingAndGlyphs" textLength="256" x="952" y="1443.4263">Match Participant Callback Endpoints for</text>
    <text fill="#000000" font-family="sans-serif" font-size="13" lengthAdjust="spacingAndGlyphs" textLength="320" x="952" y="1458.5591">FSPIOP_CALLBACK_URL_PARTICIPANT_PUT_ERROR</text>
    <polygon fill="#A80036" points="642,1516.8906,632,1520.8906,642,1524.8906,638,1520.8906" style="stroke:#A80036;stroke-width:1.0"/>
    <line style="stroke:#A80036;stroke-width:1.0;stroke-dasharray:2.0,2.0" x1="636" x2="912" y1="1520.8906" y2="1520.8906"/>
    <text fill="#000000" font-family="sans-serif" font-size="13" font-weight="bold" lengthAdjust="spacingAndGlyphs" textLength="18" x="648" y="1508.2583">24</text>
    <text fill="#000000" font-family="sans-serif" font-size="13" lengthAdjust="spacingAndGlyphs" textLength="80" x="670" y="1500.6919">Handle error</text>
    <text fill="#FF0000" font-family="sans-serif" font-size="13" font-weight="bold" lengthAdjust="spacingAndGlyphs" textLength="82" x="670" y="1515.8247">Error code:</text>
    <text fill="#FF0000" font-family="sans-serif" font-size="13" lengthAdjust="spacingAndGlyphs" textLength="109" x="756" y="1515.8247">200x, 310x, 320x</text>
    <line style="stroke:#A80036;stroke-width:1.0" x1="99" x2="109" y1="1550.0234" y2="1546.0234"/>
    <line style="stroke:#A80036;stroke-width:1.0" x1="99" x2="109" y1="1550.0234" y2="1554.0234"/>
    <line style="stroke:#A80036;stroke-width:1.0" x1="99" x2="620" y1="1550.0234" y2="1550.0234"/>
    <text fill="#000000" font-family="sans-serif" font-size="13" font-weight="bold" lengthAdjust="spacingAndGlyphs" textLength="18" x="116" y="1544.9575">25</text>
    <text fill="#000000" font-family="sans-serif" font-size="13" lengthAdjust="spacingAndGlyphs" textLength="296" x="138" y="1544.9575">Callback: PUT - /participants/{TYPE}/{ID}/error</text>
    <line style="stroke:#000000;stroke-width:1.0;stroke-dasharray:2.0,2.0" x1="52" x2="2306" y1="1559.0234" y2="1559.0234"/>
    <text fill="#000000" font-family="sans-serif" font-size="11" font-weight="bold" lengthAdjust="spacingAndGlyphs" textLength="161" x="57" y="1569.2339">[switchEndpoint IS NULL]</text>
    <line style="stroke:#A80036;stroke-width:1.0" x1="923" x2="965" y1="1609.0938" y2="1609.0938"/>
    <line style="stroke:#A80036;stroke-width:1.0" x1="965" x2="965" y1="1609.0938" y2="1622.0938"/>
    <line style="stroke:#A80036;stroke-width:1.0" x1="924" x2="965" y1="1622.0938" y2="1622.0938"/>
    <polygon fill="#A80036" points="934,1618.0938,924,1622.0938,934,1626.0938,930,1622.0938" style="stroke:#A80036;stroke-width:1.0"/>
    <text fill="#000000" font-family="sans-serif" font-size="13" font-weight="bold" lengthAdjust="spacingAndGlyphs" textLength="18" x="930" y="1596.4614">26</text>
    <text fill="#000000" font-family="sans-serif" font-size="13" lengthAdjust="spacingAndGlyphs" textLength="80" x="952" y="1588.895">Handle error</text>
    <text fill="#FF0000" font-family="sans-serif" font-size="13" font-weight="bold" lengthAdjust="spacingAndGlyphs" textLength="82" x="952" y="1604.0278">Error code:</text>
    <text fill="#FF0000" font-family="sans-serif" font-size="13" lengthAdjust="spacingAndGlyphs" textLength="31" x="1038" y="1604.0278">200x</text>
    <polygon fill="#FF0000" filter="url(#f1848pezy2cnji)" points="938,1635.0938,1107,1635.0938,1117,1646.0938,1107,1658.0938,938,1658.0938,928,1646.0938,938,1635.0938" style="stroke:#A80036;stroke-width:1.0"/>
    <text fill="#FFFFFF" font-family="sans-serif" font-size="13" lengthAdjust="spacingAndGlyphs" textLength="165" x="940" y="1651.1606">Error Handling Framework</text>
  </g>
</svg>
