<svg xmlns="http://www.w3.org/2000/svg" xmlns:xlink="http://www.w3.org/1999/xlink" contentStyleType="text/css" height="933px" preserveAspectRatio="none" style="width:910px;height:933px;background:#FFFFFF;" version="1.1" viewBox="0 0 910 933" width="910px" zoomAndPan="magnify">
  <title>7.3.2 Create Oracle Endpoints</title>
  <defs/>
  <g>
    <text fill="#000000" font-family="sans-serif" font-size="14" font-weight="bold" lengthAdjust="spacing" textLength="236.6191" x="338.3962" y="27.9951">7.3.2 Create Oracle Endpoints</text>
    <rect fill="#FFFFE0" height="876.8438" style="stroke:#181818;stroke-width:0.5;" width="651.124" x="237.2876" y="43.2969"/>
    <text fill="#000000" font-family="sans-serif" font-size="13" font-weight="bold" lengthAdjust="spacing" textLength="175.5762" x="475.0615" y="55.3638">Account Lookup Service</text>
    <rect fill="#FFFFFF" height="443.6563" style="stroke:#181818;stroke-width:1.0;" width="10" x="83.8701" y="134.7266"/>
    <rect fill="#FFFFFF" height="383.2578" style="stroke:#181818;stroke-width:1.0;" width="10" x="361.3501" y="195.125"/>
    <rect fill="#FFFFFF" height="153.6641" style="stroke:#181818;stroke-width:1.0;" width="10" x="572.6528" y="395.5859"/>
    <rect fill="#FFFFFF" height="53.2656" style="stroke:#181818;stroke-width:1.0;" width="10" x="842.3994" y="466.8516"/>
    <rect fill="none" height="696.1172" style="stroke:#000000;stroke-width:1.5;" width="894.4116" x="10" y="141.7266"/>
    <rect fill="none" height="104.5313" style="stroke:#000000;stroke-width:1.5;" width="874.4116" x="20" y="481.8516"/>
    <rect fill="none" height="230.4609" style="stroke:#000000;stroke-width:1.5;" width="874.4116" x="20" y="600.3828"/>
    <line style="stroke:#181818;stroke-width:0.5;stroke-dasharray:5.0,5.0;" x1="88" x2="88" y1="124.7266" y2="854.8438"/>
    <line style="stroke:#181818;stroke-width:0.5;stroke-dasharray:5.0,5.0;" x1="366.2876" x2="366.2876" y1="124.7266" y2="854.8438"/>
    <line style="stroke:#181818;stroke-width:0.5;stroke-dasharray:5.0,5.0;" x1="577.4126" x2="577.4126" y1="124.7266" y2="854.8438"/>
    <line style="stroke:#181818;stroke-width:0.5;stroke-dasharray:5.0,5.0;" x1="847.3872" x2="847.3872" y1="124.7266" y2="854.8438"/>
    <text fill="#000000" font-family="sans-serif" font-size="14" lengthAdjust="spacing" textLength="111.7402" x="30" y="121.4248">HUB OPERATOR</text>
    <ellipse cx="88.8701" cy="92.4297" fill="#E2E2F0" rx="12" ry="12" style="stroke:#181818;stroke-width:0.5;"/>
    <line style="stroke:#181818;stroke-width:0.5;" x1="76.8701" x2="100.8701" y1="106.4297" y2="106.4297"/>
    <text fill="#000000" font-family="sans-serif" font-size="14" lengthAdjust="spacing" textLength="111.7402" x="30" y="866.8389">HUB OPERATOR</text>
    <ellipse cx="88.8701" cy="886.1406" fill="#E2E2F0" rx="12" ry="12" style="stroke:#181818;stroke-width:0.5;"/>
    <line style="stroke:#181818;stroke-width:0.5;" x1="76.8701" x2="100.8701" y1="900.1406" y2="900.1406"/>
    <text fill="#000000" font-family="sans-serif" font-size="14" lengthAdjust="spacing" textLength="244.125" x="241.2876" y="121.4248">Account Lookup Service Admin API</text>
    <path d="M345.8501,80.4297 L345.8501,104.4297 M345.8501,92.4297 L362.8501,92.4297 " fill="none" style="stroke:#181818;stroke-width:0.5;"/>
    <ellipse cx="374.8501" cy="92.4297" fill="#E2E2F0" rx="12" ry="12" style="stroke:#181818;stroke-width:0.5;"/>
    <text fill="#000000" font-family="sans-serif" font-size="14" lengthAdjust="spacing" textLength="244.125" x="241.2876" y="866.8389">Account Lookup Service Admin API</text>
    <path d="M345.8501,874.1406 L345.8501,898.1406 M345.8501,886.1406 L362.8501,886.1406 " fill="none" style="stroke:#181818;stroke-width:0.5;"/>
    <ellipse cx="374.8501" cy="886.1406" fill="#E2E2F0" rx="12" ry="12" style="stroke:#181818;stroke-width:0.5;"/>
    <text fill="#000000" font-family="sans-serif" font-size="14" lengthAdjust="spacing" textLength="146.4805" x="501.4126" y="121.4248">POST Oracle Handler</text>
    <ellipse cx="577.6528" cy="92.4297" fill="#E2E2F0" rx="12" ry="12" style="stroke:#181818;stroke-width:0.5;"/>
    <polygon fill="#181818" points="573.6528,80.4297,579.6528,75.4297,577.6528,80.4297,579.6528,85.4297,573.6528,80.4297" style="stroke:#181818;stroke-width:1.0;"/>
    <text fill="#000000" font-family="sans-serif" font-size="14" lengthAdjust="spacing" textLength="146.4805" x="501.4126" y="866.8389">POST Oracle Handler</text>
    <ellipse cx="577.6528" cy="886.1406" fill="#E2E2F0" rx="12" ry="12" style="stroke:#181818;stroke-width:0.5;"/>
    <polygon fill="#181818" points="573.6528,874.1406,579.6528,869.1406,577.6528,874.1406,579.6528,879.1406,573.6528,874.1406" style="stroke:#181818;stroke-width:1.0;"/>
    <text fill="#000000" font-family="sans-serif" font-size="14" lengthAdjust="spacing" textLength="68.0244" x="810.3872" y="121.4248">ALS Store</text>
    <path d="M829.3994,72.4297 C829.3994,62.4297 847.3994,62.4297 847.3994,62.4297 C847.3994,62.4297 865.3994,62.4297 865.3994,72.4297 L865.3994,98.4297 C865.3994,108.4297 847.3994,108.4297 847.3994,108.4297 C847.3994,108.4297 829.3994,108.4297 829.3994,98.4297 L829.3994,72.4297 " fill="#E2E2F0" style="stroke:#181818;stroke-width:1.5;"/>
    <path d="M829.3994,72.4297 C829.3994,82.4297 847.3994,82.4297 847.3994,82.4297 C847.3994,82.4297 865.3994,82.4297 865.3994,72.4297 " fill="none" style="stroke:#181818;stroke-width:1.5;"/>
    <text fill="#000000" font-family="sans-serif" font-size="14" lengthAdjust="spacing" textLength="68.0244" x="810.3872" y="866.8389">ALS Store</text>
    <path d="M829.3994,880.1406 C829.3994,870.1406 847.3994,870.1406 847.3994,870.1406 C847.3994,870.1406 865.3994,870.1406 865.3994,880.1406 L865.3994,906.1406 C865.3994,916.1406 847.3994,916.1406 847.3994,916.1406 C847.3994,916.1406 829.3994,916.1406 829.3994,906.1406 L829.3994,880.1406 " fill="#E2E2F0" style="stroke:#181818;stroke-width:1.5;"/>
    <path d="M829.3994,880.1406 C829.3994,890.1406 847.3994,890.1406 847.3994,890.1406 C847.3994,890.1406 865.3994,890.1406 865.3994,880.1406 " fill="none" style="stroke:#181818;stroke-width:1.5;"/>
    <rect fill="#FFFFFF" height="443.6563" style="stroke:#181818;stroke-width:1.0;" width="10" x="83.8701" y="134.7266"/>
    <rect fill="#FFFFFF" height="383.2578" style="stroke:#181818;stroke-width:1.0;" width="10" x="361.3501" y="195.125"/>
    <rect fill="#FFFFFF" height="153.6641" style="stroke:#181818;stroke-width:1.0;" width="10" x="572.6528" y="395.5859"/>
    <rect fill="#FFFFFF" height="53.2656" style="stroke:#181818;stroke-width:1.0;" width="10" x="842.3994" y="466.8516"/>
    <path d="M10,141.7266 L202.5703,141.7266 L202.5703,148.8594 L192.5703,158.8594 L10,158.8594 L10,141.7266 " fill="#EEEEEE" style="stroke:#000000;stroke-width:1.5;"/>
    <rect fill="none" height="696.1172" style="stroke:#000000;stroke-width:1.5;" width="894.4116" x="10" y="141.7266"/>
    <text fill="#000000" font-family="sans-serif" font-size="13" font-weight="bold" lengthAdjust="spacing" textLength="147.5703" x="25" y="154.7935">Get Oracle Endpoint</text>
    <polygon fill="#181818" points="349.3501,191.125,359.3501,195.125,349.3501,199.125,353.3501,195.125" style="stroke:#181818;stroke-width:1.0;"/>
    <line style="stroke:#181818;stroke-width:1.0;" x1="93.8701" x2="355.3501" y1="195.125" y2="195.125"/>
    <text fill="#000000" font-family="sans-serif" font-size="13" font-weight="bold" lengthAdjust="spacing" textLength="9.0454" x="100.8701" y="182.4927">1</text>
    <text fill="#000000" font-family="sans-serif" font-size="13" lengthAdjust="spacing" textLength="235.4346" x="113.9155" y="174.9263">Request to Create Oracle Endpoint -</text>
    <text fill="#000000" font-family="sans-serif" font-size="13" lengthAdjust="spacing" textLength="89.5718" x="113.9155" y="190.0591">POST /oracles</text>
    <path d="M80,208.125 L80,369.125 L355,369.125 L355,218.125 L345,208.125 L80,208.125 " fill="#FFFF00" style="stroke:#181818;stroke-width:0.5;"/>
    <path d="M345,208.125 L345,218.125 L355,218.125 L345,208.125 " fill="#FFFF00" style="stroke:#181818;stroke-width:0.5;"/>
    <text fill="#000000" font-family="sans-serif" font-size="13" lengthAdjust="spacing" textLength="61.3564" x="86" y="225.1919">Message:</text>
    <text fill="#000000" font-family="sans-serif" font-size="13" lengthAdjust="spacing" textLength="8.271" x="86" y="240.3247">{</text>
    <text fill="#000000" font-family="sans-serif" font-size="13" lengthAdjust="spacing" textLength="208.292" x="102.5293" y="255.4575">&quot;oracleIdType&quot;: &lt;PartyIdType&gt;,</text>
    <text fill="#000000" font-family="sans-serif" font-size="13" lengthAdjust="spacing" textLength="86.3853" x="102.5293" y="270.5903">&quot;endpoint&quot;: {</text>
    <text fill="#000000" font-family="sans-serif" font-size="13" lengthAdjust="spacing" textLength="119.2153" x="119.0586" y="285.7231">&quot;value&quot;: &lt;string&gt;,</text>
    <text fill="#000000" font-family="sans-serif" font-size="13" lengthAdjust="spacing" textLength="221.5269" x="119.0586" y="300.856">&quot;endpointType&quot;: &lt;EndpointType&gt;</text>
    <text fill="#000000" font-family="sans-serif" font-size="13" lengthAdjust="spacing" textLength="12.4033" x="102.5293" y="315.9888">},</text>
    <text fill="#000000" font-family="sans-serif" font-size="13" lengthAdjust="spacing" textLength="162.627" x="102.5293" y="331.1216">&quot;currency&quot;: &lt;Currency&gt;,</text>
    <text fill="#000000" font-family="sans-serif" font-size="13" lengthAdjust="spacing" textLength="152.1152" x="102.5293" y="346.2544">&quot;isDefault&quot;: &lt;boolean&gt;</text>
    <text fill="#000000" font-family="sans-serif" font-size="13" lengthAdjust="spacing" textLength="8.271" x="86" y="361.3872">}</text>
    <polygon fill="#181818" points="560.6528,391.5859,570.6528,395.5859,560.6528,399.5859,564.6528,395.5859" style="stroke:#181818;stroke-width:1.0;"/>
    <line style="stroke:#181818;stroke-width:1.0;" x1="371.3501" x2="566.6528" y1="395.5859" y2="395.5859"/>
    <text fill="#000000" font-family="sans-serif" font-size="13" font-weight="bold" lengthAdjust="spacing" textLength="9.0454" x="378.3501" y="390.52">2</text>
    <text fill="#000000" font-family="sans-serif" font-size="13" lengthAdjust="spacing" textLength="151.9058" x="391.3955" y="390.52">Create Oracle Endpoint</text>
    <line style="stroke:#181818;stroke-width:1.0;" x1="582.6528" x2="624.6528" y1="424.7188" y2="424.7188"/>
    <line style="stroke:#181818;stroke-width:1.0;" x1="624.6528" x2="624.6528" y1="424.7188" y2="437.7188"/>
    <line style="stroke:#181818;stroke-width:1.0;" x1="583.6528" x2="624.6528" y1="437.7188" y2="437.7188"/>
    <polygon fill="#181818" points="593.6528,433.7188,583.6528,437.7188,593.6528,441.7188,589.6528,437.7188" style="stroke:#181818;stroke-width:1.0;"/>
    <text fill="#000000" font-family="sans-serif" font-size="13" font-weight="bold" lengthAdjust="spacing" textLength="9.0454" x="589.6528" y="419.6528">3</text>
    <text fill="#000000" font-family="sans-serif" font-size="13" lengthAdjust="spacing" textLength="222.7012" x="602.6982" y="419.6528">Build Oracle Endpoint Data Object</text>
    <polygon fill="#181818" points="830.3994,462.8516,840.3994,466.8516,830.3994,470.8516,834.3994,466.8516" style="stroke:#181818;stroke-width:1.0;"/>
    <line style="stroke:#181818;stroke-width:1.0;" x1="582.6528" x2="836.3994" y1="466.8516" y2="466.8516"/>
    <text fill="#000000" font-family="sans-serif" font-size="13" font-weight="bold" lengthAdjust="spacing" textLength="9.0454" x="589.6528" y="461.7856">4</text>
    <text fill="#000000" font-family="sans-serif" font-size="13" lengthAdjust="spacing" textLength="227.354" x="602.6982" y="461.7856">Insert Oracle Endpoint Data Object</text>
    <path d="M20,481.8516 L84.4429,481.8516 L84.4429,488.9844 L74.4429,498.9844 L20,498.9844 L20,481.8516 " fill="#EEEEEE" style="stroke:#000000;stroke-width:1.5;"/>
    <rect fill="none" height="104.5313" style="stroke:#000000;stroke-width:1.5;" width="874.4116" x="20" y="481.8516"/>
    <text fill="#000000" font-family="sans-serif" font-size="13" font-weight="bold" lengthAdjust="spacing" textLength="19.4429" x="35" y="494.9185">alt</text>
    <text fill="#000000" font-family="sans-serif" font-size="11" font-weight="bold" lengthAdjust="spacing" textLength="193.8213" x="99.4429" y="494.062">[Create Oracle Entry (success)]</text>
    <polygon fill="#181818" points="593.6528,516.1172,583.6528,520.1172,593.6528,524.1172,589.6528,520.1172" style="stroke:#181818;stroke-width:1.0;"/>
    <line style="stroke:#181818;stroke-width:1.0;stroke-dasharray:2.0,2.0;" x1="587.6528" x2="846.3994" y1="520.1172" y2="520.1172"/>
    <text fill="#000000" font-family="sans-serif" font-size="13" font-weight="bold" lengthAdjust="spacing" textLength="9.0454" x="599.6528" y="515.0513">5</text>
    <text fill="#000000" font-family="sans-serif" font-size="13" lengthAdjust="spacing" textLength="162.3984" x="612.6982" y="515.0513">Return success response</text>
    <polygon fill="#181818" points="382.3501,545.25,372.3501,549.25,382.3501,553.25,378.3501,549.25" style="stroke:#181818;stroke-width:1.0;"/>
    <line style="stroke:#181818;stroke-width:1.0;" x1="376.3501" x2="576.6528" y1="549.25" y2="549.25"/>
    <text fill="#000000" font-family="sans-serif" font-size="13" font-weight="bold" lengthAdjust="spacing" textLength="9.0454" x="388.3501" y="544.1841">6</text>
    <text fill="#000000" font-family="sans-serif" font-size="13" lengthAdjust="spacing" textLength="162.3984" x="401.3955" y="544.1841">Return success response</text>
    <polygon fill="#181818" points="99.8701,574.3828,89.8701,578.3828,99.8701,582.3828,95.8701,578.3828" style="stroke:#181818;stroke-width:1.0;"/>
    <line style="stroke:#181818;stroke-width:1.0;stroke-dasharray:2.0,2.0;" x1="93.8701" x2="365.3501" y1="578.3828" y2="578.3828"/>
    <text fill="#000000" font-family="sans-serif" font-size="13" font-weight="bold" lengthAdjust="spacing" textLength="9.0454" x="105.8701" y="573.3169">7</text>
    <text fill="#000000" font-family="sans-serif" font-size="13" lengthAdjust="spacing" textLength="43.9512" x="118.9155" y="573.3169">Return</text>
    <text fill="#000000" font-family="sans-serif" font-size="13" font-weight="bold" lengthAdjust="spacing" textLength="95.4243" x="166.999" y="573.3169">HTTP Status:</text>
    <text fill="#000000" font-family="sans-serif" font-size="13" lengthAdjust="spacing" textLength="24.813" x="266.5557" y="573.3169">201</text>
    <path d="M20,600.3828 L84.4429,600.3828 L84.4429,607.5156 L74.4429,617.5156 L20,617.5156 L20,600.3828 " fill="#EEEEEE" style="stroke:#000000;stroke-width:1.5;"/>
    <rect fill="none" height="230.4609" style="stroke:#000000;stroke-width:1.5;" width="874.4116" x="20" y="600.3828"/>
    <text fill="#000000" font-family="sans-serif" font-size="13" font-weight="bold" lengthAdjust="spacing" textLength="19.4429" x="35" y="613.4497">alt</text>
    <text fill="#000000" font-family="sans-serif" font-size="11" font-weight="bold" lengthAdjust="spacing" textLength="186.3125" x="99.4429" y="612.5933">[Create Oracle Entry (failure)]</text>
    <polygon fill="#181818" points="588.6528,634.6484,578.6528,638.6484,588.6528,642.6484,584.6528,638.6484" style="stroke:#181818;stroke-width:1.0;"/>
    <line style="stroke:#181818;stroke-width:1.0;stroke-dasharray:2.0,2.0;" x1="582.6528" x2="846.3994" y1="638.6484" y2="638.6484"/>
    <text fill="#000000" font-family="sans-serif" font-size="13" font-weight="bold" lengthAdjust="spacing" textLength="9.0454" x="594.6528" y="633.5825">8</text>
    <text fill="#000000" font-family="sans-serif" font-size="13" lengthAdjust="spacing" textLength="76.4448" x="607.6982" y="633.5825">Throw Error</text>
    <polygon fill="#181818" points="377.3501,663.7813,367.3501,667.7813,377.3501,671.7813,373.3501,667.7813" style="stroke:#181818;stroke-width:1.0;"/>
    <line style="stroke:#181818;stroke-width:1.0;" x1="371.3501" x2="576.6528" y1="667.7813" y2="667.7813"/>
    <text fill="#000000" font-family="sans-serif" font-size="13" font-weight="bold" lengthAdjust="spacing" textLength="9.0454" x="383.3501" y="662.7153">9</text>
    <text fill="#000000" font-family="sans-serif" font-size="13" lengthAdjust="spacing" textLength="76.4448" x="396.3955" y="662.7153">Throw Error</text>
    <path d="M126,680.7813 L126,795.7813 L361,795.7813 L361,690.7813 L351,680.7813 L126,680.7813 " fill="#FFFF00" style="stroke:#181818;stroke-width:0.5;"/>
    <path d="M351,680.7813 L351,690.7813 L361,690.7813 L351,680.7813 " fill="#FFFF00" style="stroke:#181818;stroke-width:0.5;"/>
    <text fill="#000000" font-family="sans-serif" font-size="13" lengthAdjust="spacing" textLength="61.3564" x="132" y="697.8481">Message:</text>
    <text fill="#000000" font-family="sans-serif" font-size="13" lengthAdjust="spacing" textLength="8.271" x="132" y="712.981">{</text>
    <text fill="#000000" font-family="sans-serif" font-size="13" lengthAdjust="spacing" textLength="136.208" x="148.5293" y="728.1138">&quot;errorInformation&quot;: {</text>
    <text fill="#000000" font-family="sans-serif" font-size="13" lengthAdjust="spacing" textLength="181.27" x="165.0586" y="743.2466">&quot;errorCode&quot;: &lt;Error Code&gt;,</text>
    <text fill="#000000" font-family="sans-serif" font-size="13" lengthAdjust="spacing" textLength="178.6548" x="165.0586" y="758.3794">&quot;errorDescription&quot;: &lt;Msg&gt;,</text>
    <text fill="#000000" font-family="sans-serif" font-size="13" lengthAdjust="spacing" textLength="8.271" x="148.5293" y="773.5122">}</text>
    <text fill="#000000" font-family="sans-serif" font-size="13" lengthAdjust="spacing" textLength="8.271" x="132" y="788.645">}</text>
    <polygon fill="#181818" points="99.8701,818.8438,89.8701,822.8438,99.8701,826.8438,95.8701,822.8438" style="stroke:#181818;stroke-width:1.0;"/>
    <line style="stroke:#181818;stroke-width:1.0;stroke-dasharray:2.0,2.0;" x1="93.8701" x2="365.3501" y1="822.8438" y2="822.8438"/>
    <text fill="#000000" font-family="sans-serif" font-size="13" font-weight="bold" lengthAdjust="spacing" textLength="18.0908" x="105.8701" y="817.7778">10</text>
    <text fill="#000000" font-family="sans-serif" font-size="13" lengthAdjust="spacing" textLength="43.9512" x="127.9609" y="817.7778">Return</text>
    <text fill="#FF0000" font-family="sans-serif" font-size="13" font-weight="bold" lengthAdjust="spacing" textLength="95.4243" x="176.0444" y="817.7778">HTTP Status:</text>
    <text fill="#FF0000" font-family="sans-serif" font-size="13" lengthAdjust="spacing" textLength="24.813" x="275.6011" y="817.7778">502</text>
  </g>
</svg>
