<svg xmlns="http://www.w3.org/2000/svg" xmlns:xlink="http://www.w3.org/1999/xlink" contentStyleType="text/css" height="1267px" preserveAspectRatio="none" style="width:948px;height:1267px;background:#FFFFFF;" version="1.1" viewBox="0 0 948 1267" width="948px" zoomAndPan="magnify">
  <title>7.3.3 Update Oracle Endpoint</title>
  <defs/>
  <g>
    <text fill="#000000" font-family="sans-serif" font-size="14" font-weight="bold" lengthAdjust="spacing" textLength="233.0234" x="359.459" y="27.9951">7.3.3 Update Oracle Endpoint</text>
    <rect fill="#FFFFE0" height="1210.7031" style="stroke:#181818;stroke-width:0.5;" width="666.0547" x="250.8867" y="43.2969"/>
    <text fill="#000000" font-family="sans-serif" font-size="13" font-weight="bold" lengthAdjust="spacing" textLength="175.5762" x="496.126" y="55.3638">Account Lookup Service</text>
    <rect fill="#FFFFFF" height="526.0547" style="stroke:#181818;stroke-width:1.0;" width="10" x="93.8701" y="134.7266"/>
    <rect fill="#FFFFFF" height="465.6563" style="stroke:#181818;stroke-width:1.0;" width="10" x="374.9492" y="195.125"/>
    <rect fill="#FFFFFF" height="236.0625" style="stroke:#181818;stroke-width:1.0;" width="10" x="584.3931" y="395.5859"/>
    <rect fill="#FFFFFF" height="53.2656" style="stroke:#181818;stroke-width:1.0;" width="10" x="870.9292" y="424.7188"/>
    <rect fill="#FFFFFF" height="53.2656" style="stroke:#181818;stroke-width:1.0;" width="10" x="870.9292" y="549.25"/>
    <rect fill="none" height="1029.9766" style="stroke:#000000;stroke-width:1.5;" width="932.9414" x="10" y="141.7266"/>
    <rect fill="none" height="480.5234" style="stroke:#000000;stroke-width:1.5;" width="912.9414" x="20" y="439.7188"/>
    <rect fill="none" height="104.5313" style="stroke:#000000;stroke-width:1.5;" width="892.9414" x="30" y="564.25"/>
    <rect fill="none" height="230.4609" style="stroke:#000000;stroke-width:1.5;" width="892.9414" x="30" y="682.7813"/>
    <rect fill="none" height="230.4609" style="stroke:#000000;stroke-width:1.5;" width="892.9414" x="30" y="934.2422"/>
    <line style="stroke:#181818;stroke-width:0.5;stroke-dasharray:5.0,5.0;" x1="98" x2="98" y1="124.7266" y2="1188.7031"/>
    <line style="stroke:#181818;stroke-width:0.5;stroke-dasharray:5.0,5.0;" x1="379.8867" x2="379.8867" y1="124.7266" y2="1188.7031"/>
    <line style="stroke:#181818;stroke-width:0.5;stroke-dasharray:5.0,5.0;" x1="588.9824" x2="588.9824" y1="124.7266" y2="1188.7031"/>
    <line style="stroke:#181818;stroke-width:0.5;stroke-dasharray:5.0,5.0;" x1="875.917" x2="875.917" y1="124.7266" y2="1188.7031"/>
    <text fill="#000000" font-family="sans-serif" font-size="14" lengthAdjust="spacing" textLength="111.7402" x="40" y="121.4248">HUB OPERATOR</text>
    <ellipse cx="98.8701" cy="92.4297" fill="#E2E2F0" rx="12" ry="12" style="stroke:#181818;stroke-width:0.5;"/>
    <line style="stroke:#181818;stroke-width:0.5;" x1="86.8701" x2="110.8701" y1="106.4297" y2="106.4297"/>
    <text fill="#000000" font-family="sans-serif" font-size="14" lengthAdjust="spacing" textLength="111.7402" x="40" y="1200.6982">HUB OPERATOR</text>
    <ellipse cx="98.8701" cy="1220" fill="#E2E2F0" rx="12" ry="12" style="stroke:#181818;stroke-width:0.5;"/>
    <line style="stroke:#181818;stroke-width:0.5;" x1="86.8701" x2="110.8701" y1="1234" y2="1234"/>
    <text fill="#000000" font-family="sans-serif" font-size="14" lengthAdjust="spacing" textLength="244.125" x="254.8867" y="121.4248">Account Lookup Service Admin API</text>
    <path d="M359.4492,80.4297 L359.4492,104.4297 M359.4492,92.4297 L376.4492,92.4297 " fill="none" style="stroke:#181818;stroke-width:0.5;"/>
    <ellipse cx="388.4492" cy="92.4297" fill="#E2E2F0" rx="12" ry="12" style="stroke:#181818;stroke-width:0.5;"/>
    <text fill="#000000" font-family="sans-serif" font-size="14" lengthAdjust="spacing" textLength="244.125" x="254.8867" y="1200.6982">Account Lookup Service Admin API</text>
    <path d="M359.4492,1208 L359.4492,1232 M359.4492,1220 L376.4492,1220 " fill="none" style="stroke:#181818;stroke-width:0.5;"/>
    <ellipse cx="388.4492" cy="1220" fill="#E2E2F0" rx="12" ry="12" style="stroke:#181818;stroke-width:0.5;"/>
    <text fill="#000000" font-family="sans-serif" font-size="14" lengthAdjust="spacing" textLength="136.8213" x="517.9824" y="121.4248">PUT Oracle Handler</text>
    <ellipse cx="589.3931" cy="92.4297" fill="#E2E2F0" rx="12" ry="12" style="stroke:#181818;stroke-width:0.5;"/>
    <polygon fill="#181818" points="585.3931,80.4297,591.3931,75.4297,589.3931,80.4297,591.3931,85.4297,585.3931,80.4297" style="stroke:#181818;stroke-width:1.0;"/>
    <text fill="#000000" font-family="sans-serif" font-size="14" lengthAdjust="spacing" textLength="136.8213" x="517.9824" y="1200.6982">PUT Oracle Handler</text>
    <ellipse cx="589.3931" cy="1220" fill="#E2E2F0" rx="12" ry="12" style="stroke:#181818;stroke-width:0.5;"/>
    <polygon fill="#181818" points="585.3931,1208,591.3931,1203,589.3931,1208,591.3931,1213,585.3931,1208" style="stroke:#181818;stroke-width:1.0;"/>
    <text fill="#000000" font-family="sans-serif" font-size="14" lengthAdjust="spacing" textLength="68.0244" x="838.917" y="121.4248">ALS Store</text>
    <path d="M857.9292,72.4297 C857.9292,62.4297 875.9292,62.4297 875.9292,62.4297 C875.9292,62.4297 893.9292,62.4297 893.9292,72.4297 L893.9292,98.4297 C893.9292,108.4297 875.9292,108.4297 875.9292,108.4297 C875.9292,108.4297 857.9292,108.4297 857.9292,98.4297 L857.9292,72.4297 " fill="#E2E2F0" style="stroke:#181818;stroke-width:1.5;"/>
    <path d="M857.9292,72.4297 C857.9292,82.4297 875.9292,82.4297 875.9292,82.4297 C875.9292,82.4297 893.9292,82.4297 893.9292,72.4297 " fill="none" style="stroke:#181818;stroke-width:1.5;"/>
    <text fill="#000000" font-family="sans-serif" font-size="14" lengthAdjust="spacing" textLength="68.0244" x="838.917" y="1200.6982">ALS Store</text>
    <path d="M857.9292,1214 C857.9292,1204 875.9292,1204 875.9292,1204 C875.9292,1204 893.9292,1204 893.9292,1214 L893.9292,1240 C893.9292,1250 875.9292,1250 875.9292,1250 C875.9292,1250 857.9292,1250 857.9292,1240 L857.9292,1214 " fill="#E2E2F0" style="stroke:#181818;stroke-width:1.5;"/>
    <path d="M857.9292,1214 C857.9292,1224 875.9292,1224 875.9292,1224 C875.9292,1224 893.9292,1224 893.9292,1214 " fill="none" style="stroke:#181818;stroke-width:1.5;"/>
    <rect fill="#FFFFFF" height="526.0547" style="stroke:#181818;stroke-width:1.0;" width="10" x="93.8701" y="134.7266"/>
    <rect fill="#FFFFFF" height="465.6563" style="stroke:#181818;stroke-width:1.0;" width="10" x="374.9492" y="195.125"/>
    <rect fill="#FFFFFF" height="236.0625" style="stroke:#181818;stroke-width:1.0;" width="10" x="584.3931" y="395.5859"/>
    <rect fill="#FFFFFF" height="53.2656" style="stroke:#181818;stroke-width:1.0;" width="10" x="870.9292" y="424.7188"/>
    <rect fill="#FFFFFF" height="53.2656" style="stroke:#181818;stroke-width:1.0;" width="10" x="870.9292" y="549.25"/>
    <path d="M10,141.7266 L202.5703,141.7266 L202.5703,148.8594 L192.5703,158.8594 L10,158.8594 L10,141.7266 " fill="#EEEEEE" style="stroke:#000000;stroke-width:1.5;"/>
    <rect fill="none" height="1029.9766" style="stroke:#000000;stroke-width:1.5;" width="932.9414" x="10" y="141.7266"/>
    <text fill="#000000" font-family="sans-serif" font-size="13" font-weight="bold" lengthAdjust="spacing" textLength="147.5703" x="25" y="154.7935">Get Oracle Endpoint</text>
    <polygon fill="#181818" points="362.9492,191.125,372.9492,195.125,362.9492,199.125,366.9492,195.125" style="stroke:#181818;stroke-width:1.0;"/>
    <line style="stroke:#181818;stroke-width:1.0;" x1="103.8701" x2="368.9492" y1="195.125" y2="195.125"/>
    <text fill="#000000" font-family="sans-serif" font-size="13" font-weight="bold" lengthAdjust="spacing" textLength="9.0454" x="110.8701" y="182.4927">1</text>
    <text fill="#000000" font-family="sans-serif" font-size="13" lengthAdjust="spacing" textLength="239.0337" x="123.9155" y="174.9263">Request to Update Oracle Endpoint -</text>
    <text fill="#000000" font-family="sans-serif" font-size="13" lengthAdjust="spacing" textLength="115.3687" x="123.9155" y="190.0591">PUT /oracles/{ID}</text>
    <path d="M94,208.125 L94,369.125 L369,369.125 L369,218.125 L359,208.125 L94,208.125 " fill="#FFFF00" style="stroke:#181818;stroke-width:0.5;"/>
    <path d="M359,208.125 L359,218.125 L369,218.125 L359,208.125 " fill="#FFFF00" style="stroke:#181818;stroke-width:0.5;"/>
    <text fill="#000000" font-family="sans-serif" font-size="13" lengthAdjust="spacing" textLength="61.3564" x="100" y="225.1919">Message:</text>
    <text fill="#000000" font-family="sans-serif" font-size="13" lengthAdjust="spacing" textLength="8.271" x="100" y="240.3247">{</text>
    <text fill="#000000" font-family="sans-serif" font-size="13" lengthAdjust="spacing" textLength="208.292" x="116.5293" y="255.4575">&quot;oracleIdType&quot;: &lt;PartyIdType&gt;,</text>
    <text fill="#000000" font-family="sans-serif" font-size="13" lengthAdjust="spacing" textLength="86.3853" x="116.5293" y="270.5903">&quot;endpoint&quot;: {</text>
    <text fill="#000000" font-family="sans-serif" font-size="13" lengthAdjust="spacing" textLength="119.2153" x="133.0586" y="285.7231">&quot;value&quot;: &lt;string&gt;,</text>
    <text fill="#000000" font-family="sans-serif" font-size="13" lengthAdjust="spacing" textLength="221.5269" x="133.0586" y="300.856">&quot;endpointType&quot;: &lt;EndpointType&gt;</text>
    <text fill="#000000" font-family="sans-serif" font-size="13" lengthAdjust="spacing" textLength="12.4033" x="116.5293" y="315.9888">},</text>
    <text fill="#000000" font-family="sans-serif" font-size="13" lengthAdjust="spacing" textLength="162.627" x="116.5293" y="331.1216">&quot;currency&quot;: &lt;Currency&gt;,</text>
    <text fill="#000000" font-family="sans-serif" font-size="13" lengthAdjust="spacing" textLength="152.1152" x="116.5293" y="346.2544">&quot;isDefault&quot;: &lt;boolean&gt;</text>
    <text fill="#000000" font-family="sans-serif" font-size="13" lengthAdjust="spacing" textLength="8.271" x="100" y="361.3872">}</text>
    <polygon fill="#181818" points="572.3931,391.5859,582.3931,395.5859,572.3931,399.5859,576.3931,395.5859" style="stroke:#181818;stroke-width:1.0;"/>
    <line style="stroke:#181818;stroke-width:1.0;" x1="384.9492" x2="578.3931" y1="395.5859" y2="395.5859"/>
    <text fill="#000000" font-family="sans-serif" font-size="13" font-weight="bold" lengthAdjust="spacing" textLength="9.0454" x="391.9492" y="390.52">2</text>
    <text fill="#000000" font-family="sans-serif" font-size="13" lengthAdjust="spacing" textLength="155.5049" x="404.9946" y="390.52">Update Oracle Endpoint</text>
    <polygon fill="#181818" points="858.9292,420.7188,868.9292,424.7188,858.9292,428.7188,862.9292,424.7188" style="stroke:#181818;stroke-width:1.0;"/>
    <line style="stroke:#181818;stroke-width:1.0;" x1="594.3931" x2="864.9292" y1="424.7188" y2="424.7188"/>
    <text fill="#000000" font-family="sans-serif" font-size="13" font-weight="bold" lengthAdjust="spacing" textLength="9.0454" x="601.3931" y="419.6528">3</text>
    <text fill="#000000" font-family="sans-serif" font-size="13" lengthAdjust="spacing" textLength="191.4136" x="614.4385" y="419.6528">Find existing Oracle Endpoint</text>
    <path d="M20,439.7188 L84.4429,439.7188 L84.4429,446.8516 L74.4429,456.8516 L20,456.8516 L20,439.7188 " fill="#EEEEEE" style="stroke:#000000;stroke-width:1.5;"/>
    <rect fill="none" height="480.5234" style="stroke:#000000;stroke-width:1.5;" width="912.9414" x="20" y="439.7188"/>
    <text fill="#000000" font-family="sans-serif" font-size="13" font-weight="bold" lengthAdjust="spacing" textLength="19.4429" x="35" y="452.7856">alt</text>
    <text fill="#000000" font-family="sans-serif" font-size="11" font-weight="bold" lengthAdjust="spacing" textLength="255.46" x="99.4429" y="451.9292">[Find existing Oracle Endpoint (success)]</text>
    <polygon fill="#181818" points="605.3931,473.9844,595.3931,477.9844,605.3931,481.9844,601.3931,477.9844" style="stroke:#181818;stroke-width:1.0;"/>
    <line style="stroke:#181818;stroke-width:1.0;" x1="599.3931" x2="874.9292" y1="477.9844" y2="477.9844"/>
    <text fill="#000000" font-family="sans-serif" font-size="13" font-weight="bold" lengthAdjust="spacing" textLength="9.0454" x="611.3931" y="472.9185">4</text>
    <text fill="#000000" font-family="sans-serif" font-size="13" lengthAdjust="spacing" textLength="197.2598" x="624.4385" y="472.9185">Return Oracle Endpoint Result</text>
    <line style="stroke:#181818;stroke-width:1.0;" x1="594.3931" x2="636.3931" y1="507.1172" y2="507.1172"/>
    <line style="stroke:#181818;stroke-width:1.0;" x1="636.3931" x2="636.3931" y1="507.1172" y2="520.1172"/>
    <line style="stroke:#181818;stroke-width:1.0;" x1="595.3931" x2="636.3931" y1="520.1172" y2="520.1172"/>
    <polygon fill="#181818" points="605.3931,516.1172,595.3931,520.1172,605.3931,524.1172,601.3931,520.1172" style="stroke:#181818;stroke-width:1.0;"/>
    <text fill="#000000" font-family="sans-serif" font-size="13" font-weight="bold" lengthAdjust="spacing" textLength="9.0454" x="601.3931" y="502.0513">5</text>
    <text fill="#000000" font-family="sans-serif" font-size="13" lengthAdjust="spacing" textLength="239.4907" x="614.4385" y="502.0513">Update Returned Oracle Data Object</text>
    <polygon fill="#181818" points="858.9292,545.25,868.9292,549.25,858.9292,553.25,862.9292,549.25" style="stroke:#181818;stroke-width:1.0;"/>
    <line style="stroke:#181818;stroke-width:1.0;" x1="594.3931" x2="864.9292" y1="549.25" y2="549.25"/>
    <text fill="#000000" font-family="sans-serif" font-size="13" font-weight="bold" lengthAdjust="spacing" textLength="9.0454" x="601.3931" y="544.1841">6</text>
    <text fill="#000000" font-family="sans-serif" font-size="13" lengthAdjust="spacing" textLength="175.1572" x="614.4385" y="544.1841">Update Oracle Data Object</text>
    <path d="M30,564.25 L94.4429,564.25 L94.4429,571.3828 L84.4429,581.3828 L30,581.3828 L30,564.25 " fill="#EEEEEE" style="stroke:#000000;stroke-width:1.5;"/>
    <rect fill="none" height="104.5313" style="stroke:#000000;stroke-width:1.5;" width="892.9414" x="30" y="564.25"/>
    <text fill="#000000" font-family="sans-serif" font-size="13" font-weight="bold" lengthAdjust="spacing" textLength="19.4429" x="45" y="577.3169">alt</text>
    <text fill="#000000" font-family="sans-serif" font-size="11" font-weight="bold" lengthAdjust="spacing" textLength="197.5435" x="109.4429" y="576.4604">[Update Oracle Entry (success)]</text>
    <polygon fill="#181818" points="605.3931,598.5156,595.3931,602.5156,605.3931,606.5156,601.3931,602.5156" style="stroke:#181818;stroke-width:1.0;"/>
    <line style="stroke:#181818;stroke-width:1.0;stroke-dasharray:2.0,2.0;" x1="599.3931" x2="874.9292" y1="602.5156" y2="602.5156"/>
    <text fill="#000000" font-family="sans-serif" font-size="13" font-weight="bold" lengthAdjust="spacing" textLength="9.0454" x="611.3931" y="597.4497">7</text>
    <text fill="#000000" font-family="sans-serif" font-size="13" lengthAdjust="spacing" textLength="162.3984" x="624.4385" y="597.4497">Return success response</text>
    <polygon fill="#181818" points="395.9492,627.6484,385.9492,631.6484,395.9492,635.6484,391.9492,631.6484" style="stroke:#181818;stroke-width:1.0;"/>
    <line style="stroke:#181818;stroke-width:1.0;" x1="389.9492" x2="588.3931" y1="631.6484" y2="631.6484"/>
    <text fill="#000000" font-family="sans-serif" font-size="13" font-weight="bold" lengthAdjust="spacing" textLength="9.0454" x="401.9492" y="626.5825">8</text>
    <text fill="#000000" font-family="sans-serif" font-size="13" lengthAdjust="spacing" textLength="162.3984" x="414.9946" y="626.5825">Return success response</text>
    <polygon fill="#181818" points="109.8701,656.7813,99.8701,660.7813,109.8701,664.7813,105.8701,660.7813" style="stroke:#181818;stroke-width:1.0;"/>
    <line style="stroke:#181818;stroke-width:1.0;stroke-dasharray:2.0,2.0;" x1="103.8701" x2="378.9492" y1="660.7813" y2="660.7813"/>
    <text fill="#000000" font-family="sans-serif" font-size="13" font-weight="bold" lengthAdjust="spacing" textLength="9.0454" x="115.8701" y="655.7153">9</text>
    <text fill="#000000" font-family="sans-serif" font-size="13" lengthAdjust="spacing" textLength="43.9512" x="128.9155" y="655.7153">Return</text>
    <text fill="#000000" font-family="sans-serif" font-size="13" font-weight="bold" lengthAdjust="spacing" textLength="95.4243" x="176.999" y="655.7153">HTTP Status:</text>
    <text fill="#000000" font-family="sans-serif" font-size="13" lengthAdjust="spacing" textLength="24.813" x="276.5557" y="655.7153">204</text>
    <path d="M30,682.7813 L94.4429,682.7813 L94.4429,689.9141 L84.4429,699.9141 L30,699.9141 L30,682.7813 " fill="#EEEEEE" style="stroke:#000000;stroke-width:1.5;"/>
    <rect fill="none" height="230.4609" style="stroke:#000000;stroke-width:1.5;" width="892.9414" x="30" y="682.7813"/>
    <text fill="#000000" font-family="sans-serif" font-size="13" font-weight="bold" lengthAdjust="spacing" textLength="19.4429" x="45" y="695.8481">alt</text>
    <text fill="#000000" font-family="sans-serif" font-size="11" font-weight="bold" lengthAdjust="spacing" textLength="190.0347" x="109.4429" y="694.9917">[Update Oracle Entry (failure)]</text>
    <polygon fill="#181818" points="600.3931,717.0469,590.3931,721.0469,600.3931,725.0469,596.3931,721.0469" style="stroke:#181818;stroke-width:1.0;"/>
    <line style="stroke:#181818;stroke-width:1.0;stroke-dasharray:2.0,2.0;" x1="594.3931" x2="874.9292" y1="721.0469" y2="721.0469"/>
    <text fill="#000000" font-family="sans-serif" font-size="13" font-weight="bold" lengthAdjust="spacing" textLength="18.0908" x="606.3931" y="715.981">10</text>
    <text fill="#000000" font-family="sans-serif" font-size="13" lengthAdjust="spacing" textLength="76.4448" x="628.4839" y="715.981">Throw Error</text>
    <polygon fill="#181818" points="390.9492,746.1797,380.9492,750.1797,390.9492,754.1797,386.9492,750.1797" style="stroke:#181818;stroke-width:1.0;"/>
    <line style="stroke:#181818;stroke-width:1.0;" x1="384.9492" x2="588.3931" y1="750.1797" y2="750.1797"/>
    <text fill="#000000" font-family="sans-serif" font-size="13" font-weight="bold" lengthAdjust="spacing" textLength="18.0908" x="396.9492" y="745.1138">11</text>
    <text fill="#000000" font-family="sans-serif" font-size="13" lengthAdjust="spacing" textLength="76.4448" x="419.04" y="745.1138">Throw Error</text>
    <path d="M139,763.1797 L139,878.1797 L374,878.1797 L374,773.1797 L364,763.1797 L139,763.1797 " fill="#FFFF00" style="stroke:#181818;stroke-width:0.5;"/>
    <path d="M364,763.1797 L364,773.1797 L374,773.1797 L364,763.1797 " fill="#FFFF00" style="stroke:#181818;stroke-width:0.5;"/>
    <text fill="#000000" font-family="sans-serif" font-size="13" lengthAdjust="spacing" textLength="61.3564" x="145" y="780.2466">Message:</text>
    <text fill="#000000" font-family="sans-serif" font-size="13" lengthAdjust="spacing" textLength="8.271" x="145" y="795.3794">{</text>
    <text fill="#000000" font-family="sans-serif" font-size="13" lengthAdjust="spacing" textLength="136.208" x="161.5293" y="810.5122">&quot;errorInformation&quot;: {</text>
    <text fill="#000000" font-family="sans-serif" font-size="13" lengthAdjust="spacing" textLength="181.27" x="178.0586" y="825.645">&quot;errorCode&quot;: &lt;Error Code&gt;,</text>
    <text fill="#000000" font-family="sans-serif" font-size="13" lengthAdjust="spacing" textLength="178.6548" x="178.0586" y="840.7778">&quot;errorDescription&quot;: &lt;Msg&gt;,</text>
    <text fill="#000000" font-family="sans-serif" font-size="13" lengthAdjust="spacing" textLength="8.271" x="161.5293" y="855.9106">}</text>
    <text fill="#000000" font-family="sans-serif" font-size="13" lengthAdjust="spacing" textLength="8.271" x="145" y="871.0435">}</text>
    <polygon fill="#181818" points="109.8701,901.2422,99.8701,905.2422,109.8701,909.2422,105.8701,905.2422" style="stroke:#181818;stroke-width:1.0;"/>
    <line style="stroke:#181818;stroke-width:1.0;stroke-dasharray:2.0,2.0;" x1="103.8701" x2="378.9492" y1="905.2422" y2="905.2422"/>
    <text fill="#000000" font-family="sans-serif" font-size="13" font-weight="bold" lengthAdjust="spacing" textLength="18.0908" x="115.8701" y="900.1763">12</text>
    <text fill="#000000" font-family="sans-serif" font-size="13" lengthAdjust="spacing" textLength="43.9512" x="137.9609" y="900.1763">Return</text>
    <text fill="#FF0000" font-family="sans-serif" font-size="13" font-weight="bold" lengthAdjust="spacing" textLength="95.4243" x="186.0444" y="900.1763">HTTP Status:</text>
    <text fill="#FF0000" font-family="sans-serif" font-size="13" lengthAdjust="spacing" textLength="24.813" x="285.6011" y="900.1763">502</text>
    <path d="M30,934.2422 L94.4429,934.2422 L94.4429,941.375 L84.4429,951.375 L30,951.375 L30,934.2422 " fill="#EEEEEE" style="stroke:#000000;stroke-width:1.5;"/>
    <rect fill="none" height="230.4609" style="stroke:#000000;stroke-width:1.5;" width="892.9414" x="30" y="934.2422"/>
    <text fill="#000000" font-family="sans-serif" font-size="13" font-weight="bold" lengthAdjust="spacing" textLength="19.4429" x="45" y="947.3091">alt</text>
    <text fill="#000000" font-family="sans-serif" font-size="11" font-weight="bold" lengthAdjust="spacing" textLength="247.9512" x="109.4429" y="946.4526">[Find existing Oracle Endpoint (failure)]</text>
    <polygon fill="#181818" points="600.3931,968.5078,590.3931,972.5078,600.3931,976.5078,596.3931,972.5078" style="stroke:#181818;stroke-width:1.0;"/>
    <line style="stroke:#181818;stroke-width:1.0;" x1="594.3931" x2="874.9292" y1="972.5078" y2="972.5078"/>
    <text fill="#000000" font-family="sans-serif" font-size="13" font-weight="bold" lengthAdjust="spacing" textLength="18.0908" x="606.3931" y="967.4419">13</text>
    <text fill="#000000" font-family="sans-serif" font-size="13" lengthAdjust="spacing" textLength="143.2476" x="628.4839" y="967.4419">Returns Empty Object</text>
    <polygon fill="#181818" points="390.9492,997.6406,380.9492,1001.6406,390.9492,1005.6406,386.9492,1001.6406" style="stroke:#181818;stroke-width:1.0;"/>
    <line style="stroke:#181818;stroke-width:1.0;" x1="384.9492" x2="588.3931" y1="1001.6406" y2="1001.6406"/>
    <text fill="#000000" font-family="sans-serif" font-size="13" font-weight="bold" lengthAdjust="spacing" textLength="18.0908" x="396.9492" y="996.5747">14</text>
    <text fill="#000000" font-family="sans-serif" font-size="13" lengthAdjust="spacing" textLength="76.4448" x="419.04" y="996.5747">Throw Error</text>
    <path d="M139,1014.6406 L139,1129.6406 L374,1129.6406 L374,1024.6406 L364,1014.6406 L139,1014.6406 " fill="#FFFF00" style="stroke:#181818;stroke-width:0.5;"/>
    <path d="M364,1014.6406 L364,1024.6406 L374,1024.6406 L364,1014.6406 " fill="#FFFF00" style="stroke:#181818;stroke-width:0.5;"/>
    <text fill="#000000" font-family="sans-serif" font-size="13" lengthAdjust="spacing" textLength="61.3564" x="145" y="1031.7075">Message:</text>
    <text fill="#000000" font-family="sans-serif" font-size="13" lengthAdjust="spacing" textLength="8.271" x="145" y="1046.8403">{</text>
    <text fill="#000000" font-family="sans-serif" font-size="13" lengthAdjust="spacing" textLength="136.208" x="161.5293" y="1061.9731">&quot;errorInformation&quot;: {</text>
    <text fill="#000000" font-family="sans-serif" font-size="13" lengthAdjust="spacing" textLength="181.27" x="178.0586" y="1077.106">&quot;errorCode&quot;: &lt;Error Code&gt;,</text>
    <text fill="#000000" font-family="sans-serif" font-size="13" lengthAdjust="spacing" textLength="178.6548" x="178.0586" y="1092.2388">&quot;errorDescription&quot;: &lt;Msg&gt;,</text>
    <text fill="#000000" font-family="sans-serif" font-size="13" lengthAdjust="spacing" textLength="8.271" x="161.5293" y="1107.3716">}</text>
    <text fill="#000000" font-family="sans-serif" font-size="13" lengthAdjust="spacing" textLength="8.271" x="145" y="1122.5044">}</text>
    <polygon fill="#181818" points="109.8701,1152.7031,99.8701,1156.7031,109.8701,1160.7031,105.8701,1156.7031" style="stroke:#181818;stroke-width:1.0;"/>
    <line style="stroke:#181818;stroke-width:1.0;stroke-dasharray:2.0,2.0;" x1="103.8701" x2="378.9492" y1="1156.7031" y2="1156.7031"/>
    <text fill="#000000" font-family="sans-serif" font-size="13" font-weight="bold" lengthAdjust="spacing" textLength="18.0908" x="115.8701" y="1151.6372">15</text>
    <text fill="#000000" font-family="sans-serif" font-size="13" lengthAdjust="spacing" textLength="43.9512" x="137.9609" y="1151.6372">Return</text>
    <text fill="#FF0000" font-family="sans-serif" font-size="13" font-weight="bold" lengthAdjust="spacing" textLength="95.4243" x="186.0444" y="1151.6372">HTTP Status:</text>
    <text fill="#FF0000" font-family="sans-serif" font-size="13" lengthAdjust="spacing" textLength="24.813" x="285.6011" y="1151.6372">502</text>
  </g>
</svg>
