<?xml version="1.0" encoding="UTF-8" standalone="no"?>
<svg xmlns="http://www.w3.org/2000/svg" xmlns:xlink="http://www.w3.org/1999/xlink" contentScriptType="application/ecmascript" contentStyleType="text/css" height="931px" preserveAspectRatio="none" style="width:901px;height:931px" version="1.1" viewBox="0 0 901 931" width="901px" zoomAndPan="magnify">
  <defs>
    <filter height="300%" id="f1tns20t89fkej" width="300%" x="-1" y="-1">
      <feGaussianBlur result="blurOut" stdDeviation="2.0"/>
      <feColorMatrix in="blurOut" result="blurOut2" type="matrix" values="0 0 0 0 0 0 0 0 0 0 0 0 0 0 0 0 0 0 .4 0"/>
      <feOffset dx="4.0" dy="4.0" in="blurOut2" result="blurOut3"/>
      <feBlend in="SourceGraphic" in2="blurOut3" mode="normal"/>
    </filter>
  </defs>
  <g>
    <text fill="#000000" font-family="sans-serif" font-size="18" lengthAdjust="spacingAndGlyphs" textLength="266" x="315.5" y="28.708">7.3.2 Create Oracle Endpoints</text>
    <rect fill="#FFFFE0" height="884.8438" style="stroke:#A80036;stroke-width:1.0" width="636" x="235" y="40.9531"/>
    <text fill="#000000" font-family="sans-serif" font-size="13" font-weight="bold" lengthAdjust="spacingAndGlyphs" textLength="176" x="465" y="53.02">Account Lookup Service</text>
    <rect fill="#FFFFFF" filter="url(#f1tns20t89fkej)" height="447.6563" style="stroke:#A80036;stroke-width:1.0" width="10" x="84" y="132.3828"/>
    <rect fill="#FFFFFF" filter="url(#f1tns20t89fkej)" height="387.2578" style="stroke:#A80036;stroke-width:1.0" width="10" x="356" y="192.7813"/>
    <rect fill="#FFFFFF" filter="url(#f1tns20t89fkej)" height="153.6641" style="stroke:#A80036;stroke-width:1.0" width="10" x="563" y="397.2422"/>
    <rect fill="#FFFFFF" filter="url(#f1tns20t89fkej)" height="53.2656" style="stroke:#A80036;stroke-width:1.0" width="10" x="826" y="468.5078"/>
    <rect fill="#FFFFFF" filter="url(#f1tns20t89fkej)" height="704.1172" style="stroke:#000000;stroke-width:2.0" width="877" x="10" y="139.3828"/>
    <rect fill="#FFFFFF" filter="url(#f1tns20t89fkej)" height="104.5313" style="stroke:#000000;stroke-width:2.0" width="857" x="20" y="483.5078"/>
    <rect fill="#FFFFFF" filter="url(#f1tns20t89fkej)" height="234.4609" style="stroke:#000000;stroke-width:2.0" width="857" x="20" y="602.0391"/>
    <line style="stroke:#A80036;stroke-width:1.0;stroke-dasharray:5.0,5.0" x1="89" x2="89" y1="122.3828" y2="860.5"/>
    <line style="stroke:#A80036;stroke-width:1.0;stroke-dasharray:5.0,5.0" x1="361" x2="361" y1="122.3828" y2="860.5"/>
    <line style="stroke:#A80036;stroke-width:1.0;stroke-dasharray:5.0,5.0" x1="567.5" x2="567.5" y1="122.3828" y2="860.5"/>
    <line style="stroke:#A80036;stroke-width:1.0;stroke-dasharray:5.0,5.0" x1="831" x2="831" y1="122.3828" y2="860.5"/>
    <text fill="#000000" font-family="sans-serif" font-size="14" lengthAdjust="spacingAndGlyphs" textLength="112" x="30" y="119.0811">HUB OPERATOR</text>
    <ellipse cx="89" cy="90.0859" fill="#FEFECE" filter="url(#f1tns20t89fkej)" rx="12" ry="12" style="stroke:#A80036;stroke-width:2.0"/>
    <line style="stroke:#A80036;stroke-width:2.0" x1="77" x2="101" y1="104.0859" y2="104.0859"/>
    <text fill="#000000" font-family="sans-serif" font-size="14" lengthAdjust="spacingAndGlyphs" textLength="112" x="30" y="872.4951">HUB OPERATOR</text>
    <ellipse cx="89" cy="891.7969" fill="#FEFECE" filter="url(#f1tns20t89fkej)" rx="12" ry="12" style="stroke:#A80036;stroke-width:2.0"/>
    <line style="stroke:#A80036;stroke-width:2.0" x1="77" x2="101" y1="905.7969" y2="905.7969"/>
    <text fill="#000000" font-family="sans-serif" font-size="14" lengthAdjust="spacingAndGlyphs" textLength="238" x="239" y="119.0811">Account Lookup Service Admin API</text>
    <path d="M340.5,78.0859 L340.5,102.0859 M340.5,90.0859 L357.5,90.0859 " fill="none" filter="url(#f1tns20t89fkej)" style="stroke:#A80036;stroke-width:2.0"/>
    <ellipse cx="369.5" cy="90.0859" fill="#FEFECE" filter="url(#f1tns20t89fkej)" rx="12" ry="12" style="stroke:#A80036;stroke-width:2.0"/>
    <text fill="#000000" font-family="sans-serif" font-size="14" lengthAdjust="spacingAndGlyphs" textLength="238" x="239" y="872.4951">Account Lookup Service Admin API</text>
    <path d="M340.5,879.7969 L340.5,903.7969 M340.5,891.7969 L357.5,891.7969 " fill="none" filter="url(#f1tns20t89fkej)" style="stroke:#A80036;stroke-width:2.0"/>
    <ellipse cx="369.5" cy="891.7969" fill="#FEFECE" filter="url(#f1tns20t89fkej)" rx="12" ry="12" style="stroke:#A80036;stroke-width:2.0"/>
    <text fill="#000000" font-family="sans-serif" font-size="14" lengthAdjust="spacingAndGlyphs" textLength="143" x="493.5" y="119.0811">POST Oracle Handler</text>
    <ellipse cx="568" cy="90.0859" fill="#FEFECE" filter="url(#f1tns20t89fkej)" rx="12" ry="12" style="stroke:#A80036;stroke-width:2.0"/>
    <polygon fill="#A80036" points="564,78.0859,570,73.0859,568,78.0859,570,83.0859,564,78.0859" style="stroke:#A80036;stroke-width:1.0"/>
    <text fill="#000000" font-family="sans-serif" font-size="14" lengthAdjust="spacingAndGlyphs" textLength="143" x="493.5" y="872.4951">POST Oracle Handler</text>
    <ellipse cx="568" cy="891.7969" fill="#FEFECE" filter="url(#f1tns20t89fkej)" rx="12" ry="12" style="stroke:#A80036;stroke-width:2.0"/>
    <polygon fill="#A80036" points="564,879.7969,570,874.7969,568,879.7969,570,884.7969,564,879.7969" style="stroke:#A80036;stroke-width:1.0"/>
    <text fill="#000000" font-family="sans-serif" font-size="14" lengthAdjust="spacingAndGlyphs" textLength="66" x="795" y="119.0811">ALS Store</text>
    <path d="M813,70.0859 C813,60.0859 831,60.0859 831,60.0859 C831,60.0859 849,60.0859 849,70.0859 L849,96.0859 C849,106.0859 831,106.0859 831,106.0859 C831,106.0859 813,106.0859 813,96.0859 L813,70.0859 " fill="#FEFECE" filter="url(#f1tns20t89fkej)" style="stroke:#000000;stroke-width:1.5"/>
    <path d="M813,70.0859 C813,80.0859 831,80.0859 831,80.0859 C831,80.0859 849,80.0859 849,70.0859 " fill="none" style="stroke:#000000;stroke-width:1.5"/>
    <text fill="#000000" font-family="sans-serif" font-size="14" lengthAdjust="spacingAndGlyphs" textLength="66" x="795" y="872.4951">ALS Store</text>
    <path d="M813,885.7969 C813,875.7969 831,875.7969 831,875.7969 C831,875.7969 849,875.7969 849,885.7969 L849,911.7969 C849,921.7969 831,921.7969 831,921.7969 C831,921.7969 813,921.7969 813,911.7969 L813,885.7969 " fill="#FEFECE" filter="url(#f1tns20t89fkej)" style="stroke:#000000;stroke-width:1.5"/>
    <path d="M813,885.7969 C813,895.7969 831,895.7969 831,895.7969 C831,895.7969 849,895.7969 849,885.7969 " fill="none" style="stroke:#000000;stroke-width:1.5"/>
    <rect fill="#FFFFFF" filter="url(#f1tns20t89fkej)" height="447.6563" style="stroke:#A80036;stroke-width:1.0" width="10" x="84" y="132.3828"/>
    <rect fill="#FFFFFF" filter="url(#f1tns20t89fkej)" height="387.2578" style="stroke:#A80036;stroke-width:1.0" width="10" x="356" y="192.7813"/>
    <rect fill="#FFFFFF" filter="url(#f1tns20t89fkej)" height="153.6641" style="stroke:#A80036;stroke-width:1.0" width="10" x="563" y="397.2422"/>
    <rect fill="#FFFFFF" filter="url(#f1tns20t89fkej)" height="53.2656" style="stroke:#A80036;stroke-width:1.0" width="10" x="826" y="468.5078"/>
    <path d="M10,139.3828 L204,139.3828 L204,146.3828 L194,156.3828 L10,156.3828 L10,139.3828 " fill="#EEEEEE" style="stroke:#000000;stroke-width:1.0"/>
    <rect fill="none" height="704.1172" style="stroke:#000000;stroke-width:2.0" width="877" x="10" y="139.3828"/>
    <text fill="#000000" font-family="sans-serif" font-size="13" font-weight="bold" lengthAdjust="spacingAndGlyphs" textLength="149" x="25" y="152.4497">Get Oracle Endpoint</text>
    <polygon fill="#A80036" points="344,188.7813,354,192.7813,344,196.7813,348,192.7813" style="stroke:#A80036;stroke-width:1.0"/>
    <line style="stroke:#A80036;stroke-width:1.0" x1="94" x2="350" y1="192.7813" y2="192.7813"/>
    <text fill="#000000" font-family="sans-serif" font-size="13" font-weight="bold" lengthAdjust="spacingAndGlyphs" textLength="9" x="101" y="180.1489">1</text>
    <text fill="#000000" font-family="sans-serif" font-size="13" lengthAdjust="spacingAndGlyphs" textLength="230" x="114" y="172.5825">Request to Create Oracle Endpoint -</text>
    <text fill="#000000" font-family="sans-serif" font-size="13" lengthAdjust="spacingAndGlyphs" textLength="88" x="114" y="187.7153">POST /oracles</text>
    <path d="M82,205.7813 L82,366.7813 L347,366.7813 L347,215.7813 L337,205.7813 L82,205.7813 " fill="#FFFF00" filter="url(#f1tns20t89fkej)" style="stroke:#A80036;stroke-width:1.0"/>
    <path d="M337,205.7813 L337,215.7813 L347,215.7813 L337,205.7813 " fill="#FFFF00" style="stroke:#A80036;stroke-width:1.0"/>
    <text fill="#000000" font-family="sans-serif" font-size="13" lengthAdjust="spacingAndGlyphs" textLength="61" x="88" y="222.8481">Message:</text>
    <text fill="#000000" font-family="sans-serif" font-size="13" lengthAdjust="spacingAndGlyphs" textLength="8" x="88" y="237.981">{</text>
    <text fill="#000000" font-family="sans-serif" font-size="13" lengthAdjust="spacingAndGlyphs" textLength="198" x="104" y="253.1138">&quot;oracleIdType&quot;: &lt;PartyIdType&gt;,</text>
    <text fill="#000000" font-family="sans-serif" font-size="13" lengthAdjust="spacingAndGlyphs" textLength="82" x="104" y="268.2466">&quot;endpoint&quot;: {</text>
    <text fill="#000000" font-family="sans-serif" font-size="13" lengthAdjust="spacingAndGlyphs" textLength="114" x="120" y="283.3794">&quot;value&quot;: &lt;string&gt;,</text>
    <text fill="#000000" font-family="sans-serif" font-size="13" lengthAdjust="spacingAndGlyphs" textLength="212" x="120" y="298.5122">&quot;endpointType&quot;: &lt;EndpointType&gt;</text>
    <text fill="#000000" font-family="sans-serif" font-size="13" lengthAdjust="spacingAndGlyphs" textLength="12" x="104" y="313.645">},</text>
    <text fill="#000000" font-family="sans-serif" font-size="13" lengthAdjust="spacingAndGlyphs" textLength="156" x="104" y="328.7778">&quot;currency&quot;: &lt;Currency&gt;,</text>
    <text fill="#000000" font-family="sans-serif" font-size="13" lengthAdjust="spacingAndGlyphs" textLength="147" x="104" y="343.9106">&quot;isDefault&quot;: &lt;boolean&gt;</text>
    <text fill="#000000" font-family="sans-serif" font-size="13" lengthAdjust="spacingAndGlyphs" textLength="8" x="88" y="359.0435">}</text>
    <polygon fill="#A80036" points="551,393.2422,561,397.2422,551,401.2422,555,397.2422" style="stroke:#A80036;stroke-width:1.0"/>
    <line style="stroke:#A80036;stroke-width:1.0" x1="366" x2="557" y1="397.2422" y2="397.2422"/>
    <text fill="#000000" font-family="sans-serif" font-size="13" font-weight="bold" lengthAdjust="spacingAndGlyphs" textLength="9" x="373" y="392.1763">2</text>
    <text fill="#000000" font-family="sans-serif" font-size="13" lengthAdjust="spacingAndGlyphs" textLength="148" x="386" y="392.1763">Create Oracle Endpoint</text>
    <line style="stroke:#A80036;stroke-width:1.0" x1="573" x2="615" y1="426.375" y2="426.375"/>
    <line style="stroke:#A80036;stroke-width:1.0" x1="615" x2="615" y1="426.375" y2="439.375"/>
    <line style="stroke:#A80036;stroke-width:1.0" x1="574" x2="615" y1="439.375" y2="439.375"/>
    <polygon fill="#A80036" points="584,435.375,574,439.375,584,443.375,580,439.375" style="stroke:#A80036;stroke-width:1.0"/>
    <text fill="#000000" font-family="sans-serif" font-size="13" font-weight="bold" lengthAdjust="spacingAndGlyphs" textLength="9" x="580" y="421.3091">3</text>
    <text fill="#000000" font-family="sans-serif" font-size="13" lengthAdjust="spacingAndGlyphs" textLength="216" x="593" y="421.3091">Build Oracle Endpoint Data Object</text>
    <polygon fill="#A80036" points="814,464.5078,824,468.5078,814,472.5078,818,468.5078" style="stroke:#A80036;stroke-width:1.0"/>
    <line style="stroke:#A80036;stroke-width:1.0" x1="573" x2="820" y1="468.5078" y2="468.5078"/>
    <text fill="#000000" font-family="sans-serif" font-size="13" font-weight="bold" lengthAdjust="spacingAndGlyphs" textLength="9" x="580" y="463.4419">4</text>
    <text fill="#000000" font-family="sans-serif" font-size="13" lengthAdjust="spacingAndGlyphs" textLength="221" x="593" y="463.4419">Insert Oracle Endpoint Data Object</text>
    <path d="M20,483.5078 L84,483.5078 L84,490.5078 L74,500.5078 L20,500.5078 L20,483.5078 " fill="#EEEEEE" style="stroke:#000000;stroke-width:1.0"/>
    <rect fill="none" height="104.5313" style="stroke:#000000;stroke-width:2.0" width="857" x="20" y="483.5078"/>
    <text fill="#000000" font-family="sans-serif" font-size="13" font-weight="bold" lengthAdjust="spacingAndGlyphs" textLength="19" x="35" y="496.5747">alt</text>
    <text fill="#000000" font-family="sans-serif" font-size="11" font-weight="bold" lengthAdjust="spacingAndGlyphs" textLength="201" x="99" y="495.7183">[Create Oracle Entry (success)]</text>
    <polygon fill="#A80036" points="584,517.7734,574,521.7734,584,525.7734,580,521.7734" style="stroke:#A80036;stroke-width:1.0"/>
    <line style="stroke:#A80036;stroke-width:1.0;stroke-dasharray:2.0,2.0" x1="578" x2="830" y1="521.7734" y2="521.7734"/>
    <text fill="#000000" font-family="sans-serif" font-size="13" font-weight="bold" lengthAdjust="spacingAndGlyphs" textLength="9" x="590" y="516.7075">5</text>
    <text fill="#000000" font-family="sans-serif" font-size="13" lengthAdjust="spacingAndGlyphs" textLength="160" x="603" y="516.7075">Return success response</text>
    <polygon fill="#A80036" points="377,546.9063,367,550.9063,377,554.9063,373,550.9063" style="stroke:#A80036;stroke-width:1.0"/>
    <line style="stroke:#A80036;stroke-width:1.0" x1="371" x2="567" y1="550.9063" y2="550.9063"/>
    <text fill="#000000" font-family="sans-serif" font-size="13" font-weight="bold" lengthAdjust="spacingAndGlyphs" textLength="9" x="383" y="545.8403">6</text>
    <text fill="#000000" font-family="sans-serif" font-size="13" lengthAdjust="spacingAndGlyphs" textLength="160" x="396" y="545.8403">Return success response</text>
    <polygon fill="#A80036" points="100,576.0391,90,580.0391,100,584.0391,96,580.0391" style="stroke:#A80036;stroke-width:1.0"/>
    <line style="stroke:#A80036;stroke-width:1.0;stroke-dasharray:2.0,2.0" x1="94" x2="360" y1="580.0391" y2="580.0391"/>
    <text fill="#000000" font-family="sans-serif" font-size="13" font-weight="bold" lengthAdjust="spacingAndGlyphs" textLength="9" x="106" y="574.9731">7</text>
    <text fill="#000000" font-family="sans-serif" font-size="13" lengthAdjust="spacingAndGlyphs" textLength="42" x="119" y="574.9731">Return</text>
    <text fill="#000000" font-family="sans-serif" font-size="13" font-weight="bold" lengthAdjust="spacingAndGlyphs" textLength="94" x="165" y="574.9731">HTTP Status:</text>
    <text fill="#000000" font-family="sans-serif" font-size="13" lengthAdjust="spacingAndGlyphs" textLength="24" x="263" y="574.9731">201</text>
    <path d="M20,602.0391 L84,602.0391 L84,609.0391 L74,619.0391 L20,619.0391 L20,602.0391 " fill="#EEEEEE" style="stroke:#000000;stroke-width:1.0"/>
    <rect fill="none" height="234.4609" style="stroke:#000000;stroke-width:2.0" width="857" x="20" y="602.0391"/>
    <text fill="#000000" font-family="sans-serif" font-size="13" font-weight="bold" lengthAdjust="spacingAndGlyphs" textLength="19" x="35" y="615.106">alt</text>
    <text fill="#000000" font-family="sans-serif" font-size="11" font-weight="bold" lengthAdjust="spacingAndGlyphs" textLength="192" x="99" y="614.2495">[Create Oracle Entry (failure)]</text>
    <polygon fill="#A80036" points="579,636.3047,569,640.3047,579,644.3047,575,640.3047" style="stroke:#A80036;stroke-width:1.0"/>
    <line style="stroke:#A80036;stroke-width:1.0;stroke-dasharray:2.0,2.0" x1="573" x2="830" y1="640.3047" y2="640.3047"/>
    <text fill="#000000" font-family="sans-serif" font-size="13" font-weight="bold" lengthAdjust="spacingAndGlyphs" textLength="9" x="585" y="635.2388">8</text>
    <text fill="#000000" font-family="sans-serif" font-size="13" lengthAdjust="spacingAndGlyphs" textLength="72" x="598" y="635.2388">Throw Error</text>
    <polygon fill="#A80036" points="372,665.4375,362,669.4375,372,673.4375,368,669.4375" style="stroke:#A80036;stroke-width:1.0"/>
    <line style="stroke:#A80036;stroke-width:1.0" x1="366" x2="567" y1="669.4375" y2="669.4375"/>
    <text fill="#000000" font-family="sans-serif" font-size="13" font-weight="bold" lengthAdjust="spacingAndGlyphs" textLength="9" x="378" y="664.3716">9</text>
    <text fill="#000000" font-family="sans-serif" font-size="13" lengthAdjust="spacingAndGlyphs" textLength="72" x="391" y="664.3716">Throw Error</text>
    <path d="M123,682.4375 L123,797.4375 L352,797.4375 L352,692.4375 L342,682.4375 L123,682.4375 " fill="#FFFF00" filter="url(#f1tns20t89fkej)" style="stroke:#A80036;stroke-width:1.0"/>
    <path d="M342,682.4375 L342,692.4375 L352,692.4375 L342,682.4375 " fill="#FFFF00" style="stroke:#A80036;stroke-width:1.0"/>
    <text fill="#000000" font-family="sans-serif" font-size="13" lengthAdjust="spacingAndGlyphs" textLength="61" x="129" y="699.5044">Message:</text>
    <text fill="#000000" font-family="sans-serif" font-size="13" lengthAdjust="spacingAndGlyphs" textLength="8" x="129" y="714.6372">{</text>
    <text fill="#000000" font-family="sans-serif" font-size="13" lengthAdjust="spacingAndGlyphs" textLength="130" x="145" y="729.77">&quot;errorInformation&quot;: {</text>
    <text fill="#000000" font-family="sans-serif" font-size="13" lengthAdjust="spacingAndGlyphs" textLength="176" x="161" y="744.9028">&quot;errorCode&quot;: &lt;Error Code&gt;,</text>
    <text fill="#000000" font-family="sans-serif" font-size="13" lengthAdjust="spacingAndGlyphs" textLength="173" x="161" y="760.0356">&quot;errorDescription&quot;: &lt;Msg&gt;,</text>
    <text fill="#000000" font-family="sans-serif" font-size="13" lengthAdjust="spacingAndGlyphs" textLength="8" x="145" y="775.1685">}</text>
    <text fill="#000000" font-family="sans-serif" font-size="13" lengthAdjust="spacingAndGlyphs" textLength="8" x="129" y="790.3013">}</text>
    <polygon fill="#A80036" points="100,824.5,90,828.5,100,832.5,96,828.5" style="stroke:#A80036;stroke-width:1.0"/>
    <line style="stroke:#A80036;stroke-width:1.0;stroke-dasharray:2.0,2.0" x1="94" x2="360" y1="828.5" y2="828.5"/>
    <text fill="#000000" font-family="sans-serif" font-size="13" font-weight="bold" lengthAdjust="spacingAndGlyphs" textLength="18" x="106" y="823.4341">10</text>
    <text fill="#000000" font-family="sans-serif" font-size="13" lengthAdjust="spacingAndGlyphs" textLength="42" x="128" y="823.4341">Return</text>
    <text fill="#FF0000" font-family="sans-serif" font-size="13" font-weight="bold" lengthAdjust="spacingAndGlyphs" textLength="94" x="174" y="823.4341">HTTP Status:</text>
    <text fill="#FF0000" font-family="sans-serif" font-size="13" lengthAdjust="spacingAndGlyphs" textLength="24" x="272" y="823.4341">502</text>
  </g>
</svg>
