<svg xmlns="http://www.w3.org/2000/svg" xmlns:xlink="http://www.w3.org/1999/xlink" contentStyleType="text/css" height="1763px" preserveAspectRatio="none" style="width:2395px;height:1763px;background:#FFFFFF;" version="1.1" viewBox="0 0 2395 1763" width="2395px" zoomAndPan="magnify">
  <title>7.1.0. Get Participant Details</title>
  <defs/>
  <g>
    <text fill="#000000" font-family="sans-serif" font-size="14" font-weight="bold" lengthAdjust="spacing" textLength="229.9951" x="1081.0864" y="27.9951">7.1.0. Get Participant Details</text>
    <rect fill="#D3D3D3" height="1714.5703" style="stroke:#181818;stroke-width:0.5;" width="197.439" x="1" y="43.2969"/>
    <text fill="#000000" font-family="sans-serif" font-size="13" font-weight="bold" lengthAdjust="spacing" textLength="191.439" x="4" y="55.3638">Financial Service Provider</text>
    <rect fill="#FFFFE0" height="1714.5703" style="stroke:#181818;stroke-width:0.5;" width="1209.3823" x="579.1548" y="43.2969"/>
    <text fill="#000000" font-family="sans-serif" font-size="13" font-weight="bold" lengthAdjust="spacing" textLength="175.5762" x="1096.0579" y="55.3638">Account Lookup Service</text>
    <rect fill="#90EE90" height="1714.5703" style="stroke:#181818;stroke-width:0.5;" width="147.7656" x="2032.4038" y="43.2969"/>
    <text fill="#000000" font-family="sans-serif" font-size="13" font-weight="bold" lengthAdjust="spacing" textLength="119.7739" x="2046.3997" y="55.3638">Central Services</text>
    <rect fill="#ADD8E6" height="1714.5703" style="stroke:#181818;stroke-width:0.5;" width="207.6523" x="2182.1694" y="43.2969"/>
    <text fill="#000000" font-family="sans-serif" font-size="13" font-weight="bold" lengthAdjust="spacing" textLength="201.6523" x="2185.1694" y="55.3638">ALS Oracle Service/Adapter</text>
    <rect fill="#FFFFFF" height="1422.1797" style="stroke:#181818;stroke-width:1.0;" width="10" x="637.165" y="239.3906"/>
    <rect fill="#FFFFFF" height="1327.6484" style="stroke:#181818;stroke-width:1.0;" width="10" x="935.4717" y="333.9219"/>
    <rect fill="#FFFFFF" height="181.0625" style="stroke:#181818;stroke-width:1.0;" width="10" x="1320.1426" y="441.5859"/>
    <rect fill="#FFFFFF" height="132.7969" style="stroke:#181818;stroke-width:1.0;" width="10" x="1455.1904" y="786.4453"/>
    <rect fill="#FFFFFF" height="107.6641" style="stroke:#181818;stroke-width:1.0;" width="10" x="1578.3491" y="485.8516"/>
    <rect fill="#FFFFFF" height="132.7969" style="stroke:#181818;stroke-width:1.0;" width="10" x="1709.8218" y="970.5078"/>
    <rect fill="#FFFFFF" height="132.7969" style="stroke:#181818;stroke-width:1.0;" width="10" x="1709.8218" y="1277.9063"/>
    <rect fill="#FFFFFF" height="29.1328" style="stroke:#181818;stroke-width:1.0;" width="10" x="2101.2866" y="1045.0391"/>
    <rect fill="#FFFFFF" height="29.1328" style="stroke:#181818;stroke-width:1.0;" width="10" x="2101.2866" y="1352.4375"/>
    <rect fill="#FFFFFF" height="29.1328" style="stroke:#181818;stroke-width:1.0;" width="10" x="2280.9956" y="860.9766"/>
    <rect fill="none" height="1505.8438" style="stroke:#000000;stroke-width:1.5;" width="2341.2024" x="41.9656" y="155.7266"/>
    <rect fill="none" height="1305.6484" style="stroke:#000000;stroke-width:1.5;" width="2321.2024" x="51.9656" y="348.9219"/>
    <rect fill="#87CEFA" height="330.8594" style="stroke:#000000;stroke-width:1.5;" width="802.7866" x="864.3291" y="373.0547"/>
    <rect fill="#87CEFA" height="59.2656" style="stroke:#000000;stroke-width:1.5;" width="245.0034" x="874.3291" y="637.6484"/>
    <rect fill="#87CEFA" height="209.3281" style="stroke:#000000;stroke-width:1.5;" width="1488.8389" x="874.3291" y="717.9141"/>
    <line style="stroke:#181818;stroke-width:0.5;stroke-dasharray:5.0,5.0;" x1="98.9656" x2="98.9656" y1="138.7266" y2="1678.5703"/>
    <line style="stroke:#181818;stroke-width:0.5;stroke-dasharray:5.0,5.0;" x1="642.1548" x2="642.1548" y1="138.7266" y2="1678.5703"/>
    <line style="stroke:#181818;stroke-width:0.5;stroke-dasharray:5.0,5.0;" x1="940.3291" x2="940.3291" y1="138.7266" y2="1678.5703"/>
    <line style="stroke:#181818;stroke-width:0.5;stroke-dasharray:5.0,5.0;" x1="1324.2373" x2="1324.2373" y1="138.7266" y2="1678.5703"/>
    <line style="stroke:#181818;stroke-width:0.5;stroke-dasharray:5.0,5.0;" x1="1460.0479" x2="1460.0479" y1="138.7266" y2="1678.5703"/>
    <line style="stroke:#181818;stroke-width:0.5;stroke-dasharray:5.0,5.0;" x1="1582.5918" x2="1582.5918" y1="138.7266" y2="1678.5703"/>
    <line style="stroke:#181818;stroke-width:0.5;stroke-dasharray:5.0,5.0;" x1="1714.1064" x2="1714.1064" y1="138.7266" y2="1678.5703"/>
    <line style="stroke:#181818;stroke-width:0.5;stroke-dasharray:5.0,5.0;" x1="2105.4038" x2="2105.4038" y1="138.7266" y2="1678.5703"/>
    <line style="stroke:#181818;stroke-width:0.5;stroke-dasharray:5.0,5.0;" x1="2285.8232" x2="2285.8232" y1="138.7266" y2="1678.5703"/>
    <text fill="#000000" font-family="sans-serif" font-size="14" lengthAdjust="spacing" textLength="69.5078" x="61.9656" y="135.4248">Payer FSP</text>
    <ellipse cx="99.7195" cy="70.9297" fill="#E2E2F0" rx="8" ry="8" style="stroke:#181818;stroke-width:0.5;"/>
    <path d="M99.7195,78.9297 L99.7195,105.9297 M86.7195,86.9297 L112.7195,86.9297 M99.7195,105.9297 L86.7195,120.9297 M99.7195,105.9297 L112.7195,120.9297 " fill="none" style="stroke:#181818;stroke-width:0.5;"/>
    <text fill="#000000" font-family="sans-serif" font-size="14" lengthAdjust="spacing" textLength="69.5078" x="61.9656" y="1690.5654">Payer FSP</text>
    <ellipse cx="99.7195" cy="1702.3672" fill="#E2E2F0" rx="8" ry="8" style="stroke:#181818;stroke-width:0.5;"/>
    <path d="M99.7195,1710.3672 L99.7195,1737.3672 M86.7195,1718.3672 L112.7195,1718.3672 M99.7195,1737.3672 L86.7195,1752.3672 M99.7195,1737.3672 L112.7195,1752.3672 " fill="none" style="stroke:#181818;stroke-width:0.5;"/>
    <text fill="#000000" font-family="sans-serif" font-size="14" lengthAdjust="spacing" textLength="112.0205" x="583.1548" y="119.1279">Account Lookup</text>
    <text fill="#000000" font-family="sans-serif" font-size="14" lengthAdjust="spacing" textLength="93.3789" x="592.4756" y="135.4248">Service (ALS)</text>
    <path d="M621.665,78.1328 L621.665,102.1328 M621.665,90.1328 L638.665,90.1328 " fill="none" style="stroke:#181818;stroke-width:0.5;"/>
    <ellipse cx="650.665" cy="90.1328" fill="#E2E2F0" rx="12" ry="12" style="stroke:#181818;stroke-width:0.5;"/>
    <text fill="#000000" font-family="sans-serif" font-size="14" lengthAdjust="spacing" textLength="112.0205" x="583.1548" y="1690.5654">Account Lookup</text>
    <text fill="#000000" font-family="sans-serif" font-size="14" lengthAdjust="spacing" textLength="93.3789" x="592.4756" y="1706.8623">Service (ALS)</text>
    <path d="M621.665,1714.1641 L621.665,1738.1641 M621.665,1726.1641 L638.665,1726.1641 " fill="none" style="stroke:#181818;stroke-width:0.5;"/>
    <ellipse cx="650.665" cy="1726.1641" fill="#E2E2F0" rx="12" ry="12" style="stroke:#181818;stroke-width:0.5;"/>
    <text fill="#000000" font-family="sans-serif" font-size="14" lengthAdjust="spacing" textLength="106.2852" x="884.3291" y="119.1279">ALS Participant</text>
    <text fill="#000000" font-family="sans-serif" font-size="14" lengthAdjust="spacing" textLength="55.125" x="909.9092" y="135.4248">Handler</text>
    <ellipse cx="940.4717" cy="90.1328" fill="#E2E2F0" rx="12" ry="12" style="stroke:#181818;stroke-width:0.5;"/>
    <polygon fill="#181818" points="936.4717,78.1328,942.4717,73.1328,940.4717,78.1328,942.4717,83.1328,936.4717,78.1328" style="stroke:#181818;stroke-width:1.0;"/>
    <text fill="#000000" font-family="sans-serif" font-size="14" lengthAdjust="spacing" textLength="106.2852" x="884.3291" y="1690.5654">ALS Participant</text>
    <text fill="#000000" font-family="sans-serif" font-size="14" lengthAdjust="spacing" textLength="55.125" x="909.9092" y="1706.8623">Handler</text>
    <ellipse cx="940.4717" cy="1726.1641" fill="#E2E2F0" rx="12" ry="12" style="stroke:#181818;stroke-width:0.5;"/>
    <polygon fill="#181818" points="936.4717,1714.1641,942.4717,1709.1641,940.4717,1714.1641,942.4717,1719.1641,936.4717,1714.1641" style="stroke:#181818;stroke-width:1.0;"/>
    <text fill="#000000" font-family="sans-serif" font-size="14" lengthAdjust="spacing" textLength="131.8105" x="1256.2373" y="119.1279">ALS Endpoint Type</text>
    <text fill="#000000" font-family="sans-serif" font-size="14" lengthAdjust="spacing" textLength="80.7461" x="1281.7695" y="135.4248">Config DAO</text>
    <ellipse cx="1325.1426" cy="90.1328" fill="#E2E2F0" rx="12" ry="12" style="stroke:#181818;stroke-width:0.5;"/>
    <line style="stroke:#181818;stroke-width:0.5;" x1="1313.1426" x2="1337.1426" y1="104.1328" y2="104.1328"/>
    <text fill="#000000" font-family="sans-serif" font-size="14" lengthAdjust="spacing" textLength="131.8105" x="1256.2373" y="1690.5654">ALS Endpoint Type</text>
    <text fill="#000000" font-family="sans-serif" font-size="14" lengthAdjust="spacing" textLength="80.7461" x="1281.7695" y="1706.8623">Config DAO</text>
    <ellipse cx="1325.1426" cy="1726.1641" fill="#E2E2F0" rx="12" ry="12" style="stroke:#181818;stroke-width:0.5;"/>
    <line style="stroke:#181818;stroke-width:0.5;" x1="1313.1426" x2="1337.1426" y1="1740.1641" y2="1740.1641"/>
    <text fill="#000000" font-family="sans-serif" font-size="14" lengthAdjust="spacing" textLength="106.2852" x="1404.0479" y="119.1279">ALS Participant</text>
    <text fill="#000000" font-family="sans-serif" font-size="14" lengthAdjust="spacing" textLength="81.3818" x="1416.4995" y="135.4248">Oracle DAO</text>
    <ellipse cx="1460.1904" cy="90.1328" fill="#E2E2F0" rx="12" ry="12" style="stroke:#181818;stroke-width:0.5;"/>
    <line style="stroke:#181818;stroke-width:0.5;" x1="1448.1904" x2="1472.1904" y1="104.1328" y2="104.1328"/>
    <text fill="#000000" font-family="sans-serif" font-size="14" lengthAdjust="spacing" textLength="106.2852" x="1404.0479" y="1690.5654">ALS Participant</text>
    <text fill="#000000" font-family="sans-serif" font-size="14" lengthAdjust="spacing" textLength="81.3818" x="1416.4995" y="1706.8623">Oracle DAO</text>
    <ellipse cx="1460.1904" cy="1726.1641" fill="#E2E2F0" rx="12" ry="12" style="stroke:#181818;stroke-width:0.5;"/>
    <line style="stroke:#181818;stroke-width:0.5;" x1="1448.1904" x2="1472.1904" y1="1740.1641" y2="1740.1641"/>
    <text fill="#000000" font-family="sans-serif" font-size="14" lengthAdjust="spacing" textLength="97.5146" x="1531.5918" y="135.4248">ALS Database</text>
    <path d="M1565.3491,86.4297 C1565.3491,76.4297 1583.3491,76.4297 1583.3491,76.4297 C1583.3491,76.4297 1601.3491,76.4297 1601.3491,86.4297 L1601.3491,112.4297 C1601.3491,122.4297 1583.3491,122.4297 1583.3491,122.4297 C1583.3491,122.4297 1565.3491,122.4297 1565.3491,112.4297 L1565.3491,86.4297 " fill="#E2E2F0" style="stroke:#181818;stroke-width:1.5;"/>
    <path d="M1565.3491,86.4297 C1565.3491,96.4297 1583.3491,96.4297 1583.3491,96.4297 C1583.3491,96.4297 1601.3491,96.4297 1601.3491,86.4297 " fill="none" style="stroke:#181818;stroke-width:1.5;"/>
    <text fill="#000000" font-family="sans-serif" font-size="14" lengthAdjust="spacing" textLength="97.5146" x="1531.5918" y="1690.5654">ALS Database</text>
    <path d="M1565.3491,1703.8672 C1565.3491,1693.8672 1583.3491,1693.8672 1583.3491,1693.8672 C1583.3491,1693.8672 1601.3491,1693.8672 1601.3491,1703.8672 L1601.3491,1729.8672 C1601.3491,1739.8672 1583.3491,1739.8672 1583.3491,1739.8672 C1583.3491,1739.8672 1565.3491,1739.8672 1565.3491,1729.8672 L1565.3491,1703.8672 " fill="#E2E2F0" style="stroke:#181818;stroke-width:1.5;"/>
    <path d="M1565.3491,1703.8672 C1565.3491,1713.8672 1583.3491,1713.8672 1583.3491,1713.8672 C1583.3491,1713.8672 1601.3491,1713.8672 1601.3491,1703.8672 " fill="none" style="stroke:#181818;stroke-width:1.5;"/>
    <text fill="#000000" font-family="sans-serif" font-size="14" lengthAdjust="spacing" textLength="133.4307" x="1645.1064" y="119.1279">ALS CentralService</text>
    <text fill="#000000" font-family="sans-serif" font-size="14" lengthAdjust="spacing" textLength="98.1367" x="1662.7534" y="135.4248">Endpoint DAO</text>
    <ellipse cx="1714.8218" cy="90.1328" fill="#E2E2F0" rx="12" ry="12" style="stroke:#181818;stroke-width:0.5;"/>
    <line style="stroke:#181818;stroke-width:0.5;" x1="1702.8218" x2="1726.8218" y1="104.1328" y2="104.1328"/>
    <text fill="#000000" font-family="sans-serif" font-size="14" lengthAdjust="spacing" textLength="133.4307" x="1645.1064" y="1690.5654">ALS CentralService</text>
    <text fill="#000000" font-family="sans-serif" font-size="14" lengthAdjust="spacing" textLength="98.1367" x="1662.7534" y="1706.8623">Endpoint DAO</text>
    <ellipse cx="1714.8218" cy="1726.1641" fill="#E2E2F0" rx="12" ry="12" style="stroke:#181818;stroke-width:0.5;"/>
    <line style="stroke:#181818;stroke-width:0.5;" x1="1702.8218" x2="1726.8218" y1="1740.1641" y2="1740.1641"/>
    <text fill="#000000" font-family="sans-serif" font-size="14" lengthAdjust="spacing" textLength="133.7656" x="2036.4038" y="135.4248">Central Service API</text>
    <path d="M2085.7866,94.4297 L2085.7866,118.4297 M2085.7866,106.4297 L2102.7866,106.4297 " fill="none" style="stroke:#181818;stroke-width:0.5;"/>
    <ellipse cx="2114.7866" cy="106.4297" fill="#E2E2F0" rx="12" ry="12" style="stroke:#181818;stroke-width:0.5;"/>
    <text fill="#000000" font-family="sans-serif" font-size="14" lengthAdjust="spacing" textLength="133.7656" x="2036.4038" y="1690.5654">Central Service API</text>
    <path d="M2085.7866,1697.8672 L2085.7866,1721.8672 M2085.7866,1709.8672 L2102.7866,1709.8672 " fill="none" style="stroke:#181818;stroke-width:0.5;"/>
    <ellipse cx="2114.7866" cy="1709.8672" fill="#E2E2F0" rx="12" ry="12" style="stroke:#181818;stroke-width:0.5;"/>
    <text fill="#000000" font-family="sans-serif" font-size="14" lengthAdjust="spacing" textLength="128.3447" x="2218.8232" y="135.4248">Oracle Service API</text>
    <path d="M2265.4956,94.4297 L2265.4956,118.4297 M2265.4956,106.4297 L2282.4956,106.4297 " fill="none" style="stroke:#181818;stroke-width:0.5;"/>
    <ellipse cx="2294.4956" cy="106.4297" fill="#E2E2F0" rx="12" ry="12" style="stroke:#181818;stroke-width:0.5;"/>
    <text fill="#000000" font-family="sans-serif" font-size="14" lengthAdjust="spacing" textLength="128.3447" x="2218.8232" y="1690.5654">Oracle Service API</text>
    <path d="M2265.4956,1697.8672 L2265.4956,1721.8672 M2265.4956,1709.8672 L2282.4956,1709.8672 " fill="none" style="stroke:#181818;stroke-width:0.5;"/>
    <ellipse cx="2294.4956" cy="1709.8672" fill="#E2E2F0" rx="12" ry="12" style="stroke:#181818;stroke-width:0.5;"/>
    <rect fill="#FFFFFF" height="1422.1797" style="stroke:#181818;stroke-width:1.0;" width="10" x="637.165" y="239.3906"/>
    <rect fill="#FFFFFF" height="1327.6484" style="stroke:#181818;stroke-width:1.0;" width="10" x="935.4717" y="333.9219"/>
    <rect fill="#FFFFFF" height="181.0625" style="stroke:#181818;stroke-width:1.0;" width="10" x="1320.1426" y="441.5859"/>
    <rect fill="#FFFFFF" height="132.7969" style="stroke:#181818;stroke-width:1.0;" width="10" x="1455.1904" y="786.4453"/>
    <rect fill="#FFFFFF" height="107.6641" style="stroke:#181818;stroke-width:1.0;" width="10" x="1578.3491" y="485.8516"/>
    <rect fill="#FFFFFF" height="132.7969" style="stroke:#181818;stroke-width:1.0;" width="10" x="1709.8218" y="970.5078"/>
    <rect fill="#FFFFFF" height="132.7969" style="stroke:#181818;stroke-width:1.0;" width="10" x="1709.8218" y="1277.9063"/>
    <rect fill="#FFFFFF" height="29.1328" style="stroke:#181818;stroke-width:1.0;" width="10" x="2101.2866" y="1045.0391"/>
    <rect fill="#FFFFFF" height="29.1328" style="stroke:#181818;stroke-width:1.0;" width="10" x="2101.2866" y="1352.4375"/>
    <rect fill="#FFFFFF" height="29.1328" style="stroke:#181818;stroke-width:1.0;" width="10" x="2280.9956" y="860.9766"/>
    <path d="M41.9656,155.7266 L298.0696,155.7266 L298.0696,162.8594 L288.0696,172.8594 L41.9656,172.8594 L41.9656,155.7266 " fill="#EEEEEE" style="stroke:#000000;stroke-width:1.5;"/>
    <rect fill="none" height="1505.8438" style="stroke:#000000;stroke-width:1.5;" width="2341.2024" x="41.9656" y="155.7266"/>
    <text fill="#000000" font-family="sans-serif" font-size="13" font-weight="bold" lengthAdjust="spacing" textLength="211.104" x="56.9656" y="168.7935">Get Participant&apos;s FSP Details</text>
    <line style="stroke:#181818;stroke-width:1.0;" x1="635.165" x2="625.165" y1="239.3906" y2="235.3906"/>
    <line style="stroke:#181818;stroke-width:1.0;" x1="635.165" x2="625.165" y1="239.3906" y2="243.3906"/>
    <line style="stroke:#181818;stroke-width:1.0;" x1="99.7195" x2="636.165" y1="239.3906" y2="239.3906"/>
    <text fill="#000000" font-family="sans-serif" font-size="13" font-weight="bold" lengthAdjust="spacing" textLength="9.0454" x="106.7195" y="211.6255">1</text>
    <text fill="#000000" font-family="sans-serif" font-size="13" lengthAdjust="spacing" textLength="256.2612" x="119.7649" y="188.9263">Request to get participant&apos;s FSP details</text>
    <text fill="#000000" font-family="sans-serif" font-size="13" lengthAdjust="spacing" textLength="371.6489" x="119.7649" y="204.0591">GET - /participants/{TYPE}/{ID}?currency={CURRENCY}</text>
    <text fill="#388724" font-family="sans-serif" font-size="13" font-weight="bold" lengthAdjust="spacing" textLength="115.0957" x="119.7649" y="219.1919">Response code:</text>
    <text fill="#388724" font-family="sans-serif" font-size="13" lengthAdjust="spacing" textLength="24.813" x="238.9929" y="219.1919">202</text>
    <text fill="#000000" font-family="sans-serif" font-size="13" lengthAdjust="spacing" textLength="4.1323" x="263.8059" y="219.1919"> </text>
    <text fill="#FF0000" font-family="sans-serif" font-size="13" font-weight="bold" lengthAdjust="spacing" textLength="81.5293" x="119.7649" y="234.3247">Error code:</text>
    <text fill="#FF0000" font-family="sans-serif" font-size="13" lengthAdjust="spacing" textLength="154.8193" x="205.4265" y="234.3247">200x, 300x, 310x, 320x</text>
    <path d="M398,252.3906 L398,307.3906 L631,307.3906 L631,262.3906 L621,252.3906 L398,252.3906 " fill="#D3D3D3" style="stroke:#181818;stroke-width:0.5;"/>
    <path d="M621,252.3906 L621,262.3906 L631,262.3906 L621,252.3906 " fill="#D3D3D3" style="stroke:#181818;stroke-width:0.5;"/>
    <text fill="#000000" font-family="sans-serif" font-size="13" lengthAdjust="spacing" textLength="159.269" x="404" y="269.4575">Validate request against</text>
    <text fill="#000000" font-family="sans-serif" font-size="13" lengthAdjust="spacing" textLength="212.583" x="404" y="284.5903">Mojaloop Interface Specification.</text>
    <text fill="#FF0000" font-family="sans-serif" font-size="13" font-weight="bold" lengthAdjust="spacing" textLength="81.5293" x="404" y="299.7231">Error code:</text>
    <text fill="#FF0000" font-family="sans-serif" font-size="13" lengthAdjust="spacing" textLength="73.2773" x="489.6616" y="299.7231">300x, 310x</text>
    <polygon fill="#181818" points="923.4717,329.9219,933.4717,333.9219,923.4717,337.9219,927.4717,333.9219" style="stroke:#181818;stroke-width:1.0;"/>
    <line style="stroke:#181818;stroke-width:1.0;" x1="647.165" x2="929.4717" y1="333.9219" y2="333.9219"/>
    <text fill="#000000" font-family="sans-serif" font-size="13" font-weight="bold" lengthAdjust="spacing" textLength="9.0454" x="654.165" y="328.856">2</text>
    <text fill="#000000" font-family="sans-serif" font-size="13" lengthAdjust="spacing" textLength="256.2612" x="667.2104" y="328.856">Request to get participant&apos;s FSP details</text>
    <path d="M51.9656,348.9219 L116.4084,348.9219 L116.4084,356.0547 L106.4084,366.0547 L51.9656,366.0547 L51.9656,348.9219 " fill="#EEEEEE" style="stroke:#000000;stroke-width:1.5;"/>
    <rect fill="none" height="1305.6484" style="stroke:#000000;stroke-width:1.5;" width="2321.2024" x="51.9656" y="348.9219"/>
    <text fill="#000000" font-family="sans-serif" font-size="13" font-weight="bold" lengthAdjust="spacing" textLength="19.4429" x="66.9656" y="361.9888">alt</text>
    <text fill="#000000" font-family="sans-serif" font-size="11" font-weight="bold" lengthAdjust="spacing" textLength="185.7539" x="131.4084" y="361.1323">[oracleEndpoint match found]</text>
    <path d="M864.3291,373.0547 L1322.2314,373.0547 L1322.2314,380.1875 L1312.2314,390.1875 L864.3291,390.1875 L864.3291,373.0547 " fill="#EEEEEE" style="stroke:#000000;stroke-width:1.5;"/>
    <rect fill="none" height="330.8594" style="stroke:#000000;stroke-width:1.5;" width="802.7866" x="864.3291" y="373.0547"/>
    <text fill="#000000" font-family="sans-serif" font-size="13" font-weight="bold" lengthAdjust="spacing" textLength="408.3765" x="879.3291" y="386.1216">IMPLEMENTATION: Get Oracle Routing Config Sequence</text>
    <text fill="#000000" font-family="sans-serif" font-size="11" font-weight="bold" lengthAdjust="spacing" textLength="60.5645" x="1337.2314" y="385.2651">[CACHED]</text>
    <polygon fill="#181818" points="1308.1426,437.5859,1318.1426,441.5859,1308.1426,445.5859,1312.1426,441.5859" style="stroke:#181818;stroke-width:1.0;"/>
    <line style="stroke:#181818;stroke-width:1.0;" x1="945.4717" x2="1314.1426" y1="441.5859" y2="441.5859"/>
    <text fill="#000000" font-family="sans-serif" font-size="13" font-weight="bold" lengthAdjust="spacing" textLength="9.0454" x="952.4717" y="421.3872">3</text>
    <text fill="#000000" font-family="sans-serif" font-size="13" lengthAdjust="spacing" textLength="280.0396" x="965.5171" y="406.2544">Fetch Oracle Routing information based on</text>
    <text fill="#000000" font-family="sans-serif" font-size="13" lengthAdjust="spacing" textLength="243.166" x="965.5171" y="421.3872">{TYPE} and {CURRENCY} if provided</text>
    <text fill="#FF0000" font-family="sans-serif" font-size="13" font-weight="bold" lengthAdjust="spacing" textLength="81.5293" x="965.5171" y="436.52">Error code:</text>
    <text fill="#FF0000" font-family="sans-serif" font-size="13" lengthAdjust="spacing" textLength="32.5063" x="1051.1787" y="436.52">200x</text>
    <polygon fill="#181818" points="1566.3491,481.8516,1576.3491,485.8516,1566.3491,489.8516,1570.3491,485.8516" style="stroke:#181818;stroke-width:1.0;"/>
    <line style="stroke:#181818;stroke-width:1.0;" x1="1330.1426" x2="1572.3491" y1="485.8516" y2="485.8516"/>
    <text fill="#000000" font-family="sans-serif" font-size="13" font-weight="bold" lengthAdjust="spacing" textLength="9.0454" x="1337.1426" y="473.2192">4</text>
    <text fill="#000000" font-family="sans-serif" font-size="13" lengthAdjust="spacing" textLength="156.7871" x="1350.188" y="465.6528">Retrieve oracleEndpoint</text>
    <text fill="#FF0000" font-family="sans-serif" font-size="13" font-weight="bold" lengthAdjust="spacing" textLength="81.5293" x="1350.188" y="480.7856">Error code:</text>
    <text fill="#FF0000" font-family="sans-serif" font-size="13" lengthAdjust="spacing" textLength="32.5063" x="1435.8496" y="480.7856">200x</text>
    <polygon fill="#FFFFE0" points="1519,498.8516,1647,498.8516,1657,532.8516,1647,566.8516,1519,566.8516,1509,532.8516,1519,498.8516" style="stroke:#181818;stroke-width:0.5;"/>
    <text fill="#000000" font-family="sans-serif" font-size="13" lengthAdjust="spacing" textLength="97.8809" x="1521" y="514.9185">oracleEndpoint</text>
    <text fill="#000000" font-family="sans-serif" font-size="13" lengthAdjust="spacing" textLength="89.5273" x="1521" y="530.0513">endpointType</text>
    <text fill="#000000" font-family="sans-serif" font-size="13" lengthAdjust="spacing" textLength="78.3237" x="1521" y="545.1841">partyIdType</text>
    <text fill="#000000" font-family="sans-serif" font-size="13" lengthAdjust="spacing" textLength="124.1157" x="1521" y="560.3169">currency (optional)</text>
    <polygon fill="#181818" points="1341.1426,589.5156,1331.1426,593.5156,1341.1426,597.5156,1337.1426,593.5156" style="stroke:#181818;stroke-width:1.0;"/>
    <line style="stroke:#181818;stroke-width:1.0;stroke-dasharray:2.0,2.0;" x1="1335.1426" x2="1582.3491" y1="593.5156" y2="593.5156"/>
    <text fill="#000000" font-family="sans-serif" font-size="13" font-weight="bold" lengthAdjust="spacing" textLength="9.0454" x="1347.1426" y="588.4497">5</text>
    <text fill="#000000" font-family="sans-serif" font-size="13" lengthAdjust="spacing" textLength="211.1611" x="1360.188" y="588.4497">Return oracleEndpoint result set</text>
    <polygon fill="#181818" points="956.4717,618.6484,946.4717,622.6484,956.4717,626.6484,952.4717,622.6484" style="stroke:#181818;stroke-width:1.0;"/>
    <line style="stroke:#181818;stroke-width:1.0;stroke-dasharray:2.0,2.0;" x1="950.4717" x2="1324.1426" y1="622.6484" y2="622.6484"/>
    <text fill="#000000" font-family="sans-serif" font-size="13" font-weight="bold" lengthAdjust="spacing" textLength="9.0454" x="962.4717" y="617.5825">6</text>
    <text fill="#000000" font-family="sans-serif" font-size="13" lengthAdjust="spacing" textLength="39.3872" x="975.5171" y="617.5825">List of</text>
    <text fill="#000000" font-family="sans-serif" font-size="13" font-weight="bold" lengthAdjust="spacing" textLength="110.6968" x="1019.0366" y="617.5825">oracleEndpoint</text>
    <text fill="#000000" font-family="sans-serif" font-size="13" lengthAdjust="spacing" textLength="117.6475" x="1133.8657" y="617.5825">for the Participant</text>
    <path d="M874.3291,637.6484 L943.7803,637.6484 L943.7803,644.7813 L933.7803,654.7813 L874.3291,654.7813 L874.3291,637.6484 " fill="#EEEEEE" style="stroke:#000000;stroke-width:1.5;"/>
    <rect fill="none" height="59.2656" style="stroke:#000000;stroke-width:1.5;" width="245.0034" x="874.3291" y="637.6484"/>
    <text fill="#000000" font-family="sans-serif" font-size="13" font-weight="bold" lengthAdjust="spacing" textLength="24.4512" x="889.3291" y="650.7153">opt</text>
    <text fill="#000000" font-family="sans-serif" font-size="11" font-weight="bold" lengthAdjust="spacing" textLength="155.5522" x="958.7803" y="649.8589">[oracleEndpoint IS NULL]</text>
    <line style="stroke:#181818;stroke-width:1.0;" x1="945.4717" x2="987.4717" y1="675.9141" y2="675.9141"/>
    <line style="stroke:#181818;stroke-width:1.0;" x1="987.4717" x2="987.4717" y1="675.9141" y2="688.9141"/>
    <line style="stroke:#181818;stroke-width:1.0;" x1="946.4717" x2="987.4717" y1="688.9141" y2="688.9141"/>
    <polygon fill="#181818" points="956.4717,684.9141,946.4717,688.9141,956.4717,692.9141,952.4717,688.9141" style="stroke:#181818;stroke-width:1.0;"/>
    <text fill="#000000" font-family="sans-serif" font-size="13" font-weight="bold" lengthAdjust="spacing" textLength="9.0454" x="952.4717" y="670.8481">7</text>
    <text fill="#FF0000" font-family="sans-serif" font-size="13" font-weight="bold" lengthAdjust="spacing" textLength="81.5293" x="965.5171" y="670.8481">Error code:</text>
    <text fill="#FF0000" font-family="sans-serif" font-size="13" lengthAdjust="spacing" textLength="33.084" x="1051.1787" y="670.8481">3200</text>
    <path d="M874.3291,717.9141 L1464.0151,717.9141 L1464.0151,725.0469 L1454.0151,735.0469 L874.3291,735.0469 L874.3291,717.9141 " fill="#EEEEEE" style="stroke:#000000;stroke-width:1.5;"/>
    <rect fill="none" height="209.3281" style="stroke:#000000;stroke-width:1.5;" width="1488.8389" x="874.3291" y="717.9141"/>
    <text fill="#000000" font-family="sans-serif" font-size="13" font-weight="bold" lengthAdjust="spacing" textLength="544.686" x="889.3291" y="730.981">IMPLEMENTATION: Request Participant Information from Oracle Sequence</text>
    <polygon fill="#181818" points="1443.1904,782.4453,1453.1904,786.4453,1443.1904,790.4453,1447.1904,786.4453" style="stroke:#181818;stroke-width:1.0;"/>
    <line style="stroke:#181818;stroke-width:1.0;" x1="945.4717" x2="1449.1904" y1="786.4453" y2="786.4453"/>
    <text fill="#000000" font-family="sans-serif" font-size="13" font-weight="bold" lengthAdjust="spacing" textLength="9.0454" x="952.4717" y="766.2466">8</text>
    <text fill="#000000" font-family="sans-serif" font-size="13" lengthAdjust="spacing" textLength="256.2612" x="965.5171" y="751.1138">Request to get participant&apos;s FSP details</text>
    <text fill="#000000" font-family="sans-serif" font-size="13" lengthAdjust="spacing" textLength="371.6489" x="965.5171" y="766.2466">GET - /participants/{TYPE}/{ID}?currency={CURRENCY}</text>
    <text fill="#FF0000" font-family="sans-serif" font-size="13" font-weight="bold" lengthAdjust="spacing" textLength="81.5293" x="965.5171" y="781.3794">Error code:</text>
    <text fill="#FF0000" font-family="sans-serif" font-size="13" lengthAdjust="spacing" textLength="114.0483" x="1051.1787" y="781.3794">200x, 310x, 320x</text>
    <polygon fill="#181818" points="2268.9956,856.9766,2278.9956,860.9766,2268.9956,864.9766,2272.9956,860.9766" style="stroke:#181818;stroke-width:1.0;"/>
    <line style="stroke:#181818;stroke-width:1.0;" x1="1465.1904" x2="2274.9956" y1="860.9766" y2="860.9766"/>
    <text fill="#000000" font-family="sans-serif" font-size="13" font-weight="bold" lengthAdjust="spacing" textLength="9.0454" x="1472.1904" y="833.2114">9</text>
    <text fill="#000000" font-family="sans-serif" font-size="13" lengthAdjust="spacing" textLength="256.2612" x="1485.2358" y="810.5122">Request to get participant&apos;s FSP details</text>
    <text fill="#000000" font-family="sans-serif" font-size="13" lengthAdjust="spacing" textLength="371.6489" x="1485.2358" y="825.645">GET - /participants/{TYPE}/{ID}?currency={CURRENCY}</text>
    <text fill="#388724" font-family="sans-serif" font-size="13" font-weight="bold" lengthAdjust="spacing" textLength="115.0957" x="1485.2358" y="840.7778">Response code:</text>
    <text fill="#388724" font-family="sans-serif" font-size="13" lengthAdjust="spacing" textLength="24.813" x="1604.4639" y="840.7778">200</text>
    <text fill="#000000" font-family="sans-serif" font-size="13" lengthAdjust="spacing" textLength="4.1323" x="1629.2769" y="840.7778"> </text>
    <text fill="#FF0000" font-family="sans-serif" font-size="13" font-weight="bold" lengthAdjust="spacing" textLength="81.5293" x="1485.2358" y="855.9106">Error code:</text>
    <text fill="#FF0000" font-family="sans-serif" font-size="13" lengthAdjust="spacing" textLength="114.0483" x="1570.8975" y="855.9106">200x, 310x, 320x</text>
    <polygon fill="#181818" points="1476.1904,886.1094,1466.1904,890.1094,1476.1904,894.1094,1472.1904,890.1094" style="stroke:#181818;stroke-width:1.0;"/>
    <line style="stroke:#181818;stroke-width:1.0;stroke-dasharray:2.0,2.0;" x1="1470.1904" x2="2284.9956" y1="890.1094" y2="890.1094"/>
    <text fill="#000000" font-family="sans-serif" font-size="13" font-weight="bold" lengthAdjust="spacing" textLength="18.0908" x="1482.1904" y="885.0435">10</text>
    <text fill="#000000" font-family="sans-serif" font-size="13" lengthAdjust="spacing" textLength="237.5356" x="1504.2813" y="885.0435">Return list of Participant information</text>
    <polygon fill="#181818" points="956.4717,915.2422,946.4717,919.2422,956.4717,923.2422,952.4717,919.2422" style="stroke:#181818;stroke-width:1.0;"/>
    <line style="stroke:#181818;stroke-width:1.0;stroke-dasharray:2.0,2.0;" x1="950.4717" x2="1459.1904" y1="919.2422" y2="919.2422"/>
    <text fill="#000000" font-family="sans-serif" font-size="13" font-weight="bold" lengthAdjust="spacing" textLength="18.0908" x="962.4717" y="914.1763">11</text>
    <text fill="#000000" font-family="sans-serif" font-size="13" lengthAdjust="spacing" textLength="237.5356" x="984.5625" y="914.1763">Return list of Participant information</text>
    <polygon fill="#181818" points="1697.8218,966.5078,1707.8218,970.5078,1697.8218,974.5078,1701.8218,970.5078" style="stroke:#181818;stroke-width:1.0;"/>
    <line style="stroke:#181818;stroke-width:1.0;" x1="945.4717" x2="1703.8218" y1="970.5078" y2="970.5078"/>
    <text fill="#000000" font-family="sans-serif" font-size="13" font-weight="bold" lengthAdjust="spacing" textLength="18.0908" x="952.4717" y="957.8755">12</text>
    <text fill="#000000" font-family="sans-serif" font-size="13" lengthAdjust="spacing" textLength="340.374" x="974.5625" y="950.3091">Retrieve the PayerFSP Participant Callback Endpoint</text>
    <text fill="#FF0000" font-family="sans-serif" font-size="13" font-weight="bold" lengthAdjust="spacing" textLength="81.5293" x="974.5625" y="965.4419">Error code:</text>
    <text fill="#FF0000" font-family="sans-serif" font-size="13" lengthAdjust="spacing" textLength="114.0483" x="1060.2241" y="965.4419">200x, 310x, 320x</text>
    <polygon fill="#181818" points="2089.2866,1041.0391,2099.2866,1045.0391,2089.2866,1049.0391,2093.2866,1045.0391" style="stroke:#181818;stroke-width:1.0;"/>
    <line style="stroke:#181818;stroke-width:1.0;" x1="1719.8218" x2="2095.2866" y1="1045.0391" y2="1045.0391"/>
    <text fill="#000000" font-family="sans-serif" font-size="13" font-weight="bold" lengthAdjust="spacing" textLength="18.0908" x="1726.8218" y="1017.2739">13</text>
    <text fill="#000000" font-family="sans-serif" font-size="13" lengthAdjust="spacing" textLength="340.374" x="1748.9126" y="994.5747">Retrieve the PayerFSP Participant Callback Endpoint</text>
    <text fill="#000000" font-family="sans-serif" font-size="13" lengthAdjust="spacing" textLength="305.7412" x="1748.9126" y="1009.7075">GET - /participants/{FSPIOP-Source}/endpoints</text>
    <text fill="#388724" font-family="sans-serif" font-size="13" font-weight="bold" lengthAdjust="spacing" textLength="115.0957" x="1748.9126" y="1024.8403">Response code:</text>
    <text fill="#388724" font-family="sans-serif" font-size="13" lengthAdjust="spacing" textLength="24.813" x="1868.1406" y="1024.8403">200</text>
    <text fill="#000000" font-family="sans-serif" font-size="13" lengthAdjust="spacing" textLength="4.1323" x="1892.9536" y="1024.8403"> </text>
    <text fill="#FF0000" font-family="sans-serif" font-size="13" font-weight="bold" lengthAdjust="spacing" textLength="81.5293" x="1748.9126" y="1039.9731">Error code:</text>
    <text fill="#FF0000" font-family="sans-serif" font-size="13" lengthAdjust="spacing" textLength="114.0483" x="1834.5742" y="1039.9731">200x, 310x, 320x</text>
    <polygon fill="#181818" points="1730.8218,1070.1719,1720.8218,1074.1719,1730.8218,1078.1719,1726.8218,1074.1719" style="stroke:#181818;stroke-width:1.0;"/>
    <line style="stroke:#181818;stroke-width:1.0;stroke-dasharray:2.0,2.0;" x1="1724.8218" x2="2105.2866" y1="1074.1719" y2="1074.1719"/>
    <text fill="#000000" font-family="sans-serif" font-size="13" font-weight="bold" lengthAdjust="spacing" textLength="18.0908" x="1736.8218" y="1069.106">14</text>
    <text fill="#000000" font-family="sans-serif" font-size="13" lengthAdjust="spacing" textLength="306.2935" x="1758.9126" y="1069.106">List of PayerFSP Participant Callback Endpoints</text>
    <polygon fill="#181818" points="956.4717,1099.3047,946.4717,1103.3047,956.4717,1107.3047,952.4717,1103.3047" style="stroke:#181818;stroke-width:1.0;"/>
    <line style="stroke:#181818;stroke-width:1.0;stroke-dasharray:2.0,2.0;" x1="950.4717" x2="1713.8218" y1="1103.3047" y2="1103.3047"/>
    <text fill="#000000" font-family="sans-serif" font-size="13" font-weight="bold" lengthAdjust="spacing" textLength="18.0908" x="962.4717" y="1098.2388">15</text>
    <text fill="#000000" font-family="sans-serif" font-size="13" lengthAdjust="spacing" textLength="306.2935" x="984.5625" y="1098.2388">List of PayerFSP Participant Callback Endpoints</text>
    <line style="stroke:#181818;stroke-width:1.0;" x1="945.4717" x2="987.4717" y1="1147.5703" y2="1147.5703"/>
    <line style="stroke:#181818;stroke-width:1.0;" x1="987.4717" x2="987.4717" y1="1147.5703" y2="1160.5703"/>
    <line style="stroke:#181818;stroke-width:1.0;" x1="946.4717" x2="987.4717" y1="1160.5703" y2="1160.5703"/>
    <polygon fill="#181818" points="956.4717,1156.5703,946.4717,1160.5703,956.4717,1164.5703,952.4717,1160.5703" style="stroke:#181818;stroke-width:1.0;"/>
    <text fill="#000000" font-family="sans-serif" font-size="13" font-weight="bold" lengthAdjust="spacing" textLength="18.0908" x="952.4717" y="1134.938">16</text>
    <text fill="#000000" font-family="sans-serif" font-size="13" lengthAdjust="spacing" textLength="328.5801" x="974.5625" y="1127.3716">Match PayerFSP Participant Callback Endpoints for</text>
    <text fill="#000000" font-family="sans-serif" font-size="13" lengthAdjust="spacing" textLength="275.2788" x="974.5625" y="1142.5044">FSPIOP_CALLBACK_URL_PARTICIPANT_PUT</text>
    <polygon fill="#181818" points="658.165,1185.7031,648.165,1189.7031,658.165,1193.7031,654.165,1189.7031" style="stroke:#181818;stroke-width:1.0;"/>
    <line style="stroke:#181818;stroke-width:1.0;stroke-dasharray:2.0,2.0;" x1="652.165" x2="934.4717" y1="1189.7031" y2="1189.7031"/>
    <text fill="#000000" font-family="sans-serif" font-size="13" font-weight="bold" lengthAdjust="spacing" textLength="18.0908" x="664.165" y="1184.6372">17</text>
    <text fill="#000000" font-family="sans-serif" font-size="13" lengthAdjust="spacing" textLength="237.5356" x="686.2559" y="1184.6372">Return list of Participant information</text>
    <line style="stroke:#181818;stroke-width:1.0;" x1="100.7195" x2="110.7195" y1="1218.8359" y2="1214.8359"/>
    <line style="stroke:#181818;stroke-width:1.0;" x1="100.7195" x2="110.7195" y1="1218.8359" y2="1222.8359"/>
    <line style="stroke:#181818;stroke-width:1.0;" x1="99.7195" x2="636.165" y1="1218.8359" y2="1218.8359"/>
    <text fill="#000000" font-family="sans-serif" font-size="13" font-weight="bold" lengthAdjust="spacing" textLength="18.0908" x="116.7195" y="1213.77">18</text>
    <text fill="#000000" font-family="sans-serif" font-size="13" lengthAdjust="spacing" textLength="434.3892" x="138.8103" y="1213.77">Callback: PUT - /participants/{TYPE}/{ID}?currency={CURRENCY}</text>
    <line style="stroke:#000000;stroke-width:1.0;stroke-dasharray:2.0,2.0;" x1="51.9656" x2="2373.168" y1="1227.8359" y2="1227.8359"/>
    <text fill="#000000" font-family="sans-serif" font-size="11" font-weight="bold" lengthAdjust="spacing" textLength="270.7676" x="56.9656" y="1238.0464">[oracleEndpoint IS NULL OR error occurred]</text>
    <polygon fill="#181818" points="1697.8218,1273.9063,1707.8218,1277.9063,1697.8218,1281.9063,1701.8218,1277.9063" style="stroke:#181818;stroke-width:1.0;"/>
    <line style="stroke:#181818;stroke-width:1.0;" x1="945.4717" x2="1703.8218" y1="1277.9063" y2="1277.9063"/>
    <text fill="#000000" font-family="sans-serif" font-size="13" font-weight="bold" lengthAdjust="spacing" textLength="18.0908" x="952.4717" y="1265.2739">19</text>
    <text fill="#000000" font-family="sans-serif" font-size="13" lengthAdjust="spacing" textLength="275.8311" x="974.5625" y="1257.7075">Retrieve the Participant Callback Endpoint</text>
    <text fill="#FF0000" font-family="sans-serif" font-size="13" font-weight="bold" lengthAdjust="spacing" textLength="81.5293" x="974.5625" y="1272.8403">Error code:</text>
    <text fill="#FF0000" font-family="sans-serif" font-size="13" lengthAdjust="spacing" textLength="114.0483" x="1060.2241" y="1272.8403">200x, 310x, 320x</text>
    <polygon fill="#181818" points="2089.2866,1348.4375,2099.2866,1352.4375,2089.2866,1356.4375,2093.2866,1352.4375" style="stroke:#181818;stroke-width:1.0;"/>
    <line style="stroke:#181818;stroke-width:1.0;" x1="1719.8218" x2="2095.2866" y1="1352.4375" y2="1352.4375"/>
    <text fill="#000000" font-family="sans-serif" font-size="13" font-weight="bold" lengthAdjust="spacing" textLength="18.0908" x="1726.8218" y="1324.6724">20</text>
    <text fill="#000000" font-family="sans-serif" font-size="13" lengthAdjust="spacing" textLength="275.8311" x="1748.9126" y="1301.9731">Retrieve the Participant Callback Endpoint</text>
    <text fill="#000000" font-family="sans-serif" font-size="13" lengthAdjust="spacing" textLength="309.8735" x="1748.9126" y="1317.106">GET - /participants/{FSPIOP-Source}/endpoints.</text>
    <text fill="#388724" font-family="sans-serif" font-size="13" font-weight="bold" lengthAdjust="spacing" textLength="115.0957" x="1748.9126" y="1332.2388">Response code:</text>
    <text fill="#388724" font-family="sans-serif" font-size="13" lengthAdjust="spacing" textLength="24.813" x="1868.5342" y="1332.2388">200</text>
    <text fill="#000000" font-family="sans-serif" font-size="13" lengthAdjust="spacing" textLength="4.1323" x="1893.3472" y="1332.2388"> </text>
    <text fill="#FF0000" font-family="sans-serif" font-size="13" font-weight="bold" lengthAdjust="spacing" textLength="81.5293" x="1748.9126" y="1347.3716">Error code:</text>
    <text fill="#FF0000" font-family="sans-serif" font-size="13" lengthAdjust="spacing" textLength="114.0483" x="1834.5742" y="1347.3716">200x, 310x, 320x</text>
    <polygon fill="#181818" points="1730.8218,1377.5703,1720.8218,1381.5703,1730.8218,1385.5703,1726.8218,1381.5703" style="stroke:#181818;stroke-width:1.0;"/>
    <line style="stroke:#181818;stroke-width:1.0;stroke-dasharray:2.0,2.0;" x1="1724.8218" x2="2105.2866" y1="1381.5703" y2="1381.5703"/>
    <text fill="#000000" font-family="sans-serif" font-size="13" font-weight="bold" lengthAdjust="spacing" textLength="18.0908" x="1736.8218" y="1376.5044">21</text>
    <text fill="#000000" font-family="sans-serif" font-size="13" lengthAdjust="spacing" textLength="241.7505" x="1758.9126" y="1376.5044">List of Participant Callback Endpoints</text>
    <polygon fill="#181818" points="956.4717,1406.7031,946.4717,1410.7031,956.4717,1414.7031,952.4717,1410.7031" style="stroke:#181818;stroke-width:1.0;"/>
    <line style="stroke:#181818;stroke-width:1.0;stroke-dasharray:2.0,2.0;" x1="950.4717" x2="1713.8218" y1="1410.7031" y2="1410.7031"/>
    <text fill="#000000" font-family="sans-serif" font-size="13" font-weight="bold" lengthAdjust="spacing" textLength="18.0908" x="962.4717" y="1405.6372">22</text>
    <text fill="#000000" font-family="sans-serif" font-size="13" lengthAdjust="spacing" textLength="241.7505" x="984.5625" y="1405.6372">List of Participant Callback Endpoints</text>
    <line style="stroke:#181818;stroke-width:1.0;" x1="945.4717" x2="987.4717" y1="1454.9688" y2="1454.9688"/>
    <line style="stroke:#181818;stroke-width:1.0;" x1="987.4717" x2="987.4717" y1="1454.9688" y2="1467.9688"/>
    <line style="stroke:#181818;stroke-width:1.0;" x1="946.4717" x2="987.4717" y1="1467.9688" y2="1467.9688"/>
    <polygon fill="#181818" points="956.4717,1463.9688,946.4717,1467.9688,956.4717,1471.9688,952.4717,1467.9688" style="stroke:#181818;stroke-width:1.0;"/>
    <text fill="#000000" font-family="sans-serif" font-size="13" font-weight="bold" lengthAdjust="spacing" textLength="18.0908" x="952.4717" y="1442.3364">23</text>
    <text fill="#000000" font-family="sans-serif" font-size="13" lengthAdjust="spacing" textLength="264.0371" x="974.5625" y="1434.77">Match Participant Callback Endpoints for</text>
    <text fill="#000000" font-family="sans-serif" font-size="13" lengthAdjust="spacing" textLength="327.3232" x="974.5625" y="1449.9028">FSPIOP_CALLBACK_URL_PARTICIPANT_PUT_ERROR</text>
    <polygon fill="#181818" points="658.165,1508.2344,648.165,1512.2344,658.165,1516.2344,654.165,1512.2344" style="stroke:#181818;stroke-width:1.0;"/>
    <line style="stroke:#181818;stroke-width:1.0;stroke-dasharray:2.0,2.0;" x1="652.165" x2="934.4717" y1="1512.2344" y2="1512.2344"/>
    <text fill="#000000" font-family="sans-serif" font-size="13" font-weight="bold" lengthAdjust="spacing" textLength="18.0908" x="664.165" y="1499.6021">24</text>
    <text fill="#000000" font-family="sans-serif" font-size="13" lengthAdjust="spacing" textLength="81.9609" x="686.2559" y="1492.0356">Handle error</text>
    <text fill="#FF0000" font-family="sans-serif" font-size="13" font-weight="bold" lengthAdjust="spacing" textLength="81.5293" x="686.2559" y="1507.1685">Error code:</text>
    <text fill="#FF0000" font-family="sans-serif" font-size="13" lengthAdjust="spacing" textLength="114.0483" x="771.9175" y="1507.1685">200x, 310x, 320x</text>
    <line style="stroke:#181818;stroke-width:1.0;" x1="100.7195" x2="110.7195" y1="1541.3672" y2="1537.3672"/>
    <line style="stroke:#181818;stroke-width:1.0;" x1="100.7195" x2="110.7195" y1="1541.3672" y2="1545.3672"/>
    <line style="stroke:#181818;stroke-width:1.0;" x1="99.7195" x2="636.165" y1="1541.3672" y2="1541.3672"/>
    <text fill="#000000" font-family="sans-serif" font-size="13" font-weight="bold" lengthAdjust="spacing" textLength="18.0908" x="116.7195" y="1536.3013">25</text>
    <text fill="#000000" font-family="sans-serif" font-size="13" lengthAdjust="spacing" textLength="307.6519" x="138.8103" y="1536.3013">Callback: PUT - /participants/{TYPE}/{ID}/error</text>
    <line style="stroke:#000000;stroke-width:1.0;stroke-dasharray:2.0,2.0;" x1="51.9656" x2="2373.168" y1="1550.3672" y2="1550.3672"/>
    <text fill="#000000" font-family="sans-serif" font-size="11" font-weight="bold" lengthAdjust="spacing" textLength="157.4858" x="56.9656" y="1560.5776">[switchEndpoint IS NULL]</text>
    <line style="stroke:#181818;stroke-width:1.0;" x1="945.4717" x2="987.4717" y1="1600.4375" y2="1600.4375"/>
    <line style="stroke:#181818;stroke-width:1.0;" x1="987.4717" x2="987.4717" y1="1600.4375" y2="1613.4375"/>
    <line style="stroke:#181818;stroke-width:1.0;" x1="946.4717" x2="987.4717" y1="1613.4375" y2="1613.4375"/>
    <polygon fill="#181818" points="956.4717,1609.4375,946.4717,1613.4375,956.4717,1617.4375,952.4717,1613.4375" style="stroke:#181818;stroke-width:1.0;"/>
    <text fill="#000000" font-family="sans-serif" font-size="13" font-weight="bold" lengthAdjust="spacing" textLength="18.0908" x="952.4717" y="1587.8052">26</text>
    <text fill="#000000" font-family="sans-serif" font-size="13" lengthAdjust="spacing" textLength="81.9609" x="974.5625" y="1580.2388">Handle error</text>
    <text fill="#FF0000" font-family="sans-serif" font-size="13" font-weight="bold" lengthAdjust="spacing" textLength="81.5293" x="974.5625" y="1595.3716">Error code:</text>
    <text fill="#FF0000" font-family="sans-serif" font-size="13" lengthAdjust="spacing" textLength="32.5063" x="1060.2241" y="1595.3716">200x</text>
    <polygon fill="#FF0000" points="960,1626.4375,1135,1626.4375,1145,1637.4375,1135,1649.4375,960,1649.4375,950,1637.4375,960,1626.4375" style="stroke:#181818;stroke-width:0.5;"/>
    <text fill="#FFFFFF" font-family="sans-serif" font-size="13" lengthAdjust="spacing" textLength="171.3232" x="962" y="1642.5044">Error Handling Framework</text>
  </g>
</svg>
