<?xml version="1.0" encoding="us-ascii" standalone="no"?><svg xmlns="http://www.w3.org/2000/svg" xmlns:xlink="http://www.w3.org/1999/xlink" contentStyleType="text/css" height="1028px" preserveAspectRatio="none" style="width:1268px;height:1028px;background:#FFFFFF;" version="1.1" viewBox="0 0 1268 1028" width="1268px" zoomAndPan="magnify"><defs/><g><text fill="#000000" font-family="sans-serif" font-size="14" font-weight="bold" lengthAdjust="spacing" textLength="424" x="419" y="29.5332">Discovery - Currency Conversion with Amount Type RECEIVE</text><rect fill="#ADD8E6" height="977.3906" style="stroke:#181818;stroke-width:0.5;" width="274.5" x="148.5" y="44.6094"/><text fill="#000000" font-family="sans-serif" font-size="13" font-weight="bold" lengthAdjust="spacing" textLength="76" x="247.75" y="58.1045">Payer DFSP</text><rect fill="#FFFFE0" height="977.3906" style="stroke:#181818;stroke-width:0.5;" width="119" x="836" y="44.6094"/><text fill="#000000" font-family="sans-serif" font-size="13" font-weight="bold" lengthAdjust="spacing" textLength="113" x="839" y="58.1045">Discovery Service</text><rect fill="#ADD8E6" height="977.3906" style="stroke:#181818;stroke-width:0.5;" width="305" x="957" y="44.6094"/><text fill="#000000" font-family="sans-serif" font-size="13" font-weight="bold" lengthAdjust="spacing" textLength="79" x="1070" y="58.1045">Payee DFSP</text><rect fill="#FFFFFF" height="77.0547" style="stroke:#181818;stroke-width:1.0;" width="10" x="374" y="228.1953"/><rect fill="#FFFFFF" height="124.7578" style="stroke:#181818;stroke-width:1.0;" width="10" x="374" y="807.6328"/><rect fill="#FFFFFF" height="151.7578" style="stroke:#181818;stroke-width:1.0;" width="10" x="658" y="274.8984"/><rect fill="#FFFFFF" height="159.4609" style="stroke:#181818;stroke-width:1.0;" width="10" x="658" y="678.5234"/><rect fill="#FFFFFF" height="30.3516" style="stroke:#181818;stroke-width:1.0;" width="10" x="890.5" y="335.6016"/><rect fill="#FFFFFF" height="364.625" style="stroke:#181818;stroke-width:1.0;" width="10" x="996" y="396.3047"/><line style="stroke:#181818;stroke-width:0.5;stroke-dasharray:5.0,5.0;" x1="28" x2="28" y1="132.7891" y2="941.3906"/><line style="stroke:#181818;stroke-width:0.5;stroke-dasharray:5.0,5.0;" x1="193.5" x2="193.5" y1="132.7891" y2="941.3906"/><line style="stroke:#181818;stroke-width:0.5;stroke-dasharray:5.0,5.0;" x1="379" x2="379" y1="132.7891" y2="941.3906"/><line style="stroke:#181818;stroke-width:0.5;stroke-dasharray:5.0,5.0;" x1="662.5" x2="662.5" y1="132.7891" y2="941.3906"/><line style="stroke:#181818;stroke-width:0.5;stroke-dasharray:5.0,5.0;" x1="895.5" x2="895.5" y1="132.7891" y2="941.3906"/><line style="stroke:#181818;stroke-width:0.5;stroke-dasharray:5.0,5.0;" x1="1001" x2="1001" y1="132.7891" y2="941.3906"/><line style="stroke:#181818;stroke-width:0.5;stroke-dasharray:5.0,5.0;" x1="1215" x2="1215" y1="132.7891" y2="941.3906"/><text fill="#000000" font-family="sans-serif" font-size="14" lengthAdjust="spacing" textLength="40" x="5" y="129.7129">Keeya</text><ellipse cx="28" cy="63.6797" fill="#E2E2F0" rx="8" ry="8" style="stroke:#181818;stroke-width:0.5;"/><path d="M28,71.6797 L28,98.6797 M15,79.6797 L41,79.6797 M28,98.6797 L15,113.6797 M28,98.6797 L41,113.6797 " fill="none" style="stroke:#181818;stroke-width:0.5;"/><text fill="#000000" font-family="sans-serif" font-size="14" lengthAdjust="spacing" textLength="40" x="5" y="954.9238">Keeya</text><ellipse cx="28" cy="966.5" fill="#E2E2F0" rx="8" ry="8" style="stroke:#181818;stroke-width:0.5;"/><path d="M28,974.5 L28,1001.5 M15,982.5 L41,982.5 M28,1001.5 L15,1016.5 M28,1001.5 L41,1016.5 " fill="none" style="stroke:#181818;stroke-width:0.5;"/><rect fill="#E2E2F0" height="31.6094" rx="2.5" ry="2.5" style="stroke:#181818;stroke-width:0.5;" width="83" x="152.5" y="100.1797"/><text fill="#000000" font-family="sans-serif" font-size="14" lengthAdjust="spacing" textLength="69" x="159.5" y="121.7129">Payer CBS</text><rect fill="#E2E2F0" height="31.6094" rx="2.5" ry="2.5" style="stroke:#181818;stroke-width:0.5;" width="83" x="152.5" y="940.3906"/><text fill="#000000" font-family="sans-serif" font-size="14" lengthAdjust="spacing" textLength="69" x="159.5" y="961.9238">Payer CBS</text><rect fill="#E2E2F0" height="66.8281" rx="2.5" ry="2.5" style="stroke:#181818;stroke-width:0.5;" width="80" x="339" y="64.9609"/><text fill="#000000" font-family="sans-serif" font-size="14" lengthAdjust="spacing" textLength="37" x="360.5" y="86.4941">Payer</text><text fill="#000000" font-family="sans-serif" font-size="14" lengthAdjust="spacing" textLength="57" x="350.5" y="104.1035">Mojaloop</text><text fill="#000000" font-family="sans-serif" font-size="14" lengthAdjust="spacing" textLength="66" x="346" y="121.7129">Connector</text><rect fill="#E2E2F0" height="66.8281" rx="2.5" ry="2.5" style="stroke:#181818;stroke-width:0.5;" width="80" x="339" y="940.3906"/><text fill="#000000" font-family="sans-serif" font-size="14" lengthAdjust="spacing" textLength="37" x="360.5" y="961.9238">Payer</text><text fill="#000000" font-family="sans-serif" font-size="14" lengthAdjust="spacing" textLength="57" x="350.5" y="979.5332">Mojaloop</text><text fill="#000000" font-family="sans-serif" font-size="14" lengthAdjust="spacing" textLength="66" x="346" y="997.1426">Connector</text><rect fill="#E2E2F0" height="31.6094" rx="2.5" ry="2.5" style="stroke:#181818;stroke-width:0.5;" width="115" x="605.5" y="100.1797"/><text fill="#000000" font-family="sans-serif" font-size="14" lengthAdjust="spacing" textLength="101" x="612.5" y="121.7129">Mojaloop Switch</text><rect fill="#E2E2F0" height="31.6094" rx="2.5" ry="2.5" style="stroke:#181818;stroke-width:0.5;" width="115" x="605.5" y="940.3906"/><text fill="#000000" font-family="sans-serif" font-size="14" lengthAdjust="spacing" textLength="101" x="612.5" y="961.9238">Mojaloop Switch</text><rect fill="#E2E2F0" height="31.6094" rx="2.5" ry="2.5" style="stroke:#181818;stroke-width:0.5;" width="86" x="852.5" y="100.1797"/><text fill="#000000" font-family="sans-serif" font-size="14" lengthAdjust="spacing" textLength="72" x="859.5" y="121.7129">ALS Oracle</text><rect fill="#E2E2F0" height="31.6094" rx="2.5" ry="2.5" style="stroke:#181818;stroke-width:0.5;" width="86" x="852.5" y="940.3906"/><text fill="#000000" font-family="sans-serif" font-size="14" lengthAdjust="spacing" textLength="72" x="859.5" y="961.9238">ALS Oracle</text><rect fill="#E2E2F0" height="66.8281" rx="2.5" ry="2.5" style="stroke:#181818;stroke-width:0.5;" width="80" x="961" y="64.9609"/><text fill="#000000" font-family="sans-serif" font-size="14" lengthAdjust="spacing" textLength="40" x="981" y="86.4941">Payee</text><text fill="#000000" font-family="sans-serif" font-size="14" lengthAdjust="spacing" textLength="57" x="972.5" y="104.1035">Mojaloop</text><text fill="#000000" font-family="sans-serif" font-size="14" lengthAdjust="spacing" textLength="66" x="968" y="121.7129">Connector</text><rect fill="#E2E2F0" height="66.8281" rx="2.5" ry="2.5" style="stroke:#181818;stroke-width:0.5;" width="80" x="961" y="940.3906"/><text fill="#000000" font-family="sans-serif" font-size="14" lengthAdjust="spacing" textLength="40" x="981" y="961.9238">Payee</text><text fill="#000000" font-family="sans-serif" font-size="14" lengthAdjust="spacing" textLength="57" x="972.5" y="979.5332">Mojaloop</text><text fill="#000000" font-family="sans-serif" font-size="14" lengthAdjust="spacing" textLength="66" x="968" y="997.1426">Connector</text><rect fill="#E2E2F0" height="31.6094" rx="2.5" ry="2.5" style="stroke:#181818;stroke-width:0.5;" width="86" x="1172" y="100.1797"/><text fill="#000000" font-family="sans-serif" font-size="14" lengthAdjust="spacing" textLength="72" x="1179" y="121.7129">Payee CBS</text><rect fill="#E2E2F0" height="31.6094" rx="2.5" ry="2.5" style="stroke:#181818;stroke-width:0.5;" width="86" x="1172" y="940.3906"/><text fill="#000000" font-family="sans-serif" font-size="14" lengthAdjust="spacing" textLength="72" x="1179" y="961.9238">Payee CBS</text><rect fill="#FFFFFF" height="77.0547" style="stroke:#181818;stroke-width:1.0;" width="10" x="374" y="228.1953"/><rect fill="#FFFFFF" height="124.7578" style="stroke:#181818;stroke-width:1.0;" width="10" x="374" y="807.6328"/><rect fill="#FFFFFF" height="151.7578" style="stroke:#181818;stroke-width:1.0;" width="10" x="658" y="274.8984"/><rect fill="#FFFFFF" height="159.4609" style="stroke:#181818;stroke-width:1.0;" width="10" x="658" y="678.5234"/><rect fill="#FFFFFF" height="30.3516" style="stroke:#181818;stroke-width:1.0;" width="10" x="890.5" y="335.6016"/><rect fill="#FFFFFF" height="364.625" style="stroke:#181818;stroke-width:1.0;" width="10" x="996" y="396.3047"/><polygon fill="#181818" points="182,193.8438,192,197.8438,182,201.8438,186,197.8438" style="stroke:#181818;stroke-width:1.0;"/><line style="stroke:#181818;stroke-width:1.0;" x1="28" x2="188" y1="197.8438" y2="197.8438"/><text fill="#000000" font-family="sans-serif" font-size="13" font-weight="bold" lengthAdjust="spacing" textLength="7" x="35" y="176.6357">1</text><text fill="#000000" font-family="sans-serif" font-size="13" lengthAdjust="spacing" textLength="107" x="46" y="160.2842">I'd like to pay Yaro</text><text fill="#000000" font-family="sans-serif" font-size="13" lengthAdjust="spacing" textLength="80" x="46" y="176.6357">50000 TZS for</text><text fill="#000000" font-family="sans-serif" font-size="13" lengthAdjust="spacing" textLength="131" x="46" y="192.9873">his latest book, please</text><polygon fill="#181818" points="362,224.1953,372,228.1953,362,232.1953,366,228.1953" style="stroke:#181818;stroke-width:1.0;"/><line style="stroke:#181818;stroke-width:1.0;" x1="194" x2="368" y1="228.1953" y2="228.1953"/><text fill="#000000" font-family="sans-serif" font-size="13" font-weight="bold" lengthAdjust="spacing" textLength="7" x="201" y="223.3389">2</text><text fill="#000000" font-family="sans-serif" font-size="13" lengthAdjust="spacing" textLength="150" x="212" y="223.3389">Initiate merchant payment</text><line style="stroke:#181818;stroke-width:1.0;" x1="656" x2="646" y1="274.8984" y2="270.8984"/><line style="stroke:#181818;stroke-width:1.0;" x1="656" x2="646" y1="274.8984" y2="278.8984"/><line style="stroke:#181818;stroke-width:1.0;" x1="384" x2="657" y1="274.8984" y2="274.8984"/><text fill="#000000" font-family="sans-serif" font-size="13" font-weight="bold" lengthAdjust="spacing" textLength="7" x="391" y="261.8662">3</text><text fill="#000000" font-family="sans-serif" font-size="13" lengthAdjust="spacing" textLength="208" x="402" y="253.6904">I want to send to MSISDN 255123...</text><text fill="#000000" font-family="sans-serif" font-size="13" font-weight="bold" lengthAdjust="spacing" textLength="190" x="402" y="270.042">GET /parties/MSISDN/255123...</text><line style="stroke:#181818;stroke-width:1.0;" x1="380" x2="390" y1="305.25" y2="301.25"/><line style="stroke:#181818;stroke-width:1.0;" x1="380" x2="390" y1="305.25" y2="309.25"/><line style="stroke:#181818;stroke-width:1.0;stroke-dasharray:2.0,2.0;" x1="379" x2="657" y1="305.25" y2="305.25"/><text fill="#000000" font-family="sans-serif" font-size="13" font-weight="bold" lengthAdjust="spacing" textLength="7" x="396" y="300.3936">4</text><text fill="#000000" font-family="sans-serif" font-size="13" lengthAdjust="spacing" textLength="130" x="407" y="300.3936">202 I'll get back to you</text><polygon fill="#181818" points="878.5,331.6016,888.5,335.6016,878.5,339.6016,882.5,335.6016" style="stroke:#181818;stroke-width:1.0;"/><line style="stroke:#181818;stroke-width:1.0;" x1="668" x2="884.5" y1="335.6016" y2="335.6016"/><text fill="#000000" font-family="sans-serif" font-size="13" font-weight="bold" lengthAdjust="spacing" textLength="7" x="675" y="330.7451">5</text><text fill="#000000" font-family="sans-serif" font-size="13" lengthAdjust="spacing" textLength="180" x="686" y="330.7451">Who owns MSISDN 255123...?</text><polygon fill="#181818" points="679,361.9531,669,365.9531,679,369.9531,675,365.9531" style="stroke:#181818;stroke-width:1.0;"/><line style="stroke:#181818;stroke-width:1.0;stroke-dasharray:2.0,2.0;" x1="673" x2="894.5" y1="365.9531" y2="365.9531"/><text fill="#000000" font-family="sans-serif" font-size="13" font-weight="bold" lengthAdjust="spacing" textLength="7" x="685" y="361.0967">6</text><text fill="#000000" font-family="sans-serif" font-size="13" lengthAdjust="spacing" textLength="83" x="696" y="361.0967">It's PayeeFSP</text><line style="stroke:#181818;stroke-width:1.0;" x1="994" x2="984" y1="396.3047" y2="392.3047"/><line style="stroke:#181818;stroke-width:1.0;" x1="994" x2="984" y1="396.3047" y2="400.3047"/><line style="stroke:#181818;stroke-width:1.0;" x1="668" x2="995" y1="396.3047" y2="396.3047"/><text fill="#000000" font-family="sans-serif" font-size="13" font-weight="bold" lengthAdjust="spacing" textLength="7" x="675" y="391.4482">7</text><text fill="#000000" font-family="sans-serif" font-size="13" lengthAdjust="spacing" textLength="187" x="686" y="391.4482">Do you own MSISDN 255123...?</text><line style="stroke:#181818;stroke-width:1.0;" x1="664" x2="674" y1="426.6563" y2="422.6563"/><line style="stroke:#181818;stroke-width:1.0;" x1="664" x2="674" y1="426.6563" y2="430.6563"/><line style="stroke:#181818;stroke-width:1.0;stroke-dasharray:2.0,2.0;" x1="663" x2="995" y1="426.6563" y2="426.6563"/><text fill="#000000" font-family="sans-serif" font-size="13" font-weight="bold" lengthAdjust="spacing" textLength="7" x="680" y="421.7998">8</text><text fill="#000000" font-family="sans-serif" font-size="13" lengthAdjust="spacing" textLength="130" x="691" y="421.7998">202 I'll get back to you</text><line style="stroke:#181818;stroke-width:1.0;" x1="1006" x2="1048" y1="473.3594" y2="473.3594"/><line style="stroke:#181818;stroke-width:1.0;" x1="1048" x2="1048" y1="473.3594" y2="486.3594"/><line style="stroke:#181818;stroke-width:1.0;" x1="1007" x2="1048" y1="486.3594" y2="486.3594"/><polygon fill="#181818" points="1017,482.3594,1007,486.3594,1017,490.3594,1013,486.3594" style="stroke:#181818;stroke-width:1.0;"/><text fill="#000000" font-family="sans-serif" font-size="13" font-weight="bold" lengthAdjust="spacing" textLength="7" x="1013" y="460.3271">9</text><text fill="#000000" font-family="sans-serif" font-size="13" lengthAdjust="spacing" textLength="153" x="1024" y="452.1514">Check Sanction list status</text><text fill="#000000" font-family="sans-serif" font-size="13" lengthAdjust="spacing" textLength="179" x="1024" y="468.5029">&amp; trigger a refresh of the status</text><polygon fill="#181818" points="1203,529.0625,1213,533.0625,1203,537.0625,1207,533.0625" style="stroke:#181818;stroke-width:1.0;"/><line style="stroke:#181818;stroke-width:1.0;" x1="1006" x2="1209" y1="533.0625" y2="533.0625"/><text fill="#000000" font-family="sans-serif" font-size="13" font-weight="bold" lengthAdjust="spacing" textLength="14" x="1013" y="520.0303">10</text><text fill="#000000" font-family="sans-serif" font-size="13" lengthAdjust="spacing" textLength="134" x="1031" y="511.8545">Check account and get</text><text fill="#000000" font-family="sans-serif" font-size="13" lengthAdjust="spacing" textLength="79" x="1035" y="528.2061">currency type</text><polygon fill="#181818" points="1017,559.4141,1007,563.4141,1017,567.4141,1013,563.4141" style="stroke:#181818;stroke-width:1.0;"/><line style="stroke:#181818;stroke-width:1.0;stroke-dasharray:2.0,2.0;" x1="1011" x2="1214" y1="563.4141" y2="563.4141"/><text fill="#000000" font-family="sans-serif" font-size="13" font-weight="bold" lengthAdjust="spacing" textLength="14" x="1023" y="558.5576">11</text><text fill="#000000" font-family="sans-serif" font-size="13" lengthAdjust="spacing" textLength="37" x="1041" y="558.5576">Result</text><line style="stroke:#181818;stroke-width:1.0;" x1="669" x2="679" y1="678.5234" y2="674.5234"/><line style="stroke:#181818;stroke-width:1.0;" x1="669" x2="679" y1="678.5234" y2="682.5234"/><line style="stroke:#181818;stroke-width:1.0;" x1="668" x2="995" y1="678.5234" y2="678.5234"/><text fill="#000000" font-family="sans-serif" font-size="13" font-weight="bold" lengthAdjust="spacing" textLength="14" x="685" y="657.3154">12</text><text fill="#000000" font-family="sans-serif" font-size="13" lengthAdjust="spacing" textLength="216" x="703" y="640.9639">Yes, it's Yaro. He can receive in TZS,</text><text fill="#000000" font-family="sans-serif" font-size="13" lengthAdjust="spacing" textLength="162" x="707" y="657.3154">and I can convert from BWP</text><text fill="#000000" font-family="sans-serif" font-size="13" font-weight="bold" lengthAdjust="spacing" textLength="190" x="703" y="673.667">PUT /parties/MSISDN/255123...</text><path d="M1011,576.4141 L1011,733.4141 L1218,733.4141 L1218,586.4141 L1208,576.4141 L1011,576.4141 " fill="#FEFFDD" style="stroke:#181818;stroke-width:0.5;"/><path d="M1208,576.4141 L1208,586.4141 L1218,586.4141 L1208,576.4141 " fill="#FEFFDD" style="stroke:#181818;stroke-width:0.5;"/><text fill="#000000" font-family="sans-serif" font-size="13" font-weight="bold" lengthAdjust="spacing" textLength="77" x="1017" y="594.9092">PUT /parties</text><text fill="#000000" font-family="sans-serif" font-size="13" lengthAdjust="spacing" textLength="4" x="1017" y="611.2607">{</text><text fill="#000000" font-family="sans-serif" font-size="13" lengthAdjust="spacing" textLength="51" x="1017" y="627.6123">"party": {</text><text fill="#000000" font-family="sans-serif" font-size="13" lengthAdjust="spacing" textLength="81" x="1025" y="643.9639">"partyIdInfo": {</text><text fill="#000000" font-family="sans-serif" font-size="13" lengthAdjust="spacing" textLength="149" x="1033" y="660.3154">"partyIdType": "MSISDN",</text><text fill="#000000" font-family="sans-serif" font-size="13" lengthAdjust="spacing" textLength="167" x="1033" y="676.667">"partyIdentifier": "255123..."},</text><text fill="#000000" font-family="sans-serif" font-size="13" lengthAdjust="spacing" textLength="91" x="1025" y="693.0186">"name": "Yaro",</text><text fill="#000000" font-family="sans-serif" font-size="13" lengthAdjust="spacing" textLength="178" x="1025" y="709.3701">"supportedCurrencies":["TZS"]}</text><text fill="#000000" font-family="sans-serif" font-size="13" lengthAdjust="spacing" textLength="4" x="1017" y="725.7217">}</text><line style="stroke:#181818;stroke-width:1.0;" x1="999" x2="989" y1="760.9297" y2="756.9297"/><line style="stroke:#181818;stroke-width:1.0;" x1="999" x2="989" y1="760.9297" y2="764.9297"/><line style="stroke:#181818;stroke-width:1.0;stroke-dasharray:2.0,2.0;" x1="668" x2="1000" y1="760.9297" y2="760.9297"/><text fill="#000000" font-family="sans-serif" font-size="13" font-weight="bold" lengthAdjust="spacing" textLength="14" x="675" y="756.0732">13</text><text fill="#000000" font-family="sans-serif" font-size="13" lengthAdjust="spacing" textLength="67" x="693" y="756.0732">200 Gotcha</text><line style="stroke:#181818;stroke-width:1.0;" x1="385" x2="395" y1="807.6328" y2="803.6328"/><line style="stroke:#181818;stroke-width:1.0;" x1="385" x2="395" y1="807.6328" y2="811.6328"/><line style="stroke:#181818;stroke-width:1.0;" x1="384" x2="657" y1="807.6328" y2="807.6328"/><text fill="#000000" font-family="sans-serif" font-size="13" font-weight="bold" lengthAdjust="spacing" textLength="14" x="401" y="794.6006">14</text><text fill="#000000" font-family="sans-serif" font-size="13" lengthAdjust="spacing" textLength="212" x="419" y="786.4248">Yes, it's Yaro. He can receive in TZS</text><text fill="#000000" font-family="sans-serif" font-size="13" font-weight="bold" lengthAdjust="spacing" textLength="190" x="419" y="802.7764">PUT /parties/MSISDN/255123...</text><line style="stroke:#181818;stroke-width:1.0;" x1="661" x2="651" y1="837.9844" y2="833.9844"/><line style="stroke:#181818;stroke-width:1.0;" x1="661" x2="651" y1="837.9844" y2="841.9844"/><line style="stroke:#181818;stroke-width:1.0;stroke-dasharray:2.0,2.0;" x1="384" x2="662" y1="837.9844" y2="837.9844"/><text fill="#000000" font-family="sans-serif" font-size="13" font-weight="bold" lengthAdjust="spacing" textLength="14" x="391" y="833.1279">15</text><text fill="#000000" font-family="sans-serif" font-size="13" lengthAdjust="spacing" textLength="67" x="409" y="833.1279">200 Gotcha</text><line style="stroke:#181818;stroke-width:1.0;" x1="384" x2="426" y1="889.3633" y2="889.3633"/><line style="stroke:#181818;stroke-width:1.0;" x1="426" x2="426" y1="889.3633" y2="902.3633"/><line style="stroke:#181818;stroke-width:1.0;" x1="385" x2="426" y1="902.3633" y2="902.3633"/><polygon fill="#181818" points="395,898.3633,385,902.3633,395,906.3633,391,902.3633" style="stroke:#181818;stroke-width:1.0;"/><text fill="#000000" font-family="sans-serif" font-size="13" font-weight="bold" lengthAdjust="spacing" textLength="14" x="391" y="884.5068">16</text><text fill="#000000" font-family="sans-serif" font-size="13" lengthAdjust="spacing" textLength="242" x="409" y="884.5068">I will need to perform currency conversion.</text><path d="M159,850.9844 L159,925.9844 L369,925.9844 L369,860.9844 L359,850.9844 L159,850.9844 " fill="#FEFFDD" style="stroke:#181818;stroke-width:0.5;"/><path d="M359,850.9844 L359,860.9844 L369,860.9844 L359,850.9844 " fill="#FEFFDD" style="stroke:#181818;stroke-width:0.5;"/><text fill="#000000" font-family="sans-serif" font-size="13" lengthAdjust="spacing" textLength="106" x="165" y="869.4795">I need to calculate</text><text fill="#000000" font-family="sans-serif" font-size="13" lengthAdjust="spacing" textLength="156" x="165" y="885.8311">how much currency I need.</text><text fill="#000000" font-family="sans-serif" font-size="13" lengthAdjust="spacing" textLength="129" x="165" y="902.1826">Let me find a currency</text><text fill="#000000" font-family="sans-serif" font-size="13" lengthAdjust="spacing" textLength="189" x="165" y="918.5342">conversion provider before I start.</text><!--SRC=[fLPjJzjM5Fv-VyN1gvODaPI4GQT8PO8OEgkqYp1RovPzk3Z7-1RdNklw6XfD_FUTuvVOIGDTDIH0Fg_FUNlidHUvMcIfYXNEuJN4CirHxBp84sFTf72XqhSfdd-STdI9ccFue5oK-EYaIhjkgETetyi5aj1xYxYK7eajHgZkMyMrj8RbcLoYdHJMeewMh3ZzC6tas9LV_HckxC_3QU2pS5e_hJpMDDZHs7TX4FhlMJKwUlNpgwF1OB3owkWE3uUZWwxkiW9-iZ25Tcnok4y_RK8io_cfbZbfRz5rZ1j5_3cR9ApCGrFOg7GwE5ZNN9NEh3bglIhpDkB1GQEvUYgNCqwcQzcwZJmyz8GGJhaKmLTvP6WgI-Z3ocPYD8boPJJGY1EeCrmjCuJBiybPyCUPa94p5hpEj3sGEPmCnOtvNCy5VEu_V7UXRXDtcXO8800oQPsAL2OfP6qtEGrBx_A97hPQpVGxyqccncGpJGWrCeBIpHyAGW6KM8WrlyO1gbKjZSEXg22sfOTexrM43T9hJ5Fpi8dXv2A4twoCqhhGYx1DsYi3dd-4p9fxkWo21QAt4O0EQ1CuYRumEvNH7GUcQ2VJe36hfQAtohbgCsvfyzO-upCT76rrM1iCyc3Qafi5wDvrrPcHa8KpkbZSe1NYPDW_RkOw3dfpIDKTWZEKRWbhtZEzxU0sY22cf3ETg1nIwJ1tXCRSxK6MeYJsQHBrZ_tX60Ajd28hMA2D4YwBOYrGEzvUTSyQMXsV01w7mt403sn2o7Yd-N_D2bsAcEdTtJTdL_2oR1RcBolnowxDxcuRdxPjHyNmGvTXTrw3imN-AC9Xdr8Jqj7-289UcW9V_msDchClJI5s28cAnHoxWCdjcDPl_24nO1vqlWtdBoq4tbJwfLHSfElbq67ARcWsvDZ7_cZib_av_5UYq-OyNQ0_wbUz_OO2gMFanXXWaY1PXbAJZhWeLJJkt4bNvBG2trCETNjBx271OcmnJy34u1AiRSempU8smMGKbLibQSA4PQOXQZRB4RqzKqiJgLzXkyIyI5s3drDndTUOxu4gUzpTx07yYX193RKGbDxOwpr2mfY2qYmg2TX1RCq2rj-Gl83Jtx-wW4_NeGqrsJ9LqCa3h4SZJnR-K_xrMBZqnlLZ8mZcWOvDHzmg-0r12g-2uUrzOK2tnt0i6tKHUu-DhQUPHyQRnB9IvqMMqMS9pkk646Xl_9UttatlxyVI_h7aAwwO1iLV9sNnJFeLuq55RC05LQ-wCntPPKRXuUtr17pfP3T4EUjlkkqHhVu-l37qzf7RhdbKNzp_M9t_k15T1ddcOeUhYtq6Dhz3cJPBagN6qM5hn98pCxH4qOlshABLnyIWQd-AiHF1oY6IQLGmbuD8p0CiYYXfdIkp0OWBuWtwRemL3KEsUj56NxrxuGO90GsLUS2wGJl0Vm40]--></g></svg>