<?xml version="1.0" encoding="us-ascii" standalone="no"?><svg xmlns="http://www.w3.org/2000/svg" xmlns:xlink="http://www.w3.org/1999/xlink" contentStyleType="text/css" height="2483px" preserveAspectRatio="none" style="width:1445px;height:2483px;background:#FFFFFF;" version="1.1" viewBox="0 0 1445 2483" width="1445px" zoomAndPan="magnify"><defs/><g><text fill="#000000" font-family="sans-serif" font-size="14" font-weight="bold" lengthAdjust="spacing" textLength="344" x="551.5" y="29.5332">Remittance Transfer using Mojaloop FX APIs POC</text><text fill="#000000" font-family="sans-serif" font-size="14" font-weight="bold" lengthAdjust="spacing" textLength="362" x="542.5" y="47.1426">Payer DFSP requests conversion with SEND amount</text><rect fill="#ADD8E6" height="2415.5391" style="stroke:#181818;stroke-width:0.5;" width="100" x="262" y="62.2188"/><text fill="#000000" font-family="sans-serif" font-size="13" font-weight="bold" lengthAdjust="spacing" textLength="76" x="274" y="75.7139">Payer DFSP</text><rect fill="#DDDDDD" height="2415.5391" style="stroke:#181818;stroke-width:0.5;" width="88" x="739" y="62.2188"/><text fill="#000000" font-family="sans-serif" font-size="13" font-weight="bold" lengthAdjust="spacing" textLength="74" x="746" y="75.7139">FX provider</text><rect fill="#ADD8E6" height="2415.5391" style="stroke:#181818;stroke-width:0.5;" width="88" x="1066" y="62.2188"/><text fill="#000000" font-family="sans-serif" font-size="13" font-weight="bold" lengthAdjust="spacing" textLength="79" x="1070.5" y="75.7139">Payee DFSP</text><rect fill="#FFFFFF" height="106.4063" style="stroke:#181818;stroke-width:1.0;" width="10" x="307" y="953.4063"/><rect fill="#FFFFFF" height="30.3516" style="stroke:#181818;stroke-width:1.0;" width="10" x="307" y="2348.7969"/><rect fill="#FFFFFF" height="420.5039" style="stroke:#181818;stroke-width:1.0;" width="10" x="546" y="308.3867"/><rect fill="#FFFFFF" height="106.9336" style="stroke:#181818;stroke-width:1.0;" width="10" x="546" y="846.4727"/><rect fill="#FFFFFF" height="267.8672" style="stroke:#181818;stroke-width:1.0;" width="10" x="546" y="1059.8125"/><rect fill="#FFFFFF" height="791.4258" style="stroke:#181818;stroke-width:1.0;" width="10" x="546" y="1557.3711"/><rect fill="#FFFFFF" height="117.582" style="stroke:#181818;stroke-width:1.0;" width="10" x="778" y="728.8906"/><rect fill="#FFFFFF" height="144.582" style="stroke:#181818;stroke-width:1.0;" width="10" x="778" y="2157.5117"/><rect fill="#FFFFFF" height="229.6914" style="stroke:#181818;stroke-width:1.0;" width="10" x="1105" y="1327.6797"/><line style="stroke:#181818;stroke-width:0.5;stroke-dasharray:5.0,5.0;" x1="111" x2="111" y1="150.3984" y2="2397.1484"/><line style="stroke:#181818;stroke-width:0.5;stroke-dasharray:5.0,5.0;" x1="312" x2="312" y1="150.3984" y2="2397.1484"/><line style="stroke:#181818;stroke-width:0.5;stroke-dasharray:5.0,5.0;" x1="550.5" x2="550.5" y1="150.3984" y2="2397.1484"/><line style="stroke:#181818;stroke-width:0.5;stroke-dasharray:5.0,5.0;" x1="783" x2="783" y1="150.3984" y2="2397.1484"/><line style="stroke:#181818;stroke-width:0.5;stroke-dasharray:5.0,5.0;" x1="1110" x2="1110" y1="150.3984" y2="2397.1484"/><line style="stroke:#181818;stroke-width:0.5;stroke-dasharray:5.0,5.0;" x1="1324" x2="1324" y1="150.3984" y2="2397.1484"/><text fill="#000000" font-family="sans-serif" font-size="14" lengthAdjust="spacing" textLength="30" x="93" y="147.3223">John</text><ellipse cx="111" cy="81.2891" fill="#E2E2F0" rx="8" ry="8" style="stroke:#181818;stroke-width:0.5;"/><path d="M111,89.2891 L111,116.2891 M98,97.2891 L124,97.2891 M111,116.2891 L98,131.2891 M111,116.2891 L124,131.2891 " fill="none" style="stroke:#181818;stroke-width:0.5;"/><text fill="#000000" font-family="sans-serif" font-size="14" lengthAdjust="spacing" textLength="30" x="93" y="2410.6816">John</text><ellipse cx="111" cy="2422.2578" fill="#E2E2F0" rx="8" ry="8" style="stroke:#181818;stroke-width:0.5;"/><path d="M111,2430.2578 L111,2457.2578 M98,2438.2578 L124,2438.2578 M111,2457.2578 L98,2472.2578 M111,2457.2578 L124,2472.2578 " fill="none" style="stroke:#181818;stroke-width:0.5;"/><rect fill="#E2E2F0" height="31.6094" rx="2.5" ry="2.5" style="stroke:#181818;stroke-width:0.5;" width="92" x="266" y="117.7891"/><text fill="#000000" font-family="sans-serif" font-size="14" lengthAdjust="spacing" textLength="78" x="273" y="139.3223">Payer DFSP</text><rect fill="#E2E2F0" height="31.6094" rx="2.5" ry="2.5" style="stroke:#181818;stroke-width:0.5;" width="92" x="266" y="2396.1484"/><text fill="#000000" font-family="sans-serif" font-size="14" lengthAdjust="spacing" textLength="78" x="273" y="2417.6816">Payer DFSP</text><rect fill="#E2E2F0" height="31.6094" rx="2.5" ry="2.5" style="stroke:#181818;stroke-width:0.5;" width="115" x="493.5" y="117.7891"/><text fill="#000000" font-family="sans-serif" font-size="14" lengthAdjust="spacing" textLength="101" x="500.5" y="139.3223">Mojaloop Switch</text><rect fill="#E2E2F0" height="31.6094" rx="2.5" ry="2.5" style="stroke:#181818;stroke-width:0.5;" width="115" x="493.5" y="2396.1484"/><text fill="#000000" font-family="sans-serif" font-size="14" lengthAdjust="spacing" textLength="101" x="500.5" y="2417.6816">Mojaloop Switch</text><rect fill="#E2E2F0" height="49.2188" rx="2.5" ry="2.5" style="stroke:#181818;stroke-width:0.5;" width="80" x="743" y="100.1797"/><text fill="#000000" font-family="sans-serif" font-size="14" lengthAdjust="spacing" textLength="26" x="770" y="121.7129">FXP</text><text fill="#000000" font-family="sans-serif" font-size="14" lengthAdjust="spacing" textLength="66" x="750" y="139.3223">Connector</text><rect fill="#E2E2F0" height="49.2188" rx="2.5" ry="2.5" style="stroke:#181818;stroke-width:0.5;" width="80" x="743" y="2396.1484"/><text fill="#000000" font-family="sans-serif" font-size="14" lengthAdjust="spacing" textLength="26" x="770" y="2417.6816">FXP</text><text fill="#000000" font-family="sans-serif" font-size="14" lengthAdjust="spacing" textLength="66" x="750" y="2435.291">Connector</text><rect fill="#E2E2F0" height="66.8281" rx="2.5" ry="2.5" style="stroke:#181818;stroke-width:0.5;" width="80" x="1070" y="82.5703"/><text fill="#000000" font-family="sans-serif" font-size="14" lengthAdjust="spacing" textLength="40" x="1090" y="104.1035">Payee</text><text fill="#000000" font-family="sans-serif" font-size="14" lengthAdjust="spacing" textLength="57" x="1081.5" y="121.7129">Mojaloop</text><text fill="#000000" font-family="sans-serif" font-size="14" lengthAdjust="spacing" textLength="66" x="1077" y="139.3223">Connector</text><rect fill="#E2E2F0" height="66.8281" rx="2.5" ry="2.5" style="stroke:#181818;stroke-width:0.5;" width="80" x="1070" y="2396.1484"/><text fill="#000000" font-family="sans-serif" font-size="14" lengthAdjust="spacing" textLength="40" x="1090" y="2417.6816">Payee</text><text fill="#000000" font-family="sans-serif" font-size="14" lengthAdjust="spacing" textLength="57" x="1081.5" y="2435.291">Mojaloop</text><text fill="#000000" font-family="sans-serif" font-size="14" lengthAdjust="spacing" textLength="66" x="1077" y="2452.9004">Connector</text><text fill="#000000" font-family="sans-serif" font-size="14" lengthAdjust="spacing" textLength="30" x="1306" y="147.3223">Yaro</text><ellipse cx="1324" cy="81.2891" fill="#E2E2F0" rx="8" ry="8" style="stroke:#181818;stroke-width:0.5;"/><path d="M1324,89.2891 L1324,116.2891 M1311,97.2891 L1337,97.2891 M1324,116.2891 L1311,131.2891 M1324,116.2891 L1337,131.2891 " fill="none" style="stroke:#181818;stroke-width:0.5;"/><text fill="#000000" font-family="sans-serif" font-size="14" lengthAdjust="spacing" textLength="30" x="1306" y="2410.6816">Yaro</text><ellipse cx="1324" cy="2422.2578" fill="#E2E2F0" rx="8" ry="8" style="stroke:#181818;stroke-width:0.5;"/><path d="M1324,2430.2578 L1324,2457.2578 M1311,2438.2578 L1337,2438.2578 M1324,2457.2578 L1311,2472.2578 M1324,2457.2578 L1337,2472.2578 " fill="none" style="stroke:#181818;stroke-width:0.5;"/><rect fill="#FFFFFF" height="106.4063" style="stroke:#181818;stroke-width:1.0;" width="10" x="307" y="953.4063"/><rect fill="#FFFFFF" height="30.3516" style="stroke:#181818;stroke-width:1.0;" width="10" x="307" y="2348.7969"/><rect fill="#FFFFFF" height="420.5039" style="stroke:#181818;stroke-width:1.0;" width="10" x="546" y="308.3867"/><rect fill="#FFFFFF" height="106.9336" style="stroke:#181818;stroke-width:1.0;" width="10" x="546" y="846.4727"/><rect fill="#FFFFFF" height="267.8672" style="stroke:#181818;stroke-width:1.0;" width="10" x="546" y="1059.8125"/><rect fill="#FFFFFF" height="791.4258" style="stroke:#181818;stroke-width:1.0;" width="10" x="546" y="1557.3711"/><rect fill="#FFFFFF" height="117.582" style="stroke:#181818;stroke-width:1.0;" width="10" x="778" y="728.8906"/><rect fill="#FFFFFF" height="144.582" style="stroke:#181818;stroke-width:1.0;" width="10" x="778" y="2157.5117"/><rect fill="#FFFFFF" height="229.6914" style="stroke:#181818;stroke-width:1.0;" width="10" x="1105" y="1327.6797"/><line style="stroke:#181818;stroke-width:1.0;" x1="544" x2="534" y1="308.3867" y2="304.3867"/><line style="stroke:#181818;stroke-width:1.0;" x1="544" x2="534" y1="308.3867" y2="312.3867"/><line style="stroke:#181818;stroke-width:1.0;" x1="312" x2="545" y1="308.3867" y2="308.3867"/><text fill="#000000" font-family="sans-serif" font-size="13" font-weight="bold" lengthAdjust="spacing" textLength="7" x="319" y="295.3545">1</text><text fill="#000000" font-family="sans-serif" font-size="13" lengthAdjust="spacing" textLength="141" x="330" y="287.1787">Please confirm your part</text><text fill="#000000" font-family="sans-serif" font-size="13" lengthAdjust="spacing" textLength="79" x="334" y="303.5303">of the transfer</text><path d="M5,165.3984 L5,420.3984 L307,420.3984 L307,175.3984 L297,165.3984 L5,165.3984 " fill="#FEFFDD" style="stroke:#181818;stroke-width:0.5;"/><path d="M297,165.3984 L297,175.3984 L307,175.3984 L297,165.3984 " fill="#FEFFDD" style="stroke:#181818;stroke-width:0.5;"/><text fill="#000000" font-family="sans-serif" font-size="13" font-weight="bold" lengthAdjust="spacing" textLength="114" x="11" y="183.8936">POST /fxTransfers</text><text fill="#000000" font-family="sans-serif" font-size="13" lengthAdjust="spacing" textLength="4" x="11" y="200.2451">{</text><text fill="#000000" font-family="sans-serif" font-size="13" lengthAdjust="spacing" textLength="222" x="27" y="216.5967">"commitRequestId": "77c9d78dc26...",</text><text fill="#000000" font-family="sans-serif" font-size="13" lengthAdjust="spacing" textLength="265" x="27" y="232.9482">"determiningTransferId": "d9ce59d4359843...",</text><text fill="#000000" font-family="sans-serif" font-size="13" lengthAdjust="spacing" textLength="162" x="27" y="249.2998">"initiatingFsp": "PayerFSP",</text><text fill="#000000" font-family="sans-serif" font-size="13" lengthAdjust="spacing" textLength="176" x="27" y="265.6514">"counterPartyFsp": "FDH_FX",</text><text fill="#000000" font-family="sans-serif" font-size="13" lengthAdjust="spacing" textLength="139" x="27" y="282.0029">"amountType": "SEND",</text><text fill="#000000" font-family="sans-serif" font-size="13" lengthAdjust="spacing" textLength="106" x="27" y="298.3545">"sourceAmount": {</text><text fill="#000000" font-family="sans-serif" font-size="13" lengthAdjust="spacing" textLength="113" x="43" y="314.7061">"currency": "BWP",</text><text fill="#000000" font-family="sans-serif" font-size="13" lengthAdjust="spacing" textLength="100" x="43" y="331.0576">"amount": "300"},</text><text fill="#000000" font-family="sans-serif" font-size="13" lengthAdjust="spacing" textLength="100" x="27" y="347.4092">"targetAmount": {</text><text fill="#000000" font-family="sans-serif" font-size="13" lengthAdjust="spacing" textLength="105" x="43" y="363.7607">"currency": "TZS",</text><text fill="#000000" font-family="sans-serif" font-size="13" lengthAdjust="spacing" textLength="114" x="43" y="380.1123">"amount": "48000"},</text><text fill="#000000" font-family="sans-serif" font-size="13" lengthAdjust="spacing" textLength="224" x="27" y="396.4639">"condition": "GRzLaTP7DJ9t4P-a_B..."</text><text fill="#000000" font-family="sans-serif" font-size="13" lengthAdjust="spacing" textLength="4" x="11" y="412.8154">}</text><line style="stroke:#181818;stroke-width:1.0;" x1="556" x2="598" y1="448.0234" y2="448.0234"/><line style="stroke:#181818;stroke-width:1.0;" x1="598" x2="598" y1="448.0234" y2="461.0234"/><line style="stroke:#181818;stroke-width:1.0;" x1="557" x2="598" y1="461.0234" y2="461.0234"/><polygon fill="#181818" points="567,457.0234,557,461.0234,567,465.0234,563,461.0234" style="stroke:#181818;stroke-width:1.0;"/><text fill="#000000" font-family="sans-serif" font-size="13" font-weight="bold" lengthAdjust="spacing" textLength="7" x="563" y="443.167">2</text><text fill="#000000" font-family="sans-serif" font-size="13" lengthAdjust="spacing" textLength="195" x="574" y="443.167">OK, so this is an FX confirmation.</text><line style="stroke:#181818;stroke-width:1.0;" x1="556" x2="598" y1="524.0781" y2="524.0781"/><line style="stroke:#181818;stroke-width:1.0;" x1="598" x2="598" y1="524.0781" y2="537.0781"/><line style="stroke:#181818;stroke-width:1.0;" x1="557" x2="598" y1="537.0781" y2="537.0781"/><polygon fill="#181818" points="567,533.0781,557,537.0781,567,541.0781,563,537.0781" style="stroke:#181818;stroke-width:1.0;"/><text fill="#000000" font-family="sans-serif" font-size="13" font-weight="bold" lengthAdjust="spacing" textLength="7" x="563" y="502.8701">3</text><text fill="#000000" font-family="sans-serif" font-size="13" lengthAdjust="spacing" textLength="142" x="574" y="486.5186">Is there any transfer with</text><text fill="#000000" font-family="sans-serif" font-size="13" lengthAdjust="spacing" textLength="151" x="574" y="502.8701">determiningTransactionId?</text><text fill="#000000" font-family="sans-serif" font-size="13" lengthAdjust="spacing" textLength="80" x="574" y="519.2217">No, it does'nt.</text><line style="stroke:#181818;stroke-width:1.0;" x1="556" x2="598" y1="583.7813" y2="583.7813"/><line style="stroke:#181818;stroke-width:1.0;" x1="598" x2="598" y1="583.7813" y2="596.7813"/><line style="stroke:#181818;stroke-width:1.0;" x1="557" x2="598" y1="596.7813" y2="596.7813"/><polygon fill="#181818" points="567,592.7813,557,596.7813,567,600.7813,563,596.7813" style="stroke:#181818;stroke-width:1.0;"/><text fill="#000000" font-family="sans-serif" font-size="13" font-weight="bold" lengthAdjust="spacing" textLength="7" x="563" y="570.749">4</text><text fill="#000000" font-family="sans-serif" font-size="13" lengthAdjust="spacing" textLength="157" x="574" y="562.5732">Liquidity check and reserve</text><text fill="#000000" font-family="sans-serif" font-size="13" lengthAdjust="spacing" textLength="150" x="578" y="578.9248">on Payer DFSP's account</text><path d="M414,609.7813 L414,668.7813 L687,668.7813 L687,619.7813 L677,609.7813 L414,609.7813 " fill="#FEFFDD" style="stroke:#181818;stroke-width:0.5;"/><path d="M677,609.7813 L677,619.7813 L687,619.7813 L677,609.7813 " fill="#FEFFDD" style="stroke:#181818;stroke-width:0.5;"/><text fill="#000000" font-family="sans-serif" font-size="13" font-weight="bold" lengthAdjust="spacing" textLength="85" x="420" y="628.2764">Reservations:</text><text fill="#000000" font-family="sans-serif" font-size="13" lengthAdjust="spacing" textLength="4" x="420" y="644.6279">&#160;</text><text fill="#000000" font-family="sans-serif" font-size="13" font-weight="bold" lengthAdjust="spacing" textLength="252" x="420" y="660.9795">PayerFSP has a reservation of 300 BWP</text><line style="stroke:#181818;stroke-width:1.0;" x1="776" x2="766" y1="728.8906" y2="724.8906"/><line style="stroke:#181818;stroke-width:1.0;" x1="776" x2="766" y1="728.8906" y2="732.8906"/><line style="stroke:#181818;stroke-width:1.0;" x1="551" x2="777" y1="728.8906" y2="728.8906"/><text fill="#000000" font-family="sans-serif" font-size="13" font-weight="bold" lengthAdjust="spacing" textLength="7" x="558" y="707.6826">5</text><text fill="#000000" font-family="sans-serif" font-size="13" lengthAdjust="spacing" textLength="162" x="569" y="691.3311">Please confirm the currency</text><text fill="#000000" font-family="sans-serif" font-size="13" lengthAdjust="spacing" textLength="170" x="569" y="707.6826">conversion part of the transfer</text><text fill="#000000" font-family="sans-serif" font-size="13" lengthAdjust="spacing" textLength="4" x="569" y="724.0342">&#160;</text><text fill="#000000" font-family="sans-serif" font-size="13" font-weight="bold" lengthAdjust="spacing" textLength="114" x="573" y="724.0342">POST /fxTransfers</text><line style="stroke:#181818;stroke-width:1.0;" x1="788" x2="830" y1="759.2422" y2="759.2422"/><line style="stroke:#181818;stroke-width:1.0;" x1="830" x2="830" y1="759.2422" y2="772.2422"/><line style="stroke:#181818;stroke-width:1.0;" x1="789" x2="830" y1="772.2422" y2="772.2422"/><polygon fill="#181818" points="799,768.2422,789,772.2422,799,776.2422,795,772.2422" style="stroke:#181818;stroke-width:1.0;"/><text fill="#000000" font-family="sans-serif" font-size="13" font-weight="bold" lengthAdjust="spacing" textLength="7" x="795" y="754.3857">6</text><text fill="#000000" font-family="sans-serif" font-size="13" lengthAdjust="spacing" textLength="183" x="806" y="754.3857">Reserve funds for FX conversion</text><line style="stroke:#181818;stroke-width:1.0;" x1="557" x2="567" y1="846.4727" y2="842.4727"/><line style="stroke:#181818;stroke-width:1.0;" x1="557" x2="567" y1="846.4727" y2="850.4727"/><line style="stroke:#181818;stroke-width:1.0;" x1="556" x2="782" y1="846.4727" y2="846.4727"/><text fill="#000000" font-family="sans-serif" font-size="13" font-weight="bold" lengthAdjust="spacing" textLength="7" x="573" y="841.6162">7</text><text fill="#000000" font-family="sans-serif" font-size="13" lengthAdjust="spacing" textLength="179" x="584" y="841.6162">Confirmed. Here's the fulfilment</text><path d="M793,785.2422 L793,893.2422 L1164,893.2422 L1164,795.2422 L1154,785.2422 L793,785.2422 " fill="#FEFFDD" style="stroke:#181818;stroke-width:0.5;"/><path d="M1154,785.2422 L1154,795.2422 L1164,795.2422 L1154,785.2422 " fill="#FEFFDD" style="stroke:#181818;stroke-width:0.5;"/><text fill="#000000" font-family="sans-serif" font-size="13" font-weight="bold" lengthAdjust="spacing" textLength="199" x="799" y="803.7373">PUT /fxTransfers/77c9d78dc26...</text><text fill="#000000" font-family="sans-serif" font-size="13" lengthAdjust="spacing" textLength="4" x="799" y="820.0889">{</text><text fill="#000000" font-family="sans-serif" font-size="13" lengthAdjust="spacing" textLength="210" x="807" y="836.4404">"fulfilment": "188909ceb6cd5c35d..",</text><text fill="#000000" font-family="sans-serif" font-size="13" lengthAdjust="spacing" textLength="342" x="807" y="852.792">"completedTimestamp": "2021-08-25T14:17:08.175+01:00",</text><text fill="#000000" font-family="sans-serif" font-size="13" lengthAdjust="spacing" textLength="192" x="807" y="869.1436">"conversionState": "RESERVED"</text><text fill="#000000" font-family="sans-serif" font-size="13" lengthAdjust="spacing" textLength="4" x="799" y="885.4951">}</text><polygon fill="#181818" points="328,949.4063,318,953.4063,328,957.4063,324,953.4063" style="stroke:#181818;stroke-width:1.0;"/><line style="stroke:#181818;stroke-width:1.0;" x1="322" x2="550" y1="953.4063" y2="953.4063"/><text fill="#000000" font-family="sans-serif" font-size="13" font-weight="bold" lengthAdjust="spacing" textLength="7" x="334" y="932.1982">8</text><text fill="#000000" font-family="sans-serif" font-size="13" lengthAdjust="spacing" textLength="176" x="345" y="915.8467">Conversion succeeded subject</text><text fill="#000000" font-family="sans-serif" font-size="13" lengthAdjust="spacing" textLength="111" x="345" y="932.1982">to transfer success</text><text fill="#000000" font-family="sans-serif" font-size="13" font-weight="bold" lengthAdjust="spacing" textLength="199" x="345" y="948.5498">PUT /fxTransfers/77c9d78dc26...</text><line style="stroke:#181818;stroke-width:1.0;" x1="317" x2="359" y1="1000.1094" y2="1000.1094"/><line style="stroke:#181818;stroke-width:1.0;" x1="359" x2="359" y1="1000.1094" y2="1013.1094"/><line style="stroke:#181818;stroke-width:1.0;" x1="318" x2="359" y1="1013.1094" y2="1013.1094"/><polygon fill="#181818" points="328,1009.1094,318,1013.1094,328,1017.1094,324,1013.1094" style="stroke:#181818;stroke-width:1.0;"/><text fill="#000000" font-family="sans-serif" font-size="13" font-weight="bold" lengthAdjust="spacing" textLength="7" x="324" y="987.0771">9</text><text fill="#000000" font-family="sans-serif" font-size="13" lengthAdjust="spacing" textLength="122" x="335" y="978.9014">OK, so that's all right</text><text fill="#000000" font-family="sans-serif" font-size="13" lengthAdjust="spacing" textLength="189" x="335" y="995.2529">Now I can send the transfer itself</text><polygon fill="#181818" points="534,1055.8125,544,1059.8125,534,1063.8125,538,1059.8125" style="stroke:#181818;stroke-width:1.0;"/><line style="stroke:#181818;stroke-width:1.0;" x1="312" x2="540" y1="1059.8125" y2="1059.8125"/><text fill="#000000" font-family="sans-serif" font-size="13" font-weight="bold" lengthAdjust="spacing" textLength="14" x="319" y="1046.7803">10</text><text fill="#000000" font-family="sans-serif" font-size="13" lengthAdjust="spacing" textLength="127" x="337" y="1038.6045">Please do the transfer</text><text fill="#000000" font-family="sans-serif" font-size="13" lengthAdjust="spacing" textLength="4" x="337" y="1054.9561">&#160;</text><text fill="#000000" font-family="sans-serif" font-size="13" font-weight="bold" lengthAdjust="spacing" textLength="98" x="341" y="1054.9561">POST /transfers</text><line style="stroke:#181818;stroke-width:1.0;" x1="556" x2="598" y1="1106.5156" y2="1106.5156"/><line style="stroke:#181818;stroke-width:1.0;" x1="598" x2="598" y1="1106.5156" y2="1119.5156"/><line style="stroke:#181818;stroke-width:1.0;" x1="557" x2="598" y1="1119.5156" y2="1119.5156"/><polygon fill="#181818" points="567,1115.5156,557,1119.5156,567,1123.5156,563,1119.5156" style="stroke:#181818;stroke-width:1.0;"/><text fill="#000000" font-family="sans-serif" font-size="13" font-weight="bold" lengthAdjust="spacing" textLength="14" x="563" y="1093.4834">11</text><text fill="#000000" font-family="sans-serif" font-size="13" lengthAdjust="spacing" textLength="172" x="581" y="1085.3076">Is there a dependent transfer?</text><text fill="#000000" font-family="sans-serif" font-size="13" lengthAdjust="spacing" textLength="23" x="581" y="1101.6592">Yes</text><line style="stroke:#181818;stroke-width:1.0;" x1="556" x2="598" y1="1182.5703" y2="1182.5703"/><line style="stroke:#181818;stroke-width:1.0;" x1="598" x2="598" y1="1182.5703" y2="1195.5703"/><line style="stroke:#181818;stroke-width:1.0;" x1="557" x2="598" y1="1195.5703" y2="1195.5703"/><polygon fill="#181818" points="567,1191.5703,557,1195.5703,567,1199.5703,563,1195.5703" style="stroke:#181818;stroke-width:1.0;"/><text fill="#000000" font-family="sans-serif" font-size="13" font-weight="bold" lengthAdjust="spacing" textLength="14" x="563" y="1161.3623">12</text><text fill="#000000" font-family="sans-serif" font-size="13" lengthAdjust="spacing" textLength="157" x="581" y="1145.0107">Perform liquidity check and</text><text fill="#000000" font-family="sans-serif" font-size="13" lengthAdjust="spacing" textLength="169" x="581" y="1161.3623">reserve funds against creditor</text><text fill="#000000" font-family="sans-serif" font-size="13" lengthAdjust="spacing" textLength="155" x="585" y="1177.7139">party to dependent transfer</text><path d="M417,1208.5703 L417,1283.5703 L684,1283.5703 L684,1218.5703 L674,1208.5703 L417,1208.5703 " fill="#FEFFDD" style="stroke:#181818;stroke-width:0.5;"/><path d="M674,1208.5703 L674,1218.5703 L684,1218.5703 L674,1208.5703 " fill="#FEFFDD" style="stroke:#181818;stroke-width:0.5;"/><text fill="#000000" font-family="sans-serif" font-size="13" font-weight="bold" lengthAdjust="spacing" textLength="85" x="423" y="1227.0654">Reservations:</text><text fill="#000000" font-family="sans-serif" font-size="13" lengthAdjust="spacing" textLength="4" x="423" y="1243.417">&#160;</text><text fill="#000000" font-family="sans-serif" font-size="13" lengthAdjust="spacing" textLength="236" x="423" y="1259.7686">PayerFSP has a reservation of 300 BWP</text><text fill="#000000" font-family="sans-serif" font-size="13" font-weight="bold" lengthAdjust="spacing" textLength="246" x="423" y="1276.1201">FDH_FX has a reservation of 48000 TZS</text><polygon fill="#181818" points="1093,1323.6797,1103,1327.6797,1093,1331.6797,1097,1327.6797" style="stroke:#181818;stroke-width:1.0;"/><line style="stroke:#181818;stroke-width:1.0;" x1="551" x2="1099" y1="1327.6797" y2="1327.6797"/><text fill="#000000" font-family="sans-serif" font-size="13" font-weight="bold" lengthAdjust="spacing" textLength="14" x="558" y="1314.6475">13</text><text fill="#000000" font-family="sans-serif" font-size="13" lengthAdjust="spacing" textLength="127" x="576" y="1306.4717">Please do the transfer</text><text fill="#000000" font-family="sans-serif" font-size="13" font-weight="bold" lengthAdjust="spacing" textLength="98" x="576" y="1322.8232">POST /transfers</text><line style="stroke:#181818;stroke-width:1.0;" x1="1115" x2="1157" y1="1423.4375" y2="1423.4375"/><line style="stroke:#181818;stroke-width:1.0;" x1="1157" x2="1157" y1="1423.4375" y2="1436.4375"/><line style="stroke:#181818;stroke-width:1.0;" x1="1116" x2="1157" y1="1436.4375" y2="1436.4375"/><polygon fill="#181818" points="1126,1432.4375,1116,1436.4375,1126,1440.4375,1122,1436.4375" style="stroke:#181818;stroke-width:1.0;"/><text fill="#000000" font-family="sans-serif" font-size="13" font-weight="bold" lengthAdjust="spacing" textLength="14" x="1122" y="1385.8779">14</text><text fill="#000000" font-family="sans-serif" font-size="13" lengthAdjust="spacing" textLength="164" x="1140" y="1353.1748">Let me check that the terms</text><text fill="#000000" font-family="sans-serif" font-size="13" lengthAdjust="spacing" textLength="143" x="1144" y="1369.5264">of the dependent transfer</text><text fill="#000000" font-family="sans-serif" font-size="13" lengthAdjust="spacing" textLength="155" x="1140" y="1385.8779">are the same as the ones I</text><text fill="#000000" font-family="sans-serif" font-size="13" lengthAdjust="spacing" textLength="127" x="1140" y="1402.2295">agreed to and that the</text><text fill="#000000" font-family="sans-serif" font-size="13" lengthAdjust="spacing" textLength="172" x="1140" y="1418.5811">fulfilment and condition match</text><polygon fill="#181818" points="1312,1479.1406,1322,1483.1406,1312,1487.1406,1316,1483.1406" style="stroke:#181818;stroke-width:1.0;"/><line style="stroke:#181818;stroke-width:1.0;" x1="1115" x2="1318" y1="1483.1406" y2="1483.1406"/><text fill="#000000" font-family="sans-serif" font-size="13" font-weight="bold" lengthAdjust="spacing" textLength="14" x="1122" y="1470.1084">15</text><text fill="#000000" font-family="sans-serif" font-size="13" lengthAdjust="spacing" textLength="152" x="1140" y="1461.9326">Hi Yaro's, you got inbound</text><text fill="#000000" font-family="sans-serif" font-size="13" lengthAdjust="spacing" textLength="109" x="1140" y="1478.2842">transfer 44000 TZS</text><line style="stroke:#181818;stroke-width:1.0;" x1="557" x2="567" y1="1557.3711" y2="1553.3711"/><line style="stroke:#181818;stroke-width:1.0;" x1="557" x2="567" y1="1557.3711" y2="1561.3711"/><line style="stroke:#181818;stroke-width:1.0;" x1="556" x2="1109" y1="1557.3711" y2="1557.3711"/><text fill="#000000" font-family="sans-serif" font-size="13" font-weight="bold" lengthAdjust="spacing" textLength="14" x="573" y="1552.5146">16</text><text fill="#000000" font-family="sans-serif" font-size="13" lengthAdjust="spacing" textLength="239" x="591" y="1552.5146">Transfer is confirmed, here's the fulfilment</text><path d="M1120,1496.1406 L1120,1604.1406 L1438,1604.1406 L1438,1506.1406 L1428,1496.1406 L1120,1496.1406 " fill="#FEFFDD" style="stroke:#181818;stroke-width:0.5;"/><path d="M1428,1496.1406 L1428,1506.1406 L1438,1506.1406 L1428,1496.1406 " fill="#FEFFDD" style="stroke:#181818;stroke-width:0.5;"/><text fill="#000000" font-family="sans-serif" font-size="13" font-weight="bold" lengthAdjust="spacing" textLength="183" x="1126" y="1514.6357">PUT /transfers/77c9d78dc26...</text><text fill="#000000" font-family="sans-serif" font-size="13" lengthAdjust="spacing" textLength="4" x="1126" y="1530.9873">{</text><text fill="#000000" font-family="sans-serif" font-size="13" lengthAdjust="spacing" textLength="289" x="1134" y="1547.3389">"completedTimestamp": "2021-08-25T14:17:08...",</text><text fill="#000000" font-family="sans-serif" font-size="13" lengthAdjust="spacing" textLength="230" x="1134" y="1563.6904">"fulfilment": "mhPUT9ZAwd-BXLfeSd...",</text><text fill="#000000" font-family="sans-serif" font-size="13" lengthAdjust="spacing" textLength="178" x="1134" y="1580.042">"transferState": "COMMITTED"</text><text fill="#000000" font-family="sans-serif" font-size="13" lengthAdjust="spacing" textLength="4" x="1126" y="1596.3936">}</text><line style="stroke:#181818;stroke-width:1.0;" x1="556" x2="598" y1="1647.9531" y2="1647.9531"/><line style="stroke:#181818;stroke-width:1.0;" x1="598" x2="598" y1="1647.9531" y2="1660.9531"/><line style="stroke:#181818;stroke-width:1.0;" x1="557" x2="598" y1="1660.9531" y2="1660.9531"/><polygon fill="#181818" points="567,1656.9531,557,1660.9531,567,1664.9531,563,1660.9531" style="stroke:#181818;stroke-width:1.0;"/><text fill="#000000" font-family="sans-serif" font-size="13" font-weight="bold" lengthAdjust="spacing" textLength="14" x="563" y="1634.9209">17</text><text fill="#000000" font-family="sans-serif" font-size="13" lengthAdjust="spacing" textLength="172" x="581" y="1626.7451">Is there a dependent transfer?</text><text fill="#000000" font-family="sans-serif" font-size="13" lengthAdjust="spacing" textLength="78" x="581" y="1643.0967">Yes, there is.</text><line style="stroke:#181818;stroke-width:1.0;" x1="556" x2="598" y1="1724.0078" y2="1724.0078"/><line style="stroke:#181818;stroke-width:1.0;" x1="598" x2="598" y1="1724.0078" y2="1737.0078"/><line style="stroke:#181818;stroke-width:1.0;" x1="557" x2="598" y1="1737.0078" y2="1737.0078"/><polygon fill="#181818" points="567,1733.0078,557,1737.0078,567,1741.0078,563,1737.0078" style="stroke:#181818;stroke-width:1.0;"/><text fill="#000000" font-family="sans-serif" font-size="13" font-weight="bold" lengthAdjust="spacing" textLength="14" x="563" y="1702.7998">18</text><text fill="#000000" font-family="sans-serif" font-size="13" lengthAdjust="spacing" textLength="177" x="581" y="1686.4482">Is this dependency against the</text><text fill="#000000" font-family="sans-serif" font-size="13" lengthAdjust="spacing" textLength="160" x="585" y="1702.7998">debtor party to the transfer?</text><text fill="#000000" font-family="sans-serif" font-size="13" lengthAdjust="spacing" textLength="56" x="581" y="1719.1514">Yes, it is.</text><line style="stroke:#181818;stroke-width:1.0;" x1="556" x2="598" y1="1800.0625" y2="1800.0625"/><line style="stroke:#181818;stroke-width:1.0;" x1="598" x2="598" y1="1800.0625" y2="1813.0625"/><line style="stroke:#181818;stroke-width:1.0;" x1="557" x2="598" y1="1813.0625" y2="1813.0625"/><polygon fill="#181818" points="567,1809.0625,557,1813.0625,567,1817.0625,563,1813.0625" style="stroke:#181818;stroke-width:1.0;"/><text fill="#000000" font-family="sans-serif" font-size="13" font-weight="bold" lengthAdjust="spacing" textLength="14" x="563" y="1778.8545">19</text><text fill="#000000" font-family="sans-serif" font-size="13" lengthAdjust="spacing" textLength="166" x="581" y="1762.5029">Create an obligation from the</text><text fill="#000000" font-family="sans-serif" font-size="13" lengthAdjust="spacing" textLength="182" x="585" y="1778.8545">debtor party to the party named</text><text fill="#000000" font-family="sans-serif" font-size="13" lengthAdjust="spacing" textLength="164" x="581" y="1795.2061">in the dependency (the FXP)</text><line style="stroke:#181818;stroke-width:1.0;" x1="556" x2="598" y1="1876.1172" y2="1876.1172"/><line style="stroke:#181818;stroke-width:1.0;" x1="598" x2="598" y1="1876.1172" y2="1889.1172"/><line style="stroke:#181818;stroke-width:1.0;" x1="557" x2="598" y1="1889.1172" y2="1889.1172"/><polygon fill="#181818" points="567,1885.1172,557,1889.1172,567,1893.1172,563,1889.1172" style="stroke:#181818;stroke-width:1.0;"/><text fill="#000000" font-family="sans-serif" font-size="13" font-weight="bold" lengthAdjust="spacing" textLength="14" x="563" y="1854.9092">20</text><text fill="#000000" font-family="sans-serif" font-size="13" lengthAdjust="spacing" textLength="171" x="581" y="1838.5576">Is the transfer denominated in</text><text fill="#000000" font-family="sans-serif" font-size="13" lengthAdjust="spacing" textLength="147" x="585" y="1854.9092">the currency of the payee</text><text fill="#000000" font-family="sans-serif" font-size="13" lengthAdjust="spacing" textLength="154" x="581" y="1871.2607">receive amount? Yes, it is.</text><line style="stroke:#181818;stroke-width:1.0;" x1="556" x2="598" y1="1968.5234" y2="1968.5234"/><line style="stroke:#181818;stroke-width:1.0;" x1="598" x2="598" y1="1968.5234" y2="1981.5234"/><line style="stroke:#181818;stroke-width:1.0;" x1="557" x2="598" y1="1981.5234" y2="1981.5234"/><polygon fill="#181818" points="567,1977.5234,557,1981.5234,567,1985.5234,563,1981.5234" style="stroke:#181818;stroke-width:1.0;"/><text fill="#000000" font-family="sans-serif" font-size="13" font-weight="bold" lengthAdjust="spacing" textLength="14" x="563" y="1939.1396">21</text><text fill="#000000" font-family="sans-serif" font-size="13" lengthAdjust="spacing" textLength="166" x="581" y="1914.6123">Create an obligation from the</text><text fill="#000000" font-family="sans-serif" font-size="13" lengthAdjust="spacing" textLength="108" x="585" y="1930.9639">party named in the</text><text fill="#000000" font-family="sans-serif" font-size="13" lengthAdjust="spacing" textLength="154" x="585" y="1947.3154">dependency to the creditor</text><text fill="#000000" font-family="sans-serif" font-size="13" lengthAdjust="spacing" textLength="116" x="581" y="1963.667">party for the transfer</text><path d="M433,1994.5234 L433,2085.5234 L669,2085.5234 L669,2004.5234 L659,1994.5234 L433,1994.5234 " fill="#FEFFDD" style="stroke:#181818;stroke-width:0.5;"/><path d="M659,1994.5234 L659,2004.5234 L669,2004.5234 L659,1994.5234 " fill="#FEFFDD" style="stroke:#181818;stroke-width:0.5;"/><text fill="#000000" font-family="sans-serif" font-size="13" font-weight="bold" lengthAdjust="spacing" textLength="109" x="439" y="2013.0186">Ledger positions:</text><text fill="#000000" font-family="sans-serif" font-size="13" lengthAdjust="spacing" textLength="202" x="439" y="2029.3701">PayerFSP has a debit of 300 BWP</text><text fill="#000000" font-family="sans-serif" font-size="13" lengthAdjust="spacing" textLength="194" x="439" y="2045.7217">FDH_FX has a credit of 300 BWP</text><text fill="#000000" font-family="sans-serif" font-size="13" lengthAdjust="spacing" textLength="196" x="439" y="2062.0732">FDH_FX has a debit of 48000 TZS</text><text fill="#000000" font-family="sans-serif" font-size="13" lengthAdjust="spacing" textLength="215" x="439" y="2078.4248">PayeeFSP has a credit of 48000 TZS</text><line style="stroke:#181818;stroke-width:1.0;" x1="776" x2="766" y1="2157.5117" y2="2153.5117"/><line style="stroke:#181818;stroke-width:1.0;" x1="776" x2="766" y1="2157.5117" y2="2161.5117"/><line style="stroke:#181818;stroke-width:1.0;" x1="556" x2="777" y1="2157.5117" y2="2157.5117"/><text fill="#000000" font-family="sans-serif" font-size="13" font-weight="bold" lengthAdjust="spacing" textLength="14" x="563" y="2144.4795">22</text><text fill="#000000" font-family="sans-serif" font-size="13" lengthAdjust="spacing" textLength="139" x="581" y="2136.3037">The transfer succeeded.</text><text fill="#000000" font-family="sans-serif" font-size="13" lengthAdjust="spacing" textLength="180" x="581" y="2152.6553">You can clear it in your ledgers</text><path d="M170,2096.2813 L170,2187.2813 L541,2187.2813 L541,2106.2813 L531,2096.2813 L170,2096.2813 " fill="#FEFFDD" style="stroke:#181818;stroke-width:0.5;"/><path d="M531,2096.2813 L531,2106.2813 L541,2106.2813 L531,2096.2813 " fill="#FEFFDD" style="stroke:#181818;stroke-width:0.5;"/><text fill="#000000" font-family="sans-serif" font-size="13" font-weight="bold" lengthAdjust="spacing" textLength="217" x="176" y="2114.7764">PATCH /fxTransfers/77c9d78dc26...</text><text fill="#000000" font-family="sans-serif" font-size="13" lengthAdjust="spacing" textLength="4" x="176" y="2131.1279">{</text><text fill="#000000" font-family="sans-serif" font-size="13" lengthAdjust="spacing" textLength="342" x="184" y="2147.4795">"completedTimestamp": "2021-08-25T14:17:08.227+01:00",</text><text fill="#000000" font-family="sans-serif" font-size="13" lengthAdjust="spacing" textLength="178" x="184" y="2163.8311">"transferState": "COMMITTED"</text><text fill="#000000" font-family="sans-serif" font-size="13" lengthAdjust="spacing" textLength="4" x="176" y="2180.1826">}</text><line style="stroke:#181818;stroke-width:1.0;" x1="788" x2="830" y1="2215.3906" y2="2215.3906"/><line style="stroke:#181818;stroke-width:1.0;" x1="830" x2="830" y1="2215.3906" y2="2228.3906"/><line style="stroke:#181818;stroke-width:1.0;" x1="789" x2="830" y1="2228.3906" y2="2228.3906"/><polygon fill="#181818" points="799,2224.3906,789,2228.3906,799,2232.3906,795,2228.3906" style="stroke:#181818;stroke-width:1.0;"/><text fill="#000000" font-family="sans-serif" font-size="13" font-weight="bold" lengthAdjust="spacing" textLength="14" x="795" y="2210.5342">23</text><text fill="#000000" font-family="sans-serif" font-size="13" lengthAdjust="spacing" textLength="285" x="813" y="2210.5342">Let's just check: does this match the stuff I sent?</text><line style="stroke:#181818;stroke-width:1.0;" x1="788" x2="830" y1="2258.7422" y2="2258.7422"/><line style="stroke:#181818;stroke-width:1.0;" x1="830" x2="830" y1="2258.7422" y2="2271.7422"/><line style="stroke:#181818;stroke-width:1.0;" x1="789" x2="830" y1="2271.7422" y2="2271.7422"/><polygon fill="#181818" points="799,2267.7422,789,2271.7422,799,2275.7422,795,2271.7422" style="stroke:#181818;stroke-width:1.0;"/><text fill="#000000" font-family="sans-serif" font-size="13" font-weight="bold" lengthAdjust="spacing" textLength="14" x="795" y="2253.8857">24</text><text fill="#000000" font-family="sans-serif" font-size="13" lengthAdjust="spacing" textLength="217" x="813" y="2253.8857">It does. Great. I'll clear the conversion</text><line style="stroke:#181818;stroke-width:1.0;" x1="557" x2="567" y1="2302.0938" y2="2298.0938"/><line style="stroke:#181818;stroke-width:1.0;" x1="557" x2="567" y1="2302.0938" y2="2306.0938"/><line style="stroke:#181818;stroke-width:1.0;stroke-dasharray:2.0,2.0;" x1="556" x2="782" y1="2302.0938" y2="2302.0938"/><text fill="#000000" font-family="sans-serif" font-size="13" font-weight="bold" lengthAdjust="spacing" textLength="14" x="573" y="2297.2373">25</text><text fill="#000000" font-family="sans-serif" font-size="13" lengthAdjust="spacing" textLength="67" x="591" y="2297.2373">200 Gotcha</text><line style="stroke:#181818;stroke-width:1.0;" x1="318" x2="328" y1="2348.7969" y2="2344.7969"/><line style="stroke:#181818;stroke-width:1.0;" x1="318" x2="328" y1="2348.7969" y2="2352.7969"/><line style="stroke:#181818;stroke-width:1.0;" x1="317" x2="550" y1="2348.7969" y2="2348.7969"/><text fill="#000000" font-family="sans-serif" font-size="13" font-weight="bold" lengthAdjust="spacing" textLength="14" x="334" y="2335.7646">26</text><text fill="#000000" font-family="sans-serif" font-size="13" lengthAdjust="spacing" textLength="117" x="352" y="2327.5889">Transfer is complete</text><text fill="#000000" font-family="sans-serif" font-size="13" font-weight="bold" lengthAdjust="spacing" textLength="183" x="352" y="2343.9404">PUT /transfers/77c9d78dc26...</text><polygon fill="#181818" points="122,2375.1484,112,2379.1484,122,2383.1484,118,2379.1484" style="stroke:#181818;stroke-width:1.0;"/><line style="stroke:#181818;stroke-width:1.0;" x1="116" x2="311" y1="2379.1484" y2="2379.1484"/><text fill="#000000" font-family="sans-serif" font-size="13" font-weight="bold" lengthAdjust="spacing" textLength="14" x="128" y="2374.292">27</text><text fill="#000000" font-family="sans-serif" font-size="13" lengthAdjust="spacing" textLength="154" x="146" y="2374.292">Your transfer is successful</text><!--SRC=[jLXjSziu3lwkNy7wTYQxkTYrv7VFNJkEbJJPInfFxBjjTpopmqXKp5QMN9BEoztqlnz0weNoIvBkjfr-Y0aG1C073q2z-adovIhc4MSX-ITHOisSLpyjUCYczrm52vyfocEGH3IMAABX7Kq25evJmSPfah10fU8qJk_BtP8b8HFlwPB1MktNT97KYjKBAbKkALVzgsDSS0VTRhtPhRjT50aMC7vN6lf8HMgldt9HsjeKNl8mZ9bzKYxPz21Vt-d3YZuoCLuBmPBW4SN7lqtoTMQlptwV5lgdqycvZukJx5Uneo9XcIHwM9d5K__iZzCFXPdBwVdKVuy2hzlhzxgTTijp2rEMjDDnlLQx0qg3PY6_Dc6DbkawKQZMRZURXLXC8U-bh5LAs2dJgScr5HMtJ5bc-fa0t1ulK2YdwLe4UbEhLPNCz6QKTCjTHdthS93CzfsbKaNZocbsxZkTJHrZoDPncvcf84tWiYLFaslsPSsaEaVSr_fUFmXwdSY5DBVTHgDHrJLAdRuRTViikkba2ejqoMQ29f86gj2IIl3a5iLVrgbYPh7LzmRz7kttEW7BDglDZU4WO9r1s6vr1lrsAzFIDZIGJXvMN51KrxVUzDnwir_tEZEtFNHxm-QWqUss_jvqXoRGOYFxner1kbnoLSbEhnSCmbu_3BnkvbR851DBda2aEW4H4qy4ePvNYHw0JKAUU_dk-hyNT3Rf-RyEL7jIftySbtTIQfrT2S-hdxL6qSm_4zFF4wtaAAvYHguPXA6Gh4Zk8bbBS9XSffzedAOhSlg1Z2RdaaoknlD49vduK9L4cE0bAH50W0uNP7hotYTK0zIXo7oaPj5TZL19HgvpapvanQ_DrSZVBlZjGXt7QqQ8GyYA2iK3lg80yueURFTT1-mHCE4u5Rt2QKFCMddgEiw1FitdCaZ1rKSoPUAE1om_z2EBWPoTWurJHnTJSYLe46TENqoTW-9SRH5oinBf7NG2KTls-lJ3P9uK_Azjm99JDQ7HjoC5EtF0vaaUugPbtoiDvrctkuC9mNFeMgN9Udd3XEFuRltDcwaxdCICIeON6N6n98_07lhiUKBIYAW58paudP1XDTvHnV0M4YWV4hD84UVmS78rdP7NqKCE97buwFmFeY2ajb4kjI4ujxbsP5Ht5etUi5kIRODbnQ5-azjJkTBgPPl9TGA491CJYEmnrzAD9LSme9qzhXZA4CUvH5fy338JbZ6Q4MXvPawfsLxBSdwYpUwrhzaHTXDvvWZs_15scoYEA7WXqohOfEPyrUZ1-wnSiUSKVqCTlU8H-TaUXbwPUUONP-hM0Kg-EmJc9ES7SKomfztGu3DHAGBAUGNsUPIPs9gTR4E8oAj_7H6P0lIu9F2V9aX36JurIpToJGBK10WL39GU2vmQ9fedcvZ9MydRUV8-FI9SaJ1byY1HZTp1tEm5_xBca9r74YmOX44XFO9980w6PP6GafCEmC50W-lPy7J180TXEWyFhxL17P0SGhd0aZqUBQ1aQNQgwKrGZblZGHLrOAMuIIkaDy0yctMEXPrZ2t9byJWM_sRfGzIxQzp22mHL_8rKjnym8AqRydaECQYflJV9OYHQ9w4a4J2SmKJcj554YsCJ7miRv0o0SQ010jlYYCTB1hUaRq4Wro9j_RiQqUjDPifeh5OQmF9n-p19GfE-wGPX9sXrGkYgM6R8TQiOO1VE-1BsqwKccks9ejzmUvrieiWsvg5C5IGGTrsVJ4-k_tFYxwjFpF6t52YcqMisoRiKi4chDRbdbqwehe0oVW8r25KXTL44E3t416o0Tms7negCIoH507yMQaDu-3GLuh6nGw7e97WZezdux6LtyZsJFJg-kfvjvBgIQODPoCSe-9oaz-3sBNXkuNC9bQrfo2fPIG2ewKtCRytFpUiprGdC-NHgNepMrqo8LEJvqJ_6QQW37C2_sX4frdqc0y5NUKFuRG4-8JLXjMW5Sazb9HqCthUsXt8T18o5sGNxklIsPF3NpISOL81YeB8BXjPoAUV9oqeGdG30uWFxXv-LrSKUOlEVgZFVDH3PhZ8zRVbMQwCA6mSGdxvRR4Ztv1pBYU2qNE5UQ5IInPcDSc0BqtqChIn-tkzifUYszca0gUeCfgg3LysyXgs9YvKJLyrqijtZM3ckv2FYSqEEFU2ehUccnkFL19e7qmh_E85kXd2mtezGX8YCDqNzMwDG-KiBMV4OD6pYTklDJjrhpvhzOQkFRD8T3EhDjduCVjtgjzKP-Hlu-VlDJ-LGH4AsmiSNi7P-UM-XEZuokJ7nJ9Y0dheayOx1Pvw8IlEbjvGdKf50CD1C4NauCZoYizldFJlr_DMP1yScyuLez-xAzvagkEnnoH2BjxUwTXN9Fexmdk88B-U8f-yQzD2T2v0kMNORI1l6BPXhPVb0syxwFA5m_oYJ-2MFcYaeJQ1jdyE5qbl1i41IVS65sNbYjNdTtejl2RhfEzghaJSaPvnK7fW7yWYT9xUf8ZovWLmZRWe6s_N5hNeLnZGcflWKmMK-hBBmY2nUECofxpWsv5DTTVXRBk2WmU-Z-x1-_E4YOjEmKCmFByQAyTNbvVbijd-8-zP7bhTtXFkBjA1PuIZJuB9HsGLNaM-1rq9E0A0B60pP3NvmA2Z0BflSAZorB9DZmJ1ScbYZ4Ob4kdp2elcH0DGGM3ofu1vy-Xb_mqYr4MtPH44jXRSW71m2GkT9zG6K5PA6f2OyZTJiGzPRyYU2i1qsxkh82eUpk78IXKFD3dpQL3wwb6DFUQerKXPdQkT5RXTIeIjOI_57aKU8C0TEXPgnpHuUNk1S2xbF9Iye6YNRB0stnDLB-5bljndQnFodjbOEdUrdzj9dPljidVn4MoWBjNWypsme5GDd0-0Df8TJMm1jGsY89EOJcduW2FdZtpQUrxFVDY-aeAstZGuJkWrmxASrTdViE4FzXSGGWEu0fgMeTHH17u59LRqjDv-RxoaDyWv1sZ3TpUH58xtwMC_V_mMPRJoDyfTHjHsOf1IZ_9Da_mCc-94x_8YNgoodikS5z8YDsU__]--></g></svg>