<svg xmlns="http://www.w3.org/2000/svg" xmlns:xlink="http://www.w3.org/1999/xlink" contentStyleType="text/css" height="1144px" preserveAspectRatio="none" style="width:2410px;height:1144px;background:#FFFFFF;" version="1.1" viewBox="0 0 2410 1144" width="2410px" zoomAndPan="magnify">
  <title>1.1.4.a. Envoyer une notification au participant (payeur/bénéficiaire) (message unique)</title>
  <defs/>
  <g>
    <text fill="#000000" font-family="sans-serif" font-size="14" font-weight="bold" lengthAdjust="spacing" textLength="692.665" x="856.0544" y="27.9951">1.1.4.a. Envoyer une notification au participant (payeur/bénéficiaire) (message unique)</text>
    <rect fill="#D3D3D3" height="1094.9766" style="stroke:#181818;stroke-width:0.5;" width="255.8501" x="1" y="43.2969"/>
    <text fill="#000000" font-family="sans-serif" font-size="13" font-weight="bold" lengthAdjust="spacing" textLength="249.8501" x="4" y="55.3638">Financial Service Provider (Payer)</text>
    <rect fill="#ADD8E6" height="1094.9766" style="stroke:#181818;stroke-width:0.5;" width="363.4326" x="460.5493" y="43.2969"/>
    <text fill="#000000" font-family="sans-serif" font-size="13" font-weight="bold" lengthAdjust="spacing" textLength="195.1079" x="544.7117" y="55.3638">Service adaptateur ML API</text>
    <rect fill="#FFFFE0" height="1094.9766" style="stroke:#181818;stroke-width:0.5;" width="1295.9951" x="848.5229" y="43.2969"/>
    <text fill="#000000" font-family="sans-serif" font-size="13" font-weight="bold" lengthAdjust="spacing" textLength="110.2017" x="1441.4197" y="55.3638">Service central</text>
    <rect fill="#D3D3D3" height="1094.9766" style="stroke:#181818;stroke-width:0.5;" width="258.2559" x="2146.5181" y="43.2969"/>
    <text fill="#000000" font-family="sans-serif" font-size="13" font-weight="bold" lengthAdjust="spacing" textLength="252.2559" x="2149.5181" y="55.3638">Financial Service Provider (Payee)</text>
    <rect fill="#FFFFFF" height="867.6563" style="stroke:#181818;stroke-width:1.0;" width="10" x="637.2656" y="165.0234"/>
    <rect fill="#FFFFFF" height="30" style="stroke:#181818;stroke-width:1.0;" width="10" x="940.8408" y="210.2891"/>
    <rect fill="#FFFFFF" height="195.4688" style="stroke:#181818;stroke-width:1.0;" width="10" x="1262.1655" y="293.5547"/>
    <rect fill="#FFFFFF" height="209.0625" style="stroke:#181818;stroke-width:1.0;" width="10" x="1262.1655" y="590.5547"/>
    <rect fill="#FFFFFF" height="137.2031" style="stroke:#181818;stroke-width:1.0;" width="10" x="1547.6689" y="322.6875"/>
    <rect fill="#FFFFFF" height="120.5313" style="stroke:#181818;stroke-width:1.0;" width="10" x="1709.3887" y="634.8203"/>
    <rect fill="#FFFFFF" height="62.2656" style="stroke:#181818;stroke-width:1.0;" width="10" x="2073.4316" y="663.9531"/>
    <rect fill="none" height="853.6563" style="stroke:#000000;stroke-width:1.5;" width="2264.4377" x="75.781" y="172.0234"/>
    <rect fill="none" height="241.7344" style="stroke:#000000;stroke-width:1.5;" width="1294.8799" x="454.5493" y="255.2891"/>
    <rect fill="none" height="115.5313" style="stroke:#000000;stroke-width:1.5;" width="1875.6694" x="454.5493" y="903.1484"/>
    <line style="stroke:#181818;stroke-width:0.5;stroke-dasharray:5.0,5.0;" x1="128.781" x2="128.781" y1="155.0234" y2="1042.6797"/>
    <line style="stroke:#181818;stroke-width:0.5;stroke-dasharray:5.0,5.0;" x1="641.5493" x2="641.5493" y1="155.0234" y2="1042.6797"/>
    <line style="stroke:#181818;stroke-width:0.5;stroke-dasharray:5.0,5.0;" x1="945.5229" x2="945.5229" y1="155.0234" y2="1042.6797"/>
    <line style="stroke:#181818;stroke-width:0.5;stroke-dasharray:5.0,5.0;" x1="1267.0132" x2="1267.0132" y1="155.0234" y2="1042.6797"/>
    <line style="stroke:#181818;stroke-width:0.5;stroke-dasharray:5.0,5.0;" x1="1551.8706" x2="1551.8706" y1="155.0234" y2="1042.6797"/>
    <line style="stroke:#181818;stroke-width:0.5;stroke-dasharray:5.0,5.0;" x1="1713.4673" x2="1713.4673" y1="155.0234" y2="1042.6797"/>
    <line style="stroke:#181818;stroke-width:0.5;stroke-dasharray:5.0,5.0;" x1="2078.3452" x2="2078.3452" y1="155.0234" y2="1042.6797"/>
    <line style="stroke:#181818;stroke-width:0.5;stroke-dasharray:5.0,5.0;" x1="2275.0732" x2="2275.0732" y1="155.0234" y2="1042.6797"/>
    <text fill="#000000" font-family="sans-serif" font-size="14" lengthAdjust="spacing" textLength="80.2881" x="85.781" y="135.4248">Payer DFSP</text>
    <text fill="#000000" font-family="sans-serif" font-size="14" lengthAdjust="spacing" textLength="75.5713" x="88.1394" y="151.7217">Participant</text>
    <ellipse cx="128.925" cy="70.9297" fill="#E2E2F0" rx="8" ry="8" style="stroke:#181818;stroke-width:0.5;"/>
    <path d="M128.925,78.9297 L128.925,105.9297 M115.925,86.9297 L141.925,86.9297 M128.925,105.9297 L115.925,120.9297 M128.925,105.9297 L141.925,120.9297 " fill="none" style="stroke:#181818;stroke-width:0.5;"/>
    <text fill="#000000" font-family="sans-serif" font-size="14" lengthAdjust="spacing" textLength="80.2881" x="85.781" y="1054.6748">Payer DFSP</text>
    <text fill="#000000" font-family="sans-serif" font-size="14" lengthAdjust="spacing" textLength="75.5713" x="88.1394" y="1070.9717">Participant</text>
    <ellipse cx="128.925" cy="1082.7734" fill="#E2E2F0" rx="8" ry="8" style="stroke:#181818;stroke-width:0.5;"/>
    <path d="M128.925,1090.7734 L128.925,1117.7734 M115.925,1098.7734 L141.925,1098.7734 M128.925,1117.7734 L115.925,1132.7734 M128.925,1117.7734 L141.925,1132.7734 " fill="none" style="stroke:#181818;stroke-width:0.5;"/>
    <text fill="#000000" font-family="sans-serif" font-size="14" lengthAdjust="spacing" textLength="349.4326" x="464.5493" y="151.7217">Gestionnaire d&apos;événements de notification ML API</text>
    <ellipse cx="642.2656" cy="122.7266" fill="#E2E2F0" rx="12" ry="12" style="stroke:#181818;stroke-width:0.5;"/>
    <polygon fill="#181818" points="638.2656,110.7266,644.2656,105.7266,642.2656,110.7266,644.2656,115.7266,638.2656,110.7266" style="stroke:#181818;stroke-width:1.0;"/>
    <text fill="#000000" font-family="sans-serif" font-size="14" lengthAdjust="spacing" textLength="349.4326" x="464.5493" y="1054.6748">Gestionnaire d&apos;événements de notification ML API</text>
    <ellipse cx="642.2656" cy="1073.9766" fill="#E2E2F0" rx="12" ry="12" style="stroke:#181818;stroke-width:0.5;"/>
    <polygon fill="#181818" points="638.2656,1061.9766,644.2656,1056.9766,642.2656,1061.9766,644.2656,1066.9766,638.2656,1061.9766" style="stroke:#181818;stroke-width:1.0;"/>
    <rect fill="#E2E2F0" height="30.2969" style="stroke:#181818;stroke-width:0.5;" width="182.6357" x="856.5229" y="119.7266"/>
    <rect fill="#E2E2F0" height="30.2969" style="stroke:#181818;stroke-width:0.5;" width="182.6357" x="852.5229" y="123.7266"/>
    <text fill="#000000" font-family="sans-serif" font-size="14" lengthAdjust="spacing" textLength="168.6357" x="859.5229" y="143.7217">Rubrique de notification</text>
    <rect fill="#E2E2F0" height="30.2969" style="stroke:#181818;stroke-width:0.5;" width="182.6357" x="856.5229" y="1041.6797"/>
    <rect fill="#E2E2F0" height="30.2969" style="stroke:#181818;stroke-width:0.5;" width="182.6357" x="852.5229" y="1045.6797"/>
    <text fill="#000000" font-family="sans-serif" font-size="14" lengthAdjust="spacing" textLength="168.6357" x="859.5229" y="1065.6748">Rubrique de notification</text>
    <text fill="#000000" font-family="sans-serif" font-size="14" lengthAdjust="spacing" textLength="152.3047" x="1188.0132" y="151.7217">API du service central</text>
    <path d="M1246.6655,110.7266 L1246.6655,134.7266 M1246.6655,122.7266 L1263.6655,122.7266 " fill="none" style="stroke:#181818;stroke-width:0.5;"/>
    <ellipse cx="1275.6655" cy="122.7266" fill="#E2E2F0" rx="12" ry="12" style="stroke:#181818;stroke-width:0.5;"/>
    <text fill="#000000" font-family="sans-serif" font-size="14" lengthAdjust="spacing" textLength="152.3047" x="1188.0132" y="1054.6748">API du service central</text>
    <path d="M1246.6655,1061.9766 L1246.6655,1085.9766 M1246.6655,1073.9766 L1263.6655,1073.9766 " fill="none" style="stroke:#181818;stroke-width:0.5;"/>
    <ellipse cx="1275.6655" cy="1073.9766" fill="#E2E2F0" rx="12" ry="12" style="stroke:#181818;stroke-width:0.5;"/>
    <rect fill="#E2E2F0" height="30.2969" style="stroke:#181818;stroke-width:0.5;" width="181.5967" x="1463.8706" y="119.7266"/>
    <rect fill="#E2E2F0" height="30.2969" style="stroke:#181818;stroke-width:0.5;" width="181.5967" x="1459.8706" y="123.7266"/>
    <text fill="#000000" font-family="sans-serif" font-size="14" lengthAdjust="spacing" textLength="167.5967" x="1466.8706" y="143.7217">Rubrique d&apos;événements</text>
    <rect fill="#E2E2F0" height="30.2969" style="stroke:#181818;stroke-width:0.5;" width="181.5967" x="1463.8706" y="1041.6797"/>
    <rect fill="#E2E2F0" height="30.2969" style="stroke:#181818;stroke-width:0.5;" width="181.5967" x="1459.8706" y="1045.6797"/>
    <text fill="#000000" font-family="sans-serif" font-size="14" lengthAdjust="spacing" textLength="167.5967" x="1466.8706" y="1065.6748">Rubrique d&apos;événements</text>
    <text fill="#000000" font-family="sans-serif" font-size="14" lengthAdjust="spacing" textLength="111.8428" x="1655.4673" y="151.7217">DAO participant</text>
    <ellipse cx="1714.3887" cy="122.7266" fill="#E2E2F0" rx="12" ry="12" style="stroke:#181818;stroke-width:0.5;"/>
    <line style="stroke:#181818;stroke-width:0.5;" x1="1702.3887" x2="1726.3887" y1="136.7266" y2="136.7266"/>
    <text fill="#000000" font-family="sans-serif" font-size="14" lengthAdjust="spacing" textLength="111.8428" x="1655.4673" y="1054.6748">DAO participant</text>
    <ellipse cx="1714.3887" cy="1073.9766" fill="#E2E2F0" rx="12" ry="12" style="stroke:#181818;stroke-width:0.5;"/>
    <line style="stroke:#181818;stroke-width:0.5;" x1="1702.3887" x2="1726.3887" y1="1087.9766" y2="1087.9766"/>
    <text fill="#000000" font-family="sans-serif" font-size="14" lengthAdjust="spacing" textLength="118.1729" x="2016.3452" y="151.7217">Stockage central</text>
    <path d="M2060.4316,102.7266 C2060.4316,92.7266 2078.4316,92.7266 2078.4316,92.7266 C2078.4316,92.7266 2096.4316,92.7266 2096.4316,102.7266 L2096.4316,128.7266 C2096.4316,138.7266 2078.4316,138.7266 2078.4316,138.7266 C2078.4316,138.7266 2060.4316,138.7266 2060.4316,128.7266 L2060.4316,102.7266 " fill="#E2E2F0" style="stroke:#181818;stroke-width:1.5;"/>
    <path d="M2060.4316,102.7266 C2060.4316,112.7266 2078.4316,112.7266 2078.4316,112.7266 C2078.4316,112.7266 2096.4316,112.7266 2096.4316,102.7266 " fill="none" style="stroke:#181818;stroke-width:1.5;"/>
    <text fill="#000000" font-family="sans-serif" font-size="14" lengthAdjust="spacing" textLength="118.1729" x="2016.3452" y="1054.6748">Stockage central</text>
    <path d="M2060.4316,1067.9766 C2060.4316,1057.9766 2078.4316,1057.9766 2078.4316,1057.9766 C2078.4316,1057.9766 2096.4316,1057.9766 2096.4316,1067.9766 L2096.4316,1093.9766 C2096.4316,1103.9766 2078.4316,1103.9766 2078.4316,1103.9766 C2078.4316,1103.9766 2060.4316,1103.9766 2060.4316,1093.9766 L2060.4316,1067.9766 " fill="#E2E2F0" style="stroke:#181818;stroke-width:1.5;"/>
    <path d="M2060.4316,1067.9766 C2060.4316,1077.9766 2078.4316,1077.9766 2078.4316,1077.9766 C2078.4316,1077.9766 2096.4316,1077.9766 2096.4316,1067.9766 " fill="none" style="stroke:#181818;stroke-width:1.5;"/>
    <text fill="#000000" font-family="sans-serif" font-size="14" lengthAdjust="spacing" textLength="83.1455" x="2231.0732" y="135.4248">Payee DFSP</text>
    <text fill="#000000" font-family="sans-serif" font-size="14" lengthAdjust="spacing" textLength="75.5713" x="2234.8604" y="151.7217">Participant</text>
    <ellipse cx="2275.646" cy="70.9297" fill="#E2E2F0" rx="8" ry="8" style="stroke:#181818;stroke-width:0.5;"/>
    <path d="M2275.646,78.9297 L2275.646,105.9297 M2262.646,86.9297 L2288.646,86.9297 M2275.646,105.9297 L2262.646,120.9297 M2275.646,105.9297 L2288.646,120.9297 " fill="none" style="stroke:#181818;stroke-width:0.5;"/>
    <text fill="#000000" font-family="sans-serif" font-size="14" lengthAdjust="spacing" textLength="83.1455" x="2231.0732" y="1054.6748">Payee DFSP</text>
    <text fill="#000000" font-family="sans-serif" font-size="14" lengthAdjust="spacing" textLength="75.5713" x="2234.8604" y="1070.9717">Participant</text>
    <ellipse cx="2275.646" cy="1082.7734" fill="#E2E2F0" rx="8" ry="8" style="stroke:#181818;stroke-width:0.5;"/>
    <path d="M2275.646,1090.7734 L2275.646,1117.7734 M2262.646,1098.7734 L2288.646,1098.7734 M2275.646,1117.7734 L2262.646,1132.7734 M2275.646,1117.7734 L2288.646,1132.7734 " fill="none" style="stroke:#181818;stroke-width:0.5;"/>
    <rect fill="#FFFFFF" height="867.6563" style="stroke:#181818;stroke-width:1.0;" width="10" x="637.2656" y="165.0234"/>
    <rect fill="#FFFFFF" height="30" style="stroke:#181818;stroke-width:1.0;" width="10" x="940.8408" y="210.2891"/>
    <rect fill="#FFFFFF" height="195.4688" style="stroke:#181818;stroke-width:1.0;" width="10" x="1262.1655" y="293.5547"/>
    <rect fill="#FFFFFF" height="209.0625" style="stroke:#181818;stroke-width:1.0;" width="10" x="1262.1655" y="590.5547"/>
    <rect fill="#FFFFFF" height="137.2031" style="stroke:#181818;stroke-width:1.0;" width="10" x="1547.6689" y="322.6875"/>
    <rect fill="#FFFFFF" height="120.5313" style="stroke:#181818;stroke-width:1.0;" width="10" x="1709.3887" y="634.8203"/>
    <rect fill="#FFFFFF" height="62.2656" style="stroke:#181818;stroke-width:1.0;" width="10" x="2073.4316" y="663.9531"/>
    <path d="M75.781,172.0234 L424.7766,172.0234 L424.7766,179.1563 L414.7766,189.1563 L75.781,189.1563 L75.781,172.0234 " fill="#EEEEEE" style="stroke:#000000;stroke-width:1.5;"/>
    <rect fill="none" height="853.6563" style="stroke:#000000;stroke-width:1.5;" width="2264.4377" x="75.781" y="172.0234"/>
    <text fill="#000000" font-family="sans-serif" font-size="13" font-weight="bold" lengthAdjust="spacing" textLength="303.9956" x="90.781" y="185.0903">Envoyer une notification aux participants</text>
    <polygon fill="#181818" points="928.8408,206.2891,938.8408,210.2891,928.8408,214.2891,932.8408,210.2891" style="stroke:#181818;stroke-width:1.0;"/>
    <line style="stroke:#181818;stroke-width:1.0;" x1="647.2656" x2="934.8408" y1="210.2891" y2="210.2891"/>
    <text fill="#000000" font-family="sans-serif" font-size="13" font-weight="bold" lengthAdjust="spacing" textLength="9.0454" x="654.2656" y="205.2231">1</text>
    <text fill="#000000" font-family="sans-serif" font-size="13" lengthAdjust="spacing" textLength="261.5298" x="667.311" y="205.2231">Consommer l&apos;événement de notification</text>
    <path d="M454.5493,255.2891 L789.1865,255.2891 L789.1865,262.4219 L779.1865,272.4219 L454.5493,272.4219 L454.5493,255.2891 " fill="#EEEEEE" style="stroke:#000000;stroke-width:1.5;"/>
    <rect fill="none" height="241.7344" style="stroke:#000000;stroke-width:1.5;" width="1294.8799" x="454.5493" y="255.2891"/>
    <text fill="#000000" font-family="sans-serif" font-size="13" font-weight="bold" lengthAdjust="spacing" textLength="289.6372" x="469.5493" y="268.356">Persister les informations d&apos;événement</text>
    <polygon fill="#181818" points="1250.1655,289.5547,1260.1655,293.5547,1250.1655,297.5547,1254.1655,293.5547" style="stroke:#181818;stroke-width:1.0;"/>
    <line style="stroke:#181818;stroke-width:1.0;" x1="647.2656" x2="1256.1655" y1="293.5547" y2="293.5547"/>
    <text fill="#000000" font-family="sans-serif" font-size="13" font-weight="bold" lengthAdjust="spacing" textLength="9.0454" x="654.2656" y="288.4888">2</text>
    <text fill="#000000" font-family="sans-serif" font-size="13" lengthAdjust="spacing" textLength="468.3682" x="667.311" y="288.4888">Demande de persister les informations d&apos;événement — POST — /events</text>
    <polygon fill="#181818" points="1535.6689,318.6875,1545.6689,322.6875,1535.6689,326.6875,1539.6689,322.6875" style="stroke:#181818;stroke-width:1.0;"/>
    <line style="stroke:#181818;stroke-width:1.0;" x1="1272.1655" x2="1541.6689" y1="322.6875" y2="322.6875"/>
    <text fill="#000000" font-family="sans-serif" font-size="13" font-weight="bold" lengthAdjust="spacing" textLength="9.0454" x="1279.1655" y="317.6216">3</text>
    <text fill="#000000" font-family="sans-serif" font-size="13" lengthAdjust="spacing" textLength="243.458" x="1292.2109" y="317.6216">Publier les informations d&apos;événement</text>
    <rect fill="none" height="53.0703" style="stroke:#000000;stroke-width:1.5;" width="285.5586" x="1456.8706" y="355.6875"/>
    <path d="M1456.8706,355.6875 L1521.8706,355.6875 L1521.8706,362.6875 L1511.8706,372.6875 L1456.8706,372.6875 L1456.8706,355.6875 " fill="#EEEEEE" style="stroke:#000000;stroke-width:2.0;"/>
    <text fill="#000000" font-family="sans-serif" font-size="13" font-weight="bold" lengthAdjust="spacing" textLength="20.8838" x="1469.8706" y="369.7544">ref</text>
    <text fill="#000000" font-family="sans-serif" font-size="12" lengthAdjust="spacing" textLength="277.5586" x="1460.8706" y="387.8262">Consommation du gestionnaire d&apos;événements</text>
    <text fill="#000000" font-family="sans-serif" font-size="12" lengthAdjust="spacing" textLength="3.8145" x="1597.7427" y="401.7949"> </text>
    <polygon fill="#181818" points="1283.1655,455.8906,1273.1655,459.8906,1283.1655,463.8906,1279.1655,459.8906" style="stroke:#181818;stroke-width:1.0;"/>
    <line style="stroke:#181818;stroke-width:1.0;stroke-dasharray:2.0,2.0;" x1="1277.1655" x2="1551.6689" y1="459.8906" y2="459.8906"/>
    <text fill="#000000" font-family="sans-serif" font-size="13" font-weight="bold" lengthAdjust="spacing" textLength="9.0454" x="1289.1655" y="454.8247">4</text>
    <text fill="#000000" font-family="sans-serif" font-size="13" lengthAdjust="spacing" textLength="125.9058" x="1302.2109" y="454.8247">Renvoyer le succès</text>
    <polygon fill="#181818" points="658.2656,485.0234,648.2656,489.0234,658.2656,493.0234,654.2656,489.0234" style="stroke:#181818;stroke-width:1.0;"/>
    <line style="stroke:#181818;stroke-width:1.0;stroke-dasharray:2.0,2.0;" x1="652.2656" x2="1266.1655" y1="489.0234" y2="489.0234"/>
    <text fill="#000000" font-family="sans-serif" font-size="13" font-weight="bold" lengthAdjust="spacing" textLength="9.0454" x="664.2656" y="483.9575">5</text>
    <text fill="#000000" font-family="sans-serif" font-size="13" lengthAdjust="spacing" textLength="125.9058" x="677.311" y="483.9575">Renvoyer le succès</text>
    <path d="M652,509.0234 L652,549.0234 L1119,549.0234 L1119,519.0234 L1109,509.0234 L652,509.0234 " fill="#D3D3D3" style="stroke:#181818;stroke-width:0.5;"/>
    <path d="M1109,509.0234 L1109,519.0234 L1119,519.0234 L1109,509.0234 " fill="#D3D3D3" style="stroke:#181818;stroke-width:0.5;"/>
    <text fill="#000000" font-family="sans-serif" font-size="13" lengthAdjust="spacing" textLength="446.2593" x="658" y="526.0903">Les détails de l&apos;endpoint sont mis en cache ; à l&apos;expiration du cache,</text>
    <text fill="#000000" font-family="sans-serif" font-size="13" lengthAdjust="spacing" textLength="239.8081" x="658" y="541.2231">les détails sont récupérés à nouveau</text>
    <polygon fill="#181818" points="1250.1655,586.5547,1260.1655,590.5547,1250.1655,594.5547,1254.1655,590.5547" style="stroke:#181818;stroke-width:1.0;"/>
    <line style="stroke:#181818;stroke-width:1.0;" x1="647.2656" x2="1256.1655" y1="590.5547" y2="590.5547"/>
    <text fill="#000000" font-family="sans-serif" font-size="13" font-weight="bold" lengthAdjust="spacing" textLength="9.0454" x="654.2656" y="577.9224">6</text>
    <text fill="#000000" font-family="sans-serif" font-size="13" lengthAdjust="spacing" textLength="582.8545" x="667.311" y="570.356">Demander les détails de l&apos;endpoint du participant - GET - /participants/{{fsp}}/endpoints</text>
    <text fill="#FF0000" font-family="sans-serif" font-size="13" font-weight="bold" lengthAdjust="spacing" textLength="110.2524" x="667.311" y="585.4888">Code d&apos;erreur :</text>
    <text fill="#FF0000" font-family="sans-serif" font-size="13" lengthAdjust="spacing" textLength="33.084" x="781.6958" y="585.4888">2003</text>
    <polygon fill="#181818" points="1697.3887,630.8203,1707.3887,634.8203,1697.3887,638.8203,1701.3887,634.8203" style="stroke:#181818;stroke-width:1.0;"/>
    <line style="stroke:#181818;stroke-width:1.0;" x1="1272.1655" x2="1703.3887" y1="634.8203" y2="634.8203"/>
    <text fill="#000000" font-family="sans-serif" font-size="13" font-weight="bold" lengthAdjust="spacing" textLength="9.0454" x="1279.1655" y="622.188">7</text>
    <text fill="#000000" font-family="sans-serif" font-size="13" lengthAdjust="spacing" textLength="321.9976" x="1292.2109" y="614.6216">Récupérer les détails de l&apos;endpoint du participant</text>
    <text fill="#FF0000" font-family="sans-serif" font-size="13" font-weight="bold" lengthAdjust="spacing" textLength="110.2524" x="1292.2109" y="629.7544">Code d&apos;erreur :</text>
    <text fill="#FF0000" font-family="sans-serif" font-size="13" lengthAdjust="spacing" textLength="33.084" x="1406.5957" y="629.7544">2003</text>
    <polygon fill="#181818" points="2061.4316,659.9531,2071.4316,663.9531,2061.4316,667.9531,2065.4316,663.9531" style="stroke:#181818;stroke-width:1.0;"/>
    <line style="stroke:#181818;stroke-width:1.0;" x1="1719.3887" x2="2067.4316" y1="663.9531" y2="663.9531"/>
    <text fill="#000000" font-family="sans-serif" font-size="13" font-weight="bold" lengthAdjust="spacing" textLength="9.0454" x="1726.3887" y="658.8872">8</text>
    <text fill="#000000" font-family="sans-serif" font-size="13" lengthAdjust="spacing" textLength="321.9976" x="1739.4341" y="658.8872">Récupérer les détails de l&apos;endpoint du participant</text>
    <polygon fill="#FFFFE0" points="2012,676.9531,2144,676.9531,2154,687.9531,2144,699.9531,2012,699.9531,2002,687.9531,2012,676.9531" style="stroke:#181818;stroke-width:0.5;"/>
    <text fill="#000000" font-family="sans-serif" font-size="13" lengthAdjust="spacing" textLength="128.4448" x="2014" y="693.02">participantEndpoint</text>
    <polygon fill="#181818" points="1730.3887,722.2188,1720.3887,726.2188,1730.3887,730.2188,1726.3887,726.2188" style="stroke:#181818;stroke-width:1.0;"/>
    <line style="stroke:#181818;stroke-width:1.0;" x1="1724.3887" x2="2077.4316" y1="726.2188" y2="726.2188"/>
    <text fill="#000000" font-family="sans-serif" font-size="13" font-weight="bold" lengthAdjust="spacing" textLength="9.0454" x="1736.3887" y="721.1528">9</text>
    <text fill="#000000" font-family="sans-serif" font-size="13" lengthAdjust="spacing" textLength="298.981" x="1749.4341" y="721.1528">Détails de l&apos;endpoint du participant récupérés</text>
    <polygon fill="#181818" points="1283.1655,751.3516,1273.1655,755.3516,1283.1655,759.3516,1279.1655,755.3516" style="stroke:#181818;stroke-width:1.0;"/>
    <line style="stroke:#181818;stroke-width:1.0;stroke-dasharray:2.0,2.0;" x1="1277.1655" x2="1713.3887" y1="755.3516" y2="755.3516"/>
    <text fill="#000000" font-family="sans-serif" font-size="13" font-weight="bold" lengthAdjust="spacing" textLength="18.0908" x="1289.1655" y="750.2856">10</text>
    <text fill="#000000" font-family="sans-serif" font-size="13" lengthAdjust="spacing" textLength="316.5957" x="1311.2563" y="750.2856">Renvoyer les détails de l&apos;endpoint du participant</text>
    <polygon fill="#181818" points="658.2656,795.6172,648.2656,799.6172,658.2656,803.6172,654.2656,799.6172" style="stroke:#181818;stroke-width:1.0;"/>
    <line style="stroke:#181818;stroke-width:1.0;stroke-dasharray:2.0,2.0;" x1="652.2656" x2="1266.1655" y1="799.6172" y2="799.6172"/>
    <text fill="#000000" font-family="sans-serif" font-size="13" font-weight="bold" lengthAdjust="spacing" textLength="18.0908" x="664.2656" y="786.9849">11</text>
    <text fill="#000000" font-family="sans-serif" font-size="13" lengthAdjust="spacing" textLength="316.5957" x="686.3564" y="779.4185">Renvoyer les détails de l&apos;endpoint du participant</text>
    <text fill="#FF0000" font-family="sans-serif" font-size="13" font-weight="bold" lengthAdjust="spacing" textLength="117.9902" x="686.3564" y="794.5513">Codes d&apos;erreur :</text>
    <text fill="#FF0000" font-family="sans-serif" font-size="13" lengthAdjust="spacing" textLength="74.4326" x="808.479" y="794.5513">3202, 3203</text>
    <polygon fill="#181818" points="139.925,855.0156,129.925,859.0156,139.925,863.0156,135.925,859.0156" style="stroke:#181818;stroke-width:1.0;"/>
    <line style="stroke:#181818;stroke-width:1.0;" x1="133.925" x2="636.2656" y1="859.0156" y2="859.0156"/>
    <text fill="#000000" font-family="sans-serif" font-size="13" font-weight="bold" lengthAdjust="spacing" textLength="18.0908" x="145.925" y="838.8169">12</text>
    <text fill="#000000" font-family="sans-serif" font-size="13" lengthAdjust="spacing" textLength="377.3364" x="168.0159" y="823.6841">Notification avec résultat/erreur de préparation/exécution</text>
    <text fill="#000000" font-family="sans-serif" font-size="13" lengthAdjust="spacing" textLength="289.3452" x="168.0159" y="838.8169">au DFSP payeur sur l&apos;endpoint spécifié - PUT</text>
    <text fill="#FF0000" font-family="sans-serif" font-size="13" font-weight="bold" lengthAdjust="spacing" textLength="110.2524" x="168.0159" y="853.9497">Code d&apos;erreur :</text>
    <text fill="#FF0000" font-family="sans-serif" font-size="13" lengthAdjust="spacing" textLength="33.084" x="282.4006" y="853.9497">1001</text>
    <polygon fill="#181818" points="625.2656,884.1484,635.2656,888.1484,625.2656,892.1484,629.2656,888.1484" style="stroke:#181818;stroke-width:1.0;"/>
    <line style="stroke:#181818;stroke-width:1.0;stroke-dasharray:2.0,2.0;" x1="128.925" x2="631.2656" y1="888.1484" y2="888.1484"/>
    <text fill="#000000" font-family="sans-serif" font-size="13" font-weight="bold" lengthAdjust="spacing" textLength="18.0908" x="135.925" y="883.0825">13</text>
    <text fill="#000000" font-family="sans-serif" font-size="13" lengthAdjust="spacing" textLength="85.3315" x="158.0159" y="883.0825">HTTP 200 OK</text>
    <path d="M454.5493,903.1484 L518.9922,903.1484 L518.9922,910.2813 L508.9922,920.2813 L454.5493,920.2813 L454.5493,903.1484 " fill="#EEEEEE" style="stroke:#000000;stroke-width:1.5;"/>
    <rect fill="none" height="115.5313" style="stroke:#000000;stroke-width:1.5;" width="1875.6694" x="454.5493" y="903.1484"/>
    <text fill="#000000" font-family="sans-serif" font-size="13" font-weight="bold" lengthAdjust="spacing" textLength="19.4429" x="469.5493" y="916.2153">alt</text>
    <text fill="#000000" font-family="sans-serif" font-size="11" font-weight="bold" lengthAdjust="spacing" textLength="389.0391" x="533.9922" y="915.3589">[Config.SEND_TRANSFER_CONFIRMATION_TO_PAYEE === true]</text>
    <polygon fill="#181818" points="2263.646,952.5469,2273.646,956.5469,2263.646,960.5469,2267.646,956.5469" style="stroke:#181818;stroke-width:1.0;"/>
    <line style="stroke:#181818;stroke-width:1.0;" x1="647.2656" x2="2269.646" y1="956.5469" y2="956.5469"/>
    <text fill="#000000" font-family="sans-serif" font-size="13" font-weight="bold" lengthAdjust="spacing" textLength="18.0908" x="654.2656" y="943.9146">14</text>
    <text fill="#000000" font-family="sans-serif" font-size="13" lengthAdjust="spacing" textLength="712.5752" x="676.3564" y="936.3481">Notification avec résultat d&apos;exécution (validé/annulé/rejeté) au DFSP bénéficiaire sur l&apos;endpoint spécifié - PUT</text>
    <text fill="#FF0000" font-family="sans-serif" font-size="13" font-weight="bold" lengthAdjust="spacing" textLength="110.2524" x="676.3564" y="951.481">Code d&apos;erreur :</text>
    <text fill="#FF0000" font-family="sans-serif" font-size="13" lengthAdjust="spacing" textLength="33.084" x="790.7412" y="951.481">1001</text>
    <polygon fill="#181818" points="658.2656,1006.6797,648.2656,1010.6797,658.2656,1014.6797,654.2656,1010.6797" style="stroke:#181818;stroke-width:1.0;"/>
    <line style="stroke:#181818;stroke-width:1.0;stroke-dasharray:2.0,2.0;" x1="652.2656" x2="2274.646" y1="1010.6797" y2="1010.6797"/>
    <text fill="#000000" font-family="sans-serif" font-size="13" font-weight="bold" lengthAdjust="spacing" textLength="18.0908" x="664.2656" y="1005.6138">15</text>
    <text fill="#000000" font-family="sans-serif" font-size="13" lengthAdjust="spacing" textLength="85.3315" x="686.3564" y="1005.6138">HTTP 200 OK</text>
  </g>
</svg>
