<svg xmlns="http://www.w3.org/2000/svg" xmlns:xlink="http://www.w3.org/1999/xlink" contentStyleType="text/css" height="1958px" preserveAspectRatio="none" style="width:3007px;height:1958px;background:#FFFFFF;" version="1.1" viewBox="0 0 3007 1958" width="3007px" zoomAndPan="magnify">
  <title>2.2.0. DFSP2 envoie une demande de rejet d&apos;exécution du transfert</title>
  <defs/>
  <g>
    <text fill="#000000" font-family="sans-serif" font-size="14" font-weight="bold" lengthAdjust="spacing" textLength="534.3652" x="1237.9363" y="27.9951">2.2.0. DFSP2 envoie une demande de rejet d&apos;exécution du transfert</text>
    <rect fill="#D3D3D3" height="1908.9609" style="stroke:#181818;stroke-width:0.5;" width="265.2637" x="1" y="43.2969"/>
    <text fill="#000000" font-family="sans-serif" font-size="13" font-weight="bold" lengthAdjust="spacing" textLength="259.2637" x="4" y="55.3638">Fournisseurs de services financiers</text>
    <rect fill="#ADD8E6" height="1908.9609" style="stroke:#181818;stroke-width:0.5;" width="738.0391" x="489.7422" y="43.2969"/>
    <text fill="#000000" font-family="sans-serif" font-size="13" font-weight="bold" lengthAdjust="spacing" textLength="195.1079" x="761.2078" y="55.3638">Service adaptateur ML API</text>
    <rect fill="#FFFFE0" height="1908.9609" style="stroke:#181818;stroke-width:0.5;" width="1755.4565" x="1229.7813" y="43.2969"/>
    <text fill="#000000" font-family="sans-serif" font-size="13" font-weight="bold" lengthAdjust="spacing" textLength="110.2017" x="2052.4087" y="55.3638">Service central</text>
    <rect fill="#FFFFFF" height="539.7188" style="stroke:#181818;stroke-width:1.0;" width="10" x="556.5708" y="811.8047"/>
    <rect fill="#FFFFFF" height="1682.6406" style="stroke:#181818;stroke-width:1.0;" width="10" x="1041.0649" y="165.0234"/>
    <rect fill="#FFFFFF" height="71.2656" style="stroke:#181818;stroke-width:1.0;" width="10" x="1444.1689" y="1251.125"/>
    <rect fill="#FFFFFF" height="1682.6406" style="stroke:#181818;stroke-width:1.0;" width="10" x="1966.6729" y="165.0234"/>
    <rect fill="#FFFFFF" height="1682.6406" style="stroke:#181818;stroke-width:1.0;" width="10" x="2638.9878" y="165.0234"/>
    <rect fill="none" height="1667.6406" style="stroke:#000000;stroke-width:1.5;" width="2964.354" x="36.8838" y="172.0234"/>
    <rect fill="none" height="129.3359" style="stroke:#000000;stroke-width:1.5;" width="2944.354" x="46.8838" y="1678.3281"/>
    <line style="stroke:#181818;stroke-width:0.5;stroke-dasharray:5.0,5.0;" x1="83.8838" x2="83.8838" y1="155.0234" y2="1856.6641"/>
    <line style="stroke:#181818;stroke-width:0.5;stroke-dasharray:5.0,5.0;" x1="165.4326" x2="165.4326" y1="155.0234" y2="1856.6641"/>
    <line style="stroke:#181818;stroke-width:0.5;stroke-dasharray:5.0,5.0;" x1="560.7422" x2="560.7422" y1="155.0234" y2="1856.6641"/>
    <line style="stroke:#181818;stroke-width:0.5;stroke-dasharray:5.0,5.0;" x1="1045.3486" x2="1045.3486" y1="155.0234" y2="1856.6641"/>
    <line style="stroke:#181818;stroke-width:0.5;stroke-dasharray:5.0,5.0;" x1="1312.7813" x2="1312.7813" y1="155.0234" y2="1856.6641"/>
    <line style="stroke:#181818;stroke-width:0.5;stroke-dasharray:5.0,5.0;" x1="1449.0859" x2="1449.0859" y1="155.0234" y2="1856.6641"/>
    <line style="stroke:#181818;stroke-width:0.5;stroke-dasharray:5.0,5.0;" x1="1970.9429" x2="1970.9429" y1="155.0234" y2="1856.6641"/>
    <line style="stroke:#181818;stroke-width:0.5;stroke-dasharray:5.0,5.0;" x1="2210.4028" x2="2210.4028" y1="155.0234" y2="1856.6641"/>
    <line style="stroke:#181818;stroke-width:0.5;stroke-dasharray:5.0,5.0;" x1="2399.7769" x2="2399.7769" y1="155.0234" y2="1856.6641"/>
    <line style="stroke:#181818;stroke-width:0.5;stroke-dasharray:5.0,5.0;" x1="2643.3735" x2="2643.3735" y1="155.0234" y2="1856.6641"/>
    <line style="stroke:#181818;stroke-width:0.5;stroke-dasharray:5.0,5.0;" x1="2887.6021" x2="2887.6021" y1="155.0234" y2="1856.6641"/>
    <text fill="#000000" font-family="sans-serif" font-size="14" lengthAdjust="spacing" textLength="45.0693" x="58.6235" y="135.4248">DFSP1</text>
    <text fill="#000000" font-family="sans-serif" font-size="14" lengthAdjust="spacing" textLength="48.5488" x="56.8838" y="151.7217">Payeur</text>
    <ellipse cx="84.1582" cy="70.9297" fill="#E2E2F0" rx="8" ry="8" style="stroke:#181818;stroke-width:0.5;"/>
    <path d="M84.1582,78.9297 L84.1582,105.9297 M71.1582,86.9297 L97.1582,86.9297 M84.1582,105.9297 L71.1582,120.9297 M84.1582,105.9297 L97.1582,120.9297 " fill="none" style="stroke:#181818;stroke-width:0.5;"/>
    <text fill="#000000" font-family="sans-serif" font-size="14" lengthAdjust="spacing" textLength="45.0693" x="58.6235" y="1868.6592">DFSP1</text>
    <text fill="#000000" font-family="sans-serif" font-size="14" lengthAdjust="spacing" textLength="48.5488" x="56.8838" y="1884.9561">Payeur</text>
    <ellipse cx="84.1582" cy="1896.7578" fill="#E2E2F0" rx="8" ry="8" style="stroke:#181818;stroke-width:0.5;"/>
    <path d="M84.1582,1904.7578 L84.1582,1931.7578 M71.1582,1912.7578 L97.1582,1912.7578 M84.1582,1931.7578 L71.1582,1946.7578 M84.1582,1931.7578 L97.1582,1946.7578 " fill="none" style="stroke:#181818;stroke-width:0.5;"/>
    <text fill="#000000" font-family="sans-serif" font-size="14" lengthAdjust="spacing" textLength="45.0693" x="140.3716" y="135.4248">DFSP2</text>
    <text fill="#000000" font-family="sans-serif" font-size="14" lengthAdjust="spacing" textLength="82.9473" x="121.4326" y="151.7217">Bénéficiaire</text>
    <ellipse cx="165.9063" cy="70.9297" fill="#E2E2F0" rx="8" ry="8" style="stroke:#181818;stroke-width:0.5;"/>
    <path d="M165.9063,78.9297 L165.9063,105.9297 M152.9063,86.9297 L178.9063,86.9297 M165.9063,105.9297 L152.9063,120.9297 M165.9063,105.9297 L178.9063,120.9297 " fill="none" style="stroke:#181818;stroke-width:0.5;"/>
    <text fill="#000000" font-family="sans-serif" font-size="14" lengthAdjust="spacing" textLength="45.0693" x="140.3716" y="1868.6592">DFSP2</text>
    <text fill="#000000" font-family="sans-serif" font-size="14" lengthAdjust="spacing" textLength="82.9473" x="121.4326" y="1884.9561">Bénéficiaire</text>
    <ellipse cx="165.9063" cy="1896.7578" fill="#E2E2F0" rx="8" ry="8" style="stroke:#181818;stroke-width:0.5;"/>
    <path d="M165.9063,1904.7578 L165.9063,1931.7578 M152.9063,1912.7578 L178.9063,1912.7578 M165.9063,1931.7578 L152.9063,1946.7578 M165.9063,1931.7578 L178.9063,1946.7578 " fill="none" style="stroke:#181818;stroke-width:0.5;"/>
    <text fill="#000000" font-family="sans-serif" font-size="14" lengthAdjust="spacing" textLength="129.6572" x="493.7422" y="151.7217">Adaptateur ML API</text>
    <path d="M541.0708,110.7266 L541.0708,134.7266 M541.0708,122.7266 L558.0708,122.7266 " fill="none" style="stroke:#181818;stroke-width:0.5;"/>
    <ellipse cx="570.0708" cy="122.7266" fill="#E2E2F0" rx="12" ry="12" style="stroke:#181818;stroke-width:0.5;"/>
    <text fill="#000000" font-family="sans-serif" font-size="14" lengthAdjust="spacing" textLength="129.6572" x="493.7422" y="1868.6592">Adaptateur ML API</text>
    <path d="M541.0708,1875.9609 L541.0708,1899.9609 M541.0708,1887.9609 L558.0708,1887.9609 " fill="none" style="stroke:#181818;stroke-width:0.5;"/>
    <ellipse cx="570.0708" cy="1887.9609" fill="#E2E2F0" rx="12" ry="12" style="stroke:#181818;stroke-width:0.5;"/>
    <text fill="#000000" font-family="sans-serif" font-size="14" lengthAdjust="spacing" textLength="349.4326" x="868.3486" y="151.7217">Gestionnaire d&apos;événements de notification ML API</text>
    <ellipse cx="1046.0649" cy="122.7266" fill="#E2E2F0" rx="12" ry="12" style="stroke:#181818;stroke-width:0.5;"/>
    <polygon fill="#181818" points="1042.0649,110.7266,1048.0649,105.7266,1046.0649,110.7266,1048.0649,115.7266,1042.0649,110.7266" style="stroke:#181818;stroke-width:1.0;"/>
    <text fill="#000000" font-family="sans-serif" font-size="14" lengthAdjust="spacing" textLength="349.4326" x="868.3486" y="1868.6592">Gestionnaire d&apos;événements de notification ML API</text>
    <ellipse cx="1046.0649" cy="1887.9609" fill="#E2E2F0" rx="12" ry="12" style="stroke:#181818;stroke-width:0.5;"/>
    <polygon fill="#181818" points="1042.0649,1875.9609,1048.0649,1870.9609,1046.0649,1875.9609,1048.0649,1880.9609,1042.0649,1875.9609" style="stroke:#181818;stroke-width:1.0;"/>
    <text fill="#000000" font-family="sans-serif" font-size="14" lengthAdjust="spacing" textLength="152.3047" x="1233.7813" y="151.7217">API du service central</text>
    <path d="M1292.4336,110.7266 L1292.4336,134.7266 M1292.4336,122.7266 L1309.4336,122.7266 " fill="none" style="stroke:#181818;stroke-width:0.5;"/>
    <ellipse cx="1321.4336" cy="122.7266" fill="#E2E2F0" rx="12" ry="12" style="stroke:#181818;stroke-width:0.5;"/>
    <text fill="#000000" font-family="sans-serif" font-size="14" lengthAdjust="spacing" textLength="152.3047" x="1233.7813" y="1868.6592">API du service central</text>
    <path d="M1292.4336,1875.9609 L1292.4336,1899.9609 M1292.4336,1887.9609 L1309.4336,1887.9609 " fill="none" style="stroke:#181818;stroke-width:0.5;"/>
    <ellipse cx="1321.4336" cy="1887.9609" fill="#E2E2F0" rx="12" ry="12" style="stroke:#181818;stroke-width:0.5;"/>
    <rect fill="#E2E2F0" height="30.2969" style="stroke:#181818;stroke-width:0.5;" width="90.166" x="1406.0859" y="119.7266"/>
    <rect fill="#E2E2F0" height="30.2969" style="stroke:#181818;stroke-width:0.5;" width="90.166" x="1402.0859" y="123.7266"/>
    <text fill="#000000" font-family="sans-serif" font-size="14" lengthAdjust="spacing" textLength="76.166" x="1409.0859" y="143.7217">Fulfil-Topic</text>
    <rect fill="#E2E2F0" height="30.2969" style="stroke:#181818;stroke-width:0.5;" width="90.166" x="1406.0859" y="1855.6641"/>
    <rect fill="#E2E2F0" height="30.2969" style="stroke:#181818;stroke-width:0.5;" width="90.166" x="1402.0859" y="1859.6641"/>
    <text fill="#000000" font-family="sans-serif" font-size="14" lengthAdjust="spacing" textLength="76.166" x="1409.0859" y="1879.6592">Fulfil-Topic</text>
    <text fill="#000000" font-family="sans-serif" font-size="14" lengthAdjust="spacing" textLength="279.46" x="1828.9429" y="151.7217">Gestionnaire d&apos;événements d&apos;exécution</text>
    <ellipse cx="1971.6729" cy="122.7266" fill="#E2E2F0" rx="12" ry="12" style="stroke:#181818;stroke-width:0.5;"/>
    <polygon fill="#181818" points="1967.6729,110.7266,1973.6729,105.7266,1971.6729,110.7266,1973.6729,115.7266,1967.6729,110.7266" style="stroke:#181818;stroke-width:1.0;"/>
    <text fill="#000000" font-family="sans-serif" font-size="14" lengthAdjust="spacing" textLength="279.46" x="1828.9429" y="1868.6592">Gestionnaire d&apos;événements d&apos;exécution</text>
    <ellipse cx="1971.6729" cy="1887.9609" fill="#E2E2F0" rx="12" ry="12" style="stroke:#181818;stroke-width:0.5;"/>
    <polygon fill="#181818" points="1967.6729,1875.9609,1973.6729,1870.9609,1971.6729,1875.9609,1973.6729,1880.9609,1967.6729,1875.9609" style="stroke:#181818;stroke-width:1.0;"/>
    <rect fill="#E2E2F0" height="30.2969" style="stroke:#181818;stroke-width:0.5;" width="169.374" x="2128.4028" y="119.7266"/>
    <rect fill="#E2E2F0" height="30.2969" style="stroke:#181818;stroke-width:0.5;" width="169.374" x="2124.4028" y="123.7266"/>
    <text fill="#000000" font-family="sans-serif" font-size="14" lengthAdjust="spacing" textLength="155.374" x="2131.4028" y="143.7217">topic-transfer-position</text>
    <rect fill="#E2E2F0" height="30.2969" style="stroke:#181818;stroke-width:0.5;" width="169.374" x="2128.4028" y="1855.6641"/>
    <rect fill="#E2E2F0" height="30.2969" style="stroke:#181818;stroke-width:0.5;" width="169.374" x="2124.4028" y="1859.6641"/>
    <text fill="#000000" font-family="sans-serif" font-size="14" lengthAdjust="spacing" textLength="155.374" x="2131.4028" y="1879.6592">topic-transfer-position</text>
    <rect fill="#E2E2F0" height="30.2969" style="stroke:#181818;stroke-width:0.5;" width="181.5967" x="2311.7769" y="119.7266"/>
    <rect fill="#E2E2F0" height="30.2969" style="stroke:#181818;stroke-width:0.5;" width="181.5967" x="2307.7769" y="123.7266"/>
    <text fill="#000000" font-family="sans-serif" font-size="14" lengthAdjust="spacing" textLength="167.5967" x="2314.7769" y="143.7217">Rubrique d&apos;événements</text>
    <rect fill="#E2E2F0" height="30.2969" style="stroke:#181818;stroke-width:0.5;" width="181.5967" x="2311.7769" y="1855.6641"/>
    <rect fill="#E2E2F0" height="30.2969" style="stroke:#181818;stroke-width:0.5;" width="181.5967" x="2307.7769" y="1859.6641"/>
    <text fill="#000000" font-family="sans-serif" font-size="14" lengthAdjust="spacing" textLength="167.5967" x="2314.7769" y="1879.6592">Rubrique d&apos;événements</text>
    <text fill="#000000" font-family="sans-serif" font-size="14" lengthAdjust="spacing" textLength="275.2285" x="2503.3735" y="151.7217">Gestionnaire d&apos;événements de position</text>
    <ellipse cx="2643.9878" cy="122.7266" fill="#E2E2F0" rx="12" ry="12" style="stroke:#181818;stroke-width:0.5;"/>
    <polygon fill="#181818" points="2639.9878,110.7266,2645.9878,105.7266,2643.9878,110.7266,2645.9878,115.7266,2639.9878,110.7266" style="stroke:#181818;stroke-width:1.0;"/>
    <text fill="#000000" font-family="sans-serif" font-size="14" lengthAdjust="spacing" textLength="275.2285" x="2503.3735" y="1868.6592">Gestionnaire d&apos;événements de position</text>
    <ellipse cx="2643.9878" cy="1887.9609" fill="#E2E2F0" rx="12" ry="12" style="stroke:#181818;stroke-width:0.5;"/>
    <polygon fill="#181818" points="2639.9878,1875.9609,2645.9878,1870.9609,2643.9878,1875.9609,2645.9878,1880.9609,2639.9878,1875.9609" style="stroke:#181818;stroke-width:1.0;"/>
    <rect fill="#E2E2F0" height="30.2969" style="stroke:#181818;stroke-width:0.5;" width="182.6357" x="2798.6021" y="119.7266"/>
    <rect fill="#E2E2F0" height="30.2969" style="stroke:#181818;stroke-width:0.5;" width="182.6357" x="2794.6021" y="123.7266"/>
    <text fill="#000000" font-family="sans-serif" font-size="14" lengthAdjust="spacing" textLength="168.6357" x="2801.6021" y="143.7217">Rubrique de notification</text>
    <rect fill="#E2E2F0" height="30.2969" style="stroke:#181818;stroke-width:0.5;" width="182.6357" x="2798.6021" y="1855.6641"/>
    <rect fill="#E2E2F0" height="30.2969" style="stroke:#181818;stroke-width:0.5;" width="182.6357" x="2794.6021" y="1859.6641"/>
    <text fill="#000000" font-family="sans-serif" font-size="14" lengthAdjust="spacing" textLength="168.6357" x="2801.6021" y="1879.6592">Rubrique de notification</text>
    <rect fill="#FFFFFF" height="539.7188" style="stroke:#181818;stroke-width:1.0;" width="10" x="556.5708" y="811.8047"/>
    <rect fill="#FFFFFF" height="1682.6406" style="stroke:#181818;stroke-width:1.0;" width="10" x="1041.0649" y="165.0234"/>
    <rect fill="#FFFFFF" height="71.2656" style="stroke:#181818;stroke-width:1.0;" width="10" x="1444.1689" y="1251.125"/>
    <rect fill="#FFFFFF" height="1682.6406" style="stroke:#181818;stroke-width:1.0;" width="10" x="1966.6729" y="165.0234"/>
    <rect fill="#FFFFFF" height="1682.6406" style="stroke:#181818;stroke-width:1.0;" width="10" x="2638.9878" y="165.0234"/>
    <path d="M36.8838,172.0234 L531.6025,172.0234 L531.6025,179.1563 L521.6025,189.1563 L36.8838,189.1563 L36.8838,172.0234 " fill="#EEEEEE" style="stroke:#000000;stroke-width:1.5;"/>
    <rect fill="none" height="1667.6406" style="stroke:#000000;stroke-width:1.5;" width="2964.354" x="36.8838" y="172.0234"/>
    <text fill="#000000" font-family="sans-serif" font-size="13" font-weight="bold" lengthAdjust="spacing" textLength="449.7188" x="51.8838" y="185.0903">DFSP2 envoie une demande de rejet d&apos;exécution du transfert</text>
    <line style="stroke:#181818;stroke-width:1.0;" x1="165.9063" x2="207.9063" y1="240.5547" y2="240.5547"/>
    <line style="stroke:#181818;stroke-width:1.0;" x1="207.9063" x2="207.9063" y1="240.5547" y2="253.5547"/>
    <line style="stroke:#181818;stroke-width:1.0;" x1="166.9063" x2="207.9063" y1="253.5547" y2="253.5547"/>
    <polygon fill="#181818" points="175.9063,236.5547,165.9063,240.5547,175.9063,244.5547,171.9063,240.5547" style="stroke:#181818;stroke-width:1.0;"/>
    <polygon fill="#181818" points="176.9063,249.5547,166.9063,253.5547,176.9063,257.5547,172.9063,253.5547" style="stroke:#181818;stroke-width:1.0;"/>
    <text fill="#000000" font-family="sans-serif" font-size="13" font-weight="bold" lengthAdjust="spacing" textLength="9.0454" x="172.9063" y="220.356">1</text>
    <text fill="#000000" font-family="sans-serif" font-size="13" lengthAdjust="spacing" textLength="316.7354" x="185.9517" y="205.2231">Récupérer la chaîne d&apos;exécution générée lors du</text>
    <text fill="#000000" font-family="sans-serif" font-size="13" lengthAdjust="spacing" textLength="263.7197" x="185.9517" y="220.356">processus de devis ou la régénérer avec</text>
    <text fill="#000000" font-family="sans-serif" font-size="13" font-weight="bold" lengthAdjust="spacing" textLength="88.3784" x="185.9517" y="235.4888">Local secret</text>
    <text fill="#000000" font-family="sans-serif" font-size="13" lengthAdjust="spacing" textLength="13.0952" x="278.4624" y="235.4888">et</text>
    <text fill="#000000" font-family="sans-serif" font-size="13" font-weight="bold" lengthAdjust="spacing" textLength="76.8574" x="295.6899" y="235.4888">ILP Packet</text>
    <text fill="#000000" font-family="sans-serif" font-size="13" lengthAdjust="spacing" textLength="102.0068" x="376.6797" y="235.4888">comme entrées</text>
    <path d="M170,266.5547 L170,306.5547 L598,306.5547 L598,276.5547 L588,266.5547 L170,266.5547 " fill="#ADD8E6" style="stroke:#181818;stroke-width:0.5;"/>
    <path d="M588,266.5547 L588,276.5547 L598,276.5547 L588,266.5547 " fill="#ADD8E6" style="stroke:#181818;stroke-width:0.5;"/>
    <text fill="#000000" font-family="sans-serif" font-size="13" font-weight="bold" lengthAdjust="spacing" textLength="74.9341" x="176" y="283.6216">Remarque</text>
    <text fill="#000000" font-family="sans-serif" font-size="13" lengthAdjust="spacing" textLength="328.1929" x="255.0664" y="283.6216">: Dans le corps de la requête PUT /transfers/&lt;ID&gt;,</text>
    <text fill="#000000" font-family="sans-serif" font-size="13" lengthAdjust="spacing" textLength="90.7651" x="176" y="298.7544">seul le champ</text>
    <text fill="#000000" font-family="sans-serif" font-size="13" font-weight="bold" lengthAdjust="spacing" textLength="98.6553" x="270.8975" y="298.7544">transferState</text>
    <text fill="#000000" font-family="sans-serif" font-size="13" lengthAdjust="spacing" textLength="19.8682" x="373.6851" y="298.7544">est</text>
    <text fill="#000000" font-family="sans-serif" font-size="13" font-weight="bold" lengthAdjust="spacing" textLength="80.0566" x="397.6855" y="298.7544">obligatoire</text>
    <path d="M170,316.8203 L170,734.8203 L512,734.8203 L512,326.8203 L502,316.8203 L170,316.8203 " fill="#FFFF00" style="stroke:#181818;stroke-width:0.5;"/>
    <path d="M502,316.8203 L502,326.8203 L512,326.8203 L502,316.8203 " fill="#FFFF00" style="stroke:#181818;stroke-width:0.5;"/>
    <text fill="#000000" font-family="sans-serif" font-size="13" lengthAdjust="spacing" textLength="189.2935" x="176" y="333.8872">Headers - transferHeaders: {</text>
    <text fill="#000000" font-family="sans-serif" font-size="13" lengthAdjust="spacing" textLength="237.3516" x="192.5293" y="349.02">Content-Length: &lt;Content-Length&gt;,</text>
    <text fill="#000000" font-family="sans-serif" font-size="13" lengthAdjust="spacing" textLength="210.9834" x="192.5293" y="364.1528">Content-Type: &lt;Content-Type&gt;,</text>
    <text fill="#000000" font-family="sans-serif" font-size="13" lengthAdjust="spacing" textLength="96.5732" x="192.5293" y="379.2856">Date: &lt;Date&gt;,</text>
    <text fill="#000000" font-family="sans-serif" font-size="13" lengthAdjust="spacing" textLength="250.999" x="192.5293" y="394.4185">X-Forwarded-For: &lt;X-Forwarded-For&gt;,</text>
    <text fill="#000000" font-family="sans-serif" font-size="13" lengthAdjust="spacing" textLength="224.6309" x="192.5293" y="409.5513">FSPIOP-Source: &lt;FSPIOP-Source&gt;,</text>
    <text fill="#000000" font-family="sans-serif" font-size="13" lengthAdjust="spacing" textLength="283.9561" x="192.5293" y="424.6841">FSPIOP-Destination: &lt;FSPIOP-Destination&gt;,</text>
    <text fill="#000000" font-family="sans-serif" font-size="13" lengthAdjust="spacing" textLength="274.3457" x="192.5293" y="439.8169">FSPIOP-Encryption: &lt;FSPIOP-Encryption&gt;,</text>
    <text fill="#000000" font-family="sans-serif" font-size="13" lengthAdjust="spacing" textLength="260.7617" x="192.5293" y="454.9497">FSPIOP-Signature: &lt;FSPIOP-Signature&gt;,</text>
    <text fill="#000000" font-family="sans-serif" font-size="13" lengthAdjust="spacing" textLength="179.5244" x="192.5293" y="470.0825">FSPIOP-URI: &lt;FSPIOP-URI&gt;,</text>
    <text fill="#000000" font-family="sans-serif" font-size="13" lengthAdjust="spacing" textLength="304.5161" x="192.5293" y="485.2153">FSPIOP-HTTP-Method: &lt;FSPIOP-HTTP-Method&gt;</text>
    <text fill="#000000" font-family="sans-serif" font-size="13" lengthAdjust="spacing" textLength="8.271" x="176" y="500.3481">}</text>
    <text fill="#000000" font-family="sans-serif" font-size="13" lengthAdjust="spacing" textLength="4.1323" x="176" y="515.481"> </text>
    <text fill="#000000" font-family="sans-serif" font-size="13" lengthAdjust="spacing" textLength="181.0669" x="176" y="530.6138">Payload - transferMessage :</text>
    <text fill="#000000" font-family="sans-serif" font-size="13" lengthAdjust="spacing" textLength="8.271" x="176" y="545.7466">{</text>
    <text fill="#000000" font-family="sans-serif" font-size="13" lengthAdjust="spacing" textLength="189.4395" x="192.5293" y="560.8794">&quot;fulfilment&quot;: &lt;IlpFulfilment&gt;,</text>
    <text fill="#000000" font-family="sans-serif" font-size="13" lengthAdjust="spacing" textLength="251.6147" x="192.5293" y="576.0122">&quot;completedTimestamp&quot;: &lt;DateTime&gt;,</text>
    <text fill="#000000" font-family="sans-serif" font-size="13" lengthAdjust="spacing" textLength="185.5547" x="192.5293" y="591.145">&quot;transferState&quot;: &quot;ABORTED&quot;,</text>
    <text fill="#000000" font-family="sans-serif" font-size="13" lengthAdjust="spacing" textLength="115.0703" x="192.5293" y="606.2778">&quot;extensionList&quot;: {</text>
    <text fill="#000000" font-family="sans-serif" font-size="13" lengthAdjust="spacing" textLength="89.1465" x="209.0586" y="621.4106">&quot;extension&quot;: [</text>
    <text fill="#000000" font-family="sans-serif" font-size="13" lengthAdjust="spacing" textLength="8.271" x="225.5879" y="636.5435">{</text>
    <text fill="#000000" font-family="sans-serif" font-size="13" lengthAdjust="spacing" textLength="106.9263" x="242.1172" y="651.6763">&quot;key&quot;: &lt;string&gt;,</text>
    <text fill="#000000" font-family="sans-serif" font-size="13" lengthAdjust="spacing" textLength="115.083" x="242.1172" y="666.8091">&quot;value&quot;: &lt;string&gt;</text>
    <text fill="#000000" font-family="sans-serif" font-size="13" lengthAdjust="spacing" textLength="8.271" x="225.5879" y="681.9419">}</text>
    <text fill="#000000" font-family="sans-serif" font-size="13" lengthAdjust="spacing" textLength="5.0718" x="209.0586" y="697.0747">]</text>
    <text fill="#000000" font-family="sans-serif" font-size="13" lengthAdjust="spacing" textLength="8.271" x="192.5293" y="712.2075">}</text>
    <text fill="#000000" font-family="sans-serif" font-size="13" lengthAdjust="spacing" textLength="8.271" x="176" y="727.3403">}</text>
    <path d="M170,745.4063 L170,785.4063 L580,785.4063 L580,755.4063 L570,745.4063 L170,745.4063 " fill="#D3D3D3" style="stroke:#181818;stroke-width:0.5;"/>
    <path d="M570,745.4063 L570,755.4063 L580,755.4063 L570,745.4063 " fill="#D3D3D3" style="stroke:#181818;stroke-width:0.5;"/>
    <text fill="#000000" font-family="sans-serif" font-size="13" font-weight="bold" lengthAdjust="spacing" textLength="74.9341" x="176" y="762.4731">Remarque</text>
    <text fill="#000000" font-family="sans-serif" font-size="13" lengthAdjust="spacing" textLength="309.9497" x="255.0664" y="762.4731">: Le motif de rejet du bénéficiaire doit être saisi</text>
    <text fill="#000000" font-family="sans-serif" font-size="13" lengthAdjust="spacing" textLength="284.3877" x="176" y="777.606">dans l&apos;extensionList du corps de la requête.</text>
    <line style="stroke:#181818;stroke-width:1.0;" x1="554.5708" x2="544.5708" y1="811.8047" y2="807.8047"/>
    <line style="stroke:#181818;stroke-width:1.0;" x1="554.5708" x2="544.5708" y1="811.8047" y2="815.8047"/>
    <line style="stroke:#181818;stroke-width:1.0;" x1="165.9063" x2="555.5708" y1="811.8047" y2="811.8047"/>
    <text fill="#000000" font-family="sans-serif" font-size="13" font-weight="bold" lengthAdjust="spacing" textLength="9.0454" x="172.9063" y="806.7388">2</text>
    <text fill="#000000" font-family="sans-serif" font-size="13" font-weight="bold" lengthAdjust="spacing" textLength="157.3203" x="185.9517" y="806.7388">PUT - /transfers/&lt;ID&gt;</text>
    <line style="stroke:#181818;stroke-width:1.0;" x1="566.5708" x2="608.5708" y1="840.9375" y2="840.9375"/>
    <line style="stroke:#181818;stroke-width:1.0;" x1="608.5708" x2="608.5708" y1="840.9375" y2="853.9375"/>
    <line style="stroke:#181818;stroke-width:1.0;" x1="567.5708" x2="608.5708" y1="853.9375" y2="853.9375"/>
    <polygon fill="#181818" points="577.5708,849.9375,567.5708,853.9375,577.5708,857.9375,573.5708,853.9375" style="stroke:#181818;stroke-width:1.0;"/>
    <text fill="#000000" font-family="sans-serif" font-size="13" font-weight="bold" lengthAdjust="spacing" textLength="9.0454" x="573.5708" y="835.8716">3</text>
    <text fill="#000000" font-family="sans-serif" font-size="13" lengthAdjust="spacing" textLength="437.4487" x="586.6162" y="835.8716">Valider le jeton entrant et l&apos;initiateur correspondant au bénéficiaire</text>
    <path d="M571,866.9375 L571,1224.9375 L890,1224.9375 L890,876.9375 L880,866.9375 L571,866.9375 " fill="#FFFF00" style="stroke:#181818;stroke-width:0.5;"/>
    <path d="M880,866.9375 L880,876.9375 L890,876.9375 L880,866.9375 " fill="#FFFF00" style="stroke:#181818;stroke-width:0.5;"/>
    <text fill="#000000" font-family="sans-serif" font-size="13" lengthAdjust="spacing" textLength="65.4888" x="577" y="884.0044">Message :</text>
    <text fill="#000000" font-family="sans-serif" font-size="13" lengthAdjust="spacing" textLength="8.271" x="577" y="899.1372">{</text>
    <text fill="#000000" font-family="sans-serif" font-size="13" lengthAdjust="spacing" textLength="60.1377" x="593.5293" y="914.27">id: &lt;ID&gt;,</text>
    <text fill="#000000" font-family="sans-serif" font-size="13" lengthAdjust="spacing" textLength="269.6484" x="593.5293" y="929.4028">from: &lt;transferHeaders.FSPIOP-Source&gt;,</text>
    <text fill="#000000" font-family="sans-serif" font-size="13" lengthAdjust="spacing" textLength="281.8232" x="593.5293" y="944.5356">to: &lt;transferHeaders.FSPIOP-Destination&gt;,</text>
    <text fill="#000000" font-family="sans-serif" font-size="13" lengthAdjust="spacing" textLength="144.3521" x="593.5293" y="959.6685">type: application/json,</text>
    <text fill="#000000" font-family="sans-serif" font-size="13" lengthAdjust="spacing" textLength="66.5552" x="593.5293" y="974.8013">content: {</text>
    <text fill="#000000" font-family="sans-serif" font-size="13" lengthAdjust="spacing" textLength="192.4482" x="610.0586" y="989.9341">headers: &lt;transferHeaders&gt;,</text>
    <text fill="#000000" font-family="sans-serif" font-size="13" lengthAdjust="spacing" textLength="190.3091" x="610.0586" y="1005.0669">payload: &lt;transferMessage&gt;</text>
    <text fill="#000000" font-family="sans-serif" font-size="13" lengthAdjust="spacing" textLength="12.4033" x="593.5293" y="1020.1997">},</text>
    <text fill="#000000" font-family="sans-serif" font-size="13" lengthAdjust="spacing" textLength="79.79" x="593.5293" y="1035.3325">metadata: {</text>
    <text fill="#000000" font-family="sans-serif" font-size="13" lengthAdjust="spacing" textLength="53.8091" x="610.0586" y="1050.4653">event: {</text>
    <text fill="#000000" font-family="sans-serif" font-size="13" lengthAdjust="spacing" textLength="74.6357" x="626.5879" y="1065.5981">id: &lt;uuid&gt;,</text>
    <text fill="#000000" font-family="sans-serif" font-size="13" lengthAdjust="spacing" textLength="69.9131" x="626.5879" y="1080.731">type: fulfil,</text>
    <text fill="#000000" font-family="sans-serif" font-size="13" lengthAdjust="spacing" textLength="89.8574" x="626.5879" y="1095.8638">action: reject,</text>
    <text fill="#000000" font-family="sans-serif" font-size="13" lengthAdjust="spacing" textLength="168.3462" x="626.5879" y="1110.9966">createdAt: &lt;timestamp&gt;,</text>
    <text fill="#000000" font-family="sans-serif" font-size="13" lengthAdjust="spacing" textLength="49.7148" x="626.5879" y="1126.1294">state: {</text>
    <text fill="#000000" font-family="sans-serif" font-size="13" lengthAdjust="spacing" textLength="115.4004" x="643.1172" y="1141.2622">status: &quot;success&quot;,</text>
    <text fill="#000000" font-family="sans-serif" font-size="13" lengthAdjust="spacing" textLength="48.1343" x="643.1172" y="1156.395">code: 0</text>
    <text fill="#000000" font-family="sans-serif" font-size="13" lengthAdjust="spacing" textLength="8.271" x="626.5879" y="1171.5278">}</text>
    <text fill="#000000" font-family="sans-serif" font-size="13" lengthAdjust="spacing" textLength="8.271" x="610.0586" y="1186.6606">}</text>
    <text fill="#000000" font-family="sans-serif" font-size="13" lengthAdjust="spacing" textLength="8.271" x="593.5293" y="1201.7935">}</text>
    <text fill="#000000" font-family="sans-serif" font-size="13" lengthAdjust="spacing" textLength="8.271" x="577" y="1216.9263">}</text>
    <polygon fill="#181818" points="1432.1689,1247.125,1442.1689,1251.125,1432.1689,1255.125,1436.1689,1251.125" style="stroke:#181818;stroke-width:1.0;"/>
    <line style="stroke:#181818;stroke-width:1.0;" x1="566.5708" x2="1438.1689" y1="1251.125" y2="1251.125"/>
    <text fill="#000000" font-family="sans-serif" font-size="13" font-weight="bold" lengthAdjust="spacing" textLength="9.0454" x="573.5708" y="1246.0591">4</text>
    <text fill="#000000" font-family="sans-serif" font-size="13" lengthAdjust="spacing" textLength="432.1357" x="586.6162" y="1246.0591">Acheminer et publier l&apos;événement d&apos;exécution pour le bénéficiaire</text>
    <line style="stroke:#181818;stroke-width:1.0;" x1="1454.1689" x2="1496.1689" y1="1280.2578" y2="1280.2578"/>
    <line style="stroke:#181818;stroke-width:1.0;" x1="1496.1689" x2="1496.1689" y1="1280.2578" y2="1293.2578"/>
    <line style="stroke:#181818;stroke-width:1.0;" x1="1455.1689" x2="1496.1689" y1="1293.2578" y2="1293.2578"/>
    <polygon fill="#181818" points="1464.1689,1276.2578,1454.1689,1280.2578,1464.1689,1284.2578,1460.1689,1280.2578" style="stroke:#181818;stroke-width:1.0;"/>
    <polygon fill="#181818" points="1465.1689,1289.2578,1455.1689,1293.2578,1465.1689,1297.2578,1461.1689,1293.2578" style="stroke:#181818;stroke-width:1.0;"/>
    <text fill="#000000" font-family="sans-serif" font-size="13" font-weight="bold" lengthAdjust="spacing" textLength="9.0454" x="1461.1689" y="1275.1919">5</text>
    <text fill="#000000" font-family="sans-serif" font-size="13" lengthAdjust="spacing" textLength="475.4585" x="1474.2144" y="1275.1919">S&apos;assurer que l&apos;événement est répliqué selon la configuration (ACKS=all)</text>
    <polygon fill="#181818" points="577.5708,1318.3906,567.5708,1322.3906,577.5708,1326.3906,573.5708,1322.3906" style="stroke:#181818;stroke-width:1.0;"/>
    <line style="stroke:#181818;stroke-width:1.0;stroke-dasharray:2.0,2.0;" x1="571.5708" x2="1448.1689" y1="1322.3906" y2="1322.3906"/>
    <text fill="#000000" font-family="sans-serif" font-size="13" font-weight="bold" lengthAdjust="spacing" textLength="9.0454" x="583.5708" y="1317.3247">6</text>
    <text fill="#000000" font-family="sans-serif" font-size="13" lengthAdjust="spacing" textLength="440.1719" x="596.6162" y="1317.3247">Répondre que les accusés de réception de réplication ont été reçus</text>
    <line style="stroke:#181818;stroke-width:1.0;" x1="166.9063" x2="176.9063" y1="1351.5234" y2="1347.5234"/>
    <line style="stroke:#181818;stroke-width:1.0;" x1="166.9063" x2="176.9063" y1="1351.5234" y2="1355.5234"/>
    <line style="stroke:#181818;stroke-width:1.0;stroke-dasharray:2.0,2.0;" x1="165.9063" x2="560.5708" y1="1351.5234" y2="1351.5234"/>
    <text fill="#000000" font-family="sans-serif" font-size="13" font-weight="bold" lengthAdjust="spacing" textLength="9.0454" x="182.9063" y="1346.4575">7</text>
    <text fill="#000000" font-family="sans-serif" font-size="13" lengthAdjust="spacing" textLength="179.8101" x="195.9517" y="1346.4575">Répondre HTTP — 200 (OK)</text>
    <polygon fill="#181818" points="1460.1689,1376.6563,1450.1689,1380.6563,1460.1689,1384.6563,1456.1689,1380.6563" style="stroke:#181818;stroke-width:1.0;"/>
    <line style="stroke:#181818;stroke-width:1.0;" x1="1454.1689" x2="1965.6729" y1="1380.6563" y2="1380.6563"/>
    <text fill="#000000" font-family="sans-serif" font-size="13" font-weight="bold" lengthAdjust="spacing" textLength="9.0454" x="1466.1689" y="1375.5903">8</text>
    <text fill="#000000" font-family="sans-serif" font-size="13" lengthAdjust="spacing" textLength="156.9648" x="1479.2144" y="1375.5903">Consommer le message</text>
    <rect fill="none" height="53.0703" style="stroke:#000000;stroke-width:1.5;" width="1097.2876" x="1399.0859" y="1388.6563"/>
    <path d="M1399.0859,1388.6563 L1464.0859,1388.6563 L1464.0859,1395.6563 L1454.0859,1405.6563 L1399.0859,1405.6563 L1399.0859,1388.6563 " fill="#EEEEEE" style="stroke:#000000;stroke-width:2.0;"/>
    <text fill="#000000" font-family="sans-serif" font-size="13" font-weight="bold" lengthAdjust="spacing" textLength="20.8838" x="1412.0859" y="1402.7231">ref</text>
    <text fill="#000000" font-family="sans-serif" font-size="12" lengthAdjust="spacing" textLength="359.1504" x="1768.1545" y="1420.7949">Consommation gestionnaire d&apos;exécution (rejet/interruption)</text>
    <text fill="#000000" font-family="sans-serif" font-size="12" lengthAdjust="spacing" textLength="3.8145" x="1945.8225" y="1434.7637"> </text>
    <polygon fill="#181818" points="2199.0898,1463.8594,2209.0898,1467.8594,2199.0898,1471.8594,2203.0898,1467.8594" style="stroke:#181818;stroke-width:1.0;"/>
    <line style="stroke:#181818;stroke-width:1.0;" x1="1976.6729" x2="2205.0898" y1="1467.8594" y2="1467.8594"/>
    <text fill="#000000" font-family="sans-serif" font-size="13" font-weight="bold" lengthAdjust="spacing" textLength="9.0454" x="1983.6729" y="1462.7935">9</text>
    <text fill="#000000" font-family="sans-serif" font-size="13" lengthAdjust="spacing" textLength="132.8818" x="1996.7183" y="1462.7935">Produire le message</text>
    <polygon fill="#181818" points="2222.0898,1517.9922,2212.0898,1521.9922,2222.0898,1525.9922,2218.0898,1521.9922" style="stroke:#181818;stroke-width:1.0;"/>
    <line style="stroke:#181818;stroke-width:1.0;" x1="2216.0898" x2="2637.9878" y1="1521.9922" y2="1521.9922"/>
    <text fill="#000000" font-family="sans-serif" font-size="13" font-weight="bold" lengthAdjust="spacing" textLength="18.0908" x="2228.0898" y="1516.9263">10</text>
    <text fill="#000000" font-family="sans-serif" font-size="13" lengthAdjust="spacing" textLength="156.9648" x="2250.1807" y="1516.9263">Consommer le message</text>
    <rect fill="none" height="53.0703" style="stroke:#000000;stroke-width:1.5;" width="862.835" x="2121.4028" y="1529.9922"/>
    <path d="M2121.4028,1529.9922 L2186.4028,1529.9922 L2186.4028,1536.9922 L2176.4028,1546.9922 L2121.4028,1546.9922 L2121.4028,1529.9922 " fill="#EEEEEE" style="stroke:#000000;stroke-width:2.0;"/>
    <text fill="#000000" font-family="sans-serif" font-size="13" font-weight="bold" lengthAdjust="spacing" textLength="20.8838" x="2134.4028" y="1544.0591">ref</text>
    <text fill="#000000" font-family="sans-serif" font-size="12" lengthAdjust="spacing" textLength="280.377" x="2412.6318" y="1562.1309">Consommation gestionnaire de position (rejet)</text>
    <text fill="#000000" font-family="sans-serif" font-size="12" lengthAdjust="spacing" textLength="3.8145" x="2550.9131" y="1576.0996"> </text>
    <polygon fill="#181818" points="2875.9199,1605.1953,2885.9199,1609.1953,2875.9199,1613.1953,2879.9199,1609.1953" style="stroke:#181818;stroke-width:1.0;"/>
    <line style="stroke:#181818;stroke-width:1.0;" x1="2648.9878" x2="2881.9199" y1="1609.1953" y2="1609.1953"/>
    <text fill="#000000" font-family="sans-serif" font-size="13" font-weight="bold" lengthAdjust="spacing" textLength="18.0908" x="2655.9878" y="1604.1294">11</text>
    <text fill="#000000" font-family="sans-serif" font-size="13" lengthAdjust="spacing" textLength="132.8818" x="2678.0786" y="1604.1294">Produire le message</text>
    <polygon fill="#181818" points="2875.9199,1659.3281,2885.9199,1663.3281,2875.9199,1667.3281,2879.9199,1663.3281" style="stroke:#181818;stroke-width:1.0;"/>
    <line style="stroke:#181818;stroke-width:1.0;" x1="1051.0649" x2="2881.9199" y1="1663.3281" y2="1663.3281"/>
    <text fill="#000000" font-family="sans-serif" font-size="13" font-weight="bold" lengthAdjust="spacing" textLength="18.0908" x="1058.0649" y="1658.2622">12</text>
    <text fill="#000000" font-family="sans-serif" font-size="13" lengthAdjust="spacing" textLength="156.9648" x="1080.1558" y="1658.2622">Consommer le message</text>
    <path d="M46.8838,1678.3281 L116.335,1678.3281 L116.335,1685.4609 L106.335,1695.4609 L46.8838,1695.4609 L46.8838,1678.3281 " fill="#EEEEEE" style="stroke:#000000;stroke-width:1.5;"/>
    <rect fill="none" height="129.3359" style="stroke:#000000;stroke-width:1.5;" width="2944.354" x="46.8838" y="1678.3281"/>
    <text fill="#000000" font-family="sans-serif" font-size="13" font-weight="bold" lengthAdjust="spacing" textLength="24.4512" x="61.8838" y="1691.395">opt</text>
    <text fill="#000000" font-family="sans-serif" font-size="11" font-weight="bold" lengthAdjust="spacing" textLength="117.1382" x="131.335" y="1690.5386">[action == &apos;reject&apos;]</text>
    <rect fill="none" height="53.0703" style="stroke:#000000;stroke-width:1.5;" width="2930.354" x="53.8838" y="1720.4609"/>
    <path d="M53.8838,1720.4609 L118.8838,1720.4609 L118.8838,1727.4609 L108.8838,1737.4609 L53.8838,1737.4609 L53.8838,1720.4609 " fill="#EEEEEE" style="stroke:#000000;stroke-width:2.0;"/>
    <text fill="#000000" font-family="sans-serif" font-size="13" font-weight="bold" lengthAdjust="spacing" textLength="20.8838" x="66.8838" y="1734.5278">ref</text>
    <text fill="#000000" font-family="sans-serif" font-size="12" lengthAdjust="spacing" textLength="289.6699" x="1374.2258" y="1752.5996">Envoyer une notification au participant (payeur)</text>
    <text fill="#000000" font-family="sans-serif" font-size="12" lengthAdjust="spacing" textLength="3.8145" x="1517.1536" y="1766.5684"> </text>
    <polygon fill="#181818" points="95.1582,1795.6641,85.1582,1799.6641,95.1582,1803.6641,91.1582,1799.6641" style="stroke:#181818;stroke-width:1.0;"/>
    <line style="stroke:#181818;stroke-width:1.0;" x1="89.1582" x2="1040.0649" y1="1799.6641" y2="1799.6641"/>
    <text fill="#000000" font-family="sans-serif" font-size="13" font-weight="bold" lengthAdjust="spacing" textLength="18.0908" x="101.1582" y="1794.5981">13</text>
    <text fill="#000000" font-family="sans-serif" font-size="13" lengthAdjust="spacing" textLength="279.5317" x="123.249" y="1794.5981">Envoyer la notification de rappel (callback)</text>
  </g>
</svg>
