<svg xmlns="http://www.w3.org/2000/svg" xmlns:xlink="http://www.w3.org/1999/xlink" contentStyleType="text/css" height="1523px" preserveAspectRatio="none" style="width:1650px;height:1523px;background:#FFFFFF;" version="1.1" viewBox="0 0 1650 1523" width="1650px" zoomAndPan="magnify">
  <title>1.3.2. Consommation par le gestionnaire de position (exécution)</title>
  <defs/>
  <g>
    <text fill="#000000" font-family="sans-serif" font-size="14" font-weight="bold" lengthAdjust="spacing" textLength="510.5352" x="571.313" y="27.9951">1.3.2. Consommation par le gestionnaire de position (exécution)</text>
    <rect fill="#FFFFE0" height="1467.2969" style="stroke:#181818;stroke-width:0.5;" width="1413.7959" x="26" y="43.2969"/>
    <text fill="#000000" font-family="sans-serif" font-size="13" font-weight="bold" lengthAdjust="spacing" textLength="110.2017" x="677.7971" y="55.3638">Service central</text>
    <rect fill="#FFFFFF" height="1300.5703" style="stroke:#181818;stroke-width:1.0;" width="10" x="113.5688" y="134.7266"/>
    <rect fill="#FFFFFF" height="30" style="stroke:#181818;stroke-width:1.0;" width="10" x="536.2368" y="1390.2969"/>
    <rect fill="#FFFFFF" height="135.6641" style="stroke:#181818;stroke-width:1.0;" width="10" x="679.9849" y="195.125"/>
    <rect fill="#FFFFFF" height="499.3906" style="stroke:#181818;stroke-width:1.0;" width="10" x="818.731" y="456.4531"/>
    <rect fill="#FFFFFF" height="77.3984" style="stroke:#181818;stroke-width:1.0;" width="10" x="1368.7095" y="224.2578"/>
    <rect fill="#FFFFFF" height="62.2656" style="stroke:#181818;stroke-width:1.0;" width="10" x="1368.7095" y="509.7188"/>
    <rect fill="#FFFFFF" height="30" style="stroke:#181818;stroke-width:1.0;" width="10" x="1368.7095" y="643.25"/>
    <rect fill="#FFFFFF" height="30" style="stroke:#181818;stroke-width:1.0;" width="10" x="1368.7095" y="750.6484"/>
    <rect fill="none" height="1286.5703" style="stroke:#000000;stroke-width:1.5;" width="1634.1611" x="10" y="141.7266"/>
    <rect fill="none" height="560.7891" style="stroke:#000000;stroke-width:1.5;" width="1614.1611" x="20" y="403.0547"/>
    <rect fill="none" height="456.2578" style="stroke:#000000;stroke-width:1.5;" width="879.561" x="744.6001" y="471.4531"/>
    <line style="stroke:#181818;stroke-width:0.5;stroke-dasharray:5.0,5.0;" x1="118" x2="118" y1="124.7266" y2="1445.2969"/>
    <line style="stroke:#181818;stroke-width:0.5;stroke-dasharray:5.0,5.0;" x1="541.104" x2="541.104" y1="124.7266" y2="1445.2969"/>
    <line style="stroke:#181818;stroke-width:0.5;stroke-dasharray:5.0,5.0;" x1="684.3696" x2="684.3696" y1="124.7266" y2="1445.2969"/>
    <line style="stroke:#181818;stroke-width:0.5;stroke-dasharray:5.0,5.0;" x1="823.6001" x2="823.6001" y1="124.7266" y2="1445.2969"/>
    <line style="stroke:#181818;stroke-width:0.5;stroke-dasharray:5.0,5.0;" x1="1373.623" x2="1373.623" y1="124.7266" y2="1445.2969"/>
    <text fill="#000000" font-family="sans-serif" font-size="14" lengthAdjust="spacing" textLength="171.1377" x="30" y="121.4248">Gestionnaire de position</text>
    <ellipse cx="118.5688" cy="92.4297" fill="#E2E2F0" rx="12" ry="12" style="stroke:#181818;stroke-width:0.5;"/>
    <polygon fill="#181818" points="114.5688,80.4297,120.5688,75.4297,118.5688,80.4297,120.5688,85.4297,114.5688,80.4297" style="stroke:#181818;stroke-width:1.0;"/>
    <text fill="#000000" font-family="sans-serif" font-size="14" lengthAdjust="spacing" textLength="171.1377" x="30" y="1457.292">Gestionnaire de position</text>
    <ellipse cx="118.5688" cy="1476.5938" fill="#E2E2F0" rx="12" ry="12" style="stroke:#181818;stroke-width:0.5;"/>
    <polygon fill="#181818" points="114.5688,1464.5938,120.5688,1459.5938,118.5688,1464.5938,120.5688,1469.5938,114.5688,1464.5938" style="stroke:#181818;stroke-width:1.0;"/>
    <rect fill="#E2E2F0" height="30.2969" style="stroke:#181818;stroke-width:0.5;" width="144.2656" x="471.104" y="89.4297"/>
    <rect fill="#E2E2F0" height="30.2969" style="stroke:#181818;stroke-width:0.5;" width="144.2656" x="467.104" y="93.4297"/>
    <text fill="#000000" font-family="sans-serif" font-size="14" lengthAdjust="spacing" textLength="130.2656" x="474.104" y="113.4248">Notifications-Topic</text>
    <rect fill="#E2E2F0" height="30.2969" style="stroke:#181818;stroke-width:0.5;" width="144.2656" x="471.104" y="1444.2969"/>
    <rect fill="#E2E2F0" height="30.2969" style="stroke:#181818;stroke-width:0.5;" width="144.2656" x="467.104" y="1448.2969"/>
    <text fill="#000000" font-family="sans-serif" font-size="14" lengthAdjust="spacing" textLength="130.2656" x="474.104" y="1468.292">Notifications-Topic</text>
    <text fill="#000000" font-family="sans-serif" font-size="14" lengthAdjust="spacing" textLength="113.2305" x="625.3696" y="121.4248">DAO de position</text>
    <ellipse cx="684.9849" cy="92.4297" fill="#E2E2F0" rx="12" ry="12" style="stroke:#181818;stroke-width:0.5;"/>
    <line style="stroke:#181818;stroke-width:0.5;" x1="672.9849" x2="696.9849" y1="106.4297" y2="106.4297"/>
    <text fill="#000000" font-family="sans-serif" font-size="14" lengthAdjust="spacing" textLength="113.2305" x="625.3696" y="1457.292">DAO de position</text>
    <ellipse cx="684.9849" cy="1476.5938" fill="#E2E2F0" rx="12" ry="12" style="stroke:#181818;stroke-width:0.5;"/>
    <line style="stroke:#181818;stroke-width:0.5;" x1="672.9849" x2="696.9849" y1="1490.5938" y2="1490.5938"/>
    <text fill="#000000" font-family="sans-serif" font-size="14" lengthAdjust="spacing" textLength="132.2617" x="754.6001" y="121.4248">Façade de position</text>
    <ellipse cx="823.731" cy="92.4297" fill="#E2E2F0" rx="12" ry="12" style="stroke:#181818;stroke-width:0.5;"/>
    <line style="stroke:#181818;stroke-width:0.5;" x1="811.731" x2="835.731" y1="106.4297" y2="106.4297"/>
    <text fill="#000000" font-family="sans-serif" font-size="14" lengthAdjust="spacing" textLength="132.2617" x="754.6001" y="1457.292">Façade de position</text>
    <ellipse cx="823.731" cy="1476.5938" fill="#E2E2F0" rx="12" ry="12" style="stroke:#181818;stroke-width:0.5;"/>
    <line style="stroke:#181818;stroke-width:0.5;" x1="811.731" x2="835.731" y1="1490.5938" y2="1490.5938"/>
    <text fill="#000000" font-family="sans-serif" font-size="14" lengthAdjust="spacing" textLength="118.1729" x="1311.623" y="121.4248">Stockage central</text>
    <path d="M1355.7095,72.4297 C1355.7095,62.4297 1373.7095,62.4297 1373.7095,62.4297 C1373.7095,62.4297 1391.7095,62.4297 1391.7095,72.4297 L1391.7095,98.4297 C1391.7095,108.4297 1373.7095,108.4297 1373.7095,108.4297 C1373.7095,108.4297 1355.7095,108.4297 1355.7095,98.4297 L1355.7095,72.4297 " fill="#E2E2F0" style="stroke:#181818;stroke-width:1.5;"/>
    <path d="M1355.7095,72.4297 C1355.7095,82.4297 1373.7095,82.4297 1373.7095,82.4297 C1373.7095,82.4297 1391.7095,82.4297 1391.7095,72.4297 " fill="none" style="stroke:#181818;stroke-width:1.5;"/>
    <text fill="#000000" font-family="sans-serif" font-size="14" lengthAdjust="spacing" textLength="118.1729" x="1311.623" y="1457.292">Stockage central</text>
    <path d="M1355.7095,1470.5938 C1355.7095,1460.5938 1373.7095,1460.5938 1373.7095,1460.5938 C1373.7095,1460.5938 1391.7095,1460.5938 1391.7095,1470.5938 L1391.7095,1496.5938 C1391.7095,1506.5938 1373.7095,1506.5938 1373.7095,1506.5938 C1373.7095,1506.5938 1355.7095,1506.5938 1355.7095,1496.5938 L1355.7095,1470.5938 " fill="#E2E2F0" style="stroke:#181818;stroke-width:1.5;"/>
    <path d="M1355.7095,1470.5938 C1355.7095,1480.5938 1373.7095,1480.5938 1373.7095,1480.5938 C1373.7095,1480.5938 1391.7095,1480.5938 1391.7095,1470.5938 " fill="none" style="stroke:#181818;stroke-width:1.5;"/>
    <rect fill="#FFFFFF" height="1300.5703" style="stroke:#181818;stroke-width:1.0;" width="10" x="113.5688" y="134.7266"/>
    <rect fill="#FFFFFF" height="30" style="stroke:#181818;stroke-width:1.0;" width="10" x="536.2368" y="1390.2969"/>
    <rect fill="#FFFFFF" height="135.6641" style="stroke:#181818;stroke-width:1.0;" width="10" x="679.9849" y="195.125"/>
    <rect fill="#FFFFFF" height="499.3906" style="stroke:#181818;stroke-width:1.0;" width="10" x="818.731" y="456.4531"/>
    <rect fill="#FFFFFF" height="77.3984" style="stroke:#181818;stroke-width:1.0;" width="10" x="1368.7095" y="224.2578"/>
    <rect fill="#FFFFFF" height="62.2656" style="stroke:#181818;stroke-width:1.0;" width="10" x="1368.7095" y="509.7188"/>
    <rect fill="#FFFFFF" height="30" style="stroke:#181818;stroke-width:1.0;" width="10" x="1368.7095" y="643.25"/>
    <rect fill="#FFFFFF" height="30" style="stroke:#181818;stroke-width:1.0;" width="10" x="1368.7095" y="750.6484"/>
    <path d="M10,141.7266 L482.5908,141.7266 L482.5908,148.8594 L472.5908,158.8594 L10,158.8594 L10,141.7266 " fill="#EEEEEE" style="stroke:#000000;stroke-width:1.5;"/>
    <rect fill="none" height="1286.5703" style="stroke:#000000;stroke-width:1.5;" width="1634.1611" x="10" y="141.7266"/>
    <text fill="#000000" font-family="sans-serif" font-size="13" font-weight="bold" lengthAdjust="spacing" textLength="427.5908" x="25" y="154.7935">Consommation par le gestionnaire de position (exécution)</text>
    <polygon fill="#181818" points="667.9849,191.125,677.9849,195.125,667.9849,199.125,671.9849,195.125" style="stroke:#181818;stroke-width:1.0;"/>
    <line style="stroke:#181818;stroke-width:1.0;" x1="123.5688" x2="673.9849" y1="195.125" y2="195.125"/>
    <text fill="#000000" font-family="sans-serif" font-size="13" font-weight="bold" lengthAdjust="spacing" textLength="9.0454" x="130.5688" y="182.4927">1</text>
    <text fill="#000000" font-family="sans-serif" font-size="13" lengthAdjust="spacing" textLength="317.3638" x="143.6143" y="174.9263">Demander l&apos;état actuel du transfert depuis la BD</text>
    <text fill="#FF0000" font-family="sans-serif" font-size="13" font-weight="bold" lengthAdjust="spacing" textLength="110.2524" x="143.6143" y="190.0591">Code d&apos;erreur :</text>
    <text fill="#FF0000" font-family="sans-serif" font-size="13" lengthAdjust="spacing" textLength="33.084" x="257.999" y="190.0591">2003</text>
    <polygon fill="#181818" points="1356.7095,220.2578,1366.7095,224.2578,1356.7095,228.2578,1360.7095,224.2578" style="stroke:#181818;stroke-width:1.0;"/>
    <line style="stroke:#181818;stroke-width:1.0;" x1="689.9849" x2="1362.7095" y1="224.2578" y2="224.2578"/>
    <text fill="#000000" font-family="sans-serif" font-size="13" font-weight="bold" lengthAdjust="spacing" textLength="9.0454" x="696.9849" y="219.1919">2</text>
    <text fill="#000000" font-family="sans-serif" font-size="13" lengthAdjust="spacing" textLength="316.2466" x="710.0303" y="219.1919">Récupérer l&apos;état actuel du transfert depuis la BD</text>
    <polygon fill="#FFFFE0" points="1303,237.2578,1442,237.2578,1452,256.2578,1442,275.2578,1303,275.2578,1293,256.2578,1303,237.2578" style="stroke:#181818;stroke-width:0.5;"/>
    <text fill="#000000" font-family="sans-serif" font-size="13" lengthAdjust="spacing" textLength="135.5225" x="1305" y="253.3247">transferStateChange</text>
    <text fill="#000000" font-family="sans-serif" font-size="13" lengthAdjust="spacing" textLength="121.5132" x="1305" y="268.4575">transferParticipant</text>
    <polygon fill="#181818" points="700.9849,297.6563,690.9849,301.6563,700.9849,305.6563,696.9849,301.6563" style="stroke:#181818;stroke-width:1.0;"/>
    <line style="stroke:#181818;stroke-width:1.0;stroke-dasharray:2.0,2.0;" x1="694.9849" x2="1372.7095" y1="301.6563" y2="301.6563"/>
    <text fill="#000000" font-family="sans-serif" font-size="13" font-weight="bold" lengthAdjust="spacing" textLength="9.0454" x="706.9849" y="296.5903">3</text>
    <text fill="#000000" font-family="sans-serif" font-size="13" lengthAdjust="spacing" textLength="310.8447" x="720.0303" y="296.5903">Renvoyer l&apos;état actuel du transfert depuis la BD</text>
    <polygon fill="#181818" points="134.5688,326.7891,124.5688,330.7891,134.5688,334.7891,130.5688,330.7891" style="stroke:#181818;stroke-width:1.0;"/>
    <line style="stroke:#181818;stroke-width:1.0;stroke-dasharray:2.0,2.0;" x1="128.5688" x2="683.9849" y1="330.7891" y2="330.7891"/>
    <text fill="#000000" font-family="sans-serif" font-size="13" font-weight="bold" lengthAdjust="spacing" textLength="9.0454" x="140.5688" y="325.7231">4</text>
    <text fill="#000000" font-family="sans-serif" font-size="13" lengthAdjust="spacing" textLength="310.8447" x="153.6143" y="325.7231">Renvoyer l&apos;état actuel du transfert depuis la BD</text>
    <line style="stroke:#181818;stroke-width:1.0;" x1="123.5688" x2="165.5688" y1="375.0547" y2="375.0547"/>
    <line style="stroke:#181818;stroke-width:1.0;" x1="165.5688" x2="165.5688" y1="375.0547" y2="388.0547"/>
    <line style="stroke:#181818;stroke-width:1.0;" x1="124.5688" x2="165.5688" y1="388.0547" y2="388.0547"/>
    <polygon fill="#181818" points="133.5688,371.0547,123.5688,375.0547,133.5688,379.0547,129.5688,375.0547" style="stroke:#181818;stroke-width:1.0;"/>
    <polygon fill="#181818" points="134.5688,384.0547,124.5688,388.0547,134.5688,392.0547,130.5688,388.0547" style="stroke:#181818;stroke-width:1.0;"/>
    <text fill="#000000" font-family="sans-serif" font-size="13" font-weight="bold" lengthAdjust="spacing" textLength="9.0454" x="130.5688" y="362.4224">5</text>
    <text fill="#000000" font-family="sans-serif" font-size="13" lengthAdjust="spacing" textLength="375.6226" x="143.6143" y="354.856">Valider l&apos;état actuel (transferState est &apos;RECEIVED-FULFIL&apos;)</text>
    <text fill="#FF0000" font-family="sans-serif" font-size="13" font-weight="bold" lengthAdjust="spacing" textLength="110.2524" x="143.6143" y="369.9888">Code d&apos;erreur :</text>
    <text fill="#FF0000" font-family="sans-serif" font-size="13" lengthAdjust="spacing" textLength="33.084" x="257.999" y="369.9888">2001</text>
    <path d="M20,403.0547 L926.4912,403.0547 L926.4912,410.1875 L916.4912,420.1875 L20,420.1875 L20,403.0547 " fill="#EEEEEE" style="stroke:#000000;stroke-width:1.5;"/>
    <rect fill="none" height="560.7891" style="stroke:#000000;stroke-width:1.5;" width="1614.1611" x="20" y="403.0547"/>
    <text fill="#000000" font-family="sans-serif" font-size="13" font-weight="bold" lengthAdjust="spacing" textLength="861.4912" x="35" y="416.1216">Persister le changement de position et l&apos;état du transfert (transferState=&apos;COMMITTED&apos; si contrôle de position réussi)</text>
    <polygon fill="#181818" points="806.731,452.4531,816.731,456.4531,806.731,460.4531,810.731,456.4531" style="stroke:#181818;stroke-width:1.0;"/>
    <line style="stroke:#181818;stroke-width:1.0;" x1="123.5688" x2="812.731" y1="456.4531" y2="456.4531"/>
    <text fill="#000000" font-family="sans-serif" font-size="13" font-weight="bold" lengthAdjust="spacing" textLength="9.0454" x="130.5688" y="443.8208">6</text>
    <text fill="#000000" font-family="sans-serif" font-size="13" lengthAdjust="spacing" textLength="373.2231" x="143.6143" y="436.2544">Demande de persister la dernière position et l&apos;état en BD</text>
    <text fill="#FF0000" font-family="sans-serif" font-size="13" font-weight="bold" lengthAdjust="spacing" textLength="110.2524" x="143.6143" y="451.3872">Code d&apos;erreur :</text>
    <text fill="#FF0000" font-family="sans-serif" font-size="13" lengthAdjust="spacing" textLength="33.084" x="257.999" y="451.3872">2003</text>
    <path d="M744.6001,471.4531 L919.2446,471.4531 L919.2446,478.5859 L909.2446,488.5859 L744.6001,488.5859 L744.6001,471.4531 " fill="#EEEEEE" style="stroke:#000000;stroke-width:1.5;"/>
    <rect fill="none" height="456.2578" style="stroke:#000000;stroke-width:1.5;" width="879.561" x="744.6001" y="471.4531"/>
    <text fill="#0000FF" font-family="sans-serif" font-size="13" font-weight="bold" lengthAdjust="spacing" textLength="129.6445" x="759.6001" y="484.52">TRANSACTION BD</text>
    <polygon fill="#181818" points="1356.7095,505.7188,1366.7095,509.7188,1356.7095,513.7188,1360.7095,509.7188" style="stroke:#181818;stroke-width:1.0;"/>
    <line style="stroke:#181818;stroke-width:1.0;" x1="828.731" x2="1362.7095" y1="509.7188" y2="509.7188"/>
    <text fill="#000000" font-family="sans-serif" font-size="13" font-weight="bold" lengthAdjust="spacing" textLength="9.0454" x="835.731" y="504.6528">7</text>
    <text fill="#000000" font-family="sans-serif" font-size="13" lengthAdjust="spacing" textLength="507.9331" x="848.7764" y="504.6528">Sélectionner participantPosition.value FOR UPDATE en BD pour le bénéficiaire</text>
    <polygon fill="#FFFFE0" points="1310,522.7188,1435,522.7188,1445,533.7188,1435,545.7188,1310,545.7188,1300,533.7188,1310,522.7188" style="stroke:#181818;stroke-width:0.5;"/>
    <text fill="#000000" font-family="sans-serif" font-size="13" lengthAdjust="spacing" textLength="121.6655" x="1312" y="538.7856">participantPosition</text>
    <polygon fill="#181818" points="839.731,567.9844,829.731,571.9844,839.731,575.9844,835.731,571.9844" style="stroke:#181818;stroke-width:1.0;"/>
    <line style="stroke:#181818;stroke-width:1.0;stroke-dasharray:2.0,2.0;" x1="833.731" x2="1372.7095" y1="571.9844" y2="571.9844"/>
    <text fill="#000000" font-family="sans-serif" font-size="13" font-weight="bold" lengthAdjust="spacing" textLength="9.0454" x="845.731" y="566.9185">8</text>
    <text fill="#000000" font-family="sans-serif" font-size="13" lengthAdjust="spacing" textLength="443.5742" x="858.7764" y="566.9185">Renvoyer participantPosition.value depuis la BD pour le bénéficiaire</text>
    <line style="stroke:#181818;stroke-width:1.0;" x1="828.731" x2="870.731" y1="601.1172" y2="601.1172"/>
    <line style="stroke:#181818;stroke-width:1.0;" x1="870.731" x2="870.731" y1="601.1172" y2="614.1172"/>
    <line style="stroke:#181818;stroke-width:1.0;" x1="829.731" x2="870.731" y1="614.1172" y2="614.1172"/>
    <polygon fill="#181818" points="838.731,597.1172,828.731,601.1172,838.731,605.1172,834.731,601.1172" style="stroke:#181818;stroke-width:1.0;"/>
    <polygon fill="#181818" points="839.731,610.1172,829.731,614.1172,839.731,618.1172,835.731,614.1172" style="stroke:#181818;stroke-width:1.0;"/>
    <text fill="#000000" font-family="sans-serif" font-size="13" font-weight="bold" lengthAdjust="spacing" textLength="9.0454" x="835.731" y="596.0513">9</text>
    <text fill="#000000" font-family="sans-serif" font-size="13" font-weight="bold" lengthAdjust="spacing" textLength="101.7212" x="848.7764" y="596.0513">latestPosition</text>
    <text fill="#000000" font-family="sans-serif" font-size="13" lengthAdjust="spacing" textLength="349.5654" x="954.6299" y="596.0513">= participantPosition.value - payload.amount.amount</text>
    <polygon fill="#181818" points="1356.7095,639.25,1366.7095,643.25,1356.7095,647.25,1360.7095,643.25" style="stroke:#181818;stroke-width:1.0;"/>
    <line style="stroke:#181818;stroke-width:1.0;" x1="828.731" x2="1362.7095" y1="643.25" y2="643.25"/>
    <text fill="#000000" font-family="sans-serif" font-size="13" font-weight="bold" lengthAdjust="spacing" textLength="18.0908" x="835.731" y="638.1841">10</text>
    <text fill="#000000" font-family="sans-serif" font-size="13" lengthAdjust="spacing" textLength="322.1182" x="857.8218" y="638.1841">Persister latestPosition en BD pour le bénéficiaire</text>
    <polygon fill="#FFFFE0" points="1273,686.25,1473,686.25,1483,705.25,1473,724.25,1273,724.25,1263,705.25,1273,686.25" style="stroke:#181818;stroke-width:0.5;"/>
    <text fill="#000000" font-family="sans-serif" font-size="13" lengthAdjust="spacing" textLength="52.4126" x="1275" y="702.3169">UPDATE</text>
    <text fill="#000000" font-family="sans-serif" font-size="13" font-weight="bold" lengthAdjust="spacing" textLength="140.3784" x="1331.5449" y="702.3169">participantPosition</text>
    <text fill="#000000" font-family="sans-serif" font-size="13" lengthAdjust="spacing" textLength="170.8281" x="1275" y="717.4497">SET value = latestPosition</text>
    <polygon fill="#181818" points="1356.7095,746.6484,1366.7095,750.6484,1356.7095,754.6484,1360.7095,750.6484" style="stroke:#181818;stroke-width:1.0;"/>
    <line style="stroke:#181818;stroke-width:1.0;" x1="828.731" x2="1362.7095" y1="750.6484" y2="750.6484"/>
    <text fill="#000000" font-family="sans-serif" font-size="13" font-weight="bold" lengthAdjust="spacing" textLength="18.0908" x="835.731" y="745.5825">11</text>
    <text fill="#000000" font-family="sans-serif" font-size="13" lengthAdjust="spacing" textLength="465.7402" x="857.8218" y="745.5825">Persister l&apos;état du transfert et le changement de position du participant</text>
    <polygon fill="#FFFFE0" points="1142,793.6484,1604,793.6484,1614,857.6484,1604,922.6484,1142,922.6484,1132,857.6484,1142,793.6484" style="stroke:#181818;stroke-width:0.5;"/>
    <text fill="#000000" font-family="sans-serif" font-size="13" lengthAdjust="spacing" textLength="46.998" x="1144" y="809.7153">INSERT</text>
    <text fill="#000000" font-family="sans-serif" font-size="13" font-weight="bold" lengthAdjust="spacing" textLength="153.6006" x="1195.1304" y="809.7153">transferStateChange</text>
    <text fill="#000000" font-family="sans-serif" font-size="13" lengthAdjust="spacing" textLength="203.8232" x="1352.8633" y="809.7153">transferStateId = &apos;COMMITTED&apos;</text>
    <text fill="#000000" font-family="sans-serif" font-size="13" lengthAdjust="spacing" textLength="4.1323" x="1144" y="824.8481"> </text>
    <text fill="#000000" font-family="sans-serif" font-size="13" lengthAdjust="spacing" textLength="46.998" x="1144" y="839.981">INSERT</text>
    <text fill="#000000" font-family="sans-serif" font-size="13" font-weight="bold" lengthAdjust="spacing" textLength="195.3237" x="1195.1304" y="839.981">participantPositionChange</text>
    <text fill="#000000" font-family="sans-serif" font-size="13" lengthAdjust="spacing" textLength="445.1294" x="1144" y="855.1138">SET participantPositionId = participantPosition.participantPositionId,</text>
    <text fill="#000000" font-family="sans-serif" font-size="13" lengthAdjust="spacing" textLength="458.1611" x="1144" y="870.2466">transferStateChangeId = transferStateChange.transferStateChangeId,</text>
    <text fill="#000000" font-family="sans-serif" font-size="13" lengthAdjust="spacing" textLength="146.4214" x="1144" y="885.3794">value = latestPosition,</text>
    <text fill="#000000" font-family="sans-serif" font-size="13" lengthAdjust="spacing" textLength="333.1758" x="1144" y="900.5122">reservedValue = participantPosition.reservedValue</text>
    <text fill="#000000" font-family="sans-serif" font-size="13" lengthAdjust="spacing" textLength="172.25" x="1144" y="915.645">createdDate = new Date()</text>
    <polygon fill="#181818" points="134.5688,951.8438,124.5688,955.8438,134.5688,959.8438,130.5688,955.8438" style="stroke:#181818;stroke-width:1.0;"/>
    <line style="stroke:#181818;stroke-width:1.0;stroke-dasharray:2.0,2.0;" x1="128.5688" x2="822.731" y1="955.8438" y2="955.8438"/>
    <text fill="#000000" font-family="sans-serif" font-size="13" font-weight="bold" lengthAdjust="spacing" textLength="18.0908" x="140.5688" y="950.7778">12</text>
    <text fill="#000000" font-family="sans-serif" font-size="13" lengthAdjust="spacing" textLength="125.9058" x="162.6597" y="950.7778">Renvoyer le succès</text>
    <path d="M128,975.8438 L128,1348.8438 L402,1348.8438 L402,985.8438 L392,975.8438 L128,975.8438 " fill="#FFFF00" style="stroke:#181818;stroke-width:0.5;"/>
    <path d="M392,975.8438 L392,985.8438 L402,985.8438 L392,975.8438 " fill="#FFFF00" style="stroke:#181818;stroke-width:0.5;"/>
    <text fill="#000000" font-family="sans-serif" font-size="13" lengthAdjust="spacing" textLength="65.4888" x="134" y="992.9106">Message :</text>
    <text fill="#000000" font-family="sans-serif" font-size="13" lengthAdjust="spacing" textLength="8.271" x="134" y="1008.0435">{</text>
    <text fill="#000000" font-family="sans-serif" font-size="13" lengthAdjust="spacing" textLength="218.0356" x="150.5293" y="1023.1763">id: &lt;transferMessage.transferId&gt;</text>
    <text fill="#000000" font-family="sans-serif" font-size="13" lengthAdjust="spacing" textLength="237.1738" x="150.5293" y="1038.3091">from: &lt;transferMessage.payerFsp&gt;,</text>
    <text fill="#000000" font-family="sans-serif" font-size="13" lengthAdjust="spacing" textLength="222.3394" x="150.5293" y="1053.4419">to: &lt;transferMessage.payeeFsp&gt;,</text>
    <text fill="#000000" font-family="sans-serif" font-size="13" lengthAdjust="spacing" textLength="140.2197" x="150.5293" y="1068.5747">type: application/json</text>
    <text fill="#000000" font-family="sans-serif" font-size="13" lengthAdjust="spacing" textLength="66.5552" x="150.5293" y="1083.7075">content: {</text>
    <text fill="#000000" font-family="sans-serif" font-size="13" lengthAdjust="spacing" textLength="192.4482" x="167.0586" y="1098.8403">headers: &lt;transferHeaders&gt;,</text>
    <text fill="#000000" font-family="sans-serif" font-size="13" lengthAdjust="spacing" textLength="190.3091" x="167.0586" y="1113.9731">payload: &lt;transferMessage&gt;</text>
    <text fill="#000000" font-family="sans-serif" font-size="13" lengthAdjust="spacing" textLength="12.4033" x="150.5293" y="1129.106">},</text>
    <text fill="#000000" font-family="sans-serif" font-size="13" lengthAdjust="spacing" textLength="79.79" x="150.5293" y="1144.2388">metadata: {</text>
    <text fill="#000000" font-family="sans-serif" font-size="13" lengthAdjust="spacing" textLength="53.8091" x="167.0586" y="1159.3716">event: {</text>
    <text fill="#000000" font-family="sans-serif" font-size="13" lengthAdjust="spacing" textLength="74.6357" x="183.5879" y="1174.5044">id: &lt;uuid&gt;,</text>
    <text fill="#000000" font-family="sans-serif" font-size="13" lengthAdjust="spacing" textLength="197.9961" x="183.5879" y="1189.6372">responseTo: &lt;previous.uuid&gt;,</text>
    <text fill="#000000" font-family="sans-serif" font-size="13" lengthAdjust="spacing" textLength="93.0249" x="183.5879" y="1204.77">type: transfer,</text>
    <text fill="#000000" font-family="sans-serif" font-size="13" lengthAdjust="spacing" textLength="101.7974" x="183.5879" y="1219.9028">action: commit,</text>
    <text fill="#000000" font-family="sans-serif" font-size="13" lengthAdjust="spacing" textLength="168.3462" x="183.5879" y="1235.0356">createdAt: &lt;timestamp&gt;,</text>
    <text fill="#000000" font-family="sans-serif" font-size="13" lengthAdjust="spacing" textLength="49.7148" x="183.5879" y="1250.1685">state: {</text>
    <text fill="#000000" font-family="sans-serif" font-size="13" lengthAdjust="spacing" textLength="115.4004" x="200.1172" y="1265.3013">status: &quot;success&quot;,</text>
    <text fill="#000000" font-family="sans-serif" font-size="13" lengthAdjust="spacing" textLength="48.1343" x="200.1172" y="1280.4341">code: 0</text>
    <text fill="#000000" font-family="sans-serif" font-size="13" lengthAdjust="spacing" textLength="8.271" x="183.5879" y="1295.5669">}</text>
    <text fill="#000000" font-family="sans-serif" font-size="13" lengthAdjust="spacing" textLength="8.271" x="167.0586" y="1310.6997">}</text>
    <text fill="#000000" font-family="sans-serif" font-size="13" lengthAdjust="spacing" textLength="8.271" x="150.5293" y="1325.8325">}</text>
    <text fill="#000000" font-family="sans-serif" font-size="13" lengthAdjust="spacing" textLength="8.271" x="134" y="1340.9653">}</text>
    <polygon fill="#181818" points="524.2368,1386.2969,534.2368,1390.2969,524.2368,1394.2969,528.2368,1390.2969" style="stroke:#181818;stroke-width:1.0;"/>
    <line style="stroke:#181818;stroke-width:1.0;" x1="123.5688" x2="530.2368" y1="1390.2969" y2="1390.2969"/>
    <text fill="#000000" font-family="sans-serif" font-size="13" font-weight="bold" lengthAdjust="spacing" textLength="18.0908" x="130.5688" y="1377.6646">13</text>
    <text fill="#000000" font-family="sans-serif" font-size="13" lengthAdjust="spacing" textLength="211.0913" x="152.6597" y="1370.0981">Publier l&apos;événement de transfert</text>
    <text fill="#FF0000" font-family="sans-serif" font-size="13" font-weight="bold" lengthAdjust="spacing" textLength="110.2524" x="152.6597" y="1385.231">Code d&apos;erreur :</text>
    <text fill="#FF0000" font-family="sans-serif" font-size="13" lengthAdjust="spacing" textLength="33.084" x="267.0444" y="1385.231">2003</text>
  </g>
</svg>
