<svg xmlns="http://www.w3.org/2000/svg" xmlns:xlink="http://www.w3.org/1999/xlink" contentStyleType="text/css" height="1175px" preserveAspectRatio="none" style="width:2551px;height:1175px;background:#FFFFFF;" version="1.1" viewBox="0 0 2551 1175" width="2551px" zoomAndPan="magnify">
  <title>1.1.4.a. Envoyer une notification au participant (payeur/bénéficiaire) (message unique) v1.1</title>
  <defs/>
  <g>
    <text fill="#000000" font-family="sans-serif" font-size="14" font-weight="bold" lengthAdjust="spacing" textLength="731.4658" x="907.113" y="27.9951">1.1.4.a. Envoyer une notification au participant (payeur/bénéficiaire) (message unique) v1.1</text>
    <rect fill="#D3D3D3" height="1126.1094" style="stroke:#181818;stroke-width:0.5;" width="255.8501" x="1" y="43.2969"/>
    <text fill="#000000" font-family="sans-serif" font-size="13" font-weight="bold" lengthAdjust="spacing" textLength="249.8501" x="4" y="55.3638">Financial Service Provider (Payer)</text>
    <rect fill="#ADD8E6" height="1126.1094" style="stroke:#181818;stroke-width:0.5;" width="363.4326" x="460.5493" y="43.2969"/>
    <text fill="#000000" font-family="sans-serif" font-size="13" font-weight="bold" lengthAdjust="spacing" textLength="195.1079" x="544.7117" y="55.3638">Service adaptateur ML API</text>
    <rect fill="#FFFFE0" height="1126.1094" style="stroke:#181818;stroke-width:0.5;" width="1436.9131" x="848.5229" y="43.2969"/>
    <text fill="#000000" font-family="sans-serif" font-size="13" font-weight="bold" lengthAdjust="spacing" textLength="110.2017" x="1511.8787" y="55.3638">Service central</text>
    <rect fill="#D3D3D3" height="1126.1094" style="stroke:#181818;stroke-width:0.5;" width="258.2559" x="2287.436" y="43.2969"/>
    <text fill="#000000" font-family="sans-serif" font-size="13" font-weight="bold" lengthAdjust="spacing" textLength="252.2559" x="2290.436" y="55.3638">Financial Service Provider (Payee)</text>
    <rect fill="#FFFFFF" height="898.7891" style="stroke:#181818;stroke-width:1.0;" width="10" x="637.2656" y="165.0234"/>
    <rect fill="#FFFFFF" height="30" style="stroke:#181818;stroke-width:1.0;" width="10" x="940.8408" y="210.2891"/>
    <rect fill="#FFFFFF" height="195.4688" style="stroke:#181818;stroke-width:1.0;" width="10" x="1332.7451" y="293.5547"/>
    <rect fill="#FFFFFF" height="209.0625" style="stroke:#181818;stroke-width:1.0;" width="10" x="1332.7451" y="590.5547"/>
    <rect fill="#FFFFFF" height="137.2031" style="stroke:#181818;stroke-width:1.0;" width="10" x="1618.2485" y="322.6875"/>
    <rect fill="#FFFFFF" height="120.5313" style="stroke:#181818;stroke-width:1.0;" width="10" x="1779.9683" y="634.8203"/>
    <rect fill="#FFFFFF" height="62.2656" style="stroke:#181818;stroke-width:1.0;" width="10" x="2214.3496" y="663.9531"/>
    <rect fill="none" height="884.7891" style="stroke:#000000;stroke-width:1.5;" width="2415.3557" x="75.781" y="172.0234"/>
    <rect fill="none" height="241.7344" style="stroke:#000000;stroke-width:1.5;" width="1365.4595" x="454.5493" y="255.2891"/>
    <rect fill="none" height="146.6641" style="stroke:#000000;stroke-width:1.5;" width="2036.5874" x="444.5493" y="903.1484"/>
    <rect fill="none" height="115.5313" style="stroke:#000000;stroke-width:1.5;" width="2016.5874" x="454.5493" y="927.2813"/>
    <line style="stroke:#181818;stroke-width:0.5;stroke-dasharray:5.0,5.0;" x1="128.781" x2="128.781" y1="155.0234" y2="1073.8125"/>
    <line style="stroke:#181818;stroke-width:0.5;stroke-dasharray:5.0,5.0;" x1="641.5493" x2="641.5493" y1="155.0234" y2="1073.8125"/>
    <line style="stroke:#181818;stroke-width:0.5;stroke-dasharray:5.0,5.0;" x1="945.5229" x2="945.5229" y1="155.0234" y2="1073.8125"/>
    <line style="stroke:#181818;stroke-width:0.5;stroke-dasharray:5.0,5.0;" x1="1337.5928" x2="1337.5928" y1="155.0234" y2="1073.8125"/>
    <line style="stroke:#181818;stroke-width:0.5;stroke-dasharray:5.0,5.0;" x1="1622.4502" x2="1622.4502" y1="155.0234" y2="1073.8125"/>
    <line style="stroke:#181818;stroke-width:0.5;stroke-dasharray:5.0,5.0;" x1="1784.0469" x2="1784.0469" y1="155.0234" y2="1073.8125"/>
    <line style="stroke:#181818;stroke-width:0.5;stroke-dasharray:5.0,5.0;" x1="2219.2632" x2="2219.2632" y1="155.0234" y2="1073.8125"/>
    <line style="stroke:#181818;stroke-width:0.5;stroke-dasharray:5.0,5.0;" x1="2415.9912" x2="2415.9912" y1="155.0234" y2="1073.8125"/>
    <text fill="#000000" font-family="sans-serif" font-size="14" lengthAdjust="spacing" textLength="80.2881" x="85.781" y="135.4248">Payer DFSP</text>
    <text fill="#000000" font-family="sans-serif" font-size="14" lengthAdjust="spacing" textLength="75.5713" x="88.1394" y="151.7217">Participant</text>
    <ellipse cx="128.925" cy="70.9297" fill="#E2E2F0" rx="8" ry="8" style="stroke:#181818;stroke-width:0.5;"/>
    <path d="M128.925,78.9297 L128.925,105.9297 M115.925,86.9297 L141.925,86.9297 M128.925,105.9297 L115.925,120.9297 M128.925,105.9297 L141.925,120.9297 " fill="none" style="stroke:#181818;stroke-width:0.5;"/>
    <text fill="#000000" font-family="sans-serif" font-size="14" lengthAdjust="spacing" textLength="80.2881" x="85.781" y="1085.8076">Payer DFSP</text>
    <text fill="#000000" font-family="sans-serif" font-size="14" lengthAdjust="spacing" textLength="75.5713" x="88.1394" y="1102.1045">Participant</text>
    <ellipse cx="128.925" cy="1113.9063" fill="#E2E2F0" rx="8" ry="8" style="stroke:#181818;stroke-width:0.5;"/>
    <path d="M128.925,1121.9063 L128.925,1148.9063 M115.925,1129.9063 L141.925,1129.9063 M128.925,1148.9063 L115.925,1163.9063 M128.925,1148.9063 L141.925,1163.9063 " fill="none" style="stroke:#181818;stroke-width:0.5;"/>
    <text fill="#000000" font-family="sans-serif" font-size="14" lengthAdjust="spacing" textLength="349.4326" x="464.5493" y="151.7217">Gestionnaire d&apos;événements de notification ML API</text>
    <ellipse cx="642.2656" cy="122.7266" fill="#E2E2F0" rx="12" ry="12" style="stroke:#181818;stroke-width:0.5;"/>
    <polygon fill="#181818" points="638.2656,110.7266,644.2656,105.7266,642.2656,110.7266,644.2656,115.7266,638.2656,110.7266" style="stroke:#181818;stroke-width:1.0;"/>
    <text fill="#000000" font-family="sans-serif" font-size="14" lengthAdjust="spacing" textLength="349.4326" x="464.5493" y="1085.8076">Gestionnaire d&apos;événements de notification ML API</text>
    <ellipse cx="642.2656" cy="1105.1094" fill="#E2E2F0" rx="12" ry="12" style="stroke:#181818;stroke-width:0.5;"/>
    <polygon fill="#181818" points="638.2656,1093.1094,644.2656,1088.1094,642.2656,1093.1094,644.2656,1098.1094,638.2656,1093.1094" style="stroke:#181818;stroke-width:1.0;"/>
    <rect fill="#E2E2F0" height="30.2969" style="stroke:#181818;stroke-width:0.5;" width="182.6357" x="856.5229" y="119.7266"/>
    <rect fill="#E2E2F0" height="30.2969" style="stroke:#181818;stroke-width:0.5;" width="182.6357" x="852.5229" y="123.7266"/>
    <text fill="#000000" font-family="sans-serif" font-size="14" lengthAdjust="spacing" textLength="168.6357" x="859.5229" y="143.7217">Rubrique de notification</text>
    <rect fill="#E2E2F0" height="30.2969" style="stroke:#181818;stroke-width:0.5;" width="182.6357" x="856.5229" y="1072.8125"/>
    <rect fill="#E2E2F0" height="30.2969" style="stroke:#181818;stroke-width:0.5;" width="182.6357" x="852.5229" y="1076.8125"/>
    <text fill="#000000" font-family="sans-serif" font-size="14" lengthAdjust="spacing" textLength="168.6357" x="859.5229" y="1096.8076">Rubrique de notification</text>
    <text fill="#000000" font-family="sans-serif" font-size="14" lengthAdjust="spacing" textLength="152.3047" x="1258.5928" y="151.7217">API du service central</text>
    <path d="M1317.2451,110.7266 L1317.2451,134.7266 M1317.2451,122.7266 L1334.2451,122.7266 " fill="none" style="stroke:#181818;stroke-width:0.5;"/>
    <ellipse cx="1346.2451" cy="122.7266" fill="#E2E2F0" rx="12" ry="12" style="stroke:#181818;stroke-width:0.5;"/>
    <text fill="#000000" font-family="sans-serif" font-size="14" lengthAdjust="spacing" textLength="152.3047" x="1258.5928" y="1085.8076">API du service central</text>
    <path d="M1317.2451,1093.1094 L1317.2451,1117.1094 M1317.2451,1105.1094 L1334.2451,1105.1094 " fill="none" style="stroke:#181818;stroke-width:0.5;"/>
    <ellipse cx="1346.2451" cy="1105.1094" fill="#E2E2F0" rx="12" ry="12" style="stroke:#181818;stroke-width:0.5;"/>
    <rect fill="#E2E2F0" height="30.2969" style="stroke:#181818;stroke-width:0.5;" width="181.5967" x="1534.4502" y="119.7266"/>
    <rect fill="#E2E2F0" height="30.2969" style="stroke:#181818;stroke-width:0.5;" width="181.5967" x="1530.4502" y="123.7266"/>
    <text fill="#000000" font-family="sans-serif" font-size="14" lengthAdjust="spacing" textLength="167.5967" x="1537.4502" y="143.7217">Rubrique d&apos;événements</text>
    <rect fill="#E2E2F0" height="30.2969" style="stroke:#181818;stroke-width:0.5;" width="181.5967" x="1534.4502" y="1072.8125"/>
    <rect fill="#E2E2F0" height="30.2969" style="stroke:#181818;stroke-width:0.5;" width="181.5967" x="1530.4502" y="1076.8125"/>
    <text fill="#000000" font-family="sans-serif" font-size="14" lengthAdjust="spacing" textLength="167.5967" x="1537.4502" y="1096.8076">Rubrique d&apos;événements</text>
    <text fill="#000000" font-family="sans-serif" font-size="14" lengthAdjust="spacing" textLength="111.8428" x="1726.0469" y="151.7217">DAO participant</text>
    <ellipse cx="1784.9683" cy="122.7266" fill="#E2E2F0" rx="12" ry="12" style="stroke:#181818;stroke-width:0.5;"/>
    <line style="stroke:#181818;stroke-width:0.5;" x1="1772.9683" x2="1796.9683" y1="136.7266" y2="136.7266"/>
    <text fill="#000000" font-family="sans-serif" font-size="14" lengthAdjust="spacing" textLength="111.8428" x="1726.0469" y="1085.8076">DAO participant</text>
    <ellipse cx="1784.9683" cy="1105.1094" fill="#E2E2F0" rx="12" ry="12" style="stroke:#181818;stroke-width:0.5;"/>
    <line style="stroke:#181818;stroke-width:0.5;" x1="1772.9683" x2="1796.9683" y1="1119.1094" y2="1119.1094"/>
    <text fill="#000000" font-family="sans-serif" font-size="14" lengthAdjust="spacing" textLength="118.1729" x="2157.2632" y="151.7217">Stockage central</text>
    <path d="M2201.3496,102.7266 C2201.3496,92.7266 2219.3496,92.7266 2219.3496,92.7266 C2219.3496,92.7266 2237.3496,92.7266 2237.3496,102.7266 L2237.3496,128.7266 C2237.3496,138.7266 2219.3496,138.7266 2219.3496,138.7266 C2219.3496,138.7266 2201.3496,138.7266 2201.3496,128.7266 L2201.3496,102.7266 " fill="#E2E2F0" style="stroke:#181818;stroke-width:1.5;"/>
    <path d="M2201.3496,102.7266 C2201.3496,112.7266 2219.3496,112.7266 2219.3496,112.7266 C2219.3496,112.7266 2237.3496,112.7266 2237.3496,102.7266 " fill="none" style="stroke:#181818;stroke-width:1.5;"/>
    <text fill="#000000" font-family="sans-serif" font-size="14" lengthAdjust="spacing" textLength="118.1729" x="2157.2632" y="1085.8076">Stockage central</text>
    <path d="M2201.3496,1099.1094 C2201.3496,1089.1094 2219.3496,1089.1094 2219.3496,1089.1094 C2219.3496,1089.1094 2237.3496,1089.1094 2237.3496,1099.1094 L2237.3496,1125.1094 C2237.3496,1135.1094 2219.3496,1135.1094 2219.3496,1135.1094 C2219.3496,1135.1094 2201.3496,1135.1094 2201.3496,1125.1094 L2201.3496,1099.1094 " fill="#E2E2F0" style="stroke:#181818;stroke-width:1.5;"/>
    <path d="M2201.3496,1099.1094 C2201.3496,1109.1094 2219.3496,1109.1094 2219.3496,1109.1094 C2219.3496,1109.1094 2237.3496,1109.1094 2237.3496,1099.1094 " fill="none" style="stroke:#181818;stroke-width:1.5;"/>
    <text fill="#000000" font-family="sans-serif" font-size="14" lengthAdjust="spacing" textLength="83.1455" x="2371.9912" y="135.4248">Payee DFSP</text>
    <text fill="#000000" font-family="sans-serif" font-size="14" lengthAdjust="spacing" textLength="75.5713" x="2375.7783" y="151.7217">Participant</text>
    <ellipse cx="2416.564" cy="70.9297" fill="#E2E2F0" rx="8" ry="8" style="stroke:#181818;stroke-width:0.5;"/>
    <path d="M2416.564,78.9297 L2416.564,105.9297 M2403.564,86.9297 L2429.564,86.9297 M2416.564,105.9297 L2403.564,120.9297 M2416.564,105.9297 L2429.564,120.9297 " fill="none" style="stroke:#181818;stroke-width:0.5;"/>
    <text fill="#000000" font-family="sans-serif" font-size="14" lengthAdjust="spacing" textLength="83.1455" x="2371.9912" y="1085.8076">Payee DFSP</text>
    <text fill="#000000" font-family="sans-serif" font-size="14" lengthAdjust="spacing" textLength="75.5713" x="2375.7783" y="1102.1045">Participant</text>
    <ellipse cx="2416.564" cy="1113.9063" fill="#E2E2F0" rx="8" ry="8" style="stroke:#181818;stroke-width:0.5;"/>
    <path d="M2416.564,1121.9063 L2416.564,1148.9063 M2403.564,1129.9063 L2429.564,1129.9063 M2416.564,1148.9063 L2403.564,1163.9063 M2416.564,1148.9063 L2429.564,1163.9063 " fill="none" style="stroke:#181818;stroke-width:0.5;"/>
    <rect fill="#FFFFFF" height="898.7891" style="stroke:#181818;stroke-width:1.0;" width="10" x="637.2656" y="165.0234"/>
    <rect fill="#FFFFFF" height="30" style="stroke:#181818;stroke-width:1.0;" width="10" x="940.8408" y="210.2891"/>
    <rect fill="#FFFFFF" height="195.4688" style="stroke:#181818;stroke-width:1.0;" width="10" x="1332.7451" y="293.5547"/>
    <rect fill="#FFFFFF" height="209.0625" style="stroke:#181818;stroke-width:1.0;" width="10" x="1332.7451" y="590.5547"/>
    <rect fill="#FFFFFF" height="137.2031" style="stroke:#181818;stroke-width:1.0;" width="10" x="1618.2485" y="322.6875"/>
    <rect fill="#FFFFFF" height="120.5313" style="stroke:#181818;stroke-width:1.0;" width="10" x="1779.9683" y="634.8203"/>
    <rect fill="#FFFFFF" height="62.2656" style="stroke:#181818;stroke-width:1.0;" width="10" x="2214.3496" y="663.9531"/>
    <path d="M75.781,172.0234 L424.7766,172.0234 L424.7766,179.1563 L414.7766,189.1563 L75.781,189.1563 L75.781,172.0234 " fill="#EEEEEE" style="stroke:#000000;stroke-width:1.5;"/>
    <rect fill="none" height="884.7891" style="stroke:#000000;stroke-width:1.5;" width="2415.3557" x="75.781" y="172.0234"/>
    <text fill="#000000" font-family="sans-serif" font-size="13" font-weight="bold" lengthAdjust="spacing" textLength="303.9956" x="90.781" y="185.0903">Envoyer une notification aux participants</text>
    <polygon fill="#181818" points="928.8408,206.2891,938.8408,210.2891,928.8408,214.2891,932.8408,210.2891" style="stroke:#181818;stroke-width:1.0;"/>
    <line style="stroke:#181818;stroke-width:1.0;" x1="647.2656" x2="934.8408" y1="210.2891" y2="210.2891"/>
    <text fill="#000000" font-family="sans-serif" font-size="13" font-weight="bold" lengthAdjust="spacing" textLength="9.0454" x="654.2656" y="205.2231">1</text>
    <text fill="#000000" font-family="sans-serif" font-size="13" lengthAdjust="spacing" textLength="261.5298" x="667.311" y="205.2231">Consommer l&apos;événement de notification</text>
    <path d="M454.5493,255.2891 L789.1865,255.2891 L789.1865,262.4219 L779.1865,272.4219 L454.5493,272.4219 L454.5493,255.2891 " fill="#EEEEEE" style="stroke:#000000;stroke-width:1.5;"/>
    <rect fill="none" height="241.7344" style="stroke:#000000;stroke-width:1.5;" width="1365.4595" x="454.5493" y="255.2891"/>
    <text fill="#000000" font-family="sans-serif" font-size="13" font-weight="bold" lengthAdjust="spacing" textLength="289.6372" x="469.5493" y="268.356">Persister les informations d&apos;événement</text>
    <polygon fill="#181818" points="1320.7451,289.5547,1330.7451,293.5547,1320.7451,297.5547,1324.7451,293.5547" style="stroke:#181818;stroke-width:1.0;"/>
    <line style="stroke:#181818;stroke-width:1.0;" x1="647.2656" x2="1326.7451" y1="293.5547" y2="293.5547"/>
    <text fill="#000000" font-family="sans-serif" font-size="13" font-weight="bold" lengthAdjust="spacing" textLength="9.0454" x="654.2656" y="288.4888">2</text>
    <text fill="#000000" font-family="sans-serif" font-size="13" lengthAdjust="spacing" textLength="468.3682" x="667.311" y="288.4888">Demande de persister les informations d&apos;événement — POST — /events</text>
    <polygon fill="#181818" points="1606.2485,318.6875,1616.2485,322.6875,1606.2485,326.6875,1610.2485,322.6875" style="stroke:#181818;stroke-width:1.0;"/>
    <line style="stroke:#181818;stroke-width:1.0;" x1="1342.7451" x2="1612.2485" y1="322.6875" y2="322.6875"/>
    <text fill="#000000" font-family="sans-serif" font-size="13" font-weight="bold" lengthAdjust="spacing" textLength="9.0454" x="1349.7451" y="317.6216">3</text>
    <text fill="#000000" font-family="sans-serif" font-size="13" lengthAdjust="spacing" textLength="243.458" x="1362.7905" y="317.6216">Publier les informations d&apos;événement</text>
    <rect fill="none" height="53.0703" style="stroke:#000000;stroke-width:1.5;" width="285.5586" x="1527.4502" y="355.6875"/>
    <path d="M1527.4502,355.6875 L1592.4502,355.6875 L1592.4502,362.6875 L1582.4502,372.6875 L1527.4502,372.6875 L1527.4502,355.6875 " fill="#EEEEEE" style="stroke:#000000;stroke-width:2.0;"/>
    <text fill="#000000" font-family="sans-serif" font-size="13" font-weight="bold" lengthAdjust="spacing" textLength="20.8838" x="1540.4502" y="369.7544">ref</text>
    <text fill="#000000" font-family="sans-serif" font-size="12" lengthAdjust="spacing" textLength="277.5586" x="1531.4502" y="387.8262">Consommation du gestionnaire d&apos;événements</text>
    <text fill="#000000" font-family="sans-serif" font-size="12" lengthAdjust="spacing" textLength="3.8145" x="1668.3223" y="401.7949"> </text>
    <polygon fill="#181818" points="1353.7451,455.8906,1343.7451,459.8906,1353.7451,463.8906,1349.7451,459.8906" style="stroke:#181818;stroke-width:1.0;"/>
    <line style="stroke:#181818;stroke-width:1.0;stroke-dasharray:2.0,2.0;" x1="1347.7451" x2="1622.2485" y1="459.8906" y2="459.8906"/>
    <text fill="#000000" font-family="sans-serif" font-size="13" font-weight="bold" lengthAdjust="spacing" textLength="9.0454" x="1359.7451" y="454.8247">4</text>
    <text fill="#000000" font-family="sans-serif" font-size="13" lengthAdjust="spacing" textLength="125.9058" x="1372.7905" y="454.8247">Renvoyer le succès</text>
    <polygon fill="#181818" points="658.2656,485.0234,648.2656,489.0234,658.2656,493.0234,654.2656,489.0234" style="stroke:#181818;stroke-width:1.0;"/>
    <line style="stroke:#181818;stroke-width:1.0;stroke-dasharray:2.0,2.0;" x1="652.2656" x2="1336.7451" y1="489.0234" y2="489.0234"/>
    <text fill="#000000" font-family="sans-serif" font-size="13" font-weight="bold" lengthAdjust="spacing" textLength="9.0454" x="664.2656" y="483.9575">5</text>
    <text fill="#000000" font-family="sans-serif" font-size="13" lengthAdjust="spacing" textLength="125.9058" x="677.311" y="483.9575">Renvoyer le succès</text>
    <path d="M652,509.0234 L652,549.0234 L1189,549.0234 L1189,519.0234 L1179,509.0234 L652,509.0234 " fill="#D3D3D3" style="stroke:#181818;stroke-width:0.5;"/>
    <path d="M1179,509.0234 L1179,519.0234 L1189,519.0234 L1179,509.0234 " fill="#D3D3D3" style="stroke:#181818;stroke-width:0.5;"/>
    <text fill="#000000" font-family="sans-serif" font-size="13" lengthAdjust="spacing" textLength="516.8389" x="658" y="526.0903">Les détails du point de terminaison sont mis en cache ; à l&apos;expiration du cache,</text>
    <text fill="#000000" font-family="sans-serif" font-size="13" lengthAdjust="spacing" textLength="239.8081" x="658" y="541.2231">les détails sont récupérés à nouveau</text>
    <polygon fill="#181818" points="1320.7451,586.5547,1330.7451,590.5547,1320.7451,594.5547,1324.7451,590.5547" style="stroke:#181818;stroke-width:1.0;"/>
    <line style="stroke:#181818;stroke-width:1.0;" x1="647.2656" x2="1326.7451" y1="590.5547" y2="590.5547"/>
    <text fill="#000000" font-family="sans-serif" font-size="13" font-weight="bold" lengthAdjust="spacing" textLength="9.0454" x="654.2656" y="577.9224">6</text>
    <text fill="#000000" font-family="sans-serif" font-size="13" lengthAdjust="spacing" textLength="653.4341" x="667.311" y="570.356">Demander les détails du point de terminaison du participant - GET - /participants/{{fsp}}/endpoints</text>
    <text fill="#FF0000" font-family="sans-serif" font-size="13" font-weight="bold" lengthAdjust="spacing" textLength="110.2524" x="667.311" y="585.4888">Code d&apos;erreur :</text>
    <text fill="#FF0000" font-family="sans-serif" font-size="13" lengthAdjust="spacing" textLength="33.084" x="781.6958" y="585.4888">2003</text>
    <polygon fill="#181818" points="1767.9683,630.8203,1777.9683,634.8203,1767.9683,638.8203,1771.9683,634.8203" style="stroke:#181818;stroke-width:1.0;"/>
    <line style="stroke:#181818;stroke-width:1.0;" x1="1342.7451" x2="1773.9683" y1="634.8203" y2="634.8203"/>
    <text fill="#000000" font-family="sans-serif" font-size="13" font-weight="bold" lengthAdjust="spacing" textLength="9.0454" x="1349.7451" y="622.188">7</text>
    <text fill="#000000" font-family="sans-serif" font-size="13" lengthAdjust="spacing" textLength="392.3359" x="1362.7905" y="614.6216">Récupérer les détails de point de terminaison du participant</text>
    <text fill="#FF0000" font-family="sans-serif" font-size="13" font-weight="bold" lengthAdjust="spacing" textLength="110.2524" x="1362.7905" y="629.7544">Code d&apos;erreur :</text>
    <text fill="#FF0000" font-family="sans-serif" font-size="13" lengthAdjust="spacing" textLength="33.084" x="1477.1753" y="629.7544">2003</text>
    <polygon fill="#181818" points="2202.3496,659.9531,2212.3496,663.9531,2202.3496,667.9531,2206.3496,663.9531" style="stroke:#181818;stroke-width:1.0;"/>
    <line style="stroke:#181818;stroke-width:1.0;" x1="1789.9683" x2="2208.3496" y1="663.9531" y2="663.9531"/>
    <text fill="#000000" font-family="sans-serif" font-size="13" font-weight="bold" lengthAdjust="spacing" textLength="9.0454" x="1796.9683" y="658.8872">8</text>
    <text fill="#000000" font-family="sans-serif" font-size="13" lengthAdjust="spacing" textLength="392.3359" x="1810.0137" y="658.8872">Récupérer les détails de point de terminaison du participant</text>
    <polygon fill="#FFFFE0" points="2153,676.9531,2285,676.9531,2295,687.9531,2285,699.9531,2153,699.9531,2143,687.9531,2153,676.9531" style="stroke:#181818;stroke-width:0.5;"/>
    <text fill="#000000" font-family="sans-serif" font-size="13" lengthAdjust="spacing" textLength="128.4448" x="2155" y="693.02">participantEndpoint</text>
    <polygon fill="#181818" points="1800.9683,722.2188,1790.9683,726.2188,1800.9683,730.2188,1796.9683,726.2188" style="stroke:#181818;stroke-width:1.0;"/>
    <line style="stroke:#181818;stroke-width:1.0;" x1="1794.9683" x2="2218.3496" y1="726.2188" y2="726.2188"/>
    <text fill="#000000" font-family="sans-serif" font-size="13" font-weight="bold" lengthAdjust="spacing" textLength="9.0454" x="1806.9683" y="721.1528">9</text>
    <text fill="#000000" font-family="sans-serif" font-size="13" lengthAdjust="spacing" textLength="369.5605" x="1820.0137" y="721.1528">Détails du point de terminaison du participant récupérés</text>
    <polygon fill="#181818" points="1353.7451,751.3516,1343.7451,755.3516,1353.7451,759.3516,1349.7451,755.3516" style="stroke:#181818;stroke-width:1.0;"/>
    <line style="stroke:#181818;stroke-width:1.0;stroke-dasharray:2.0,2.0;" x1="1347.7451" x2="1783.9683" y1="755.3516" y2="755.3516"/>
    <text fill="#000000" font-family="sans-serif" font-size="13" font-weight="bold" lengthAdjust="spacing" textLength="18.0908" x="1359.7451" y="750.2856">10</text>
    <text fill="#000000" font-family="sans-serif" font-size="13" lengthAdjust="spacing" textLength="386.9341" x="1381.8359" y="750.2856">Renvoyer les détails de point de terminaison du participant</text>
    <polygon fill="#181818" points="658.2656,795.6172,648.2656,799.6172,658.2656,803.6172,654.2656,799.6172" style="stroke:#181818;stroke-width:1.0;"/>
    <line style="stroke:#181818;stroke-width:1.0;stroke-dasharray:2.0,2.0;" x1="652.2656" x2="1336.7451" y1="799.6172" y2="799.6172"/>
    <text fill="#000000" font-family="sans-serif" font-size="13" font-weight="bold" lengthAdjust="spacing" textLength="18.0908" x="664.2656" y="786.9849">11</text>
    <text fill="#000000" font-family="sans-serif" font-size="13" lengthAdjust="spacing" textLength="386.9341" x="686.3564" y="779.4185">Renvoyer les détails de point de terminaison du participant</text>
    <text fill="#FF0000" font-family="sans-serif" font-size="13" font-weight="bold" lengthAdjust="spacing" textLength="117.9902" x="686.3564" y="794.5513">Codes d&apos;erreur :</text>
    <text fill="#FF0000" font-family="sans-serif" font-size="13" lengthAdjust="spacing" textLength="74.4326" x="808.479" y="794.5513">3202, 3203</text>
    <polygon fill="#181818" points="139.925,855.0156,129.925,859.0156,139.925,863.0156,135.925,859.0156" style="stroke:#181818;stroke-width:1.0;"/>
    <line style="stroke:#181818;stroke-width:1.0;" x1="133.925" x2="636.2656" y1="859.0156" y2="859.0156"/>
    <text fill="#000000" font-family="sans-serif" font-size="13" font-weight="bold" lengthAdjust="spacing" textLength="18.0908" x="145.925" y="838.8169">12</text>
    <text fill="#000000" font-family="sans-serif" font-size="13" lengthAdjust="spacing" textLength="377.3364" x="168.0159" y="823.6841">Notification avec résultat/erreur de préparation/exécution</text>
    <text fill="#000000" font-family="sans-serif" font-size="13" lengthAdjust="spacing" textLength="375.4258" x="168.0159" y="838.8169">au DFSP payeur sur le point de terminaison spécifié - PUT</text>
    <text fill="#FF0000" font-family="sans-serif" font-size="13" font-weight="bold" lengthAdjust="spacing" textLength="110.2524" x="168.0159" y="853.9497">Code d&apos;erreur :</text>
    <text fill="#FF0000" font-family="sans-serif" font-size="13" lengthAdjust="spacing" textLength="33.084" x="282.4006" y="853.9497">1001</text>
    <polygon fill="#181818" points="625.2656,884.1484,635.2656,888.1484,625.2656,892.1484,629.2656,888.1484" style="stroke:#181818;stroke-width:1.0;"/>
    <line style="stroke:#181818;stroke-width:1.0;stroke-dasharray:2.0,2.0;" x1="128.925" x2="631.2656" y1="888.1484" y2="888.1484"/>
    <text fill="#000000" font-family="sans-serif" font-size="13" font-weight="bold" lengthAdjust="spacing" textLength="18.0908" x="135.925" y="883.0825">13</text>
    <text fill="#000000" font-family="sans-serif" font-size="13" lengthAdjust="spacing" textLength="85.3315" x="158.0159" y="883.0825">HTTP 200 OK</text>
    <path d="M444.5493,903.1484 L508.9922,903.1484 L508.9922,910.2813 L498.9922,920.2813 L444.5493,920.2813 L444.5493,903.1484 " fill="#EEEEEE" style="stroke:#000000;stroke-width:1.5;"/>
    <rect fill="none" height="146.6641" style="stroke:#000000;stroke-width:1.5;" width="2036.5874" x="444.5493" y="903.1484"/>
    <text fill="#000000" font-family="sans-serif" font-size="13" font-weight="bold" lengthAdjust="spacing" textLength="19.4429" x="459.5493" y="916.2153">alt</text>
    <text fill="#000000" font-family="sans-serif" font-size="11" font-weight="bold" lengthAdjust="spacing" textLength="176.7681" x="523.9922" y="915.3589">[event.action === &apos;reserve&apos;]</text>
    <path d="M454.5493,927.2813 L518.9922,927.2813 L518.9922,934.4141 L508.9922,944.4141 L454.5493,944.4141 L454.5493,927.2813 " fill="#EEEEEE" style="stroke:#000000;stroke-width:1.5;"/>
    <rect fill="none" height="115.5313" style="stroke:#000000;stroke-width:1.5;" width="2016.5874" x="454.5493" y="927.2813"/>
    <text fill="#000000" font-family="sans-serif" font-size="13" font-weight="bold" lengthAdjust="spacing" textLength="19.4429" x="469.5493" y="940.3481">alt</text>
    <text fill="#000000" font-family="sans-serif" font-size="11" font-weight="bold" lengthAdjust="spacing" textLength="178.2988" x="533.9922" y="939.4917">[event.status === &apos;success&apos;]</text>
    <polygon fill="#181818" points="2404.564,976.6797,2414.564,980.6797,2404.564,984.6797,2408.564,980.6797" style="stroke:#181818;stroke-width:1.0;"/>
    <line style="stroke:#181818;stroke-width:1.0;" x1="647.2656" x2="2410.564" y1="980.6797" y2="980.6797"/>
    <text fill="#000000" font-family="sans-serif" font-size="13" font-weight="bold" lengthAdjust="spacing" textLength="18.0908" x="654.2656" y="968.0474">14</text>
    <text fill="#000000" font-family="sans-serif" font-size="13" lengthAdjust="spacing" textLength="768.6567" x="676.3564" y="960.481">Notification avec résultat d&apos;exécution réussi (validé) au DFSP bénéficiaire sur le point de terminaison spécifié - PATCH</text>
    <text fill="#FF0000" font-family="sans-serif" font-size="13" font-weight="bold" lengthAdjust="spacing" textLength="110.2524" x="676.3564" y="975.6138">Code d&apos;erreur :</text>
    <text fill="#FF0000" font-family="sans-serif" font-size="13" lengthAdjust="spacing" textLength="33.084" x="790.7412" y="975.6138">1001</text>
    <polygon fill="#181818" points="658.2656,1030.8125,648.2656,1034.8125,658.2656,1038.8125,654.2656,1034.8125" style="stroke:#181818;stroke-width:1.0;"/>
    <line style="stroke:#181818;stroke-width:1.0;stroke-dasharray:2.0,2.0;" x1="652.2656" x2="2415.564" y1="1034.8125" y2="1034.8125"/>
    <text fill="#000000" font-family="sans-serif" font-size="13" font-weight="bold" lengthAdjust="spacing" textLength="18.0908" x="664.2656" y="1029.7466">15</text>
    <text fill="#000000" font-family="sans-serif" font-size="13" lengthAdjust="spacing" textLength="85.3315" x="686.3564" y="1029.7466">HTTP 200 OK</text>
  </g>
</svg>
