<svg xmlns="http://www.w3.org/2000/svg" xmlns:xlink="http://www.w3.org/1999/xlink" contentStyleType="text/css" height="1672px" preserveAspectRatio="none" style="width:1446px;height:1672px;background:#FFFFFF;" version="1.1" viewBox="0 0 1446 1672" width="1446px" zoomAndPan="magnify">
  <title>1.3.0. Consommation par le gestionnaire de position (message unique)</title>
  <defs/>
  <g>
    <text fill="#000000" font-family="sans-serif" font-size="14" font-weight="bold" lengthAdjust="spacing" textLength="561.9756" x="443.9575" y="27.9951">1.3.0. Consommation par le gestionnaire de position (message unique)</text>
    <rect fill="#FFFFE0" height="1623.3438" style="stroke:#181818;stroke-width:0.5;" width="1398.8906" x="26" y="43.2969"/>
    <text fill="#000000" font-family="sans-serif" font-size="13" font-weight="bold" lengthAdjust="spacing" textLength="110.2017" x="670.3445" y="55.3638">Service central</text>
    <rect fill="#FFFFFF" height="30" style="stroke:#181818;stroke-width:1.0;" width="10" x="111.687" y="190.125"/>
    <rect fill="#FFFFFF" height="30" style="stroke:#181818;stroke-width:1.0;" width="10" x="111.687" y="664.1328"/>
    <rect fill="#FFFFFF" height="30" style="stroke:#181818;stroke-width:1.0;" width="10" x="111.687" y="1138.1406"/>
    <rect fill="#FFFFFF" height="1484.6172" style="stroke:#181818;stroke-width:1.0;" width="10" x="606.7393" y="120.7266"/>
    <rect fill="none" height="1470.6172" style="stroke:#000000;stroke-width:1.5;" width="1430.8906" x="10" y="127.7266"/>
    <rect fill="none" height="1439.4844" style="stroke:#000000;stroke-width:1.5;" width="1410.8906" x="20" y="151.8594"/>
    <rect fill="none" height="105.5313" style="stroke:#000000;stroke-width:1.5;" width="638.2861" x="503.1704" y="235.125"/>
    <rect fill="none" height="74.3984" style="stroke:#000000;stroke-width:1.5;" width="618.2861" x="513.1704" y="259.2578"/>
    <rect fill="none" height="154.3359" style="stroke:#000000;stroke-width:1.5;" width="721.0845" x="513.1704" y="354.6563"/>
    <rect fill="none" height="105.5313" style="stroke:#000000;stroke-width:1.5;" width="636.2676" x="503.1704" y="709.1328"/>
    <rect fill="none" height="74.3984" style="stroke:#000000;stroke-width:1.5;" width="616.2676" x="513.1704" y="733.2656"/>
    <rect fill="none" height="154.3359" style="stroke:#000000;stroke-width:1.5;" width="721.0845" x="513.1704" y="828.6641"/>
    <rect fill="none" height="120.6641" style="stroke:#000000;stroke-width:1.5;" width="514.8306" x="503.1704" y="1183.1406"/>
    <rect fill="none" height="89.5313" style="stroke:#000000;stroke-width:1.5;" width="494.8306" x="513.1704" y="1207.2734"/>
    <rect fill="none" height="154.3359" style="stroke:#000000;stroke-width:1.5;" width="721.0845" x="513.1704" y="1317.8047"/>
    <line style="stroke:#181818;stroke-width:0.5;stroke-dasharray:5.0,5.0;" x1="116" x2="116" y1="110.7266" y2="1615.3438"/>
    <line style="stroke:#181818;stroke-width:0.5;stroke-dasharray:5.0,5.0;" x1="611.1704" x2="611.1704" y1="110.7266" y2="1615.3438"/>
    <line style="stroke:#181818;stroke-width:0.5;stroke-dasharray:5.0,5.0;" x1="1130.6582" x2="1130.6582" y1="110.7266" y2="1615.3438"/>
    <line style="stroke:#181818;stroke-width:0.5;stroke-dasharray:5.0,5.0;" x1="1327.2549" x2="1327.2549" y1="110.7266" y2="1615.3438"/>
    <rect fill="#E2E2F0" height="30.2969" style="stroke:#181818;stroke-width:0.5;" width="169.374" x="34" y="75.4297"/>
    <rect fill="#E2E2F0" height="30.2969" style="stroke:#181818;stroke-width:0.5;" width="169.374" x="30" y="79.4297"/>
    <text fill="#000000" font-family="sans-serif" font-size="14" lengthAdjust="spacing" textLength="155.374" x="37" y="99.4248">topic-transfer-position</text>
    <rect fill="#E2E2F0" height="30.2969" style="stroke:#181818;stroke-width:0.5;" width="169.374" x="34" y="1614.3438"/>
    <rect fill="#E2E2F0" height="30.2969" style="stroke:#181818;stroke-width:0.5;" width="169.374" x="30" y="1618.3438"/>
    <text fill="#000000" font-family="sans-serif" font-size="14" lengthAdjust="spacing" textLength="155.374" x="37" y="1638.3389">topic-transfer-position</text>
    <text fill="#000000" font-family="sans-serif" font-size="14" lengthAdjust="spacing" textLength="171.1377" x="523.1704" y="107.4248">Gestionnaire de position</text>
    <ellipse cx="611.7393" cy="78.4297" fill="#E2E2F0" rx="12" ry="12" style="stroke:#181818;stroke-width:0.5;"/>
    <polygon fill="#181818" points="607.7393,66.4297,613.7393,61.4297,611.7393,66.4297,613.7393,71.4297,607.7393,66.4297" style="stroke:#181818;stroke-width:1.0;"/>
    <text fill="#000000" font-family="sans-serif" font-size="14" lengthAdjust="spacing" textLength="171.1377" x="523.1704" y="1627.3389">Gestionnaire de position</text>
    <ellipse cx="611.7393" cy="1646.6406" fill="#E2E2F0" rx="12" ry="12" style="stroke:#181818;stroke-width:0.5;"/>
    <polygon fill="#181818" points="607.7393,1634.6406,613.7393,1629.6406,611.7393,1634.6406,613.7393,1639.6406,607.7393,1634.6406" style="stroke:#181818;stroke-width:1.0;"/>
    <rect fill="#E2E2F0" height="30.2969" style="stroke:#181818;stroke-width:0.5;" width="181.5967" x="1042.6582" y="75.4297"/>
    <rect fill="#E2E2F0" height="30.2969" style="stroke:#181818;stroke-width:0.5;" width="181.5967" x="1038.6582" y="79.4297"/>
    <text fill="#000000" font-family="sans-serif" font-size="14" lengthAdjust="spacing" textLength="167.5967" x="1045.6582" y="99.4248">Rubrique d&apos;événements</text>
    <rect fill="#E2E2F0" height="30.2969" style="stroke:#181818;stroke-width:0.5;" width="181.5967" x="1042.6582" y="1614.3438"/>
    <rect fill="#E2E2F0" height="30.2969" style="stroke:#181818;stroke-width:0.5;" width="181.5967" x="1038.6582" y="1618.3438"/>
    <text fill="#000000" font-family="sans-serif" font-size="14" lengthAdjust="spacing" textLength="167.5967" x="1045.6582" y="1638.3389">Rubrique d&apos;événements</text>
    <rect fill="#E2E2F0" height="30.2969" style="stroke:#181818;stroke-width:0.5;" width="182.6357" x="1238.2549" y="75.4297"/>
    <rect fill="#E2E2F0" height="30.2969" style="stroke:#181818;stroke-width:0.5;" width="182.6357" x="1234.2549" y="79.4297"/>
    <text fill="#000000" font-family="sans-serif" font-size="14" lengthAdjust="spacing" textLength="168.6357" x="1241.2549" y="99.4248">Rubrique de notification</text>
    <rect fill="#E2E2F0" height="30.2969" style="stroke:#181818;stroke-width:0.5;" width="182.6357" x="1238.2549" y="1614.3438"/>
    <rect fill="#E2E2F0" height="30.2969" style="stroke:#181818;stroke-width:0.5;" width="182.6357" x="1234.2549" y="1618.3438"/>
    <text fill="#000000" font-family="sans-serif" font-size="14" lengthAdjust="spacing" textLength="168.6357" x="1241.2549" y="1638.3389">Rubrique de notification</text>
    <rect fill="#FFFFFF" height="30" style="stroke:#181818;stroke-width:1.0;" width="10" x="111.687" y="190.125"/>
    <rect fill="#FFFFFF" height="30" style="stroke:#181818;stroke-width:1.0;" width="10" x="111.687" y="664.1328"/>
    <rect fill="#FFFFFF" height="30" style="stroke:#181818;stroke-width:1.0;" width="10" x="111.687" y="1138.1406"/>
    <rect fill="#FFFFFF" height="1484.6172" style="stroke:#181818;stroke-width:1.0;" width="10" x="606.7393" y="120.7266"/>
    <path d="M10,127.7266 L370.6182,127.7266 L370.6182,134.8594 L360.6182,144.8594 L10,144.8594 L10,127.7266 " fill="#EEEEEE" style="stroke:#000000;stroke-width:1.5;"/>
    <rect fill="none" height="1470.6172" style="stroke:#000000;stroke-width:1.5;" width="1430.8906" x="10" y="127.7266"/>
    <text fill="#000000" font-family="sans-serif" font-size="13" font-weight="bold" lengthAdjust="spacing" textLength="315.6182" x="25" y="140.7935">Consommation du gestionnaire de position</text>
    <path d="M20,151.8594 L84.4429,151.8594 L84.4429,158.9922 L74.4429,168.9922 L20,168.9922 L20,151.8594 " fill="#EEEEEE" style="stroke:#000000;stroke-width:1.5;"/>
    <rect fill="none" height="1439.4844" style="stroke:#000000;stroke-width:1.5;" width="1410.8906" x="20" y="151.8594"/>
    <text fill="#000000" font-family="sans-serif" font-size="13" font-weight="bold" lengthAdjust="spacing" textLength="19.4429" x="35" y="164.9263">alt</text>
    <text fill="#000000" font-family="sans-serif" font-size="11" font-weight="bold" lengthAdjust="spacing" textLength="347.9985" x="99.4429" y="164.0698">[Consommer le message de préparation pour le payeur]</text>
    <polygon fill="#181818" points="132.687,186.125,122.687,190.125,132.687,194.125,128.687,190.125" style="stroke:#181818;stroke-width:1.0;"/>
    <line style="stroke:#181818;stroke-width:1.0;" x1="126.687" x2="605.7393" y1="190.125" y2="190.125"/>
    <text fill="#000000" font-family="sans-serif" font-size="13" font-weight="bold" lengthAdjust="spacing" textLength="9.0454" x="138.687" y="185.0591">1</text>
    <text fill="#000000" font-family="sans-serif" font-size="13" lengthAdjust="spacing" textLength="422.1445" x="151.7324" y="185.0591">Consommer le message d&apos;événement de position pour le payeur</text>
    <path d="M503.1704,235.125 L590.1221,235.125 L590.1221,242.2578 L580.1221,252.2578 L503.1704,252.2578 L503.1704,235.125 " fill="#EEEEEE" style="stroke:#000000;stroke-width:1.5;"/>
    <rect fill="none" height="105.5313" style="stroke:#000000;stroke-width:1.5;" width="638.2861" x="503.1704" y="235.125"/>
    <text fill="#000000" font-family="sans-serif" font-size="13" font-weight="bold" lengthAdjust="spacing" textLength="41.9517" x="518.1704" y="248.1919">break</text>
    <path d="M513.1704,259.2578 L705.4233,259.2578 L705.4233,266.3906 L695.4233,276.3906 L513.1704,276.3906 L513.1704,259.2578 " fill="#EEEEEE" style="stroke:#000000;stroke-width:1.5;"/>
    <rect fill="none" height="74.3984" style="stroke:#000000;stroke-width:1.5;" width="618.2861" x="513.1704" y="259.2578"/>
    <text fill="#000000" font-family="sans-serif" font-size="13" font-weight="bold" lengthAdjust="spacing" textLength="147.2529" x="528.1704" y="272.3247">Valider l&apos;événement</text>
    <line style="stroke:#181818;stroke-width:1.0;" x1="616.7393" x2="658.7393" y1="312.6563" y2="312.6563"/>
    <line style="stroke:#181818;stroke-width:1.0;" x1="658.7393" x2="658.7393" y1="312.6563" y2="325.6563"/>
    <line style="stroke:#181818;stroke-width:1.0;" x1="617.7393" x2="658.7393" y1="325.6563" y2="325.6563"/>
    <polygon fill="#181818" points="626.7393,308.6563,616.7393,312.6563,626.7393,316.6563,622.7393,312.6563" style="stroke:#181818;stroke-width:1.0;"/>
    <polygon fill="#181818" points="627.7393,321.6563,617.7393,325.6563,627.7393,329.6563,623.7393,325.6563" style="stroke:#181818;stroke-width:1.0;"/>
    <text fill="#000000" font-family="sans-serif" font-size="13" font-weight="bold" lengthAdjust="spacing" textLength="9.0454" x="623.7393" y="300.0239">2</text>
    <text fill="#000000" font-family="sans-serif" font-size="13" lengthAdjust="spacing" textLength="472.6719" x="636.7847" y="292.4575">Valider l&apos;événement — règle : type == &apos;position&apos; &amp;&amp; action == &apos;prepare&apos;</text>
    <text fill="#FF0000" font-family="sans-serif" font-size="13" font-weight="bold" lengthAdjust="spacing" textLength="117.9902" x="636.7847" y="307.5903">Codes d&apos;erreur :</text>
    <text fill="#FF0000" font-family="sans-serif" font-size="13" lengthAdjust="spacing" textLength="33.084" x="758.9072" y="307.5903">2001</text>
    <path d="M513.1704,354.6563 L847.8076,354.6563 L847.8076,361.7891 L837.8076,371.7891 L513.1704,371.7891 L513.1704,354.6563 " fill="#EEEEEE" style="stroke:#000000;stroke-width:1.5;"/>
    <rect fill="none" height="154.3359" style="stroke:#000000;stroke-width:1.5;" width="721.0845" x="513.1704" y="354.6563"/>
    <text fill="#000000" font-family="sans-serif" font-size="13" font-weight="bold" lengthAdjust="spacing" textLength="289.6372" x="528.1704" y="367.7231">Persister les informations d&apos;événement</text>
    <polygon fill="#181818" points="1119.4565,413.9219,1129.4565,417.9219,1119.4565,421.9219,1123.4565,417.9219" style="stroke:#181818;stroke-width:1.0;"/>
    <line style="stroke:#181818;stroke-width:1.0;" x1="616.7393" x2="1125.4565" y1="417.9219" y2="417.9219"/>
    <text fill="#000000" font-family="sans-serif" font-size="13" font-weight="bold" lengthAdjust="spacing" textLength="9.0454" x="623.7393" y="412.856">3</text>
    <text fill="#000000" font-family="sans-serif" font-size="13" lengthAdjust="spacing" textLength="243.458" x="636.7847" y="412.856">Publier les informations d&apos;événement</text>
    <rect fill="none" height="53.0703" style="stroke:#000000;stroke-width:1.5;" width="707.0845" x="520.1704" y="425.9219"/>
    <path d="M520.1704,425.9219 L585.1704,425.9219 L585.1704,432.9219 L575.1704,442.9219 L520.1704,442.9219 L520.1704,425.9219 " fill="#EEEEEE" style="stroke:#000000;stroke-width:2.0;"/>
    <text fill="#000000" font-family="sans-serif" font-size="13" font-weight="bold" lengthAdjust="spacing" textLength="20.8838" x="533.1704" y="439.9888">ref</text>
    <text fill="#000000" font-family="sans-serif" font-size="12" lengthAdjust="spacing" textLength="277.5586" x="734.9333" y="458.0605">Consommation du gestionnaire d&apos;événements</text>
    <text fill="#000000" font-family="sans-serif" font-size="12" lengthAdjust="spacing" textLength="3.8145" x="871.8054" y="472.0293"> </text>
    <rect fill="none" height="53.0703" style="stroke:#000000;stroke-width:1.5;" width="369.0664" x="520.1704" y="540.9922"/>
    <path d="M520.1704,540.9922 L585.1704,540.9922 L585.1704,547.9922 L575.1704,557.9922 L520.1704,557.9922 L520.1704,540.9922 " fill="#EEEEEE" style="stroke:#000000;stroke-width:2.0;"/>
    <text fill="#000000" font-family="sans-serif" font-size="13" font-weight="bold" lengthAdjust="spacing" textLength="20.8838" x="533.1704" y="555.0591">ref</text>
    <text fill="#000000" font-family="sans-serif" font-size="12" lengthAdjust="spacing" textLength="361.0664" x="524.1704" y="573.1309">Consommation par le gestionnaire de position (préparation)</text>
    <text fill="#000000" font-family="sans-serif" font-size="12" lengthAdjust="spacing" textLength="3.8145" x="702.7964" y="587.0996"> </text>
    <polygon fill="#181818" points="1315.5728,616.1953,1325.5728,620.1953,1315.5728,624.1953,1319.5728,620.1953" style="stroke:#181818;stroke-width:1.0;"/>
    <line style="stroke:#181818;stroke-width:1.0;" x1="616.7393" x2="1321.5728" y1="620.1953" y2="620.1953"/>
    <text fill="#000000" font-family="sans-serif" font-size="13" font-weight="bold" lengthAdjust="spacing" textLength="9.0454" x="623.7393" y="615.1294">4</text>
    <text fill="#000000" font-family="sans-serif" font-size="13" lengthAdjust="spacing" textLength="132.8818" x="636.7847" y="615.1294">Produire le message</text>
    <line style="stroke:#000000;stroke-width:1.0;stroke-dasharray:2.0,2.0;" x1="20" x2="1430.8906" y1="629.1953" y2="629.1953"/>
    <text fill="#000000" font-family="sans-serif" font-size="11" font-weight="bold" lengthAdjust="spacing" textLength="357.9082" x="25" y="639.4058">[Consommer le message d&apos;exécution pour le bénéficiaire]</text>
    <polygon fill="#181818" points="132.687,660.1328,122.687,664.1328,132.687,668.1328,128.687,664.1328" style="stroke:#181818;stroke-width:1.0;"/>
    <line style="stroke:#181818;stroke-width:1.0;" x1="126.687" x2="605.7393" y1="664.1328" y2="664.1328"/>
    <text fill="#000000" font-family="sans-serif" font-size="13" font-weight="bold" lengthAdjust="spacing" textLength="9.0454" x="138.687" y="659.0669">5</text>
    <text fill="#000000" font-family="sans-serif" font-size="13" lengthAdjust="spacing" textLength="453.0068" x="151.7324" y="659.0669">Consommer le message d&apos;événement de position pour le bénéficiaire</text>
    <path d="M503.1704,709.1328 L590.1221,709.1328 L590.1221,716.2656 L580.1221,726.2656 L503.1704,726.2656 L503.1704,709.1328 " fill="#EEEEEE" style="stroke:#000000;stroke-width:1.5;"/>
    <rect fill="none" height="105.5313" style="stroke:#000000;stroke-width:1.5;" width="636.2676" x="503.1704" y="709.1328"/>
    <text fill="#000000" font-family="sans-serif" font-size="13" font-weight="bold" lengthAdjust="spacing" textLength="41.9517" x="518.1704" y="722.1997">break</text>
    <path d="M513.1704,733.2656 L705.4233,733.2656 L705.4233,740.3984 L695.4233,750.3984 L513.1704,750.3984 L513.1704,733.2656 " fill="#EEEEEE" style="stroke:#000000;stroke-width:1.5;"/>
    <rect fill="none" height="74.3984" style="stroke:#000000;stroke-width:1.5;" width="616.2676" x="513.1704" y="733.2656"/>
    <text fill="#000000" font-family="sans-serif" font-size="13" font-weight="bold" lengthAdjust="spacing" textLength="147.2529" x="528.1704" y="746.3325">Valider l&apos;événement</text>
    <line style="stroke:#181818;stroke-width:1.0;" x1="616.7393" x2="658.7393" y1="786.6641" y2="786.6641"/>
    <line style="stroke:#181818;stroke-width:1.0;" x1="658.7393" x2="658.7393" y1="786.6641" y2="799.6641"/>
    <line style="stroke:#181818;stroke-width:1.0;" x1="617.7393" x2="658.7393" y1="799.6641" y2="799.6641"/>
    <polygon fill="#181818" points="626.7393,782.6641,616.7393,786.6641,626.7393,790.6641,622.7393,786.6641" style="stroke:#181818;stroke-width:1.0;"/>
    <polygon fill="#181818" points="627.7393,795.6641,617.7393,799.6641,627.7393,803.6641,623.7393,799.6641" style="stroke:#181818;stroke-width:1.0;"/>
    <text fill="#000000" font-family="sans-serif" font-size="13" font-weight="bold" lengthAdjust="spacing" textLength="9.0454" x="623.7393" y="774.0317">6</text>
    <text fill="#000000" font-family="sans-serif" font-size="13" lengthAdjust="spacing" textLength="470.6533" x="636.7847" y="766.4653">Valider l&apos;événement — règle : type == &apos;position&apos; &amp;&amp; action == &apos;commit&apos;</text>
    <text fill="#FF0000" font-family="sans-serif" font-size="13" font-weight="bold" lengthAdjust="spacing" textLength="117.9902" x="636.7847" y="781.5981">Codes d&apos;erreur :</text>
    <text fill="#FF0000" font-family="sans-serif" font-size="13" lengthAdjust="spacing" textLength="33.084" x="758.9072" y="781.5981">2001</text>
    <path d="M513.1704,828.6641 L847.8076,828.6641 L847.8076,835.7969 L837.8076,845.7969 L513.1704,845.7969 L513.1704,828.6641 " fill="#EEEEEE" style="stroke:#000000;stroke-width:1.5;"/>
    <rect fill="none" height="154.3359" style="stroke:#000000;stroke-width:1.5;" width="721.0845" x="513.1704" y="828.6641"/>
    <text fill="#000000" font-family="sans-serif" font-size="13" font-weight="bold" lengthAdjust="spacing" textLength="289.6372" x="528.1704" y="841.731">Persister les informations d&apos;événement</text>
    <polygon fill="#181818" points="1119.4565,887.9297,1129.4565,891.9297,1119.4565,895.9297,1123.4565,891.9297" style="stroke:#181818;stroke-width:1.0;"/>
    <line style="stroke:#181818;stroke-width:1.0;" x1="616.7393" x2="1125.4565" y1="891.9297" y2="891.9297"/>
    <text fill="#000000" font-family="sans-serif" font-size="13" font-weight="bold" lengthAdjust="spacing" textLength="9.0454" x="623.7393" y="886.8638">7</text>
    <text fill="#000000" font-family="sans-serif" font-size="13" lengthAdjust="spacing" textLength="243.458" x="636.7847" y="886.8638">Publier les informations d&apos;événement</text>
    <rect fill="none" height="53.0703" style="stroke:#000000;stroke-width:1.5;" width="707.0845" x="520.1704" y="899.9297"/>
    <path d="M520.1704,899.9297 L585.1704,899.9297 L585.1704,906.9297 L575.1704,916.9297 L520.1704,916.9297 L520.1704,899.9297 " fill="#EEEEEE" style="stroke:#000000;stroke-width:2.0;"/>
    <text fill="#000000" font-family="sans-serif" font-size="13" font-weight="bold" lengthAdjust="spacing" textLength="20.8838" x="533.1704" y="913.9966">ref</text>
    <text fill="#000000" font-family="sans-serif" font-size="12" lengthAdjust="spacing" textLength="277.5586" x="734.9333" y="932.0684">Consommation du gestionnaire d&apos;événements</text>
    <text fill="#000000" font-family="sans-serif" font-size="12" lengthAdjust="spacing" textLength="3.8145" x="871.8054" y="946.0371"> </text>
    <rect fill="none" height="53.0703" style="stroke:#000000;stroke-width:1.5;" width="357.9453" x="520.1704" y="1015"/>
    <path d="M520.1704,1015 L585.1704,1015 L585.1704,1022 L575.1704,1032 L520.1704,1032 L520.1704,1015 " fill="#EEEEEE" style="stroke:#000000;stroke-width:2.0;"/>
    <text fill="#000000" font-family="sans-serif" font-size="13" font-weight="bold" lengthAdjust="spacing" textLength="20.8838" x="533.1704" y="1029.0669">ref</text>
    <text fill="#000000" font-family="sans-serif" font-size="12" lengthAdjust="spacing" textLength="349.9453" x="524.1704" y="1047.1387">Consommation par le gestionnaire de position (exécution)</text>
    <text fill="#000000" font-family="sans-serif" font-size="12" lengthAdjust="spacing" textLength="3.8145" x="697.2358" y="1061.1074"> </text>
    <polygon fill="#181818" points="1315.5728,1090.2031,1325.5728,1094.2031,1315.5728,1098.2031,1319.5728,1094.2031" style="stroke:#181818;stroke-width:1.0;"/>
    <line style="stroke:#181818;stroke-width:1.0;" x1="616.7393" x2="1321.5728" y1="1094.2031" y2="1094.2031"/>
    <text fill="#000000" font-family="sans-serif" font-size="13" font-weight="bold" lengthAdjust="spacing" textLength="9.0454" x="623.7393" y="1089.1372">8</text>
    <text fill="#000000" font-family="sans-serif" font-size="13" lengthAdjust="spacing" textLength="132.8818" x="636.7847" y="1089.1372">Produire le message</text>
    <line style="stroke:#000000;stroke-width:1.0;stroke-dasharray:2.0,2.0;" x1="20" x2="1430.8906" y1="1103.2031" y2="1103.2031"/>
    <text fill="#000000" font-family="sans-serif" font-size="11" font-weight="bold" lengthAdjust="spacing" textLength="225.978" x="25" y="1113.4136">[Consommer le message d&apos;abandon]</text>
    <polygon fill="#181818" points="132.687,1134.1406,122.687,1138.1406,132.687,1142.1406,128.687,1138.1406" style="stroke:#181818;stroke-width:1.0;"/>
    <line style="stroke:#181818;stroke-width:1.0;" x1="126.687" x2="605.7393" y1="1138.1406" y2="1138.1406"/>
    <text fill="#000000" font-family="sans-serif" font-size="13" font-weight="bold" lengthAdjust="spacing" textLength="9.0454" x="138.687" y="1133.0747">9</text>
    <text fill="#000000" font-family="sans-serif" font-size="13" lengthAdjust="spacing" textLength="322.8545" x="151.7324" y="1133.0747">Consommer le message d&apos;événement de position</text>
    <path d="M503.1704,1183.1406 L590.1221,1183.1406 L590.1221,1190.2734 L580.1221,1200.2734 L503.1704,1200.2734 L503.1704,1183.1406 " fill="#EEEEEE" style="stroke:#000000;stroke-width:1.5;"/>
    <rect fill="none" height="120.6641" style="stroke:#000000;stroke-width:1.5;" width="514.8306" x="503.1704" y="1183.1406"/>
    <text fill="#000000" font-family="sans-serif" font-size="13" font-weight="bold" lengthAdjust="spacing" textLength="41.9517" x="518.1704" y="1196.2075">break</text>
    <path d="M513.1704,1207.2734 L705.4233,1207.2734 L705.4233,1214.4063 L695.4233,1224.4063 L513.1704,1224.4063 L513.1704,1207.2734 " fill="#EEEEEE" style="stroke:#000000;stroke-width:1.5;"/>
    <rect fill="none" height="89.5313" style="stroke:#000000;stroke-width:1.5;" width="494.8306" x="513.1704" y="1207.2734"/>
    <text fill="#000000" font-family="sans-serif" font-size="13" font-weight="bold" lengthAdjust="spacing" textLength="147.2529" x="528.1704" y="1220.3403">Valider l&apos;événement</text>
    <line style="stroke:#181818;stroke-width:1.0;" x1="616.7393" x2="658.7393" y1="1275.8047" y2="1275.8047"/>
    <line style="stroke:#181818;stroke-width:1.0;" x1="658.7393" x2="658.7393" y1="1275.8047" y2="1288.8047"/>
    <line style="stroke:#181818;stroke-width:1.0;" x1="617.7393" x2="658.7393" y1="1288.8047" y2="1288.8047"/>
    <polygon fill="#181818" points="626.7393,1271.8047,616.7393,1275.8047,626.7393,1279.8047,622.7393,1275.8047" style="stroke:#181818;stroke-width:1.0;"/>
    <polygon fill="#181818" points="627.7393,1284.8047,617.7393,1288.8047,627.7393,1292.8047,623.7393,1288.8047" style="stroke:#181818;stroke-width:1.0;"/>
    <text fill="#000000" font-family="sans-serif" font-size="13" font-weight="bold" lengthAdjust="spacing" textLength="18.0908" x="623.7393" y="1255.606">10</text>
    <text fill="#000000" font-family="sans-serif" font-size="13" lengthAdjust="spacing" textLength="340.1709" x="645.8301" y="1240.4731">Valider l&apos;événement — règle : type == &apos;position&apos; &amp;&amp;</text>
    <text fill="#000000" font-family="sans-serif" font-size="13" lengthAdjust="spacing" textLength="279.6714" x="645.8301" y="1255.606">action IN [&apos;timeout-reserved&apos;, &apos;reject&apos;, &apos;fail&apos;]</text>
    <text fill="#FF0000" font-family="sans-serif" font-size="13" font-weight="bold" lengthAdjust="spacing" textLength="117.9902" x="645.8301" y="1270.7388">Codes d&apos;erreur :</text>
    <text fill="#FF0000" font-family="sans-serif" font-size="13" lengthAdjust="spacing" textLength="33.084" x="767.9526" y="1270.7388">2001</text>
    <path d="M513.1704,1317.8047 L847.8076,1317.8047 L847.8076,1324.9375 L837.8076,1334.9375 L513.1704,1334.9375 L513.1704,1317.8047 " fill="#EEEEEE" style="stroke:#000000;stroke-width:1.5;"/>
    <rect fill="none" height="154.3359" style="stroke:#000000;stroke-width:1.5;" width="721.0845" x="513.1704" y="1317.8047"/>
    <text fill="#000000" font-family="sans-serif" font-size="13" font-weight="bold" lengthAdjust="spacing" textLength="289.6372" x="528.1704" y="1330.8716">Persister les informations d&apos;événement</text>
    <polygon fill="#181818" points="1119.4565,1377.0703,1129.4565,1381.0703,1119.4565,1385.0703,1123.4565,1381.0703" style="stroke:#181818;stroke-width:1.0;"/>
    <line style="stroke:#181818;stroke-width:1.0;" x1="616.7393" x2="1125.4565" y1="1381.0703" y2="1381.0703"/>
    <text fill="#000000" font-family="sans-serif" font-size="13" font-weight="bold" lengthAdjust="spacing" textLength="18.0908" x="623.7393" y="1376.0044">11</text>
    <text fill="#000000" font-family="sans-serif" font-size="13" lengthAdjust="spacing" textLength="243.458" x="645.8301" y="1376.0044">Publier les informations d&apos;événement</text>
    <rect fill="none" height="53.0703" style="stroke:#000000;stroke-width:1.5;" width="707.0845" x="520.1704" y="1389.0703"/>
    <path d="M520.1704,1389.0703 L585.1704,1389.0703 L585.1704,1396.0703 L575.1704,1406.0703 L520.1704,1406.0703 L520.1704,1389.0703 " fill="#EEEEEE" style="stroke:#000000;stroke-width:2.0;"/>
    <text fill="#000000" font-family="sans-serif" font-size="13" font-weight="bold" lengthAdjust="spacing" textLength="20.8838" x="533.1704" y="1403.1372">ref</text>
    <text fill="#000000" font-family="sans-serif" font-size="12" lengthAdjust="spacing" textLength="277.5586" x="734.9333" y="1421.209">Consommation du gestionnaire d&apos;événements</text>
    <text fill="#000000" font-family="sans-serif" font-size="12" lengthAdjust="spacing" textLength="3.8145" x="871.8054" y="1435.1777"> </text>
    <rect fill="none" height="53.0703" style="stroke:#000000;stroke-width:1.5;" width="351.3828" x="520.1704" y="1504.1406"/>
    <path d="M520.1704,1504.1406 L585.1704,1504.1406 L585.1704,1511.1406 L575.1704,1521.1406 L520.1704,1521.1406 L520.1704,1504.1406 " fill="#EEEEEE" style="stroke:#000000;stroke-width:2.0;"/>
    <text fill="#000000" font-family="sans-serif" font-size="13" font-weight="bold" lengthAdjust="spacing" textLength="20.8838" x="533.1704" y="1518.2075">ref</text>
    <text fill="#000000" font-family="sans-serif" font-size="12" lengthAdjust="spacing" textLength="343.3828" x="524.1704" y="1536.2793">Consommation par le gestionnaire de position (abandon)</text>
    <text fill="#000000" font-family="sans-serif" font-size="12" lengthAdjust="spacing" textLength="3.8145" x="693.9546" y="1550.248"> </text>
    <polygon fill="#181818" points="1315.5728,1579.3438,1325.5728,1583.3438,1315.5728,1587.3438,1319.5728,1583.3438" style="stroke:#181818;stroke-width:1.0;"/>
    <line style="stroke:#181818;stroke-width:1.0;" x1="616.7393" x2="1321.5728" y1="1583.3438" y2="1583.3438"/>
    <text fill="#000000" font-family="sans-serif" font-size="13" font-weight="bold" lengthAdjust="spacing" textLength="18.0908" x="623.7393" y="1578.2778">12</text>
    <text fill="#000000" font-family="sans-serif" font-size="13" lengthAdjust="spacing" textLength="132.8818" x="645.8301" y="1578.2778">Produire le message</text>
  </g>
</svg>
