<svg xmlns="http://www.w3.org/2000/svg" xmlns:xlink="http://www.w3.org/1999/xlink" contentStyleType="text/css" height="1640px" preserveAspectRatio="none" style="width:2146px;height:1640px;background:#FFFFFF;" version="1.1" viewBox="0 0 2146 1640" width="2146px" zoomAndPan="magnify">
  <title>3.1.0 Détails de rappel (callback) du participant</title>
  <defs/>
  <g>
    <text fill="#000000" font-family="sans-serif" font-size="14" font-weight="bold" lengthAdjust="spacing" textLength="378.793" x="884.9572" y="27.9951">3.1.0 Détails de rappel (callback) du participant</text>
    <rect fill="#ADD8E6" height="1584.6406" style="stroke:#181818;stroke-width:0.5;" width="201.1079" x="1.2625" y="43.2969"/>
    <text fill="#000000" font-family="sans-serif" font-size="13" font-weight="bold" lengthAdjust="spacing" textLength="195.1079" x="4.2625" y="55.3638">Service adaptateur ML API</text>
    <rect fill="#FFFFE0" height="1584.6406" style="stroke:#181818;stroke-width:0.5;" width="1345.6792" x="754.8225" y="43.2969"/>
    <text fill="#000000" font-family="sans-serif" font-size="13" font-weight="bold" lengthAdjust="spacing" textLength="131.1235" x="1362.1003" y="55.3638">Services centraux</text>
    <rect fill="#FFFFFF" height="1410.9141" style="stroke:#181818;stroke-width:1.0;" width="10" x="96.8164" y="134.7266"/>
    <rect fill="#FFFFFF" height="1365.6484" style="stroke:#181818;stroke-width:1.0;" width="10" x="832.9749" y="179.9922"/>
    <rect fill="#FFFFFF" height="637.1875" style="stroke:#181818;stroke-width:1.0;" width="10" x="1182.2576" y="209.125"/>
    <rect fill="#FFFFFF" height="626.0625" style="stroke:#181818;stroke-width:1.0;" width="10" x="1182.2576" y="875.4453"/>
    <rect fill="#FFFFFF" height="120.5313" style="stroke:#181818;stroke-width:1.0;" width="10" x="1602.5642" y="253.3906"/>
    <rect fill="#FFFFFF" height="185.9297" style="stroke:#181818;stroke-width:1.0;" width="10" x="1602.5642" y="550.7188"/>
    <rect fill="#FFFFFF" height="170.7969" style="stroke:#181818;stroke-width:1.0;" width="10" x="1602.5642" y="934.5156"/>
    <rect fill="#FFFFFF" height="62.2656" style="stroke:#181818;stroke-width:1.0;" width="10" x="2029.4153" y="282.5234"/>
    <rect fill="#FFFFFF" height="127.6641" style="stroke:#181818;stroke-width:1.0;" width="10" x="2029.4153" y="579.8516"/>
    <rect fill="#FFFFFF" height="112.5313" style="stroke:#181818;stroke-width:1.0;" width="10" x="2029.4153" y="963.6484"/>
    <rect fill="none" height="1403.9141" style="stroke:#000000;stroke-width:1.5;" width="2130.4448" x="10" y="141.7266"/>
    <rect fill="none" height="1107.5859" style="stroke:#000000;stroke-width:1.5;" width="2110.4448" x="20" y="431.0547"/>
    <rect fill="none" height="800.1875" style="stroke:#000000;stroke-width:1.5;" width="2090.4448" x="30" y="497.3203"/>
    <line style="stroke:#181818;stroke-width:0.5;stroke-dasharray:5.0,5.0;" x1="101" x2="101" y1="124.7266" y2="1562.6406"/>
    <line style="stroke:#181818;stroke-width:0.5;stroke-dasharray:5.0,5.0;" x1="837.8225" x2="837.8225" y1="124.7266" y2="1562.6406"/>
    <line style="stroke:#181818;stroke-width:0.5;stroke-dasharray:5.0,5.0;" x1="1187.1135" x2="1187.1135" y1="124.7266" y2="1562.6406"/>
    <line style="stroke:#181818;stroke-width:0.5;stroke-dasharray:5.0,5.0;" x1="1606.6428" x2="1606.6428" y1="124.7266" y2="1562.6406"/>
    <line style="stroke:#181818;stroke-width:0.5;stroke-dasharray:5.0,5.0;" x1="2034.3289" x2="2034.3289" y1="124.7266" y2="1562.6406"/>
    <text fill="#000000" font-family="sans-serif" font-size="14" lengthAdjust="spacing" textLength="117.6328" x="40" y="121.4248">ML-API-ADAPTER</text>
    <ellipse cx="101.8164" cy="92.4297" fill="#E2E2F0" rx="12" ry="12" style="stroke:#181818;stroke-width:0.5;"/>
    <line style="stroke:#181818;stroke-width:0.5;" x1="89.8164" x2="113.8164" y1="106.4297" y2="106.4297"/>
    <text fill="#000000" font-family="sans-serif" font-size="14" lengthAdjust="spacing" textLength="117.6328" x="40" y="1574.6357">ML-API-ADAPTER</text>
    <ellipse cx="101.8164" cy="1593.9375" fill="#E2E2F0" rx="12" ry="12" style="stroke:#181818;stroke-width:0.5;"/>
    <line style="stroke:#181818;stroke-width:0.5;" x1="89.8164" x2="113.8164" y1="1607.9375" y2="1607.9375"/>
    <text fill="#000000" font-family="sans-serif" font-size="14" lengthAdjust="spacing" textLength="152.3047" x="758.8225" y="121.4248">API du service central</text>
    <path d="M817.4749,80.4297 L817.4749,104.4297 M817.4749,92.4297 L834.4749,92.4297 " fill="none" style="stroke:#181818;stroke-width:0.5;"/>
    <ellipse cx="846.4749" cy="92.4297" fill="#E2E2F0" rx="12" ry="12" style="stroke:#181818;stroke-width:0.5;"/>
    <text fill="#000000" font-family="sans-serif" font-size="14" lengthAdjust="spacing" textLength="152.3047" x="758.8225" y="1574.6357">API du service central</text>
    <path d="M817.4749,1581.9375 L817.4749,1605.9375 M817.4749,1593.9375 L834.4749,1593.9375 " fill="none" style="stroke:#181818;stroke-width:0.5;"/>
    <ellipse cx="846.4749" cy="1593.9375" fill="#E2E2F0" rx="12" ry="12" style="stroke:#181818;stroke-width:0.5;"/>
    <text fill="#000000" font-family="sans-serif" font-size="14" lengthAdjust="spacing" textLength="206.2881" x="1081.1135" y="121.4248">Gestionnaire des participants</text>
    <ellipse cx="1187.2576" cy="92.4297" fill="#E2E2F0" rx="12" ry="12" style="stroke:#181818;stroke-width:0.5;"/>
    <polygon fill="#181818" points="1183.2576,80.4297,1189.2576,75.4297,1187.2576,80.4297,1189.2576,85.4297,1183.2576,80.4297" style="stroke:#181818;stroke-width:1.0;"/>
    <text fill="#000000" font-family="sans-serif" font-size="14" lengthAdjust="spacing" textLength="206.2881" x="1081.1135" y="1574.6357">Gestionnaire des participants</text>
    <ellipse cx="1187.2576" cy="1593.9375" fill="#E2E2F0" rx="12" ry="12" style="stroke:#181818;stroke-width:0.5;"/>
    <polygon fill="#181818" points="1183.2576,1581.9375,1189.2576,1576.9375,1187.2576,1581.9375,1189.2576,1586.9375,1183.2576,1581.9375" style="stroke:#181818;stroke-width:1.0;"/>
    <text fill="#000000" font-family="sans-serif" font-size="14" lengthAdjust="spacing" textLength="111.8428" x="1548.6428" y="121.4248">DAO participant</text>
    <ellipse cx="1607.5642" cy="92.4297" fill="#E2E2F0" rx="12" ry="12" style="stroke:#181818;stroke-width:0.5;"/>
    <line style="stroke:#181818;stroke-width:0.5;" x1="1595.5642" x2="1619.5642" y1="106.4297" y2="106.4297"/>
    <text fill="#000000" font-family="sans-serif" font-size="14" lengthAdjust="spacing" textLength="111.8428" x="1548.6428" y="1574.6357">DAO participant</text>
    <ellipse cx="1607.5642" cy="1593.9375" fill="#E2E2F0" rx="12" ry="12" style="stroke:#181818;stroke-width:0.5;"/>
    <line style="stroke:#181818;stroke-width:0.5;" x1="1595.5642" x2="1619.5642" y1="1607.9375" y2="1607.9375"/>
    <text fill="#000000" font-family="sans-serif" font-size="14" lengthAdjust="spacing" textLength="118.1729" x="1972.3289" y="121.4248">Stockage central</text>
    <path d="M2016.4153,72.4297 C2016.4153,62.4297 2034.4153,62.4297 2034.4153,62.4297 C2034.4153,62.4297 2052.4153,62.4297 2052.4153,72.4297 L2052.4153,98.4297 C2052.4153,108.4297 2034.4153,108.4297 2034.4153,108.4297 C2034.4153,108.4297 2016.4153,108.4297 2016.4153,98.4297 L2016.4153,72.4297 " fill="#E2E2F0" style="stroke:#181818;stroke-width:1.5;"/>
    <path d="M2016.4153,72.4297 C2016.4153,82.4297 2034.4153,82.4297 2034.4153,82.4297 C2034.4153,82.4297 2052.4153,82.4297 2052.4153,72.4297 " fill="none" style="stroke:#181818;stroke-width:1.5;"/>
    <text fill="#000000" font-family="sans-serif" font-size="14" lengthAdjust="spacing" textLength="118.1729" x="1972.3289" y="1574.6357">Stockage central</text>
    <path d="M2016.4153,1587.9375 C2016.4153,1577.9375 2034.4153,1577.9375 2034.4153,1577.9375 C2034.4153,1577.9375 2052.4153,1577.9375 2052.4153,1587.9375 L2052.4153,1613.9375 C2052.4153,1623.9375 2034.4153,1623.9375 2034.4153,1623.9375 C2034.4153,1623.9375 2016.4153,1623.9375 2016.4153,1613.9375 L2016.4153,1587.9375 " fill="#E2E2F0" style="stroke:#181818;stroke-width:1.5;"/>
    <path d="M2016.4153,1587.9375 C2016.4153,1597.9375 2034.4153,1597.9375 2034.4153,1597.9375 C2034.4153,1597.9375 2052.4153,1597.9375 2052.4153,1587.9375 " fill="none" style="stroke:#181818;stroke-width:1.5;"/>
    <rect fill="#FFFFFF" height="1410.9141" style="stroke:#181818;stroke-width:1.0;" width="10" x="96.8164" y="134.7266"/>
    <rect fill="#FFFFFF" height="1365.6484" style="stroke:#181818;stroke-width:1.0;" width="10" x="832.9749" y="179.9922"/>
    <rect fill="#FFFFFF" height="637.1875" style="stroke:#181818;stroke-width:1.0;" width="10" x="1182.2576" y="209.125"/>
    <rect fill="#FFFFFF" height="626.0625" style="stroke:#181818;stroke-width:1.0;" width="10" x="1182.2576" y="875.4453"/>
    <rect fill="#FFFFFF" height="120.5313" style="stroke:#181818;stroke-width:1.0;" width="10" x="1602.5642" y="253.3906"/>
    <rect fill="#FFFFFF" height="185.9297" style="stroke:#181818;stroke-width:1.0;" width="10" x="1602.5642" y="550.7188"/>
    <rect fill="#FFFFFF" height="170.7969" style="stroke:#181818;stroke-width:1.0;" width="10" x="1602.5642" y="934.5156"/>
    <rect fill="#FFFFFF" height="62.2656" style="stroke:#181818;stroke-width:1.0;" width="10" x="2029.4153" y="282.5234"/>
    <rect fill="#FFFFFF" height="127.6641" style="stroke:#181818;stroke-width:1.0;" width="10" x="2029.4153" y="579.8516"/>
    <rect fill="#FFFFFF" height="112.5313" style="stroke:#181818;stroke-width:1.0;" width="10" x="2029.4153" y="963.6484"/>
    <path d="M10,141.7266 L340.8032,141.7266 L340.8032,148.8594 L330.8032,158.8594 L10,158.8594 L10,141.7266 " fill="#EEEEEE" style="stroke:#000000;stroke-width:1.5;"/>
    <rect fill="none" height="1403.9141" style="stroke:#000000;stroke-width:1.5;" width="2130.4448" x="10" y="141.7266"/>
    <text fill="#000000" font-family="sans-serif" font-size="13" font-weight="bold" lengthAdjust="spacing" textLength="285.8032" x="25" y="154.7935">Obtenir les détails de rappel (callback)</text>
    <polygon fill="#181818" points="820.9749,175.9922,830.9749,179.9922,820.9749,183.9922,824.9749,179.9922" style="stroke:#181818;stroke-width:1.0;"/>
    <line style="stroke:#181818;stroke-width:1.0;" x1="106.8164" x2="826.9749" y1="179.9922" y2="179.9922"/>
    <text fill="#000000" font-family="sans-serif" font-size="13" font-weight="bold" lengthAdjust="spacing" textLength="9.0454" x="113.8164" y="174.9263">1</text>
    <text fill="#000000" font-family="sans-serif" font-size="13" lengthAdjust="spacing" textLength="659.3755" x="126.8618" y="174.9263">Demande d&apos;obtenir les détails de rappel — GET - /participants/{name}/endpoints?type={typeValue}</text>
    <polygon fill="#181818" points="1170.2576,205.125,1180.2576,209.125,1170.2576,213.125,1174.2576,209.125" style="stroke:#181818;stroke-width:1.0;"/>
    <line style="stroke:#181818;stroke-width:1.0;" x1="842.9749" x2="1176.2576" y1="209.125" y2="209.125"/>
    <text fill="#000000" font-family="sans-serif" font-size="13" font-weight="bold" lengthAdjust="spacing" textLength="9.0454" x="849.9749" y="204.0591">2</text>
    <text fill="#000000" font-family="sans-serif" font-size="13" lengthAdjust="spacing" textLength="298.5938" x="863.0203" y="204.0591">Récupérer les détails de rappel du participant</text>
    <polygon fill="#181818" points="1590.5642,249.3906,1600.5642,253.3906,1590.5642,257.3906,1594.5642,253.3906" style="stroke:#181818;stroke-width:1.0;"/>
    <line style="stroke:#181818;stroke-width:1.0;" x1="1192.2576" x2="1596.5642" y1="253.3906" y2="253.3906"/>
    <text fill="#000000" font-family="sans-serif" font-size="13" font-weight="bold" lengthAdjust="spacing" textLength="9.0454" x="1199.2576" y="240.7583">3</text>
    <text fill="#000000" font-family="sans-serif" font-size="13" lengthAdjust="spacing" textLength="157.8154" x="1212.303" y="233.1919">Récupérer le participant</text>
    <text fill="#FF0000" font-family="sans-serif" font-size="13" font-weight="bold" lengthAdjust="spacing" textLength="110.2524" x="1212.303" y="248.3247">Code d&apos;erreur :</text>
    <text fill="#FF0000" font-family="sans-serif" font-size="13" lengthAdjust="spacing" textLength="33.084" x="1326.6877" y="248.3247">3200</text>
    <polygon fill="#181818" points="2017.4153,278.5234,2027.4153,282.5234,2017.4153,286.5234,2021.4153,282.5234" style="stroke:#181818;stroke-width:1.0;"/>
    <line style="stroke:#181818;stroke-width:1.0;" x1="1612.5642" x2="2023.4153" y1="282.5234" y2="282.5234"/>
    <text fill="#000000" font-family="sans-serif" font-size="13" font-weight="bold" lengthAdjust="spacing" textLength="9.0454" x="1619.5642" y="277.4575">4</text>
    <text fill="#000000" font-family="sans-serif" font-size="13" lengthAdjust="spacing" textLength="157.8154" x="1632.6096" y="277.4575">Récupérer le participant</text>
    <polygon fill="#FFFFE0" points="1997,295.5234,2071,295.5234,2081,306.5234,2071,318.5234,1997,318.5234,1987,306.5234,1997,295.5234" style="stroke:#181818;stroke-width:0.5;"/>
    <text fill="#000000" font-family="sans-serif" font-size="13" lengthAdjust="spacing" textLength="70.5859" x="1999" y="311.5903">participant</text>
    <polygon fill="#181818" points="1623.5642,340.7891,1613.5642,344.7891,1623.5642,348.7891,1619.5642,344.7891" style="stroke:#181818;stroke-width:1.0;"/>
    <line style="stroke:#181818;stroke-width:1.0;stroke-dasharray:2.0,2.0;" x1="1617.5642" x2="2033.4153" y1="344.7891" y2="344.7891"/>
    <text fill="#000000" font-family="sans-serif" font-size="13" font-weight="bold" lengthAdjust="spacing" textLength="9.0454" x="1629.5642" y="339.7231">5</text>
    <text fill="#000000" font-family="sans-serif" font-size="13" lengthAdjust="spacing" textLength="132.6279" x="1642.6096" y="339.7231">Participant récupéré</text>
    <polygon fill="#181818" points="1203.2576,369.9219,1193.2576,373.9219,1203.2576,377.9219,1199.2576,373.9219" style="stroke:#181818;stroke-width:1.0;"/>
    <line style="stroke:#181818;stroke-width:1.0;stroke-dasharray:2.0,2.0;" x1="1197.2576" x2="1606.5642" y1="373.9219" y2="373.9219"/>
    <text fill="#000000" font-family="sans-serif" font-size="13" font-weight="bold" lengthAdjust="spacing" textLength="9.0454" x="1209.2576" y="368.856">6</text>
    <text fill="#000000" font-family="sans-serif" font-size="13" lengthAdjust="spacing" textLength="152.4136" x="1222.303" y="368.856">Renvoyer le participant</text>
    <line style="stroke:#181818;stroke-width:1.0;" x1="1192.2576" x2="1234.2576" y1="403.0547" y2="403.0547"/>
    <line style="stroke:#181818;stroke-width:1.0;" x1="1234.2576" x2="1234.2576" y1="403.0547" y2="416.0547"/>
    <line style="stroke:#181818;stroke-width:1.0;" x1="1193.2576" x2="1234.2576" y1="416.0547" y2="416.0547"/>
    <polygon fill="#181818" points="1203.2576,412.0547,1193.2576,416.0547,1203.2576,420.0547,1199.2576,416.0547" style="stroke:#181818;stroke-width:1.0;"/>
    <text fill="#000000" font-family="sans-serif" font-size="13" font-weight="bold" lengthAdjust="spacing" textLength="9.0454" x="1199.2576" y="397.9888">7</text>
    <text fill="#000000" font-family="sans-serif" font-size="13" lengthAdjust="spacing" textLength="99.1313" x="1212.303" y="397.9888">Valider le DFSP</text>
    <path d="M20,431.0547 L84.4429,431.0547 L84.4429,438.1875 L74.4429,448.1875 L20,448.1875 L20,431.0547 " fill="#EEEEEE" style="stroke:#000000;stroke-width:1.5;"/>
    <rect fill="none" height="1107.5859" style="stroke:#000000;stroke-width:1.5;" width="2110.4448" x="20" y="431.0547"/>
    <text fill="#000000" font-family="sans-serif" font-size="13" font-weight="bold" lengthAdjust="spacing" textLength="19.4429" x="35" y="444.1216">alt</text>
    <text fill="#000000" font-family="sans-serif" font-size="11" font-weight="bold" lengthAdjust="spacing" textLength="196.9204" x="99.4429" y="443.2651">[Valider le participant (succès)]</text>
    <line style="stroke:#181818;stroke-width:1.0;" x1="1192.2576" x2="1234.2576" y1="469.3203" y2="469.3203"/>
    <line style="stroke:#181818;stroke-width:1.0;" x1="1234.2576" x2="1234.2576" y1="469.3203" y2="482.3203"/>
    <line style="stroke:#181818;stroke-width:1.0;" x1="1193.2576" x2="1234.2576" y1="482.3203" y2="482.3203"/>
    <polygon fill="#181818" points="1203.2576,478.3203,1193.2576,482.3203,1203.2576,486.3203,1199.2576,482.3203" style="stroke:#181818;stroke-width:1.0;"/>
    <text fill="#000000" font-family="sans-serif" font-size="13" font-weight="bold" lengthAdjust="spacing" textLength="9.0454" x="1199.2576" y="464.2544">8</text>
    <text fill="#000000" font-family="sans-serif" font-size="13" lengthAdjust="spacing" textLength="282.2549" x="1212.303" y="464.2544">vérifier si le paramètre « type » est envoyé</text>
    <path d="M30,497.3203 L94.4429,497.3203 L94.4429,504.4531 L84.4429,514.4531 L30,514.4531 L30,497.3203 " fill="#EEEEEE" style="stroke:#000000;stroke-width:1.5;"/>
    <rect fill="none" height="800.1875" style="stroke:#000000;stroke-width:1.5;" width="2090.4448" x="30" y="497.3203"/>
    <text fill="#000000" font-family="sans-serif" font-size="13" font-weight="bold" lengthAdjust="spacing" textLength="19.4429" x="45" y="510.3872">alt</text>
    <text fill="#000000" font-family="sans-serif" font-size="11" font-weight="bold" lengthAdjust="spacing" textLength="210.4395" x="109.4429" y="509.5308">[Paramètre « type » envoyé (oui)]</text>
    <polygon fill="#181818" points="1590.5642,546.7188,1600.5642,550.7188,1590.5642,554.7188,1594.5642,550.7188" style="stroke:#181818;stroke-width:1.0;"/>
    <line style="stroke:#181818;stroke-width:1.0;" x1="1192.2576" x2="1596.5642" y1="550.7188" y2="550.7188"/>
    <text fill="#000000" font-family="sans-serif" font-size="13" font-weight="bold" lengthAdjust="spacing" textLength="9.0454" x="1199.2576" y="538.0864">9</text>
    <text fill="#000000" font-family="sans-serif" font-size="13" lengthAdjust="spacing" textLength="369.6177" x="1212.303" y="530.52">Récupérer les détails de rappel du participant et du type</text>
    <text fill="#FF0000" font-family="sans-serif" font-size="13" font-weight="bold" lengthAdjust="spacing" textLength="110.2524" x="1212.303" y="545.6528">Code d&apos;erreur :</text>
    <text fill="#FF0000" font-family="sans-serif" font-size="13" lengthAdjust="spacing" textLength="33.084" x="1326.6877" y="545.6528">3000</text>
    <polygon fill="#181818" points="2017.4153,575.8516,2027.4153,579.8516,2017.4153,583.8516,2021.4153,579.8516" style="stroke:#181818;stroke-width:1.0;"/>
    <line style="stroke:#181818;stroke-width:1.0;" x1="1612.5642" x2="2023.4153" y1="579.8516" y2="579.8516"/>
    <text fill="#000000" font-family="sans-serif" font-size="13" font-weight="bold" lengthAdjust="spacing" textLength="18.0908" x="1619.5642" y="574.7856">10</text>
    <text fill="#000000" font-family="sans-serif" font-size="13" lengthAdjust="spacing" textLength="369.6177" x="1641.655" y="574.7856">Récupérer les détails de rappel du participant et du type</text>
    <path d="M1617,592.8516 L1617,647.8516 L1836,647.8516 L1836,602.8516 L1826,592.8516 L1617,592.8516 " fill="#D3D3D3" style="stroke:#181818;stroke-width:0.5;"/>
    <path d="M1826,592.8516 L1826,602.8516 L1836,602.8516 L1826,592.8516 " fill="#D3D3D3" style="stroke:#181818;stroke-width:0.5;"/>
    <text fill="#000000" font-family="sans-serif" font-size="13" lengthAdjust="spacing" textLength="70.5479" x="1623" y="609.9185">Condition :</text>
    <text fill="#000000" font-family="sans-serif" font-size="13" lengthAdjust="spacing" textLength="78.2539" x="1639.5293" y="625.0513">isActive = 1</text>
    <text fill="#000000" font-family="sans-serif" font-size="13" lengthAdjust="spacing" textLength="181.7397" x="1639.5293" y="640.1841">[endpointTypeId = &lt;type&gt;]</text>
    <polygon fill="#FFFFE0" points="1968,658.25,2100,658.25,2110,669.25,2100,681.25,1968,681.25,1958,669.25,1968,658.25" style="stroke:#181818;stroke-width:0.5;"/>
    <text fill="#000000" font-family="sans-serif" font-size="13" lengthAdjust="spacing" textLength="128.4448" x="1970" y="674.3169">participantEndpoint</text>
    <polygon fill="#181818" points="1623.5642,703.5156,1613.5642,707.5156,1623.5642,711.5156,1619.5642,707.5156" style="stroke:#181818;stroke-width:1.0;"/>
    <line style="stroke:#181818;stroke-width:1.0;stroke-dasharray:2.0,2.0;" x1="1617.5642" x2="2033.4153" y1="707.5156" y2="707.5156"/>
    <text fill="#000000" font-family="sans-serif" font-size="13" font-weight="bold" lengthAdjust="spacing" textLength="18.0908" x="1629.5642" y="702.4497">11</text>
    <text fill="#000000" font-family="sans-serif" font-size="13" lengthAdjust="spacing" textLength="370.7603" x="1651.655" y="702.4497">Détails de rappel récupérés pour le participant et le type</text>
    <polygon fill="#181818" points="1203.2576,732.6484,1193.2576,736.6484,1203.2576,740.6484,1199.2576,736.6484" style="stroke:#181818;stroke-width:1.0;"/>
    <line style="stroke:#181818;stroke-width:1.0;stroke-dasharray:2.0,2.0;" x1="1197.2576" x2="1606.5642" y1="736.6484" y2="736.6484"/>
    <text fill="#000000" font-family="sans-serif" font-size="13" font-weight="bold" lengthAdjust="spacing" textLength="18.0908" x="1209.2576" y="731.5825">12</text>
    <text fill="#000000" font-family="sans-serif" font-size="13" lengthAdjust="spacing" textLength="364.2158" x="1231.3484" y="731.5825">Renvoyer les détails de rappel du participant et du type</text>
    <path d="M1197,749.6484 L1197,819.6484 L1521,819.6484 L1521,759.6484 L1511,749.6484 L1197,749.6484 " fill="#FFFF00" style="stroke:#181818;stroke-width:0.5;"/>
    <path d="M1511,749.6484 L1511,759.6484 L1521,759.6484 L1511,749.6484 " fill="#FFFF00" style="stroke:#181818;stroke-width:0.5;"/>
    <text fill="#000000" font-family="sans-serif" font-size="13" lengthAdjust="spacing" textLength="65.4888" x="1203" y="766.7153">Message :</text>
    <text fill="#000000" font-family="sans-serif" font-size="13" lengthAdjust="spacing" textLength="8.271" x="1203" y="781.8481">{</text>
    <text fill="#000000" font-family="sans-serif" font-size="13" lengthAdjust="spacing" textLength="287.4282" x="1219.5293" y="796.981">endpoints: {type: &lt;type&gt;, value: &lt;value&gt;}</text>
    <text fill="#000000" font-family="sans-serif" font-size="13" lengthAdjust="spacing" textLength="8.271" x="1203" y="812.1138">}</text>
    <polygon fill="#181818" points="853.9749,842.3125,843.9749,846.3125,853.9749,850.3125,849.9749,846.3125" style="stroke:#181818;stroke-width:1.0;"/>
    <line style="stroke:#181818;stroke-width:1.0;stroke-dasharray:2.0,2.0;" x1="847.9749" x2="1186.2576" y1="846.3125" y2="846.3125"/>
    <text fill="#000000" font-family="sans-serif" font-size="13" font-weight="bold" lengthAdjust="spacing" textLength="18.0908" x="859.9749" y="841.2466">13</text>
    <text fill="#000000" font-family="sans-serif" font-size="13" lengthAdjust="spacing" textLength="293.1919" x="882.0657" y="841.2466">Renvoyer les détails de rappel du participant</text>
    <polygon fill="#181818" points="117.8164,871.4453,107.8164,875.4453,117.8164,879.4453,113.8164,875.4453" style="stroke:#181818;stroke-width:1.0;"/>
    <line style="stroke:#181818;stroke-width:1.0;stroke-dasharray:2.0,2.0;" x1="111.8164" x2="831.9749" y1="875.4453" y2="875.4453"/>
    <text fill="#000000" font-family="sans-serif" font-size="13" font-weight="bold" lengthAdjust="spacing" textLength="18.0908" x="123.8164" y="870.3794">14</text>
    <text fill="#000000" font-family="sans-serif" font-size="13" lengthAdjust="spacing" textLength="293.1919" x="145.9072" y="870.3794">Renvoyer les détails de rappel du participant</text>
    <line style="stroke:#000000;stroke-width:1.0;stroke-dasharray:2.0,2.0;" x1="30" x2="2120.4448" y1="884.4453" y2="884.4453"/>
    <text fill="#000000" font-family="sans-serif" font-size="11" font-weight="bold" lengthAdjust="spacing" textLength="214.5" x="35" y="894.6558">[Paramètre « type » envoyé (non)]</text>
    <polygon fill="#181818" points="1590.5642,930.5156,1600.5642,934.5156,1590.5642,938.5156,1594.5642,934.5156" style="stroke:#181818;stroke-width:1.0;"/>
    <line style="stroke:#181818;stroke-width:1.0;" x1="1192.2576" x2="1596.5642" y1="934.5156" y2="934.5156"/>
    <text fill="#000000" font-family="sans-serif" font-size="13" font-weight="bold" lengthAdjust="spacing" textLength="18.0908" x="1199.2576" y="921.8833">15</text>
    <text fill="#000000" font-family="sans-serif" font-size="13" lengthAdjust="spacing" textLength="298.5938" x="1221.3484" y="914.3169">Récupérer les détails de rappel du participant</text>
    <text fill="#FF0000" font-family="sans-serif" font-size="13" font-weight="bold" lengthAdjust="spacing" textLength="110.2524" x="1221.3484" y="929.4497">Code d&apos;erreur :</text>
    <text fill="#FF0000" font-family="sans-serif" font-size="13" lengthAdjust="spacing" textLength="33.084" x="1335.7332" y="929.4497">3000</text>
    <polygon fill="#181818" points="2017.4153,959.6484,2027.4153,963.6484,2017.4153,967.6484,2021.4153,963.6484" style="stroke:#181818;stroke-width:1.0;"/>
    <line style="stroke:#181818;stroke-width:1.0;" x1="1612.5642" x2="2023.4153" y1="963.6484" y2="963.6484"/>
    <text fill="#000000" font-family="sans-serif" font-size="13" font-weight="bold" lengthAdjust="spacing" textLength="18.0908" x="1619.5642" y="958.5825">16</text>
    <text fill="#000000" font-family="sans-serif" font-size="13" lengthAdjust="spacing" textLength="298.5938" x="1641.655" y="958.5825">Récupérer les détails de rappel du participant</text>
    <path d="M1617,976.6484 L1617,1016.6484 L1732,1016.6484 L1732,986.6484 L1722,976.6484 L1617,976.6484 " fill="#D3D3D3" style="stroke:#181818;stroke-width:0.5;"/>
    <path d="M1722,976.6484 L1722,986.6484 L1732,986.6484 L1722,976.6484 " fill="#D3D3D3" style="stroke:#181818;stroke-width:0.5;"/>
    <text fill="#000000" font-family="sans-serif" font-size="13" lengthAdjust="spacing" textLength="70.5479" x="1623" y="993.7153">Condition :</text>
    <text fill="#000000" font-family="sans-serif" font-size="13" lengthAdjust="spacing" textLength="78.2539" x="1639.5293" y="1008.8481">isActive = 1</text>
    <polygon fill="#FFFFE0" points="1968,1026.9141,2100,1026.9141,2110,1037.9141,2100,1049.9141,1968,1049.9141,1958,1037.9141,1968,1026.9141" style="stroke:#181818;stroke-width:0.5;"/>
    <text fill="#000000" font-family="sans-serif" font-size="13" lengthAdjust="spacing" textLength="128.4448" x="1970" y="1042.981">participantEndpoint</text>
    <polygon fill="#181818" points="1623.5642,1072.1797,1613.5642,1076.1797,1623.5642,1080.1797,1619.5642,1076.1797" style="stroke:#181818;stroke-width:1.0;"/>
    <line style="stroke:#181818;stroke-width:1.0;stroke-dasharray:2.0,2.0;" x1="1617.5642" x2="2033.4153" y1="1076.1797" y2="1076.1797"/>
    <text fill="#000000" font-family="sans-serif" font-size="13" font-weight="bold" lengthAdjust="spacing" textLength="18.0908" x="1629.5642" y="1071.1138">17</text>
    <text fill="#000000" font-family="sans-serif" font-size="13" lengthAdjust="spacing" textLength="304.6177" x="1651.655" y="1071.1138">Détails de rappel récupérés pour le participant</text>
    <polygon fill="#181818" points="1203.2576,1101.3125,1193.2576,1105.3125,1203.2576,1109.3125,1199.2576,1105.3125" style="stroke:#181818;stroke-width:1.0;"/>
    <line style="stroke:#181818;stroke-width:1.0;stroke-dasharray:2.0,2.0;" x1="1197.2576" x2="1606.5642" y1="1105.3125" y2="1105.3125"/>
    <text fill="#000000" font-family="sans-serif" font-size="13" font-weight="bold" lengthAdjust="spacing" textLength="18.0908" x="1209.2576" y="1100.2466">18</text>
    <text fill="#000000" font-family="sans-serif" font-size="13" lengthAdjust="spacing" textLength="293.1919" x="1231.3484" y="1100.2466">Renvoyer les détails de rappel du participant</text>
    <path d="M1197,1118.3125 L1197,1233.3125 L1469,1233.3125 L1469,1128.3125 L1459,1118.3125 L1197,1118.3125 " fill="#FFFF00" style="stroke:#181818;stroke-width:0.5;"/>
    <path d="M1459,1118.3125 L1459,1128.3125 L1469,1128.3125 L1459,1118.3125 " fill="#FFFF00" style="stroke:#181818;stroke-width:0.5;"/>
    <text fill="#000000" font-family="sans-serif" font-size="13" lengthAdjust="spacing" textLength="65.4888" x="1203" y="1135.3794">Message :</text>
    <text fill="#000000" font-family="sans-serif" font-size="13" lengthAdjust="spacing" textLength="8.271" x="1203" y="1150.5122">{</text>
    <text fill="#000000" font-family="sans-serif" font-size="13" lengthAdjust="spacing" textLength="78" x="1219.5293" y="1165.645">endpoints: [</text>
    <text fill="#000000" font-family="sans-serif" font-size="13" lengthAdjust="spacing" textLength="218.6323" x="1236.0586" y="1180.7778">{type: &lt;type&gt;, value: &lt;value&gt;},</text>
    <text fill="#000000" font-family="sans-serif" font-size="13" lengthAdjust="spacing" textLength="214.5" x="1236.0586" y="1195.9106">{type: &lt;type&gt;, value: &lt;value&gt;}</text>
    <text fill="#000000" font-family="sans-serif" font-size="13" lengthAdjust="spacing" textLength="5.0718" x="1219.5293" y="1211.0435">]</text>
    <text fill="#000000" font-family="sans-serif" font-size="13" lengthAdjust="spacing" textLength="8.271" x="1203" y="1226.1763">}</text>
    <polygon fill="#181818" points="853.9749,1256.375,843.9749,1260.375,853.9749,1264.375,849.9749,1260.375" style="stroke:#181818;stroke-width:1.0;"/>
    <line style="stroke:#181818;stroke-width:1.0;stroke-dasharray:2.0,2.0;" x1="847.9749" x2="1181.2576" y1="1260.375" y2="1260.375"/>
    <text fill="#000000" font-family="sans-serif" font-size="13" font-weight="bold" lengthAdjust="spacing" textLength="18.0908" x="859.9749" y="1255.3091">19</text>
    <text fill="#000000" font-family="sans-serif" font-size="13" lengthAdjust="spacing" textLength="293.1919" x="882.0657" y="1255.3091">Renvoyer les détails de rappel du participant</text>
    <polygon fill="#181818" points="117.8164,1285.5078,107.8164,1289.5078,117.8164,1293.5078,113.8164,1289.5078" style="stroke:#181818;stroke-width:1.0;"/>
    <line style="stroke:#181818;stroke-width:1.0;stroke-dasharray:2.0,2.0;" x1="111.8164" x2="831.9749" y1="1289.5078" y2="1289.5078"/>
    <text fill="#000000" font-family="sans-serif" font-size="13" font-weight="bold" lengthAdjust="spacing" textLength="18.0908" x="123.8164" y="1284.4419">20</text>
    <text fill="#000000" font-family="sans-serif" font-size="13" lengthAdjust="spacing" textLength="293.1919" x="145.9072" y="1284.4419">Renvoyer les détails de rappel du participant</text>
    <line style="stroke:#000000;stroke-width:1.0;stroke-dasharray:2.0,2.0;" x1="20" x2="2130.4448" y1="1305.5078" y2="1305.5078"/>
    <text fill="#000000" font-family="sans-serif" font-size="11" font-weight="bold" lengthAdjust="spacing" textLength="241.9893" x="25" y="1315.7183">[Valider le participant (échec) / erreur]</text>
    <path d="M1197,1324.3125 L1197,1349.3125 L1407,1349.3125 L1407,1334.3125 L1397,1324.3125 L1197,1324.3125 " fill="#FF0000" style="stroke:#181818;stroke-width:0.5;"/>
    <path d="M1397,1324.3125 L1397,1334.3125 L1407,1334.3125 L1397,1324.3125 " fill="#FF0000" style="stroke:#181818;stroke-width:0.5;"/>
    <text fill="#000000" font-family="sans-serif" font-size="13" lengthAdjust="spacing" textLength="189.522" x="1203" y="1341.3794">Échec de validation / erreur !</text>
    <path d="M1197,1359.4453 L1197,1474.4453 L1492,1474.4453 L1492,1369.4453 L1482,1359.4453 L1197,1359.4453 " fill="#FFFF00" style="stroke:#181818;stroke-width:0.5;"/>
    <path d="M1482,1359.4453 L1482,1369.4453 L1492,1369.4453 L1482,1359.4453 " fill="#FFFF00" style="stroke:#181818;stroke-width:0.5;"/>
    <text fill="#000000" font-family="sans-serif" font-size="13" lengthAdjust="spacing" textLength="65.4888" x="1203" y="1376.5122">Message :</text>
    <text fill="#000000" font-family="sans-serif" font-size="13" lengthAdjust="spacing" textLength="8.271" x="1203" y="1391.645">{</text>
    <text fill="#000000" font-family="sans-serif" font-size="13" lengthAdjust="spacing" textLength="136.208" x="1219.5293" y="1406.7778">&quot;errorInformation&quot;: {</text>
    <text fill="#000000" font-family="sans-serif" font-size="13" lengthAdjust="spacing" textLength="176.9219" x="1236.0586" y="1421.9106">&quot;errorCode&quot;: &lt;errorCode&gt;,</text>
    <text fill="#000000" font-family="sans-serif" font-size="13" lengthAdjust="spacing" textLength="241.5918" x="1236.0586" y="1437.0435">&quot;errorDescription&quot;: &lt;ErrorMessage&gt;,</text>
    <text fill="#000000" font-family="sans-serif" font-size="13" lengthAdjust="spacing" textLength="8.271" x="1219.5293" y="1452.1763">}</text>
    <text fill="#000000" font-family="sans-serif" font-size="13" lengthAdjust="spacing" textLength="8.271" x="1203" y="1467.3091">}</text>
    <polygon fill="#181818" points="853.9749,1497.5078,843.9749,1501.5078,853.9749,1505.5078,849.9749,1501.5078" style="stroke:#181818;stroke-width:1.0;"/>
    <line style="stroke:#181818;stroke-width:1.0;stroke-dasharray:2.0,2.0;" x1="847.9749" x2="1186.2576" y1="1501.5078" y2="1501.5078"/>
    <text fill="#000000" font-family="sans-serif" font-size="13" font-weight="bold" lengthAdjust="spacing" textLength="18.0908" x="859.9749" y="1496.4419">21</text>
    <text fill="#000000" font-family="sans-serif" font-size="13" lengthAdjust="spacing" textLength="61.9531" x="882.0657" y="1496.4419">Renvoyer</text>
    <text fill="#FF0000" font-family="sans-serif" font-size="13" font-weight="bold" lengthAdjust="spacing" textLength="110.2524" x="948.1511" y="1496.4419">Code d&apos;erreur :</text>
    <text fill="#FF0000" font-family="sans-serif" font-size="13" lengthAdjust="spacing" textLength="74.4326" x="1062.5359" y="1496.4419">3000, 3200</text>
    <polygon fill="#181818" points="117.8164,1526.6406,107.8164,1530.6406,117.8164,1534.6406,113.8164,1530.6406" style="stroke:#181818;stroke-width:1.0;"/>
    <line style="stroke:#181818;stroke-width:1.0;stroke-dasharray:2.0,2.0;" x1="111.8164" x2="831.9749" y1="1530.6406" y2="1530.6406"/>
    <text fill="#000000" font-family="sans-serif" font-size="13" font-weight="bold" lengthAdjust="spacing" textLength="18.0908" x="123.8164" y="1525.5747">22</text>
    <text fill="#000000" font-family="sans-serif" font-size="13" lengthAdjust="spacing" textLength="61.9531" x="145.9072" y="1525.5747">Renvoyer</text>
    <text fill="#FF0000" font-family="sans-serif" font-size="13" font-weight="bold" lengthAdjust="spacing" textLength="110.2524" x="211.9927" y="1525.5747">Code d&apos;erreur :</text>
    <text fill="#FF0000" font-family="sans-serif" font-size="13" lengthAdjust="spacing" textLength="74.4326" x="326.3774" y="1525.5747">3000, 3200</text>
  </g>
</svg>
