<svg xmlns="http://www.w3.org/2000/svg" xmlns:xlink="http://www.w3.org/1999/xlink" contentStyleType="text/css" height="1122px" preserveAspectRatio="none" style="width:1736px;height:1122px;background:#FFFFFF;" version="1.1" viewBox="0 0 1736 1122" width="1736px" zoomAndPan="magnify">
  <title>2.3.0. Temporisation du transfert</title>
  <defs/>
  <g>
    <text fill="#000000" font-family="sans-serif" font-size="14" font-weight="bold" lengthAdjust="spacing" textLength="264.1475" x="737.5688" y="27.9951">2.3.0. Temporisation du transfert</text>
    <rect fill="#D3D3D3" height="1073.3359" style="stroke:#181818;stroke-width:0.5;" width="265.2637" x="1" y="43.2969"/>
    <text fill="#000000" font-family="sans-serif" font-size="13" font-weight="bold" lengthAdjust="spacing" textLength="259.2637" x="4" y="55.3638">Fournisseurs de services financiers</text>
    <rect fill="#ADD8E6" height="1073.3359" style="stroke:#181818;stroke-width:0.5;" width="342.7661" x="268.2637" y="43.2969"/>
    <text fill="#000000" font-family="sans-serif" font-size="13" font-weight="bold" lengthAdjust="spacing" textLength="195.1079" x="342.0928" y="55.3638">Service adaptateur ML API</text>
    <rect fill="#FFFFE0" height="1073.3359" style="stroke:#181818;stroke-width:0.5;" width="1101.2554" x="613.0298" y="43.2969"/>
    <text fill="#000000" font-family="sans-serif" font-size="13" font-weight="bold" lengthAdjust="spacing" textLength="110.2017" x="1108.5566" y="55.3638">Service central</text>
    <rect fill="#FFFFFF" height="846.0156" style="stroke:#181818;stroke-width:1.0;" width="10" x="543.4126" y="165.0234"/>
    <rect fill="#FFFFFF" height="847.0156" style="stroke:#181818;stroke-width:1.0;" width="10" x="712.418" y="165.0234"/>
    <rect fill="#FFFFFF" height="846.0156" style="stroke:#181818;stroke-width:1.0;" width="10" x="1088.2656" y="165.0234"/>
    <rect fill="#FFFFFF" height="846.0156" style="stroke:#181818;stroke-width:1.0;" width="10" x="1462.2031" y="165.0234"/>
    <rect fill="none" height="832.0156" style="stroke:#000000;stroke-width:1.5;" width="1693.4014" x="36.8838" y="172.0234"/>
    <rect fill="none" height="206.5391" style="stroke:#000000;stroke-width:1.5;" width="695.6367" x="1024.6484" y="420.5625"/>
    <rect fill="none" height="158.4688" style="stroke:#000000;stroke-width:1.5;" width="1673.4014" x="46.8838" y="641.1016"/>
    <rect fill="none" height="129.3359" style="stroke:#000000;stroke-width:1.5;" width="1608.8525" x="111.4326" y="867.7031"/>
    <line style="stroke:#181818;stroke-width:0.5;stroke-dasharray:5.0,5.0;" x1="83.8838" x2="83.8838" y1="155.0234" y2="1021.0391"/>
    <line style="stroke:#181818;stroke-width:0.5;stroke-dasharray:5.0,5.0;" x1="165.4326" x2="165.4326" y1="155.0234" y2="1021.0391"/>
    <line style="stroke:#181818;stroke-width:0.5;stroke-dasharray:5.0,5.0;" x1="314.2637" x2="314.2637" y1="155.0234" y2="1021.0391"/>
    <line style="stroke:#181818;stroke-width:0.5;stroke-dasharray:5.0,5.0;" x1="547.7954" x2="547.7954" y1="155.0234" y2="1021.0391"/>
    <line style="stroke:#181818;stroke-width:0.5;stroke-dasharray:5.0,5.0;" x1="717.0298" x2="717.0298" y1="155.0234" y2="1021.0391"/>
    <line style="stroke:#181818;stroke-width:0.5;stroke-dasharray:5.0,5.0;" x1="893.8062" x2="893.8062" y1="155.0234" y2="1021.0391"/>
    <line style="stroke:#181818;stroke-width:0.5;stroke-dasharray:5.0,5.0;" x1="1092.6484" x2="1092.6484" y1="155.0234" y2="1021.0391"/>
    <line style="stroke:#181818;stroke-width:0.5;stroke-dasharray:5.0,5.0;" x1="1267.2959" x2="1267.2959" y1="155.0234" y2="1021.0391"/>
    <line style="stroke:#181818;stroke-width:0.5;stroke-dasharray:5.0,5.0;" x1="1466.561" x2="1466.561" y1="155.0234" y2="1021.0391"/>
    <line style="stroke:#181818;stroke-width:0.5;stroke-dasharray:5.0,5.0;" x1="1641.9756" x2="1641.9756" y1="155.0234" y2="1021.0391"/>
    <text fill="#000000" font-family="sans-serif" font-size="14" lengthAdjust="spacing" textLength="45.0693" x="58.6235" y="135.4248">DFSP1</text>
    <text fill="#000000" font-family="sans-serif" font-size="14" lengthAdjust="spacing" textLength="48.5488" x="56.8838" y="151.7217">Payeur</text>
    <ellipse cx="84.1582" cy="70.9297" fill="#E2E2F0" rx="8" ry="8" style="stroke:#181818;stroke-width:0.5;"/>
    <path d="M84.1582,78.9297 L84.1582,105.9297 M71.1582,86.9297 L97.1582,86.9297 M84.1582,105.9297 L71.1582,120.9297 M84.1582,105.9297 L97.1582,120.9297 " fill="none" style="stroke:#181818;stroke-width:0.5;"/>
    <text fill="#000000" font-family="sans-serif" font-size="14" lengthAdjust="spacing" textLength="45.0693" x="58.6235" y="1033.0342">DFSP1</text>
    <text fill="#000000" font-family="sans-serif" font-size="14" lengthAdjust="spacing" textLength="48.5488" x="56.8838" y="1049.3311">Payeur</text>
    <ellipse cx="84.1582" cy="1061.1328" fill="#E2E2F0" rx="8" ry="8" style="stroke:#181818;stroke-width:0.5;"/>
    <path d="M84.1582,1069.1328 L84.1582,1096.1328 M71.1582,1077.1328 L97.1582,1077.1328 M84.1582,1096.1328 L71.1582,1111.1328 M84.1582,1096.1328 L97.1582,1111.1328 " fill="none" style="stroke:#181818;stroke-width:0.5;"/>
    <text fill="#000000" font-family="sans-serif" font-size="14" lengthAdjust="spacing" textLength="45.0693" x="140.3716" y="135.4248">DFSP2</text>
    <text fill="#000000" font-family="sans-serif" font-size="14" lengthAdjust="spacing" textLength="82.9473" x="121.4326" y="151.7217">Bénéficiaire</text>
    <ellipse cx="165.9063" cy="70.9297" fill="#E2E2F0" rx="8" ry="8" style="stroke:#181818;stroke-width:0.5;"/>
    <path d="M165.9063,78.9297 L165.9063,105.9297 M152.9063,86.9297 L178.9063,86.9297 M165.9063,105.9297 L152.9063,120.9297 M165.9063,105.9297 L178.9063,120.9297 " fill="none" style="stroke:#181818;stroke-width:0.5;"/>
    <text fill="#000000" font-family="sans-serif" font-size="14" lengthAdjust="spacing" textLength="45.0693" x="140.3716" y="1033.0342">DFSP2</text>
    <text fill="#000000" font-family="sans-serif" font-size="14" lengthAdjust="spacing" textLength="82.9473" x="121.4326" y="1049.3311">Bénéficiaire</text>
    <ellipse cx="165.9063" cy="1061.1328" fill="#E2E2F0" rx="8" ry="8" style="stroke:#181818;stroke-width:0.5;"/>
    <path d="M165.9063,1069.1328 L165.9063,1096.1328 M152.9063,1077.1328 L178.9063,1077.1328 M165.9063,1096.1328 L152.9063,1111.1328 M165.9063,1096.1328 L178.9063,1111.1328 " fill="none" style="stroke:#181818;stroke-width:0.5;"/>
    <text fill="#000000" font-family="sans-serif" font-size="14" lengthAdjust="spacing" textLength="78.7295" x="272.2637" y="135.4248">Adaptateur</text>
    <text fill="#000000" font-family="sans-serif" font-size="14" lengthAdjust="spacing" textLength="46.4775" x="288.3896" y="151.7217">ML API</text>
    <path d="M294.1284,94.4297 L294.1284,118.4297 M294.1284,106.4297 L311.1284,106.4297 " fill="none" style="stroke:#181818;stroke-width:0.5;"/>
    <ellipse cx="323.1284" cy="106.4297" fill="#E2E2F0" rx="12" ry="12" style="stroke:#181818;stroke-width:0.5;"/>
    <text fill="#000000" font-family="sans-serif" font-size="14" lengthAdjust="spacing" textLength="78.7295" x="272.2637" y="1033.0342">Adaptateur</text>
    <text fill="#000000" font-family="sans-serif" font-size="14" lengthAdjust="spacing" textLength="46.4775" x="288.3896" y="1049.3311">ML API</text>
    <path d="M294.1284,1056.6328 L294.1284,1080.6328 M294.1284,1068.6328 L311.1284,1068.6328 " fill="none" style="stroke:#181818;stroke-width:0.5;"/>
    <ellipse cx="323.1284" cy="1068.6328" fill="#E2E2F0" rx="12" ry="12" style="stroke:#181818;stroke-width:0.5;"/>
    <text fill="#000000" font-family="sans-serif" font-size="14" lengthAdjust="spacing" textLength="111.2344" x="489.7954" y="135.4248">Gestionnaire de</text>
    <text fill="#000000" font-family="sans-serif" font-size="14" lengthAdjust="spacing" textLength="78.7295" x="506.0479" y="151.7217">notification</text>
    <ellipse cx="548.4126" cy="106.4297" fill="#E2E2F0" rx="12" ry="12" style="stroke:#181818;stroke-width:0.5;"/>
    <polygon fill="#181818" points="544.4126,94.4297,550.4126,89.4297,548.4126,94.4297,550.4126,99.4297,544.4126,94.4297" style="stroke:#181818;stroke-width:1.0;"/>
    <text fill="#000000" font-family="sans-serif" font-size="14" lengthAdjust="spacing" textLength="111.2344" x="489.7954" y="1033.0342">Gestionnaire de</text>
    <text fill="#000000" font-family="sans-serif" font-size="14" lengthAdjust="spacing" textLength="78.7295" x="506.0479" y="1049.3311">notification</text>
    <ellipse cx="548.4126" cy="1068.6328" fill="#E2E2F0" rx="12" ry="12" style="stroke:#181818;stroke-width:0.5;"/>
    <polygon fill="#181818" points="544.4126,1056.6328,550.4126,1051.6328,548.4126,1056.6328,550.4126,1061.6328,544.4126,1056.6328" style="stroke:#181818;stroke-width:1.0;"/>
    <text fill="#000000" font-family="sans-serif" font-size="14" lengthAdjust="spacing" textLength="111.2344" x="658.8008" y="135.4248">Gestionnaire de</text>
    <text fill="#000000" font-family="sans-serif" font-size="14" lengthAdjust="spacing" textLength="194.7764" x="617.0298" y="151.7217">temporisation (préparation)</text>
    <ellipse cx="717.418" cy="106.4297" fill="#E2E2F0" rx="12" ry="12" style="stroke:#181818;stroke-width:0.5;"/>
    <polygon fill="#181818" points="713.418,94.4297,719.418,89.4297,717.418,94.4297,719.418,99.4297,713.418,94.4297" style="stroke:#181818;stroke-width:1.0;"/>
    <text fill="#000000" font-family="sans-serif" font-size="14" lengthAdjust="spacing" textLength="111.2344" x="658.8008" y="1033.0342">Gestionnaire de</text>
    <text fill="#000000" font-family="sans-serif" font-size="14" lengthAdjust="spacing" textLength="194.7764" x="617.0298" y="1049.3311">temporisation (préparation)</text>
    <ellipse cx="717.418" cy="1068.6328" fill="#E2E2F0" rx="12" ry="12" style="stroke:#181818;stroke-width:0.5;"/>
    <polygon fill="#181818" points="713.418,1056.6328,719.418,1051.6328,717.418,1056.6328,719.418,1061.6328,713.418,1056.6328" style="stroke:#181818;stroke-width:1.0;"/>
    <rect fill="#E2E2F0" height="46.5938" style="stroke:#181818;stroke-width:0.5;" width="128.8984" x="831.8062" y="103.4297"/>
    <rect fill="#E2E2F0" height="46.5938" style="stroke:#181818;stroke-width:0.5;" width="128.8984" x="827.8062" y="107.4297"/>
    <text fill="#000000" font-family="sans-serif" font-size="14" lengthAdjust="spacing" textLength="39.5801" x="872.4653" y="127.4248">topic-</text>
    <text fill="#000000" font-family="sans-serif" font-size="14" lengthAdjust="spacing" textLength="114.8984" x="834.8062" y="143.7217">transfer-timeout</text>
    <rect fill="#E2E2F0" height="46.5938" style="stroke:#181818;stroke-width:0.5;" width="128.8984" x="831.8062" y="1020.0391"/>
    <rect fill="#E2E2F0" height="46.5938" style="stroke:#181818;stroke-width:0.5;" width="128.8984" x="827.8062" y="1024.0391"/>
    <text fill="#000000" font-family="sans-serif" font-size="14" lengthAdjust="spacing" textLength="39.5801" x="872.4653" y="1044.0342">topic-</text>
    <text fill="#000000" font-family="sans-serif" font-size="14" lengthAdjust="spacing" textLength="114.8984" x="834.8062" y="1060.3311">transfer-timeout</text>
    <text fill="#000000" font-family="sans-serif" font-size="14" lengthAdjust="spacing" textLength="111.2344" x="1034.6484" y="135.4248">Gestionnaire de</text>
    <text fill="#000000" font-family="sans-serif" font-size="14" lengthAdjust="spacing" textLength="97.5283" x="1041.5015" y="151.7217">temporisation</text>
    <ellipse cx="1093.2656" cy="106.4297" fill="#E2E2F0" rx="12" ry="12" style="stroke:#181818;stroke-width:0.5;"/>
    <polygon fill="#181818" points="1089.2656,94.4297,1095.2656,89.4297,1093.2656,94.4297,1095.2656,99.4297,1089.2656,94.4297" style="stroke:#181818;stroke-width:1.0;"/>
    <text fill="#000000" font-family="sans-serif" font-size="14" lengthAdjust="spacing" textLength="111.2344" x="1034.6484" y="1033.0342">Gestionnaire de</text>
    <text fill="#000000" font-family="sans-serif" font-size="14" lengthAdjust="spacing" textLength="97.5283" x="1041.5015" y="1049.3311">temporisation</text>
    <ellipse cx="1093.2656" cy="1068.6328" fill="#E2E2F0" rx="12" ry="12" style="stroke:#181818;stroke-width:0.5;"/>
    <polygon fill="#181818" points="1089.2656,1056.6328,1095.2656,1051.6328,1093.2656,1056.6328,1095.2656,1061.6328,1089.2656,1056.6328" style="stroke:#181818;stroke-width:1.0;"/>
    <rect fill="#E2E2F0" height="46.5938" style="stroke:#181818;stroke-width:0.5;" width="129.7939" x="1205.2959" y="103.4297"/>
    <rect fill="#E2E2F0" height="46.5938" style="stroke:#181818;stroke-width:0.5;" width="129.7939" x="1201.2959" y="107.4297"/>
    <text fill="#000000" font-family="sans-serif" font-size="14" lengthAdjust="spacing" textLength="39.5801" x="1246.4028" y="127.4248">topic-</text>
    <text fill="#000000" font-family="sans-serif" font-size="14" lengthAdjust="spacing" textLength="115.7939" x="1208.2959" y="143.7217">transfer-position</text>
    <rect fill="#E2E2F0" height="46.5938" style="stroke:#181818;stroke-width:0.5;" width="129.7939" x="1205.2959" y="1020.0391"/>
    <rect fill="#E2E2F0" height="46.5938" style="stroke:#181818;stroke-width:0.5;" width="129.7939" x="1201.2959" y="1024.0391"/>
    <text fill="#000000" font-family="sans-serif" font-size="14" lengthAdjust="spacing" textLength="39.5801" x="1246.4028" y="1044.0342">topic-</text>
    <text fill="#000000" font-family="sans-serif" font-size="14" lengthAdjust="spacing" textLength="115.7939" x="1208.2959" y="1060.3311">transfer-position</text>
    <text fill="#000000" font-family="sans-serif" font-size="14" lengthAdjust="spacing" textLength="89.2842" x="1419.561" y="135.4248">Gestionnaire</text>
    <text fill="#000000" font-family="sans-serif" font-size="14" lengthAdjust="spacing" textLength="77.4033" x="1425.5015" y="151.7217">de position</text>
    <ellipse cx="1467.2031" cy="106.4297" fill="#E2E2F0" rx="12" ry="12" style="stroke:#181818;stroke-width:0.5;"/>
    <polygon fill="#181818" points="1463.2031,94.4297,1469.2031,89.4297,1467.2031,94.4297,1469.2031,99.4297,1463.2031,94.4297" style="stroke:#181818;stroke-width:1.0;"/>
    <text fill="#000000" font-family="sans-serif" font-size="14" lengthAdjust="spacing" textLength="89.2842" x="1419.561" y="1033.0342">Gestionnaire</text>
    <text fill="#000000" font-family="sans-serif" font-size="14" lengthAdjust="spacing" textLength="77.4033" x="1425.5015" y="1049.3311">de position</text>
    <ellipse cx="1467.2031" cy="1068.6328" fill="#E2E2F0" rx="12" ry="12" style="stroke:#181818;stroke-width:0.5;"/>
    <polygon fill="#181818" points="1463.2031,1056.6328,1469.2031,1051.6328,1467.2031,1056.6328,1469.2031,1061.6328,1463.2031,1056.6328" style="stroke:#181818;stroke-width:1.0;"/>
    <rect fill="#E2E2F0" height="30.2969" style="stroke:#181818;stroke-width:0.5;" width="132.3096" x="1577.9756" y="119.7266"/>
    <rect fill="#E2E2F0" height="30.2969" style="stroke:#181818;stroke-width:0.5;" width="132.3096" x="1573.9756" y="123.7266"/>
    <text fill="#000000" font-family="sans-serif" font-size="14" lengthAdjust="spacing" textLength="118.3096" x="1580.9756" y="143.7217">topic-notification</text>
    <rect fill="#E2E2F0" height="30.2969" style="stroke:#181818;stroke-width:0.5;" width="132.3096" x="1577.9756" y="1020.0391"/>
    <rect fill="#E2E2F0" height="30.2969" style="stroke:#181818;stroke-width:0.5;" width="132.3096" x="1573.9756" y="1024.0391"/>
    <text fill="#000000" font-family="sans-serif" font-size="14" lengthAdjust="spacing" textLength="118.3096" x="1580.9756" y="1044.0342">topic-notification</text>
    <rect fill="#FFFFFF" height="846.0156" style="stroke:#181818;stroke-width:1.0;" width="10" x="543.4126" y="165.0234"/>
    <rect fill="#FFFFFF" height="847.0156" style="stroke:#181818;stroke-width:1.0;" width="10" x="712.418" y="165.0234"/>
    <rect fill="#FFFFFF" height="846.0156" style="stroke:#181818;stroke-width:1.0;" width="10" x="1088.2656" y="165.0234"/>
    <rect fill="#FFFFFF" height="846.0156" style="stroke:#181818;stroke-width:1.0;" width="10" x="1462.2031" y="165.0234"/>
    <path d="M36.8838,172.0234 L250.0522,172.0234 L250.0522,179.1563 L240.0522,189.1563 L36.8838,189.1563 L36.8838,172.0234 " fill="#EEEEEE" style="stroke:#000000;stroke-width:1.5;"/>
    <rect fill="none" height="832.0156" style="stroke:#000000;stroke-width:1.5;" width="1693.4014" x="36.8838" y="172.0234"/>
    <text fill="#000000" font-family="sans-serif" font-size="13" font-weight="bold" lengthAdjust="spacing" textLength="168.1685" x="51.8838" y="185.0903">Expiration du transfert</text>
    <rect fill="none" height="53.0703" style="stroke:#000000;stroke-width:1.5;" width="349.6748" x="614.0298" y="214.1563"/>
    <path d="M614.0298,214.1563 L679.0298,214.1563 L679.0298,221.1563 L669.0298,231.1563 L614.0298,231.1563 L614.0298,214.1563 " fill="#EEEEEE" style="stroke:#000000;stroke-width:2.0;"/>
    <text fill="#000000" font-family="sans-serif" font-size="13" font-weight="bold" lengthAdjust="spacing" textLength="20.8838" x="627.0298" y="228.2231">ref</text>
    <text fill="#000000" font-family="sans-serif" font-size="12" lengthAdjust="spacing" textLength="294.5625" x="641.5859" y="246.2949">Consommation du gestionnaire de temporisation</text>
    <text fill="#000000" font-family="sans-serif" font-size="12" lengthAdjust="spacing" textLength="3.8145" x="786.96" y="260.2637"> </text>
    <polygon fill="#181818" points="882.2554,289.3594,892.2554,293.3594,882.2554,297.3594,886.2554,293.3594" style="stroke:#181818;stroke-width:1.0;"/>
    <line style="stroke:#181818;stroke-width:1.0;" x1="722.418" x2="888.2554" y1="293.3594" y2="293.3594"/>
    <text fill="#000000" font-family="sans-serif" font-size="13" font-weight="bold" lengthAdjust="spacing" textLength="9.0454" x="729.418" y="288.2935">1</text>
    <text fill="#000000" font-family="sans-serif" font-size="13" lengthAdjust="spacing" textLength="132.8818" x="742.4634" y="288.2935">Produire le message</text>
    <polygon fill="#181818" points="905.2554,343.4922,895.2554,347.4922,905.2554,351.4922,901.2554,347.4922" style="stroke:#181818;stroke-width:1.0;"/>
    <line style="stroke:#181818;stroke-width:1.0;" x1="899.2554" x2="1087.2656" y1="347.4922" y2="347.4922"/>
    <text fill="#000000" font-family="sans-serif" font-size="13" font-weight="bold" lengthAdjust="spacing" textLength="9.0454" x="911.2554" y="342.4263">2</text>
    <text fill="#000000" font-family="sans-serif" font-size="13" lengthAdjust="spacing" textLength="156.9648" x="924.3008" y="342.4263">Consommer le message</text>
    <rect fill="none" height="53.0703" style="stroke:#000000;stroke-width:1.5;" width="330.0767" x="824.8062" y="355.4922"/>
    <path d="M824.8062,355.4922 L889.8062,355.4922 L889.8062,362.4922 L879.8062,372.4922 L824.8062,372.4922 L824.8062,355.4922 " fill="#EEEEEE" style="stroke:#000000;stroke-width:2.0;"/>
    <text fill="#000000" font-family="sans-serif" font-size="13" font-weight="bold" lengthAdjust="spacing" textLength="20.8838" x="837.8062" y="369.5591">ref</text>
    <text fill="#000000" font-family="sans-serif" font-size="12" lengthAdjust="spacing" textLength="294.5625" x="842.5632" y="387.6309">Consommation du gestionnaire de temporisation</text>
    <text fill="#000000" font-family="sans-serif" font-size="12" lengthAdjust="spacing" textLength="3.8145" x="987.9373" y="401.5996"> </text>
    <path d="M1024.6484,420.5625 L1089.0913,420.5625 L1089.0913,427.6953 L1079.0913,437.6953 L1024.6484,437.6953 L1024.6484,420.5625 " fill="#EEEEEE" style="stroke:#000000;stroke-width:1.5;"/>
    <rect fill="none" height="206.5391" style="stroke:#000000;stroke-width:1.5;" width="695.6367" x="1024.6484" y="420.5625"/>
    <text fill="#000000" font-family="sans-serif" font-size="13" font-weight="bold" lengthAdjust="spacing" textLength="19.4429" x="1039.6484" y="433.6294">alt</text>
    <text fill="#000000" font-family="sans-serif" font-size="11" font-weight="bold" lengthAdjust="spacing" textLength="261.2554" x="1104.0913" y="432.7729">[transferStateId == &apos;RECEIVED_PREPARE&apos;]</text>
    <polygon fill="#181818" points="1630.1304,454.8281,1640.1304,458.8281,1630.1304,462.8281,1634.1304,458.8281" style="stroke:#181818;stroke-width:1.0;"/>
    <line style="stroke:#181818;stroke-width:1.0;" x1="1098.2656" x2="1636.1304" y1="458.8281" y2="458.8281"/>
    <text fill="#000000" font-family="sans-serif" font-size="13" font-weight="bold" lengthAdjust="spacing" textLength="9.0454" x="1105.2656" y="453.7622">3</text>
    <text fill="#000000" font-family="sans-serif" font-size="13" lengthAdjust="spacing" textLength="132.8818" x="1118.311" y="453.7622">Produire le message</text>
    <line style="stroke:#000000;stroke-width:1.0;stroke-dasharray:2.0,2.0;" x1="1024.6484" x2="1720.2852" y1="467.8281" y2="467.8281"/>
    <text fill="#000000" font-family="sans-serif" font-size="11" font-weight="bold" lengthAdjust="spacing" textLength="203.3765" x="1029.6484" y="478.0386">[transferStateId == &apos;RESERVED&apos;]</text>
    <polygon fill="#181818" points="1256.1929,498.7656,1266.1929,502.7656,1256.1929,506.7656,1260.1929,502.7656" style="stroke:#181818;stroke-width:1.0;"/>
    <line style="stroke:#181818;stroke-width:1.0;" x1="1098.2656" x2="1262.1929" y1="502.7656" y2="502.7656"/>
    <text fill="#000000" font-family="sans-serif" font-size="13" font-weight="bold" lengthAdjust="spacing" textLength="9.0454" x="1105.2656" y="497.6997">4</text>
    <text fill="#000000" font-family="sans-serif" font-size="13" lengthAdjust="spacing" textLength="132.8818" x="1118.311" y="497.6997">Produire le message</text>
    <polygon fill="#181818" points="1279.1929,527.8984,1269.1929,531.8984,1279.1929,535.8984,1275.1929,531.8984" style="stroke:#181818;stroke-width:1.0;"/>
    <line style="stroke:#181818;stroke-width:1.0;" x1="1273.1929" x2="1461.2031" y1="531.8984" y2="531.8984"/>
    <text fill="#000000" font-family="sans-serif" font-size="13" font-weight="bold" lengthAdjust="spacing" textLength="9.0454" x="1285.1929" y="526.8325">5</text>
    <text fill="#000000" font-family="sans-serif" font-size="13" lengthAdjust="spacing" textLength="156.9648" x="1298.2383" y="526.8325">Consommer le message</text>
    <rect fill="none" height="53.0703" style="stroke:#000000;stroke-width:1.5;" width="514.9893" x="1198.2959" y="539.8984"/>
    <path d="M1198.2959,539.8984 L1263.2959,539.8984 L1263.2959,546.8984 L1253.2959,556.8984 L1198.2959,556.8984 L1198.2959,539.8984 " fill="#EEEEEE" style="stroke:#000000;stroke-width:2.0;"/>
    <text fill="#000000" font-family="sans-serif" font-size="13" font-weight="bold" lengthAdjust="spacing" textLength="20.8838" x="1211.2959" y="553.9653">ref</text>
    <text fill="#000000" font-family="sans-serif" font-size="12" lengthAdjust="spacing" textLength="336.2344" x="1287.6733" y="572.0371">Consommation gestionnaire de position (temporisation)</text>
    <text fill="#000000" font-family="sans-serif" font-size="12" lengthAdjust="spacing" textLength="3.8145" x="1453.8833" y="586.0059"> </text>
    <polygon fill="#181818" points="1630.1304,615.1016,1640.1304,619.1016,1630.1304,623.1016,1634.1304,619.1016" style="stroke:#181818;stroke-width:1.0;"/>
    <line style="stroke:#181818;stroke-width:1.0;" x1="1472.2031" x2="1636.1304" y1="619.1016" y2="619.1016"/>
    <text fill="#000000" font-family="sans-serif" font-size="13" font-weight="bold" lengthAdjust="spacing" textLength="9.0454" x="1479.2031" y="614.0356">6</text>
    <text fill="#000000" font-family="sans-serif" font-size="13" lengthAdjust="spacing" textLength="132.8818" x="1492.2485" y="614.0356">Produire le message</text>
    <path d="M46.8838,641.1016 L116.335,641.1016 L116.335,648.2344 L106.335,658.2344 L46.8838,658.2344 L46.8838,641.1016 " fill="#EEEEEE" style="stroke:#000000;stroke-width:1.5;"/>
    <rect fill="none" height="158.4688" style="stroke:#000000;stroke-width:1.5;" width="1673.4014" x="46.8838" y="641.1016"/>
    <text fill="#000000" font-family="sans-serif" font-size="13" font-weight="bold" lengthAdjust="spacing" textLength="24.4512" x="61.8838" y="654.1685">opt</text>
    <text fill="#000000" font-family="sans-serif" font-size="11" font-weight="bold" lengthAdjust="spacing" textLength="315.1973" x="131.335" y="653.312">[action IN [&apos;timeout-received&apos;, &apos;timeout-reserved&apos;]]</text>
    <polygon fill="#181818" points="1630.1304,700.3672,1640.1304,704.3672,1630.1304,708.3672,1634.1304,704.3672" style="stroke:#181818;stroke-width:1.0;"/>
    <line style="stroke:#181818;stroke-width:1.0;" x1="553.4126" x2="1636.1304" y1="704.3672" y2="704.3672"/>
    <text fill="#000000" font-family="sans-serif" font-size="13" font-weight="bold" lengthAdjust="spacing" textLength="9.0454" x="560.4126" y="699.3013">7</text>
    <text fill="#000000" font-family="sans-serif" font-size="13" lengthAdjust="spacing" textLength="156.9648" x="573.458" y="699.3013">Consommer le message</text>
    <rect fill="none" height="53.0703" style="stroke:#000000;stroke-width:1.5;" width="1659.4014" x="53.8838" y="712.3672"/>
    <path d="M53.8838,712.3672 L118.8838,712.3672 L118.8838,719.3672 L108.8838,729.3672 L53.8838,729.3672 L53.8838,712.3672 " fill="#EEEEEE" style="stroke:#000000;stroke-width:2.0;"/>
    <text fill="#000000" font-family="sans-serif" font-size="13" font-weight="bold" lengthAdjust="spacing" textLength="20.8838" x="66.8838" y="726.4341">ref</text>
    <text fill="#000000" font-family="sans-serif" font-size="12" lengthAdjust="spacing" textLength="289.6699" x="738.7495" y="744.5059">Envoyer une notification au participant (payeur)</text>
    <text fill="#000000" font-family="sans-serif" font-size="12" lengthAdjust="spacing" textLength="3.8145" x="881.6772" y="758.4746"> </text>
    <polygon fill="#181818" points="95.1582,787.5703,85.1582,791.5703,95.1582,795.5703,91.1582,791.5703" style="stroke:#181818;stroke-width:1.0;"/>
    <line style="stroke:#181818;stroke-width:1.0;" x1="89.1582" x2="542.4126" y1="791.5703" y2="791.5703"/>
    <text fill="#000000" font-family="sans-serif" font-size="13" font-weight="bold" lengthAdjust="spacing" textLength="9.0454" x="101.1582" y="786.5044">8</text>
    <text fill="#000000" font-family="sans-serif" font-size="13" lengthAdjust="spacing" textLength="279.5317" x="114.2036" y="786.5044">Envoyer la notification de rappel (callback)</text>
    <polygon fill="#181818" points="1630.1304,848.7031,1640.1304,852.7031,1630.1304,856.7031,1634.1304,852.7031" style="stroke:#181818;stroke-width:1.0;"/>
    <line style="stroke:#181818;stroke-width:1.0;" x1="553.4126" x2="1636.1304" y1="852.7031" y2="852.7031"/>
    <text fill="#000000" font-family="sans-serif" font-size="13" font-weight="bold" lengthAdjust="spacing" textLength="9.0454" x="560.4126" y="847.6372">9</text>
    <text fill="#000000" font-family="sans-serif" font-size="13" lengthAdjust="spacing" textLength="156.9648" x="573.458" y="847.6372">Consommer le message</text>
    <path d="M111.4326,867.7031 L180.8838,867.7031 L180.8838,874.8359 L170.8838,884.8359 L111.4326,884.8359 L111.4326,867.7031 " fill="#EEEEEE" style="stroke:#000000;stroke-width:1.5;"/>
    <rect fill="none" height="129.3359" style="stroke:#000000;stroke-width:1.5;" width="1608.8525" x="111.4326" y="867.7031"/>
    <text fill="#000000" font-family="sans-serif" font-size="13" font-weight="bold" lengthAdjust="spacing" textLength="24.4512" x="126.4326" y="880.77">opt</text>
    <text fill="#000000" font-family="sans-serif" font-size="11" font-weight="bold" lengthAdjust="spacing" textLength="189.229" x="195.8838" y="879.9136">[action == &apos;timeout-reserved&apos;]</text>
    <rect fill="none" height="53.0703" style="stroke:#000000;stroke-width:1.5;" width="1594.8525" x="118.4326" y="909.8359"/>
    <path d="M118.4326,909.8359 L183.4326,909.8359 L183.4326,916.8359 L173.4326,926.8359 L118.4326,926.8359 L118.4326,909.8359 " fill="#EEEEEE" style="stroke:#000000;stroke-width:2.0;"/>
    <text fill="#000000" font-family="sans-serif" font-size="13" font-weight="bold" lengthAdjust="spacing" textLength="20.8838" x="131.4326" y="923.9028">ref</text>
    <text fill="#000000" font-family="sans-serif" font-size="12" lengthAdjust="spacing" textLength="318.1582" x="756.7798" y="941.9746">Envoyer une notification au participant (bénéficiaire)</text>
    <text fill="#000000" font-family="sans-serif" font-size="12" lengthAdjust="spacing" textLength="3.8145" x="913.9517" y="955.9434"> </text>
    <polygon fill="#181818" points="176.9063,985.0391,166.9063,989.0391,176.9063,993.0391,172.9063,989.0391" style="stroke:#181818;stroke-width:1.0;"/>
    <line style="stroke:#181818;stroke-width:1.0;" x1="170.9063" x2="542.4126" y1="989.0391" y2="989.0391"/>
    <text fill="#000000" font-family="sans-serif" font-size="13" font-weight="bold" lengthAdjust="spacing" textLength="18.0908" x="182.9063" y="983.9731">10</text>
    <text fill="#000000" font-family="sans-serif" font-size="13" lengthAdjust="spacing" textLength="279.5317" x="204.9971" y="983.9731">Envoyer la notification de rappel (callback)</text>
  </g>
</svg>
