<svg xmlns="http://www.w3.org/2000/svg" xmlns:xlink="http://www.w3.org/1999/xlink" contentStyleType="text/css" height="925px" preserveAspectRatio="none" style="width:2783px;height:925px;background:#FFFFFF;" version="1.1" viewBox="0 0 2783 925" width="2783px" zoomAndPan="magnify">
  <title>1.1.4.b. Envoyer une notification au participant (payeur/bénéficiaire) (messages groupés)</title>
  <defs/>
  <g>
    <text fill="#000000" font-family="sans-serif" font-size="14" font-weight="bold" lengthAdjust="spacing" textLength="711.7168" x="1037.3513" y="27.9951">1.1.4.b. Envoyer une notification au participant (payeur/bénéficiaire) (messages groupés)</text>
    <rect fill="#D3D3D3" height="876.6484" style="stroke:#181818;stroke-width:0.5;" width="257.5259" x="4" y="43.2969"/>
    <text fill="#000000" font-family="sans-serif" font-size="13" font-weight="bold" lengthAdjust="spacing" textLength="251.5259" x="7" y="55.3638">Fournisseur de services financiers</text>
    <rect fill="#ADD8E6" height="876.6484" style="stroke:#181818;stroke-width:0.5;" width="363.4326" x="751.0825" y="43.2969"/>
    <text fill="#000000" font-family="sans-serif" font-size="13" font-weight="bold" lengthAdjust="spacing" textLength="195.1079" x="835.2449" y="55.3638">Service adaptateur ML API</text>
    <rect fill="#FFFFE0" height="876.6484" style="stroke:#181818;stroke-width:0.5;" width="1294.0415" x="1466.4746" y="43.2969"/>
    <text fill="#000000" font-family="sans-serif" font-size="13" font-weight="bold" lengthAdjust="spacing" textLength="110.2017" x="2058.3945" y="55.3638">Service central</text>
    <rect fill="#FFFFFF" height="649.3281" style="stroke:#181818;stroke-width:1.0;" width="10" x="927.7988" y="165.0234"/>
    <rect fill="#FFFFFF" height="30" style="stroke:#181818;stroke-width:1.0;" width="10" x="1558.7925" y="245.4219"/>
    <rect fill="#FFFFFF" height="195.4688" style="stroke:#181818;stroke-width:1.0;" width="10" x="1741.2627" y="352.8203"/>
    <rect fill="#FFFFFF" height="178.7969" style="stroke:#181818;stroke-width:1.0;" width="10" x="1741.2627" y="584.4219"/>
    <rect fill="#FFFFFF" height="137.2031" style="stroke:#181818;stroke-width:1.0;" width="10" x="2026.7661" y="381.9531"/>
    <rect fill="#FFFFFF" height="120.5313" style="stroke:#181818;stroke-width:1.0;" width="10" x="2299.3125" y="613.5547"/>
    <rect fill="#FFFFFF" height="172.6641" style="stroke:#181818;stroke-width:1.0;" width="10" x="2689.4297" y="642.6875"/>
    <rect fill="none" height="635.3281" style="stroke:#000000;stroke-width:1.5;" width="2767.4194" x="10" y="172.0234"/>
    <rect fill="none" height="509.9297" style="stroke:#000000;stroke-width:1.5;" width="2685.4421" x="81.9773" y="290.4219"/>
    <rect fill="none" height="241.7344" style="stroke:#000000;stroke-width:1.5;" width="1483.4438" x="745.0825" y="314.5547"/>
    <line style="stroke:#181818;stroke-width:0.5;stroke-dasharray:5.0,5.0;" x1="131.9773" x2="131.9773" y1="155.0234" y2="824.3516"/>
    <line style="stroke:#181818;stroke-width:0.5;stroke-dasharray:5.0,5.0;" x1="932.0825" x2="932.0825" y1="155.0234" y2="824.3516"/>
    <line style="stroke:#181818;stroke-width:0.5;stroke-dasharray:5.0,5.0;" x1="1563.4746" x2="1563.4746" y1="155.0234" y2="824.3516"/>
    <line style="stroke:#181818;stroke-width:0.5;stroke-dasharray:5.0,5.0;" x1="1746.1104" x2="1746.1104" y1="155.0234" y2="824.3516"/>
    <line style="stroke:#181818;stroke-width:0.5;stroke-dasharray:5.0,5.0;" x1="2030.9678" x2="2030.9678" y1="155.0234" y2="824.3516"/>
    <line style="stroke:#181818;stroke-width:0.5;stroke-dasharray:5.0,5.0;" x1="2183.5645" x2="2183.5645" y1="155.0234" y2="824.3516"/>
    <line style="stroke:#181818;stroke-width:0.5;stroke-dasharray:5.0,5.0;" x1="2304.2344" x2="2304.2344" y1="155.0234" y2="824.3516"/>
    <line style="stroke:#181818;stroke-width:0.5;stroke-dasharray:5.0,5.0;" x1="2694.3433" x2="2694.3433" y1="155.0234" y2="824.3516"/>
    <text fill="#000000" font-family="sans-serif" font-size="14" lengthAdjust="spacing" textLength="55.959" x="101.7834" y="135.4248">DFSP(n)</text>
    <text fill="#000000" font-family="sans-serif" font-size="14" lengthAdjust="spacing" textLength="75.5713" x="91.9773" y="151.7217">Participant</text>
    <ellipse cx="132.7629" cy="70.9297" fill="#E2E2F0" rx="8" ry="8" style="stroke:#181818;stroke-width:0.5;"/>
    <path d="M132.7629,78.9297 L132.7629,105.9297 M119.7629,86.9297 L145.7629,86.9297 M132.7629,105.9297 L119.7629,120.9297 M132.7629,105.9297 L145.7629,120.9297 " fill="none" style="stroke:#181818;stroke-width:0.5;"/>
    <text fill="#000000" font-family="sans-serif" font-size="14" lengthAdjust="spacing" textLength="55.959" x="101.7834" y="836.3467">DFSP(n)</text>
    <text fill="#000000" font-family="sans-serif" font-size="14" lengthAdjust="spacing" textLength="75.5713" x="91.9773" y="852.6436">Participant</text>
    <ellipse cx="132.7629" cy="864.4453" fill="#E2E2F0" rx="8" ry="8" style="stroke:#181818;stroke-width:0.5;"/>
    <path d="M132.7629,872.4453 L132.7629,899.4453 M119.7629,880.4453 L145.7629,880.4453 M132.7629,899.4453 L119.7629,914.4453 M132.7629,899.4453 L145.7629,914.4453 " fill="none" style="stroke:#181818;stroke-width:0.5;"/>
    <text fill="#000000" font-family="sans-serif" font-size="14" lengthAdjust="spacing" textLength="349.4326" x="755.0825" y="151.7217">Gestionnaire d&apos;événements de notification ML API</text>
    <ellipse cx="932.7988" cy="122.7266" fill="#E2E2F0" rx="12" ry="12" style="stroke:#181818;stroke-width:0.5;"/>
    <polygon fill="#181818" points="928.7988,110.7266,934.7988,105.7266,932.7988,110.7266,934.7988,115.7266,928.7988,110.7266" style="stroke:#181818;stroke-width:1.0;"/>
    <text fill="#000000" font-family="sans-serif" font-size="14" lengthAdjust="spacing" textLength="349.4326" x="755.0825" y="836.3467">Gestionnaire d&apos;événements de notification ML API</text>
    <ellipse cx="932.7988" cy="855.6484" fill="#E2E2F0" rx="12" ry="12" style="stroke:#181818;stroke-width:0.5;"/>
    <polygon fill="#181818" points="928.7988,843.6484,934.7988,838.6484,932.7988,843.6484,934.7988,848.6484,928.7988,843.6484" style="stroke:#181818;stroke-width:1.0;"/>
    <rect fill="#E2E2F0" height="30.2969" style="stroke:#181818;stroke-width:0.5;" width="182.6357" x="1474.4746" y="119.7266"/>
    <rect fill="#E2E2F0" height="30.2969" style="stroke:#181818;stroke-width:0.5;" width="182.6357" x="1470.4746" y="123.7266"/>
    <text fill="#000000" font-family="sans-serif" font-size="14" lengthAdjust="spacing" textLength="168.6357" x="1477.4746" y="143.7217">Rubrique de notification</text>
    <rect fill="#E2E2F0" height="30.2969" style="stroke:#181818;stroke-width:0.5;" width="182.6357" x="1474.4746" y="823.3516"/>
    <rect fill="#E2E2F0" height="30.2969" style="stroke:#181818;stroke-width:0.5;" width="182.6357" x="1470.4746" y="827.3516"/>
    <text fill="#000000" font-family="sans-serif" font-size="14" lengthAdjust="spacing" textLength="168.6357" x="1477.4746" y="847.3467">Rubrique de notification</text>
    <text fill="#000000" font-family="sans-serif" font-size="14" lengthAdjust="spacing" textLength="152.3047" x="1667.1104" y="151.7217">API du service central</text>
    <path d="M1725.7627,110.7266 L1725.7627,134.7266 M1725.7627,122.7266 L1742.7627,122.7266 " fill="none" style="stroke:#181818;stroke-width:0.5;"/>
    <ellipse cx="1754.7627" cy="122.7266" fill="#E2E2F0" rx="12" ry="12" style="stroke:#181818;stroke-width:0.5;"/>
    <text fill="#000000" font-family="sans-serif" font-size="14" lengthAdjust="spacing" textLength="152.3047" x="1667.1104" y="836.3467">API du service central</text>
    <path d="M1725.7627,843.6484 L1725.7627,867.6484 M1725.7627,855.6484 L1742.7627,855.6484 " fill="none" style="stroke:#181818;stroke-width:0.5;"/>
    <ellipse cx="1754.7627" cy="855.6484" fill="#E2E2F0" rx="12" ry="12" style="stroke:#181818;stroke-width:0.5;"/>
    <rect fill="#E2E2F0" height="30.2969" style="stroke:#181818;stroke-width:0.5;" width="181.5967" x="1942.9678" y="119.7266"/>
    <rect fill="#E2E2F0" height="30.2969" style="stroke:#181818;stroke-width:0.5;" width="181.5967" x="1938.9678" y="123.7266"/>
    <text fill="#000000" font-family="sans-serif" font-size="14" lengthAdjust="spacing" textLength="167.5967" x="1945.9678" y="143.7217">Rubrique d&apos;événements</text>
    <rect fill="#E2E2F0" height="30.2969" style="stroke:#181818;stroke-width:0.5;" width="181.5967" x="1942.9678" y="823.3516"/>
    <rect fill="#E2E2F0" height="30.2969" style="stroke:#181818;stroke-width:0.5;" width="181.5967" x="1938.9678" y="827.3516"/>
    <text fill="#000000" font-family="sans-serif" font-size="14" lengthAdjust="spacing" textLength="167.5967" x="1945.9678" y="847.3467">Rubrique d&apos;événements</text>
    <rect fill="#E2E2F0" height="30.2969" rx="2.5" ry="2.5" style="stroke:#181818;stroke-width:0.5;" width="98.6699" x="2134.5645" y="123.7266"/>
    <text fill="#000000" font-family="sans-serif" font-size="14" lengthAdjust="spacing" textLength="84.6699" x="2141.5645" y="143.7217">EVENT_DAO</text>
    <rect fill="#E2E2F0" height="30.2969" rx="2.5" ry="2.5" style="stroke:#181818;stroke-width:0.5;" width="98.6699" x="2134.5645" y="823.3516"/>
    <text fill="#000000" font-family="sans-serif" font-size="14" lengthAdjust="spacing" textLength="84.6699" x="2141.5645" y="843.3467">EVENT_DAO</text>
    <text fill="#000000" font-family="sans-serif" font-size="14" lengthAdjust="spacing" textLength="116.1563" x="2243.2344" y="151.7217">Notification DAO</text>
    <ellipse cx="2304.3125" cy="122.7266" fill="#E2E2F0" rx="12" ry="12" style="stroke:#181818;stroke-width:0.5;"/>
    <line style="stroke:#181818;stroke-width:0.5;" x1="2292.3125" x2="2316.3125" y1="136.7266" y2="136.7266"/>
    <text fill="#000000" font-family="sans-serif" font-size="14" lengthAdjust="spacing" textLength="116.1563" x="2243.2344" y="836.3467">Notification DAO</text>
    <ellipse cx="2304.3125" cy="855.6484" fill="#E2E2F0" rx="12" ry="12" style="stroke:#181818;stroke-width:0.5;"/>
    <line style="stroke:#181818;stroke-width:0.5;" x1="2292.3125" x2="2316.3125" y1="869.6484" y2="869.6484"/>
    <text fill="#000000" font-family="sans-serif" font-size="14" lengthAdjust="spacing" textLength="118.1729" x="2632.3433" y="151.7217">Stockage central</text>
    <path d="M2676.4297,102.7266 C2676.4297,92.7266 2694.4297,92.7266 2694.4297,92.7266 C2694.4297,92.7266 2712.4297,92.7266 2712.4297,102.7266 L2712.4297,128.7266 C2712.4297,138.7266 2694.4297,138.7266 2694.4297,138.7266 C2694.4297,138.7266 2676.4297,138.7266 2676.4297,128.7266 L2676.4297,102.7266 " fill="#E2E2F0" style="stroke:#181818;stroke-width:1.5;"/>
    <path d="M2676.4297,102.7266 C2676.4297,112.7266 2694.4297,112.7266 2694.4297,112.7266 C2694.4297,112.7266 2712.4297,112.7266 2712.4297,102.7266 " fill="none" style="stroke:#181818;stroke-width:1.5;"/>
    <text fill="#000000" font-family="sans-serif" font-size="14" lengthAdjust="spacing" textLength="118.1729" x="2632.3433" y="836.3467">Stockage central</text>
    <path d="M2676.4297,849.6484 C2676.4297,839.6484 2694.4297,839.6484 2694.4297,839.6484 C2694.4297,839.6484 2712.4297,839.6484 2712.4297,849.6484 L2712.4297,875.6484 C2712.4297,885.6484 2694.4297,885.6484 2694.4297,885.6484 C2694.4297,885.6484 2676.4297,885.6484 2676.4297,875.6484 L2676.4297,849.6484 " fill="#E2E2F0" style="stroke:#181818;stroke-width:1.5;"/>
    <path d="M2676.4297,849.6484 C2676.4297,859.6484 2694.4297,859.6484 2694.4297,859.6484 C2694.4297,859.6484 2712.4297,859.6484 2712.4297,849.6484 " fill="none" style="stroke:#181818;stroke-width:1.5;"/>
    <rect fill="#FFFFFF" height="649.3281" style="stroke:#181818;stroke-width:1.0;" width="10" x="927.7988" y="165.0234"/>
    <rect fill="#FFFFFF" height="30" style="stroke:#181818;stroke-width:1.0;" width="10" x="1558.7925" y="245.4219"/>
    <rect fill="#FFFFFF" height="195.4688" style="stroke:#181818;stroke-width:1.0;" width="10" x="1741.2627" y="352.8203"/>
    <rect fill="#FFFFFF" height="178.7969" style="stroke:#181818;stroke-width:1.0;" width="10" x="1741.2627" y="584.4219"/>
    <rect fill="#FFFFFF" height="137.2031" style="stroke:#181818;stroke-width:1.0;" width="10" x="2026.7661" y="381.9531"/>
    <rect fill="#FFFFFF" height="120.5313" style="stroke:#181818;stroke-width:1.0;" width="10" x="2299.3125" y="613.5547"/>
    <rect fill="#FFFFFF" height="172.6641" style="stroke:#181818;stroke-width:1.0;" width="10" x="2689.4297" y="642.6875"/>
    <path d="M10,172.0234 L342.8726,172.0234 L342.8726,179.1563 L332.8726,189.1563 L10,189.1563 L10,172.0234 " fill="#EEEEEE" style="stroke:#000000;stroke-width:1.5;"/>
    <rect fill="none" height="635.3281" style="stroke:#000000;stroke-width:1.5;" width="2767.4194" x="10" y="172.0234"/>
    <text fill="#000000" font-family="sans-serif" font-size="13" font-weight="bold" lengthAdjust="spacing" textLength="287.8726" x="25" y="185.0903">Envoyer une notification au participant</text>
    <path d="M20,194.1563 L20,219.1563 L244,219.1563 L244,204.1563 L234,194.1563 L20,194.1563 " fill="#FFA07A" style="stroke:#181818;stroke-width:0.5;"/>
    <path d="M234,194.1563 L234,204.1563 L244,204.1563 L234,194.1563 " fill="#FFA07A" style="stroke:#181818;stroke-width:0.5;"/>
    <text fill="#000000" font-family="sans-serif" font-size="13" lengthAdjust="spacing" textLength="203.855" x="26" y="211.2231">Ce flux n&apos;a pas été implémenté</text>
    <polygon fill="#181818" points="1546.7925,241.4219,1556.7925,245.4219,1546.7925,249.4219,1550.7925,245.4219" style="stroke:#181818;stroke-width:1.0;"/>
    <line style="stroke:#181818;stroke-width:1.0;" x1="937.7988" x2="1552.7925" y1="245.4219" y2="245.4219"/>
    <text fill="#000000" font-family="sans-serif" font-size="13" font-weight="bold" lengthAdjust="spacing" textLength="9.0454" x="944.7988" y="240.356">1</text>
    <text fill="#FF0000" font-family="sans-serif" font-size="13" font-weight="bold" lengthAdjust="spacing" textLength="588.9482" x="957.8442" y="240.356">Consommer le lot de messages d&apos;événement de notifications pour le participant</text>
    <path d="M81.9773,290.4219 L158.6013,290.4219 L158.6013,297.5547 L148.6013,307.5547 L81.9773,307.5547 L81.9773,290.4219 " fill="#EEEEEE" style="stroke:#000000;stroke-width:1.5;"/>
    <rect fill="none" height="509.9297" style="stroke:#000000;stroke-width:1.5;" width="2685.4421" x="81.9773" y="290.4219"/>
    <text fill="#000000" font-family="sans-serif" font-size="13" font-weight="bold" lengthAdjust="spacing" textLength="31.624" x="96.9773" y="303.4888">loop</text>
    <text fill="#000000" font-family="sans-serif" font-size="11" font-weight="bold" lengthAdjust="spacing" textLength="173.6582" x="173.6013" y="302.6323">[for each message in batch]</text>
    <path d="M745.0825,314.5547 L1079.7197,314.5547 L1079.7197,321.6875 L1069.7197,331.6875 L745.0825,331.6875 L745.0825,314.5547 " fill="#EEEEEE" style="stroke:#000000;stroke-width:1.5;"/>
    <rect fill="none" height="241.7344" style="stroke:#000000;stroke-width:1.5;" width="1483.4438" x="745.0825" y="314.5547"/>
    <text fill="#000000" font-family="sans-serif" font-size="13" font-weight="bold" lengthAdjust="spacing" textLength="289.6372" x="760.0825" y="327.6216">Persister les informations d&apos;événement</text>
    <polygon fill="#181818" points="1729.2627,348.8203,1739.2627,352.8203,1729.2627,356.8203,1733.2627,352.8203" style="stroke:#181818;stroke-width:1.0;"/>
    <line style="stroke:#181818;stroke-width:1.0;" x1="937.7988" x2="1735.2627" y1="352.8203" y2="352.8203"/>
    <text fill="#000000" font-family="sans-serif" font-size="13" font-weight="bold" lengthAdjust="spacing" textLength="9.0454" x="944.7988" y="347.7544">2</text>
    <text fill="#000000" font-family="sans-serif" font-size="13" lengthAdjust="spacing" textLength="468.3682" x="957.8442" y="347.7544">Demande de persister les informations d&apos;événement — POST — /events</text>
    <polygon fill="#181818" points="2014.7661,377.9531,2024.7661,381.9531,2014.7661,385.9531,2018.7661,381.9531" style="stroke:#181818;stroke-width:1.0;"/>
    <line style="stroke:#181818;stroke-width:1.0;" x1="1751.2627" x2="2020.7661" y1="381.9531" y2="381.9531"/>
    <text fill="#000000" font-family="sans-serif" font-size="13" font-weight="bold" lengthAdjust="spacing" textLength="9.0454" x="1758.2627" y="376.8872">3</text>
    <text fill="#000000" font-family="sans-serif" font-size="13" lengthAdjust="spacing" textLength="243.458" x="1771.3081" y="376.8872">Publier les informations d&apos;événement</text>
    <rect fill="none" height="53.0703" style="stroke:#000000;stroke-width:1.5;" width="285.5586" x="1935.9678" y="414.9531"/>
    <path d="M1935.9678,414.9531 L2000.9678,414.9531 L2000.9678,421.9531 L1990.9678,431.9531 L1935.9678,431.9531 L1935.9678,414.9531 " fill="#EEEEEE" style="stroke:#000000;stroke-width:2.0;"/>
    <text fill="#000000" font-family="sans-serif" font-size="13" font-weight="bold" lengthAdjust="spacing" textLength="20.8838" x="1948.9678" y="429.02">ref</text>
    <text fill="#000000" font-family="sans-serif" font-size="12" lengthAdjust="spacing" textLength="277.5586" x="1939.9678" y="447.0918">Consommation du gestionnaire d&apos;événements</text>
    <text fill="#000000" font-family="sans-serif" font-size="12" lengthAdjust="spacing" textLength="3.8145" x="2076.8398" y="461.0605"> </text>
    <polygon fill="#181818" points="1762.2627,515.1563,1752.2627,519.1563,1762.2627,523.1563,1758.2627,519.1563" style="stroke:#181818;stroke-width:1.0;"/>
    <line style="stroke:#181818;stroke-width:1.0;stroke-dasharray:2.0,2.0;" x1="1756.2627" x2="2030.7661" y1="519.1563" y2="519.1563"/>
    <text fill="#000000" font-family="sans-serif" font-size="13" font-weight="bold" lengthAdjust="spacing" textLength="9.0454" x="1768.2627" y="514.0903">4</text>
    <text fill="#000000" font-family="sans-serif" font-size="13" lengthAdjust="spacing" textLength="125.9058" x="1781.3081" y="514.0903">Renvoyer le succès</text>
    <polygon fill="#181818" points="948.7988,544.2891,938.7988,548.2891,948.7988,552.2891,944.7988,548.2891" style="stroke:#181818;stroke-width:1.0;"/>
    <line style="stroke:#181818;stroke-width:1.0;stroke-dasharray:2.0,2.0;" x1="942.7988" x2="1745.2627" y1="548.2891" y2="548.2891"/>
    <text fill="#000000" font-family="sans-serif" font-size="13" font-weight="bold" lengthAdjust="spacing" textLength="9.0454" x="954.7988" y="543.2231">5</text>
    <text fill="#000000" font-family="sans-serif" font-size="13" lengthAdjust="spacing" textLength="125.9058" x="967.8442" y="543.2231">Renvoyer le succès</text>
    <polygon fill="#181818" points="1729.2627,580.4219,1739.2627,584.4219,1729.2627,588.4219,1733.2627,584.4219" style="stroke:#181818;stroke-width:1.0;"/>
    <line style="stroke:#181818;stroke-width:1.0;" x1="937.7988" x2="1735.2627" y1="584.4219" y2="584.4219"/>
    <text fill="#000000" font-family="sans-serif" font-size="13" font-weight="bold" lengthAdjust="spacing" textLength="9.0454" x="944.7988" y="579.356">6</text>
    <text fill="#000000" font-family="sans-serif" font-size="13" lengthAdjust="spacing" textLength="530.9053" x="957.8442" y="579.356">Demander les détails de notifications du participant - GET - /notifications/DFPS(n)</text>
    <polygon fill="#181818" points="2287.3125,609.5547,2297.3125,613.5547,2287.3125,617.5547,2291.3125,613.5547" style="stroke:#181818;stroke-width:1.0;"/>
    <line style="stroke:#181818;stroke-width:1.0;" x1="1751.2627" x2="2293.3125" y1="613.5547" y2="613.5547"/>
    <text fill="#000000" font-family="sans-serif" font-size="13" font-weight="bold" lengthAdjust="spacing" textLength="9.0454" x="1758.2627" y="608.4888">7</text>
    <text fill="#000000" font-family="sans-serif" font-size="13" lengthAdjust="spacing" textLength="337.0479" x="1771.3081" y="608.4888">Récupérer les détails de notifications du participant</text>
    <polygon fill="#181818" points="2677.4297,638.6875,2687.4297,642.6875,2677.4297,646.6875,2681.4297,642.6875" style="stroke:#181818;stroke-width:1.0;"/>
    <line style="stroke:#181818;stroke-width:1.0;" x1="2309.3125" x2="2683.4297" y1="642.6875" y2="642.6875"/>
    <text fill="#000000" font-family="sans-serif" font-size="13" font-weight="bold" lengthAdjust="spacing" textLength="9.0454" x="2316.3125" y="637.6216">8</text>
    <text fill="#000000" font-family="sans-serif" font-size="13" lengthAdjust="spacing" textLength="337.0479" x="2329.3579" y="637.6216">Récupérer les détails de notifications du participant</text>
    <polygon fill="#FFFFE0" points="2641,655.6875,2747,655.6875,2757,666.6875,2747,678.6875,2641,678.6875,2631,666.6875,2641,655.6875" style="stroke:#181818;stroke-width:0.5;"/>
    <text fill="#000000" font-family="sans-serif" font-size="13" lengthAdjust="spacing" textLength="102.4194" x="2643" y="671.7544">transferPosition</text>
    <polygon fill="#181818" points="2320.3125,700.9531,2310.3125,704.9531,2320.3125,708.9531,2316.3125,704.9531" style="stroke:#181818;stroke-width:1.0;"/>
    <line style="stroke:#181818;stroke-width:1.0;stroke-dasharray:2.0,2.0;" x1="2314.3125" x2="2688.4297" y1="704.9531" y2="704.9531"/>
    <text fill="#000000" font-family="sans-serif" font-size="13" font-weight="bold" lengthAdjust="spacing" textLength="9.0454" x="2326.3125" y="699.8872">9</text>
    <text fill="#000000" font-family="sans-serif" font-size="13" lengthAdjust="spacing" textLength="343.0718" x="2339.3579" y="699.8872">Détails de notifications récupérés pour le participant</text>
    <polygon fill="#181818" points="1762.2627,730.0859,1752.2627,734.0859,1762.2627,738.0859,1758.2627,734.0859" style="stroke:#181818;stroke-width:1.0;"/>
    <line style="stroke:#181818;stroke-width:1.0;stroke-dasharray:2.0,2.0;" x1="1756.2627" x2="2303.3125" y1="734.0859" y2="734.0859"/>
    <text fill="#000000" font-family="sans-serif" font-size="13" font-weight="bold" lengthAdjust="spacing" textLength="18.0908" x="1768.2627" y="729.02">10</text>
    <text fill="#000000" font-family="sans-serif" font-size="13" lengthAdjust="spacing" textLength="331.646" x="1790.3535" y="729.02">Renvoyer les détails de notifications du participant</text>
    <polygon fill="#181818" points="948.7988,759.2188,938.7988,763.2188,948.7988,767.2188,944.7988,763.2188" style="stroke:#181818;stroke-width:1.0;"/>
    <line style="stroke:#181818;stroke-width:1.0;stroke-dasharray:2.0,2.0;" x1="942.7988" x2="1745.2627" y1="763.2188" y2="763.2188"/>
    <text fill="#000000" font-family="sans-serif" font-size="13" font-weight="bold" lengthAdjust="spacing" textLength="18.0908" x="954.7988" y="758.1528">11</text>
    <text fill="#000000" font-family="sans-serif" font-size="13" lengthAdjust="spacing" textLength="331.646" x="976.8896" y="758.1528">Renvoyer les détails de notifications du participant</text>
    <polygon fill="#181818" points="143.7629,788.3516,133.7629,792.3516,143.7629,796.3516,139.7629,792.3516" style="stroke:#181818;stroke-width:1.0;"/>
    <line style="stroke:#181818;stroke-width:1.0;stroke-dasharray:2.0,2.0;" x1="137.7629" x2="926.7988" y1="792.3516" y2="792.3516"/>
    <text fill="#000000" font-family="sans-serif" font-size="13" font-weight="bold" lengthAdjust="spacing" textLength="18.0908" x="149.7629" y="787.2856">12</text>
    <text fill="#000000" font-family="sans-serif" font-size="13" lengthAdjust="spacing" textLength="664.9678" x="171.8538" y="787.2856">Rappel avec résultat de préparation au participant sur l&apos;URL spécifiée - PUT - /&lt;dfsp-host&gt;&gt;/transfers</text>
  </g>
</svg>
