<svg xmlns="http://www.w3.org/2000/svg" xmlns:xlink="http://www.w3.org/1999/xlink" contentStyleType="text/css" height="1065px" preserveAspectRatio="none" style="width:1213px;height:1065px;background:#FFFFFF;" version="1.1" viewBox="0 0 1213 1065" width="1213px" zoomAndPan="magnify">
  <title>9.1.1. Contrôle de doublon de requête (incl. transferts, devis, transferts groupés, devis groupés)</title>
  <defs/>
  <g>
    <text fill="#000000" font-family="sans-serif" font-size="14" font-weight="bold" lengthAdjust="spacing" textLength="768.0723" x="224.2771" y="27.9951">9.1.1. Contrôle de doublon de requête (incl. transferts, devis, transferts groupés, devis groupés)</text>
    <rect fill="#FFFFE0" height="1011.8438" style="stroke:#181818;stroke-width:0.5;" width="1140.7437" x="16" y="43.2969"/>
    <text fill="#000000" font-family="sans-serif" font-size="13" font-weight="bold" lengthAdjust="spacing" textLength="110.2017" x="531.271" y="55.3638">Service central</text>
    <rect fill="#FFFFFF" height="30" style="stroke:#181818;stroke-width:1.0;" width="10" x="67.1895" y="182.2891"/>
    <rect fill="#FFFFFF" height="841.5234" style="stroke:#181818;stroke-width:1.0;" width="10" x="266.1997" y="137.0234"/>
    <rect fill="#FFFFFF" height="201.0625" style="stroke:#181818;stroke-width:1.0;" width="10" x="816.4121" y="322.8203"/>
    <rect fill="#FFFFFF" height="121.3984" style="stroke:#181818;stroke-width:1.0;" width="10" x="816.4121" y="746.6172"/>
    <rect fill="#FFFFFF" height="62.2656" style="stroke:#181818;stroke-width:1.0;" width="10" x="1085.6572" y="432.4844"/>
    <rect fill="#FFFFFF" height="30" style="stroke:#181818;stroke-width:1.0;" width="10" x="1085.6572" y="775.75"/>
    <rect fill="none" height="826.5234" style="stroke:#000000;stroke-width:1.5;" width="1197.6265" x="10" y="144.0234"/>
    <rect fill="none" height="262.4609" style="stroke:#000000;stroke-width:1.5;" width="985.0439" x="202.5825" y="269.4219"/>
    <rect fill="none" height="337.1328" style="stroke:#000000;stroke-width:1.5;" width="1005.0439" x="192.5825" y="545.8828"/>
    <rect fill="none" height="94.3984" style="stroke:#000000;stroke-width:1.5;" width="413.375" x="202.5825" y="570.0156"/>
    <rect fill="none" height="182.7969" style="stroke:#000000;stroke-width:1.5;" width="985.0439" x="202.5825" y="693.2188"/>
    <line style="stroke:#181818;stroke-width:0.5;stroke-dasharray:5.0,5.0;" x1="72" x2="72" y1="127.0234" y2="987.5469"/>
    <line style="stroke:#181818;stroke-width:0.5;stroke-dasharray:5.0,5.0;" x1="270.5825" x2="270.5825" y1="127.0234" y2="987.5469"/>
    <line style="stroke:#181818;stroke-width:0.5;stroke-dasharray:5.0,5.0;" x1="571.2021" x2="571.2021" y1="127.0234" y2="987.5469"/>
    <line style="stroke:#181818;stroke-width:0.5;stroke-dasharray:5.0,5.0;" x1="696.6563" x2="696.6563" y1="127.0234" y2="987.5469"/>
    <line style="stroke:#181818;stroke-width:0.5;stroke-dasharray:5.0,5.0;" x1="821.0762" x2="821.0762" y1="127.0234" y2="987.5469"/>
    <line style="stroke:#181818;stroke-width:0.5;stroke-dasharray:5.0,5.0;" x1="1090.5708" x2="1090.5708" y1="127.0234" y2="987.5469"/>
    <rect fill="#E2E2F0" height="30.2969" style="stroke:#181818;stroke-width:0.5;" width="100.3789" x="24" y="91.7266"/>
    <rect fill="#E2E2F0" height="30.2969" style="stroke:#181818;stroke-width:0.5;" width="100.3789" x="20" y="95.7266"/>
    <text fill="#000000" font-family="sans-serif" font-size="14" lengthAdjust="spacing" textLength="86.3789" x="27" y="115.7217">topic-source</text>
    <rect fill="#E2E2F0" height="30.2969" style="stroke:#181818;stroke-width:0.5;" width="100.3789" x="24" y="986.5469"/>
    <rect fill="#E2E2F0" height="30.2969" style="stroke:#181818;stroke-width:0.5;" width="100.3789" x="20" y="990.5469"/>
    <text fill="#000000" font-family="sans-serif" font-size="14" lengthAdjust="spacing" textLength="86.3789" x="27" y="1010.542">topic-source</text>
    <text fill="#000000" font-family="sans-serif" font-size="14" lengthAdjust="spacing" textLength="111.2344" x="212.5825" y="107.4248">Gestionnaire de</text>
    <text fill="#000000" font-family="sans-serif" font-size="14" lengthAdjust="spacing" textLength="74.4297" x="230.9849" y="123.7217">traitement</text>
    <ellipse cx="271.1997" cy="78.4297" fill="#E2E2F0" rx="12" ry="12" style="stroke:#181818;stroke-width:0.5;"/>
    <polygon fill="#181818" points="267.1997,66.4297,273.1997,61.4297,271.1997,66.4297,273.1997,71.4297,267.1997,66.4297" style="stroke:#181818;stroke-width:1.0;"/>
    <text fill="#000000" font-family="sans-serif" font-size="14" lengthAdjust="spacing" textLength="111.2344" x="212.5825" y="999.542">Gestionnaire de</text>
    <text fill="#000000" font-family="sans-serif" font-size="14" lengthAdjust="spacing" textLength="74.4297" x="230.9849" y="1015.8389">traitement</text>
    <ellipse cx="271.1997" cy="1035.1406" fill="#E2E2F0" rx="12" ry="12" style="stroke:#181818;stroke-width:0.5;"/>
    <polygon fill="#181818" points="267.1997,1023.1406,273.1997,1018.1406,271.1997,1023.1406,273.1997,1028.1406,267.1997,1023.1406" style="stroke:#181818;stroke-width:1.0;"/>
    <rect fill="#E2E2F0" height="30.2969" style="stroke:#181818;stroke-width:0.5;" width="93.4541" x="527.2021" y="91.7266"/>
    <rect fill="#E2E2F0" height="30.2969" style="stroke:#181818;stroke-width:0.5;" width="93.4541" x="523.2021" y="95.7266"/>
    <text fill="#000000" font-family="sans-serif" font-size="14" lengthAdjust="spacing" textLength="79.4541" x="530.2021" y="115.7217">topic-event</text>
    <rect fill="#E2E2F0" height="30.2969" style="stroke:#181818;stroke-width:0.5;" width="93.4541" x="527.2021" y="986.5469"/>
    <rect fill="#E2E2F0" height="30.2969" style="stroke:#181818;stroke-width:0.5;" width="93.4541" x="523.2021" y="990.5469"/>
    <text fill="#000000" font-family="sans-serif" font-size="14" lengthAdjust="spacing" textLength="79.4541" x="530.2021" y="1010.542">topic-event</text>
    <rect fill="#E2E2F0" height="30.2969" style="stroke:#181818;stroke-width:0.5;" width="128.4199" x="634.6563" y="91.7266"/>
    <rect fill="#E2E2F0" height="30.2969" style="stroke:#181818;stroke-width:0.5;" width="128.4199" x="630.6563" y="95.7266"/>
    <text fill="#000000" font-family="sans-serif" font-size="14" lengthAdjust="spacing" textLength="114.4199" x="637.6563" y="115.7217">topic-notifcation</text>
    <rect fill="#E2E2F0" height="30.2969" style="stroke:#181818;stroke-width:0.5;" width="128.4199" x="634.6563" y="986.5469"/>
    <rect fill="#E2E2F0" height="30.2969" style="stroke:#181818;stroke-width:0.5;" width="128.4199" x="630.6563" y="990.5469"/>
    <text fill="#000000" font-family="sans-serif" font-size="14" lengthAdjust="spacing" textLength="114.4199" x="637.6563" y="1010.542">topic-notifcation</text>
    <text fill="#000000" font-family="sans-serif" font-size="14" lengthAdjust="spacing" textLength="90.6719" x="773.0762" y="123.7217">DAO requête</text>
    <ellipse cx="821.4121" cy="94.7266" fill="#E2E2F0" rx="12" ry="12" style="stroke:#181818;stroke-width:0.5;"/>
    <line style="stroke:#181818;stroke-width:0.5;" x1="809.4121" x2="833.4121" y1="108.7266" y2="108.7266"/>
    <text fill="#000000" font-family="sans-serif" font-size="14" lengthAdjust="spacing" textLength="90.6719" x="773.0762" y="999.542">DAO requête</text>
    <ellipse cx="821.4121" cy="1018.8438" fill="#E2E2F0" rx="12" ry="12" style="stroke:#181818;stroke-width:0.5;"/>
    <line style="stroke:#181818;stroke-width:0.5;" x1="809.4121" x2="833.4121" y1="1032.8438" y2="1032.8438"/>
    <text fill="#000000" font-family="sans-serif" font-size="14" lengthAdjust="spacing" textLength="118.1729" x="1028.5708" y="123.7217">Stockage central</text>
    <path d="M1072.6572,74.7266 C1072.6572,64.7266 1090.6572,64.7266 1090.6572,64.7266 C1090.6572,64.7266 1108.6572,64.7266 1108.6572,74.7266 L1108.6572,100.7266 C1108.6572,110.7266 1090.6572,110.7266 1090.6572,110.7266 C1090.6572,110.7266 1072.6572,110.7266 1072.6572,100.7266 L1072.6572,74.7266 " fill="#E2E2F0" style="stroke:#181818;stroke-width:1.5;"/>
    <path d="M1072.6572,74.7266 C1072.6572,84.7266 1090.6572,84.7266 1090.6572,84.7266 C1090.6572,84.7266 1108.6572,84.7266 1108.6572,74.7266 " fill="none" style="stroke:#181818;stroke-width:1.5;"/>
    <text fill="#000000" font-family="sans-serif" font-size="14" lengthAdjust="spacing" textLength="118.1729" x="1028.5708" y="999.542">Stockage central</text>
    <path d="M1072.6572,1012.8438 C1072.6572,1002.8438 1090.6572,1002.8438 1090.6572,1002.8438 C1090.6572,1002.8438 1108.6572,1002.8438 1108.6572,1012.8438 L1108.6572,1038.8438 C1108.6572,1048.8438 1090.6572,1048.8438 1090.6572,1048.8438 C1090.6572,1048.8438 1072.6572,1048.8438 1072.6572,1038.8438 L1072.6572,1012.8438 " fill="#E2E2F0" style="stroke:#181818;stroke-width:1.5;"/>
    <path d="M1072.6572,1012.8438 C1072.6572,1022.8438 1090.6572,1022.8438 1090.6572,1022.8438 C1090.6572,1022.8438 1108.6572,1022.8438 1108.6572,1012.8438 " fill="none" style="stroke:#181818;stroke-width:1.5;"/>
    <rect fill="#FFFFFF" height="30" style="stroke:#181818;stroke-width:1.0;" width="10" x="67.1895" y="182.2891"/>
    <rect fill="#FFFFFF" height="841.5234" style="stroke:#181818;stroke-width:1.0;" width="10" x="266.1997" y="137.0234"/>
    <rect fill="#FFFFFF" height="201.0625" style="stroke:#181818;stroke-width:1.0;" width="10" x="816.4121" y="322.8203"/>
    <rect fill="#FFFFFF" height="121.3984" style="stroke:#181818;stroke-width:1.0;" width="10" x="816.4121" y="746.6172"/>
    <rect fill="#FFFFFF" height="62.2656" style="stroke:#181818;stroke-width:1.0;" width="10" x="1085.6572" y="432.4844"/>
    <rect fill="#FFFFFF" height="30" style="stroke:#181818;stroke-width:1.0;" width="10" x="1085.6572" y="775.75"/>
    <path d="M10,144.0234 L288.981,144.0234 L288.981,151.1563 L278.981,161.1563 L10,161.1563 L10,144.0234 " fill="#EEEEEE" style="stroke:#000000;stroke-width:1.5;"/>
    <rect fill="none" height="826.5234" style="stroke:#000000;stroke-width:1.5;" width="1197.6265" x="10" y="144.0234"/>
    <text fill="#000000" font-family="sans-serif" font-size="13" font-weight="bold" lengthAdjust="spacing" textLength="233.981" x="25" y="157.0903">Contrôle de doublon de requête</text>
    <polygon fill="#181818" points="88.1895,178.2891,78.1895,182.2891,88.1895,186.2891,84.1895,182.2891" style="stroke:#181818;stroke-width:1.0;"/>
    <line style="stroke:#181818;stroke-width:1.0;" x1="82.1895" x2="265.1997" y1="182.2891" y2="182.2891"/>
    <text fill="#000000" font-family="sans-serif" font-size="13" font-weight="bold" lengthAdjust="spacing" textLength="9.0454" x="94.1895" y="177.2231">1</text>
    <text fill="#000000" font-family="sans-serif" font-size="13" lengthAdjust="spacing" textLength="156.9648" x="107.2349" y="177.2231">Consommer le message</text>
    <line style="stroke:#181818;stroke-width:1.0;" x1="276.1997" x2="318.1997" y1="241.4219" y2="241.4219"/>
    <line style="stroke:#181818;stroke-width:1.0;" x1="318.1997" x2="318.1997" y1="241.4219" y2="254.4219"/>
    <line style="stroke:#181818;stroke-width:1.0;" x1="277.1997" x2="318.1997" y1="254.4219" y2="254.4219"/>
    <polygon fill="#181818" points="287.1997,250.4219,277.1997,254.4219,287.1997,258.4219,283.1997,254.4219" style="stroke:#181818;stroke-width:1.0;"/>
    <text fill="#000000" font-family="sans-serif" font-size="13" font-weight="bold" lengthAdjust="spacing" textLength="9.0454" x="283.1997" y="236.356">2</text>
    <text fill="#000000" font-family="sans-serif" font-size="13" lengthAdjust="spacing" textLength="137.1919" x="296.2451" y="236.356">Générer le hachage :</text>
    <text fill="#000000" font-family="sans-serif" font-size="13" font-weight="bold" lengthAdjust="spacing" textLength="112.3599" x="437.5693" y="236.356">generatedHash</text>
    <path d="M202.5825,269.4219 L463.8281,269.4219 L463.8281,276.5547 L453.8281,286.5547 L202.5825,286.5547 L202.5825,269.4219 " fill="#EEEEEE" style="stroke:#000000;stroke-width:1.5;"/>
    <rect fill="none" height="262.4609" style="stroke:#000000;stroke-width:1.5;" width="985.0439" x="202.5825" y="269.4219"/>
    <text fill="#000000" font-family="sans-serif" font-size="13" font-weight="bold" lengthAdjust="spacing" textLength="216.2456" x="217.5825" y="282.4888">Contrôle UUID (compareById)</text>
    <polygon fill="#181818" points="804.4121,318.8203,814.4121,322.8203,804.4121,326.8203,808.4121,322.8203" style="stroke:#181818;stroke-width:1.0;"/>
    <line style="stroke:#181818;stroke-width:1.0;" x1="276.1997" x2="810.4121" y1="322.8203" y2="322.8203"/>
    <text fill="#000000" font-family="sans-serif" font-size="13" font-weight="bold" lengthAdjust="spacing" textLength="9.0454" x="283.1997" y="310.188">3</text>
    <text fill="#000000" font-family="sans-serif" font-size="13" lengthAdjust="spacing" textLength="392.5327" x="296.2451" y="302.6216">Interroger le hachage via getDuplicateDataFuncOverride(id)</text>
    <text fill="#FF0000" font-family="sans-serif" font-size="13" font-weight="bold" lengthAdjust="spacing" textLength="110.2524" x="296.2451" y="317.7544">Code d&apos;erreur :</text>
    <text fill="#FF0000" font-family="sans-serif" font-size="13" lengthAdjust="spacing" textLength="33.084" x="410.6299" y="317.7544">2003</text>
    <path d="M831,335.8203 L831,405.8203 L1106,405.8203 L1106,345.8203 L1096,335.8203 L831,335.8203 " fill="#D3D3D3" style="stroke:#181818;stroke-width:0.5;"/>
    <path d="M1096,335.8203 L1096,345.8203 L1106,345.8203 L1096,335.8203 " fill="#D3D3D3" style="stroke:#181818;stroke-width:0.5;"/>
    <text fill="#000000" font-family="sans-serif" font-size="13" lengthAdjust="spacing" textLength="68.5356" x="837" y="352.8872">Le mot-clé</text>
    <text fill="#000000" font-family="sans-serif" font-size="13" font-style="italic" lengthAdjust="spacing" textLength="49.7021" x="909.668" y="352.8872">request</text>
    <text fill="#000000" font-family="sans-serif" font-size="13" lengthAdjust="spacing" textLength="128.1211" x="963.5024" y="352.8872">est à remplacer par</text>
    <text fill="#000000" font-family="sans-serif" font-size="13" font-weight="bold" lengthAdjust="spacing" textLength="59.2744" x="837" y="368.02">transfer</text>
    <text fill="#000000" font-family="sans-serif" font-size="13" lengthAdjust="spacing" textLength="4.1323" x="896.2744" y="368.02">,</text>
    <text fill="#000000" font-family="sans-serif" font-size="13" font-weight="bold" lengthAdjust="spacing" textLength="134.2656" x="904.5391" y="368.02">transferFulfilment</text>
    <text fill="#000000" font-family="sans-serif" font-size="13" lengthAdjust="spacing" textLength="4.1323" x="1038.8047" y="368.02">,</text>
    <text fill="#000000" font-family="sans-serif" font-size="13" font-weight="bold" lengthAdjust="spacing" textLength="93.5898" x="837" y="383.1528">bulkTransfer</text>
    <text fill="#000000" font-family="sans-serif" font-size="13" lengthAdjust="spacing" textLength="93.6787" x="934.7222" y="383.1528">ou autre selon</text>
    <text fill="#000000" font-family="sans-serif" font-size="13" lengthAdjust="spacing" textLength="81.0151" x="837" y="398.2856">la surcharge</text>
    <polygon fill="#181818" points="1073.6572,428.4844,1083.6572,432.4844,1073.6572,436.4844,1077.6572,432.4844" style="stroke:#181818;stroke-width:1.0;"/>
    <line style="stroke:#181818;stroke-width:1.0;" x1="826.4121" x2="1079.6572" y1="432.4844" y2="432.4844"/>
    <text fill="#000000" font-family="sans-serif" font-size="13" font-weight="bold" lengthAdjust="spacing" textLength="9.0454" x="833.4121" y="427.4185">4</text>
    <text fill="#000000" font-family="sans-serif" font-size="13" lengthAdjust="spacing" textLength="201.8999" x="846.4575" y="427.4185">getDuplicateDataFuncOverride</text>
    <polygon fill="#FFFFE0" points="1012,445.4844,1167,445.4844,1177,456.4844,1167,468.4844,1012,468.4844,1002,456.4844,1012,445.4844" style="stroke:#181818;stroke-width:0.5;"/>
    <text fill="#000000" font-family="sans-serif" font-size="13" font-style="italic" lengthAdjust="spacing" textLength="49.7021" x="1014" y="461.5513">request</text>
    <text fill="#000000" font-family="sans-serif" font-size="13" lengthAdjust="spacing" textLength="101.9243" x="1063.7021" y="461.5513">DuplicateCheck</text>
    <polygon fill="#181818" points="837.4121,490.75,827.4121,494.75,837.4121,498.75,833.4121,494.75" style="stroke:#181818;stroke-width:1.0;"/>
    <line style="stroke:#181818;stroke-width:1.0;stroke-dasharray:2.0,2.0;" x1="831.4121" x2="1089.6572" y1="494.75" y2="494.75"/>
    <text fill="#000000" font-family="sans-serif" font-size="13" font-weight="bold" lengthAdjust="spacing" textLength="9.0454" x="843.4121" y="489.6841">5</text>
    <text fill="#000000" font-family="sans-serif" font-size="13" lengthAdjust="spacing" textLength="61.9531" x="856.4575" y="489.6841">Renvoyer</text>
    <text fill="#000000" font-family="sans-serif" font-size="13" font-weight="bold" lengthAdjust="spacing" textLength="156.1143" x="922.543" y="489.6841">duplicateHashRecord</text>
    <polygon fill="#181818" points="287.1997,519.8828,277.1997,523.8828,287.1997,527.8828,283.1997,523.8828" style="stroke:#181818;stroke-width:1.0;"/>
    <line style="stroke:#181818;stroke-width:1.0;stroke-dasharray:2.0,2.0;" x1="281.1997" x2="820.4121" y1="523.8828" y2="523.8828"/>
    <text fill="#000000" font-family="sans-serif" font-size="13" font-weight="bold" lengthAdjust="spacing" textLength="9.0454" x="293.1997" y="518.8169">6</text>
    <text fill="#000000" font-family="sans-serif" font-size="13" lengthAdjust="spacing" textLength="61.9531" x="306.2451" y="518.8169">Renvoyer</text>
    <text fill="#000000" font-family="sans-serif" font-size="13" font-weight="bold" lengthAdjust="spacing" textLength="109.6812" x="372.3306" y="518.8169">hasDuplicateId</text>
    <path d="M192.5825,545.8828 L257.0254,545.8828 L257.0254,553.0156 L247.0254,563.0156 L192.5825,563.0156 L192.5825,545.8828 " fill="#EEEEEE" style="stroke:#000000;stroke-width:1.5;"/>
    <rect fill="none" height="337.1328" style="stroke:#000000;stroke-width:1.5;" width="1005.0439" x="192.5825" y="545.8828"/>
    <text fill="#000000" font-family="sans-serif" font-size="13" font-weight="bold" lengthAdjust="spacing" textLength="19.4429" x="207.5825" y="558.9497">alt</text>
    <text fill="#000000" font-family="sans-serif" font-size="11" font-weight="bold" lengthAdjust="spacing" textLength="161.3745" x="272.0254" y="558.0933">[hasDuplicateId == TRUE]</text>
    <path d="M202.5825,570.0156 L534.1221,570.0156 L534.1221,577.1484 L524.1221,587.1484 L202.5825,587.1484 L202.5825,570.0156 " fill="#EEEEEE" style="stroke:#000000;stroke-width:1.5;"/>
    <rect fill="none" height="94.3984" style="stroke:#000000;stroke-width:1.5;" width="413.375" x="202.5825" y="570.0156"/>
    <text fill="#000000" font-family="sans-serif" font-size="13" font-weight="bold" lengthAdjust="spacing" textLength="286.5396" x="217.5825" y="583.0825">Contrôle de hachage (compareByHash)</text>
    <path d="M281,592.1484 L281,617.1484 L605,617.1484 L605,602.1484 L595,592.1484 L281,592.1484 " fill="#D3D3D3" style="stroke:#181818;stroke-width:0.5;"/>
    <path d="M595,592.1484 L595,602.1484 L605,602.1484 L595,592.1484 " fill="#D3D3D3" style="stroke:#181818;stroke-width:0.5;"/>
    <text fill="#000000" font-family="sans-serif" font-size="13" lengthAdjust="spacing" textLength="303.9575" x="287" y="609.2153">generatedHash == duplicateHashRecord.hash</text>
    <line style="stroke:#181818;stroke-width:1.0;" x1="276.1997" x2="318.1997" y1="643.4141" y2="643.4141"/>
    <line style="stroke:#181818;stroke-width:1.0;" x1="318.1997" x2="318.1997" y1="643.4141" y2="656.4141"/>
    <line style="stroke:#181818;stroke-width:1.0;" x1="277.1997" x2="318.1997" y1="656.4141" y2="656.4141"/>
    <polygon fill="#181818" points="287.1997,652.4141,277.1997,656.4141,287.1997,660.4141,283.1997,656.4141" style="stroke:#181818;stroke-width:1.0;"/>
    <text fill="#000000" font-family="sans-serif" font-size="13" font-weight="bold" lengthAdjust="spacing" textLength="9.0454" x="283.1997" y="638.3481">7</text>
    <text fill="#000000" font-family="sans-serif" font-size="13" lengthAdjust="spacing" textLength="61.9531" x="296.2451" y="638.3481">Renvoyer</text>
    <text fill="#000000" font-family="sans-serif" font-size="13" font-weight="bold" lengthAdjust="spacing" textLength="132.1836" x="362.3306" y="638.3481">hasDuplicateHash</text>
    <line style="stroke:#000000;stroke-width:1.0;stroke-dasharray:2.0,2.0;" x1="192.5825" x2="1197.6265" y1="672.4141" y2="672.4141"/>
    <text fill="#000000" font-family="sans-serif" font-size="11" font-weight="bold" lengthAdjust="spacing" textLength="167.4277" x="197.5825" y="682.6245">[hasDuplicateId == FALSE]</text>
    <path d="M202.5825,693.2188 L506.8525,693.2188 L506.8525,700.3516 L496.8525,710.3516 L202.5825,710.3516 L202.5825,693.2188 " fill="#EEEEEE" style="stroke:#000000;stroke-width:1.5;"/>
    <rect fill="none" height="182.7969" style="stroke:#000000;stroke-width:1.5;" width="985.0439" x="202.5825" y="693.2188"/>
    <text fill="#000000" font-family="sans-serif" font-size="13" font-weight="bold" lengthAdjust="spacing" textLength="259.27" x="217.5825" y="706.2856">Enregistrer le hachage du message</text>
    <polygon fill="#181818" points="804.4121,742.6172,814.4121,746.6172,804.4121,750.6172,808.4121,746.6172" style="stroke:#181818;stroke-width:1.0;"/>
    <line style="stroke:#181818;stroke-width:1.0;" x1="276.1997" x2="810.4121" y1="746.6172" y2="746.6172"/>
    <text fill="#000000" font-family="sans-serif" font-size="13" font-weight="bold" lengthAdjust="spacing" textLength="9.0454" x="283.1997" y="733.9849">8</text>
    <text fill="#000000" font-family="sans-serif" font-size="13" lengthAdjust="spacing" textLength="440.9336" x="296.2451" y="726.4185">Persister le hachage via saveHashFuncOverride(id, generatedHash)</text>
    <text fill="#FF0000" font-family="sans-serif" font-size="13" font-weight="bold" lengthAdjust="spacing" textLength="110.2524" x="296.2451" y="741.5513">Code d&apos;erreur :</text>
    <text fill="#FF0000" font-family="sans-serif" font-size="13" lengthAdjust="spacing" textLength="33.084" x="410.6299" y="741.5513">2003</text>
    <polygon fill="#181818" points="1073.6572,771.75,1083.6572,775.75,1073.6572,779.75,1077.6572,775.75" style="stroke:#181818;stroke-width:1.0;"/>
    <line style="stroke:#181818;stroke-width:1.0;" x1="826.4121" x2="1079.6572" y1="775.75" y2="775.75"/>
    <text fill="#000000" font-family="sans-serif" font-size="13" font-weight="bold" lengthAdjust="spacing" textLength="9.0454" x="833.4121" y="770.6841">9</text>
    <text fill="#000000" font-family="sans-serif" font-size="13" lengthAdjust="spacing" textLength="56.7798" x="846.4575" y="770.6841">Persister</text>
    <text fill="#000000" font-family="sans-serif" font-size="13" font-weight="bold" lengthAdjust="spacing" textLength="112.3599" x="907.3696" y="770.6841">generatedHash</text>
    <polygon fill="#FFFFE0" points="1012,818.75,1167,818.75,1177,829.75,1167,841.75,1012,841.75,1002,829.75,1012,818.75" style="stroke:#181818;stroke-width:0.5;"/>
    <text fill="#000000" font-family="sans-serif" font-size="13" font-style="italic" lengthAdjust="spacing" textLength="49.7021" x="1014" y="834.8169">request</text>
    <text fill="#000000" font-family="sans-serif" font-size="13" lengthAdjust="spacing" textLength="101.9243" x="1063.7021" y="834.8169">DuplicateCheck</text>
    <polygon fill="#181818" points="287.1997,864.0156,277.1997,868.0156,287.1997,872.0156,283.1997,868.0156" style="stroke:#181818;stroke-width:1.0;"/>
    <line style="stroke:#181818;stroke-width:1.0;stroke-dasharray:2.0,2.0;" x1="281.1997" x2="820.4121" y1="868.0156" y2="868.0156"/>
    <text fill="#000000" font-family="sans-serif" font-size="13" font-weight="bold" lengthAdjust="spacing" textLength="18.0908" x="293.1997" y="862.9497">10</text>
    <text fill="#000000" font-family="sans-serif" font-size="13" lengthAdjust="spacing" textLength="125.9058" x="315.2905" y="862.9497">Renvoyer le succès</text>
    <path d="M281,895.0156 L281,965.0156 L497,965.0156 L497,905.0156 L487,895.0156 L281,895.0156 " fill="#FFFF00" style="stroke:#181818;stroke-width:0.5;"/>
    <path d="M487,895.0156 L487,905.0156 L497,905.0156 L487,895.0156 " fill="#FFFF00" style="stroke:#181818;stroke-width:0.5;"/>
    <text fill="#000000" font-family="sans-serif" font-size="13" lengthAdjust="spacing" textLength="52.6665" x="287" y="912.0825">return {</text>
    <text fill="#000000" font-family="sans-serif" font-size="13" lengthAdjust="spacing" textLength="162.2842" x="303.5293" y="927.2153">hasDuplicateId: Boolean,</text>
    <text fill="#000000" font-family="sans-serif" font-size="13" lengthAdjust="spacing" textLength="178.8198" x="303.5293" y="942.3481">hasDuplicateHash: Boolean</text>
    <text fill="#000000" font-family="sans-serif" font-size="13" lengthAdjust="spacing" textLength="8.271" x="287" y="957.481">}</text>
  </g>
</svg>
