<svg xmlns="http://www.w3.org/2000/svg" xmlns:xlink="http://www.w3.org/1999/xlink" contentStyleType="text/css" height="1752px" preserveAspectRatio="none" style="width:2313px;height:1752px;background:#FFFFFF;" version="1.1" viewBox="0 0 2313 1752" width="2313px" zoomAndPan="magnify">
  <title>4.1.0 Détails de position d&apos;un participant</title>
  <defs/>
  <g>
    <text fill="#000000" font-family="sans-serif" font-size="14" font-weight="bold" lengthAdjust="spacing" textLength="324.1123" x="996.2788" y="27.9951">4.1.0 Détails de position d&apos;un participant</text>
    <rect fill="#ADD8E6" height="1695.9688" style="stroke:#181818;stroke-width:0.5;" width="120.415" x="36" y="43.2969"/>
    <text fill="#000000" font-family="sans-serif" font-size="13" font-weight="bold" lengthAdjust="spacing" textLength="110.9253" x="40.7449" y="55.3638">Opérateur HUB</text>
    <rect fill="#FFFFE0" height="1695.9688" style="stroke:#181818;stroke-width:0.5;" width="1570.5806" x="697.2549" y="43.2969"/>
    <text fill="#000000" font-family="sans-serif" font-size="13" font-weight="bold" lengthAdjust="spacing" textLength="110.2017" x="1427.4443" y="55.3638">Service central</text>
    <rect fill="#FFFFFF" height="1529.2422" style="stroke:#181818;stroke-width:1.0;" width="10" x="91.2075" y="134.7266"/>
    <rect fill="#FFFFFF" height="1483.9766" style="stroke:#181818;stroke-width:1.0;" width="10" x="775.4072" y="179.9922"/>
    <rect fill="#FFFFFF" height="1403.7109" style="stroke:#181818;stroke-width:1.0;" width="10" x="1251.9351" y="209.125"/>
    <rect fill="#FFFFFF" height="120.5313" style="stroke:#181818;stroke-width:1.0;" width="10" x="1482.7979" y="253.3906"/>
    <rect fill="#FFFFFF" height="135.6641" style="stroke:#181818;stroke-width:1.0;" width="10" x="1719.8193" y="565.8516"/>
    <rect fill="#FFFFFF" height="135.6641" style="stroke:#181818;stroke-width:1.0;" width="10" x="1719.8193" y="959.9141"/>
    <rect fill="#FFFFFF" height="62.2656" style="stroke:#181818;stroke-width:1.0;" width="10" x="2196.749" y="282.5234"/>
    <rect fill="#FFFFFF" height="77.3984" style="stroke:#181818;stroke-width:1.0;" width="10" x="2196.749" y="594.9844"/>
    <rect fill="#FFFFFF" height="77.3984" style="stroke:#181818;stroke-width:1.0;" width="10" x="2196.749" y="989.0469"/>
    <rect fill="none" height="1515.2422" style="stroke:#000000;stroke-width:1.5;" width="2297.6699" x="10" y="141.7266"/>
    <rect fill="none" height="1203.7813" style="stroke:#000000;stroke-width:1.5;" width="2277.6699" x="20" y="446.1875"/>
    <rect fill="none" height="896.3828" style="stroke:#000000;stroke-width:1.5;" width="2257.6699" x="30" y="512.4531"/>
    <line style="stroke:#181818;stroke-width:0.5;stroke-dasharray:5.0,5.0;" x1="96" x2="96" y1="124.7266" y2="1673.9688"/>
    <line style="stroke:#181818;stroke-width:0.5;stroke-dasharray:5.0,5.0;" x1="780.2549" x2="780.2549" y1="124.7266" y2="1673.9688"/>
    <line style="stroke:#181818;stroke-width:0.5;stroke-dasharray:5.0,5.0;" x1="1256.791" x2="1256.791" y1="124.7266" y2="1673.9688"/>
    <line style="stroke:#181818;stroke-width:0.5;stroke-dasharray:5.0,5.0;" x1="1486.8765" x2="1486.8765" y1="124.7266" y2="1673.9688"/>
    <line style="stroke:#181818;stroke-width:0.5;stroke-dasharray:5.0,5.0;" x1="1724.6885" x2="1724.6885" y1="124.7266" y2="1673.9688"/>
    <line style="stroke:#181818;stroke-width:0.5;stroke-dasharray:5.0,5.0;" x1="2201.6626" x2="2201.6626" y1="124.7266" y2="1673.9688"/>
    <text fill="#000000" font-family="sans-serif" font-size="14" lengthAdjust="spacing" textLength="106.415" x="40" y="121.4248">Opérateur HUB</text>
    <ellipse cx="96.2075" cy="92.4297" fill="#E2E2F0" rx="12" ry="12" style="stroke:#181818;stroke-width:0.5;"/>
    <line style="stroke:#181818;stroke-width:0.5;" x1="84.2075" x2="108.2075" y1="106.4297" y2="106.4297"/>
    <text fill="#000000" font-family="sans-serif" font-size="14" lengthAdjust="spacing" textLength="106.415" x="40" y="1685.9639">Opérateur HUB</text>
    <ellipse cx="96.2075" cy="1705.2656" fill="#E2E2F0" rx="12" ry="12" style="stroke:#181818;stroke-width:0.5;"/>
    <line style="stroke:#181818;stroke-width:0.5;" x1="84.2075" x2="108.2075" y1="1719.2656" y2="1719.2656"/>
    <text fill="#000000" font-family="sans-serif" font-size="14" lengthAdjust="spacing" textLength="152.3047" x="701.2549" y="121.4248">API du service central</text>
    <path d="M759.9072,80.4297 L759.9072,104.4297 M759.9072,92.4297 L776.9072,92.4297 " fill="none" style="stroke:#181818;stroke-width:0.5;"/>
    <ellipse cx="788.9072" cy="92.4297" fill="#E2E2F0" rx="12" ry="12" style="stroke:#181818;stroke-width:0.5;"/>
    <text fill="#000000" font-family="sans-serif" font-size="14" lengthAdjust="spacing" textLength="152.3047" x="701.2549" y="1685.9639">API du service central</text>
    <path d="M759.9072,1693.2656 L759.9072,1717.2656 M759.9072,1705.2656 L776.9072,1705.2656 " fill="none" style="stroke:#181818;stroke-width:0.5;"/>
    <ellipse cx="788.9072" cy="1705.2656" fill="#E2E2F0" rx="12" ry="12" style="stroke:#181818;stroke-width:0.5;"/>
    <text fill="#000000" font-family="sans-serif" font-size="14" lengthAdjust="spacing" textLength="206.2881" x="1150.791" y="121.4248">Gestionnaire des participants</text>
    <ellipse cx="1256.9351" cy="92.4297" fill="#E2E2F0" rx="12" ry="12" style="stroke:#181818;stroke-width:0.5;"/>
    <polygon fill="#181818" points="1252.9351,80.4297,1258.9351,75.4297,1256.9351,80.4297,1258.9351,85.4297,1252.9351,80.4297" style="stroke:#181818;stroke-width:1.0;"/>
    <text fill="#000000" font-family="sans-serif" font-size="14" lengthAdjust="spacing" textLength="206.2881" x="1150.791" y="1685.9639">Gestionnaire des participants</text>
    <ellipse cx="1256.9351" cy="1705.2656" fill="#E2E2F0" rx="12" ry="12" style="stroke:#181818;stroke-width:0.5;"/>
    <polygon fill="#181818" points="1252.9351,1693.2656,1258.9351,1688.2656,1256.9351,1693.2656,1258.9351,1698.2656,1252.9351,1693.2656" style="stroke:#181818;stroke-width:1.0;"/>
    <text fill="#000000" font-family="sans-serif" font-size="14" lengthAdjust="spacing" textLength="111.8428" x="1428.8765" y="121.4248">DAO participant</text>
    <ellipse cx="1487.7979" cy="92.4297" fill="#E2E2F0" rx="12" ry="12" style="stroke:#181818;stroke-width:0.5;"/>
    <line style="stroke:#181818;stroke-width:0.5;" x1="1475.7979" x2="1499.7979" y1="106.4297" y2="106.4297"/>
    <text fill="#000000" font-family="sans-serif" font-size="14" lengthAdjust="spacing" textLength="111.8428" x="1428.8765" y="1685.9639">DAO participant</text>
    <ellipse cx="1487.7979" cy="1705.2656" fill="#E2E2F0" rx="12" ry="12" style="stroke:#181818;stroke-width:0.5;"/>
    <line style="stroke:#181818;stroke-width:0.5;" x1="1475.7979" x2="1499.7979" y1="1719.2656" y2="1719.2656"/>
    <text fill="#000000" font-family="sans-serif" font-size="14" lengthAdjust="spacing" textLength="132.2617" x="1655.6885" y="121.4248">Façade de position</text>
    <ellipse cx="1724.8193" cy="92.4297" fill="#E2E2F0" rx="12" ry="12" style="stroke:#181818;stroke-width:0.5;"/>
    <line style="stroke:#181818;stroke-width:0.5;" x1="1712.8193" x2="1736.8193" y1="106.4297" y2="106.4297"/>
    <text fill="#000000" font-family="sans-serif" font-size="14" lengthAdjust="spacing" textLength="132.2617" x="1655.6885" y="1685.9639">Façade de position</text>
    <ellipse cx="1724.8193" cy="1705.2656" fill="#E2E2F0" rx="12" ry="12" style="stroke:#181818;stroke-width:0.5;"/>
    <line style="stroke:#181818;stroke-width:0.5;" x1="1712.8193" x2="1736.8193" y1="1719.2656" y2="1719.2656"/>
    <text fill="#000000" font-family="sans-serif" font-size="14" lengthAdjust="spacing" textLength="118.1729" x="2139.6626" y="121.4248">Stockage central</text>
    <path d="M2183.749,72.4297 C2183.749,62.4297 2201.749,62.4297 2201.749,62.4297 C2201.749,62.4297 2219.749,62.4297 2219.749,72.4297 L2219.749,98.4297 C2219.749,108.4297 2201.749,108.4297 2201.749,108.4297 C2201.749,108.4297 2183.749,108.4297 2183.749,98.4297 L2183.749,72.4297 " fill="#E2E2F0" style="stroke:#181818;stroke-width:1.5;"/>
    <path d="M2183.749,72.4297 C2183.749,82.4297 2201.749,82.4297 2201.749,82.4297 C2201.749,82.4297 2219.749,82.4297 2219.749,72.4297 " fill="none" style="stroke:#181818;stroke-width:1.5;"/>
    <text fill="#000000" font-family="sans-serif" font-size="14" lengthAdjust="spacing" textLength="118.1729" x="2139.6626" y="1685.9639">Stockage central</text>
    <path d="M2183.749,1699.2656 C2183.749,1689.2656 2201.749,1689.2656 2201.749,1689.2656 C2201.749,1689.2656 2219.749,1689.2656 2219.749,1699.2656 L2219.749,1725.2656 C2219.749,1735.2656 2201.749,1735.2656 2201.749,1735.2656 C2201.749,1735.2656 2183.749,1735.2656 2183.749,1725.2656 L2183.749,1699.2656 " fill="#E2E2F0" style="stroke:#181818;stroke-width:1.5;"/>
    <path d="M2183.749,1699.2656 C2183.749,1709.2656 2201.749,1709.2656 2201.749,1709.2656 C2201.749,1709.2656 2219.749,1709.2656 2219.749,1699.2656 " fill="none" style="stroke:#181818;stroke-width:1.5;"/>
    <rect fill="#FFFFFF" height="1529.2422" style="stroke:#181818;stroke-width:1.0;" width="10" x="91.2075" y="134.7266"/>
    <rect fill="#FFFFFF" height="1483.9766" style="stroke:#181818;stroke-width:1.0;" width="10" x="775.4072" y="179.9922"/>
    <rect fill="#FFFFFF" height="1403.7109" style="stroke:#181818;stroke-width:1.0;" width="10" x="1251.9351" y="209.125"/>
    <rect fill="#FFFFFF" height="120.5313" style="stroke:#181818;stroke-width:1.0;" width="10" x="1482.7979" y="253.3906"/>
    <rect fill="#FFFFFF" height="135.6641" style="stroke:#181818;stroke-width:1.0;" width="10" x="1719.8193" y="565.8516"/>
    <rect fill="#FFFFFF" height="135.6641" style="stroke:#181818;stroke-width:1.0;" width="10" x="1719.8193" y="959.9141"/>
    <rect fill="#FFFFFF" height="62.2656" style="stroke:#181818;stroke-width:1.0;" width="10" x="2196.749" y="282.5234"/>
    <rect fill="#FFFFFF" height="77.3984" style="stroke:#181818;stroke-width:1.0;" width="10" x="2196.749" y="594.9844"/>
    <rect fill="#FFFFFF" height="77.3984" style="stroke:#181818;stroke-width:1.0;" width="10" x="2196.749" y="989.0469"/>
    <path d="M10,141.7266 L276.7935,141.7266 L276.7935,148.8594 L266.7935,158.8594 L10,158.8594 L10,141.7266 " fill="#EEEEEE" style="stroke:#000000;stroke-width:1.5;"/>
    <rect fill="none" height="1515.2422" style="stroke:#000000;stroke-width:1.5;" width="2297.6699" x="10" y="141.7266"/>
    <text fill="#000000" font-family="sans-serif" font-size="13" font-weight="bold" lengthAdjust="spacing" textLength="221.7935" x="25" y="154.7935">Obtenir les détails de position</text>
    <polygon fill="#181818" points="763.4072,175.9922,773.4072,179.9922,763.4072,183.9922,767.4072,179.9922" style="stroke:#181818;stroke-width:1.0;"/>
    <line style="stroke:#181818;stroke-width:1.0;" x1="101.2075" x2="769.4072" y1="179.9922" y2="179.9922"/>
    <text fill="#000000" font-family="sans-serif" font-size="13" font-weight="bold" lengthAdjust="spacing" textLength="9.0454" x="108.2075" y="174.9263">1</text>
    <text fill="#000000" font-family="sans-serif" font-size="13" lengthAdjust="spacing" textLength="642.1543" x="121.2529" y="174.9263">Demande d&apos;obtenir les positions — GET — /participants/{name}/positions?currency={currencyId}</text>
    <polygon fill="#181818" points="1239.9351,205.125,1249.9351,209.125,1239.9351,213.125,1243.9351,209.125" style="stroke:#181818;stroke-width:1.0;"/>
    <line style="stroke:#181818;stroke-width:1.0;" x1="785.4072" x2="1245.9351" y1="209.125" y2="209.125"/>
    <text fill="#000000" font-family="sans-serif" font-size="13" font-weight="bold" lengthAdjust="spacing" textLength="9.0454" x="792.4072" y="204.0591">2</text>
    <text fill="#000000" font-family="sans-serif" font-size="13" lengthAdjust="spacing" textLength="247.6094" x="805.4526" y="204.0591">Récupérer les positions du participant</text>
    <polygon fill="#181818" points="1470.7979,249.3906,1480.7979,253.3906,1470.7979,257.3906,1474.7979,253.3906" style="stroke:#181818;stroke-width:1.0;"/>
    <line style="stroke:#181818;stroke-width:1.0;" x1="1261.9351" x2="1476.7979" y1="253.3906" y2="253.3906"/>
    <text fill="#000000" font-family="sans-serif" font-size="13" font-weight="bold" lengthAdjust="spacing" textLength="9.0454" x="1268.9351" y="240.7583">3</text>
    <text fill="#000000" font-family="sans-serif" font-size="13" lengthAdjust="spacing" textLength="157.8154" x="1281.9805" y="233.1919">Récupérer le participant</text>
    <text fill="#FF0000" font-family="sans-serif" font-size="13" font-weight="bold" lengthAdjust="spacing" textLength="110.2524" x="1281.9805" y="248.3247">Code d&apos;erreur :</text>
    <text fill="#FF0000" font-family="sans-serif" font-size="13" lengthAdjust="spacing" textLength="70.3003" x="1396.3652" y="248.3247">2003,3201</text>
    <polygon fill="#181818" points="2184.749,278.5234,2194.749,282.5234,2184.749,286.5234,2188.749,282.5234" style="stroke:#181818;stroke-width:1.0;"/>
    <line style="stroke:#181818;stroke-width:1.0;" x1="1492.7979" x2="2190.749" y1="282.5234" y2="282.5234"/>
    <text fill="#000000" font-family="sans-serif" font-size="13" font-weight="bold" lengthAdjust="spacing" textLength="9.0454" x="1499.7979" y="277.4575">4</text>
    <text fill="#000000" font-family="sans-serif" font-size="13" lengthAdjust="spacing" textLength="157.8154" x="1512.8433" y="277.4575">Récupérer le participant</text>
    <polygon fill="#FFFFE0" points="2164,295.5234,2238,295.5234,2248,306.5234,2238,318.5234,2164,318.5234,2154,306.5234,2164,295.5234" style="stroke:#181818;stroke-width:0.5;"/>
    <text fill="#000000" font-family="sans-serif" font-size="13" lengthAdjust="spacing" textLength="70.5859" x="2166" y="311.5903">participant</text>
    <polygon fill="#181818" points="1503.7979,340.7891,1493.7979,344.7891,1503.7979,348.7891,1499.7979,344.7891" style="stroke:#181818;stroke-width:1.0;"/>
    <line style="stroke:#181818;stroke-width:1.0;stroke-dasharray:2.0,2.0;" x1="1497.7979" x2="2200.749" y1="344.7891" y2="344.7891"/>
    <text fill="#000000" font-family="sans-serif" font-size="13" font-weight="bold" lengthAdjust="spacing" textLength="9.0454" x="1509.7979" y="339.7231">5</text>
    <text fill="#000000" font-family="sans-serif" font-size="13" lengthAdjust="spacing" textLength="132.6279" x="1522.8433" y="339.7231">Participant récupéré</text>
    <polygon fill="#181818" points="1272.9351,369.9219,1262.9351,373.9219,1272.9351,377.9219,1268.9351,373.9219" style="stroke:#181818;stroke-width:1.0;"/>
    <line style="stroke:#181818;stroke-width:1.0;stroke-dasharray:2.0,2.0;" x1="1266.9351" x2="1486.7979" y1="373.9219" y2="373.9219"/>
    <text fill="#000000" font-family="sans-serif" font-size="13" font-weight="bold" lengthAdjust="spacing" textLength="9.0454" x="1278.9351" y="368.856">6</text>
    <text fill="#000000" font-family="sans-serif" font-size="13" lengthAdjust="spacing" textLength="152.4136" x="1291.9805" y="368.856">Renvoyer le participant</text>
    <line style="stroke:#181818;stroke-width:1.0;" x1="1261.9351" x2="1303.9351" y1="418.1875" y2="418.1875"/>
    <line style="stroke:#181818;stroke-width:1.0;" x1="1303.9351" x2="1303.9351" y1="418.1875" y2="431.1875"/>
    <line style="stroke:#181818;stroke-width:1.0;" x1="1262.9351" x2="1303.9351" y1="431.1875" y2="431.1875"/>
    <polygon fill="#181818" points="1272.9351,427.1875,1262.9351,431.1875,1272.9351,435.1875,1268.9351,431.1875" style="stroke:#181818;stroke-width:1.0;"/>
    <text fill="#000000" font-family="sans-serif" font-size="13" font-weight="bold" lengthAdjust="spacing" textLength="9.0454" x="1268.9351" y="405.5552">7</text>
    <text fill="#000000" font-family="sans-serif" font-size="13" lengthAdjust="spacing" textLength="99.1313" x="1281.9805" y="397.9888">Valider le DFSP</text>
    <text fill="#FF0000" font-family="sans-serif" font-size="13" font-weight="bold" lengthAdjust="spacing" textLength="110.2524" x="1281.9805" y="413.1216">Code d&apos;erreur :</text>
    <text fill="#FF0000" font-family="sans-serif" font-size="13" lengthAdjust="spacing" textLength="33.084" x="1396.3652" y="413.1216">3201</text>
    <path d="M20,446.1875 L84.4429,446.1875 L84.4429,453.3203 L74.4429,463.3203 L20,463.3203 L20,446.1875 " fill="#EEEEEE" style="stroke:#000000;stroke-width:1.5;"/>
    <rect fill="none" height="1203.7813" style="stroke:#000000;stroke-width:1.5;" width="2277.6699" x="20" y="446.1875"/>
    <text fill="#000000" font-family="sans-serif" font-size="13" font-weight="bold" lengthAdjust="spacing" textLength="19.4429" x="35" y="459.2544">alt</text>
    <text fill="#000000" font-family="sans-serif" font-size="11" font-weight="bold" lengthAdjust="spacing" textLength="196.9204" x="99.4429" y="458.3979">[Valider le participant (succès)]</text>
    <line style="stroke:#181818;stroke-width:1.0;" x1="1261.9351" x2="1303.9351" y1="484.4531" y2="484.4531"/>
    <line style="stroke:#181818;stroke-width:1.0;" x1="1303.9351" x2="1303.9351" y1="484.4531" y2="497.4531"/>
    <line style="stroke:#181818;stroke-width:1.0;" x1="1262.9351" x2="1303.9351" y1="497.4531" y2="497.4531"/>
    <polygon fill="#181818" points="1272.9351,493.4531,1262.9351,497.4531,1272.9351,501.4531,1268.9351,497.4531" style="stroke:#181818;stroke-width:1.0;"/>
    <text fill="#000000" font-family="sans-serif" font-size="13" font-weight="bold" lengthAdjust="spacing" textLength="9.0454" x="1268.9351" y="479.3872">8</text>
    <text fill="#000000" font-family="sans-serif" font-size="13" lengthAdjust="spacing" textLength="182.6348" x="1281.9805" y="479.3872">Paramètre currency fourni ?</text>
    <path d="M30,512.4531 L94.4429,512.4531 L94.4429,519.5859 L84.4429,529.5859 L30,529.5859 L30,512.4531 " fill="#EEEEEE" style="stroke:#000000;stroke-width:1.5;"/>
    <rect fill="none" height="896.3828" style="stroke:#000000;stroke-width:1.5;" width="2257.6699" x="30" y="512.4531"/>
    <text fill="#000000" font-family="sans-serif" font-size="13" font-weight="bold" lengthAdjust="spacing" textLength="19.4429" x="45" y="525.52">alt</text>
    <text fill="#000000" font-family="sans-serif" font-size="11" font-weight="bold" lengthAdjust="spacing" textLength="174.4961" x="109.4429" y="524.6636">[Paramètre currency fourni]</text>
    <polygon fill="#181818" points="1707.8193,561.8516,1717.8193,565.8516,1707.8193,569.8516,1711.8193,565.8516" style="stroke:#181818;stroke-width:1.0;"/>
    <line style="stroke:#181818;stroke-width:1.0;" x1="1261.9351" x2="1713.8193" y1="565.8516" y2="565.8516"/>
    <text fill="#000000" font-family="sans-serif" font-size="13" font-weight="bold" lengthAdjust="spacing" textLength="9.0454" x="1268.9351" y="553.2192">9</text>
    <text fill="#000000" font-family="sans-serif" font-size="13" lengthAdjust="spacing" textLength="425.8389" x="1281.9805" y="545.6528">Récupérer la position du participant pour un identifiant de devise</text>
    <text fill="#FF0000" font-family="sans-serif" font-size="13" font-weight="bold" lengthAdjust="spacing" textLength="110.2524" x="1281.9805" y="560.7856">Code d&apos;erreur :</text>
    <text fill="#FF0000" font-family="sans-serif" font-size="13" lengthAdjust="spacing" textLength="33.084" x="1396.3652" y="560.7856">2003</text>
    <polygon fill="#181818" points="2184.749,590.9844,2194.749,594.9844,2184.749,598.9844,2188.749,594.9844" style="stroke:#181818;stroke-width:1.0;"/>
    <line style="stroke:#181818;stroke-width:1.0;" x1="1729.8193" x2="2190.749" y1="594.9844" y2="594.9844"/>
    <text fill="#000000" font-family="sans-serif" font-size="13" font-weight="bold" lengthAdjust="spacing" textLength="18.0908" x="1736.8193" y="589.9185">10</text>
    <text fill="#000000" font-family="sans-serif" font-size="13" lengthAdjust="spacing" textLength="425.8389" x="1758.9102" y="589.9185">Récupérer la position du participant pour un identifiant de devise</text>
    <polygon fill="#FFFFE0" points="2134,607.9844,2267,607.9844,2277,626.9844,2267,645.9844,2134,645.9844,2124,626.9844,2134,607.9844" style="stroke:#181818;stroke-width:0.5;"/>
    <text fill="#000000" font-family="sans-serif" font-size="13" lengthAdjust="spacing" textLength="129.6699" x="2136" y="624.0513">participantCurrency</text>
    <text fill="#000000" font-family="sans-serif" font-size="13" lengthAdjust="spacing" textLength="121.6655" x="2136" y="639.1841">participantPosition</text>
    <polygon fill="#181818" points="1740.8193,668.3828,1730.8193,672.3828,1740.8193,676.3828,1736.8193,672.3828" style="stroke:#181818;stroke-width:1.0;"/>
    <line style="stroke:#181818;stroke-width:1.0;stroke-dasharray:2.0,2.0;" x1="1734.8193" x2="2200.749" y1="672.3828" y2="672.3828"/>
    <text fill="#000000" font-family="sans-serif" font-size="13" font-weight="bold" lengthAdjust="spacing" textLength="18.0908" x="1746.8193" y="667.3169">11</text>
    <text fill="#000000" font-family="sans-serif" font-size="13" lengthAdjust="spacing" textLength="408.6812" x="1768.9102" y="667.3169">Position du participant récupérée pour un identifiant de devise</text>
    <polygon fill="#181818" points="1272.9351,697.5156,1262.9351,701.5156,1272.9351,705.5156,1268.9351,701.5156" style="stroke:#181818;stroke-width:1.0;"/>
    <line style="stroke:#181818;stroke-width:1.0;stroke-dasharray:2.0,2.0;" x1="1266.9351" x2="1723.8193" y1="701.5156" y2="701.5156"/>
    <text fill="#000000" font-family="sans-serif" font-size="13" font-weight="bold" lengthAdjust="spacing" textLength="18.0908" x="1278.9351" y="696.4497">12</text>
    <text fill="#000000" font-family="sans-serif" font-size="13" lengthAdjust="spacing" textLength="242.2075" x="1301.0259" y="696.4497">Renvoyer les positions du participant</text>
    <path d="M1266,714.5156 L1266,845.5156 L1516,845.5156 L1516,724.5156 L1506,714.5156 L1266,714.5156 " fill="#FFFF00" style="stroke:#181818;stroke-width:0.5;"/>
    <path d="M1506,714.5156 L1506,724.5156 L1516,724.5156 L1506,714.5156 " fill="#FFFF00" style="stroke:#181818;stroke-width:0.5;"/>
    <text fill="#000000" font-family="sans-serif" font-size="13" lengthAdjust="spacing" textLength="65.4888" x="1272" y="731.5825">Message :</text>
    <text fill="#000000" font-family="sans-serif" font-size="13" lengthAdjust="spacing" textLength="8.271" x="1272" y="746.7153">{</text>
    <text fill="#000000" font-family="sans-serif" font-size="13" lengthAdjust="spacing" textLength="8.271" x="1288.5293" y="761.8481">{</text>
    <text fill="#000000" font-family="sans-serif" font-size="13" lengthAdjust="spacing" textLength="160.8242" x="1305.0586" y="776.981">currency: &lt;currencyId&gt;,</text>
    <text fill="#000000" font-family="sans-serif" font-size="13" lengthAdjust="spacing" textLength="158.1392" x="1305.0586" y="792.1138">value: &lt;positionValue&gt;,</text>
    <text fill="#000000" font-family="sans-serif" font-size="13" lengthAdjust="spacing" textLength="196.4409" x="1305.0586" y="807.2466">updatedTime: &lt;timeStamp1&gt;</text>
    <text fill="#000000" font-family="sans-serif" font-size="13" lengthAdjust="spacing" textLength="8.271" x="1288.5293" y="822.3794">}</text>
    <text fill="#000000" font-family="sans-serif" font-size="13" lengthAdjust="spacing" textLength="8.271" x="1272" y="837.5122">}</text>
    <polygon fill="#181818" points="796.4072,867.7109,786.4072,871.7109,796.4072,875.7109,792.4072,871.7109" style="stroke:#181818;stroke-width:1.0;"/>
    <line style="stroke:#181818;stroke-width:1.0;stroke-dasharray:2.0,2.0;" x1="790.4072" x2="1250.9351" y1="871.7109" y2="871.7109"/>
    <text fill="#000000" font-family="sans-serif" font-size="13" font-weight="bold" lengthAdjust="spacing" textLength="18.0908" x="802.4072" y="866.645">13</text>
    <text fill="#000000" font-family="sans-serif" font-size="13" lengthAdjust="spacing" textLength="420.437" x="824.498" y="866.645">Renvoyer la position du participant pour un identifiant de devise</text>
    <polygon fill="#181818" points="112.2075,896.8438,102.2075,900.8438,112.2075,904.8438,108.2075,900.8438" style="stroke:#181818;stroke-width:1.0;"/>
    <line style="stroke:#181818;stroke-width:1.0;stroke-dasharray:2.0,2.0;" x1="106.2075" x2="774.4072" y1="900.8438" y2="900.8438"/>
    <text fill="#000000" font-family="sans-serif" font-size="13" font-weight="bold" lengthAdjust="spacing" textLength="18.0908" x="118.2075" y="895.7778">14</text>
    <text fill="#000000" font-family="sans-serif" font-size="13" lengthAdjust="spacing" textLength="420.437" x="140.2983" y="895.7778">Renvoyer la position du participant pour un identifiant de devise</text>
    <line style="stroke:#000000;stroke-width:1.0;stroke-dasharray:2.0,2.0;" x1="30" x2="2287.6699" y1="909.8438" y2="909.8438"/>
    <text fill="#000000" font-family="sans-serif" font-size="11" font-weight="bold" lengthAdjust="spacing" textLength="201.5449" x="35" y="920.0542">[Paramètre currency non fourni]</text>
    <polygon fill="#181818" points="1707.8193,955.9141,1717.8193,959.9141,1707.8193,963.9141,1711.8193,959.9141" style="stroke:#181818;stroke-width:1.0;"/>
    <line style="stroke:#181818;stroke-width:1.0;" x1="1261.9351" x2="1713.8193" y1="959.9141" y2="959.9141"/>
    <text fill="#000000" font-family="sans-serif" font-size="13" font-weight="bold" lengthAdjust="spacing" textLength="18.0908" x="1268.9351" y="947.2817">15</text>
    <text fill="#000000" font-family="sans-serif" font-size="13" lengthAdjust="spacing" textLength="402.5684" x="1291.0259" y="939.7153">Récupérer les positions du participant pour toutes les devises</text>
    <text fill="#FF0000" font-family="sans-serif" font-size="13" font-weight="bold" lengthAdjust="spacing" textLength="110.2524" x="1291.0259" y="954.8481">Code d&apos;erreur :</text>
    <text fill="#FF0000" font-family="sans-serif" font-size="13" lengthAdjust="spacing" textLength="33.084" x="1405.4106" y="954.8481">2003</text>
    <polygon fill="#181818" points="2184.749,985.0469,2194.749,989.0469,2184.749,993.0469,2188.749,989.0469" style="stroke:#181818;stroke-width:1.0;"/>
    <line style="stroke:#181818;stroke-width:1.0;" x1="1729.8193" x2="2190.749" y1="989.0469" y2="989.0469"/>
    <text fill="#000000" font-family="sans-serif" font-size="13" font-weight="bold" lengthAdjust="spacing" textLength="18.0908" x="1736.8193" y="983.981">16</text>
    <text fill="#000000" font-family="sans-serif" font-size="13" lengthAdjust="spacing" textLength="402.5684" x="1758.9102" y="983.981">Récupérer les positions du participant pour toutes les devises</text>
    <polygon fill="#FFFFE0" points="2134,1002.0469,2267,1002.0469,2277,1021.0469,2267,1040.0469,2134,1040.0469,2124,1021.0469,2134,1002.0469" style="stroke:#181818;stroke-width:0.5;"/>
    <text fill="#000000" font-family="sans-serif" font-size="13" lengthAdjust="spacing" textLength="129.6699" x="2136" y="1018.1138">participantCurrency</text>
    <text fill="#000000" font-family="sans-serif" font-size="13" lengthAdjust="spacing" textLength="121.6655" x="2136" y="1033.2466">participantPosition</text>
    <polygon fill="#181818" points="1740.8193,1062.4453,1730.8193,1066.4453,1740.8193,1070.4453,1736.8193,1066.4453" style="stroke:#181818;stroke-width:1.0;"/>
    <line style="stroke:#181818;stroke-width:1.0;stroke-dasharray:2.0,2.0;" x1="1734.8193" x2="2200.749" y1="1066.4453" y2="1066.4453"/>
    <text fill="#000000" font-family="sans-serif" font-size="13" font-weight="bold" lengthAdjust="spacing" textLength="18.0908" x="1746.8193" y="1061.3794">17</text>
    <text fill="#000000" font-family="sans-serif" font-size="13" lengthAdjust="spacing" textLength="385.3789" x="1768.9102" y="1061.3794">Positions du participant récupérées pour toutes les devises</text>
    <polygon fill="#181818" points="1272.9351,1091.5781,1262.9351,1095.5781,1272.9351,1099.5781,1268.9351,1095.5781" style="stroke:#181818;stroke-width:1.0;"/>
    <line style="stroke:#181818;stroke-width:1.0;stroke-dasharray:2.0,2.0;" x1="1266.9351" x2="1723.8193" y1="1095.5781" y2="1095.5781"/>
    <text fill="#000000" font-family="sans-serif" font-size="13" font-weight="bold" lengthAdjust="spacing" textLength="18.0908" x="1278.9351" y="1090.5122">18</text>
    <text fill="#000000" font-family="sans-serif" font-size="13" lengthAdjust="spacing" textLength="397.1665" x="1301.0259" y="1090.5122">Renvoyer les positions du participant pour toutes les devises</text>
    <path d="M1266,1108.5781 L1266,1344.5781 L1533,1344.5781 L1533,1118.5781 L1523,1108.5781 L1266,1108.5781 " fill="#FFFF00" style="stroke:#181818;stroke-width:0.5;"/>
    <path d="M1523,1108.5781 L1523,1118.5781 L1533,1118.5781 L1523,1108.5781 " fill="#FFFF00" style="stroke:#181818;stroke-width:0.5;"/>
    <text fill="#000000" font-family="sans-serif" font-size="13" lengthAdjust="spacing" textLength="65.4888" x="1272" y="1125.645">Message :</text>
    <text fill="#000000" font-family="sans-serif" font-size="13" lengthAdjust="spacing" textLength="8.271" x="1272" y="1140.7778">{</text>
    <text fill="#000000" font-family="sans-serif" font-size="13" lengthAdjust="spacing" textLength="5.0718" x="1288.5293" y="1155.9106">[</text>
    <text fill="#000000" font-family="sans-serif" font-size="13" lengthAdjust="spacing" textLength="8.271" x="1305.0586" y="1171.0435">{</text>
    <text fill="#000000" font-family="sans-serif" font-size="13" lengthAdjust="spacing" textLength="169.0952" x="1321.5879" y="1186.1763">currency: &lt;currencyId1&gt;,</text>
    <text fill="#000000" font-family="sans-serif" font-size="13" lengthAdjust="spacing" textLength="166.4102" x="1321.5879" y="1201.3091">value: &lt;positionValue1&gt;,</text>
    <text fill="#000000" font-family="sans-serif" font-size="13" lengthAdjust="spacing" textLength="196.4409" x="1321.5879" y="1216.4419">updatedTime: &lt;timeStamp1&gt;</text>
    <text fill="#000000" font-family="sans-serif" font-size="13" lengthAdjust="spacing" textLength="12.4033" x="1305.0586" y="1231.5747">},</text>
    <text fill="#000000" font-family="sans-serif" font-size="13" lengthAdjust="spacing" textLength="8.271" x="1305.0586" y="1246.7075">{</text>
    <text fill="#000000" font-family="sans-serif" font-size="13" lengthAdjust="spacing" textLength="169.0952" x="1321.5879" y="1261.8403">currency: &lt;currencyId2&gt;,</text>
    <text fill="#000000" font-family="sans-serif" font-size="13" lengthAdjust="spacing" textLength="166.4102" x="1321.5879" y="1276.9731">value: &lt;positionValue2&gt;,</text>
    <text fill="#000000" font-family="sans-serif" font-size="13" lengthAdjust="spacing" textLength="196.4409" x="1321.5879" y="1292.106">updatedTime: &lt;timeStamp2&gt;</text>
    <text fill="#000000" font-family="sans-serif" font-size="13" lengthAdjust="spacing" textLength="8.271" x="1305.0586" y="1307.2388">}</text>
    <text fill="#000000" font-family="sans-serif" font-size="13" lengthAdjust="spacing" textLength="5.0718" x="1288.5293" y="1322.3716">]</text>
    <text fill="#000000" font-family="sans-serif" font-size="13" lengthAdjust="spacing" textLength="8.271" x="1272" y="1337.5044">}</text>
    <polygon fill="#181818" points="796.4072,1367.7031,786.4072,1371.7031,796.4072,1375.7031,792.4072,1371.7031" style="stroke:#181818;stroke-width:1.0;"/>
    <line style="stroke:#181818;stroke-width:1.0;stroke-dasharray:2.0,2.0;" x1="790.4072" x2="1250.9351" y1="1371.7031" y2="1371.7031"/>
    <text fill="#000000" font-family="sans-serif" font-size="13" font-weight="bold" lengthAdjust="spacing" textLength="18.0908" x="802.4072" y="1366.6372">19</text>
    <text fill="#000000" font-family="sans-serif" font-size="13" lengthAdjust="spacing" textLength="397.1665" x="824.498" y="1366.6372">Renvoyer les positions du participant pour toutes les devises</text>
    <polygon fill="#181818" points="112.2075,1396.8359,102.2075,1400.8359,112.2075,1404.8359,108.2075,1400.8359" style="stroke:#181818;stroke-width:1.0;"/>
    <line style="stroke:#181818;stroke-width:1.0;stroke-dasharray:2.0,2.0;" x1="106.2075" x2="774.4072" y1="1400.8359" y2="1400.8359"/>
    <text fill="#000000" font-family="sans-serif" font-size="13" font-weight="bold" lengthAdjust="spacing" textLength="18.0908" x="118.2075" y="1395.77">20</text>
    <text fill="#000000" font-family="sans-serif" font-size="13" lengthAdjust="spacing" textLength="397.1665" x="140.2983" y="1395.77">Renvoyer les positions du participant pour toutes les devises</text>
    <line style="stroke:#000000;stroke-width:1.0;stroke-dasharray:2.0,2.0;" x1="20" x2="2297.6699" y1="1416.8359" y2="1416.8359"/>
    <text fill="#000000" font-family="sans-serif" font-size="11" font-weight="bold" lengthAdjust="spacing" textLength="191.2861" x="25" y="1427.0464">[Valider le participant (échec)]</text>
    <path d="M1266,1435.6406 L1266,1460.6406 L1423,1460.6406 L1423,1445.6406 L1413,1435.6406 L1266,1435.6406 " fill="#FF0000" style="stroke:#181818;stroke-width:0.5;"/>
    <path d="M1413,1435.6406 L1413,1445.6406 L1423,1445.6406 L1413,1435.6406 " fill="#FF0000" style="stroke:#181818;stroke-width:0.5;"/>
    <text fill="#000000" font-family="sans-serif" font-size="13" lengthAdjust="spacing" textLength="136.6079" x="1272" y="1452.7075">Échec de validation !</text>
    <path d="M1266,1470.7734 L1266,1585.7734 L1618,1585.7734 L1618,1480.7734 L1608,1470.7734 L1266,1470.7734 " fill="#FFFF00" style="stroke:#181818;stroke-width:0.5;"/>
    <path d="M1608,1470.7734 L1608,1480.7734 L1618,1480.7734 L1608,1470.7734 " fill="#FFFF00" style="stroke:#181818;stroke-width:0.5;"/>
    <text fill="#000000" font-family="sans-serif" font-size="13" lengthAdjust="spacing" textLength="65.4888" x="1272" y="1487.8403">Message :</text>
    <text fill="#000000" font-family="sans-serif" font-size="13" lengthAdjust="spacing" textLength="8.271" x="1272" y="1502.9731">{</text>
    <text fill="#000000" font-family="sans-serif" font-size="13" lengthAdjust="spacing" textLength="136.208" x="1288.5293" y="1518.106">&quot;errorInformation&quot;: {</text>
    <text fill="#000000" font-family="sans-serif" font-size="13" lengthAdjust="spacing" textLength="122.9541" x="1288.5293" y="1533.2388">&quot;errorCode&quot;: 3201,</text>
    <text fill="#000000" font-family="sans-serif" font-size="13" lengthAdjust="spacing" textLength="314.9517" x="1288.5293" y="1548.3716">&quot;errorDescription&quot;: &quot;Identifiant FSP introuvable&quot;,</text>
    <text fill="#000000" font-family="sans-serif" font-size="13" lengthAdjust="spacing" textLength="8.271" x="1288.5293" y="1563.5044">}</text>
    <text fill="#000000" font-family="sans-serif" font-size="13" lengthAdjust="spacing" textLength="8.271" x="1272" y="1578.6372">}</text>
    <polygon fill="#181818" points="796.4072,1608.8359,786.4072,1612.8359,796.4072,1616.8359,792.4072,1612.8359" style="stroke:#181818;stroke-width:1.0;"/>
    <line style="stroke:#181818;stroke-width:1.0;stroke-dasharray:2.0,2.0;" x1="790.4072" x2="1255.9351" y1="1612.8359" y2="1612.8359"/>
    <text fill="#000000" font-family="sans-serif" font-size="13" font-weight="bold" lengthAdjust="spacing" textLength="18.0908" x="802.4072" y="1607.77">21</text>
    <text fill="#000000" font-family="sans-serif" font-size="13" lengthAdjust="spacing" textLength="61.9531" x="824.498" y="1607.77">Renvoyer</text>
    <text fill="#FF0000" font-family="sans-serif" font-size="13" font-weight="bold" lengthAdjust="spacing" textLength="110.2524" x="890.5835" y="1607.77">Code d&apos;erreur :</text>
    <text fill="#FF0000" font-family="sans-serif" font-size="13" lengthAdjust="spacing" textLength="33.084" x="1004.9683" y="1607.77">3201</text>
    <polygon fill="#181818" points="112.2075,1637.9688,102.2075,1641.9688,112.2075,1645.9688,108.2075,1641.9688" style="stroke:#181818;stroke-width:1.0;"/>
    <line style="stroke:#181818;stroke-width:1.0;stroke-dasharray:2.0,2.0;" x1="106.2075" x2="774.4072" y1="1641.9688" y2="1641.9688"/>
    <text fill="#000000" font-family="sans-serif" font-size="13" font-weight="bold" lengthAdjust="spacing" textLength="18.0908" x="118.2075" y="1636.9028">22</text>
    <text fill="#000000" font-family="sans-serif" font-size="13" lengthAdjust="spacing" textLength="61.9531" x="140.2983" y="1636.9028">Renvoyer</text>
    <text fill="#FF0000" font-family="sans-serif" font-size="13" font-weight="bold" lengthAdjust="spacing" textLength="110.2524" x="206.3838" y="1636.9028">Code d&apos;erreur :</text>
    <text fill="#FF0000" font-family="sans-serif" font-size="13" lengthAdjust="spacing" textLength="33.084" x="320.7686" y="1636.9028">3201</text>
  </g>
</svg>
