<svg xmlns="http://www.w3.org/2000/svg" xmlns:xlink="http://www.w3.org/1999/xlink" contentStyleType="text/css" height="984px" preserveAspectRatio="none" style="width:2271px;height:984px;background:#FFFFFF;" version="1.1" viewBox="0 0 2271 984" width="2271px" zoomAndPan="magnify">
  <title>1.0.0 Détails des limites de tous les participants</title>
  <defs/>
  <g>
    <text fill="#000000" font-family="sans-serif" font-size="14" font-weight="bold" lengthAdjust="spacing" textLength="382.6963" x="945.9304" y="27.9951">1.0.0 Détails des limites de tous les participants</text>
    <rect fill="#FFFFE0" height="927.7734" style="stroke:#181818;stroke-width:0.5;" width="1378.3037" x="725.5225" y="43.2969"/>
    <text fill="#000000" font-family="sans-serif" font-size="13" font-weight="bold" lengthAdjust="spacing" textLength="131.1235" x="1349.1125" y="55.3638">Services centraux</text>
    <rect fill="#FFFFFF" height="746.0469" style="stroke:#181818;stroke-width:1.0;" width="10" x="71.2075" y="134.7266"/>
    <rect fill="#FFFFFF" height="700.7813" style="stroke:#181818;stroke-width:1.0;" width="10" x="803.6748" y="179.9922"/>
    <rect fill="#FFFFFF" height="627.3828" style="stroke:#181818;stroke-width:1.0;" width="10" x="1143.4043" y="209.125"/>
    <rect fill="#FFFFFF" height="322.125" style="stroke:#181818;stroke-width:1.0;" width="10" x="1628.8716" y="253.3906"/>
    <rect fill="#FFFFFF" height="263.8594" style="stroke:#181818;stroke-width:1.0;" width="10" x="2032.7397" y="282.5234"/>
    <rect fill="none" height="747.0469" style="stroke:#000000;stroke-width:1.5;" width="2255.5571" x="10" y="141.7266"/>
    <line style="stroke:#181818;stroke-width:0.5;stroke-dasharray:5.0,5.0;" x1="76" x2="76" y1="124.7266" y2="905.7734"/>
    <line style="stroke:#181818;stroke-width:0.5;stroke-dasharray:5.0,5.0;" x1="808.5225" x2="808.5225" y1="124.7266" y2="905.7734"/>
    <line style="stroke:#181818;stroke-width:0.5;stroke-dasharray:5.0,5.0;" x1="1148.2603" x2="1148.2603" y1="124.7266" y2="905.7734"/>
    <line style="stroke:#181818;stroke-width:0.5;stroke-dasharray:5.0,5.0;" x1="1633.4346" x2="1633.4346" y1="124.7266" y2="905.7734"/>
    <line style="stroke:#181818;stroke-width:0.5;stroke-dasharray:5.0,5.0;" x1="2037.6533" x2="2037.6533" y1="124.7266" y2="905.7734"/>
    <text fill="#000000" font-family="sans-serif" font-size="14" lengthAdjust="spacing" textLength="106.415" x="20" y="121.4248">Opérateur HUB</text>
    <ellipse cx="76.2075" cy="92.4297" fill="#E2E2F0" rx="12" ry="12" style="stroke:#181818;stroke-width:0.5;"/>
    <line style="stroke:#181818;stroke-width:0.5;" x1="64.2075" x2="88.2075" y1="106.4297" y2="106.4297"/>
    <text fill="#000000" font-family="sans-serif" font-size="14" lengthAdjust="spacing" textLength="106.415" x="20" y="917.7686">Opérateur HUB</text>
    <ellipse cx="76.2075" cy="937.0703" fill="#E2E2F0" rx="12" ry="12" style="stroke:#181818;stroke-width:0.5;"/>
    <line style="stroke:#181818;stroke-width:0.5;" x1="64.2075" x2="88.2075" y1="951.0703" y2="951.0703"/>
    <text fill="#000000" font-family="sans-serif" font-size="14" lengthAdjust="spacing" textLength="152.3047" x="729.5225" y="121.4248">API du service central</text>
    <path d="M788.1748,80.4297 L788.1748,104.4297 M788.1748,92.4297 L805.1748,92.4297 " fill="none" style="stroke:#181818;stroke-width:0.5;"/>
    <ellipse cx="817.1748" cy="92.4297" fill="#E2E2F0" rx="12" ry="12" style="stroke:#181818;stroke-width:0.5;"/>
    <text fill="#000000" font-family="sans-serif" font-size="14" lengthAdjust="spacing" textLength="152.3047" x="729.5225" y="917.7686">API du service central</text>
    <path d="M788.1748,925.0703 L788.1748,949.0703 M788.1748,937.0703 L805.1748,937.0703 " fill="none" style="stroke:#181818;stroke-width:0.5;"/>
    <ellipse cx="817.1748" cy="937.0703" fill="#E2E2F0" rx="12" ry="12" style="stroke:#181818;stroke-width:0.5;"/>
    <text fill="#000000" font-family="sans-serif" font-size="14" lengthAdjust="spacing" textLength="206.2881" x="1042.2603" y="121.4248">Gestionnaire des participants</text>
    <ellipse cx="1148.4043" cy="92.4297" fill="#E2E2F0" rx="12" ry="12" style="stroke:#181818;stroke-width:0.5;"/>
    <polygon fill="#181818" points="1144.4043,80.4297,1150.4043,75.4297,1148.4043,80.4297,1150.4043,85.4297,1144.4043,80.4297" style="stroke:#181818;stroke-width:1.0;"/>
    <text fill="#000000" font-family="sans-serif" font-size="14" lengthAdjust="spacing" textLength="206.2881" x="1042.2603" y="917.7686">Gestionnaire des participants</text>
    <ellipse cx="1148.4043" cy="937.0703" fill="#E2E2F0" rx="12" ry="12" style="stroke:#181818;stroke-width:0.5;"/>
    <polygon fill="#181818" points="1144.4043,925.0703,1150.4043,920.0703,1148.4043,925.0703,1150.4043,930.0703,1144.4043,925.0703" style="stroke:#181818;stroke-width:1.0;"/>
    <text fill="#000000" font-family="sans-serif" font-size="14" lengthAdjust="spacing" textLength="130.874" x="1565.4346" y="121.4248">Façade participant</text>
    <ellipse cx="1633.8716" cy="92.4297" fill="#E2E2F0" rx="12" ry="12" style="stroke:#181818;stroke-width:0.5;"/>
    <line style="stroke:#181818;stroke-width:0.5;" x1="1621.8716" x2="1645.8716" y1="106.4297" y2="106.4297"/>
    <text fill="#000000" font-family="sans-serif" font-size="14" lengthAdjust="spacing" textLength="130.874" x="1565.4346" y="917.7686">Façade participant</text>
    <ellipse cx="1633.8716" cy="937.0703" fill="#E2E2F0" rx="12" ry="12" style="stroke:#181818;stroke-width:0.5;"/>
    <line style="stroke:#181818;stroke-width:0.5;" x1="1621.8716" x2="1645.8716" y1="951.0703" y2="951.0703"/>
    <text fill="#000000" font-family="sans-serif" font-size="14" lengthAdjust="spacing" textLength="118.1729" x="1975.6533" y="121.4248">Stockage central</text>
    <path d="M2019.7397,72.4297 C2019.7397,62.4297 2037.7397,62.4297 2037.7397,62.4297 C2037.7397,62.4297 2055.7397,62.4297 2055.7397,72.4297 L2055.7397,98.4297 C2055.7397,108.4297 2037.7397,108.4297 2037.7397,108.4297 C2037.7397,108.4297 2019.7397,108.4297 2019.7397,98.4297 L2019.7397,72.4297 " fill="#E2E2F0" style="stroke:#181818;stroke-width:1.5;"/>
    <path d="M2019.7397,72.4297 C2019.7397,82.4297 2037.7397,82.4297 2037.7397,82.4297 C2037.7397,82.4297 2055.7397,82.4297 2055.7397,72.4297 " fill="none" style="stroke:#181818;stroke-width:1.5;"/>
    <text fill="#000000" font-family="sans-serif" font-size="14" lengthAdjust="spacing" textLength="118.1729" x="1975.6533" y="917.7686">Stockage central</text>
    <path d="M2019.7397,931.0703 C2019.7397,921.0703 2037.7397,921.0703 2037.7397,921.0703 C2037.7397,921.0703 2055.7397,921.0703 2055.7397,931.0703 L2055.7397,957.0703 C2055.7397,967.0703 2037.7397,967.0703 2037.7397,967.0703 C2037.7397,967.0703 2019.7397,967.0703 2019.7397,957.0703 L2019.7397,931.0703 " fill="#E2E2F0" style="stroke:#181818;stroke-width:1.5;"/>
    <path d="M2019.7397,931.0703 C2019.7397,941.0703 2037.7397,941.0703 2037.7397,941.0703 C2037.7397,941.0703 2055.7397,941.0703 2055.7397,931.0703 " fill="none" style="stroke:#181818;stroke-width:1.5;"/>
    <rect fill="#FFFFFF" height="746.0469" style="stroke:#181818;stroke-width:1.0;" width="10" x="71.2075" y="134.7266"/>
    <rect fill="#FFFFFF" height="700.7813" style="stroke:#181818;stroke-width:1.0;" width="10" x="803.6748" y="179.9922"/>
    <rect fill="#FFFFFF" height="627.3828" style="stroke:#181818;stroke-width:1.0;" width="10" x="1143.4043" y="209.125"/>
    <rect fill="#FFFFFF" height="322.125" style="stroke:#181818;stroke-width:1.0;" width="10" x="1628.8716" y="253.3906"/>
    <rect fill="#FFFFFF" height="263.8594" style="stroke:#181818;stroke-width:1.0;" width="10" x="2032.7397" y="282.5234"/>
    <path d="M10,141.7266 L368.2378,141.7266 L368.2378,148.8594 L358.2378,158.8594 L10,158.8594 L10,141.7266 " fill="#EEEEEE" style="stroke:#000000;stroke-width:1.5;"/>
    <rect fill="none" height="747.0469" style="stroke:#000000;stroke-width:1.5;" width="2255.5571" x="10" y="141.7266"/>
    <text fill="#000000" font-family="sans-serif" font-size="13" font-weight="bold" lengthAdjust="spacing" textLength="313.2378" x="25" y="154.7935">Obtenir les limites de tous les participants</text>
    <polygon fill="#181818" points="791.6748,175.9922,801.6748,179.9922,791.6748,183.9922,795.6748,179.9922" style="stroke:#181818;stroke-width:1.0;"/>
    <line style="stroke:#181818;stroke-width:1.0;" x1="81.2075" x2="797.6748" y1="179.9922" y2="179.9922"/>
    <text fill="#000000" font-family="sans-serif" font-size="13" font-weight="bold" lengthAdjust="spacing" textLength="9.0454" x="88.2075" y="174.9263">1</text>
    <text fill="#000000" font-family="sans-serif" font-size="13" lengthAdjust="spacing" textLength="690.4219" x="101.2529" y="174.9263">Demande d&apos;obtenir les limites — GET - /participants/limits?type={typeValue}&amp;currency={currencyType}</text>
    <polygon fill="#181818" points="1131.4043,205.125,1141.4043,209.125,1131.4043,213.125,1135.4043,209.125" style="stroke:#181818;stroke-width:1.0;"/>
    <line style="stroke:#181818;stroke-width:1.0;" x1="813.6748" x2="1137.4043" y1="209.125" y2="209.125"/>
    <text fill="#000000" font-family="sans-serif" font-size="13" font-weight="bold" lengthAdjust="spacing" textLength="9.0454" x="820.6748" y="204.0591">2</text>
    <text fill="#000000" font-family="sans-serif" font-size="13" lengthAdjust="spacing" textLength="293.9536" x="833.7202" y="204.0591">Récupérer les limites de tous les participants</text>
    <polygon fill="#181818" points="1616.8716,249.3906,1626.8716,253.3906,1616.8716,257.3906,1620.8716,253.3906" style="stroke:#181818;stroke-width:1.0;"/>
    <line style="stroke:#181818;stroke-width:1.0;" x1="1153.4043" x2="1622.8716" y1="253.3906" y2="253.3906"/>
    <text fill="#000000" font-family="sans-serif" font-size="13" font-weight="bold" lengthAdjust="spacing" textLength="9.0454" x="1160.4043" y="240.7583">3</text>
    <text fill="#000000" font-family="sans-serif" font-size="13" lengthAdjust="spacing" textLength="439.2896" x="1173.4497" y="233.1919">Récupérer les limites pour tous les participants avec devise et type</text>
    <text fill="#FF0000" font-family="sans-serif" font-size="13" font-weight="bold" lengthAdjust="spacing" textLength="110.2524" x="1173.4497" y="248.3247">Code d&apos;erreur :</text>
    <text fill="#FF0000" font-family="sans-serif" font-size="13" lengthAdjust="spacing" textLength="33.084" x="1287.8345" y="248.3247">3000</text>
    <polygon fill="#181818" points="2020.7397,278.5234,2030.7397,282.5234,2020.7397,286.5234,2024.7397,282.5234" style="stroke:#181818;stroke-width:1.0;"/>
    <line style="stroke:#181818;stroke-width:1.0;" x1="1638.8716" x2="2026.7397" y1="282.5234" y2="282.5234"/>
    <text fill="#000000" font-family="sans-serif" font-size="13" font-weight="bold" lengthAdjust="spacing" textLength="9.0454" x="1645.8716" y="277.4575">4</text>
    <text fill="#000000" font-family="sans-serif" font-size="13" lengthAdjust="spacing" textLength="361.8228" x="1658.917" y="277.4575">Récupérer les limites pour currencyId et type (si fourni)</text>
    <path d="M1643,295.5234 L1643,441.5234 L2255,441.5234 L2255,305.5234 L2245,295.5234 L1643,295.5234 " fill="#D3D3D3" style="stroke:#181818;stroke-width:0.5;"/>
    <path d="M2245,295.5234 L2245,305.5234 L2255,305.5234 L2245,295.5234 " fill="#D3D3D3" style="stroke:#181818;stroke-width:0.5;"/>
    <text fill="#000000" font-family="sans-serif" font-size="13" lengthAdjust="spacing" textLength="70.5479" x="1649" y="312.5903">Condition :</text>
    <text fill="#000000" font-family="sans-serif" font-size="13" lengthAdjust="spacing" textLength="511.1895" x="1665.5293" y="327.7231">participantCurrency.participantCurrencyId = participant.participantCurrencyId</text>
    <text fill="#000000" font-family="sans-serif" font-size="13" lengthAdjust="spacing" textLength="185.1992" x="1665.5293" y="342.856">participantLimit.isActive = 1</text>
    <text fill="#000000" font-family="sans-serif" font-size="13" lengthAdjust="spacing" textLength="543.4165" x="1665.5293" y="357.9888">participantLimit.participantCurrencyId = participantCurrency.participantCurrencyId</text>
    <text fill="#000000" font-family="sans-serif" font-size="13" lengthAdjust="spacing" textLength="5.0718" x="1665.5293" y="373.1216">[</text>
    <text fill="#000000" font-family="sans-serif" font-size="13" lengthAdjust="spacing" textLength="558.4985" x="1682.0586" y="388.2544">participantLimit.participantLimitTypeId = participantLimitType.participantLimitTypeId</text>
    <text fill="#000000" font-family="sans-serif" font-size="13" lengthAdjust="spacing" textLength="358.8838" x="1682.0586" y="403.3872">participantLimit.participantCurrencyId = &lt;currencyId&gt;</text>
    <text fill="#000000" font-family="sans-serif" font-size="13" lengthAdjust="spacing" textLength="245.6797" x="1682.0586" y="418.52">participantLimitType.name = &lt;type&gt;</text>
    <text fill="#000000" font-family="sans-serif" font-size="13" lengthAdjust="spacing" textLength="5.0718" x="1665.5293" y="433.6528">]</text>
    <polygon fill="#FFFFE0" points="1968,451.7188,2106,451.7188,2116,485.7188,2106,519.7188,1968,519.7188,1958,485.7188,1968,451.7188" style="stroke:#181818;stroke-width:0.5;"/>
    <text fill="#000000" font-family="sans-serif" font-size="13" lengthAdjust="spacing" textLength="70.5859" x="1970" y="467.7856">participant</text>
    <text fill="#000000" font-family="sans-serif" font-size="13" lengthAdjust="spacing" textLength="129.6699" x="1970" y="482.9185">participantCurrency</text>
    <text fill="#000000" font-family="sans-serif" font-size="13" lengthAdjust="spacing" textLength="102.813" x="1970" y="498.0513">participantLimit</text>
    <text fill="#000000" font-family="sans-serif" font-size="13" lengthAdjust="spacing" textLength="134.6973" x="1970" y="513.1841">participantLimitType</text>
    <polygon fill="#181818" points="1649.8716,542.3828,1639.8716,546.3828,1649.8716,550.3828,1645.8716,546.3828" style="stroke:#181818;stroke-width:1.0;"/>
    <line style="stroke:#181818;stroke-width:1.0;stroke-dasharray:2.0,2.0;" x1="1643.8716" x2="2036.7397" y1="546.3828" y2="546.3828"/>
    <text fill="#000000" font-family="sans-serif" font-size="13" font-weight="bold" lengthAdjust="spacing" textLength="9.0454" x="1655.8716" y="541.3169">5</text>
    <text fill="#000000" font-family="sans-serif" font-size="13" lengthAdjust="spacing" textLength="356.6367" x="1668.917" y="541.3169">Limites participant récupérées pour currencyId et type</text>
    <polygon fill="#181818" points="1164.4043,571.5156,1154.4043,575.5156,1164.4043,579.5156,1160.4043,575.5156" style="stroke:#181818;stroke-width:1.0;"/>
    <line style="stroke:#181818;stroke-width:1.0;stroke-dasharray:2.0,2.0;" x1="1158.4043" x2="1632.8716" y1="575.5156" y2="575.5156"/>
    <text fill="#000000" font-family="sans-serif" font-size="13" font-weight="bold" lengthAdjust="spacing" textLength="9.0454" x="1170.4043" y="570.4497">6</text>
    <text fill="#000000" font-family="sans-serif" font-size="13" lengthAdjust="spacing" textLength="288.5518" x="1183.4497" y="570.4497">Renvoyer les limites de tous les participants</text>
    <path d="M1158,588.5156 L1158,794.5156 L1463,794.5156 L1463,598.5156 L1453,588.5156 L1158,588.5156 " fill="#FFFF00" style="stroke:#181818;stroke-width:0.5;"/>
    <path d="M1453,588.5156 L1453,598.5156 L1463,598.5156 L1453,588.5156 " fill="#FFFF00" style="stroke:#181818;stroke-width:0.5;"/>
    <text fill="#000000" font-family="sans-serif" font-size="13" lengthAdjust="spacing" textLength="65.4888" x="1164" y="605.5825">Message :</text>
    <text fill="#000000" font-family="sans-serif" font-size="13" lengthAdjust="spacing" textLength="5.0718" x="1164" y="620.7153">[</text>
    <text fill="#000000" font-family="sans-serif" font-size="13" lengthAdjust="spacing" textLength="8.271" x="1180.5293" y="635.8481">{</text>
    <text fill="#000000" font-family="sans-serif" font-size="13" lengthAdjust="spacing" textLength="86.7661" x="1197.0586" y="650.981">name: &lt;fsp&gt;</text>
    <text fill="#000000" font-family="sans-serif" font-size="13" lengthAdjust="spacing" textLength="160.8242" x="1197.0586" y="666.1138">currency: &lt;currencyId&gt;,</text>
    <text fill="#000000" font-family="sans-serif" font-size="13" lengthAdjust="spacing" textLength="251.6084" x="1197.0586" y="681.2466">limit: {type: &lt;type&gt;, value: &lt;value&gt;}</text>
    <text fill="#000000" font-family="sans-serif" font-size="13" lengthAdjust="spacing" textLength="12.4033" x="1180.5293" y="696.3794">},</text>
    <text fill="#000000" font-family="sans-serif" font-size="13" lengthAdjust="spacing" textLength="8.271" x="1180.5293" y="711.5122">{</text>
    <text fill="#000000" font-family="sans-serif" font-size="13" lengthAdjust="spacing" textLength="86.7661" x="1197.0586" y="726.645">name: &lt;fsp&gt;</text>
    <text fill="#000000" font-family="sans-serif" font-size="13" lengthAdjust="spacing" textLength="160.8242" x="1197.0586" y="741.7778">currency: &lt;currencyId&gt;,</text>
    <text fill="#000000" font-family="sans-serif" font-size="13" lengthAdjust="spacing" textLength="251.6084" x="1197.0586" y="756.9106">limit: {type: &lt;type&gt;, value: &lt;value&gt;}</text>
    <text fill="#000000" font-family="sans-serif" font-size="13" lengthAdjust="spacing" textLength="8.271" x="1180.5293" y="772.0435">}</text>
    <text fill="#000000" font-family="sans-serif" font-size="13" lengthAdjust="spacing" textLength="5.0718" x="1164" y="787.1763">]</text>
    <polygon fill="#181818" points="824.6748,832.5078,814.6748,836.5078,824.6748,840.5078,820.6748,836.5078" style="stroke:#181818;stroke-width:1.0;"/>
    <line style="stroke:#181818;stroke-width:1.0;stroke-dasharray:2.0,2.0;" x1="818.6748" x2="1147.4043" y1="836.5078" y2="836.5078"/>
    <text fill="#000000" font-family="sans-serif" font-size="13" font-weight="bold" lengthAdjust="spacing" textLength="9.0454" x="830.6748" y="823.8755">7</text>
    <text fill="#000000" font-family="sans-serif" font-size="13" lengthAdjust="spacing" textLength="288.5518" x="843.7202" y="816.3091">Renvoyer les limites de tous les participants</text>
    <text fill="#FF0000" font-family="sans-serif" font-size="13" font-weight="bold" lengthAdjust="spacing" textLength="110.2524" x="843.7202" y="831.4419">Code d&apos;erreur :</text>
    <text fill="#FF0000" font-family="sans-serif" font-size="13" lengthAdjust="spacing" textLength="33.084" x="958.105" y="831.4419">3000</text>
    <polygon fill="#181818" points="87.2075,876.7734,77.2075,880.7734,87.2075,884.7734,83.2075,880.7734" style="stroke:#181818;stroke-width:1.0;"/>
    <line style="stroke:#181818;stroke-width:1.0;stroke-dasharray:2.0,2.0;" x1="81.2075" x2="807.6748" y1="880.7734" y2="880.7734"/>
    <text fill="#000000" font-family="sans-serif" font-size="13" font-weight="bold" lengthAdjust="spacing" textLength="9.0454" x="93.2075" y="868.1411">8</text>
    <text fill="#000000" font-family="sans-serif" font-size="13" lengthAdjust="spacing" textLength="288.5518" x="106.2529" y="860.5747">Renvoyer les limites de tous les participants</text>
    <text fill="#FF0000" font-family="sans-serif" font-size="13" font-weight="bold" lengthAdjust="spacing" textLength="110.2524" x="106.2529" y="875.7075">Code d&apos;erreur :</text>
    <text fill="#FF0000" font-family="sans-serif" font-size="13" lengthAdjust="spacing" textLength="33.084" x="220.6377" y="875.7075">3000</text>
  </g>
</svg>
