<svg xmlns="http://www.w3.org/2000/svg" xmlns:xlink="http://www.w3.org/1999/xlink" contentStyleType="text/css" height="1620px" preserveAspectRatio="none" style="width:1796px;height:1620px;background:#FFFFFF;" version="1.1" viewBox="0 0 1796 1620" width="1796px" zoomAndPan="magnify">
  <title>3.1.0 Ajout des détails de rappel du participant</title>
  <defs/>
  <g>
    <text fill="#000000" font-family="sans-serif" font-size="14" font-weight="bold" lengthAdjust="spacing" textLength="374.6094" x="712.4177" y="27.9951">3.1.0 Ajout des détails de rappel du participant</text>
    <rect fill="#FFFFE0" height="1570.9063" style="stroke:#181818;stroke-width:0.5;" width="1173.5366" x="587.7578" y="43.2969"/>
    <text fill="#000000" font-family="sans-serif" font-size="13" font-weight="bold" lengthAdjust="spacing" textLength="131.1235" x="1108.9644" y="55.3638">Services centraux</text>
    <rect fill="#FFFFFF" height="1383.1797" style="stroke:#181818;stroke-width:1.0;" width="10" x="91.2075" y="134.7266"/>
    <rect fill="#FFFFFF" height="1337.9141" style="stroke:#181818;stroke-width:1.0;" width="10" x="665.9102" y="179.9922"/>
    <rect fill="#FFFFFF" height="633.1875" style="stroke:#181818;stroke-width:1.0;" width="10" x="986.332" y="365.3203"/>
    <rect fill="#FFFFFF" height="446.1328" style="stroke:#181818;stroke-width:1.0;" width="10" x="986.332" y="1027.6406"/>
    <rect fill="#FFFFFF" height="120.5313" style="stroke:#181818;stroke-width:1.0;" width="10" x="1361.623" y="409.5859"/>
    <rect fill="#FFFFFF" height="247.3281" style="stroke:#181818;stroke-width:1.0;" width="10" x="1361.623" y="655.7813"/>
    <rect fill="#FFFFFF" height="62.2656" style="stroke:#181818;stroke-width:1.0;" width="10" x="1690.208" y="438.7188"/>
    <rect fill="#FFFFFF" height="30" style="stroke:#181818;stroke-width:1.0;" width="10" x="1690.208" y="684.9141"/>
    <rect fill="none" height="1376.1797" style="stroke:#000000;stroke-width:1.5;" width="1780.4448" x="10" y="141.7266"/>
    <rect fill="none" height="923.6563" style="stroke:#000000;stroke-width:1.5;" width="1760.4448" x="20" y="587.25"/>
    <rect fill="none" height="309.5313" style="stroke:#000000;stroke-width:1.5;" width="1232.8579" x="30" y="960.2422"/>
    <line style="stroke:#181818;stroke-width:0.5;stroke-dasharray:5.0,5.0;" x1="96" x2="96" y1="124.7266" y2="1534.9063"/>
    <line style="stroke:#181818;stroke-width:0.5;stroke-dasharray:5.0,5.0;" x1="670.7578" x2="670.7578" y1="124.7266" y2="1534.9063"/>
    <line style="stroke:#181818;stroke-width:0.5;stroke-dasharray:5.0,5.0;" x1="991.188" x2="991.188" y1="124.7266" y2="1534.9063"/>
    <line style="stroke:#181818;stroke-width:0.5;stroke-dasharray:5.0,5.0;" x1="1365.7017" x2="1365.7017" y1="124.7266" y2="1534.9063"/>
    <line style="stroke:#181818;stroke-width:0.5;stroke-dasharray:5.0,5.0;" x1="1695.1216" x2="1695.1216" y1="124.7266" y2="1534.9063"/>
    <text fill="#000000" font-family="sans-serif" font-size="14" lengthAdjust="spacing" textLength="106.415" x="40" y="121.4248">Opérateur HUB</text>
    <ellipse cx="96.2075" cy="56.9297" fill="#E2E2F0" rx="8" ry="8" style="stroke:#181818;stroke-width:0.5;"/>
    <path d="M96.2075,64.9297 L96.2075,91.9297 M83.2075,72.9297 L109.2075,72.9297 M96.2075,91.9297 L83.2075,106.9297 M96.2075,91.9297 L109.2075,106.9297 " fill="none" style="stroke:#181818;stroke-width:0.5;"/>
    <text fill="#000000" font-family="sans-serif" font-size="14" lengthAdjust="spacing" textLength="106.415" x="40" y="1546.9014">Opérateur HUB</text>
    <ellipse cx="96.2075" cy="1558.7031" fill="#E2E2F0" rx="8" ry="8" style="stroke:#181818;stroke-width:0.5;"/>
    <path d="M96.2075,1566.7031 L96.2075,1593.7031 M83.2075,1574.7031 L109.2075,1574.7031 M96.2075,1593.7031 L83.2075,1608.7031 M96.2075,1593.7031 L109.2075,1608.7031 " fill="none" style="stroke:#181818;stroke-width:0.5;"/>
    <text fill="#000000" font-family="sans-serif" font-size="14" lengthAdjust="spacing" textLength="152.3047" x="591.7578" y="121.4248">API du service central</text>
    <path d="M650.4102,80.4297 L650.4102,104.4297 M650.4102,92.4297 L667.4102,92.4297 " fill="none" style="stroke:#181818;stroke-width:0.5;"/>
    <ellipse cx="679.4102" cy="92.4297" fill="#E2E2F0" rx="12" ry="12" style="stroke:#181818;stroke-width:0.5;"/>
    <text fill="#000000" font-family="sans-serif" font-size="14" lengthAdjust="spacing" textLength="152.3047" x="591.7578" y="1546.9014">API du service central</text>
    <path d="M650.4102,1554.2031 L650.4102,1578.2031 M650.4102,1566.2031 L667.4102,1566.2031 " fill="none" style="stroke:#181818;stroke-width:0.5;"/>
    <ellipse cx="679.4102" cy="1566.2031" fill="#E2E2F0" rx="12" ry="12" style="stroke:#181818;stroke-width:0.5;"/>
    <text fill="#000000" font-family="sans-serif" font-size="14" lengthAdjust="spacing" textLength="206.2881" x="885.188" y="121.4248">Gestionnaire des participants</text>
    <ellipse cx="991.332" cy="92.4297" fill="#E2E2F0" rx="12" ry="12" style="stroke:#181818;stroke-width:0.5;"/>
    <polygon fill="#181818" points="987.332,80.4297,993.332,75.4297,991.332,80.4297,993.332,85.4297,987.332,80.4297" style="stroke:#181818;stroke-width:1.0;"/>
    <text fill="#000000" font-family="sans-serif" font-size="14" lengthAdjust="spacing" textLength="206.2881" x="885.188" y="1546.9014">Gestionnaire des participants</text>
    <ellipse cx="991.332" cy="1566.2031" fill="#E2E2F0" rx="12" ry="12" style="stroke:#181818;stroke-width:0.5;"/>
    <polygon fill="#181818" points="987.332,1554.2031,993.332,1549.2031,991.332,1554.2031,993.332,1559.2031,987.332,1554.2031" style="stroke:#181818;stroke-width:1.0;"/>
    <text fill="#000000" font-family="sans-serif" font-size="14" lengthAdjust="spacing" textLength="111.8428" x="1307.7017" y="121.4248">DAO participant</text>
    <ellipse cx="1366.623" cy="92.4297" fill="#E2E2F0" rx="12" ry="12" style="stroke:#181818;stroke-width:0.5;"/>
    <line style="stroke:#181818;stroke-width:0.5;" x1="1354.623" x2="1378.623" y1="106.4297" y2="106.4297"/>
    <text fill="#000000" font-family="sans-serif" font-size="14" lengthAdjust="spacing" textLength="111.8428" x="1307.7017" y="1546.9014">DAO participant</text>
    <ellipse cx="1366.623" cy="1566.2031" fill="#E2E2F0" rx="12" ry="12" style="stroke:#181818;stroke-width:0.5;"/>
    <line style="stroke:#181818;stroke-width:0.5;" x1="1354.623" x2="1378.623" y1="1580.2031" y2="1580.2031"/>
    <text fill="#000000" font-family="sans-serif" font-size="14" lengthAdjust="spacing" textLength="118.1729" x="1633.1216" y="121.4248">Stockage central</text>
    <path d="M1677.208,72.4297 C1677.208,62.4297 1695.208,62.4297 1695.208,62.4297 C1695.208,62.4297 1713.208,62.4297 1713.208,72.4297 L1713.208,98.4297 C1713.208,108.4297 1695.208,108.4297 1695.208,108.4297 C1695.208,108.4297 1677.208,108.4297 1677.208,98.4297 L1677.208,72.4297 " fill="#E2E2F0" style="stroke:#181818;stroke-width:1.5;"/>
    <path d="M1677.208,72.4297 C1677.208,82.4297 1695.208,82.4297 1695.208,82.4297 C1695.208,82.4297 1713.208,82.4297 1713.208,72.4297 " fill="none" style="stroke:#181818;stroke-width:1.5;"/>
    <text fill="#000000" font-family="sans-serif" font-size="14" lengthAdjust="spacing" textLength="118.1729" x="1633.1216" y="1546.9014">Stockage central</text>
    <path d="M1677.208,1560.2031 C1677.208,1550.2031 1695.208,1550.2031 1695.208,1550.2031 C1695.208,1550.2031 1713.208,1550.2031 1713.208,1560.2031 L1713.208,1586.2031 C1713.208,1596.2031 1695.208,1596.2031 1695.208,1596.2031 C1695.208,1596.2031 1677.208,1596.2031 1677.208,1586.2031 L1677.208,1560.2031 " fill="#E2E2F0" style="stroke:#181818;stroke-width:1.5;"/>
    <path d="M1677.208,1560.2031 C1677.208,1570.2031 1695.208,1570.2031 1695.208,1570.2031 C1695.208,1570.2031 1713.208,1570.2031 1713.208,1560.2031 " fill="none" style="stroke:#181818;stroke-width:1.5;"/>
    <rect fill="#FFFFFF" height="1383.1797" style="stroke:#181818;stroke-width:1.0;" width="10" x="91.2075" y="134.7266"/>
    <rect fill="#FFFFFF" height="1337.9141" style="stroke:#181818;stroke-width:1.0;" width="10" x="665.9102" y="179.9922"/>
    <rect fill="#FFFFFF" height="633.1875" style="stroke:#181818;stroke-width:1.0;" width="10" x="986.332" y="365.3203"/>
    <rect fill="#FFFFFF" height="446.1328" style="stroke:#181818;stroke-width:1.0;" width="10" x="986.332" y="1027.6406"/>
    <rect fill="#FFFFFF" height="120.5313" style="stroke:#181818;stroke-width:1.0;" width="10" x="1361.623" y="409.5859"/>
    <rect fill="#FFFFFF" height="247.3281" style="stroke:#181818;stroke-width:1.0;" width="10" x="1361.623" y="655.7813"/>
    <rect fill="#FFFFFF" height="62.2656" style="stroke:#181818;stroke-width:1.0;" width="10" x="1690.208" y="438.7188"/>
    <rect fill="#FFFFFF" height="30" style="stroke:#181818;stroke-width:1.0;" width="10" x="1690.208" y="684.9141"/>
    <path d="M10,141.7266 L339.4385,141.7266 L339.4385,148.8594 L329.4385,158.8594 L10,158.8594 L10,141.7266 " fill="#EEEEEE" style="stroke:#000000;stroke-width:1.5;"/>
    <rect fill="none" height="1376.1797" style="stroke:#000000;stroke-width:1.5;" width="1780.4448" x="10" y="141.7266"/>
    <text fill="#000000" font-family="sans-serif" font-size="13" font-weight="bold" lengthAdjust="spacing" textLength="284.4385" x="25" y="154.7935">Ajouter les détails de rappel (callback)</text>
    <polygon fill="#181818" points="653.9102,175.9922,663.9102,179.9922,653.9102,183.9922,657.9102,179.9922" style="stroke:#181818;stroke-width:1.0;"/>
    <line style="stroke:#181818;stroke-width:1.0;" x1="101.2075" x2="659.9102" y1="179.9922" y2="179.9922"/>
    <text fill="#000000" font-family="sans-serif" font-size="13" font-weight="bold" lengthAdjust="spacing" textLength="9.0454" x="108.2075" y="174.9263">1</text>
    <text fill="#000000" font-family="sans-serif" font-size="13" lengthAdjust="spacing" textLength="532.6572" x="121.2529" y="174.9263">Demande d&apos;ajouter les détails de rappel — POST - /paticipants/{name}/endpoints</text>
    <path d="M106,192.9922 L106,338.9922 L336,338.9922 L336,202.9922 L326,192.9922 L106,192.9922 " fill="#FFFF00" style="stroke:#181818;stroke-width:0.5;"/>
    <path d="M326,192.9922 L326,202.9922 L336,202.9922 L326,192.9922 " fill="#FFFF00" style="stroke:#181818;stroke-width:0.5;"/>
    <text fill="#000000" font-family="sans-serif" font-size="13" lengthAdjust="spacing" textLength="65.4888" x="112" y="210.0591">Message :</text>
    <text fill="#000000" font-family="sans-serif" font-size="13" lengthAdjust="spacing" textLength="8.271" x="112" y="225.1919">{</text>
    <text fill="#000000" font-family="sans-serif" font-size="13" lengthAdjust="spacing" textLength="68.4785" x="128.5293" y="240.3247">payload: {</text>
    <text fill="#000000" font-family="sans-serif" font-size="13" lengthAdjust="spacing" textLength="74.4263" x="145.0586" y="255.4575">endpoint: {</text>
    <text fill="#000000" font-family="sans-serif" font-size="13" lengthAdjust="spacing" textLength="129.2192" x="161.5879" y="270.5903">type: &lt;typeValue&gt;,</text>
    <text fill="#000000" font-family="sans-serif" font-size="13" lengthAdjust="spacing" textLength="160.1577" x="161.5879" y="285.7231">value: &lt;endpointValue&gt;</text>
    <text fill="#000000" font-family="sans-serif" font-size="13" lengthAdjust="spacing" textLength="8.271" x="140.9263" y="300.856">}</text>
    <text fill="#000000" font-family="sans-serif" font-size="13" lengthAdjust="spacing" textLength="8.271" x="128.5293" y="315.9888">}</text>
    <text fill="#000000" font-family="sans-serif" font-size="13" lengthAdjust="spacing" textLength="8.271" x="112" y="331.1216">}</text>
    <polygon fill="#181818" points="974.332,361.3203,984.332,365.3203,974.332,369.3203,978.332,365.3203" style="stroke:#181818;stroke-width:1.0;"/>
    <line style="stroke:#181818;stroke-width:1.0;" x1="675.9102" x2="980.332" y1="365.3203" y2="365.3203"/>
    <text fill="#000000" font-family="sans-serif" font-size="13" font-weight="bold" lengthAdjust="spacing" textLength="9.0454" x="682.9102" y="360.2544">2</text>
    <text fill="#000000" font-family="sans-serif" font-size="13" lengthAdjust="spacing" textLength="278.3765" x="695.9556" y="360.2544">Ajouter les détails de rappel du participant</text>
    <polygon fill="#181818" points="1349.623,405.5859,1359.623,409.5859,1349.623,413.5859,1353.623,409.5859" style="stroke:#181818;stroke-width:1.0;"/>
    <line style="stroke:#181818;stroke-width:1.0;" x1="996.332" x2="1355.623" y1="409.5859" y2="409.5859"/>
    <text fill="#000000" font-family="sans-serif" font-size="13" font-weight="bold" lengthAdjust="spacing" textLength="9.0454" x="1003.332" y="396.9536">3</text>
    <text fill="#000000" font-family="sans-serif" font-size="13" lengthAdjust="spacing" textLength="157.8154" x="1016.3774" y="389.3872">Récupérer le participant</text>
    <text fill="#FF0000" font-family="sans-serif" font-size="13" font-weight="bold" lengthAdjust="spacing" textLength="110.2524" x="1016.3774" y="404.52">Code d&apos;erreur :</text>
    <text fill="#FF0000" font-family="sans-serif" font-size="13" lengthAdjust="spacing" textLength="33.084" x="1130.7622" y="404.52">3200</text>
    <polygon fill="#181818" points="1678.208,434.7188,1688.208,438.7188,1678.208,442.7188,1682.208,438.7188" style="stroke:#181818;stroke-width:1.0;"/>
    <line style="stroke:#181818;stroke-width:1.0;" x1="1371.623" x2="1684.208" y1="438.7188" y2="438.7188"/>
    <text fill="#000000" font-family="sans-serif" font-size="13" font-weight="bold" lengthAdjust="spacing" textLength="9.0454" x="1378.623" y="433.6528">4</text>
    <text fill="#000000" font-family="sans-serif" font-size="13" lengthAdjust="spacing" textLength="157.8154" x="1391.6685" y="433.6528">Récupérer le participant</text>
    <polygon fill="#FFFFE0" points="1657,451.7188,1731,451.7188,1741,462.7188,1731,474.7188,1657,474.7188,1647,462.7188,1657,451.7188" style="stroke:#181818;stroke-width:0.5;"/>
    <text fill="#000000" font-family="sans-serif" font-size="13" lengthAdjust="spacing" textLength="70.5859" x="1659" y="467.7856">participant</text>
    <polygon fill="#181818" points="1382.623,496.9844,1372.623,500.9844,1382.623,504.9844,1378.623,500.9844" style="stroke:#181818;stroke-width:1.0;"/>
    <line style="stroke:#181818;stroke-width:1.0;stroke-dasharray:2.0,2.0;" x1="1376.623" x2="1694.208" y1="500.9844" y2="500.9844"/>
    <text fill="#000000" font-family="sans-serif" font-size="13" font-weight="bold" lengthAdjust="spacing" textLength="9.0454" x="1388.623" y="495.9185">5</text>
    <text fill="#000000" font-family="sans-serif" font-size="13" lengthAdjust="spacing" textLength="132.6279" x="1401.6685" y="495.9185">Participant récupéré</text>
    <polygon fill="#181818" points="1007.332,526.1172,997.332,530.1172,1007.332,534.1172,1003.332,530.1172" style="stroke:#181818;stroke-width:1.0;"/>
    <line style="stroke:#181818;stroke-width:1.0;stroke-dasharray:2.0,2.0;" x1="1001.332" x2="1365.623" y1="530.1172" y2="530.1172"/>
    <text fill="#000000" font-family="sans-serif" font-size="13" font-weight="bold" lengthAdjust="spacing" textLength="9.0454" x="1013.332" y="525.0513">6</text>
    <text fill="#000000" font-family="sans-serif" font-size="13" lengthAdjust="spacing" textLength="152.4136" x="1026.3774" y="525.0513">Renvoyer le participant</text>
    <line style="stroke:#181818;stroke-width:1.0;" x1="996.332" x2="1038.332" y1="559.25" y2="559.25"/>
    <line style="stroke:#181818;stroke-width:1.0;" x1="1038.332" x2="1038.332" y1="559.25" y2="572.25"/>
    <line style="stroke:#181818;stroke-width:1.0;" x1="997.332" x2="1038.332" y1="572.25" y2="572.25"/>
    <polygon fill="#181818" points="1007.332,568.25,997.332,572.25,1007.332,576.25,1003.332,572.25" style="stroke:#181818;stroke-width:1.0;"/>
    <text fill="#000000" font-family="sans-serif" font-size="13" font-weight="bold" lengthAdjust="spacing" textLength="9.0454" x="1003.332" y="554.1841">7</text>
    <text fill="#000000" font-family="sans-serif" font-size="13" lengthAdjust="spacing" textLength="99.1313" x="1016.3774" y="554.1841">Valider le DFSP</text>
    <path d="M20,587.25 L84.4429,587.25 L84.4429,594.3828 L74.4429,604.3828 L20,604.3828 L20,587.25 " fill="#EEEEEE" style="stroke:#000000;stroke-width:1.5;"/>
    <rect fill="none" height="923.6563" style="stroke:#000000;stroke-width:1.5;" width="1760.4448" x="20" y="587.25"/>
    <text fill="#000000" font-family="sans-serif" font-size="13" font-weight="bold" lengthAdjust="spacing" textLength="19.4429" x="35" y="600.3169">alt</text>
    <text fill="#000000" font-family="sans-serif" font-size="11" font-weight="bold" lengthAdjust="spacing" textLength="196.9204" x="99.4429" y="599.4604">[Valider le participant (succès)]</text>
    <polygon fill="#181818" points="1349.623,651.7813,1359.623,655.7813,1349.623,659.7813,1353.623,655.7813" style="stroke:#181818;stroke-width:1.0;"/>
    <line style="stroke:#181818;stroke-width:1.0;" x1="996.332" x2="1355.623" y1="655.7813" y2="655.7813"/>
    <text fill="#000000" font-family="sans-serif" font-size="13" font-weight="bold" lengthAdjust="spacing" textLength="9.0454" x="1003.332" y="635.5825">8</text>
    <text fill="#000000" font-family="sans-serif" font-size="13" lengthAdjust="spacing" textLength="278.3765" x="1016.3774" y="620.4497">Ajouter les détails de rappel du participant</text>
    <text fill="#FF0000" font-family="sans-serif" font-size="13" font-weight="bold" lengthAdjust="spacing" textLength="110.2524" x="1016.3774" y="635.5825">Code d&apos;erreur :</text>
    <text fill="#FF0000" font-family="sans-serif" font-size="13" lengthAdjust="spacing" textLength="37.4639" x="1130.7622" y="635.5825">2003/</text>
    <text fill="#FF0000" font-family="sans-serif" font-size="13" font-weight="bold" lengthAdjust="spacing" textLength="39.7046" x="1168.2261" y="635.5825">Msg :</text>
    <text fill="#FF0000" font-family="sans-serif" font-size="13" lengthAdjust="spacing" textLength="127.334" x="1212.063" y="635.5825">Service unavailable</text>
    <text fill="#000000" font-family="sans-serif" font-size="13" lengthAdjust="spacing" textLength="4.1323" x="1343.5293" y="635.5825"> </text>
    <text fill="#FF0000" font-family="sans-serif" font-size="13" font-weight="bold" lengthAdjust="spacing" textLength="110.2524" x="1016.3774" y="650.7153">Code d&apos;erreur :</text>
    <text fill="#FF0000" font-family="sans-serif" font-size="13" lengthAdjust="spacing" textLength="37.4639" x="1130.7622" y="650.7153">2001/</text>
    <text fill="#FF0000" font-family="sans-serif" font-size="13" font-weight="bold" lengthAdjust="spacing" textLength="39.7046" x="1168.2261" y="650.7153">Msg :</text>
    <text fill="#FF0000" font-family="sans-serif" font-size="13" lengthAdjust="spacing" textLength="133.4277" x="1212.063" y="650.7153">Internal Server Error</text>
    <polygon fill="#181818" points="1678.208,680.9141,1688.208,684.9141,1678.208,688.9141,1682.208,684.9141" style="stroke:#181818;stroke-width:1.0;"/>
    <line style="stroke:#181818;stroke-width:1.0;" x1="1371.623" x2="1684.208" y1="684.9141" y2="684.9141"/>
    <text fill="#000000" font-family="sans-serif" font-size="13" font-weight="bold" lengthAdjust="spacing" textLength="9.0454" x="1378.623" y="679.8481">9</text>
    <text fill="#000000" font-family="sans-serif" font-size="13" lengthAdjust="spacing" textLength="286.5396" x="1391.6685" y="679.8481">Persister le point de terminaison participant</text>
    <polygon fill="#FFFFE0" points="1628,727.9141,1760,727.9141,1770,738.9141,1760,750.9141,1628,750.9141,1618,738.9141,1628,727.9141" style="stroke:#181818;stroke-width:0.5;"/>
    <text fill="#000000" font-family="sans-serif" font-size="13" lengthAdjust="spacing" textLength="128.4448" x="1630" y="743.981">participantEndpoint</text>
    <path d="M1376,761.0469 L1376,876.0469 L1630,876.0469 L1630,771.0469 L1620,761.0469 L1376,761.0469 " fill="#D3D3D3" style="stroke:#181818;stroke-width:0.5;"/>
    <path d="M1620,761.0469 L1620,771.0469 L1630,771.0469 L1620,761.0469 " fill="#D3D3D3" style="stroke:#181818;stroke-width:0.5;"/>
    <text fill="#000000" font-family="sans-serif" font-size="13" lengthAdjust="spacing" textLength="233.8794" x="1382" y="778.1138">Si (endpoint existe &amp;&amp; isActive = 1)</text>
    <text fill="#000000" font-family="sans-serif" font-size="13" lengthAdjust="spacing" textLength="160.0625" x="1398.5293" y="793.2466">oldEndpoint.isActive = 0</text>
    <text fill="#000000" font-family="sans-serif" font-size="13" lengthAdjust="spacing" textLength="107.085" x="1398.5293" y="808.3794">insérer endpoint</text>
    <text fill="#000000" font-family="sans-serif" font-size="13" lengthAdjust="spacing" textLength="36.2959" x="1382" y="823.5122">Sinon</text>
    <text fill="#000000" font-family="sans-serif" font-size="13" lengthAdjust="spacing" textLength="107.085" x="1398.5293" y="838.645">insérer endpoint</text>
    <text fill="#000000" font-family="sans-serif" font-size="13" lengthAdjust="spacing" textLength="19.3286" x="1382" y="853.7778">Fin</text>
    <text fill="#000000" font-family="sans-serif" font-size="13" lengthAdjust="spacing" textLength="16.5293" x="1382" y="868.9106">    </text>
    <polygon fill="#181818" points="1007.332,899.1094,997.332,903.1094,1007.332,907.1094,1003.332,903.1094" style="stroke:#181818;stroke-width:1.0;"/>
    <line style="stroke:#181818;stroke-width:1.0;stroke-dasharray:2.0,2.0;" x1="1001.332" x2="1365.623" y1="903.1094" y2="903.1094"/>
    <text fill="#000000" font-family="sans-serif" font-size="13" font-weight="bold" lengthAdjust="spacing" textLength="18.0908" x="1013.332" y="898.0435">10</text>
    <text fill="#000000" font-family="sans-serif" font-size="13" lengthAdjust="spacing" textLength="120.0977" x="1035.4229" y="898.0435">Renvoyer le statut</text>
    <line style="stroke:#181818;stroke-width:1.0;" x1="996.332" x2="1038.332" y1="932.2422" y2="932.2422"/>
    <line style="stroke:#181818;stroke-width:1.0;" x1="1038.332" x2="1038.332" y1="932.2422" y2="945.2422"/>
    <line style="stroke:#181818;stroke-width:1.0;" x1="997.332" x2="1038.332" y1="945.2422" y2="945.2422"/>
    <polygon fill="#181818" points="1007.332,941.2422,997.332,945.2422,1007.332,949.2422,1003.332,945.2422" style="stroke:#181818;stroke-width:1.0;"/>
    <text fill="#000000" font-family="sans-serif" font-size="13" font-weight="bold" lengthAdjust="spacing" textLength="18.0908" x="1003.332" y="927.1763">11</text>
    <text fill="#000000" font-family="sans-serif" font-size="13" lengthAdjust="spacing" textLength="103.8223" x="1025.4229" y="927.1763">Valider le statut</text>
    <path d="M30,960.2422 L94.4429,960.2422 L94.4429,967.375 L84.4429,977.375 L30,977.375 L30,960.2422 " fill="#EEEEEE" style="stroke:#000000;stroke-width:1.5;"/>
    <rect fill="none" height="309.5313" style="stroke:#000000;stroke-width:1.5;" width="1232.8579" x="30" y="960.2422"/>
    <text fill="#000000" font-family="sans-serif" font-size="13" font-weight="bold" lengthAdjust="spacing" textLength="19.4429" x="45" y="973.3091">alt</text>
    <text fill="#000000" font-family="sans-serif" font-size="11" font-weight="bold" lengthAdjust="spacing" textLength="166.0688" x="109.4429" y="972.4526">[Valider le statut (succès)]</text>
    <polygon fill="#181818" points="686.9102,994.5078,676.9102,998.5078,686.9102,1002.5078,682.9102,998.5078" style="stroke:#181818;stroke-width:1.0;"/>
    <line style="stroke:#181818;stroke-width:1.0;stroke-dasharray:2.0,2.0;" x1="680.9102" x2="990.332" y1="998.5078" y2="998.5078"/>
    <text fill="#000000" font-family="sans-serif" font-size="13" font-weight="bold" lengthAdjust="spacing" textLength="18.0908" x="692.9102" y="993.4419">12</text>
    <text fill="#000000" font-family="sans-serif" font-size="13" lengthAdjust="spacing" textLength="184.5264" x="715.001" y="993.4419">Renvoyer le code statut 201</text>
    <polygon fill="#181818" points="112.2075,1023.6406,102.2075,1027.6406,112.2075,1031.6406,108.2075,1027.6406" style="stroke:#181818;stroke-width:1.0;"/>
    <line style="stroke:#181818;stroke-width:1.0;stroke-dasharray:2.0,2.0;" x1="106.2075" x2="664.9102" y1="1027.6406" y2="1027.6406"/>
    <text fill="#000000" font-family="sans-serif" font-size="13" font-weight="bold" lengthAdjust="spacing" textLength="18.0908" x="118.2075" y="1022.5747">13</text>
    <text fill="#000000" font-family="sans-serif" font-size="13" lengthAdjust="spacing" textLength="184.5264" x="140.2983" y="1022.5747">Renvoyer le code statut 201</text>
    <line style="stroke:#000000;stroke-width:1.0;stroke-dasharray:2.0,2.0;" x1="30" x2="1262.8579" y1="1036.6406" y2="1036.6406"/>
    <text fill="#000000" font-family="sans-serif" font-size="11" font-weight="bold" lengthAdjust="spacing" textLength="211.1377" x="35" y="1046.8511">[Valider le statut (échec) / erreur]</text>
    <path d="M1001,1055.4453 L1001,1080.4453 L1071,1080.4453 L1071,1065.4453 L1061,1055.4453 L1001,1055.4453 " fill="#FF0000" style="stroke:#181818;stroke-width:0.5;"/>
    <path d="M1061,1055.4453 L1061,1065.4453 L1071,1065.4453 L1061,1055.4453 " fill="#FF0000" style="stroke:#181818;stroke-width:0.5;"/>
    <text fill="#000000" font-family="sans-serif" font-size="13" lengthAdjust="spacing" textLength="49.8291" x="1007" y="1072.5122">Erreur !</text>
    <path d="M1001,1090.5781 L1001,1205.5781 L1252,1205.5781 L1252,1100.5781 L1242,1090.5781 L1001,1090.5781 " fill="#FFFF00" style="stroke:#181818;stroke-width:0.5;"/>
    <path d="M1242,1090.5781 L1242,1100.5781 L1252,1100.5781 L1242,1090.5781 " fill="#FFFF00" style="stroke:#181818;stroke-width:0.5;"/>
    <text fill="#000000" font-family="sans-serif" font-size="13" lengthAdjust="spacing" textLength="65.4888" x="1007" y="1107.645">Message :</text>
    <text fill="#000000" font-family="sans-serif" font-size="13" lengthAdjust="spacing" textLength="8.271" x="1023.5293" y="1122.7778">{</text>
    <text fill="#000000" font-family="sans-serif" font-size="13" lengthAdjust="spacing" textLength="136.208" x="1040.0586" y="1137.9106">&quot;errorInformation&quot;: {</text>
    <text fill="#000000" font-family="sans-serif" font-size="13" lengthAdjust="spacing" textLength="181.27" x="1056.5879" y="1153.0435">&quot;errorCode&quot;: &lt;Error Code&gt;,</text>
    <text fill="#000000" font-family="sans-serif" font-size="13" lengthAdjust="spacing" textLength="178.6548" x="1056.5879" y="1168.1763">&quot;errorDescription&quot;: &lt;Msg&gt;,</text>
    <text fill="#000000" font-family="sans-serif" font-size="13" lengthAdjust="spacing" textLength="8.271" x="1040.0586" y="1183.3091">}</text>
    <text fill="#000000" font-family="sans-serif" font-size="13" lengthAdjust="spacing" textLength="8.271" x="1023.5293" y="1198.4419">}</text>
    <polygon fill="#181818" points="686.9102,1228.6406,676.9102,1232.6406,686.9102,1236.6406,682.9102,1232.6406" style="stroke:#181818;stroke-width:1.0;"/>
    <line style="stroke:#181818;stroke-width:1.0;stroke-dasharray:2.0,2.0;" x1="680.9102" x2="985.332" y1="1232.6406" y2="1232.6406"/>
    <text fill="#000000" font-family="sans-serif" font-size="13" font-weight="bold" lengthAdjust="spacing" textLength="18.0908" x="692.9102" y="1227.5747">14</text>
    <text fill="#000000" font-family="sans-serif" font-size="13" lengthAdjust="spacing" textLength="61.9531" x="715.001" y="1227.5747">Renvoyer</text>
    <text fill="#FF0000" font-family="sans-serif" font-size="13" font-weight="bold" lengthAdjust="spacing" textLength="100.5278" x="781.0864" y="1227.5747">Code d&apos;erreur</text>
    <polygon fill="#181818" points="112.2075,1257.7734,102.2075,1261.7734,112.2075,1265.7734,108.2075,1261.7734" style="stroke:#181818;stroke-width:1.0;"/>
    <line style="stroke:#181818;stroke-width:1.0;stroke-dasharray:2.0,2.0;" x1="106.2075" x2="664.9102" y1="1261.7734" y2="1261.7734"/>
    <text fill="#000000" font-family="sans-serif" font-size="13" font-weight="bold" lengthAdjust="spacing" textLength="18.0908" x="118.2075" y="1256.7075">15</text>
    <text fill="#000000" font-family="sans-serif" font-size="13" lengthAdjust="spacing" textLength="61.9531" x="140.2983" y="1256.7075">Renvoyer</text>
    <text fill="#FF0000" font-family="sans-serif" font-size="13" font-weight="bold" lengthAdjust="spacing" textLength="100.5278" x="206.3838" y="1256.7075">Code d&apos;erreur</text>
    <line style="stroke:#000000;stroke-width:1.0;stroke-dasharray:2.0,2.0;" x1="20" x2="1780.4448" y1="1277.7734" y2="1277.7734"/>
    <text fill="#000000" font-family="sans-serif" font-size="11" font-weight="bold" lengthAdjust="spacing" textLength="191.2861" x="25" y="1287.9839">[Valider le participant (échec)]</text>
    <path d="M1001,1296.5781 L1001,1321.5781 L1158,1321.5781 L1158,1306.5781 L1148,1296.5781 L1001,1296.5781 " fill="#FF0000" style="stroke:#181818;stroke-width:0.5;"/>
    <path d="M1148,1296.5781 L1148,1306.5781 L1158,1306.5781 L1148,1296.5781 " fill="#FF0000" style="stroke:#181818;stroke-width:0.5;"/>
    <text fill="#000000" font-family="sans-serif" font-size="13" lengthAdjust="spacing" textLength="136.6079" x="1007" y="1313.645">Échec de validation !</text>
    <path d="M1001,1331.7109 L1001,1446.7109 L1386,1446.7109 L1386,1341.7109 L1376,1331.7109 L1001,1331.7109 " fill="#FFFF00" style="stroke:#181818;stroke-width:0.5;"/>
    <path d="M1376,1331.7109 L1376,1341.7109 L1386,1341.7109 L1376,1331.7109 " fill="#FFFF00" style="stroke:#181818;stroke-width:0.5;"/>
    <text fill="#000000" font-family="sans-serif" font-size="13" lengthAdjust="spacing" textLength="65.4888" x="1007" y="1348.7778">Message :</text>
    <text fill="#000000" font-family="sans-serif" font-size="13" lengthAdjust="spacing" textLength="8.271" x="1023.5293" y="1363.9106">{</text>
    <text fill="#000000" font-family="sans-serif" font-size="13" lengthAdjust="spacing" textLength="136.208" x="1040.0586" y="1379.0435">&quot;errorInformation&quot;: {</text>
    <text fill="#000000" font-family="sans-serif" font-size="13" lengthAdjust="spacing" textLength="122.9541" x="1056.5879" y="1394.1763">&quot;errorCode&quot;: 3200,</text>
    <text fill="#000000" font-family="sans-serif" font-size="13" lengthAdjust="spacing" textLength="314.9517" x="1056.5879" y="1409.3091">&quot;errorDescription&quot;: &quot;Identifiant FSP introuvable&quot;,</text>
    <text fill="#000000" font-family="sans-serif" font-size="13" lengthAdjust="spacing" textLength="8.271" x="1040.0586" y="1424.4419">}</text>
    <text fill="#000000" font-family="sans-serif" font-size="13" lengthAdjust="spacing" textLength="8.271" x="1023.5293" y="1439.5747">}</text>
    <polygon fill="#181818" points="686.9102,1469.7734,676.9102,1473.7734,686.9102,1477.7734,682.9102,1473.7734" style="stroke:#181818;stroke-width:1.0;"/>
    <line style="stroke:#181818;stroke-width:1.0;stroke-dasharray:2.0,2.0;" x1="680.9102" x2="990.332" y1="1473.7734" y2="1473.7734"/>
    <text fill="#000000" font-family="sans-serif" font-size="13" font-weight="bold" lengthAdjust="spacing" textLength="18.0908" x="692.9102" y="1468.7075">16</text>
    <text fill="#000000" font-family="sans-serif" font-size="13" lengthAdjust="spacing" textLength="61.9531" x="715.001" y="1468.7075">Renvoyer</text>
    <text fill="#FF0000" font-family="sans-serif" font-size="13" font-weight="bold" lengthAdjust="spacing" textLength="110.2524" x="781.0864" y="1468.7075">Code d&apos;erreur :</text>
    <text fill="#FF0000" font-family="sans-serif" font-size="13" lengthAdjust="spacing" textLength="33.084" x="895.4712" y="1468.7075">3200</text>
    <polygon fill="#181818" points="112.2075,1498.9063,102.2075,1502.9063,112.2075,1506.9063,108.2075,1502.9063" style="stroke:#181818;stroke-width:1.0;"/>
    <line style="stroke:#181818;stroke-width:1.0;stroke-dasharray:2.0,2.0;" x1="106.2075" x2="664.9102" y1="1502.9063" y2="1502.9063"/>
    <text fill="#000000" font-family="sans-serif" font-size="13" font-weight="bold" lengthAdjust="spacing" textLength="18.0908" x="118.2075" y="1497.8403">17</text>
    <text fill="#000000" font-family="sans-serif" font-size="13" lengthAdjust="spacing" textLength="61.9531" x="140.2983" y="1497.8403">Renvoyer</text>
    <text fill="#FF0000" font-family="sans-serif" font-size="13" font-weight="bold" lengthAdjust="spacing" textLength="110.2524" x="206.3838" y="1497.8403">Code d&apos;erreur :</text>
    <text fill="#FF0000" font-family="sans-serif" font-size="13" lengthAdjust="spacing" textLength="33.084" x="320.7686" y="1497.8403">3200</text>
  </g>
</svg>
