<svg xmlns="http://www.w3.org/2000/svg" xmlns:xlink="http://www.w3.org/1999/xlink" contentStyleType="text/css" height="1267px" preserveAspectRatio="none" style="width:1546px;height:1267px;background:#FFFFFF;" version="1.1" viewBox="0 0 1546 1267" width="1546px" zoomAndPan="magnify">
  <title>1.0.0 Vérification d&apos;état (Health Check)</title>
  <defs/>
  <g>
    <text fill="#000000" font-family="sans-serif" font-size="14" font-weight="bold" lengthAdjust="spacing" textLength="309.9961" x="619.7136" y="27.9951">1.0.0 Vérification d&apos;état (Health Check)</text>
    <rect fill="#FFFFE0" height="1211.2344" style="stroke:#181818;stroke-width:0.5;" width="1163.6118" x="370.8115" y="43.2969"/>
    <text fill="#000000" font-family="sans-serif" font-size="13" font-weight="bold" lengthAdjust="spacing" textLength="131.1235" x="887.0557" y="55.3638">Services centraux</text>
    <rect fill="#FFFFFF" height="686.1172" style="stroke:#181818;stroke-width:1.0;" width="10" x="81.2075" y="134.7266"/>
    <rect fill="#FFFFFF" height="640.8516" style="stroke:#181818;stroke-width:1.0;" width="10" x="448.9639" y="179.9922"/>
    <rect fill="#FFFFFF" height="335.5938" style="stroke:#181818;stroke-width:1.0;" width="10" x="823.4233" y="209.125"/>
    <rect fill="#FFFFFF" height="29.1328" style="stroke:#181818;stroke-width:1.0;" width="10" x="1124.9717" y="345.7891"/>
    <rect fill="#FFFFFF" height="29.1328" style="stroke:#181818;stroke-width:1.0;" width="10" x="1260.3833" y="404.0547"/>
    <rect fill="#FFFFFF" height="29.1328" style="stroke:#181818;stroke-width:1.0;" width="10" x="1429.5659" y="462.3203"/>
    <rect fill="none" height="1030.5078" style="stroke:#000000;stroke-width:1.5;" width="1530.4233" x="10" y="141.7266"/>
    <rect fill="none" height="322.3906" style="stroke:#000000;stroke-width:1.5;" width="927.2847" x="20" y="506.4531"/>
    <rect fill="none" height="322.3906" style="stroke:#000000;stroke-width:1.5;" width="927.2847" x="20" y="842.8438"/>
    <line style="stroke:#181818;stroke-width:0.5;stroke-dasharray:5.0,5.0;" x1="86" x2="86" y1="124.7266" y2="1189.2344"/>
    <line style="stroke:#181818;stroke-width:0.5;stroke-dasharray:5.0,5.0;" x1="453.8115" x2="453.8115" y1="124.7266" y2="1189.2344"/>
    <line style="stroke:#181818;stroke-width:0.5;stroke-dasharray:5.0,5.0;" x1="827.562" x2="827.562" y1="124.7266" y2="1189.2344"/>
    <line style="stroke:#181818;stroke-width:0.5;stroke-dasharray:5.0,5.0;" x1="1129.8853" x2="1129.8853" y1="124.7266" y2="1189.2344"/>
    <line style="stroke:#181818;stroke-width:0.5;stroke-dasharray:5.0,5.0;" x1="1265.0581" x2="1265.0581" y1="124.7266" y2="1189.2344"/>
    <line style="stroke:#181818;stroke-width:0.5;stroke-dasharray:5.0,5.0;" x1="1433.7085" x2="1433.7085" y1="124.7266" y2="1189.2344"/>
    <text fill="#000000" font-family="sans-serif" font-size="14" lengthAdjust="spacing" textLength="106.415" x="30" y="121.4248">Opérateur HUB</text>
    <ellipse cx="86.2075" cy="92.4297" fill="#E2E2F0" rx="12" ry="12" style="stroke:#181818;stroke-width:0.5;"/>
    <line style="stroke:#181818;stroke-width:0.5;" x1="74.2075" x2="98.2075" y1="106.4297" y2="106.4297"/>
    <text fill="#000000" font-family="sans-serif" font-size="14" lengthAdjust="spacing" textLength="106.415" x="30" y="1201.2295">Opérateur HUB</text>
    <ellipse cx="86.2075" cy="1220.5313" fill="#E2E2F0" rx="12" ry="12" style="stroke:#181818;stroke-width:0.5;"/>
    <line style="stroke:#181818;stroke-width:0.5;" x1="74.2075" x2="98.2075" y1="1234.5313" y2="1234.5313"/>
    <text fill="#000000" font-family="sans-serif" font-size="14" lengthAdjust="spacing" textLength="152.3047" x="374.8115" y="121.4248">API du service central</text>
    <path d="M433.4639,80.4297 L433.4639,104.4297 M433.4639,92.4297 L450.4639,92.4297 " fill="none" style="stroke:#181818;stroke-width:0.5;"/>
    <ellipse cx="462.4639" cy="92.4297" fill="#E2E2F0" rx="12" ry="12" style="stroke:#181818;stroke-width:0.5;"/>
    <text fill="#000000" font-family="sans-serif" font-size="14" lengthAdjust="spacing" textLength="152.3047" x="374.8115" y="1201.2295">API du service central</text>
    <path d="M433.4639,1208.5313 L433.4639,1232.5313 M433.4639,1220.5313 L450.4639,1220.5313 " fill="none" style="stroke:#181818;stroke-width:0.5;"/>
    <ellipse cx="462.4639" cy="1220.5313" fill="#E2E2F0" rx="12" ry="12" style="stroke:#181818;stroke-width:0.5;"/>
    <text fill="#000000" font-family="sans-serif" font-size="14" lengthAdjust="spacing" textLength="211.7227" x="719.562" y="121.4248">Gestionnaire de métadonnées</text>
    <ellipse cx="828.4233" cy="92.4297" fill="#E2E2F0" rx="12" ry="12" style="stroke:#181818;stroke-width:0.5;"/>
    <polygon fill="#181818" points="824.4233,80.4297,830.4233,75.4297,828.4233,80.4297,830.4233,85.4297,824.4233,80.4297" style="stroke:#181818;stroke-width:1.0;"/>
    <text fill="#000000" font-family="sans-serif" font-size="14" lengthAdjust="spacing" textLength="211.7227" x="719.562" y="1201.2295">Gestionnaire de métadonnées</text>
    <ellipse cx="828.4233" cy="1220.5313" fill="#E2E2F0" rx="12" ry="12" style="stroke:#181818;stroke-width:0.5;"/>
    <polygon fill="#181818" points="824.4233,1208.5313,830.4233,1203.5313,828.4233,1208.5313,830.4233,1213.5313,824.4233,1208.5313" style="stroke:#181818;stroke-width:1.0;"/>
    <text fill="#000000" font-family="sans-serif" font-size="14" lengthAdjust="spacing" textLength="118.1729" x="1067.8853" y="121.4248">Stockage central</text>
    <path d="M1111.9717,72.4297 C1111.9717,62.4297 1129.9717,62.4297 1129.9717,62.4297 C1129.9717,62.4297 1147.9717,62.4297 1147.9717,72.4297 L1147.9717,98.4297 C1147.9717,108.4297 1129.9717,108.4297 1129.9717,108.4297 C1129.9717,108.4297 1111.9717,108.4297 1111.9717,98.4297 L1111.9717,72.4297 " fill="#E2E2F0" style="stroke:#181818;stroke-width:1.5;"/>
    <path d="M1111.9717,72.4297 C1111.9717,82.4297 1129.9717,82.4297 1129.9717,82.4297 C1129.9717,82.4297 1147.9717,82.4297 1147.9717,72.4297 " fill="none" style="stroke:#181818;stroke-width:1.5;"/>
    <text fill="#000000" font-family="sans-serif" font-size="14" lengthAdjust="spacing" textLength="118.1729" x="1067.8853" y="1201.2295">Stockage central</text>
    <path d="M1111.9717,1214.5313 C1111.9717,1204.5313 1129.9717,1204.5313 1129.9717,1204.5313 C1129.9717,1204.5313 1147.9717,1204.5313 1147.9717,1214.5313 L1147.9717,1240.5313 C1147.9717,1250.5313 1129.9717,1250.5313 1129.9717,1250.5313 C1129.9717,1250.5313 1111.9717,1250.5313 1111.9717,1240.5313 L1111.9717,1214.5313 " fill="#E2E2F0" style="stroke:#181818;stroke-width:1.5;"/>
    <path d="M1111.9717,1214.5313 C1111.9717,1224.5313 1129.9717,1224.5313 1129.9717,1224.5313 C1129.9717,1224.5313 1147.9717,1224.5313 1147.9717,1214.5313 " fill="none" style="stroke:#181818;stroke-width:1.5;"/>
    <rect fill="#E2E2F0" height="30.2969" style="stroke:#181818;stroke-width:0.5;" width="122.6504" x="1206.0581" y="89.4297"/>
    <rect fill="#E2E2F0" height="30.2969" style="stroke:#181818;stroke-width:0.5;" width="122.6504" x="1202.0581" y="93.4297"/>
    <text fill="#000000" font-family="sans-serif" font-size="14" lengthAdjust="spacing" textLength="108.6504" x="1209.0581" y="113.4248">Stockage Kafka</text>
    <rect fill="#E2E2F0" height="30.2969" style="stroke:#181818;stroke-width:0.5;" width="122.6504" x="1206.0581" y="1188.2344"/>
    <rect fill="#E2E2F0" height="30.2969" style="stroke:#181818;stroke-width:0.5;" width="122.6504" x="1202.0581" y="1192.2344"/>
    <text fill="#000000" font-family="sans-serif" font-size="14" lengthAdjust="spacing" textLength="108.6504" x="1209.0581" y="1212.2295">Stockage Kafka</text>
    <rect fill="#E2E2F0" height="30.2969" style="stroke:#181818;stroke-width:0.5;" width="187.7148" x="1342.7085" y="89.4297"/>
    <rect fill="#E2E2F0" height="30.2969" style="stroke:#181818;stroke-width:0.5;" width="187.7148" x="1338.7085" y="93.4297"/>
    <text fill="#000000" font-family="sans-serif" font-size="14" lengthAdjust="spacing" textLength="173.7148" x="1345.7085" y="113.4248">Sidecar de journalisation</text>
    <rect fill="#E2E2F0" height="30.2969" style="stroke:#181818;stroke-width:0.5;" width="187.7148" x="1342.7085" y="1188.2344"/>
    <rect fill="#E2E2F0" height="30.2969" style="stroke:#181818;stroke-width:0.5;" width="187.7148" x="1338.7085" y="1192.2344"/>
    <text fill="#000000" font-family="sans-serif" font-size="14" lengthAdjust="spacing" textLength="173.7148" x="1345.7085" y="1212.2295">Sidecar de journalisation</text>
    <rect fill="#FFFFFF" height="686.1172" style="stroke:#181818;stroke-width:1.0;" width="10" x="81.2075" y="134.7266"/>
    <rect fill="#FFFFFF" height="640.8516" style="stroke:#181818;stroke-width:1.0;" width="10" x="448.9639" y="179.9922"/>
    <rect fill="#FFFFFF" height="335.5938" style="stroke:#181818;stroke-width:1.0;" width="10" x="823.4233" y="209.125"/>
    <rect fill="#FFFFFF" height="29.1328" style="stroke:#181818;stroke-width:1.0;" width="10" x="1124.9717" y="345.7891"/>
    <rect fill="#FFFFFF" height="29.1328" style="stroke:#181818;stroke-width:1.0;" width="10" x="1260.3833" y="404.0547"/>
    <rect fill="#FFFFFF" height="29.1328" style="stroke:#181818;stroke-width:1.0;" width="10" x="1429.5659" y="462.3203"/>
    <path d="M10,141.7266 L256.6587,141.7266 L256.6587,148.8594 L246.6587,158.8594 L10,158.8594 L10,141.7266 " fill="#EEEEEE" style="stroke:#000000;stroke-width:1.5;"/>
    <rect fill="none" height="1030.5078" style="stroke:#000000;stroke-width:1.5;" width="1530.4233" x="10" y="141.7266"/>
    <text fill="#000000" font-family="sans-serif" font-size="13" font-weight="bold" lengthAdjust="spacing" textLength="201.6587" x="25" y="154.7935">Vérification d&apos;état détaillée</text>
    <polygon fill="#181818" points="436.9639,175.9922,446.9639,179.9922,436.9639,183.9922,440.9639,179.9922" style="stroke:#181818;stroke-width:1.0;"/>
    <line style="stroke:#181818;stroke-width:1.0;" x1="91.2075" x2="442.9639" y1="179.9922" y2="179.9922"/>
    <text fill="#000000" font-family="sans-serif" font-size="13" font-weight="bold" lengthAdjust="spacing" textLength="9.0454" x="98.2075" y="174.9263">1</text>
    <text fill="#000000" font-family="sans-serif" font-size="13" lengthAdjust="spacing" textLength="325.7109" x="111.2529" y="174.9263">Demande getHealth — GET /health?detailed=true</text>
    <polygon fill="#181818" points="811.4233,205.125,821.4233,209.125,811.4233,213.125,815.4233,209.125" style="stroke:#181818;stroke-width:1.0;"/>
    <line style="stroke:#181818;stroke-width:1.0;" x1="458.9639" x2="817.4233" y1="209.125" y2="209.125"/>
    <text fill="#000000" font-family="sans-serif" font-size="13" font-weight="bold" lengthAdjust="spacing" textLength="9.0454" x="465.9639" y="204.0591">2</text>
    <text fill="#000000" font-family="sans-serif" font-size="13" lengthAdjust="spacing" textLength="332.4141" x="479.0093" y="204.0591">Récupérer l&apos;état de santé de tous les sous-services</text>
    <line style="stroke:#181818;stroke-width:1.0;" x1="833.4233" x2="875.4233" y1="238.2578" y2="238.2578"/>
    <line style="stroke:#181818;stroke-width:1.0;" x1="875.4233" x2="875.4233" y1="238.2578" y2="251.2578"/>
    <line style="stroke:#181818;stroke-width:1.0;" x1="834.4233" x2="875.4233" y1="251.2578" y2="251.2578"/>
    <polygon fill="#181818" points="844.4233,247.2578,834.4233,251.2578,844.4233,255.2578,840.4233,251.2578" style="stroke:#181818;stroke-width:1.0;"/>
    <text fill="#000000" font-family="sans-serif" font-size="13" font-weight="bold" lengthAdjust="spacing" textLength="9.0454" x="840.4233" y="233.1919">3</text>
    <text fill="#000000" font-family="sans-serif" font-size="13" lengthAdjust="spacing" textLength="254.5029" x="853.4688" y="233.1919">Récupérer les métadonnées du service</text>
    <path d="M838,264.2578 L838,319.2578 L1073,319.2578 L1073,274.2578 L1063,264.2578 L838,264.2578 " fill="#FFFF00" style="stroke:#181818;stroke-width:0.5;"/>
    <path d="M1063,264.2578 L1063,274.2578 L1073,274.2578 L1063,264.2578 " fill="#FFFF00" style="stroke:#181818;stroke-width:0.5;"/>
    <text fill="#000000" font-family="sans-serif" font-size="13" lengthAdjust="spacing" textLength="108.6592" x="844" y="281.3247">- versionNumber</text>
    <text fill="#000000" font-family="sans-serif" font-size="13" lengthAdjust="spacing" textLength="54.6851" x="844" y="296.4575">- uptime</text>
    <text fill="#000000" font-family="sans-serif" font-size="13" lengthAdjust="spacing" textLength="214.2651" x="844" y="311.5903">- heure de démarrage du service</text>
    <polygon fill="#181818" points="1112.9717,341.7891,1122.9717,345.7891,1112.9717,349.7891,1116.9717,345.7891" style="stroke:#181818;stroke-width:1.0;"/>
    <line style="stroke:#181818;stroke-width:1.0;" x1="833.4233" x2="1118.9717" y1="345.7891" y2="345.7891"/>
    <text fill="#000000" font-family="sans-serif" font-size="13" font-weight="bold" lengthAdjust="spacing" textLength="9.0454" x="840.4233" y="340.7231">4</text>
    <text fill="#000000" font-family="sans-serif" font-size="13" lengthAdjust="spacing" textLength="192.1563" x="853.4688" y="340.7231">Vérifier l&apos;état de la connexion</text>
    <polygon fill="#181818" points="844.4233,370.9219,834.4233,374.9219,844.4233,378.9219,840.4233,374.9219" style="stroke:#181818;stroke-width:1.0;"/>
    <line style="stroke:#181818;stroke-width:1.0;stroke-dasharray:2.0,2.0;" x1="838.4233" x2="1128.9717" y1="374.9219" y2="374.9219"/>
    <text fill="#000000" font-family="sans-serif" font-size="13" font-weight="bold" lengthAdjust="spacing" textLength="9.0454" x="850.4233" y="369.856">5</text>
    <text fill="#000000" font-family="sans-serif" font-size="13" lengthAdjust="spacing" textLength="210.0186" x="863.4688" y="369.856">Rapporter l&apos;état de la connexion</text>
    <polygon fill="#181818" points="1248.3833,400.0547,1258.3833,404.0547,1248.3833,408.0547,1252.3833,404.0547" style="stroke:#181818;stroke-width:1.0;"/>
    <line style="stroke:#181818;stroke-width:1.0;" x1="833.4233" x2="1254.3833" y1="404.0547" y2="404.0547"/>
    <text fill="#000000" font-family="sans-serif" font-size="13" font-weight="bold" lengthAdjust="spacing" textLength="9.0454" x="840.4233" y="398.9888">6</text>
    <text fill="#000000" font-family="sans-serif" font-size="13" lengthAdjust="spacing" textLength="192.1563" x="853.4688" y="398.9888">Vérifier l&apos;état de la connexion</text>
    <polygon fill="#181818" points="844.4233,429.1875,834.4233,433.1875,844.4233,437.1875,840.4233,433.1875" style="stroke:#181818;stroke-width:1.0;"/>
    <line style="stroke:#181818;stroke-width:1.0;stroke-dasharray:2.0,2.0;" x1="838.4233" x2="1264.3833" y1="433.1875" y2="433.1875"/>
    <text fill="#000000" font-family="sans-serif" font-size="13" font-weight="bold" lengthAdjust="spacing" textLength="9.0454" x="850.4233" y="428.1216">7</text>
    <text fill="#000000" font-family="sans-serif" font-size="13" lengthAdjust="spacing" textLength="210.0186" x="863.4688" y="428.1216">Rapporter l&apos;état de la connexion</text>
    <polygon fill="#181818" points="1417.5659,458.3203,1427.5659,462.3203,1417.5659,466.3203,1421.5659,462.3203" style="stroke:#181818;stroke-width:1.0;"/>
    <line style="stroke:#181818;stroke-width:1.0;" x1="833.4233" x2="1423.5659" y1="462.3203" y2="462.3203"/>
    <text fill="#000000" font-family="sans-serif" font-size="13" font-weight="bold" lengthAdjust="spacing" textLength="9.0454" x="840.4233" y="457.2544">8</text>
    <text fill="#000000" font-family="sans-serif" font-size="13" lengthAdjust="spacing" textLength="192.1563" x="853.4688" y="457.2544">Vérifier l&apos;état de la connexion</text>
    <polygon fill="#181818" points="844.4233,487.4531,834.4233,491.4531,844.4233,495.4531,840.4233,491.4531" style="stroke:#181818;stroke-width:1.0;"/>
    <line style="stroke:#181818;stroke-width:1.0;stroke-dasharray:2.0,2.0;" x1="838.4233" x2="1433.5659" y1="491.4531" y2="491.4531"/>
    <text fill="#000000" font-family="sans-serif" font-size="13" font-weight="bold" lengthAdjust="spacing" textLength="9.0454" x="850.4233" y="486.3872">9</text>
    <text fill="#000000" font-family="sans-serif" font-size="13" lengthAdjust="spacing" textLength="210.0186" x="863.4688" y="486.3872">Rapporter l&apos;état de la connexion</text>
    <path d="M20,506.4531 L84.4429,506.4531 L84.4429,513.5859 L74.4429,523.5859 L20,523.5859 L20,506.4531 " fill="#EEEEEE" style="stroke:#000000;stroke-width:1.5;"/>
    <rect fill="none" height="322.3906" style="stroke:#000000;stroke-width:1.5;" width="927.2847" x="20" y="506.4531"/>
    <text fill="#000000" font-family="sans-serif" font-size="13" font-weight="bold" lengthAdjust="spacing" textLength="19.4429" x="35" y="519.52">alt</text>
    <text fill="#000000" font-family="sans-serif" font-size="11" font-weight="bold" lengthAdjust="spacing" textLength="145.9702" x="99.4429" y="518.6636">[Valider l&apos;état (succès)]</text>
    <polygon fill="#181818" points="469.9639,540.7188,459.9639,544.7188,469.9639,548.7188,465.9639,544.7188" style="stroke:#181818;stroke-width:1.0;"/>
    <line style="stroke:#181818;stroke-width:1.0;stroke-dasharray:2.0,2.0;" x1="463.9639" x2="827.4233" y1="544.7188" y2="544.7188"/>
    <text fill="#000000" font-family="sans-serif" font-size="13" font-weight="bold" lengthAdjust="spacing" textLength="18.0908" x="475.9639" y="539.6528">10</text>
    <text fill="#000000" font-family="sans-serif" font-size="13" lengthAdjust="spacing" textLength="176.4712" x="498.0547" y="539.6528">Renvoyer la réponse d&apos;état</text>
    <path d="M96,557.7188 L96,793.7188 L388,793.7188 L388,567.7188 L378,557.7188 L96,557.7188 " fill="#FFFF00" style="stroke:#181818;stroke-width:0.5;"/>
    <path d="M378,557.7188 L378,567.7188 L388,567.7188 L378,557.7188 " fill="#FFFF00" style="stroke:#181818;stroke-width:0.5;"/>
    <text fill="#000000" font-family="sans-serif" font-size="13" font-weight="bold" lengthAdjust="spacing" textLength="163.8394" x="102" y="574.7856">Exemple de message :</text>
    <text fill="#000000" font-family="monospace" font-size="13" lengthAdjust="spacing" textLength="78.2666" x="102" y="589.9185">200 Succès</text>
    <text fill="#000000" font-family="sans-serif" font-size="13" lengthAdjust="spacing" textLength="8.271" x="102" y="605.0513">{</text>
    <text fill="#000000" font-family="sans-serif" font-size="13" lengthAdjust="spacing" textLength="93.8628" x="110.2646" y="620.1841">&quot;status&quot;: &quot;UP&quot;,</text>
    <text fill="#000000" font-family="sans-serif" font-size="13" lengthAdjust="spacing" textLength="103.5493" x="110.2646" y="635.3169">&quot;uptime&quot;: 1234,</text>
    <text fill="#000000" font-family="sans-serif" font-size="13" lengthAdjust="spacing" textLength="262.8184" x="110.2646" y="650.4497">&quot;started&quot;: &quot;2019-05-31T05:09:25.409Z&quot;,</text>
    <text fill="#000000" font-family="sans-serif" font-size="13" lengthAdjust="spacing" textLength="169.4761" x="110.2646" y="665.5825">&quot;versionNumber&quot;: &quot;5.2.3&quot;,</text>
    <text fill="#000000" font-family="sans-serif" font-size="13" lengthAdjust="spacing" textLength="78.8823" x="110.2646" y="680.7153">&quot;services&quot;: [</text>
    <text fill="#000000" font-family="sans-serif" font-size="13" lengthAdjust="spacing" textLength="8.271" x="118.5293" y="695.8481">{</text>
    <text fill="#000000" font-family="sans-serif" font-size="13" lengthAdjust="spacing" textLength="108.9956" x="126.7939" y="710.981">&quot;name&quot;: &quot;kafka&quot;,</text>
    <text fill="#000000" font-family="sans-serif" font-size="13" lengthAdjust="spacing" textLength="93.8628" x="126.7939" y="726.1138">&quot;status&quot;: &quot;UP&quot;,</text>
    <text fill="#000000" font-family="sans-serif" font-size="13" lengthAdjust="spacing" textLength="84.7666" x="126.7939" y="741.2466">&quot;latency&quot;: 10</text>
    <text fill="#000000" font-family="sans-serif" font-size="13" lengthAdjust="spacing" textLength="8.271" x="118.5293" y="756.3794">}</text>
    <text fill="#000000" font-family="sans-serif" font-size="13" lengthAdjust="spacing" textLength="5.0718" x="110.2646" y="771.5122">]</text>
    <text fill="#000000" font-family="sans-serif" font-size="13" lengthAdjust="spacing" textLength="8.271" x="102" y="786.645">}</text>
    <polygon fill="#181818" points="97.2075,816.8438,87.2075,820.8438,97.2075,824.8438,93.2075,820.8438" style="stroke:#181818;stroke-width:1.0;"/>
    <line style="stroke:#181818;stroke-width:1.0;stroke-dasharray:2.0,2.0;" x1="91.2075" x2="452.9639" y1="820.8438" y2="820.8438"/>
    <text fill="#000000" font-family="sans-serif" font-size="13" font-weight="bold" lengthAdjust="spacing" textLength="18.0908" x="103.2075" y="815.7778">11</text>
    <text fill="#000000" font-family="sans-serif" font-size="13" lengthAdjust="spacing" textLength="61.9531" x="125.2983" y="815.7778">Renvoyer</text>
    <text fill="#000000" font-family="sans-serif" font-size="13" font-weight="bold" lengthAdjust="spacing" textLength="98.4268" x="191.3838" y="815.7778">Statut HTTP :</text>
    <text fill="#000000" font-family="sans-serif" font-size="13" lengthAdjust="spacing" textLength="24.813" x="293.9429" y="815.7778">200</text>
    <path d="M20,842.8438 L84.4429,842.8438 L84.4429,849.9766 L74.4429,859.9766 L20,859.9766 L20,842.8438 " fill="#EEEEEE" style="stroke:#000000;stroke-width:1.5;"/>
    <rect fill="none" height="322.3906" style="stroke:#000000;stroke-width:1.5;" width="927.2847" x="20" y="842.8438"/>
    <text fill="#000000" font-family="sans-serif" font-size="13" font-weight="bold" lengthAdjust="spacing" textLength="19.4429" x="35" y="855.9106">alt</text>
    <text fill="#000000" font-family="sans-serif" font-size="11" font-weight="bold" lengthAdjust="spacing" textLength="207.6841" x="99.4429" y="855.0542">[Valider l&apos;état (échec de service)]</text>
    <polygon fill="#181818" points="464.9639,877.1094,454.9639,881.1094,464.9639,885.1094,460.9639,881.1094" style="stroke:#181818;stroke-width:1.0;"/>
    <line style="stroke:#181818;stroke-width:1.0;stroke-dasharray:2.0,2.0;" x1="458.9639" x2="827.4233" y1="881.1094" y2="881.1094"/>
    <text fill="#000000" font-family="sans-serif" font-size="13" font-weight="bold" lengthAdjust="spacing" textLength="18.0908" x="470.9639" y="876.0435">12</text>
    <text fill="#000000" font-family="sans-serif" font-size="13" lengthAdjust="spacing" textLength="176.4712" x="493.0547" y="876.0435">Renvoyer la réponse d&apos;état</text>
    <path d="M91,894.1094 L91,1130.1094 L383,1130.1094 L383,904.1094 L373,894.1094 L91,894.1094 " fill="#FFFF00" style="stroke:#181818;stroke-width:0.5;"/>
    <path d="M373,894.1094 L373,904.1094 L383,904.1094 L373,894.1094 " fill="#FFFF00" style="stroke:#181818;stroke-width:0.5;"/>
    <text fill="#000000" font-family="sans-serif" font-size="13" font-weight="bold" lengthAdjust="spacing" textLength="163.8394" x="97" y="911.1763">Exemple de message :</text>
    <text fill="#000000" font-family="monospace" font-size="13" lengthAdjust="spacing" textLength="180.0132" x="97" y="926.3091">502 Passerelle invalide</text>
    <text fill="#000000" font-family="sans-serif" font-size="13" lengthAdjust="spacing" textLength="8.271" x="97" y="941.4419">{</text>
    <text fill="#000000" font-family="sans-serif" font-size="13" lengthAdjust="spacing" textLength="119.3296" x="105.2646" y="956.5747">&quot;status&quot;: &quot;DOWN&quot;,</text>
    <text fill="#000000" font-family="sans-serif" font-size="13" lengthAdjust="spacing" textLength="103.5493" x="105.2646" y="971.7075">&quot;uptime&quot;: 1234,</text>
    <text fill="#000000" font-family="sans-serif" font-size="13" lengthAdjust="spacing" textLength="262.8184" x="105.2646" y="986.8403">&quot;started&quot;: &quot;2019-05-31T05:09:25.409Z&quot;,</text>
    <text fill="#000000" font-family="sans-serif" font-size="13" lengthAdjust="spacing" textLength="169.4761" x="105.2646" y="1001.9731">&quot;versionNumber&quot;: &quot;5.2.3&quot;,</text>
    <text fill="#000000" font-family="sans-serif" font-size="13" lengthAdjust="spacing" textLength="78.8823" x="105.2646" y="1017.106">&quot;services&quot;: [</text>
    <text fill="#000000" font-family="sans-serif" font-size="13" lengthAdjust="spacing" textLength="8.271" x="113.5293" y="1032.2388">{</text>
    <text fill="#000000" font-family="sans-serif" font-size="13" lengthAdjust="spacing" textLength="108.9956" x="121.7939" y="1047.3716">&quot;name&quot;: &quot;kafka&quot;,</text>
    <text fill="#000000" font-family="sans-serif" font-size="13" lengthAdjust="spacing" textLength="119.3296" x="121.7939" y="1062.5044">&quot;status&quot;: &quot;DOWN&quot;,</text>
    <text fill="#000000" font-family="sans-serif" font-size="13" lengthAdjust="spacing" textLength="126.1216" x="121.7939" y="1077.6372">&quot;latency&quot;: 1111111</text>
    <text fill="#000000" font-family="sans-serif" font-size="13" lengthAdjust="spacing" textLength="8.271" x="113.5293" y="1092.77">}</text>
    <text fill="#000000" font-family="sans-serif" font-size="13" lengthAdjust="spacing" textLength="5.0718" x="105.2646" y="1107.9028">]</text>
    <text fill="#000000" font-family="sans-serif" font-size="13" lengthAdjust="spacing" textLength="8.271" x="97" y="1123.0356">}</text>
    <polygon fill="#181818" points="97.2075,1153.2344,87.2075,1157.2344,97.2075,1161.2344,93.2075,1157.2344" style="stroke:#181818;stroke-width:1.0;"/>
    <line style="stroke:#181818;stroke-width:1.0;stroke-dasharray:2.0,2.0;" x1="91.2075" x2="452.9639" y1="1157.2344" y2="1157.2344"/>
    <text fill="#000000" font-family="sans-serif" font-size="13" font-weight="bold" lengthAdjust="spacing" textLength="18.0908" x="103.2075" y="1152.1685">13</text>
    <text fill="#000000" font-family="sans-serif" font-size="13" lengthAdjust="spacing" textLength="61.9531" x="125.2983" y="1152.1685">Renvoyer</text>
    <text fill="#FF0000" font-family="sans-serif" font-size="13" font-weight="bold" lengthAdjust="spacing" textLength="98.4268" x="191.3838" y="1152.1685">Statut HTTP :</text>
    <text fill="#FF0000" font-family="sans-serif" font-size="13" lengthAdjust="spacing" textLength="24.813" x="293.9429" y="1152.1685">502</text>
  </g>
</svg>
