<svg xmlns="http://www.w3.org/2000/svg" xmlns:xlink="http://www.w3.org/1999/xlink" contentStyleType="text/css" height="2302px" preserveAspectRatio="none" style="width:2499px;height:2302px;background:#FFFFFF;" version="1.1" viewBox="0 0 2499 2302" width="2499px" zoomAndPan="magnify">
  <title>1.1.1.b. Consommation par le gestionnaire de préparation (messages groupés)</title>
  <defs/>
  <g>
    <text fill="#000000" font-family="sans-serif" font-size="14" font-weight="bold" lengthAdjust="spacing" textLength="625.2627" x="938.6299" y="27.9951">1.1.1.b. Consommation par le gestionnaire de préparation (messages groupés)</text>
    <rect fill="#FFFFE0" height="2245.9609" style="stroke:#181818;stroke-width:0.5;" width="2409.6069" x="41" y="43.2969"/>
    <text fill="#000000" font-family="sans-serif" font-size="13" font-weight="bold" lengthAdjust="spacing" textLength="110.2017" x="1190.7026" y="55.3638">Service central</text>
    <rect fill="#FFFFFF" height="30" style="stroke:#181818;stroke-width:1.0;" width="10" x="126.5059" y="215.125"/>
    <rect fill="#FFFFFF" height="2079.2344" style="stroke:#181818;stroke-width:1.0;" width="10" x="663.1797" y="134.7266"/>
    <rect fill="#FFFFFF" height="30" style="stroke:#181818;stroke-width:1.0;" width="10" x="1354.0996" y="2161.9609"/>
    <rect fill="#FFFFFF" height="120.5313" style="stroke:#181818;stroke-width:1.0;" width="10" x="1902.6343" y="996.8516"/>
    <rect fill="#FFFFFF" height="121.3984" style="stroke:#181818;stroke-width:1.0;" width="10" x="1902.6343" y="1621.2422"/>
    <rect fill="#FFFFFF" height="120.5313" style="stroke:#181818;stroke-width:1.0;" width="10" x="2031.1709" y="466.7266"/>
    <rect fill="#FFFFFF" height="120.5313" style="stroke:#181818;stroke-width:1.0;" width="10" x="2031.1709" y="731.7891"/>
    <rect fill="#FFFFFF" height="62.2656" style="stroke:#181818;stroke-width:1.0;" width="10" x="2379.5205" y="495.8594"/>
    <rect fill="#FFFFFF" height="62.2656" style="stroke:#181818;stroke-width:1.0;" width="10" x="2379.5205" y="760.9219"/>
    <rect fill="#FFFFFF" height="62.2656" style="stroke:#181818;stroke-width:1.0;" width="10" x="2379.5205" y="1025.9844"/>
    <rect fill="#FFFFFF" height="30" style="stroke:#181818;stroke-width:1.0;" width="10" x="2379.5205" y="1650.375"/>
    <rect fill="none" height="2065.2344" style="stroke:#000000;stroke-width:1.5;" width="2484.5225" x="9" y="141.7266"/>
    <rect fill="none" height="154.3359" style="stroke:#000000;stroke-width:1.5;" width="1147.0283" x="504.355" y="260.125"/>
    <rect fill="none" height="251.0625" style="stroke:#000000;stroke-width:1.5;" width="1952.252" x="504.355" y="428.4609"/>
    <rect fill="none" height="251.0625" style="stroke:#000000;stroke-width:1.5;" width="1952.252" x="504.355" y="693.5234"/>
    <rect fill="none" height="208.9297" style="stroke:#000000;stroke-width:1.5;" width="1952.252" x="504.355" y="958.5859"/>
    <rect fill="none" height="1018.4453" style="stroke:#000000;stroke-width:1.5;" width="1999.1675" x="484.355" y="1181.5156"/>
    <rect fill="none" height="363.3281" style="stroke:#000000;stroke-width:1.5;" width="874.7446" x="494.355" y="1205.6484"/>
    <rect fill="none" height="59.2656" style="stroke:#000000;stroke-width:1.5;" width="824.7012" x="504.355" y="1229.7813"/>
    <rect fill="none" height="59.2656" style="stroke:#000000;stroke-width:1.5;" width="854.7446" x="504.355" y="1303.0469"/>
    <rect fill="none" height="59.2656" style="stroke:#000000;stroke-width:1.5;" width="783.981" x="504.355" y="1376.3125"/>
    <rect fill="none" height="167.6641" style="stroke:#000000;stroke-width:1.5;" width="1969.1675" x="504.355" y="1582.9766"/>
    <line style="stroke:#181818;stroke-width:0.5;stroke-dasharray:5.0,5.0;" x1="131" x2="131" y1="124.7266" y2="2223.9609"/>
    <line style="stroke:#181818;stroke-width:0.5;stroke-dasharray:5.0,5.0;" x1="667.355" x2="667.355" y1="124.7266" y2="2223.9609"/>
    <line style="stroke:#181818;stroke-width:0.5;stroke-dasharray:5.0,5.0;" x1="1358.4126" x2="1358.4126" y1="124.7266" y2="2223.9609"/>
    <line style="stroke:#181818;stroke-width:0.5;stroke-dasharray:5.0,5.0;" x1="1547.7866" x2="1547.7866" y1="124.7266" y2="2223.9609"/>
    <line style="stroke:#181818;stroke-width:0.5;stroke-dasharray:5.0,5.0;" x1="1744.3833" x2="1744.3833" y1="124.7266" y2="2223.9609"/>
    <line style="stroke:#181818;stroke-width:0.5;stroke-dasharray:5.0,5.0;" x1="1907.019" x2="1907.019" y1="124.7266" y2="2223.9609"/>
    <line style="stroke:#181818;stroke-width:0.5;stroke-dasharray:5.0,5.0;" x1="2035.2495" x2="2035.2495" y1="124.7266" y2="2223.9609"/>
    <line style="stroke:#181818;stroke-width:0.5;stroke-dasharray:5.0,5.0;" x1="2384.4341" x2="2384.4341" y1="124.7266" y2="2223.9609"/>
    <rect fill="#E2E2F0" height="30.2969" style="stroke:#181818;stroke-width:0.5;" width="169.0117" x="49" y="89.4297"/>
    <rect fill="#E2E2F0" height="30.2969" style="stroke:#181818;stroke-width:0.5;" width="169.0117" x="45" y="93.4297"/>
    <text fill="#000000" font-family="sans-serif" font-size="14" lengthAdjust="spacing" textLength="155.0117" x="52" y="113.4248">topic-transfer-prepare</text>
    <rect fill="#E2E2F0" height="30.2969" style="stroke:#181818;stroke-width:0.5;" width="169.0117" x="49" y="2222.9609"/>
    <rect fill="#E2E2F0" height="30.2969" style="stroke:#181818;stroke-width:0.5;" width="169.0117" x="45" y="2226.9609"/>
    <text fill="#000000" font-family="sans-serif" font-size="14" lengthAdjust="spacing" textLength="155.0117" x="52" y="2246.9561">topic-transfer-prepare</text>
    <text fill="#000000" font-family="sans-serif" font-size="14" lengthAdjust="spacing" textLength="301.6494" x="514.355" y="121.4248">Gestionnaire d&apos;événements de préparation</text>
    <ellipse cx="668.1797" cy="92.4297" fill="#E2E2F0" rx="12" ry="12" style="stroke:#181818;stroke-width:0.5;"/>
    <polygon fill="#181818" points="664.1797,80.4297,670.1797,75.4297,668.1797,80.4297,670.1797,85.4297,664.1797,80.4297" style="stroke:#181818;stroke-width:1.0;"/>
    <text fill="#000000" font-family="sans-serif" font-size="14" lengthAdjust="spacing" textLength="301.6494" x="514.355" y="2235.9561">Gestionnaire d&apos;événements de préparation</text>
    <ellipse cx="668.1797" cy="2255.2578" fill="#E2E2F0" rx="12" ry="12" style="stroke:#181818;stroke-width:0.5;"/>
    <polygon fill="#181818" points="664.1797,2243.2578,670.1797,2238.2578,668.1797,2243.2578,670.1797,2248.2578,664.1797,2243.2578" style="stroke:#181818;stroke-width:1.0;"/>
    <rect fill="#E2E2F0" height="30.2969" style="stroke:#181818;stroke-width:0.5;" width="169.374" x="1276.4126" y="89.4297"/>
    <rect fill="#E2E2F0" height="30.2969" style="stroke:#181818;stroke-width:0.5;" width="169.374" x="1272.4126" y="93.4297"/>
    <text fill="#000000" font-family="sans-serif" font-size="14" lengthAdjust="spacing" textLength="155.374" x="1279.4126" y="113.4248">topic-transfer-position</text>
    <rect fill="#E2E2F0" height="30.2969" style="stroke:#181818;stroke-width:0.5;" width="169.374" x="1276.4126" y="2222.9609"/>
    <rect fill="#E2E2F0" height="30.2969" style="stroke:#181818;stroke-width:0.5;" width="169.374" x="1272.4126" y="2226.9609"/>
    <text fill="#000000" font-family="sans-serif" font-size="14" lengthAdjust="spacing" textLength="155.374" x="1279.4126" y="2246.9561">topic-transfer-position</text>
    <rect fill="#E2E2F0" height="30.2969" style="stroke:#181818;stroke-width:0.5;" width="181.5967" x="1459.7866" y="89.4297"/>
    <rect fill="#E2E2F0" height="30.2969" style="stroke:#181818;stroke-width:0.5;" width="181.5967" x="1455.7866" y="93.4297"/>
    <text fill="#000000" font-family="sans-serif" font-size="14" lengthAdjust="spacing" textLength="167.5967" x="1462.7866" y="113.4248">Rubrique d&apos;événements</text>
    <rect fill="#E2E2F0" height="30.2969" style="stroke:#181818;stroke-width:0.5;" width="181.5967" x="1459.7866" y="2222.9609"/>
    <rect fill="#E2E2F0" height="30.2969" style="stroke:#181818;stroke-width:0.5;" width="181.5967" x="1455.7866" y="2226.9609"/>
    <text fill="#000000" font-family="sans-serif" font-size="14" lengthAdjust="spacing" textLength="167.5967" x="1462.7866" y="2246.9561">Rubrique d&apos;événements</text>
    <rect fill="#E2E2F0" height="30.2969" style="stroke:#181818;stroke-width:0.5;" width="182.6357" x="1655.3833" y="89.4297"/>
    <rect fill="#E2E2F0" height="30.2969" style="stroke:#181818;stroke-width:0.5;" width="182.6357" x="1651.3833" y="93.4297"/>
    <text fill="#000000" font-family="sans-serif" font-size="14" lengthAdjust="spacing" textLength="168.6357" x="1658.3833" y="113.4248">Rubrique de notification</text>
    <rect fill="#E2E2F0" height="30.2969" style="stroke:#181818;stroke-width:0.5;" width="182.6357" x="1655.3833" y="2222.9609"/>
    <rect fill="#E2E2F0" height="30.2969" style="stroke:#181818;stroke-width:0.5;" width="182.6357" x="1651.3833" y="2226.9609"/>
    <text fill="#000000" font-family="sans-serif" font-size="14" lengthAdjust="spacing" textLength="168.6357" x="1658.3833" y="2246.9561">Rubrique de notification</text>
    <text fill="#000000" font-family="sans-serif" font-size="14" lengthAdjust="spacing" textLength="113.2305" x="1848.019" y="121.4248">DAO de position</text>
    <ellipse cx="1907.6343" cy="92.4297" fill="#E2E2F0" rx="12" ry="12" style="stroke:#181818;stroke-width:0.5;"/>
    <line style="stroke:#181818;stroke-width:0.5;" x1="1895.6343" x2="1919.6343" y1="106.4297" y2="106.4297"/>
    <text fill="#000000" font-family="sans-serif" font-size="14" lengthAdjust="spacing" textLength="113.2305" x="1848.019" y="2235.9561">DAO de position</text>
    <ellipse cx="1907.6343" cy="2255.2578" fill="#E2E2F0" rx="12" ry="12" style="stroke:#181818;stroke-width:0.5;"/>
    <line style="stroke:#181818;stroke-width:0.5;" x1="1895.6343" x2="1919.6343" y1="2269.2578" y2="2269.2578"/>
    <text fill="#000000" font-family="sans-serif" font-size="14" lengthAdjust="spacing" textLength="111.8428" x="1977.2495" y="121.4248">DAO participant</text>
    <ellipse cx="2036.1709" cy="92.4297" fill="#E2E2F0" rx="12" ry="12" style="stroke:#181818;stroke-width:0.5;"/>
    <line style="stroke:#181818;stroke-width:0.5;" x1="2024.1709" x2="2048.1709" y1="106.4297" y2="106.4297"/>
    <text fill="#000000" font-family="sans-serif" font-size="14" lengthAdjust="spacing" textLength="111.8428" x="1977.2495" y="2235.9561">DAO participant</text>
    <ellipse cx="2036.1709" cy="2255.2578" fill="#E2E2F0" rx="12" ry="12" style="stroke:#181818;stroke-width:0.5;"/>
    <line style="stroke:#181818;stroke-width:0.5;" x1="2024.1709" x2="2048.1709" y1="2269.2578" y2="2269.2578"/>
    <text fill="#000000" font-family="sans-serif" font-size="14" lengthAdjust="spacing" textLength="118.1729" x="2322.4341" y="121.4248">Stockage central</text>
    <path d="M2366.5205,72.4297 C2366.5205,62.4297 2384.5205,62.4297 2384.5205,62.4297 C2384.5205,62.4297 2402.5205,62.4297 2402.5205,72.4297 L2402.5205,98.4297 C2402.5205,108.4297 2384.5205,108.4297 2384.5205,108.4297 C2384.5205,108.4297 2366.5205,108.4297 2366.5205,98.4297 L2366.5205,72.4297 " fill="#E2E2F0" style="stroke:#181818;stroke-width:1.5;"/>
    <path d="M2366.5205,72.4297 C2366.5205,82.4297 2384.5205,82.4297 2384.5205,82.4297 C2384.5205,82.4297 2402.5205,82.4297 2402.5205,72.4297 " fill="none" style="stroke:#181818;stroke-width:1.5;"/>
    <text fill="#000000" font-family="sans-serif" font-size="14" lengthAdjust="spacing" textLength="118.1729" x="2322.4341" y="2235.9561">Stockage central</text>
    <path d="M2366.5205,2249.2578 C2366.5205,2239.2578 2384.5205,2239.2578 2384.5205,2239.2578 C2384.5205,2239.2578 2402.5205,2239.2578 2402.5205,2249.2578 L2402.5205,2275.2578 C2402.5205,2285.2578 2384.5205,2285.2578 2384.5205,2285.2578 C2384.5205,2285.2578 2366.5205,2285.2578 2366.5205,2275.2578 L2366.5205,2249.2578 " fill="#E2E2F0" style="stroke:#181818;stroke-width:1.5;"/>
    <path d="M2366.5205,2249.2578 C2366.5205,2259.2578 2384.5205,2259.2578 2384.5205,2259.2578 C2384.5205,2259.2578 2402.5205,2259.2578 2402.5205,2249.2578 " fill="none" style="stroke:#181818;stroke-width:1.5;"/>
    <rect fill="#FFFFFF" height="30" style="stroke:#181818;stroke-width:1.0;" width="10" x="126.5059" y="215.125"/>
    <rect fill="#FFFFFF" height="2079.2344" style="stroke:#181818;stroke-width:1.0;" width="10" x="663.1797" y="134.7266"/>
    <rect fill="#FFFFFF" height="30" style="stroke:#181818;stroke-width:1.0;" width="10" x="1354.0996" y="2161.9609"/>
    <rect fill="#FFFFFF" height="120.5313" style="stroke:#181818;stroke-width:1.0;" width="10" x="1902.6343" y="996.8516"/>
    <rect fill="#FFFFFF" height="121.3984" style="stroke:#181818;stroke-width:1.0;" width="10" x="1902.6343" y="1621.2422"/>
    <rect fill="#FFFFFF" height="120.5313" style="stroke:#181818;stroke-width:1.0;" width="10" x="2031.1709" y="466.7266"/>
    <rect fill="#FFFFFF" height="120.5313" style="stroke:#181818;stroke-width:1.0;" width="10" x="2031.1709" y="731.7891"/>
    <rect fill="#FFFFFF" height="62.2656" style="stroke:#181818;stroke-width:1.0;" width="10" x="2379.5205" y="495.8594"/>
    <rect fill="#FFFFFF" height="62.2656" style="stroke:#181818;stroke-width:1.0;" width="10" x="2379.5205" y="760.9219"/>
    <rect fill="#FFFFFF" height="62.2656" style="stroke:#181818;stroke-width:1.0;" width="10" x="2379.5205" y="1025.9844"/>
    <rect fill="#FFFFFF" height="30" style="stroke:#181818;stroke-width:1.0;" width="10" x="2379.5205" y="1650.375"/>
    <path d="M9,141.7266 L396.9829,141.7266 L396.9829,148.8594 L386.9829,158.8594 L9,158.8594 L9,141.7266 " fill="#EEEEEE" style="stroke:#000000;stroke-width:1.5;"/>
    <rect fill="none" height="2065.2344" style="stroke:#000000;stroke-width:1.5;" width="2484.5225" x="9" y="141.7266"/>
    <text fill="#000000" font-family="sans-serif" font-size="13" font-weight="bold" lengthAdjust="spacing" textLength="342.9829" x="24" y="154.7935">Consommation du gestionnaire de préparation</text>
    <path d="M19,163.8594 L19,188.8594 L243,188.8594 L243,173.8594 L233,163.8594 L19,163.8594 " fill="#FFA07A" style="stroke:#181818;stroke-width:0.5;"/>
    <path d="M233,163.8594 L233,173.8594 L243,173.8594 L233,163.8594 " fill="#FFA07A" style="stroke:#181818;stroke-width:0.5;"/>
    <text fill="#000000" font-family="sans-serif" font-size="13" lengthAdjust="spacing" textLength="203.855" x="25" y="180.9263">Ce flux n&apos;a pas été implémenté</text>
    <polygon fill="#181818" points="147.5059,211.125,137.5059,215.125,147.5059,219.125,143.5059,215.125" style="stroke:#181818;stroke-width:1.0;"/>
    <line style="stroke:#181818;stroke-width:1.0;" x1="141.5059" x2="662.1797" y1="215.125" y2="215.125"/>
    <text fill="#000000" font-family="sans-serif" font-size="13" font-weight="bold" lengthAdjust="spacing" textLength="9.0454" x="153.5059" y="210.0591">1</text>
    <text fill="#000000" font-family="sans-serif" font-size="13" lengthAdjust="spacing" textLength="494.6284" x="166.5513" y="210.0591">Consommer le lot de messages d&apos;événement de préparation pour le payeur</text>
    <path d="M504.355,260.125 L838.9922,260.125 L838.9922,267.2578 L828.9922,277.2578 L504.355,277.2578 L504.355,260.125 " fill="#EEEEEE" style="stroke:#000000;stroke-width:1.5;"/>
    <rect fill="none" height="154.3359" style="stroke:#000000;stroke-width:1.5;" width="1147.0283" x="504.355" y="260.125"/>
    <text fill="#000000" font-family="sans-serif" font-size="13" font-weight="bold" lengthAdjust="spacing" textLength="289.6372" x="519.355" y="273.1919">Persister les informations d&apos;événement</text>
    <polygon fill="#181818" points="1536.585,319.3906,1546.585,323.3906,1536.585,327.3906,1540.585,323.3906" style="stroke:#181818;stroke-width:1.0;"/>
    <line style="stroke:#181818;stroke-width:1.0;" x1="673.1797" x2="1542.585" y1="323.3906" y2="323.3906"/>
    <text fill="#000000" font-family="sans-serif" font-size="13" font-weight="bold" lengthAdjust="spacing" textLength="9.0454" x="680.1797" y="318.3247">2</text>
    <text fill="#000000" font-family="sans-serif" font-size="13" lengthAdjust="spacing" textLength="243.458" x="693.2251" y="318.3247">Publier les informations d&apos;événement</text>
    <rect fill="none" height="53.0703" style="stroke:#000000;stroke-width:1.5;" width="1133.0283" x="511.355" y="331.3906"/>
    <path d="M511.355,331.3906 L576.355,331.3906 L576.355,338.3906 L566.355,348.3906 L511.355,348.3906 L511.355,331.3906 " fill="#EEEEEE" style="stroke:#000000;stroke-width:2.0;"/>
    <text fill="#000000" font-family="sans-serif" font-size="13" font-weight="bold" lengthAdjust="spacing" textLength="20.8838" x="524.355" y="345.4575">ref</text>
    <text fill="#000000" font-family="sans-serif" font-size="12" lengthAdjust="spacing" textLength="277.5586" x="939.0898" y="363.5293">Consommation du gestionnaire d&apos;événements</text>
    <text fill="#000000" font-family="sans-serif" font-size="12" lengthAdjust="spacing" textLength="3.8145" x="1075.9619" y="377.498"> </text>
    <path d="M504.355,428.4609 L900.3423,428.4609 L900.3423,435.5938 L890.3423,445.5938 L504.355,445.5938 L504.355,428.4609 " fill="#EEEEEE" style="stroke:#000000;stroke-width:1.5;"/>
    <rect fill="none" height="251.0625" style="stroke:#000000;stroke-width:1.5;" width="1952.252" x="504.355" y="428.4609"/>
    <text fill="#000000" font-family="sans-serif" font-size="13" font-weight="bold" lengthAdjust="spacing" textLength="350.9873" x="519.355" y="441.5278">Récupérer les informations groupées du payeur</text>
    <polygon fill="#181818" points="2019.1709,462.7266,2029.1709,466.7266,2019.1709,470.7266,2023.1709,466.7266" style="stroke:#181818;stroke-width:1.0;"/>
    <line style="stroke:#181818;stroke-width:1.0;" x1="673.1797" x2="2025.1709" y1="466.7266" y2="466.7266"/>
    <text fill="#000000" font-family="sans-serif" font-size="13" font-weight="bold" lengthAdjust="spacing" textLength="9.0454" x="680.1797" y="461.6606">3</text>
    <text fill="#000000" font-family="sans-serif" font-size="13" lengthAdjust="spacing" textLength="455.165" x="693.2251" y="461.6606">Demande de récupérer le lot de détails participant payeur (s&apos;il existe)</text>
    <polygon fill="#181818" points="2367.5205,491.8594,2377.5205,495.8594,2367.5205,499.8594,2371.5205,495.8594" style="stroke:#181818;stroke-width:1.0;"/>
    <line style="stroke:#181818;stroke-width:1.0;" x1="2041.1709" x2="2373.5205" y1="495.8594" y2="495.8594"/>
    <text fill="#000000" font-family="sans-serif" font-size="13" font-weight="bold" lengthAdjust="spacing" textLength="9.0454" x="2048.1709" y="490.7935">4</text>
    <text fill="#000000" font-family="sans-serif" font-size="13" lengthAdjust="spacing" textLength="233.7715" x="2061.2163" y="490.7935">Demander les détails du participant</text>
    <polygon fill="#FFFFE0" points="2347,508.8594,2421,508.8594,2431,519.8594,2421,531.8594,2347,531.8594,2337,519.8594,2347,508.8594" style="stroke:#181818;stroke-width:0.5;"/>
    <text fill="#000000" font-family="sans-serif" font-size="13" lengthAdjust="spacing" textLength="70.5859" x="2349" y="524.9263">participant</text>
    <polygon fill="#181818" points="2052.1709,554.125,2042.1709,558.125,2052.1709,562.125,2048.1709,558.125" style="stroke:#181818;stroke-width:1.0;"/>
    <line style="stroke:#181818;stroke-width:1.0;stroke-dasharray:2.0,2.0;" x1="2046.1709" x2="2383.5205" y1="558.125" y2="558.125"/>
    <text fill="#000000" font-family="sans-serif" font-size="13" font-weight="bold" lengthAdjust="spacing" textLength="9.0454" x="2058.1709" y="553.0591">5</text>
    <text fill="#000000" font-family="sans-serif" font-size="13" lengthAdjust="spacing" textLength="292.2588" x="2071.2163" y="553.0591">Renvoyer les détails du participant s&apos;il existe</text>
    <polygon fill="#181818" points="684.1797,583.2578,674.1797,587.2578,684.1797,591.2578,680.1797,587.2578" style="stroke:#181818;stroke-width:1.0;"/>
    <line style="stroke:#181818;stroke-width:1.0;stroke-dasharray:2.0,2.0;" x1="678.1797" x2="2035.1709" y1="587.2578" y2="587.2578"/>
    <text fill="#000000" font-family="sans-serif" font-size="13" font-weight="bold" lengthAdjust="spacing" textLength="9.0454" x="690.1797" y="582.1919">6</text>
    <text fill="#000000" font-family="sans-serif" font-size="13" lengthAdjust="spacing" textLength="292.2588" x="703.2251" y="582.1919">Renvoyer les détails du participant s&apos;il existe</text>
    <line style="stroke:#181818;stroke-width:1.0;" x1="673.1797" x2="715.1797" y1="616.3906" y2="616.3906"/>
    <line style="stroke:#181818;stroke-width:1.0;" x1="715.1797" x2="715.1797" y1="616.3906" y2="629.3906"/>
    <line style="stroke:#181818;stroke-width:1.0;" x1="674.1797" x2="715.1797" y1="629.3906" y2="629.3906"/>
    <polygon fill="#181818" points="683.1797,612.3906,673.1797,616.3906,683.1797,620.3906,679.1797,616.3906" style="stroke:#181818;stroke-width:1.0;"/>
    <polygon fill="#181818" points="684.1797,625.3906,674.1797,629.3906,684.1797,633.3906,680.1797,629.3906" style="stroke:#181818;stroke-width:1.0;"/>
    <text fill="#000000" font-family="sans-serif" font-size="13" font-weight="bold" lengthAdjust="spacing" textLength="9.0454" x="680.1797" y="611.3247">7</text>
    <text fill="#000000" font-family="sans-serif" font-size="13" lengthAdjust="spacing" textLength="111.0459" x="693.2251" y="611.3247">Valider le payeur</text>
    <line style="stroke:#181818;stroke-width:1.0;" x1="673.1797" x2="715.1797" y1="658.5234" y2="658.5234"/>
    <line style="stroke:#181818;stroke-width:1.0;" x1="715.1797" x2="715.1797" y1="658.5234" y2="671.5234"/>
    <line style="stroke:#181818;stroke-width:1.0;" x1="674.1797" x2="715.1797" y1="671.5234" y2="671.5234"/>
    <polygon fill="#181818" points="684.1797,667.5234,674.1797,671.5234,684.1797,675.5234,680.1797,671.5234" style="stroke:#181818;stroke-width:1.0;"/>
    <text fill="#000000" font-family="sans-serif" font-size="13" font-weight="bold" lengthAdjust="spacing" textLength="9.0454" x="680.1797" y="653.4575">8</text>
    <text fill="#000000" font-family="sans-serif" font-size="13" lengthAdjust="spacing" textLength="482.5869" x="693.2251" y="653.4575">stocker le résultat dans la variable : $LIST_PARTICIPANTS_DETAILS_PAYER</text>
    <path d="M504.355,693.5234 L936.2319,693.5234 L936.2319,700.6563 L926.2319,710.6563 L504.355,710.6563 L504.355,693.5234 " fill="#EEEEEE" style="stroke:#000000;stroke-width:1.5;"/>
    <rect fill="none" height="251.0625" style="stroke:#000000;stroke-width:1.5;" width="1952.252" x="504.355" y="693.5234"/>
    <text fill="#000000" font-family="sans-serif" font-size="13" font-weight="bold" lengthAdjust="spacing" textLength="386.877" x="519.355" y="706.5903">Récupérer les informations groupées du bénéficiaire</text>
    <polygon fill="#181818" points="2019.1709,727.7891,2029.1709,731.7891,2019.1709,735.7891,2023.1709,731.7891" style="stroke:#181818;stroke-width:1.0;"/>
    <line style="stroke:#181818;stroke-width:1.0;" x1="673.1797" x2="2025.1709" y1="731.7891" y2="731.7891"/>
    <text fill="#000000" font-family="sans-serif" font-size="13" font-weight="bold" lengthAdjust="spacing" textLength="9.0454" x="680.1797" y="726.7231">9</text>
    <text fill="#000000" font-family="sans-serif" font-size="13" lengthAdjust="spacing" textLength="486.0273" x="693.2251" y="726.7231">Demande de récupérer le lot de détails participant bénéficiaire (s&apos;il existe)</text>
    <polygon fill="#181818" points="2367.5205,756.9219,2377.5205,760.9219,2367.5205,764.9219,2371.5205,760.9219" style="stroke:#181818;stroke-width:1.0;"/>
    <line style="stroke:#181818;stroke-width:1.0;" x1="2041.1709" x2="2373.5205" y1="760.9219" y2="760.9219"/>
    <text fill="#000000" font-family="sans-serif" font-size="13" font-weight="bold" lengthAdjust="spacing" textLength="18.0908" x="2048.1709" y="755.856">10</text>
    <text fill="#000000" font-family="sans-serif" font-size="13" lengthAdjust="spacing" textLength="233.7715" x="2070.2617" y="755.856">Demander les détails du participant</text>
    <polygon fill="#FFFFE0" points="2347,773.9219,2421,773.9219,2431,784.9219,2421,796.9219,2347,796.9219,2337,784.9219,2347,773.9219" style="stroke:#181818;stroke-width:0.5;"/>
    <text fill="#000000" font-family="sans-serif" font-size="13" lengthAdjust="spacing" textLength="70.5859" x="2349" y="789.9888">participant</text>
    <polygon fill="#181818" points="2052.1709,819.1875,2042.1709,823.1875,2052.1709,827.1875,2048.1709,823.1875" style="stroke:#181818;stroke-width:1.0;"/>
    <line style="stroke:#181818;stroke-width:1.0;stroke-dasharray:2.0,2.0;" x1="2046.1709" x2="2383.5205" y1="823.1875" y2="823.1875"/>
    <text fill="#000000" font-family="sans-serif" font-size="13" font-weight="bold" lengthAdjust="spacing" textLength="18.0908" x="2058.1709" y="818.1216">11</text>
    <text fill="#000000" font-family="sans-serif" font-size="13" lengthAdjust="spacing" textLength="292.2588" x="2080.2617" y="818.1216">Renvoyer les détails du participant s&apos;il existe</text>
    <polygon fill="#181818" points="684.1797,848.3203,674.1797,852.3203,684.1797,856.3203,680.1797,852.3203" style="stroke:#181818;stroke-width:1.0;"/>
    <line style="stroke:#181818;stroke-width:1.0;stroke-dasharray:2.0,2.0;" x1="678.1797" x2="2035.1709" y1="852.3203" y2="852.3203"/>
    <text fill="#000000" font-family="sans-serif" font-size="13" font-weight="bold" lengthAdjust="spacing" textLength="18.0908" x="690.1797" y="847.2544">12</text>
    <text fill="#000000" font-family="sans-serif" font-size="13" lengthAdjust="spacing" textLength="292.2588" x="712.2705" y="847.2544">Renvoyer les détails du participant s&apos;il existe</text>
    <line style="stroke:#181818;stroke-width:1.0;" x1="673.1797" x2="715.1797" y1="881.4531" y2="881.4531"/>
    <line style="stroke:#181818;stroke-width:1.0;" x1="715.1797" x2="715.1797" y1="881.4531" y2="894.4531"/>
    <line style="stroke:#181818;stroke-width:1.0;" x1="674.1797" x2="715.1797" y1="894.4531" y2="894.4531"/>
    <polygon fill="#181818" points="683.1797,877.4531,673.1797,881.4531,683.1797,885.4531,679.1797,881.4531" style="stroke:#181818;stroke-width:1.0;"/>
    <polygon fill="#181818" points="684.1797,890.4531,674.1797,894.4531,684.1797,898.4531,680.1797,894.4531" style="stroke:#181818;stroke-width:1.0;"/>
    <text fill="#000000" font-family="sans-serif" font-size="13" font-weight="bold" lengthAdjust="spacing" textLength="18.0908" x="680.1797" y="876.3872">13</text>
    <text fill="#000000" font-family="sans-serif" font-size="13" lengthAdjust="spacing" textLength="141.9082" x="702.2705" y="876.3872">Valider le bénéficiaire</text>
    <line style="stroke:#181818;stroke-width:1.0;" x1="673.1797" x2="715.1797" y1="923.5859" y2="923.5859"/>
    <line style="stroke:#181818;stroke-width:1.0;" x1="715.1797" x2="715.1797" y1="923.5859" y2="936.5859"/>
    <line style="stroke:#181818;stroke-width:1.0;" x1="674.1797" x2="715.1797" y1="936.5859" y2="936.5859"/>
    <polygon fill="#181818" points="684.1797,932.5859,674.1797,936.5859,684.1797,940.5859,680.1797,936.5859" style="stroke:#181818;stroke-width:1.0;"/>
    <text fill="#000000" font-family="sans-serif" font-size="13" font-weight="bold" lengthAdjust="spacing" textLength="18.0908" x="680.1797" y="918.52">14</text>
    <text fill="#000000" font-family="sans-serif" font-size="13" lengthAdjust="spacing" textLength="481.7681" x="702.2705" y="918.52">stocker le résultat dans la variable : $LIST_PARTICIPANTS_DETAILS_PAYEE</text>
    <path d="M504.355,958.5859 L767.2319,958.5859 L767.2319,965.7188 L757.2319,975.7188 L504.355,975.7188 L504.355,958.5859 " fill="#EEEEEE" style="stroke:#000000;stroke-width:1.5;"/>
    <rect fill="none" height="208.9297" style="stroke:#000000;stroke-width:1.5;" width="1952.252" x="504.355" y="958.5859"/>
    <text fill="#000000" font-family="sans-serif" font-size="13" font-weight="bold" lengthAdjust="spacing" textLength="217.877" x="519.355" y="971.6528">Récupérer le lot de transferts</text>
    <polygon fill="#181818" points="1890.6343,992.8516,1900.6343,996.8516,1890.6343,1000.8516,1894.6343,996.8516" style="stroke:#181818;stroke-width:1.0;"/>
    <line style="stroke:#181818;stroke-width:1.0;" x1="673.1797" x2="1896.6343" y1="996.8516" y2="996.8516"/>
    <text fill="#000000" font-family="sans-serif" font-size="13" font-weight="bold" lengthAdjust="spacing" textLength="18.0908" x="680.1797" y="991.7856">15</text>
    <text fill="#000000" font-family="sans-serif" font-size="13" lengthAdjust="spacing" textLength="350.7207" x="702.2705" y="991.7856">Demande de récupérer le lot de transferts (s&apos;il existe)</text>
    <polygon fill="#181818" points="2367.5205,1021.9844,2377.5205,1025.9844,2367.5205,1029.9844,2371.5205,1025.9844" style="stroke:#181818;stroke-width:1.0;"/>
    <line style="stroke:#181818;stroke-width:1.0;" x1="1912.6343" x2="2373.5205" y1="1025.9844" y2="1025.9844"/>
    <text fill="#000000" font-family="sans-serif" font-size="13" font-weight="bold" lengthAdjust="spacing" textLength="18.0908" x="1919.6343" y="1020.9185">16</text>
    <text fill="#000000" font-family="sans-serif" font-size="13" lengthAdjust="spacing" textLength="192.7339" x="1941.7251" y="1020.9185">Demander le lot de transferts</text>
    <polygon fill="#FFFFE0" points="2356,1038.9844,2411,1038.9844,2421,1049.9844,2411,1061.9844,2356,1061.9844,2346,1049.9844,2356,1038.9844" style="stroke:#181818;stroke-width:0.5;"/>
    <text fill="#000000" font-family="sans-serif" font-size="13" lengthAdjust="spacing" textLength="51.3398" x="2358" y="1055.0513">transfer</text>
    <polygon fill="#181818" points="1923.6343,1084.25,1913.6343,1088.25,1923.6343,1092.25,1919.6343,1088.25" style="stroke:#181818;stroke-width:1.0;"/>
    <line style="stroke:#181818;stroke-width:1.0;stroke-dasharray:2.0,2.0;" x1="1917.6343" x2="2383.5205" y1="1088.25" y2="1088.25"/>
    <text fill="#000000" font-family="sans-serif" font-size="13" font-weight="bold" lengthAdjust="spacing" textLength="18.0908" x="1929.6343" y="1083.1841">17</text>
    <text fill="#000000" font-family="sans-serif" font-size="13" lengthAdjust="spacing" textLength="261.3647" x="1951.7251" y="1083.1841">Renvoyer le lot de transferts (s&apos;il existe)</text>
    <polygon fill="#181818" points="684.1797,1113.3828,674.1797,1117.3828,684.1797,1121.3828,680.1797,1117.3828" style="stroke:#181818;stroke-width:1.0;"/>
    <line style="stroke:#181818;stroke-width:1.0;stroke-dasharray:2.0,2.0;" x1="678.1797" x2="1906.6343" y1="1117.3828" y2="1117.3828"/>
    <text fill="#000000" font-family="sans-serif" font-size="13" font-weight="bold" lengthAdjust="spacing" textLength="18.0908" x="690.1797" y="1112.3169">18</text>
    <text fill="#000000" font-family="sans-serif" font-size="13" lengthAdjust="spacing" textLength="261.3647" x="712.2705" y="1112.3169">Renvoyer le lot de transferts (s&apos;il existe)</text>
    <line style="stroke:#181818;stroke-width:1.0;" x1="673.1797" x2="715.1797" y1="1146.5156" y2="1146.5156"/>
    <line style="stroke:#181818;stroke-width:1.0;" x1="715.1797" x2="715.1797" y1="1146.5156" y2="1159.5156"/>
    <line style="stroke:#181818;stroke-width:1.0;" x1="674.1797" x2="715.1797" y1="1159.5156" y2="1159.5156"/>
    <polygon fill="#181818" points="684.1797,1155.5156,674.1797,1159.5156,684.1797,1163.5156,680.1797,1159.5156" style="stroke:#181818;stroke-width:1.0;"/>
    <text fill="#000000" font-family="sans-serif" font-size="13" font-weight="bold" lengthAdjust="spacing" textLength="18.0908" x="680.1797" y="1141.4497">19</text>
    <text fill="#000000" font-family="sans-serif" font-size="13" lengthAdjust="spacing" textLength="356.9985" x="702.2705" y="1141.4497">stocker le résultat dans la variable : $LIST_TRANSFERS</text>
    <path d="M484.355,1181.5156 L560.979,1181.5156 L560.979,1188.6484 L550.979,1198.6484 L484.355,1198.6484 L484.355,1181.5156 " fill="#EEEEEE" style="stroke:#000000;stroke-width:1.5;"/>
    <rect fill="none" height="1018.4453" style="stroke:#000000;stroke-width:1.5;" width="1999.1675" x="484.355" y="1181.5156"/>
    <text fill="#000000" font-family="sans-serif" font-size="13" font-weight="bold" lengthAdjust="spacing" textLength="31.624" x="499.355" y="1194.5825">loop</text>
    <text fill="#000000" font-family="sans-serif" font-size="11" font-weight="bold" lengthAdjust="spacing" textLength="173.6582" x="575.979" y="1193.7261">[for each message in batch]</text>
    <path d="M494.355,1205.6484 L793.6675,1205.6484 L793.6675,1212.7813 L783.6675,1222.7813 L494.355,1222.7813 L494.355,1205.6484 " fill="#EEEEEE" style="stroke:#000000;stroke-width:1.5;"/>
    <rect fill="none" height="363.3281" style="stroke:#000000;stroke-width:1.5;" width="874.7446" x="494.355" y="1205.6484"/>
    <text fill="#000000" font-family="sans-serif" font-size="13" font-weight="bold" lengthAdjust="spacing" textLength="254.3125" x="509.355" y="1218.7153">Valider la préparation du transfert</text>
    <path d="M504.355,1229.7813 L674.9941,1229.7813 L674.9941,1236.9141 L664.9941,1246.9141 L504.355,1246.9141 L504.355,1229.7813 " fill="#EEEEEE" style="stroke:#000000;stroke-width:1.5;"/>
    <rect fill="none" height="59.2656" style="stroke:#000000;stroke-width:1.5;" width="824.7012" x="504.355" y="1229.7813"/>
    <text fill="#000000" font-family="sans-serif" font-size="13" font-weight="bold" lengthAdjust="spacing" textLength="125.6392" x="519.355" y="1242.8481">Valider le payeur</text>
    <line style="stroke:#181818;stroke-width:1.0;" x1="673.1797" x2="715.1797" y1="1268.0469" y2="1268.0469"/>
    <line style="stroke:#181818;stroke-width:1.0;" x1="715.1797" x2="715.1797" y1="1268.0469" y2="1281.0469"/>
    <line style="stroke:#181818;stroke-width:1.0;" x1="674.1797" x2="715.1797" y1="1281.0469" y2="1281.0469"/>
    <polygon fill="#181818" points="683.1797,1264.0469,673.1797,1268.0469,683.1797,1272.0469,679.1797,1268.0469" style="stroke:#181818;stroke-width:1.0;"/>
    <polygon fill="#181818" points="684.1797,1277.0469,674.1797,1281.0469,684.1797,1285.0469,680.1797,1281.0469" style="stroke:#181818;stroke-width:1.0;"/>
    <text fill="#000000" font-family="sans-serif" font-size="13" font-weight="bold" lengthAdjust="spacing" textLength="18.0908" x="680.1797" y="1262.981">20</text>
    <text fill="#000000" font-family="sans-serif" font-size="13" lengthAdjust="spacing" textLength="604.7856" x="702.2705" y="1262.981">Valider le payeur par rapport à la variable en mémoire $LIST_PARTICIPANTS_DETAILS_PAYER</text>
    <path d="M504.355,1303.0469 L710.8838,1303.0469 L710.8838,1310.1797 L700.8838,1320.1797 L504.355,1320.1797 L504.355,1303.0469 " fill="#EEEEEE" style="stroke:#000000;stroke-width:1.5;"/>
    <rect fill="none" height="59.2656" style="stroke:#000000;stroke-width:1.5;" width="854.7446" x="504.355" y="1303.0469"/>
    <text fill="#000000" font-family="sans-serif" font-size="13" font-weight="bold" lengthAdjust="spacing" textLength="161.5288" x="519.355" y="1316.1138">Valider le bénéficiaire</text>
    <line style="stroke:#181818;stroke-width:1.0;" x1="673.1797" x2="715.1797" y1="1341.3125" y2="1341.3125"/>
    <line style="stroke:#181818;stroke-width:1.0;" x1="715.1797" x2="715.1797" y1="1341.3125" y2="1354.3125"/>
    <line style="stroke:#181818;stroke-width:1.0;" x1="674.1797" x2="715.1797" y1="1354.3125" y2="1354.3125"/>
    <polygon fill="#181818" points="683.1797,1337.3125,673.1797,1341.3125,683.1797,1345.3125,679.1797,1341.3125" style="stroke:#181818;stroke-width:1.0;"/>
    <polygon fill="#181818" points="684.1797,1350.3125,674.1797,1354.3125,684.1797,1358.3125,680.1797,1354.3125" style="stroke:#181818;stroke-width:1.0;"/>
    <text fill="#000000" font-family="sans-serif" font-size="13" font-weight="bold" lengthAdjust="spacing" textLength="18.0908" x="680.1797" y="1336.2466">21</text>
    <text fill="#000000" font-family="sans-serif" font-size="13" lengthAdjust="spacing" textLength="634.8291" x="702.2705" y="1336.2466">Valider le bénéficiaire par rapport à la variable en mémoire $LIST_PARTICIPANTS_DETAILS_PAYEE</text>
    <path d="M504.355,1376.3125 L698.5249,1376.3125 L698.5249,1383.4453 L688.5249,1393.4453 L504.355,1393.4453 L504.355,1376.3125 " fill="#EEEEEE" style="stroke:#000000;stroke-width:1.5;"/>
    <rect fill="none" height="59.2656" style="stroke:#000000;stroke-width:1.5;" width="783.981" x="504.355" y="1376.3125"/>
    <text fill="#000000" font-family="sans-serif" font-size="13" font-weight="bold" lengthAdjust="spacing" textLength="149.1699" x="519.355" y="1389.3794">Contrôle de doublon</text>
    <line style="stroke:#181818;stroke-width:1.0;" x1="673.1797" x2="715.1797" y1="1414.5781" y2="1414.5781"/>
    <line style="stroke:#181818;stroke-width:1.0;" x1="715.1797" x2="715.1797" y1="1414.5781" y2="1427.5781"/>
    <line style="stroke:#181818;stroke-width:1.0;" x1="674.1797" x2="715.1797" y1="1427.5781" y2="1427.5781"/>
    <polygon fill="#181818" points="683.1797,1410.5781,673.1797,1414.5781,683.1797,1418.5781,679.1797,1414.5781" style="stroke:#181818;stroke-width:1.0;"/>
    <polygon fill="#181818" points="684.1797,1423.5781,674.1797,1427.5781,684.1797,1431.5781,680.1797,1427.5781" style="stroke:#181818;stroke-width:1.0;"/>
    <text fill="#000000" font-family="sans-serif" font-size="13" font-weight="bold" lengthAdjust="spacing" textLength="18.0908" x="680.1797" y="1409.5122">22</text>
    <text fill="#000000" font-family="sans-serif" font-size="13" lengthAdjust="spacing" textLength="564.0654" x="702.2705" y="1409.5122">Valider le contrôle de doublon par rapport à la variable en mémoire $LIST_TRANSFERS</text>
    <line style="stroke:#181818;stroke-width:1.0;" x1="673.1797" x2="715.1797" y1="1463.7109" y2="1463.7109"/>
    <line style="stroke:#181818;stroke-width:1.0;" x1="715.1797" x2="715.1797" y1="1463.7109" y2="1476.7109"/>
    <line style="stroke:#181818;stroke-width:1.0;" x1="674.1797" x2="715.1797" y1="1476.7109" y2="1476.7109"/>
    <polygon fill="#181818" points="683.1797,1459.7109,673.1797,1463.7109,683.1797,1467.7109,679.1797,1463.7109" style="stroke:#181818;stroke-width:1.0;"/>
    <polygon fill="#181818" points="684.1797,1472.7109,674.1797,1476.7109,684.1797,1480.7109,680.1797,1476.7109" style="stroke:#181818;stroke-width:1.0;"/>
    <text fill="#000000" font-family="sans-serif" font-size="13" font-weight="bold" lengthAdjust="spacing" textLength="18.0908" x="680.1797" y="1458.645">23</text>
    <text fill="#000000" font-family="sans-serif" font-size="13" lengthAdjust="spacing" textLength="120.8086" x="702.2705" y="1458.645">Valider le montant</text>
    <line style="stroke:#181818;stroke-width:1.0;" x1="673.1797" x2="715.1797" y1="1505.8438" y2="1505.8438"/>
    <line style="stroke:#181818;stroke-width:1.0;" x1="715.1797" x2="715.1797" y1="1505.8438" y2="1518.8438"/>
    <line style="stroke:#181818;stroke-width:1.0;" x1="674.1797" x2="715.1797" y1="1518.8438" y2="1518.8438"/>
    <polygon fill="#181818" points="683.1797,1501.8438,673.1797,1505.8438,683.1797,1509.8438,679.1797,1505.8438" style="stroke:#181818;stroke-width:1.0;"/>
    <polygon fill="#181818" points="684.1797,1514.8438,674.1797,1518.8438,684.1797,1522.8438,680.1797,1518.8438" style="stroke:#181818;stroke-width:1.0;"/>
    <text fill="#000000" font-family="sans-serif" font-size="13" font-weight="bold" lengthAdjust="spacing" textLength="18.0908" x="680.1797" y="1500.7778">24</text>
    <text fill="#000000" font-family="sans-serif" font-size="13" lengthAdjust="spacing" textLength="171.8057" x="702.2705" y="1500.7778">Valider la crypto-condition</text>
    <line style="stroke:#181818;stroke-width:1.0;" x1="673.1797" x2="715.1797" y1="1547.9766" y2="1547.9766"/>
    <line style="stroke:#181818;stroke-width:1.0;" x1="715.1797" x2="715.1797" y1="1547.9766" y2="1560.9766"/>
    <line style="stroke:#181818;stroke-width:1.0;" x1="674.1797" x2="715.1797" y1="1560.9766" y2="1560.9766"/>
    <polygon fill="#181818" points="683.1797,1543.9766,673.1797,1547.9766,683.1797,1551.9766,679.1797,1547.9766" style="stroke:#181818;stroke-width:1.0;"/>
    <polygon fill="#181818" points="684.1797,1556.9766,674.1797,1560.9766,684.1797,1564.9766,680.1797,1560.9766" style="stroke:#181818;stroke-width:1.0;"/>
    <text fill="#000000" font-family="sans-serif" font-size="13" font-weight="bold" lengthAdjust="spacing" textLength="18.0908" x="680.1797" y="1542.9106">25</text>
    <text fill="#000000" font-family="sans-serif" font-size="13" lengthAdjust="spacing" textLength="470.1455" x="702.2705" y="1542.9106">Valider la signature du message (à confirmer dans une future exigence)</text>
    <path d="M504.355,1582.9766 L1109.4595,1582.9766 L1109.4595,1590.1094 L1099.4595,1600.1094 L504.355,1600.1094 L504.355,1582.9766 " fill="#EEEEEE" style="stroke:#000000;stroke-width:1.5;"/>
    <rect fill="none" height="167.6641" style="stroke:#000000;stroke-width:1.5;" width="1969.1675" x="504.355" y="1582.9766"/>
    <text fill="#000000" font-family="sans-serif" font-size="13" font-weight="bold" lengthAdjust="spacing" textLength="560.1045" x="519.355" y="1596.0435">Persister l&apos;état du transfert (transferState=&apos;RECEIVED&apos; si validation réussie)</text>
    <polygon fill="#181818" points="1890.6343,1617.2422,1900.6343,1621.2422,1890.6343,1625.2422,1894.6343,1621.2422" style="stroke:#181818;stroke-width:1.0;"/>
    <line style="stroke:#181818;stroke-width:1.0;" x1="673.1797" x2="1896.6343" y1="1621.2422" y2="1621.2422"/>
    <text fill="#000000" font-family="sans-serif" font-size="13" font-weight="bold" lengthAdjust="spacing" textLength="18.0908" x="680.1797" y="1616.1763">26</text>
    <text fill="#000000" font-family="sans-serif" font-size="13" lengthAdjust="spacing" textLength="221.146" x="702.2705" y="1616.1763">Demande de persister le transfert</text>
    <polygon fill="#181818" points="2367.5205,1646.375,2377.5205,1650.375,2367.5205,1654.375,2371.5205,1650.375" style="stroke:#181818;stroke-width:1.0;"/>
    <line style="stroke:#181818;stroke-width:1.0;" x1="1912.6343" x2="2373.5205" y1="1650.375" y2="1650.375"/>
    <text fill="#000000" font-family="sans-serif" font-size="13" font-weight="bold" lengthAdjust="spacing" textLength="18.0908" x="1919.6343" y="1645.3091">27</text>
    <text fill="#000000" font-family="sans-serif" font-size="13" lengthAdjust="spacing" textLength="133.0913" x="1941.7251" y="1645.3091">Persister le transfert</text>
    <polygon fill="#FFFFE0" points="2314,1693.375,2453,1693.375,2463,1704.375,2453,1716.375,2314,1716.375,2304,1704.375,2314,1693.375" style="stroke:#181818;stroke-width:0.5;"/>
    <text fill="#000000" font-family="sans-serif" font-size="13" lengthAdjust="spacing" textLength="135.5225" x="2316" y="1709.4419">transferStateChange</text>
    <polygon fill="#181818" points="684.1797,1738.6406,674.1797,1742.6406,684.1797,1746.6406,680.1797,1742.6406" style="stroke:#181818;stroke-width:1.0;"/>
    <line style="stroke:#181818;stroke-width:1.0;stroke-dasharray:2.0,2.0;" x1="678.1797" x2="1906.6343" y1="1742.6406" y2="1742.6406"/>
    <text fill="#000000" font-family="sans-serif" font-size="13" font-weight="bold" lengthAdjust="spacing" textLength="18.0908" x="690.1797" y="1737.5747">28</text>
    <text fill="#000000" font-family="sans-serif" font-size="13" lengthAdjust="spacing" textLength="125.9058" x="712.2705" y="1737.5747">Renvoyer le succès</text>
    <path d="M678,1762.6406 L678,2135.6406 L952,2135.6406 L952,1772.6406 L942,1762.6406 L678,1762.6406 " fill="#FFFF00" style="stroke:#181818;stroke-width:0.5;"/>
    <path d="M942,1762.6406 L942,1772.6406 L952,1772.6406 L942,1762.6406 " fill="#FFFF00" style="stroke:#181818;stroke-width:0.5;"/>
    <text fill="#000000" font-family="sans-serif" font-size="13" lengthAdjust="spacing" textLength="65.4888" x="684" y="1779.7075">Message :</text>
    <text fill="#000000" font-family="sans-serif" font-size="13" lengthAdjust="spacing" textLength="8.271" x="684" y="1794.8403">{</text>
    <text fill="#000000" font-family="sans-serif" font-size="13" lengthAdjust="spacing" textLength="218.0356" x="700.5293" y="1809.9731">id: &lt;transferMessage.transferId&gt;</text>
    <text fill="#000000" font-family="sans-serif" font-size="13" lengthAdjust="spacing" textLength="237.1738" x="700.5293" y="1825.106">from: &lt;transferMessage.payerFsp&gt;,</text>
    <text fill="#000000" font-family="sans-serif" font-size="13" lengthAdjust="spacing" textLength="222.3394" x="700.5293" y="1840.2388">to: &lt;transferMessage.payeeFsp&gt;,</text>
    <text fill="#000000" font-family="sans-serif" font-size="13" lengthAdjust="spacing" textLength="140.2197" x="700.5293" y="1855.3716">type: application/json</text>
    <text fill="#000000" font-family="sans-serif" font-size="13" lengthAdjust="spacing" textLength="66.5552" x="700.5293" y="1870.5044">content: {</text>
    <text fill="#000000" font-family="sans-serif" font-size="13" lengthAdjust="spacing" textLength="192.4482" x="717.0586" y="1885.6372">headers: &lt;transferHeaders&gt;,</text>
    <text fill="#000000" font-family="sans-serif" font-size="13" lengthAdjust="spacing" textLength="190.3091" x="717.0586" y="1900.77">payload: &lt;transferMessage&gt;</text>
    <text fill="#000000" font-family="sans-serif" font-size="13" lengthAdjust="spacing" textLength="12.4033" x="700.5293" y="1915.9028">},</text>
    <text fill="#000000" font-family="sans-serif" font-size="13" lengthAdjust="spacing" textLength="79.79" x="700.5293" y="1931.0356">metadata: {</text>
    <text fill="#000000" font-family="sans-serif" font-size="13" lengthAdjust="spacing" textLength="53.8091" x="717.0586" y="1946.1685">event: {</text>
    <text fill="#000000" font-family="sans-serif" font-size="13" lengthAdjust="spacing" textLength="74.6357" x="733.5879" y="1961.3013">id: &lt;uuid&gt;,</text>
    <text fill="#000000" font-family="sans-serif" font-size="13" lengthAdjust="spacing" textLength="197.9961" x="733.5879" y="1976.4341">responseTo: &lt;previous.uuid&gt;,</text>
    <text fill="#000000" font-family="sans-serif" font-size="13" lengthAdjust="spacing" textLength="93.1772" x="733.5879" y="1991.5669">type: position,</text>
    <text fill="#000000" font-family="sans-serif" font-size="13" lengthAdjust="spacing" textLength="103.8159" x="733.5879" y="2006.6997">action: prepare,</text>
    <text fill="#000000" font-family="sans-serif" font-size="13" lengthAdjust="spacing" textLength="168.3462" x="733.5879" y="2021.8325">createdAt: &lt;timestamp&gt;,</text>
    <text fill="#000000" font-family="sans-serif" font-size="13" lengthAdjust="spacing" textLength="49.7148" x="733.5879" y="2036.9653">state: {</text>
    <text fill="#000000" font-family="sans-serif" font-size="13" lengthAdjust="spacing" textLength="115.4004" x="750.1172" y="2052.0981">status: &quot;success&quot;,</text>
    <text fill="#000000" font-family="sans-serif" font-size="13" lengthAdjust="spacing" textLength="48.1343" x="750.1172" y="2067.231">code: 0</text>
    <text fill="#000000" font-family="sans-serif" font-size="13" lengthAdjust="spacing" textLength="8.271" x="733.5879" y="2082.3638">}</text>
    <text fill="#000000" font-family="sans-serif" font-size="13" lengthAdjust="spacing" textLength="8.271" x="717.0586" y="2097.4966">}</text>
    <text fill="#000000" font-family="sans-serif" font-size="13" lengthAdjust="spacing" textLength="8.271" x="700.5293" y="2112.6294">}</text>
    <text fill="#000000" font-family="sans-serif" font-size="13" lengthAdjust="spacing" textLength="8.271" x="684" y="2127.7622">}</text>
    <polygon fill="#181818" points="1342.0996,2157.9609,1352.0996,2161.9609,1342.0996,2165.9609,1346.0996,2161.9609" style="stroke:#181818;stroke-width:1.0;"/>
    <line style="stroke:#181818;stroke-width:1.0;" x1="673.1797" x2="1348.0996" y1="2161.9609" y2="2161.9609"/>
    <text fill="#000000" font-family="sans-serif" font-size="13" font-weight="bold" lengthAdjust="spacing" textLength="18.0908" x="680.1797" y="2156.895">29</text>
    <text fill="#000000" font-family="sans-serif" font-size="13" lengthAdjust="spacing" textLength="397.3442" x="702.2705" y="2156.895">Acheminer et publier l&apos;événement de position pour le payeur</text>
  </g>
</svg>
