<svg xmlns="http://www.w3.org/2000/svg" xmlns:xlink="http://www.w3.org/1999/xlink" contentStyleType="text/css" height="1286px" preserveAspectRatio="none" style="width:1868px;height:1286px;background:#FFFFFF;" version="1.1" viewBox="0 0 1868 1286" width="1868px" zoomAndPan="magnify">
  <title>2.1.2. Consommation par le gestionnaire de modèle de règlement</title>
  <defs/>
  <g>
    <text fill="#000000" font-family="sans-serif" font-size="14" font-weight="bold" lengthAdjust="spacing" textLength="520.3926" x="675.6516" y="27.9951">2.1.2. Consommation par le gestionnaire de modèle de règlement</text>
    <rect fill="#FFFFE0" height="1232.0469" style="stroke:#181818;stroke-width:0.5;" width="1738.5127" x="26" y="43.2969"/>
    <text fill="#000000" font-family="sans-serif" font-size="13" font-weight="bold" lengthAdjust="spacing" textLength="110.2017" x="840.1555" y="55.3638">Service central</text>
    <rect fill="#FFFFFF" height="30" style="stroke:#181818;stroke-width:1.0;" width="10" x="96.3232" y="206.4219"/>
    <rect fill="#FFFFFF" height="1060.7266" style="stroke:#181818;stroke-width:1.0;" width="10" x="549.9253" y="137.0234"/>
    <rect fill="#FFFFFF" height="557.2578" style="stroke:#181818;stroke-width:1.0;" width="10" x="1203.2808" y="568.5547"/>
    <rect fill="#FFFFFF" height="62.2656" style="stroke:#181818;stroke-width:1.0;" width="10" x="1693.4263" y="621.8203"/>
    <rect fill="#FFFFFF" height="62.2656" style="stroke:#181818;stroke-width:1.0;" width="10" x="1693.4263" y="772.4844"/>
    <rect fill="#FFFFFF" height="30" style="stroke:#181818;stroke-width:1.0;" width="10" x="1693.4263" y="888.0156"/>
    <rect fill="#FFFFFF" height="30" style="stroke:#181818;stroke-width:1.0;" width="10" x="1693.4263" y="997.4141"/>
    <rect fill="none" height="1046.7266" style="stroke:#000000;stroke-width:1.5;" width="1852.6958" x="10" y="144.0234"/>
    <rect fill="none" height="1015.5938" style="stroke:#000000;stroke-width:1.5;" width="1832.6958" x="20" y="168.1563"/>
    <rect fill="none" height="105.5313" style="stroke:#000000;stroke-width:1.5;" width="643.499" x="447.98" y="251.4219"/>
    <rect fill="none" height="74.3984" style="stroke:#000000;stroke-width:1.5;" width="623.499" x="457.98" y="275.5547"/>
    <rect fill="none" height="154.3359" style="stroke:#000000;stroke-width:1.5;" width="682.2261" x="457.98" y="370.9531"/>
    <rect fill="none" height="514.125" style="stroke:#000000;stroke-width:1.5;" width="732.4897" x="1110.2061" y="583.5547"/>
    <rect fill="none" height="391.5938" style="stroke:#000000;stroke-width:1.5;" width="712.4897" x="1120.2061" y="699.0859"/>
    <rect fill="none" height="233.9297" style="stroke:#000000;stroke-width:1.5;" width="692.4897" x="1130.2061" y="849.75"/>
    <line style="stroke:#181818;stroke-width:0.5;stroke-dasharray:5.0,5.0;" x1="101" x2="101" y1="127.0234" y2="1207.75"/>
    <line style="stroke:#181818;stroke-width:0.5;stroke-dasharray:5.0,5.0;" x1="553.98" x2="553.98" y1="127.0234" y2="1207.75"/>
    <line style="stroke:#181818;stroke-width:0.5;stroke-dasharray:5.0,5.0;" x1="1080.752" x2="1080.752" y1="127.0234" y2="1207.75"/>
    <line style="stroke:#181818;stroke-width:0.5;stroke-dasharray:5.0,5.0;" x1="1208.2061" x2="1208.2061" y1="127.0234" y2="1207.75"/>
    <line style="stroke:#181818;stroke-width:0.5;stroke-dasharray:5.0,5.0;" x1="1698.3398" x2="1698.3398" y1="127.0234" y2="1207.75"/>
    <rect fill="#E2E2F0" height="46.5938" style="stroke:#181818;stroke-width:0.5;" width="138.6465" x="34" y="75.4297"/>
    <rect fill="#E2E2F0" height="46.5938" style="stroke:#181818;stroke-width:0.5;" width="138.6465" x="30" y="79.4297"/>
    <text fill="#000000" font-family="sans-serif" font-size="14" lengthAdjust="spacing" textLength="39.5801" x="79.5332" y="99.4248">topic-</text>
    <text fill="#000000" font-family="sans-serif" font-size="14" lengthAdjust="spacing" textLength="124.6465" x="37" y="115.7217">settlement-model</text>
    <rect fill="#E2E2F0" height="46.5938" style="stroke:#181818;stroke-width:0.5;" width="138.6465" x="34" y="1206.75"/>
    <rect fill="#E2E2F0" height="46.5938" style="stroke:#181818;stroke-width:0.5;" width="138.6465" x="30" y="1210.75"/>
    <text fill="#000000" font-family="sans-serif" font-size="14" lengthAdjust="spacing" textLength="39.5801" x="79.5332" y="1230.7451">topic-</text>
    <text fill="#000000" font-family="sans-serif" font-size="14" lengthAdjust="spacing" textLength="124.6465" x="37" y="1247.042">settlement-model</text>
    <text fill="#000000" font-family="sans-serif" font-size="14" lengthAdjust="spacing" textLength="167.8906" x="467.98" y="107.4248">Gestionnaire de modèle</text>
    <text fill="#000000" font-family="sans-serif" font-size="14" lengthAdjust="spacing" textLength="94.3223" x="504.7642" y="123.7217">de règlement</text>
    <ellipse cx="554.9253" cy="78.4297" fill="#E2E2F0" rx="12" ry="12" style="stroke:#181818;stroke-width:0.5;"/>
    <polygon fill="#181818" points="550.9253,66.4297,556.9253,61.4297,554.9253,66.4297,556.9253,71.4297,550.9253,66.4297" style="stroke:#181818;stroke-width:1.0;"/>
    <text fill="#000000" font-family="sans-serif" font-size="14" lengthAdjust="spacing" textLength="167.8906" x="467.98" y="1219.7451">Gestionnaire de modèle</text>
    <text fill="#000000" font-family="sans-serif" font-size="14" lengthAdjust="spacing" textLength="94.3223" x="504.7642" y="1236.042">de règlement</text>
    <ellipse cx="554.9253" cy="1255.3438" fill="#E2E2F0" rx="12" ry="12" style="stroke:#181818;stroke-width:0.5;"/>
    <polygon fill="#181818" points="550.9253,1243.3438,556.9253,1238.3438,554.9253,1243.3438,556.9253,1248.3438,550.9253,1243.3438" style="stroke:#181818;stroke-width:1.0;"/>
    <rect fill="#E2E2F0" height="30.2969" style="stroke:#181818;stroke-width:0.5;" width="93.4541" x="1036.752" y="91.7266"/>
    <rect fill="#E2E2F0" height="30.2969" style="stroke:#181818;stroke-width:0.5;" width="93.4541" x="1032.752" y="95.7266"/>
    <text fill="#000000" font-family="sans-serif" font-size="14" lengthAdjust="spacing" textLength="79.4541" x="1039.752" y="115.7217">topic-event</text>
    <rect fill="#E2E2F0" height="30.2969" style="stroke:#181818;stroke-width:0.5;" width="93.4541" x="1036.752" y="1206.75"/>
    <rect fill="#E2E2F0" height="30.2969" style="stroke:#181818;stroke-width:0.5;" width="93.4541" x="1032.752" y="1210.75"/>
    <text fill="#000000" font-family="sans-serif" font-size="14" lengthAdjust="spacing" textLength="79.4541" x="1039.752" y="1230.7451">topic-event</text>
    <text fill="#000000" font-family="sans-serif" font-size="14" lengthAdjust="spacing" textLength="130.1494" x="1140.2061" y="123.7217">DAO de règlement</text>
    <ellipse cx="1208.2808" cy="94.7266" fill="#E2E2F0" rx="12" ry="12" style="stroke:#181818;stroke-width:0.5;"/>
    <line style="stroke:#181818;stroke-width:0.5;" x1="1196.2808" x2="1220.2808" y1="108.7266" y2="108.7266"/>
    <text fill="#000000" font-family="sans-serif" font-size="14" lengthAdjust="spacing" textLength="130.1494" x="1140.2061" y="1219.7451">DAO de règlement</text>
    <ellipse cx="1208.2808" cy="1239.0469" fill="#E2E2F0" rx="12" ry="12" style="stroke:#181818;stroke-width:0.5;"/>
    <line style="stroke:#181818;stroke-width:0.5;" x1="1196.2808" x2="1220.2808" y1="1253.0469" y2="1253.0469"/>
    <text fill="#000000" font-family="sans-serif" font-size="14" lengthAdjust="spacing" textLength="118.1729" x="1636.3398" y="123.7217">Stockage central</text>
    <path d="M1680.4263,74.7266 C1680.4263,64.7266 1698.4263,64.7266 1698.4263,64.7266 C1698.4263,64.7266 1716.4263,64.7266 1716.4263,74.7266 L1716.4263,100.7266 C1716.4263,110.7266 1698.4263,110.7266 1698.4263,110.7266 C1698.4263,110.7266 1680.4263,110.7266 1680.4263,100.7266 L1680.4263,74.7266 " fill="#E2E2F0" style="stroke:#181818;stroke-width:1.5;"/>
    <path d="M1680.4263,74.7266 C1680.4263,84.7266 1698.4263,84.7266 1698.4263,84.7266 C1698.4263,84.7266 1716.4263,84.7266 1716.4263,74.7266 " fill="none" style="stroke:#181818;stroke-width:1.5;"/>
    <text fill="#000000" font-family="sans-serif" font-size="14" lengthAdjust="spacing" textLength="118.1729" x="1636.3398" y="1219.7451">Stockage central</text>
    <path d="M1680.4263,1233.0469 C1680.4263,1223.0469 1698.4263,1223.0469 1698.4263,1223.0469 C1698.4263,1223.0469 1716.4263,1223.0469 1716.4263,1233.0469 L1716.4263,1259.0469 C1716.4263,1269.0469 1698.4263,1269.0469 1698.4263,1269.0469 C1698.4263,1269.0469 1680.4263,1269.0469 1680.4263,1259.0469 L1680.4263,1233.0469 " fill="#E2E2F0" style="stroke:#181818;stroke-width:1.5;"/>
    <path d="M1680.4263,1233.0469 C1680.4263,1243.0469 1698.4263,1243.0469 1698.4263,1243.0469 C1698.4263,1243.0469 1716.4263,1243.0469 1716.4263,1233.0469 " fill="none" style="stroke:#181818;stroke-width:1.5;"/>
    <rect fill="#FFFFFF" height="30" style="stroke:#181818;stroke-width:1.0;" width="10" x="96.3232" y="206.4219"/>
    <rect fill="#FFFFFF" height="1060.7266" style="stroke:#181818;stroke-width:1.0;" width="10" x="549.9253" y="137.0234"/>
    <rect fill="#FFFFFF" height="557.2578" style="stroke:#181818;stroke-width:1.0;" width="10" x="1203.2808" y="568.5547"/>
    <rect fill="#FFFFFF" height="62.2656" style="stroke:#181818;stroke-width:1.0;" width="10" x="1693.4263" y="621.8203"/>
    <rect fill="#FFFFFF" height="62.2656" style="stroke:#181818;stroke-width:1.0;" width="10" x="1693.4263" y="772.4844"/>
    <rect fill="#FFFFFF" height="30" style="stroke:#181818;stroke-width:1.0;" width="10" x="1693.4263" y="888.0156"/>
    <rect fill="#FFFFFF" height="30" style="stroke:#181818;stroke-width:1.0;" width="10" x="1693.4263" y="997.4141"/>
    <path d="M10,144.0234 L468.0166,144.0234 L468.0166,151.1563 L458.0166,161.1563 L10,161.1563 L10,144.0234 " fill="#EEEEEE" style="stroke:#000000;stroke-width:1.5;"/>
    <rect fill="none" height="1046.7266" style="stroke:#000000;stroke-width:1.5;" width="1852.6958" x="10" y="144.0234"/>
    <text fill="#000000" font-family="sans-serif" font-size="13" font-weight="bold" lengthAdjust="spacing" textLength="413.0166" x="25" y="157.0903">Consommation du gestionnaire de modèle de règlement</text>
    <path d="M20,168.1563 L84.4429,168.1563 L84.4429,175.2891 L74.4429,185.2891 L20,185.2891 L20,168.1563 " fill="#EEEEEE" style="stroke:#000000;stroke-width:1.5;"/>
    <rect fill="none" height="1015.5938" style="stroke:#000000;stroke-width:1.5;" width="1832.6958" x="20" y="168.1563"/>
    <text fill="#000000" font-family="sans-serif" font-size="13" font-weight="bold" lengthAdjust="spacing" textLength="19.4429" x="35" y="181.2231">alt</text>
    <text fill="#000000" font-family="sans-serif" font-size="11" font-weight="bold" lengthAdjust="spacing" textLength="207.9526" x="99.4429" y="180.3667">[Consommer un message unique]</text>
    <polygon fill="#181818" points="117.3232,202.4219,107.3232,206.4219,117.3232,210.4219,113.3232,206.4219" style="stroke:#181818;stroke-width:1.0;"/>
    <line style="stroke:#181818;stroke-width:1.0;" x1="111.3232" x2="548.9253" y1="206.4219" y2="206.4219"/>
    <text fill="#000000" font-family="sans-serif" font-size="13" font-weight="bold" lengthAdjust="spacing" textLength="9.0454" x="123.3232" y="201.356">1</text>
    <text fill="#000000" font-family="sans-serif" font-size="13" lengthAdjust="spacing" textLength="411.5566" x="136.3687" y="201.356">Consommer le message d&apos;événement de modèle de règlement</text>
    <path d="M447.98,251.4219 L534.9316,251.4219 L534.9316,258.5547 L524.9316,268.5547 L447.98,268.5547 L447.98,251.4219 " fill="#EEEEEE" style="stroke:#000000;stroke-width:1.5;"/>
    <rect fill="none" height="105.5313" style="stroke:#000000;stroke-width:1.5;" width="643.499" x="447.98" y="251.4219"/>
    <text fill="#000000" font-family="sans-serif" font-size="13" font-weight="bold" lengthAdjust="spacing" textLength="41.9517" x="462.98" y="264.4888">break</text>
    <path d="M457.98,275.5547 L650.2329,275.5547 L650.2329,282.6875 L640.2329,292.6875 L457.98,292.6875 L457.98,275.5547 " fill="#EEEEEE" style="stroke:#000000;stroke-width:1.5;"/>
    <rect fill="none" height="74.3984" style="stroke:#000000;stroke-width:1.5;" width="623.499" x="457.98" y="275.5547"/>
    <text fill="#000000" font-family="sans-serif" font-size="13" font-weight="bold" lengthAdjust="spacing" textLength="147.2529" x="472.98" y="288.6216">Valider l&apos;événement</text>
    <line style="stroke:#181818;stroke-width:1.0;" x1="559.9253" x2="601.9253" y1="328.9531" y2="328.9531"/>
    <line style="stroke:#181818;stroke-width:1.0;" x1="601.9253" x2="601.9253" y1="328.9531" y2="341.9531"/>
    <line style="stroke:#181818;stroke-width:1.0;" x1="560.9253" x2="601.9253" y1="341.9531" y2="341.9531"/>
    <polygon fill="#181818" points="569.9253,324.9531,559.9253,328.9531,569.9253,332.9531,565.9253,328.9531" style="stroke:#181818;stroke-width:1.0;"/>
    <polygon fill="#181818" points="570.9253,337.9531,560.9253,341.9531,570.9253,345.9531,566.9253,341.9531" style="stroke:#181818;stroke-width:1.0;"/>
    <text fill="#000000" font-family="sans-serif" font-size="13" font-weight="bold" lengthAdjust="spacing" textLength="9.0454" x="566.9253" y="316.3208">2</text>
    <text fill="#000000" font-family="sans-serif" font-size="13" lengthAdjust="spacing" textLength="479.5083" x="579.9707" y="308.7544">Valider l&apos;événement — règle : type == &apos;setmodel&apos; &amp;&amp; action == &apos;commit&apos;</text>
    <text fill="#FF0000" font-family="sans-serif" font-size="13" font-weight="bold" lengthAdjust="spacing" textLength="117.9902" x="579.9707" y="323.8872">Codes d&apos;erreur :</text>
    <text fill="#FF0000" font-family="sans-serif" font-size="13" lengthAdjust="spacing" textLength="33.084" x="702.0933" y="323.8872">2001</text>
    <path d="M457.98,370.9531 L792.6172,370.9531 L792.6172,378.0859 L782.6172,388.0859 L457.98,388.0859 L457.98,370.9531 " fill="#EEEEEE" style="stroke:#000000;stroke-width:1.5;"/>
    <rect fill="none" height="154.3359" style="stroke:#000000;stroke-width:1.5;" width="682.2261" x="457.98" y="370.9531"/>
    <text fill="#000000" font-family="sans-serif" font-size="13" font-weight="bold" lengthAdjust="spacing" textLength="289.6372" x="472.98" y="384.02">Persister les informations d&apos;événement</text>
    <polygon fill="#181818" points="1069.479,430.2188,1079.479,434.2188,1069.479,438.2188,1073.479,434.2188" style="stroke:#181818;stroke-width:1.0;"/>
    <line style="stroke:#181818;stroke-width:1.0;" x1="559.9253" x2="1075.479" y1="434.2188" y2="434.2188"/>
    <text fill="#000000" font-family="sans-serif" font-size="13" font-weight="bold" lengthAdjust="spacing" textLength="9.0454" x="566.9253" y="429.1528">3</text>
    <text fill="#000000" font-family="sans-serif" font-size="13" lengthAdjust="spacing" textLength="243.458" x="579.9707" y="429.1528">Publier les informations d&apos;événement</text>
    <rect fill="none" height="53.0703" style="stroke:#000000;stroke-width:1.5;" width="668.2261" x="464.98" y="442.2188"/>
    <path d="M464.98,442.2188 L529.98,442.2188 L529.98,449.2188 L519.98,459.2188 L464.98,459.2188 L464.98,442.2188 " fill="#EEEEEE" style="stroke:#000000;stroke-width:2.0;"/>
    <text fill="#000000" font-family="sans-serif" font-size="13" font-weight="bold" lengthAdjust="spacing" textLength="20.8838" x="477.98" y="456.2856">ref</text>
    <text fill="#000000" font-family="sans-serif" font-size="12" lengthAdjust="spacing" textLength="277.5586" x="660.3137" y="474.3574">Consommation du gestionnaire d&apos;événements</text>
    <text fill="#000000" font-family="sans-serif" font-size="12" lengthAdjust="spacing" textLength="3.8145" x="797.1858" y="488.3262"> </text>
    <polygon fill="#181818" points="1191.2808,564.5547,1201.2808,568.5547,1191.2808,572.5547,1195.2808,568.5547" style="stroke:#181818;stroke-width:1.0;"/>
    <line style="stroke:#181818;stroke-width:1.0;" x1="559.9253" x2="1197.2808" y1="568.5547" y2="568.5547"/>
    <text fill="#000000" font-family="sans-serif" font-size="13" font-weight="bold" lengthAdjust="spacing" textLength="9.0454" x="566.9253" y="555.9224">4</text>
    <text fill="#000000" font-family="sans-serif" font-size="13" lengthAdjust="spacing" textLength="283.772" x="579.9707" y="548.356">Attribuer le(s) état(s) de transferParticipant</text>
    <text fill="#FF0000" font-family="sans-serif" font-size="13" font-weight="bold" lengthAdjust="spacing" textLength="110.2524" x="579.9707" y="563.4888">Code d&apos;erreur :</text>
    <text fill="#FF0000" font-family="sans-serif" font-size="13" lengthAdjust="spacing" textLength="33.084" x="694.3555" y="563.4888">2003</text>
    <path d="M1110.2061,583.5547 L1284.8506,583.5547 L1284.8506,590.6875 L1274.8506,600.6875 L1110.2061,600.6875 L1110.2061,583.5547 " fill="#EEEEEE" style="stroke:#000000;stroke-width:1.5;"/>
    <rect fill="none" height="514.125" style="stroke:#000000;stroke-width:1.5;" width="732.4897" x="1110.2061" y="583.5547"/>
    <text fill="#0000FF" font-family="sans-serif" font-size="13" font-weight="bold" lengthAdjust="spacing" textLength="129.6445" x="1125.2061" y="596.6216">TRANSACTION BD</text>
    <polygon fill="#181818" points="1681.4263,617.8203,1691.4263,621.8203,1681.4263,625.8203,1685.4263,621.8203" style="stroke:#181818;stroke-width:1.0;"/>
    <line style="stroke:#181818;stroke-width:1.0;" x1="1213.2808" x2="1687.4263" y1="621.8203" y2="621.8203"/>
    <text fill="#000000" font-family="sans-serif" font-size="13" font-weight="bold" lengthAdjust="spacing" textLength="9.0454" x="1220.2808" y="616.7544">5</text>
    <text fill="#000000" font-family="sans-serif" font-size="13" lengthAdjust="spacing" textLength="269.0962" x="1233.3262" y="616.7544">Récupérer les entrées transferParticipant</text>
    <polygon fill="#FFFFE0" points="1635,634.8203,1760,634.8203,1770,645.8203,1760,657.8203,1635,657.8203,1625,645.8203,1635,634.8203" style="stroke:#181818;stroke-width:0.5;"/>
    <text fill="#000000" font-family="sans-serif" font-size="13" lengthAdjust="spacing" textLength="121.5132" x="1637" y="650.8872">transferParticipant</text>
    <polygon fill="#181818" points="1224.2808,680.0859,1214.2808,684.0859,1224.2808,688.0859,1220.2808,684.0859" style="stroke:#181818;stroke-width:1.0;"/>
    <line style="stroke:#181818;stroke-width:1.0;stroke-dasharray:2.0,2.0;" x1="1218.2808" x2="1697.4263" y1="684.0859" y2="684.0859"/>
    <text fill="#000000" font-family="sans-serif" font-size="13" font-weight="bold" lengthAdjust="spacing" textLength="9.0454" x="1230.2808" y="679.02">6</text>
    <text fill="#000000" font-family="sans-serif" font-size="13" lengthAdjust="spacing" textLength="61.9531" x="1243.3262" y="679.02">Renvoyer</text>
    <text fill="#000000" font-family="sans-serif" font-size="13" font-weight="bold" lengthAdjust="spacing" textLength="199.2847" x="1309.4116" y="679.02">transferParticipantRecords</text>
    <path d="M1120.2061,699.0859 L1196.8301,699.0859 L1196.8301,706.2188 L1186.8301,716.2188 L1120.2061,716.2188 L1120.2061,699.0859 " fill="#EEEEEE" style="stroke:#000000;stroke-width:1.5;"/>
    <rect fill="none" height="391.5938" style="stroke:#000000;stroke-width:1.5;" width="712.4897" x="1120.2061" y="699.0859"/>
    <text fill="#000000" font-family="sans-serif" font-size="13" font-weight="bold" lengthAdjust="spacing" textLength="31.624" x="1135.2061" y="712.1528">loop</text>
    <text fill="#000000" font-family="sans-serif" font-size="11" font-weight="bold" lengthAdjust="spacing" textLength="183.4873" x="1211.8301" y="711.2964">[for each transferParticipant]</text>
    <path d="M1218,721.2188 L1218,746.2188 L1639,746.2188 L1639,731.2188 L1629,721.2188 L1218,721.2188 " fill="#D3D3D3" style="stroke:#181818;stroke-width:0.5;"/>
    <path d="M1629,721.2188 L1629,731.2188 L1639,731.2188 L1629,721.2188 " fill="#D3D3D3" style="stroke:#181818;stroke-width:0.5;"/>
    <text fill="#000000" font-family="sans-serif" font-size="13" lengthAdjust="spacing" textLength="400.5371" x="1224" y="738.2856">La mise en cache des modèles de règlement est à considérer</text>
    <polygon fill="#181818" points="1681.4263,768.4844,1691.4263,772.4844,1681.4263,776.4844,1685.4263,772.4844" style="stroke:#181818;stroke-width:1.0;"/>
    <line style="stroke:#181818;stroke-width:1.0;" x1="1213.2808" x2="1687.4263" y1="772.4844" y2="772.4844"/>
    <text fill="#000000" font-family="sans-serif" font-size="13" font-weight="bold" lengthAdjust="spacing" textLength="9.0454" x="1220.2808" y="767.4185">7</text>
    <text fill="#000000" font-family="sans-serif" font-size="13" lengthAdjust="spacing" textLength="448.1001" x="1233.3262" y="767.4185">Obtenir le modèle de règlement par devise et écriture de grand livre</text>
    <polygon fill="#FFFFE0" points="1641,785.4844,1754,785.4844,1764,796.4844,1754,808.4844,1641,808.4844,1631,796.4844,1641,785.4844" style="stroke:#181818;stroke-width:0.5;"/>
    <text fill="#000000" font-family="sans-serif" font-size="13" lengthAdjust="spacing" textLength="109.605" x="1643" y="801.5513">settlementModel</text>
    <polygon fill="#181818" points="1224.2808,830.75,1214.2808,834.75,1224.2808,838.75,1220.2808,834.75" style="stroke:#181818;stroke-width:1.0;"/>
    <line style="stroke:#181818;stroke-width:1.0;stroke-dasharray:2.0,2.0;" x1="1218.2808" x2="1697.4263" y1="834.75" y2="834.75"/>
    <text fill="#000000" font-family="sans-serif" font-size="13" font-weight="bold" lengthAdjust="spacing" textLength="9.0454" x="1230.2808" y="829.6841">8</text>
    <text fill="#000000" font-family="sans-serif" font-size="13" lengthAdjust="spacing" textLength="61.9531" x="1243.3262" y="829.6841">Renvoyer</text>
    <text fill="#000000" font-family="sans-serif" font-size="13" font-weight="bold" lengthAdjust="spacing" textLength="124.5347" x="1309.4116" y="829.6841">settlementModel</text>
    <path d="M1130.2061,849.75 L1199.6572,849.75 L1199.6572,856.8828 L1189.6572,866.8828 L1130.2061,866.8828 L1130.2061,849.75 " fill="#EEEEEE" style="stroke:#000000;stroke-width:1.5;"/>
    <rect fill="none" height="233.9297" style="stroke:#000000;stroke-width:1.5;" width="692.4897" x="1130.2061" y="849.75"/>
    <text fill="#000000" font-family="sans-serif" font-size="13" font-weight="bold" lengthAdjust="spacing" textLength="24.4512" x="1145.2061" y="862.8169">opt</text>
    <text fill="#000000" font-family="sans-serif" font-size="11" font-weight="bold" lengthAdjust="spacing" textLength="537.5122" x="1214.6572" y="861.9604">[settlementModel.delay == &apos;IMMEDIATE&apos; &amp;&amp; settlementModel.granularity == &apos;GROSS&apos;]</text>
    <polygon fill="#181818" points="1681.4263,884.0156,1691.4263,888.0156,1681.4263,892.0156,1685.4263,888.0156" style="stroke:#181818;stroke-width:1.0;"/>
    <line style="stroke:#181818;stroke-width:1.0;" x1="1213.2808" x2="1687.4263" y1="888.0156" y2="888.0156"/>
    <text fill="#000000" font-family="sans-serif" font-size="13" font-weight="bold" lengthAdjust="spacing" textLength="9.0454" x="1220.2808" y="882.9497">9</text>
    <text fill="#000000" font-family="sans-serif" font-size="13" lengthAdjust="spacing" textLength="408.4463" x="1233.3262" y="882.9497">Définir les états : CLOSED-&gt;PENDING_SETTLEMENT-&gt;SETTLED</text>
    <polygon fill="#FFFFE0" points="1593,931.0156,1802,931.0156,1812,950.0156,1802,969.0156,1593,969.0156,1583,950.0156,1593,931.0156" style="stroke:#181818;stroke-width:0.5;"/>
    <text fill="#000000" font-family="sans-serif" font-size="13" lengthAdjust="spacing" textLength="205.6958" x="1595" y="947.0825">transferParticipantStateChange</text>
    <text fill="#000000" font-family="sans-serif" font-size="13" lengthAdjust="spacing" textLength="121.5132" x="1595" y="962.2153">transferParticipant</text>
    <line style="stroke:#000000;stroke-width:1.0;stroke-dasharray:2.0,2.0;" x1="1130.2061" x2="1822.6958" y1="975.2813" y2="975.2813"/>
    <polygon fill="#181818" points="1681.4263,993.4141,1691.4263,997.4141,1681.4263,1001.4141,1685.4263,997.4141" style="stroke:#181818;stroke-width:1.0;"/>
    <line style="stroke:#181818;stroke-width:1.0;" x1="1213.2808" x2="1687.4263" y1="997.4141" y2="997.4141"/>
    <text fill="#000000" font-family="sans-serif" font-size="13" font-weight="bold" lengthAdjust="spacing" textLength="18.0908" x="1220.2808" y="992.3481">10</text>
    <text fill="#000000" font-family="sans-serif" font-size="13" lengthAdjust="spacing" textLength="129.5239" x="1242.3716" y="992.3481">Définir l&apos;état : OPEN</text>
    <polygon fill="#FFFFE0" points="1593,1040.4141,1802,1040.4141,1812,1059.4141,1802,1078.4141,1593,1078.4141,1583,1059.4141,1593,1040.4141" style="stroke:#181818;stroke-width:0.5;"/>
    <text fill="#000000" font-family="sans-serif" font-size="13" lengthAdjust="spacing" textLength="205.6958" x="1595" y="1056.481">transferParticipantStateChange</text>
    <text fill="#000000" font-family="sans-serif" font-size="13" lengthAdjust="spacing" textLength="121.5132" x="1595" y="1071.6138">transferParticipant</text>
    <polygon fill="#181818" points="570.9253,1121.8125,560.9253,1125.8125,570.9253,1129.8125,566.9253,1125.8125" style="stroke:#181818;stroke-width:1.0;"/>
    <line style="stroke:#181818;stroke-width:1.0;stroke-dasharray:2.0,2.0;" x1="564.9253" x2="1207.2808" y1="1125.8125" y2="1125.8125"/>
    <text fill="#000000" font-family="sans-serif" font-size="13" font-weight="bold" lengthAdjust="spacing" textLength="18.0908" x="576.9253" y="1120.7466">11</text>
    <text fill="#000000" font-family="sans-serif" font-size="13" lengthAdjust="spacing" textLength="125.9058" x="599.0161" y="1120.7466">Renvoyer le succès</text>
    <line style="stroke:#000000;stroke-width:1.0;stroke-dasharray:2.0,2.0;" x1="20" x2="1852.6958" y1="1134.8125" y2="1134.8125"/>
    <text fill="#000000" font-family="sans-serif" font-size="11" font-weight="bold" lengthAdjust="spacing" textLength="228.6904" x="25" y="1145.0229">[Consommer des messages groupés]</text>
    <path d="M332,1153.6172 L332,1178.6172 L544,1178.6172 L544,1163.6172 L534,1153.6172 L332,1153.6172 " fill="#ADD8E6" style="stroke:#181818;stroke-width:0.5;"/>
    <path d="M534,1153.6172 L534,1163.6172 L544,1163.6172 L534,1153.6172 " fill="#ADD8E6" style="stroke:#181818;stroke-width:0.5;"/>
    <text fill="#000000" font-family="sans-serif" font-size="13" lengthAdjust="spacing" textLength="191.2231" x="338" y="1170.6841">À livrer dans une future story</text>
  </g>
</svg>
