<svg xmlns="http://www.w3.org/2000/svg" xmlns:xlink="http://www.w3.org/1999/xlink" contentStyleType="text/css" height="1588px" preserveAspectRatio="none" style="width:2297px;height:1588px;background:#FFFFFF;" version="1.1" viewBox="0 0 2297 1588" width="2297px" zoomAndPan="magnify">
  <title>1.1.2.b. Consommation par le gestionnaire de position (messages groupés)</title>
  <defs/>
  <g>
    <text fill="#000000" font-family="sans-serif" font-size="14" font-weight="bold" lengthAdjust="spacing" textLength="595.793" x="852.3647" y="27.9951">1.1.2.b. Consommation par le gestionnaire de position (messages groupés)</text>
    <rect fill="#FFFFE0" height="1532.0391" style="stroke:#181818;stroke-width:0.5;" width="2207.7051" x="41" y="43.2969"/>
    <text fill="#000000" font-family="sans-serif" font-size="13" font-weight="bold" lengthAdjust="spacing" textLength="110.2017" x="1089.7517" y="55.3638">Service central</text>
    <rect fill="#FFFFFF" height="30" style="stroke:#181818;stroke-width:1.0;" width="10" x="126.687" y="215.125"/>
    <rect fill="#FFFFFF" height="1365.3125" style="stroke:#181818;stroke-width:1.0;" width="10" x="638.8271" y="134.7266"/>
    <rect fill="#FFFFFF" height="30" style="stroke:#181818;stroke-width:1.0;" width="10" x="1370.7466" y="1448.0391"/>
    <rect fill="#FFFFFF" height="121.3984" style="stroke:#181818;stroke-width:1.0;" width="10" x="1795.2437" y="490.8594"/>
    <rect fill="#FFFFFF" height="121.3984" style="stroke:#181818;stroke-width:1.0;" width="10" x="1795.2437" y="725.6563"/>
    <rect fill="#FFFFFF" height="121.3984" style="stroke:#181818;stroke-width:1.0;" width="10" x="1916.1616" y="907.3203"/>
    <rect fill="#FFFFFF" height="30" style="stroke:#181818;stroke-width:1.0;" width="10" x="2177.6187" y="519.9922"/>
    <rect fill="#FFFFFF" height="30" style="stroke:#181818;stroke-width:1.0;" width="10" x="2177.6187" y="754.7891"/>
    <rect fill="#FFFFFF" height="30" style="stroke:#181818;stroke-width:1.0;" width="10" x="2177.6187" y="936.4531"/>
    <rect fill="none" height="1351.3125" style="stroke:#000000;stroke-width:1.5;" width="2282.5225" x="9" y="141.7266"/>
    <rect fill="none" height="154.3359" style="stroke:#000000;stroke-width:1.5;" width="1050.7798" x="493.2129" y="260.125"/>
    <rect fill="none" height="1057.5781" style="stroke:#000000;stroke-width:1.5;" width="1798.3096" x="483.2129" y="428.4609"/>
    <rect fill="none" height="402.4609" style="stroke:#000000;stroke-width:1.5;" width="1762.2065" x="493.2129" y="452.5938"/>
    <rect fill="none" height="167.6641" style="stroke:#000000;stroke-width:1.5;" width="1778.3096" x="493.2129" y="869.0547"/>
    <line style="stroke:#181818;stroke-width:0.5;stroke-dasharray:5.0,5.0;" x1="131" x2="131" y1="124.7266" y2="1510.0391"/>
    <line style="stroke:#181818;stroke-width:0.5;stroke-dasharray:5.0,5.0;" x1="643.2129" x2="643.2129" y1="124.7266" y2="1510.0391"/>
    <line style="stroke:#181818;stroke-width:0.5;stroke-dasharray:5.0,5.0;" x1="1375.2495" x2="1375.2495" y1="124.7266" y2="1510.0391"/>
    <line style="stroke:#181818;stroke-width:0.5;stroke-dasharray:5.0,5.0;" x1="1489.2437" x2="1489.2437" y1="124.7266" y2="1510.0391"/>
    <line style="stroke:#181818;stroke-width:0.5;stroke-dasharray:5.0,5.0;" x1="1636.9927" x2="1636.9927" y1="124.7266" y2="1510.0391"/>
    <line style="stroke:#181818;stroke-width:0.5;stroke-dasharray:5.0,5.0;" x1="1799.6284" x2="1799.6284" y1="124.7266" y2="1510.0391"/>
    <line style="stroke:#181818;stroke-width:0.5;stroke-dasharray:5.0,5.0;" x1="1920.8589" x2="1920.8589" y1="124.7266" y2="1510.0391"/>
    <line style="stroke:#181818;stroke-width:0.5;stroke-dasharray:5.0,5.0;" x1="2182.5322" x2="2182.5322" y1="124.7266" y2="1510.0391"/>
    <rect fill="#E2E2F0" height="30.2969" style="stroke:#181818;stroke-width:0.5;" width="169.374" x="49" y="89.4297"/>
    <rect fill="#E2E2F0" height="30.2969" style="stroke:#181818;stroke-width:0.5;" width="169.374" x="45" y="93.4297"/>
    <text fill="#000000" font-family="sans-serif" font-size="14" lengthAdjust="spacing" textLength="155.374" x="52" y="113.4248">topic-transfer-position</text>
    <rect fill="#E2E2F0" height="30.2969" style="stroke:#181818;stroke-width:0.5;" width="169.374" x="49" y="1509.0391"/>
    <rect fill="#E2E2F0" height="30.2969" style="stroke:#181818;stroke-width:0.5;" width="169.374" x="45" y="1513.0391"/>
    <text fill="#000000" font-family="sans-serif" font-size="14" lengthAdjust="spacing" textLength="155.374" x="52" y="1533.0342">topic-transfer-position</text>
    <text fill="#000000" font-family="sans-serif" font-size="14" lengthAdjust="spacing" textLength="275.2285" x="503.2129" y="121.4248">Gestionnaire d&apos;événements de position</text>
    <ellipse cx="643.8271" cy="92.4297" fill="#E2E2F0" rx="12" ry="12" style="stroke:#181818;stroke-width:0.5;"/>
    <polygon fill="#181818" points="639.8271,80.4297,645.8271,75.4297,643.8271,80.4297,645.8271,85.4297,639.8271,80.4297" style="stroke:#181818;stroke-width:1.0;"/>
    <text fill="#000000" font-family="sans-serif" font-size="14" lengthAdjust="spacing" textLength="275.2285" x="503.2129" y="1522.0342">Gestionnaire d&apos;événements de position</text>
    <ellipse cx="643.8271" cy="1541.3359" fill="#E2E2F0" rx="12" ry="12" style="stroke:#181818;stroke-width:0.5;"/>
    <polygon fill="#181818" points="639.8271,1529.3359,645.8271,1524.3359,643.8271,1529.3359,645.8271,1534.3359,639.8271,1529.3359" style="stroke:#181818;stroke-width:1.0;"/>
    <rect fill="#E2E2F0" height="30.2969" style="stroke:#181818;stroke-width:0.5;" width="114.9941" x="1320.2495" y="89.4297"/>
    <rect fill="#E2E2F0" height="30.2969" style="stroke:#181818;stroke-width:0.5;" width="114.9941" x="1316.2495" y="93.4297"/>
    <text fill="#000000" font-family="sans-serif" font-size="14" lengthAdjust="spacing" textLength="100.9941" x="1323.2495" y="113.4248">Transfer-Topic</text>
    <rect fill="#E2E2F0" height="30.2969" style="stroke:#181818;stroke-width:0.5;" width="114.9941" x="1320.2495" y="1509.0391"/>
    <rect fill="#E2E2F0" height="30.2969" style="stroke:#181818;stroke-width:0.5;" width="114.9941" x="1316.2495" y="1513.0391"/>
    <text fill="#000000" font-family="sans-serif" font-size="14" lengthAdjust="spacing" textLength="100.9941" x="1323.2495" y="1533.0342">Transfer-Topic</text>
    <text fill="#000000" font-family="sans-serif" font-size="14" lengthAdjust="spacing" textLength="82.749" x="1445.2437" y="121.4248">Event-Topic</text>
    <ellipse cx="1489.6182" cy="92.4297" fill="#E2E2F0" rx="12" ry="12" style="stroke:#181818;stroke-width:0.5;"/>
    <line style="stroke:#181818;stroke-width:0.5;" x1="1477.6182" x2="1501.6182" y1="106.4297" y2="106.4297"/>
    <text fill="#000000" font-family="sans-serif" font-size="14" lengthAdjust="spacing" textLength="82.749" x="1445.2437" y="1522.0342">Event-Topic</text>
    <ellipse cx="1489.6182" cy="1541.3359" fill="#E2E2F0" rx="12" ry="12" style="stroke:#181818;stroke-width:0.5;"/>
    <line style="stroke:#181818;stroke-width:0.5;" x1="1477.6182" x2="1501.6182" y1="1555.3359" y2="1555.3359"/>
    <rect fill="#E2E2F0" height="30.2969" style="stroke:#181818;stroke-width:0.5;" width="182.6357" x="1547.9927" y="89.4297"/>
    <rect fill="#E2E2F0" height="30.2969" style="stroke:#181818;stroke-width:0.5;" width="182.6357" x="1543.9927" y="93.4297"/>
    <text fill="#000000" font-family="sans-serif" font-size="14" lengthAdjust="spacing" textLength="168.6357" x="1550.9927" y="113.4248">Rubrique de notification</text>
    <rect fill="#E2E2F0" height="30.2969" style="stroke:#181818;stroke-width:0.5;" width="182.6357" x="1547.9927" y="1509.0391"/>
    <rect fill="#E2E2F0" height="30.2969" style="stroke:#181818;stroke-width:0.5;" width="182.6357" x="1543.9927" y="1513.0391"/>
    <text fill="#000000" font-family="sans-serif" font-size="14" lengthAdjust="spacing" textLength="168.6357" x="1550.9927" y="1533.0342">Rubrique de notification</text>
    <text fill="#000000" font-family="sans-serif" font-size="14" lengthAdjust="spacing" textLength="113.2305" x="1740.6284" y="121.4248">DAO de position</text>
    <ellipse cx="1800.2437" cy="92.4297" fill="#E2E2F0" rx="12" ry="12" style="stroke:#181818;stroke-width:0.5;"/>
    <line style="stroke:#181818;stroke-width:0.5;" x1="1788.2437" x2="1812.2437" y1="106.4297" y2="106.4297"/>
    <text fill="#000000" font-family="sans-serif" font-size="14" lengthAdjust="spacing" textLength="113.2305" x="1740.6284" y="1522.0342">DAO de position</text>
    <ellipse cx="1800.2437" cy="1541.3359" fill="#E2E2F0" rx="12" ry="12" style="stroke:#181818;stroke-width:0.5;"/>
    <line style="stroke:#181818;stroke-width:0.5;" x1="1788.2437" x2="1812.2437" y1="1555.3359" y2="1555.3359"/>
    <text fill="#000000" font-family="sans-serif" font-size="14" lengthAdjust="spacing" textLength="96.6055" x="1869.8589" y="121.4248">DAO transfert</text>
    <ellipse cx="1921.1616" cy="92.4297" fill="#E2E2F0" rx="12" ry="12" style="stroke:#181818;stroke-width:0.5;"/>
    <line style="stroke:#181818;stroke-width:0.5;" x1="1909.1616" x2="1933.1616" y1="106.4297" y2="106.4297"/>
    <text fill="#000000" font-family="sans-serif" font-size="14" lengthAdjust="spacing" textLength="96.6055" x="1869.8589" y="1522.0342">DAO transfert</text>
    <ellipse cx="1921.1616" cy="1541.3359" fill="#E2E2F0" rx="12" ry="12" style="stroke:#181818;stroke-width:0.5;"/>
    <line style="stroke:#181818;stroke-width:0.5;" x1="1909.1616" x2="1933.1616" y1="1555.3359" y2="1555.3359"/>
    <text fill="#000000" font-family="sans-serif" font-size="14" lengthAdjust="spacing" textLength="118.1729" x="2120.5322" y="121.4248">Stockage central</text>
    <path d="M2164.6187,72.4297 C2164.6187,62.4297 2182.6187,62.4297 2182.6187,62.4297 C2182.6187,62.4297 2200.6187,62.4297 2200.6187,72.4297 L2200.6187,98.4297 C2200.6187,108.4297 2182.6187,108.4297 2182.6187,108.4297 C2182.6187,108.4297 2164.6187,108.4297 2164.6187,98.4297 L2164.6187,72.4297 " fill="#E2E2F0" style="stroke:#181818;stroke-width:1.5;"/>
    <path d="M2164.6187,72.4297 C2164.6187,82.4297 2182.6187,82.4297 2182.6187,82.4297 C2182.6187,82.4297 2200.6187,82.4297 2200.6187,72.4297 " fill="none" style="stroke:#181818;stroke-width:1.5;"/>
    <text fill="#000000" font-family="sans-serif" font-size="14" lengthAdjust="spacing" textLength="118.1729" x="2120.5322" y="1522.0342">Stockage central</text>
    <path d="M2164.6187,1535.3359 C2164.6187,1525.3359 2182.6187,1525.3359 2182.6187,1525.3359 C2182.6187,1525.3359 2200.6187,1525.3359 2200.6187,1535.3359 L2200.6187,1561.3359 C2200.6187,1571.3359 2182.6187,1571.3359 2182.6187,1571.3359 C2182.6187,1571.3359 2164.6187,1571.3359 2164.6187,1561.3359 L2164.6187,1535.3359 " fill="#E2E2F0" style="stroke:#181818;stroke-width:1.5;"/>
    <path d="M2164.6187,1535.3359 C2164.6187,1545.3359 2182.6187,1545.3359 2182.6187,1545.3359 C2182.6187,1545.3359 2200.6187,1545.3359 2200.6187,1535.3359 " fill="none" style="stroke:#181818;stroke-width:1.5;"/>
    <rect fill="#FFFFFF" height="30" style="stroke:#181818;stroke-width:1.0;" width="10" x="126.687" y="215.125"/>
    <rect fill="#FFFFFF" height="1365.3125" style="stroke:#181818;stroke-width:1.0;" width="10" x="638.8271" y="134.7266"/>
    <rect fill="#FFFFFF" height="30" style="stroke:#181818;stroke-width:1.0;" width="10" x="1370.7466" y="1448.0391"/>
    <rect fill="#FFFFFF" height="121.3984" style="stroke:#181818;stroke-width:1.0;" width="10" x="1795.2437" y="490.8594"/>
    <rect fill="#FFFFFF" height="121.3984" style="stroke:#181818;stroke-width:1.0;" width="10" x="1795.2437" y="725.6563"/>
    <rect fill="#FFFFFF" height="121.3984" style="stroke:#181818;stroke-width:1.0;" width="10" x="1916.1616" y="907.3203"/>
    <rect fill="#FFFFFF" height="30" style="stroke:#181818;stroke-width:1.0;" width="10" x="2177.6187" y="519.9922"/>
    <rect fill="#FFFFFF" height="30" style="stroke:#181818;stroke-width:1.0;" width="10" x="2177.6187" y="754.7891"/>
    <rect fill="#FFFFFF" height="30" style="stroke:#181818;stroke-width:1.0;" width="10" x="2177.6187" y="936.4531"/>
    <path d="M9,141.7266 L369.6182,141.7266 L369.6182,148.8594 L359.6182,158.8594 L9,158.8594 L9,141.7266 " fill="#EEEEEE" style="stroke:#000000;stroke-width:1.5;"/>
    <rect fill="none" height="1351.3125" style="stroke:#000000;stroke-width:1.5;" width="2282.5225" x="9" y="141.7266"/>
    <text fill="#000000" font-family="sans-serif" font-size="13" font-weight="bold" lengthAdjust="spacing" textLength="315.6182" x="24" y="154.7935">Consommation du gestionnaire de position</text>
    <path d="M19,163.8594 L19,188.8594 L243,188.8594 L243,173.8594 L233,163.8594 L19,163.8594 " fill="#FFA07A" style="stroke:#181818;stroke-width:0.5;"/>
    <path d="M233,163.8594 L233,173.8594 L243,173.8594 L233,163.8594 " fill="#FFA07A" style="stroke:#181818;stroke-width:0.5;"/>
    <text fill="#000000" font-family="sans-serif" font-size="13" lengthAdjust="spacing" textLength="203.855" x="25" y="180.9263">Ce flux n&apos;a pas été implémenté</text>
    <polygon fill="#181818" points="147.687,211.125,137.687,215.125,147.687,219.125,143.687,215.125" style="stroke:#181818;stroke-width:1.0;"/>
    <line style="stroke:#181818;stroke-width:1.0;" x1="141.687" x2="637.8271" y1="215.125" y2="215.125"/>
    <text fill="#000000" font-family="sans-serif" font-size="13" font-weight="bold" lengthAdjust="spacing" textLength="9.0454" x="153.687" y="210.0591">1</text>
    <text fill="#000000" font-family="sans-serif" font-size="13" lengthAdjust="spacing" textLength="470.0947" x="166.7324" y="210.0591">Consommer le lot de messages d&apos;événement de position pour le payeur</text>
    <path d="M493.2129,260.125 L827.8501,260.125 L827.8501,267.2578 L817.8501,277.2578 L493.2129,277.2578 L493.2129,260.125 " fill="#EEEEEE" style="stroke:#000000;stroke-width:1.5;"/>
    <rect fill="none" height="154.3359" style="stroke:#000000;stroke-width:1.5;" width="1050.7798" x="493.2129" y="260.125"/>
    <text fill="#000000" font-family="sans-serif" font-size="13" font-weight="bold" lengthAdjust="spacing" textLength="289.6372" x="508.2129" y="273.1919">Persister les informations d&apos;événement</text>
    <polygon fill="#181818" points="1477.6182,319.3906,1487.6182,323.3906,1477.6182,327.3906,1481.6182,323.3906" style="stroke:#181818;stroke-width:1.0;"/>
    <line style="stroke:#181818;stroke-width:1.0;" x1="648.8271" x2="1483.6182" y1="323.3906" y2="323.3906"/>
    <text fill="#000000" font-family="sans-serif" font-size="13" font-weight="bold" lengthAdjust="spacing" textLength="9.0454" x="655.8271" y="318.3247">2</text>
    <text fill="#000000" font-family="sans-serif" font-size="13" lengthAdjust="spacing" textLength="243.458" x="668.8726" y="318.3247">Publier les informations d&apos;événement</text>
    <rect fill="none" height="53.0703" style="stroke:#000000;stroke-width:1.5;" width="1036.7798" x="500.2129" y="331.3906"/>
    <path d="M500.2129,331.3906 L565.2129,331.3906 L565.2129,338.3906 L555.2129,348.3906 L500.2129,348.3906 L500.2129,331.3906 " fill="#EEEEEE" style="stroke:#000000;stroke-width:2.0;"/>
    <text fill="#000000" font-family="sans-serif" font-size="13" font-weight="bold" lengthAdjust="spacing" textLength="20.8838" x="513.2129" y="345.4575">ref</text>
    <text fill="#000000" font-family="sans-serif" font-size="12" lengthAdjust="spacing" textLength="277.5586" x="879.8235" y="363.5293">Consommation du gestionnaire d&apos;événements</text>
    <text fill="#000000" font-family="sans-serif" font-size="12" lengthAdjust="spacing" textLength="3.8145" x="1016.6956" y="377.498"> </text>
    <path d="M483.2129,428.4609 L559.8369,428.4609 L559.8369,435.5938 L549.8369,445.5938 L483.2129,445.5938 L483.2129,428.4609 " fill="#EEEEEE" style="stroke:#000000;stroke-width:1.5;"/>
    <rect fill="none" height="1057.5781" style="stroke:#000000;stroke-width:1.5;" width="1798.3096" x="483.2129" y="428.4609"/>
    <text fill="#000000" font-family="sans-serif" font-size="13" font-weight="bold" lengthAdjust="spacing" textLength="31.624" x="498.2129" y="441.5278">loop</text>
    <text fill="#000000" font-family="sans-serif" font-size="11" font-weight="bold" lengthAdjust="spacing" textLength="173.6582" x="574.8369" y="440.6714">[for each message in batch]</text>
    <path d="M493.2129,452.5938 L882.4526,452.5938 L882.4526,459.7266 L872.4526,469.7266 L493.2129,469.7266 L493.2129,452.5938 " fill="#EEEEEE" style="stroke:#000000;stroke-width:1.5;"/>
    <rect fill="none" height="402.4609" style="stroke:#000000;stroke-width:1.5;" width="1762.2065" x="493.2129" y="452.5938"/>
    <text fill="#000000" font-family="sans-serif" font-size="13" font-weight="bold" lengthAdjust="spacing" textLength="344.2397" x="508.2129" y="465.6606">Calculer la position et persister le changement</text>
    <polygon fill="#181818" points="1783.2437,486.8594,1793.2437,490.8594,1783.2437,494.8594,1787.2437,490.8594" style="stroke:#181818;stroke-width:1.0;"/>
    <line style="stroke:#181818;stroke-width:1.0;" x1="648.8271" x2="1789.2437" y1="490.8594" y2="490.8594"/>
    <text fill="#000000" font-family="sans-serif" font-size="13" font-weight="bold" lengthAdjust="spacing" textLength="9.0454" x="655.8271" y="485.7935">3</text>
    <text fill="#000000" font-family="sans-serif" font-size="13" lengthAdjust="spacing" textLength="341.4468" x="668.8726" y="485.7935">Demander la dernière position en BD pour le payeur</text>
    <polygon fill="#181818" points="2165.6187,515.9922,2175.6187,519.9922,2165.6187,523.9922,2169.6187,519.9922" style="stroke:#181818;stroke-width:1.0;"/>
    <line style="stroke:#181818;stroke-width:1.0;" x1="1805.2437" x2="2171.6187" y1="519.9922" y2="519.9922"/>
    <text fill="#000000" font-family="sans-serif" font-size="13" font-weight="bold" lengthAdjust="spacing" textLength="9.0454" x="1812.2437" y="514.9263">4</text>
    <text fill="#000000" font-family="sans-serif" font-size="13" lengthAdjust="spacing" textLength="340.3296" x="1825.2891" y="514.9263">Récupérer la dernière position en BD pour le payeur</text>
    <polygon fill="#FFFFE0" points="2129,562.9922,2235,562.9922,2245,573.9922,2235,585.9922,2129,585.9922,2119,573.9922,2129,562.9922" style="stroke:#181818;stroke-width:0.5;"/>
    <text fill="#000000" font-family="sans-serif" font-size="13" lengthAdjust="spacing" textLength="102.4194" x="2131" y="579.0591">transferPosition</text>
    <polygon fill="#181818" points="659.8271,608.2578,649.8271,612.2578,659.8271,616.2578,655.8271,612.2578" style="stroke:#181818;stroke-width:1.0;"/>
    <line style="stroke:#181818;stroke-width:1.0;stroke-dasharray:2.0,2.0;" x1="653.8271" x2="1799.2437" y1="612.2578" y2="612.2578"/>
    <text fill="#000000" font-family="sans-serif" font-size="13" font-weight="bold" lengthAdjust="spacing" textLength="9.0454" x="665.8271" y="607.1919">5</text>
    <text fill="#000000" font-family="sans-serif" font-size="13" lengthAdjust="spacing" textLength="192.207" x="678.8726" y="607.1919">Renvoyer la dernière position</text>
    <line style="stroke:#181818;stroke-width:1.0;" x1="648.8271" x2="690.8271" y1="641.3906" y2="641.3906"/>
    <line style="stroke:#181818;stroke-width:1.0;" x1="690.8271" x2="690.8271" y1="641.3906" y2="654.3906"/>
    <line style="stroke:#181818;stroke-width:1.0;" x1="649.8271" x2="690.8271" y1="654.3906" y2="654.3906"/>
    <polygon fill="#181818" points="658.8271,637.3906,648.8271,641.3906,658.8271,645.3906,654.8271,641.3906" style="stroke:#181818;stroke-width:1.0;"/>
    <polygon fill="#181818" points="659.8271,650.3906,649.8271,654.3906,659.8271,658.3906,655.8271,654.3906" style="stroke:#181818;stroke-width:1.0;"/>
    <text fill="#000000" font-family="sans-serif" font-size="13" font-weight="bold" lengthAdjust="spacing" textLength="9.0454" x="655.8271" y="636.3247">6</text>
    <text fill="#000000" font-family="sans-serif" font-size="13" lengthAdjust="spacing" textLength="526.6523" x="668.8726" y="636.3247">Calculer la dernière position (lpos) en incrémentant le transfert pour préparation</text>
    <line style="stroke:#181818;stroke-width:1.0;" x1="648.8271" x2="690.8271" y1="683.5234" y2="683.5234"/>
    <line style="stroke:#181818;stroke-width:1.0;" x1="690.8271" x2="690.8271" y1="683.5234" y2="696.5234"/>
    <line style="stroke:#181818;stroke-width:1.0;" x1="649.8271" x2="690.8271" y1="696.5234" y2="696.5234"/>
    <polygon fill="#181818" points="658.8271,679.5234,648.8271,683.5234,658.8271,687.5234,654.8271,683.5234" style="stroke:#181818;stroke-width:1.0;"/>
    <polygon fill="#181818" points="659.8271,692.5234,649.8271,696.5234,659.8271,700.5234,655.8271,696.5234" style="stroke:#181818;stroke-width:1.0;"/>
    <text fill="#000000" font-family="sans-serif" font-size="13" font-weight="bold" lengthAdjust="spacing" textLength="9.0454" x="655.8271" y="678.4575">7</text>
    <text fill="#000000" font-family="sans-serif" font-size="13" lengthAdjust="spacing" textLength="684.874" x="668.8726" y="678.4575">Valider la dernière position calculée par rapport au plafond de débit net (netcap) — règle : lpos &lt; netcap</text>
    <polygon fill="#181818" points="1783.2437,721.6563,1793.2437,725.6563,1783.2437,729.6563,1787.2437,725.6563" style="stroke:#181818;stroke-width:1.0;"/>
    <line style="stroke:#181818;stroke-width:1.0;" x1="648.8271" x2="1789.2437" y1="725.6563" y2="725.6563"/>
    <text fill="#000000" font-family="sans-serif" font-size="13" font-weight="bold" lengthAdjust="spacing" textLength="9.0454" x="655.8271" y="720.5903">8</text>
    <text fill="#000000" font-family="sans-serif" font-size="13" lengthAdjust="spacing" textLength="374.3784" x="668.8726" y="720.5903">Demande de persister la dernière position pour le payeur</text>
    <polygon fill="#181818" points="2165.6187,750.7891,2175.6187,754.7891,2165.6187,758.7891,2169.6187,754.7891" style="stroke:#181818;stroke-width:1.0;"/>
    <line style="stroke:#181818;stroke-width:1.0;" x1="1805.2437" x2="2171.6187" y1="754.7891" y2="754.7891"/>
    <text fill="#000000" font-family="sans-serif" font-size="13" font-weight="bold" lengthAdjust="spacing" textLength="9.0454" x="1812.2437" y="749.7231">9</text>
    <text fill="#000000" font-family="sans-serif" font-size="13" lengthAdjust="spacing" textLength="329.7544" x="1825.2891" y="749.7231">Persister la dernière position en BD pour le payeur</text>
    <polygon fill="#FFFFE0" points="2129,797.7891,2235,797.7891,2245,808.7891,2235,820.7891,2129,820.7891,2119,808.7891,2129,797.7891" style="stroke:#181818;stroke-width:0.5;"/>
    <text fill="#000000" font-family="sans-serif" font-size="13" lengthAdjust="spacing" textLength="102.4194" x="2131" y="813.856">transferPosition</text>
    <polygon fill="#181818" points="659.8271,843.0547,649.8271,847.0547,659.8271,851.0547,655.8271,847.0547" style="stroke:#181818;stroke-width:1.0;"/>
    <line style="stroke:#181818;stroke-width:1.0;stroke-dasharray:2.0,2.0;" x1="653.8271" x2="1799.2437" y1="847.0547" y2="847.0547"/>
    <text fill="#000000" font-family="sans-serif" font-size="13" font-weight="bold" lengthAdjust="spacing" textLength="18.0908" x="665.8271" y="841.9888">10</text>
    <text fill="#000000" font-family="sans-serif" font-size="13" lengthAdjust="spacing" textLength="125.9058" x="687.918" y="841.9888">Renvoyer le succès</text>
    <path d="M493.2129,869.0547 L1168.5859,869.0547 L1168.5859,876.1875 L1158.5859,886.1875 L493.2129,886.1875 L493.2129,869.0547 " fill="#EEEEEE" style="stroke:#000000;stroke-width:1.5;"/>
    <rect fill="none" height="167.6641" style="stroke:#000000;stroke-width:1.5;" width="1778.3096" x="493.2129" y="869.0547"/>
    <text fill="#000000" font-family="sans-serif" font-size="13" font-weight="bold" lengthAdjust="spacing" textLength="630.373" x="508.2129" y="882.1216">Persister l&apos;état du transfert (transferState=&apos;RESERVED&apos; si contrôle de position réussi)</text>
    <polygon fill="#181818" points="1904.1616,903.3203,1914.1616,907.3203,1904.1616,911.3203,1908.1616,907.3203" style="stroke:#181818;stroke-width:1.0;"/>
    <line style="stroke:#181818;stroke-width:1.0;" x1="648.8271" x2="1910.1616" y1="907.3203" y2="907.3203"/>
    <text fill="#000000" font-family="sans-serif" font-size="13" font-weight="bold" lengthAdjust="spacing" textLength="18.0908" x="655.8271" y="902.2544">11</text>
    <text fill="#000000" font-family="sans-serif" font-size="13" lengthAdjust="spacing" textLength="269.0962" x="677.918" y="902.2544">Demande de persister le lot de transferts</text>
    <polygon fill="#181818" points="2165.6187,932.4531,2175.6187,936.4531,2165.6187,940.4531,2169.6187,936.4531" style="stroke:#181818;stroke-width:1.0;"/>
    <line style="stroke:#181818;stroke-width:1.0;" x1="1926.1616" x2="2171.6187" y1="936.4531" y2="936.4531"/>
    <text fill="#000000" font-family="sans-serif" font-size="13" font-weight="bold" lengthAdjust="spacing" textLength="18.0908" x="1933.1616" y="931.3872">12</text>
    <text fill="#000000" font-family="sans-serif" font-size="13" lengthAdjust="spacing" textLength="181.0415" x="1955.2524" y="931.3872">Persister le lot de transferts</text>
    <polygon fill="#FFFFE0" points="2112,979.4531,2251,979.4531,2261,990.4531,2251,1002.4531,2112,1002.4531,2102,990.4531,2112,979.4531" style="stroke:#181818;stroke-width:0.5;"/>
    <text fill="#000000" font-family="sans-serif" font-size="13" lengthAdjust="spacing" textLength="135.5225" x="2114" y="995.52">transferStateChange</text>
    <polygon fill="#181818" points="659.8271,1024.7188,649.8271,1028.7188,659.8271,1032.7188,655.8271,1028.7188" style="stroke:#181818;stroke-width:1.0;"/>
    <line style="stroke:#181818;stroke-width:1.0;stroke-dasharray:2.0,2.0;" x1="653.8271" x2="1920.1616" y1="1028.7188" y2="1028.7188"/>
    <text fill="#000000" font-family="sans-serif" font-size="13" font-weight="bold" lengthAdjust="spacing" textLength="18.0908" x="665.8271" y="1023.6528">13</text>
    <text fill="#000000" font-family="sans-serif" font-size="13" lengthAdjust="spacing" textLength="125.9058" x="687.918" y="1023.6528">Renvoyer le succès</text>
    <path d="M653,1048.7188 L653,1421.7188 L927,1421.7188 L927,1058.7188 L917,1048.7188 L653,1048.7188 " fill="#FFFF00" style="stroke:#181818;stroke-width:0.5;"/>
    <path d="M917,1048.7188 L917,1058.7188 L927,1058.7188 L917,1048.7188 " fill="#FFFF00" style="stroke:#181818;stroke-width:0.5;"/>
    <text fill="#000000" font-family="sans-serif" font-size="13" lengthAdjust="spacing" textLength="65.4888" x="659" y="1065.7856">Message :</text>
    <text fill="#000000" font-family="sans-serif" font-size="13" lengthAdjust="spacing" textLength="8.271" x="659" y="1080.9185">{</text>
    <text fill="#000000" font-family="sans-serif" font-size="13" lengthAdjust="spacing" textLength="218.0356" x="675.5293" y="1096.0513">id: &lt;transferMessage.transferId&gt;</text>
    <text fill="#000000" font-family="sans-serif" font-size="13" lengthAdjust="spacing" textLength="237.1738" x="675.5293" y="1111.1841">from: &lt;transferMessage.payerFsp&gt;,</text>
    <text fill="#000000" font-family="sans-serif" font-size="13" lengthAdjust="spacing" textLength="222.3394" x="675.5293" y="1126.3169">to: &lt;transferMessage.payeeFsp&gt;,</text>
    <text fill="#000000" font-family="sans-serif" font-size="13" lengthAdjust="spacing" textLength="140.2197" x="675.5293" y="1141.4497">type: application/json</text>
    <text fill="#000000" font-family="sans-serif" font-size="13" lengthAdjust="spacing" textLength="66.5552" x="675.5293" y="1156.5825">content: {</text>
    <text fill="#000000" font-family="sans-serif" font-size="13" lengthAdjust="spacing" textLength="192.4482" x="692.0586" y="1171.7153">headers: &lt;transferHeaders&gt;,</text>
    <text fill="#000000" font-family="sans-serif" font-size="13" lengthAdjust="spacing" textLength="190.3091" x="692.0586" y="1186.8481">payload: &lt;transferMessage&gt;</text>
    <text fill="#000000" font-family="sans-serif" font-size="13" lengthAdjust="spacing" textLength="12.4033" x="675.5293" y="1201.981">},</text>
    <text fill="#000000" font-family="sans-serif" font-size="13" lengthAdjust="spacing" textLength="79.79" x="675.5293" y="1217.1138">metadata: {</text>
    <text fill="#000000" font-family="sans-serif" font-size="13" lengthAdjust="spacing" textLength="53.8091" x="692.0586" y="1232.2466">event: {</text>
    <text fill="#000000" font-family="sans-serif" font-size="13" lengthAdjust="spacing" textLength="74.6357" x="708.5879" y="1247.3794">id: &lt;uuid&gt;,</text>
    <text fill="#000000" font-family="sans-serif" font-size="13" lengthAdjust="spacing" textLength="197.9961" x="708.5879" y="1262.5122">responseTo: &lt;previous.uuid&gt;,</text>
    <text fill="#000000" font-family="sans-serif" font-size="13" lengthAdjust="spacing" textLength="93.0249" x="708.5879" y="1277.645">type: transfer,</text>
    <text fill="#000000" font-family="sans-serif" font-size="13" lengthAdjust="spacing" textLength="103.8159" x="708.5879" y="1292.7778">action: prepare,</text>
    <text fill="#000000" font-family="sans-serif" font-size="13" lengthAdjust="spacing" textLength="168.3462" x="708.5879" y="1307.9106">createdAt: &lt;timestamp&gt;,</text>
    <text fill="#000000" font-family="sans-serif" font-size="13" lengthAdjust="spacing" textLength="49.7148" x="708.5879" y="1323.0435">state: {</text>
    <text fill="#000000" font-family="sans-serif" font-size="13" lengthAdjust="spacing" textLength="115.4004" x="725.1172" y="1338.1763">status: &quot;success&quot;,</text>
    <text fill="#000000" font-family="sans-serif" font-size="13" lengthAdjust="spacing" textLength="48.1343" x="725.1172" y="1353.3091">code: 0</text>
    <text fill="#000000" font-family="sans-serif" font-size="13" lengthAdjust="spacing" textLength="8.271" x="708.5879" y="1368.4419">}</text>
    <text fill="#000000" font-family="sans-serif" font-size="13" lengthAdjust="spacing" textLength="8.271" x="692.0586" y="1383.5747">}</text>
    <text fill="#000000" font-family="sans-serif" font-size="13" lengthAdjust="spacing" textLength="8.271" x="675.5293" y="1398.7075">}</text>
    <text fill="#000000" font-family="sans-serif" font-size="13" lengthAdjust="spacing" textLength="8.271" x="659" y="1413.8403">}</text>
    <polygon fill="#181818" points="1358.7466,1444.0391,1368.7466,1448.0391,1358.7466,1452.0391,1362.7466,1448.0391" style="stroke:#181818;stroke-width:1.0;"/>
    <line style="stroke:#181818;stroke-width:1.0;" x1="648.8271" x2="1364.7466" y1="1448.0391" y2="1448.0391"/>
    <text fill="#000000" font-family="sans-serif" font-size="13" font-weight="bold" lengthAdjust="spacing" textLength="18.0908" x="655.8271" y="1442.9731">14</text>
    <text fill="#000000" font-family="sans-serif" font-size="13" lengthAdjust="spacing" textLength="211.0913" x="677.918" y="1442.9731">Publier l&apos;événement de transfert</text>
  </g>
</svg>
