<svg xmlns="http://www.w3.org/2000/svg" xmlns:xlink="http://www.w3.org/1999/xlink" contentStyleType="text/css" height="2309px" preserveAspectRatio="none" style="width:2349px;height:2309px;background:#FFFFFF;" version="1.1" viewBox="0 0 2349 2309" width="2349px" zoomAndPan="magnify">
  <title>1.1.0 Détails de position et de limite d&apos;un participant</title>
  <defs/>
  <g>
    <text fill="#000000" font-family="sans-serif" font-size="14" font-weight="bold" lengthAdjust="spacing" textLength="419.6104" x="966.4431" y="27.9951">1.1.0 Détails de position et de limite d&apos;un participant</text>
    <rect fill="#FFFFE0" height="2253.5625" style="stroke:#181818;stroke-width:0.5;" width="1470.3638" x="808.1357" y="43.2969"/>
    <text fill="#000000" font-family="sans-serif" font-size="13" font-weight="bold" lengthAdjust="spacing" textLength="131.1235" x="1477.7559" y="55.3638">Services centraux</text>
    <rect fill="#FFFFFF" height="2079.8359" style="stroke:#181818;stroke-width:1.0;" width="10" x="91.2075" y="134.7266"/>
    <rect fill="#FFFFFF" height="2034.5703" style="stroke:#181818;stroke-width:1.0;" width="10" x="886.2881" y="179.9922"/>
    <rect fill="#FFFFFF" height="743.1172" style="stroke:#181818;stroke-width:1.0;" width="10" x="1197.2817" y="209.125"/>
    <rect fill="#FFFFFF" height="947.9219" style="stroke:#181818;stroke-width:1.0;" width="10" x="1197.2817" y="981.375"/>
    <rect fill="#FFFFFF" height="205" style="stroke:#181818;stroke-width:1.0;" width="10" x="1202.2817" y="981.375"/>
    <rect fill="#FFFFFF" height="264.1328" style="stroke:#181818;stroke-width:1.0;" width="10" x="1197.2817" y="1958.4297"/>
    <rect fill="#FFFFFF" height="205" style="stroke:#181818;stroke-width:1.0;" width="10" x="1202.2817" y="1958.4297"/>
    <rect fill="#FFFFFF" height="135.6641" style="stroke:#181818;stroke-width:1.0;" width="10" x="1685.6943" y="319.6563"/>
    <rect fill="#FFFFFF" height="246.4609" style="stroke:#181818;stroke-width:1.0;" width="10" x="1685.6943" y="565.8516"/>
    <rect fill="#FFFFFF" height="120.5313" style="stroke:#181818;stroke-width:1.0;" width="10" x="1685.6943" y="1281.5781"/>
    <rect fill="#FFFFFF" height="276.7266" style="stroke:#181818;stroke-width:1.0;" width="10" x="1685.6943" y="1512.6406"/>
    <rect fill="#FFFFFF" height="77.3984" style="stroke:#181818;stroke-width:1.0;" width="10" x="2207.4131" y="348.7891"/>
    <rect fill="#FFFFFF" height="188.1953" style="stroke:#181818;stroke-width:1.0;" width="10" x="2207.4131" y="594.9844"/>
    <rect fill="#FFFFFF" height="62.2656" style="stroke:#181818;stroke-width:1.0;" width="10" x="2207.4131" y="1310.7109"/>
    <rect fill="#FFFFFF" height="218.4609" style="stroke:#181818;stroke-width:1.0;" width="10" x="2207.4131" y="1541.7734"/>
    <rect fill="none" height="2072.8359" style="stroke:#000000;stroke-width:1.5;" width="2333.4966" x="10" y="141.7266"/>
    <rect fill="none" height="1941.3047" style="stroke:#000000;stroke-width:1.5;" width="2313.4966" x="20" y="266.2578"/>
    <rect fill="none" height="711.0547" style="stroke:#000000;stroke-width:1.5;" width="2293.4966" x="30" y="512.4531"/>
    <rect fill="none" height="741.3203" style="stroke:#000000;stroke-width:1.5;" width="2293.4966" x="30" y="1459.2422"/>
    <line style="stroke:#181818;stroke-width:0.5;stroke-dasharray:5.0,5.0;" x1="96" x2="96" y1="124.7266" y2="2231.5625"/>
    <line style="stroke:#181818;stroke-width:0.5;stroke-dasharray:5.0,5.0;" x1="891.1357" x2="891.1357" y1="124.7266" y2="2231.5625"/>
    <line style="stroke:#181818;stroke-width:0.5;stroke-dasharray:5.0,5.0;" x1="1202.1377" x2="1202.1377" y1="124.7266" y2="2231.5625"/>
    <line style="stroke:#181818;stroke-width:0.5;stroke-dasharray:5.0,5.0;" x1="1690.2573" x2="1690.2573" y1="124.7266" y2="2231.5625"/>
    <line style="stroke:#181818;stroke-width:0.5;stroke-dasharray:5.0,5.0;" x1="2212.3267" x2="2212.3267" y1="124.7266" y2="2231.5625"/>
    <text fill="#000000" font-family="sans-serif" font-size="14" lengthAdjust="spacing" textLength="106.415" x="40" y="121.4248">Opérateur HUB</text>
    <ellipse cx="96.2075" cy="92.4297" fill="#E2E2F0" rx="12" ry="12" style="stroke:#181818;stroke-width:0.5;"/>
    <line style="stroke:#181818;stroke-width:0.5;" x1="84.2075" x2="108.2075" y1="106.4297" y2="106.4297"/>
    <text fill="#000000" font-family="sans-serif" font-size="14" lengthAdjust="spacing" textLength="106.415" x="40" y="2243.5576">Opérateur HUB</text>
    <ellipse cx="96.2075" cy="2262.8594" fill="#E2E2F0" rx="12" ry="12" style="stroke:#181818;stroke-width:0.5;"/>
    <line style="stroke:#181818;stroke-width:0.5;" x1="84.2075" x2="108.2075" y1="2276.8594" y2="2276.8594"/>
    <text fill="#000000" font-family="sans-serif" font-size="14" lengthAdjust="spacing" textLength="152.3047" x="812.1357" y="121.4248">API du service central</text>
    <path d="M870.7881,80.4297 L870.7881,104.4297 M870.7881,92.4297 L887.7881,92.4297 " fill="none" style="stroke:#181818;stroke-width:0.5;"/>
    <ellipse cx="899.7881" cy="92.4297" fill="#E2E2F0" rx="12" ry="12" style="stroke:#181818;stroke-width:0.5;"/>
    <text fill="#000000" font-family="sans-serif" font-size="14" lengthAdjust="spacing" textLength="152.3047" x="812.1357" y="2243.5576">API du service central</text>
    <path d="M870.7881,2250.8594 L870.7881,2274.8594 M870.7881,2262.8594 L887.7881,2262.8594 " fill="none" style="stroke:#181818;stroke-width:0.5;"/>
    <ellipse cx="899.7881" cy="2262.8594" fill="#E2E2F0" rx="12" ry="12" style="stroke:#181818;stroke-width:0.5;"/>
    <text fill="#000000" font-family="sans-serif" font-size="14" lengthAdjust="spacing" textLength="206.2881" x="1096.1377" y="121.4248">Gestionnaire des participants</text>
    <ellipse cx="1202.2817" cy="92.4297" fill="#E2E2F0" rx="12" ry="12" style="stroke:#181818;stroke-width:0.5;"/>
    <polygon fill="#181818" points="1198.2817,80.4297,1204.2817,75.4297,1202.2817,80.4297,1204.2817,85.4297,1198.2817,80.4297" style="stroke:#181818;stroke-width:1.0;"/>
    <text fill="#000000" font-family="sans-serif" font-size="14" lengthAdjust="spacing" textLength="206.2881" x="1096.1377" y="2243.5576">Gestionnaire des participants</text>
    <ellipse cx="1202.2817" cy="2262.8594" fill="#E2E2F0" rx="12" ry="12" style="stroke:#181818;stroke-width:0.5;"/>
    <polygon fill="#181818" points="1198.2817,2250.8594,1204.2817,2245.8594,1202.2817,2250.8594,1204.2817,2255.8594,1198.2817,2250.8594" style="stroke:#181818;stroke-width:1.0;"/>
    <text fill="#000000" font-family="sans-serif" font-size="14" lengthAdjust="spacing" textLength="130.874" x="1622.2573" y="121.4248">Façade participant</text>
    <ellipse cx="1690.6943" cy="92.4297" fill="#E2E2F0" rx="12" ry="12" style="stroke:#181818;stroke-width:0.5;"/>
    <line style="stroke:#181818;stroke-width:0.5;" x1="1678.6943" x2="1702.6943" y1="106.4297" y2="106.4297"/>
    <text fill="#000000" font-family="sans-serif" font-size="14" lengthAdjust="spacing" textLength="130.874" x="1622.2573" y="2243.5576">Façade participant</text>
    <ellipse cx="1690.6943" cy="2262.8594" fill="#E2E2F0" rx="12" ry="12" style="stroke:#181818;stroke-width:0.5;"/>
    <line style="stroke:#181818;stroke-width:0.5;" x1="1678.6943" x2="1702.6943" y1="2276.8594" y2="2276.8594"/>
    <text fill="#000000" font-family="sans-serif" font-size="14" lengthAdjust="spacing" textLength="118.1729" x="2150.3267" y="121.4248">Stockage central</text>
    <path d="M2194.4131,72.4297 C2194.4131,62.4297 2212.4131,62.4297 2212.4131,62.4297 C2212.4131,62.4297 2230.4131,62.4297 2230.4131,72.4297 L2230.4131,98.4297 C2230.4131,108.4297 2212.4131,108.4297 2212.4131,108.4297 C2212.4131,108.4297 2194.4131,108.4297 2194.4131,98.4297 L2194.4131,72.4297 " fill="#E2E2F0" style="stroke:#181818;stroke-width:1.5;"/>
    <path d="M2194.4131,72.4297 C2194.4131,82.4297 2212.4131,82.4297 2212.4131,82.4297 C2212.4131,82.4297 2230.4131,82.4297 2230.4131,72.4297 " fill="none" style="stroke:#181818;stroke-width:1.5;"/>
    <text fill="#000000" font-family="sans-serif" font-size="14" lengthAdjust="spacing" textLength="118.1729" x="2150.3267" y="2243.5576">Stockage central</text>
    <path d="M2194.4131,2256.8594 C2194.4131,2246.8594 2212.4131,2246.8594 2212.4131,2246.8594 C2212.4131,2246.8594 2230.4131,2246.8594 2230.4131,2256.8594 L2230.4131,2282.8594 C2230.4131,2292.8594 2212.4131,2292.8594 2212.4131,2292.8594 C2212.4131,2292.8594 2194.4131,2292.8594 2194.4131,2282.8594 L2194.4131,2256.8594 " fill="#E2E2F0" style="stroke:#181818;stroke-width:1.5;"/>
    <path d="M2194.4131,2256.8594 C2194.4131,2266.8594 2212.4131,2266.8594 2212.4131,2266.8594 C2212.4131,2266.8594 2230.4131,2266.8594 2230.4131,2256.8594 " fill="none" style="stroke:#181818;stroke-width:1.5;"/>
    <rect fill="#FFFFFF" height="2079.8359" style="stroke:#181818;stroke-width:1.0;" width="10" x="91.2075" y="134.7266"/>
    <rect fill="#FFFFFF" height="2034.5703" style="stroke:#181818;stroke-width:1.0;" width="10" x="886.2881" y="179.9922"/>
    <rect fill="#FFFFFF" height="743.1172" style="stroke:#181818;stroke-width:1.0;" width="10" x="1197.2817" y="209.125"/>
    <rect fill="#FFFFFF" height="947.9219" style="stroke:#181818;stroke-width:1.0;" width="10" x="1197.2817" y="981.375"/>
    <rect fill="#FFFFFF" height="205" style="stroke:#181818;stroke-width:1.0;" width="10" x="1202.2817" y="981.375"/>
    <rect fill="#FFFFFF" height="264.1328" style="stroke:#181818;stroke-width:1.0;" width="10" x="1197.2817" y="1958.4297"/>
    <rect fill="#FFFFFF" height="205" style="stroke:#181818;stroke-width:1.0;" width="10" x="1202.2817" y="1958.4297"/>
    <rect fill="#FFFFFF" height="135.6641" style="stroke:#181818;stroke-width:1.0;" width="10" x="1685.6943" y="319.6563"/>
    <rect fill="#FFFFFF" height="246.4609" style="stroke:#181818;stroke-width:1.0;" width="10" x="1685.6943" y="565.8516"/>
    <rect fill="#FFFFFF" height="120.5313" style="stroke:#181818;stroke-width:1.0;" width="10" x="1685.6943" y="1281.5781"/>
    <rect fill="#FFFFFF" height="276.7266" style="stroke:#181818;stroke-width:1.0;" width="10" x="1685.6943" y="1512.6406"/>
    <rect fill="#FFFFFF" height="77.3984" style="stroke:#181818;stroke-width:1.0;" width="10" x="2207.4131" y="348.7891"/>
    <rect fill="#FFFFFF" height="188.1953" style="stroke:#181818;stroke-width:1.0;" width="10" x="2207.4131" y="594.9844"/>
    <rect fill="#FFFFFF" height="62.2656" style="stroke:#181818;stroke-width:1.0;" width="10" x="2207.4131" y="1310.7109"/>
    <rect fill="#FFFFFF" height="218.4609" style="stroke:#181818;stroke-width:1.0;" width="10" x="2207.4131" y="1541.7734"/>
    <path d="M10,141.7266 L298.7373,141.7266 L298.7373,148.8594 L288.7373,158.8594 L10,158.8594 L10,141.7266 " fill="#EEEEEE" style="stroke:#000000;stroke-width:1.5;"/>
    <rect fill="none" height="2072.8359" style="stroke:#000000;stroke-width:1.5;" width="2333.4966" x="10" y="141.7266"/>
    <text fill="#000000" font-family="sans-serif" font-size="13" font-weight="bold" lengthAdjust="spacing" textLength="243.7373" x="25" y="154.7935">Obtenir les limites du participant</text>
    <polygon fill="#181818" points="874.2881,175.9922,884.2881,179.9922,874.2881,183.9922,878.2881,179.9922" style="stroke:#181818;stroke-width:1.0;"/>
    <line style="stroke:#181818;stroke-width:1.0;" x1="101.2075" x2="880.2881" y1="179.9922" y2="179.9922"/>
    <text fill="#000000" font-family="sans-serif" font-size="13" font-weight="bold" lengthAdjust="spacing" textLength="9.0454" x="108.2075" y="174.9263">1</text>
    <text fill="#000000" font-family="sans-serif" font-size="13" lengthAdjust="spacing" textLength="753.0352" x="121.2529" y="174.9263">Demande d&apos;obtenir les limites — GET - /participants/{name}/limits?type={typeValue}&amp;currency={currencyValue}</text>
    <polygon fill="#181818" points="1185.2817,205.125,1195.2817,209.125,1185.2817,213.125,1189.2817,209.125" style="stroke:#181818;stroke-width:1.0;"/>
    <line style="stroke:#181818;stroke-width:1.0;" x1="896.2881" x2="1191.2817" y1="209.125" y2="209.125"/>
    <text fill="#000000" font-family="sans-serif" font-size="13" font-weight="bold" lengthAdjust="spacing" textLength="9.0454" x="903.2881" y="204.0591">2</text>
    <text fill="#000000" font-family="sans-serif" font-size="13" lengthAdjust="spacing" textLength="232.7114" x="916.3335" y="204.0591">Récupérer les limites du participant</text>
    <line style="stroke:#181818;stroke-width:1.0;" x1="1207.2817" x2="1249.2817" y1="238.2578" y2="238.2578"/>
    <line style="stroke:#181818;stroke-width:1.0;" x1="1249.2817" x2="1249.2817" y1="238.2578" y2="251.2578"/>
    <line style="stroke:#181818;stroke-width:1.0;" x1="1208.2817" x2="1249.2817" y1="251.2578" y2="251.2578"/>
    <polygon fill="#181818" points="1218.2817,247.2578,1208.2817,251.2578,1218.2817,255.2578,1214.2817,251.2578" style="stroke:#181818;stroke-width:1.0;"/>
    <text fill="#000000" font-family="sans-serif" font-size="13" font-weight="bold" lengthAdjust="spacing" textLength="9.0454" x="1214.2817" y="233.1919">3</text>
    <text fill="#000000" font-family="sans-serif" font-size="13" lengthAdjust="spacing" textLength="310.3687" x="1227.3271" y="233.1919">vérifier si le paramètre « currency » est envoyé</text>
    <path d="M20,266.2578 L84.4429,266.2578 L84.4429,273.3906 L74.4429,283.3906 L20,283.3906 L20,266.2578 " fill="#EEEEEE" style="stroke:#000000;stroke-width:1.5;"/>
    <rect fill="none" height="1941.3047" style="stroke:#000000;stroke-width:1.5;" width="2313.4966" x="20" y="266.2578"/>
    <text fill="#000000" font-family="sans-serif" font-size="13" font-weight="bold" lengthAdjust="spacing" textLength="19.4429" x="35" y="279.3247">alt</text>
    <text fill="#000000" font-family="sans-serif" font-size="11" font-weight="bold" lengthAdjust="spacing" textLength="236.8599" x="99.4429" y="278.4683">[Paramètre « currency » envoyé (oui)]</text>
    <polygon fill="#181818" points="1673.6943,315.6563,1683.6943,319.6563,1673.6943,323.6563,1677.6943,319.6563" style="stroke:#181818;stroke-width:1.0;"/>
    <line style="stroke:#181818;stroke-width:1.0;" x1="1207.2817" x2="1679.6943" y1="319.6563" y2="319.6563"/>
    <text fill="#000000" font-family="sans-serif" font-size="13" font-weight="bold" lengthAdjust="spacing" textLength="9.0454" x="1214.2817" y="307.0239">4</text>
    <text fill="#000000" font-family="sans-serif" font-size="13" lengthAdjust="spacing" textLength="211.9609" x="1227.3271" y="299.4575">Récupérer l&apos;id participant/devise</text>
    <text fill="#FF0000" font-family="sans-serif" font-size="13" font-weight="bold" lengthAdjust="spacing" textLength="110.2524" x="1227.3271" y="314.5903">Code d&apos;erreur :</text>
    <text fill="#FF0000" font-family="sans-serif" font-size="13" lengthAdjust="spacing" textLength="33.084" x="1341.7119" y="314.5903">3200</text>
    <polygon fill="#181818" points="2195.4131,344.7891,2205.4131,348.7891,2195.4131,352.7891,2199.4131,348.7891" style="stroke:#181818;stroke-width:1.0;"/>
    <line style="stroke:#181818;stroke-width:1.0;" x1="1695.6943" x2="2201.4131" y1="348.7891" y2="348.7891"/>
    <text fill="#000000" font-family="sans-serif" font-size="13" font-weight="bold" lengthAdjust="spacing" textLength="9.0454" x="1702.6943" y="343.7231">5</text>
    <text fill="#000000" font-family="sans-serif" font-size="13" lengthAdjust="spacing" textLength="211.9609" x="1715.7397" y="343.7231">Récupérer l&apos;id participant/devise</text>
    <polygon fill="#FFFFE0" points="2145,361.7891,2278,361.7891,2288,380.7891,2278,399.7891,2145,399.7891,2135,380.7891,2145,361.7891" style="stroke:#181818;stroke-width:0.5;"/>
    <text fill="#000000" font-family="sans-serif" font-size="13" lengthAdjust="spacing" textLength="70.5859" x="2147" y="377.856">participant</text>
    <text fill="#000000" font-family="sans-serif" font-size="13" lengthAdjust="spacing" textLength="129.6699" x="2147" y="392.9888">participantCurrency</text>
    <polygon fill="#181818" points="1706.6943,422.1875,1696.6943,426.1875,1706.6943,430.1875,1702.6943,426.1875" style="stroke:#181818;stroke-width:1.0;"/>
    <line style="stroke:#181818;stroke-width:1.0;stroke-dasharray:2.0,2.0;" x1="1700.6943" x2="2211.4131" y1="426.1875" y2="426.1875"/>
    <text fill="#000000" font-family="sans-serif" font-size="13" font-weight="bold" lengthAdjust="spacing" textLength="9.0454" x="1712.6943" y="421.1216">6</text>
    <text fill="#000000" font-family="sans-serif" font-size="13" lengthAdjust="spacing" textLength="132.6279" x="1725.7397" y="421.1216">Participant récupéré</text>
    <polygon fill="#181818" points="1218.2817,451.3203,1208.2817,455.3203,1218.2817,459.3203,1214.2817,455.3203" style="stroke:#181818;stroke-width:1.0;"/>
    <line style="stroke:#181818;stroke-width:1.0;stroke-dasharray:2.0,2.0;" x1="1212.2817" x2="1689.6943" y1="455.3203" y2="455.3203"/>
    <text fill="#000000" font-family="sans-serif" font-size="13" font-weight="bold" lengthAdjust="spacing" textLength="9.0454" x="1224.2817" y="450.2544">7</text>
    <text fill="#000000" font-family="sans-serif" font-size="13" lengthAdjust="spacing" textLength="206.5591" x="1237.3271" y="450.2544">Renvoyer l&apos;id participant/devise</text>
    <line style="stroke:#181818;stroke-width:1.0;" x1="1207.2817" x2="1249.2817" y1="484.4531" y2="484.4531"/>
    <line style="stroke:#181818;stroke-width:1.0;" x1="1249.2817" x2="1249.2817" y1="484.4531" y2="497.4531"/>
    <line style="stroke:#181818;stroke-width:1.0;" x1="1208.2817" x2="1249.2817" y1="497.4531" y2="497.4531"/>
    <polygon fill="#181818" points="1218.2817,493.4531,1208.2817,497.4531,1218.2817,501.4531,1214.2817,497.4531" style="stroke:#181818;stroke-width:1.0;"/>
    <text fill="#000000" font-family="sans-serif" font-size="13" font-weight="bold" lengthAdjust="spacing" textLength="9.0454" x="1214.2817" y="479.3872">8</text>
    <text fill="#000000" font-family="sans-serif" font-size="13" lengthAdjust="spacing" textLength="99.1313" x="1227.3271" y="479.3872">Valider le DFSP</text>
    <path d="M30,512.4531 L94.4429,512.4531 L94.4429,519.5859 L84.4429,529.5859 L30,529.5859 L30,512.4531 " fill="#EEEEEE" style="stroke:#000000;stroke-width:1.5;"/>
    <rect fill="none" height="711.0547" style="stroke:#000000;stroke-width:1.5;" width="2293.4966" x="30" y="512.4531"/>
    <text fill="#000000" font-family="sans-serif" font-size="13" font-weight="bold" lengthAdjust="spacing" textLength="19.4429" x="45" y="525.52">alt</text>
    <text fill="#000000" font-family="sans-serif" font-size="11" font-weight="bold" lengthAdjust="spacing" textLength="196.9204" x="109.4429" y="524.6636">[Valider le participant (succès)]</text>
    <polygon fill="#181818" points="1673.6943,561.8516,1683.6943,565.8516,1673.6943,569.8516,1677.6943,565.8516" style="stroke:#181818;stroke-width:1.0;"/>
    <line style="stroke:#181818;stroke-width:1.0;" x1="1207.2817" x2="1679.6943" y1="565.8516" y2="565.8516"/>
    <text fill="#000000" font-family="sans-serif" font-size="13" font-weight="bold" lengthAdjust="spacing" textLength="9.0454" x="1214.2817" y="553.2192">9</text>
    <text fill="#000000" font-family="sans-serif" font-size="13" lengthAdjust="spacing" textLength="342.8687" x="1227.3271" y="545.6528">Récupérer les limites participant pour devise et type</text>
    <text fill="#FF0000" font-family="sans-serif" font-size="13" font-weight="bold" lengthAdjust="spacing" textLength="110.2524" x="1227.3271" y="560.7856">Code d&apos;erreur :</text>
    <text fill="#FF0000" font-family="sans-serif" font-size="13" lengthAdjust="spacing" textLength="33.084" x="1341.7119" y="560.7856">3000</text>
    <polygon fill="#181818" points="2195.4131,590.9844,2205.4131,594.9844,2195.4131,598.9844,2199.4131,594.9844" style="stroke:#181818;stroke-width:1.0;"/>
    <line style="stroke:#181818;stroke-width:1.0;" x1="1695.6943" x2="2201.4131" y1="594.9844" y2="594.9844"/>
    <text fill="#000000" font-family="sans-serif" font-size="13" font-weight="bold" lengthAdjust="spacing" textLength="18.0908" x="1702.6943" y="589.9185">10</text>
    <text fill="#000000" font-family="sans-serif" font-size="13" lengthAdjust="spacing" textLength="422.9634" x="1724.7852" y="589.9185">Récupérer la limite participant pour currencyId et type (si fourni)</text>
    <path d="M1700,607.9844 L1700,707.9844 L2313,707.9844 L2313,617.9844 L2303,607.9844 L1700,607.9844 " fill="#D3D3D3" style="stroke:#181818;stroke-width:0.5;"/>
    <path d="M2303,607.9844 L2303,617.9844 L2313,617.9844 L2303,607.9844 " fill="#D3D3D3" style="stroke:#181818;stroke-width:0.5;"/>
    <text fill="#000000" font-family="sans-serif" font-size="13" lengthAdjust="spacing" textLength="70.5479" x="1706" y="625.0513">Condition :</text>
    <text fill="#000000" font-family="sans-serif" font-size="13" lengthAdjust="spacing" textLength="185.1992" x="1722.5293" y="640.1841">participantLimit.isActive = 1</text>
    <text fill="#000000" font-family="sans-serif" font-size="13" lengthAdjust="spacing" textLength="358.8838" x="1722.5293" y="655.3169">participantLimit.participantCurrencyId = &lt;currencyId&gt;</text>
    <text fill="#000000" font-family="sans-serif" font-size="13" lengthAdjust="spacing" textLength="575.9673" x="1722.5293" y="670.4497">[   participantLimit.participantLimitTypeId = participantLimitType.participantLimitTypeId</text>
    <text fill="#000000" font-family="sans-serif" font-size="13" lengthAdjust="spacing" textLength="245.6797" x="1739.0586" y="685.5825">participantLimitType.name = &lt;type&gt;</text>
    <text fill="#000000" font-family="sans-serif" font-size="13" lengthAdjust="spacing" textLength="5.0718" x="1722.5293" y="700.7153">]</text>
    <polygon fill="#FFFFE0" points="2143,718.7813,2281,718.7813,2291,737.7813,2281,756.7813,2143,756.7813,2133,737.7813,2143,718.7813" style="stroke:#181818;stroke-width:0.5;"/>
    <text fill="#000000" font-family="sans-serif" font-size="13" lengthAdjust="spacing" textLength="102.813" x="2145" y="734.8481">participantLimit</text>
    <text fill="#000000" font-family="sans-serif" font-size="13" lengthAdjust="spacing" textLength="134.6973" x="2145" y="749.981">participantLimitType</text>
    <polygon fill="#181818" points="1706.6943,779.1797,1696.6943,783.1797,1706.6943,787.1797,1702.6943,783.1797" style="stroke:#181818;stroke-width:1.0;"/>
    <line style="stroke:#181818;stroke-width:1.0;stroke-dasharray:2.0,2.0;" x1="1700.6943" x2="2211.4131" y1="783.1797" y2="783.1797"/>
    <text fill="#000000" font-family="sans-serif" font-size="13" font-weight="bold" lengthAdjust="spacing" textLength="18.0908" x="1712.6943" y="778.1138">11</text>
    <text fill="#000000" font-family="sans-serif" font-size="13" lengthAdjust="spacing" textLength="356.6367" x="1734.7852" y="778.1138">Limites participant récupérées pour currencyId et type</text>
    <polygon fill="#181818" points="1218.2817,808.3125,1208.2817,812.3125,1218.2817,816.3125,1214.2817,812.3125" style="stroke:#181818;stroke-width:1.0;"/>
    <line style="stroke:#181818;stroke-width:1.0;stroke-dasharray:2.0,2.0;" x1="1212.2817" x2="1689.6943" y1="812.3125" y2="812.3125"/>
    <text fill="#000000" font-family="sans-serif" font-size="13" font-weight="bold" lengthAdjust="spacing" textLength="18.0908" x="1224.2817" y="807.2466">12</text>
    <text fill="#000000" font-family="sans-serif" font-size="13" lengthAdjust="spacing" textLength="364.3809" x="1246.3726" y="807.2466">Renvoyer les limites participant pour currencyId et type</text>
    <path d="M1212,825.3125 L1212,925.3125 L1517,925.3125 L1517,835.3125 L1507,825.3125 L1212,825.3125 " fill="#FFFF00" style="stroke:#181818;stroke-width:0.5;"/>
    <path d="M1507,825.3125 L1507,835.3125 L1517,835.3125 L1507,825.3125 " fill="#FFFF00" style="stroke:#181818;stroke-width:0.5;"/>
    <text fill="#000000" font-family="sans-serif" font-size="13" lengthAdjust="spacing" textLength="65.4888" x="1218" y="842.3794">Message :</text>
    <text fill="#000000" font-family="sans-serif" font-size="13" lengthAdjust="spacing" textLength="5.0718" x="1218" y="857.5122">[</text>
    <text fill="#000000" font-family="sans-serif" font-size="13" lengthAdjust="spacing" textLength="181.4922" x="1234.5293" y="872.645">{   currency: &lt;currencyId&gt;,</text>
    <text fill="#000000" font-family="sans-serif" font-size="13" lengthAdjust="spacing" textLength="251.6084" x="1251.0586" y="887.7778">limit: {type: &lt;type&gt;, value: &lt;value&gt;}</text>
    <text fill="#000000" font-family="sans-serif" font-size="13" lengthAdjust="spacing" textLength="8.271" x="1234.5293" y="902.9106">}</text>
    <text fill="#000000" font-family="sans-serif" font-size="13" lengthAdjust="spacing" textLength="5.0718" x="1218" y="918.0435">]</text>
    <polygon fill="#181818" points="907.2881,948.2422,897.2881,952.2422,907.2881,956.2422,903.2881,952.2422" style="stroke:#181818;stroke-width:1.0;"/>
    <line style="stroke:#181818;stroke-width:1.0;stroke-dasharray:2.0,2.0;" x1="901.2881" x2="1201.2817" y1="952.2422" y2="952.2422"/>
    <text fill="#000000" font-family="sans-serif" font-size="13" font-weight="bold" lengthAdjust="spacing" textLength="18.0908" x="913.2881" y="947.1763">13</text>
    <text fill="#000000" font-family="sans-serif" font-size="13" lengthAdjust="spacing" textLength="206.686" x="935.3789" y="947.1763">Renvoyer les limites participant</text>
    <polygon fill="#181818" points="112.2075,977.375,102.2075,981.375,112.2075,985.375,108.2075,981.375" style="stroke:#181818;stroke-width:1.0;"/>
    <line style="stroke:#181818;stroke-width:1.0;stroke-dasharray:2.0,2.0;" x1="106.2075" x2="885.2881" y1="981.375" y2="981.375"/>
    <text fill="#000000" font-family="sans-serif" font-size="13" font-weight="bold" lengthAdjust="spacing" textLength="18.0908" x="118.2075" y="976.3091">14</text>
    <text fill="#000000" font-family="sans-serif" font-size="13" lengthAdjust="spacing" textLength="206.686" x="140.2983" y="976.3091">Renvoyer les limites participant</text>
    <line style="stroke:#000000;stroke-width:1.0;stroke-dasharray:2.0,2.0;" x1="30" x2="2323.4966" y1="990.375" y2="990.375"/>
    <text fill="#000000" font-family="sans-serif" font-size="11" font-weight="bold" lengthAdjust="spacing" textLength="241.9893" x="35" y="1000.5854">[Valider le participant (échec) / erreur]</text>
    <path d="M1217,1009.1797 L1217,1034.1797 L1427,1034.1797 L1427,1019.1797 L1417,1009.1797 L1217,1009.1797 " fill="#FF0000" style="stroke:#181818;stroke-width:0.5;"/>
    <path d="M1417,1009.1797 L1417,1019.1797 L1427,1019.1797 L1417,1009.1797 " fill="#FF0000" style="stroke:#181818;stroke-width:0.5;"/>
    <text fill="#000000" font-family="sans-serif" font-size="13" lengthAdjust="spacing" textLength="189.522" x="1223" y="1026.2466">Échec de validation / erreur !</text>
    <path d="M1217,1044.3125 L1217,1159.3125 L1512,1159.3125 L1512,1054.3125 L1502,1044.3125 L1217,1044.3125 " fill="#FFFF00" style="stroke:#181818;stroke-width:0.5;"/>
    <path d="M1502,1044.3125 L1502,1054.3125 L1512,1054.3125 L1502,1044.3125 " fill="#FFFF00" style="stroke:#181818;stroke-width:0.5;"/>
    <text fill="#000000" font-family="sans-serif" font-size="13" lengthAdjust="spacing" textLength="65.4888" x="1223" y="1061.3794">Message :</text>
    <text fill="#000000" font-family="sans-serif" font-size="13" lengthAdjust="spacing" textLength="8.271" x="1223" y="1076.5122">{</text>
    <text fill="#000000" font-family="sans-serif" font-size="13" lengthAdjust="spacing" textLength="136.208" x="1239.5293" y="1091.645">&quot;errorInformation&quot;: {</text>
    <text fill="#000000" font-family="sans-serif" font-size="13" lengthAdjust="spacing" textLength="176.9219" x="1256.0586" y="1106.7778">&quot;errorCode&quot;: &lt;errorCode&gt;,</text>
    <text fill="#000000" font-family="sans-serif" font-size="13" lengthAdjust="spacing" textLength="241.5918" x="1256.0586" y="1121.9106">&quot;errorDescription&quot;: &lt;ErrorMessage&gt;,</text>
    <text fill="#000000" font-family="sans-serif" font-size="13" lengthAdjust="spacing" textLength="8.271" x="1239.5293" y="1137.0435">}</text>
    <text fill="#000000" font-family="sans-serif" font-size="13" lengthAdjust="spacing" textLength="8.271" x="1223" y="1152.1763">}</text>
    <polygon fill="#181818" points="907.2881,1182.375,897.2881,1186.375,907.2881,1190.375,903.2881,1186.375" style="stroke:#181818;stroke-width:1.0;"/>
    <line style="stroke:#181818;stroke-width:1.0;stroke-dasharray:2.0,2.0;" x1="901.2881" x2="1196.2817" y1="1186.375" y2="1186.375"/>
    <text fill="#000000" font-family="sans-serif" font-size="13" font-weight="bold" lengthAdjust="spacing" textLength="18.0908" x="913.2881" y="1181.3091">15</text>
    <text fill="#000000" font-family="sans-serif" font-size="13" lengthAdjust="spacing" textLength="61.9531" x="935.3789" y="1181.3091">Renvoyer</text>
    <text fill="#FF0000" font-family="sans-serif" font-size="13" font-weight="bold" lengthAdjust="spacing" textLength="110.2524" x="1001.4644" y="1181.3091">Code d&apos;erreur :</text>
    <text fill="#FF0000" font-family="sans-serif" font-size="13" lengthAdjust="spacing" textLength="74.4326" x="1115.8491" y="1181.3091">3000, 3200</text>
    <polygon fill="#181818" points="112.2075,1211.5078,102.2075,1215.5078,112.2075,1219.5078,108.2075,1215.5078" style="stroke:#181818;stroke-width:1.0;"/>
    <line style="stroke:#181818;stroke-width:1.0;stroke-dasharray:2.0,2.0;" x1="106.2075" x2="885.2881" y1="1215.5078" y2="1215.5078"/>
    <text fill="#000000" font-family="sans-serif" font-size="13" font-weight="bold" lengthAdjust="spacing" textLength="18.0908" x="118.2075" y="1210.4419">16</text>
    <text fill="#000000" font-family="sans-serif" font-size="13" lengthAdjust="spacing" textLength="61.9531" x="140.2983" y="1210.4419">Renvoyer</text>
    <text fill="#FF0000" font-family="sans-serif" font-size="13" font-weight="bold" lengthAdjust="spacing" textLength="110.2524" x="206.3838" y="1210.4419">Code d&apos;erreur :</text>
    <text fill="#FF0000" font-family="sans-serif" font-size="13" lengthAdjust="spacing" textLength="74.4326" x="320.7686" y="1210.4419">3000, 3200</text>
    <line style="stroke:#000000;stroke-width:1.0;stroke-dasharray:2.0,2.0;" x1="20" x2="2333.4966" y1="1231.5078" y2="1231.5078"/>
    <text fill="#000000" font-family="sans-serif" font-size="11" font-weight="bold" lengthAdjust="spacing" textLength="240.9204" x="25" y="1241.7183">[Paramètre « currency » envoyé (non)]</text>
    <polygon fill="#181818" points="1673.6943,1277.5781,1683.6943,1281.5781,1673.6943,1285.5781,1677.6943,1281.5781" style="stroke:#181818;stroke-width:1.0;"/>
    <line style="stroke:#181818;stroke-width:1.0;" x1="1207.2817" x2="1679.6943" y1="1281.5781" y2="1281.5781"/>
    <text fill="#000000" font-family="sans-serif" font-size="13" font-weight="bold" lengthAdjust="spacing" textLength="18.0908" x="1214.2817" y="1268.9458">17</text>
    <text fill="#000000" font-family="sans-serif" font-size="13" lengthAdjust="spacing" textLength="157.8154" x="1236.3726" y="1261.3794">Récupérer le participant</text>
    <text fill="#FF0000" font-family="sans-serif" font-size="13" font-weight="bold" lengthAdjust="spacing" textLength="110.2524" x="1236.3726" y="1276.5122">Code d&apos;erreur :</text>
    <text fill="#FF0000" font-family="sans-serif" font-size="13" lengthAdjust="spacing" textLength="33.084" x="1350.7573" y="1276.5122">3200</text>
    <polygon fill="#181818" points="2195.4131,1306.7109,2205.4131,1310.7109,2195.4131,1314.7109,2199.4131,1310.7109" style="stroke:#181818;stroke-width:1.0;"/>
    <line style="stroke:#181818;stroke-width:1.0;" x1="1695.6943" x2="2201.4131" y1="1310.7109" y2="1310.7109"/>
    <text fill="#000000" font-family="sans-serif" font-size="13" font-weight="bold" lengthAdjust="spacing" textLength="18.0908" x="1702.6943" y="1305.645">18</text>
    <text fill="#000000" font-family="sans-serif" font-size="13" lengthAdjust="spacing" textLength="157.8154" x="1724.7852" y="1305.645">Récupérer le participant</text>
    <polygon fill="#FFFFE0" points="2175,1323.7109,2249,1323.7109,2259,1334.7109,2249,1346.7109,2175,1346.7109,2165,1334.7109,2175,1323.7109" style="stroke:#181818;stroke-width:0.5;"/>
    <text fill="#000000" font-family="sans-serif" font-size="13" lengthAdjust="spacing" textLength="70.5859" x="2177" y="1339.7778">participant</text>
    <polygon fill="#181818" points="1706.6943,1368.9766,1696.6943,1372.9766,1706.6943,1376.9766,1702.6943,1372.9766" style="stroke:#181818;stroke-width:1.0;"/>
    <line style="stroke:#181818;stroke-width:1.0;stroke-dasharray:2.0,2.0;" x1="1700.6943" x2="2211.4131" y1="1372.9766" y2="1372.9766"/>
    <text fill="#000000" font-family="sans-serif" font-size="13" font-weight="bold" lengthAdjust="spacing" textLength="18.0908" x="1712.6943" y="1367.9106">19</text>
    <text fill="#000000" font-family="sans-serif" font-size="13" lengthAdjust="spacing" textLength="132.6279" x="1734.7852" y="1367.9106">Participant récupéré</text>
    <polygon fill="#181818" points="1218.2817,1398.1094,1208.2817,1402.1094,1218.2817,1406.1094,1214.2817,1402.1094" style="stroke:#181818;stroke-width:1.0;"/>
    <line style="stroke:#181818;stroke-width:1.0;stroke-dasharray:2.0,2.0;" x1="1212.2817" x2="1689.6943" y1="1402.1094" y2="1402.1094"/>
    <text fill="#000000" font-family="sans-serif" font-size="13" font-weight="bold" lengthAdjust="spacing" textLength="18.0908" x="1224.2817" y="1397.0435">20</text>
    <text fill="#000000" font-family="sans-serif" font-size="13" lengthAdjust="spacing" textLength="152.4136" x="1246.3726" y="1397.0435">Renvoyer le participant</text>
    <line style="stroke:#181818;stroke-width:1.0;" x1="1207.2817" x2="1249.2817" y1="1431.2422" y2="1431.2422"/>
    <line style="stroke:#181818;stroke-width:1.0;" x1="1249.2817" x2="1249.2817" y1="1431.2422" y2="1444.2422"/>
    <line style="stroke:#181818;stroke-width:1.0;" x1="1208.2817" x2="1249.2817" y1="1444.2422" y2="1444.2422"/>
    <polygon fill="#181818" points="1218.2817,1440.2422,1208.2817,1444.2422,1218.2817,1448.2422,1214.2817,1444.2422" style="stroke:#181818;stroke-width:1.0;"/>
    <text fill="#000000" font-family="sans-serif" font-size="13" font-weight="bold" lengthAdjust="spacing" textLength="18.0908" x="1214.2817" y="1426.1763">21</text>
    <text fill="#000000" font-family="sans-serif" font-size="13" lengthAdjust="spacing" textLength="99.1313" x="1236.3726" y="1426.1763">Valider le DFSP</text>
    <path d="M30,1459.2422 L94.4429,1459.2422 L94.4429,1466.375 L84.4429,1476.375 L30,1476.375 L30,1459.2422 " fill="#EEEEEE" style="stroke:#000000;stroke-width:1.5;"/>
    <rect fill="none" height="741.3203" style="stroke:#000000;stroke-width:1.5;" width="2293.4966" x="30" y="1459.2422"/>
    <text fill="#000000" font-family="sans-serif" font-size="13" font-weight="bold" lengthAdjust="spacing" textLength="19.4429" x="45" y="1472.3091">alt</text>
    <text fill="#000000" font-family="sans-serif" font-size="11" font-weight="bold" lengthAdjust="spacing" textLength="196.9204" x="109.4429" y="1471.4526">[Valider le participant (succès)]</text>
    <polygon fill="#181818" points="1673.6943,1508.6406,1683.6943,1512.6406,1673.6943,1516.6406,1677.6943,1512.6406" style="stroke:#181818;stroke-width:1.0;"/>
    <line style="stroke:#181818;stroke-width:1.0;" x1="1207.2817" x2="1679.6943" y1="1512.6406" y2="1512.6406"/>
    <text fill="#000000" font-family="sans-serif" font-size="13" font-weight="bold" lengthAdjust="spacing" textLength="18.0908" x="1214.2817" y="1500.0083">22</text>
    <text fill="#000000" font-family="sans-serif" font-size="13" lengthAdjust="spacing" textLength="433.1895" x="1236.3726" y="1492.4419">Récupérer les limites participant pour toutes les devises et le type</text>
    <text fill="#FF0000" font-family="sans-serif" font-size="13" font-weight="bold" lengthAdjust="spacing" textLength="110.2524" x="1236.3726" y="1507.5747">Code d&apos;erreur :</text>
    <text fill="#FF0000" font-family="sans-serif" font-size="13" lengthAdjust="spacing" textLength="33.084" x="1350.7573" y="1507.5747">3000</text>
    <polygon fill="#181818" points="2195.4131,1537.7734,2205.4131,1541.7734,2195.4131,1545.7734,2199.4131,1541.7734" style="stroke:#181818;stroke-width:1.0;"/>
    <line style="stroke:#181818;stroke-width:1.0;" x1="1695.6943" x2="2201.4131" y1="1541.7734" y2="1541.7734"/>
    <text fill="#000000" font-family="sans-serif" font-size="13" font-weight="bold" lengthAdjust="spacing" textLength="18.0908" x="1702.6943" y="1536.7075">23</text>
    <text fill="#000000" font-family="sans-serif" font-size="13" lengthAdjust="spacing" textLength="470.6279" x="1724.7852" y="1536.7075">Récupérer la limite participant pour toutes les devises et type (si fourni)</text>
    <path d="M1700,1554.7734 L1700,1669.7734 L2313,1669.7734 L2313,1564.7734 L2303,1554.7734 L1700,1554.7734 " fill="#D3D3D3" style="stroke:#181818;stroke-width:0.5;"/>
    <path d="M2303,1554.7734 L2303,1564.7734 L2313,1564.7734 L2303,1554.7734 " fill="#D3D3D3" style="stroke:#181818;stroke-width:0.5;"/>
    <text fill="#000000" font-family="sans-serif" font-size="13" lengthAdjust="spacing" textLength="70.5479" x="1706" y="1571.8403">Condition :</text>
    <text fill="#000000" font-family="sans-serif" font-size="13" lengthAdjust="spacing" textLength="340.0884" x="1722.5293" y="1586.9731">participantCurrency.participantId = &lt;participantId&gt;</text>
    <text fill="#000000" font-family="sans-serif" font-size="13" lengthAdjust="spacing" textLength="543.4165" x="1722.5293" y="1602.106">participantLimit.participantCurrencyId = participantCurrency.participantCurrencyId</text>
    <text fill="#000000" font-family="sans-serif" font-size="13" lengthAdjust="spacing" textLength="185.1992" x="1722.5293" y="1617.2388">participantLimit.isActive = 1</text>
    <text fill="#000000" font-family="sans-serif" font-size="13" lengthAdjust="spacing" textLength="575.9673" x="1722.5293" y="1632.3716">[   participantLimit.participantLimitTypeId = participantLimitType.participantLimitTypeId</text>
    <text fill="#000000" font-family="sans-serif" font-size="13" lengthAdjust="spacing" textLength="245.6797" x="1739.0586" y="1647.5044">participantLimitType.name = &lt;type&gt;</text>
    <text fill="#000000" font-family="sans-serif" font-size="13" lengthAdjust="spacing" textLength="5.0718" x="1722.5293" y="1662.6372">]</text>
    <polygon fill="#FFFFE0" points="2143,1680.7031,2281,1680.7031,2291,1706.7031,2281,1733.7031,2143,1733.7031,2133,1706.7031,2143,1680.7031" style="stroke:#181818;stroke-width:0.5;"/>
    <text fill="#000000" font-family="sans-serif" font-size="13" lengthAdjust="spacing" textLength="129.6699" x="2145" y="1696.77">participantCurrency</text>
    <text fill="#000000" font-family="sans-serif" font-size="13" lengthAdjust="spacing" textLength="102.813" x="2145" y="1711.9028">participantLimit</text>
    <text fill="#000000" font-family="sans-serif" font-size="13" lengthAdjust="spacing" textLength="134.6973" x="2145" y="1727.0356">participantLimitType</text>
    <polygon fill="#181818" points="1706.6943,1756.2344,1696.6943,1760.2344,1706.6943,1764.2344,1702.6943,1760.2344" style="stroke:#181818;stroke-width:1.0;"/>
    <line style="stroke:#181818;stroke-width:1.0;stroke-dasharray:2.0,2.0;" x1="1700.6943" x2="2211.4131" y1="1760.2344" y2="1760.2344"/>
    <text fill="#000000" font-family="sans-serif" font-size="13" font-weight="bold" lengthAdjust="spacing" textLength="18.0908" x="1712.6943" y="1755.1685">24</text>
    <text fill="#000000" font-family="sans-serif" font-size="13" lengthAdjust="spacing" textLength="404.3013" x="1734.7852" y="1755.1685">Limites participant récupérées pour toutes les devises et type</text>
    <polygon fill="#181818" points="1218.2817,1785.3672,1208.2817,1789.3672,1218.2817,1793.3672,1214.2817,1789.3672" style="stroke:#181818;stroke-width:1.0;"/>
    <line style="stroke:#181818;stroke-width:1.0;stroke-dasharray:2.0,2.0;" x1="1212.2817" x2="1689.6943" y1="1789.3672" y2="1789.3672"/>
    <text fill="#000000" font-family="sans-serif" font-size="13" font-weight="bold" lengthAdjust="spacing" textLength="18.0908" x="1224.2817" y="1784.3013">25</text>
    <text fill="#000000" font-family="sans-serif" font-size="13" lengthAdjust="spacing" textLength="412.0454" x="1246.3726" y="1784.3013">Renvoyer les limites participant pour toutes les devises et type</text>
    <path d="M1212,1802.3672 L1212,1902.3672 L1517,1902.3672 L1517,1812.3672 L1507,1802.3672 L1212,1802.3672 " fill="#FFFF00" style="stroke:#181818;stroke-width:0.5;"/>
    <path d="M1507,1802.3672 L1507,1812.3672 L1517,1812.3672 L1507,1802.3672 " fill="#FFFF00" style="stroke:#181818;stroke-width:0.5;"/>
    <text fill="#000000" font-family="sans-serif" font-size="13" lengthAdjust="spacing" textLength="65.4888" x="1218" y="1819.4341">Message :</text>
    <text fill="#000000" font-family="sans-serif" font-size="13" lengthAdjust="spacing" textLength="5.0718" x="1218" y="1834.5669">[</text>
    <text fill="#000000" font-family="sans-serif" font-size="13" lengthAdjust="spacing" textLength="181.4922" x="1234.5293" y="1849.6997">{   currency: &lt;currencyId&gt;,</text>
    <text fill="#000000" font-family="sans-serif" font-size="13" lengthAdjust="spacing" textLength="251.6084" x="1251.0586" y="1864.8325">limit: {type: &lt;type&gt;, value: &lt;value&gt;}</text>
    <text fill="#000000" font-family="sans-serif" font-size="13" lengthAdjust="spacing" textLength="8.271" x="1234.5293" y="1879.9653">}</text>
    <text fill="#000000" font-family="sans-serif" font-size="13" lengthAdjust="spacing" textLength="5.0718" x="1218" y="1895.0981">]</text>
    <polygon fill="#181818" points="907.2881,1925.2969,897.2881,1929.2969,907.2881,1933.2969,903.2881,1929.2969" style="stroke:#181818;stroke-width:1.0;"/>
    <line style="stroke:#181818;stroke-width:1.0;stroke-dasharray:2.0,2.0;" x1="901.2881" x2="1201.2817" y1="1929.2969" y2="1929.2969"/>
    <text fill="#000000" font-family="sans-serif" font-size="13" font-weight="bold" lengthAdjust="spacing" textLength="18.0908" x="913.2881" y="1924.231">26</text>
    <text fill="#000000" font-family="sans-serif" font-size="13" lengthAdjust="spacing" textLength="206.686" x="935.3789" y="1924.231">Renvoyer les limites participant</text>
    <polygon fill="#181818" points="112.2075,1954.4297,102.2075,1958.4297,112.2075,1962.4297,108.2075,1958.4297" style="stroke:#181818;stroke-width:1.0;"/>
    <line style="stroke:#181818;stroke-width:1.0;stroke-dasharray:2.0,2.0;" x1="106.2075" x2="885.2881" y1="1958.4297" y2="1958.4297"/>
    <text fill="#000000" font-family="sans-serif" font-size="13" font-weight="bold" lengthAdjust="spacing" textLength="18.0908" x="118.2075" y="1953.3638">27</text>
    <text fill="#000000" font-family="sans-serif" font-size="13" lengthAdjust="spacing" textLength="206.686" x="140.2983" y="1953.3638">Renvoyer les limites participant</text>
    <line style="stroke:#000000;stroke-width:1.0;stroke-dasharray:2.0,2.0;" x1="30" x2="2323.4966" y1="1967.4297" y2="1967.4297"/>
    <text fill="#000000" font-family="sans-serif" font-size="11" font-weight="bold" lengthAdjust="spacing" textLength="241.9893" x="35" y="1977.6401">[Valider le participant (échec) / erreur]</text>
    <path d="M1217,1986.2344 L1217,2011.2344 L1427,2011.2344 L1427,1996.2344 L1417,1986.2344 L1217,1986.2344 " fill="#FF0000" style="stroke:#181818;stroke-width:0.5;"/>
    <path d="M1417,1986.2344 L1417,1996.2344 L1427,1996.2344 L1417,1986.2344 " fill="#FF0000" style="stroke:#181818;stroke-width:0.5;"/>
    <text fill="#000000" font-family="sans-serif" font-size="13" lengthAdjust="spacing" textLength="189.522" x="1223" y="2003.3013">Échec de validation / erreur !</text>
    <path d="M1217,2021.3672 L1217,2136.3672 L1512,2136.3672 L1512,2031.3672 L1502,2021.3672 L1217,2021.3672 " fill="#FFFF00" style="stroke:#181818;stroke-width:0.5;"/>
    <path d="M1502,2021.3672 L1502,2031.3672 L1512,2031.3672 L1502,2021.3672 " fill="#FFFF00" style="stroke:#181818;stroke-width:0.5;"/>
    <text fill="#000000" font-family="sans-serif" font-size="13" lengthAdjust="spacing" textLength="65.4888" x="1223" y="2038.4341">Message :</text>
    <text fill="#000000" font-family="sans-serif" font-size="13" lengthAdjust="spacing" textLength="8.271" x="1223" y="2053.5669">{</text>
    <text fill="#000000" font-family="sans-serif" font-size="13" lengthAdjust="spacing" textLength="136.208" x="1239.5293" y="2068.6997">&quot;errorInformation&quot;: {</text>
    <text fill="#000000" font-family="sans-serif" font-size="13" lengthAdjust="spacing" textLength="176.9219" x="1256.0586" y="2083.8325">&quot;errorCode&quot;: &lt;errorCode&gt;,</text>
    <text fill="#000000" font-family="sans-serif" font-size="13" lengthAdjust="spacing" textLength="241.5918" x="1256.0586" y="2098.9653">&quot;errorDescription&quot;: &lt;ErrorMessage&gt;,</text>
    <text fill="#000000" font-family="sans-serif" font-size="13" lengthAdjust="spacing" textLength="8.271" x="1239.5293" y="2114.0981">}</text>
    <text fill="#000000" font-family="sans-serif" font-size="13" lengthAdjust="spacing" textLength="8.271" x="1223" y="2129.231">}</text>
    <polygon fill="#181818" points="907.2881,2159.4297,897.2881,2163.4297,907.2881,2167.4297,903.2881,2163.4297" style="stroke:#181818;stroke-width:1.0;"/>
    <line style="stroke:#181818;stroke-width:1.0;stroke-dasharray:2.0,2.0;" x1="901.2881" x2="1196.2817" y1="2163.4297" y2="2163.4297"/>
    <text fill="#000000" font-family="sans-serif" font-size="13" font-weight="bold" lengthAdjust="spacing" textLength="18.0908" x="913.2881" y="2158.3638">28</text>
    <text fill="#000000" font-family="sans-serif" font-size="13" lengthAdjust="spacing" textLength="61.9531" x="935.3789" y="2158.3638">Renvoyer</text>
    <text fill="#FF0000" font-family="sans-serif" font-size="13" font-weight="bold" lengthAdjust="spacing" textLength="110.2524" x="1001.4644" y="2158.3638">Code d&apos;erreur :</text>
    <text fill="#FF0000" font-family="sans-serif" font-size="13" lengthAdjust="spacing" textLength="74.4326" x="1115.8491" y="2158.3638">3000, 3200</text>
    <polygon fill="#181818" points="112.2075,2188.5625,102.2075,2192.5625,112.2075,2196.5625,108.2075,2192.5625" style="stroke:#181818;stroke-width:1.0;"/>
    <line style="stroke:#181818;stroke-width:1.0;stroke-dasharray:2.0,2.0;" x1="106.2075" x2="885.2881" y1="2192.5625" y2="2192.5625"/>
    <text fill="#000000" font-family="sans-serif" font-size="13" font-weight="bold" lengthAdjust="spacing" textLength="18.0908" x="118.2075" y="2187.4966">29</text>
    <text fill="#000000" font-family="sans-serif" font-size="13" lengthAdjust="spacing" textLength="61.9531" x="140.2983" y="2187.4966">Renvoyer</text>
    <text fill="#FF0000" font-family="sans-serif" font-size="13" font-weight="bold" lengthAdjust="spacing" textLength="110.2524" x="206.3838" y="2187.4966">Code d&apos;erreur :</text>
    <text fill="#FF0000" font-family="sans-serif" font-size="13" lengthAdjust="spacing" textLength="74.4326" x="320.7686" y="2187.4966">3000, 3200</text>
  </g>
</svg>
