<svg xmlns="http://www.w3.org/2000/svg" xmlns:xlink="http://www.w3.org/1999/xlink" contentStyleType="text/css" height="2089px" preserveAspectRatio="none" style="width:2140px;height:2089px;background:#FFFFFF;" version="1.1" viewBox="0 0 2140 2089" width="2140px" zoomAndPan="magnify">
  <title>1.0.0 Créer la position initiale et les limites d&apos;un participant</title>
  <defs/>
  <g>
    <text fill="#000000" font-family="sans-serif" font-size="14" font-weight="bold" lengthAdjust="spacing" textLength="473.3408" x="835.1624" y="27.9951">1.0.0 Créer la position initiale et les limites d&apos;un participant</text>
    <rect fill="#FFFFE0" height="2039.8359" style="stroke:#181818;stroke-width:0.5;" width="1347.3735" x="751.2949" y="43.2969"/>
    <text fill="#000000" font-family="sans-serif" font-size="13" font-weight="bold" lengthAdjust="spacing" textLength="131.1235" x="1359.4199" y="55.3638">Services centraux</text>
    <rect fill="#FFFFFF" height="1852.1094" style="stroke:#181818;stroke-width:1.0;" width="10" x="101.2075" y="134.7266"/>
    <rect fill="#FFFFFF" height="1806.8438" style="stroke:#181818;stroke-width:1.0;" width="10" x="829.4473" y="179.9922"/>
    <rect fill="#FFFFFF" height="860.9844" style="stroke:#181818;stroke-width:1.0;" width="10" x="1238.0952" y="365.3203"/>
    <rect fill="#FFFFFF" height="687.2656" style="stroke:#181818;stroke-width:1.0;" width="10" x="1238.0952" y="1255.4375"/>
    <rect fill="#FFFFFF" height="135.6641" style="stroke:#181818;stroke-width:1.0;" width="10" x="1657.9912" y="409.5859"/>
    <rect fill="#FFFFFF" height="120.5313" style="stroke:#181818;stroke-width:1.0;" width="10" x="1657.9912" y="640.6484"/>
    <rect fill="#FFFFFF" height="120.5313" style="stroke:#181818;stroke-width:1.0;" width="10" x="1657.9912" y="790.3125"/>
    <rect fill="#FFFFFF" height="136.5313" style="stroke:#181818;stroke-width:1.0;" width="10" x="1657.9912" y="1036.5078"/>
    <rect fill="#FFFFFF" height="77.3984" style="stroke:#181818;stroke-width:1.0;" width="10" x="2027.582" y="438.7188"/>
    <rect fill="#FFFFFF" height="62.2656" style="stroke:#181818;stroke-width:1.0;" width="10" x="2027.582" y="669.7813"/>
    <rect fill="#FFFFFF" height="62.2656" style="stroke:#181818;stroke-width:1.0;" width="10" x="2027.582" y="819.4453"/>
    <rect fill="#FFFFFF" height="30" style="stroke:#181818;stroke-width:1.0;" width="10" x="2027.582" y="1065.6406"/>
    <rect fill="none" height="1845.1094" style="stroke:#000000;stroke-width:1.5;" width="2124.6655" x="10" y="141.7266"/>
    <rect fill="none" height="1377.4531" style="stroke:#000000;stroke-width:1.5;" width="2104.6655" x="20" y="602.3828"/>
    <rect fill="none" height="770.7266" style="stroke:#000000;stroke-width:1.5;" width="2084.6655" x="30" y="967.9766"/>
    <rect fill="none" height="309.5313" style="stroke:#000000;stroke-width:1.5;" width="1474.8579" x="40" y="1188.0391"/>
    <line style="stroke:#181818;stroke-width:0.5;stroke-dasharray:5.0,5.0;" x1="106" x2="106" y1="124.7266" y2="2003.8359"/>
    <line style="stroke:#181818;stroke-width:0.5;stroke-dasharray:5.0,5.0;" x1="834.2949" x2="834.2949" y1="124.7266" y2="2003.8359"/>
    <line style="stroke:#181818;stroke-width:0.5;stroke-dasharray:5.0,5.0;" x1="1242.9512" x2="1242.9512" y1="124.7266" y2="2003.8359"/>
    <line style="stroke:#181818;stroke-width:0.5;stroke-dasharray:5.0,5.0;" x1="1662.5542" x2="1662.5542" y1="124.7266" y2="2003.8359"/>
    <line style="stroke:#181818;stroke-width:0.5;stroke-dasharray:5.0,5.0;" x1="2032.4956" x2="2032.4956" y1="124.7266" y2="2003.8359"/>
    <text fill="#000000" font-family="sans-serif" font-size="14" lengthAdjust="spacing" textLength="106.415" x="50" y="121.4248">Opérateur HUB</text>
    <ellipse cx="106.2075" cy="56.9297" fill="#E2E2F0" rx="8" ry="8" style="stroke:#181818;stroke-width:0.5;"/>
    <path d="M106.2075,64.9297 L106.2075,91.9297 M93.2075,72.9297 L119.2075,72.9297 M106.2075,91.9297 L93.2075,106.9297 M106.2075,91.9297 L119.2075,106.9297 " fill="none" style="stroke:#181818;stroke-width:0.5;"/>
    <text fill="#000000" font-family="sans-serif" font-size="14" lengthAdjust="spacing" textLength="106.415" x="50" y="2015.8311">Opérateur HUB</text>
    <ellipse cx="106.2075" cy="2027.6328" fill="#E2E2F0" rx="8" ry="8" style="stroke:#181818;stroke-width:0.5;"/>
    <path d="M106.2075,2035.6328 L106.2075,2062.6328 M93.2075,2043.6328 L119.2075,2043.6328 M106.2075,2062.6328 L93.2075,2077.6328 M106.2075,2062.6328 L119.2075,2077.6328 " fill="none" style="stroke:#181818;stroke-width:0.5;"/>
    <text fill="#000000" font-family="sans-serif" font-size="14" lengthAdjust="spacing" textLength="152.3047" x="755.2949" y="121.4248">API du service central</text>
    <path d="M813.9473,80.4297 L813.9473,104.4297 M813.9473,92.4297 L830.9473,92.4297 " fill="none" style="stroke:#181818;stroke-width:0.5;"/>
    <ellipse cx="842.9473" cy="92.4297" fill="#E2E2F0" rx="12" ry="12" style="stroke:#181818;stroke-width:0.5;"/>
    <text fill="#000000" font-family="sans-serif" font-size="14" lengthAdjust="spacing" textLength="152.3047" x="755.2949" y="2015.8311">API du service central</text>
    <path d="M813.9473,2023.1328 L813.9473,2047.1328 M813.9473,2035.1328 L830.9473,2035.1328 " fill="none" style="stroke:#181818;stroke-width:0.5;"/>
    <ellipse cx="842.9473" cy="2035.1328" fill="#E2E2F0" rx="12" ry="12" style="stroke:#181818;stroke-width:0.5;"/>
    <text fill="#000000" font-family="sans-serif" font-size="14" lengthAdjust="spacing" textLength="206.2881" x="1136.9512" y="121.4248">Gestionnaire des participants</text>
    <ellipse cx="1243.0952" cy="92.4297" fill="#E2E2F0" rx="12" ry="12" style="stroke:#181818;stroke-width:0.5;"/>
    <polygon fill="#181818" points="1239.0952,80.4297,1245.0952,75.4297,1243.0952,80.4297,1245.0952,85.4297,1239.0952,80.4297" style="stroke:#181818;stroke-width:1.0;"/>
    <text fill="#000000" font-family="sans-serif" font-size="14" lengthAdjust="spacing" textLength="206.2881" x="1136.9512" y="2015.8311">Gestionnaire des participants</text>
    <ellipse cx="1243.0952" cy="2035.1328" fill="#E2E2F0" rx="12" ry="12" style="stroke:#181818;stroke-width:0.5;"/>
    <polygon fill="#181818" points="1239.0952,2023.1328,1245.0952,2018.1328,1243.0952,2023.1328,1245.0952,2028.1328,1239.0952,2023.1328" style="stroke:#181818;stroke-width:1.0;"/>
    <text fill="#000000" font-family="sans-serif" font-size="14" lengthAdjust="spacing" textLength="130.874" x="1594.5542" y="121.4248">Façade participant</text>
    <ellipse cx="1662.9912" cy="92.4297" fill="#E2E2F0" rx="12" ry="12" style="stroke:#181818;stroke-width:0.5;"/>
    <line style="stroke:#181818;stroke-width:0.5;" x1="1650.9912" x2="1674.9912" y1="106.4297" y2="106.4297"/>
    <text fill="#000000" font-family="sans-serif" font-size="14" lengthAdjust="spacing" textLength="130.874" x="1594.5542" y="2015.8311">Façade participant</text>
    <ellipse cx="1662.9912" cy="2035.1328" fill="#E2E2F0" rx="12" ry="12" style="stroke:#181818;stroke-width:0.5;"/>
    <line style="stroke:#181818;stroke-width:0.5;" x1="1650.9912" x2="1674.9912" y1="2049.1328" y2="2049.1328"/>
    <text fill="#000000" font-family="sans-serif" font-size="14" lengthAdjust="spacing" textLength="118.1729" x="1970.4956" y="121.4248">Stockage central</text>
    <path d="M2014.582,72.4297 C2014.582,62.4297 2032.582,62.4297 2032.582,62.4297 C2032.582,62.4297 2050.582,62.4297 2050.582,72.4297 L2050.582,98.4297 C2050.582,108.4297 2032.582,108.4297 2032.582,108.4297 C2032.582,108.4297 2014.582,108.4297 2014.582,98.4297 L2014.582,72.4297 " fill="#E2E2F0" style="stroke:#181818;stroke-width:1.5;"/>
    <path d="M2014.582,72.4297 C2014.582,82.4297 2032.582,82.4297 2032.582,82.4297 C2032.582,82.4297 2050.582,82.4297 2050.582,72.4297 " fill="none" style="stroke:#181818;stroke-width:1.5;"/>
    <text fill="#000000" font-family="sans-serif" font-size="14" lengthAdjust="spacing" textLength="118.1729" x="1970.4956" y="2015.8311">Stockage central</text>
    <path d="M2014.582,2029.1328 C2014.582,2019.1328 2032.582,2019.1328 2032.582,2019.1328 C2032.582,2019.1328 2050.582,2019.1328 2050.582,2029.1328 L2050.582,2055.1328 C2050.582,2065.1328 2032.582,2065.1328 2032.582,2065.1328 C2032.582,2065.1328 2014.582,2065.1328 2014.582,2055.1328 L2014.582,2029.1328 " fill="#E2E2F0" style="stroke:#181818;stroke-width:1.5;"/>
    <path d="M2014.582,2029.1328 C2014.582,2039.1328 2032.582,2039.1328 2032.582,2039.1328 C2032.582,2039.1328 2050.582,2039.1328 2050.582,2029.1328 " fill="none" style="stroke:#181818;stroke-width:1.5;"/>
    <rect fill="#FFFFFF" height="1852.1094" style="stroke:#181818;stroke-width:1.0;" width="10" x="101.2075" y="134.7266"/>
    <rect fill="#FFFFFF" height="1806.8438" style="stroke:#181818;stroke-width:1.0;" width="10" x="829.4473" y="179.9922"/>
    <rect fill="#FFFFFF" height="860.9844" style="stroke:#181818;stroke-width:1.0;" width="10" x="1238.0952" y="365.3203"/>
    <rect fill="#FFFFFF" height="687.2656" style="stroke:#181818;stroke-width:1.0;" width="10" x="1238.0952" y="1255.4375"/>
    <rect fill="#FFFFFF" height="135.6641" style="stroke:#181818;stroke-width:1.0;" width="10" x="1657.9912" y="409.5859"/>
    <rect fill="#FFFFFF" height="120.5313" style="stroke:#181818;stroke-width:1.0;" width="10" x="1657.9912" y="640.6484"/>
    <rect fill="#FFFFFF" height="120.5313" style="stroke:#181818;stroke-width:1.0;" width="10" x="1657.9912" y="790.3125"/>
    <rect fill="#FFFFFF" height="136.5313" style="stroke:#181818;stroke-width:1.0;" width="10" x="1657.9912" y="1036.5078"/>
    <rect fill="#FFFFFF" height="77.3984" style="stroke:#181818;stroke-width:1.0;" width="10" x="2027.582" y="438.7188"/>
    <rect fill="#FFFFFF" height="62.2656" style="stroke:#181818;stroke-width:1.0;" width="10" x="2027.582" y="669.7813"/>
    <rect fill="#FFFFFF" height="62.2656" style="stroke:#181818;stroke-width:1.0;" width="10" x="2027.582" y="819.4453"/>
    <rect fill="#FFFFFF" height="30" style="stroke:#181818;stroke-width:1.0;" width="10" x="2027.582" y="1065.6406"/>
    <path d="M10,141.7266 L331.2754,141.7266 L331.2754,148.8594 L321.2754,158.8594 L10,158.8594 L10,141.7266 " fill="#EEEEEE" style="stroke:#000000;stroke-width:1.5;"/>
    <rect fill="none" height="1845.1094" style="stroke:#000000;stroke-width:1.5;" width="2124.6655" x="10" y="141.7266"/>
    <text fill="#000000" font-family="sans-serif" font-size="13" font-weight="bold" lengthAdjust="spacing" textLength="276.2754" x="25" y="154.7935">Créer la position initiale et les limites</text>
    <polygon fill="#181818" points="817.4473,175.9922,827.4473,179.9922,817.4473,183.9922,821.4473,179.9922" style="stroke:#181818;stroke-width:1.0;"/>
    <line style="stroke:#181818;stroke-width:1.0;" x1="111.2075" x2="823.4473" y1="179.9922" y2="179.9922"/>
    <text fill="#000000" font-family="sans-serif" font-size="13" font-weight="bold" lengthAdjust="spacing" textLength="9.0454" x="118.2075" y="174.9263">1</text>
    <text fill="#000000" font-family="sans-serif" font-size="13" lengthAdjust="spacing" textLength="686.1943" x="131.2529" y="174.9263">Demande de créer la position initiale et les limites — POST - /paticipants/{name}/initialPositionAndLimits</text>
    <path d="M116,192.9922 L116,338.9922 L358,338.9922 L358,202.9922 L348,192.9922 L116,192.9922 " fill="#FFFF00" style="stroke:#181818;stroke-width:0.5;"/>
    <path d="M348,192.9922 L348,202.9922 L358,202.9922 L348,192.9922 " fill="#FFFF00" style="stroke:#181818;stroke-width:0.5;"/>
    <text fill="#000000" font-family="sans-serif" font-size="13" lengthAdjust="spacing" textLength="65.4888" x="122" y="210.0591">Message :</text>
    <text fill="#000000" font-family="sans-serif" font-size="13" lengthAdjust="spacing" textLength="8.271" x="122" y="225.1919">{</text>
    <text fill="#000000" font-family="sans-serif" font-size="13" lengthAdjust="spacing" textLength="160.8242" x="138.5293" y="240.3247">currency: &lt;currencyId&gt;,</text>
    <text fill="#000000" font-family="sans-serif" font-size="13" lengthAdjust="spacing" textLength="45.3794" x="138.5293" y="255.4575">limit: {</text>
    <text fill="#000000" font-family="sans-serif" font-size="13" lengthAdjust="spacing" textLength="123.9507" x="155.0586" y="270.5903">type: &lt;limitType&gt;,</text>
    <text fill="#000000" font-family="sans-serif" font-size="13" lengthAdjust="spacing" textLength="131.1108" x="155.0586" y="285.7231">value: &lt;limitValue&gt;</text>
    <text fill="#000000" font-family="sans-serif" font-size="13" lengthAdjust="spacing" textLength="12.4033" x="138.5293" y="300.856">},</text>
    <text fill="#000000" font-family="sans-serif" font-size="13" lengthAdjust="spacing" textLength="205.3276" x="138.5293" y="315.9888">initialPosition: &lt;positionValue&gt;</text>
    <text fill="#000000" font-family="sans-serif" font-size="13" lengthAdjust="spacing" textLength="8.271" x="122" y="331.1216">}</text>
    <polygon fill="#181818" points="1226.0952,361.3203,1236.0952,365.3203,1226.0952,369.3203,1230.0952,365.3203" style="stroke:#181818;stroke-width:1.0;"/>
    <line style="stroke:#181818;stroke-width:1.0;" x1="839.4473" x2="1232.0952" y1="365.3203" y2="365.3203"/>
    <text fill="#000000" font-family="sans-serif" font-size="13" font-weight="bold" lengthAdjust="spacing" textLength="9.0454" x="846.4473" y="360.2544">2</text>
    <text fill="#000000" font-family="sans-serif" font-size="13" lengthAdjust="spacing" textLength="366.6025" x="859.4927" y="360.2544">Créer la position initiale et les limites pour le participant</text>
    <polygon fill="#181818" points="1645.9912,405.5859,1655.9912,409.5859,1645.9912,413.5859,1649.9912,409.5859" style="stroke:#181818;stroke-width:1.0;"/>
    <line style="stroke:#181818;stroke-width:1.0;" x1="1248.0952" x2="1651.9912" y1="409.5859" y2="409.5859"/>
    <text fill="#000000" font-family="sans-serif" font-size="13" font-weight="bold" lengthAdjust="spacing" textLength="9.0454" x="1255.0952" y="396.9536">3</text>
    <text fill="#000000" font-family="sans-serif" font-size="13" lengthAdjust="spacing" textLength="274.6631" x="1268.1406" y="389.3872">Récupérer l&apos;identifiant participant / devise</text>
    <text fill="#FF0000" font-family="sans-serif" font-size="13" font-weight="bold" lengthAdjust="spacing" textLength="110.2524" x="1268.1406" y="404.52">Code d&apos;erreur :</text>
    <text fill="#FF0000" font-family="sans-serif" font-size="13" lengthAdjust="spacing" textLength="33.084" x="1382.5254" y="404.52">3200</text>
    <polygon fill="#181818" points="2015.582,434.7188,2025.582,438.7188,2015.582,442.7188,2019.582,438.7188" style="stroke:#181818;stroke-width:1.0;"/>
    <line style="stroke:#181818;stroke-width:1.0;" x1="1667.9912" x2="2021.582" y1="438.7188" y2="438.7188"/>
    <text fill="#000000" font-family="sans-serif" font-size="13" font-weight="bold" lengthAdjust="spacing" textLength="9.0454" x="1674.9912" y="433.6528">4</text>
    <text fill="#000000" font-family="sans-serif" font-size="13" lengthAdjust="spacing" textLength="266.3984" x="1688.0366" y="433.6528">Récupérer l&apos;identifiant participant/devise</text>
    <polygon fill="#FFFFE0" points="1965,451.7188,2098,451.7188,2108,470.7188,2098,489.7188,1965,489.7188,1955,470.7188,1965,451.7188" style="stroke:#181818;stroke-width:0.5;"/>
    <text fill="#000000" font-family="sans-serif" font-size="13" lengthAdjust="spacing" textLength="70.5859" x="1967" y="467.7856">participant</text>
    <text fill="#000000" font-family="sans-serif" font-size="13" lengthAdjust="spacing" textLength="129.6699" x="1967" y="482.9185">participantCurrency</text>
    <polygon fill="#181818" points="1678.9912,512.1172,1668.9912,516.1172,1678.9912,520.1172,1674.9912,516.1172" style="stroke:#181818;stroke-width:1.0;"/>
    <line style="stroke:#181818;stroke-width:1.0;stroke-dasharray:2.0,2.0;" x1="1672.9912" x2="2031.582" y1="516.1172" y2="516.1172"/>
    <text fill="#000000" font-family="sans-serif" font-size="13" font-weight="bold" lengthAdjust="spacing" textLength="9.0454" x="1684.9912" y="511.0513">5</text>
    <text fill="#000000" font-family="sans-serif" font-size="13" lengthAdjust="spacing" textLength="250.4023" x="1698.0366" y="511.0513">Identifiant participant/devise récupéré</text>
    <polygon fill="#181818" points="1259.0952,541.25,1249.0952,545.25,1259.0952,549.25,1255.0952,545.25" style="stroke:#181818;stroke-width:1.0;"/>
    <line style="stroke:#181818;stroke-width:1.0;stroke-dasharray:2.0,2.0;" x1="1253.0952" x2="1661.9912" y1="545.25" y2="545.25"/>
    <text fill="#000000" font-family="sans-serif" font-size="13" font-weight="bold" lengthAdjust="spacing" textLength="9.0454" x="1265.0952" y="540.1841">6</text>
    <text fill="#000000" font-family="sans-serif" font-size="13" lengthAdjust="spacing" textLength="260.9966" x="1278.1406" y="540.1841">Renvoyer l&apos;identifiant participant/devise</text>
    <line style="stroke:#181818;stroke-width:1.0;" x1="1248.0952" x2="1290.0952" y1="574.3828" y2="574.3828"/>
    <line style="stroke:#181818;stroke-width:1.0;" x1="1290.0952" x2="1290.0952" y1="574.3828" y2="587.3828"/>
    <line style="stroke:#181818;stroke-width:1.0;" x1="1249.0952" x2="1290.0952" y1="587.3828" y2="587.3828"/>
    <polygon fill="#181818" points="1259.0952,583.3828,1249.0952,587.3828,1259.0952,591.3828,1255.0952,587.3828" style="stroke:#181818;stroke-width:1.0;"/>
    <text fill="#000000" font-family="sans-serif" font-size="13" font-weight="bold" lengthAdjust="spacing" textLength="9.0454" x="1255.0952" y="569.3169">7</text>
    <text fill="#000000" font-family="sans-serif" font-size="13" lengthAdjust="spacing" textLength="99.1313" x="1268.1406" y="569.3169">Valider le DFSP</text>
    <path d="M20,602.3828 L84.4429,602.3828 L84.4429,609.5156 L74.4429,619.5156 L20,619.5156 L20,602.3828 " fill="#EEEEEE" style="stroke:#000000;stroke-width:1.5;"/>
    <rect fill="none" height="1377.4531" style="stroke:#000000;stroke-width:1.5;" width="2104.6655" x="20" y="602.3828"/>
    <text fill="#000000" font-family="sans-serif" font-size="13" font-weight="bold" lengthAdjust="spacing" textLength="19.4429" x="35" y="615.4497">alt</text>
    <text fill="#000000" font-family="sans-serif" font-size="11" font-weight="bold" lengthAdjust="spacing" textLength="196.9204" x="99.4429" y="614.5933">[Valider le participant (succès)]</text>
    <polygon fill="#181818" points="1645.9912,636.6484,1655.9912,640.6484,1645.9912,644.6484,1649.9912,640.6484" style="stroke:#181818;stroke-width:1.0;"/>
    <line style="stroke:#181818;stroke-width:1.0;" x1="1248.0952" x2="1651.9912" y1="640.6484" y2="640.6484"/>
    <text fill="#000000" font-family="sans-serif" font-size="13" font-weight="bold" lengthAdjust="spacing" textLength="9.0454" x="1255.0952" y="635.5825">8</text>
    <text fill="#000000" font-family="sans-serif" font-size="13" lengthAdjust="spacing" textLength="303.6021" x="1268.1406" y="635.5825">Récupérer la limite pour participantCurrencyId</text>
    <polygon fill="#181818" points="2015.582,665.7813,2025.582,669.7813,2015.582,673.7813,2019.582,669.7813" style="stroke:#181818;stroke-width:1.0;"/>
    <line style="stroke:#181818;stroke-width:1.0;" x1="1667.9912" x2="2021.582" y1="669.7813" y2="669.7813"/>
    <text fill="#000000" font-family="sans-serif" font-size="13" font-weight="bold" lengthAdjust="spacing" textLength="9.0454" x="1674.9912" y="664.7153">9</text>
    <text fill="#000000" font-family="sans-serif" font-size="13" lengthAdjust="spacing" textLength="303.6021" x="1688.0366" y="664.7153">Récupérer la limite pour participantCurrencyId</text>
    <polygon fill="#FFFFE0" points="1979,682.7813,2085,682.7813,2095,693.7813,2085,705.7813,1979,705.7813,1969,693.7813,1979,682.7813" style="stroke:#181818;stroke-width:0.5;"/>
    <text fill="#000000" font-family="sans-serif" font-size="13" lengthAdjust="spacing" textLength="102.813" x="1981" y="698.8481">participantLimit</text>
    <polygon fill="#181818" points="1678.9912,728.0469,1668.9912,732.0469,1678.9912,736.0469,1674.9912,732.0469" style="stroke:#181818;stroke-width:1.0;"/>
    <line style="stroke:#181818;stroke-width:1.0;stroke-dasharray:2.0,2.0;" x1="1672.9912" x2="2031.582" y1="732.0469" y2="732.0469"/>
    <text fill="#000000" font-family="sans-serif" font-size="13" font-weight="bold" lengthAdjust="spacing" textLength="18.0908" x="1684.9912" y="726.981">10</text>
    <text fill="#000000" font-family="sans-serif" font-size="13" lengthAdjust="spacing" textLength="185.396" x="1707.082" y="726.981">Limite participant récupérée</text>
    <polygon fill="#181818" points="1259.0952,757.1797,1249.0952,761.1797,1259.0952,765.1797,1255.0952,761.1797" style="stroke:#181818;stroke-width:1.0;"/>
    <line style="stroke:#181818;stroke-width:1.0;stroke-dasharray:2.0,2.0;" x1="1253.0952" x2="1661.9912" y1="761.1797" y2="761.1797"/>
    <text fill="#000000" font-family="sans-serif" font-size="13" font-weight="bold" lengthAdjust="spacing" textLength="18.0908" x="1265.0952" y="756.1138">11</text>
    <text fill="#000000" font-family="sans-serif" font-size="13" lengthAdjust="spacing" textLength="193.1084" x="1287.186" y="756.1138">Renvoyer la limite participant</text>
    <polygon fill="#181818" points="1645.9912,786.3125,1655.9912,790.3125,1645.9912,794.3125,1649.9912,790.3125" style="stroke:#181818;stroke-width:1.0;"/>
    <line style="stroke:#181818;stroke-width:1.0;" x1="1248.0952" x2="1651.9912" y1="790.3125" y2="790.3125"/>
    <text fill="#000000" font-family="sans-serif" font-size="13" font-weight="bold" lengthAdjust="spacing" textLength="18.0908" x="1255.0952" y="785.2466">12</text>
    <text fill="#000000" font-family="sans-serif" font-size="13" lengthAdjust="spacing" textLength="318.5" x="1277.186" y="785.2466">Récupérer la position pour participantCurrencyId</text>
    <polygon fill="#181818" points="2015.582,815.4453,2025.582,819.4453,2015.582,823.4453,2019.582,819.4453" style="stroke:#181818;stroke-width:1.0;"/>
    <line style="stroke:#181818;stroke-width:1.0;" x1="1667.9912" x2="2021.582" y1="819.4453" y2="819.4453"/>
    <text fill="#000000" font-family="sans-serif" font-size="13" font-weight="bold" lengthAdjust="spacing" textLength="18.0908" x="1674.9912" y="814.3794">13</text>
    <text fill="#000000" font-family="sans-serif" font-size="13" lengthAdjust="spacing" textLength="318.5" x="1697.082" y="814.3794">Récupérer la position pour participantCurrencyId</text>
    <polygon fill="#FFFFE0" points="1969,832.4453,2094,832.4453,2104,843.4453,2094,855.4453,1969,855.4453,1959,843.4453,1969,832.4453" style="stroke:#181818;stroke-width:0.5;"/>
    <text fill="#000000" font-family="sans-serif" font-size="13" lengthAdjust="spacing" textLength="121.6655" x="1971" y="848.5122">participantPosition</text>
    <polygon fill="#181818" points="1678.9912,877.7109,1668.9912,881.7109,1678.9912,885.7109,1674.9912,881.7109" style="stroke:#181818;stroke-width:1.0;"/>
    <line style="stroke:#181818;stroke-width:1.0;stroke-dasharray:2.0,2.0;" x1="1672.9912" x2="2031.582" y1="881.7109" y2="881.7109"/>
    <text fill="#000000" font-family="sans-serif" font-size="13" font-weight="bold" lengthAdjust="spacing" textLength="18.0908" x="1684.9912" y="876.645">14</text>
    <text fill="#000000" font-family="sans-serif" font-size="13" lengthAdjust="spacing" textLength="196.2505" x="1707.082" y="876.645">Position participant récupérée</text>
    <polygon fill="#181818" points="1259.0952,906.8438,1249.0952,910.8438,1259.0952,914.8438,1255.0952,910.8438" style="stroke:#181818;stroke-width:1.0;"/>
    <line style="stroke:#181818;stroke-width:1.0;stroke-dasharray:2.0,2.0;" x1="1253.0952" x2="1661.9912" y1="910.8438" y2="910.8438"/>
    <text fill="#000000" font-family="sans-serif" font-size="13" font-weight="bold" lengthAdjust="spacing" textLength="18.0908" x="1265.0952" y="905.7778">15</text>
    <text fill="#000000" font-family="sans-serif" font-size="13" lengthAdjust="spacing" textLength="208.0063" x="1287.186" y="905.7778">Renvoyer la position participant</text>
    <line style="stroke:#181818;stroke-width:1.0;" x1="1248.0952" x2="1290.0952" y1="939.9766" y2="939.9766"/>
    <line style="stroke:#181818;stroke-width:1.0;" x1="1290.0952" x2="1290.0952" y1="939.9766" y2="952.9766"/>
    <line style="stroke:#181818;stroke-width:1.0;" x1="1249.0952" x2="1290.0952" y1="952.9766" y2="952.9766"/>
    <polygon fill="#181818" points="1259.0952,948.9766,1249.0952,952.9766,1259.0952,956.9766,1255.0952,952.9766" style="stroke:#181818;stroke-width:1.0;"/>
    <text fill="#000000" font-family="sans-serif" font-size="13" font-weight="bold" lengthAdjust="spacing" textLength="18.0908" x="1255.0952" y="934.9106">16</text>
    <text fill="#000000" font-family="sans-serif" font-size="13" lengthAdjust="spacing" textLength="221.876" x="1277.186" y="934.9106">Vérifier si position ou limite existe</text>
    <path d="M30,967.9766 L94.4429,967.9766 L94.4429,975.1094 L84.4429,985.1094 L30,985.1094 L30,967.9766 " fill="#EEEEEE" style="stroke:#000000;stroke-width:1.5;"/>
    <rect fill="none" height="770.7266" style="stroke:#000000;stroke-width:1.5;" width="2084.6655" x="30" y="967.9766"/>
    <text fill="#000000" font-family="sans-serif" font-size="13" font-weight="bold" lengthAdjust="spacing" textLength="19.4429" x="45" y="981.0435">alt</text>
    <text fill="#000000" font-family="sans-serif" font-size="11" font-weight="bold" lengthAdjust="spacing" textLength="247.6074" x="109.4429" y="980.187">[position ou limite inexistante (succès)]</text>
    <polygon fill="#181818" points="1645.9912,1032.5078,1655.9912,1036.5078,1645.9912,1040.5078,1649.9912,1036.5078" style="stroke:#181818;stroke-width:1.0;"/>
    <line style="stroke:#181818;stroke-width:1.0;" x1="1248.0952" x2="1651.9912" y1="1036.5078" y2="1036.5078"/>
    <text fill="#000000" font-family="sans-serif" font-size="13" font-weight="bold" lengthAdjust="spacing" textLength="18.0908" x="1255.0952" y="1016.3091">17</text>
    <text fill="#000000" font-family="sans-serif" font-size="13" lengthAdjust="spacing" textLength="364.6729" x="1277.186" y="1001.1763">créer la position initiale et les limites pour le participant</text>
    <text fill="#FF0000" font-family="sans-serif" font-size="13" font-weight="bold" lengthAdjust="spacing" textLength="110.2524" x="1277.186" y="1016.3091">Code d&apos;erreur :</text>
    <text fill="#FF0000" font-family="sans-serif" font-size="13" lengthAdjust="spacing" textLength="37.4639" x="1391.5708" y="1016.3091">2003/</text>
    <text fill="#FF0000" font-family="sans-serif" font-size="13" font-weight="bold" lengthAdjust="spacing" textLength="39.7046" x="1429.0347" y="1016.3091">Msg :</text>
    <text fill="#FF0000" font-family="sans-serif" font-size="13" lengthAdjust="spacing" textLength="127.334" x="1472.8716" y="1016.3091">Service unavailable</text>
    <text fill="#000000" font-family="sans-serif" font-size="13" lengthAdjust="spacing" textLength="4.1323" x="1604.3379" y="1016.3091"> </text>
    <text fill="#FF0000" font-family="sans-serif" font-size="13" font-weight="bold" lengthAdjust="spacing" textLength="110.2524" x="1277.186" y="1031.4419">Code d&apos;erreur :</text>
    <text fill="#FF0000" font-family="sans-serif" font-size="13" lengthAdjust="spacing" textLength="37.4639" x="1391.5708" y="1031.4419">2001/</text>
    <text fill="#FF0000" font-family="sans-serif" font-size="13" font-weight="bold" lengthAdjust="spacing" textLength="39.7046" x="1429.0347" y="1031.4419">Msg :</text>
    <text fill="#FF0000" font-family="sans-serif" font-size="13" lengthAdjust="spacing" textLength="133.4277" x="1472.8716" y="1031.4419">Internal Server Error</text>
    <polygon fill="#181818" points="2015.582,1061.6406,2025.582,1065.6406,2015.582,1069.6406,2019.582,1065.6406" style="stroke:#181818;stroke-width:1.0;"/>
    <line style="stroke:#181818;stroke-width:1.0;" x1="1667.9912" x2="2021.582" y1="1065.6406" y2="1065.6406"/>
    <text fill="#000000" font-family="sans-serif" font-size="13" font-weight="bold" lengthAdjust="spacing" textLength="18.0908" x="1674.9912" y="1060.5747">18</text>
    <text fill="#000000" font-family="sans-serif" font-size="13" lengthAdjust="spacing" textLength="278.0083" x="1697.082" y="1060.5747">Persister les limites/position du participant</text>
    <polygon fill="#FFFFE0" points="1969,1108.6406,2094,1108.6406,2104,1127.6406,2094,1146.6406,1969,1146.6406,1959,1127.6406,1969,1108.6406" style="stroke:#181818;stroke-width:0.5;"/>
    <text fill="#000000" font-family="sans-serif" font-size="13" lengthAdjust="spacing" textLength="121.6655" x="1971" y="1124.7075">participantPosition</text>
    <text fill="#000000" font-family="sans-serif" font-size="13" lengthAdjust="spacing" textLength="102.813" x="1971" y="1139.8403">participantLimit</text>
    <polygon fill="#181818" points="1259.0952,1169.0391,1249.0952,1173.0391,1259.0952,1177.0391,1255.0952,1173.0391" style="stroke:#181818;stroke-width:1.0;"/>
    <line style="stroke:#181818;stroke-width:1.0;stroke-dasharray:2.0,2.0;" x1="1253.0952" x2="1661.9912" y1="1173.0391" y2="1173.0391"/>
    <text fill="#000000" font-family="sans-serif" font-size="13" font-weight="bold" lengthAdjust="spacing" textLength="18.0908" x="1265.0952" y="1167.9731">19</text>
    <text fill="#000000" font-family="sans-serif" font-size="13" lengthAdjust="spacing" textLength="120.0977" x="1287.186" y="1167.9731">Renvoyer le statut</text>
    <path d="M40,1188.0391 L104.4429,1188.0391 L104.4429,1195.1719 L94.4429,1205.1719 L40,1205.1719 L40,1188.0391 " fill="#EEEEEE" style="stroke:#000000;stroke-width:1.5;"/>
    <rect fill="none" height="309.5313" style="stroke:#000000;stroke-width:1.5;" width="1474.8579" x="40" y="1188.0391"/>
    <text fill="#000000" font-family="sans-serif" font-size="13" font-weight="bold" lengthAdjust="spacing" textLength="19.4429" x="55" y="1201.106">alt</text>
    <text fill="#000000" font-family="sans-serif" font-size="11" font-weight="bold" lengthAdjust="spacing" textLength="205.9653" x="119.4429" y="1200.2495">[Détails enregistrés avec succès]</text>
    <polygon fill="#181818" points="850.4473,1222.3047,840.4473,1226.3047,850.4473,1230.3047,846.4473,1226.3047" style="stroke:#181818;stroke-width:1.0;"/>
    <line style="stroke:#181818;stroke-width:1.0;stroke-dasharray:2.0,2.0;" x1="844.4473" x2="1242.0952" y1="1226.3047" y2="1226.3047"/>
    <text fill="#000000" font-family="sans-serif" font-size="13" font-weight="bold" lengthAdjust="spacing" textLength="18.0908" x="856.4473" y="1221.2388">20</text>
    <text fill="#000000" font-family="sans-serif" font-size="13" lengthAdjust="spacing" textLength="184.5264" x="878.5381" y="1221.2388">Renvoyer le code statut 201</text>
    <polygon fill="#181818" points="122.2075,1251.4375,112.2075,1255.4375,122.2075,1259.4375,118.2075,1255.4375" style="stroke:#181818;stroke-width:1.0;"/>
    <line style="stroke:#181818;stroke-width:1.0;stroke-dasharray:2.0,2.0;" x1="116.2075" x2="828.4473" y1="1255.4375" y2="1255.4375"/>
    <text fill="#000000" font-family="sans-serif" font-size="13" font-weight="bold" lengthAdjust="spacing" textLength="18.0908" x="128.2075" y="1250.3716">21</text>
    <text fill="#000000" font-family="sans-serif" font-size="13" lengthAdjust="spacing" textLength="184.5264" x="150.2983" y="1250.3716">Renvoyer le code statut 201</text>
    <line style="stroke:#000000;stroke-width:1.0;stroke-dasharray:2.0,2.0;" x1="40" x2="1514.8579" y1="1264.4375" y2="1264.4375"/>
    <text fill="#000000" font-family="sans-serif" font-size="11" font-weight="bold" lengthAdjust="spacing" textLength="206.0566" x="45" y="1274.6479">[Détails non enregistrés / erreur]</text>
    <path d="M1253,1283.2422 L1253,1308.2422 L1323,1308.2422 L1323,1293.2422 L1313,1283.2422 L1253,1283.2422 " fill="#FF0000" style="stroke:#181818;stroke-width:0.5;"/>
    <path d="M1313,1283.2422 L1313,1293.2422 L1323,1293.2422 L1313,1283.2422 " fill="#FF0000" style="stroke:#181818;stroke-width:0.5;"/>
    <text fill="#000000" font-family="sans-serif" font-size="13" lengthAdjust="spacing" textLength="49.8291" x="1259" y="1300.3091">Erreur !</text>
    <path d="M1253,1318.375 L1253,1433.375 L1504,1433.375 L1504,1328.375 L1494,1318.375 L1253,1318.375 " fill="#FFFF00" style="stroke:#181818;stroke-width:0.5;"/>
    <path d="M1494,1318.375 L1494,1328.375 L1504,1328.375 L1494,1318.375 " fill="#FFFF00" style="stroke:#181818;stroke-width:0.5;"/>
    <text fill="#000000" font-family="sans-serif" font-size="13" lengthAdjust="spacing" textLength="65.4888" x="1259" y="1335.4419">Message :</text>
    <text fill="#000000" font-family="sans-serif" font-size="13" lengthAdjust="spacing" textLength="8.271" x="1275.5293" y="1350.5747">{</text>
    <text fill="#000000" font-family="sans-serif" font-size="13" lengthAdjust="spacing" textLength="136.208" x="1292.0586" y="1365.7075">&quot;errorInformation&quot;: {</text>
    <text fill="#000000" font-family="sans-serif" font-size="13" lengthAdjust="spacing" textLength="181.27" x="1308.5879" y="1380.8403">&quot;errorCode&quot;: &lt;Error Code&gt;,</text>
    <text fill="#000000" font-family="sans-serif" font-size="13" lengthAdjust="spacing" textLength="178.6548" x="1308.5879" y="1395.9731">&quot;errorDescription&quot;: &lt;Msg&gt;,</text>
    <text fill="#000000" font-family="sans-serif" font-size="13" lengthAdjust="spacing" textLength="8.271" x="1292.0586" y="1411.106">}</text>
    <text fill="#000000" font-family="sans-serif" font-size="13" lengthAdjust="spacing" textLength="8.271" x="1275.5293" y="1426.2388">}</text>
    <polygon fill="#181818" points="850.4473,1456.4375,840.4473,1460.4375,850.4473,1464.4375,846.4473,1460.4375" style="stroke:#181818;stroke-width:1.0;"/>
    <line style="stroke:#181818;stroke-width:1.0;stroke-dasharray:2.0,2.0;" x1="844.4473" x2="1237.0952" y1="1460.4375" y2="1460.4375"/>
    <text fill="#000000" font-family="sans-serif" font-size="13" font-weight="bold" lengthAdjust="spacing" textLength="18.0908" x="856.4473" y="1455.3716">22</text>
    <text fill="#000000" font-family="sans-serif" font-size="13" lengthAdjust="spacing" textLength="61.9531" x="878.5381" y="1455.3716">Renvoyer</text>
    <text fill="#FF0000" font-family="sans-serif" font-size="13" font-weight="bold" lengthAdjust="spacing" textLength="100.5278" x="944.6235" y="1455.3716">Code d&apos;erreur</text>
    <polygon fill="#181818" points="122.2075,1485.5703,112.2075,1489.5703,122.2075,1493.5703,118.2075,1489.5703" style="stroke:#181818;stroke-width:1.0;"/>
    <line style="stroke:#181818;stroke-width:1.0;stroke-dasharray:2.0,2.0;" x1="116.2075" x2="828.4473" y1="1489.5703" y2="1489.5703"/>
    <text fill="#000000" font-family="sans-serif" font-size="13" font-weight="bold" lengthAdjust="spacing" textLength="18.0908" x="128.2075" y="1484.5044">23</text>
    <text fill="#000000" font-family="sans-serif" font-size="13" lengthAdjust="spacing" textLength="61.9531" x="150.2983" y="1484.5044">Renvoyer</text>
    <text fill="#FF0000" font-family="sans-serif" font-size="13" font-weight="bold" lengthAdjust="spacing" textLength="100.5278" x="216.3838" y="1484.5044">Code d&apos;erreur</text>
    <line style="stroke:#000000;stroke-width:1.0;stroke-dasharray:2.0,2.0;" x1="30" x2="2114.6655" y1="1505.5703" y2="1505.5703"/>
    <text fill="#000000" font-family="sans-serif" font-size="11" font-weight="bold" lengthAdjust="spacing" textLength="230.3716" x="35" y="1515.7808">[position ou limite existante (échec)]</text>
    <path d="M1253,1524.375 L1253,1549.375 L1323,1549.375 L1323,1534.375 L1313,1524.375 L1253,1524.375 " fill="#FF0000" style="stroke:#181818;stroke-width:0.5;"/>
    <path d="M1313,1524.375 L1313,1534.375 L1323,1534.375 L1313,1524.375 " fill="#FF0000" style="stroke:#181818;stroke-width:0.5;"/>
    <text fill="#000000" font-family="sans-serif" font-size="13" lengthAdjust="spacing" textLength="49.8291" x="1259" y="1541.4419">Erreur !</text>
    <path d="M1253,1559.5078 L1253,1674.5078 L1785,1674.5078 L1785,1569.5078 L1775,1559.5078 L1253,1559.5078 " fill="#FFFF00" style="stroke:#181818;stroke-width:0.5;"/>
    <path d="M1775,1559.5078 L1775,1569.5078 L1785,1569.5078 L1775,1559.5078 " fill="#FFFF00" style="stroke:#181818;stroke-width:0.5;"/>
    <text fill="#000000" font-family="sans-serif" font-size="13" lengthAdjust="spacing" textLength="65.4888" x="1259" y="1576.5747">Message :</text>
    <text fill="#000000" font-family="sans-serif" font-size="13" lengthAdjust="spacing" textLength="8.271" x="1275.5293" y="1591.7075">{</text>
    <text fill="#000000" font-family="sans-serif" font-size="13" lengthAdjust="spacing" textLength="136.208" x="1292.0586" y="1606.8403">&quot;errorInformation&quot;: {</text>
    <text fill="#000000" font-family="sans-serif" font-size="13" lengthAdjust="spacing" textLength="122.9541" x="1308.5879" y="1621.9731">&quot;errorCode&quot;: 3200,</text>
    <text fill="#000000" font-family="sans-serif" font-size="13" lengthAdjust="spacing" textLength="461.7412" x="1308.5879" y="1637.106">&quot;errorDescription&quot;: &quot;Limite participant ou position initiale déjà définie&quot;,</text>
    <text fill="#000000" font-family="sans-serif" font-size="13" lengthAdjust="spacing" textLength="8.271" x="1292.0586" y="1652.2388">}</text>
    <text fill="#000000" font-family="sans-serif" font-size="13" lengthAdjust="spacing" textLength="8.271" x="1275.5293" y="1667.3716">}</text>
    <polygon fill="#181818" points="850.4473,1697.5703,840.4473,1701.5703,850.4473,1705.5703,846.4473,1701.5703" style="stroke:#181818;stroke-width:1.0;"/>
    <line style="stroke:#181818;stroke-width:1.0;stroke-dasharray:2.0,2.0;" x1="844.4473" x2="1237.0952" y1="1701.5703" y2="1701.5703"/>
    <text fill="#000000" font-family="sans-serif" font-size="13" font-weight="bold" lengthAdjust="spacing" textLength="18.0908" x="856.4473" y="1696.5044">24</text>
    <text fill="#000000" font-family="sans-serif" font-size="13" lengthAdjust="spacing" textLength="61.9531" x="878.5381" y="1696.5044">Renvoyer</text>
    <text fill="#FF0000" font-family="sans-serif" font-size="13" font-weight="bold" lengthAdjust="spacing" textLength="110.2524" x="944.6235" y="1696.5044">Code d&apos;erreur :</text>
    <text fill="#FF0000" font-family="sans-serif" font-size="13" lengthAdjust="spacing" textLength="33.084" x="1059.0083" y="1696.5044">3200</text>
    <polygon fill="#181818" points="122.2075,1726.7031,112.2075,1730.7031,122.2075,1734.7031,118.2075,1730.7031" style="stroke:#181818;stroke-width:1.0;"/>
    <line style="stroke:#181818;stroke-width:1.0;stroke-dasharray:2.0,2.0;" x1="116.2075" x2="828.4473" y1="1730.7031" y2="1730.7031"/>
    <text fill="#000000" font-family="sans-serif" font-size="13" font-weight="bold" lengthAdjust="spacing" textLength="18.0908" x="128.2075" y="1725.6372">25</text>
    <text fill="#000000" font-family="sans-serif" font-size="13" lengthAdjust="spacing" textLength="61.9531" x="150.2983" y="1725.6372">Renvoyer</text>
    <text fill="#FF0000" font-family="sans-serif" font-size="13" font-weight="bold" lengthAdjust="spacing" textLength="110.2524" x="216.3838" y="1725.6372">Code d&apos;erreur :</text>
    <text fill="#FF0000" font-family="sans-serif" font-size="13" lengthAdjust="spacing" textLength="33.084" x="330.7686" y="1725.6372">3200</text>
    <line style="stroke:#000000;stroke-width:1.0;stroke-dasharray:2.0,2.0;" x1="20" x2="2124.6655" y1="1746.7031" y2="1746.7031"/>
    <text fill="#000000" font-family="sans-serif" font-size="11" font-weight="bold" lengthAdjust="spacing" textLength="191.2861" x="25" y="1756.9136">[Valider le participant (échec)]</text>
    <path d="M1253,1765.5078 L1253,1790.5078 L1410,1790.5078 L1410,1775.5078 L1400,1765.5078 L1253,1765.5078 " fill="#FF0000" style="stroke:#181818;stroke-width:0.5;"/>
    <path d="M1400,1765.5078 L1400,1775.5078 L1410,1775.5078 L1400,1765.5078 " fill="#FF0000" style="stroke:#181818;stroke-width:0.5;"/>
    <text fill="#000000" font-family="sans-serif" font-size="13" lengthAdjust="spacing" textLength="136.6079" x="1259" y="1782.5747">Échec de validation !</text>
    <path d="M1253,1800.6406 L1253,1915.6406 L1638,1915.6406 L1638,1810.6406 L1628,1800.6406 L1253,1800.6406 " fill="#FFFF00" style="stroke:#181818;stroke-width:0.5;"/>
    <path d="M1628,1800.6406 L1628,1810.6406 L1638,1810.6406 L1628,1800.6406 " fill="#FFFF00" style="stroke:#181818;stroke-width:0.5;"/>
    <text fill="#000000" font-family="sans-serif" font-size="13" lengthAdjust="spacing" textLength="65.4888" x="1259" y="1817.7075">Message :</text>
    <text fill="#000000" font-family="sans-serif" font-size="13" lengthAdjust="spacing" textLength="8.271" x="1275.5293" y="1832.8403">{</text>
    <text fill="#000000" font-family="sans-serif" font-size="13" lengthAdjust="spacing" textLength="136.208" x="1292.0586" y="1847.9731">&quot;errorInformation&quot;: {</text>
    <text fill="#000000" font-family="sans-serif" font-size="13" lengthAdjust="spacing" textLength="122.9541" x="1308.5879" y="1863.106">&quot;errorCode&quot;: 3200,</text>
    <text fill="#000000" font-family="sans-serif" font-size="13" lengthAdjust="spacing" textLength="314.9517" x="1308.5879" y="1878.2388">&quot;errorDescription&quot;: &quot;Identifiant FSP introuvable&quot;,</text>
    <text fill="#000000" font-family="sans-serif" font-size="13" lengthAdjust="spacing" textLength="8.271" x="1292.0586" y="1893.3716">}</text>
    <text fill="#000000" font-family="sans-serif" font-size="13" lengthAdjust="spacing" textLength="8.271" x="1275.5293" y="1908.5044">}</text>
    <polygon fill="#181818" points="850.4473,1938.7031,840.4473,1942.7031,850.4473,1946.7031,846.4473,1942.7031" style="stroke:#181818;stroke-width:1.0;"/>
    <line style="stroke:#181818;stroke-width:1.0;stroke-dasharray:2.0,2.0;" x1="844.4473" x2="1242.0952" y1="1942.7031" y2="1942.7031"/>
    <text fill="#000000" font-family="sans-serif" font-size="13" font-weight="bold" lengthAdjust="spacing" textLength="18.0908" x="856.4473" y="1937.6372">26</text>
    <text fill="#000000" font-family="sans-serif" font-size="13" lengthAdjust="spacing" textLength="61.9531" x="878.5381" y="1937.6372">Renvoyer</text>
    <text fill="#FF0000" font-family="sans-serif" font-size="13" font-weight="bold" lengthAdjust="spacing" textLength="110.2524" x="944.6235" y="1937.6372">Code d&apos;erreur :</text>
    <text fill="#FF0000" font-family="sans-serif" font-size="13" lengthAdjust="spacing" textLength="33.084" x="1059.0083" y="1937.6372">3200</text>
    <polygon fill="#181818" points="122.2075,1967.8359,112.2075,1971.8359,122.2075,1975.8359,118.2075,1971.8359" style="stroke:#181818;stroke-width:1.0;"/>
    <line style="stroke:#181818;stroke-width:1.0;stroke-dasharray:2.0,2.0;" x1="116.2075" x2="828.4473" y1="1971.8359" y2="1971.8359"/>
    <text fill="#000000" font-family="sans-serif" font-size="13" font-weight="bold" lengthAdjust="spacing" textLength="18.0908" x="128.2075" y="1966.77">27</text>
    <text fill="#000000" font-family="sans-serif" font-size="13" lengthAdjust="spacing" textLength="61.9531" x="150.2983" y="1966.77">Renvoyer</text>
    <text fill="#FF0000" font-family="sans-serif" font-size="13" font-weight="bold" lengthAdjust="spacing" textLength="110.2524" x="216.3838" y="1966.77">Code d&apos;erreur :</text>
    <text fill="#FF0000" font-family="sans-serif" font-size="13" lengthAdjust="spacing" textLength="33.084" x="330.7686" y="1966.77">3200</text>
  </g>
</svg>
