<svg xmlns="http://www.w3.org/2000/svg" xmlns:xlink="http://www.w3.org/1999/xlink" contentStyleType="text/css" height="1958px" preserveAspectRatio="none" style="width:1956px;height:1958px;background:#FFFFFF;" version="1.1" viewBox="0 0 1956 1958" width="1956px" zoomAndPan="magnify">
  <title>1.1.0 Gestion des limites participant</title>
  <defs/>
  <g>
    <text fill="#000000" font-family="sans-serif" font-size="14" font-weight="bold" lengthAdjust="spacing" textLength="288.1963" x="835.8474" y="27.9951">1.1.0 Gestion des limites participant</text>
    <rect fill="#FFFFE0" height="1909.2969" style="stroke:#181818;stroke-width:0.5;" width="834.0986" x="1070.8198" y="43.2969"/>
    <text fill="#000000" font-family="sans-serif" font-size="13" font-weight="bold" lengthAdjust="spacing" textLength="131.1235" x="1422.3074" y="55.3638">Services centraux</text>
    <rect fill="#FFFFFF" height="1713.5703" style="stroke:#181818;stroke-width:1.0;" width="10" x="81.2075" y="134.7266"/>
    <rect fill="#FFFFFF" height="1668.3047" style="stroke:#181818;stroke-width:1.0;" width="10" x="767.7114" y="179.9922"/>
    <rect fill="#FFFFFF" height="1438.7109" style="stroke:#181818;stroke-width:1.0;" width="10" x="1175.9639" y="380.4531"/>
    <rect fill="#FFFFFF" height="135.6641" style="stroke:#181818;stroke-width:1.0;" width="10" x="1603.0073" y="424.7188"/>
    <rect fill="#FFFFFF" height="120.5313" style="stroke:#181818;stroke-width:1.0;" width="10" x="1603.0073" y="670.9141"/>
    <rect fill="#FFFFFF" height="120.5313" style="stroke:#181818;stroke-width:1.0;" width="10" x="1603.0073" y="1052.0391"/>
    <rect fill="#FFFFFF" height="77.3984" style="stroke:#181818;stroke-width:1.0;" width="10" x="1833.832" y="453.8516"/>
    <rect fill="#FFFFFF" height="62.2656" style="stroke:#181818;stroke-width:1.0;" width="10" x="1833.832" y="700.0469"/>
    <rect fill="#FFFFFF" height="62.2656" style="stroke:#181818;stroke-width:1.0;" width="10" x="1833.832" y="1081.1719"/>
    <rect fill="none" height="1714.5703" style="stroke:#000000;stroke-width:1.5;" width="1940.8911" x="10" y="141.7266"/>
    <rect fill="none" height="1173.5156" style="stroke:#000000;stroke-width:1.5;" width="1920.8911" x="20" y="617.5156"/>
    <rect fill="none" height="514.8594" style="stroke:#000000;stroke-width:1.5;" width="876.0713" x="1054.8198" y="848.5781"/>
    <rect fill="none" height="307.8594" style="stroke:#000000;stroke-width:1.5;" width="856.0713" x="1064.8198" y="872.7109"/>
    <line style="stroke:#181818;stroke-width:0.5;stroke-dasharray:5.0,5.0;" x1="86" x2="86" y1="124.7266" y2="1873.2969"/>
    <line style="stroke:#181818;stroke-width:0.5;stroke-dasharray:5.0,5.0;" x1="772.5591" x2="772.5591" y1="124.7266" y2="1873.2969"/>
    <line style="stroke:#181818;stroke-width:0.5;stroke-dasharray:5.0,5.0;" x1="1180.8198" x2="1180.8198" y1="124.7266" y2="1873.2969"/>
    <line style="stroke:#181818;stroke-width:0.5;stroke-dasharray:5.0,5.0;" x1="1607.0859" x2="1607.0859" y1="124.7266" y2="1873.2969"/>
    <line style="stroke:#181818;stroke-width:0.5;stroke-dasharray:5.0,5.0;" x1="1838.7456" x2="1838.7456" y1="124.7266" y2="1873.2969"/>
    <text fill="#000000" font-family="sans-serif" font-size="14" lengthAdjust="spacing" textLength="106.415" x="30" y="121.4248">Opérateur HUB</text>
    <ellipse cx="86.2075" cy="56.9297" fill="#E2E2F0" rx="8" ry="8" style="stroke:#181818;stroke-width:0.5;"/>
    <path d="M86.2075,64.9297 L86.2075,91.9297 M73.2075,72.9297 L99.2075,72.9297 M86.2075,91.9297 L73.2075,106.9297 M86.2075,91.9297 L99.2075,106.9297 " fill="none" style="stroke:#181818;stroke-width:0.5;"/>
    <text fill="#000000" font-family="sans-serif" font-size="14" lengthAdjust="spacing" textLength="106.415" x="30" y="1885.292">Opérateur HUB</text>
    <ellipse cx="86.2075" cy="1897.0938" fill="#E2E2F0" rx="8" ry="8" style="stroke:#181818;stroke-width:0.5;"/>
    <path d="M86.2075,1905.0938 L86.2075,1932.0938 M73.2075,1913.0938 L99.2075,1913.0938 M86.2075,1932.0938 L73.2075,1947.0938 M86.2075,1932.0938 L99.2075,1947.0938 " fill="none" style="stroke:#181818;stroke-width:0.5;"/>
    <text fill="#000000" font-family="sans-serif" font-size="14" lengthAdjust="spacing" textLength="152.3047" x="693.5591" y="121.4248">API du service central</text>
    <path d="M752.2114,80.4297 L752.2114,104.4297 M752.2114,92.4297 L769.2114,92.4297 " fill="none" style="stroke:#181818;stroke-width:0.5;"/>
    <ellipse cx="781.2114" cy="92.4297" fill="#E2E2F0" rx="12" ry="12" style="stroke:#181818;stroke-width:0.5;"/>
    <text fill="#000000" font-family="sans-serif" font-size="14" lengthAdjust="spacing" textLength="152.3047" x="693.5591" y="1885.292">API du service central</text>
    <path d="M752.2114,1892.5938 L752.2114,1916.5938 M752.2114,1904.5938 L769.2114,1904.5938 " fill="none" style="stroke:#181818;stroke-width:0.5;"/>
    <ellipse cx="781.2114" cy="1904.5938" fill="#E2E2F0" rx="12" ry="12" style="stroke:#181818;stroke-width:0.5;"/>
    <text fill="#000000" font-family="sans-serif" font-size="14" lengthAdjust="spacing" textLength="206.2881" x="1074.8198" y="121.4248">Gestionnaire des participants</text>
    <ellipse cx="1180.9639" cy="92.4297" fill="#E2E2F0" rx="12" ry="12" style="stroke:#181818;stroke-width:0.5;"/>
    <polygon fill="#181818" points="1176.9639,80.4297,1182.9639,75.4297,1180.9639,80.4297,1182.9639,85.4297,1176.9639,80.4297" style="stroke:#181818;stroke-width:1.0;"/>
    <text fill="#000000" font-family="sans-serif" font-size="14" lengthAdjust="spacing" textLength="206.2881" x="1074.8198" y="1885.292">Gestionnaire des participants</text>
    <ellipse cx="1180.9639" cy="1904.5938" fill="#E2E2F0" rx="12" ry="12" style="stroke:#181818;stroke-width:0.5;"/>
    <polygon fill="#181818" points="1176.9639,1892.5938,1182.9639,1887.5938,1180.9639,1892.5938,1182.9639,1897.5938,1176.9639,1892.5938" style="stroke:#181818;stroke-width:1.0;"/>
    <text fill="#000000" font-family="sans-serif" font-size="14" lengthAdjust="spacing" textLength="111.8428" x="1549.0859" y="121.4248">DAO participant</text>
    <ellipse cx="1608.0073" cy="92.4297" fill="#E2E2F0" rx="12" ry="12" style="stroke:#181818;stroke-width:0.5;"/>
    <line style="stroke:#181818;stroke-width:0.5;" x1="1596.0073" x2="1620.0073" y1="106.4297" y2="106.4297"/>
    <text fill="#000000" font-family="sans-serif" font-size="14" lengthAdjust="spacing" textLength="111.8428" x="1549.0859" y="1885.292">DAO participant</text>
    <ellipse cx="1608.0073" cy="1904.5938" fill="#E2E2F0" rx="12" ry="12" style="stroke:#181818;stroke-width:0.5;"/>
    <line style="stroke:#181818;stroke-width:0.5;" x1="1596.0073" x2="1620.0073" y1="1918.5938" y2="1918.5938"/>
    <text fill="#000000" font-family="sans-serif" font-size="14" lengthAdjust="spacing" textLength="118.1729" x="1776.7456" y="121.4248">Stockage central</text>
    <path d="M1820.832,72.4297 C1820.832,62.4297 1838.832,62.4297 1838.832,62.4297 C1838.832,62.4297 1856.832,62.4297 1856.832,72.4297 L1856.832,98.4297 C1856.832,108.4297 1838.832,108.4297 1838.832,108.4297 C1838.832,108.4297 1820.832,108.4297 1820.832,98.4297 L1820.832,72.4297 " fill="#E2E2F0" style="stroke:#181818;stroke-width:1.5;"/>
    <path d="M1820.832,72.4297 C1820.832,82.4297 1838.832,82.4297 1838.832,82.4297 C1838.832,82.4297 1856.832,82.4297 1856.832,72.4297 " fill="none" style="stroke:#181818;stroke-width:1.5;"/>
    <text fill="#000000" font-family="sans-serif" font-size="14" lengthAdjust="spacing" textLength="118.1729" x="1776.7456" y="1885.292">Stockage central</text>
    <path d="M1820.832,1898.5938 C1820.832,1888.5938 1838.832,1888.5938 1838.832,1888.5938 C1838.832,1888.5938 1856.832,1888.5938 1856.832,1898.5938 L1856.832,1924.5938 C1856.832,1934.5938 1838.832,1934.5938 1838.832,1934.5938 C1838.832,1934.5938 1820.832,1934.5938 1820.832,1924.5938 L1820.832,1898.5938 " fill="#E2E2F0" style="stroke:#181818;stroke-width:1.5;"/>
    <path d="M1820.832,1898.5938 C1820.832,1908.5938 1838.832,1908.5938 1838.832,1908.5938 C1838.832,1908.5938 1856.832,1908.5938 1856.832,1898.5938 " fill="none" style="stroke:#181818;stroke-width:1.5;"/>
    <rect fill="#FFFFFF" height="1713.5703" style="stroke:#181818;stroke-width:1.0;" width="10" x="81.2075" y="134.7266"/>
    <rect fill="#FFFFFF" height="1668.3047" style="stroke:#181818;stroke-width:1.0;" width="10" x="767.7114" y="179.9922"/>
    <rect fill="#FFFFFF" height="1438.7109" style="stroke:#181818;stroke-width:1.0;" width="10" x="1175.9639" y="380.4531"/>
    <rect fill="#FFFFFF" height="135.6641" style="stroke:#181818;stroke-width:1.0;" width="10" x="1603.0073" y="424.7188"/>
    <rect fill="#FFFFFF" height="120.5313" style="stroke:#181818;stroke-width:1.0;" width="10" x="1603.0073" y="670.9141"/>
    <rect fill="#FFFFFF" height="120.5313" style="stroke:#181818;stroke-width:1.0;" width="10" x="1603.0073" y="1052.0391"/>
    <rect fill="#FFFFFF" height="77.3984" style="stroke:#181818;stroke-width:1.0;" width="10" x="1833.832" y="453.8516"/>
    <rect fill="#FFFFFF" height="62.2656" style="stroke:#181818;stroke-width:1.0;" width="10" x="1833.832" y="700.0469"/>
    <rect fill="#FFFFFF" height="62.2656" style="stroke:#181818;stroke-width:1.0;" width="10" x="1833.832" y="1081.1719"/>
    <path d="M10,141.7266 L268.2178,141.7266 L268.2178,148.8594 L258.2178,158.8594 L10,158.8594 L10,141.7266 " fill="#EEEEEE" style="stroke:#000000;stroke-width:1.5;"/>
    <rect fill="none" height="1714.5703" style="stroke:#000000;stroke-width:1.5;" width="1940.8911" x="10" y="141.7266"/>
    <text fill="#000000" font-family="sans-serif" font-size="13" font-weight="bold" lengthAdjust="spacing" textLength="213.2178" x="25" y="154.7935">Gérer le plafond de débit net</text>
    <polygon fill="#181818" points="755.7114,175.9922,765.7114,179.9922,755.7114,183.9922,759.7114,179.9922" style="stroke:#181818;stroke-width:1.0;"/>
    <line style="stroke:#181818;stroke-width:1.0;" x1="91.2075" x2="761.7114" y1="179.9922" y2="179.9922"/>
    <text fill="#000000" font-family="sans-serif" font-size="13" font-weight="bold" lengthAdjust="spacing" textLength="9.0454" x="98.2075" y="174.9263">1</text>
    <text fill="#000000" font-family="sans-serif" font-size="13" lengthAdjust="spacing" textLength="644.4585" x="111.2529" y="174.9263">Demande d&apos;ajuster la limite d&apos;un participant pour une devise — POST - /participants/{name}/limits</text>
    <path d="M96,192.9922 L96,353.9922 L278,353.9922 L278,202.9922 L268,192.9922 L96,192.9922 " fill="#FFFF00" style="stroke:#181818;stroke-width:0.5;"/>
    <path d="M268,192.9922 L268,202.9922 L278,202.9922 L268,192.9922 " fill="#FFFF00" style="stroke:#181818;stroke-width:0.5;"/>
    <text fill="#000000" font-family="sans-serif" font-size="13" lengthAdjust="spacing" textLength="65.4888" x="102" y="210.0591">Message :</text>
    <text fill="#000000" font-family="sans-serif" font-size="13" lengthAdjust="spacing" textLength="8.271" x="102" y="225.1919">{</text>
    <text fill="#000000" font-family="sans-serif" font-size="13" lengthAdjust="spacing" textLength="68.4785" x="118.5293" y="240.3247">payload: {</text>
    <text fill="#000000" font-family="sans-serif" font-size="13" lengthAdjust="spacing" textLength="128.9019" x="135.0586" y="255.4575">currency: &lt;string&gt;,</text>
    <text fill="#000000" font-family="sans-serif" font-size="13" lengthAdjust="spacing" textLength="45.3794" x="135.0586" y="270.5903">limit: {</text>
    <text fill="#000000" font-family="sans-serif" font-size="13" lengthAdjust="spacing" textLength="100.7881" x="151.5879" y="285.7231">type: &lt;string&gt;,</text>
    <text fill="#000000" font-family="sans-serif" font-size="13" lengthAdjust="spacing" textLength="77.8921" x="151.5879" y="300.856">value: &lt;Id&gt;</text>
    <text fill="#000000" font-family="sans-serif" font-size="13" lengthAdjust="spacing" textLength="8.271" x="135.0586" y="315.9888">}</text>
    <text fill="#000000" font-family="sans-serif" font-size="13" lengthAdjust="spacing" textLength="8.271" x="118.5293" y="331.1216">}</text>
    <text fill="#000000" font-family="sans-serif" font-size="13" lengthAdjust="spacing" textLength="8.271" x="102" y="346.2544">}</text>
    <polygon fill="#181818" points="1163.9639,376.4531,1173.9639,380.4531,1163.9639,384.4531,1167.9639,380.4531" style="stroke:#181818;stroke-width:1.0;"/>
    <line style="stroke:#181818;stroke-width:1.0;" x1="777.7114" x2="1169.9639" y1="380.4531" y2="380.4531"/>
    <text fill="#000000" font-family="sans-serif" font-size="13" font-weight="bold" lengthAdjust="spacing" textLength="9.0454" x="784.7114" y="375.3872">2</text>
    <text fill="#000000" font-family="sans-serif" font-size="13" lengthAdjust="spacing" textLength="197.7358" x="797.7568" y="375.3872">Ajuster la limite du participant</text>
    <polygon fill="#181818" points="1591.0073,420.7188,1601.0073,424.7188,1591.0073,428.7188,1595.0073,424.7188" style="stroke:#181818;stroke-width:1.0;"/>
    <line style="stroke:#181818;stroke-width:1.0;" x1="1185.9639" x2="1597.0073" y1="424.7188" y2="424.7188"/>
    <text fill="#000000" font-family="sans-serif" font-size="13" font-weight="bold" lengthAdjust="spacing" textLength="9.0454" x="1192.9639" y="412.0864">3</text>
    <text fill="#000000" font-family="sans-serif" font-size="13" lengthAdjust="spacing" textLength="188.7793" x="1206.0093" y="404.52">Récupérer participant/devise</text>
    <text fill="#FF0000" font-family="sans-serif" font-size="13" font-weight="bold" lengthAdjust="spacing" textLength="110.2524" x="1206.0093" y="419.6528">Code d&apos;erreur :</text>
    <text fill="#FF0000" font-family="sans-serif" font-size="13" lengthAdjust="spacing" textLength="33.084" x="1320.394" y="419.6528">3200</text>
    <polygon fill="#181818" points="1821.832,449.8516,1831.832,453.8516,1821.832,457.8516,1825.832,453.8516" style="stroke:#181818;stroke-width:1.0;"/>
    <line style="stroke:#181818;stroke-width:1.0;" x1="1613.0073" x2="1827.832" y1="453.8516" y2="453.8516"/>
    <text fill="#000000" font-family="sans-serif" font-size="13" font-weight="bold" lengthAdjust="spacing" textLength="9.0454" x="1620.0073" y="448.7856">4</text>
    <text fill="#000000" font-family="sans-serif" font-size="13" lengthAdjust="spacing" textLength="188.7793" x="1633.0527" y="448.7856">Récupérer participant/devise</text>
    <polygon fill="#FFFFE0" points="1771,466.8516,1904,466.8516,1914,485.8516,1904,504.8516,1771,504.8516,1761,485.8516,1771,466.8516" style="stroke:#181818;stroke-width:0.5;"/>
    <text fill="#000000" font-family="sans-serif" font-size="13" lengthAdjust="spacing" textLength="70.5859" x="1773" y="482.9185">participant</text>
    <text fill="#000000" font-family="sans-serif" font-size="13" lengthAdjust="spacing" textLength="129.6699" x="1773" y="498.0513">participantCurrency</text>
    <polygon fill="#181818" points="1624.0073,527.25,1614.0073,531.25,1624.0073,535.25,1620.0073,531.25" style="stroke:#181818;stroke-width:1.0;"/>
    <line style="stroke:#181818;stroke-width:1.0;stroke-dasharray:2.0,2.0;" x1="1618.0073" x2="1837.832" y1="531.25" y2="531.25"/>
    <text fill="#000000" font-family="sans-serif" font-size="13" font-weight="bold" lengthAdjust="spacing" textLength="9.0454" x="1630.0073" y="526.1841">5</text>
    <text fill="#000000" font-family="sans-serif" font-size="13" lengthAdjust="spacing" textLength="179.334" x="1643.0527" y="526.1841">Participant/devise récupéré</text>
    <polygon fill="#181818" points="1196.9639,556.3828,1186.9639,560.3828,1196.9639,564.3828,1192.9639,560.3828" style="stroke:#181818;stroke-width:1.0;"/>
    <line style="stroke:#181818;stroke-width:1.0;stroke-dasharray:2.0,2.0;" x1="1190.9639" x2="1607.0073" y1="560.3828" y2="560.3828"/>
    <text fill="#000000" font-family="sans-serif" font-size="13" font-weight="bold" lengthAdjust="spacing" textLength="9.0454" x="1202.9639" y="555.3169">6</text>
    <text fill="#000000" font-family="sans-serif" font-size="13" lengthAdjust="spacing" textLength="183.3774" x="1216.0093" y="555.3169">Renvoyer participant/devise</text>
    <line style="stroke:#181818;stroke-width:1.0;" x1="1185.9639" x2="1227.9639" y1="589.5156" y2="589.5156"/>
    <line style="stroke:#181818;stroke-width:1.0;" x1="1227.9639" x2="1227.9639" y1="589.5156" y2="602.5156"/>
    <line style="stroke:#181818;stroke-width:1.0;" x1="1186.9639" x2="1227.9639" y1="602.5156" y2="602.5156"/>
    <polygon fill="#181818" points="1196.9639,598.5156,1186.9639,602.5156,1196.9639,606.5156,1192.9639,602.5156" style="stroke:#181818;stroke-width:1.0;"/>
    <text fill="#000000" font-family="sans-serif" font-size="13" font-weight="bold" lengthAdjust="spacing" textLength="9.0454" x="1192.9639" y="584.4497">7</text>
    <text fill="#000000" font-family="sans-serif" font-size="13" lengthAdjust="spacing" textLength="99.1313" x="1206.0093" y="584.4497">Valider le DFSP</text>
    <path d="M20,617.5156 L84.4429,617.5156 L84.4429,624.6484 L74.4429,634.6484 L20,634.6484 L20,617.5156 " fill="#EEEEEE" style="stroke:#000000;stroke-width:1.5;"/>
    <rect fill="none" height="1173.5156" style="stroke:#000000;stroke-width:1.5;" width="1920.8911" x="20" y="617.5156"/>
    <text fill="#000000" font-family="sans-serif" font-size="13" font-weight="bold" lengthAdjust="spacing" textLength="19.4429" x="35" y="630.5825">alt</text>
    <text fill="#000000" font-family="sans-serif" font-size="11" font-weight="bold" lengthAdjust="spacing" textLength="196.9204" x="99.4429" y="629.7261">[Valider le participant (succès)]</text>
    <polygon fill="#181818" points="1591.0073,666.9141,1601.0073,670.9141,1591.0073,674.9141,1595.0073,670.9141" style="stroke:#181818;stroke-width:1.0;"/>
    <line style="stroke:#181818;stroke-width:1.0;" x1="1185.9639" x2="1597.0073" y1="670.9141" y2="670.9141"/>
    <text fill="#000000" font-family="sans-serif" font-size="13" font-weight="bold" lengthAdjust="spacing" textLength="9.0454" x="1192.9639" y="658.2817">8</text>
    <text fill="#000000" font-family="sans-serif" font-size="13" lengthAdjust="spacing" textLength="339.4282" x="1206.0093" y="650.7153">(for ParticipantCurrency) Récupérer ParticipantLimit</text>
    <text fill="#FF0000" font-family="sans-serif" font-size="13" font-weight="bold" lengthAdjust="spacing" textLength="110.2524" x="1206.0093" y="665.8481">Code d&apos;erreur :</text>
    <text fill="#FF0000" font-family="sans-serif" font-size="13" lengthAdjust="spacing" textLength="33.084" x="1320.394" y="665.8481">3200</text>
    <polygon fill="#181818" points="1821.832,696.0469,1831.832,700.0469,1821.832,704.0469,1825.832,700.0469" style="stroke:#181818;stroke-width:1.0;"/>
    <line style="stroke:#181818;stroke-width:1.0;" x1="1613.0073" x2="1827.832" y1="700.0469" y2="700.0469"/>
    <text fill="#000000" font-family="sans-serif" font-size="13" font-weight="bold" lengthAdjust="spacing" textLength="9.0454" x="1620.0073" y="694.981">9</text>
    <text fill="#000000" font-family="sans-serif" font-size="13" lengthAdjust="spacing" textLength="173.8877" x="1633.0527" y="694.981">Récupérer ParticipantLimit</text>
    <polygon fill="#FFFFE0" points="1785,713.0469,1891,713.0469,1901,724.0469,1891,736.0469,1785,736.0469,1775,724.0469,1785,713.0469" style="stroke:#181818;stroke-width:0.5;"/>
    <text fill="#000000" font-family="sans-serif" font-size="13" lengthAdjust="spacing" textLength="102.813" x="1787" y="729.1138">participantLimit</text>
    <polygon fill="#181818" points="1624.0073,758.3125,1614.0073,762.3125,1624.0073,766.3125,1620.0073,762.3125" style="stroke:#181818;stroke-width:1.0;"/>
    <line style="stroke:#181818;stroke-width:1.0;stroke-dasharray:2.0,2.0;" x1="1618.0073" x2="1837.832" y1="762.3125" y2="762.3125"/>
    <text fill="#000000" font-family="sans-serif" font-size="13" font-weight="bold" lengthAdjust="spacing" textLength="18.0908" x="1630.0073" y="757.2466">10</text>
    <text fill="#000000" font-family="sans-serif" font-size="13" lengthAdjust="spacing" textLength="164.855" x="1652.0981" y="757.2466">ParticipantLimit récupéré</text>
    <polygon fill="#181818" points="1196.9639,787.4453,1186.9639,791.4453,1196.9639,795.4453,1192.9639,791.4453" style="stroke:#181818;stroke-width:1.0;"/>
    <line style="stroke:#181818;stroke-width:1.0;stroke-dasharray:2.0,2.0;" x1="1190.9639" x2="1607.0073" y1="791.4453" y2="791.4453"/>
    <text fill="#000000" font-family="sans-serif" font-size="13" font-weight="bold" lengthAdjust="spacing" textLength="18.0908" x="1202.9639" y="786.3794">11</text>
    <text fill="#000000" font-family="sans-serif" font-size="13" lengthAdjust="spacing" textLength="168.4858" x="1225.0547" y="786.3794">Renvoyer ParticipantLimit</text>
    <line style="stroke:#181818;stroke-width:1.0;" x1="1185.9639" x2="1227.9639" y1="820.5781" y2="820.5781"/>
    <line style="stroke:#181818;stroke-width:1.0;" x1="1227.9639" x2="1227.9639" y1="820.5781" y2="833.5781"/>
    <line style="stroke:#181818;stroke-width:1.0;" x1="1186.9639" x2="1227.9639" y1="833.5781" y2="833.5781"/>
    <polygon fill="#181818" points="1196.9639,829.5781,1186.9639,833.5781,1196.9639,837.5781,1192.9639,833.5781" style="stroke:#181818;stroke-width:1.0;"/>
    <text fill="#000000" font-family="sans-serif" font-size="13" font-weight="bold" lengthAdjust="spacing" textLength="18.0908" x="1192.9639" y="815.5122">12</text>
    <text fill="#000000" font-family="sans-serif" font-size="13" lengthAdjust="spacing" textLength="152.2104" x="1215.0547" y="815.5122">Valider ParticipantLimit</text>
    <path d="M1054.8198,848.5781 L1119.2627,848.5781 L1119.2627,855.7109 L1109.2627,865.7109 L1054.8198,865.7109 L1054.8198,848.5781 " fill="#EEEEEE" style="stroke:#000000;stroke-width:1.5;"/>
    <rect fill="none" height="514.8594" style="stroke:#000000;stroke-width:1.5;" width="876.0713" x="1054.8198" y="848.5781"/>
    <text fill="#000000" font-family="sans-serif" font-size="13" font-weight="bold" lengthAdjust="spacing" textLength="19.4429" x="1069.8198" y="861.645">alt</text>
    <text fill="#000000" font-family="sans-serif" font-size="11" font-weight="bold" lengthAdjust="spacing" textLength="213.1304" x="1134.2627" y="860.7886">[Valider participantLimit (succès)]</text>
    <path d="M1064.8198,872.7109 L1757.9219,872.7109 L1757.9219,879.8438 L1747.9219,889.8438 L1064.8198,889.8438 L1064.8198,872.7109 " fill="#EEEEEE" style="stroke:#000000;stroke-width:1.5;"/>
    <rect fill="none" height="307.8594" style="stroke:#000000;stroke-width:1.5;" width="856.0713" x="1064.8198" y="872.7109"/>
    <text fill="#000000" font-family="sans-serif" font-size="13" font-weight="bold" lengthAdjust="spacing" textLength="648.1021" x="1079.8198" y="885.7778">IMPLÉMENTATION TRANSACTION BD — verrou sur la table ParticipantLimit avec UPDATE</text>
    <path d="M1613,894.8438 L1613,1009.8438 L1910,1009.8438 L1910,904.8438 L1900,894.8438 L1613,894.8438 " fill="#D3D3D3" style="stroke:#181818;stroke-width:0.5;"/>
    <path d="M1900,894.8438 L1900,904.8438 L1910,904.8438 L1900,894.8438 " fill="#D3D3D3" style="stroke:#181818;stroke-width:0.5;"/>
    <text fill="#000000" font-family="sans-serif" font-size="13" lengthAdjust="spacing" textLength="276.8911" x="1619" y="911.9106">Si (enregistrement existe &amp;&amp; isActive = 1)</text>
    <text fill="#000000" font-family="sans-serif" font-size="13" lengthAdjust="spacing" textLength="153.2515" x="1635.5293" y="927.0435">oldIsActive.isActive = 0</text>
    <text fill="#000000" font-family="sans-serif" font-size="13" lengthAdjust="spacing" textLength="157.2822" x="1635.5293" y="942.1763">insérer l&apos;enregistrement</text>
    <text fill="#000000" font-family="sans-serif" font-size="13" lengthAdjust="spacing" textLength="26.5967" x="1619" y="957.3091">Else</text>
    <text fill="#000000" font-family="sans-serif" font-size="13" lengthAdjust="spacing" textLength="157.2822" x="1635.5293" y="972.4419">insérer l&apos;enregistrement</text>
    <text fill="#000000" font-family="sans-serif" font-size="13" lengthAdjust="spacing" textLength="24.7051" x="1619" y="987.5747">End</text>
    <text fill="#000000" font-family="sans-serif" font-size="13" lengthAdjust="spacing" textLength="4.1323" x="1619" y="1002.7075"> </text>
    <polygon fill="#181818" points="1591.0073,1048.0391,1601.0073,1052.0391,1591.0073,1056.0391,1595.0073,1052.0391" style="stroke:#181818;stroke-width:1.0;"/>
    <line style="stroke:#181818;stroke-width:1.0;" x1="1185.9639" x2="1597.0073" y1="1052.0391" y2="1052.0391"/>
    <text fill="#000000" font-family="sans-serif" font-size="13" font-weight="bold" lengthAdjust="spacing" textLength="18.0908" x="1192.9639" y="1039.4067">13</text>
    <text fill="#000000" font-family="sans-serif" font-size="13" lengthAdjust="spacing" textLength="371.8203" x="1215.0547" y="1031.8403">(for ParticipantLimit) Insérer un nouveau ParticipantLimit</text>
    <text fill="#FF0000" font-family="sans-serif" font-size="13" font-weight="bold" lengthAdjust="spacing" textLength="110.2524" x="1215.0547" y="1046.9731">Code d&apos;erreur :</text>
    <text fill="#FF0000" font-family="sans-serif" font-size="13" lengthAdjust="spacing" textLength="33.084" x="1329.4395" y="1046.9731">3200</text>
    <polygon fill="#181818" points="1821.832,1077.1719,1831.832,1081.1719,1821.832,1085.1719,1825.832,1081.1719" style="stroke:#181818;stroke-width:1.0;"/>
    <line style="stroke:#181818;stroke-width:1.0;" x1="1613.0073" x2="1827.832" y1="1081.1719" y2="1081.1719"/>
    <text fill="#000000" font-family="sans-serif" font-size="13" font-weight="bold" lengthAdjust="spacing" textLength="18.0908" x="1620.0073" y="1076.106">14</text>
    <text fill="#000000" font-family="sans-serif" font-size="13" lengthAdjust="spacing" textLength="152.0645" x="1642.0981" y="1076.106">Insérer ParticipantLimit</text>
    <polygon fill="#FFFFE0" points="1785,1094.1719,1891,1094.1719,1901,1105.1719,1891,1117.1719,1785,1117.1719,1775,1105.1719,1785,1094.1719" style="stroke:#181818;stroke-width:0.5;"/>
    <text fill="#000000" font-family="sans-serif" font-size="13" lengthAdjust="spacing" textLength="102.813" x="1787" y="1110.2388">participantLimit</text>
    <polygon fill="#181818" points="1624.0073,1139.4375,1614.0073,1143.4375,1624.0073,1147.4375,1620.0073,1143.4375" style="stroke:#181818;stroke-width:1.0;"/>
    <line style="stroke:#181818;stroke-width:1.0;stroke-dasharray:2.0,2.0;" x1="1618.0073" x2="1837.832" y1="1143.4375" y2="1143.4375"/>
    <text fill="#000000" font-family="sans-serif" font-size="13" font-weight="bold" lengthAdjust="spacing" textLength="18.0908" x="1630.0073" y="1138.3716">15</text>
    <text fill="#000000" font-family="sans-serif" font-size="13" lengthAdjust="spacing" textLength="146.4976" x="1652.0981" y="1138.3716">ParticipantLimit inséré</text>
    <polygon fill="#181818" points="1196.9639,1168.5703,1186.9639,1172.5703,1196.9639,1176.5703,1192.9639,1172.5703" style="stroke:#181818;stroke-width:1.0;"/>
    <line style="stroke:#181818;stroke-width:1.0;stroke-dasharray:2.0,2.0;" x1="1190.9639" x2="1607.0073" y1="1172.5703" y2="1172.5703"/>
    <text fill="#000000" font-family="sans-serif" font-size="13" font-weight="bold" lengthAdjust="spacing" textLength="18.0908" x="1202.9639" y="1167.5044">16</text>
    <text fill="#000000" font-family="sans-serif" font-size="13" lengthAdjust="spacing" textLength="168.4858" x="1225.0547" y="1167.5044">Renvoyer ParticipantLimit</text>
    <line style="stroke:#000000;stroke-width:1.0;stroke-dasharray:2.0,2.0;" x1="1054.8198" x2="1930.8911" y1="1188.5703" y2="1188.5703"/>
    <text fill="#000000" font-family="sans-serif" font-size="11" font-weight="bold" lengthAdjust="spacing" textLength="207.4961" x="1059.8198" y="1198.7808">[Valider participantLimit (échec)]</text>
    <path d="M1190,1207.375 L1190,1232.375 L1347,1232.375 L1347,1217.375 L1337,1207.375 L1190,1207.375 " fill="#FF0000" style="stroke:#181818;stroke-width:0.5;"/>
    <path d="M1337,1207.375 L1337,1217.375 L1347,1217.375 L1337,1207.375 " fill="#FF0000" style="stroke:#181818;stroke-width:0.5;"/>
    <text fill="#000000" font-family="sans-serif" font-size="13" lengthAdjust="spacing" textLength="136.6079" x="1196" y="1224.4419">Échec de validation !</text>
    <path d="M1190,1242.5078 L1190,1357.5078 L1583,1357.5078 L1583,1252.5078 L1573,1242.5078 L1190,1242.5078 " fill="#FFFF00" style="stroke:#181818;stroke-width:0.5;"/>
    <path d="M1573,1242.5078 L1573,1252.5078 L1583,1252.5078 L1573,1242.5078 " fill="#FFFF00" style="stroke:#181818;stroke-width:0.5;"/>
    <text fill="#000000" font-family="sans-serif" font-size="13" lengthAdjust="spacing" textLength="65.4888" x="1196" y="1259.5747">Message :</text>
    <text fill="#000000" font-family="sans-serif" font-size="13" lengthAdjust="spacing" textLength="8.271" x="1212.5293" y="1274.7075">{</text>
    <text fill="#000000" font-family="sans-serif" font-size="13" lengthAdjust="spacing" textLength="136.208" x="1229.0586" y="1289.8403">&quot;errorInformation&quot;: {</text>
    <text fill="#000000" font-family="sans-serif" font-size="13" lengthAdjust="spacing" textLength="122.9541" x="1245.5879" y="1304.9731">&quot;errorCode&quot;: 3200,</text>
    <text fill="#000000" font-family="sans-serif" font-size="13" lengthAdjust="spacing" textLength="323.1274" x="1245.5879" y="1320.106">&quot;errorDescription&quot;: &quot;ParticipantLimit introuvable&quot;,</text>
    <text fill="#000000" font-family="sans-serif" font-size="13" lengthAdjust="spacing" textLength="8.271" x="1229.0586" y="1335.2388">}</text>
    <text fill="#000000" font-family="sans-serif" font-size="13" lengthAdjust="spacing" textLength="8.271" x="1212.5293" y="1350.3716">}</text>
    <polygon fill="#181818" points="788.7114,1387.5703,778.7114,1391.5703,788.7114,1395.5703,784.7114,1391.5703" style="stroke:#181818;stroke-width:1.0;"/>
    <line style="stroke:#181818;stroke-width:1.0;stroke-dasharray:2.0,2.0;" x1="782.7114" x2="1174.9639" y1="1391.5703" y2="1391.5703"/>
    <text fill="#000000" font-family="sans-serif" font-size="13" font-weight="bold" lengthAdjust="spacing" textLength="18.0908" x="794.7114" y="1386.5044">17</text>
    <text fill="#000000" font-family="sans-serif" font-size="13" lengthAdjust="spacing" textLength="352.1616" x="816.8022" y="1386.5044">Renvoyer les nouvelles valeurs de limite et statut 200</text>
    <path d="M1190,1404.5703 L1190,1580.5703 L1487,1580.5703 L1487,1414.5703 L1477,1404.5703 L1190,1404.5703 " fill="#FFFF00" style="stroke:#181818;stroke-width:0.5;"/>
    <path d="M1477,1404.5703 L1477,1414.5703 L1487,1414.5703 L1477,1404.5703 " fill="#FFFF00" style="stroke:#181818;stroke-width:0.5;"/>
    <text fill="#000000" font-family="sans-serif" font-size="13" lengthAdjust="spacing" textLength="65.4888" x="1196" y="1421.6372">Message :</text>
    <text fill="#000000" font-family="sans-serif" font-size="13" lengthAdjust="spacing" textLength="8.271" x="1196" y="1436.77">{</text>
    <text fill="#000000" font-family="sans-serif" font-size="13" lengthAdjust="spacing" textLength="120.4785" x="1212.5293" y="1451.9028">&quot;currency&quot;: &quot;EUR&quot;,</text>
    <text fill="#000000" font-family="sans-serif" font-size="13" lengthAdjust="spacing" textLength="57.3384" x="1212.5293" y="1467.0356">&quot;limit&quot;: {</text>
    <text fill="#000000" font-family="sans-serif" font-size="13" lengthAdjust="spacing" textLength="212.0244" x="1229.0586" y="1482.1685">&quot;participantLimitId&quot;: &lt;number&gt;,</text>
    <text fill="#000000" font-family="sans-serif" font-size="13" lengthAdjust="spacing" textLength="243.9087" x="1229.0586" y="1497.3013">&quot;participantLimitTypeId&quot;: &lt;number&gt;,</text>
    <text fill="#000000" font-family="sans-serif" font-size="13" lengthAdjust="spacing" textLength="112.7471" x="1229.0586" y="1512.4341">&quot;type&quot;: &lt;string&gt;,</text>
    <text fill="#000000" font-family="sans-serif" font-size="13" lengthAdjust="spacing" textLength="119.2153" x="1229.0586" y="1527.5669">&quot;value&quot;: &lt;string&gt;,</text>
    <text fill="#000000" font-family="sans-serif" font-size="13" lengthAdjust="spacing" textLength="79.5679" x="1229.0586" y="1542.6997">&quot;isActive&quot;: 1</text>
    <text fill="#000000" font-family="sans-serif" font-size="13" lengthAdjust="spacing" textLength="8.271" x="1212.5293" y="1557.8325">}</text>
    <text fill="#000000" font-family="sans-serif" font-size="13" lengthAdjust="spacing" textLength="8.271" x="1196" y="1572.9653">}</text>
    <polygon fill="#181818" points="102.2075,1603.1641,92.2075,1607.1641,102.2075,1611.1641,98.2075,1607.1641" style="stroke:#181818;stroke-width:1.0;"/>
    <line style="stroke:#181818;stroke-width:1.0;stroke-dasharray:2.0,2.0;" x1="96.2075" x2="766.7114" y1="1607.1641" y2="1607.1641"/>
    <text fill="#000000" font-family="sans-serif" font-size="13" font-weight="bold" lengthAdjust="spacing" textLength="18.0908" x="108.2075" y="1602.0981">18</text>
    <text fill="#000000" font-family="sans-serif" font-size="13" lengthAdjust="spacing" textLength="352.1616" x="130.2983" y="1602.0981">Renvoyer les nouvelles valeurs de limite et statut 200</text>
    <line style="stroke:#000000;stroke-width:1.0;stroke-dasharray:2.0,2.0;" x1="20" x2="1940.8911" y1="1616.1641" y2="1616.1641"/>
    <text fill="#000000" font-family="sans-serif" font-size="11" font-weight="bold" lengthAdjust="spacing" textLength="191.2861" x="25" y="1626.3745">[Valider le participant (échec)]</text>
    <path d="M1190,1634.9688 L1190,1659.9688 L1347,1659.9688 L1347,1644.9688 L1337,1634.9688 L1190,1634.9688 " fill="#FF0000" style="stroke:#181818;stroke-width:0.5;"/>
    <path d="M1337,1634.9688 L1337,1644.9688 L1347,1644.9688 L1337,1634.9688 " fill="#FF0000" style="stroke:#181818;stroke-width:0.5;"/>
    <text fill="#000000" font-family="sans-serif" font-size="13" lengthAdjust="spacing" textLength="136.6079" x="1196" y="1652.0356">Échec de validation !</text>
    <path d="M1190,1670.1016 L1190,1785.1016 L1575,1785.1016 L1575,1680.1016 L1565,1670.1016 L1190,1670.1016 " fill="#FFFF00" style="stroke:#181818;stroke-width:0.5;"/>
    <path d="M1565,1670.1016 L1565,1680.1016 L1575,1680.1016 L1565,1670.1016 " fill="#FFFF00" style="stroke:#181818;stroke-width:0.5;"/>
    <text fill="#000000" font-family="sans-serif" font-size="13" lengthAdjust="spacing" textLength="65.4888" x="1196" y="1687.1685">Message :</text>
    <text fill="#000000" font-family="sans-serif" font-size="13" lengthAdjust="spacing" textLength="8.271" x="1212.5293" y="1702.3013">{</text>
    <text fill="#000000" font-family="sans-serif" font-size="13" lengthAdjust="spacing" textLength="136.208" x="1229.0586" y="1717.4341">&quot;errorInformation&quot;: {</text>
    <text fill="#000000" font-family="sans-serif" font-size="13" lengthAdjust="spacing" textLength="122.9541" x="1245.5879" y="1732.5669">&quot;errorCode&quot;: 3200,</text>
    <text fill="#000000" font-family="sans-serif" font-size="13" lengthAdjust="spacing" textLength="314.9517" x="1245.5879" y="1747.6997">&quot;errorDescription&quot;: &quot;Identifiant FSP introuvable&quot;,</text>
    <text fill="#000000" font-family="sans-serif" font-size="13" lengthAdjust="spacing" textLength="8.271" x="1229.0586" y="1762.8325">}</text>
    <text fill="#000000" font-family="sans-serif" font-size="13" lengthAdjust="spacing" textLength="8.271" x="1212.5293" y="1777.9653">}</text>
    <polygon fill="#181818" points="788.7114,1815.1641,778.7114,1819.1641,788.7114,1823.1641,784.7114,1819.1641" style="stroke:#181818;stroke-width:1.0;"/>
    <line style="stroke:#181818;stroke-width:1.0;stroke-dasharray:2.0,2.0;" x1="782.7114" x2="1179.9639" y1="1819.1641" y2="1819.1641"/>
    <text fill="#000000" font-family="sans-serif" font-size="13" font-weight="bold" lengthAdjust="spacing" textLength="18.0908" x="794.7114" y="1814.0981">19</text>
    <text fill="#000000" font-family="sans-serif" font-size="13" lengthAdjust="spacing" textLength="61.9531" x="816.8022" y="1814.0981">Renvoyer</text>
    <text fill="#FF0000" font-family="sans-serif" font-size="13" font-weight="bold" lengthAdjust="spacing" textLength="110.2524" x="882.8877" y="1814.0981">Code d&apos;erreur :</text>
    <text fill="#FF0000" font-family="sans-serif" font-size="13" lengthAdjust="spacing" textLength="33.084" x="997.2725" y="1814.0981">3200</text>
    <polygon fill="#181818" points="97.2075,1844.2969,87.2075,1848.2969,97.2075,1852.2969,93.2075,1848.2969" style="stroke:#181818;stroke-width:1.0;"/>
    <line style="stroke:#181818;stroke-width:1.0;stroke-dasharray:2.0,2.0;" x1="91.2075" x2="771.7114" y1="1848.2969" y2="1848.2969"/>
    <text fill="#000000" font-family="sans-serif" font-size="13" font-weight="bold" lengthAdjust="spacing" textLength="18.0908" x="103.2075" y="1843.231">20</text>
    <text fill="#000000" font-family="sans-serif" font-size="13" lengthAdjust="spacing" textLength="61.9531" x="125.2983" y="1843.231">Renvoyer</text>
    <text fill="#FF0000" font-family="sans-serif" font-size="13" font-weight="bold" lengthAdjust="spacing" textLength="110.2524" x="191.3838" y="1843.231">Code d&apos;erreur :</text>
    <text fill="#FF0000" font-family="sans-serif" font-size="13" lengthAdjust="spacing" textLength="33.084" x="305.7686" y="1843.231">3200</text>
  </g>
</svg>
