<svg xmlns="http://www.w3.org/2000/svg" height="855" preserveAspectRatio="none" style="width:888px;height:855px" width="888">
  <text font-family="Verdana" font-size="18" lengthAdjust="spacingAndGlyphs" textLength="480" x="201.75" y="28.708">
    Transfer: 3.Thirdparty Transaction Request Times Out
  </text>
  <path fill="#DDD" stroke="#383838" d="M97 40.953h155v801.281H97z"/>
  <text font-family="Verdana" font-size="13" font-weight="bold" lengthAdjust="spacingAndGlyphs" textLength="33" x="158" y="53.02">
    PISP
  </text>
  <path fill="#DDD" stroke="#383838" d="M461 40.953h97v801.281h-97z"/>
  <text font-family="Verdana" font-size="13" font-weight="bold" lengthAdjust="spacingAndGlyphs" textLength="67" x="476" y="53.02">
    Mojaloop
  </text>
  <path fill="#DDD" stroke="#383838" d="M776.5 40.953h106v801.281h-106z"/>
  <text font-family="Verdana" font-size="13" font-weight="bold" lengthAdjust="spacingAndGlyphs" textLength="54" x="802.5" y="53.02">
    DFSP A
  </text>
  <path stroke="#000" d="M174 121.648v583.383"/>
  <path stroke="#000" stroke-dasharray="1,4" d="M174 705.031v40.805"/>
  <path stroke="#000" d="M174 745.836v102.398M509 121.648v583.383"/>
  <path stroke="#000" stroke-dasharray="1,4" d="M509 705.031v40.805"/>
  <path stroke="#000" d="M509 745.836v102.398M829.5 121.648v583.383"/>
  <path stroke="#000" stroke-dasharray="1,4" d="M829.5 705.031v40.805"/>
  <path stroke="#000" d="M829.5 745.836v102.398"/>
  <path fill="#F4F4F4" stroke="#383838" stroke-width="1.5" d="M101 83.367h147v37.281H101z"/>
  <text font-family="Verdana" font-size="20" font-weight="bold" lengthAdjust="spacingAndGlyphs" textLength="133" x="108" y="108.932">
    PISP Server
  </text>
  <path fill="#F4F4F4" stroke="#383838" stroke-width="1.5" d="M465 83.367h89v37.281h-89z"/>
  <text font-family="Verdana" font-size="20" font-weight="bold" lengthAdjust="spacingAndGlyphs" textLength="75" x="472" y="108.932">
    Switch
  </text>
  <path fill="#F4F4F4" stroke="#383838" stroke-width="1.5" d="M780.5 60.086h98v60.563h-98z"/>
  <text font-family="Verdana" font-size="20" font-weight="bold" lengthAdjust="spacingAndGlyphs" textLength="82" x="788.5" y="85.65">
    DFSP A
  </text>
  <text font-family="Verdana" font-size="20" font-weight="bold" lengthAdjust="spacingAndGlyphs" textLength="84" x="787.5" y="108.932">
    (Payer)
  </text>
  <path fill="#FFF" stroke="#383838" d="M179 136.648h459v446H179z"/>
  <text font-family="monospace" font-size="13" font-weight="bold" lengthAdjust="spacingAndGlyphs" textLength="296" x="183" y="152.715">
    POST /thirdpartyRequests/transactions
  </text>
  <text font-family="monospace" font-size="13" lengthAdjust="spacingAndGlyphs" textLength="160" x="183" y="167.848">
    FSPIOP-Source: pispa
  </text>
  <text font-family="monospace" font-size="13" lengthAdjust="spacingAndGlyphs" textLength="200" x="183" y="182.981">
    FSPIOP-Destination: dfspa
  </text>
  <text font-family="Verdana" font-size="13" lengthAdjust="spacingAndGlyphs" textLength="8" x="183" y="198.114">
    {
  </text>
  <text font-family="Verdana" font-size="13" lengthAdjust="spacingAndGlyphs" textLength="443" x="191" y="213.247">
    &quot;transactionRequestId&quot;: &quot;00000000-0000-0000-0000-000000000000&quot;,
  </text>
  <text font-family="Verdana" font-size="13" lengthAdjust="spacingAndGlyphs" textLength="65" x="191" y="228.379">
    &quot;payee&quot;: {
  </text>
  <text font-family="Verdana" font-size="13" lengthAdjust="spacingAndGlyphs" textLength="93" x="199" y="243.512">
    &quot;partyIdInfo&quot;: {
  </text>
  <text font-family="Verdana" font-size="13" lengthAdjust="spacingAndGlyphs" textLength="158" x="207" y="258.645">
    &quot;partyIdType&quot;: &quot;MSISDN&quot;,
  </text>
  <text font-family="Verdana" font-size="13" lengthAdjust="spacingAndGlyphs" textLength="211" x="207" y="273.778">
    &quot;partyIdentifier&quot;: &quot;+4412345678&quot;,
  </text>
  <text font-family="Verdana" font-size="13" lengthAdjust="spacingAndGlyphs" textLength="93" x="207" y="288.911">
    &quot;fspId&quot;: &quot;dfspb&quot;
  </text>
  <text font-family="Verdana" font-size="13" lengthAdjust="spacingAndGlyphs" textLength="8" x="199" y="304.043">
    }
  </text>
  <text font-family="Verdana" font-size="13" lengthAdjust="spacingAndGlyphs" textLength="12" x="191" y="319.176">
    },
  </text>
  <text font-family="Verdana" font-size="13" lengthAdjust="spacingAndGlyphs" textLength="62" x="191" y="334.309">
    &quot;payer&quot;: {
  </text>
  <text font-family="Verdana" font-size="13" lengthAdjust="spacingAndGlyphs" textLength="225" x="199" y="349.442">
    &quot;partyIdType&quot;: &quot;THIRD_PARTY_LINK&quot;,
  </text>
  <text font-family="Verdana" font-size="13" lengthAdjust="spacingAndGlyphs" textLength="207" x="199" y="364.575">
    &quot;partyIdentifier&quot;: &quot;qwerty-56789&quot;,
  </text>
  <text font-family="Verdana" font-size="13" lengthAdjust="spacingAndGlyphs" textLength="93" x="199" y="379.707">
    &quot;fspId&quot;: &quot;dfspa&quot;
  </text>
  <text font-family="Verdana" font-size="13" lengthAdjust="spacingAndGlyphs" textLength="12" x="191" y="394.84">
    },
  </text>
  <text font-family="Verdana" font-size="13" lengthAdjust="spacingAndGlyphs" textLength="149" x="191" y="409.973">
    &quot;amountType&quot;: &quot;SEND&quot;,
  </text>
  <text font-family="Verdana" font-size="13" lengthAdjust="spacingAndGlyphs" textLength="76" x="191" y="425.106">
    &quot;amount&quot;: {
  </text>
  <text font-family="Verdana" font-size="13" lengthAdjust="spacingAndGlyphs" textLength="106" x="199" y="440.239">
    &quot;amount&quot;: &quot;100&quot;,
  </text>
  <text font-family="Verdana" font-size="13" lengthAdjust="spacingAndGlyphs" textLength="112" x="199" y="455.372">
    &quot;currency&quot;: &quot;USD&quot;
  </text>
  <text font-family="Verdana" font-size="13" lengthAdjust="spacingAndGlyphs" textLength="12" x="191" y="470.504">
    },
  </text>
  <text font-family="Verdana" font-size="13" lengthAdjust="spacingAndGlyphs" textLength="128" x="191" y="485.637">
    &quot;transactionType&quot;: {
  </text>
  <text font-family="Verdana" font-size="13" lengthAdjust="spacingAndGlyphs" textLength="152" x="199" y="500.77">
    &quot;scenario&quot;: &quot;TRANSFER&quot;,
  </text>
  <text font-family="Verdana" font-size="13" lengthAdjust="spacingAndGlyphs" textLength="120" x="199" y="515.903">
    &quot;initiator&quot;: &quot;PAYER&quot;,
  </text>
  <text font-family="Verdana" font-size="13" lengthAdjust="spacingAndGlyphs" textLength="181" x="199" y="531.036">
    &quot;initiatorType&quot;: &quot;CONSUMER&quot;
  </text>
  <text font-family="Verdana" font-size="13" lengthAdjust="spacingAndGlyphs" textLength="12" x="191" y="546.168">
    },
  </text>
  <text font-family="Verdana" font-size="13" lengthAdjust="spacingAndGlyphs" textLength="297" x="191" y="561.301">
    &quot;expiration&quot;: &quot;2020-06-15T22:17:28.985-01:00&quot;
  </text>
  <text font-family="Verdana" font-size="13" lengthAdjust="spacingAndGlyphs" textLength="8" x="183" y="576.434">
    }
  </text>
  <path stroke="#000" d="M497.5 605.633l10 4-10 4 4-4zM174.5 609.633h329"/>
  <text font-family="monospace" font-size="13" lengthAdjust="spacingAndGlyphs" textLength="296" x="194" y="604.567">
    POST /thirdpartyRequests/transactions
  </text>
  <path stroke="#000" d="M185.5 634.766l-10 4 10 4-4-4z"/>
  <path stroke="#000" stroke-dasharray="2,2" d="M179.5 638.766h329"/>
  <text font-family="monospace" font-size="13" lengthAdjust="spacingAndGlyphs" textLength="96" x="294" y="633.7">
    202 Accepted
  </text>
  <path stroke="#000" d="M817.5 663.898l10 4-10 4 4-4zM509.5 667.898h314"/>
  <text font-family="monospace" font-size="13" lengthAdjust="spacingAndGlyphs" textLength="296" x="521.5" y="662.832">
    POST /thirdpartyRequests/transactions
  </text>
  <path stroke="#000" d="M520.5 693.031l-10 4 10 4-4-4z"/>
  <path stroke="#000" stroke-dasharray="2,2" d="M514.5 697.031h314"/>
  <text font-family="monospace" font-size="13" lengthAdjust="spacingAndGlyphs" textLength="96" x="621.5" y="691.965">
    202 Accepted
  </text>
  <text font-family="Verdana" font-size="11" lengthAdjust="spacingAndGlyphs" textLength="226" x="391" y="729.242">
    DFSP doesn&apos;t respond for some reason
  </text>
  <path stroke="#000" d="M174.5 766.969h42M216.5 766.969v13M175.5 779.969h41M185.5 775.969l-10 4 10 4-4-4z"/>
  <text font-family="Verdana" font-size="13" lengthAdjust="spacingAndGlyphs" textLength="321" x="181.5" y="761.903">
    Thirdparty Transaction Request expiration reached
  </text>
  <path d="M5 792.969v40h339v-30l-10-10H5" fill="#ECECEC" stroke="#383838"/>
  <path d="M334 792.969v10h10l-10-10" fill="#ECECEC" stroke="#383838"/>
  <text font-family="Verdana" font-size="13" lengthAdjust="spacingAndGlyphs" textLength="318" x="11" y="810.036">
    PISP informs their user that the transaction failed.
  </text>
</svg>
