<svg xmlns="http://www.w3.org/2000/svg" height="2866" preserveAspectRatio="none" style="width:3335px;height:2866px" width="3335">
  <defs>
    <filter height="300%" id="a" width="300%" x="-1" y="-1">
      <feGaussianBlur result="blurOut" stdDeviation="2"/>
      <feColorMatrix in="blurOut" result="blurOut2" values="0 0 0 0 0 0 0 0 0 0 0 0 0 0 0 0 0 0 .4 0"/>
      <feOffset dx="4" dy="4" in="blurOut2" result="blurOut3"/>
      <feBlend in="SourceGraphic" in2="blurOut3"/>
    </filter>
  </defs>
  <text font-family="sans-serif" font-size="18" lengthAdjust="spacingAndGlyphs" textLength="230" x="1550.5" y="28.708">
    4.1.0. Bulk Transfer Abort
  </text>
  <path fill="#D3D3D3" stroke="#a80036" d="M1 40.953h204v2819.328H1z"/>
  <text font-family="sans-serif" font-size="13" font-weight="bold" lengthAdjust="spacingAndGlyphs" textLength="198" x="4" y="53.02">
    Financial Service Providers
  </text>
  <path fill="#ADD8E6" stroke="#a80036" d="M380.5 40.953h378v2819.328h-378z"/>
  <text font-family="sans-serif" font-size="13" font-weight="bold" lengthAdjust="spacingAndGlyphs" textLength="184" x="477.5" y="53.02">
    Bulk API Adapter Service
  </text>
  <path fill="#FFFFE0" stroke="#a80036" d="M760.5 40.953h2528v2819.328h-2528z"/>
  <text font-family="sans-serif" font-size="13" font-weight="bold" lengthAdjust="spacingAndGlyphs" textLength="111" x="1969" y="53.02">
    Central Service
  </text>
  <path fill="#FFF" filter="url(#a)" stroke="#a80036" d="M439 701.797h10v2046.891h-10zM629 169.68h10v2579.008h-10zM1600 169.68h10v2579.008h-10zM1796 169.68h10v2579.008h-10z"/>
  <path fill="#FFF" filter="url(#a)" stroke="#a80036" d="M1796 169.68h10v2579.008h-10zM2253.5 169.68h10v2579.008h-10zM2722 169.68h10v2579.008h-10zM3074.5 730.93h10v161.93h-10zM3208.5 1680.305h10v30h-10z"/>
  <path fill="#FFF" filter="url(#a)" stroke="#000" stroke-width="2" d="M26 176.68h3295v2564.008H26z"/>
  <path fill="#FFF" filter="url(#a)" stroke="#000" stroke-width="2" d="M1038.5 1451.578H3311v328.992H1038.5zM1038.5 1819.57H2178v135.797H1038.5zM1870 1994.367h975.5v135.797H1870zM2339 2169.164h687.5v106.664H2339zM36 2406.359h2990.5v131.664H36zM98 2577.023h2928.5v131.664H98z"/>
  <path stroke="#a80036" stroke-dasharray="5,5" d="M72 159.68v2598.008M134 159.68v2598.008M443.5 159.68v2598.008M633.5 159.68v2598.008M831.5 159.68v2598.008M973.5 159.68v2598.008M1095.5 159.68v2598.008M1605 159.68v2598.008M1796 159.68v2598.008M1967 159.68v2598.008M2116 159.68v2598.008M2258 159.68v2598.008M2435 159.68v2598.008M2726.5 159.68v2598.008M2945.5 159.68v2598.008M3079.5 159.68v2598.008M3213.5 159.68v2598.008"/>
  <text font-family="sans-serif" font-size="14" lengthAdjust="spacingAndGlyphs" textLength="46" x="46" y="140.081">
    DFSP1
  </text>
  <text font-family="sans-serif" font-size="14" lengthAdjust="spacingAndGlyphs" textLength="38" x="50" y="156.378">
    Payer
  </text>
  <circle cx="72" cy="70.086" fill="#FEFECE" filter="url(#a)" stroke="#a80036" stroke-width="2" r="8"/>
  <path d="M72 78.086v27m-13-19h26m-13 19l-13 15m13-15l13 15" fill="none" filter="url(#a)" stroke="#a80036" stroke-width="2"/>
  <text font-family="sans-serif" font-size="14" lengthAdjust="spacingAndGlyphs" textLength="46" x="46" y="2769.683">
    DFSP1
  </text>
  <text font-family="sans-serif" font-size="14" lengthAdjust="spacingAndGlyphs" textLength="38" x="50" y="2785.979">
    Payer
  </text>
  <circle cx="72" cy="2799.281" fill="#FEFECE" filter="url(#a)" stroke="#a80036" stroke-width="2" r="8"/>
  <path d="M72 2807.281v27m-13-19h26m-13 19l-13 15m13-15l13 15" fill="none" filter="url(#a)" stroke="#a80036" stroke-width="2"/>
  <text font-family="sans-serif" font-size="14" lengthAdjust="spacingAndGlyphs" textLength="46" x="108" y="140.081">
    DFSP2
  </text>
  <text font-family="sans-serif" font-size="14" lengthAdjust="spacingAndGlyphs" textLength="42" x="110" y="156.378">
    Payee
  </text>
  <circle cx="134" cy="70.086" fill="#FEFECE" filter="url(#a)" stroke="#a80036" stroke-width="2" r="8"/>
  <path d="M134 78.086v27m-13-19h26m-13 19l-13 15m13-15l13 15" fill="none" filter="url(#a)" stroke="#a80036" stroke-width="2"/>
  <text font-family="sans-serif" font-size="14" lengthAdjust="spacingAndGlyphs" textLength="46" x="108" y="2769.683">
    DFSP2
  </text>
  <text font-family="sans-serif" font-size="14" lengthAdjust="spacingAndGlyphs" textLength="42" x="110" y="2785.979">
    Payee
  </text>
  <circle cx="134" cy="2799.281" fill="#FEFECE" filter="url(#a)" stroke="#a80036" stroke-width="2" r="8"/>
  <path d="M134 2807.281v27m-13-19h26m-13 19l-13 15m13-15l13 15" fill="none" filter="url(#a)" stroke="#a80036" stroke-width="2"/>
  <text font-family="sans-serif" font-size="14" lengthAdjust="spacingAndGlyphs" textLength="113" x="384.5" y="156.378">
    Bulk API Adapter
  </text>
  <path d="M423.5 115.383v24m0-12h17" fill="none" filter="url(#a)" stroke="#a80036" stroke-width="2"/>
  <circle cx="452.5" cy="127.383" fill="#FEFECE" filter="url(#a)" stroke="#a80036" stroke-width="2" r="12"/>
  <text font-family="sans-serif" font-size="14" lengthAdjust="spacingAndGlyphs" textLength="113" x="384.5" y="2769.683">
    Bulk API Adapter
  </text>
  <path d="M423.5 2776.984v24m0-12h17" fill="none" filter="url(#a)" stroke="#a80036" stroke-width="2"/>
  <circle cx="452.5" cy="2788.984" fill="#FEFECE" filter="url(#a)" stroke="#a80036" stroke-width="2" r="12"/>
  <text font-family="sans-serif" font-size="14" lengthAdjust="spacingAndGlyphs" textLength="235" x="513.5" y="156.378">
    Bulk API Notification Event Handler
  </text>
  <circle cx="634" cy="127.383" fill="#FEFECE" filter="url(#a)" stroke="#a80036" stroke-width="2" r="12"/>
  <path fill="#A80036" stroke="#a80036" d="M630 115.383l6-5-2 5 2 5-6-5z"/>
  <text font-family="sans-serif" font-size="14" lengthAdjust="spacingAndGlyphs" textLength="235" x="513.5" y="2769.683">
    Bulk API Notification Event Handler
  </text>
  <circle cx="634" cy="2788.984" fill="#FEFECE" filter="url(#a)" stroke="#a80036" stroke-width="2" r="12"/>
  <path fill="#A80036" stroke="#a80036" d="M630 2776.984l6-5-2 5 2 5-6-5z"/>
  <text font-family="sans-serif" font-size="14" lengthAdjust="spacingAndGlyphs" textLength="128" x="764.5" y="156.378">
    Central Service API
  </text>
  <path d="M811 115.383v24m0-12h17" fill="none" filter="url(#a)" stroke="#a80036" stroke-width="2"/>
  <circle cx="840" cy="127.383" fill="#FEFECE" filter="url(#a)" stroke="#a80036" stroke-width="2" r="12"/>
  <text font-family="sans-serif" font-size="14" lengthAdjust="spacingAndGlyphs" textLength="128" x="764.5" y="2769.683">
    Central Service API
  </text>
  <path d="M811 2776.984v24m0-12h17" fill="none" filter="url(#a)" stroke="#a80036" stroke-width="2"/>
  <circle cx="840" cy="2788.984" fill="#FEFECE" filter="url(#a)" stroke="#a80036" stroke-width="2" r="12"/>
  <path fill="#FEFECE" filter="url(#a)" stroke="#a80036" stroke-width="1.5" d="M912.5 120.383h122v30.297h-122z"/>
  <path fill="#FEFECE" filter="url(#a)" stroke="#a80036" stroke-width="1.5" d="M908.5 124.383h122v30.297h-122z"/>
  <text font-family="sans-serif" font-size="14" lengthAdjust="spacingAndGlyphs" textLength="108" x="915.5" y="144.378">
    Bulk-Fulfil-Topic
  </text>
  <path fill="#FEFECE" filter="url(#a)" stroke="#a80036" stroke-width="1.5" d="M912.5 2756.688h122v30.297h-122z"/>
  <path fill="#FEFECE" filter="url(#a)" stroke="#a80036" stroke-width="1.5" d="M908.5 2760.688h122v30.297h-122z"/>
  <text font-family="sans-serif" font-size="14" lengthAdjust="spacingAndGlyphs" textLength="108" x="915.5" y="2780.683">
    Bulk-Fulfil-Topic
  </text>
  <path fill="#FEFECE" filter="url(#a)" stroke="#a80036" stroke-width="1.5" d="M1052.5 120.383h87v30.297h-87z"/>
  <path fill="#FEFECE" filter="url(#a)" stroke="#a80036" stroke-width="1.5" d="M1048.5 124.383h87v30.297h-87z"/>
  <text font-family="sans-serif" font-size="14" lengthAdjust="spacingAndGlyphs" textLength="73" x="1055.5" y="144.378">
    Fulfil-Topic
  </text>
  <path fill="#FEFECE" filter="url(#a)" stroke="#a80036" stroke-width="1.5" d="M1052.5 2756.688h87v30.297h-87z"/>
  <path fill="#FEFECE" filter="url(#a)" stroke="#a80036" stroke-width="1.5" d="M1048.5 2760.688h87v30.297h-87z"/>
  <text font-family="sans-serif" font-size="14" lengthAdjust="spacingAndGlyphs" textLength="73" x="1055.5" y="2780.683">
    Fulfil-Topic
  </text>
  <text font-family="sans-serif" font-size="14" lengthAdjust="spacingAndGlyphs" textLength="164" x="1520" y="156.378">
    Bulk Fulfil Event Handler
  </text>
  <circle cx="1605" cy="127.383" fill="#FEFECE" filter="url(#a)" stroke="#a80036" stroke-width="2" r="12"/>
  <path fill="#A80036" stroke="#a80036" d="M1601 115.383l6-5-2 5 2 5-6-5z"/>
  <text font-family="sans-serif" font-size="14" lengthAdjust="spacingAndGlyphs" textLength="164" x="1520" y="2769.683">
    Bulk Fulfil Event Handler
  </text>
  <circle cx="1605" cy="2788.984" fill="#FEFECE" filter="url(#a)" stroke="#a80036" stroke-width="2" r="12"/>
  <path fill="#A80036" stroke="#a80036" d="M1601 2776.984l6-5-2 5 2 5-6-5z"/>
  <text font-family="sans-serif" font-size="14" lengthAdjust="spacingAndGlyphs" textLength="130" x="1728" y="156.378">
    Fulfil Event Handler
  </text>
  <circle cx="1796" cy="127.383" fill="#FEFECE" filter="url(#a)" stroke="#a80036" stroke-width="2" r="12"/>
  <path fill="#A80036" stroke="#a80036" d="M1792 115.383l6-5-2 5 2 5-6-5z"/>
  <text font-family="sans-serif" font-size="14" lengthAdjust="spacingAndGlyphs" textLength="130" x="1728" y="2769.683">
    Fulfil Event Handler
  </text>
  <circle cx="1796" cy="2788.984" fill="#FEFECE" filter="url(#a)" stroke="#a80036" stroke-width="2" r="12"/>
  <path fill="#A80036" stroke="#a80036" d="M1792 2776.984l6-5-2 5 2 5-6-5z"/>
  <path fill="#FEFECE" filter="url(#a)" stroke="#a80036" stroke-width="1.5" d="M1884 120.383h166v30.297h-166z"/>
  <path fill="#FEFECE" filter="url(#a)" stroke="#a80036" stroke-width="1.5" d="M1880 124.383h166v30.297h-166z"/>
  <text font-family="sans-serif" font-size="14" lengthAdjust="spacingAndGlyphs" textLength="152" x="1887" y="144.378">
    topic-transfer-position
  </text>
  <path fill="#FEFECE" filter="url(#a)" stroke="#a80036" stroke-width="1.5" d="M1884 2756.688h166v30.297h-166z"/>
  <path fill="#FEFECE" filter="url(#a)" stroke="#a80036" stroke-width="1.5" d="M1880 2760.688h166v30.297h-166z"/>
  <text font-family="sans-serif" font-size="14" lengthAdjust="spacingAndGlyphs" textLength="152" x="1887" y="2780.683">
    topic-transfer-position
  </text>
  <path fill="#FEFECE" filter="url(#a)" stroke="#a80036" stroke-width="1.5" d="M2068 120.383h96v30.297h-96z"/>
  <path fill="#FEFECE" filter="url(#a)" stroke="#a80036" stroke-width="1.5" d="M2064 124.383h96v30.297h-96z"/>
  <text font-family="sans-serif" font-size="14" lengthAdjust="spacingAndGlyphs" textLength="82" x="2071" y="144.378">
    Event-Topic
  </text>
  <path fill="#FEFECE" filter="url(#a)" stroke="#a80036" stroke-width="1.5" d="M2068 2756.688h96v30.297h-96z"/>
  <path fill="#FEFECE" filter="url(#a)" stroke="#a80036" stroke-width="1.5" d="M2064 2760.688h96v30.297h-96z"/>
  <text font-family="sans-serif" font-size="14" lengthAdjust="spacingAndGlyphs" textLength="82" x="2071" y="2780.683">
    Event-Topic
  </text>
  <text font-family="sans-serif" font-size="14" lengthAdjust="spacingAndGlyphs" textLength="155" x="2178" y="156.378">
    Position Event Handler
  </text>
  <circle cx="2258.5" cy="127.383" fill="#FEFECE" filter="url(#a)" stroke="#a80036" stroke-width="2" r="12"/>
  <path fill="#A80036" stroke="#a80036" d="M2254.5 115.383l6-5-2 5 2 5-6-5z"/>
  <text font-family="sans-serif" font-size="14" lengthAdjust="spacingAndGlyphs" textLength="155" x="2178" y="2769.683">
    Position Event Handler
  </text>
  <circle cx="2258.5" cy="2788.984" fill="#FEFECE" filter="url(#a)" stroke="#a80036" stroke-width="2" r="12"/>
  <path fill="#A80036" stroke="#a80036" d="M2254.5 2776.984l6-5-2 5 2 5-6-5z"/>
  <path fill="#FEFECE" filter="url(#a)" stroke="#a80036" stroke-width="1.5" d="M2353 120.383h164v30.297h-164z"/>
  <path fill="#FEFECE" filter="url(#a)" stroke="#a80036" stroke-width="1.5" d="M2349 124.383h164v30.297h-164z"/>
  <text font-family="sans-serif" font-size="14" lengthAdjust="spacingAndGlyphs" textLength="150" x="2356" y="144.378">
    topic-bulk-processing
  </text>
  <path fill="#FEFECE" filter="url(#a)" stroke="#a80036" stroke-width="1.5" d="M2353 2756.688h164v30.297h-164z"/>
  <path fill="#FEFECE" filter="url(#a)" stroke="#a80036" stroke-width="1.5" d="M2349 2760.688h164v30.297h-164z"/>
  <text font-family="sans-serif" font-size="14" lengthAdjust="spacingAndGlyphs" textLength="150" x="2356" y="2780.683">
    topic-bulk-processing
  </text>
  <text font-family="sans-serif" font-size="14" lengthAdjust="spacingAndGlyphs" textLength="211" x="2618.5" y="156.378">
    Bulk Processing Event Handler
  </text>
  <circle cx="2727" cy="127.383" fill="#FEFECE" filter="url(#a)" stroke="#a80036" stroke-width="2" r="12"/>
  <path fill="#A80036" stroke="#a80036" d="M2723 115.383l6-5-2 5 2 5-6-5z"/>
  <text font-family="sans-serif" font-size="14" lengthAdjust="spacingAndGlyphs" textLength="211" x="2618.5" y="2769.683">
    Bulk Processing Event Handler
  </text>
  <circle cx="2727" cy="2788.984" fill="#FEFECE" filter="url(#a)" stroke="#a80036" stroke-width="2" r="12"/>
  <path fill="#A80036" stroke="#a80036" d="M2723 2776.984l6-5-2 5 2 5-6-5z"/>
  <path fill="#FEFECE" filter="url(#a)" stroke="#a80036" stroke-width="1.5" d="M2879.5 120.383h133v30.297h-133z"/>
  <path fill="#FEFECE" filter="url(#a)" stroke="#a80036" stroke-width="1.5" d="M2875.5 124.383h133v30.297h-133z"/>
  <text font-family="sans-serif" font-size="14" lengthAdjust="spacingAndGlyphs" textLength="119" x="2882.5" y="144.378">
    Notification-Topic
  </text>
  <path fill="#FEFECE" filter="url(#a)" stroke="#a80036" stroke-width="1.5" d="M2879.5 2756.688h133v30.297h-133z"/>
  <path fill="#FEFECE" filter="url(#a)" stroke="#a80036" stroke-width="1.5" d="M2875.5 2760.688h133v30.297h-133z"/>
  <text font-family="sans-serif" font-size="14" lengthAdjust="spacingAndGlyphs" textLength="119" x="2882.5" y="2780.683">
    Notification-Topic
  </text>
  <path fill="#FEFECE" filter="url(#a)" stroke="#a80036" stroke-width="1.5" d="M3030.5 87.789h98v62.891h-98z"/>
  <path fill="#FEFECE" filter="url(#a)" stroke="#a80036" stroke-width="1.5" d="M3026.5 91.789h98v62.891h-98z"/>
  <text font-family="sans-serif" font-size="14" lengthAdjust="spacingAndGlyphs" textLength="68" x="3041.5" y="111.784">
    mojaloop-
  </text>
  <text font-family="sans-serif" font-size="14" lengthAdjust="spacingAndGlyphs" textLength="84" x="3033.5" y="128.081">
    object-store
  </text>
  <text font-family="sans-serif" font-size="14" lengthAdjust="spacingAndGlyphs" textLength="5" x="3048.5" y="144.378">
    (
  </text>
  <text font-family="sans-serif" font-size="14" font-weight="bold" lengthAdjust="spacingAndGlyphs" textLength="44" x="3053.5" y="144.378">
    MLOS
  </text>
  <text font-family="sans-serif" font-size="14" lengthAdjust="spacingAndGlyphs" textLength="5" x="3097.5" y="144.378">
    )
  </text>
  <path fill="#FEFECE" filter="url(#a)" stroke="#a80036" stroke-width="1.5" d="M3030.5 2756.688h98v62.891h-98z"/>
  <path fill="#FEFECE" filter="url(#a)" stroke="#a80036" stroke-width="1.5" d="M3026.5 2760.688h98v62.891h-98z"/>
  <text font-family="sans-serif" font-size="14" lengthAdjust="spacingAndGlyphs" textLength="68" x="3041.5" y="2780.683">
    mojaloop-
  </text>
  <text font-family="sans-serif" font-size="14" lengthAdjust="spacingAndGlyphs" textLength="84" x="3033.5" y="2796.979">
    object-store
  </text>
  <text font-family="sans-serif" font-size="14" lengthAdjust="spacingAndGlyphs" textLength="5" x="3048.5" y="2813.276">
    (
  </text>
  <text font-family="sans-serif" font-size="14" font-weight="bold" lengthAdjust="spacingAndGlyphs" textLength="44" x="3053.5" y="2813.276">
    MLOS
  </text>
  <text font-family="sans-serif" font-size="14" lengthAdjust="spacingAndGlyphs" textLength="5" x="3097.5" y="2813.276">
    )
  </text>
  <text font-family="sans-serif" font-size="14" lengthAdjust="spacingAndGlyphs" textLength="136" x="3142.5" y="156.378">
    Central Services DB
  </text>
  <path d="M3195.5 107.383c0-10 18-10 18-10s18 0 18 10v26c0 10-18 10-18 10s-18 0-18-10v-26" fill="#FEFECE" filter="url(#a)" stroke="#000" stroke-width="1.5"/>
  <path d="M3195.5 107.383c0 10 18 10 18 10s18 0 18-10" fill="none" stroke="#000" stroke-width="1.5"/>
  <text font-family="sans-serif" font-size="14" lengthAdjust="spacingAndGlyphs" textLength="136" x="3142.5" y="2769.683">
    Central Services DB
  </text>
  <path d="M3195.5 2782.984c0-10 18-10 18-10s18 0 18 10v26c0 10-18 10-18 10s-18 0-18-10v-26" fill="#FEFECE" filter="url(#a)" stroke="#000" stroke-width="1.5"/>
  <path d="M3195.5 2782.984c0 10 18 10 18 10s18 0 18-10" fill="none" stroke="#000" stroke-width="1.5"/>
  <path fill="#FFF" filter="url(#a)" stroke="#a80036" d="M439 701.797h10v2046.891h-10zM629 169.68h10v2579.008h-10zM1600 169.68h10v2579.008h-10zM1796 169.68h10v2579.008h-10z"/>
  <path fill="#FFF" filter="url(#a)" stroke="#a80036" d="M1796 169.68h10v2579.008h-10zM2253.5 169.68h10v2579.008h-10zM2722 169.68h10v2579.008h-10zM3074.5 730.93h10v161.93h-10zM3208.5 1680.305h10v30h-10z"/>
  <path d="M26 176.68h371v7l-10 10H26v-17" fill="#EEE" stroke="#000"/>
  <path fill="none" stroke="#000" stroke-width="2" d="M26 176.68h3295v2564.008H26z"/>
  <text font-family="sans-serif" font-size="13" font-weight="bold" lengthAdjust="spacingAndGlyphs" textLength="326" x="41" y="189.747">
    DFSP2 sends a Fulfil Abort Transfer request
  </text>
  <path d="M139 198.813v40h371v-30l-10-10H139" fill="#ADD8E6" filter="url(#a)" stroke="#a80036"/>
  <path d="M500 198.813v10h10l-10-10" fill="#ADD8E6" stroke="#a80036"/>
  <text font-family="sans-serif" font-size="13" font-weight="bold" lengthAdjust="spacingAndGlyphs" textLength="35" x="145" y="215.879">
    Note
  </text>
  <text font-family="sans-serif" font-size="13" lengthAdjust="spacingAndGlyphs" textLength="315" x="180" y="215.879">
    : In the payload for PUT /bulkTransfers/&lt;ID&gt;/error
  </text>
  <text font-family="sans-serif" font-size="13" lengthAdjust="spacingAndGlyphs" textLength="51" x="145" y="231.012">
    only the
  </text>
  <text font-family="sans-serif" font-size="13" font-weight="bold" lengthAdjust="spacingAndGlyphs" textLength="121" x="200" y="231.012">
    errorInformation
  </text>
  <text font-family="sans-serif" font-size="13" lengthAdjust="spacingAndGlyphs" textLength="40" x="325" y="231.012">
    field is
  </text>
  <text font-family="sans-serif" font-size="13" font-weight="bold" lengthAdjust="spacingAndGlyphs" textLength="63" x="369" y="231.012">
    required
  </text>
  <path d="M139 253.078v418h337v-408l-10-10H139" fill="#FF0" filter="url(#a)" stroke="#a80036"/>
  <path d="M466 253.078v10h10l-10-10" fill="#FF0" stroke="#a80036"/>
  <text font-family="sans-serif" font-size="13" lengthAdjust="spacingAndGlyphs" textLength="187" x="145" y="270.145">
    Headers - transferHeaders: {
  </text>
  <text font-family="sans-serif" font-size="13" lengthAdjust="spacingAndGlyphs" textLength="234" x="161" y="285.278">
    Content-Length: &lt;Content-Length&gt;,
  </text>
  <text font-family="sans-serif" font-size="13" lengthAdjust="spacingAndGlyphs" textLength="206" x="161" y="300.411">
    Content-Type: &lt;Content-Type&gt;,
  </text>
  <text font-family="sans-serif" font-size="13" lengthAdjust="spacingAndGlyphs" textLength="96" x="161" y="315.543">
    Date: &lt;Date&gt;,
  </text>
  <text font-family="sans-serif" font-size="13" lengthAdjust="spacingAndGlyphs" textLength="242" x="161" y="330.676">
    X-Forwarded-For: &lt;X-Forwarded-For&gt;,
  </text>
  <text font-family="sans-serif" font-size="13" lengthAdjust="spacingAndGlyphs" textLength="224" x="161" y="345.809">
    FSPIOP-Source: &lt;FSPIOP-Source&gt;,
  </text>
  <text font-family="sans-serif" font-size="13" lengthAdjust="spacingAndGlyphs" textLength="280" x="161" y="360.942">
    FSPIOP-Destination: &lt;FSPIOP-Destination&gt;,
  </text>
  <text font-family="sans-serif" font-size="13" lengthAdjust="spacingAndGlyphs" textLength="268" x="161" y="376.075">
    FSPIOP-Encryption: &lt;FSPIOP-Encryption&gt;,
  </text>
  <text font-family="sans-serif" font-size="13" lengthAdjust="spacingAndGlyphs" textLength="258" x="161" y="391.207">
    FSPIOP-Signature: &lt;FSPIOP-Signature&gt;,
  </text>
  <text font-family="sans-serif" font-size="13" lengthAdjust="spacingAndGlyphs" textLength="176" x="161" y="406.34">
    FSPIOP-URI: &lt;FSPIOP-URI&gt;,
  </text>
  <text font-family="sans-serif" font-size="13" lengthAdjust="spacingAndGlyphs" textLength="300" x="161" y="421.473">
    FSPIOP-HTTP-Method: &lt;FSPIOP-HTTP-Method&gt;
  </text>
  <text font-family="sans-serif" font-size="13" lengthAdjust="spacingAndGlyphs" textLength="8" x="145" y="436.606">
    }
  </text>
  <text font-family="sans-serif" font-size="13" lengthAdjust="spacingAndGlyphs" textLength="155" x="145" y="451.739">
    Payload - errorMessage:
  </text>
  <text font-family="sans-serif" font-size="13" lengthAdjust="spacingAndGlyphs" textLength="8" x="145" y="466.872">
    {
  </text>
  <text font-family="sans-serif" font-size="13" lengthAdjust="spacingAndGlyphs" textLength="130" x="161" y="482.004">
    &quot;errorInformation&quot;: {
  </text>
  <text font-family="sans-serif" font-size="13" lengthAdjust="spacingAndGlyphs" textLength="144" x="177" y="497.137">
    &quot;errorCode&quot;: &lt;string&gt;,
  </text>
  <text font-family="sans-serif" font-size="13" lengthAdjust="spacingAndGlyphs" textLength="183" x="177" y="512.27">
    &quot;errorDescription&quot;: &lt;string&gt;,
  </text>
  <text font-family="sans-serif" font-size="13" lengthAdjust="spacingAndGlyphs" textLength="110" x="177" y="527.403">
    &quot;extensionList&quot;: {
  </text>
  <text font-family="sans-serif" font-size="13" lengthAdjust="spacingAndGlyphs" textLength="85" x="193" y="542.536">
    &quot;extension&quot;: [
  </text>
  <text font-family="sans-serif" font-size="13" lengthAdjust="spacingAndGlyphs" textLength="8" x="209" y="557.668">
    {
  </text>
  <text font-family="sans-serif" font-size="13" lengthAdjust="spacingAndGlyphs" textLength="102" x="225" y="572.801">
    &quot;key&quot;: &lt;string&gt;,
  </text>
  <text font-family="sans-serif" font-size="13" lengthAdjust="spacingAndGlyphs" textLength="110" x="225" y="587.934">
    &quot;value&quot;: &lt;string&gt;
  </text>
  <text font-family="sans-serif" font-size="13" lengthAdjust="spacingAndGlyphs" textLength="8" x="209" y="603.067">
    }
  </text>
  <text font-family="sans-serif" font-size="13" lengthAdjust="spacingAndGlyphs" textLength="5" x="193" y="618.2">
    ]
  </text>
  <text font-family="sans-serif" font-size="13" lengthAdjust="spacingAndGlyphs" textLength="8" x="177" y="633.332">
    }
  </text>
  <text font-family="sans-serif" font-size="13" lengthAdjust="spacingAndGlyphs" textLength="8" x="161" y="648.465">
    }
  </text>
  <text font-family="sans-serif" font-size="13" lengthAdjust="spacingAndGlyphs" textLength="8" x="145" y="663.598">
    }
  </text>
  <path stroke="#a80036" d="M437 701.797l-10-4M437 701.797l-10 4M134 701.797h304"/>
  <text font-family="sans-serif" font-size="13" font-weight="bold" lengthAdjust="spacingAndGlyphs" textLength="9" x="141" y="696.731">
    1
  </text>
  <text font-family="sans-serif" font-size="13" font-weight="bold" lengthAdjust="spacingAndGlyphs" textLength="232" x="154" y="696.731">
    PUT - /bulkTransfers/&lt;ID&gt;/error
  </text>
  <path fill="#A80036" stroke="#a80036" d="M3062.5 726.93l10 4-10 4 4-4z"/>
  <path stroke="#a80036" d="M449 730.93h2619.5"/>
  <text font-family="sans-serif" font-size="13" font-weight="bold" lengthAdjust="spacingAndGlyphs" textLength="9" x="456" y="725.864">
    2
  </text>
  <text font-family="sans-serif" font-size="13" lengthAdjust="spacingAndGlyphs" textLength="310" x="469" y="725.864">
    Persist request payload with messageId in cache
  </text>
  <path d="M454 743.93v85h196v-75l-10-10H454" fill="#FF0" filter="url(#a)" stroke="#a80036"/>
  <path d="M640 743.93v10h10l-10-10" fill="#FF0" stroke="#a80036"/>
  <text font-family="sans-serif" font-size="13" lengthAdjust="spacingAndGlyphs" textLength="73" x="460" y="760.997">
    Message: {
  </text>
  <text font-family="sans-serif" font-size="13" lengthAdjust="spacingAndGlyphs" textLength="140" x="476" y="776.129">
    messageId: &lt;string&gt;,
  </text>
  <text font-family="sans-serif" font-size="13" lengthAdjust="spacingAndGlyphs" textLength="159" x="476" y="791.262">
    bulkTransferId: &lt;string&gt;,
  </text>
  <text font-family="sans-serif" font-size="13" lengthAdjust="spacingAndGlyphs" textLength="119" x="476" y="806.395">
    payload: &lt;object&gt;
  </text>
  <text font-family="sans-serif" font-size="13" lengthAdjust="spacingAndGlyphs" textLength="8" x="460" y="821.528">
    }
  </text>
  <path fill="#FFFFE0" filter="url(#a)" stroke="#a80036" d="M3004 843.594h150l10 11-10 12h-150l-10-12 10-11z"/>
  <text font-family="sans-serif" font-size="13" lengthAdjust="spacingAndGlyphs" textLength="146" x="3006" y="859.661">
    individualTransferFulfils
  </text>
  <path fill="#A80036" stroke="#a80036" d="M460 888.86l-10 4 10 4-4-4z"/>
  <path stroke="#a80036" d="M454 892.859h2624.5"/>
  <text font-family="sans-serif" font-size="13" font-weight="bold" lengthAdjust="spacingAndGlyphs" textLength="9" x="466" y="887.793">
    3
  </text>
  <text font-family="sans-serif" font-size="13" lengthAdjust="spacingAndGlyphs" textLength="177" x="479" y="887.793">
    Response of save operation
  </text>
  <path d="M454 905.86v358h315v-348l-10-10H454" fill="#FF0" filter="url(#a)" stroke="#a80036"/>
  <path d="M759 905.86v10h10l-10-10" fill="#FF0" stroke="#a80036"/>
  <text font-family="sans-serif" font-size="13" lengthAdjust="spacingAndGlyphs" textLength="61" x="460" y="922.926">
    Message:
  </text>
  <text font-family="sans-serif" font-size="13" lengthAdjust="spacingAndGlyphs" textLength="8" x="460" y="938.059">
    {
  </text>
  <text font-family="sans-serif" font-size="13" lengthAdjust="spacingAndGlyphs" textLength="58" x="476" y="953.192">
    id: &lt;ID&gt;,
  </text>
  <text font-family="sans-serif" font-size="13" lengthAdjust="spacingAndGlyphs" textLength="267" x="476" y="968.325">
    from: &lt;transferHeaders.FSPIOP-Source&gt;,
  </text>
  <text font-family="sans-serif" font-size="13" lengthAdjust="spacingAndGlyphs" textLength="278" x="476" y="983.457">
    to: &lt;transferHeaders.FSPIOP-Destination&gt;,
  </text>
  <text font-family="sans-serif" font-size="13" lengthAdjust="spacingAndGlyphs" textLength="139" x="476" y="998.59">
    type: application/json,
  </text>
  <text font-family="sans-serif" font-size="13" lengthAdjust="spacingAndGlyphs" textLength="65" x="476" y="1013.723">
    content: {
  </text>
  <text font-family="sans-serif" font-size="13" lengthAdjust="spacingAndGlyphs" textLength="190" x="492" y="1028.856">
    headers: &lt;transferHeaders&gt;,
  </text>
  <text font-family="sans-serif" font-size="13" lengthAdjust="spacingAndGlyphs" textLength="187" x="492" y="1043.989">
    payload: &lt;transferMessage&gt;
  </text>
  <text font-family="sans-serif" font-size="13" lengthAdjust="spacingAndGlyphs" textLength="12" x="476" y="1059.122">
    },
  </text>
  <text font-family="sans-serif" font-size="13" lengthAdjust="spacingAndGlyphs" textLength="79" x="476" y="1074.254">
    metadata: {
  </text>
  <text font-family="sans-serif" font-size="13" lengthAdjust="spacingAndGlyphs" textLength="52" x="492" y="1089.387">
    event: {
  </text>
  <text font-family="sans-serif" font-size="13" lengthAdjust="spacingAndGlyphs" textLength="72" x="508" y="1104.52">
    id: &lt;uuid&gt;,
  </text>
  <text font-family="sans-serif" font-size="13" lengthAdjust="spacingAndGlyphs" textLength="65" x="508" y="1119.653">
    type: fulfil,
  </text>
  <text font-family="sans-serif" font-size="13" lengthAdjust="spacingAndGlyphs" textLength="87" x="508" y="1134.786">
    action: reject,
  </text>
  <text font-family="sans-serif" font-size="13" lengthAdjust="spacingAndGlyphs" textLength="167" x="508" y="1149.918">
    createdAt: &lt;timestamp&gt;,
  </text>
  <text font-family="sans-serif" font-size="13" lengthAdjust="spacingAndGlyphs" textLength="49" x="508" y="1165.051">
    state: {
  </text>
  <text font-family="sans-serif" font-size="13" lengthAdjust="spacingAndGlyphs" textLength="113" x="524" y="1180.184">
    status: &quot;success&quot;,
  </text>
  <text font-family="sans-serif" font-size="13" lengthAdjust="spacingAndGlyphs" textLength="47" x="524" y="1195.317">
    code: 0
  </text>
  <text font-family="sans-serif" font-size="13" lengthAdjust="spacingAndGlyphs" textLength="8" x="508" y="1210.45">
    }
  </text>
  <text font-family="sans-serif" font-size="13" lengthAdjust="spacingAndGlyphs" textLength="8" x="492" y="1225.582">
    }
  </text>
  <text font-family="sans-serif" font-size="13" lengthAdjust="spacingAndGlyphs" textLength="8" x="476" y="1240.715">
    }
  </text>
  <text font-family="sans-serif" font-size="13" lengthAdjust="spacingAndGlyphs" textLength="8" x="460" y="1255.848">
    }
  </text>
  <path fill="#A80036" stroke="#a80036" d="M961.5 1290.047l10 4-10 4 4-4z"/>
  <path stroke="#a80036" d="M449 1294.047h518.5"/>
  <text font-family="sans-serif" font-size="13" font-weight="bold" lengthAdjust="spacingAndGlyphs" textLength="9" x="456" y="1288.981">
    4
  </text>
  <text font-family="sans-serif" font-size="13" lengthAdjust="spacingAndGlyphs" textLength="175" x="469" y="1288.981">
    Produce bulk-fulfil message
  </text>
  <path stroke="#a80036" d="M134 1323.18l10-4M134 1323.18l10 4"/>
  <path stroke="#a80036" stroke-dasharray="2,2" d="M134 1323.18h304"/>
  <text font-family="sans-serif" font-size="13" font-weight="bold" lengthAdjust="spacingAndGlyphs" textLength="9" x="151" y="1318.114">
    5
  </text>
  <text font-family="sans-serif" font-size="13" lengthAdjust="spacingAndGlyphs" textLength="160" x="164" y="1318.114">
    Respond HTTP - 200 (OK)
  </text>
  <path fill="#A80036" stroke="#a80036" d="M984.5 1348.313l-10 4 10 4-4-4z"/>
  <path stroke="#a80036" d="M978.5 1352.313H1599"/>
  <text font-family="sans-serif" font-size="13" font-weight="bold" lengthAdjust="spacingAndGlyphs" textLength="9" x="990.5" y="1347.247">
    6
  </text>
  <text font-family="sans-serif" font-size="13" lengthAdjust="spacingAndGlyphs" textLength="184" x="1003.5" y="1347.247">
    Consume bulk-fulfil message
  </text>
  <path stroke="#a80036" d="M1610 1381.445h42M1652 1381.445v13M1611 1394.445h41"/>
  <path fill="#A80036" stroke="#a80036" d="M1621 1390.445l-10 4 10 4-4-4z"/>
  <text font-family="sans-serif" font-size="13" font-weight="bold" lengthAdjust="spacingAndGlyphs" textLength="9" x="1617" y="1376.379">
    7
  </text>
  <text font-family="sans-serif" font-size="13" lengthAdjust="spacingAndGlyphs" textLength="154" x="1630" y="1376.379">
    Perform duplicate check
  </text>
  <path stroke="#a80036" d="M1610 1423.578h42M1652 1423.578v13M1611 1436.578h41"/>
  <path fill="#A80036" stroke="#a80036" d="M1621 1432.578l-10 4 10 4-4-4z"/>
  <text font-family="sans-serif" font-size="13" font-weight="bold" lengthAdjust="spacingAndGlyphs" textLength="9" x="1617" y="1418.512">
    8
  </text>
  <text font-family="sans-serif" font-size="13" lengthAdjust="spacingAndGlyphs" textLength="105" x="1630" y="1418.512">
    Validate request
  </text>
  <path d="M1038.5 1451.578h77v7l-10 10h-67v-17" fill="#EEE" stroke="#000"/>
  <path fill="none" stroke="#000" stroke-width="2" d="M1038.5 1451.578H3311v328.992H1038.5z"/>
  <text font-family="sans-serif" font-size="13" font-weight="bold" lengthAdjust="spacingAndGlyphs" textLength="32" x="1053.5" y="1464.645">
    loop
  </text>
  <text font-family="sans-serif" font-size="11" font-weight="bold" lengthAdjust="spacingAndGlyphs" textLength="284" x="1130.5" y="1463.789">
    [n times, n = number of individual transfers]
  </text>
  <path d="M1615 1473.71v176h264v-166l-10-10h-254" fill="#FBFB77" filter="url(#a)" stroke="#a80036"/>
  <path d="M1869 1473.71v10h10l-10-10" fill="#FBFB77" stroke="#a80036"/>
  <text font-family="sans-serif" font-size="13" lengthAdjust="spacingAndGlyphs" textLength="73" x="1621" y="1490.778">
    Message: {
  </text>
  <text font-family="sans-serif" font-size="13" lengthAdjust="spacingAndGlyphs" textLength="131" x="1637" y="1505.911">
    transferId: &lt;string&gt;,
  </text>
  <text font-family="sans-serif" font-size="13" lengthAdjust="spacingAndGlyphs" textLength="166" x="1637" y="1521.043">
    bulkTransferId&lt; &lt;string&gt;,
  </text>
  <text font-family="sans-serif" font-size="13" lengthAdjust="spacingAndGlyphs" textLength="211" x="1637" y="1536.176">
    bulkTransferAssociationRecord: {
  </text>
  <text font-family="sans-serif" font-size="13" lengthAdjust="spacingAndGlyphs" textLength="131" x="1653" y="1551.309">
    transferId: &lt;string&gt;,
  </text>
  <text font-family="sans-serif" font-size="13" lengthAdjust="spacingAndGlyphs" textLength="159" x="1653" y="1566.442">
    bulkTransferId: &lt;string&gt;,
  </text>
  <text font-family="sans-serif" font-size="13" lengthAdjust="spacingAndGlyphs" textLength="211" x="1653" y="1581.575">
    bulkProcessingStateId: &lt;string&gt;,
  </text>
  <text font-family="sans-serif" font-size="13" lengthAdjust="spacingAndGlyphs" textLength="134" x="1653" y="1596.707">
    errorCode: &lt;string&gt;,
  </text>
  <text font-family="sans-serif" font-size="13" lengthAdjust="spacingAndGlyphs" textLength="169" x="1653" y="1611.84">
    errorDescription: &lt;string&gt;
  </text>
  <text font-family="sans-serif" font-size="13" lengthAdjust="spacingAndGlyphs" textLength="8" x="1637" y="1626.973">
    }
  </text>
  <text font-family="sans-serif" font-size="13" lengthAdjust="spacingAndGlyphs" textLength="8" x="1621" y="1642.106">
    }
  </text>
  <path fill="#A80036" stroke="#a80036" d="M3196.5 1676.305l10 4-10 4 4-4z"/>
  <path stroke="#a80036" d="M1610 1680.305h1592.5"/>
  <text font-family="sans-serif" font-size="13" font-weight="bold" lengthAdjust="spacingAndGlyphs" textLength="9" x="1617" y="1675.239">
    9
  </text>
  <text font-family="sans-serif" font-size="13" lengthAdjust="spacingAndGlyphs" textLength="238" x="1630" y="1675.239">
    Update bulkTransferAssociation table
  </text>
  <path fill="#FFFFE0" filter="url(#a)" stroke="#a80036" d="M3136 1723.305h155l10 11-10 12h-155l-10-12 10-11z"/>
  <text font-family="sans-serif" font-size="13" lengthAdjust="spacingAndGlyphs" textLength="151" x="3138" y="1739.372">
    bulkTransferAssociation
  </text>
  <path fill="#A80036" stroke="#a80036" d="M1107 1768.57l-10 4 10 4-4-4z"/>
  <path stroke="#a80036" d="M1101 1772.57h498"/>
  <text font-family="sans-serif" font-size="13" font-weight="bold" lengthAdjust="spacingAndGlyphs" textLength="18" x="1113" y="1767.504">
    10
  </text>
  <text font-family="sans-serif" font-size="13" lengthAdjust="spacingAndGlyphs" textLength="458" x="1135" y="1767.504">
    Produce fulfil message with action bulk-abort for each individual transfer
  </text>
  <path d="M1038.5 1819.57h77v7l-10 10h-67v-17" fill="#EEE" stroke="#000"/>
  <path fill="none" stroke="#000" stroke-width="2" d="M1038.5 1819.57H2178v135.797H1038.5z"/>
  <text font-family="sans-serif" font-size="13" font-weight="bold" lengthAdjust="spacingAndGlyphs" textLength="32" x="1053.5" y="1832.637">
    loop
  </text>
  <text font-family="sans-serif" font-size="11" font-weight="bold" lengthAdjust="spacingAndGlyphs" textLength="284" x="1130.5" y="1831.781">
    [n times, n = number of individual transfers]
  </text>
  <path fill="#A80036" stroke="#a80036" d="M1107 1853.836l-10 4 10 4-4-4z"/>
  <path stroke="#a80036" d="M1101 1857.836h694"/>
  <text font-family="sans-serif" font-size="13" font-weight="bold" lengthAdjust="spacingAndGlyphs" textLength="18" x="1113" y="1852.77">
    11
  </text>
  <text font-family="sans-serif" font-size="13" lengthAdjust="spacingAndGlyphs" textLength="124" x="1135" y="1852.77">
    Consume message
  </text>
  <path fill="#FFF" filter="url(#a)" stroke="#000" stroke-width="2" d="M1045.5 1865.836H2167v55.398H1045.5z"/>
  <path fill="#EEE" stroke="#000" stroke-width="2" d="M1045.5 1865.836h66v7l-10 10h-56v-17z"/>
  <text font-family="sans-serif" font-size="13" font-weight="bold" lengthAdjust="spacingAndGlyphs" textLength="21" x="1058.5" y="1879.903">
    ref
  </text>
  <text font-family="sans-serif" font-size="13" lengthAdjust="spacingAndGlyphs" textLength="226" x="1495.25" y="1898.903">
    Fulfil Handler Consume (bulk-abort)
  </text>
  <path fill="#A80036" stroke="#a80036" d="M1955 1943.367l10 4-10 4 4-4z"/>
  <path stroke="#a80036" d="M1806 1947.367h155"/>
  <text font-family="sans-serif" font-size="13" font-weight="bold" lengthAdjust="spacingAndGlyphs" textLength="18" x="1813" y="1942.301">
    12
  </text>
  <text font-family="sans-serif" font-size="13" lengthAdjust="spacingAndGlyphs" textLength="115" x="1835" y="1942.301">
    Produce message
  </text>
  <path d="M1870 1994.367h77v7l-10 10h-67v-17" fill="#EEE" stroke="#000"/>
  <path fill="none" stroke="#000" stroke-width="2" d="M1870 1994.367h975.5v135.797H1870z"/>
  <text font-family="sans-serif" font-size="13" font-weight="bold" lengthAdjust="spacingAndGlyphs" textLength="32" x="1885" y="2007.434">
    loop
  </text>
  <text font-family="sans-serif" font-size="11" font-weight="bold" lengthAdjust="spacingAndGlyphs" textLength="284" x="1962" y="2006.578">
    [n times, n = number of individual transfers]
  </text>
  <path fill="#A80036" stroke="#a80036" d="M1978 2028.633l-10 4 10 4-4-4z"/>
  <path stroke="#a80036" d="M1972 2032.633h280.5"/>
  <text font-family="sans-serif" font-size="13" font-weight="bold" lengthAdjust="spacingAndGlyphs" textLength="18" x="1984" y="2027.567">
    13
  </text>
  <text font-family="sans-serif" font-size="13" lengthAdjust="spacingAndGlyphs" textLength="124" x="2006" y="2027.567">
    Consume message
  </text>
  <path fill="#FFF" filter="url(#a)" stroke="#000" stroke-width="2" d="M1877 2040.633h957.5v55.398H1877z"/>
  <path fill="#EEE" stroke="#000" stroke-width="2" d="M1877 2040.633h66v7l-10 10h-56v-17z"/>
  <text font-family="sans-serif" font-size="13" font-weight="bold" lengthAdjust="spacingAndGlyphs" textLength="21" x="1890" y="2054.7">
    ref
  </text>
  <text font-family="sans-serif" font-size="13" lengthAdjust="spacingAndGlyphs" textLength="248" x="2233.75" y="2073.7">
    Position Handler Consume (bulk-abort)
  </text>
  <path fill="#A80036" stroke="#a80036" d="M2423 2118.164l10 4-10 4 4-4z"/>
  <path stroke="#a80036" d="M2263.5 2122.164H2429"/>
  <text font-family="sans-serif" font-size="13" font-weight="bold" lengthAdjust="spacingAndGlyphs" textLength="18" x="2270.5" y="2117.098">
    14
  </text>
  <text font-family="sans-serif" font-size="13" lengthAdjust="spacingAndGlyphs" textLength="115" x="2292.5" y="2117.098">
    Produce message
  </text>
  <path d="M2339 2169.164h77v7l-10 10h-67v-17" fill="#EEE" stroke="#000"/>
  <path fill="none" stroke="#000" stroke-width="2" d="M2339 2169.164h687.5v106.664H2339z"/>
  <text font-family="sans-serif" font-size="13" font-weight="bold" lengthAdjust="spacingAndGlyphs" textLength="32" x="2354" y="2182.231">
    loop
  </text>
  <text font-family="sans-serif" font-size="11" font-weight="bold" lengthAdjust="spacingAndGlyphs" textLength="284" x="2431" y="2181.374">
    [n times, n = number of individual transfers]
  </text>
  <path fill="#A80036" stroke="#a80036" d="M2446 2203.43l-10 4 10 4-4-4z"/>
  <path stroke="#a80036" d="M2440 2207.43h281"/>
  <text font-family="sans-serif" font-size="13" font-weight="bold" lengthAdjust="spacingAndGlyphs" textLength="18" x="2452" y="2202.364">
    15
  </text>
  <text font-family="sans-serif" font-size="13" lengthAdjust="spacingAndGlyphs" textLength="241" x="2474" y="2202.364">
    Consume individual transfer message
  </text>
  <path fill="#FFF" filter="url(#a)" stroke="#000" stroke-width="2" d="M2346 2215.43h669.5v55.398H2346z"/>
  <path fill="#EEE" stroke="#000" stroke-width="2" d="M2346 2215.43h66v7l-10 10h-56v-17z"/>
  <text font-family="sans-serif" font-size="13" font-weight="bold" lengthAdjust="spacingAndGlyphs" textLength="21" x="2359" y="2229.497">
    ref
  </text>
  <text font-family="sans-serif" font-size="13" lengthAdjust="spacingAndGlyphs" textLength="298" x="2533.75" y="2248.497">
    Bulk Processing Handler Consume (bulk-abort)
  </text>
  <path fill="#A80036" stroke="#a80036" d="M2934 2299.96l10 4-10 4 4-4z"/>
  <path stroke="#a80036" d="M2732 2303.961h208"/>
  <text font-family="sans-serif" font-size="13" font-weight="bold" lengthAdjust="spacingAndGlyphs" textLength="18" x="2739" y="2298.895">
    16
  </text>
  <text font-family="sans-serif" font-size="13" lengthAdjust="spacingAndGlyphs" textLength="165" x="2761" y="2298.895">
    Produce message (Payer)
  </text>
  <path fill="#A80036" stroke="#a80036" d="M2934 2329.094l10 4-10 4 4-4z"/>
  <path stroke="#a80036" d="M2732 2333.094h208"/>
  <text font-family="sans-serif" font-size="13" font-weight="bold" lengthAdjust="spacingAndGlyphs" textLength="18" x="2739" y="2328.028">
    17
  </text>
  <text font-family="sans-serif" font-size="13" lengthAdjust="spacingAndGlyphs" textLength="168" x="2761" y="2328.028">
    Produce message (Payee)
  </text>
  <path fill="#A80036" stroke="#a80036" d="M2934 2358.227l10 4-10 4 4-4z"/>
  <path stroke="#a80036" d="M639 2362.227h2301"/>
  <text font-family="sans-serif" font-size="13" font-weight="bold" lengthAdjust="spacingAndGlyphs" textLength="18" x="646" y="2357.161">
    18
  </text>
  <text font-family="sans-serif" font-size="13" lengthAdjust="spacingAndGlyphs" textLength="174" x="668" y="2357.161">
    Consume message (Payer)
  </text>
  <path fill="#A80036" stroke="#a80036" d="M2934 2387.36l10 4-10 4 4-4z"/>
  <path stroke="#a80036" d="M639 2391.359h2301"/>
  <text font-family="sans-serif" font-size="13" font-weight="bold" lengthAdjust="spacingAndGlyphs" textLength="18" x="646" y="2386.294">
    19
  </text>
  <text font-family="sans-serif" font-size="13" lengthAdjust="spacingAndGlyphs" textLength="177" x="668" y="2386.294">
    Consume message (Payee)
  </text>
  <path d="M36 2406.36h70v7l-10 10H36v-17" fill="#EEE" stroke="#000"/>
  <path fill="none" stroke="#000" stroke-width="2" d="M36 2406.359h2990.5v131.664H36z"/>
  <text font-family="sans-serif" font-size="13" font-weight="bold" lengthAdjust="spacingAndGlyphs" textLength="25" x="51" y="2419.426">
    opt
  </text>
  <text font-family="sans-serif" font-size="11" font-weight="bold" lengthAdjust="spacingAndGlyphs" textLength="148" x="121" y="2418.57">
    [action == &apos;bulk-abort&apos;]
  </text>
  <path fill="#FFF" filter="url(#a)" stroke="#000" stroke-width="2" d="M43 2448.492h2972.5v55.398H43z"/>
  <path fill="#EEE" stroke="#000" stroke-width="2" d="M43 2448.492h66v7l-10 10H43v-17z"/>
  <text font-family="sans-serif" font-size="13" font-weight="bold" lengthAdjust="spacingAndGlyphs" textLength="21" x="56" y="2462.559">
    ref
  </text>
  <text font-family="sans-serif" font-size="13" lengthAdjust="spacingAndGlyphs" textLength="176" x="1443.25" y="2481.559">
    Notification Handler (Payer)
  </text>
  <path fill="#A80036" stroke="#a80036" d="M83 2526.023l-10 4 10 4-4-4z"/>
  <path stroke="#a80036" d="M77 2530.023h551"/>
  <text font-family="sans-serif" font-size="13" font-weight="bold" lengthAdjust="spacingAndGlyphs" textLength="18" x="89" y="2524.957">
    20
  </text>
  <text font-family="sans-serif" font-size="13" lengthAdjust="spacingAndGlyphs" textLength="162" x="111" y="2524.957">
    Send callback notification
  </text>
  <path d="M98 2577.023h70v7l-10 10H98v-17" fill="#EEE" stroke="#000"/>
  <path fill="none" stroke="#000" stroke-width="2" d="M98 2577.023h2928.5v131.664H98z"/>
  <text font-family="sans-serif" font-size="13" font-weight="bold" lengthAdjust="spacingAndGlyphs" textLength="25" x="113" y="2590.09">
    opt
  </text>
  <text font-family="sans-serif" font-size="11" font-weight="bold" lengthAdjust="spacingAndGlyphs" textLength="148" x="183" y="2589.234">
    [action == &apos;bulk-abort&apos;]
  </text>
  <path fill="#FFF" filter="url(#a)" stroke="#000" stroke-width="2" d="M105 2619.156h2910.5v55.398H105z"/>
  <path fill="#EEE" stroke="#000" stroke-width="2" d="M105 2619.156h66v7l-10 10h-56v-17z"/>
  <text font-family="sans-serif" font-size="13" font-weight="bold" lengthAdjust="spacingAndGlyphs" textLength="21" x="118" y="2633.223">
    ref
  </text>
  <text font-family="sans-serif" font-size="13" lengthAdjust="spacingAndGlyphs" textLength="179" x="1472.75" y="2652.223">
    Notification Handler (Payee)
  </text>
  <path fill="#A80036" stroke="#a80036" d="M145 2696.688l-10 4 10 4-4-4z"/>
  <path stroke="#a80036" d="M139 2700.688h489"/>
  <text font-family="sans-serif" font-size="13" font-weight="bold" lengthAdjust="spacingAndGlyphs" textLength="18" x="151" y="2695.622">
    21
  </text>
  <text font-family="sans-serif" font-size="13" lengthAdjust="spacingAndGlyphs" textLength="162" x="173" y="2695.622">
    Send callback notification
  </text>
</svg>
