<svg xmlns="http://www.w3.org/2000/svg" xmlns:xlink="http://www.w3.org/1999/xlink" height="2091" preserveAspectRatio="none" style="width:2760px;height:2091px" width="2760">
  <defs>
    <filter height="300%" id="a" width="300%" x="-1" y="-1">
      <feGaussianBlur result="blurOut" stdDeviation="2"/>
      <feColorMatrix in="blurOut" result="blurOut2" values="0 0 0 0 0 0 0 0 0 0 0 0 0 0 0 0 0 0 .4 0"/>
      <feOffset dx="4" dy="4" in="blurOut2" result="blurOut3"/>
      <feBlend in="SourceGraphic" in2="blurOut3"/>
    </filter>
  </defs>
  <text font-family="sans-serif" font-size="18" lengthAdjust="spacingAndGlyphs" textLength="282" x="1236.75" y="28.708">
    7.1.2. Delete Participant Details
  </text>
  <path fill="#D3D3D3" stroke="#a80036" d="M1 40.953h196v2044.234H1z"/>
  <text font-family="sans-serif" font-size="13" font-weight="bold" lengthAdjust="spacingAndGlyphs" textLength="190" x="4" y="53.02">
    Financial Service Provider
  </text>
  <path fill="#FFFFE0" stroke="#a80036" d="M502 40.953h1599.5v2044.234H502z"/>
  <text font-family="sans-serif" font-size="13" font-weight="bold" lengthAdjust="spacingAndGlyphs" textLength="176" x="1213.75" y="53.02">
    Account Lookup Service
  </text>
  <path fill="#90EE90" stroke="#a80036" d="M2204.5 40.953h142v2044.234h-142z"/>
  <text font-family="sans-serif" font-size="13" font-weight="bold" lengthAdjust="spacingAndGlyphs" textLength="119" x="2216" y="53.02">
    Central Services
  </text>
  <path fill="#ADD8E6" stroke="#a80036" d="M2348.5 40.953h208v2044.234h-208z"/>
  <text font-family="sans-serif" font-size="13" font-weight="bold" lengthAdjust="spacingAndGlyphs" textLength="202" x="2351.5" y="53.02">
    ALS Oracle Service/Adapter
  </text>
  <path fill="#D3D3D3" stroke="#a80036" d="M2558.5 40.953h196v2044.234h-196z"/>
  <text font-family="sans-serif" font-size="13" font-weight="bold" lengthAdjust="spacingAndGlyphs" textLength="190" x="2561.5" y="53.02">
    Financial Service Provider
  </text>
  <path fill="#FFF" filter="url(#a)" stroke="#a80036" d="M560 244.047h10v1745.844h-10zM833 342.578h10v1639.313h-10zM1515 1103.898h10v117.664h-10zM1789.5 1290.828h10v117.664h-10zM1789.5 1598.227h10v132.797h-10zM1933.5 578.641h10v102.531h-10zM2270.5 622.906h10v29.133h-10zM2270.5 1350.227h10v29.133h-10zM2270.5 1672.758h10v29.133h-10zM2447.5 1163.297h10v29.133h-10z"/>
  <path fill="#FFF" filter="url(#a)" stroke="#000" stroke-width="2" d="M42 160.383h2495v1821.508H42z"/>
  <path fill="#FFF" filter="url(#a)" stroke="#000" stroke-width="2" d="M52 357.578h2475v1617.313H52z"/>
  <path fill="#FFF" filter="url(#a)" stroke="#000" stroke-width="2" d="M774.5 525.242h1578v278.461h-1578zM774.5 961.234H1438v74.398H774.5z"/>
  <path fill="#FFF" d="M52 1547.156h2475v322.531H52zM52 1869.688h2475v105.203H52z"/>
  <path stroke="#a80036" stroke-dasharray="5,5" d="M99 143.383v1855.508M565 143.383v1855.508M837.5 143.383v1855.508M1519.5 143.383v1855.508M1666.5 143.383v1855.508M1794.5 143.383v1855.508M1938.5 143.383v1855.508M2056.5 143.383v1855.508M2275.5 143.383v1855.508M2452 143.383v1855.508M2656.5 143.383v1855.508"/>
  <text font-family="sans-serif" font-size="14" lengthAdjust="spacingAndGlyphs" textLength="68" x="62" y="140.081">
    Payer FSP
  </text>
  <circle cx="99" cy="70.086" fill="#FEFECE" filter="url(#a)" stroke="#a80036" stroke-width="2" r="8"/>
  <path d="M99 78.086v27m-13-19h26m-13 19l-13 15m13-15l13 15" fill="none" filter="url(#a)" stroke="#a80036" stroke-width="2"/>
  <text font-family="sans-serif" font-size="14" lengthAdjust="spacingAndGlyphs" textLength="68" x="62" y="2010.886">
    Payer FSP
  </text>
  <circle cx="99" cy="2024.188" fill="#FEFECE" filter="url(#a)" stroke="#a80036" stroke-width="2" r="8"/>
  <path d="M99 2032.188v27m-13-19h26m-13 19l-13 15m13-15l13 15" fill="none" filter="url(#a)" stroke="#a80036" stroke-width="2"/>
  <text font-family="sans-serif" font-size="14" lengthAdjust="spacingAndGlyphs" textLength="112" x="506" y="123.784">
    Account Lookup
  </text>
  <text font-family="sans-serif" font-size="14" lengthAdjust="spacingAndGlyphs" textLength="89" x="517.5" y="140.081">
    Service (ALS)
  </text>
  <path d="M544.5 82.79v24m0-12h17" fill="none" filter="url(#a)" stroke="#a80036" stroke-width="2"/>
  <circle cx="573.5" cy="94.789" fill="#FEFECE" filter="url(#a)" stroke="#a80036" stroke-width="2" r="12"/>
  <text font-family="sans-serif" font-size="14" lengthAdjust="spacingAndGlyphs" textLength="112" x="506" y="2010.886">
    Account Lookup
  </text>
  <text font-family="sans-serif" font-size="14" lengthAdjust="spacingAndGlyphs" textLength="89" x="517.5" y="2027.183">
    Service (ALS)
  </text>
  <path d="M544.5 2034.484v24m0-12h17" fill="none" filter="url(#a)" stroke="#a80036" stroke-width="2"/>
  <circle cx="573.5" cy="2046.484" fill="#FEFECE" filter="url(#a)" stroke="#a80036" stroke-width="2" r="12"/>
  <text font-family="sans-serif" font-size="14" lengthAdjust="spacingAndGlyphs" textLength="101" x="784.5" y="123.784">
    ALS Participant
  </text>
  <text font-family="sans-serif" font-size="14" lengthAdjust="spacingAndGlyphs" textLength="53" x="808.5" y="140.081">
    Handler
  </text>
  <circle cx="838" cy="94.789" fill="#FEFECE" filter="url(#a)" stroke="#a80036" stroke-width="2" r="12"/>
  <path fill="#A80036" stroke="#a80036" d="M834 82.79l6-5-2 5 2 5-6-5z"/>
  <text font-family="sans-serif" font-size="14" lengthAdjust="spacingAndGlyphs" textLength="101" x="784.5" y="2010.886">
    ALS Participant
  </text>
  <text font-family="sans-serif" font-size="14" lengthAdjust="spacingAndGlyphs" textLength="53" x="808.5" y="2027.183">
    Handler
  </text>
  <circle cx="838" cy="2046.484" fill="#FEFECE" filter="url(#a)" stroke="#a80036" stroke-width="2" r="12"/>
  <path fill="#A80036" stroke="#a80036" d="M834 2034.484l6-5-2 5 2 5-6-5z"/>
  <text font-family="sans-serif" font-size="14" lengthAdjust="spacingAndGlyphs" textLength="167" x="1433.5" y="123.784">
    ALS Participant Endpoint
  </text>
  <text font-family="sans-serif" font-size="14" lengthAdjust="spacingAndGlyphs" textLength="79" x="1477.5" y="140.081">
    Oracle DAO
  </text>
  <circle cx="1520" cy="94.789" fill="#FEFECE" filter="url(#a)" stroke="#a80036" stroke-width="2" r="12"/>
  <path stroke="#a80036" stroke-width="2" d="M1508 108.789h24"/>
  <text font-family="sans-serif" font-size="14" lengthAdjust="spacingAndGlyphs" textLength="167" x="1433.5" y="2010.886">
    ALS Participant Endpoint
  </text>
  <text font-family="sans-serif" font-size="14" lengthAdjust="spacingAndGlyphs" textLength="79" x="1477.5" y="2027.183">
    Oracle DAO
  </text>
  <circle cx="1520" cy="2046.484" fill="#FEFECE" filter="url(#a)" stroke="#a80036" stroke-width="2" r="12"/>
  <path stroke="#a80036" stroke-width="2" d="M1508 2060.484h24"/>
  <text font-family="sans-serif" font-size="14" lengthAdjust="spacingAndGlyphs" textLength="95" x="1616.5" y="140.081">
    ALS Database
  </text>
  <path d="M1649 91.086c0-10 18-10 18-10s18 0 18 10v26c0 10-18 10-18 10s-18 0-18-10v-26" fill="#FEFECE" filter="url(#a)" stroke="#000" stroke-width="1.5"/>
  <path d="M1649 91.086c0 10 18 10 18 10s18 0 18-10" fill="none" stroke="#000" stroke-width="1.5"/>
  <text font-family="sans-serif" font-size="14" lengthAdjust="spacingAndGlyphs" textLength="95" x="1616.5" y="2010.886">
    ALS Database
  </text>
  <path d="M1649 2024.188c0-10 18-10 18-10s18 0 18 10v26c0 10-18 10-18 10s-18 0-18-10v-26" fill="#FEFECE" filter="url(#a)" stroke="#000" stroke-width="1.5"/>
  <path d="M1649 2024.188c0 10 18 10 18 10s18 0 18-10" fill="none" stroke="#000" stroke-width="1.5"/>
  <text font-family="sans-serif" font-size="14" lengthAdjust="spacingAndGlyphs" textLength="128" x="1727.5" y="123.784">
    ALS CentralService
  </text>
  <text font-family="sans-serif" font-size="14" lengthAdjust="spacingAndGlyphs" textLength="97" x="1743" y="140.081">
    Endpoint DAO
  </text>
  <circle cx="1794.5" cy="94.789" fill="#FEFECE" filter="url(#a)" stroke="#a80036" stroke-width="2" r="12"/>
  <path stroke="#a80036" stroke-width="2" d="M1782.5 108.789h24"/>
  <text font-family="sans-serif" font-size="14" lengthAdjust="spacingAndGlyphs" textLength="128" x="1727.5" y="2010.886">
    ALS CentralService
  </text>
  <text font-family="sans-serif" font-size="14" lengthAdjust="spacingAndGlyphs" textLength="97" x="1743" y="2027.183">
    Endpoint DAO
  </text>
  <circle cx="1794.5" cy="2046.484" fill="#FEFECE" filter="url(#a)" stroke="#a80036" stroke-width="2" r="12"/>
  <path stroke="#a80036" stroke-width="2" d="M1782.5 2060.484h24"/>
  <text font-family="sans-serif" font-size="14" lengthAdjust="spacingAndGlyphs" textLength="128" x="1871.5" y="123.784">
    ALS CentralService
  </text>
  <text font-family="sans-serif" font-size="14" lengthAdjust="spacingAndGlyphs" textLength="107" x="1882" y="140.081">
    Participant DAO
  </text>
  <circle cx="1938.5" cy="94.789" fill="#FEFECE" filter="url(#a)" stroke="#a80036" stroke-width="2" r="12"/>
  <path stroke="#a80036" stroke-width="2" d="M1926.5 108.789h24"/>
  <text font-family="sans-serif" font-size="14" lengthAdjust="spacingAndGlyphs" textLength="128" x="1871.5" y="2010.886">
    ALS CentralService
  </text>
  <text font-family="sans-serif" font-size="14" lengthAdjust="spacingAndGlyphs" textLength="107" x="1882" y="2027.183">
    Participant DAO
  </text>
  <circle cx="1938.5" cy="2046.484" fill="#FEFECE" filter="url(#a)" stroke="#a80036" stroke-width="2" r="12"/>
  <path stroke="#a80036" stroke-width="2" d="M1926.5 2060.484h24"/>
  <text font-family="sans-serif" font-size="14" lengthAdjust="spacingAndGlyphs" textLength="76" x="2015.5" y="123.784">
    ALS Parties
  </text>
  <text font-family="sans-serif" font-size="14" lengthAdjust="spacingAndGlyphs" textLength="61" x="2023" y="140.081">
    FSP DAO
  </text>
  <circle cx="2056.5" cy="94.789" fill="#FEFECE" filter="url(#a)" stroke="#a80036" stroke-width="2" r="12"/>
  <path stroke="#a80036" stroke-width="2" d="M2044.5 108.789h24"/>
  <text font-family="sans-serif" font-size="14" lengthAdjust="spacingAndGlyphs" textLength="76" x="2015.5" y="2010.886">
    ALS Parties
  </text>
  <text font-family="sans-serif" font-size="14" lengthAdjust="spacingAndGlyphs" textLength="61" x="2023" y="2027.183">
    FSP DAO
  </text>
  <circle cx="2056.5" cy="2046.484" fill="#FEFECE" filter="url(#a)" stroke="#a80036" stroke-width="2" r="12"/>
  <path stroke="#a80036" stroke-width="2" d="M2044.5 2060.484h24"/>
  <text font-family="sans-serif" font-size="14" lengthAdjust="spacingAndGlyphs" textLength="128" x="2208.5" y="140.081">
    Central Service API
  </text>
  <path d="M2255 99.086v24m0-12h17" fill="none" filter="url(#a)" stroke="#a80036" stroke-width="2"/>
  <circle cx="2284" cy="111.086" fill="#FEFECE" filter="url(#a)" stroke="#a80036" stroke-width="2" r="12"/>
  <text font-family="sans-serif" font-size="14" lengthAdjust="spacingAndGlyphs" textLength="128" x="2208.5" y="2010.886">
    Central Service API
  </text>
  <path d="M2255 2018.188v24m0-12h17" fill="none" filter="url(#a)" stroke="#a80036" stroke-width="2"/>
  <circle cx="2284" cy="2030.188" fill="#FEFECE" filter="url(#a)" stroke="#a80036" stroke-width="2" r="12"/>
  <text font-family="sans-serif" font-size="14" lengthAdjust="spacingAndGlyphs" textLength="123" x="2388" y="140.081">
    Oracle Service API
  </text>
  <path d="M2432 99.086v24m0-12h17" fill="none" filter="url(#a)" stroke="#a80036" stroke-width="2"/>
  <circle cx="2461" cy="111.086" fill="#FEFECE" filter="url(#a)" stroke="#a80036" stroke-width="2" r="12"/>
  <text font-family="sans-serif" font-size="14" lengthAdjust="spacingAndGlyphs" textLength="123" x="2388" y="2010.886">
    Oracle Service API
  </text>
  <path d="M2432 2018.188v24m0-12h17" fill="none" filter="url(#a)" stroke="#a80036" stroke-width="2"/>
  <circle cx="2461" cy="2030.188" fill="#FEFECE" filter="url(#a)" stroke="#a80036" stroke-width="2" r="12"/>
  <text font-family="sans-serif" font-size="14" lengthAdjust="spacingAndGlyphs" textLength="72" x="2617.5" y="140.081">
    Payee FSP
  </text>
  <circle cx="2656.5" cy="70.086" fill="#FEFECE" filter="url(#a)" stroke="#a80036" stroke-width="2" r="8"/>
  <path d="M2656.5 78.086v27m-13-19h26m-13 19l-13 15m13-15l13 15" fill="none" filter="url(#a)" stroke="#a80036" stroke-width="2"/>
  <text font-family="sans-serif" font-size="14" lengthAdjust="spacingAndGlyphs" textLength="72" x="2617.5" y="2010.886">
    Payee FSP
  </text>
  <circle cx="2656.5" cy="2024.188" fill="#FEFECE" filter="url(#a)" stroke="#a80036" stroke-width="2" r="8"/>
  <path d="M2656.5 2032.188v27m-13-19h26m-13 19l-13 15m13-15l13 15" fill="none" filter="url(#a)" stroke="#a80036" stroke-width="2"/>
  <path fill="#FFF" filter="url(#a)" stroke="#a80036" d="M560 244.047h10v1745.844h-10zM833 342.578h10v1639.313h-10zM1515 1103.898h10v117.664h-10zM1789.5 1290.828h10v117.664h-10zM1789.5 1598.227h10v132.797h-10zM1933.5 578.641h10v102.531h-10zM2270.5 622.906h10v29.133h-10zM2270.5 1350.227h10v29.133h-10zM2270.5 1672.758h10v29.133h-10zM2447.5 1163.297h10v29.133h-10z"/>
  <path d="M42 160.383h171v7l-10 10H42v-17" fill="#EEE" stroke="#000"/>
  <path fill="none" stroke="#000" stroke-width="2" d="M42 160.383h2495v1821.508H42z"/>
  <text font-family="sans-serif" font-size="13" font-weight="bold" lengthAdjust="spacingAndGlyphs" textLength="126" x="57" y="173.45">
    Get Party Details
  </text>
  <path stroke="#a80036" d="M558 244.047l-10-4M558 244.047l-10 4M99 244.047h460"/>
  <text font-family="sans-serif" font-size="13" font-weight="bold" lengthAdjust="spacingAndGlyphs" textLength="9" x="106" y="216.282">
    1
  </text>
  <text font-family="sans-serif" font-size="13" lengthAdjust="spacingAndGlyphs" textLength="231" x="119" y="193.583">
    Request to delete Participant details
  </text>
  <text font-family="sans-serif" font-size="13" lengthAdjust="spacingAndGlyphs" textLength="358" x="119" y="208.715">
    DEL - /participants/{TYPE}/{ID}?currency={CURRENCY}
  </text>
  <text fill="#388724" font-family="sans-serif" font-size="13" font-weight="bold" lengthAdjust="spacingAndGlyphs" textLength="118" x="119" y="223.848">
    Response code:
  </text>
  <text fill="#388724" font-family="sans-serif" font-size="13" lengthAdjust="spacingAndGlyphs" textLength="24" x="241" y="223.848">
    202
  </text>
  <text fill="red" font-family="sans-serif" font-size="13" font-weight="bold" lengthAdjust="spacingAndGlyphs" textLength="82" x="119" y="238.981">
    Error code:
  </text>
  <text fill="red" font-family="sans-serif" font-size="13" lengthAdjust="spacingAndGlyphs" textLength="148" x="205" y="238.981">
    200x, 300x, 310x, 320x
  </text>
  <path d="M324 257.047v55h227v-45l-10-10H324" fill="#D3D3D3" filter="url(#a)" stroke="#a80036"/>
  <path d="M541 257.047v10h10l-10-10" fill="#D3D3D3" stroke="#a80036"/>
  <text font-family="sans-serif" font-size="13" lengthAdjust="spacingAndGlyphs" textLength="156" x="330" y="274.114">
    Validate request against
  </text>
  <text font-family="sans-serif" font-size="13" lengthAdjust="spacingAndGlyphs" textLength="206" x="330" y="289.247">
    Mojaloop Interface Specification.
  </text>
  <text fill="red" font-family="sans-serif" font-size="13" font-weight="bold" lengthAdjust="spacingAndGlyphs" textLength="82" x="330" y="304.379">
    Error code:
  </text>
  <text fill="red" font-family="sans-serif" font-size="13" lengthAdjust="spacingAndGlyphs" textLength="70" x="416" y="304.379">
    300x, 310x
  </text>
  <path fill="#A80036" stroke="#a80036" d="M821 338.578l10 4-10 4 4-4z"/>
  <path stroke="#a80036" d="M570 342.578h257"/>
  <text font-family="sans-serif" font-size="13" font-weight="bold" lengthAdjust="spacingAndGlyphs" textLength="9" x="577" y="337.512">
    2
  </text>
  <text font-family="sans-serif" font-size="13" lengthAdjust="spacingAndGlyphs" textLength="231" x="590" y="337.512">
    Request to delete Participant details
  </text>
  <path d="M52 357.578h64v7l-10 10H52v-17" fill="#EEE" stroke="#000"/>
  <path fill="none" stroke="#000" stroke-width="2" d="M52 357.578h2475v1617.313H52z"/>
  <text font-family="sans-serif" font-size="13" font-weight="bold" lengthAdjust="spacingAndGlyphs" textLength="19" x="67" y="370.645">
    alt
  </text>
  <text font-family="sans-serif" font-size="11" font-weight="bold" lengthAdjust="spacingAndGlyphs" textLength="394" x="131" y="369.789">
    [oracleEndpoint match found &amp; parties information retrieved]
  </text>
  <path fill="#A80036" stroke="#a80036" d="M854 406.977l-10 4 10 4-4-4zM1655 406.977l10 4-10 4 4-4z"/>
  <path stroke="#a80036" d="M848 410.977h813"/>
  <text font-family="sans-serif" font-size="13" font-weight="bold" lengthAdjust="spacingAndGlyphs" textLength="9" x="860" y="398.344">
    3
  </text>
  <text font-family="sans-serif" font-size="13" lengthAdjust="spacingAndGlyphs" textLength="164" x="873" y="390.778">
    Get Oracle Routing Config
  </text>
  <text fill="red" font-family="sans-serif" font-size="13" font-weight="bold" lengthAdjust="spacingAndGlyphs" textLength="82" x="873" y="405.911">
    Error code:
  </text>
  <text fill="red" font-family="sans-serif" font-size="13" lengthAdjust="spacingAndGlyphs" textLength="109" x="959" y="405.911">
    200x, 310x, 320x
  </text>
  <path fill="#FFF" filter="url(#a)" stroke="#000" stroke-width="2" d="M781.5 418.977h935v44.266h-935z"/>
  <path fill="#EEE" stroke="#000" stroke-width="2" d="M781.5 418.977h66v7l-10 10h-56v-17z"/>
  <text font-family="sans-serif" font-size="13" font-weight="bold" lengthAdjust="spacingAndGlyphs" textLength="21" x="794.5" y="433.043">
    ref
  </text>
  <text font-family="sans-serif" font-size="13" lengthAdjust="spacingAndGlyphs" textLength="113" x="1076.5" y="452.043">
    GET Participants -
  </text>
  <a target="_top" xlink:actuate="onRequest" xlink:href="https://docs.mojaloop.live/mojaloop-technical-overview/account-lookup-service/als-get-participants.html" xlink:show="new" xlink:title="https://docs.mojaloop.live/mojaloop-technical-overview/account-lookup-service/als-get-participants.html" xlink:type="simple">
    <text fill="#00F" font-family="sans-serif" font-size="13" lengthAdjust="spacingAndGlyphs" text-decoration="underline" textLength="232" x="1193.5" y="452.043">
      Get Oracle Routing Config Sequence
    </text>
  </a>
  <path stroke="#000" d="M1076.5 457.109h0M1076.5 457.109h0M1076.5 457.109h0"/>
  <path d="M774.5 525.242h305v7l-10 10h-295v-17" fill="#EEE" stroke="#000"/>
  <path fill="none" stroke="#000" stroke-width="2" d="M774.5 525.242h1578v278.461h-1578z"/>
  <text font-family="sans-serif" font-size="13" font-weight="bold" lengthAdjust="spacingAndGlyphs" textLength="260" x="789.5" y="538.309">
    Validate FSPIOP-Source Participant
  </text>
  <path fill="#A80036" stroke="#a80036" d="M1921.5 574.64l10 4-10 4 4-4z"/>
  <path stroke="#a80036" d="M843 578.641h1084.5"/>
  <text font-family="sans-serif" font-size="13" font-weight="bold" lengthAdjust="spacingAndGlyphs" textLength="9" x="850" y="566.008">
    4
  </text>
  <text font-family="sans-serif" font-size="13" lengthAdjust="spacingAndGlyphs" textLength="300" x="863" y="558.442">
    Request FSPIOP-Source participant information
  </text>
  <text fill="red" font-family="sans-serif" font-size="13" font-weight="bold" lengthAdjust="spacingAndGlyphs" textLength="82" x="863" y="573.575">
    Error code:
  </text>
  <text fill="red" font-family="sans-serif" font-size="13" lengthAdjust="spacingAndGlyphs" textLength="31" x="949" y="573.575">
    200x
  </text>
  <path fill="#A80036" stroke="#a80036" d="M2258.5 618.906l10 4-10 4 4-4z"/>
  <path stroke="#a80036" d="M1943.5 622.906h321"/>
  <text font-family="sans-serif" font-size="13" font-weight="bold" lengthAdjust="spacingAndGlyphs" textLength="9" x="1950.5" y="610.274">
    5
  </text>
  <text font-family="sans-serif" font-size="13" lengthAdjust="spacingAndGlyphs" textLength="232" x="1963.5" y="602.707">
    GET - /participants/{FSPIOP-Source}
  </text>
  <text fill="red" font-family="sans-serif" font-size="13" font-weight="bold" lengthAdjust="spacingAndGlyphs" textLength="82" x="1963.5" y="617.84">
    Error code:
  </text>
  <text fill="red" font-family="sans-serif" font-size="13" lengthAdjust="spacingAndGlyphs" textLength="109" x="2049.5" y="617.84">
    200x, 310x, 320x
  </text>
  <path fill="#A80036" stroke="#a80036" d="M1954.5 648.04l-10 4 10 4-4-4z"/>
  <path stroke="#a80036" stroke-dasharray="2,2" d="M1948.5 652.039h326"/>
  <text font-family="sans-serif" font-size="13" font-weight="bold" lengthAdjust="spacingAndGlyphs" textLength="9" x="1960.5" y="646.973">
    6
  </text>
  <text font-family="sans-serif" font-size="13" lengthAdjust="spacingAndGlyphs" textLength="290" x="1973.5" y="646.973">
    Return FSPIOP-Source participant information
  </text>
  <path fill="#A80036" stroke="#a80036" d="M854 677.172l-10 4 10 4-4-4z"/>
  <path stroke="#a80036" stroke-dasharray="2,2" d="M848 681.172h1089.5"/>
  <text font-family="sans-serif" font-size="13" font-weight="bold" lengthAdjust="spacingAndGlyphs" textLength="9" x="860" y="676.106">
    7
  </text>
  <text font-family="sans-serif" font-size="13" lengthAdjust="spacingAndGlyphs" textLength="290" x="873" y="676.106">
    Return FSPIOP-Source participant information
  </text>
  <path stroke="#a80036" d="M843 725.438h42M885 725.438v13M844 738.438h41"/>
  <path fill="#A80036" stroke="#a80036" d="M854 734.438l-10 4 10 4-4-4z"/>
  <text font-family="sans-serif" font-size="13" font-weight="bold" lengthAdjust="spacingAndGlyphs" textLength="9" x="850" y="712.805">
    8
  </text>
  <text font-family="sans-serif" font-size="13" lengthAdjust="spacingAndGlyphs" textLength="223" x="863" y="705.239">
    Validate FSPIOP-Source participant
  </text>
  <text fill="red" font-family="sans-serif" font-size="13" font-weight="bold" lengthAdjust="spacingAndGlyphs" textLength="82" x="863" y="720.372">
    Error code:
  </text>
  <text fill="red" font-family="sans-serif" font-size="13" lengthAdjust="spacingAndGlyphs" textLength="31" x="949" y="720.372">
    320x
  </text>
  <path stroke="#a80036" d="M843 782.703h42M885 782.703v13M844 795.703h41"/>
  <path fill="#A80036" stroke="#a80036" d="M854 791.703l-10 4 10 4-4-4z"/>
  <text font-family="sans-serif" font-size="13" font-weight="bold" lengthAdjust="spacingAndGlyphs" textLength="9" x="850" y="770.071">
    9
  </text>
  <text font-family="sans-serif" font-size="13" lengthAdjust="spacingAndGlyphs" textLength="326" x="863" y="762.504">
    Validate that PARTICIPANT.fspId == FSPIOP-Source
  </text>
  <text fill="red" font-family="sans-serif" font-size="13" font-weight="bold" lengthAdjust="spacingAndGlyphs" textLength="82" x="863" y="777.637">
    Error code:
  </text>
  <text fill="red" font-family="sans-serif" font-size="13" lengthAdjust="spacingAndGlyphs" textLength="32" x="949" y="777.637">
    3100
  </text>
  <path fill="#A80036" stroke="#a80036" d="M854 867.969l-10 4 10 4-4-4zM2440.5 867.969l10 4-10 4 4-4z"/>
  <path stroke="#a80036" d="M848 871.969h1598.5"/>
  <text font-family="sans-serif" font-size="13" font-weight="bold" lengthAdjust="spacingAndGlyphs" textLength="18" x="860" y="859.336">
    10
  </text>
  <text font-family="sans-serif" font-size="13" lengthAdjust="spacingAndGlyphs" textLength="257" x="882" y="851.77">
    Get Participant Information for PayerFSP
  </text>
  <text fill="red" font-family="sans-serif" font-size="13" font-weight="bold" lengthAdjust="spacingAndGlyphs" textLength="82" x="882" y="866.903">
    Error code:
  </text>
  <text fill="red" font-family="sans-serif" font-size="13" lengthAdjust="spacingAndGlyphs" textLength="109" x="968" y="866.903">
    200x, 310x, 320x
  </text>
  <path fill="#FFF" filter="url(#a)" stroke="#000" stroke-width="2" d="M781.5 879.969H2516v44.266H781.5z"/>
  <path fill="#EEE" stroke="#000" stroke-width="2" d="M781.5 879.969h66v7l-10 10h-56v-17z"/>
  <text font-family="sans-serif" font-size="13" font-weight="bold" lengthAdjust="spacingAndGlyphs" textLength="21" x="794.5" y="894.036">
    ref
  </text>
  <text font-family="sans-serif" font-size="13" lengthAdjust="spacingAndGlyphs" textLength="113" x="1418.25" y="913.036">
    GET Participants -
  </text>
  <a target="_top" xlink:actuate="onRequest" xlink:href="https://docs.mojaloop.live/mojaloop-technical-overview/account-lookup-service/als-get-participants.html" xlink:show="new" xlink:title="https://docs.mojaloop.live/mojaloop-technical-overview/account-lookup-service/als-get-participants.html" xlink:type="simple">
    <text fill="#00F" font-family="sans-serif" font-size="13" lengthAdjust="spacingAndGlyphs" text-decoration="underline" textLength="348" x="1535.25" y="913.036">
      Request Participant Information from Oracle Sequence
    </text>
  </a>
  <path stroke="#000" d="M1418.25 918.102h0M1418.25 918.102h0M1418.25 918.102h0"/>
  <path d="M774.5 961.234h275v7l-10 10h-265v-17" fill="#EEE" stroke="#000"/>
  <path fill="none" stroke="#000" stroke-width="2" d="M774.5 961.234H1438v74.398H774.5z"/>
  <text font-family="sans-serif" font-size="13" font-weight="bold" lengthAdjust="spacingAndGlyphs" textLength="230" x="789.5" y="974.301">
    Validate Participant Ownership
  </text>
  <path stroke="#a80036" d="M843 1014.633h42M885 1014.633v13M844 1027.633h41"/>
  <path fill="#A80036" stroke="#a80036" d="M854 1023.633l-10 4 10 4-4-4z"/>
  <text font-family="sans-serif" font-size="13" font-weight="bold" lengthAdjust="spacingAndGlyphs" textLength="18" x="850" y="1002">
    11
  </text>
  <text font-family="sans-serif" font-size="13" lengthAdjust="spacingAndGlyphs" textLength="554" x="872" y="994.434">
    Validate that PARTICIPANT.fspId matches Participant Information retrieved from Oracle.
  </text>
  <text fill="red" font-family="sans-serif" font-size="13" font-weight="bold" lengthAdjust="spacingAndGlyphs" textLength="82" x="872" y="1009.567">
    Error code:
  </text>
  <text fill="red" font-family="sans-serif" font-size="13" lengthAdjust="spacingAndGlyphs" textLength="32" x="958" y="1009.567">
    3100
  </text>
  <path fill="#A80036" stroke="#a80036" d="M1503 1099.898l10 4-10 4 4-4z"/>
  <path stroke="#a80036" d="M843 1103.898h666"/>
  <text font-family="sans-serif" font-size="13" font-weight="bold" lengthAdjust="spacingAndGlyphs" textLength="18" x="850" y="1091.266">
    12
  </text>
  <text font-family="sans-serif" font-size="13" lengthAdjust="spacingAndGlyphs" textLength="631" x="872" y="1083.7">
    Request to delete Participant&apos;s FSP details DEL - /participants/{TYPE}/{ID}?currency={CURRENCY}
  </text>
  <text fill="red" font-family="sans-serif" font-size="13" font-weight="bold" lengthAdjust="spacingAndGlyphs" textLength="82" x="872" y="1098.832">
    Error code:
  </text>
  <text fill="red" font-family="sans-serif" font-size="13" lengthAdjust="spacingAndGlyphs" textLength="109" x="958" y="1098.832">
    200x, 310x, 320x
  </text>
  <path fill="#A80036" stroke="#a80036" d="M2435.5 1159.297l10 4-10 4 4-4z"/>
  <path stroke="#a80036" d="M1525 1163.297h916.5"/>
  <text font-family="sans-serif" font-size="13" font-weight="bold" lengthAdjust="spacingAndGlyphs" textLength="18" x="1532" y="1143.098">
    13
  </text>
  <text font-family="sans-serif" font-size="13" lengthAdjust="spacingAndGlyphs" textLength="631" x="1554" y="1127.965">
    Request to delete Participant&apos;s FSP details DEL - /participants/{TYPE}/{ID}?currency={CURRENCY}
  </text>
  <text fill="#388724" font-family="sans-serif" font-size="13" font-weight="bold" lengthAdjust="spacingAndGlyphs" textLength="118" x="1554" y="1143.098">
    Response code:
  </text>
  <text fill="#388724" font-family="sans-serif" font-size="13" lengthAdjust="spacingAndGlyphs" textLength="24" x="1676" y="1143.098">
    200
  </text>
  <text fill="red" font-family="sans-serif" font-size="13" font-weight="bold" lengthAdjust="spacingAndGlyphs" textLength="82" x="1554" y="1158.231">
    Error code:
  </text>
  <text fill="red" font-family="sans-serif" font-size="13" lengthAdjust="spacingAndGlyphs" textLength="109" x="1640" y="1158.231">
    200x, 310x, 320x
  </text>
  <path fill="#A80036" stroke="#a80036" d="M1536 1188.43l-10 4 10 4-4-4z"/>
  <path stroke="#a80036" stroke-dasharray="2,2" d="M1530 1192.43h921.5"/>
  <text font-family="sans-serif" font-size="13" font-weight="bold" lengthAdjust="spacingAndGlyphs" textLength="18" x="1542" y="1187.364">
    14
  </text>
  <text font-family="sans-serif" font-size="13" lengthAdjust="spacingAndGlyphs" textLength="82" x="1564" y="1187.364">
    Return result
  </text>
  <path fill="#A80036" stroke="#a80036" d="M854 1217.563l-10 4 10 4-4-4z"/>
  <path stroke="#a80036" stroke-dasharray="2,2" d="M848 1221.563h671"/>
  <text font-family="sans-serif" font-size="13" font-weight="bold" lengthAdjust="spacingAndGlyphs" textLength="18" x="860" y="1216.497">
    15
  </text>
  <text font-family="sans-serif" font-size="13" lengthAdjust="spacingAndGlyphs" textLength="82" x="882" y="1216.497">
    Return result
  </text>
  <path fill="#A80036" stroke="#a80036" d="M1777.5 1286.828l10 4-10 4 4-4z"/>
  <path stroke="#a80036" d="M843 1290.828h940.5"/>
  <text font-family="sans-serif" font-size="13" font-weight="bold" lengthAdjust="spacingAndGlyphs" textLength="18" x="850" y="1278.196">
    16
  </text>
  <text font-family="sans-serif" font-size="13" lengthAdjust="spacingAndGlyphs" textLength="330" x="872" y="1270.629">
    Retrieve the PayerFSP Participant Callback Endpoint
  </text>
  <text fill="red" font-family="sans-serif" font-size="13" font-weight="bold" lengthAdjust="spacingAndGlyphs" textLength="82" x="872" y="1285.762">
    Error code:
  </text>
  <text fill="red" font-family="sans-serif" font-size="13" lengthAdjust="spacingAndGlyphs" textLength="31" x="958" y="1285.762">
    200x
  </text>
  <path fill="#A80036" stroke="#a80036" d="M2258.5 1346.227l10 4-10 4 4-4z"/>
  <path stroke="#a80036" d="M1799.5 1350.227h465"/>
  <text font-family="sans-serif" font-size="13" font-weight="bold" lengthAdjust="spacingAndGlyphs" textLength="18" x="1806.5" y="1330.028">
    17
  </text>
  <text font-family="sans-serif" font-size="13" lengthAdjust="spacingAndGlyphs" textLength="330" x="1828.5" y="1314.895">
    Retrieve the PayerFSP Participant Callback Endpoint
  </text>
  <text font-family="sans-serif" font-size="13" lengthAdjust="spacingAndGlyphs" textLength="299" x="1828.5" y="1330.028">
    GET - /participants/{FSPIOP-Source}/endpoints
  </text>
  <text fill="red" font-family="sans-serif" font-size="13" font-weight="bold" lengthAdjust="spacingAndGlyphs" textLength="82" x="1828.5" y="1345.161">
    Error code:
  </text>
  <text fill="red" font-family="sans-serif" font-size="13" lengthAdjust="spacingAndGlyphs" textLength="109" x="1914.5" y="1345.161">
    200x, 310x, 320x
  </text>
  <path fill="#A80036" stroke="#a80036" d="M1810.5 1375.36l-10 4 10 4-4-4z"/>
  <path stroke="#a80036" stroke-dasharray="2,2" d="M1804.5 1379.359h470"/>
  <text font-family="sans-serif" font-size="13" font-weight="bold" lengthAdjust="spacingAndGlyphs" textLength="18" x="1816.5" y="1374.293">
    18
  </text>
  <text font-family="sans-serif" font-size="13" lengthAdjust="spacingAndGlyphs" textLength="298" x="1838.5" y="1374.293">
    List of PayerFSP Participant Callback Endpoints
  </text>
  <path fill="#A80036" stroke="#a80036" d="M854 1404.492l-10 4 10 4-4-4z"/>
  <path stroke="#a80036" stroke-dasharray="2,2" d="M848 1408.492h945.5"/>
  <text font-family="sans-serif" font-size="13" font-weight="bold" lengthAdjust="spacingAndGlyphs" textLength="18" x="860" y="1403.426">
    19
  </text>
  <text font-family="sans-serif" font-size="13" lengthAdjust="spacingAndGlyphs" textLength="298" x="882" y="1403.426">
    List of PayerFSP Participant Callback Endpoints
  </text>
  <path stroke="#a80036" d="M843 1452.758h42M885 1452.758v13M844 1465.758h41"/>
  <path fill="#A80036" stroke="#a80036" d="M854 1461.758l-10 4 10 4-4-4z"/>
  <text font-family="sans-serif" font-size="13" font-weight="bold" lengthAdjust="spacingAndGlyphs" textLength="18" x="850" y="1440.126">
    20
  </text>
  <text font-family="sans-serif" font-size="13" lengthAdjust="spacingAndGlyphs" textLength="320" x="872" y="1432.559">
    Match PayerFSP Participant Callback Endpoints for
  </text>
  <text font-family="sans-serif" font-size="13" lengthAdjust="spacingAndGlyphs" textLength="271" x="872" y="1447.692">
    FSPIOP_CALLBACK_URL_PARTICIPANT_PUT
  </text>
  <path fill="#A80036" stroke="#a80036" d="M581 1490.89l-10 4 10 4-4-4z"/>
  <path stroke="#a80036" stroke-dasharray="2,2" d="M575 1494.891h257"/>
  <text font-family="sans-serif" font-size="13" font-weight="bold" lengthAdjust="spacingAndGlyphs" textLength="18" x="587" y="1489.825">
    21
  </text>
  <text font-family="sans-serif" font-size="13" lengthAdjust="spacingAndGlyphs" textLength="179" x="609" y="1489.825">
    Return delete request result
  </text>
  <path stroke="#a80036" d="M99 1539.156l10-4M99 1539.156l10 4M99 1539.156h460"/>
  <text font-family="sans-serif" font-size="13" font-weight="bold" lengthAdjust="spacingAndGlyphs" textLength="18" x="116" y="1526.524">
    22
  </text>
  <text font-family="sans-serif" font-size="13" lengthAdjust="spacingAndGlyphs" textLength="180" x="138" y="1518.957">
    Callback indiciating success:
  </text>
  <text font-family="sans-serif" font-size="13" lengthAdjust="spacingAndGlyphs" textLength="358" x="138" y="1534.09">
    PUT - /participants/{TYPE}/{ID}?currency={CURRENCY}
  </text>
  <path stroke="#000" stroke-dasharray="2,2" d="M52 1548.156h2475"/>
  <text font-family="sans-serif" font-size="11" font-weight="bold" lengthAdjust="spacingAndGlyphs" textLength="414" x="57" y="1558.367">
    [Validation failure or Oracle was unable process delete request]
  </text>
  <path fill="#A80036" stroke="#a80036" d="M1777.5 1594.227l10 4-10 4 4-4z"/>
  <path stroke="#a80036" d="M843 1598.227h940.5"/>
  <text font-family="sans-serif" font-size="13" font-weight="bold" lengthAdjust="spacingAndGlyphs" textLength="18" x="850" y="1585.594">
    23
  </text>
  <text font-family="sans-serif" font-size="13" lengthAdjust="spacingAndGlyphs" textLength="330" x="872" y="1578.028">
    Retrieve the PayerFSP Participant Callback Endpoint
  </text>
  <text fill="red" font-family="sans-serif" font-size="13" font-weight="bold" lengthAdjust="spacingAndGlyphs" textLength="82" x="872" y="1593.161">
    Error code:
  </text>
  <text fill="red" font-family="sans-serif" font-size="13" lengthAdjust="spacingAndGlyphs" textLength="109" x="958" y="1593.161">
    200x, 310x, 320x
  </text>
  <path fill="#A80036" stroke="#a80036" d="M2258.5 1668.758l10 4-10 4 4-4z"/>
  <path stroke="#a80036" d="M1799.5 1672.758h465"/>
  <text font-family="sans-serif" font-size="13" font-weight="bold" lengthAdjust="spacingAndGlyphs" textLength="18" x="1806.5" y="1644.993">
    24
  </text>
  <text font-family="sans-serif" font-size="13" lengthAdjust="spacingAndGlyphs" textLength="330" x="1828.5" y="1622.293">
    Retrieve the PayerFSP Participant Callback Endpoint
  </text>
  <text font-family="sans-serif" font-size="13" lengthAdjust="spacingAndGlyphs" textLength="299" x="1828.5" y="1637.426">
    GET - /participants/{FSPIOP-Source}/endpoints
  </text>
  <text fill="#388724" font-family="sans-serif" font-size="13" font-weight="bold" lengthAdjust="spacingAndGlyphs" textLength="118" x="1828.5" y="1652.559">
    Response code:
  </text>
  <text fill="#388724" font-family="sans-serif" font-size="13" lengthAdjust="spacingAndGlyphs" textLength="24" x="1950.5" y="1652.559">
    200
  </text>
  <text fill="red" font-family="sans-serif" font-size="13" font-weight="bold" lengthAdjust="spacingAndGlyphs" textLength="82" x="1828.5" y="1667.692">
    Error code:
  </text>
  <text fill="red" font-family="sans-serif" font-size="13" lengthAdjust="spacingAndGlyphs" textLength="109" x="1914.5" y="1667.692">
    200x, 310x, 320x
  </text>
  <path fill="#A80036" stroke="#a80036" d="M1810.5 1697.89l-10 4 10 4-4-4z"/>
  <path stroke="#a80036" stroke-dasharray="2,2" d="M1804.5 1701.891h470"/>
  <text font-family="sans-serif" font-size="13" font-weight="bold" lengthAdjust="spacingAndGlyphs" textLength="18" x="1816.5" y="1696.825">
    25
  </text>
  <text font-family="sans-serif" font-size="13" lengthAdjust="spacingAndGlyphs" textLength="298" x="1838.5" y="1696.825">
    List of PayerFSP Participant Callback Endpoints
  </text>
  <path fill="#A80036" stroke="#a80036" d="M854 1727.023l-10 4 10 4-4-4z"/>
  <path stroke="#a80036" stroke-dasharray="2,2" d="M848 1731.023h945.5"/>
  <text font-family="sans-serif" font-size="13" font-weight="bold" lengthAdjust="spacingAndGlyphs" textLength="18" x="860" y="1725.957">
    26
  </text>
  <text font-family="sans-serif" font-size="13" lengthAdjust="spacingAndGlyphs" textLength="298" x="882" y="1725.957">
    List of PayerFSP Participant Callback Endpoints
  </text>
  <path stroke="#a80036" d="M843 1775.289h42M885 1775.289v13M844 1788.289h41"/>
  <path fill="#A80036" stroke="#a80036" d="M854 1784.29l-10 4 10 4-4-4z"/>
  <text font-family="sans-serif" font-size="13" font-weight="bold" lengthAdjust="spacingAndGlyphs" textLength="18" x="850" y="1762.657">
    27
  </text>
  <text font-family="sans-serif" font-size="13" lengthAdjust="spacingAndGlyphs" textLength="320" x="872" y="1755.09">
    Match PayerFSP Participant Callback Endpoints for
  </text>
  <text font-family="sans-serif" font-size="13" lengthAdjust="spacingAndGlyphs" textLength="320" x="872" y="1770.223">
    FSPIOP_CALLBACK_URL_PARTICIPANT_PUT_ERROR
  </text>
  <path fill="#A80036" stroke="#a80036" d="M581 1828.555l-10 4 10 4-4-4z"/>
  <path stroke="#a80036" stroke-dasharray="2,2" d="M575 1832.555h257"/>
  <text font-family="sans-serif" font-size="13" font-weight="bold" lengthAdjust="spacingAndGlyphs" textLength="18" x="587" y="1819.922">
    28
  </text>
  <text font-family="sans-serif" font-size="13" lengthAdjust="spacingAndGlyphs" textLength="80" x="609" y="1812.356">
    Handle error
  </text>
  <text fill="red" font-family="sans-serif" font-size="13" font-weight="bold" lengthAdjust="spacingAndGlyphs" textLength="82" x="609" y="1827.489">
    Error code:
  </text>
  <text fill="red" font-family="sans-serif" font-size="13" lengthAdjust="spacingAndGlyphs" textLength="109" x="695" y="1827.489">
    200x, 310x, 320x
  </text>
  <path stroke="#a80036" d="M99 1861.688l10-4M99 1861.688l10 4M99 1861.688h460"/>
  <text font-family="sans-serif" font-size="13" font-weight="bold" lengthAdjust="spacingAndGlyphs" textLength="18" x="116" y="1856.622">
    29
  </text>
  <text font-family="sans-serif" font-size="13" lengthAdjust="spacingAndGlyphs" textLength="296" x="138" y="1856.622">
    Callback: PUT - /participants/{TYPE}/{ID}/error
  </text>
  <path stroke="#000" stroke-dasharray="2,2" d="M52 1870.688h2475"/>
  <text font-family="sans-serif" font-size="11" font-weight="bold" lengthAdjust="spacingAndGlyphs" textLength="300" x="57" y="1880.898">
    [Empty list of switchEndpoint results returned]
  </text>
  <path stroke="#a80036" d="M843 1920.758h42M885 1920.758v13M844 1933.758h41"/>
  <path fill="#A80036" stroke="#a80036" d="M854 1929.758l-10 4 10 4-4-4z"/>
  <text font-family="sans-serif" font-size="13" font-weight="bold" lengthAdjust="spacingAndGlyphs" textLength="18" x="850" y="1908.126">
    30
  </text>
  <text font-family="sans-serif" font-size="13" lengthAdjust="spacingAndGlyphs" textLength="80" x="872" y="1900.559">
    Handle error
  </text>
  <text fill="red" font-family="sans-serif" font-size="13" font-weight="bold" lengthAdjust="spacingAndGlyphs" textLength="82" x="872" y="1915.692">
    Error code:
  </text>
  <text fill="red" font-family="sans-serif" font-size="13" lengthAdjust="spacingAndGlyphs" textLength="31" x="958" y="1915.692">
    200x
  </text>
  <path fill="red" filter="url(#a)" stroke="#a80036" d="M858 1946.758h169l10 11-10 12H858l-10-12 10-11z"/>
  <text fill="#FFF" font-family="sans-serif" font-size="13" lengthAdjust="spacingAndGlyphs" textLength="165" x="860" y="1962.825">
    Error Handling Framework
  </text>
</svg>
