<svg xmlns="http://www.w3.org/2000/svg" height="931" preserveAspectRatio="none" style="width:901px;height:931px" width="901">
  <defs>
    <filter height="300%" id="a" width="300%" x="-1" y="-1">
      <feGaussianBlur result="blurOut" stdDeviation="2"/>
      <feColorMatrix in="blurOut" result="blurOut2" values="0 0 0 0 0 0 0 0 0 0 0 0 0 0 0 0 0 0 .4 0"/>
      <feOffset dx="4" dy="4" in="blurOut2" result="blurOut3"/>
      <feBlend in="SourceGraphic" in2="blurOut3"/>
    </filter>
  </defs>
  <text font-family="sans-serif" font-size="18" lengthAdjust="spacingAndGlyphs" textLength="266" x="315.5" y="28.708">
    7.3.2 Create Oracle Endpoints
  </text>
  <path fill="#FFFFE0" stroke="#a80036" d="M235 40.953h636v884.844H235z"/>
  <text font-family="sans-serif" font-size="13" font-weight="bold" lengthAdjust="spacingAndGlyphs" textLength="176" x="465" y="53.02">
    Account Lookup Service
  </text>
  <path fill="#FFF" filter="url(#a)" stroke="#a80036" d="M84 132.383h10v447.656H84zM356 192.781h10v387.258h-10zM563 397.242h10v153.664h-10zM826 468.508h10v53.266h-10z"/>
  <path fill="#FFF" filter="url(#a)" stroke="#000" stroke-width="2" d="M10 139.383h877V843.5H10z"/>
  <path fill="#FFF" filter="url(#a)" stroke="#000" stroke-width="2" d="M20 483.508h857v104.531H20zM20 602.039h857V836.5H20z"/>
  <path stroke="#a80036" stroke-dasharray="5,5" d="M89 122.383V860.5M361 122.383V860.5M567.5 122.383V860.5M831 122.383V860.5"/>
  <text font-family="sans-serif" font-size="14" lengthAdjust="spacingAndGlyphs" textLength="112" x="30" y="119.081">
    HUB OPERATOR
  </text>
  <circle cx="89" cy="90.086" fill="#FEFECE" filter="url(#a)" stroke="#a80036" stroke-width="2" r="12"/>
  <path stroke="#a80036" stroke-width="2" d="M77 104.086h24"/>
  <text font-family="sans-serif" font-size="14" lengthAdjust="spacingAndGlyphs" textLength="112" x="30" y="872.495">
    HUB OPERATOR
  </text>
  <circle cx="89" cy="891.797" fill="#FEFECE" filter="url(#a)" stroke="#a80036" stroke-width="2" r="12"/>
  <path stroke="#a80036" stroke-width="2" d="M77 905.797h24"/>
  <text font-family="sans-serif" font-size="14" lengthAdjust="spacingAndGlyphs" textLength="238" x="239" y="119.081">
    Account Lookup Service Admin API
  </text>
  <path d="M340.5 78.086v24m0-12h17" fill="none" filter="url(#a)" stroke="#a80036" stroke-width="2"/>
  <circle cx="369.5" cy="90.086" fill="#FEFECE" filter="url(#a)" stroke="#a80036" stroke-width="2" r="12"/>
  <text font-family="sans-serif" font-size="14" lengthAdjust="spacingAndGlyphs" textLength="238" x="239" y="872.495">
    Account Lookup Service Admin API
  </text>
  <path d="M340.5 879.797v24m0-12h17" fill="none" filter="url(#a)" stroke="#a80036" stroke-width="2"/>
  <circle cx="369.5" cy="891.797" fill="#FEFECE" filter="url(#a)" stroke="#a80036" stroke-width="2" r="12"/>
  <text font-family="sans-serif" font-size="14" lengthAdjust="spacingAndGlyphs" textLength="143" x="493.5" y="119.081">
    POST Oracle Handler
  </text>
  <circle cx="568" cy="90.086" fill="#FEFECE" filter="url(#a)" stroke="#a80036" stroke-width="2" r="12"/>
  <path fill="#A80036" stroke="#a80036" d="M564 78.086l6-5-2 5 2 5-6-5z"/>
  <text font-family="sans-serif" font-size="14" lengthAdjust="spacingAndGlyphs" textLength="143" x="493.5" y="872.495">
    POST Oracle Handler
  </text>
  <circle cx="568" cy="891.797" fill="#FEFECE" filter="url(#a)" stroke="#a80036" stroke-width="2" r="12"/>
  <path fill="#A80036" stroke="#a80036" d="M564 879.797l6-5-2 5 2 5-6-5z"/>
  <text font-family="sans-serif" font-size="14" lengthAdjust="spacingAndGlyphs" textLength="66" x="795" y="119.081">
    ALS Store
  </text>
  <path d="M813 70.086c0-10 18-10 18-10s18 0 18 10v26c0 10-18 10-18 10s-18 0-18-10v-26" fill="#FEFECE" filter="url(#a)" stroke="#000" stroke-width="1.5"/>
  <path d="M813 70.086c0 10 18 10 18 10s18 0 18-10" fill="none" stroke="#000" stroke-width="1.5"/>
  <text font-family="sans-serif" font-size="14" lengthAdjust="spacingAndGlyphs" textLength="66" x="795" y="872.495">
    ALS Store
  </text>
  <path d="M813 885.797c0-10 18-10 18-10s18 0 18 10v26c0 10-18 10-18 10s-18 0-18-10v-26" fill="#FEFECE" filter="url(#a)" stroke="#000" stroke-width="1.5"/>
  <path d="M813 885.797c0 10 18 10 18 10s18 0 18-10" fill="none" stroke="#000" stroke-width="1.5"/>
  <path fill="#FFF" filter="url(#a)" stroke="#a80036" d="M84 132.383h10v447.656H84zM356 192.781h10v387.258h-10zM563 397.242h10v153.664h-10zM826 468.508h10v53.266h-10z"/>
  <path d="M10 139.383h194v7l-10 10H10v-17" fill="#EEE" stroke="#000"/>
  <path fill="none" stroke="#000" stroke-width="2" d="M10 139.383h877V843.5H10z"/>
  <text font-family="sans-serif" font-size="13" font-weight="bold" lengthAdjust="spacingAndGlyphs" textLength="149" x="25" y="152.45">
    Get Oracle Endpoint
  </text>
  <path fill="#A80036" stroke="#a80036" d="M344 188.781l10 4-10 4 4-4z"/>
  <path stroke="#a80036" d="M94 192.781h256"/>
  <text font-family="sans-serif" font-size="13" font-weight="bold" lengthAdjust="spacingAndGlyphs" textLength="9" x="101" y="180.149">
    1
  </text>
  <text font-family="sans-serif" font-size="13" lengthAdjust="spacingAndGlyphs" textLength="230" x="114" y="172.583">
    Request to Create Oracle Endpoint -
  </text>
  <text font-family="sans-serif" font-size="13" lengthAdjust="spacingAndGlyphs" textLength="88" x="114" y="187.715">
    POST /oracles
  </text>
  <path d="M82 205.781v161h265v-151l-10-10H82" fill="#FF0" filter="url(#a)" stroke="#a80036"/>
  <path d="M337 205.781v10h10l-10-10" fill="#FF0" stroke="#a80036"/>
  <text font-family="sans-serif" font-size="13" lengthAdjust="spacingAndGlyphs" textLength="61" x="88" y="222.848">
    Message:
  </text>
  <text font-family="sans-serif" font-size="13" lengthAdjust="spacingAndGlyphs" textLength="8" x="88" y="237.981">
    {
  </text>
  <text font-family="sans-serif" font-size="13" lengthAdjust="spacingAndGlyphs" textLength="198" x="104" y="253.114">
    &quot;oracleIdType&quot;: &lt;PartyIdType&gt;,
  </text>
  <text font-family="sans-serif" font-size="13" lengthAdjust="spacingAndGlyphs" textLength="82" x="104" y="268.247">
    &quot;endpoint&quot;: {
  </text>
  <text font-family="sans-serif" font-size="13" lengthAdjust="spacingAndGlyphs" textLength="114" x="120" y="283.379">
    &quot;value&quot;: &lt;string&gt;,
  </text>
  <text font-family="sans-serif" font-size="13" lengthAdjust="spacingAndGlyphs" textLength="212" x="120" y="298.512">
    &quot;endpointType&quot;: &lt;EndpointType&gt;
  </text>
  <text font-family="sans-serif" font-size="13" lengthAdjust="spacingAndGlyphs" textLength="12" x="104" y="313.645">
    },
  </text>
  <text font-family="sans-serif" font-size="13" lengthAdjust="spacingAndGlyphs" textLength="156" x="104" y="328.778">
    &quot;currency&quot;: &lt;Currency&gt;,
  </text>
  <text font-family="sans-serif" font-size="13" lengthAdjust="spacingAndGlyphs" textLength="147" x="104" y="343.911">
    &quot;isDefault&quot;: &lt;boolean&gt;
  </text>
  <text font-family="sans-serif" font-size="13" lengthAdjust="spacingAndGlyphs" textLength="8" x="88" y="359.043">
    }
  </text>
  <path fill="#A80036" stroke="#a80036" d="M551 393.242l10 4-10 4 4-4z"/>
  <path stroke="#a80036" d="M366 397.242h191"/>
  <text font-family="sans-serif" font-size="13" font-weight="bold" lengthAdjust="spacingAndGlyphs" textLength="9" x="373" y="392.176">
    2
  </text>
  <text font-family="sans-serif" font-size="13" lengthAdjust="spacingAndGlyphs" textLength="148" x="386" y="392.176">
    Create Oracle Endpoint
  </text>
  <path stroke="#a80036" d="M573 426.375h42M615 426.375v13M574 439.375h41"/>
  <path fill="#A80036" stroke="#a80036" d="M584 435.375l-10 4 10 4-4-4z"/>
  <text font-family="sans-serif" font-size="13" font-weight="bold" lengthAdjust="spacingAndGlyphs" textLength="9" x="580" y="421.309">
    3
  </text>
  <text font-family="sans-serif" font-size="13" lengthAdjust="spacingAndGlyphs" textLength="216" x="593" y="421.309">
    Build Oracle Endpoint Data Object
  </text>
  <path fill="#A80036" stroke="#a80036" d="M814 464.508l10 4-10 4 4-4z"/>
  <path stroke="#a80036" d="M573 468.508h247"/>
  <text font-family="sans-serif" font-size="13" font-weight="bold" lengthAdjust="spacingAndGlyphs" textLength="9" x="580" y="463.442">
    4
  </text>
  <text font-family="sans-serif" font-size="13" lengthAdjust="spacingAndGlyphs" textLength="221" x="593" y="463.442">
    Insert Oracle Endpoint Data Object
  </text>
  <path d="M20 483.508h64v7l-10 10H20v-17" fill="#EEE" stroke="#000"/>
  <path fill="none" stroke="#000" stroke-width="2" d="M20 483.508h857v104.531H20z"/>
  <text font-family="sans-serif" font-size="13" font-weight="bold" lengthAdjust="spacingAndGlyphs" textLength="19" x="35" y="496.575">
    alt
  </text>
  <text font-family="sans-serif" font-size="11" font-weight="bold" lengthAdjust="spacingAndGlyphs" textLength="201" x="99" y="495.718">
    [Create Oracle Entry (success)]
  </text>
  <path fill="#A80036" stroke="#a80036" d="M584 517.773l-10 4 10 4-4-4z"/>
  <path stroke="#a80036" stroke-dasharray="2,2" d="M578 521.773h252"/>
  <text font-family="sans-serif" font-size="13" font-weight="bold" lengthAdjust="spacingAndGlyphs" textLength="9" x="590" y="516.707">
    5
  </text>
  <text font-family="sans-serif" font-size="13" lengthAdjust="spacingAndGlyphs" textLength="160" x="603" y="516.707">
    Return success response
  </text>
  <path fill="#A80036" stroke="#a80036" d="M377 546.906l-10 4 10 4-4-4z"/>
  <path stroke="#a80036" d="M371 550.906h196"/>
  <text font-family="sans-serif" font-size="13" font-weight="bold" lengthAdjust="spacingAndGlyphs" textLength="9" x="383" y="545.84">
    6
  </text>
  <text font-family="sans-serif" font-size="13" lengthAdjust="spacingAndGlyphs" textLength="160" x="396" y="545.84">
    Return success response
  </text>
  <path fill="#A80036" stroke="#a80036" d="M100 576.04l-10 4 10 4-4-4z"/>
  <path stroke="#a80036" stroke-dasharray="2,2" d="M94 580.039h266"/>
  <text font-family="sans-serif" font-size="13" font-weight="bold" lengthAdjust="spacingAndGlyphs" textLength="9" x="106" y="574.973">
    7
  </text>
  <text font-family="sans-serif" font-size="13" lengthAdjust="spacingAndGlyphs" textLength="42" x="119" y="574.973">
    Return
  </text>
  <text font-family="sans-serif" font-size="13" font-weight="bold" lengthAdjust="spacingAndGlyphs" textLength="94" x="165" y="574.973">
    HTTP Status:
  </text>
  <text font-family="sans-serif" font-size="13" lengthAdjust="spacingAndGlyphs" textLength="24" x="263" y="574.973">
    201
  </text>
  <path d="M20 602.04h64v7l-10 10H20v-17" fill="#EEE" stroke="#000"/>
  <path fill="none" stroke="#000" stroke-width="2" d="M20 602.039h857V836.5H20z"/>
  <text font-family="sans-serif" font-size="13" font-weight="bold" lengthAdjust="spacingAndGlyphs" textLength="19" x="35" y="615.106">
    alt
  </text>
  <text font-family="sans-serif" font-size="11" font-weight="bold" lengthAdjust="spacingAndGlyphs" textLength="192" x="99" y="614.25">
    [Create Oracle Entry (failure)]
  </text>
  <path fill="#A80036" stroke="#a80036" d="M579 636.305l-10 4 10 4-4-4z"/>
  <path stroke="#a80036" stroke-dasharray="2,2" d="M573 640.305h257"/>
  <text font-family="sans-serif" font-size="13" font-weight="bold" lengthAdjust="spacingAndGlyphs" textLength="9" x="585" y="635.239">
    8
  </text>
  <text font-family="sans-serif" font-size="13" lengthAdjust="spacingAndGlyphs" textLength="72" x="598" y="635.239">
    Throw Error
  </text>
  <path fill="#A80036" stroke="#a80036" d="M372 665.438l-10 4 10 4-4-4z"/>
  <path stroke="#a80036" d="M366 669.438h201"/>
  <text font-family="sans-serif" font-size="13" font-weight="bold" lengthAdjust="spacingAndGlyphs" textLength="9" x="378" y="664.372">
    9
  </text>
  <text font-family="sans-serif" font-size="13" lengthAdjust="spacingAndGlyphs" textLength="72" x="391" y="664.372">
    Throw Error
  </text>
  <path d="M123 682.438v115h229v-105l-10-10H123" fill="#FF0" filter="url(#a)" stroke="#a80036"/>
  <path d="M342 682.438v10h10l-10-10" fill="#FF0" stroke="#a80036"/>
  <text font-family="sans-serif" font-size="13" lengthAdjust="spacingAndGlyphs" textLength="61" x="129" y="699.504">
    Message:
  </text>
  <text font-family="sans-serif" font-size="13" lengthAdjust="spacingAndGlyphs" textLength="8" x="129" y="714.637">
    {
  </text>
  <text font-family="sans-serif" font-size="13" lengthAdjust="spacingAndGlyphs" textLength="130" x="145" y="729.77">
    &quot;errorInformation&quot;: {
  </text>
  <text font-family="sans-serif" font-size="13" lengthAdjust="spacingAndGlyphs" textLength="176" x="161" y="744.903">
    &quot;errorCode&quot;: &lt;Error Code&gt;,
  </text>
  <text font-family="sans-serif" font-size="13" lengthAdjust="spacingAndGlyphs" textLength="173" x="161" y="760.036">
    &quot;errorDescription&quot;: &lt;Msg&gt;,
  </text>
  <text font-family="sans-serif" font-size="13" lengthAdjust="spacingAndGlyphs" textLength="8" x="145" y="775.168">
    }
  </text>
  <text font-family="sans-serif" font-size="13" lengthAdjust="spacingAndGlyphs" textLength="8" x="129" y="790.301">
    }
  </text>
  <path fill="#A80036" stroke="#a80036" d="M100 824.5l-10 4 10 4-4-4z"/>
  <path stroke="#a80036" stroke-dasharray="2,2" d="M94 828.5h266"/>
  <text font-family="sans-serif" font-size="13" font-weight="bold" lengthAdjust="spacingAndGlyphs" textLength="18" x="106" y="823.434">
    10
  </text>
  <text font-family="sans-serif" font-size="13" lengthAdjust="spacingAndGlyphs" textLength="42" x="128" y="823.434">
    Return
  </text>
  <text fill="red" font-family="sans-serif" font-size="13" font-weight="bold" lengthAdjust="spacingAndGlyphs" textLength="94" x="174" y="823.434">
    HTTP Status:
  </text>
  <text fill="red" font-family="sans-serif" font-size="13" lengthAdjust="spacingAndGlyphs" textLength="24" x="272" y="823.434">
    502
  </text>
</svg>
