<svg xmlns="http://www.w3.org/2000/svg" height="2122" preserveAspectRatio="none" style="width:1867px;height:2122px" width="1867">
  <defs>
    <filter height="300%" id="a" width="300%" x="-1" y="-1">
      <feGaussianBlur result="blurOut" stdDeviation="2"/>
      <feColorMatrix in="blurOut" result="blurOut2" values="0 0 0 0 0 0 0 0 0 0 0 0 0 0 0 0 0 0 .4 0"/>
      <feOffset dx="4" dy="4" in="blurOut2" result="blurOut3"/>
      <feBlend in="SourceGraphic" in2="blurOut3"/>
    </filter>
  </defs>
  <text font-family="sans-serif" font-size="18" lengthAdjust="spacingAndGlyphs" textLength="462" x="700.5" y="28.708">
    1.0.0 Create initial position and limits for Participant
  </text>
  <path fill="#FFFFE0" stroke="#a80036" d="M694 40.953h1110v2075.703H694z"/>
  <text font-family="sans-serif" font-size="13" font-weight="bold" lengthAdjust="spacingAndGlyphs" textLength="119" x="1189.5" y="53.02">
    Central Services
  </text>
  <path fill="#FFF" filter="url(#a)" stroke="#a80036" d="M104 133.25h10v1880.109h-10zM760 178.516h10V2013.36h-10zM1095 367.844h10v860.984h-10zM1095 1257.961h10v711.266h-10zM1446 412.109h10v135.664h-10zM1446 643.172h10v120.531h-10zM1446 792.836h10v120.531h-10zM1446 1039.031h10v136.531h-10zM1747 441.242h10v77.398h-10zM1747 672.305h10v62.266h-10zM1747 821.969h10v62.266h-10zM1747 1068.164h10v30h-10z"/>
  <path fill="#FFF" filter="url(#a)" stroke="#000" stroke-width="2" d="M10 140.25h1843v1873.109H10z"/>
  <path fill="#FFF" filter="url(#a)" stroke="#000" stroke-width="2" d="M20 604.906h1823v1401.453H20z"/>
  <path fill="#FFF" filter="url(#a)" stroke="#000" stroke-width="2" d="M30 970.5h1803v786.727H30z"/>
  <path fill="#FFF" filter="url(#a)" stroke="#000" stroke-width="2" d="M40 1190.563h1329v317.531H40z"/>
  <path fill="#FFF" d="M40 1265.961h1329v242.133H40zM30 1515.094h1803v242.133H30zM20 1764.227h1823v242.133H20z"/>
  <path stroke="#a80036" stroke-dasharray="5,5" d="M109 123.25v1907.109M765 123.25v1907.109M1099.5 123.25v1907.109M1451 123.25v1907.109M1752 123.25v1907.109"/>
  <text font-family="sans-serif" font-size="14" lengthAdjust="spacingAndGlyphs" textLength="112" x="50" y="119.948">
    HUB OPERATOR
  </text>
  <circle cx="109" cy="49.953" fill="#FEFECE" filter="url(#a)" stroke="#a80036" stroke-width="2" r="8"/>
  <path d="M109 57.953v27m-13-19h26m-13 19l-13 15m13-15l13 15" fill="none" filter="url(#a)" stroke="#a80036" stroke-width="2"/>
  <text font-family="sans-serif" font-size="14" lengthAdjust="spacingAndGlyphs" textLength="112" x="50" y="2042.354">
    HUB OPERATOR
  </text>
  <circle cx="109" cy="2055.656" fill="#FEFECE" filter="url(#a)" stroke="#a80036" stroke-width="2" r="8"/>
  <path d="M109 2063.656v27m-13-19h26m-13 19l-13 15m13-15l13 15" fill="none" filter="url(#a)" stroke="#a80036" stroke-width="2"/>
  <text font-family="sans-serif" font-size="14" lengthAdjust="spacingAndGlyphs" textLength="128" x="698" y="119.948">
    Central Service API
  </text>
  <path d="M744.5 78.953v24m0-12h17" fill="none" filter="url(#a)" stroke="#a80036" stroke-width="2"/>
  <circle cx="773.5" cy="90.953" fill="#FEFECE" filter="url(#a)" stroke="#a80036" stroke-width="2" r="12"/>
  <text font-family="sans-serif" font-size="14" lengthAdjust="spacingAndGlyphs" textLength="128" x="698" y="2042.354">
    Central Service API
  </text>
  <path d="M744.5 2049.656v24m0-12h17" fill="none" filter="url(#a)" stroke="#a80036" stroke-width="2"/>
  <circle cx="773.5" cy="2061.656" fill="#FEFECE" filter="url(#a)" stroke="#a80036" stroke-width="2" r="12"/>
  <text font-family="sans-serif" font-size="14" lengthAdjust="spacingAndGlyphs" textLength="129" x="1032.5" y="119.948">
    Participant Handler
  </text>
  <circle cx="1100" cy="90.953" fill="#FEFECE" filter="url(#a)" stroke="#a80036" stroke-width="2" r="12"/>
  <path fill="#A80036" stroke="#a80036" d="M1096 78.953l6-5-2 5 2 5-6-5z"/>
  <text font-family="sans-serif" font-size="14" lengthAdjust="spacingAndGlyphs" textLength="129" x="1032.5" y="2042.354">
    Participant Handler
  </text>
  <circle cx="1100" cy="2061.656" fill="#FEFECE" filter="url(#a)" stroke="#a80036" stroke-width="2" r="12"/>
  <path fill="#A80036" stroke="#a80036" d="M1096 2049.656l6-5-2 5 2 5-6-5z"/>
  <text font-family="sans-serif" font-size="14" lengthAdjust="spacingAndGlyphs" textLength="132" x="1382" y="119.948">
    Participant FACADE
  </text>
  <circle cx="1451" cy="90.953" fill="#FEFECE" filter="url(#a)" stroke="#a80036" stroke-width="2" r="12"/>
  <path stroke="#a80036" stroke-width="2" d="M1439 104.953h24"/>
  <text font-family="sans-serif" font-size="14" lengthAdjust="spacingAndGlyphs" textLength="132" x="1382" y="2042.354">
    Participant FACADE
  </text>
  <circle cx="1451" cy="2061.656" fill="#FEFECE" filter="url(#a)" stroke="#a80036" stroke-width="2" r="12"/>
  <path stroke="#a80036" stroke-width="2" d="M1439 2075.656h24"/>
  <text font-family="sans-serif" font-size="14" lengthAdjust="spacingAndGlyphs" textLength="90" x="1704" y="119.948">
    Central Store
  </text>
  <path d="M1734 70.953c0-10 18-10 18-10s18 0 18 10v26c0 10-18 10-18 10s-18 0-18-10v-26" fill="#FEFECE" filter="url(#a)" stroke="#000" stroke-width="1.5"/>
  <path d="M1734 70.953c0 10 18 10 18 10s18 0 18-10" fill="none" stroke="#000" stroke-width="1.5"/>
  <text font-family="sans-serif" font-size="14" lengthAdjust="spacingAndGlyphs" textLength="90" x="1704" y="2042.354">
    Central Store
  </text>
  <path d="M1734 2055.656c0-10 18-10 18-10s18 0 18 10v26c0 10-18 10-18 10s-18 0-18-10v-26" fill="#FEFECE" filter="url(#a)" stroke="#000" stroke-width="1.5"/>
  <path d="M1734 2055.656c0 10 18 10 18 10s18 0 18-10" fill="none" stroke="#000" stroke-width="1.5"/>
  <path fill="#FFF" filter="url(#a)" stroke="#a80036" d="M104 133.25h10v1880.109h-10zM760 178.516h10V2013.36h-10zM1095 367.844h10v860.984h-10zM1095 1257.961h10v711.266h-10zM1446 412.109h10v135.664h-10zM1446 643.172h10v120.531h-10zM1446 792.836h10v120.531h-10zM1446 1039.031h10v136.531h-10zM1747 441.242h10v77.398h-10zM1747 672.305h10v62.266h-10zM1747 821.969h10v62.266h-10zM1747 1068.164h10v30h-10z"/>
  <path d="M10 140.25h281v7l-10 10H10v-17" fill="#EEE" stroke="#000"/>
  <path fill="none" stroke="#000" stroke-width="2" d="M10 140.25h1843v1873.109H10z"/>
  <text font-family="sans-serif" font-size="13" font-weight="bold" lengthAdjust="spacingAndGlyphs" textLength="236" x="25" y="153.317">
    Create initial position and limits
  </text>
  <path fill="#A80036" stroke="#a80036" d="M748 174.516l10 4-10 4 4-4z"/>
  <path stroke="#a80036" d="M114 178.516h640"/>
  <text font-family="sans-serif" font-size="13" font-weight="bold" lengthAdjust="spacingAndGlyphs" textLength="9" x="121" y="173.45">
    1
  </text>
  <text font-family="sans-serif" font-size="13" lengthAdjust="spacingAndGlyphs" textLength="614" x="134" y="173.45">
    Request to Create initial position and limits - POST - /paticipants/{name}/initialPositionAndLimits
  </text>
  <path d="M119 191.516v146h236v-136l-10-10H119" fill="#FF0" filter="url(#a)" stroke="#a80036"/>
  <path d="M345 191.516v10h10l-10-10" fill="#FF0" stroke="#a80036"/>
  <text font-family="sans-serif" font-size="13" lengthAdjust="spacingAndGlyphs" textLength="61" x="125" y="208.583">
    Message:
  </text>
  <text font-family="sans-serif" font-size="13" lengthAdjust="spacingAndGlyphs" textLength="8" x="125" y="223.715">
    {
  </text>
  <text font-family="sans-serif" font-size="13" lengthAdjust="spacingAndGlyphs" textLength="155" x="141" y="238.848">
    currency: &lt;currencyId&gt;,
  </text>
  <text font-family="sans-serif" font-size="13" lengthAdjust="spacingAndGlyphs" textLength="43" x="141" y="253.981">
    limit: {
  </text>
  <text font-family="sans-serif" font-size="13" lengthAdjust="spacingAndGlyphs" textLength="119" x="157" y="269.114">
    type: &lt;limitType&gt;,
  </text>
  <text font-family="sans-serif" font-size="13" lengthAdjust="spacingAndGlyphs" textLength="127" x="157" y="284.247">
    value: &lt;limitValue&gt;
  </text>
  <text font-family="sans-serif" font-size="13" lengthAdjust="spacingAndGlyphs" textLength="12" x="141" y="299.379">
    },
  </text>
  <text font-family="sans-serif" font-size="13" lengthAdjust="spacingAndGlyphs" textLength="199" x="141" y="314.512">
    initialPosition: &lt;positionValue&gt;
  </text>
  <text font-family="sans-serif" font-size="13" lengthAdjust="spacingAndGlyphs" textLength="8" x="125" y="329.645">
    }
  </text>
  <path fill="#A80036" stroke="#a80036" d="M1083 363.844l10 4-10 4 4-4z"/>
  <path stroke="#a80036" d="M770 367.844h319"/>
  <text font-family="sans-serif" font-size="13" font-weight="bold" lengthAdjust="spacingAndGlyphs" textLength="9" x="777" y="362.778">
    2
  </text>
  <text font-family="sans-serif" font-size="13" lengthAdjust="spacingAndGlyphs" textLength="293" x="790" y="362.778">
    Create initial position and limits for Participant
  </text>
  <path fill="#A80036" stroke="#a80036" d="M1434 408.11l10 4-10 4 4-4z"/>
  <path stroke="#a80036" d="M1105 412.109h335"/>
  <text font-family="sans-serif" font-size="13" font-weight="bold" lengthAdjust="spacingAndGlyphs" textLength="9" x="1112" y="399.477">
    3
  </text>
  <text font-family="sans-serif" font-size="13" lengthAdjust="spacingAndGlyphs" textLength="187" x="1125" y="391.911">
    Fetch Participant/ Currency Id
  </text>
  <text fill="red" font-family="sans-serif" font-size="13" font-weight="bold" lengthAdjust="spacingAndGlyphs" textLength="82" x="1125" y="407.043">
    Error code:
  </text>
  <text fill="red" font-family="sans-serif" font-size="13" lengthAdjust="spacingAndGlyphs" textLength="32" x="1211" y="407.043">
    3200
  </text>
  <path fill="#A80036" stroke="#a80036" d="M1735 437.242l10 4-10 4 4-4z"/>
  <path stroke="#a80036" d="M1456 441.242h285"/>
  <text font-family="sans-serif" font-size="13" font-weight="bold" lengthAdjust="spacingAndGlyphs" textLength="9" x="1463" y="436.176">
    4
  </text>
  <text font-family="sans-serif" font-size="13" lengthAdjust="spacingAndGlyphs" textLength="183" x="1476" y="436.176">
    Fetch Participant/Currency Id
  </text>
  <path fill="#FFFFE0" filter="url(#a)" stroke="#a80036" d="M1687 454.242h129l10 19-10 19h-129l-10-19 10-19z"/>
  <text font-family="sans-serif" font-size="13" lengthAdjust="spacingAndGlyphs" textLength="68" x="1689" y="470.309">
    participant
  </text>
  <text font-family="sans-serif" font-size="13" lengthAdjust="spacingAndGlyphs" textLength="125" x="1689" y="485.442">
    participantCurrency
  </text>
  <path fill="#A80036" stroke="#a80036" d="M1467 514.64l-10 4 10 4-4-4z"/>
  <path stroke="#a80036" stroke-dasharray="2,2" d="M1461 518.641h290"/>
  <text font-family="sans-serif" font-size="13" font-weight="bold" lengthAdjust="spacingAndGlyphs" textLength="9" x="1473" y="513.575">
    5
  </text>
  <text font-family="sans-serif" font-size="13" lengthAdjust="spacingAndGlyphs" textLength="208" x="1486" y="513.575">
    Retrieved Participant/Currency Id
  </text>
  <path fill="#A80036" stroke="#a80036" d="M1116 543.773l-10 4 10 4-4-4z"/>
  <path stroke="#a80036" stroke-dasharray="2,2" d="M1110 547.773h340"/>
  <text font-family="sans-serif" font-size="13" font-weight="bold" lengthAdjust="spacingAndGlyphs" textLength="9" x="1122" y="542.707">
    6
  </text>
  <text font-family="sans-serif" font-size="13" lengthAdjust="spacingAndGlyphs" textLength="190" x="1135" y="542.707">
    Return Participant/Currency Id
  </text>
  <path stroke="#a80036" d="M1105 576.906h42M1147 576.906v13M1106 589.906h41"/>
  <path fill="#A80036" stroke="#a80036" d="M1116 585.906l-10 4 10 4-4-4z"/>
  <text font-family="sans-serif" font-size="13" font-weight="bold" lengthAdjust="spacingAndGlyphs" textLength="9" x="1112" y="571.84">
    7
  </text>
  <text font-family="sans-serif" font-size="13" lengthAdjust="spacingAndGlyphs" textLength="90" x="1125" y="571.84">
    Validate DFSP
  </text>
  <path d="M20 604.906h64v7l-10 10H20v-17" fill="#EEE" stroke="#000"/>
  <path fill="none" stroke="#000" stroke-width="2" d="M20 604.906h1823v1401.453H20z"/>
  <text font-family="sans-serif" font-size="13" font-weight="bold" lengthAdjust="spacingAndGlyphs" textLength="19" x="35" y="617.973">
    alt
  </text>
  <text font-family="sans-serif" font-size="11" font-weight="bold" lengthAdjust="spacingAndGlyphs" textLength="202" x="99" y="617.117">
    [Validate participant (success)]
  </text>
  <path fill="#A80036" stroke="#a80036" d="M1434 639.172l10 4-10 4 4-4z"/>
  <path stroke="#a80036" d="M1105 643.172h335"/>
  <text font-family="sans-serif" font-size="13" font-weight="bold" lengthAdjust="spacingAndGlyphs" textLength="9" x="1112" y="638.106">
    8
  </text>
  <text font-family="sans-serif" font-size="13" lengthAdjust="spacingAndGlyphs" textLength="227" x="1125" y="638.106">
    Fetch limit for participantCurrencyId
  </text>
  <path fill="#A80036" stroke="#a80036" d="M1735 668.305l10 4-10 4 4-4z"/>
  <path stroke="#a80036" d="M1456 672.305h285"/>
  <text font-family="sans-serif" font-size="13" font-weight="bold" lengthAdjust="spacingAndGlyphs" textLength="9" x="1463" y="667.239">
    9
  </text>
  <text font-family="sans-serif" font-size="13" lengthAdjust="spacingAndGlyphs" textLength="227" x="1476" y="667.239">
    Fetch limit for participantCurrencyId
  </text>
  <path fill="#FFFFE0" filter="url(#a)" stroke="#a80036" d="M1700 685.305h103l10 11-10 12h-103l-10-12 10-11z"/>
  <text font-family="sans-serif" font-size="13" lengthAdjust="spacingAndGlyphs" textLength="99" x="1702" y="701.372">
    participantLimit
  </text>
  <path fill="#A80036" stroke="#a80036" d="M1467 730.57l-10 4 10 4-4-4z"/>
  <path stroke="#a80036" stroke-dasharray="2,2" d="M1461 734.57h290"/>
  <text font-family="sans-serif" font-size="13" font-weight="bold" lengthAdjust="spacingAndGlyphs" textLength="18" x="1473" y="729.504">
    10
  </text>
  <text font-family="sans-serif" font-size="13" lengthAdjust="spacingAndGlyphs" textLength="163" x="1495" y="729.504">
    Retrieved participant limit
  </text>
  <path fill="#A80036" stroke="#a80036" d="M1116 759.703l-10 4 10 4-4-4z"/>
  <path stroke="#a80036" stroke-dasharray="2,2" d="M1110 763.703h340"/>
  <text font-family="sans-serif" font-size="13" font-weight="bold" lengthAdjust="spacingAndGlyphs" textLength="18" x="1122" y="758.637">
    11
  </text>
  <text font-family="sans-serif" font-size="13" lengthAdjust="spacingAndGlyphs" textLength="145" x="1144" y="758.637">
    Return participant limit
  </text>
  <path fill="#A80036" stroke="#a80036" d="M1434 788.836l10 4-10 4 4-4z"/>
  <path stroke="#a80036" d="M1105 792.836h335"/>
  <text font-family="sans-serif" font-size="13" font-weight="bold" lengthAdjust="spacingAndGlyphs" textLength="18" x="1112" y="787.77">
    12
  </text>
  <text font-family="sans-serif" font-size="13" lengthAdjust="spacingAndGlyphs" textLength="250" x="1134" y="787.77">
    Fetch position for participantCurrencyId
  </text>
  <path fill="#A80036" stroke="#a80036" d="M1735 817.969l10 4-10 4 4-4z"/>
  <path stroke="#a80036" d="M1456 821.969h285"/>
  <text font-family="sans-serif" font-size="13" font-weight="bold" lengthAdjust="spacingAndGlyphs" textLength="18" x="1463" y="816.903">
    13
  </text>
  <text font-family="sans-serif" font-size="13" lengthAdjust="spacingAndGlyphs" textLength="250" x="1485" y="816.903">
    Fetch position for participantCurrencyId
  </text>
  <path fill="#FFFFE0" filter="url(#a)" stroke="#a80036" d="M1691 834.969h122l10 11-10 12h-122l-10-12 10-11z"/>
  <text font-family="sans-serif" font-size="13" lengthAdjust="spacingAndGlyphs" textLength="118" x="1693" y="851.036">
    participantPosition
  </text>
  <path fill="#A80036" stroke="#a80036" d="M1467 880.234l-10 4 10 4-4-4z"/>
  <path stroke="#a80036" stroke-dasharray="2,2" d="M1461 884.234h290"/>
  <text font-family="sans-serif" font-size="13" font-weight="bold" lengthAdjust="spacingAndGlyphs" textLength="18" x="1473" y="879.168">
    14
  </text>
  <text font-family="sans-serif" font-size="13" lengthAdjust="spacingAndGlyphs" textLength="186" x="1495" y="879.168">
    Retrieved participant position
  </text>
  <path fill="#A80036" stroke="#a80036" d="M1116 909.367l-10 4 10 4-4-4z"/>
  <path stroke="#a80036" stroke-dasharray="2,2" d="M1110 913.367h340"/>
  <text font-family="sans-serif" font-size="13" font-weight="bold" lengthAdjust="spacingAndGlyphs" textLength="18" x="1122" y="908.301">
    15
  </text>
  <text font-family="sans-serif" font-size="13" lengthAdjust="spacingAndGlyphs" textLength="168" x="1144" y="908.301">
    Return participant position
  </text>
  <path stroke="#a80036" d="M1105 942.5h42M1147 942.5v13M1106 955.5h41"/>
  <path fill="#A80036" stroke="#a80036" d="M1116 951.5l-10 4 10 4-4-4z"/>
  <text font-family="sans-serif" font-size="13" font-weight="bold" lengthAdjust="spacingAndGlyphs" textLength="18" x="1112" y="937.434">
    16
  </text>
  <text font-family="sans-serif" font-size="13" lengthAdjust="spacingAndGlyphs" textLength="252" x="1134" y="937.434">
    Participant position or limit exists check
  </text>
  <path d="M30 970.5h64v7l-10 10H30v-17" fill="#EEE" stroke="#000"/>
  <path fill="none" stroke="#000" stroke-width="2" d="M30 970.5h1803v786.727H30z"/>
  <text font-family="sans-serif" font-size="13" font-weight="bold" lengthAdjust="spacingAndGlyphs" textLength="19" x="45" y="983.567">
    alt
  </text>
  <text font-family="sans-serif" font-size="11" font-weight="bold" lengthAdjust="spacingAndGlyphs" textLength="271" x="109" y="982.71">
    [position or limit does not exist (success)]
  </text>
  <path fill="#A80036" stroke="#a80036" d="M1434 1035.031l10 4-10 4 4-4z"/>
  <path stroke="#a80036" d="M1105 1039.031h335"/>
  <text font-family="sans-serif" font-size="13" font-weight="bold" lengthAdjust="spacingAndGlyphs" textLength="18" x="1112" y="1018.832">
    17
  </text>
  <text font-family="sans-serif" font-size="13" lengthAdjust="spacingAndGlyphs" textLength="296" x="1134" y="1003.7">
    create initial position and limits for Participantt
  </text>
  <text fill="red" font-family="sans-serif" font-size="13" font-weight="bold" lengthAdjust="spacingAndGlyphs" textLength="82" x="1134" y="1018.832">
    Error code:
  </text>
  <text fill="red" font-family="sans-serif" font-size="13" lengthAdjust="spacingAndGlyphs" textLength="36" x="1220" y="1018.832">
    2003/
  </text>
  <text fill="red" font-family="sans-serif" font-size="13" font-weight="bold" lengthAdjust="spacingAndGlyphs" textLength="36" x="1256" y="1018.832">
    Msg:
  </text>
  <text fill="red" font-family="sans-serif" font-size="13" lengthAdjust="spacingAndGlyphs" textLength="123" x="1296" y="1018.832">
    Service unavailable
  </text>
  <text fill="red" font-family="sans-serif" font-size="13" font-weight="bold" lengthAdjust="spacingAndGlyphs" textLength="82" x="1134" y="1033.965">
    Error code:
  </text>
  <text fill="red" font-family="sans-serif" font-size="13" lengthAdjust="spacingAndGlyphs" textLength="36" x="1220" y="1033.965">
    2001/
  </text>
  <text fill="red" font-family="sans-serif" font-size="13" font-weight="bold" lengthAdjust="spacingAndGlyphs" textLength="36" x="1256" y="1033.965">
    Msg:
  </text>
  <text fill="red" font-family="sans-serif" font-size="13" lengthAdjust="spacingAndGlyphs" textLength="129" x="1296" y="1033.965">
    Internal Server Error
  </text>
  <path fill="#A80036" stroke="#a80036" d="M1735 1064.164l10 4-10 4 4-4z"/>
  <path stroke="#a80036" d="M1456 1068.164h285"/>
  <text font-family="sans-serif" font-size="13" font-weight="bold" lengthAdjust="spacingAndGlyphs" textLength="18" x="1463" y="1063.098">
    18
  </text>
  <text font-family="sans-serif" font-size="13" lengthAdjust="spacingAndGlyphs" textLength="207" x="1485" y="1063.098">
    Persist Participant limits/position
  </text>
  <path fill="#FFFFE0" filter="url(#a)" stroke="#a80036" d="M1691 1111.164h122l10 19-10 19h-122l-10-19 10-19z"/>
  <text font-family="sans-serif" font-size="13" lengthAdjust="spacingAndGlyphs" textLength="118" x="1693" y="1127.231">
    participantPosition
  </text>
  <text font-family="sans-serif" font-size="13" lengthAdjust="spacingAndGlyphs" textLength="99" x="1693" y="1142.364">
    participantLimit
  </text>
  <path fill="#A80036" stroke="#a80036" d="M1116 1171.563l-10 4 10 4-4-4z"/>
  <path stroke="#a80036" stroke-dasharray="2,2" d="M1110 1175.563h340"/>
  <text font-family="sans-serif" font-size="13" font-weight="bold" lengthAdjust="spacingAndGlyphs" textLength="18" x="1122" y="1170.497">
    19
  </text>
  <text font-family="sans-serif" font-size="13" lengthAdjust="spacingAndGlyphs" textLength="86" x="1144" y="1170.497">
    Return status
  </text>
  <path d="M40 1190.563h64v7l-10 10H40v-17" fill="#EEE" stroke="#000"/>
  <path fill="none" stroke="#000" stroke-width="2" d="M40 1190.563h1329v317.531H40z"/>
  <text font-family="sans-serif" font-size="13" font-weight="bold" lengthAdjust="spacingAndGlyphs" textLength="19" x="55" y="1203.629">
    alt
  </text>
  <text font-family="sans-serif" font-size="11" font-weight="bold" lengthAdjust="spacingAndGlyphs" textLength="202" x="119" y="1202.773">
    [Details persisted successfully]
  </text>
  <path fill="#A80036" stroke="#a80036" d="M781 1224.828l-10 4 10 4-4-4z"/>
  <path stroke="#a80036" stroke-dasharray="2,2" d="M775 1228.828h324"/>
  <text font-family="sans-serif" font-size="13" font-weight="bold" lengthAdjust="spacingAndGlyphs" textLength="18" x="787" y="1223.762">
    20
  </text>
  <text font-family="sans-serif" font-size="13" lengthAdjust="spacingAndGlyphs" textLength="153" x="809" y="1223.762">
    Return Status Code 201
  </text>
  <path fill="#A80036" stroke="#a80036" d="M125 1253.96l-10 4 10 4-4-4z"/>
  <path stroke="#a80036" stroke-dasharray="2,2" d="M119 1257.961h640"/>
  <text font-family="sans-serif" font-size="13" font-weight="bold" lengthAdjust="spacingAndGlyphs" textLength="18" x="131" y="1252.895">
    21
  </text>
  <text font-family="sans-serif" font-size="13" lengthAdjust="spacingAndGlyphs" textLength="153" x="153" y="1252.895">
    Return Status Code 201
  </text>
  <path stroke="#000" stroke-dasharray="2,2" d="M40 1266.961h1329"/>
  <text font-family="sans-serif" font-size="11" font-weight="bold" lengthAdjust="spacingAndGlyphs" textLength="179" x="45" y="1277.171">
    [Details not persisted/Error]
  </text>
  <path d="M1110 1285.766v25h57v-15l-10-10h-47" fill="red" filter="url(#a)" stroke="#a80036"/>
  <path d="M1157 1285.766v10h10l-10-10" fill="red" stroke="#a80036"/>
  <text font-family="sans-serif" font-size="13" lengthAdjust="spacingAndGlyphs" textLength="36" x="1116" y="1302.832">
    Error!
  </text>
  <path d="M1110 1324.898v115h245v-105l-10-10h-235" fill="#FF0" filter="url(#a)" stroke="#a80036"/>
  <path d="M1345 1324.898v10h10l-10-10" fill="#FF0" stroke="#a80036"/>
  <text font-family="sans-serif" font-size="13" lengthAdjust="spacingAndGlyphs" textLength="61" x="1116" y="1341.965">
    Message:
  </text>
  <text font-family="sans-serif" font-size="13" lengthAdjust="spacingAndGlyphs" textLength="8" x="1132" y="1357.098">
    {
  </text>
  <text font-family="sans-serif" font-size="13" lengthAdjust="spacingAndGlyphs" textLength="130" x="1148" y="1372.231">
    &quot;errorInformation&quot;: {
  </text>
  <text font-family="sans-serif" font-size="13" lengthAdjust="spacingAndGlyphs" textLength="176" x="1164" y="1387.364">
    &quot;errorCode&quot;: &lt;Error Code&gt;,
  </text>
  <text font-family="sans-serif" font-size="13" lengthAdjust="spacingAndGlyphs" textLength="173" x="1164" y="1402.497">
    &quot;errorDescription&quot;: &lt;Msg&gt;,
  </text>
  <text font-family="sans-serif" font-size="13" lengthAdjust="spacingAndGlyphs" textLength="8" x="1148" y="1417.629">
    }
  </text>
  <text font-family="sans-serif" font-size="13" lengthAdjust="spacingAndGlyphs" textLength="8" x="1132" y="1432.762">
    }
  </text>
  <path fill="#A80036" stroke="#a80036" d="M781 1466.96l-10 4 10 4-4-4z"/>
  <path stroke="#a80036" stroke-dasharray="2,2" d="M775 1470.961h319"/>
  <text font-family="sans-serif" font-size="13" font-weight="bold" lengthAdjust="spacingAndGlyphs" textLength="18" x="787" y="1465.895">
    22
  </text>
  <text font-family="sans-serif" font-size="13" lengthAdjust="spacingAndGlyphs" textLength="42" x="809" y="1465.895">
    Return
  </text>
  <text fill="red" font-family="sans-serif" font-size="13" font-weight="bold" lengthAdjust="spacingAndGlyphs" textLength="77" x="855" y="1465.895">
    Error code
  </text>
  <path fill="#A80036" stroke="#a80036" d="M125 1496.094l-10 4 10 4-4-4z"/>
  <path stroke="#a80036" stroke-dasharray="2,2" d="M119 1500.094h640"/>
  <text font-family="sans-serif" font-size="13" font-weight="bold" lengthAdjust="spacingAndGlyphs" textLength="18" x="131" y="1495.028">
    23
  </text>
  <text font-family="sans-serif" font-size="13" lengthAdjust="spacingAndGlyphs" textLength="42" x="153" y="1495.028">
    Return
  </text>
  <text fill="red" font-family="sans-serif" font-size="13" font-weight="bold" lengthAdjust="spacingAndGlyphs" textLength="77" x="199" y="1495.028">
    Error code
  </text>
  <path stroke="#000" stroke-dasharray="2,2" d="M30 1516.094h1803"/>
  <text font-family="sans-serif" font-size="11" font-weight="bold" lengthAdjust="spacingAndGlyphs" textLength="209" x="35" y="1526.304">
    [position or limit exists (failure)]
  </text>
  <path d="M1110 1534.898v25h57v-15l-10-10h-47" fill="red" filter="url(#a)" stroke="#a80036"/>
  <path d="M1157 1534.898v10h10l-10-10" fill="red" stroke="#a80036"/>
  <text font-family="sans-serif" font-size="13" lengthAdjust="spacingAndGlyphs" textLength="36" x="1116" y="1551.965">
    Error!
  </text>
  <path d="M1110 1574.031v115h490v-105l-10-10h-480" fill="#FF0" filter="url(#a)" stroke="#a80036"/>
  <path d="M1590 1574.031v10h10l-10-10" fill="#FF0" stroke="#a80036"/>
  <text font-family="sans-serif" font-size="13" lengthAdjust="spacingAndGlyphs" textLength="61" x="1116" y="1591.098">
    Message:
  </text>
  <text font-family="sans-serif" font-size="13" lengthAdjust="spacingAndGlyphs" textLength="8" x="1132" y="1606.231">
    {
  </text>
  <text font-family="sans-serif" font-size="13" lengthAdjust="spacingAndGlyphs" textLength="130" x="1148" y="1621.364">
    &quot;errorInformation&quot;: {
  </text>
  <text font-family="sans-serif" font-size="13" lengthAdjust="spacingAndGlyphs" textLength="118" x="1164" y="1636.497">
    &quot;errorCode&quot;: 3200,
  </text>
  <text font-family="sans-serif" font-size="13" lengthAdjust="spacingAndGlyphs" textLength="421" x="1164" y="1651.629">
    &quot;errorDescription&quot;: &quot;Participant Limit or Initial Position already set&quot;,
  </text>
  <text font-family="sans-serif" font-size="13" lengthAdjust="spacingAndGlyphs" textLength="8" x="1148" y="1666.762">
    }
  </text>
  <text font-family="sans-serif" font-size="13" lengthAdjust="spacingAndGlyphs" textLength="8" x="1132" y="1681.895">
    }
  </text>
  <path fill="#A80036" stroke="#a80036" d="M781 1716.094l-10 4 10 4-4-4z"/>
  <path stroke="#a80036" stroke-dasharray="2,2" d="M775 1720.094h319"/>
  <text font-family="sans-serif" font-size="13" font-weight="bold" lengthAdjust="spacingAndGlyphs" textLength="18" x="787" y="1715.028">
    24
  </text>
  <text font-family="sans-serif" font-size="13" lengthAdjust="spacingAndGlyphs" textLength="42" x="809" y="1715.028">
    Return
  </text>
  <text fill="red" font-family="sans-serif" font-size="13" font-weight="bold" lengthAdjust="spacingAndGlyphs" textLength="82" x="855" y="1715.028">
    Error code:
  </text>
  <text fill="red" font-family="sans-serif" font-size="13" lengthAdjust="spacingAndGlyphs" textLength="32" x="941" y="1715.028">
    3200
  </text>
  <path fill="#A80036" stroke="#a80036" d="M125 1745.227l-10 4 10 4-4-4z"/>
  <path stroke="#a80036" stroke-dasharray="2,2" d="M119 1749.227h640"/>
  <text font-family="sans-serif" font-size="13" font-weight="bold" lengthAdjust="spacingAndGlyphs" textLength="18" x="131" y="1744.161">
    25
  </text>
  <text font-family="sans-serif" font-size="13" lengthAdjust="spacingAndGlyphs" textLength="42" x="153" y="1744.161">
    Return
  </text>
  <text fill="red" font-family="sans-serif" font-size="13" font-weight="bold" lengthAdjust="spacingAndGlyphs" textLength="82" x="199" y="1744.161">
    Error code:
  </text>
  <text fill="red" font-family="sans-serif" font-size="13" lengthAdjust="spacingAndGlyphs" textLength="32" x="285" y="1744.161">
    3200
  </text>
  <path stroke="#000" stroke-dasharray="2,2" d="M20 1765.227h1823"/>
  <text font-family="sans-serif" font-size="11" font-weight="bold" lengthAdjust="spacingAndGlyphs" textLength="193" x="25" y="1775.437">
    [Validate participant (failure)]
  </text>
  <path d="M1110 1784.031v25h132v-15l-10-10h-122" fill="red" filter="url(#a)" stroke="#a80036"/>
  <path d="M1232 1784.031v10h10l-10-10" fill="red" stroke="#a80036"/>
  <text font-family="sans-serif" font-size="13" lengthAdjust="spacingAndGlyphs" textLength="111" x="1116" y="1801.098">
    Validation failure!
  </text>
  <path d="M1110 1823.164v115h313v-105l-10-10h-303" fill="#FF0" filter="url(#a)" stroke="#a80036"/>
  <path d="M1413 1823.164v10h10l-10-10" fill="#FF0" stroke="#a80036"/>
  <text font-family="sans-serif" font-size="13" lengthAdjust="spacingAndGlyphs" textLength="61" x="1116" y="1840.231">
    Message:
  </text>
  <text font-family="sans-serif" font-size="13" lengthAdjust="spacingAndGlyphs" textLength="8" x="1132" y="1855.364">
    {
  </text>
  <text font-family="sans-serif" font-size="13" lengthAdjust="spacingAndGlyphs" textLength="130" x="1148" y="1870.497">
    &quot;errorInformation&quot;: {
  </text>
  <text font-family="sans-serif" font-size="13" lengthAdjust="spacingAndGlyphs" textLength="118" x="1164" y="1885.629">
    &quot;errorCode&quot;: 3200,
  </text>
  <text font-family="sans-serif" font-size="13" lengthAdjust="spacingAndGlyphs" textLength="244" x="1164" y="1900.762">
    &quot;errorDescription&quot;: &quot;FSP id Not Found&quot;,
  </text>
  <text font-family="sans-serif" font-size="13" lengthAdjust="spacingAndGlyphs" textLength="8" x="1148" y="1915.895">
    }
  </text>
  <text font-family="sans-serif" font-size="13" lengthAdjust="spacingAndGlyphs" textLength="8" x="1132" y="1931.028">
    }
  </text>
  <path fill="#A80036" stroke="#a80036" d="M781 1965.227l-10 4 10 4-4-4z"/>
  <path stroke="#a80036" stroke-dasharray="2,2" d="M775 1969.227h324"/>
  <text font-family="sans-serif" font-size="13" font-weight="bold" lengthAdjust="spacingAndGlyphs" textLength="18" x="787" y="1964.161">
    26
  </text>
  <text font-family="sans-serif" font-size="13" lengthAdjust="spacingAndGlyphs" textLength="42" x="809" y="1964.161">
    Return
  </text>
  <text fill="red" font-family="sans-serif" font-size="13" font-weight="bold" lengthAdjust="spacingAndGlyphs" textLength="82" x="855" y="1964.161">
    Error code:
  </text>
  <text fill="red" font-family="sans-serif" font-size="13" lengthAdjust="spacingAndGlyphs" textLength="32" x="941" y="1964.161">
    3200
  </text>
  <path fill="#A80036" stroke="#a80036" d="M125 1994.36l-10 4 10 4-4-4z"/>
  <path stroke="#a80036" stroke-dasharray="2,2" d="M119 1998.359h640"/>
  <text font-family="sans-serif" font-size="13" font-weight="bold" lengthAdjust="spacingAndGlyphs" textLength="18" x="131" y="1993.293">
    27
  </text>
  <text font-family="sans-serif" font-size="13" lengthAdjust="spacingAndGlyphs" textLength="42" x="153" y="1993.293">
    Return
  </text>
  <text fill="red" font-family="sans-serif" font-size="13" font-weight="bold" lengthAdjust="spacingAndGlyphs" textLength="82" x="199" y="1993.293">
    Error code:
  </text>
  <text fill="red" font-family="sans-serif" font-size="13" lengthAdjust="spacingAndGlyphs" textLength="32" x="285" y="1993.293">
    3200
  </text>
</svg>
