<svg xmlns="http://www.w3.org/2000/svg" height="1465" preserveAspectRatio="none" style="width:1963px;height:1465px" width="1963">
  <defs>
    <filter height="300%" id="a" width="300%" x="-1" y="-1">
      <feGaussianBlur result="blurOut" stdDeviation="2"/>
      <feColorMatrix in="blurOut" result="blurOut2" values="0 0 0 0 0 0 0 0 0 0 0 0 0 0 0 0 0 0 .4 0"/>
      <feOffset dx="4" dy="4" in="blurOut2" result="blurOut3"/>
      <feBlend in="SourceGraphic" in2="blurOut3"/>
    </filter>
  </defs>
  <text font-family="sans-serif" font-size="18" lengthAdjust="spacingAndGlyphs" textLength="448" x="755.5" y="28.708">
    2.2.0. DFSP2 sends a Fulfil Reject Transfer request
  </text>
  <path fill="#D3D3D3" stroke="#a80036" d="M1 40.953h204v1418.555H1z"/>
  <text font-family="sans-serif" font-size="13" font-weight="bold" lengthAdjust="spacingAndGlyphs" textLength="198" x="4" y="53.02">
    Financial Service Providers
  </text>
  <path fill="#ADD8E6" stroke="#a80036" d="M352 40.953h568v1418.555H352z"/>
  <text font-family="sans-serif" font-size="13" font-weight="bold" lengthAdjust="spacingAndGlyphs" textLength="173" x="549.5" y="53.02">
    ML API Adapter Service
  </text>
  <path fill="#FFFFE0" stroke="#a80036" d="M922 40.953h633.5v1418.555H922z"/>
  <text font-family="sans-serif" font-size="13" font-weight="bold" lengthAdjust="spacingAndGlyphs" textLength="111" x="1183.25" y="53.02">
    Central Service
  </text>
  <path fill="#FFF" filter="url(#a)" stroke="#a80036" d="M405 662.664h10v543.719h-10zM796 169.68h10v1178.234h-10zM1112.5 1105.984h10v71.266h-10zM1478.5 169.68h10v1178.234h-10z"/>
  <path fill="#FFF" filter="url(#a)" stroke="#000" stroke-width="2" d="M98 176.68h1851v1163.234H98z"/>
  <path stroke="#a80036" stroke-dasharray="5,5" d="M72 159.68v1197.234M134 159.68v1197.234M410 159.68v1197.234M801 159.68v1197.234M993 159.68v1197.234M1117 159.68v1197.234M1483.5 159.68v1197.234"/>
  <text font-family="sans-serif" font-size="14" lengthAdjust="spacingAndGlyphs" textLength="46" x="46" y="140.081">
    DFSP1
  </text>
  <text font-family="sans-serif" font-size="14" lengthAdjust="spacingAndGlyphs" textLength="38" x="50" y="156.378">
    Payer
  </text>
  <circle cx="72" cy="70.086" fill="#FEFECE" filter="url(#a)" stroke="#a80036" stroke-width="2" r="8"/>
  <path d="M72 78.086v27m-13-19h26m-13 19l-13 15m13-15l13 15" fill="none" filter="url(#a)" stroke="#a80036" stroke-width="2"/>
  <text font-family="sans-serif" font-size="14" lengthAdjust="spacingAndGlyphs" textLength="46" x="46" y="1368.909">
    DFSP1
  </text>
  <text font-family="sans-serif" font-size="14" lengthAdjust="spacingAndGlyphs" textLength="38" x="50" y="1385.206">
    Payer
  </text>
  <circle cx="72" cy="1398.508" fill="#FEFECE" filter="url(#a)" stroke="#a80036" stroke-width="2" r="8"/>
  <path d="M72 1406.508v27m-13-19h26m-13 19l-13 15m13-15l13 15" fill="none" filter="url(#a)" stroke="#a80036" stroke-width="2"/>
  <text font-family="sans-serif" font-size="14" lengthAdjust="spacingAndGlyphs" textLength="46" x="108" y="140.081">
    DFSP2
  </text>
  <text font-family="sans-serif" font-size="14" lengthAdjust="spacingAndGlyphs" textLength="42" x="110" y="156.378">
    Payee
  </text>
  <circle cx="134" cy="70.086" fill="#FEFECE" filter="url(#a)" stroke="#a80036" stroke-width="2" r="8"/>
  <path d="M134 78.086v27m-13-19h26m-13 19l-13 15m13-15l13 15" fill="none" filter="url(#a)" stroke="#a80036" stroke-width="2"/>
  <text font-family="sans-serif" font-size="14" lengthAdjust="spacingAndGlyphs" textLength="46" x="108" y="1368.909">
    DFSP2
  </text>
  <text font-family="sans-serif" font-size="14" lengthAdjust="spacingAndGlyphs" textLength="42" x="110" y="1385.206">
    Payee
  </text>
  <circle cx="134" cy="1398.508" fill="#FEFECE" filter="url(#a)" stroke="#a80036" stroke-width="2" r="8"/>
  <path d="M134 1406.508v27m-13-19h26m-13 19l-13 15m13-15l13 15" fill="none" filter="url(#a)" stroke="#a80036" stroke-width="2"/>
  <text font-family="sans-serif" font-size="14" lengthAdjust="spacingAndGlyphs" textLength="102" x="356" y="156.378">
    ML API Adapter
  </text>
  <path d="M389.5 115.383v24m0-12h17" fill="none" filter="url(#a)" stroke="#a80036" stroke-width="2"/>
  <circle cx="418.5" cy="127.383" fill="#FEFECE" filter="url(#a)" stroke="#a80036" stroke-width="2" r="12"/>
  <text font-family="sans-serif" font-size="14" lengthAdjust="spacingAndGlyphs" textLength="102" x="356" y="1368.909">
    ML API Adapter
  </text>
  <path d="M389.5 1376.21v24m0-12h17" fill="none" filter="url(#a)" stroke="#a80036" stroke-width="2"/>
  <circle cx="418.5" cy="1388.211" fill="#FEFECE" filter="url(#a)" stroke="#a80036" stroke-width="2" r="12"/>
  <text font-family="sans-serif" font-size="14" lengthAdjust="spacingAndGlyphs" textLength="224" x="686" y="156.378">
    ML API Notification Event Handler
  </text>
  <circle cx="801" cy="127.383" fill="#FEFECE" filter="url(#a)" stroke="#a80036" stroke-width="2" r="12"/>
  <path fill="#A80036" stroke="#a80036" d="M797 115.383l6-5-2 5 2 5-6-5z"/>
  <text font-family="sans-serif" font-size="14" lengthAdjust="spacingAndGlyphs" textLength="224" x="686" y="1368.909">
    ML API Notification Event Handler
  </text>
  <circle cx="801" cy="1388.211" fill="#FEFECE" filter="url(#a)" stroke="#a80036" stroke-width="2" r="12"/>
  <path fill="#A80036" stroke="#a80036" d="M797 1376.21l6-5-2 5 2 5-6-5z"/>
  <text font-family="sans-serif" font-size="14" lengthAdjust="spacingAndGlyphs" textLength="128" x="926" y="156.378">
    Central Service API
  </text>
  <path d="M972.5 115.383v24m0-12h17" fill="none" filter="url(#a)" stroke="#a80036" stroke-width="2"/>
  <circle cx="1001.5" cy="127.383" fill="#FEFECE" filter="url(#a)" stroke="#a80036" stroke-width="2" r="12"/>
  <text font-family="sans-serif" font-size="14" lengthAdjust="spacingAndGlyphs" textLength="128" x="926" y="1368.909">
    Central Service API
  </text>
  <path d="M972.5 1376.21v24m0-12h17" fill="none" filter="url(#a)" stroke="#a80036" stroke-width="2"/>
  <circle cx="1001.5" cy="1388.211" fill="#FEFECE" filter="url(#a)" stroke="#a80036" stroke-width="2" r="12"/>
  <path fill="#FEFECE" filter="url(#a)" stroke="#a80036" stroke-width="1.5" d="M1074 120.383h87v30.297h-87z"/>
  <path fill="#FEFECE" filter="url(#a)" stroke="#a80036" stroke-width="1.5" d="M1070 124.383h87v30.297h-87z"/>
  <text font-family="sans-serif" font-size="14" lengthAdjust="spacingAndGlyphs" textLength="73" x="1077" y="144.378">
    Fulfil-Topic
  </text>
  <path fill="#FEFECE" filter="url(#a)" stroke="#a80036" stroke-width="1.5" d="M1074 1355.914h87v30.297h-87z"/>
  <path fill="#FEFECE" filter="url(#a)" stroke="#a80036" stroke-width="1.5" d="M1070 1359.914h87v30.297h-87z"/>
  <text font-family="sans-serif" font-size="14" lengthAdjust="spacingAndGlyphs" textLength="73" x="1077" y="1379.909">
    Fulfil-Topic
  </text>
  <text font-family="sans-serif" font-size="14" lengthAdjust="spacingAndGlyphs" textLength="130" x="1415.5" y="156.378">
    Fulfil Event Handler
  </text>
  <circle cx="1483.5" cy="127.383" fill="#FEFECE" filter="url(#a)" stroke="#a80036" stroke-width="2" r="12"/>
  <path fill="#A80036" stroke="#a80036" d="M1479.5 115.383l6-5-2 5 2 5-6-5z"/>
  <text font-family="sans-serif" font-size="14" lengthAdjust="spacingAndGlyphs" textLength="130" x="1415.5" y="1368.909">
    Fulfil Event Handler
  </text>
  <circle cx="1483.5" cy="1388.211" fill="#FEFECE" filter="url(#a)" stroke="#a80036" stroke-width="2" r="12"/>
  <path fill="#A80036" stroke="#a80036" d="M1479.5 1376.21l6-5-2 5 2 5-6-5z"/>
  <path fill="#FFF" filter="url(#a)" stroke="#a80036" d="M405 662.664h10v543.719h-10zM796 169.68h10v1178.234h-10zM1112.5 1105.984h10v71.266h-10zM1478.5 169.68h10v1178.234h-10z"/>
  <path d="M98 176.68h676v7l-10 10H98v-17" fill="#EEE" stroke="#000"/>
  <path fill="none" stroke="#000" stroke-width="2" d="M98 176.68h1851v1163.234H98z"/>
  <text font-family="sans-serif" font-size="13" font-weight="bold" lengthAdjust="spacingAndGlyphs" textLength="631" x="113" y="189.747">
    DFSP2 sends an error callback to reject a transfer with an errorCode and description
  </text>
  <path d="M139 198.813v433h337v-423l-10-10H139" fill="#FF0" filter="url(#a)" stroke="#a80036"/>
  <path d="M466 198.813v10h10l-10-10" fill="#FF0" stroke="#a80036"/>
  <text font-family="sans-serif" font-size="13" lengthAdjust="spacingAndGlyphs" textLength="187" x="145" y="215.879">
    Headers - transferHeaders: {
  </text>
  <text font-family="sans-serif" font-size="13" lengthAdjust="spacingAndGlyphs" textLength="234" x="161" y="231.012">
    Content-Length: &lt;Content-Length&gt;,
  </text>
  <text font-family="sans-serif" font-size="13" lengthAdjust="spacingAndGlyphs" textLength="206" x="161" y="246.145">
    Content-Type: &lt;Content-Type&gt;,
  </text>
  <text font-family="sans-serif" font-size="13" lengthAdjust="spacingAndGlyphs" textLength="96" x="161" y="261.278">
    Date: &lt;Date&gt;,
  </text>
  <text font-family="sans-serif" font-size="13" lengthAdjust="spacingAndGlyphs" textLength="242" x="161" y="276.411">
    X-Forwarded-For: &lt;X-Forwarded-For&gt;,
  </text>
  <text font-family="sans-serif" font-size="13" lengthAdjust="spacingAndGlyphs" textLength="224" x="161" y="291.543">
    FSPIOP-Source: &lt;FSPIOP-Source&gt;,
  </text>
  <text font-family="sans-serif" font-size="13" lengthAdjust="spacingAndGlyphs" textLength="280" x="161" y="306.676">
    FSPIOP-Destination: &lt;FSPIOP-Destination&gt;,
  </text>
  <text font-family="sans-serif" font-size="13" lengthAdjust="spacingAndGlyphs" textLength="268" x="161" y="321.809">
    FSPIOP-Encryption: &lt;FSPIOP-Encryption&gt;,
  </text>
  <text font-family="sans-serif" font-size="13" lengthAdjust="spacingAndGlyphs" textLength="258" x="161" y="336.942">
    FSPIOP-Signature: &lt;FSPIOP-Signature&gt;,
  </text>
  <text font-family="sans-serif" font-size="13" lengthAdjust="spacingAndGlyphs" textLength="176" x="161" y="352.075">
    FSPIOP-URI: &lt;FSPIOP-URI&gt;,
  </text>
  <text font-family="sans-serif" font-size="13" lengthAdjust="spacingAndGlyphs" textLength="300" x="161" y="367.207">
    FSPIOP-HTTP-Method: &lt;FSPIOP-HTTP-Method&gt;
  </text>
  <text font-family="sans-serif" font-size="13" lengthAdjust="spacingAndGlyphs" textLength="8" x="145" y="382.34">
    }
  </text>
  <text font-family="sans-serif" font-size="13" lengthAdjust="spacingAndGlyphs" textLength="174" x="145" y="412.606">
    Payload - transferMessage:
  </text>
  <text font-family="sans-serif" font-size="13" lengthAdjust="spacingAndGlyphs" textLength="8" x="145" y="427.739">
    {
  </text>
  <text font-family="sans-serif" font-size="13" lengthAdjust="spacingAndGlyphs" textLength="130" x="161" y="442.872">
    &quot;errorInformation&quot;: {
  </text>
  <text font-family="sans-serif" font-size="13" lengthAdjust="spacingAndGlyphs" textLength="172" x="177" y="458.004">
    &quot;errorCode&quot;: &lt;errorCode&gt;,
  </text>
  <text font-family="sans-serif" font-size="13" lengthAdjust="spacingAndGlyphs" textLength="250" x="177" y="473.137">
    &quot;errorDescription&quot;: &lt;errorDescription&gt;,
  </text>
  <text font-family="sans-serif" font-size="13" lengthAdjust="spacingAndGlyphs" textLength="110" x="177" y="488.27">
    &quot;extensionList&quot;: {
  </text>
  <text font-family="sans-serif" font-size="13" lengthAdjust="spacingAndGlyphs" textLength="85" x="193" y="503.403">
    &quot;extension&quot;: [
  </text>
  <text font-family="sans-serif" font-size="13" lengthAdjust="spacingAndGlyphs" textLength="8" x="209" y="518.536">
    {
  </text>
  <text font-family="sans-serif" font-size="13" lengthAdjust="spacingAndGlyphs" textLength="102" x="225" y="533.668">
    &quot;key&quot;: &lt;string&gt;,
  </text>
  <text font-family="sans-serif" font-size="13" lengthAdjust="spacingAndGlyphs" textLength="110" x="225" y="548.801">
    &quot;value&quot;: &lt;string&gt;
  </text>
  <text font-family="sans-serif" font-size="13" lengthAdjust="spacingAndGlyphs" textLength="8" x="209" y="563.934">
    }
  </text>
  <text font-family="sans-serif" font-size="13" lengthAdjust="spacingAndGlyphs" textLength="5" x="193" y="579.067">
    ]
  </text>
  <text font-family="sans-serif" font-size="13" lengthAdjust="spacingAndGlyphs" textLength="8" x="177" y="594.2">
    }
  </text>
  <text font-family="sans-serif" font-size="13" lengthAdjust="spacingAndGlyphs" textLength="8" x="161" y="609.332">
    }
  </text>
  <text font-family="sans-serif" font-size="13" lengthAdjust="spacingAndGlyphs" textLength="8" x="145" y="624.465">
    }
  </text>
  <path stroke="#a80036" d="M403 662.664l-10-4M403 662.664l-10 4M134 662.664h270"/>
  <text font-family="sans-serif" font-size="13" font-weight="bold" lengthAdjust="spacingAndGlyphs" textLength="9" x="141" y="657.598">
    1
  </text>
  <text font-family="sans-serif" font-size="13" font-weight="bold" lengthAdjust="spacingAndGlyphs" textLength="198" x="154" y="657.598">
    PUT - /transfers/&lt;ID&gt;/error
  </text>
  <path stroke="#a80036" d="M415 691.797h42M457 691.797v13M416 704.797h41"/>
  <path fill="#A80036" stroke="#a80036" d="M426 700.797l-10 4 10 4-4-4z"/>
  <text font-family="sans-serif" font-size="13" font-weight="bold" lengthAdjust="spacingAndGlyphs" textLength="9" x="422" y="686.731">
    2
  </text>
  <text font-family="sans-serif" font-size="13" lengthAdjust="spacingAndGlyphs" textLength="354" x="435" y="686.731">
    Validate incoming token and originator matching Payee
  </text>
  <path d="M420 717.797v358h315v-348l-10-10H420" fill="#FF0" filter="url(#a)" stroke="#a80036"/>
  <path d="M725 717.797v10h10l-10-10" fill="#FF0" stroke="#a80036"/>
  <text font-family="sans-serif" font-size="13" lengthAdjust="spacingAndGlyphs" textLength="61" x="426" y="734.864">
    Message:
  </text>
  <text font-family="sans-serif" font-size="13" lengthAdjust="spacingAndGlyphs" textLength="8" x="426" y="749.997">
    {
  </text>
  <text font-family="sans-serif" font-size="13" lengthAdjust="spacingAndGlyphs" textLength="58" x="442" y="765.129">
    id: &lt;ID&gt;,
  </text>
  <text font-family="sans-serif" font-size="13" lengthAdjust="spacingAndGlyphs" textLength="267" x="442" y="780.262">
    from: &lt;transferHeaders.FSPIOP-Source&gt;,
  </text>
  <text font-family="sans-serif" font-size="13" lengthAdjust="spacingAndGlyphs" textLength="278" x="442" y="795.395">
    to: &lt;transferHeaders.FSPIOP-Destination&gt;,
  </text>
  <text font-family="sans-serif" font-size="13" lengthAdjust="spacingAndGlyphs" textLength="139" x="442" y="810.528">
    type: application/json,
  </text>
  <text font-family="sans-serif" font-size="13" lengthAdjust="spacingAndGlyphs" textLength="65" x="442" y="825.661">
    content: {
  </text>
  <text font-family="sans-serif" font-size="13" lengthAdjust="spacingAndGlyphs" textLength="190" x="458" y="840.793">
    headers: &lt;transferHeaders&gt;,
  </text>
  <text font-family="sans-serif" font-size="13" lengthAdjust="spacingAndGlyphs" textLength="187" x="458" y="855.926">
    payload: &lt;transferMessage&gt;
  </text>
  <text font-family="sans-serif" font-size="13" lengthAdjust="spacingAndGlyphs" textLength="12" x="442" y="871.059">
    },
  </text>
  <text font-family="sans-serif" font-size="13" lengthAdjust="spacingAndGlyphs" textLength="79" x="442" y="886.192">
    metadata: {
  </text>
  <text font-family="sans-serif" font-size="13" lengthAdjust="spacingAndGlyphs" textLength="52" x="458" y="901.325">
    event: {
  </text>
  <text font-family="sans-serif" font-size="13" lengthAdjust="spacingAndGlyphs" textLength="72" x="474" y="916.457">
    id: &lt;uuid&gt;,
  </text>
  <text font-family="sans-serif" font-size="13" lengthAdjust="spacingAndGlyphs" textLength="65" x="474" y="931.59">
    type: fulfil,
  </text>
  <text font-family="sans-serif" font-size="13" lengthAdjust="spacingAndGlyphs" textLength="87" x="474" y="946.723">
    action: reject,
  </text>
  <text font-family="sans-serif" font-size="13" lengthAdjust="spacingAndGlyphs" textLength="167" x="474" y="961.856">
    createdAt: &lt;timestamp&gt;,
  </text>
  <text font-family="sans-serif" font-size="13" lengthAdjust="spacingAndGlyphs" textLength="49" x="474" y="976.989">
    state: {
  </text>
  <text font-family="sans-serif" font-size="13" lengthAdjust="spacingAndGlyphs" textLength="113" x="490" y="992.122">
    status: &quot;success&quot;,
  </text>
  <text font-family="sans-serif" font-size="13" lengthAdjust="spacingAndGlyphs" textLength="47" x="490" y="1007.254">
    code: 0
  </text>
  <text font-family="sans-serif" font-size="13" lengthAdjust="spacingAndGlyphs" textLength="8" x="474" y="1022.387">
    }
  </text>
  <text font-family="sans-serif" font-size="13" lengthAdjust="spacingAndGlyphs" textLength="8" x="458" y="1037.52">
    }
  </text>
  <text font-family="sans-serif" font-size="13" lengthAdjust="spacingAndGlyphs" textLength="8" x="442" y="1052.653">
    }
  </text>
  <text font-family="sans-serif" font-size="13" lengthAdjust="spacingAndGlyphs" textLength="8" x="426" y="1067.786">
    }
  </text>
  <path fill="#A80036" stroke="#a80036" d="M1100.5 1101.984l10 4-10 4 4-4z"/>
  <path stroke="#a80036" d="M415 1105.984h691.5"/>
  <text font-family="sans-serif" font-size="13" font-weight="bold" lengthAdjust="spacingAndGlyphs" textLength="9" x="422" y="1100.918">
    3
  </text>
  <text font-family="sans-serif" font-size="13" lengthAdjust="spacingAndGlyphs" textLength="237" x="435" y="1100.918">
    Route &amp; Publish Fulfil event for Payee
  </text>
  <path stroke="#a80036" d="M1122.5 1135.117h42M1164.5 1135.117v13M1123.5 1148.117h41"/>
  <path fill="#A80036" stroke="#a80036" d="M1133.5 1144.117l-10 4 10 4-4-4z"/>
  <text font-family="sans-serif" font-size="13" font-weight="bold" lengthAdjust="spacingAndGlyphs" textLength="9" x="1129.5" y="1130.051">
    4
  </text>
  <text font-family="sans-serif" font-size="13" lengthAdjust="spacingAndGlyphs" textLength="329" x="1142.5" y="1130.051">
    Ensure event is replicated as configured (ACKS=all)
  </text>
  <path fill="#A80036" stroke="#a80036" d="M426 1173.25l-10 4 10 4-4-4z"/>
  <path stroke="#a80036" stroke-dasharray="2,2" d="M420 1177.25h696.5"/>
  <text font-family="sans-serif" font-size="13" font-weight="bold" lengthAdjust="spacingAndGlyphs" textLength="9" x="432" y="1172.184">
    5
  </text>
  <text font-family="sans-serif" font-size="13" lengthAdjust="spacingAndGlyphs" textLength="381" x="445" y="1172.184">
    Respond replication acknowledgements have been received
  </text>
  <path stroke="#a80036" d="M134 1206.383l10-4M134 1206.383l10 4"/>
  <path stroke="#a80036" stroke-dasharray="2,2" d="M134 1206.383h275"/>
  <text font-family="sans-serif" font-size="13" font-weight="bold" lengthAdjust="spacingAndGlyphs" textLength="9" x="151" y="1201.317">
    6
  </text>
  <text font-family="sans-serif" font-size="13" lengthAdjust="spacingAndGlyphs" textLength="160" x="164" y="1201.317">
    Respond HTTP - 200 (OK)
  </text>
  <path fill="#A80036" stroke="#a80036" d="M1128.5 1231.516l-10 4 10 4-4-4z"/>
  <path stroke="#a80036" d="M1122.5 1235.516h355"/>
  <text font-family="sans-serif" font-size="13" font-weight="bold" lengthAdjust="spacingAndGlyphs" textLength="9" x="1134.5" y="1230.45">
    7
  </text>
  <text font-family="sans-serif" font-size="13" lengthAdjust="spacingAndGlyphs" textLength="124" x="1147.5" y="1230.45">
    Consume message
  </text>
  <path stroke="#a80036" d="M1488.5 1264.648h42M1530.5 1264.648v13M1489.5 1277.648h41"/>
  <path fill="#A80036" stroke="#a80036" d="M1499.5 1273.648l-10 4 10 4-4-4z"/>
  <text font-family="sans-serif" font-size="13" font-weight="bold" lengthAdjust="spacingAndGlyphs" textLength="9" x="1495.5" y="1259.582">
    8
  </text>
  <text font-family="sans-serif" font-size="13" lengthAdjust="spacingAndGlyphs" textLength="121" x="1508.5" y="1259.582">
    Log error message
  </text>
  <path d="M1493 1290.648v40h442v-30l-10-10h-432" fill="#FBFB77" filter="url(#a)" stroke="#a80036"/>
  <path d="M1925 1290.648v10h10l-10-10" fill="#FBFB77" stroke="#a80036"/>
  <text font-family="sans-serif" font-size="13" lengthAdjust="spacingAndGlyphs" textLength="421" x="1499" y="1307.715">
    (corresponding to a Fulfil message with transferState=&apos;ABORTED&apos;)
  </text>
  <text font-family="sans-serif" font-size="13" lengthAdjust="spacingAndGlyphs" textLength="285" x="1499" y="1322.848">
    action REJECT is not allowed into fulfil handler
  </text>
</svg>
