<?xml version="1.0" encoding="UTF-8" standalone="no"?>
<svg xmlns="http://www.w3.org/2000/svg" xmlns:xlink="http://www.w3.org/1999/xlink" contentScriptType="application/ecmascript" contentStyleType="text/css" height="780px" preserveAspectRatio="none" style="width:1769px;height:780px;" version="1.1" viewBox="0 0 1769 780" width="1769px" zoomAndPan="magnify">
  <defs>
    <filter height="300%" id="f11a4q7tqw99mx" width="300%" x="-1" y="-1">
      <feGaussianBlur result="blurOut" stdDeviation="2.0"/>
      <feColorMatrix in="blurOut" result="blurOut2" type="matrix" values="0 0 0 0 0 0 0 0 0 0 0 0 0 0 0 0 0 0 .4 0"/>
      <feOffset dx="4.0" dy="4.0" in="blurOut2" result="blurOut3"/>
      <feBlend in="SourceGraphic" in2="blurOut3" mode="normal"/>
    </filter>
  </defs>
  <g>
    <text fill="#000000" font-family="sans-serif" font-size="18" lengthAdjust="spacingAndGlyphs" textLength="287" x="738.5" y="28.708">1.3.0. Position Messages Binning</text>
    <rect fill="#FFFFE0" height="733.25" style="stroke:#A80036;stroke-width:1.0;" width="1737" x="26" y="40.9531"/>
    <text fill="#000000" font-family="sans-serif" font-size="13" font-weight="bold" lengthAdjust="spacingAndGlyphs" textLength="111" x="839" y="53.02">Central Service</text>
    <rect fill="#FFFFFF" filter="url(#f11a4q7tqw99mx)" height="594.5234" style="stroke:#A80036;stroke-width:1.0;" width="10" x="84" y="118.3828"/>
    <rect fill="#FFFFFF" filter="url(#f11a4q7tqw99mx)" height="29.1328" style="stroke:#A80036;stroke-width:1.0;" width="10" x="1055" y="415.7109"/>
    <rect fill="#FFFFFF" filter="url(#f11a4q7tqw99mx)" height="29.1328" style="stroke:#A80036;stroke-width:1.0;" width="10" x="1216.5" y="473.9766"/>
    <rect fill="#FFFFFF" filter="url(#f11a4q7tqw99mx)" height="29.1328" style="stroke:#A80036;stroke-width:1.0;" width="10" x="1391.5" y="532.2422"/>
    <rect fill="#FFFFFF" filter="url(#f11a4q7tqw99mx)" height="29.1328" style="stroke:#A80036;stroke-width:1.0;" width="10" x="1546" y="590.5078"/>
    <rect fill="#FFFFFF" filter="url(#f11a4q7tqw99mx)" height="580.5234" style="stroke:#000000;stroke-width:2.0;" width="1618" x="10" y="125.3828"/>
    <rect fill="#FFFFFF" filter="url(#f11a4q7tqw99mx)" height="492.125" style="stroke:#000000;stroke-width:2.0;" width="1598" x="20" y="206.7813"/>
    <line style="stroke:#A80036;stroke-width:1.0;stroke-dasharray:5.0,5.0;" x1="89" x2="89" y1="108.3828" y2="722.9063"/>
    <line style="stroke:#A80036;stroke-width:1.0;stroke-dasharray:5.0,5.0;" x1="640" x2="640" y1="108.3828" y2="722.9063"/>
    <line style="stroke:#A80036;stroke-width:1.0;stroke-dasharray:5.0,5.0;" x1="1060" x2="1060" y1="108.3828" y2="722.9063"/>
    <line style="stroke:#A80036;stroke-width:1.0;stroke-dasharray:5.0,5.0;" x1="1221" x2="1221" y1="108.3828" y2="722.9063"/>
    <line style="stroke:#A80036;stroke-width:1.0;stroke-dasharray:5.0,5.0;" x1="1396" x2="1396" y1="108.3828" y2="722.9063"/>
    <line style="stroke:#A80036;stroke-width:1.0;stroke-dasharray:5.0,5.0;" x1="1551" x2="1551" y1="108.3828" y2="722.9063"/>
    <line style="stroke:#A80036;stroke-width:1.0;stroke-dasharray:5.0,5.0;" x1="1688" x2="1688" y1="108.3828" y2="722.9063"/>
    <text fill="#000000" font-family="sans-serif" font-size="14" lengthAdjust="spacingAndGlyphs" textLength="112" x="30" y="105.0811">Position Handler</text>
    <ellipse cx="89" cy="76.0859" fill="#FEFECE" filter="url(#f11a4q7tqw99mx)" rx="12" ry="12" style="stroke:#A80036;stroke-width:2.0;"/>
    <polygon fill="#A80036" points="85,64.0859,91,59.0859,89,64.0859,91,69.0859,85,64.0859" style="stroke:#A80036;stroke-width:1.0;"/>
    <text fill="#000000" font-family="sans-serif" font-size="14" lengthAdjust="spacingAndGlyphs" textLength="112" x="30" y="734.9014">Position Handler</text>
    <ellipse cx="89" cy="754.2031" fill="#FEFECE" filter="url(#f11a4q7tqw99mx)" rx="12" ry="12" style="stroke:#A80036;stroke-width:2.0;"/>
    <polygon fill="#A80036" points="85,742.2031,91,737.2031,89,742.2031,91,747.2031,85,742.2031" style="stroke:#A80036;stroke-width:1.0;"/>
    <text fill="#000000" font-family="sans-serif" font-size="14" lengthAdjust="spacingAndGlyphs" textLength="96" x="589" y="105.0811">Bin Processor</text>
    <ellipse cx="640" cy="76.0859" fill="#FEFECE" filter="url(#f11a4q7tqw99mx)" rx="12" ry="12" style="stroke:#A80036;stroke-width:2.0;"/>
    <line style="stroke:#A80036;stroke-width:2.0;" x1="628" x2="652" y1="90.0859" y2="90.0859"/>
    <text fill="#000000" font-family="sans-serif" font-size="14" lengthAdjust="spacingAndGlyphs" textLength="96" x="589" y="734.9014">Bin Processor</text>
    <ellipse cx="640" cy="754.2031" fill="#FEFECE" filter="url(#f11a4q7tqw99mx)" rx="12" ry="12" style="stroke:#A80036;stroke-width:2.0;"/>
    <line style="stroke:#A80036;stroke-width:2.0;" x1="628" x2="652" y1="768.2031" y2="768.2031"/>
    <text fill="#000000" font-family="sans-serif" font-size="14" lengthAdjust="spacingAndGlyphs" textLength="142" x="986" y="105.0811">Prepare Fulfil Facade</text>
    <ellipse cx="1060" cy="76.0859" fill="#FEFECE" filter="url(#f11a4q7tqw99mx)" rx="12" ry="12" style="stroke:#A80036;stroke-width:2.0;"/>
    <line style="stroke:#A80036;stroke-width:2.0;" x1="1048" x2="1072" y1="90.0859" y2="90.0859"/>
    <text fill="#000000" font-family="sans-serif" font-size="14" lengthAdjust="spacingAndGlyphs" textLength="142" x="986" y="734.9014">Prepare Fulfil Facade</text>
    <ellipse cx="1060" cy="754.2031" fill="#FEFECE" filter="url(#f11a4q7tqw99mx)" rx="12" ry="12" style="stroke:#A80036;stroke-width:2.0;"/>
    <line style="stroke:#A80036;stroke-width:2.0;" x1="1048" x2="1072" y1="768.2031" y2="768.2031"/>
    <text fill="#000000" font-family="sans-serif" font-size="14" lengthAdjust="spacingAndGlyphs" textLength="149" x="1144" y="105.0811">Prepare Abort Facade</text>
    <ellipse cx="1221.5" cy="76.0859" fill="#FEFECE" filter="url(#f11a4q7tqw99mx)" rx="12" ry="12" style="stroke:#A80036;stroke-width:2.0;"/>
    <line style="stroke:#A80036;stroke-width:2.0;" x1="1209.5" x2="1233.5" y1="90.0859" y2="90.0859"/>
    <text fill="#000000" font-family="sans-serif" font-size="14" lengthAdjust="spacingAndGlyphs" textLength="149" x="1144" y="734.9014">Prepare Abort Facade</text>
    <ellipse cx="1221.5" cy="754.2031" fill="#FEFECE" filter="url(#f11a4q7tqw99mx)" rx="12" ry="12" style="stroke:#A80036;stroke-width:2.0;"/>
    <line style="stroke:#A80036;stroke-width:2.0;" x1="1209.5" x2="1233.5" y1="768.2031" y2="768.2031"/>
    <text fill="#000000" font-family="sans-serif" font-size="14" lengthAdjust="spacingAndGlyphs" textLength="169" x="1309" y="105.0811">Prepare Timeout Facade</text>
    <ellipse cx="1396.5" cy="76.0859" fill="#FEFECE" filter="url(#f11a4q7tqw99mx)" rx="12" ry="12" style="stroke:#A80036;stroke-width:2.0;"/>
    <line style="stroke:#A80036;stroke-width:2.0;" x1="1384.5" x2="1408.5" y1="90.0859" y2="90.0859"/>
    <text fill="#000000" font-family="sans-serif" font-size="14" lengthAdjust="spacingAndGlyphs" textLength="169" x="1309" y="734.9014">Prepare Timeout Facade</text>
    <ellipse cx="1396.5" cy="754.2031" fill="#FEFECE" filter="url(#f11a4q7tqw99mx)" rx="12" ry="12" style="stroke:#A80036;stroke-width:2.0;"/>
    <line style="stroke:#A80036;stroke-width:2.0;" x1="1384.5" x2="1408.5" y1="768.2031" y2="768.2031"/>
    <text fill="#000000" font-family="sans-serif" font-size="14" lengthAdjust="spacingAndGlyphs" textLength="108" x="1494" y="105.0811">Prepare Facade</text>
    <ellipse cx="1551" cy="76.0859" fill="#FEFECE" filter="url(#f11a4q7tqw99mx)" rx="12" ry="12" style="stroke:#A80036;stroke-width:2.0;"/>
    <line style="stroke:#A80036;stroke-width:2.0;" x1="1539" x2="1563" y1="90.0859" y2="90.0859"/>
    <text fill="#000000" font-family="sans-serif" font-size="14" lengthAdjust="spacingAndGlyphs" textLength="108" x="1494" y="734.9014">Prepare Facade</text>
    <ellipse cx="1551" cy="754.2031" fill="#FEFECE" filter="url(#f11a4q7tqw99mx)" rx="12" ry="12" style="stroke:#A80036;stroke-width:2.0;"/>
    <line style="stroke:#A80036;stroke-width:2.0;" x1="1539" x2="1563" y1="768.2031" y2="768.2031"/>
    <rect fill="#FEFECE" filter="url(#f11a4q7tqw99mx)" height="30.2969" style="stroke:#A80036;stroke-width:1.5;" width="133" x="1622" y="69.0859"/>
    <rect fill="#FEFECE" filter="url(#f11a4q7tqw99mx)" height="30.2969" style="stroke:#A80036;stroke-width:1.5;" width="133" x="1618" y="73.0859"/>
    <text fill="#000000" font-family="sans-serif" font-size="14" lengthAdjust="spacingAndGlyphs" textLength="119" x="1625" y="93.0811">Notification-Topic</text>
    <rect fill="#FEFECE" filter="url(#f11a4q7tqw99mx)" height="30.2969" style="stroke:#A80036;stroke-width:1.5;" width="133" x="1622" y="721.9063"/>
    <rect fill="#FEFECE" filter="url(#f11a4q7tqw99mx)" height="30.2969" style="stroke:#A80036;stroke-width:1.5;" width="133" x="1618" y="725.9063"/>
    <text fill="#000000" font-family="sans-serif" font-size="14" lengthAdjust="spacingAndGlyphs" textLength="119" x="1625" y="745.9014">Notification-Topic</text>
    <rect fill="#FFFFFF" filter="url(#f11a4q7tqw99mx)" height="594.5234" style="stroke:#A80036;stroke-width:1.0;" width="10" x="84" y="118.3828"/>
    <rect fill="#FFFFFF" filter="url(#f11a4q7tqw99mx)" height="29.1328" style="stroke:#A80036;stroke-width:1.0;" width="10" x="1055" y="415.7109"/>
    <rect fill="#FFFFFF" filter="url(#f11a4q7tqw99mx)" height="29.1328" style="stroke:#A80036;stroke-width:1.0;" width="10" x="1216.5" y="473.9766"/>
    <rect fill="#FFFFFF" filter="url(#f11a4q7tqw99mx)" height="29.1328" style="stroke:#A80036;stroke-width:1.0;" width="10" x="1391.5" y="532.2422"/>
    <rect fill="#FFFFFF" filter="url(#f11a4q7tqw99mx)" height="29.1328" style="stroke:#A80036;stroke-width:1.0;" width="10" x="1546" y="590.5078"/>
    <path d="M10,125.3828 L250,125.3828 L250,132.3828 L240,142.3828 L10,142.3828 L10,125.3828 " fill="#EEEEEE" style="stroke:#000000;stroke-width:1.0;"/>
    <rect fill="none" height="580.5234" style="stroke:#000000;stroke-width:2.0;" width="1618" x="10" y="125.3828"/>
    <text fill="#000000" font-family="sans-serif" font-size="13" font-weight="bold" lengthAdjust="spacingAndGlyphs" textLength="195" x="25" y="138.4497">Position Handler Consume</text>
    <line style="stroke:#A80036;stroke-width:1.0;" x1="94" x2="136" y1="178.7813" y2="178.7813"/>
    <line style="stroke:#A80036;stroke-width:1.0;" x1="136" x2="136" y1="178.7813" y2="191.7813"/>
    <line style="stroke:#A80036;stroke-width:1.0;" x1="95" x2="136" y1="191.7813" y2="191.7813"/>
    <polygon fill="#A80036" points="105,187.7813,95,191.7813,105,195.7813,101,191.7813" style="stroke:#A80036;stroke-width:1.0;"/>
    <text fill="#000000" font-family="sans-serif" font-size="13" font-weight="bold" lengthAdjust="spacingAndGlyphs" textLength="9" x="101" y="166.1489">1</text>
    <text fill="#000000" font-family="sans-serif" font-size="13" lengthAdjust="spacingAndGlyphs" textLength="286" x="114" y="158.5825">Consumes messages from the Position topic</text>
    <text fill="#000000" font-family="sans-serif" font-size="13" lengthAdjust="spacingAndGlyphs" textLength="179" x="114" y="173.7153">and stores them in memory</text>
    <path d="M20,206.7813 L193,206.7813 L193,213.7813 L183,223.7813 L20,223.7813 L20,206.7813 " fill="#EEEEEE" style="stroke:#000000;stroke-width:1.0;"/>
    <rect fill="none" height="492.125" style="stroke:#000000;stroke-width:2.0;" width="1598" x="20" y="206.7813"/>
    <text fill="#0000FF" font-family="sans-serif" font-size="13" font-weight="bold" lengthAdjust="spacingAndGlyphs" textLength="128" x="35" y="219.8481">DB TRANSACTION</text>
    <line style="stroke:#A80036;stroke-width:1.0;" x1="94" x2="136" y1="260.1797" y2="260.1797"/>
    <line style="stroke:#A80036;stroke-width:1.0;" x1="136" x2="136" y1="260.1797" y2="273.1797"/>
    <line style="stroke:#A80036;stroke-width:1.0;" x1="95" x2="136" y1="273.1797" y2="273.1797"/>
    <polygon fill="#A80036" points="105,269.1797,95,273.1797,105,277.1797,101,273.1797" style="stroke:#A80036;stroke-width:1.0;"/>
    <text fill="#000000" font-family="sans-serif" font-size="13" font-weight="bold" lengthAdjust="spacingAndGlyphs" textLength="9" x="101" y="247.5474">2</text>
    <text fill="#000000" font-family="sans-serif" font-size="13" lengthAdjust="spacingAndGlyphs" textLength="408" x="114" y="239.981">Iterate though messages and bin them by accountID and action</text>
    <text fill="#000000" font-family="sans-serif" font-size="13" lengthAdjust="spacingAndGlyphs" textLength="510" x="118" y="255.1138">(References to the messagses to be stored in bins, no duplication of messages)</text>
    <polygon fill="#A80036" points="628,298.3125,638,302.3125,628,306.3125,632,302.3125" style="stroke:#A80036;stroke-width:1.0;"/>
    <line style="stroke:#A80036;stroke-width:1.0;" x1="94" x2="634" y1="302.3125" y2="302.3125"/>
    <text fill="#000000" font-family="sans-serif" font-size="13" font-weight="bold" lengthAdjust="spacingAndGlyphs" textLength="9" x="101" y="297.2466">3</text>
    <text fill="#000000" font-family="sans-serif" font-size="13" lengthAdjust="spacingAndGlyphs" textLength="163" x="114" y="297.2466">Process Bin for accountID</text>
    <line style="stroke:#A80036;stroke-width:1.0;" x1="640" x2="682" y1="331.4453" y2="331.4453"/>
    <line style="stroke:#A80036;stroke-width:1.0;" x1="682" x2="682" y1="331.4453" y2="344.4453"/>
    <line style="stroke:#A80036;stroke-width:1.0;" x1="641" x2="682" y1="344.4453" y2="344.4453"/>
    <polygon fill="#A80036" points="651,340.4453,641,344.4453,651,348.4453,647,344.4453" style="stroke:#A80036;stroke-width:1.0;"/>
    <text fill="#000000" font-family="sans-serif" font-size="13" font-weight="bold" lengthAdjust="spacingAndGlyphs" textLength="9" x="647" y="326.3794">4</text>
    <text fill="#000000" font-family="sans-serif" font-size="13" lengthAdjust="spacingAndGlyphs" textLength="393" x="660" y="326.3794">For each bin, iterate through the batches based on the action</text>
    <line style="stroke:#A80036;stroke-width:1.0;" x1="640" x2="682" y1="373.5781" y2="373.5781"/>
    <line style="stroke:#A80036;stroke-width:1.0;" x1="682" x2="682" y1="373.5781" y2="386.5781"/>
    <line style="stroke:#A80036;stroke-width:1.0;" x1="641" x2="682" y1="386.5781" y2="386.5781"/>
    <polygon fill="#A80036" points="651,382.5781,641,386.5781,651,390.5781,647,386.5781" style="stroke:#A80036;stroke-width:1.0;"/>
    <text fill="#000000" font-family="sans-serif" font-size="13" font-weight="bold" lengthAdjust="spacingAndGlyphs" textLength="9" x="647" y="368.5122">5</text>
    <text fill="#000000" font-family="sans-serif" font-size="13" lengthAdjust="spacingAndGlyphs" textLength="33" x="660" y="368.5122">Audit</text>
    <polygon fill="#A80036" points="1043,411.7109,1053,415.7109,1043,419.7109,1047,415.7109" style="stroke:#A80036;stroke-width:1.0;"/>
    <line style="stroke:#A80036;stroke-width:1.0;" x1="640" x2="1049" y1="415.7109" y2="415.7109"/>
    <text fill="#000000" font-family="sans-serif" font-size="13" font-weight="bold" lengthAdjust="spacingAndGlyphs" textLength="9" x="647" y="410.645">6</text>
    <text fill="#000000" font-family="sans-serif" font-size="13" lengthAdjust="spacingAndGlyphs" textLength="123" x="660" y="410.645">Process Fulfil Batch</text>
    <polygon fill="#A80036" points="651,440.8438,641,444.8438,651,448.8438,647,444.8438" style="stroke:#A80036;stroke-width:1.0;"/>
    <line style="stroke:#A80036;stroke-width:1.0;stroke-dasharray:2.0,2.0;" x1="645" x2="1059" y1="444.8438" y2="444.8438"/>
    <text fill="#000000" font-family="sans-serif" font-size="13" font-weight="bold" lengthAdjust="spacingAndGlyphs" textLength="9" x="657" y="439.7778">7</text>
    <text fill="#000000" font-family="sans-serif" font-size="13" lengthAdjust="spacingAndGlyphs" textLength="39" x="670" y="439.7778">Result</text>
    <polygon fill="#A80036" points="1204.5,469.9766,1214.5,473.9766,1204.5,477.9766,1208.5,473.9766" style="stroke:#A80036;stroke-width:1.0;"/>
    <line style="stroke:#A80036;stroke-width:1.0;" x1="640" x2="1210.5" y1="473.9766" y2="473.9766"/>
    <text fill="#000000" font-family="sans-serif" font-size="13" font-weight="bold" lengthAdjust="spacingAndGlyphs" textLength="9" x="647" y="468.9106">8</text>
    <text fill="#000000" font-family="sans-serif" font-size="13" lengthAdjust="spacingAndGlyphs" textLength="130" x="660" y="468.9106">Process Abort Batch</text>
    <polygon fill="#A80036" points="651,499.1094,641,503.1094,651,507.1094,647,503.1094" style="stroke:#A80036;stroke-width:1.0;"/>
    <line style="stroke:#A80036;stroke-width:1.0;stroke-dasharray:2.0,2.0;" x1="645" x2="1220.5" y1="503.1094" y2="503.1094"/>
    <text fill="#000000" font-family="sans-serif" font-size="13" font-weight="bold" lengthAdjust="spacingAndGlyphs" textLength="9" x="657" y="498.0435">9</text>
    <text fill="#000000" font-family="sans-serif" font-size="13" lengthAdjust="spacingAndGlyphs" textLength="39" x="670" y="498.0435">Result</text>
    <polygon fill="#A80036" points="1379.5,528.2422,1389.5,532.2422,1379.5,536.2422,1383.5,532.2422" style="stroke:#A80036;stroke-width:1.0;"/>
    <line style="stroke:#A80036;stroke-width:1.0;" x1="640" x2="1385.5" y1="532.2422" y2="532.2422"/>
    <text fill="#000000" font-family="sans-serif" font-size="13" font-weight="bold" lengthAdjust="spacingAndGlyphs" textLength="18" x="647" y="527.1763">10</text>
    <text fill="#000000" font-family="sans-serif" font-size="13" lengthAdjust="spacingAndGlyphs" textLength="147" x="669" y="527.1763">Process Timeout Batch</text>
    <polygon fill="#A80036" points="651,557.375,641,561.375,651,565.375,647,561.375" style="stroke:#A80036;stroke-width:1.0;"/>
    <line style="stroke:#A80036;stroke-width:1.0;stroke-dasharray:2.0,2.0;" x1="645" x2="1395.5" y1="561.375" y2="561.375"/>
    <text fill="#000000" font-family="sans-serif" font-size="13" font-weight="bold" lengthAdjust="spacingAndGlyphs" textLength="18" x="657" y="556.3091">11</text>
    <text fill="#000000" font-family="sans-serif" font-size="13" lengthAdjust="spacingAndGlyphs" textLength="39" x="679" y="556.3091">Result</text>
    <polygon fill="#A80036" points="1534,586.5078,1544,590.5078,1534,594.5078,1538,590.5078" style="stroke:#A80036;stroke-width:1.0;"/>
    <line style="stroke:#A80036;stroke-width:1.0;" x1="640" x2="1540" y1="590.5078" y2="590.5078"/>
    <text fill="#000000" font-family="sans-serif" font-size="13" font-weight="bold" lengthAdjust="spacingAndGlyphs" textLength="18" x="647" y="585.4419">12</text>
    <text fill="#000000" font-family="sans-serif" font-size="13" lengthAdjust="spacingAndGlyphs" textLength="145" x="669" y="585.4419">Process Prepare Batch</text>
    <polygon fill="#A80036" points="651,615.6406,641,619.6406,651,623.6406,647,619.6406" style="stroke:#A80036;stroke-width:1.0;"/>
    <line style="stroke:#A80036;stroke-width:1.0;stroke-dasharray:2.0,2.0;" x1="645" x2="1550" y1="619.6406" y2="619.6406"/>
    <text fill="#000000" font-family="sans-serif" font-size="13" font-weight="bold" lengthAdjust="spacingAndGlyphs" textLength="18" x="657" y="614.5747">13</text>
    <text fill="#000000" font-family="sans-serif" font-size="13" lengthAdjust="spacingAndGlyphs" textLength="39" x="679" y="614.5747">Result</text>
    <polygon fill="#A80036" points="105,644.7734,95,648.7734,105,652.7734,101,648.7734" style="stroke:#A80036;stroke-width:1.0;"/>
    <line style="stroke:#A80036;stroke-width:1.0;stroke-dasharray:2.0,2.0;" x1="99" x2="639" y1="648.7734" y2="648.7734"/>
    <text fill="#000000" font-family="sans-serif" font-size="13" font-weight="bold" lengthAdjust="spacingAndGlyphs" textLength="18" x="111" y="643.7075">14</text>
    <text fill="#000000" font-family="sans-serif" font-size="13" lengthAdjust="spacingAndGlyphs" textLength="42" x="133" y="643.7075">Return</text>
    <line style="stroke:#A80036;stroke-width:1.0;" x1="94" x2="136" y1="677.9063" y2="677.9063"/>
    <line style="stroke:#A80036;stroke-width:1.0;" x1="136" x2="136" y1="677.9063" y2="690.9063"/>
    <line style="stroke:#A80036;stroke-width:1.0;" x1="95" x2="136" y1="690.9063" y2="690.9063"/>
    <polygon fill="#A80036" points="105,686.9063,95,690.9063,105,694.9063,101,690.9063" style="stroke:#A80036;stroke-width:1.0;"/>
    <text fill="#000000" font-family="sans-serif" font-size="13" font-weight="bold" lengthAdjust="spacingAndGlyphs" textLength="18" x="101" y="672.8403">15</text>
    <text fill="#000000" font-family="sans-serif" font-size="13" lengthAdjust="spacingAndGlyphs" textLength="132" x="123" y="672.8403">Commit Kafka Offset</text>
  </g>
</svg>
