<svg xmlns="http://www.w3.org/2000/svg" xmlns:xlink="http://www.w3.org/1999/xlink" contentStyleType="text/css" height="1029px" preserveAspectRatio="none" style="width:1328px;height:1029px;background:#FFFFFF;" version="1.1" viewBox="0 0 1328 1029" width="1328px" zoomAndPan="magnify">
  <title>Service des demandes de transaction — Autorisations</title>
  <defs/>
  <g>
    <text fill="#000000" font-family="sans-serif" font-size="14" font-weight="bold" lengthAdjust="spacing" textLength="426.3506" x="452.3171" y="27.9951">Service des demandes de transaction — Autorisations</text>
    <rect fill="none" height="646.4609" style="stroke:#000000;stroke-width:1.5;" width="1312.9849" x="9" y="314.8203"/>
    <line style="stroke:#181818;stroke-width:0.5;stroke-dasharray:5.0,5.0;" x1="125" x2="125" y1="89.8906" y2="978.2813"/>
    <line style="stroke:#181818;stroke-width:0.5;stroke-dasharray:5.0,5.0;" x1="498.9517" x2="498.9517" y1="89.8906" y2="978.2813"/>
    <line style="stroke:#181818;stroke-width:0.5;stroke-dasharray:5.0,5.0;" x1="996.8882" x2="996.8882" y1="89.8906" y2="978.2813"/>
    <rect fill="#E2E2F0" height="30.2969" rx="2.5" ry="2.5" style="stroke:#181818;stroke-width:0.5;" width="92.8252" x="79" y="58.5938"/>
    <text fill="#000000" font-family="sans-serif" font-size="14" lengthAdjust="spacing" textLength="78.8252" x="86" y="78.5889">FSP payeur</text>
    <rect fill="#E2E2F0" height="30.2969" rx="2.5" ry="2.5" style="stroke:#181818;stroke-width:0.5;" width="92.8252" x="79" y="977.2813"/>
    <text fill="#000000" font-family="sans-serif" font-size="14" lengthAdjust="spacing" textLength="78.8252" x="86" y="997.2764">FSP payeur</text>
    <rect fill="#E2E2F0" height="46.5938" rx="2.5" ry="2.5" style="stroke:#181818;stroke-width:0.5;" width="214.1563" x="391.9517" y="42.2969"/>
    <text fill="#000000" font-family="sans-serif" font-size="14" lengthAdjust="spacing" textLength="97.2891" x="450.3853" y="62.292">Commutateur</text>
    <text fill="#000000" font-family="sans-serif" font-size="14" lengthAdjust="spacing" textLength="200.1563" x="398.9517" y="78.5889">transaction-requests-service</text>
    <rect fill="#E2E2F0" height="46.5938" rx="2.5" ry="2.5" style="stroke:#181818;stroke-width:0.5;" width="214.1563" x="391.9517" y="977.2813"/>
    <text fill="#000000" font-family="sans-serif" font-size="14" lengthAdjust="spacing" textLength="97.2891" x="450.3853" y="997.2764">Commutateur</text>
    <text fill="#000000" font-family="sans-serif" font-size="14" lengthAdjust="spacing" textLength="200.1563" x="398.9517" y="1013.5732">transaction-requests-service</text>
    <rect fill="#E2E2F0" height="30.2969" rx="2.5" ry="2.5" style="stroke:#181818;stroke-width:0.5;" width="126.0615" x="933.8882" y="58.5938"/>
    <text fill="#000000" font-family="sans-serif" font-size="14" lengthAdjust="spacing" textLength="112.0615" x="940.8882" y="78.5889">FSP bénéficiaire</text>
    <rect fill="#E2E2F0" height="30.2969" rx="2.5" ry="2.5" style="stroke:#181818;stroke-width:0.5;" width="126.0615" x="933.8882" y="977.2813"/>
    <text fill="#000000" font-family="sans-serif" font-size="14" lengthAdjust="spacing" textLength="112.0615" x="940.8882" y="997.2764">FSP bénéficiaire</text>
    <line style="stroke:#181818;stroke-width:1.0;stroke-dasharray:2.0,2.0;" x1="996.9189" x2="1038.9189" y1="136.1563" y2="136.1563"/>
    <line style="stroke:#181818;stroke-width:1.0;stroke-dasharray:2.0,2.0;" x1="1038.9189" x2="1038.9189" y1="136.1563" y2="149.1563"/>
    <line style="stroke:#181818;stroke-width:1.0;stroke-dasharray:2.0,2.0;" x1="997.9189" x2="1038.9189" y1="149.1563" y2="149.1563"/>
    <polygon fill="#181818" points="1006.9189,145.1563,996.9189,149.1563,1006.9189,149.1563" style="stroke:#181818;stroke-width:1.0;"/>
    <text fill="#000000" font-family="sans-serif" font-size="13" font-weight="bold" lengthAdjust="spacing" textLength="9.0454" x="1003.9189" y="123.5239">1</text>
    <text fill="#000000" font-family="sans-serif" font-size="13" lengthAdjust="spacing" textLength="240.8618" x="1016.9644" y="115.9575">Recherche, demande de transaction,</text>
    <text fill="#000000" font-family="sans-serif" font-size="13" lengthAdjust="spacing" textLength="164.6011" x="1016.9644" y="131.0903">traitement non illustré ici</text>
    <path d="M416,162.1563 L416,187.1563 L1078,187.1563 L1078,172.1563 L1068,162.1563 L416,162.1563 " fill="#FEFFDD" style="stroke:#181818;stroke-width:0.5;"/>
    <path d="M1068,162.1563 L1068,172.1563 L1078,172.1563 L1068,162.1563 " fill="#FEFFDD" style="stroke:#181818;stroke-width:0.5;"/>
    <text fill="#000000" font-family="sans-serif" font-size="13" lengthAdjust="spacing" textLength="490.4644" x="497.7668" y="179.2231">Le FSP bénéficiaire génère une demande de transaction vers le FSP payeur</text>
    <line style="stroke:#181818;stroke-width:1.0;stroke-dasharray:2.0,2.0;" x1="125.4126" x2="167.4126" y1="228.5547" y2="228.5547"/>
    <line style="stroke:#181818;stroke-width:1.0;stroke-dasharray:2.0,2.0;" x1="167.4126" x2="167.4126" y1="228.5547" y2="241.5547"/>
    <line style="stroke:#181818;stroke-width:1.0;stroke-dasharray:2.0,2.0;" x1="126.4126" x2="167.4126" y1="241.5547" y2="241.5547"/>
    <polygon fill="#181818" points="136.4126,237.5547,126.4126,241.5547,136.4126,245.5547,132.4126,241.5547" style="stroke:#181818;stroke-width:1.0;"/>
    <text fill="#000000" font-family="sans-serif" font-size="13" font-weight="bold" lengthAdjust="spacing" textLength="9.0454" x="132.4126" y="215.9224">2</text>
    <text fill="#000000" font-family="sans-serif" font-size="13" lengthAdjust="spacing" textLength="230.1533" x="145.458" y="208.356">Offre de change, génération d&apos;OTP,</text>
    <text fill="#000000" font-family="sans-serif" font-size="13" lengthAdjust="spacing" textLength="229.9565" x="145.458" y="223.4888">notification utilisateur (non illustré)</text>
    <polygon fill="#181818" points="487.0298,266.6875,497.0298,270.6875,487.0298,270.6875" style="stroke:#181818;stroke-width:1.0;"/>
    <line style="stroke:#181818;stroke-width:1.0;" x1="125.4126" x2="498.0298" y1="270.6875" y2="270.6875"/>
    <text fill="#000000" font-family="sans-serif" font-size="13" font-weight="bold" lengthAdjust="spacing" textLength="9.0454" x="132.4126" y="265.6216">3</text>
    <text fill="#000000" font-family="sans-serif" font-size="13" lengthAdjust="spacing" textLength="292.0938" x="145.458" y="265.6216">GET /authorizations/{TransactionRequestID}</text>
    <polygon fill="#181818" points="136.4126,299.8203,126.4126,299.8203,136.4126,303.8203" style="stroke:#181818;stroke-width:1.0;"/>
    <line style="stroke:#181818;stroke-width:1.0;stroke-dasharray:2.0,2.0;" x1="125.4126" x2="498.0298" y1="299.8203" y2="299.8203"/>
    <text fill="#000000" font-family="sans-serif" font-size="13" font-weight="bold" lengthAdjust="spacing" textLength="9.0454" x="142.4126" y="294.7544">4</text>
    <text fill="#000000" font-family="sans-serif" font-size="13" lengthAdjust="spacing" textLength="89.7305" x="155.458" y="294.7544">202 Accepted</text>
    <path d="M9,314.8203 L73.4429,314.8203 L73.4429,321.9531 L63.4429,331.9531 L9,331.9531 L9,314.8203 " fill="#EEEEEE" style="stroke:#000000;stroke-width:1.5;"/>
    <rect fill="none" height="646.4609" style="stroke:#000000;stroke-width:1.5;" width="1312.9849" x="9" y="314.8203"/>
    <text fill="#000000" font-family="sans-serif" font-size="13" font-weight="bold" lengthAdjust="spacing" textLength="19.4429" x="24" y="327.8872">alt</text>
    <text fill="#000000" font-family="sans-serif" font-size="11" font-weight="bold" lengthAdjust="spacing" textLength="237.5796" x="88.4429" y="327.0308">[la demande d&apos;autorisation est valide]</text>
    <line style="stroke:#181818;stroke-width:1.0;" x1="499.0298" x2="541.0298" y1="353.0859" y2="353.0859"/>
    <line style="stroke:#181818;stroke-width:1.0;" x1="541.0298" x2="541.0298" y1="353.0859" y2="366.0859"/>
    <line style="stroke:#181818;stroke-width:1.0;" x1="500.0298" x2="541.0298" y1="366.0859" y2="366.0859"/>
    <polygon fill="#181818" points="510.0298,362.0859,500.0298,366.0859,510.0298,370.0859,506.0298,366.0859" style="stroke:#181818;stroke-width:1.0;"/>
    <text fill="#000000" font-family="sans-serif" font-size="13" font-weight="bold" lengthAdjust="spacing" textLength="9.0454" x="506.0298" y="348.02">5</text>
    <text fill="#000000" font-family="sans-serif" font-size="13" lengthAdjust="spacing" textLength="470.8438" x="519.0752" y="348.02">Valider GET /authorizations/{TransactionRequestID} (validation interne)</text>
    <line style="stroke:#181818;stroke-width:1.0;" x1="499.0298" x2="541.0298" y1="395.2188" y2="395.2188"/>
    <line style="stroke:#181818;stroke-width:1.0;" x1="541.0298" x2="541.0298" y1="395.2188" y2="408.2188"/>
    <line style="stroke:#181818;stroke-width:1.0;" x1="500.0298" x2="541.0298" y1="408.2188" y2="408.2188"/>
    <polygon fill="#181818" points="510.0298,404.2188,500.0298,408.2188,510.0298,412.2188,506.0298,408.2188" style="stroke:#181818;stroke-width:1.0;"/>
    <text fill="#000000" font-family="sans-serif" font-size="13" font-weight="bold" lengthAdjust="spacing" textLength="9.0454" x="506.0298" y="390.1528">6</text>
    <text fill="#000000" font-family="sans-serif" font-size="13" lengthAdjust="spacing" textLength="287.2314" x="519.0752" y="390.1528">Récupérer les endpoints du FSP bénéficiaire</text>
    <path d="M416,421.2188 L416,446.2188 L1078,446.2188 L1078,431.2188 L1068,421.2188 L416,421.2188 " fill="#FEFFDD" style="stroke:#181818;stroke-width:0.5;"/>
    <path d="M1068,421.2188 L1068,431.2188 L1078,431.2188 L1068,421.2188 " fill="#FEFFDD" style="stroke:#181818;stroke-width:0.5;"/>
    <text fill="#000000" font-family="sans-serif" font-size="13" lengthAdjust="spacing" textLength="431.4121" x="527.293" y="438.2856">Le commutateur transmet GET /authorizations au FSP bénéficiaire</text>
    <polygon fill="#181818" points="984.9189,468.4844,994.9189,472.4844,984.9189,472.4844" style="stroke:#181818;stroke-width:1.0;"/>
    <line style="stroke:#181818;stroke-width:1.0;" x1="499.0298" x2="995.9189" y1="472.4844" y2="472.4844"/>
    <text fill="#000000" font-family="sans-serif" font-size="13" font-weight="bold" lengthAdjust="spacing" textLength="9.0454" x="506.0298" y="467.4185">7</text>
    <text fill="#000000" font-family="sans-serif" font-size="13" lengthAdjust="spacing" textLength="292.0938" x="519.0752" y="467.4185">GET /authorizations/{TransactionRequestID}</text>
    <polygon fill="#181818" points="510.0298,501.6172,500.0298,501.6172,510.0298,505.6172" style="stroke:#181818;stroke-width:1.0;"/>
    <line style="stroke:#181818;stroke-width:1.0;stroke-dasharray:2.0,2.0;" x1="499.0298" x2="995.9189" y1="501.6172" y2="501.6172"/>
    <text fill="#000000" font-family="sans-serif" font-size="13" font-weight="bold" lengthAdjust="spacing" textLength="9.0454" x="516.0298" y="496.5513">8</text>
    <text fill="#000000" font-family="sans-serif" font-size="13" lengthAdjust="spacing" textLength="89.7305" x="529.0752" y="496.5513">202 Accepted</text>
    <line style="stroke:#181818;stroke-width:1.0;" x1="996.9189" x2="1038.9189" y1="561.0156" y2="561.0156"/>
    <line style="stroke:#181818;stroke-width:1.0;" x1="1038.9189" x2="1038.9189" y1="561.0156" y2="574.0156"/>
    <line style="stroke:#181818;stroke-width:1.0;" x1="997.9189" x2="1038.9189" y1="574.0156" y2="574.0156"/>
    <polygon fill="#181818" points="1007.9189,570.0156,997.9189,574.0156,1007.9189,578.0156,1003.9189,574.0156" style="stroke:#181818;stroke-width:1.0;"/>
    <text fill="#000000" font-family="sans-serif" font-size="13" font-weight="bold" lengthAdjust="spacing" textLength="9.0454" x="1003.9189" y="540.8169">9</text>
    <text fill="#000000" font-family="sans-serif" font-size="13" lengthAdjust="spacing" textLength="218.3276" x="1016.9644" y="525.6841">Traiter la demande d&apos;autorisation</text>
    <text fill="#000000" font-family="sans-serif" font-size="13" lengthAdjust="spacing" textLength="293.0205" x="1016.9644" y="540.8169">(le payeur approuve ou rejette la transaction</text>
    <text fill="#000000" font-family="sans-serif" font-size="13" lengthAdjust="spacing" textLength="61.6738" x="1016.9644" y="555.9497">via l&apos;OTP)</text>
    <path d="M416,587.0156 L416,612.0156 L1078,612.0156 L1078,597.0156 L1068,587.0156 L416,587.0156 " fill="#FEFFDD" style="stroke:#181818;stroke-width:0.5;"/>
    <path d="M1068,587.0156 L1068,597.0156 L1078,597.0156 L1068,587.0156 " fill="#FEFFDD" style="stroke:#181818;stroke-width:0.5;"/>
    <text fill="#000000" font-family="sans-serif" font-size="13" lengthAdjust="spacing" textLength="503.8325" x="491.0828" y="604.0825">Le FSP bénéficiaire répond avec PUT /authorizations/{TransactionRequestID}</text>
    <polygon fill="#181818" points="510.0298,634.2813,500.0298,638.2813,510.0298,638.2813" style="stroke:#181818;stroke-width:1.0;"/>
    <line style="stroke:#181818;stroke-width:1.0;" x1="499.0298" x2="995.9189" y1="638.2813" y2="638.2813"/>
    <text fill="#000000" font-family="sans-serif" font-size="13" font-weight="bold" lengthAdjust="spacing" textLength="18.0908" x="516.0298" y="633.2153">10</text>
    <text fill="#000000" font-family="sans-serif" font-size="13" lengthAdjust="spacing" textLength="291.1606" x="538.1206" y="633.2153">PUT /authorizations/{TransactionRequestID}</text>
    <polygon fill="#181818" points="984.9189,667.4141,994.9189,667.4141,984.9189,671.4141" style="stroke:#181818;stroke-width:1.0;"/>
    <line style="stroke:#181818;stroke-width:1.0;stroke-dasharray:2.0,2.0;" x1="499.0298" x2="995.9189" y1="667.4141" y2="667.4141"/>
    <text fill="#000000" font-family="sans-serif" font-size="13" font-weight="bold" lengthAdjust="spacing" textLength="18.0908" x="506.0298" y="662.3481">11</text>
    <text fill="#000000" font-family="sans-serif" font-size="13" lengthAdjust="spacing" textLength="46.7061" x="528.1206" y="662.3481">200 Ok</text>
    <path d="M19,680.4141 L19,705.4141 L604,705.4141 L604,690.4141 L594,680.4141 L19,680.4141 " fill="#FEFFDD" style="stroke:#181818;stroke-width:0.5;"/>
    <path d="M594,680.4141 L594,690.4141 L604,690.4141 L594,680.4141 " fill="#FEFFDD" style="stroke:#181818;stroke-width:0.5;"/>
    <text fill="#000000" font-family="sans-serif" font-size="13" lengthAdjust="spacing" textLength="564.0527" x="25" y="697.481">Le commutateur transmet PUT /authorizations/{TransactionRequestID} au FSP payeur</text>
    <line style="stroke:#181818;stroke-width:1.0;" x1="499.0298" x2="541.0298" y1="731.6797" y2="731.6797"/>
    <line style="stroke:#181818;stroke-width:1.0;" x1="541.0298" x2="541.0298" y1="731.6797" y2="744.6797"/>
    <line style="stroke:#181818;stroke-width:1.0;" x1="500.0298" x2="541.0298" y1="744.6797" y2="744.6797"/>
    <polygon fill="#181818" points="510.0298,740.6797,500.0298,744.6797,510.0298,748.6797,506.0298,744.6797" style="stroke:#181818;stroke-width:1.0;"/>
    <text fill="#000000" font-family="sans-serif" font-size="13" font-weight="bold" lengthAdjust="spacing" textLength="18.0908" x="506.0298" y="726.6138">12</text>
    <text fill="#000000" font-family="sans-serif" font-size="13" lengthAdjust="spacing" textLength="256.3691" x="528.1206" y="726.6138">Récupérer les endpoints du FSP payeur</text>
    <polygon fill="#181818" points="136.4126,769.8125,126.4126,773.8125,136.4126,773.8125" style="stroke:#181818;stroke-width:1.0;"/>
    <line style="stroke:#181818;stroke-width:1.0;" x1="125.4126" x2="498.0298" y1="773.8125" y2="773.8125"/>
    <text fill="#000000" font-family="sans-serif" font-size="13" font-weight="bold" lengthAdjust="spacing" textLength="18.0908" x="142.4126" y="768.7466">13</text>
    <text fill="#000000" font-family="sans-serif" font-size="13" lengthAdjust="spacing" textLength="291.1606" x="164.5034" y="768.7466">PUT /authorizations/{TransactionRequestID}</text>
    <polygon fill="#181818" points="487.0298,802.9453,497.0298,802.9453,487.0298,806.9453" style="stroke:#181818;stroke-width:1.0;"/>
    <line style="stroke:#181818;stroke-width:1.0;stroke-dasharray:2.0,2.0;" x1="125.4126" x2="498.0298" y1="802.9453" y2="802.9453"/>
    <text fill="#000000" font-family="sans-serif" font-size="13" font-weight="bold" lengthAdjust="spacing" textLength="18.0908" x="132.4126" y="797.8794">14</text>
    <text fill="#000000" font-family="sans-serif" font-size="13" lengthAdjust="spacing" textLength="46.7061" x="154.5034" y="797.8794">200 Ok</text>
    <line style="stroke:#000000;stroke-width:1.0;stroke-dasharray:2.0,2.0;" x1="9" x2="1321.9849" y1="811.9453" y2="811.9453"/>
    <text fill="#000000" font-family="sans-serif" font-size="11" font-weight="bold" lengthAdjust="spacing" textLength="249.1812" x="14" y="822.1558">[la demande d&apos;autorisation est invalide]</text>
    <path d="M51,830.75 L51,855.75 L573,855.75 L573,840.75 L563,830.75 L51,830.75 " fill="#FEFFDD" style="stroke:#181818;stroke-width:0.5;"/>
    <path d="M563,830.75 L563,840.75 L573,840.75 L563,830.75 " fill="#FEFFDD" style="stroke:#181818;stroke-width:0.5;"/>
    <text fill="#000000" font-family="sans-serif" font-size="13" lengthAdjust="spacing" textLength="380.8149" x="117.1465" y="847.8169">Le commutateur renvoie un rappel d&apos;erreur au FSP payeur</text>
    <polygon fill="#181818" points="136.4126,878.0156,126.4126,882.0156,136.4126,882.0156" style="stroke:#181818;stroke-width:1.0;"/>
    <line style="stroke:#181818;stroke-width:1.0;" x1="125.4126" x2="498.0298" y1="882.0156" y2="882.0156"/>
    <text fill="#000000" font-family="sans-serif" font-size="13" font-weight="bold" lengthAdjust="spacing" textLength="18.0908" x="142.4126" y="876.9497">15</text>
    <text fill="#000000" font-family="sans-serif" font-size="13" lengthAdjust="spacing" textLength="327.5264" x="164.5034" y="876.9497">PUT /authorizations/{TransactionRequestID}/error</text>
    <polygon fill="#181818" points="487.0298,911.1484,497.0298,911.1484,487.0298,915.1484" style="stroke:#181818;stroke-width:1.0;"/>
    <line style="stroke:#181818;stroke-width:1.0;stroke-dasharray:2.0,2.0;" x1="125.4126" x2="498.0298" y1="911.1484" y2="911.1484"/>
    <text fill="#000000" font-family="sans-serif" font-size="13" font-weight="bold" lengthAdjust="spacing" textLength="18.0908" x="132.4126" y="906.0825">16</text>
    <text fill="#000000" font-family="sans-serif" font-size="13" lengthAdjust="spacing" textLength="47.7026" x="154.5034" y="906.0825">200 OK</text>
    <line style="stroke:#181818;stroke-width:1.0;stroke-dasharray:2.0,2.0;" x1="125.4126" x2="167.4126" y1="940.2813" y2="940.2813"/>
    <line style="stroke:#181818;stroke-width:1.0;stroke-dasharray:2.0,2.0;" x1="167.4126" x2="167.4126" y1="940.2813" y2="953.2813"/>
    <line style="stroke:#181818;stroke-width:1.0;stroke-dasharray:2.0,2.0;" x1="126.4126" x2="167.4126" y1="953.2813" y2="953.2813"/>
    <polygon fill="#181818" points="136.4126,949.2813,126.4126,953.2813,136.4126,957.2813,132.4126,953.2813" style="stroke:#181818;stroke-width:1.0;"/>
    <text fill="#000000" font-family="sans-serif" font-size="13" font-weight="bold" lengthAdjust="spacing" textLength="18.0908" x="132.4126" y="935.2153">17</text>
    <text fill="#000000" font-family="sans-serif" font-size="13" lengthAdjust="spacing" textLength="284.3433" x="154.5034" y="935.2153">Valider l&apos;OTP envoyé par le FSP bénéficiaire</text>
  </g>
</svg>
