<svg xmlns="http://www.w3.org/2000/svg" xmlns:xlink="http://www.w3.org/1999/xlink" contentStyleType="text/css" height="1457px" preserveAspectRatio="none" style="width:1085px;height:1457px;background:#FFFFFF;" version="1.1" viewBox="0 0 1085 1457" width="1085px" zoomAndPan="magnify">
  <title>Service des demandes de transaction — Création</title>
  <defs/>
  <g>
    <text fill="#000000" font-family="sans-serif" font-size="14" font-weight="bold" lengthAdjust="spacing" textLength="387.543" x="350.0767" y="27.9951">Service des demandes de transaction — Création</text>
    <rect fill="none" height="1088.7969" style="stroke:#000000;stroke-width:1.5;" width="1069.6963" x="9" y="299.6875"/>
    <rect fill="none" height="729.6641" style="stroke:#000000;stroke-width:1.5;" width="1015.6963" x="53" y="543.6172"/>
    <rect fill="none" height="361.3984" style="stroke:#000000;stroke-width:1.5;" width="995.6963" x="63" y="703.2813"/>
    <line style="stroke:#181818;stroke-width:0.5;stroke-dasharray:5.0,5.0;" x1="147" x2="147" y1="89.8906" y2="1405.4844"/>
    <line style="stroke:#181818;stroke-width:0.5;stroke-dasharray:5.0,5.0;" x1="431.9639" x2="431.9639" y1="89.8906" y2="1405.4844"/>
    <line style="stroke:#181818;stroke-width:0.5;stroke-dasharray:5.0,5.0;" x1="832.8574" x2="832.8574" y1="89.8906" y2="1405.4844"/>
    <rect fill="#E2E2F0" height="30.2969" rx="2.5" ry="2.5" style="stroke:#181818;stroke-width:0.5;" width="92.8252" x="101" y="58.5938"/>
    <text fill="#000000" font-family="sans-serif" font-size="14" lengthAdjust="spacing" textLength="78.8252" x="108" y="78.5889">FSP payeur</text>
    <rect fill="#E2E2F0" height="30.2969" rx="2.5" ry="2.5" style="stroke:#181818;stroke-width:0.5;" width="92.8252" x="101" y="1404.4844"/>
    <text fill="#000000" font-family="sans-serif" font-size="14" lengthAdjust="spacing" textLength="78.8252" x="108" y="1424.4795">FSP payeur</text>
    <rect fill="#E2E2F0" height="46.5938" rx="2.5" ry="2.5" style="stroke:#181818;stroke-width:0.5;" width="214.1563" x="324.9639" y="42.2969"/>
    <text fill="#000000" font-family="sans-serif" font-size="14" lengthAdjust="spacing" textLength="97.2891" x="383.3975" y="62.292">Commutateur</text>
    <text fill="#000000" font-family="sans-serif" font-size="14" lengthAdjust="spacing" textLength="200.1563" x="331.9639" y="78.5889">transaction-requests-service</text>
    <rect fill="#E2E2F0" height="46.5938" rx="2.5" ry="2.5" style="stroke:#181818;stroke-width:0.5;" width="214.1563" x="324.9639" y="1404.4844"/>
    <text fill="#000000" font-family="sans-serif" font-size="14" lengthAdjust="spacing" textLength="97.2891" x="383.3975" y="1424.4795">Commutateur</text>
    <text fill="#000000" font-family="sans-serif" font-size="14" lengthAdjust="spacing" textLength="200.1563" x="331.9639" y="1440.7764">transaction-requests-service</text>
    <rect fill="#E2E2F0" height="30.2969" rx="2.5" ry="2.5" style="stroke:#181818;stroke-width:0.5;" width="126.0615" x="769.8574" y="58.5938"/>
    <text fill="#000000" font-family="sans-serif" font-size="14" lengthAdjust="spacing" textLength="112.0615" x="776.8574" y="78.5889">FSP bénéficiaire</text>
    <rect fill="#E2E2F0" height="30.2969" rx="2.5" ry="2.5" style="stroke:#181818;stroke-width:0.5;" width="126.0615" x="769.8574" y="1404.4844"/>
    <text fill="#000000" font-family="sans-serif" font-size="14" lengthAdjust="spacing" textLength="112.0615" x="776.8574" y="1424.4795">FSP bénéficiaire</text>
    <line style="stroke:#181818;stroke-width:1.0;" x1="832.8882" x2="874.8882" y1="136.1563" y2="136.1563"/>
    <line style="stroke:#181818;stroke-width:1.0;" x1="874.8882" x2="874.8882" y1="136.1563" y2="149.1563"/>
    <line style="stroke:#181818;stroke-width:1.0;" x1="833.8882" x2="874.8882" y1="149.1563" y2="149.1563"/>
    <polygon fill="#181818" points="842.8882,145.1563,832.8882,149.1563,842.8882,149.1563" style="stroke:#181818;stroke-width:1.0;"/>
    <text fill="#000000" font-family="sans-serif" font-size="13" font-weight="bold" lengthAdjust="spacing" textLength="9.0454" x="839.8882" y="123.5239">1</text>
    <text fill="#000000" font-family="sans-serif" font-size="13" lengthAdjust="spacing" textLength="154.813" x="852.9336" y="115.9575">Processus de recherche</text>
    <text fill="#000000" font-family="sans-serif" font-size="13" lengthAdjust="spacing" textLength="101.499" x="852.9336" y="131.0903">(non illustré ici)</text>
    <path d="M349,162.1563 L349,187.1563 L914,187.1563 L914,172.1563 L904,162.1563 L349,162.1563 " fill="#FEFFDD" style="stroke:#181818;stroke-width:0.5;"/>
    <path d="M904,162.1563 L904,172.1563 L914,172.1563 L904,162.1563 " fill="#FEFFDD" style="stroke:#181818;stroke-width:0.5;"/>
    <text fill="#000000" font-family="sans-serif" font-size="13" lengthAdjust="spacing" textLength="490.4644" x="382.2454" y="179.2231">Le FSP bénéficiaire génère une demande de transaction vers le FSP payeur</text>
    <polygon fill="#181818" points="443.042,209.4219,433.042,213.4219,443.042,213.4219" style="stroke:#181818;stroke-width:1.0;"/>
    <line style="stroke:#181818;stroke-width:1.0;" x1="432.042" x2="831.8882" y1="213.4219" y2="213.4219"/>
    <text fill="#000000" font-family="sans-serif" font-size="13" font-weight="bold" lengthAdjust="spacing" textLength="9.0454" x="449.042" y="208.356">2</text>
    <text fill="#000000" font-family="sans-serif" font-size="13" lengthAdjust="spacing" textLength="176.376" x="462.0874" y="208.356">POST /transactionRequests</text>
    <line style="stroke:#181818;stroke-width:1.0;" x1="432.042" x2="474.042" y1="242.5547" y2="242.5547"/>
    <line style="stroke:#181818;stroke-width:1.0;" x1="474.042" x2="474.042" y1="242.5547" y2="255.5547"/>
    <line style="stroke:#181818;stroke-width:1.0;" x1="433.042" x2="474.042" y1="255.5547" y2="255.5547"/>
    <polygon fill="#181818" points="443.042,251.5547,433.042,255.5547,443.042,259.5547,439.042,255.5547" style="stroke:#181818;stroke-width:1.0;"/>
    <text fill="#000000" font-family="sans-serif" font-size="13" font-weight="bold" lengthAdjust="spacing" textLength="9.0454" x="439.042" y="237.4888">3</text>
    <text fill="#000000" font-family="sans-serif" font-size="13" lengthAdjust="spacing" textLength="296.8481" x="452.0874" y="237.4888">Valider le schéma POST /transactionRequests</text>
    <polygon fill="#181818" points="820.8882,284.6875,830.8882,284.6875,820.8882,288.6875" style="stroke:#181818;stroke-width:1.0;"/>
    <line style="stroke:#181818;stroke-width:1.0;stroke-dasharray:2.0,2.0;" x1="432.042" x2="831.8882" y1="284.6875" y2="284.6875"/>
    <text fill="#000000" font-family="sans-serif" font-size="13" font-weight="bold" lengthAdjust="spacing" textLength="9.0454" x="439.042" y="279.6216">4</text>
    <text fill="#000000" font-family="sans-serif" font-size="13" lengthAdjust="spacing" textLength="89.7305" x="452.0874" y="279.6216">202 Accepted</text>
    <path d="M9,299.6875 L73.4429,299.6875 L73.4429,306.8203 L63.4429,316.8203 L9,316.8203 L9,299.6875 " fill="#EEEEEE" style="stroke:#000000;stroke-width:1.5;"/>
    <rect fill="none" height="1088.7969" style="stroke:#000000;stroke-width:1.5;" width="1069.6963" x="9" y="299.6875"/>
    <text fill="#000000" font-family="sans-serif" font-size="13" font-weight="bold" lengthAdjust="spacing" textLength="19.4429" x="24" y="312.7544">alt</text>
    <text fill="#000000" font-family="sans-serif" font-size="11" font-weight="bold" lengthAdjust="spacing" textLength="240.6948" x="88.4429" y="311.8979">[la demande de transaction est valide]</text>
    <line style="stroke:#181818;stroke-width:1.0;" x1="432.042" x2="474.042" y1="337.9531" y2="337.9531"/>
    <line style="stroke:#181818;stroke-width:1.0;" x1="474.042" x2="474.042" y1="337.9531" y2="350.9531"/>
    <line style="stroke:#181818;stroke-width:1.0;" x1="433.042" x2="474.042" y1="350.9531" y2="350.9531"/>
    <polygon fill="#181818" points="443.042,346.9531,433.042,350.9531,443.042,354.9531,439.042,350.9531" style="stroke:#181818;stroke-width:1.0;"/>
    <text fill="#000000" font-family="sans-serif" font-size="13" font-weight="bold" lengthAdjust="spacing" textLength="9.0454" x="439.042" y="332.8872">5</text>
    <text fill="#000000" font-family="sans-serif" font-size="13" lengthAdjust="spacing" textLength="355.126" x="452.0874" y="332.8872">Valider POST /transactionRequests (validation interne)</text>
    <line style="stroke:#181818;stroke-width:1.0;" x1="432.042" x2="474.042" y1="380.0859" y2="380.0859"/>
    <line style="stroke:#181818;stroke-width:1.0;" x1="474.042" x2="474.042" y1="380.0859" y2="393.0859"/>
    <line style="stroke:#181818;stroke-width:1.0;" x1="433.042" x2="474.042" y1="393.0859" y2="393.0859"/>
    <polygon fill="#181818" points="443.042,389.0859,433.042,393.0859,443.042,397.0859,439.042,393.0859" style="stroke:#181818;stroke-width:1.0;"/>
    <text fill="#000000" font-family="sans-serif" font-size="13" font-weight="bold" lengthAdjust="spacing" textLength="9.0454" x="439.042" y="375.02">6</text>
    <text fill="#000000" font-family="sans-serif" font-size="13" lengthAdjust="spacing" textLength="333.8931" x="452.0874" y="375.02">Récupérer les points de terminaison du FSP payeur</text>
    <path d="M19,406.0859 L19,431.0859 L560,431.0859 L560,416.0859 L550,406.0859 L19,406.0859 " fill="#FEFFDD" style="stroke:#181818;stroke-width:0.5;"/>
    <path d="M550,406.0859 L550,416.0859 L560,416.0859 L550,406.0859 " fill="#FEFFDD" style="stroke:#181818;stroke-width:0.5;"/>
    <text fill="#000000" font-family="sans-serif" font-size="13" lengthAdjust="spacing" textLength="520.0381" x="25" y="423.1528">Le commutateur transmet la requête POST /transactionRequests au FSP payeur</text>
    <polygon fill="#181818" points="158.4126,453.3516,148.4126,457.3516,158.4126,457.3516" style="stroke:#181818;stroke-width:1.0;"/>
    <line style="stroke:#181818;stroke-width:1.0;" x1="147.4126" x2="431.042" y1="457.3516" y2="457.3516"/>
    <text fill="#000000" font-family="sans-serif" font-size="13" font-weight="bold" lengthAdjust="spacing" textLength="9.0454" x="164.4126" y="452.2856">7</text>
    <text fill="#000000" font-family="sans-serif" font-size="13" lengthAdjust="spacing" textLength="176.376" x="177.458" y="452.2856">POST /transactionRequests</text>
    <polygon fill="#181818" points="420.042,486.4844,430.042,486.4844,420.042,490.4844" style="stroke:#181818;stroke-width:1.0;"/>
    <line style="stroke:#181818;stroke-width:1.0;stroke-dasharray:2.0,2.0;" x1="147.4126" x2="431.042" y1="486.4844" y2="486.4844"/>
    <text fill="#000000" font-family="sans-serif" font-size="13" font-weight="bold" lengthAdjust="spacing" textLength="9.0454" x="154.4126" y="481.4185">8</text>
    <text fill="#000000" font-family="sans-serif" font-size="13" lengthAdjust="spacing" textLength="89.7305" x="167.458" y="481.4185">202 Accepted</text>
    <line style="stroke:#181818;stroke-width:1.0;" x1="147.4126" x2="189.4126" y1="515.6172" y2="515.6172"/>
    <line style="stroke:#181818;stroke-width:1.0;" x1="189.4126" x2="189.4126" y1="515.6172" y2="528.6172"/>
    <line style="stroke:#181818;stroke-width:1.0;" x1="148.4126" x2="189.4126" y1="528.6172" y2="528.6172"/>
    <polygon fill="#181818" points="158.4126,524.6172,148.4126,528.6172,158.4126,532.6172,154.4126,528.6172" style="stroke:#181818;stroke-width:1.0;"/>
    <text fill="#000000" font-family="sans-serif" font-size="13" font-weight="bold" lengthAdjust="spacing" textLength="9.0454" x="154.4126" y="510.5513">9</text>
    <text fill="#000000" font-family="sans-serif" font-size="13" lengthAdjust="spacing" textLength="222.4663" x="167.458" y="510.5513">Traiter la demande de transaction</text>
    <path d="M53,543.6172 L117.4429,543.6172 L117.4429,550.75 L107.4429,560.75 L53,560.75 L53,543.6172 " fill="#EEEEEE" style="stroke:#000000;stroke-width:1.5;"/>
    <rect fill="none" height="729.6641" style="stroke:#000000;stroke-width:1.5;" width="1015.6963" x="53" y="543.6172"/>
    <text fill="#000000" font-family="sans-serif" font-size="13" font-weight="bold" lengthAdjust="spacing" textLength="19.4429" x="68" y="556.6841">alt</text>
    <text fill="#000000" font-family="sans-serif" font-size="11" font-weight="bold" lengthAdjust="spacing" textLength="381.7881" x="132.4429" y="555.8276">[le FSP payeur traite avec succès la demande de transaction]</text>
    <path d="M73,565.75 L73,590.75 L506,590.75 L506,575.75 L496,565.75 L73,565.75 " fill="#FEFFDD" style="stroke:#181818;stroke-width:0.5;"/>
    <path d="M496,565.75 L496,575.75 L506,575.75 L496,565.75 " fill="#FEFFDD" style="stroke:#181818;stroke-width:0.5;"/>
    <text fill="#000000" font-family="sans-serif" font-size="13" lengthAdjust="spacing" textLength="343.5859" x="113.2671" y="582.8169">Le FSP payeur répond au POST /transactionRequests</text>
    <polygon fill="#181818" points="420.042,613.0156,430.042,617.0156,420.042,617.0156" style="stroke:#181818;stroke-width:1.0;"/>
    <line style="stroke:#181818;stroke-width:1.0;" x1="147.4126" x2="431.042" y1="617.0156" y2="617.0156"/>
    <text fill="#000000" font-family="sans-serif" font-size="13" font-weight="bold" lengthAdjust="spacing" textLength="18.0908" x="154.4126" y="611.9497">10</text>
    <text fill="#000000" font-family="sans-serif" font-size="13" lengthAdjust="spacing" textLength="202.1729" x="176.5034" y="611.9497">PUT /transactionRequests/{ID}</text>
    <polygon fill="#181818" points="158.4126,646.1484,148.4126,646.1484,158.4126,650.1484" style="stroke:#181818;stroke-width:1.0;"/>
    <line style="stroke:#181818;stroke-width:1.0;stroke-dasharray:2.0,2.0;" x1="147.4126" x2="431.042" y1="646.1484" y2="646.1484"/>
    <text fill="#000000" font-family="sans-serif" font-size="13" font-weight="bold" lengthAdjust="spacing" textLength="18.0908" x="164.4126" y="641.0825">11</text>
    <text fill="#000000" font-family="sans-serif" font-size="13" lengthAdjust="spacing" textLength="46.7061" x="186.5034" y="641.0825">200 Ok</text>
    <line style="stroke:#181818;stroke-width:1.0;" x1="432.042" x2="474.042" y1="675.2813" y2="675.2813"/>
    <line style="stroke:#181818;stroke-width:1.0;" x1="474.042" x2="474.042" y1="675.2813" y2="688.2813"/>
    <line style="stroke:#181818;stroke-width:1.0;" x1="433.042" x2="474.042" y1="688.2813" y2="688.2813"/>
    <polygon fill="#181818" points="443.042,684.2813,433.042,688.2813,443.042,692.2813,439.042,688.2813" style="stroke:#181818;stroke-width:1.0;"/>
    <text fill="#000000" font-family="sans-serif" font-size="13" font-weight="bold" lengthAdjust="spacing" textLength="18.0908" x="439.042" y="670.2153">12</text>
    <text fill="#000000" font-family="sans-serif" font-size="13" lengthAdjust="spacing" textLength="251.9829" x="461.1328" y="670.2153">Valider PUT /transactionRequests/{ID}</text>
    <path d="M63,703.2813 L127.4429,703.2813 L127.4429,710.4141 L117.4429,720.4141 L63,720.4141 L63,703.2813 " fill="#EEEEEE" style="stroke:#000000;stroke-width:1.5;"/>
    <rect fill="none" height="361.3984" style="stroke:#000000;stroke-width:1.5;" width="995.6963" x="63" y="703.2813"/>
    <text fill="#000000" font-family="sans-serif" font-size="13" font-weight="bold" lengthAdjust="spacing" textLength="19.4429" x="78" y="716.3481">alt</text>
    <text fill="#000000" font-family="sans-serif" font-size="11" font-weight="bold" lengthAdjust="spacing" textLength="139.627" x="142.4429" y="715.4917">[la réponse est valide]</text>
    <path d="M349,725.4141 L349,750.4141 L914,750.4141 L914,735.4141 L904,725.4141 L349,725.4141 " fill="#FEFFDD" style="stroke:#181818;stroke-width:0.5;"/>
    <path d="M904,725.4141 L904,735.4141 L914,735.4141 L904,725.4141 " fill="#FEFFDD" style="stroke:#181818;stroke-width:0.5;"/>
    <text fill="#000000" font-family="sans-serif" font-size="13" lengthAdjust="spacing" textLength="349.375" x="452.79" y="742.481">Le commutateur relaie la réponse au FSP bénéficiaire</text>
    <line style="stroke:#181818;stroke-width:1.0;" x1="432.042" x2="474.042" y1="776.6797" y2="776.6797"/>
    <line style="stroke:#181818;stroke-width:1.0;" x1="474.042" x2="474.042" y1="776.6797" y2="789.6797"/>
    <line style="stroke:#181818;stroke-width:1.0;" x1="433.042" x2="474.042" y1="789.6797" y2="789.6797"/>
    <polygon fill="#181818" points="443.042,785.6797,433.042,789.6797,443.042,793.6797,439.042,789.6797" style="stroke:#181818;stroke-width:1.0;"/>
    <text fill="#000000" font-family="sans-serif" font-size="13" font-weight="bold" lengthAdjust="spacing" textLength="18.0908" x="439.042" y="771.6138">13</text>
    <text fill="#000000" font-family="sans-serif" font-size="13" lengthAdjust="spacing" textLength="364.7554" x="461.1328" y="771.6138">Récupérer les points de terminaison du FSP bénéficiaire</text>
    <polygon fill="#181818" points="820.8882,814.8125,830.8882,818.8125,820.8882,818.8125" style="stroke:#181818;stroke-width:1.0;"/>
    <line style="stroke:#181818;stroke-width:1.0;" x1="432.042" x2="831.8882" y1="818.8125" y2="818.8125"/>
    <text fill="#000000" font-family="sans-serif" font-size="13" font-weight="bold" lengthAdjust="spacing" textLength="18.0908" x="439.042" y="813.7466">14</text>
    <text fill="#000000" font-family="sans-serif" font-size="13" lengthAdjust="spacing" textLength="202.1729" x="461.1328" y="813.7466">PUT /transactionRequests/{ID}</text>
    <polygon fill="#181818" points="443.042,847.9453,433.042,847.9453,443.042,851.9453" style="stroke:#181818;stroke-width:1.0;"/>
    <line style="stroke:#181818;stroke-width:1.0;stroke-dasharray:2.0,2.0;" x1="432.042" x2="831.8882" y1="847.9453" y2="847.9453"/>
    <text fill="#000000" font-family="sans-serif" font-size="13" font-weight="bold" lengthAdjust="spacing" textLength="18.0908" x="449.042" y="842.8794">15</text>
    <text fill="#000000" font-family="sans-serif" font-size="13" lengthAdjust="spacing" textLength="46.7061" x="471.1328" y="842.8794">200 Ok</text>
    <path d="M616,860.9453 L616,900.9453 L1048,900.9453 L1048,870.9453 L1038,860.9453 L616,860.9453 " fill="#3498DB" style="stroke:#181818;stroke-width:0.5;"/>
    <path d="M1038,860.9453 L1038,870.9453 L1048,870.9453 L1038,860.9453 " fill="#3498DB" style="stroke:#181818;stroke-width:0.5;"/>
    <text fill="#000000" font-family="sans-serif" font-size="13" lengthAdjust="spacing" textLength="411.6963" x="622" y="878.0122">Attente d&apos;une offre de change, d&apos;un transfert par le FSP payeur</text>
    <text fill="#000000" font-family="sans-serif" font-size="13" lengthAdjust="spacing" textLength="270.2578" x="622" y="893.145">ou d&apos;une demande de transaction rejetée</text>
    <line style="stroke:#000000;stroke-width:1.0;stroke-dasharray:2.0,2.0;" x1="63" x2="1058.6963" y1="907.2109" y2="907.2109"/>
    <text fill="#000000" font-family="sans-serif" font-size="11" font-weight="bold" lengthAdjust="spacing" textLength="113.1099" x="68" y="917.4214">[réponse invalide]</text>
    <path d="M73,926.0156 L73,951.0156 L506,951.0156 L506,936.0156 L496,926.0156 L73,926.0156 " fill="#FEFFDD" style="stroke:#181818;stroke-width:0.5;"/>
    <path d="M496,926.0156 L496,936.0156 L506,936.0156 L496,926.0156 " fill="#FEFFDD" style="stroke:#181818;stroke-width:0.5;"/>
    <text fill="#000000" font-family="sans-serif" font-size="13" lengthAdjust="spacing" textLength="331.4302" x="119.345" y="943.0825">Le commutateur renvoie une erreur au FSP payeur</text>
    <polygon fill="#181818" points="158.4126,973.2813,148.4126,977.2813,158.4126,977.2813" style="stroke:#181818;stroke-width:1.0;"/>
    <line style="stroke:#181818;stroke-width:1.0;" x1="147.4126" x2="431.042" y1="977.2813" y2="977.2813"/>
    <text fill="#000000" font-family="sans-serif" font-size="13" font-weight="bold" lengthAdjust="spacing" textLength="18.0908" x="164.4126" y="972.2153">16</text>
    <text fill="#000000" font-family="sans-serif" font-size="13" lengthAdjust="spacing" textLength="238.5386" x="186.5034" y="972.2153">PUT /transactionRequests/{ID}/error</text>
    <polygon fill="#181818" points="420.042,1006.4141,430.042,1006.4141,420.042,1010.4141" style="stroke:#181818;stroke-width:1.0;"/>
    <line style="stroke:#181818;stroke-width:1.0;stroke-dasharray:2.0,2.0;" x1="147.4126" x2="431.042" y1="1006.4141" y2="1006.4141"/>
    <text fill="#000000" font-family="sans-serif" font-size="13" font-weight="bold" lengthAdjust="spacing" textLength="18.0908" x="154.4126" y="1001.3481">17</text>
    <text fill="#000000" font-family="sans-serif" font-size="13" lengthAdjust="spacing" textLength="46.7061" x="176.5034" y="1001.3481">200 Ok</text>
    <path d="M73,1019.4141 L73,1059.4141 L506,1059.4141 L506,1029.4141 L496,1019.4141 L73,1019.4141 " fill="#EC7063" style="stroke:#181818;stroke-width:0.5;"/>
    <path d="M496,1019.4141 L496,1029.4141 L506,1029.4141 L496,1019.4141 " fill="#EC7063" style="stroke:#181818;stroke-width:0.5;"/>
    <text fill="#000000" font-family="sans-serif" font-size="13" lengthAdjust="spacing" textLength="239.4971" x="165.3115" y="1036.481">Dans ce scénario, le FSP bénéficiaire</text>
    <text fill="#000000" font-family="sans-serif" font-size="13" lengthAdjust="spacing" textLength="211.377" x="165.3115" y="1051.6138">peut ne pas recevoir de réponse</text>
    <line style="stroke:#000000;stroke-width:1.0;stroke-dasharray:2.0,2.0;" x1="53" x2="1068.6963" y1="1072.6797" y2="1072.6797"/>
    <text fill="#000000" font-family="sans-serif" font-size="11" font-weight="bold" lengthAdjust="spacing" textLength="302.1938" x="58" y="1082.8901">[échec du traitement ou rejet par le FSP payeur]</text>
    <path d="M73,1091.4844 L73,1116.4844 L506,1116.4844 L506,1101.4844 L496,1091.4844 L73,1091.4844 " fill="#FEFFDD" style="stroke:#181818;stroke-width:0.5;"/>
    <path d="M496,1091.4844 L496,1101.4844 L506,1101.4844 L496,1091.4844 " fill="#FEFFDD" style="stroke:#181818;stroke-width:0.5;"/>
    <text fill="#000000" font-family="sans-serif" font-size="13" lengthAdjust="spacing" textLength="331.4302" x="119.345" y="1108.5513">Le FSP payeur renvoie une erreur au commutateur</text>
    <polygon fill="#181818" points="420.042,1138.75,430.042,1142.75,420.042,1142.75" style="stroke:#181818;stroke-width:1.0;"/>
    <line style="stroke:#181818;stroke-width:1.0;" x1="147.4126" x2="431.042" y1="1142.75" y2="1142.75"/>
    <text fill="#000000" font-family="sans-serif" font-size="13" font-weight="bold" lengthAdjust="spacing" textLength="18.0908" x="154.4126" y="1137.6841">18</text>
    <text fill="#000000" font-family="sans-serif" font-size="13" lengthAdjust="spacing" textLength="238.5386" x="176.5034" y="1137.6841">PUT /transactionRequests/{ID}/error</text>
    <polygon fill="#181818" points="158.4126,1171.8828,148.4126,1171.8828,158.4126,1175.8828" style="stroke:#181818;stroke-width:1.0;"/>
    <line style="stroke:#181818;stroke-width:1.0;stroke-dasharray:2.0,2.0;" x1="147.4126" x2="431.042" y1="1171.8828" y2="1171.8828"/>
    <text fill="#000000" font-family="sans-serif" font-size="13" font-weight="bold" lengthAdjust="spacing" textLength="18.0908" x="164.4126" y="1166.8169">19</text>
    <text fill="#000000" font-family="sans-serif" font-size="13" lengthAdjust="spacing" textLength="47.7026" x="186.5034" y="1166.8169">200 OK</text>
    <path d="M349,1184.8828 L349,1209.8828 L914,1209.8828 L914,1194.8828 L904,1184.8828 L349,1184.8828 " fill="#FEFFDD" style="stroke:#181818;stroke-width:0.5;"/>
    <path d="M904,1184.8828 L904,1194.8828 L914,1194.8828 L904,1184.8828 " fill="#FEFFDD" style="stroke:#181818;stroke-width:0.5;"/>
    <text fill="#000000" font-family="sans-serif" font-size="13" lengthAdjust="spacing" textLength="362.2925" x="446.3313" y="1201.9497">Le commutateur renvoie une erreur au FSP bénéficiaire</text>
    <polygon fill="#181818" points="820.8882,1232.1484,830.8882,1236.1484,820.8882,1236.1484" style="stroke:#181818;stroke-width:1.0;"/>
    <line style="stroke:#181818;stroke-width:1.0;" x1="432.042" x2="831.8882" y1="1236.1484" y2="1236.1484"/>
    <text fill="#000000" font-family="sans-serif" font-size="13" font-weight="bold" lengthAdjust="spacing" textLength="18.0908" x="439.042" y="1231.0825">20</text>
    <text fill="#000000" font-family="sans-serif" font-size="13" lengthAdjust="spacing" textLength="238.5386" x="461.1328" y="1231.0825">PUT /transactionRequests/{ID}/error</text>
    <polygon fill="#181818" points="443.042,1265.2813,433.042,1265.2813,443.042,1269.2813" style="stroke:#181818;stroke-width:1.0;"/>
    <line style="stroke:#181818;stroke-width:1.0;stroke-dasharray:2.0,2.0;" x1="432.042" x2="831.8882" y1="1265.2813" y2="1265.2813"/>
    <text fill="#000000" font-family="sans-serif" font-size="13" font-weight="bold" lengthAdjust="spacing" textLength="18.0908" x="449.042" y="1260.2153">21</text>
    <text fill="#000000" font-family="sans-serif" font-size="13" lengthAdjust="spacing" textLength="47.7026" x="471.1328" y="1260.2153">200 OK</text>
    <line style="stroke:#000000;stroke-width:1.0;stroke-dasharray:2.0,2.0;" x1="9" x2="1078.6963" y1="1281.2813" y2="1281.2813"/>
    <text fill="#000000" font-family="sans-serif" font-size="11" font-weight="bold" lengthAdjust="spacing" textLength="252.2964" x="14" y="1291.4917">[la demande de transaction est invalide]</text>
    <path d="M349,1300.0859 L349,1325.0859 L914,1325.0859 L914,1310.0859 L904,1300.0859 L349,1300.0859 " fill="#FEFFDD" style="stroke:#181818;stroke-width:0.5;"/>
    <path d="M904,1300.0859 L904,1310.0859 L914,1310.0859 L904,1300.0859 " fill="#FEFFDD" style="stroke:#181818;stroke-width:0.5;"/>
    <text fill="#000000" font-family="sans-serif" font-size="13" lengthAdjust="spacing" textLength="362.2925" x="446.3313" y="1317.1528">Le commutateur renvoie une erreur au FSP bénéficiaire</text>
    <polygon fill="#181818" points="820.8882,1347.3516,830.8882,1351.3516,820.8882,1351.3516" style="stroke:#181818;stroke-width:1.0;"/>
    <line style="stroke:#181818;stroke-width:1.0;" x1="432.042" x2="831.8882" y1="1351.3516" y2="1351.3516"/>
    <text fill="#000000" font-family="sans-serif" font-size="13" font-weight="bold" lengthAdjust="spacing" textLength="18.0908" x="439.042" y="1346.2856">22</text>
    <text fill="#000000" font-family="sans-serif" font-size="13" lengthAdjust="spacing" textLength="238.5386" x="461.1328" y="1346.2856">PUT /transactionRequests/{ID}/error</text>
    <polygon fill="#181818" points="443.042,1380.4844,433.042,1380.4844,443.042,1384.4844" style="stroke:#181818;stroke-width:1.0;"/>
    <line style="stroke:#181818;stroke-width:1.0;stroke-dasharray:2.0,2.0;" x1="432.042" x2="831.8882" y1="1380.4844" y2="1380.4844"/>
    <text fill="#000000" font-family="sans-serif" font-size="13" font-weight="bold" lengthAdjust="spacing" textLength="18.0908" x="449.042" y="1375.4185">23</text>
    <text fill="#000000" font-family="sans-serif" font-size="13" lengthAdjust="spacing" textLength="47.7026" x="471.1328" y="1375.4185">200 OK</text>
  </g>
</svg>
