<svg xmlns="http://www.w3.org/2000/svg" height="1145" preserveAspectRatio="none" style="width:1404px;height:1145px" width="1404">
  <defs>
    <filter height="300%" id="a" width="300%" x="-1" y="-1">
      <feGaussianBlur result="blurOut" stdDeviation="2"/>
      <feColorMatrix in="blurOut" result="blurOut2" values="0 0 0 0 0 0 0 0 0 0 0 0 0 0 0 0 0 0 .4 0"/>
      <feOffset dx="4" dy="4" in="blurOut2" result="blurOut3"/>
      <feBlend in="SourceGraphic" in2="blurOut3"/>
    </filter>
  </defs>
  <text font-family="sans-serif" font-size="18" lengthAdjust="spacingAndGlyphs" textLength="211" x="594.75" y="28.708">
    2.3.0. Transfer Timeout
  </text>
  <path fill="#D3D3D3" stroke="#a80036" d="M1 40.953h204V1139.93H1z"/>
  <text font-family="sans-serif" font-size="13" font-weight="bold" lengthAdjust="spacingAndGlyphs" textLength="198" x="4" y="53.02">
    Financial Service Providers
  </text>
  <path fill="#ADD8E6" stroke="#a80036" d="M207 40.953h226V1139.93H207z"/>
  <text font-family="sans-serif" font-size="13" font-weight="bold" lengthAdjust="spacingAndGlyphs" textLength="173" x="233.5" y="53.02">
    ML API Adapter Service
  </text>
  <path fill="#FFFFE0" stroke="#a80036" d="M435 40.953h939.5V1139.93H435z"/>
  <text font-family="sans-serif" font-size="13" font-weight="bold" lengthAdjust="spacingAndGlyphs" textLength="111" x="849.25" y="53.02">
    Central Service
  </text>
  <path fill="#FFF" filter="url(#a)" stroke="#a80036" d="M383 169.68h10v857.656h-10zM494.5 169.68h10v858.656h-10zM817.5 169.68h10v857.656h-10zM1140.5 169.68h10v857.656h-10z"/>
  <path fill="#FFF" filter="url(#a)" stroke="#000" stroke-width="2" d="M26 176.68h1364.5v843.656H26z"/>
  <path fill="#FFF" filter="url(#a)" stroke="#000" stroke-width="2" d="M781 429.875h599.5v208.867H781z"/>
  <path fill="#FFF" d="M781 476.141h599.5v162.602H781z"/>
  <path fill="#FFF" filter="url(#a)" stroke="#000" stroke-width="2" d="M36 652.742h1344.5v160.797H36zM98 881.672h1282.5v131.664H98z"/>
  <path stroke="#a80036" stroke-dasharray="5,5" d="M72 159.68v877.656M134 159.68v877.656M241 159.68v877.656M388 159.68v877.656M499 159.68v877.656M656 159.68v877.656M822 159.68v877.656M979 159.68v877.656M1145 159.68v877.656M1302.5 159.68v877.656"/>
  <text font-family="sans-serif" font-size="14" lengthAdjust="spacingAndGlyphs" textLength="46" x="46" y="140.081">
    DFSP1
  </text>
  <text font-family="sans-serif" font-size="14" lengthAdjust="spacingAndGlyphs" textLength="38" x="50" y="156.378">
    Payer
  </text>
  <circle cx="72" cy="70.086" fill="#FEFECE" filter="url(#a)" stroke="#a80036" stroke-width="2" r="8"/>
  <path d="M72 78.086v27m-13-19h26m-13 19l-13 15m13-15l13 15" fill="none" filter="url(#a)" stroke="#a80036" stroke-width="2"/>
  <text font-family="sans-serif" font-size="14" lengthAdjust="spacingAndGlyphs" textLength="46" x="46" y="1049.331">
    DFSP1
  </text>
  <text font-family="sans-serif" font-size="14" lengthAdjust="spacingAndGlyphs" textLength="38" x="50" y="1065.628">
    Payer
  </text>
  <circle cx="72" cy="1078.93" fill="#FEFECE" filter="url(#a)" stroke="#a80036" stroke-width="2" r="8"/>
  <path d="M72 1086.93v27m-13-19h26m-13 19l-13 15m13-15l13 15" fill="none" filter="url(#a)" stroke="#a80036" stroke-width="2"/>
  <text font-family="sans-serif" font-size="14" lengthAdjust="spacingAndGlyphs" textLength="46" x="108" y="140.081">
    DFSP2
  </text>
  <text font-family="sans-serif" font-size="14" lengthAdjust="spacingAndGlyphs" textLength="42" x="110" y="156.378">
    Payee
  </text>
  <circle cx="134" cy="70.086" fill="#FEFECE" filter="url(#a)" stroke="#a80036" stroke-width="2" r="8"/>
  <path d="M134 78.086v27m-13-19h26m-13 19l-13 15m13-15l13 15" fill="none" filter="url(#a)" stroke="#a80036" stroke-width="2"/>
  <text font-family="sans-serif" font-size="14" lengthAdjust="spacingAndGlyphs" textLength="46" x="108" y="1049.331">
    DFSP2
  </text>
  <text font-family="sans-serif" font-size="14" lengthAdjust="spacingAndGlyphs" textLength="42" x="110" y="1065.628">
    Payee
  </text>
  <circle cx="134" cy="1078.93" fill="#FEFECE" filter="url(#a)" stroke="#a80036" stroke-width="2" r="8"/>
  <path d="M134 1086.93v27m-13-19h26m-13 19l-13 15m13-15l13 15" fill="none" filter="url(#a)" stroke="#a80036" stroke-width="2"/>
  <text font-family="sans-serif" font-size="14" lengthAdjust="spacingAndGlyphs" textLength="44" x="216" y="140.081">
    ML API
  </text>
  <text font-family="sans-serif" font-size="14" lengthAdjust="spacingAndGlyphs" textLength="54" x="211" y="156.378">
    Adapter
  </text>
  <path d="M220.5 99.086v24m0-12h17" fill="none" filter="url(#a)" stroke="#a80036" stroke-width="2"/>
  <circle cx="249.5" cy="111.086" fill="#FEFECE" filter="url(#a)" stroke="#a80036" stroke-width="2" r="12"/>
  <text font-family="sans-serif" font-size="14" lengthAdjust="spacingAndGlyphs" textLength="44" x="216" y="1049.331">
    ML API
  </text>
  <text font-family="sans-serif" font-size="14" lengthAdjust="spacingAndGlyphs" textLength="54" x="211" y="1065.628">
    Adapter
  </text>
  <path d="M220.5 1072.93v24m0-12h17" fill="none" filter="url(#a)" stroke="#a80036" stroke-width="2"/>
  <circle cx="249.5" cy="1084.93" fill="#FEFECE" filter="url(#a)" stroke="#a80036" stroke-width="2" r="12"/>
  <text font-family="sans-serif" font-size="14" lengthAdjust="spacingAndGlyphs" textLength="76" x="347" y="140.081">
    Notification
  </text>
  <text font-family="sans-serif" font-size="14" lengthAdjust="spacingAndGlyphs" textLength="53" x="358.5" y="156.378">
    Handler
  </text>
  <circle cx="388" cy="111.086" fill="#FEFECE" filter="url(#a)" stroke="#a80036" stroke-width="2" r="12"/>
  <path fill="#A80036" stroke="#a80036" d="M384 99.086l6-5-2 5 2 5-6-5z"/>
  <text font-family="sans-serif" font-size="14" lengthAdjust="spacingAndGlyphs" textLength="76" x="347" y="1049.331">
    Notification
  </text>
  <text font-family="sans-serif" font-size="14" lengthAdjust="spacingAndGlyphs" textLength="53" x="358.5" y="1065.628">
    Handler
  </text>
  <circle cx="388" cy="1084.93" fill="#FEFECE" filter="url(#a)" stroke="#a80036" stroke-width="2" r="12"/>
  <path fill="#A80036" stroke="#a80036" d="M384 1072.93l6-5-2 5 2 5-6-5z"/>
  <text font-family="sans-serif" font-size="14" lengthAdjust="spacingAndGlyphs" textLength="115" x="439" y="140.081">
    Timeout Prepare
  </text>
  <text font-family="sans-serif" font-size="14" lengthAdjust="spacingAndGlyphs" textLength="53" x="470" y="156.378">
    Handler
  </text>
  <circle cx="499.5" cy="111.086" fill="#FEFECE" filter="url(#a)" stroke="#a80036" stroke-width="2" r="12"/>
  <path fill="#A80036" stroke="#a80036" d="M495.5 99.086l6-5-2 5 2 5-6-5z"/>
  <text font-family="sans-serif" font-size="14" lengthAdjust="spacingAndGlyphs" textLength="115" x="439" y="1049.331">
    Timeout Prepare
  </text>
  <text font-family="sans-serif" font-size="14" lengthAdjust="spacingAndGlyphs" textLength="53" x="470" y="1065.628">
    Handler
  </text>
  <circle cx="499.5" cy="1084.93" fill="#FEFECE" filter="url(#a)" stroke="#a80036" stroke-width="2" r="12"/>
  <path fill="#A80036" stroke="#a80036" d="M495.5 1072.93l6-5-2 5 2 5-6-5z"/>
  <path fill="#FEFECE" filter="url(#a)" stroke="#a80036" stroke-width="1.5" d="M594 104.086h125v46.594H594z"/>
  <path fill="#FEFECE" filter="url(#a)" stroke="#a80036" stroke-width="1.5" d="M590 108.086h125v46.594H590z"/>
  <text font-family="sans-serif" font-size="14" lengthAdjust="spacingAndGlyphs" textLength="39" x="633" y="128.081">
    topic-
  </text>
  <text font-family="sans-serif" font-size="14" lengthAdjust="spacingAndGlyphs" textLength="111" x="597" y="144.378">
    transfer-timeout
  </text>
  <path fill="#FEFECE" filter="url(#a)" stroke="#a80036" stroke-width="1.5" d="M594 1036.336h125v46.594H594z"/>
  <path fill="#FEFECE" filter="url(#a)" stroke="#a80036" stroke-width="1.5" d="M590 1040.336h125v46.594H590z"/>
  <text font-family="sans-serif" font-size="14" lengthAdjust="spacingAndGlyphs" textLength="39" x="633" y="1060.331">
    topic-
  </text>
  <text font-family="sans-serif" font-size="14" lengthAdjust="spacingAndGlyphs" textLength="111" x="597" y="1076.628">
    transfer-timeout
  </text>
  <text font-family="sans-serif" font-size="14" lengthAdjust="spacingAndGlyphs" textLength="57" x="791" y="140.081">
    Timeout
  </text>
  <text font-family="sans-serif" font-size="14" lengthAdjust="spacingAndGlyphs" textLength="53" x="793" y="156.378">
    Handler
  </text>
  <circle cx="822.5" cy="111.086" fill="#FEFECE" filter="url(#a)" stroke="#a80036" stroke-width="2" r="12"/>
  <path fill="#A80036" stroke="#a80036" d="M818.5 99.086l6-5-2 5 2 5-6-5z"/>
  <text font-family="sans-serif" font-size="14" lengthAdjust="spacingAndGlyphs" textLength="57" x="791" y="1049.331">
    Timeout
  </text>
  <text font-family="sans-serif" font-size="14" lengthAdjust="spacingAndGlyphs" textLength="53" x="793" y="1065.628">
    Handler
  </text>
  <circle cx="822.5" cy="1084.93" fill="#FEFECE" filter="url(#a)" stroke="#a80036" stroke-width="2" r="12"/>
  <path fill="#A80036" stroke="#a80036" d="M818.5 1072.93l6-5-2 5 2 5-6-5z"/>
  <path fill="#FEFECE" filter="url(#a)" stroke="#a80036" stroke-width="1.5" d="M916 104.086h127v46.594H916z"/>
  <path fill="#FEFECE" filter="url(#a)" stroke="#a80036" stroke-width="1.5" d="M912 108.086h127v46.594H912z"/>
  <text font-family="sans-serif" font-size="14" lengthAdjust="spacingAndGlyphs" textLength="39" x="956" y="128.081">
    topic-
  </text>
  <text font-family="sans-serif" font-size="14" lengthAdjust="spacingAndGlyphs" textLength="113" x="919" y="144.378">
    transfer-position
  </text>
  <path fill="#FEFECE" filter="url(#a)" stroke="#a80036" stroke-width="1.5" d="M916 1036.336h127v46.594H916z"/>
  <path fill="#FEFECE" filter="url(#a)" stroke="#a80036" stroke-width="1.5" d="M912 1040.336h127v46.594H912z"/>
  <text font-family="sans-serif" font-size="14" lengthAdjust="spacingAndGlyphs" textLength="39" x="956" y="1060.331">
    topic-
  </text>
  <text font-family="sans-serif" font-size="14" lengthAdjust="spacingAndGlyphs" textLength="113" x="919" y="1076.628">
    transfer-position
  </text>
  <text font-family="sans-serif" font-size="14" lengthAdjust="spacingAndGlyphs" textLength="55" x="1115" y="140.081">
    Position
  </text>
  <text font-family="sans-serif" font-size="14" lengthAdjust="spacingAndGlyphs" textLength="53" x="1116" y="156.378">
    Handler
  </text>
  <circle cx="1145.5" cy="111.086" fill="#FEFECE" filter="url(#a)" stroke="#a80036" stroke-width="2" r="12"/>
  <path fill="#A80036" stroke="#a80036" d="M1141.5 99.086l6-5-2 5 2 5-6-5z"/>
  <text font-family="sans-serif" font-size="14" lengthAdjust="spacingAndGlyphs" textLength="55" x="1115" y="1049.331">
    Position
  </text>
  <text font-family="sans-serif" font-size="14" lengthAdjust="spacingAndGlyphs" textLength="53" x="1116" y="1065.628">
    Handler
  </text>
  <circle cx="1145.5" cy="1084.93" fill="#FEFECE" filter="url(#a)" stroke="#a80036" stroke-width="2" r="12"/>
  <path fill="#A80036" stroke="#a80036" d="M1141.5 1072.93l6-5-2 5 2 5-6-5z"/>
  <path fill="#FEFECE" filter="url(#a)" stroke="#a80036" stroke-width="1.5" d="M1238.5 120.383h128v30.297h-128z"/>
  <path fill="#FEFECE" filter="url(#a)" stroke="#a80036" stroke-width="1.5" d="M1234.5 124.383h128v30.297h-128z"/>
  <text font-family="sans-serif" font-size="14" lengthAdjust="spacingAndGlyphs" textLength="114" x="1241.5" y="144.378">
    topic-notification
  </text>
  <path fill="#FEFECE" filter="url(#a)" stroke="#a80036" stroke-width="1.5" d="M1238.5 1036.336h128v30.297h-128z"/>
  <path fill="#FEFECE" filter="url(#a)" stroke="#a80036" stroke-width="1.5" d="M1234.5 1040.336h128v30.297h-128z"/>
  <text font-family="sans-serif" font-size="14" lengthAdjust="spacingAndGlyphs" textLength="114" x="1241.5" y="1060.331">
    topic-notification
  </text>
  <path fill="#FFF" filter="url(#a)" stroke="#a80036" d="M383 169.68h10v857.656h-10zM494.5 169.68h10v858.656h-10zM817.5 169.68h10v857.656h-10zM1140.5 169.68h10v857.656h-10z"/>
  <path d="M26 176.68h156v7l-10 10H26v-17" fill="#EEE" stroke="#000"/>
  <path fill="none" stroke="#000" stroke-width="2" d="M26 176.68h1364.5v843.656H26z"/>
  <text font-family="sans-serif" font-size="13" font-weight="bold" lengthAdjust="spacingAndGlyphs" textLength="111" x="41" y="189.747">
    Transfer Expiry
  </text>
  <path fill="#FFF" filter="url(#a)" stroke="#000" stroke-width="2" d="M436 218.813h286v55.398H436z"/>
  <path fill="#EEE" stroke="#000" stroke-width="2" d="M436 218.813h66v7l-10 10h-56v-17z"/>
  <text font-family="sans-serif" font-size="13" font-weight="bold" lengthAdjust="spacingAndGlyphs" textLength="21" x="449" y="232.879">
    ref
  </text>
  <text font-family="sans-serif" font-size="13" lengthAdjust="spacingAndGlyphs" textLength="244" x="459" y="251.879">
    Timeout Processing Handler Consume
  </text>
  <path fill="#A80036" stroke="#a80036" d="M644.5 296.344l10 4-10 4 4-4z"/>
  <path stroke="#a80036" d="M504.5 300.344h146"/>
  <text font-family="sans-serif" font-size="13" font-weight="bold" lengthAdjust="spacingAndGlyphs" textLength="9" x="511.5" y="295.278">
    1
  </text>
  <text font-family="sans-serif" font-size="13" lengthAdjust="spacingAndGlyphs" textLength="115" x="524.5" y="295.278">
    Produce message
  </text>
  <path fill="#A80036" stroke="#a80036" d="M667.5 350.477l-10 4 10 4-4-4z"/>
  <path stroke="#a80036" d="M661.5 354.477h155"/>
  <text font-family="sans-serif" font-size="13" font-weight="bold" lengthAdjust="spacingAndGlyphs" textLength="9" x="673.5" y="349.411">
    2
  </text>
  <text font-family="sans-serif" font-size="13" lengthAdjust="spacingAndGlyphs" textLength="124" x="686.5" y="349.411">
    Consume message
  </text>
  <path fill="#FFF" filter="url(#a)" stroke="#000" stroke-width="2" d="M587 362.477h266v55.398H587z"/>
  <path fill="#EEE" stroke="#000" stroke-width="2" d="M587 362.477h66v7l-10 10h-56v-17z"/>
  <text font-family="sans-serif" font-size="13" font-weight="bold" lengthAdjust="spacingAndGlyphs" textLength="21" x="600" y="376.543">
    ref
  </text>
  <text font-family="sans-serif" font-size="13" lengthAdjust="spacingAndGlyphs" textLength="244" x="600" y="395.543">
    Timeout Processing Handler Consume
  </text>
  <path d="M781 429.875h64v7l-10 10h-54v-17" fill="#EEE" stroke="#000"/>
  <path fill="none" stroke="#000" stroke-width="2" d="M781 429.875h599.5v208.867H781z"/>
  <text font-family="sans-serif" font-size="13" font-weight="bold" lengthAdjust="spacingAndGlyphs" textLength="19" x="796" y="442.942">
    alt
  </text>
  <text font-family="sans-serif" font-size="11" font-weight="bold" lengthAdjust="spacingAndGlyphs" textLength="263" x="860" y="442.085">
    [transferStateId == &apos;RECEIVED_PREPARE&apos;]
  </text>
  <path fill="#A80036" stroke="#a80036" d="M1290.5 464.14l10 4-10 4 4-4z"/>
  <path stroke="#a80036" d="M827.5 468.141h469"/>
  <text font-family="sans-serif" font-size="13" font-weight="bold" lengthAdjust="spacingAndGlyphs" textLength="9" x="834.5" y="463.075">
    3
  </text>
  <text font-family="sans-serif" font-size="13" lengthAdjust="spacingAndGlyphs" textLength="115" x="847.5" y="463.075">
    Produce message
  </text>
  <path stroke="#000" stroke-dasharray="2,2" d="M781 477.141h599.5"/>
  <text font-family="sans-serif" font-size="11" font-weight="bold" lengthAdjust="spacingAndGlyphs" textLength="204" x="786" y="487.351">
    [transferStateId == &apos;RESERVED&apos;]
  </text>
  <path fill="#A80036" stroke="#a80036" d="M967.5 508.078l10 4-10 4 4-4z"/>
  <path stroke="#a80036" d="M827.5 512.078h146"/>
  <text font-family="sans-serif" font-size="13" font-weight="bold" lengthAdjust="spacingAndGlyphs" textLength="9" x="834.5" y="507.012">
    4
  </text>
  <text font-family="sans-serif" font-size="13" lengthAdjust="spacingAndGlyphs" textLength="115" x="847.5" y="507.012">
    Produce message
  </text>
  <path fill="#A80036" stroke="#a80036" d="M990.5 537.21l-10 4 10 4-4-4z"/>
  <path stroke="#a80036" d="M984.5 541.211h155"/>
  <text font-family="sans-serif" font-size="13" font-weight="bold" lengthAdjust="spacingAndGlyphs" textLength="9" x="996.5" y="536.145">
    5
  </text>
  <text font-family="sans-serif" font-size="13" lengthAdjust="spacingAndGlyphs" textLength="124" x="1009.5" y="536.145">
    Consume message
  </text>
  <path fill="#FFF" filter="url(#a)" stroke="#000" stroke-width="2" d="M909 549.211h460.5v55.398H909z"/>
  <path fill="#EEE" stroke="#000" stroke-width="2" d="M909 549.21h66v7l-10 10h-56v-17z"/>
  <text font-family="sans-serif" font-size="13" font-weight="bold" lengthAdjust="spacingAndGlyphs" textLength="21" x="922" y="563.278">
    ref
  </text>
  <text font-family="sans-serif" font-size="13" lengthAdjust="spacingAndGlyphs" textLength="232" x="1025.25" y="582.278">
    Position Hander Consume (Timeout)
  </text>
  <path fill="#A80036" stroke="#a80036" d="M1290.5 626.742l10 4-10 4 4-4z"/>
  <path stroke="#a80036" d="M1150.5 630.742h146"/>
  <text font-family="sans-serif" font-size="13" font-weight="bold" lengthAdjust="spacingAndGlyphs" textLength="9" x="1157.5" y="625.676">
    6
  </text>
  <text font-family="sans-serif" font-size="13" lengthAdjust="spacingAndGlyphs" textLength="115" x="1170.5" y="625.676">
    Produce message
  </text>
  <path d="M36 652.742h70v7l-10 10H36v-17" fill="#EEE" stroke="#000"/>
  <path fill="none" stroke="#000" stroke-width="2" d="M36 652.742h1344.5v160.797H36z"/>
  <text font-family="sans-serif" font-size="13" font-weight="bold" lengthAdjust="spacingAndGlyphs" textLength="25" x="51" y="665.809">
    opt
  </text>
  <text font-family="sans-serif" font-size="11" font-weight="bold" lengthAdjust="spacingAndGlyphs" textLength="320" x="121" y="664.953">
    [action IN [&apos;timeout-received&apos;, &apos;timeout-reserved&apos;]]
  </text>
  <path fill="#A80036" stroke="#a80036" d="M1290.5 712.008l10 4-10 4 4-4z"/>
  <path stroke="#a80036" d="M393 716.008h903.5"/>
  <text font-family="sans-serif" font-size="13" font-weight="bold" lengthAdjust="spacingAndGlyphs" textLength="9" x="400" y="710.942">
    7
  </text>
  <text font-family="sans-serif" font-size="13" lengthAdjust="spacingAndGlyphs" textLength="124" x="413" y="710.942">
    Consume message
  </text>
  <path fill="#FFF" filter="url(#a)" stroke="#000" stroke-width="2" d="M43 724.008h1326.5v55.398H43z"/>
  <path fill="#EEE" stroke="#000" stroke-width="2" d="M43 724.008h66v7l-10 10H43v-17z"/>
  <text font-family="sans-serif" font-size="13" font-weight="bold" lengthAdjust="spacingAndGlyphs" textLength="21" x="56" y="738.075">
    ref
  </text>
  <text font-family="sans-serif" font-size="13" lengthAdjust="spacingAndGlyphs" textLength="246" x="585.25" y="757.075">
    Send notification to Participant (Payer)
  </text>
  <path fill="#A80036" stroke="#a80036" d="M83 801.54l-10 4 10 4-4-4z"/>
  <path stroke="#a80036" d="M77 805.539h305"/>
  <text font-family="sans-serif" font-size="13" font-weight="bold" lengthAdjust="spacingAndGlyphs" textLength="9" x="89" y="800.473">
    8
  </text>
  <text font-family="sans-serif" font-size="13" lengthAdjust="spacingAndGlyphs" textLength="162" x="102" y="800.473">
    Send callback notification
  </text>
  <path fill="#A80036" stroke="#a80036" d="M1290.5 862.672l10 4-10 4 4-4z"/>
  <path stroke="#a80036" d="M393 866.672h903.5"/>
  <text font-family="sans-serif" font-size="13" font-weight="bold" lengthAdjust="spacingAndGlyphs" textLength="9" x="400" y="861.606">
    9
  </text>
  <text font-family="sans-serif" font-size="13" lengthAdjust="spacingAndGlyphs" textLength="124" x="413" y="861.606">
    Consume message
  </text>
  <path d="M98 881.672h70v7l-10 10H98v-17" fill="#EEE" stroke="#000"/>
  <path fill="none" stroke="#000" stroke-width="2" d="M98 881.672h1282.5v131.664H98z"/>
  <text font-family="sans-serif" font-size="13" font-weight="bold" lengthAdjust="spacingAndGlyphs" textLength="25" x="113" y="894.739">
    opt
  </text>
  <text font-family="sans-serif" font-size="11" font-weight="bold" lengthAdjust="spacingAndGlyphs" textLength="192" x="183" y="893.882">
    [action == &apos;timeout-reserved&apos;]
  </text>
  <path fill="#FFF" filter="url(#a)" stroke="#000" stroke-width="2" d="M105 923.805h1264.5v55.398H105z"/>
  <path fill="#EEE" stroke="#000" stroke-width="2" d="M105 923.805h66v7l-10 10h-56v-17z"/>
  <text font-family="sans-serif" font-size="13" font-weight="bold" lengthAdjust="spacingAndGlyphs" textLength="21" x="118" y="937.872">
    ref
  </text>
  <text font-family="sans-serif" font-size="13" lengthAdjust="spacingAndGlyphs" textLength="249" x="614.75" y="956.872">
    Send notification to Participant (Payee)
  </text>
  <path fill="#A80036" stroke="#a80036" d="M145 1001.336l-10 4 10 4-4-4z"/>
  <path stroke="#a80036" d="M139 1005.336h243"/>
  <text font-family="sans-serif" font-size="13" font-weight="bold" lengthAdjust="spacingAndGlyphs" textLength="18" x="151" y="1000.27">
    10
  </text>
  <text font-family="sans-serif" font-size="13" lengthAdjust="spacingAndGlyphs" textLength="162" x="173" y="1000.27">
    Send callback notification
  </text>
</svg>
