<svg xmlns="http://www.w3.org/2000/svg" height="1270" preserveAspectRatio="none" style="width:1266px;height:1270px" width="1266">
  <defs>
    <filter height="300%" id="a" width="300%" x="-1" y="-1">
      <feGaussianBlur result="blurOut" stdDeviation="2"/>
      <feColorMatrix in="blurOut" result="blurOut2" values="0 0 0 0 0 0 0 0 0 0 0 0 0 0 0 0 0 0 .4 0"/>
      <feOffset dx="4" dy="4" in="blurOut2" result="blurOut3"/>
      <feBlend in="SourceGraphic" in2="blurOut3"/>
    </filter>
  </defs>
  <text font-family="sans-serif" font-size="18" lengthAdjust="spacingAndGlyphs" textLength="207" x="527.5" y="28.708">
    1.0.0 Get Health Check
  </text>
  <path fill="#FFFFE0" stroke="#a80036" d="M377 40.953h869v1223.234H377z"/>
  <text font-family="sans-serif" font-size="13" font-weight="bold" lengthAdjust="spacingAndGlyphs" textLength="119" x="752" y="53.02">
    Central Services
  </text>
  <path fill="#FFF" filter="url(#a)" stroke="#a80036" d="M84 132.383h10V826.5H84zM443 177.648h10V826.5h-10zM730 206.781h10v339.594h-10zM937 347.445h10v29.133h-10zM1045 405.711h10v29.133h-10zM1171 463.977h10v29.133h-10z"/>
  <path fill="#FFF" filter="url(#a)" stroke="#000" stroke-width="2" d="M10 139.383h1242v1042.508H10z"/>
  <path fill="#FFF" filter="url(#a)" stroke="#000" stroke-width="2" d="M20 508.109h788.5V834.5H20zM20 848.5h788.5v326.391H20z"/>
  <path stroke="#a80036" stroke-dasharray="5,5" d="M89 122.383v1076.508M448 122.383v1076.508M734.5 122.383v1076.508M942 122.383v1076.508M1050 122.383v1076.508M1176 122.383v1076.508"/>
  <text font-family="sans-serif" font-size="14" lengthAdjust="spacingAndGlyphs" textLength="112" x="30" y="119.081">
    HUB OPERATOR
  </text>
  <circle cx="89" cy="90.086" fill="#FEFECE" filter="url(#a)" stroke="#a80036" stroke-width="2" r="12"/>
  <path stroke="#a80036" stroke-width="2" d="M77 104.086h24"/>
  <text font-family="sans-serif" font-size="14" lengthAdjust="spacingAndGlyphs" textLength="112" x="30" y="1210.886">
    HUB OPERATOR
  </text>
  <circle cx="89" cy="1230.188" fill="#FEFECE" filter="url(#a)" stroke="#a80036" stroke-width="2" r="12"/>
  <path stroke="#a80036" stroke-width="2" d="M77 1244.188h24"/>
  <text font-family="sans-serif" font-size="14" lengthAdjust="spacingAndGlyphs" textLength="128" x="381" y="119.081">
    Central Service API
  </text>
  <path d="M427.5 78.086v24m0-12h17" fill="none" filter="url(#a)" stroke="#a80036" stroke-width="2"/>
  <circle cx="456.5" cy="90.086" fill="#FEFECE" filter="url(#a)" stroke="#a80036" stroke-width="2" r="12"/>
  <text font-family="sans-serif" font-size="14" lengthAdjust="spacingAndGlyphs" textLength="128" x="381" y="1210.886">
    Central Service API
  </text>
  <path d="M427.5 1218.188v24m0-12h17" fill="none" filter="url(#a)" stroke="#a80036" stroke-width="2"/>
  <circle cx="456.5" cy="1230.188" fill="#FEFECE" filter="url(#a)" stroke="#a80036" stroke-width="2" r="12"/>
  <text font-family="sans-serif" font-size="14" lengthAdjust="spacingAndGlyphs" textLength="121" x="671.5" y="119.081">
    Metadata Handler
  </text>
  <circle cx="735" cy="90.086" fill="#FEFECE" filter="url(#a)" stroke="#a80036" stroke-width="2" r="12"/>
  <path fill="#A80036" stroke="#a80036" d="M731 78.086l6-5-2 5 2 5-6-5z"/>
  <text font-family="sans-serif" font-size="14" lengthAdjust="spacingAndGlyphs" textLength="121" x="671.5" y="1210.886">
    Metadata Handler
  </text>
  <circle cx="735" cy="1230.188" fill="#FEFECE" filter="url(#a)" stroke="#a80036" stroke-width="2" r="12"/>
  <path fill="#A80036" stroke="#a80036" d="M731 1218.188l6-5-2 5 2 5-6-5z"/>
  <text font-family="sans-serif" font-size="14" lengthAdjust="spacingAndGlyphs" textLength="90" x="894" y="119.081">
    Central Store
  </text>
  <path d="M924 70.086c0-10 18-10 18-10s18 0 18 10v26c0 10-18 10-18 10s-18 0-18-10v-26" fill="#FEFECE" filter="url(#a)" stroke="#000" stroke-width="1.5"/>
  <path d="M924 70.086c0 10 18 10 18 10s18 0 18-10" fill="none" stroke="#000" stroke-width="1.5"/>
  <text font-family="sans-serif" font-size="14" lengthAdjust="spacingAndGlyphs" textLength="90" x="894" y="1210.886">
    Central Store
  </text>
  <path d="M924 1224.188c0-10 18-10 18-10s18 0 18 10v26c0 10-18 10-18 10s-18 0-18-10v-26" fill="#FEFECE" filter="url(#a)" stroke="#000" stroke-width="1.5"/>
  <path d="M924 1224.188c0 10 18 10 18 10s18 0 18-10" fill="none" stroke="#000" stroke-width="1.5"/>
  <path fill="#FEFECE" filter="url(#a)" stroke="#a80036" stroke-width="1.5" d="M1004 83.086h92v30.297h-92z"/>
  <path fill="#FEFECE" filter="url(#a)" stroke="#a80036" stroke-width="1.5" d="M1000 87.086h92v30.297h-92z"/>
  <text font-family="sans-serif" font-size="14" lengthAdjust="spacingAndGlyphs" textLength="78" x="1007" y="107.081">
    Kafka Store
  </text>
  <path fill="#FEFECE" filter="url(#a)" stroke="#a80036" stroke-width="1.5" d="M1004 1197.891h92v30.297h-92z"/>
  <path fill="#FEFECE" filter="url(#a)" stroke="#a80036" stroke-width="1.5" d="M1000 1201.891h92v30.297h-92z"/>
  <text font-family="sans-serif" font-size="14" lengthAdjust="spacingAndGlyphs" textLength="78" x="1007" y="1221.886">
    Kafka Store
  </text>
  <path fill="#FEFECE" filter="url(#a)" stroke="#a80036" stroke-width="1.5" d="M1114 83.086h124v30.297h-124z"/>
  <path fill="#FEFECE" filter="url(#a)" stroke="#a80036" stroke-width="1.5" d="M1110 87.086h124v30.297h-124z"/>
  <text font-family="sans-serif" font-size="14" lengthAdjust="spacingAndGlyphs" textLength="110" x="1117" y="107.081">
    Logging Sidecar
  </text>
  <path fill="#FEFECE" filter="url(#a)" stroke="#a80036" stroke-width="1.5" d="M1114 1197.891h124v30.297h-124z"/>
  <path fill="#FEFECE" filter="url(#a)" stroke="#a80036" stroke-width="1.5" d="M1110 1201.891h124v30.297h-124z"/>
  <text font-family="sans-serif" font-size="14" lengthAdjust="spacingAndGlyphs" textLength="110" x="1117" y="1221.886">
    Logging Sidecar
  </text>
  <path fill="#FFF" filter="url(#a)" stroke="#a80036" d="M84 132.383h10V826.5H84zM443 177.648h10V826.5h-10zM730 206.781h10v339.594h-10zM937 347.445h10v29.133h-10zM1045 405.711h10v29.133h-10zM1171 463.977h10v29.133h-10z"/>
  <path d="M10 139.383h241v7l-10 10H10v-17" fill="#EEE" stroke="#000"/>
  <path fill="none" stroke="#000" stroke-width="2" d="M10 139.383h1242v1042.508H10z"/>
  <text font-family="sans-serif" font-size="13" font-weight="bold" lengthAdjust="spacingAndGlyphs" textLength="196" x="25" y="152.45">
    Get Detailed Health Check
  </text>
  <path fill="#A80036" stroke="#a80036" d="M431 173.648l10 4-10 4 4-4z"/>
  <path stroke="#a80036" d="M94 177.648h343"/>
  <text font-family="sans-serif" font-size="13" font-weight="bold" lengthAdjust="spacingAndGlyphs" textLength="9" x="101" y="172.583">
    1
  </text>
  <text font-family="sans-serif" font-size="13" lengthAdjust="spacingAndGlyphs" textLength="317" x="114" y="172.583">
    Request to getHealth - GET /health?detailed=true
  </text>
  <path fill="#A80036" stroke="#a80036" d="M718 202.781l10 4-10 4 4-4z"/>
  <path stroke="#a80036" d="M453 206.781h271"/>
  <text font-family="sans-serif" font-size="13" font-weight="bold" lengthAdjust="spacingAndGlyphs" textLength="9" x="460" y="201.715">
    2
  </text>
  <text font-family="sans-serif" font-size="13" lengthAdjust="spacingAndGlyphs" textLength="245" x="473" y="201.715">
    Fetch health status for all sub services
  </text>
  <path stroke="#a80036" d="M740 235.914h42M782 235.914v13M741 248.914h41"/>
  <path fill="#A80036" stroke="#a80036" d="M751 244.914l-10 4 10 4-4-4z"/>
  <text font-family="sans-serif" font-size="13" font-weight="bold" lengthAdjust="spacingAndGlyphs" textLength="9" x="747" y="230.848">
    3
  </text>
  <text font-family="sans-serif" font-size="13" lengthAdjust="spacingAndGlyphs" textLength="151" x="760" y="230.848">
    Fetch Service Metadata
  </text>
  <path d="M745 261.914v55h158v-45l-10-10H745" fill="#FF0" filter="url(#a)" stroke="#a80036"/>
  <path d="M893 261.914v10h10l-10-10" fill="#FF0" stroke="#a80036"/>
  <text font-family="sans-serif" font-size="13" lengthAdjust="spacingAndGlyphs" textLength="107" x="751" y="278.981">
    - versionNumber
  </text>
  <text font-family="sans-serif" font-size="13" lengthAdjust="spacingAndGlyphs" textLength="54" x="751" y="294.114">
    - uptime
  </text>
  <text font-family="sans-serif" font-size="13" lengthAdjust="spacingAndGlyphs" textLength="137" x="751" y="309.247">
    - time service started
  </text>
  <path fill="#A80036" stroke="#a80036" d="M925 343.445l10 4-10 4 4-4z"/>
  <path stroke="#a80036" d="M740 347.445h191"/>
  <text font-family="sans-serif" font-size="13" font-weight="bold" lengthAdjust="spacingAndGlyphs" textLength="9" x="747" y="342.379">
    4
  </text>
  <text font-family="sans-serif" font-size="13" lengthAdjust="spacingAndGlyphs" textLength="157" x="760" y="342.379">
    Check connection status
  </text>
  <path fill="#A80036" stroke="#a80036" d="M751 372.578l-10 4 10 4-4-4z"/>
  <path stroke="#a80036" stroke-dasharray="2,2" d="M745 376.578h196"/>
  <text font-family="sans-serif" font-size="13" font-weight="bold" lengthAdjust="spacingAndGlyphs" textLength="9" x="757" y="371.512">
    5
  </text>
  <text font-family="sans-serif" font-size="13" lengthAdjust="spacingAndGlyphs" textLength="160" x="770" y="371.512">
    Report connection status
  </text>
  <path fill="#A80036" stroke="#a80036" d="M1033 401.71l10 4-10 4 4-4z"/>
  <path stroke="#a80036" d="M740 405.711h299"/>
  <text font-family="sans-serif" font-size="13" font-weight="bold" lengthAdjust="spacingAndGlyphs" textLength="9" x="747" y="400.645">
    6
  </text>
  <text font-family="sans-serif" font-size="13" lengthAdjust="spacingAndGlyphs" textLength="157" x="760" y="400.645">
    Check connection status
  </text>
  <path fill="#A80036" stroke="#a80036" d="M751 430.844l-10 4 10 4-4-4z"/>
  <path stroke="#a80036" stroke-dasharray="2,2" d="M745 434.844h304"/>
  <text font-family="sans-serif" font-size="13" font-weight="bold" lengthAdjust="spacingAndGlyphs" textLength="9" x="757" y="429.778">
    7
  </text>
  <text font-family="sans-serif" font-size="13" lengthAdjust="spacingAndGlyphs" textLength="160" x="770" y="429.778">
    Report connection status
  </text>
  <path fill="#A80036" stroke="#a80036" d="M1159 459.977l10 4-10 4 4-4z"/>
  <path stroke="#a80036" d="M740 463.977h425"/>
  <text font-family="sans-serif" font-size="13" font-weight="bold" lengthAdjust="spacingAndGlyphs" textLength="9" x="747" y="458.911">
    8
  </text>
  <text font-family="sans-serif" font-size="13" lengthAdjust="spacingAndGlyphs" textLength="157" x="760" y="458.911">
    Check connection status
  </text>
  <path fill="#A80036" stroke="#a80036" d="M751 489.11l-10 4 10 4-4-4z"/>
  <path stroke="#a80036" stroke-dasharray="2,2" d="M745 493.109h430"/>
  <text font-family="sans-serif" font-size="13" font-weight="bold" lengthAdjust="spacingAndGlyphs" textLength="9" x="757" y="488.043">
    9
  </text>
  <text font-family="sans-serif" font-size="13" lengthAdjust="spacingAndGlyphs" textLength="160" x="770" y="488.043">
    Report connection status
  </text>
  <path d="M20 508.11h64v7l-10 10H20v-17" fill="#EEE" stroke="#000"/>
  <path fill="none" stroke="#000" stroke-width="2" d="M20 508.109h788.5V834.5H20z"/>
  <text font-family="sans-serif" font-size="13" font-weight="bold" lengthAdjust="spacingAndGlyphs" textLength="19" x="35" y="521.176">
    alt
  </text>
  <text font-family="sans-serif" font-size="11" font-weight="bold" lengthAdjust="spacingAndGlyphs" textLength="173" x="99" y="520.32">
    [Validate Status (success)]
  </text>
  <path fill="#A80036" stroke="#a80036" d="M464 542.375l-10 4 10 4-4-4z"/>
  <path stroke="#a80036" stroke-dasharray="2,2" d="M458 546.375h276"/>
  <text font-family="sans-serif" font-size="13" font-weight="bold" lengthAdjust="spacingAndGlyphs" textLength="18" x="470" y="541.309">
    10
  </text>
  <text font-family="sans-serif" font-size="13" lengthAdjust="spacingAndGlyphs" textLength="149" x="492" y="541.309">
    Return status response
  </text>
  <path d="M99 559.375v236h282v-226l-10-10H99" fill="#FF0" filter="url(#a)" stroke="#a80036"/>
  <path d="M371 559.375v10h10l-10-10" fill="#FF0" stroke="#a80036"/>
  <text font-family="sans-serif" font-size="13" font-weight="bold" lengthAdjust="spacingAndGlyphs" textLength="139" x="105" y="576.442">
    Example Message:
  </text>
  <text font-family="monospace" font-size="13" lengthAdjust="spacingAndGlyphs" textLength="88" x="105" y="591.575">
    200 Success
  </text>
  <text font-family="sans-serif" font-size="13" lengthAdjust="spacingAndGlyphs" textLength="8" x="105" y="606.707">
    {
  </text>
  <text font-family="sans-serif" font-size="13" lengthAdjust="spacingAndGlyphs" textLength="90" x="113" y="621.84">
    &quot;status&quot;: &quot;UP&quot;,
  </text>
  <text font-family="sans-serif" font-size="13" lengthAdjust="spacingAndGlyphs" textLength="99" x="113" y="636.973">
    &quot;uptime&quot;: 1234,
  </text>
  <text font-family="sans-serif" font-size="13" lengthAdjust="spacingAndGlyphs" textLength="253" x="113" y="652.106">
    &quot;started&quot;: &quot;2019-05-31T05:09:25.409Z&quot;,
  </text>
  <text font-family="sans-serif" font-size="13" lengthAdjust="spacingAndGlyphs" textLength="162" x="113" y="667.239">
    &quot;versionNumber&quot;: &quot;5.2.3&quot;,
  </text>
  <text font-family="sans-serif" font-size="13" lengthAdjust="spacingAndGlyphs" textLength="75" x="113" y="682.372">
    &quot;services&quot;: [
  </text>
  <text font-family="sans-serif" font-size="13" lengthAdjust="spacingAndGlyphs" textLength="8" x="121" y="697.504">
    {
  </text>
  <text font-family="sans-serif" font-size="13" lengthAdjust="spacingAndGlyphs" textLength="103" x="129" y="712.637">
    &quot;name&quot;: &quot;kafka&quot;,
  </text>
  <text font-family="sans-serif" font-size="13" lengthAdjust="spacingAndGlyphs" textLength="90" x="129" y="727.77">
    &quot;status&quot;: &quot;UP&quot;,
  </text>
  <text font-family="sans-serif" font-size="13" lengthAdjust="spacingAndGlyphs" textLength="80" x="129" y="742.903">
    &quot;latency&quot;: 10
  </text>
  <text font-family="sans-serif" font-size="13" lengthAdjust="spacingAndGlyphs" textLength="8" x="121" y="758.036">
    }
  </text>
  <text font-family="sans-serif" font-size="13" lengthAdjust="spacingAndGlyphs" textLength="5" x="113" y="773.168">
    ]
  </text>
  <text font-family="sans-serif" font-size="13" lengthAdjust="spacingAndGlyphs" textLength="8" x="105" y="788.301">
    }
  </text>
  <path fill="#A80036" stroke="#a80036" d="M100 822.5l-10 4 10 4-4-4z"/>
  <path stroke="#a80036" stroke-dasharray="2,2" d="M94 826.5h353"/>
  <text font-family="sans-serif" font-size="13" font-weight="bold" lengthAdjust="spacingAndGlyphs" textLength="18" x="106" y="821.434">
    11
  </text>
  <text font-family="sans-serif" font-size="13" lengthAdjust="spacingAndGlyphs" textLength="42" x="128" y="821.434">
    Return
  </text>
  <text font-family="sans-serif" font-size="13" font-weight="bold" lengthAdjust="spacingAndGlyphs" textLength="94" x="174" y="821.434">
    HTTP Status:
  </text>
  <text font-family="sans-serif" font-size="13" lengthAdjust="spacingAndGlyphs" textLength="24" x="272" y="821.434">
    200
  </text>
  <path d="M20 848.5h64v7l-10 10H20v-17" fill="#EEE" stroke="#000"/>
  <path fill="none" stroke="#000" stroke-width="2" d="M20 848.5h788.5v326.391H20z"/>
  <text font-family="sans-serif" font-size="13" font-weight="bold" lengthAdjust="spacingAndGlyphs" textLength="19" x="35" y="861.567">
    alt
  </text>
  <text font-family="sans-serif" font-size="11" font-weight="bold" lengthAdjust="spacingAndGlyphs" textLength="214" x="99" y="860.71">
    [Validate Status (service failure)]
  </text>
  <path fill="#A80036" stroke="#a80036" d="M459 882.766l-10 4 10 4-4-4z"/>
  <path stroke="#a80036" stroke-dasharray="2,2" d="M453 886.766h281"/>
  <text font-family="sans-serif" font-size="13" font-weight="bold" lengthAdjust="spacingAndGlyphs" textLength="18" x="465" y="881.7">
    12
  </text>
  <text font-family="sans-serif" font-size="13" lengthAdjust="spacingAndGlyphs" textLength="149" x="487" y="881.7">
    Return status response
  </text>
  <path d="M94 899.766v236h282v-226l-10-10H94" fill="#FF0" filter="url(#a)" stroke="#a80036"/>
  <path d="M366 899.766v10h10l-10-10" fill="#FF0" stroke="#a80036"/>
  <text font-family="sans-serif" font-size="13" font-weight="bold" lengthAdjust="spacingAndGlyphs" textLength="139" x="100" y="916.832">
    Example Message:
  </text>
  <text font-family="monospace" font-size="13" lengthAdjust="spacingAndGlyphs" textLength="120" x="100" y="931.965">
    502 Bad Gateway
  </text>
  <text font-family="sans-serif" font-size="13" lengthAdjust="spacingAndGlyphs" textLength="8" x="100" y="947.098">
    {
  </text>
  <text font-family="sans-serif" font-size="13" lengthAdjust="spacingAndGlyphs" textLength="113" x="108" y="962.231">
    &quot;status&quot;: &quot;DOWN&quot;,
  </text>
  <text font-family="sans-serif" font-size="13" lengthAdjust="spacingAndGlyphs" textLength="99" x="108" y="977.364">
    &quot;uptime&quot;: 1234,
  </text>
  <text font-family="sans-serif" font-size="13" lengthAdjust="spacingAndGlyphs" textLength="253" x="108" y="992.497">
    &quot;started&quot;: &quot;2019-05-31T05:09:25.409Z&quot;,
  </text>
  <text font-family="sans-serif" font-size="13" lengthAdjust="spacingAndGlyphs" textLength="162" x="108" y="1007.629">
    &quot;versionNumber&quot;: &quot;5.2.3&quot;,
  </text>
  <text font-family="sans-serif" font-size="13" lengthAdjust="spacingAndGlyphs" textLength="75" x="108" y="1022.762">
    &quot;services&quot;: [
  </text>
  <text font-family="sans-serif" font-size="13" lengthAdjust="spacingAndGlyphs" textLength="8" x="116" y="1037.895">
    {
  </text>
  <text font-family="sans-serif" font-size="13" lengthAdjust="spacingAndGlyphs" textLength="103" x="124" y="1053.028">
    &quot;name&quot;: &quot;kafka&quot;,
  </text>
  <text font-family="sans-serif" font-size="13" lengthAdjust="spacingAndGlyphs" textLength="113" x="124" y="1068.161">
    &quot;status&quot;: &quot;DOWN&quot;,
  </text>
  <text font-family="sans-serif" font-size="13" lengthAdjust="spacingAndGlyphs" textLength="120" x="124" y="1083.293">
    &quot;latency&quot;: 1111111
  </text>
  <text font-family="sans-serif" font-size="13" lengthAdjust="spacingAndGlyphs" textLength="8" x="116" y="1098.426">
    }
  </text>
  <text font-family="sans-serif" font-size="13" lengthAdjust="spacingAndGlyphs" textLength="5" x="108" y="1113.559">
    ]
  </text>
  <text font-family="sans-serif" font-size="13" lengthAdjust="spacingAndGlyphs" textLength="8" x="100" y="1128.692">
    }
  </text>
  <path fill="#A80036" stroke="#a80036" d="M100 1162.89l-10 4 10 4-4-4z"/>
  <path stroke="#a80036" stroke-dasharray="2,2" d="M94 1166.891h353"/>
  <text font-family="sans-serif" font-size="13" font-weight="bold" lengthAdjust="spacingAndGlyphs" textLength="18" x="106" y="1161.825">
    13
  </text>
  <text font-family="sans-serif" font-size="13" lengthAdjust="spacingAndGlyphs" textLength="42" x="128" y="1161.825">
    Return
  </text>
  <text fill="red" font-family="sans-serif" font-size="13" font-weight="bold" lengthAdjust="spacingAndGlyphs" textLength="94" x="174" y="1161.825">
    HTTP Status:
  </text>
  <text fill="red" font-family="sans-serif" font-size="13" lengthAdjust="spacingAndGlyphs" textLength="24" x="272" y="1161.825">
    502
  </text>
</svg>
