<svg xmlns="http://www.w3.org/2000/svg" xmlns:xlink="http://www.w3.org/1999/xlink" contentStyleType="text/css" height="1144px" preserveAspectRatio="none" style="width:2078px;height:1144px;background:#FFFFFF;" version="1.1" viewBox="0 0 2078 1144" width="2078px" zoomAndPan="magnify">
  <title>1.1.4.a. Send notification to Participant (Payer/Payee) (single message)</title>
  <defs/>
  <g>
    <text fill="#000000" font-family="sans-serif" font-size="14" font-weight="bold" lengthAdjust="spacing" textLength="568.9482" x="751.5557" y="27.9951">1.1.4.a. Send notification to Participant (Payer/Payee) (single message)</text>
    <rect fill="#D3D3D3" height="1094.9766" style="stroke:#181818;stroke-width:0.5;" width="255.8501" x="1" y="43.2969"/>
    <text fill="#000000" font-family="sans-serif" font-size="13" font-weight="bold" lengthAdjust="spacing" textLength="249.8501" x="4" y="55.3638">Financial Service Provider (Payer)</text>
    <rect fill="#ADD8E6" height="1094.9766" style="stroke:#181818;stroke-width:0.5;" width="249.3887" x="428.7676" y="43.2969"/>
    <text fill="#000000" font-family="sans-serif" font-size="13" font-weight="bold" lengthAdjust="spacing" textLength="172.1548" x="467.3845" y="55.3638">ML API Adapter Service</text>
    <rect fill="#FFFFE0" height="1094.9766" style="stroke:#181818;stroke-width:0.5;" width="1109.9565" x="701.8472" y="43.2969"/>
    <text fill="#000000" font-family="sans-serif" font-size="13" font-weight="bold" lengthAdjust="spacing" textLength="112.0361" x="1200.8074" y="55.3638">Central Service</text>
    <rect fill="#D3D3D3" height="1094.9766" style="stroke:#181818;stroke-width:0.5;" width="258.2559" x="1813.8037" y="43.2969"/>
    <text fill="#000000" font-family="sans-serif" font-size="13" font-weight="bold" lengthAdjust="spacing" textLength="252.2559" x="1816.8037" y="55.3638">Financial Service Provider (Payee)</text>
    <rect fill="#FFFFFF" height="867.6563" style="stroke:#181818;stroke-width:1.0;" width="10" x="548.4619" y="165.0234"/>
    <rect fill="#FFFFFF" height="30" style="stroke:#181818;stroke-width:1.0;" width="10" x="771.333" y="210.2891"/>
    <rect fill="#FFFFFF" height="195.4688" style="stroke:#181818;stroke-width:1.0;" width="10" x="1109.3838" y="293.5547"/>
    <rect fill="#FFFFFF" height="209.0625" style="stroke:#181818;stroke-width:1.0;" width="10" x="1109.3838" y="590.5547"/>
    <rect fill="#FFFFFF" height="137.2031" style="stroke:#181818;stroke-width:1.0;" width="10" x="1318.5439" y="322.6875"/>
    <rect fill="#FFFFFF" height="120.5313" style="stroke:#181818;stroke-width:1.0;" width="10" x="1437.6177" y="634.8203"/>
    <rect fill="#FFFFFF" height="62.2656" style="stroke:#181818;stroke-width:1.0;" width="10" x="1753.4355" y="663.9531"/>
    <rect fill="none" height="853.6563" style="stroke:#000000;stroke-width:1.5;" width="1931.7234" x="75.781" y="172.0234"/>
    <rect fill="none" height="241.7344" style="stroke:#000000;stroke-width:1.5;" width="1007.9136" x="422.7676" y="255.2891"/>
    <rect fill="none" height="115.5313" style="stroke:#000000;stroke-width:1.5;" width="1574.7368" x="422.7676" y="903.1484"/>
    <line style="stroke:#181818;stroke-width:0.5;stroke-dasharray:5.0,5.0;" x1="128.781" x2="128.781" y1="155.0234" y2="1042.6797"/>
    <line style="stroke:#181818;stroke-width:0.5;stroke-dasharray:5.0,5.0;" x1="552.7676" x2="552.7676" y1="155.0234" y2="1042.6797"/>
    <line style="stroke:#181818;stroke-width:0.5;stroke-dasharray:5.0,5.0;" x1="775.8472" x2="775.8472" y1="155.0234" y2="1042.6797"/>
    <line style="stroke:#181818;stroke-width:0.5;stroke-dasharray:5.0,5.0;" x1="1113.501" x2="1113.501" y1="155.0234" y2="1042.6797"/>
    <line style="stroke:#181818;stroke-width:0.5;stroke-dasharray:5.0,5.0;" x1="1323.1694" x2="1323.1694" y1="155.0234" y2="1042.6797"/>
    <line style="stroke:#181818;stroke-width:0.5;stroke-dasharray:5.0,5.0;" x1="1441.9185" x2="1441.9185" y1="155.0234" y2="1042.6797"/>
    <line style="stroke:#181818;stroke-width:0.5;stroke-dasharray:5.0,5.0;" x1="1758.0674" x2="1758.0674" y1="155.0234" y2="1042.6797"/>
    <line style="stroke:#181818;stroke-width:0.5;stroke-dasharray:5.0,5.0;" x1="1942.3589" x2="1942.3589" y1="155.0234" y2="1042.6797"/>
    <text fill="#000000" font-family="sans-serif" font-size="14" lengthAdjust="spacing" textLength="80.2881" x="85.781" y="135.4248">Payer DFSP</text>
    <text fill="#000000" font-family="sans-serif" font-size="14" lengthAdjust="spacing" textLength="75.5713" x="88.1394" y="151.7217">Participant</text>
    <ellipse cx="128.925" cy="70.9297" fill="#E2E2F0" rx="8" ry="8" style="stroke:#181818;stroke-width:0.5;"/>
    <path d="M128.925,78.9297 L128.925,105.9297 M115.925,86.9297 L141.925,86.9297 M128.925,105.9297 L115.925,120.9297 M128.925,105.9297 L141.925,120.9297 " fill="none" style="stroke:#181818;stroke-width:0.5;"/>
    <text fill="#000000" font-family="sans-serif" font-size="14" lengthAdjust="spacing" textLength="80.2881" x="85.781" y="1054.6748">Payer DFSP</text>
    <text fill="#000000" font-family="sans-serif" font-size="14" lengthAdjust="spacing" textLength="75.5713" x="88.1394" y="1070.9717">Participant</text>
    <ellipse cx="128.925" cy="1082.7734" fill="#E2E2F0" rx="8" ry="8" style="stroke:#181818;stroke-width:0.5;"/>
    <path d="M128.925,1090.7734 L128.925,1117.7734 M115.925,1098.7734 L141.925,1098.7734 M128.925,1117.7734 L115.925,1132.7734 M128.925,1117.7734 L141.925,1132.7734 " fill="none" style="stroke:#181818;stroke-width:0.5;"/>
    <text fill="#000000" font-family="sans-serif" font-size="14" lengthAdjust="spacing" textLength="235.3887" x="432.7676" y="151.7217">ML API Notification Event Handler</text>
    <ellipse cx="553.4619" cy="122.7266" fill="#E2E2F0" rx="12" ry="12" style="stroke:#181818;stroke-width:0.5;"/>
    <polygon fill="#181818" points="549.4619,110.7266,555.4619,105.7266,553.4619,110.7266,555.4619,115.7266,549.4619,110.7266" style="stroke:#181818;stroke-width:1.0;"/>
    <text fill="#000000" font-family="sans-serif" font-size="14" lengthAdjust="spacing" textLength="235.3887" x="432.7676" y="1054.6748">ML API Notification Event Handler</text>
    <ellipse cx="553.4619" cy="1073.9766" fill="#E2E2F0" rx="12" ry="12" style="stroke:#181818;stroke-width:0.5;"/>
    <polygon fill="#181818" points="549.4619,1061.9766,555.4619,1056.9766,553.4619,1061.9766,555.4619,1066.9766,549.4619,1061.9766" style="stroke:#181818;stroke-width:1.0;"/>
    <rect fill="#E2E2F0" height="30.2969" style="stroke:#181818;stroke-width:0.5;" width="136.9717" x="709.8472" y="119.7266"/>
    <rect fill="#E2E2F0" height="30.2969" style="stroke:#181818;stroke-width:0.5;" width="136.9717" x="705.8472" y="123.7266"/>
    <text fill="#000000" font-family="sans-serif" font-size="14" lengthAdjust="spacing" textLength="122.9717" x="712.8472" y="143.7217">Notification-Topic</text>
    <rect fill="#E2E2F0" height="30.2969" style="stroke:#181818;stroke-width:0.5;" width="136.9717" x="709.8472" y="1041.6797"/>
    <rect fill="#E2E2F0" height="30.2969" style="stroke:#181818;stroke-width:0.5;" width="136.9717" x="705.8472" y="1045.6797"/>
    <text fill="#000000" font-family="sans-serif" font-size="14" lengthAdjust="spacing" textLength="122.9717" x="712.8472" y="1065.6748">Notification-Topic</text>
    <text fill="#000000" font-family="sans-serif" font-size="14" lengthAdjust="spacing" textLength="133.7656" x="1044.501" y="151.7217">Central Service API</text>
    <path d="M1093.8838,110.7266 L1093.8838,134.7266 M1093.8838,122.7266 L1110.8838,122.7266 " fill="none" style="stroke:#181818;stroke-width:0.5;"/>
    <ellipse cx="1122.8838" cy="122.7266" fill="#E2E2F0" rx="12" ry="12" style="stroke:#181818;stroke-width:0.5;"/>
    <text fill="#000000" font-family="sans-serif" font-size="14" lengthAdjust="spacing" textLength="133.7656" x="1044.501" y="1054.6748">Central Service API</text>
    <path d="M1093.8838,1061.9766 L1093.8838,1085.9766 M1093.8838,1073.9766 L1110.8838,1073.9766 " fill="none" style="stroke:#181818;stroke-width:0.5;"/>
    <ellipse cx="1122.8838" cy="1073.9766" fill="#E2E2F0" rx="12" ry="12" style="stroke:#181818;stroke-width:0.5;"/>
    <rect fill="#E2E2F0" height="30.2969" style="stroke:#181818;stroke-width:0.5;" width="96.749" x="1277.1694" y="119.7266"/>
    <rect fill="#E2E2F0" height="30.2969" style="stroke:#181818;stroke-width:0.5;" width="96.749" x="1273.1694" y="123.7266"/>
    <text fill="#000000" font-family="sans-serif" font-size="14" lengthAdjust="spacing" textLength="82.749" x="1280.1694" y="143.7217">Event-Topic</text>
    <rect fill="#E2E2F0" height="30.2969" style="stroke:#181818;stroke-width:0.5;" width="96.749" x="1277.1694" y="1041.6797"/>
    <rect fill="#E2E2F0" height="30.2969" style="stroke:#181818;stroke-width:0.5;" width="96.749" x="1273.1694" y="1045.6797"/>
    <text fill="#000000" font-family="sans-serif" font-size="14" lengthAdjust="spacing" textLength="82.749" x="1280.1694" y="1065.6748">Event-Topic</text>
    <text fill="#000000" font-family="sans-serif" font-size="14" lengthAdjust="spacing" textLength="111.3984" x="1383.9185" y="151.7217">Participant DAO</text>
    <ellipse cx="1442.6177" cy="122.7266" fill="#E2E2F0" rx="12" ry="12" style="stroke:#181818;stroke-width:0.5;"/>
    <line style="stroke:#181818;stroke-width:0.5;" x1="1430.6177" x2="1454.6177" y1="136.7266" y2="136.7266"/>
    <text fill="#000000" font-family="sans-serif" font-size="14" lengthAdjust="spacing" textLength="111.3984" x="1383.9185" y="1054.6748">Participant DAO</text>
    <ellipse cx="1442.6177" cy="1073.9766" fill="#E2E2F0" rx="12" ry="12" style="stroke:#181818;stroke-width:0.5;"/>
    <line style="stroke:#181818;stroke-width:0.5;" x1="1430.6177" x2="1454.6177" y1="1087.9766" y2="1087.9766"/>
    <text fill="#000000" font-family="sans-serif" font-size="14" lengthAdjust="spacing" textLength="92.7363" x="1709.0674" y="151.7217">Central Store</text>
    <path d="M1740.4355,102.7266 C1740.4355,92.7266 1758.4355,92.7266 1758.4355,92.7266 C1758.4355,92.7266 1776.4355,92.7266 1776.4355,102.7266 L1776.4355,128.7266 C1776.4355,138.7266 1758.4355,138.7266 1758.4355,138.7266 C1758.4355,138.7266 1740.4355,138.7266 1740.4355,128.7266 L1740.4355,102.7266 " fill="#E2E2F0" style="stroke:#181818;stroke-width:1.5;"/>
    <path d="M1740.4355,102.7266 C1740.4355,112.7266 1758.4355,112.7266 1758.4355,112.7266 C1758.4355,112.7266 1776.4355,112.7266 1776.4355,102.7266 " fill="none" style="stroke:#181818;stroke-width:1.5;"/>
    <text fill="#000000" font-family="sans-serif" font-size="14" lengthAdjust="spacing" textLength="92.7363" x="1709.0674" y="1054.6748">Central Store</text>
    <path d="M1740.4355,1067.9766 C1740.4355,1057.9766 1758.4355,1057.9766 1758.4355,1057.9766 C1758.4355,1057.9766 1776.4355,1057.9766 1776.4355,1067.9766 L1776.4355,1093.9766 C1776.4355,1103.9766 1758.4355,1103.9766 1758.4355,1103.9766 C1758.4355,1103.9766 1740.4355,1103.9766 1740.4355,1093.9766 L1740.4355,1067.9766 " fill="#E2E2F0" style="stroke:#181818;stroke-width:1.5;"/>
    <path d="M1740.4355,1067.9766 C1740.4355,1077.9766 1758.4355,1077.9766 1758.4355,1077.9766 C1758.4355,1077.9766 1776.4355,1077.9766 1776.4355,1067.9766 " fill="none" style="stroke:#181818;stroke-width:1.5;"/>
    <text fill="#000000" font-family="sans-serif" font-size="14" lengthAdjust="spacing" textLength="83.1455" x="1898.3589" y="135.4248">Payee DFSP</text>
    <text fill="#000000" font-family="sans-serif" font-size="14" lengthAdjust="spacing" textLength="75.5713" x="1902.146" y="151.7217">Participant</text>
    <ellipse cx="1942.9316" cy="70.9297" fill="#E2E2F0" rx="8" ry="8" style="stroke:#181818;stroke-width:0.5;"/>
    <path d="M1942.9316,78.9297 L1942.9316,105.9297 M1929.9316,86.9297 L1955.9316,86.9297 M1942.9316,105.9297 L1929.9316,120.9297 M1942.9316,105.9297 L1955.9316,120.9297 " fill="none" style="stroke:#181818;stroke-width:0.5;"/>
    <text fill="#000000" font-family="sans-serif" font-size="14" lengthAdjust="spacing" textLength="83.1455" x="1898.3589" y="1054.6748">Payee DFSP</text>
    <text fill="#000000" font-family="sans-serif" font-size="14" lengthAdjust="spacing" textLength="75.5713" x="1902.146" y="1070.9717">Participant</text>
    <ellipse cx="1942.9316" cy="1082.7734" fill="#E2E2F0" rx="8" ry="8" style="stroke:#181818;stroke-width:0.5;"/>
    <path d="M1942.9316,1090.7734 L1942.9316,1117.7734 M1929.9316,1098.7734 L1955.9316,1098.7734 M1942.9316,1117.7734 L1929.9316,1132.7734 M1942.9316,1117.7734 L1955.9316,1132.7734 " fill="none" style="stroke:#181818;stroke-width:0.5;"/>
    <rect fill="#FFFFFF" height="867.6563" style="stroke:#181818;stroke-width:1.0;" width="10" x="548.4619" y="165.0234"/>
    <rect fill="#FFFFFF" height="30" style="stroke:#181818;stroke-width:1.0;" width="10" x="771.333" y="210.2891"/>
    <rect fill="#FFFFFF" height="195.4688" style="stroke:#181818;stroke-width:1.0;" width="10" x="1109.3838" y="293.5547"/>
    <rect fill="#FFFFFF" height="209.0625" style="stroke:#181818;stroke-width:1.0;" width="10" x="1109.3838" y="590.5547"/>
    <rect fill="#FFFFFF" height="137.2031" style="stroke:#181818;stroke-width:1.0;" width="10" x="1318.5439" y="322.6875"/>
    <rect fill="#FFFFFF" height="120.5313" style="stroke:#181818;stroke-width:1.0;" width="10" x="1437.6177" y="634.8203"/>
    <rect fill="#FFFFFF" height="62.2656" style="stroke:#181818;stroke-width:1.0;" width="10" x="1753.4355" y="663.9531"/>
    <path d="M75.781,172.0234 L359.3767,172.0234 L359.3767,179.1563 L349.3767,189.1563 L75.781,189.1563 L75.781,172.0234 " fill="#EEEEEE" style="stroke:#000000;stroke-width:1.5;"/>
    <rect fill="none" height="853.6563" style="stroke:#000000;stroke-width:1.5;" width="1931.7234" x="75.781" y="172.0234"/>
    <text fill="#000000" font-family="sans-serif" font-size="13" font-weight="bold" lengthAdjust="spacing" textLength="238.5957" x="90.781" y="185.0903">Send notification to Participants</text>
    <polygon fill="#181818" points="759.333,206.2891,769.333,210.2891,759.333,214.2891,763.333,210.2891" style="stroke:#181818;stroke-width:1.0;"/>
    <line style="stroke:#181818;stroke-width:1.0;" x1="558.4619" x2="765.333" y1="210.2891" y2="210.2891"/>
    <text fill="#000000" font-family="sans-serif" font-size="13" font-weight="bold" lengthAdjust="spacing" textLength="9.0454" x="565.4619" y="205.2231">1</text>
    <text fill="#000000" font-family="sans-serif" font-size="13" lengthAdjust="spacing" textLength="180.8257" x="578.5073" y="205.2231">Consume Notification event</text>
    <path d="M422.7676,255.2891 L655.6265,255.2891 L655.6265,262.4219 L645.6265,272.4219 L422.7676,272.4219 L422.7676,255.2891 " fill="#EEEEEE" style="stroke:#000000;stroke-width:1.5;"/>
    <rect fill="none" height="241.7344" style="stroke:#000000;stroke-width:1.5;" width="1007.9136" x="422.7676" y="255.2891"/>
    <text fill="#000000" font-family="sans-serif" font-size="13" font-weight="bold" lengthAdjust="spacing" textLength="187.8589" x="437.7676" y="268.356">Persist Event Information</text>
    <polygon fill="#181818" points="1097.3838,289.5547,1107.3838,293.5547,1097.3838,297.5547,1101.3838,293.5547" style="stroke:#181818;stroke-width:1.0;"/>
    <line style="stroke:#181818;stroke-width:1.0;" x1="558.4619" x2="1103.3838" y1="293.5547" y2="293.5547"/>
    <text fill="#000000" font-family="sans-serif" font-size="13" font-weight="bold" lengthAdjust="spacing" textLength="9.0454" x="565.4619" y="288.4888">2</text>
    <text fill="#000000" font-family="sans-serif" font-size="13" lengthAdjust="spacing" textLength="347.458" x="578.5073" y="288.4888">Request to persist event information - POST - /events</text>
    <polygon fill="#181818" points="1306.5439,318.6875,1316.5439,322.6875,1306.5439,326.6875,1310.5439,322.6875" style="stroke:#181818;stroke-width:1.0;"/>
    <line style="stroke:#181818;stroke-width:1.0;" x1="1119.3838" x2="1312.5439" y1="322.6875" y2="322.6875"/>
    <text fill="#000000" font-family="sans-serif" font-size="13" font-weight="bold" lengthAdjust="spacing" textLength="9.0454" x="1126.3838" y="317.6216">3</text>
    <text fill="#000000" font-family="sans-serif" font-size="13" lengthAdjust="spacing" textLength="167.1147" x="1139.4292" y="317.6216">Publish event information</text>
    <rect fill="none" height="53.0703" style="stroke:#000000;stroke-width:1.5;" width="153.5117" x="1270.1694" y="355.6875"/>
    <path d="M1270.1694,355.6875 L1335.1694,355.6875 L1335.1694,362.6875 L1325.1694,372.6875 L1270.1694,372.6875 L1270.1694,355.6875 " fill="#EEEEEE" style="stroke:#000000;stroke-width:2.0;"/>
    <text fill="#000000" font-family="sans-serif" font-size="13" font-weight="bold" lengthAdjust="spacing" textLength="20.8838" x="1283.1694" y="369.7544">ref</text>
    <text fill="#000000" font-family="sans-serif" font-size="12" lengthAdjust="spacing" textLength="145.5117" x="1274.1694" y="387.8262">Event Handler Consume</text>
    <text fill="#000000" font-family="sans-serif" font-size="12" lengthAdjust="spacing" textLength="3.8145" x="1345.0181" y="401.7949"> </text>
    <polygon fill="#181818" points="1130.3838,455.8906,1120.3838,459.8906,1130.3838,463.8906,1126.3838,459.8906" style="stroke:#181818;stroke-width:1.0;"/>
    <line style="stroke:#181818;stroke-width:1.0;stroke-dasharray:2.0,2.0;" x1="1124.3838" x2="1322.5439" y1="459.8906" y2="459.8906"/>
    <text fill="#000000" font-family="sans-serif" font-size="13" font-weight="bold" lengthAdjust="spacing" textLength="9.0454" x="1136.3838" y="454.8247">4</text>
    <text fill="#000000" font-family="sans-serif" font-size="13" lengthAdjust="spacing" textLength="98.9346" x="1149.4292" y="454.8247">Return success</text>
    <polygon fill="#181818" points="569.4619,485.0234,559.4619,489.0234,569.4619,493.0234,565.4619,489.0234" style="stroke:#181818;stroke-width:1.0;"/>
    <line style="stroke:#181818;stroke-width:1.0;stroke-dasharray:2.0,2.0;" x1="563.4619" x2="1113.3838" y1="489.0234" y2="489.0234"/>
    <text fill="#000000" font-family="sans-serif" font-size="13" font-weight="bold" lengthAdjust="spacing" textLength="9.0454" x="575.4619" y="483.9575">5</text>
    <text fill="#000000" font-family="sans-serif" font-size="13" lengthAdjust="spacing" textLength="98.9346" x="588.5073" y="483.9575">Return success</text>
    <path d="M563,509.0234 L563,549.0234 L905,549.0234 L905,519.0234 L895,509.0234 L563,509.0234 " fill="#D3D3D3" style="stroke:#181818;stroke-width:0.5;"/>
    <path d="M895,509.0234 L895,519.0234 L905,519.0234 L895,509.0234 " fill="#D3D3D3" style="stroke:#181818;stroke-width:0.5;"/>
    <text fill="#000000" font-family="sans-serif" font-size="13" lengthAdjust="spacing" textLength="321.1914" x="569" y="526.0903">The endpoint details are cached, when the cache</text>
    <text fill="#000000" font-family="sans-serif" font-size="13" lengthAdjust="spacing" textLength="243.7627" x="569" y="541.2231">expires, the details are fetched again</text>
    <polygon fill="#181818" points="1097.3838,586.5547,1107.3838,590.5547,1097.3838,594.5547,1101.3838,590.5547" style="stroke:#181818;stroke-width:1.0;"/>
    <line style="stroke:#181818;stroke-width:1.0;" x1="558.4619" x2="1103.3838" y1="590.5547" y2="590.5547"/>
    <text fill="#000000" font-family="sans-serif" font-size="13" font-weight="bold" lengthAdjust="spacing" textLength="9.0454" x="565.4619" y="577.9224">6</text>
    <text fill="#000000" font-family="sans-serif" font-size="13" lengthAdjust="spacing" textLength="518.8765" x="578.5073" y="570.356">Request Endpoint details for Participant - GET - /participants/{{fsp}}/endpoints</text>
    <text fill="#FF0000" font-family="sans-serif" font-size="13" font-weight="bold" lengthAdjust="spacing" textLength="81.5293" x="578.5073" y="585.4888">Error code:</text>
    <text fill="#FF0000" font-family="sans-serif" font-size="13" lengthAdjust="spacing" textLength="33.084" x="664.1689" y="585.4888">2003</text>
    <polygon fill="#181818" points="1425.6177,630.8203,1435.6177,634.8203,1425.6177,638.8203,1429.6177,634.8203" style="stroke:#181818;stroke-width:1.0;"/>
    <line style="stroke:#181818;stroke-width:1.0;" x1="1119.3838" x2="1431.6177" y1="634.8203" y2="634.8203"/>
    <text fill="#000000" font-family="sans-serif" font-size="13" font-weight="bold" lengthAdjust="spacing" textLength="9.0454" x="1126.3838" y="622.188">7</text>
    <text fill="#000000" font-family="sans-serif" font-size="13" lengthAdjust="spacing" textLength="241.7061" x="1139.4292" y="614.6216">Fetch Endpoint details for Participant</text>
    <text fill="#FF0000" font-family="sans-serif" font-size="13" font-weight="bold" lengthAdjust="spacing" textLength="81.5293" x="1139.4292" y="629.7544">Error code:</text>
    <text fill="#FF0000" font-family="sans-serif" font-size="13" lengthAdjust="spacing" textLength="33.084" x="1225.0908" y="629.7544">2003</text>
    <polygon fill="#181818" points="1741.4355,659.9531,1751.4355,663.9531,1741.4355,667.9531,1745.4355,663.9531" style="stroke:#181818;stroke-width:1.0;"/>
    <line style="stroke:#181818;stroke-width:1.0;" x1="1447.6177" x2="1747.4355" y1="663.9531" y2="663.9531"/>
    <text fill="#000000" font-family="sans-serif" font-size="13" font-weight="bold" lengthAdjust="spacing" textLength="9.0454" x="1454.6177" y="658.8872">8</text>
    <text fill="#000000" font-family="sans-serif" font-size="13" lengthAdjust="spacing" textLength="241.7061" x="1467.6631" y="658.8872">Fetch Endpoint details for Participant</text>
    <polygon fill="#FFFFE0" points="1692,676.9531,1824,676.9531,1834,687.9531,1824,699.9531,1692,699.9531,1682,687.9531,1692,676.9531" style="stroke:#181818;stroke-width:0.5;"/>
    <text fill="#000000" font-family="sans-serif" font-size="13" lengthAdjust="spacing" textLength="128.4448" x="1694" y="693.02">participantEndpoint</text>
    <polygon fill="#181818" points="1458.6177,722.2188,1448.6177,726.2188,1458.6177,730.2188,1454.6177,726.2188" style="stroke:#181818;stroke-width:1.0;"/>
    <line style="stroke:#181818;stroke-width:1.0;" x1="1452.6177" x2="1757.4355" y1="726.2188" y2="726.2188"/>
    <text fill="#000000" font-family="sans-serif" font-size="13" font-weight="bold" lengthAdjust="spacing" textLength="9.0454" x="1464.6177" y="721.1528">9</text>
    <text fill="#000000" font-family="sans-serif" font-size="13" lengthAdjust="spacing" textLength="268.7725" x="1477.6631" y="721.1528">Retrieved Endpoint details for Participant</text>
    <polygon fill="#181818" points="1130.3838,751.3516,1120.3838,755.3516,1130.3838,759.3516,1126.3838,755.3516" style="stroke:#181818;stroke-width:1.0;"/>
    <line style="stroke:#181818;stroke-width:1.0;stroke-dasharray:2.0,2.0;" x1="1124.3838" x2="1441.6177" y1="755.3516" y2="755.3516"/>
    <text fill="#000000" font-family="sans-serif" font-size="13" font-weight="bold" lengthAdjust="spacing" textLength="18.0908" x="1136.3838" y="750.2856">10</text>
    <text fill="#000000" font-family="sans-serif" font-size="13" lengthAdjust="spacing" textLength="249.6978" x="1158.4746" y="750.2856">Return Endpoint details for Participant</text>
    <polygon fill="#181818" points="569.4619,795.6172,559.4619,799.6172,569.4619,803.6172,565.4619,799.6172" style="stroke:#181818;stroke-width:1.0;"/>
    <line style="stroke:#181818;stroke-width:1.0;stroke-dasharray:2.0,2.0;" x1="563.4619" x2="1113.3838" y1="799.6172" y2="799.6172"/>
    <text fill="#000000" font-family="sans-serif" font-size="13" font-weight="bold" lengthAdjust="spacing" textLength="18.0908" x="575.4619" y="786.9849">11</text>
    <text fill="#000000" font-family="sans-serif" font-size="13" lengthAdjust="spacing" textLength="249.6978" x="597.5527" y="779.4185">Return Endpoint details for Participant</text>
    <text fill="#FF0000" font-family="sans-serif" font-size="13" font-weight="bold" lengthAdjust="spacing" textLength="89.2671" x="597.5527" y="794.5513">Error codes:</text>
    <text fill="#FF0000" font-family="sans-serif" font-size="13" lengthAdjust="spacing" textLength="74.4326" x="690.9521" y="794.5513">3202, 3203</text>
    <polygon fill="#181818" points="139.925,855.0156,129.925,859.0156,139.925,863.0156,135.925,859.0156" style="stroke:#181818;stroke-width:1.0;"/>
    <line style="stroke:#181818;stroke-width:1.0;" x1="133.925" x2="547.4619" y1="859.0156" y2="859.0156"/>
    <text fill="#000000" font-family="sans-serif" font-size="13" font-weight="bold" lengthAdjust="spacing" textLength="18.0908" x="145.925" y="838.8169">12</text>
    <text fill="#000000" font-family="sans-serif" font-size="13" lengthAdjust="spacing" textLength="288.5327" x="168.0159" y="823.6841">Notification with Prepare/fulfil result/error to</text>
    <text fill="#000000" font-family="sans-serif" font-size="13" lengthAdjust="spacing" textLength="254.3315" x="168.0159" y="838.8169">Payer DFSP to specified Endpoint - PUT</text>
    <text fill="#FF0000" font-family="sans-serif" font-size="13" font-weight="bold" lengthAdjust="spacing" textLength="81.5293" x="168.0159" y="853.9497">Error code:</text>
    <text fill="#FF0000" font-family="sans-serif" font-size="13" lengthAdjust="spacing" textLength="33.084" x="253.6775" y="853.9497">1001</text>
    <polygon fill="#181818" points="536.4619,884.1484,546.4619,888.1484,536.4619,892.1484,540.4619,888.1484" style="stroke:#181818;stroke-width:1.0;"/>
    <line style="stroke:#181818;stroke-width:1.0;stroke-dasharray:2.0,2.0;" x1="128.925" x2="542.4619" y1="888.1484" y2="888.1484"/>
    <text fill="#000000" font-family="sans-serif" font-size="13" font-weight="bold" lengthAdjust="spacing" textLength="18.0908" x="135.925" y="883.0825">13</text>
    <text fill="#000000" font-family="sans-serif" font-size="13" lengthAdjust="spacing" textLength="85.3315" x="158.0159" y="883.0825">HTTP 200 OK</text>
    <path d="M422.7676,903.1484 L487.2104,903.1484 L487.2104,910.2813 L477.2104,920.2813 L422.7676,920.2813 L422.7676,903.1484 " fill="#EEEEEE" style="stroke:#000000;stroke-width:1.5;"/>
    <rect fill="none" height="115.5313" style="stroke:#000000;stroke-width:1.5;" width="1574.7368" x="422.7676" y="903.1484"/>
    <text fill="#000000" font-family="sans-serif" font-size="13" font-weight="bold" lengthAdjust="spacing" textLength="19.4429" x="437.7676" y="916.2153">alt</text>
    <text fill="#000000" font-family="sans-serif" font-size="11" font-weight="bold" lengthAdjust="spacing" textLength="389.0391" x="502.2104" y="915.3589">[Config.SEND_TRANSFER_CONFIRMATION_TO_PAYEE === true]</text>
    <polygon fill="#181818" points="1930.9316,952.5469,1940.9316,956.5469,1930.9316,960.5469,1934.9316,956.5469" style="stroke:#181818;stroke-width:1.0;"/>
    <line style="stroke:#181818;stroke-width:1.0;" x1="558.4619" x2="1936.9316" y1="956.5469" y2="956.5469"/>
    <text fill="#000000" font-family="sans-serif" font-size="13" font-weight="bold" lengthAdjust="spacing" textLength="18.0908" x="565.4619" y="943.9146">14</text>
    <text fill="#000000" font-family="sans-serif" font-size="13" lengthAdjust="spacing" textLength="673.1753" x="587.5527" y="936.3481">Notification to with fulfil result (committed/aborted/rejected) to Payee DFSP to specified Endpoint - PUT</text>
    <text fill="#FF0000" font-family="sans-serif" font-size="13" font-weight="bold" lengthAdjust="spacing" textLength="81.5293" x="587.5527" y="951.481">Error code:</text>
    <text fill="#FF0000" font-family="sans-serif" font-size="13" lengthAdjust="spacing" textLength="33.084" x="673.2144" y="951.481">1001</text>
    <polygon fill="#181818" points="569.4619,1006.6797,559.4619,1010.6797,569.4619,1014.6797,565.4619,1010.6797" style="stroke:#181818;stroke-width:1.0;"/>
    <line style="stroke:#181818;stroke-width:1.0;stroke-dasharray:2.0,2.0;" x1="563.4619" x2="1941.9316" y1="1010.6797" y2="1010.6797"/>
    <text fill="#000000" font-family="sans-serif" font-size="13" font-weight="bold" lengthAdjust="spacing" textLength="18.0908" x="575.4619" y="1005.6138">15</text>
    <text fill="#000000" font-family="sans-serif" font-size="13" lengthAdjust="spacing" textLength="85.3315" x="597.5527" y="1005.6138">HTTP 200 OK</text>
  </g>
</svg>
