<svg xmlns="http://www.w3.org/2000/svg" xmlns:xlink="http://www.w3.org/1999/xlink" contentStyleType="text/css" height="1356px" preserveAspectRatio="none" style="width:950px;height:1356px;background:#FFFFFF;" version="1.1" viewBox="0 0 950 1356" width="950px" zoomAndPan="magnify">
  <title>2.3.1. Timeout Prepare Handler</title>
  <defs/>
  <g>
    <text fill="#000000" font-family="sans-serif" font-size="14" font-weight="bold" lengthAdjust="spacing" textLength="249.3887" x="352.1038" y="27.9951">2.3.1. Timeout Prepare Handler</text>
    <rect fill="#FFFFE0" height="1302.7656" style="stroke:#181818;stroke-width:0.5;" width="796.5088" x="26" y="43.2969"/>
    <text fill="#000000" font-family="sans-serif" font-size="13" font-weight="bold" lengthAdjust="spacing" textLength="112.0361" x="368.2363" y="55.3638">Central Service</text>
    <rect fill="#FFFFFF" height="1124.4453" style="stroke:#181818;stroke-width:1.0;" width="10" x="86.3584" y="137.0234"/>
    <rect fill="#FFFFFF" height="30" style="stroke:#181818;stroke-width:1.0;" width="10" x="273.7651" y="1216.4688"/>
    <rect fill="#FFFFFF" height="166.7969" style="stroke:#181818;stroke-width:1.0;" width="10" x="507.3921" y="339.8906"/>
    <rect fill="#FFFFFF" height="150.7969" style="stroke:#181818;stroke-width:1.0;" width="10" x="507.3921" y="582.0859"/>
    <rect fill="#FFFFFF" height="30" style="stroke:#181818;stroke-width:1.0;" width="10" x="764.1406" y="369.0234"/>
    <rect fill="#FFFFFF" height="92.5313" style="stroke:#181818;stroke-width:1.0;" width="10" x="764.1406" y="611.2188"/>
    <rect fill="none" height="1117.4453" style="stroke:#000000;stroke-width:1.5;" width="934.5962" x="10" y="144.0234"/>
    <rect fill="none" height="104.3359" style="stroke:#000000;stroke-width:1.5;" width="442.6685" x="20" y="168.1563"/>
    <rect fill="none" height="228.1953" style="stroke:#000000;stroke-width:1.5;" width="871.1318" x="20" y="286.4922"/>
    <rect fill="none" height="212.1953" style="stroke:#000000;stroke-width:1.5;" width="914.5962" x="20" y="528.6875"/>
    <rect fill="none" height="499.5859" style="stroke:#000000;stroke-width:1.5;" width="335.2144" x="20" y="754.8828"/>
    <line style="stroke:#181818;stroke-width:0.5;stroke-dasharray:5.0,5.0;" x1="91" x2="91" y1="127.0234" y2="1278.4688"/>
    <line style="stroke:#181818;stroke-width:0.5;stroke-dasharray:5.0,5.0;" x1="278.3159" x2="278.3159" y1="127.0234" y2="1278.4688"/>
    <line style="stroke:#181818;stroke-width:0.5;stroke-dasharray:5.0,5.0;" x1="403.2144" x2="403.2144" y1="127.0234" y2="1278.4688"/>
    <line style="stroke:#181818;stroke-width:0.5;stroke-dasharray:5.0,5.0;" x1="511.6685" x2="511.6685" y1="127.0234" y2="1278.4688"/>
    <line style="stroke:#181818;stroke-width:0.5;stroke-dasharray:5.0,5.0;" x1="768.7725" x2="768.7725" y1="127.0234" y2="1278.4688"/>
    <text fill="#000000" font-family="sans-serif" font-size="14" lengthAdjust="spacing" textLength="116.7168" x="30" y="107.4248">Timeout Prepare</text>
    <text fill="#000000" font-family="sans-serif" font-size="14" lengthAdjust="spacing" textLength="55.125" x="60.7959" y="123.7217">Handler</text>
    <ellipse cx="91.3584" cy="78.4297" fill="#E2E2F0" rx="12" ry="12" style="stroke:#181818;stroke-width:0.5;"/>
    <polygon fill="#181818" points="87.3584,66.4297,93.3584,61.4297,91.3584,66.4297,93.3584,71.4297,87.3584,66.4297" style="stroke:#181818;stroke-width:1.0;"/>
    <text fill="#000000" font-family="sans-serif" font-size="14" lengthAdjust="spacing" textLength="116.7168" x="30" y="1290.4639">Timeout Prepare</text>
    <text fill="#000000" font-family="sans-serif" font-size="14" lengthAdjust="spacing" textLength="55.125" x="60.7959" y="1306.7607">Handler</text>
    <ellipse cx="91.3584" cy="1326.0625" fill="#E2E2F0" rx="12" ry="12" style="stroke:#181818;stroke-width:0.5;"/>
    <polygon fill="#181818" points="87.3584,1314.0625,93.3584,1309.0625,91.3584,1314.0625,93.3584,1319.0625,87.3584,1314.0625" style="stroke:#181818;stroke-width:1.0;"/>
    <rect fill="#E2E2F0" height="46.5938" style="stroke:#181818;stroke-width:0.5;" width="128.8984" x="216.3159" y="75.4297"/>
    <rect fill="#E2E2F0" height="46.5938" style="stroke:#181818;stroke-width:0.5;" width="128.8984" x="212.3159" y="79.4297"/>
    <text fill="#000000" font-family="sans-serif" font-size="14" lengthAdjust="spacing" textLength="39.5801" x="256.9751" y="99.4248">topic-</text>
    <text fill="#000000" font-family="sans-serif" font-size="14" lengthAdjust="spacing" textLength="114.8984" x="219.3159" y="115.7217">transfer-timeout</text>
    <rect fill="#E2E2F0" height="46.5938" style="stroke:#181818;stroke-width:0.5;" width="128.8984" x="216.3159" y="1277.4688"/>
    <rect fill="#E2E2F0" height="46.5938" style="stroke:#181818;stroke-width:0.5;" width="128.8984" x="212.3159" y="1281.4688"/>
    <text fill="#000000" font-family="sans-serif" font-size="14" lengthAdjust="spacing" textLength="39.5801" x="256.9751" y="1301.4639">topic-</text>
    <text fill="#000000" font-family="sans-serif" font-size="14" lengthAdjust="spacing" textLength="114.8984" x="219.3159" y="1317.7607">transfer-timeout</text>
    <rect fill="#E2E2F0" height="30.2969" style="stroke:#181818;stroke-width:0.5;" width="93.4541" x="359.2144" y="91.7266"/>
    <rect fill="#E2E2F0" height="30.2969" style="stroke:#181818;stroke-width:0.5;" width="93.4541" x="355.2144" y="95.7266"/>
    <text fill="#000000" font-family="sans-serif" font-size="14" lengthAdjust="spacing" textLength="79.4541" x="362.2144" y="115.7217">topic-event</text>
    <rect fill="#E2E2F0" height="30.2969" style="stroke:#181818;stroke-width:0.5;" width="93.4541" x="359.2144" y="1277.4688"/>
    <rect fill="#E2E2F0" height="30.2969" style="stroke:#181818;stroke-width:0.5;" width="93.4541" x="355.2144" y="1281.4688"/>
    <text fill="#000000" font-family="sans-serif" font-size="14" lengthAdjust="spacing" textLength="79.4541" x="362.2144" y="1301.4639">topic-event</text>
    <text fill="#000000" font-family="sans-serif" font-size="14" lengthAdjust="spacing" textLength="93.4473" x="462.6685" y="123.7217">Timeout DAO</text>
    <ellipse cx="512.3921" cy="94.7266" fill="#E2E2F0" rx="12" ry="12" style="stroke:#181818;stroke-width:0.5;"/>
    <line style="stroke:#181818;stroke-width:0.5;" x1="500.3921" x2="524.3921" y1="108.7266" y2="108.7266"/>
    <text fill="#000000" font-family="sans-serif" font-size="14" lengthAdjust="spacing" textLength="93.4473" x="462.6685" y="1290.4639">Timeout DAO</text>
    <ellipse cx="512.3921" cy="1309.7656" fill="#E2E2F0" rx="12" ry="12" style="stroke:#181818;stroke-width:0.5;"/>
    <line style="stroke:#181818;stroke-width:0.5;" x1="500.3921" x2="524.3921" y1="1323.7656" y2="1323.7656"/>
    <text fill="#000000" font-family="sans-serif" font-size="14" lengthAdjust="spacing" textLength="92.7363" x="719.7725" y="123.7217">Central Store</text>
    <path d="M751.1406,74.7266 C751.1406,64.7266 769.1406,64.7266 769.1406,64.7266 C769.1406,64.7266 787.1406,64.7266 787.1406,74.7266 L787.1406,100.7266 C787.1406,110.7266 769.1406,110.7266 769.1406,110.7266 C769.1406,110.7266 751.1406,110.7266 751.1406,100.7266 L751.1406,74.7266 " fill="#E2E2F0" style="stroke:#181818;stroke-width:1.5;"/>
    <path d="M751.1406,74.7266 C751.1406,84.7266 769.1406,84.7266 769.1406,84.7266 C769.1406,84.7266 787.1406,84.7266 787.1406,74.7266 " fill="none" style="stroke:#181818;stroke-width:1.5;"/>
    <text fill="#000000" font-family="sans-serif" font-size="14" lengthAdjust="spacing" textLength="92.7363" x="719.7725" y="1290.4639">Central Store</text>
    <path d="M751.1406,1303.7656 C751.1406,1293.7656 769.1406,1293.7656 769.1406,1293.7656 C769.1406,1293.7656 787.1406,1293.7656 787.1406,1303.7656 L787.1406,1329.7656 C787.1406,1339.7656 769.1406,1339.7656 769.1406,1339.7656 C769.1406,1339.7656 751.1406,1339.7656 751.1406,1329.7656 L751.1406,1303.7656 " fill="#E2E2F0" style="stroke:#181818;stroke-width:1.5;"/>
    <path d="M751.1406,1303.7656 C751.1406,1313.7656 769.1406,1313.7656 769.1406,1313.7656 C769.1406,1313.7656 787.1406,1313.7656 787.1406,1303.7656 " fill="none" style="stroke:#181818;stroke-width:1.5;"/>
    <rect fill="#FFFFFF" height="1124.4453" style="stroke:#181818;stroke-width:1.0;" width="10" x="86.3584" y="137.0234"/>
    <rect fill="#FFFFFF" height="30" style="stroke:#181818;stroke-width:1.0;" width="10" x="273.7651" y="1216.4688"/>
    <rect fill="#FFFFFF" height="166.7969" style="stroke:#181818;stroke-width:1.0;" width="10" x="507.3921" y="339.8906"/>
    <rect fill="#FFFFFF" height="150.7969" style="stroke:#181818;stroke-width:1.0;" width="10" x="507.3921" y="582.0859"/>
    <rect fill="#FFFFFF" height="30" style="stroke:#181818;stroke-width:1.0;" width="10" x="764.1406" y="369.0234"/>
    <rect fill="#FFFFFF" height="92.5313" style="stroke:#181818;stroke-width:1.0;" width="10" x="764.1406" y="611.2188"/>
    <path d="M10,144.0234 L240.0977,144.0234 L240.0977,151.1563 L230.0977,161.1563 L10,161.1563 L10,144.0234 " fill="#EEEEEE" style="stroke:#000000;stroke-width:1.5;"/>
    <rect fill="none" height="1117.4453" style="stroke:#000000;stroke-width:1.5;" width="934.5962" x="10" y="144.0234"/>
    <text fill="#000000" font-family="sans-serif" font-size="13" font-weight="bold" lengthAdjust="spacing" textLength="185.0977" x="25" y="157.0903">Timeout Prepare Handler</text>
    <path d="M20,168.1563 L252.8589,168.1563 L252.8589,175.2891 L242.8589,185.2891 L20,185.2891 L20,168.1563 " fill="#EEEEEE" style="stroke:#000000;stroke-width:1.5;"/>
    <rect fill="none" height="104.3359" style="stroke:#000000;stroke-width:1.5;" width="442.6685" x="20" y="168.1563"/>
    <text fill="#000000" font-family="sans-serif" font-size="13" font-weight="bold" lengthAdjust="spacing" textLength="187.8589" x="35" y="181.2231">Persist Event Information</text>
    <polygon fill="#181818" points="391.9414,202.4219,401.9414,206.4219,391.9414,210.4219,395.9414,206.4219" style="stroke:#181818;stroke-width:1.0;"/>
    <line style="stroke:#181818;stroke-width:1.0;" x1="96.3584" x2="397.9414" y1="206.4219" y2="206.4219"/>
    <text fill="#000000" font-family="sans-serif" font-size="13" font-weight="bold" lengthAdjust="spacing" textLength="9.0454" x="103.3584" y="201.356">1</text>
    <text fill="#000000" font-family="sans-serif" font-size="13" lengthAdjust="spacing" textLength="167.1147" x="116.4038" y="201.356">Publish event information</text>
    <rect fill="none" height="53.0703" style="stroke:#000000;stroke-width:1.5;" width="428.6685" x="27" y="214.4219"/>
    <path d="M27,214.4219 L92,214.4219 L92,221.4219 L82,231.4219 L27,231.4219 L27,214.4219 " fill="#EEEEEE" style="stroke:#000000;stroke-width:2.0;"/>
    <text fill="#000000" font-family="sans-serif" font-size="13" font-weight="bold" lengthAdjust="spacing" textLength="20.8838" x="40" y="228.4888">ref</text>
    <text fill="#000000" font-family="sans-serif" font-size="12" lengthAdjust="spacing" textLength="145.5117" x="168.5784" y="246.5605">Event Handler Consume</text>
    <text fill="#000000" font-family="sans-serif" font-size="12" lengthAdjust="spacing" textLength="3.8145" x="239.427" y="260.5293"> </text>
    <path d="M20,286.4922 L124.4014,286.4922 L124.4014,293.625 L114.4014,303.625 L20,303.625 L20,286.4922 " fill="#EEEEEE" style="stroke:#000000;stroke-width:1.5;"/>
    <rect fill="none" height="228.1953" style="stroke:#000000;stroke-width:1.5;" width="871.1318" x="20" y="286.4922"/>
    <text fill="#000000" font-family="sans-serif" font-size="13" font-weight="bold" lengthAdjust="spacing" textLength="59.4014" x="35" y="299.5591">Cleanup</text>
    <polygon fill="#181818" points="495.3921,335.8906,505.3921,339.8906,495.3921,343.8906,499.3921,339.8906" style="stroke:#181818;stroke-width:1.0;"/>
    <line style="stroke:#181818;stroke-width:1.0;" x1="96.3584" x2="501.3921" y1="339.8906" y2="339.8906"/>
    <text fill="#000000" font-family="sans-serif" font-size="13" font-weight="bold" lengthAdjust="spacing" textLength="9.0454" x="103.3584" y="327.2583">2</text>
    <text fill="#000000" font-family="sans-serif" font-size="13" lengthAdjust="spacing" textLength="173.5957" x="116.4038" y="319.6919">Cleanup Fulfilled Transfers</text>
    <text fill="#FF0000" font-family="sans-serif" font-size="13" font-weight="bold" lengthAdjust="spacing" textLength="81.5293" x="116.4038" y="334.8247">Error code:</text>
    <text fill="#FF0000" font-family="sans-serif" font-size="13" lengthAdjust="spacing" textLength="33.084" x="202.0654" y="334.8247">2003</text>
    <polygon fill="#181818" points="752.1406,365.0234,762.1406,369.0234,752.1406,373.0234,756.1406,369.0234" style="stroke:#181818;stroke-width:1.0;"/>
    <line style="stroke:#181818;stroke-width:1.0;" x1="517.3921" x2="758.1406" y1="369.0234" y2="369.0234"/>
    <text fill="#000000" font-family="sans-serif" font-size="13" font-weight="bold" lengthAdjust="spacing" textLength="9.0454" x="524.3921" y="363.9575">3</text>
    <text fill="#000000" font-family="sans-serif" font-size="13" lengthAdjust="spacing" textLength="214.7031" x="537.4375" y="363.9575">Delete fuflfilled transfers records</text>
    <polygon fill="#FFFFE0" points="666,412.0234,871,412.0234,881,446.0234,871,480.0234,666,480.0234,656,446.0234,666,412.0234" style="stroke:#181818;stroke-width:0.5;"/>
    <text fill="#000000" font-family="sans-serif" font-size="13" lengthAdjust="spacing" textLength="67.063" x="668" y="428.0903">DELETE et</text>
    <text fill="#000000" font-family="sans-serif" font-size="13" lengthAdjust="spacing" textLength="37.959" x="668" y="443.2231">FROM</text>
    <text fill="#000000" font-family="sans-serif" font-size="13" font-weight="bold" lengthAdjust="spacing" textLength="122.3193" x="710.0913" y="443.2231">expiringTransfer</text>
    <text fill="#000000" font-family="sans-serif" font-size="13" lengthAdjust="spacing" textLength="13.0952" x="836.543" y="443.2231">et</text>
    <text fill="#000000" font-family="sans-serif" font-size="13" lengthAdjust="spacing" textLength="27.625" x="668" y="458.356">JOIN</text>
    <text fill="#000000" font-family="sans-serif" font-size="13" font-weight="bold" lengthAdjust="spacing" textLength="134.2656" x="699.7573" y="458.356">transferFulfilment</text>
    <text fill="#000000" font-family="sans-serif" font-size="13" lengthAdjust="spacing" textLength="9.6738" x="838.1553" y="458.356">tf</text>
    <text fill="#000000" font-family="sans-serif" font-size="13" lengthAdjust="spacing" textLength="201.1318" x="668" y="473.4888">ON tf.transferId = et.transferId</text>
    <polygon fill="#181818" points="107.3584,502.6875,97.3584,506.6875,107.3584,510.6875,103.3584,506.6875" style="stroke:#181818;stroke-width:1.0;"/>
    <line style="stroke:#181818;stroke-width:1.0;stroke-dasharray:2.0,2.0;" x1="101.3584" x2="511.3921" y1="506.6875" y2="506.6875"/>
    <text fill="#000000" font-family="sans-serif" font-size="13" font-weight="bold" lengthAdjust="spacing" textLength="9.0454" x="113.3584" y="501.6216">4</text>
    <text fill="#000000" font-family="sans-serif" font-size="13" lengthAdjust="spacing" textLength="98.9346" x="126.4038" y="501.6216">Return success</text>
    <path d="M20,528.6875 L151.7788,528.6875 L151.7788,535.8203 L141.7788,545.8203 L20,545.8203 L20,528.6875 " fill="#EEEEEE" style="stroke:#000000;stroke-width:1.5;"/>
    <rect fill="none" height="212.1953" style="stroke:#000000;stroke-width:1.5;" width="914.5962" x="20" y="528.6875"/>
    <text fill="#000000" font-family="sans-serif" font-size="13" font-weight="bold" lengthAdjust="spacing" textLength="86.7788" x="35" y="541.7544">List Expired</text>
    <polygon fill="#181818" points="495.3921,578.0859,505.3921,582.0859,495.3921,586.0859,499.3921,582.0859" style="stroke:#181818;stroke-width:1.0;"/>
    <line style="stroke:#181818;stroke-width:1.0;" x1="96.3584" x2="501.3921" y1="582.0859" y2="582.0859"/>
    <text fill="#000000" font-family="sans-serif" font-size="13" font-weight="bold" lengthAdjust="spacing" textLength="9.0454" x="103.3584" y="569.4536">5</text>
    <text fill="#000000" font-family="sans-serif" font-size="13" lengthAdjust="spacing" textLength="173.3608" x="116.4038" y="561.8872">Retrieve Expired Transfers</text>
    <text fill="#FF0000" font-family="sans-serif" font-size="13" font-weight="bold" lengthAdjust="spacing" textLength="81.5293" x="116.4038" y="577.02">Error code:</text>
    <text fill="#FF0000" font-family="sans-serif" font-size="13" lengthAdjust="spacing" textLength="33.084" x="202.0654" y="577.02">2003</text>
    <polygon fill="#181818" points="752.1406,607.2188,762.1406,611.2188,752.1406,615.2188,756.1406,611.2188" style="stroke:#181818;stroke-width:1.0;"/>
    <line style="stroke:#181818;stroke-width:1.0;" x1="517.3921" x2="758.1406" y1="611.2188" y2="611.2188"/>
    <text fill="#000000" font-family="sans-serif" font-size="13" font-weight="bold" lengthAdjust="spacing" textLength="9.0454" x="524.3921" y="606.1528">6</text>
    <text fill="#000000" font-family="sans-serif" font-size="13" lengthAdjust="spacing" textLength="119.2788" x="537.4375" y="606.1528">Select using index</text>
    <polygon fill="#FFFFE0" points="622,624.2188,914,624.2188,924,650.2188,914,677.2188,622,677.2188,612,650.2188,622,624.2188" style="stroke:#181818;stroke-width:0.5;"/>
    <text fill="#000000" font-family="sans-serif" font-size="13" lengthAdjust="spacing" textLength="59.5728" x="624" y="640.2856">SELECT *</text>
    <text fill="#000000" font-family="sans-serif" font-size="13" lengthAdjust="spacing" textLength="37.959" x="624" y="655.4185">FROM</text>
    <text fill="#000000" font-family="sans-serif" font-size="13" font-weight="bold" lengthAdjust="spacing" textLength="122.3193" x="666.0913" y="655.4185">expiringTransfer</text>
    <text fill="#000000" font-family="sans-serif" font-size="13" lengthAdjust="spacing" textLength="288.5962" x="624" y="670.5513">WHERE expirationDate &lt; currentTimestamp</text>
    <polygon fill="#181818" points="528.3921,699.75,518.3921,703.75,528.3921,707.75,524.3921,703.75" style="stroke:#181818;stroke-width:1.0;"/>
    <line style="stroke:#181818;stroke-width:1.0;stroke-dasharray:2.0,2.0;" x1="522.3921" x2="768.1406" y1="703.75" y2="703.75"/>
    <text fill="#000000" font-family="sans-serif" font-size="13" font-weight="bold" lengthAdjust="spacing" textLength="9.0454" x="534.3921" y="698.6841">7</text>
    <text fill="#000000" font-family="sans-serif" font-size="13" lengthAdjust="spacing" textLength="159.4785" x="547.4375" y="698.6841">Return expired transfers</text>
    <polygon fill="#181818" points="107.3584,728.8828,97.3584,732.8828,107.3584,736.8828,103.3584,732.8828" style="stroke:#181818;stroke-width:1.0;"/>
    <line style="stroke:#181818;stroke-width:1.0;stroke-dasharray:2.0,2.0;" x1="101.3584" x2="511.3921" y1="732.8828" y2="732.8828"/>
    <text fill="#000000" font-family="sans-serif" font-size="13" font-weight="bold" lengthAdjust="spacing" textLength="9.0454" x="113.3584" y="727.8169">8</text>
    <text fill="#000000" font-family="sans-serif" font-size="13" lengthAdjust="spacing" textLength="43.9512" x="126.4038" y="727.8169">Return</text>
    <text fill="#000000" font-family="sans-serif" font-size="13" font-weight="bold" lengthAdjust="spacing" textLength="151.855" x="174.4873" y="727.8169">expiredTransfersList</text>
    <path d="M20,754.8828 L96.624,754.8828 L96.624,762.0156 L86.624,772.0156 L20,772.0156 L20,754.8828 " fill="#EEEEEE" style="stroke:#000000;stroke-width:1.5;"/>
    <rect fill="none" height="499.5859" style="stroke:#000000;stroke-width:1.5;" width="335.2144" x="20" y="754.8828"/>
    <text fill="#000000" font-family="sans-serif" font-size="13" font-weight="bold" lengthAdjust="spacing" textLength="31.624" x="35" y="767.9497">loop</text>
    <text fill="#000000" font-family="sans-serif" font-size="11" font-weight="bold" lengthAdjust="spacing" textLength="177.8584" x="111.624" y="767.0933">[for each transfer in the list]</text>
    <path d="M101,802.0156 L101,1175.0156 L339,1175.0156 L339,812.0156 L329,802.0156 L101,802.0156 " fill="#FFFF00" style="stroke:#181818;stroke-width:0.5;"/>
    <path d="M329,802.0156 L329,812.0156 L339,812.0156 L329,802.0156 " fill="#FFFF00" style="stroke:#181818;stroke-width:0.5;"/>
    <text fill="#FF0000" font-family="sans-serif" font-size="13" font-weight="bold" lengthAdjust="spacing" textLength="69.3228" x="107" y="819.0825">Message:</text>
    <text fill="#000000" font-family="sans-serif" font-size="13" lengthAdjust="spacing" textLength="8.271" x="107" y="834.2153">{</text>
    <text fill="#000000" font-family="sans-serif" font-size="13" lengthAdjust="spacing" textLength="70.5034" x="123.5293" y="849.3481">id: &lt;uuid&gt;</text>
    <text fill="#000000" font-family="sans-serif" font-size="13" lengthAdjust="spacing" textLength="106.4692" x="123.5293" y="864.481">from: &lt;switch&gt;,</text>
    <text fill="#000000" font-family="sans-serif" font-size="13" lengthAdjust="spacing" textLength="107.2373" x="123.5293" y="879.6138">to: &lt;payerFsp&gt;,</text>
    <text fill="#000000" font-family="sans-serif" font-size="13" lengthAdjust="spacing" textLength="140.2197" x="123.5293" y="894.7466">type: application/json</text>
    <text fill="#000000" font-family="sans-serif" font-size="13" lengthAdjust="spacing" textLength="66.5552" x="123.5293" y="909.8794">content: {</text>
    <text fill="#000000" font-family="sans-serif" font-size="13" lengthAdjust="spacing" textLength="88.918" x="140.0586" y="925.0122">headers: null,</text>
    <text fill="#000000" font-family="sans-serif" font-size="13" lengthAdjust="spacing" textLength="133.3325" x="140.0586" y="940.145">payload: &lt;transfer&gt;</text>
    <text fill="#000000" font-family="sans-serif" font-size="13" lengthAdjust="spacing" textLength="12.4033" x="123.5293" y="955.2778">},</text>
    <text fill="#000000" font-family="sans-serif" font-size="13" lengthAdjust="spacing" textLength="79.79" x="123.5293" y="970.4106">metadata: {</text>
    <text fill="#000000" font-family="sans-serif" font-size="13" lengthAdjust="spacing" textLength="53.8091" x="140.0586" y="985.5435">event: {</text>
    <text fill="#000000" font-family="sans-serif" font-size="13" lengthAdjust="spacing" textLength="74.6357" x="156.5879" y="1000.6763">id: &lt;uuid&gt;,</text>
    <text fill="#000000" font-family="sans-serif" font-size="13" lengthAdjust="spacing" textLength="111.5728" x="156.5879" y="1015.8091">responseTo: null,</text>
    <text fill="#000000" font-family="sans-serif" font-size="13" lengthAdjust="spacing" textLength="93.0249" x="156.5879" y="1030.9419">type: transfer,</text>
    <text fill="#000000" font-family="sans-serif" font-size="13" lengthAdjust="spacing" textLength="103.3208" x="156.5879" y="1046.0747">action: timeout,</text>
    <text fill="#000000" font-family="sans-serif" font-size="13" lengthAdjust="spacing" textLength="168.3462" x="156.5879" y="1061.2075">createdAt: &lt;timestamp&gt;,</text>
    <text fill="#000000" font-family="sans-serif" font-size="13" lengthAdjust="spacing" textLength="49.7148" x="156.5879" y="1076.3403">state: {</text>
    <text fill="#000000" font-family="sans-serif" font-size="13" lengthAdjust="spacing" textLength="115.4004" x="173.1172" y="1091.4731">status: &quot;success&quot;,</text>
    <text fill="#000000" font-family="sans-serif" font-size="13" lengthAdjust="spacing" textLength="48.1343" x="173.1172" y="1106.606">code: 0</text>
    <text fill="#000000" font-family="sans-serif" font-size="13" lengthAdjust="spacing" textLength="8.271" x="156.5879" y="1121.7388">}</text>
    <text fill="#000000" font-family="sans-serif" font-size="13" lengthAdjust="spacing" textLength="8.271" x="140.0586" y="1136.8716">}</text>
    <text fill="#000000" font-family="sans-serif" font-size="13" lengthAdjust="spacing" textLength="8.271" x="123.5293" y="1152.0044">}</text>
    <text fill="#000000" font-family="sans-serif" font-size="13" lengthAdjust="spacing" textLength="8.271" x="107" y="1167.1372">}</text>
    <polygon fill="#181818" points="261.7651,1212.4688,271.7651,1216.4688,261.7651,1220.4688,265.7651,1216.4688" style="stroke:#181818;stroke-width:1.0;"/>
    <line style="stroke:#181818;stroke-width:1.0;" x1="96.3584" x2="267.7651" y1="1216.4688" y2="1216.4688"/>
    <text fill="#000000" font-family="sans-serif" font-size="13" font-weight="bold" lengthAdjust="spacing" textLength="9.0454" x="103.3584" y="1203.8364">9</text>
    <text fill="#000000" font-family="sans-serif" font-size="13" lengthAdjust="spacing" textLength="145.3613" x="116.4038" y="1196.27">Publish Timeout event</text>
    <text fill="#FF0000" font-family="sans-serif" font-size="13" font-weight="bold" lengthAdjust="spacing" textLength="81.5293" x="116.4038" y="1211.4028">Error code:</text>
    <text fill="#FF0000" font-family="sans-serif" font-size="13" lengthAdjust="spacing" textLength="33.084" x="202.0654" y="1211.4028">2003</text>
  </g>
</svg>
