<svg xmlns="http://www.w3.org/2000/svg" xmlns:xlink="http://www.w3.org/1999/xlink" contentStyleType="text/css" height="1620px" preserveAspectRatio="none" style="width:1544px;height:1620px;background:#FFFFFF;" version="1.1" viewBox="0 0 1544 1620" width="1544px" zoomAndPan="magnify">
  <title>3.1.0 Add Participant Callback Details</title>
  <defs/>
  <g>
    <text fill="#000000" font-family="sans-serif" font-size="14" font-weight="bold" lengthAdjust="spacing" textLength="299.1475" x="624.1487" y="27.9951">3.1.0 Add Participant Callback Details</text>
    <rect fill="#FFFFE0" height="1570.9063" style="stroke:#181818;stroke-width:0.5;" width="961.5635" x="534.1694" y="43.2969"/>
    <text fill="#000000" font-family="sans-serif" font-size="13" font-weight="bold" lengthAdjust="spacing" textLength="119.7739" x="955.0642" y="55.3638">Central Services</text>
    <rect fill="#FFFFFF" height="1383.1797" style="stroke:#181818;stroke-width:1.0;" width="10" x="93.8701" y="134.7266"/>
    <rect fill="#FFFFFF" height="1337.9141" style="stroke:#181818;stroke-width:1.0;" width="10" x="603.0522" y="179.9922"/>
    <rect fill="#FFFFFF" height="633.1875" style="stroke:#181818;stroke-width:1.0;" width="10" x="873.5435" y="365.3203"/>
    <rect fill="#FFFFFF" height="446.1328" style="stroke:#181818;stroke-width:1.0;" width="10" x="873.5435" y="1027.6406"/>
    <rect fill="#FFFFFF" height="120.5313" style="stroke:#181818;stroke-width:1.0;" width="10" x="1215.5854" y="409.5859"/>
    <rect fill="#FFFFFF" height="247.3281" style="stroke:#181818;stroke-width:1.0;" width="10" x="1215.5854" y="655.7813"/>
    <rect fill="#FFFFFF" height="62.2656" style="stroke:#181818;stroke-width:1.0;" width="10" x="1437.3647" y="438.7188"/>
    <rect fill="#FFFFFF" height="30" style="stroke:#181818;stroke-width:1.0;" width="10" x="1437.3647" y="684.9141"/>
    <rect fill="none" height="1376.1797" style="stroke:#000000;stroke-width:1.5;" width="1528.4448" x="10" y="141.7266"/>
    <rect fill="none" height="923.6563" style="stroke:#000000;stroke-width:1.5;" width="1508.4448" x="20" y="587.25"/>
    <rect fill="none" height="309.5313" style="stroke:#000000;stroke-width:1.5;" width="1119.8579" x="30" y="960.2422"/>
    <line style="stroke:#181818;stroke-width:0.5;stroke-dasharray:5.0,5.0;" x1="98" x2="98" y1="124.7266" y2="1534.9063"/>
    <line style="stroke:#181818;stroke-width:0.5;stroke-dasharray:5.0,5.0;" x1="607.1694" x2="607.1694" y1="124.7266" y2="1534.9063"/>
    <line style="stroke:#181818;stroke-width:0.5;stroke-dasharray:5.0,5.0;" x1="877.9702" x2="877.9702" y1="124.7266" y2="1534.9063"/>
    <line style="stroke:#181818;stroke-width:0.5;stroke-dasharray:5.0,5.0;" x1="1219.8862" x2="1219.8862" y1="124.7266" y2="1534.9063"/>
    <line style="stroke:#181818;stroke-width:0.5;stroke-dasharray:5.0,5.0;" x1="1441.9966" x2="1441.9966" y1="124.7266" y2="1534.9063"/>
    <text fill="#000000" font-family="sans-serif" font-size="14" lengthAdjust="spacing" textLength="111.7402" x="40" y="121.4248">HUB OPERATOR</text>
    <ellipse cx="98.8701" cy="56.9297" fill="#E2E2F0" rx="8" ry="8" style="stroke:#181818;stroke-width:0.5;"/>
    <path d="M98.8701,64.9297 L98.8701,91.9297 M85.8701,72.9297 L111.8701,72.9297 M98.8701,91.9297 L85.8701,106.9297 M98.8701,91.9297 L111.8701,106.9297 " fill="none" style="stroke:#181818;stroke-width:0.5;"/>
    <text fill="#000000" font-family="sans-serif" font-size="14" lengthAdjust="spacing" textLength="111.7402" x="40" y="1546.9014">HUB OPERATOR</text>
    <ellipse cx="98.8701" cy="1558.7031" fill="#E2E2F0" rx="8" ry="8" style="stroke:#181818;stroke-width:0.5;"/>
    <path d="M98.8701,1566.7031 L98.8701,1593.7031 M85.8701,1574.7031 L111.8701,1574.7031 M98.8701,1593.7031 L85.8701,1608.7031 M98.8701,1593.7031 L111.8701,1608.7031 " fill="none" style="stroke:#181818;stroke-width:0.5;"/>
    <text fill="#000000" font-family="sans-serif" font-size="14" lengthAdjust="spacing" textLength="133.7656" x="538.1694" y="121.4248">Central Service API</text>
    <path d="M587.5522,80.4297 L587.5522,104.4297 M587.5522,92.4297 L604.5522,92.4297 " fill="none" style="stroke:#181818;stroke-width:0.5;"/>
    <ellipse cx="616.5522" cy="92.4297" fill="#E2E2F0" rx="12" ry="12" style="stroke:#181818;stroke-width:0.5;"/>
    <text fill="#000000" font-family="sans-serif" font-size="14" lengthAdjust="spacing" textLength="133.7656" x="538.1694" y="1546.9014">Central Service API</text>
    <path d="M587.5522,1554.2031 L587.5522,1578.2031 M587.5522,1566.2031 L604.5522,1566.2031 " fill="none" style="stroke:#181818;stroke-width:0.5;"/>
    <ellipse cx="616.5522" cy="1566.2031" fill="#E2E2F0" rx="12" ry="12" style="stroke:#181818;stroke-width:0.5;"/>
    <text fill="#000000" font-family="sans-serif" font-size="14" lengthAdjust="spacing" textLength="135.1465" x="807.9702" y="121.4248">Participant Handler</text>
    <ellipse cx="878.5435" cy="92.4297" fill="#E2E2F0" rx="12" ry="12" style="stroke:#181818;stroke-width:0.5;"/>
    <polygon fill="#181818" points="874.5435,80.4297,880.5435,75.4297,878.5435,80.4297,880.5435,85.4297,874.5435,80.4297" style="stroke:#181818;stroke-width:1.0;"/>
    <text fill="#000000" font-family="sans-serif" font-size="14" lengthAdjust="spacing" textLength="135.1465" x="807.9702" y="1546.9014">Participant Handler</text>
    <ellipse cx="878.5435" cy="1566.2031" fill="#E2E2F0" rx="12" ry="12" style="stroke:#181818;stroke-width:0.5;"/>
    <polygon fill="#181818" points="874.5435,1554.2031,880.5435,1549.2031,878.5435,1554.2031,880.5435,1559.2031,874.5435,1554.2031" style="stroke:#181818;stroke-width:1.0;"/>
    <text fill="#000000" font-family="sans-serif" font-size="14" lengthAdjust="spacing" textLength="111.3984" x="1161.8862" y="121.4248">Participant DAO</text>
    <ellipse cx="1220.5854" cy="92.4297" fill="#E2E2F0" rx="12" ry="12" style="stroke:#181818;stroke-width:0.5;"/>
    <line style="stroke:#181818;stroke-width:0.5;" x1="1208.5854" x2="1232.5854" y1="106.4297" y2="106.4297"/>
    <text fill="#000000" font-family="sans-serif" font-size="14" lengthAdjust="spacing" textLength="111.3984" x="1161.8862" y="1546.9014">Participant DAO</text>
    <ellipse cx="1220.5854" cy="1566.2031" fill="#E2E2F0" rx="12" ry="12" style="stroke:#181818;stroke-width:0.5;"/>
    <line style="stroke:#181818;stroke-width:0.5;" x1="1208.5854" x2="1232.5854" y1="1580.2031" y2="1580.2031"/>
    <text fill="#000000" font-family="sans-serif" font-size="14" lengthAdjust="spacing" textLength="92.7363" x="1392.9966" y="121.4248">Central Store</text>
    <path d="M1424.3647,72.4297 C1424.3647,62.4297 1442.3647,62.4297 1442.3647,62.4297 C1442.3647,62.4297 1460.3647,62.4297 1460.3647,72.4297 L1460.3647,98.4297 C1460.3647,108.4297 1442.3647,108.4297 1442.3647,108.4297 C1442.3647,108.4297 1424.3647,108.4297 1424.3647,98.4297 L1424.3647,72.4297 " fill="#E2E2F0" style="stroke:#181818;stroke-width:1.5;"/>
    <path d="M1424.3647,72.4297 C1424.3647,82.4297 1442.3647,82.4297 1442.3647,82.4297 C1442.3647,82.4297 1460.3647,82.4297 1460.3647,72.4297 " fill="none" style="stroke:#181818;stroke-width:1.5;"/>
    <text fill="#000000" font-family="sans-serif" font-size="14" lengthAdjust="spacing" textLength="92.7363" x="1392.9966" y="1546.9014">Central Store</text>
    <path d="M1424.3647,1560.2031 C1424.3647,1550.2031 1442.3647,1550.2031 1442.3647,1550.2031 C1442.3647,1550.2031 1460.3647,1550.2031 1460.3647,1560.2031 L1460.3647,1586.2031 C1460.3647,1596.2031 1442.3647,1596.2031 1442.3647,1596.2031 C1442.3647,1596.2031 1424.3647,1596.2031 1424.3647,1586.2031 L1424.3647,1560.2031 " fill="#E2E2F0" style="stroke:#181818;stroke-width:1.5;"/>
    <path d="M1424.3647,1560.2031 C1424.3647,1570.2031 1442.3647,1570.2031 1442.3647,1570.2031 C1442.3647,1570.2031 1460.3647,1570.2031 1460.3647,1560.2031 " fill="none" style="stroke:#181818;stroke-width:1.5;"/>
    <rect fill="#FFFFFF" height="1383.1797" style="stroke:#181818;stroke-width:1.0;" width="10" x="93.8701" y="134.7266"/>
    <rect fill="#FFFFFF" height="1337.9141" style="stroke:#181818;stroke-width:1.0;" width="10" x="603.0522" y="179.9922"/>
    <rect fill="#FFFFFF" height="633.1875" style="stroke:#181818;stroke-width:1.0;" width="10" x="873.5435" y="365.3203"/>
    <rect fill="#FFFFFF" height="446.1328" style="stroke:#181818;stroke-width:1.0;" width="10" x="873.5435" y="1027.6406"/>
    <rect fill="#FFFFFF" height="120.5313" style="stroke:#181818;stroke-width:1.0;" width="10" x="1215.5854" y="409.5859"/>
    <rect fill="#FFFFFF" height="247.3281" style="stroke:#181818;stroke-width:1.0;" width="10" x="1215.5854" y="655.7813"/>
    <rect fill="#FFFFFF" height="62.2656" style="stroke:#181818;stroke-width:1.0;" width="10" x="1437.3647" y="438.7188"/>
    <rect fill="#FFFFFF" height="30" style="stroke:#181818;stroke-width:1.0;" width="10" x="1437.3647" y="684.9141"/>
    <path d="M10,141.7266 L205.6235,141.7266 L205.6235,148.8594 L195.6235,158.8594 L10,158.8594 L10,141.7266 " fill="#EEEEEE" style="stroke:#000000;stroke-width:1.5;"/>
    <rect fill="none" height="1376.1797" style="stroke:#000000;stroke-width:1.5;" width="1528.4448" x="10" y="141.7266"/>
    <text fill="#000000" font-family="sans-serif" font-size="13" font-weight="bold" lengthAdjust="spacing" textLength="150.6235" x="25" y="154.7935">Add Callback Details</text>
    <polygon fill="#181818" points="591.0522,175.9922,601.0522,179.9922,591.0522,183.9922,595.0522,179.9922" style="stroke:#181818;stroke-width:1.0;"/>
    <line style="stroke:#181818;stroke-width:1.0;" x1="103.8701" x2="597.0522" y1="179.9922" y2="179.9922"/>
    <text fill="#000000" font-family="sans-serif" font-size="13" font-weight="bold" lengthAdjust="spacing" textLength="9.0454" x="110.8701" y="174.9263">1</text>
    <text fill="#000000" font-family="sans-serif" font-size="13" lengthAdjust="spacing" textLength="467.1367" x="123.9155" y="174.9263">Request to add callback details - POST - /paticipants/{name}/endpoints</text>
    <path d="M108,192.9922 L108,338.9922 L338,338.9922 L338,202.9922 L328,192.9922 L108,192.9922 " fill="#FFFF00" style="stroke:#181818;stroke-width:0.5;"/>
    <path d="M328,192.9922 L328,202.9922 L338,202.9922 L328,192.9922 " fill="#FFFF00" style="stroke:#181818;stroke-width:0.5;"/>
    <text fill="#000000" font-family="sans-serif" font-size="13" lengthAdjust="spacing" textLength="61.3564" x="114" y="210.0591">Message:</text>
    <text fill="#000000" font-family="sans-serif" font-size="13" lengthAdjust="spacing" textLength="8.271" x="114" y="225.1919">{</text>
    <text fill="#000000" font-family="sans-serif" font-size="13" lengthAdjust="spacing" textLength="68.4785" x="130.5293" y="240.3247">payload: {</text>
    <text fill="#000000" font-family="sans-serif" font-size="13" lengthAdjust="spacing" textLength="74.4263" x="147.0586" y="255.4575">endpoint: {</text>
    <text fill="#000000" font-family="sans-serif" font-size="13" lengthAdjust="spacing" textLength="129.2192" x="163.5879" y="270.5903">type: &lt;typeValue&gt;,</text>
    <text fill="#000000" font-family="sans-serif" font-size="13" lengthAdjust="spacing" textLength="160.1577" x="163.5879" y="285.7231">value: &lt;endpointValue&gt;</text>
    <text fill="#000000" font-family="sans-serif" font-size="13" lengthAdjust="spacing" textLength="8.271" x="142.9263" y="300.856">}</text>
    <text fill="#000000" font-family="sans-serif" font-size="13" lengthAdjust="spacing" textLength="8.271" x="130.5293" y="315.9888">}</text>
    <text fill="#000000" font-family="sans-serif" font-size="13" lengthAdjust="spacing" textLength="8.271" x="114" y="331.1216">}</text>
    <polygon fill="#181818" points="861.5435,361.3203,871.5435,365.3203,861.5435,369.3203,865.5435,365.3203" style="stroke:#181818;stroke-width:1.0;"/>
    <line style="stroke:#181818;stroke-width:1.0;" x1="613.0522" x2="867.5435" y1="365.3203" y2="365.3203"/>
    <text fill="#000000" font-family="sans-serif" font-size="13" font-weight="bold" lengthAdjust="spacing" textLength="9.0454" x="620.0522" y="360.2544">2</text>
    <text fill="#000000" font-family="sans-serif" font-size="13" lengthAdjust="spacing" textLength="228.4458" x="633.0977" y="360.2544">Add Callback details for Participant</text>
    <polygon fill="#181818" points="1203.5854,405.5859,1213.5854,409.5859,1203.5854,413.5859,1207.5854,409.5859" style="stroke:#181818;stroke-width:1.0;"/>
    <line style="stroke:#181818;stroke-width:1.0;" x1="883.5435" x2="1209.5854" y1="409.5859" y2="409.5859"/>
    <text fill="#000000" font-family="sans-serif" font-size="13" font-weight="bold" lengthAdjust="spacing" textLength="9.0454" x="890.5435" y="396.9536">3</text>
    <text fill="#000000" font-family="sans-serif" font-size="13" lengthAdjust="spacing" textLength="110.2651" x="903.5889" y="389.3872">Fetch Participant</text>
    <text fill="#FF0000" font-family="sans-serif" font-size="13" font-weight="bold" lengthAdjust="spacing" textLength="81.5293" x="903.5889" y="404.52">Error code:</text>
    <text fill="#FF0000" font-family="sans-serif" font-size="13" lengthAdjust="spacing" textLength="33.084" x="989.2505" y="404.52">3200</text>
    <polygon fill="#181818" points="1425.3647,434.7188,1435.3647,438.7188,1425.3647,442.7188,1429.3647,438.7188" style="stroke:#181818;stroke-width:1.0;"/>
    <line style="stroke:#181818;stroke-width:1.0;" x1="1225.5854" x2="1431.3647" y1="438.7188" y2="438.7188"/>
    <text fill="#000000" font-family="sans-serif" font-size="13" font-weight="bold" lengthAdjust="spacing" textLength="9.0454" x="1232.5854" y="433.6528">4</text>
    <text fill="#000000" font-family="sans-serif" font-size="13" lengthAdjust="spacing" textLength="110.2651" x="1245.6309" y="433.6528">Fetch Participant</text>
    <polygon fill="#FFFFE0" points="1405,451.7188,1479,451.7188,1489,462.7188,1479,474.7188,1405,474.7188,1395,462.7188,1405,451.7188" style="stroke:#181818;stroke-width:0.5;"/>
    <text fill="#000000" font-family="sans-serif" font-size="13" lengthAdjust="spacing" textLength="70.5859" x="1407" y="467.7856">participant</text>
    <polygon fill="#181818" points="1236.5854,496.9844,1226.5854,500.9844,1236.5854,504.9844,1232.5854,500.9844" style="stroke:#181818;stroke-width:1.0;"/>
    <line style="stroke:#181818;stroke-width:1.0;stroke-dasharray:2.0,2.0;" x1="1230.5854" x2="1441.3647" y1="500.9844" y2="500.9844"/>
    <text fill="#000000" font-family="sans-serif" font-size="13" font-weight="bold" lengthAdjust="spacing" textLength="9.0454" x="1242.5854" y="495.9185">5</text>
    <text fill="#000000" font-family="sans-serif" font-size="13" lengthAdjust="spacing" textLength="137.3315" x="1255.6309" y="495.9185">Retrieved Participant</text>
    <polygon fill="#181818" points="894.5435,526.1172,884.5435,530.1172,894.5435,534.1172,890.5435,530.1172" style="stroke:#181818;stroke-width:1.0;"/>
    <line style="stroke:#181818;stroke-width:1.0;stroke-dasharray:2.0,2.0;" x1="888.5435" x2="1219.5854" y1="530.1172" y2="530.1172"/>
    <text fill="#000000" font-family="sans-serif" font-size="13" font-weight="bold" lengthAdjust="spacing" textLength="9.0454" x="900.5435" y="525.0513">6</text>
    <text fill="#000000" font-family="sans-serif" font-size="13" lengthAdjust="spacing" textLength="118.2568" x="913.5889" y="525.0513">Return Participant</text>
    <line style="stroke:#181818;stroke-width:1.0;" x1="883.5435" x2="925.5435" y1="559.25" y2="559.25"/>
    <line style="stroke:#181818;stroke-width:1.0;" x1="925.5435" x2="925.5435" y1="559.25" y2="572.25"/>
    <line style="stroke:#181818;stroke-width:1.0;" x1="884.5435" x2="925.5435" y1="572.25" y2="572.25"/>
    <polygon fill="#181818" points="894.5435,568.25,884.5435,572.25,894.5435,576.25,890.5435,572.25" style="stroke:#181818;stroke-width:1.0;"/>
    <text fill="#000000" font-family="sans-serif" font-size="13" font-weight="bold" lengthAdjust="spacing" textLength="9.0454" x="890.5435" y="554.1841">7</text>
    <text fill="#000000" font-family="sans-serif" font-size="13" lengthAdjust="spacing" textLength="91.1079" x="903.5889" y="554.1841">Validate DFSP</text>
    <path d="M20,587.25 L84.4429,587.25 L84.4429,594.3828 L74.4429,604.3828 L20,604.3828 L20,587.25 " fill="#EEEEEE" style="stroke:#000000;stroke-width:1.5;"/>
    <rect fill="none" height="923.6563" style="stroke:#000000;stroke-width:1.5;" width="1508.4448" x="20" y="587.25"/>
    <text fill="#000000" font-family="sans-serif" font-size="13" font-weight="bold" lengthAdjust="spacing" textLength="19.4429" x="35" y="600.3169">alt</text>
    <text fill="#000000" font-family="sans-serif" font-size="11" font-weight="bold" lengthAdjust="spacing" textLength="195.6636" x="99.4429" y="599.4604">[Validate participant (success)]</text>
    <polygon fill="#181818" points="1203.5854,651.7813,1213.5854,655.7813,1203.5854,659.7813,1207.5854,655.7813" style="stroke:#181818;stroke-width:1.0;"/>
    <line style="stroke:#181818;stroke-width:1.0;" x1="883.5435" x2="1209.5854" y1="655.7813" y2="655.7813"/>
    <text fill="#000000" font-family="sans-serif" font-size="13" font-weight="bold" lengthAdjust="spacing" textLength="9.0454" x="890.5435" y="635.5825">8</text>
    <text fill="#000000" font-family="sans-serif" font-size="13" lengthAdjust="spacing" textLength="228.4458" x="903.5889" y="620.4497">Add Callback details for Participant</text>
    <text fill="#FF0000" font-family="sans-serif" font-size="13" font-weight="bold" lengthAdjust="spacing" textLength="81.5293" x="903.5889" y="635.5825">Error code:</text>
    <text fill="#FF0000" font-family="sans-serif" font-size="13" lengthAdjust="spacing" textLength="37.4639" x="989.2505" y="635.5825">2003/</text>
    <text fill="#FF0000" font-family="sans-serif" font-size="13" font-weight="bold" lengthAdjust="spacing" textLength="35.1787" x="1026.7144" y="635.5825">Msg:</text>
    <text fill="#FF0000" font-family="sans-serif" font-size="13" lengthAdjust="spacing" textLength="127.334" x="1066.0254" y="635.5825">Service unavailable</text>
    <text fill="#000000" font-family="sans-serif" font-size="13" lengthAdjust="spacing" textLength="4.1323" x="1197.4917" y="635.5825"> </text>
    <text fill="#FF0000" font-family="sans-serif" font-size="13" font-weight="bold" lengthAdjust="spacing" textLength="81.5293" x="903.5889" y="650.7153">Error code:</text>
    <text fill="#FF0000" font-family="sans-serif" font-size="13" lengthAdjust="spacing" textLength="37.4639" x="989.2505" y="650.7153">2001/</text>
    <text fill="#FF0000" font-family="sans-serif" font-size="13" font-weight="bold" lengthAdjust="spacing" textLength="35.1787" x="1026.7144" y="650.7153">Msg:</text>
    <text fill="#FF0000" font-family="sans-serif" font-size="13" lengthAdjust="spacing" textLength="133.4277" x="1066.0254" y="650.7153">Internal Server Error</text>
    <polygon fill="#181818" points="1425.3647,680.9141,1435.3647,684.9141,1425.3647,688.9141,1429.3647,684.9141" style="stroke:#181818;stroke-width:1.0;"/>
    <line style="stroke:#181818;stroke-width:1.0;" x1="1225.5854" x2="1431.3647" y1="684.9141" y2="684.9141"/>
    <text fill="#000000" font-family="sans-serif" font-size="13" font-weight="bold" lengthAdjust="spacing" textLength="9.0454" x="1232.5854" y="679.8481">9</text>
    <text fill="#000000" font-family="sans-serif" font-size="13" lengthAdjust="spacing" textLength="179.7339" x="1245.6309" y="679.8481">Persist Participant Endpoint</text>
    <polygon fill="#FFFFE0" points="1376,727.9141,1508,727.9141,1518,738.9141,1508,750.9141,1376,750.9141,1366,738.9141,1376,727.9141" style="stroke:#181818;stroke-width:0.5;"/>
    <text fill="#000000" font-family="sans-serif" font-size="13" lengthAdjust="spacing" textLength="128.4448" x="1378" y="743.981">participantEndpoint</text>
    <path d="M1230,761.0469 L1230,876.0469 L1480,876.0469 L1480,771.0469 L1470,761.0469 L1230,761.0469 " fill="#D3D3D3" style="stroke:#181818;stroke-width:0.5;"/>
    <path d="M1470,761.0469 L1470,771.0469 L1480,771.0469 L1470,761.0469 " fill="#D3D3D3" style="stroke:#181818;stroke-width:0.5;"/>
    <text fill="#000000" font-family="sans-serif" font-size="13" lengthAdjust="spacing" textLength="229.2012" x="1236" y="778.1138">If (endpoint exists &amp;&amp; isActive = 1)</text>
    <text fill="#000000" font-family="sans-serif" font-size="13" lengthAdjust="spacing" textLength="160.0625" x="1252.5293" y="793.2466">oldEndpoint.isActive = 0</text>
    <text fill="#000000" font-family="sans-serif" font-size="13" lengthAdjust="spacing" textLength="98.8394" x="1252.5293" y="808.3794">insert endpoint</text>
    <text fill="#000000" font-family="sans-serif" font-size="13" lengthAdjust="spacing" textLength="26.5967" x="1236" y="823.5122">Else</text>
    <text fill="#000000" font-family="sans-serif" font-size="13" lengthAdjust="spacing" textLength="98.8394" x="1252.5293" y="838.645">insert endpoint</text>
    <text fill="#000000" font-family="sans-serif" font-size="13" lengthAdjust="spacing" textLength="24.7051" x="1236" y="853.7778">End</text>
    <text fill="#000000" font-family="sans-serif" font-size="13" lengthAdjust="spacing" textLength="16.5293" x="1236" y="868.9106">    </text>
    <polygon fill="#181818" points="894.5435,899.1094,884.5435,903.1094,894.5435,907.1094,890.5435,903.1094" style="stroke:#181818;stroke-width:1.0;"/>
    <line style="stroke:#181818;stroke-width:1.0;stroke-dasharray:2.0,2.0;" x1="888.5435" x2="1219.5854" y1="903.1094" y2="903.1094"/>
    <text fill="#000000" font-family="sans-serif" font-size="13" font-weight="bold" lengthAdjust="spacing" textLength="18.0908" x="900.5435" y="898.0435">10</text>
    <text fill="#000000" font-family="sans-serif" font-size="13" lengthAdjust="spacing" textLength="88.0293" x="922.6343" y="898.0435">Return status</text>
    <line style="stroke:#181818;stroke-width:1.0;" x1="883.5435" x2="925.5435" y1="932.2422" y2="932.2422"/>
    <line style="stroke:#181818;stroke-width:1.0;" x1="925.5435" x2="925.5435" y1="932.2422" y2="945.2422"/>
    <line style="stroke:#181818;stroke-width:1.0;" x1="884.5435" x2="925.5435" y1="945.2422" y2="945.2422"/>
    <polygon fill="#181818" points="894.5435,941.2422,884.5435,945.2422,894.5435,949.2422,890.5435,945.2422" style="stroke:#181818;stroke-width:1.0;"/>
    <text fill="#000000" font-family="sans-serif" font-size="13" font-weight="bold" lengthAdjust="spacing" textLength="18.0908" x="890.5435" y="927.1763">11</text>
    <text fill="#000000" font-family="sans-serif" font-size="13" lengthAdjust="spacing" textLength="97.4746" x="912.6343" y="927.1763">Validate status</text>
    <path d="M30,960.2422 L94.4429,960.2422 L94.4429,967.375 L84.4429,977.375 L30,977.375 L30,960.2422 " fill="#EEEEEE" style="stroke:#000000;stroke-width:1.5;"/>
    <rect fill="none" height="309.5313" style="stroke:#000000;stroke-width:1.5;" width="1119.8579" x="30" y="960.2422"/>
    <text fill="#000000" font-family="sans-serif" font-size="13" font-weight="bold" lengthAdjust="spacing" textLength="19.4429" x="45" y="973.3091">alt</text>
    <text fill="#000000" font-family="sans-serif" font-size="11" font-weight="bold" lengthAdjust="spacing" textLength="166.1011" x="109.4429" y="972.4526">[Validate status (success)]</text>
    <polygon fill="#181818" points="624.0522,994.5078,614.0522,998.5078,624.0522,1002.5078,620.0522,998.5078" style="stroke:#181818;stroke-width:1.0;"/>
    <line style="stroke:#181818;stroke-width:1.0;stroke-dasharray:2.0,2.0;" x1="618.0522" x2="877.5435" y1="998.5078" y2="998.5078"/>
    <text fill="#000000" font-family="sans-serif" font-size="13" font-weight="bold" lengthAdjust="spacing" textLength="18.0908" x="630.0522" y="993.4419">12</text>
    <text fill="#000000" font-family="sans-serif" font-size="13" lengthAdjust="spacing" textLength="155.8667" x="652.1431" y="993.4419">Return Status Code 201</text>
    <polygon fill="#181818" points="114.8701,1023.6406,104.8701,1027.6406,114.8701,1031.6406,110.8701,1027.6406" style="stroke:#181818;stroke-width:1.0;"/>
    <line style="stroke:#181818;stroke-width:1.0;stroke-dasharray:2.0,2.0;" x1="108.8701" x2="602.0522" y1="1027.6406" y2="1027.6406"/>
    <text fill="#000000" font-family="sans-serif" font-size="13" font-weight="bold" lengthAdjust="spacing" textLength="18.0908" x="120.8701" y="1022.5747">13</text>
    <text fill="#000000" font-family="sans-serif" font-size="13" lengthAdjust="spacing" textLength="155.8667" x="142.9609" y="1022.5747">Return Status Code 201</text>
    <line style="stroke:#000000;stroke-width:1.0;stroke-dasharray:2.0,2.0;" x1="30" x2="1149.8579" y1="1036.6406" y2="1036.6406"/>
    <text fill="#000000" font-family="sans-serif" font-size="11" font-weight="bold" lengthAdjust="spacing" textLength="201.6147" x="35" y="1046.8511">[Validate status (failure) / Error]</text>
    <path d="M888,1055.4453 L888,1080.4453 L946,1080.4453 L946,1065.4453 L936,1055.4453 L888,1055.4453 " fill="#FF0000" style="stroke:#181818;stroke-width:0.5;"/>
    <path d="M936,1055.4453 L936,1065.4453 L946,1065.4453 L936,1055.4453 " fill="#FF0000" style="stroke:#181818;stroke-width:0.5;"/>
    <text fill="#000000" font-family="sans-serif" font-size="13" lengthAdjust="spacing" textLength="37.4131" x="894" y="1072.5122">Error!</text>
    <path d="M888,1090.5781 L888,1205.5781 L1139,1205.5781 L1139,1100.5781 L1129,1090.5781 L888,1090.5781 " fill="#FFFF00" style="stroke:#181818;stroke-width:0.5;"/>
    <path d="M1129,1090.5781 L1129,1100.5781 L1139,1100.5781 L1129,1090.5781 " fill="#FFFF00" style="stroke:#181818;stroke-width:0.5;"/>
    <text fill="#000000" font-family="sans-serif" font-size="13" lengthAdjust="spacing" textLength="61.3564" x="894" y="1107.645">Message:</text>
    <text fill="#000000" font-family="sans-serif" font-size="13" lengthAdjust="spacing" textLength="8.271" x="910.5293" y="1122.7778">{</text>
    <text fill="#000000" font-family="sans-serif" font-size="13" lengthAdjust="spacing" textLength="136.208" x="927.0586" y="1137.9106">&quot;errorInformation&quot;: {</text>
    <text fill="#000000" font-family="sans-serif" font-size="13" lengthAdjust="spacing" textLength="181.27" x="943.5879" y="1153.0435">&quot;errorCode&quot;: &lt;Error Code&gt;,</text>
    <text fill="#000000" font-family="sans-serif" font-size="13" lengthAdjust="spacing" textLength="178.6548" x="943.5879" y="1168.1763">&quot;errorDescription&quot;: &lt;Msg&gt;,</text>
    <text fill="#000000" font-family="sans-serif" font-size="13" lengthAdjust="spacing" textLength="8.271" x="927.0586" y="1183.3091">}</text>
    <text fill="#000000" font-family="sans-serif" font-size="13" lengthAdjust="spacing" textLength="8.271" x="910.5293" y="1198.4419">}</text>
    <polygon fill="#181818" points="624.0522,1228.6406,614.0522,1232.6406,624.0522,1236.6406,620.0522,1232.6406" style="stroke:#181818;stroke-width:1.0;"/>
    <line style="stroke:#181818;stroke-width:1.0;stroke-dasharray:2.0,2.0;" x1="618.0522" x2="872.5435" y1="1232.6406" y2="1232.6406"/>
    <text fill="#000000" font-family="sans-serif" font-size="13" font-weight="bold" lengthAdjust="spacing" textLength="18.0908" x="630.0522" y="1227.5747">14</text>
    <text fill="#000000" font-family="sans-serif" font-size="13" lengthAdjust="spacing" textLength="43.9512" x="652.1431" y="1227.5747">Return</text>
    <text fill="#FF0000" font-family="sans-serif" font-size="13" font-weight="bold" lengthAdjust="spacing" textLength="76.3306" x="700.2266" y="1227.5747">Error code</text>
    <polygon fill="#181818" points="114.8701,1257.7734,104.8701,1261.7734,114.8701,1265.7734,110.8701,1261.7734" style="stroke:#181818;stroke-width:1.0;"/>
    <line style="stroke:#181818;stroke-width:1.0;stroke-dasharray:2.0,2.0;" x1="108.8701" x2="602.0522" y1="1261.7734" y2="1261.7734"/>
    <text fill="#000000" font-family="sans-serif" font-size="13" font-weight="bold" lengthAdjust="spacing" textLength="18.0908" x="120.8701" y="1256.7075">15</text>
    <text fill="#000000" font-family="sans-serif" font-size="13" lengthAdjust="spacing" textLength="43.9512" x="142.9609" y="1256.7075">Return</text>
    <text fill="#FF0000" font-family="sans-serif" font-size="13" font-weight="bold" lengthAdjust="spacing" textLength="76.3306" x="191.0444" y="1256.7075">Error code</text>
    <line style="stroke:#000000;stroke-width:1.0;stroke-dasharray:2.0,2.0;" x1="20" x2="1528.4448" y1="1277.7734" y2="1277.7734"/>
    <text fill="#000000" font-family="sans-serif" font-size="11" font-weight="bold" lengthAdjust="spacing" textLength="188.1548" x="25" y="1287.9839">[Validate participant (failure)]</text>
    <path d="M888,1296.5781 L888,1321.5781 L1024,1321.5781 L1024,1306.5781 L1014,1296.5781 L888,1296.5781 " fill="#FF0000" style="stroke:#181818;stroke-width:0.5;"/>
    <path d="M1014,1296.5781 L1014,1306.5781 L1024,1306.5781 L1014,1296.5781 " fill="#FF0000" style="stroke:#181818;stroke-width:0.5;"/>
    <text fill="#000000" font-family="sans-serif" font-size="13" lengthAdjust="spacing" textLength="115.8955" x="894" y="1313.645">Validation failure!</text>
    <path d="M888,1331.7109 L888,1446.7109 L1211,1446.7109 L1211,1341.7109 L1201,1331.7109 L888,1331.7109 " fill="#FFFF00" style="stroke:#181818;stroke-width:0.5;"/>
    <path d="M1201,1331.7109 L1201,1341.7109 L1211,1341.7109 L1201,1331.7109 " fill="#FFFF00" style="stroke:#181818;stroke-width:0.5;"/>
    <text fill="#000000" font-family="sans-serif" font-size="13" lengthAdjust="spacing" textLength="61.3564" x="894" y="1348.7778">Message:</text>
    <text fill="#000000" font-family="sans-serif" font-size="13" lengthAdjust="spacing" textLength="8.271" x="910.5293" y="1363.9106">{</text>
    <text fill="#000000" font-family="sans-serif" font-size="13" lengthAdjust="spacing" textLength="136.208" x="927.0586" y="1379.0435">&quot;errorInformation&quot;: {</text>
    <text fill="#000000" font-family="sans-serif" font-size="13" lengthAdjust="spacing" textLength="122.9541" x="943.5879" y="1394.1763">&quot;errorCode&quot;: 3200,</text>
    <text fill="#000000" font-family="sans-serif" font-size="13" lengthAdjust="spacing" textLength="253.354" x="943.5879" y="1409.3091">&quot;errorDescription&quot;: &quot;FSP id Not Found&quot;,</text>
    <text fill="#000000" font-family="sans-serif" font-size="13" lengthAdjust="spacing" textLength="8.271" x="927.0586" y="1424.4419">}</text>
    <text fill="#000000" font-family="sans-serif" font-size="13" lengthAdjust="spacing" textLength="8.271" x="910.5293" y="1439.5747">}</text>
    <polygon fill="#181818" points="624.0522,1469.7734,614.0522,1473.7734,624.0522,1477.7734,620.0522,1473.7734" style="stroke:#181818;stroke-width:1.0;"/>
    <line style="stroke:#181818;stroke-width:1.0;stroke-dasharray:2.0,2.0;" x1="618.0522" x2="877.5435" y1="1473.7734" y2="1473.7734"/>
    <text fill="#000000" font-family="sans-serif" font-size="13" font-weight="bold" lengthAdjust="spacing" textLength="18.0908" x="630.0522" y="1468.7075">16</text>
    <text fill="#000000" font-family="sans-serif" font-size="13" lengthAdjust="spacing" textLength="43.9512" x="652.1431" y="1468.7075">Return</text>
    <text fill="#FF0000" font-family="sans-serif" font-size="13" font-weight="bold" lengthAdjust="spacing" textLength="81.5293" x="700.2266" y="1468.7075">Error code:</text>
    <text fill="#FF0000" font-family="sans-serif" font-size="13" lengthAdjust="spacing" textLength="33.084" x="785.8882" y="1468.7075">3200</text>
    <polygon fill="#181818" points="114.8701,1498.9063,104.8701,1502.9063,114.8701,1506.9063,110.8701,1502.9063" style="stroke:#181818;stroke-width:1.0;"/>
    <line style="stroke:#181818;stroke-width:1.0;stroke-dasharray:2.0,2.0;" x1="108.8701" x2="602.0522" y1="1502.9063" y2="1502.9063"/>
    <text fill="#000000" font-family="sans-serif" font-size="13" font-weight="bold" lengthAdjust="spacing" textLength="18.0908" x="120.8701" y="1497.8403">17</text>
    <text fill="#000000" font-family="sans-serif" font-size="13" lengthAdjust="spacing" textLength="43.9512" x="142.9609" y="1497.8403">Return</text>
    <text fill="#FF0000" font-family="sans-serif" font-size="13" font-weight="bold" lengthAdjust="spacing" textLength="81.5293" x="191.0444" y="1497.8403">Error code:</text>
    <text fill="#FF0000" font-family="sans-serif" font-size="13" lengthAdjust="spacing" textLength="33.084" x="276.7061" y="1497.8403">3200</text>
  </g>
</svg>
