<svg xmlns="http://www.w3.org/2000/svg" xmlns:xlink="http://www.w3.org/1999/xlink" contentStyleType="text/css" height="925px" preserveAspectRatio="none" style="width:2366px;height:925px;background:#FFFFFF;" version="1.1" viewBox="0 0 2366 925" width="2366px" zoomAndPan="magnify">
  <title>1.1.4.b. Send notification to Participant (Payer/Payee) (batch messages)</title>
  <defs/>
  <g>
    <text fill="#000000" font-family="sans-serif" font-size="14" font-weight="bold" lengthAdjust="spacing" textLength="574.8682" x="897.2756" y="27.9951">1.1.4.b. Send notification to Participant (Payer/Payee) (batch messages)</text>
    <rect fill="#D3D3D3" height="876.6484" style="stroke:#181818;stroke-width:0.5;" width="197.439" x="50" y="43.2969"/>
    <text fill="#000000" font-family="sans-serif" font-size="13" font-weight="bold" lengthAdjust="spacing" textLength="191.439" x="53" y="55.3638">Financial Service Provider</text>
    <rect fill="#ADD8E6" height="876.6484" style="stroke:#181818;stroke-width:0.5;" width="249.3887" x="724.3076" y="43.2969"/>
    <text fill="#000000" font-family="sans-serif" font-size="13" font-weight="bold" lengthAdjust="spacing" textLength="172.1548" x="762.9246" y="55.3638">ML API Adapter Service</text>
    <rect fill="#FFFFE0" height="876.6484" style="stroke:#181818;stroke-width:0.5;" width="1050.0557" x="1280.9688" y="43.2969"/>
    <text fill="#000000" font-family="sans-serif" font-size="13" font-weight="bold" lengthAdjust="spacing" textLength="112.0361" x="1749.9785" y="55.3638">Central Service</text>
    <rect fill="#FFFFFF" height="649.3281" style="stroke:#181818;stroke-width:1.0;" width="10" x="844.002" y="165.0234"/>
    <rect fill="#FFFFFF" height="30" style="stroke:#181818;stroke-width:1.0;" width="10" x="1350.4546" y="245.4219"/>
    <rect fill="#FFFFFF" height="195.4688" style="stroke:#181818;stroke-width:1.0;" width="10" x="1500.8232" y="352.8203"/>
    <rect fill="#FFFFFF" height="178.7969" style="stroke:#181818;stroke-width:1.0;" width="10" x="1500.8232" y="584.4219"/>
    <rect fill="#FFFFFF" height="137.2031" style="stroke:#181818;stroke-width:1.0;" width="10" x="1709.9834" y="381.9531"/>
    <rect fill="#FFFFFF" height="120.5313" style="stroke:#181818;stroke-width:1.0;" width="10" x="1940.106" y="613.5547"/>
    <rect fill="#FFFFFF" height="172.6641" style="stroke:#181818;stroke-width:1.0;" width="10" x="2272.6563" y="642.6875"/>
    <rect fill="none" height="635.3281" style="stroke:#000000;stroke-width:1.5;" width="2351.4194" x="9" y="172.0234"/>
    <rect fill="none" height="509.9297" style="stroke:#000000;stroke-width:1.5;" width="2252.4856" x="97.9338" y="290.4219"/>
    <rect fill="none" height="241.7344" style="stroke:#000000;stroke-width:1.5;" width="1103.813" x="718.3076" y="314.5547"/>
    <line style="stroke:#181818;stroke-width:0.5;stroke-dasharray:5.0,5.0;" x1="147.9338" x2="147.9338" y1="155.0234" y2="824.3516"/>
    <line style="stroke:#181818;stroke-width:0.5;stroke-dasharray:5.0,5.0;" x1="848.3076" x2="848.3076" y1="155.0234" y2="824.3516"/>
    <line style="stroke:#181818;stroke-width:0.5;stroke-dasharray:5.0,5.0;" x1="1354.9688" x2="1354.9688" y1="155.0234" y2="824.3516"/>
    <line style="stroke:#181818;stroke-width:0.5;stroke-dasharray:5.0,5.0;" x1="1504.9404" x2="1504.9404" y1="155.0234" y2="824.3516"/>
    <line style="stroke:#181818;stroke-width:0.5;stroke-dasharray:5.0,5.0;" x1="1714.6089" x2="1714.6089" y1="155.0234" y2="824.3516"/>
    <line style="stroke:#181818;stroke-width:0.5;stroke-dasharray:5.0,5.0;" x1="1824.3579" x2="1824.3579" y1="155.0234" y2="824.3516"/>
    <line style="stroke:#181818;stroke-width:0.5;stroke-dasharray:5.0,5.0;" x1="1945.0278" x2="1945.0278" y1="155.0234" y2="824.3516"/>
    <line style="stroke:#181818;stroke-width:0.5;stroke-dasharray:5.0,5.0;" x1="2277.2881" x2="2277.2881" y1="155.0234" y2="824.3516"/>
    <text fill="#000000" font-family="sans-serif" font-size="14" lengthAdjust="spacing" textLength="55.959" x="117.74" y="135.4248">DFSP(n)</text>
    <text fill="#000000" font-family="sans-serif" font-size="14" lengthAdjust="spacing" textLength="75.5713" x="107.9338" y="151.7217">Participant</text>
    <ellipse cx="148.7195" cy="70.9297" fill="#E2E2F0" rx="8" ry="8" style="stroke:#181818;stroke-width:0.5;"/>
    <path d="M148.7195,78.9297 L148.7195,105.9297 M135.7195,86.9297 L161.7195,86.9297 M148.7195,105.9297 L135.7195,120.9297 M148.7195,105.9297 L161.7195,120.9297 " fill="none" style="stroke:#181818;stroke-width:0.5;"/>
    <text fill="#000000" font-family="sans-serif" font-size="14" lengthAdjust="spacing" textLength="55.959" x="117.74" y="836.3467">DFSP(n)</text>
    <text fill="#000000" font-family="sans-serif" font-size="14" lengthAdjust="spacing" textLength="75.5713" x="107.9338" y="852.6436">Participant</text>
    <ellipse cx="148.7195" cy="864.4453" fill="#E2E2F0" rx="8" ry="8" style="stroke:#181818;stroke-width:0.5;"/>
    <path d="M148.7195,872.4453 L148.7195,899.4453 M135.7195,880.4453 L161.7195,880.4453 M148.7195,899.4453 L135.7195,914.4453 M148.7195,899.4453 L161.7195,914.4453 " fill="none" style="stroke:#181818;stroke-width:0.5;"/>
    <text fill="#000000" font-family="sans-serif" font-size="14" lengthAdjust="spacing" textLength="235.3887" x="728.3076" y="151.7217">ML API Notification Event Handler</text>
    <ellipse cx="849.002" cy="122.7266" fill="#E2E2F0" rx="12" ry="12" style="stroke:#181818;stroke-width:0.5;"/>
    <polygon fill="#181818" points="845.002,110.7266,851.002,105.7266,849.002,110.7266,851.002,115.7266,845.002,110.7266" style="stroke:#181818;stroke-width:1.0;"/>
    <text fill="#000000" font-family="sans-serif" font-size="14" lengthAdjust="spacing" textLength="235.3887" x="728.3076" y="836.3467">ML API Notification Event Handler</text>
    <ellipse cx="849.002" cy="855.6484" fill="#E2E2F0" rx="12" ry="12" style="stroke:#181818;stroke-width:0.5;"/>
    <polygon fill="#181818" points="845.002,843.6484,851.002,838.6484,849.002,843.6484,851.002,848.6484,845.002,843.6484" style="stroke:#181818;stroke-width:1.0;"/>
    <rect fill="#E2E2F0" height="30.2969" style="stroke:#181818;stroke-width:0.5;" width="136.9717" x="1288.9688" y="119.7266"/>
    <rect fill="#E2E2F0" height="30.2969" style="stroke:#181818;stroke-width:0.5;" width="136.9717" x="1284.9688" y="123.7266"/>
    <text fill="#000000" font-family="sans-serif" font-size="14" lengthAdjust="spacing" textLength="122.9717" x="1291.9688" y="143.7217">Notification-Topic</text>
    <rect fill="#E2E2F0" height="30.2969" style="stroke:#181818;stroke-width:0.5;" width="136.9717" x="1288.9688" y="823.3516"/>
    <rect fill="#E2E2F0" height="30.2969" style="stroke:#181818;stroke-width:0.5;" width="136.9717" x="1284.9688" y="827.3516"/>
    <text fill="#000000" font-family="sans-serif" font-size="14" lengthAdjust="spacing" textLength="122.9717" x="1291.9688" y="847.3467">Notification-Topic</text>
    <text fill="#000000" font-family="sans-serif" font-size="14" lengthAdjust="spacing" textLength="133.7656" x="1435.9404" y="151.7217">Central Service API</text>
    <path d="M1485.3232,110.7266 L1485.3232,134.7266 M1485.3232,122.7266 L1502.3232,122.7266 " fill="none" style="stroke:#181818;stroke-width:0.5;"/>
    <ellipse cx="1514.3232" cy="122.7266" fill="#E2E2F0" rx="12" ry="12" style="stroke:#181818;stroke-width:0.5;"/>
    <text fill="#000000" font-family="sans-serif" font-size="14" lengthAdjust="spacing" textLength="133.7656" x="1435.9404" y="836.3467">Central Service API</text>
    <path d="M1485.3232,843.6484 L1485.3232,867.6484 M1485.3232,855.6484 L1502.3232,855.6484 " fill="none" style="stroke:#181818;stroke-width:0.5;"/>
    <ellipse cx="1514.3232" cy="855.6484" fill="#E2E2F0" rx="12" ry="12" style="stroke:#181818;stroke-width:0.5;"/>
    <rect fill="#E2E2F0" height="30.2969" style="stroke:#181818;stroke-width:0.5;" width="96.749" x="1668.6089" y="119.7266"/>
    <rect fill="#E2E2F0" height="30.2969" style="stroke:#181818;stroke-width:0.5;" width="96.749" x="1664.6089" y="123.7266"/>
    <text fill="#000000" font-family="sans-serif" font-size="14" lengthAdjust="spacing" textLength="82.749" x="1671.6089" y="143.7217">Event-Topic</text>
    <rect fill="#E2E2F0" height="30.2969" style="stroke:#181818;stroke-width:0.5;" width="96.749" x="1668.6089" y="823.3516"/>
    <rect fill="#E2E2F0" height="30.2969" style="stroke:#181818;stroke-width:0.5;" width="96.749" x="1664.6089" y="827.3516"/>
    <text fill="#000000" font-family="sans-serif" font-size="14" lengthAdjust="spacing" textLength="82.749" x="1671.6089" y="847.3467">Event-Topic</text>
    <rect fill="#E2E2F0" height="30.2969" rx="2.5" ry="2.5" style="stroke:#181818;stroke-width:0.5;" width="98.6699" x="1775.3579" y="123.7266"/>
    <text fill="#000000" font-family="sans-serif" font-size="14" lengthAdjust="spacing" textLength="84.6699" x="1782.3579" y="143.7217">EVENT_DAO</text>
    <rect fill="#E2E2F0" height="30.2969" rx="2.5" ry="2.5" style="stroke:#181818;stroke-width:0.5;" width="98.6699" x="1775.3579" y="823.3516"/>
    <text fill="#000000" font-family="sans-serif" font-size="14" lengthAdjust="spacing" textLength="84.6699" x="1782.3579" y="843.3467">EVENT_DAO</text>
    <text fill="#000000" font-family="sans-serif" font-size="14" lengthAdjust="spacing" textLength="116.1563" x="1884.0278" y="151.7217">Notification DAO</text>
    <ellipse cx="1945.106" cy="122.7266" fill="#E2E2F0" rx="12" ry="12" style="stroke:#181818;stroke-width:0.5;"/>
    <line style="stroke:#181818;stroke-width:0.5;" x1="1933.106" x2="1957.106" y1="136.7266" y2="136.7266"/>
    <text fill="#000000" font-family="sans-serif" font-size="14" lengthAdjust="spacing" textLength="116.1563" x="1884.0278" y="836.3467">Notification DAO</text>
    <ellipse cx="1945.106" cy="855.6484" fill="#E2E2F0" rx="12" ry="12" style="stroke:#181818;stroke-width:0.5;"/>
    <line style="stroke:#181818;stroke-width:0.5;" x1="1933.106" x2="1957.106" y1="869.6484" y2="869.6484"/>
    <text fill="#000000" font-family="sans-serif" font-size="14" lengthAdjust="spacing" textLength="92.7363" x="2228.2881" y="151.7217">Central Store</text>
    <path d="M2259.6563,102.7266 C2259.6563,92.7266 2277.6563,92.7266 2277.6563,92.7266 C2277.6563,92.7266 2295.6563,92.7266 2295.6563,102.7266 L2295.6563,128.7266 C2295.6563,138.7266 2277.6563,138.7266 2277.6563,138.7266 C2277.6563,138.7266 2259.6563,138.7266 2259.6563,128.7266 L2259.6563,102.7266 " fill="#E2E2F0" style="stroke:#181818;stroke-width:1.5;"/>
    <path d="M2259.6563,102.7266 C2259.6563,112.7266 2277.6563,112.7266 2277.6563,112.7266 C2277.6563,112.7266 2295.6563,112.7266 2295.6563,102.7266 " fill="none" style="stroke:#181818;stroke-width:1.5;"/>
    <text fill="#000000" font-family="sans-serif" font-size="14" lengthAdjust="spacing" textLength="92.7363" x="2228.2881" y="836.3467">Central Store</text>
    <path d="M2259.6563,849.6484 C2259.6563,839.6484 2277.6563,839.6484 2277.6563,839.6484 C2277.6563,839.6484 2295.6563,839.6484 2295.6563,849.6484 L2295.6563,875.6484 C2295.6563,885.6484 2277.6563,885.6484 2277.6563,885.6484 C2277.6563,885.6484 2259.6563,885.6484 2259.6563,875.6484 L2259.6563,849.6484 " fill="#E2E2F0" style="stroke:#181818;stroke-width:1.5;"/>
    <path d="M2259.6563,849.6484 C2259.6563,859.6484 2277.6563,859.6484 2277.6563,859.6484 C2277.6563,859.6484 2295.6563,859.6484 2295.6563,849.6484 " fill="none" style="stroke:#181818;stroke-width:1.5;"/>
    <rect fill="#FFFFFF" height="649.3281" style="stroke:#181818;stroke-width:1.0;" width="10" x="844.002" y="165.0234"/>
    <rect fill="#FFFFFF" height="30" style="stroke:#181818;stroke-width:1.0;" width="10" x="1350.4546" y="245.4219"/>
    <rect fill="#FFFFFF" height="195.4688" style="stroke:#181818;stroke-width:1.0;" width="10" x="1500.8232" y="352.8203"/>
    <rect fill="#FFFFFF" height="178.7969" style="stroke:#181818;stroke-width:1.0;" width="10" x="1500.8232" y="584.4219"/>
    <rect fill="#FFFFFF" height="137.2031" style="stroke:#181818;stroke-width:1.0;" width="10" x="1709.9834" y="381.9531"/>
    <rect fill="#FFFFFF" height="120.5313" style="stroke:#181818;stroke-width:1.0;" width="10" x="1940.106" y="613.5547"/>
    <rect fill="#FFFFFF" height="172.6641" style="stroke:#181818;stroke-width:1.0;" width="10" x="2272.6563" y="642.6875"/>
    <path d="M9,172.0234 L284.8579,172.0234 L284.8579,179.1563 L274.8579,189.1563 L9,189.1563 L9,172.0234 " fill="#EEEEEE" style="stroke:#000000;stroke-width:1.5;"/>
    <rect fill="none" height="635.3281" style="stroke:#000000;stroke-width:1.5;" width="2351.4194" x="9" y="172.0234"/>
    <text fill="#000000" font-family="sans-serif" font-size="13" font-weight="bold" lengthAdjust="spacing" textLength="230.8579" x="24" y="185.0903">Send notification to Participant</text>
    <path d="M19,194.1563 L19,219.1563 L277,219.1563 L277,204.1563 L267,194.1563 L19,194.1563 " fill="#FFA07A" style="stroke:#181818;stroke-width:0.5;"/>
    <path d="M267,194.1563 L267,204.1563 L277,204.1563 L267,194.1563 " fill="#FFA07A" style="stroke:#181818;stroke-width:0.5;"/>
    <text fill="#000000" font-family="sans-serif" font-size="13" lengthAdjust="spacing" textLength="237.1421" x="25" y="211.2231">This flow has not been implemented</text>
    <polygon fill="#181818" points="1338.4546,241.4219,1348.4546,245.4219,1338.4546,249.4219,1342.4546,245.4219" style="stroke:#181818;stroke-width:1.0;"/>
    <line style="stroke:#181818;stroke-width:1.0;" x1="854.002" x2="1344.4546" y1="245.4219" y2="245.4219"/>
    <text fill="#000000" font-family="sans-serif" font-size="13" font-weight="bold" lengthAdjust="spacing" textLength="9.0454" x="861.002" y="240.356">1</text>
    <text fill="#FF0000" font-family="sans-serif" font-size="13" font-weight="bold" lengthAdjust="spacing" textLength="464.4072" x="874.0474" y="240.356">Consume Notifications event batch of messages for Participant</text>
    <path d="M97.9338,290.4219 L174.5579,290.4219 L174.5579,297.5547 L164.5579,307.5547 L97.9338,307.5547 L97.9338,290.4219 " fill="#EEEEEE" style="stroke:#000000;stroke-width:1.5;"/>
    <rect fill="none" height="509.9297" style="stroke:#000000;stroke-width:1.5;" width="2252.4856" x="97.9338" y="290.4219"/>
    <text fill="#000000" font-family="sans-serif" font-size="13" font-weight="bold" lengthAdjust="spacing" textLength="31.624" x="112.9338" y="303.4888">loop</text>
    <text fill="#000000" font-family="sans-serif" font-size="11" font-weight="bold" lengthAdjust="spacing" textLength="173.6582" x="189.5579" y="302.6323">[for each message in batch]</text>
    <path d="M718.3076,314.5547 L951.1665,314.5547 L951.1665,321.6875 L941.1665,331.6875 L718.3076,331.6875 L718.3076,314.5547 " fill="#EEEEEE" style="stroke:#000000;stroke-width:1.5;"/>
    <rect fill="none" height="241.7344" style="stroke:#000000;stroke-width:1.5;" width="1103.813" x="718.3076" y="314.5547"/>
    <text fill="#000000" font-family="sans-serif" font-size="13" font-weight="bold" lengthAdjust="spacing" textLength="187.8589" x="733.3076" y="327.6216">Persist Event Information</text>
    <polygon fill="#181818" points="1488.8232,348.8203,1498.8232,352.8203,1488.8232,356.8203,1492.8232,352.8203" style="stroke:#181818;stroke-width:1.0;"/>
    <line style="stroke:#181818;stroke-width:1.0;" x1="854.002" x2="1494.8232" y1="352.8203" y2="352.8203"/>
    <text fill="#000000" font-family="sans-serif" font-size="13" font-weight="bold" lengthAdjust="spacing" textLength="9.0454" x="861.002" y="347.7544">2</text>
    <text fill="#000000" font-family="sans-serif" font-size="13" lengthAdjust="spacing" textLength="347.458" x="874.0474" y="347.7544">Request to persist event information - POST - /events</text>
    <polygon fill="#181818" points="1697.9834,377.9531,1707.9834,381.9531,1697.9834,385.9531,1701.9834,381.9531" style="stroke:#181818;stroke-width:1.0;"/>
    <line style="stroke:#181818;stroke-width:1.0;" x1="1510.8232" x2="1703.9834" y1="381.9531" y2="381.9531"/>
    <text fill="#000000" font-family="sans-serif" font-size="13" font-weight="bold" lengthAdjust="spacing" textLength="9.0454" x="1517.8232" y="376.8872">3</text>
    <text fill="#000000" font-family="sans-serif" font-size="13" lengthAdjust="spacing" textLength="167.1147" x="1530.8687" y="376.8872">Publish event information</text>
    <rect fill="none" height="53.0703" style="stroke:#000000;stroke-width:1.5;" width="153.5117" x="1661.6089" y="414.9531"/>
    <path d="M1661.6089,414.9531 L1726.6089,414.9531 L1726.6089,421.9531 L1716.6089,431.9531 L1661.6089,431.9531 L1661.6089,414.9531 " fill="#EEEEEE" style="stroke:#000000;stroke-width:2.0;"/>
    <text fill="#000000" font-family="sans-serif" font-size="13" font-weight="bold" lengthAdjust="spacing" textLength="20.8838" x="1674.6089" y="429.02">ref</text>
    <text fill="#000000" font-family="sans-serif" font-size="12" lengthAdjust="spacing" textLength="145.5117" x="1665.6089" y="447.0918">Event Handler Consume</text>
    <text fill="#000000" font-family="sans-serif" font-size="12" lengthAdjust="spacing" textLength="3.8145" x="1736.4575" y="461.0605"> </text>
    <polygon fill="#181818" points="1521.8232,515.1563,1511.8232,519.1563,1521.8232,523.1563,1517.8232,519.1563" style="stroke:#181818;stroke-width:1.0;"/>
    <line style="stroke:#181818;stroke-width:1.0;stroke-dasharray:2.0,2.0;" x1="1515.8232" x2="1713.9834" y1="519.1563" y2="519.1563"/>
    <text fill="#000000" font-family="sans-serif" font-size="13" font-weight="bold" lengthAdjust="spacing" textLength="9.0454" x="1527.8232" y="514.0903">4</text>
    <text fill="#000000" font-family="sans-serif" font-size="13" lengthAdjust="spacing" textLength="98.9346" x="1540.8687" y="514.0903">Return success</text>
    <polygon fill="#181818" points="865.002,544.2891,855.002,548.2891,865.002,552.2891,861.002,548.2891" style="stroke:#181818;stroke-width:1.0;"/>
    <line style="stroke:#181818;stroke-width:1.0;stroke-dasharray:2.0,2.0;" x1="859.002" x2="1504.8232" y1="548.2891" y2="548.2891"/>
    <text fill="#000000" font-family="sans-serif" font-size="13" font-weight="bold" lengthAdjust="spacing" textLength="9.0454" x="871.002" y="543.2231">5</text>
    <text fill="#000000" font-family="sans-serif" font-size="13" lengthAdjust="spacing" textLength="98.9346" x="884.0474" y="543.2231">Return success</text>
    <polygon fill="#181818" points="1488.8232,580.4219,1498.8232,584.4219,1488.8232,588.4219,1492.8232,584.4219" style="stroke:#181818;stroke-width:1.0;"/>
    <line style="stroke:#181818;stroke-width:1.0;" x1="854.002" x2="1494.8232" y1="584.4219" y2="584.4219"/>
    <text fill="#000000" font-family="sans-serif" font-size="13" font-weight="bold" lengthAdjust="spacing" textLength="9.0454" x="861.002" y="579.356">6</text>
    <text fill="#000000" font-family="sans-serif" font-size="13" lengthAdjust="spacing" textLength="475.3823" x="874.0474" y="579.356">Request Notifications details for Participant - GET - /notifications/DFPS(n)</text>
    <polygon fill="#181818" points="1928.106,609.5547,1938.106,613.5547,1928.106,617.5547,1932.106,613.5547" style="stroke:#181818;stroke-width:1.0;"/>
    <line style="stroke:#181818;stroke-width:1.0;" x1="1510.8232" x2="1934.106" y1="613.5547" y2="613.5547"/>
    <text fill="#000000" font-family="sans-serif" font-size="13" font-weight="bold" lengthAdjust="spacing" textLength="9.0454" x="1517.8232" y="608.4888">7</text>
    <text fill="#000000" font-family="sans-serif" font-size="13" lengthAdjust="spacing" textLength="265.2114" x="1530.8687" y="608.4888">Fetch Notifications details for Participant</text>
    <polygon fill="#181818" points="2260.6563,638.6875,2270.6563,642.6875,2260.6563,646.6875,2264.6563,642.6875" style="stroke:#181818;stroke-width:1.0;"/>
    <line style="stroke:#181818;stroke-width:1.0;" x1="1950.106" x2="2266.6563" y1="642.6875" y2="642.6875"/>
    <text fill="#000000" font-family="sans-serif" font-size="13" font-weight="bold" lengthAdjust="spacing" textLength="9.0454" x="1957.106" y="637.6216">8</text>
    <text fill="#000000" font-family="sans-serif" font-size="13" lengthAdjust="spacing" textLength="265.2114" x="1970.1514" y="637.6216">Fetch Notifications details for Participant</text>
    <polygon fill="#FFFFE0" points="2224,655.6875,2330,655.6875,2340,666.6875,2330,678.6875,2224,678.6875,2214,666.6875,2224,655.6875" style="stroke:#181818;stroke-width:0.5;"/>
    <text fill="#000000" font-family="sans-serif" font-size="13" lengthAdjust="spacing" textLength="102.4194" x="2226" y="671.7544">transferPosition</text>
    <polygon fill="#181818" points="1961.106,700.9531,1951.106,704.9531,1961.106,708.9531,1957.106,704.9531" style="stroke:#181818;stroke-width:1.0;"/>
    <line style="stroke:#181818;stroke-width:1.0;stroke-dasharray:2.0,2.0;" x1="1955.106" x2="2271.6563" y1="704.9531" y2="704.9531"/>
    <text fill="#000000" font-family="sans-serif" font-size="13" font-weight="bold" lengthAdjust="spacing" textLength="9.0454" x="1967.106" y="699.8872">9</text>
    <text fill="#000000" font-family="sans-serif" font-size="13" lengthAdjust="spacing" textLength="285.5049" x="1980.1514" y="699.8872">Retrieved Notification details for Participant</text>
    <polygon fill="#181818" points="1521.8232,730.0859,1511.8232,734.0859,1521.8232,738.0859,1517.8232,734.0859" style="stroke:#181818;stroke-width:1.0;"/>
    <line style="stroke:#181818;stroke-width:1.0;stroke-dasharray:2.0,2.0;" x1="1515.8232" x2="1944.106" y1="734.0859" y2="734.0859"/>
    <text fill="#000000" font-family="sans-serif" font-size="13" font-weight="bold" lengthAdjust="spacing" textLength="18.0908" x="1527.8232" y="729.02">10</text>
    <text fill="#000000" font-family="sans-serif" font-size="13" lengthAdjust="spacing" textLength="273.2031" x="1549.9141" y="729.02">Return Notifications details for Participant</text>
    <polygon fill="#181818" points="865.002,759.2188,855.002,763.2188,865.002,767.2188,861.002,763.2188" style="stroke:#181818;stroke-width:1.0;"/>
    <line style="stroke:#181818;stroke-width:1.0;stroke-dasharray:2.0,2.0;" x1="859.002" x2="1504.8232" y1="763.2188" y2="763.2188"/>
    <text fill="#000000" font-family="sans-serif" font-size="13" font-weight="bold" lengthAdjust="spacing" textLength="18.0908" x="871.002" y="758.1528">11</text>
    <text fill="#000000" font-family="sans-serif" font-size="13" lengthAdjust="spacing" textLength="273.2031" x="893.0928" y="758.1528">Return Notifications details for Participant</text>
    <polygon fill="#181818" points="159.7195,788.3516,149.7195,792.3516,159.7195,796.3516,155.7195,792.3516" style="stroke:#181818;stroke-width:1.0;"/>
    <line style="stroke:#181818;stroke-width:1.0;stroke-dasharray:2.0,2.0;" x1="153.7195" x2="843.002" y1="792.3516" y2="792.3516"/>
    <text fill="#000000" font-family="sans-serif" font-size="13" font-weight="bold" lengthAdjust="spacing" textLength="18.0908" x="165.7195" y="787.2856">12</text>
    <text fill="#000000" font-family="sans-serif" font-size="13" lengthAdjust="spacing" textLength="595.2578" x="187.8103" y="787.2856">Callback with Prepare result to Participant to specified URL - PUT - /&lt;dfsp-host&gt;&gt;/transfers</text>
  </g>
</svg>
