<svg xmlns="http://www.w3.org/2000/svg" xmlns:xlink="http://www.w3.org/1999/xlink" contentStyleType="text/css" height="1065px" preserveAspectRatio="none" style="width:1126px;height:1065px;background:#FFFFFF;" version="1.1" viewBox="0 0 1126 1065" width="1126px" zoomAndPan="magnify">
  <title>9.1.1. Request Duplicate Check (incl. Transfers, Quotes, Bulk Transfers, Bulk Quotes)</title>
  <defs/>
  <g>
    <text fill="#000000" font-family="sans-serif" font-size="14" font-weight="bold" lengthAdjust="spacing" textLength="674.6797" x="227.4734" y="27.9951">9.1.1. Request Duplicate Check (incl. Transfers, Quotes, Bulk Transfers, Bulk Quotes)</text>
    <rect fill="#FFFFE0" height="1011.8438" style="stroke:#181818;stroke-width:0.5;" width="1041.1382" x="16" y="43.2969"/>
    <text fill="#000000" font-family="sans-serif" font-size="13" font-weight="bold" lengthAdjust="spacing" textLength="112.0361" x="480.551" y="55.3638">Central Service</text>
    <rect fill="#FFFFFF" height="30" style="stroke:#181818;stroke-width:1.0;" width="10" x="67.1895" y="182.2891"/>
    <rect fill="#FFFFFF" height="841.5234" style="stroke:#181818;stroke-width:1.0;" width="10" x="232.7349" y="137.0234"/>
    <rect fill="#FFFFFF" height="201.0625" style="stroke:#181818;stroke-width:1.0;" width="10" x="747.5269" y="322.8203"/>
    <rect fill="#FFFFFF" height="121.3984" style="stroke:#181818;stroke-width:1.0;" width="10" x="747.5269" y="746.6172"/>
    <rect fill="#FFFFFF" height="62.2656" style="stroke:#181818;stroke-width:1.0;" width="10" x="998.77" y="432.4844"/>
    <rect fill="#FFFFFF" height="30" style="stroke:#181818;stroke-width:1.0;" width="10" x="998.77" y="775.75"/>
    <rect fill="none" height="826.5234" style="stroke:#000000;stroke-width:1.5;" width="1110.6265" x="10" y="144.0234"/>
    <rect fill="none" height="262.4609" style="stroke:#000000;stroke-width:1.5;" width="913.5474" x="187.0791" y="269.4219"/>
    <rect fill="none" height="337.1328" style="stroke:#000000;stroke-width:1.5;" width="933.5474" x="177.0791" y="545.8828"/>
    <rect fill="none" height="94.3984" style="stroke:#000000;stroke-width:1.5;" width="394.8784" x="187.0791" y="570.0156"/>
    <rect fill="none" height="182.7969" style="stroke:#000000;stroke-width:1.5;" width="913.5474" x="187.0791" y="693.2188"/>
    <line style="stroke:#181818;stroke-width:0.5;stroke-dasharray:5.0,5.0;" x1="72" x2="72" y1="127.0234" y2="987.5469"/>
    <line style="stroke:#181818;stroke-width:0.5;stroke-dasharray:5.0,5.0;" x1="237.0791" x2="237.0791" y1="127.0234" y2="987.5469"/>
    <line style="stroke:#181818;stroke-width:0.5;stroke-dasharray:5.0,5.0;" x1="500.9907" x2="500.9907" y1="127.0234" y2="987.5469"/>
    <line style="stroke:#181818;stroke-width:0.5;stroke-dasharray:5.0,5.0;" x1="626.4448" x2="626.4448" y1="127.0234" y2="987.5469"/>
    <line style="stroke:#181818;stroke-width:0.5;stroke-dasharray:5.0,5.0;" x1="751.8647" x2="751.8647" y1="127.0234" y2="987.5469"/>
    <line style="stroke:#181818;stroke-width:0.5;stroke-dasharray:5.0,5.0;" x1="1003.4019" x2="1003.4019" y1="127.0234" y2="987.5469"/>
    <rect fill="#E2E2F0" height="30.2969" style="stroke:#181818;stroke-width:0.5;" width="100.3789" x="24" y="91.7266"/>
    <rect fill="#E2E2F0" height="30.2969" style="stroke:#181818;stroke-width:0.5;" width="100.3789" x="20" y="95.7266"/>
    <text fill="#000000" font-family="sans-serif" font-size="14" lengthAdjust="spacing" textLength="86.3789" x="27" y="115.7217">topic-source</text>
    <rect fill="#E2E2F0" height="30.2969" style="stroke:#181818;stroke-width:0.5;" width="100.3789" x="24" y="986.5469"/>
    <rect fill="#E2E2F0" height="30.2969" style="stroke:#181818;stroke-width:0.5;" width="100.3789" x="20" y="990.5469"/>
    <text fill="#000000" font-family="sans-serif" font-size="14" lengthAdjust="spacing" textLength="86.3789" x="27" y="1010.542">topic-source</text>
    <text fill="#000000" font-family="sans-serif" font-size="14" lengthAdjust="spacing" textLength="75.3115" x="197.0791" y="107.4248">Processing</text>
    <text fill="#000000" font-family="sans-serif" font-size="14" lengthAdjust="spacing" textLength="55.125" x="207.1724" y="123.7217">Handler</text>
    <ellipse cx="237.7349" cy="78.4297" fill="#E2E2F0" rx="12" ry="12" style="stroke:#181818;stroke-width:0.5;"/>
    <polygon fill="#181818" points="233.7349,66.4297,239.7349,61.4297,237.7349,66.4297,239.7349,71.4297,233.7349,66.4297" style="stroke:#181818;stroke-width:1.0;"/>
    <text fill="#000000" font-family="sans-serif" font-size="14" lengthAdjust="spacing" textLength="75.3115" x="197.0791" y="999.542">Processing</text>
    <text fill="#000000" font-family="sans-serif" font-size="14" lengthAdjust="spacing" textLength="55.125" x="207.1724" y="1015.8389">Handler</text>
    <ellipse cx="237.7349" cy="1035.1406" fill="#E2E2F0" rx="12" ry="12" style="stroke:#181818;stroke-width:0.5;"/>
    <polygon fill="#181818" points="233.7349,1023.1406,239.7349,1018.1406,237.7349,1023.1406,239.7349,1028.1406,233.7349,1023.1406" style="stroke:#181818;stroke-width:1.0;"/>
    <rect fill="#E2E2F0" height="30.2969" style="stroke:#181818;stroke-width:0.5;" width="93.4541" x="456.9907" y="91.7266"/>
    <rect fill="#E2E2F0" height="30.2969" style="stroke:#181818;stroke-width:0.5;" width="93.4541" x="452.9907" y="95.7266"/>
    <text fill="#000000" font-family="sans-serif" font-size="14" lengthAdjust="spacing" textLength="79.4541" x="459.9907" y="115.7217">topic-event</text>
    <rect fill="#E2E2F0" height="30.2969" style="stroke:#181818;stroke-width:0.5;" width="93.4541" x="456.9907" y="986.5469"/>
    <rect fill="#E2E2F0" height="30.2969" style="stroke:#181818;stroke-width:0.5;" width="93.4541" x="452.9907" y="990.5469"/>
    <text fill="#000000" font-family="sans-serif" font-size="14" lengthAdjust="spacing" textLength="79.4541" x="459.9907" y="1010.542">topic-event</text>
    <rect fill="#E2E2F0" height="30.2969" style="stroke:#181818;stroke-width:0.5;" width="128.4199" x="564.4448" y="91.7266"/>
    <rect fill="#E2E2F0" height="30.2969" style="stroke:#181818;stroke-width:0.5;" width="128.4199" x="560.4448" y="95.7266"/>
    <text fill="#000000" font-family="sans-serif" font-size="14" lengthAdjust="spacing" textLength="114.4199" x="567.4448" y="115.7217">topic-notifcation</text>
    <rect fill="#E2E2F0" height="30.2969" style="stroke:#181818;stroke-width:0.5;" width="128.4199" x="564.4448" y="986.5469"/>
    <rect fill="#E2E2F0" height="30.2969" style="stroke:#181818;stroke-width:0.5;" width="128.4199" x="560.4448" y="990.5469"/>
    <text fill="#000000" font-family="sans-serif" font-size="14" lengthAdjust="spacing" textLength="114.4199" x="567.4448" y="1010.542">topic-notifcation</text>
    <text fill="#000000" font-family="sans-serif" font-size="14" lengthAdjust="spacing" textLength="93.3242" x="702.8647" y="123.7217">Request DAO</text>
    <ellipse cx="752.5269" cy="94.7266" fill="#E2E2F0" rx="12" ry="12" style="stroke:#181818;stroke-width:0.5;"/>
    <line style="stroke:#181818;stroke-width:0.5;" x1="740.5269" x2="764.5269" y1="108.7266" y2="108.7266"/>
    <text fill="#000000" font-family="sans-serif" font-size="14" lengthAdjust="spacing" textLength="93.3242" x="702.8647" y="999.542">Request DAO</text>
    <ellipse cx="752.5269" cy="1018.8438" fill="#E2E2F0" rx="12" ry="12" style="stroke:#181818;stroke-width:0.5;"/>
    <line style="stroke:#181818;stroke-width:0.5;" x1="740.5269" x2="764.5269" y1="1032.8438" y2="1032.8438"/>
    <text fill="#000000" font-family="sans-serif" font-size="14" lengthAdjust="spacing" textLength="92.7363" x="954.4019" y="123.7217">Central Store</text>
    <path d="M985.77,74.7266 C985.77,64.7266 1003.77,64.7266 1003.77,64.7266 C1003.77,64.7266 1021.77,64.7266 1021.77,74.7266 L1021.77,100.7266 C1021.77,110.7266 1003.77,110.7266 1003.77,110.7266 C1003.77,110.7266 985.77,110.7266 985.77,100.7266 L985.77,74.7266 " fill="#E2E2F0" style="stroke:#181818;stroke-width:1.5;"/>
    <path d="M985.77,74.7266 C985.77,84.7266 1003.77,84.7266 1003.77,84.7266 C1003.77,84.7266 1021.77,84.7266 1021.77,74.7266 " fill="none" style="stroke:#181818;stroke-width:1.5;"/>
    <text fill="#000000" font-family="sans-serif" font-size="14" lengthAdjust="spacing" textLength="92.7363" x="954.4019" y="999.542">Central Store</text>
    <path d="M985.77,1012.8438 C985.77,1002.8438 1003.77,1002.8438 1003.77,1002.8438 C1003.77,1002.8438 1021.77,1002.8438 1021.77,1012.8438 L1021.77,1038.8438 C1021.77,1048.8438 1003.77,1048.8438 1003.77,1048.8438 C1003.77,1048.8438 985.77,1048.8438 985.77,1038.8438 L985.77,1012.8438 " fill="#E2E2F0" style="stroke:#181818;stroke-width:1.5;"/>
    <path d="M985.77,1012.8438 C985.77,1022.8438 1003.77,1022.8438 1003.77,1022.8438 C1003.77,1022.8438 1021.77,1022.8438 1021.77,1012.8438 " fill="none" style="stroke:#181818;stroke-width:1.5;"/>
    <rect fill="#FFFFFF" height="30" style="stroke:#181818;stroke-width:1.0;" width="10" x="67.1895" y="182.2891"/>
    <rect fill="#FFFFFF" height="841.5234" style="stroke:#181818;stroke-width:1.0;" width="10" x="232.7349" y="137.0234"/>
    <rect fill="#FFFFFF" height="201.0625" style="stroke:#181818;stroke-width:1.0;" width="10" x="747.5269" y="322.8203"/>
    <rect fill="#FFFFFF" height="121.3984" style="stroke:#181818;stroke-width:1.0;" width="10" x="747.5269" y="746.6172"/>
    <rect fill="#FFFFFF" height="62.2656" style="stroke:#181818;stroke-width:1.0;" width="10" x="998.77" y="432.4844"/>
    <rect fill="#FFFFFF" height="30" style="stroke:#181818;stroke-width:1.0;" width="10" x="998.77" y="775.75"/>
    <path d="M10,144.0234 L237.9458,144.0234 L237.9458,151.1563 L227.9458,161.1563 L10,161.1563 L10,144.0234 " fill="#EEEEEE" style="stroke:#000000;stroke-width:1.5;"/>
    <rect fill="none" height="826.5234" style="stroke:#000000;stroke-width:1.5;" width="1110.6265" x="10" y="144.0234"/>
    <text fill="#000000" font-family="sans-serif" font-size="13" font-weight="bold" lengthAdjust="spacing" textLength="182.9458" x="25" y="157.0903">Request Duplicate Check</text>
    <polygon fill="#181818" points="88.1895,178.2891,78.1895,182.2891,88.1895,186.2891,84.1895,182.2891" style="stroke:#181818;stroke-width:1.0;"/>
    <line style="stroke:#181818;stroke-width:1.0;" x1="82.1895" x2="231.7349" y1="182.2891" y2="182.2891"/>
    <text fill="#000000" font-family="sans-serif" font-size="13" font-weight="bold" lengthAdjust="spacing" textLength="9.0454" x="94.1895" y="177.2231">1</text>
    <text fill="#000000" font-family="sans-serif" font-size="13" lengthAdjust="spacing" textLength="123.5" x="107.2349" y="177.2231">Consume message</text>
    <line style="stroke:#181818;stroke-width:1.0;" x1="242.7349" x2="284.7349" y1="241.4219" y2="241.4219"/>
    <line style="stroke:#181818;stroke-width:1.0;" x1="284.7349" x2="284.7349" y1="241.4219" y2="254.4219"/>
    <line style="stroke:#181818;stroke-width:1.0;" x1="243.7349" x2="284.7349" y1="254.4219" y2="254.4219"/>
    <polygon fill="#181818" points="253.7349,250.4219,243.7349,254.4219,253.7349,258.4219,249.7349,254.4219" style="stroke:#181818;stroke-width:1.0;"/>
    <text fill="#000000" font-family="sans-serif" font-size="13" font-weight="bold" lengthAdjust="spacing" textLength="9.0454" x="249.7349" y="236.356">2</text>
    <text fill="#000000" font-family="sans-serif" font-size="13" lengthAdjust="spacing" textLength="100.4453" x="262.7803" y="236.356">Generate hash:</text>
    <text fill="#000000" font-family="sans-serif" font-size="13" font-weight="bold" lengthAdjust="spacing" textLength="112.3599" x="367.3579" y="236.356">generatedHash</text>
    <path d="M187.0791,269.4219 L429.7324,269.4219 L429.7324,276.5547 L419.7324,286.5547 L187.0791,286.5547 L187.0791,269.4219 " fill="#EEEEEE" style="stroke:#000000;stroke-width:1.5;"/>
    <rect fill="none" height="262.4609" style="stroke:#000000;stroke-width:1.5;" width="913.5474" x="187.0791" y="269.4219"/>
    <text fill="#000000" font-family="sans-serif" font-size="13" font-weight="bold" lengthAdjust="spacing" textLength="197.6533" x="202.0791" y="282.4888">UUID Check (compareById)</text>
    <polygon fill="#181818" points="735.5269,318.8203,745.5269,322.8203,735.5269,326.8203,739.5269,322.8203" style="stroke:#181818;stroke-width:1.0;"/>
    <line style="stroke:#181818;stroke-width:1.0;" x1="242.7349" x2="741.5269" y1="322.8203" y2="322.8203"/>
    <text fill="#000000" font-family="sans-serif" font-size="13" font-weight="bold" lengthAdjust="spacing" textLength="9.0454" x="249.7349" y="310.188">3</text>
    <text fill="#000000" font-family="sans-serif" font-size="13" lengthAdjust="spacing" textLength="342.145" x="262.7803" y="302.6216">Query hash using getDuplicateDataFuncOverride(id)</text>
    <text fill="#FF0000" font-family="sans-serif" font-size="13" font-weight="bold" lengthAdjust="spacing" textLength="81.5293" x="262.7803" y="317.7544">Error code:</text>
    <text fill="#FF0000" font-family="sans-serif" font-size="13" lengthAdjust="spacing" textLength="33.084" x="348.4419" y="317.7544">2003</text>
    <path d="M762,335.8203 L762,405.8203 L1010,405.8203 L1010,345.8203 L1000,335.8203 L762,335.8203 " fill="#D3D3D3" style="stroke:#181818;stroke-width:0.5;"/>
    <path d="M1000,335.8203 L1000,345.8203 L1010,345.8203 L1000,335.8203 " fill="#D3D3D3" style="stroke:#181818;stroke-width:0.5;"/>
    <text fill="#000000" font-family="sans-serif" font-size="13" font-style="italic" lengthAdjust="spacing" textLength="49.7021" x="768" y="352.8872">request</text>
    <text fill="#000000" font-family="sans-serif" font-size="13" lengthAdjust="spacing" textLength="173.748" x="821.8345" y="352.8872">keyword to be replaced by</text>
    <text fill="#000000" font-family="sans-serif" font-size="13" font-weight="bold" lengthAdjust="spacing" textLength="59.2744" x="768" y="368.02">transfer</text>
    <text fill="#000000" font-family="sans-serif" font-size="13" lengthAdjust="spacing" textLength="4.1323" x="827.2744" y="368.02">,</text>
    <text fill="#000000" font-family="sans-serif" font-size="13" font-weight="bold" lengthAdjust="spacing" textLength="134.2656" x="835.5391" y="368.02">transferFulfilment</text>
    <text fill="#000000" font-family="sans-serif" font-size="13" lengthAdjust="spacing" textLength="4.1323" x="969.8047" y="368.02">,</text>
    <text fill="#000000" font-family="sans-serif" font-size="13" font-weight="bold" lengthAdjust="spacing" textLength="93.5898" x="768" y="383.1528">bulkTransfer</text>
    <text fill="#000000" font-family="sans-serif" font-size="13" lengthAdjust="spacing" textLength="125.29" x="865.7222" y="383.1528">or other depending</text>
    <text fill="#000000" font-family="sans-serif" font-size="13" lengthAdjust="spacing" textLength="99.9883" x="768" y="398.2856">on the override</text>
    <polygon fill="#181818" points="986.77,428.4844,996.77,432.4844,986.77,436.4844,990.77,432.4844" style="stroke:#181818;stroke-width:1.0;"/>
    <line style="stroke:#181818;stroke-width:1.0;" x1="757.5269" x2="992.77" y1="432.4844" y2="432.4844"/>
    <text fill="#000000" font-family="sans-serif" font-size="13" font-weight="bold" lengthAdjust="spacing" textLength="9.0454" x="764.5269" y="427.4185">4</text>
    <text fill="#000000" font-family="sans-serif" font-size="13" lengthAdjust="spacing" textLength="201.8999" x="777.5723" y="427.4185">getDuplicateDataFuncOverride</text>
    <polygon fill="#FFFFE0" points="925,445.4844,1080,445.4844,1090,456.4844,1080,468.4844,925,468.4844,915,456.4844,925,445.4844" style="stroke:#181818;stroke-width:0.5;"/>
    <text fill="#000000" font-family="sans-serif" font-size="13" font-style="italic" lengthAdjust="spacing" textLength="49.7021" x="927" y="461.5513">request</text>
    <text fill="#000000" font-family="sans-serif" font-size="13" lengthAdjust="spacing" textLength="101.9243" x="976.7021" y="461.5513">DuplicateCheck</text>
    <polygon fill="#181818" points="768.5269,490.75,758.5269,494.75,768.5269,498.75,764.5269,494.75" style="stroke:#181818;stroke-width:1.0;"/>
    <line style="stroke:#181818;stroke-width:1.0;stroke-dasharray:2.0,2.0;" x1="762.5269" x2="1002.77" y1="494.75" y2="494.75"/>
    <text fill="#000000" font-family="sans-serif" font-size="13" font-weight="bold" lengthAdjust="spacing" textLength="9.0454" x="774.5269" y="489.6841">5</text>
    <text fill="#000000" font-family="sans-serif" font-size="13" lengthAdjust="spacing" textLength="43.9512" x="787.5723" y="489.6841">Return</text>
    <text fill="#000000" font-family="sans-serif" font-size="13" font-weight="bold" lengthAdjust="spacing" textLength="156.1143" x="835.6558" y="489.6841">duplicateHashRecord</text>
    <polygon fill="#181818" points="253.7349,519.8828,243.7349,523.8828,253.7349,527.8828,249.7349,523.8828" style="stroke:#181818;stroke-width:1.0;"/>
    <line style="stroke:#181818;stroke-width:1.0;stroke-dasharray:2.0,2.0;" x1="247.7349" x2="751.5269" y1="523.8828" y2="523.8828"/>
    <text fill="#000000" font-family="sans-serif" font-size="13" font-weight="bold" lengthAdjust="spacing" textLength="9.0454" x="259.7349" y="518.8169">6</text>
    <text fill="#000000" font-family="sans-serif" font-size="13" lengthAdjust="spacing" textLength="43.9512" x="272.7803" y="518.8169">Return</text>
    <text fill="#000000" font-family="sans-serif" font-size="13" font-weight="bold" lengthAdjust="spacing" textLength="109.6812" x="320.8638" y="518.8169">hasDuplicateId</text>
    <path d="M177.0791,545.8828 L241.522,545.8828 L241.522,553.0156 L231.522,563.0156 L177.0791,563.0156 L177.0791,545.8828 " fill="#EEEEEE" style="stroke:#000000;stroke-width:1.5;"/>
    <rect fill="none" height="337.1328" style="stroke:#000000;stroke-width:1.5;" width="933.5474" x="177.0791" y="545.8828"/>
    <text fill="#000000" font-family="sans-serif" font-size="13" font-weight="bold" lengthAdjust="spacing" textLength="19.4429" x="192.0791" y="558.9497">alt</text>
    <text fill="#000000" font-family="sans-serif" font-size="11" font-weight="bold" lengthAdjust="spacing" textLength="161.3745" x="256.522" y="558.0933">[hasDuplicateId == TRUE]</text>
    <path d="M187.0791,570.0156 L452.1396,570.0156 L452.1396,577.1484 L442.1396,587.1484 L187.0791,587.1484 L187.0791,570.0156 " fill="#EEEEEE" style="stroke:#000000;stroke-width:1.5;"/>
    <rect fill="none" height="94.3984" style="stroke:#000000;stroke-width:1.5;" width="394.8784" x="187.0791" y="570.0156"/>
    <text fill="#000000" font-family="sans-serif" font-size="13" font-weight="bold" lengthAdjust="spacing" textLength="220.0605" x="202.0791" y="583.0825">Hash Check (compareByHash)</text>
    <path d="M247,592.1484 L247,617.1484 L571,617.1484 L571,602.1484 L561,592.1484 L247,592.1484 " fill="#D3D3D3" style="stroke:#181818;stroke-width:0.5;"/>
    <path d="M561,592.1484 L561,602.1484 L571,602.1484 L561,592.1484 " fill="#D3D3D3" style="stroke:#181818;stroke-width:0.5;"/>
    <text fill="#000000" font-family="sans-serif" font-size="13" lengthAdjust="spacing" textLength="303.9575" x="253" y="609.2153">generatedHash == duplicateHashRecord.hash</text>
    <line style="stroke:#181818;stroke-width:1.0;" x1="242.7349" x2="284.7349" y1="643.4141" y2="643.4141"/>
    <line style="stroke:#181818;stroke-width:1.0;" x1="284.7349" x2="284.7349" y1="643.4141" y2="656.4141"/>
    <line style="stroke:#181818;stroke-width:1.0;" x1="243.7349" x2="284.7349" y1="656.4141" y2="656.4141"/>
    <polygon fill="#181818" points="253.7349,652.4141,243.7349,656.4141,253.7349,660.4141,249.7349,656.4141" style="stroke:#181818;stroke-width:1.0;"/>
    <text fill="#000000" font-family="sans-serif" font-size="13" font-weight="bold" lengthAdjust="spacing" textLength="9.0454" x="249.7349" y="638.3481">7</text>
    <text fill="#000000" font-family="sans-serif" font-size="13" lengthAdjust="spacing" textLength="43.9512" x="262.7803" y="638.3481">Return</text>
    <text fill="#000000" font-family="sans-serif" font-size="13" font-weight="bold" lengthAdjust="spacing" textLength="132.1836" x="310.8638" y="638.3481">hasDuplicateHash</text>
    <line style="stroke:#000000;stroke-width:1.0;stroke-dasharray:2.0,2.0;" x1="177.0791" x2="1110.6265" y1="672.4141" y2="672.4141"/>
    <text fill="#000000" font-family="sans-serif" font-size="11" font-weight="bold" lengthAdjust="spacing" textLength="167.4277" x="182.0791" y="682.6245">[hasDuplicateId == FALSE]</text>
    <path d="M187.0791,693.2188 L381.6362,693.2188 L381.6362,700.3516 L371.6362,710.3516 L187.0791,710.3516 L187.0791,693.2188 " fill="#EEEEEE" style="stroke:#000000;stroke-width:1.5;"/>
    <rect fill="none" height="182.7969" style="stroke:#000000;stroke-width:1.5;" width="913.5474" x="187.0791" y="693.2188"/>
    <text fill="#000000" font-family="sans-serif" font-size="13" font-weight="bold" lengthAdjust="spacing" textLength="149.5571" x="202.0791" y="706.2856">Store Message Hash</text>
    <polygon fill="#181818" points="735.5269,742.6172,745.5269,746.6172,735.5269,750.6172,739.5269,746.6172" style="stroke:#181818;stroke-width:1.0;"/>
    <line style="stroke:#181818;stroke-width:1.0;" x1="242.7349" x2="741.5269" y1="746.6172" y2="746.6172"/>
    <text fill="#000000" font-family="sans-serif" font-size="13" font-weight="bold" lengthAdjust="spacing" textLength="9.0454" x="249.7349" y="733.9849">8</text>
    <text fill="#000000" font-family="sans-serif" font-size="13" lengthAdjust="spacing" textLength="403.1016" x="262.7803" y="726.4185">Persist hash using saveHashFuncOverride(id, generatedHash)</text>
    <text fill="#FF0000" font-family="sans-serif" font-size="13" font-weight="bold" lengthAdjust="spacing" textLength="81.5293" x="262.7803" y="741.5513">Error code:</text>
    <text fill="#FF0000" font-family="sans-serif" font-size="13" lengthAdjust="spacing" textLength="33.084" x="348.4419" y="741.5513">2003</text>
    <polygon fill="#181818" points="986.77,771.75,996.77,775.75,986.77,779.75,990.77,775.75" style="stroke:#181818;stroke-width:1.0;"/>
    <line style="stroke:#181818;stroke-width:1.0;" x1="757.5269" x2="992.77" y1="775.75" y2="775.75"/>
    <text fill="#000000" font-family="sans-serif" font-size="13" font-weight="bold" lengthAdjust="spacing" textLength="9.0454" x="764.5269" y="770.6841">9</text>
    <text fill="#000000" font-family="sans-serif" font-size="13" lengthAdjust="spacing" textLength="43.437" x="777.5723" y="770.6841">Persist</text>
    <text fill="#000000" font-family="sans-serif" font-size="13" font-weight="bold" lengthAdjust="spacing" textLength="112.3599" x="825.1416" y="770.6841">generatedHash</text>
    <polygon fill="#FFFFE0" points="925,818.75,1080,818.75,1090,829.75,1080,841.75,925,841.75,915,829.75,925,818.75" style="stroke:#181818;stroke-width:0.5;"/>
    <text fill="#000000" font-family="sans-serif" font-size="13" font-style="italic" lengthAdjust="spacing" textLength="49.7021" x="927" y="834.8169">request</text>
    <text fill="#000000" font-family="sans-serif" font-size="13" lengthAdjust="spacing" textLength="101.9243" x="976.7021" y="834.8169">DuplicateCheck</text>
    <polygon fill="#181818" points="253.7349,864.0156,243.7349,868.0156,253.7349,872.0156,249.7349,868.0156" style="stroke:#181818;stroke-width:1.0;"/>
    <line style="stroke:#181818;stroke-width:1.0;stroke-dasharray:2.0,2.0;" x1="247.7349" x2="751.5269" y1="868.0156" y2="868.0156"/>
    <text fill="#000000" font-family="sans-serif" font-size="13" font-weight="bold" lengthAdjust="spacing" textLength="18.0908" x="259.7349" y="862.9497">10</text>
    <text fill="#000000" font-family="sans-serif" font-size="13" lengthAdjust="spacing" textLength="98.9346" x="281.8257" y="862.9497">Return success</text>
    <path d="M247,895.0156 L247,965.0156 L463,965.0156 L463,905.0156 L453,895.0156 L247,895.0156 " fill="#FFFF00" style="stroke:#181818;stroke-width:0.5;"/>
    <path d="M453,895.0156 L453,905.0156 L463,905.0156 L453,895.0156 " fill="#FFFF00" style="stroke:#181818;stroke-width:0.5;"/>
    <text fill="#000000" font-family="sans-serif" font-size="13" lengthAdjust="spacing" textLength="52.6665" x="253" y="912.0825">return {</text>
    <text fill="#000000" font-family="sans-serif" font-size="13" lengthAdjust="spacing" textLength="162.2842" x="269.5293" y="927.2153">hasDuplicateId: Boolean,</text>
    <text fill="#000000" font-family="sans-serif" font-size="13" lengthAdjust="spacing" textLength="178.8198" x="269.5293" y="942.3481">hasDuplicateHash: Boolean</text>
    <text fill="#000000" font-family="sans-serif" font-size="13" lengthAdjust="spacing" textLength="8.271" x="253" y="957.481">}</text>
  </g>
</svg>
