<svg xmlns="http://www.w3.org/2000/svg" height="2159" preserveAspectRatio="none" style="width:2104px;height:2159px" width="2104">
  <defs>
    <filter height="300%" id="a" width="300%" x="-1" y="-1">
      <feGaussianBlur result="blurOut" stdDeviation="2"/>
      <feColorMatrix in="blurOut" result="blurOut2" values="0 0 0 0 0 0 0 0 0 0 0 0 0 0 0 0 0 0 .4 0"/>
      <feOffset dx="4" dy="4" in="blurOut2" result="blurOut3"/>
      <feBlend in="SourceGraphic" in2="blurOut3"/>
    </filter>
  </defs>
  <text font-family="sans-serif" font-size="18" lengthAdjust="spacingAndGlyphs" textLength="656" x="722.25" y="28.708">
    2.2.0.a. DFSP2 sends a PUT call on /error end-point for a Transfer request
  </text>
  <path fill="#D3D3D3" stroke="#a80036" d="M1 40.953h204v2112.875H1z"/>
  <text font-family="sans-serif" font-size="13" font-weight="bold" lengthAdjust="spacingAndGlyphs" textLength="198" x="4" y="53.02">
    Financial Service Providers
  </text>
  <path fill="#ADD8E6" stroke="#a80036" d="M428 40.953h500v2112.875H428z"/>
  <text font-family="sans-serif" font-size="13" font-weight="bold" lengthAdjust="spacingAndGlyphs" textLength="173" x="591.5" y="53.02">
    ML API Adapter Service
  </text>
  <path fill="#FFFFE0" stroke="#a80036" d="M930 40.953h1144.5v2112.875H930z"/>
  <text font-family="sans-serif" font-size="13" font-weight="bold" lengthAdjust="spacingAndGlyphs" textLength="111" x="1446.75" y="53.02">
    Central Service
  </text>
  <path fill="#FFF" filter="url(#a)" stroke="#a80036" d="M481 750.195h10v589.117h-10zM804 169.68h10v1871.555h-10zM1120.5 1223.781h10v86.398h-10zM1486.5 169.68h10v1871.555h-10zM1829 169.68h10v1871.555h-10z"/>
  <path fill="#FFF" filter="url(#a)" stroke="#000" stroke-width="2" d="M26 176.68h2064.5v1857.555H26z"/>
  <path fill="#FFF" filter="url(#a)" stroke="#000" stroke-width="2" d="M36 1670.773h2044.5v131.664H36zM98 1870.57h1982.5v131.664H98z"/>
  <path stroke="#a80036" stroke-dasharray="5,5" d="M72 159.68v1891.554M134 159.68v1891.554M486 159.68v1891.554M809 159.68v1891.554M1001 159.68v1891.554M1125 159.68v1891.554M1491.5 159.68v1891.554M1656.5 159.68v1891.554M1833.5 159.68v1891.554M1999.5 159.68v1891.554"/>
  <text font-family="sans-serif" font-size="14" lengthAdjust="spacingAndGlyphs" textLength="46" x="46" y="140.081">
    DFSP1
  </text>
  <text font-family="sans-serif" font-size="14" lengthAdjust="spacingAndGlyphs" textLength="38" x="50" y="156.378">
    Payer
  </text>
  <circle cx="72" cy="70.086" fill="#FEFECE" filter="url(#a)" stroke="#a80036" stroke-width="2" r="8"/>
  <path d="M72 78.086v27m-13-19h26m-13 19l-13 15m13-15l13 15" fill="none" filter="url(#a)" stroke="#a80036" stroke-width="2"/>
  <text font-family="sans-serif" font-size="14" lengthAdjust="spacingAndGlyphs" textLength="46" x="46" y="2063.229">
    DFSP1
  </text>
  <text font-family="sans-serif" font-size="14" lengthAdjust="spacingAndGlyphs" textLength="38" x="50" y="2079.526">
    Payer
  </text>
  <circle cx="72" cy="2092.828" fill="#FEFECE" filter="url(#a)" stroke="#a80036" stroke-width="2" r="8"/>
  <path d="M72 2100.828v27m-13-19h26m-13 19l-13 15m13-15l13 15" fill="none" filter="url(#a)" stroke="#a80036" stroke-width="2"/>
  <text font-family="sans-serif" font-size="14" lengthAdjust="spacingAndGlyphs" textLength="46" x="108" y="140.081">
    DFSP2
  </text>
  <text font-family="sans-serif" font-size="14" lengthAdjust="spacingAndGlyphs" textLength="42" x="110" y="156.378">
    Payee
  </text>
  <circle cx="134" cy="70.086" fill="#FEFECE" filter="url(#a)" stroke="#a80036" stroke-width="2" r="8"/>
  <path d="M134 78.086v27m-13-19h26m-13 19l-13 15m13-15l13 15" fill="none" filter="url(#a)" stroke="#a80036" stroke-width="2"/>
  <text font-family="sans-serif" font-size="14" lengthAdjust="spacingAndGlyphs" textLength="46" x="108" y="2063.229">
    DFSP2
  </text>
  <text font-family="sans-serif" font-size="14" lengthAdjust="spacingAndGlyphs" textLength="42" x="110" y="2079.526">
    Payee
  </text>
  <circle cx="134" cy="2092.828" fill="#FEFECE" filter="url(#a)" stroke="#a80036" stroke-width="2" r="8"/>
  <path d="M134 2100.828v27m-13-19h26m-13 19l-13 15m13-15l13 15" fill="none" filter="url(#a)" stroke="#a80036" stroke-width="2"/>
  <text font-family="sans-serif" font-size="14" lengthAdjust="spacingAndGlyphs" textLength="102" x="432" y="156.378">
    ML API Adapter
  </text>
  <path d="M465.5 115.383v24m0-12h17" fill="none" filter="url(#a)" stroke="#a80036" stroke-width="2"/>
  <circle cx="494.5" cy="127.383" fill="#FEFECE" filter="url(#a)" stroke="#a80036" stroke-width="2" r="12"/>
  <text font-family="sans-serif" font-size="14" lengthAdjust="spacingAndGlyphs" textLength="102" x="432" y="2063.229">
    ML API Adapter
  </text>
  <path d="M465.5 2070.531v24m0-12h17" fill="none" filter="url(#a)" stroke="#a80036" stroke-width="2"/>
  <circle cx="494.5" cy="2082.531" fill="#FEFECE" filter="url(#a)" stroke="#a80036" stroke-width="2" r="12"/>
  <text font-family="sans-serif" font-size="14" lengthAdjust="spacingAndGlyphs" textLength="224" x="694" y="156.378">
    ML API Notification Event Handler
  </text>
  <circle cx="809" cy="127.383" fill="#FEFECE" filter="url(#a)" stroke="#a80036" stroke-width="2" r="12"/>
  <path fill="#A80036" stroke="#a80036" d="M805 115.383l6-5-2 5 2 5-6-5z"/>
  <text font-family="sans-serif" font-size="14" lengthAdjust="spacingAndGlyphs" textLength="224" x="694" y="2063.229">
    ML API Notification Event Handler
  </text>
  <circle cx="809" cy="2082.531" fill="#FEFECE" filter="url(#a)" stroke="#a80036" stroke-width="2" r="12"/>
  <path fill="#A80036" stroke="#a80036" d="M805 2070.531l6-5-2 5 2 5-6-5z"/>
  <text font-family="sans-serif" font-size="14" lengthAdjust="spacingAndGlyphs" textLength="128" x="934" y="156.378">
    Central Service API
  </text>
  <path d="M980.5 115.383v24m0-12h17" fill="none" filter="url(#a)" stroke="#a80036" stroke-width="2"/>
  <circle cx="1009.5" cy="127.383" fill="#FEFECE" filter="url(#a)" stroke="#a80036" stroke-width="2" r="12"/>
  <text font-family="sans-serif" font-size="14" lengthAdjust="spacingAndGlyphs" textLength="128" x="934" y="2063.229">
    Central Service API
  </text>
  <path d="M980.5 2070.531v24m0-12h17" fill="none" filter="url(#a)" stroke="#a80036" stroke-width="2"/>
  <circle cx="1009.5" cy="2082.531" fill="#FEFECE" filter="url(#a)" stroke="#a80036" stroke-width="2" r="12"/>
  <path fill="#FEFECE" filter="url(#a)" stroke="#a80036" stroke-width="1.5" d="M1082 120.383h87v30.297h-87z"/>
  <path fill="#FEFECE" filter="url(#a)" stroke="#a80036" stroke-width="1.5" d="M1078 124.383h87v30.297h-87z"/>
  <text font-family="sans-serif" font-size="14" lengthAdjust="spacingAndGlyphs" textLength="73" x="1085" y="144.378">
    Fulfil-Topic
  </text>
  <path fill="#FEFECE" filter="url(#a)" stroke="#a80036" stroke-width="1.5" d="M1082 2050.234h87v30.297h-87z"/>
  <path fill="#FEFECE" filter="url(#a)" stroke="#a80036" stroke-width="1.5" d="M1078 2054.234h87v30.297h-87z"/>
  <text font-family="sans-serif" font-size="14" lengthAdjust="spacingAndGlyphs" textLength="73" x="1085" y="2074.229">
    Fulfil-Topic
  </text>
  <text font-family="sans-serif" font-size="14" lengthAdjust="spacingAndGlyphs" textLength="130" x="1423.5" y="156.378">
    Fulfil Event Handler
  </text>
  <circle cx="1491.5" cy="127.383" fill="#FEFECE" filter="url(#a)" stroke="#a80036" stroke-width="2" r="12"/>
  <path fill="#A80036" stroke="#a80036" d="M1487.5 115.383l6-5-2 5 2 5-6-5z"/>
  <text font-family="sans-serif" font-size="14" lengthAdjust="spacingAndGlyphs" textLength="130" x="1423.5" y="2063.229">
    Fulfil Event Handler
  </text>
  <circle cx="1491.5" cy="2082.531" fill="#FEFECE" filter="url(#a)" stroke="#a80036" stroke-width="2" r="12"/>
  <path fill="#A80036" stroke="#a80036" d="M1487.5 2070.531l6-5-2 5 2 5-6-5z"/>
  <path fill="#FEFECE" filter="url(#a)" stroke="#a80036" stroke-width="1.5" d="M1573.5 120.383h166v30.297h-166z"/>
  <path fill="#FEFECE" filter="url(#a)" stroke="#a80036" stroke-width="1.5" d="M1569.5 124.383h166v30.297h-166z"/>
  <text font-family="sans-serif" font-size="14" lengthAdjust="spacingAndGlyphs" textLength="152" x="1576.5" y="144.378">
    topic-transfer-position
  </text>
  <path fill="#FEFECE" filter="url(#a)" stroke="#a80036" stroke-width="1.5" d="M1573.5 2050.234h166v30.297h-166z"/>
  <path fill="#FEFECE" filter="url(#a)" stroke="#a80036" stroke-width="1.5" d="M1569.5 2054.234h166v30.297h-166z"/>
  <text font-family="sans-serif" font-size="14" lengthAdjust="spacingAndGlyphs" textLength="152" x="1576.5" y="2074.229">
    topic-transfer-position
  </text>
  <text font-family="sans-serif" font-size="14" lengthAdjust="spacingAndGlyphs" textLength="155" x="1753.5" y="156.378">
    Position Event Handler
  </text>
  <circle cx="1834" cy="127.383" fill="#FEFECE" filter="url(#a)" stroke="#a80036" stroke-width="2" r="12"/>
  <path fill="#A80036" stroke="#a80036" d="M1830 115.383l6-5-2 5 2 5-6-5z"/>
  <text font-family="sans-serif" font-size="14" lengthAdjust="spacingAndGlyphs" textLength="155" x="1753.5" y="2063.229">
    Position Event Handler
  </text>
  <circle cx="1834" cy="2082.531" fill="#FEFECE" filter="url(#a)" stroke="#a80036" stroke-width="2" r="12"/>
  <path fill="#A80036" stroke="#a80036" d="M1830 2070.531l6-5-2 5 2 5-6-5z"/>
  <path fill="#FEFECE" filter="url(#a)" stroke="#a80036" stroke-width="1.5" d="M1933.5 120.383h133v30.297h-133z"/>
  <path fill="#FEFECE" filter="url(#a)" stroke="#a80036" stroke-width="1.5" d="M1929.5 124.383h133v30.297h-133z"/>
  <text font-family="sans-serif" font-size="14" lengthAdjust="spacingAndGlyphs" textLength="119" x="1936.5" y="144.378">
    Notification-Topic
  </text>
  <path fill="#FEFECE" filter="url(#a)" stroke="#a80036" stroke-width="1.5" d="M1933.5 2050.234h133v30.297h-133z"/>
  <path fill="#FEFECE" filter="url(#a)" stroke="#a80036" stroke-width="1.5" d="M1929.5 2054.234h133v30.297h-133z"/>
  <text font-family="sans-serif" font-size="14" lengthAdjust="spacingAndGlyphs" textLength="119" x="1936.5" y="2074.229">
    Notification-Topic
  </text>
  <path fill="#FFF" filter="url(#a)" stroke="#a80036" d="M481 750.195h10v589.117h-10zM804 169.68h10v1871.555h-10zM1120.5 1223.781h10v86.398h-10zM1486.5 169.68h10v1871.555h-10zM1829 169.68h10v1871.555h-10z"/>
  <path d="M26 176.68h389v7l-10 10H26v-17" fill="#EEE" stroke="#000"/>
  <path fill="none" stroke="#000" stroke-width="2" d="M26 176.68h2064.5v1857.555H26z"/>
  <text font-family="sans-serif" font-size="13" font-weight="bold" lengthAdjust="spacingAndGlyphs" textLength="344" x="41" y="189.747">
    DFSP2 sends a Fulfil Success Transfer request
  </text>
  <path stroke="#a80036" d="M134 245.211h42M176 245.211v13M135 258.211h41"/>
  <path fill="#A80036" stroke="#a80036" d="M145 254.21l-10 4 10 4-4-4z"/>
  <text font-family="sans-serif" font-size="13" font-weight="bold" lengthAdjust="spacingAndGlyphs" textLength="9" x="141" y="225.012">
    1
  </text>
  <text font-family="sans-serif" font-size="13" lengthAdjust="spacingAndGlyphs" textLength="213" x="154" y="209.879">
    During processing of an incoming
  </text>
  <text font-family="sans-serif" font-size="13" lengthAdjust="spacingAndGlyphs" textLength="269" x="154" y="225.012">
    POST /transfers request, some processing
  </text>
  <text font-family="sans-serif" font-size="13" lengthAdjust="spacingAndGlyphs" textLength="284" x="154" y="240.145">
    error occurred and an Error callback is made
  </text>
  <path d="M139 271.21v448h337v-438l-10-10H139" fill="#FF0" filter="url(#a)" stroke="#a80036"/>
  <path d="M466 271.21v10h10l-10-10" fill="#FF0" stroke="#a80036"/>
  <text font-family="sans-serif" font-size="13" lengthAdjust="spacingAndGlyphs" textLength="187" x="145" y="288.278">
    Headers - transferHeaders: {
  </text>
  <text font-family="sans-serif" font-size="13" lengthAdjust="spacingAndGlyphs" textLength="234" x="161" y="303.411">
    Content-Length: &lt;Content-Length&gt;,
  </text>
  <text font-family="sans-serif" font-size="13" lengthAdjust="spacingAndGlyphs" textLength="206" x="161" y="318.543">
    Content-Type: &lt;Content-Type&gt;,
  </text>
  <text font-family="sans-serif" font-size="13" lengthAdjust="spacingAndGlyphs" textLength="96" x="161" y="333.676">
    Date: &lt;Date&gt;,
  </text>
  <text font-family="sans-serif" font-size="13" lengthAdjust="spacingAndGlyphs" textLength="242" x="161" y="348.809">
    X-Forwarded-For: &lt;X-Forwarded-For&gt;,
  </text>
  <text font-family="sans-serif" font-size="13" lengthAdjust="spacingAndGlyphs" textLength="224" x="161" y="363.942">
    FSPIOP-Source: &lt;FSPIOP-Source&gt;,
  </text>
  <text font-family="sans-serif" font-size="13" lengthAdjust="spacingAndGlyphs" textLength="280" x="161" y="379.075">
    FSPIOP-Destination: &lt;FSPIOP-Destination&gt;,
  </text>
  <text font-family="sans-serif" font-size="13" lengthAdjust="spacingAndGlyphs" textLength="268" x="161" y="394.207">
    FSPIOP-Encryption: &lt;FSPIOP-Encryption&gt;,
  </text>
  <text font-family="sans-serif" font-size="13" lengthAdjust="spacingAndGlyphs" textLength="258" x="161" y="409.34">
    FSPIOP-Signature: &lt;FSPIOP-Signature&gt;,
  </text>
  <text font-family="sans-serif" font-size="13" lengthAdjust="spacingAndGlyphs" textLength="176" x="161" y="424.473">
    FSPIOP-URI: &lt;FSPIOP-URI&gt;,
  </text>
  <text font-family="sans-serif" font-size="13" lengthAdjust="spacingAndGlyphs" textLength="300" x="161" y="439.606">
    FSPIOP-HTTP-Method: &lt;FSPIOP-HTTP-Method&gt;
  </text>
  <text font-family="sans-serif" font-size="13" lengthAdjust="spacingAndGlyphs" textLength="8" x="145" y="454.739">
    }
  </text>
  <text font-family="sans-serif" font-size="13" lengthAdjust="spacingAndGlyphs" textLength="155" x="145" y="485.004">
    Payload - errorMessage:
  </text>
  <text font-family="sans-serif" font-size="13" lengthAdjust="spacingAndGlyphs" textLength="8" x="145" y="500.137">
    {
  </text>
  <text font-family="sans-serif" font-size="13" lengthAdjust="spacingAndGlyphs" textLength="104" x="161" y="515.27">
    errorInformation
  </text>
  <text font-family="sans-serif" font-size="13" lengthAdjust="spacingAndGlyphs" textLength="8" x="161" y="530.403">
    {
  </text>
  <text font-family="sans-serif" font-size="13" lengthAdjust="spacingAndGlyphs" textLength="172" x="177" y="545.536">
    &quot;errorCode&quot;: &lt;errorCode&gt;,
  </text>
  <text font-family="sans-serif" font-size="13" lengthAdjust="spacingAndGlyphs" textLength="246" x="177" y="560.668">
    &quot;errorDescription&quot;: &lt;errorDescription&gt;
  </text>
  <text font-family="sans-serif" font-size="13" lengthAdjust="spacingAndGlyphs" textLength="110" x="177" y="575.801">
    &quot;extensionList&quot;: {
  </text>
  <text font-family="sans-serif" font-size="13" lengthAdjust="spacingAndGlyphs" textLength="85" x="193" y="590.934">
    &quot;extension&quot;: [
  </text>
  <text font-family="sans-serif" font-size="13" lengthAdjust="spacingAndGlyphs" textLength="8" x="209" y="606.067">
    {
  </text>
  <text font-family="sans-serif" font-size="13" lengthAdjust="spacingAndGlyphs" textLength="102" x="225" y="621.2">
    &quot;key&quot;: &lt;string&gt;,
  </text>
  <text font-family="sans-serif" font-size="13" lengthAdjust="spacingAndGlyphs" textLength="110" x="225" y="636.332">
    &quot;value&quot;: &lt;string&gt;
  </text>
  <text font-family="sans-serif" font-size="13" lengthAdjust="spacingAndGlyphs" textLength="8" x="209" y="651.465">
    }
  </text>
  <text font-family="sans-serif" font-size="13" lengthAdjust="spacingAndGlyphs" textLength="5" x="193" y="666.598">
    ]
  </text>
  <text font-family="sans-serif" font-size="13" lengthAdjust="spacingAndGlyphs" textLength="8" x="177" y="681.731">
    }
  </text>
  <text font-family="sans-serif" font-size="13" lengthAdjust="spacingAndGlyphs" textLength="8" x="161" y="696.864">
    }
  </text>
  <text font-family="sans-serif" font-size="13" lengthAdjust="spacingAndGlyphs" textLength="8" x="145" y="711.997">
    }
  </text>
  <path stroke="#a80036" d="M479 750.195l-10-4M479 750.195l-10 4M134 750.195h346"/>
  <text font-family="sans-serif" font-size="13" font-weight="bold" lengthAdjust="spacingAndGlyphs" textLength="9" x="141" y="745.129">
    2
  </text>
  <text font-family="sans-serif" font-size="13" lengthAdjust="spacingAndGlyphs" textLength="173" x="154" y="745.129">
    PUT - /transfers/&lt;ID&gt;/error
  </text>
  <path stroke="#a80036" d="M491 794.461h42M533 794.461v13M492 807.461h41"/>
  <path fill="#A80036" stroke="#a80036" d="M502 803.46l-10 4 10 4-4-4z"/>
  <text font-family="sans-serif" font-size="13" font-weight="bold" lengthAdjust="spacingAndGlyphs" textLength="9" x="498" y="781.829">
    3
  </text>
  <text font-family="sans-serif" font-size="13" lengthAdjust="spacingAndGlyphs" textLength="286" x="511" y="774.262">
    Validate incoming originator matching Payee
  </text>
  <text fill="red" font-family="sans-serif" font-size="13" font-weight="bold" lengthAdjust="spacingAndGlyphs" textLength="90" x="511" y="789.395">
    Error codes:
  </text>
  <text fill="red" font-family="sans-serif" font-size="13" lengthAdjust="spacingAndGlyphs" textLength="146" x="605" y="789.395">
    3000-3002, 3100-3107
  </text>
  <path d="M496 820.46v358h315v-348l-10-10H496" fill="#FF0" filter="url(#a)" stroke="#a80036"/>
  <path d="M801 820.46v10h10l-10-10" fill="#FF0" stroke="#a80036"/>
  <text font-family="sans-serif" font-size="13" lengthAdjust="spacingAndGlyphs" textLength="61" x="502" y="837.528">
    Message:
  </text>
  <text font-family="sans-serif" font-size="13" lengthAdjust="spacingAndGlyphs" textLength="8" x="502" y="852.661">
    {
  </text>
  <text font-family="sans-serif" font-size="13" lengthAdjust="spacingAndGlyphs" textLength="58" x="518" y="867.793">
    id: &lt;ID&gt;,
  </text>
  <text font-family="sans-serif" font-size="13" lengthAdjust="spacingAndGlyphs" textLength="267" x="518" y="882.926">
    from: &lt;transferHeaders.FSPIOP-Source&gt;,
  </text>
  <text font-family="sans-serif" font-size="13" lengthAdjust="spacingAndGlyphs" textLength="278" x="518" y="898.059">
    to: &lt;transferHeaders.FSPIOP-Destination&gt;,
  </text>
  <text font-family="sans-serif" font-size="13" lengthAdjust="spacingAndGlyphs" textLength="139" x="518" y="913.192">
    type: application/json,
  </text>
  <text font-family="sans-serif" font-size="13" lengthAdjust="spacingAndGlyphs" textLength="65" x="518" y="928.325">
    content: {
  </text>
  <text font-family="sans-serif" font-size="13" lengthAdjust="spacingAndGlyphs" textLength="190" x="534" y="943.457">
    headers: &lt;transferHeaders&gt;,
  </text>
  <text font-family="sans-serif" font-size="13" lengthAdjust="spacingAndGlyphs" textLength="168" x="534" y="958.59">
    payload: &lt;errorMessage&gt;
  </text>
  <text font-family="sans-serif" font-size="13" lengthAdjust="spacingAndGlyphs" textLength="12" x="518" y="973.723">
    },
  </text>
  <text font-family="sans-serif" font-size="13" lengthAdjust="spacingAndGlyphs" textLength="79" x="518" y="988.856">
    metadata: {
  </text>
  <text font-family="sans-serif" font-size="13" lengthAdjust="spacingAndGlyphs" textLength="52" x="534" y="1003.989">
    event: {
  </text>
  <text font-family="sans-serif" font-size="13" lengthAdjust="spacingAndGlyphs" textLength="72" x="550" y="1019.122">
    id: &lt;uuid&gt;,
  </text>
  <text font-family="sans-serif" font-size="13" lengthAdjust="spacingAndGlyphs" textLength="65" x="550" y="1034.254">
    type: fulfil,
  </text>
  <text font-family="sans-serif" font-size="13" lengthAdjust="spacingAndGlyphs" textLength="85" x="550" y="1049.387">
    action: abort,
  </text>
  <text font-family="sans-serif" font-size="13" lengthAdjust="spacingAndGlyphs" textLength="167" x="550" y="1064.52">
    createdAt: &lt;timestamp&gt;,
  </text>
  <text font-family="sans-serif" font-size="13" lengthAdjust="spacingAndGlyphs" textLength="49" x="550" y="1079.653">
    state: {
  </text>
  <text font-family="sans-serif" font-size="13" lengthAdjust="spacingAndGlyphs" textLength="113" x="566" y="1094.786">
    status: &quot;success&quot;,
  </text>
  <text font-family="sans-serif" font-size="13" lengthAdjust="spacingAndGlyphs" textLength="47" x="566" y="1109.918">
    code: 0
  </text>
  <text font-family="sans-serif" font-size="13" lengthAdjust="spacingAndGlyphs" textLength="8" x="550" y="1125.051">
    }
  </text>
  <text font-family="sans-serif" font-size="13" lengthAdjust="spacingAndGlyphs" textLength="8" x="534" y="1140.184">
    }
  </text>
  <text font-family="sans-serif" font-size="13" lengthAdjust="spacingAndGlyphs" textLength="8" x="518" y="1155.317">
    }
  </text>
  <text font-family="sans-serif" font-size="13" lengthAdjust="spacingAndGlyphs" textLength="8" x="502" y="1170.45">
    }
  </text>
  <path fill="#A80036" stroke="#a80036" d="M1108.5 1219.781l10 4-10 4 4-4z"/>
  <path stroke="#a80036" d="M491 1223.781h623.5"/>
  <text font-family="sans-serif" font-size="13" font-weight="bold" lengthAdjust="spacingAndGlyphs" textLength="9" x="498" y="1211.149">
    4
  </text>
  <text font-family="sans-serif" font-size="13" lengthAdjust="spacingAndGlyphs" textLength="287" x="511" y="1203.582">
    Route &amp; Publish Abort/Reject event for Payee
  </text>
  <text fill="red" font-family="sans-serif" font-size="13" font-weight="bold" lengthAdjust="spacingAndGlyphs" textLength="82" x="511" y="1218.715">
    Error code:
  </text>
  <text fill="red" font-family="sans-serif" font-size="13" lengthAdjust="spacingAndGlyphs" textLength="32" x="597" y="1218.715">
    2003
  </text>
  <path stroke="#a80036" d="M1130.5 1268.047h42M1172.5 1268.047v13M1131.5 1281.047h41"/>
  <path fill="#A80036" stroke="#a80036" d="M1141.5 1277.047l-10 4 10 4-4-4z"/>
  <text font-family="sans-serif" font-size="13" font-weight="bold" lengthAdjust="spacingAndGlyphs" textLength="9" x="1137.5" y="1255.415">
    5
  </text>
  <text font-family="sans-serif" font-size="13" lengthAdjust="spacingAndGlyphs" textLength="329" x="1150.5" y="1247.848">
    Ensure event is replicated as configured (ACKS=all)
  </text>
  <text fill="red" font-family="sans-serif" font-size="13" font-weight="bold" lengthAdjust="spacingAndGlyphs" textLength="82" x="1150.5" y="1262.981">
    Error code:
  </text>
  <text fill="red" font-family="sans-serif" font-size="13" lengthAdjust="spacingAndGlyphs" textLength="32" x="1236.5" y="1262.981">
    2003
  </text>
  <path fill="#A80036" stroke="#a80036" d="M502 1306.18l-10 4 10 4-4-4z"/>
  <path stroke="#a80036" stroke-dasharray="2,2" d="M496 1310.18h628.5"/>
  <text font-family="sans-serif" font-size="13" font-weight="bold" lengthAdjust="spacingAndGlyphs" textLength="9" x="508" y="1305.114">
    6
  </text>
  <text font-family="sans-serif" font-size="13" lengthAdjust="spacingAndGlyphs" textLength="381" x="521" y="1305.114">
    Respond replication acknowledgements have been received
  </text>
  <path stroke="#a80036" d="M134 1339.313l10-4M134 1339.313l10 4"/>
  <path stroke="#a80036" stroke-dasharray="2,2" d="M134 1339.313h351"/>
  <text font-family="sans-serif" font-size="13" font-weight="bold" lengthAdjust="spacingAndGlyphs" textLength="9" x="151" y="1334.247">
    7
  </text>
  <text font-family="sans-serif" font-size="13" lengthAdjust="spacingAndGlyphs" textLength="160" x="164" y="1334.247">
    Respond HTTP - 200 (OK)
  </text>
  <path fill="#A80036" stroke="#a80036" d="M1136.5 1364.445l-10 4 10 4-4-4z"/>
  <path stroke="#a80036" d="M1130.5 1368.445h355"/>
  <text font-family="sans-serif" font-size="13" font-weight="bold" lengthAdjust="spacingAndGlyphs" textLength="9" x="1142.5" y="1363.379">
    8
  </text>
  <text font-family="sans-serif" font-size="13" lengthAdjust="spacingAndGlyphs" textLength="124" x="1155.5" y="1363.379">
    Consume message
  </text>
  <path fill="#FFF" filter="url(#a)" stroke="#000" stroke-width="2" d="M1075 1376.445h667.5v55.398H1075z"/>
  <path fill="#EEE" stroke="#000" stroke-width="2" d="M1075 1376.445h66v7l-10 10h-56v-17z"/>
  <text font-family="sans-serif" font-size="13" font-weight="bold" lengthAdjust="spacingAndGlyphs" textLength="21" x="1088" y="1390.512">
    ref
  </text>
  <text font-family="sans-serif" font-size="13" lengthAdjust="spacingAndGlyphs" textLength="239" x="1291.25" y="1409.512">
    Fulfil Handler Consume (Reject/Abort)
  </text>
  <path fill="#A80036" stroke="#a80036" d="M1644.5 1453.977l10 4-10 4 4-4z"/>
  <path stroke="#a80036" d="M1496.5 1457.977h154"/>
  <text font-family="sans-serif" font-size="13" font-weight="bold" lengthAdjust="spacingAndGlyphs" textLength="9" x="1503.5" y="1452.911">
    9
  </text>
  <text font-family="sans-serif" font-size="13" lengthAdjust="spacingAndGlyphs" textLength="115" x="1516.5" y="1452.911">
    Produce message
  </text>
  <path fill="#A80036" stroke="#a80036" d="M1667.5 1508.11l-10 4 10 4-4-4z"/>
  <path stroke="#a80036" d="M1661.5 1512.109H1828"/>
  <text font-family="sans-serif" font-size="13" font-weight="bold" lengthAdjust="spacingAndGlyphs" textLength="18" x="1673.5" y="1507.043">
    10
  </text>
  <text font-family="sans-serif" font-size="13" lengthAdjust="spacingAndGlyphs" textLength="124" x="1695.5" y="1507.043">
    Consume message
  </text>
  <path fill="#FFF" filter="url(#a)" stroke="#000" stroke-width="2" d="M1566.5 1520.109h503v55.398h-503z"/>
  <path fill="#EEE" stroke="#000" stroke-width="2" d="M1566.5 1520.11h66v7l-10 10h-56v-17z"/>
  <text font-family="sans-serif" font-size="13" font-weight="bold" lengthAdjust="spacingAndGlyphs" textLength="21" x="1579.5" y="1534.176">
    ref
  </text>
  <text font-family="sans-serif" font-size="13" lengthAdjust="spacingAndGlyphs" textLength="218" x="1711" y="1553.176">
    Position Handler Consume (Abort)
  </text>
  <path fill="#A80036" stroke="#a80036" d="M1988 1597.64l10 4-10 4 4-4z"/>
  <path stroke="#a80036" d="M1839 1601.641h155"/>
  <text font-family="sans-serif" font-size="13" font-weight="bold" lengthAdjust="spacingAndGlyphs" textLength="18" x="1846" y="1596.575">
    11
  </text>
  <text font-family="sans-serif" font-size="13" lengthAdjust="spacingAndGlyphs" textLength="115" x="1868" y="1596.575">
    Produce message
  </text>
  <path fill="#A80036" stroke="#a80036" d="M1988 1651.773l10 4-10 4 4-4z"/>
  <path stroke="#a80036" d="M814 1655.773h1180"/>
  <text font-family="sans-serif" font-size="13" font-weight="bold" lengthAdjust="spacingAndGlyphs" textLength="18" x="821" y="1650.707">
    12
  </text>
  <text font-family="sans-serif" font-size="13" lengthAdjust="spacingAndGlyphs" textLength="124" x="843" y="1650.707">
    Consume message
  </text>
  <path d="M36 1670.773h70v7l-10 10H36v-17" fill="#EEE" stroke="#000"/>
  <path fill="none" stroke="#000" stroke-width="2" d="M36 1670.773h2044.5v131.664H36z"/>
  <text font-family="sans-serif" font-size="13" font-weight="bold" lengthAdjust="spacingAndGlyphs" textLength="25" x="51" y="1683.84">
    opt
  </text>
  <text font-family="sans-serif" font-size="11" font-weight="bold" lengthAdjust="spacingAndGlyphs" textLength="116" x="121" y="1682.984">
    [action == &apos;abort&apos;]
  </text>
  <path fill="#FFF" filter="url(#a)" stroke="#000" stroke-width="2" d="M43 1712.906h2026.5v55.398H43z"/>
  <path fill="#EEE" stroke="#000" stroke-width="2" d="M43 1712.906h66v7l-10 10H43v-17z"/>
  <text font-family="sans-serif" font-size="13" font-weight="bold" lengthAdjust="spacingAndGlyphs" textLength="21" x="56" y="1726.973">
    ref
  </text>
  <text font-family="sans-serif" font-size="13" lengthAdjust="spacingAndGlyphs" textLength="246" x="935.25" y="1745.973">
    Send notification to Participant (Payer)
  </text>
  <path fill="#A80036" stroke="#a80036" d="M83 1790.438l-10 4 10 4-4-4z"/>
  <path stroke="#a80036" d="M77 1794.438h726"/>
  <text font-family="sans-serif" font-size="13" font-weight="bold" lengthAdjust="spacingAndGlyphs" textLength="18" x="89" y="1789.372">
    13
  </text>
  <text font-family="sans-serif" font-size="13" lengthAdjust="spacingAndGlyphs" textLength="162" x="111" y="1789.372">
    Send callback notification
  </text>
  <path fill="#A80036" stroke="#a80036" d="M1988 1851.57l10 4-10 4 4-4z"/>
  <path stroke="#a80036" d="M814 1855.57h1180"/>
  <text font-family="sans-serif" font-size="13" font-weight="bold" lengthAdjust="spacingAndGlyphs" textLength="18" x="821" y="1850.504">
    14
  </text>
  <text font-family="sans-serif" font-size="13" lengthAdjust="spacingAndGlyphs" textLength="124" x="843" y="1850.504">
    Consume message
  </text>
  <path d="M98 1870.57h70v7l-10 10H98v-17" fill="#EEE" stroke="#000"/>
  <path fill="none" stroke="#000" stroke-width="2" d="M98 1870.57h1982.5v131.664H98z"/>
  <text font-family="sans-serif" font-size="13" font-weight="bold" lengthAdjust="spacingAndGlyphs" textLength="25" x="113" y="1883.637">
    opt
  </text>
  <text font-family="sans-serif" font-size="11" font-weight="bold" lengthAdjust="spacingAndGlyphs" textLength="116" x="183" y="1882.781">
    [action == &apos;abort&apos;]
  </text>
  <path fill="#FFF" filter="url(#a)" stroke="#000" stroke-width="2" d="M105 1912.703h1964.5v55.398H105z"/>
  <path fill="#EEE" stroke="#000" stroke-width="2" d="M105 1912.703h66v7l-10 10h-56v-17z"/>
  <text font-family="sans-serif" font-size="13" font-weight="bold" lengthAdjust="spacingAndGlyphs" textLength="21" x="118" y="1926.77">
    ref
  </text>
  <text font-family="sans-serif" font-size="13" lengthAdjust="spacingAndGlyphs" textLength="249" x="964.75" y="1945.77">
    Send notification to Participant (Payee)
  </text>
  <path fill="#A80036" stroke="#a80036" d="M145 1990.234l-10 4 10 4-4-4z"/>
  <path stroke="#a80036" d="M139 1994.234h664"/>
  <text font-family="sans-serif" font-size="13" font-weight="bold" lengthAdjust="spacingAndGlyphs" textLength="18" x="151" y="1989.168">
    15
  </text>
  <text font-family="sans-serif" font-size="13" lengthAdjust="spacingAndGlyphs" textLength="162" x="173" y="1989.168">
    Send callback notification
  </text>
</svg>
