<svg xmlns="http://www.w3.org/2000/svg" height="1518" preserveAspectRatio="none" style="width:1510px;height:1518px" width="1510">
  <defs>
    <filter height="300%" id="a" width="300%" x="-1" y="-1">
      <feGaussianBlur result="blurOut" stdDeviation="2"/>
      <feColorMatrix in="blurOut" result="blurOut2" values="0 0 0 0 0 0 0 0 0 0 0 0 0 0 0 0 0 0 .4 0"/>
      <feOffset dx="4" dy="4" in="blurOut2" result="blurOut3"/>
      <feBlend in="SourceGraphic" in2="blurOut3"/>
    </filter>
  </defs>
  <text font-family="sans-serif" font-size="18" lengthAdjust="spacingAndGlyphs" textLength="338" x="584" y="28.708">
    1.3.2. Fulfil Position Handler Consume
  </text>
  <path fill="#FFFFE0" stroke="#a80036" d="M26 40.953h1255V1512.25H26z"/>
  <text font-family="sans-serif" font-size="13" font-weight="bold" lengthAdjust="spacingAndGlyphs" textLength="111" x="598" y="53.02">
    Central Service
  </text>
  <path fill="#FFF" filter="url(#a)" stroke="#a80036" d="M84 132.383h10v1304.57H84zM492 1391.953h10v30h-10zM624.5 192.781h10v135.664h-10zM740 454.109h10V953.5h-10zM1224 221.914h10v77.398h-10zM1224 507.375h10v62.266h-10zM1224 640.906h10v30h-10zM1224 748.305h10v30h-10z"/>
  <path fill="#FFF" filter="url(#a)" stroke="#000" stroke-width="2" d="M10 139.383h1486v1290.57H10z"/>
  <path fill="#FFF" filter="url(#a)" stroke="#000" stroke-width="2" d="M20 400.711h1466V961.5H20z"/>
  <path fill="#FFF" filter="url(#a)" stroke="#000" stroke-width="2" d="M677.5 469.109H1476v456.258H677.5z"/>
  <path stroke="#a80036" stroke-dasharray="5,5" d="M89 122.383v1324.57M496.5 122.383v1324.57M629.5 122.383v1324.57M744.5 122.383v1324.57M1229 122.383v1324.57"/>
  <text font-family="sans-serif" font-size="14" lengthAdjust="spacingAndGlyphs" textLength="112" x="30" y="119.081">
    Position Handler
  </text>
  <circle cx="89" cy="90.086" fill="#FEFECE" filter="url(#a)" stroke="#a80036" stroke-width="2" r="12"/>
  <path fill="#A80036" stroke="#a80036" d="M85 78.086l6-5-2 5 2 5-6-5z"/>
  <text font-family="sans-serif" font-size="14" lengthAdjust="spacingAndGlyphs" textLength="112" x="30" y="1458.948">
    Position Handler
  </text>
  <circle cx="89" cy="1478.25" fill="#FEFECE" filter="url(#a)" stroke="#a80036" stroke-width="2" r="12"/>
  <path fill="#A80036" stroke="#a80036" d="M85 1466.25l6-5-2 5 2 5-6-5z"/>
  <path fill="#FEFECE" filter="url(#a)" stroke="#a80036" stroke-width="1.5" d="M426.5 83.086h141v30.297h-141z"/>
  <path fill="#FEFECE" filter="url(#a)" stroke="#a80036" stroke-width="1.5" d="M422.5 87.086h141v30.297h-141z"/>
  <text font-family="sans-serif" font-size="14" lengthAdjust="spacingAndGlyphs" textLength="127" x="429.5" y="107.081">
    Notifications-Topic
  </text>
  <path fill="#FEFECE" filter="url(#a)" stroke="#a80036" stroke-width="1.5" d="M426.5 1445.953h141v30.297h-141z"/>
  <path fill="#FEFECE" filter="url(#a)" stroke="#a80036" stroke-width="1.5" d="M422.5 1449.953h141v30.297h-141z"/>
  <text font-family="sans-serif" font-size="14" lengthAdjust="spacingAndGlyphs" textLength="127" x="429.5" y="1469.948">
    Notifications-Topic
  </text>
  <text font-family="sans-serif" font-size="14" lengthAdjust="spacingAndGlyphs" textLength="90" x="581.5" y="119.081">
    Position DAO
  </text>
  <circle cx="629.5" cy="90.086" fill="#FEFECE" filter="url(#a)" stroke="#a80036" stroke-width="2" r="12"/>
  <path stroke="#a80036" stroke-width="2" d="M617.5 104.086h24"/>
  <text font-family="sans-serif" font-size="14" lengthAdjust="spacingAndGlyphs" textLength="90" x="581.5" y="1458.948">
    Position DAO
  </text>
  <circle cx="629.5" cy="1478.25" fill="#FEFECE" filter="url(#a)" stroke="#a80036" stroke-width="2" r="12"/>
  <path stroke="#a80036" stroke-width="2" d="M617.5 1492.25h24"/>
  <text font-family="sans-serif" font-size="14" lengthAdjust="spacingAndGlyphs" textLength="109" x="687.5" y="119.081">
    Position Facade
  </text>
  <circle cx="745" cy="90.086" fill="#FEFECE" filter="url(#a)" stroke="#a80036" stroke-width="2" r="12"/>
  <path stroke="#a80036" stroke-width="2" d="M733 104.086h24"/>
  <text font-family="sans-serif" font-size="14" lengthAdjust="spacingAndGlyphs" textLength="109" x="687.5" y="1458.948">
    Position Facade
  </text>
  <circle cx="745" cy="1478.25" fill="#FEFECE" filter="url(#a)" stroke="#a80036" stroke-width="2" r="12"/>
  <path stroke="#a80036" stroke-width="2" d="M733 1492.25h24"/>
  <text font-family="sans-serif" font-size="14" lengthAdjust="spacingAndGlyphs" textLength="90" x="1181" y="119.081">
    Central Store
  </text>
  <path d="M1211 70.086c0-10 18-10 18-10s18 0 18 10v26c0 10-18 10-18 10s-18 0-18-10v-26" fill="#FEFECE" filter="url(#a)" stroke="#000" stroke-width="1.5"/>
  <path d="M1211 70.086c0 10 18 10 18 10s18 0 18-10" fill="none" stroke="#000" stroke-width="1.5"/>
  <text font-family="sans-serif" font-size="14" lengthAdjust="spacingAndGlyphs" textLength="90" x="1181" y="1458.948">
    Central Store
  </text>
  <path d="M1211 1472.25c0-10 18-10 18-10s18 0 18 10v26c0 10-18 10-18 10s-18 0-18-10v-26" fill="#FEFECE" filter="url(#a)" stroke="#000" stroke-width="1.5"/>
  <path d="M1211 1472.25c0 10 18 10 18 10s18 0 18-10" fill="none" stroke="#000" stroke-width="1.5"/>
  <path fill="#FFF" filter="url(#a)" stroke="#a80036" d="M84 132.383h10v1304.57H84zM492 1391.953h10v30h-10zM624.5 192.781h10v135.664h-10zM740 454.109h10V953.5h-10zM1224 221.914h10v77.398h-10zM1224 507.375h10v62.266h-10zM1224 640.906h10v30h-10zM1224 748.305h10v30h-10z"/>
  <path d="M10 139.383h281v7l-10 10H10v-17" fill="#EEE" stroke="#000"/>
  <path fill="none" stroke="#000" stroke-width="2" d="M10 139.383h1486v1290.57H10z"/>
  <text font-family="sans-serif" font-size="13" font-weight="bold" lengthAdjust="spacingAndGlyphs" textLength="236" x="25" y="152.45">
    Fulfil Position Handler Consume
  </text>
  <path fill="#A80036" stroke="#a80036" d="M612.5 188.781l10 4-10 4 4-4z"/>
  <path stroke="#a80036" d="M94 192.781h524.5"/>
  <text font-family="sans-serif" font-size="13" font-weight="bold" lengthAdjust="spacingAndGlyphs" textLength="9" x="101" y="180.149">
    1
  </text>
  <text font-family="sans-serif" font-size="13" lengthAdjust="spacingAndGlyphs" textLength="266" x="114" y="172.583">
    Request current state of transfer from DB
  </text>
  <text fill="red" font-family="sans-serif" font-size="13" font-weight="bold" lengthAdjust="spacingAndGlyphs" textLength="82" x="114" y="187.715">
    Error code:
  </text>
  <text fill="red" font-family="sans-serif" font-size="13" lengthAdjust="spacingAndGlyphs" textLength="32" x="200" y="187.715">
    2003
  </text>
  <path fill="#A80036" stroke="#a80036" d="M1212 217.914l10 4-10 4 4-4z"/>
  <path stroke="#a80036" d="M634.5 221.914H1218"/>
  <text font-family="sans-serif" font-size="13" font-weight="bold" lengthAdjust="spacingAndGlyphs" textLength="9" x="641.5" y="216.848">
    2
  </text>
  <text font-family="sans-serif" font-size="13" lengthAdjust="spacingAndGlyphs" textLength="266" x="654.5" y="216.848">
    Retrieve current state of transfer from DB
  </text>
  <path fill="#FFFFE0" filter="url(#a)" stroke="#a80036" d="M1160 234.914h138l10 19-10 19h-138l-10-19 10-19z"/>
  <text font-family="sans-serif" font-size="13" lengthAdjust="spacingAndGlyphs" textLength="134" x="1162" y="250.981">
    transferStateChange
  </text>
  <text font-family="sans-serif" font-size="13" lengthAdjust="spacingAndGlyphs" textLength="118" x="1162" y="266.114">
    transferParticipant
  </text>
  <path fill="#A80036" stroke="#a80036" d="M645.5 295.313l-10 4 10 4-4-4z"/>
  <path stroke="#a80036" stroke-dasharray="2,2" d="M639.5 299.313H1228"/>
  <text font-family="sans-serif" font-size="13" font-weight="bold" lengthAdjust="spacingAndGlyphs" textLength="9" x="651.5" y="294.247">
    3
  </text>
  <text font-family="sans-serif" font-size="13" lengthAdjust="spacingAndGlyphs" textLength="256" x="664.5" y="294.247">
    Return current state of transfer from DB
  </text>
  <path fill="#A80036" stroke="#a80036" d="M105 324.445l-10 4 10 4-4-4z"/>
  <path stroke="#a80036" stroke-dasharray="2,2" d="M99 328.445h529.5"/>
  <text font-family="sans-serif" font-size="13" font-weight="bold" lengthAdjust="spacingAndGlyphs" textLength="9" x="111" y="323.379">
    4
  </text>
  <text font-family="sans-serif" font-size="13" lengthAdjust="spacingAndGlyphs" textLength="256" x="124" y="323.379">
    Return current state of transfer from DB
  </text>
  <path stroke="#a80036" d="M94 372.711h42M136 372.711v13M95 385.711h41"/>
  <path fill="#A80036" stroke="#a80036" d="M105 381.71l-10 4 10 4-4-4z"/>
  <text font-family="sans-serif" font-size="13" font-weight="bold" lengthAdjust="spacingAndGlyphs" textLength="9" x="101" y="360.079">
    5
  </text>
  <text font-family="sans-serif" font-size="13" lengthAdjust="spacingAndGlyphs" textLength="371" x="114" y="352.512">
    Validate current state (transferState is &apos;RECEIVED-FULFIL&apos;)
  </text>
  <text fill="red" font-family="sans-serif" font-size="13" font-weight="bold" lengthAdjust="spacingAndGlyphs" textLength="82" x="114" y="367.645">
    Error code:
  </text>
  <text fill="red" font-family="sans-serif" font-size="13" lengthAdjust="spacingAndGlyphs" textLength="32" x="200" y="367.645">
    2001
  </text>
  <path d="M20 400.71h794v7l-10 10H20v-17" fill="#EEE" stroke="#000"/>
  <path fill="none" stroke="#000" stroke-width="2" d="M20 400.711h1466V961.5H20z"/>
  <text font-family="sans-serif" font-size="13" font-weight="bold" lengthAdjust="spacingAndGlyphs" textLength="749" x="35" y="413.778">
    Persist Position change and Transfer State (with transferState=&apos;COMMITTED&apos; on position check pass)
  </text>
  <path fill="#A80036" stroke="#a80036" d="M728 450.11l10 4-10 4 4-4z"/>
  <path stroke="#a80036" d="M94 454.109h640"/>
  <text font-family="sans-serif" font-size="13" font-weight="bold" lengthAdjust="spacingAndGlyphs" textLength="9" x="101" y="441.477">
    6
  </text>
  <text font-family="sans-serif" font-size="13" lengthAdjust="spacingAndGlyphs" textLength="315" x="114" y="433.911">
    Request to persist latest position and state to DB
  </text>
  <text fill="red" font-family="sans-serif" font-size="13" font-weight="bold" lengthAdjust="spacingAndGlyphs" textLength="82" x="114" y="449.043">
    Error code:
  </text>
  <text fill="red" font-family="sans-serif" font-size="13" lengthAdjust="spacingAndGlyphs" textLength="32" x="200" y="449.043">
    2003
  </text>
  <path d="M677.5 469.11h173v7l-10 10h-163v-17" fill="#EEE" stroke="#000"/>
  <path fill="none" stroke="#000" stroke-width="2" d="M677.5 469.109H1476v456.258H677.5z"/>
  <text fill="#00F" font-family="sans-serif" font-size="13" font-weight="bold" lengthAdjust="spacingAndGlyphs" textLength="128" x="692.5" y="482.176">
    DB TRANSACTION
  </text>
  <path fill="#A80036" stroke="#a80036" d="M1212 503.375l10 4-10 4 4-4z"/>
  <path stroke="#a80036" d="M750 507.375h468"/>
  <text font-family="sans-serif" font-size="13" font-weight="bold" lengthAdjust="spacingAndGlyphs" textLength="9" x="757" y="502.309">
    7
  </text>
  <text font-family="sans-serif" font-size="13" lengthAdjust="spacingAndGlyphs" textLength="406" x="770" y="502.309">
    Select participantPosition.value FOR UPDATE from DB for Payee
  </text>
  <path fill="#FFFFE0" filter="url(#a)" stroke="#a80036" d="M1168 520.375h122l10 11-10 12h-122l-10-12 10-11z"/>
  <text font-family="sans-serif" font-size="13" lengthAdjust="spacingAndGlyphs" textLength="118" x="1170" y="536.442">
    participantPosition
  </text>
  <path fill="#A80036" stroke="#a80036" d="M761 565.64l-10 4 10 4-4-4z"/>
  <path stroke="#a80036" stroke-dasharray="2,2" d="M755 569.641h473"/>
  <text font-family="sans-serif" font-size="13" font-weight="bold" lengthAdjust="spacingAndGlyphs" textLength="9" x="767" y="564.575">
    8
  </text>
  <text font-family="sans-serif" font-size="13" lengthAdjust="spacingAndGlyphs" textLength="323" x="780" y="564.575">
    Return participantPosition.value from DB for Payee
  </text>
  <path stroke="#a80036" d="M750 598.773h42M792 598.773v13M751 611.773h41"/>
  <path fill="#A80036" stroke="#a80036" d="M761 607.773l-10 4 10 4-4-4z"/>
  <text font-family="sans-serif" font-size="13" font-weight="bold" lengthAdjust="spacingAndGlyphs" textLength="9" x="757" y="593.707">
    9
  </text>
  <text font-family="sans-serif" font-size="13" font-weight="bold" lengthAdjust="spacingAndGlyphs" textLength="101" x="770" y="593.707">
    latestPosition
  </text>
  <text font-family="sans-serif" font-size="13" lengthAdjust="spacingAndGlyphs" textLength="342" x="875" y="593.707">
    = participantPosition.value - payload.amount.amount
  </text>
  <path fill="#A80036" stroke="#a80036" d="M1212 636.906l10 4-10 4 4-4z"/>
  <path stroke="#a80036" d="M750 640.906h468"/>
  <text font-family="sans-serif" font-size="13" font-weight="bold" lengthAdjust="spacingAndGlyphs" textLength="18" x="757" y="635.84">
    10
  </text>
  <text font-family="sans-serif" font-size="13" lengthAdjust="spacingAndGlyphs" textLength="237" x="779" y="635.84">
    Persist latestPosition to DB for Payee
  </text>
  <path fill="#FFFFE0" filter="url(#a)" stroke="#a80036" d="M1129 683.906h200l10 19-10 19h-200l-10-19 10-19z"/>
  <text font-family="sans-serif" font-size="13" lengthAdjust="spacingAndGlyphs" textLength="52" x="1131" y="699.973">
    UPDATE
  </text>
  <text font-family="sans-serif" font-size="13" font-weight="bold" lengthAdjust="spacingAndGlyphs" textLength="140" x="1187" y="699.973">
    participantPosition
  </text>
  <text font-family="sans-serif" font-size="13" lengthAdjust="spacingAndGlyphs" textLength="167" x="1131" y="715.106">
    SET value = latestPosition
  </text>
  <path fill="#A80036" stroke="#a80036" d="M1212 744.305l10 4-10 4 4-4z"/>
  <path stroke="#a80036" d="M750 748.305h468"/>
  <text font-family="sans-serif" font-size="13" font-weight="bold" lengthAdjust="spacingAndGlyphs" textLength="18" x="757" y="743.239">
    11
  </text>
  <text font-family="sans-serif" font-size="13" lengthAdjust="spacingAndGlyphs" textLength="339" x="779" y="743.239">
    Persist transfer state and participant position change
  </text>
  <path fill="#FFFFE0" filter="url(#a)" stroke="#a80036" d="M1001 791.305h455l10 64-10 65h-455l-10-65 10-64z"/>
  <text font-family="sans-serif" font-size="13" lengthAdjust="spacingAndGlyphs" textLength="45" x="1003" y="807.372">
    INSERT
  </text>
  <text font-family="sans-serif" font-size="13" font-weight="bold" lengthAdjust="spacingAndGlyphs" textLength="154" x="1052" y="807.372">
    transferStateChange
  </text>
  <text font-family="sans-serif" font-size="13" lengthAdjust="spacingAndGlyphs" textLength="197" x="1210" y="807.372">
    transferStateId = &apos;COMMITTED&apos;
  </text>
  <text font-family="sans-serif" font-size="13" lengthAdjust="spacingAndGlyphs" textLength="45" x="1003" y="837.637">
    INSERT
  </text>
  <text font-family="sans-serif" font-size="13" font-weight="bold" lengthAdjust="spacingAndGlyphs" textLength="196" x="1052" y="837.637">
    participantPositionChange
  </text>
  <text font-family="sans-serif" font-size="13" lengthAdjust="spacingAndGlyphs" textLength="431" x="1003" y="852.77">
    SET participantPositionId = participantPosition.participantPositionId,
  </text>
  <text font-family="sans-serif" font-size="13" lengthAdjust="spacingAndGlyphs" textLength="451" x="1003" y="867.903">
    transferStateChangeId = transferStateChange.transferStateChangeId,
  </text>
  <text font-family="sans-serif" font-size="13" lengthAdjust="spacingAndGlyphs" textLength="143" x="1003" y="883.036">
    value = latestPosition,
  </text>
  <text font-family="sans-serif" font-size="13" lengthAdjust="spacingAndGlyphs" textLength="325" x="1003" y="898.168">
    reservedValue = participantPosition.reservedValue
  </text>
  <text font-family="sans-serif" font-size="13" lengthAdjust="spacingAndGlyphs" textLength="169" x="1003" y="913.301">
    createdDate = new Date()
  </text>
  <path fill="#A80036" stroke="#a80036" d="M105 949.5l-10 4 10 4-4-4z"/>
  <path stroke="#a80036" stroke-dasharray="2,2" d="M99 953.5h645"/>
  <text font-family="sans-serif" font-size="13" font-weight="bold" lengthAdjust="spacingAndGlyphs" textLength="18" x="111" y="948.434">
    12
  </text>
  <text font-family="sans-serif" font-size="13" lengthAdjust="spacingAndGlyphs" textLength="97" x="133" y="948.434">
    Return success
  </text>
  <path d="M99 973.5v373h270v-363l-10-10H99" fill="#FF0" filter="url(#a)" stroke="#a80036"/>
  <path d="M359 973.5v10h10l-10-10" fill="#FF0" stroke="#a80036"/>
  <text font-family="sans-serif" font-size="13" lengthAdjust="spacingAndGlyphs" textLength="61" x="105" y="990.567">
    Message:
  </text>
  <text font-family="sans-serif" font-size="13" lengthAdjust="spacingAndGlyphs" textLength="8" x="105" y="1005.7">
    {
  </text>
  <text font-family="sans-serif" font-size="13" lengthAdjust="spacingAndGlyphs" textLength="213" x="121" y="1020.832">
    id: &lt;transferMessage.transferId&gt;
  </text>
  <text font-family="sans-serif" font-size="13" lengthAdjust="spacingAndGlyphs" textLength="233" x="121" y="1035.965">
    from: &lt;transferMessage.payerFsp&gt;,
  </text>
  <text font-family="sans-serif" font-size="13" lengthAdjust="spacingAndGlyphs" textLength="219" x="121" y="1051.098">
    to: &lt;transferMessage.payeeFsp&gt;,
  </text>
  <text font-family="sans-serif" font-size="13" lengthAdjust="spacingAndGlyphs" textLength="135" x="121" y="1066.231">
    type: application/json
  </text>
  <text font-family="sans-serif" font-size="13" lengthAdjust="spacingAndGlyphs" textLength="65" x="121" y="1081.364">
    content: {
  </text>
  <text font-family="sans-serif" font-size="13" lengthAdjust="spacingAndGlyphs" textLength="190" x="137" y="1096.497">
    headers: &lt;transferHeaders&gt;,
  </text>
  <text font-family="sans-serif" font-size="13" lengthAdjust="spacingAndGlyphs" textLength="187" x="137" y="1111.629">
    payload: &lt;transferMessage&gt;
  </text>
  <text font-family="sans-serif" font-size="13" lengthAdjust="spacingAndGlyphs" textLength="12" x="121" y="1126.762">
    },
  </text>
  <text font-family="sans-serif" font-size="13" lengthAdjust="spacingAndGlyphs" textLength="79" x="121" y="1141.895">
    metadata: {
  </text>
  <text font-family="sans-serif" font-size="13" lengthAdjust="spacingAndGlyphs" textLength="52" x="137" y="1157.028">
    event: {
  </text>
  <text font-family="sans-serif" font-size="13" lengthAdjust="spacingAndGlyphs" textLength="72" x="153" y="1172.161">
    id: &lt;uuid&gt;,
  </text>
  <text font-family="sans-serif" font-size="13" lengthAdjust="spacingAndGlyphs" textLength="193" x="153" y="1187.293">
    responseTo: &lt;previous.uuid&gt;,
  </text>
  <text font-family="sans-serif" font-size="13" lengthAdjust="spacingAndGlyphs" textLength="90" x="153" y="1202.426">
    type: transfer,
  </text>
  <text font-family="sans-serif" font-size="13" lengthAdjust="spacingAndGlyphs" textLength="100" x="153" y="1217.559">
    action: commit,
  </text>
  <text font-family="sans-serif" font-size="13" lengthAdjust="spacingAndGlyphs" textLength="167" x="153" y="1232.692">
    createdAt: &lt;timestamp&gt;,
  </text>
  <text font-family="sans-serif" font-size="13" lengthAdjust="spacingAndGlyphs" textLength="49" x="153" y="1247.825">
    state: {
  </text>
  <text font-family="sans-serif" font-size="13" lengthAdjust="spacingAndGlyphs" textLength="113" x="169" y="1262.957">
    status: &quot;success&quot;,
  </text>
  <text font-family="sans-serif" font-size="13" lengthAdjust="spacingAndGlyphs" textLength="47" x="169" y="1278.09">
    code: 0
  </text>
  <text font-family="sans-serif" font-size="13" lengthAdjust="spacingAndGlyphs" textLength="8" x="153" y="1293.223">
    }
  </text>
  <text font-family="sans-serif" font-size="13" lengthAdjust="spacingAndGlyphs" textLength="8" x="137" y="1308.356">
    }
  </text>
  <text font-family="sans-serif" font-size="13" lengthAdjust="spacingAndGlyphs" textLength="8" x="121" y="1323.489">
    }
  </text>
  <text font-family="sans-serif" font-size="13" lengthAdjust="spacingAndGlyphs" textLength="8" x="105" y="1338.622">
    }
  </text>
  <path fill="#A80036" stroke="#a80036" d="M480 1387.953l10 4-10 4 4-4z"/>
  <path stroke="#a80036" d="M94 1391.953h392"/>
  <text font-family="sans-serif" font-size="13" font-weight="bold" lengthAdjust="spacingAndGlyphs" textLength="18" x="101" y="1379.321">
    13
  </text>
  <text font-family="sans-serif" font-size="13" lengthAdjust="spacingAndGlyphs" textLength="141" x="123" y="1371.754">
    Publish Transfer event
  </text>
  <text fill="red" font-family="sans-serif" font-size="13" font-weight="bold" lengthAdjust="spacingAndGlyphs" textLength="82" x="123" y="1386.887">
    Error code:
  </text>
  <text fill="red" font-family="sans-serif" font-size="13" lengthAdjust="spacingAndGlyphs" textLength="32" x="209" y="1386.887">
    2003
  </text>
</svg>
