<svg xmlns="http://www.w3.org/2000/svg" xmlns:xlink="http://www.w3.org/1999/xlink" contentStyleType="text/css" height="1640px" preserveAspectRatio="none" style="width:1921px;height:1640px;background:#FFFFFF;" version="1.1" viewBox="0 0 1921 1640" width="1921px" zoomAndPan="magnify">
  <title>3.1.0 Get Participant Callback Details</title>
  <defs/>
  <g>
    <text fill="#000000" font-family="sans-serif" font-size="14" font-weight="bold" lengthAdjust="spacing" textLength="295.9482" x="814.1178" y="27.9951">3.1.0 Get Participant Callback Details</text>
    <rect fill="#ADD8E6" height="1584.6406" style="stroke:#181818;stroke-width:0.5;" width="178.1548" x="12.739" y="43.2969"/>
    <text fill="#000000" font-family="sans-serif" font-size="13" font-weight="bold" lengthAdjust="spacing" textLength="172.1548" x="15.739" y="55.3638">ML API Adapter Service</text>
    <rect fill="#FFFFE0" height="1584.6406" style="stroke:#181818;stroke-width:0.5;" width="1179.1235" x="683.6863" y="43.2969"/>
    <text fill="#000000" font-family="sans-serif" font-size="13" font-weight="bold" lengthAdjust="spacing" textLength="119.7739" x="1213.3611" y="55.3638">Central Services</text>
    <rect fill="#FFFFFF" height="1410.9141" style="stroke:#181818;stroke-width:1.0;" width="10" x="96.8164" y="134.7266"/>
    <rect fill="#FFFFFF" height="1365.6484" style="stroke:#181818;stroke-width:1.0;" width="10" x="752.5691" y="179.9922"/>
    <rect fill="#FFFFFF" height="637.1875" style="stroke:#181818;stroke-width:1.0;" width="10" x="1055.6599" y="209.125"/>
    <rect fill="#FFFFFF" height="626.0625" style="stroke:#181818;stroke-width:1.0;" width="10" x="1055.6599" y="875.4453"/>
    <rect fill="#FFFFFF" height="120.5313" style="stroke:#181818;stroke-width:1.0;" width="10" x="1420.5134" y="253.3906"/>
    <rect fill="#FFFFFF" height="185.9297" style="stroke:#181818;stroke-width:1.0;" width="10" x="1420.5134" y="550.7188"/>
    <rect fill="#FFFFFF" height="170.7969" style="stroke:#181818;stroke-width:1.0;" width="10" x="1420.5134" y="934.5156"/>
    <rect fill="#FFFFFF" height="62.2656" style="stroke:#181818;stroke-width:1.0;" width="10" x="1804.4417" y="282.5234"/>
    <rect fill="#FFFFFF" height="127.6641" style="stroke:#181818;stroke-width:1.0;" width="10" x="1804.4417" y="579.8516"/>
    <rect fill="#FFFFFF" height="112.5313" style="stroke:#181818;stroke-width:1.0;" width="10" x="1804.4417" y="963.6484"/>
    <rect fill="none" height="1403.9141" style="stroke:#000000;stroke-width:1.5;" width="1905.4448" x="10" y="141.7266"/>
    <rect fill="none" height="1107.5859" style="stroke:#000000;stroke-width:1.5;" width="1885.4448" x="20" y="431.0547"/>
    <rect fill="none" height="800.1875" style="stroke:#000000;stroke-width:1.5;" width="1865.4448" x="30" y="497.3203"/>
    <line style="stroke:#181818;stroke-width:0.5;stroke-dasharray:5.0,5.0;" x1="101" x2="101" y1="124.7266" y2="1562.6406"/>
    <line style="stroke:#181818;stroke-width:0.5;stroke-dasharray:5.0,5.0;" x1="756.6863" x2="756.6863" y1="124.7266" y2="1562.6406"/>
    <line style="stroke:#181818;stroke-width:0.5;stroke-dasharray:5.0,5.0;" x1="1060.0867" x2="1060.0867" y1="124.7266" y2="1562.6406"/>
    <line style="stroke:#181818;stroke-width:0.5;stroke-dasharray:5.0,5.0;" x1="1424.8142" x2="1424.8142" y1="124.7266" y2="1562.6406"/>
    <line style="stroke:#181818;stroke-width:0.5;stroke-dasharray:5.0,5.0;" x1="1809.0735" x2="1809.0735" y1="124.7266" y2="1562.6406"/>
    <text fill="#000000" font-family="sans-serif" font-size="14" lengthAdjust="spacing" textLength="117.6328" x="40" y="121.4248">ML-API-ADAPTER</text>
    <ellipse cx="101.8164" cy="92.4297" fill="#E2E2F0" rx="12" ry="12" style="stroke:#181818;stroke-width:0.5;"/>
    <line style="stroke:#181818;stroke-width:0.5;" x1="89.8164" x2="113.8164" y1="106.4297" y2="106.4297"/>
    <text fill="#000000" font-family="sans-serif" font-size="14" lengthAdjust="spacing" textLength="117.6328" x="40" y="1574.6357">ML-API-ADAPTER</text>
    <ellipse cx="101.8164" cy="1593.9375" fill="#E2E2F0" rx="12" ry="12" style="stroke:#181818;stroke-width:0.5;"/>
    <line style="stroke:#181818;stroke-width:0.5;" x1="89.8164" x2="113.8164" y1="1607.9375" y2="1607.9375"/>
    <text fill="#000000" font-family="sans-serif" font-size="14" lengthAdjust="spacing" textLength="133.7656" x="687.6863" y="121.4248">Central Service API</text>
    <path d="M737.0691,80.4297 L737.0691,104.4297 M737.0691,92.4297 L754.0691,92.4297 " fill="none" style="stroke:#181818;stroke-width:0.5;"/>
    <ellipse cx="766.0691" cy="92.4297" fill="#E2E2F0" rx="12" ry="12" style="stroke:#181818;stroke-width:0.5;"/>
    <text fill="#000000" font-family="sans-serif" font-size="14" lengthAdjust="spacing" textLength="133.7656" x="687.6863" y="1574.6357">Central Service API</text>
    <path d="M737.0691,1581.9375 L737.0691,1605.9375 M737.0691,1593.9375 L754.0691,1593.9375 " fill="none" style="stroke:#181818;stroke-width:0.5;"/>
    <ellipse cx="766.0691" cy="1593.9375" fill="#E2E2F0" rx="12" ry="12" style="stroke:#181818;stroke-width:0.5;"/>
    <text fill="#000000" font-family="sans-serif" font-size="14" lengthAdjust="spacing" textLength="135.1465" x="990.0867" y="121.4248">Participant Handler</text>
    <ellipse cx="1060.6599" cy="92.4297" fill="#E2E2F0" rx="12" ry="12" style="stroke:#181818;stroke-width:0.5;"/>
    <polygon fill="#181818" points="1056.6599,80.4297,1062.6599,75.4297,1060.6599,80.4297,1062.6599,85.4297,1056.6599,80.4297" style="stroke:#181818;stroke-width:1.0;"/>
    <text fill="#000000" font-family="sans-serif" font-size="14" lengthAdjust="spacing" textLength="135.1465" x="990.0867" y="1574.6357">Participant Handler</text>
    <ellipse cx="1060.6599" cy="1593.9375" fill="#E2E2F0" rx="12" ry="12" style="stroke:#181818;stroke-width:0.5;"/>
    <polygon fill="#181818" points="1056.6599,1581.9375,1062.6599,1576.9375,1060.6599,1581.9375,1062.6599,1586.9375,1056.6599,1581.9375" style="stroke:#181818;stroke-width:1.0;"/>
    <text fill="#000000" font-family="sans-serif" font-size="14" lengthAdjust="spacing" textLength="111.3984" x="1366.8142" y="121.4248">Participant DAO</text>
    <ellipse cx="1425.5134" cy="92.4297" fill="#E2E2F0" rx="12" ry="12" style="stroke:#181818;stroke-width:0.5;"/>
    <line style="stroke:#181818;stroke-width:0.5;" x1="1413.5134" x2="1437.5134" y1="106.4297" y2="106.4297"/>
    <text fill="#000000" font-family="sans-serif" font-size="14" lengthAdjust="spacing" textLength="111.3984" x="1366.8142" y="1574.6357">Participant DAO</text>
    <ellipse cx="1425.5134" cy="1593.9375" fill="#E2E2F0" rx="12" ry="12" style="stroke:#181818;stroke-width:0.5;"/>
    <line style="stroke:#181818;stroke-width:0.5;" x1="1413.5134" x2="1437.5134" y1="1607.9375" y2="1607.9375"/>
    <text fill="#000000" font-family="sans-serif" font-size="14" lengthAdjust="spacing" textLength="92.7363" x="1760.0735" y="121.4248">Central Store</text>
    <path d="M1791.4417,72.4297 C1791.4417,62.4297 1809.4417,62.4297 1809.4417,62.4297 C1809.4417,62.4297 1827.4417,62.4297 1827.4417,72.4297 L1827.4417,98.4297 C1827.4417,108.4297 1809.4417,108.4297 1809.4417,108.4297 C1809.4417,108.4297 1791.4417,108.4297 1791.4417,98.4297 L1791.4417,72.4297 " fill="#E2E2F0" style="stroke:#181818;stroke-width:1.5;"/>
    <path d="M1791.4417,72.4297 C1791.4417,82.4297 1809.4417,82.4297 1809.4417,82.4297 C1809.4417,82.4297 1827.4417,82.4297 1827.4417,72.4297 " fill="none" style="stroke:#181818;stroke-width:1.5;"/>
    <text fill="#000000" font-family="sans-serif" font-size="14" lengthAdjust="spacing" textLength="92.7363" x="1760.0735" y="1574.6357">Central Store</text>
    <path d="M1791.4417,1587.9375 C1791.4417,1577.9375 1809.4417,1577.9375 1809.4417,1577.9375 C1809.4417,1577.9375 1827.4417,1577.9375 1827.4417,1587.9375 L1827.4417,1613.9375 C1827.4417,1623.9375 1809.4417,1623.9375 1809.4417,1623.9375 C1809.4417,1623.9375 1791.4417,1623.9375 1791.4417,1613.9375 L1791.4417,1587.9375 " fill="#E2E2F0" style="stroke:#181818;stroke-width:1.5;"/>
    <path d="M1791.4417,1587.9375 C1791.4417,1597.9375 1809.4417,1597.9375 1809.4417,1597.9375 C1809.4417,1597.9375 1827.4417,1597.9375 1827.4417,1587.9375 " fill="none" style="stroke:#181818;stroke-width:1.5;"/>
    <rect fill="#FFFFFF" height="1410.9141" style="stroke:#181818;stroke-width:1.0;" width="10" x="96.8164" y="134.7266"/>
    <rect fill="#FFFFFF" height="1365.6484" style="stroke:#181818;stroke-width:1.0;" width="10" x="752.5691" y="179.9922"/>
    <rect fill="#FFFFFF" height="637.1875" style="stroke:#181818;stroke-width:1.0;" width="10" x="1055.6599" y="209.125"/>
    <rect fill="#FFFFFF" height="626.0625" style="stroke:#181818;stroke-width:1.0;" width="10" x="1055.6599" y="875.4453"/>
    <rect fill="#FFFFFF" height="120.5313" style="stroke:#181818;stroke-width:1.0;" width="10" x="1420.5134" y="253.3906"/>
    <rect fill="#FFFFFF" height="185.9297" style="stroke:#181818;stroke-width:1.0;" width="10" x="1420.5134" y="550.7188"/>
    <rect fill="#FFFFFF" height="170.7969" style="stroke:#181818;stroke-width:1.0;" width="10" x="1420.5134" y="934.5156"/>
    <rect fill="#FFFFFF" height="62.2656" style="stroke:#181818;stroke-width:1.0;" width="10" x="1804.4417" y="282.5234"/>
    <rect fill="#FFFFFF" height="127.6641" style="stroke:#181818;stroke-width:1.0;" width="10" x="1804.4417" y="579.8516"/>
    <rect fill="#FFFFFF" height="112.5313" style="stroke:#181818;stroke-width:1.0;" width="10" x="1804.4417" y="963.6484"/>
    <path d="M10,141.7266 L202.6528,141.7266 L202.6528,148.8594 L192.6528,158.8594 L10,158.8594 L10,141.7266 " fill="#EEEEEE" style="stroke:#000000;stroke-width:1.5;"/>
    <rect fill="none" height="1403.9141" style="stroke:#000000;stroke-width:1.5;" width="1905.4448" x="10" y="141.7266"/>
    <text fill="#000000" font-family="sans-serif" font-size="13" font-weight="bold" lengthAdjust="spacing" textLength="147.6528" x="25" y="154.7935">Get Callback Details</text>
    <polygon fill="#181818" points="740.5691,175.9922,750.5691,179.9922,740.5691,183.9922,744.5691,179.9922" style="stroke:#181818;stroke-width:1.0;"/>
    <line style="stroke:#181818;stroke-width:1.0;" x1="106.8164" x2="746.5691" y1="179.9922" y2="179.9922"/>
    <text fill="#000000" font-family="sans-serif" font-size="13" font-weight="bold" lengthAdjust="spacing" textLength="9.0454" x="113.8164" y="174.9263">1</text>
    <text fill="#000000" font-family="sans-serif" font-size="13" lengthAdjust="spacing" textLength="590.4463" x="126.8618" y="174.9263">Request to get callback details - GET - /participants/{name}/endpoints?type={typeValue}</text>
    <polygon fill="#181818" points="1043.6599,205.125,1053.6599,209.125,1043.6599,213.125,1047.6599,209.125" style="stroke:#181818;stroke-width:1.0;"/>
    <line style="stroke:#181818;stroke-width:1.0;" x1="762.5691" x2="1049.6599" y1="209.125" y2="209.125"/>
    <text fill="#000000" font-family="sans-serif" font-size="13" font-weight="bold" lengthAdjust="spacing" textLength="9.0454" x="769.5691" y="204.0591">2</text>
    <text fill="#000000" font-family="sans-serif" font-size="13" lengthAdjust="spacing" textLength="239.0083" x="782.6145" y="204.0591">Fetch Callback details for Participant</text>
    <polygon fill="#181818" points="1408.5134,249.3906,1418.5134,253.3906,1408.5134,257.3906,1412.5134,253.3906" style="stroke:#181818;stroke-width:1.0;"/>
    <line style="stroke:#181818;stroke-width:1.0;" x1="1065.6599" x2="1414.5134" y1="253.3906" y2="253.3906"/>
    <text fill="#000000" font-family="sans-serif" font-size="13" font-weight="bold" lengthAdjust="spacing" textLength="9.0454" x="1072.6599" y="240.7583">3</text>
    <text fill="#000000" font-family="sans-serif" font-size="13" lengthAdjust="spacing" textLength="110.2651" x="1085.7053" y="233.1919">Fetch Participant</text>
    <text fill="#FF0000" font-family="sans-serif" font-size="13" font-weight="bold" lengthAdjust="spacing" textLength="81.5293" x="1085.7053" y="248.3247">Error code:</text>
    <text fill="#FF0000" font-family="sans-serif" font-size="13" lengthAdjust="spacing" textLength="33.084" x="1171.3669" y="248.3247">3200</text>
    <polygon fill="#181818" points="1792.4417,278.5234,1802.4417,282.5234,1792.4417,286.5234,1796.4417,282.5234" style="stroke:#181818;stroke-width:1.0;"/>
    <line style="stroke:#181818;stroke-width:1.0;" x1="1430.5134" x2="1798.4417" y1="282.5234" y2="282.5234"/>
    <text fill="#000000" font-family="sans-serif" font-size="13" font-weight="bold" lengthAdjust="spacing" textLength="9.0454" x="1437.5134" y="277.4575">4</text>
    <text fill="#000000" font-family="sans-serif" font-size="13" lengthAdjust="spacing" textLength="110.2651" x="1450.5588" y="277.4575">Fetch Participant</text>
    <polygon fill="#FFFFE0" points="1772,295.5234,1846,295.5234,1856,306.5234,1846,318.5234,1772,318.5234,1762,306.5234,1772,295.5234" style="stroke:#181818;stroke-width:0.5;"/>
    <text fill="#000000" font-family="sans-serif" font-size="13" lengthAdjust="spacing" textLength="70.5859" x="1774" y="311.5903">participant</text>
    <polygon fill="#181818" points="1441.5134,340.7891,1431.5134,344.7891,1441.5134,348.7891,1437.5134,344.7891" style="stroke:#181818;stroke-width:1.0;"/>
    <line style="stroke:#181818;stroke-width:1.0;stroke-dasharray:2.0,2.0;" x1="1435.5134" x2="1808.4417" y1="344.7891" y2="344.7891"/>
    <text fill="#000000" font-family="sans-serif" font-size="13" font-weight="bold" lengthAdjust="spacing" textLength="9.0454" x="1447.5134" y="339.7231">5</text>
    <text fill="#000000" font-family="sans-serif" font-size="13" lengthAdjust="spacing" textLength="137.3315" x="1460.5588" y="339.7231">Retrieved Participant</text>
    <polygon fill="#181818" points="1076.6599,369.9219,1066.6599,373.9219,1076.6599,377.9219,1072.6599,373.9219" style="stroke:#181818;stroke-width:1.0;"/>
    <line style="stroke:#181818;stroke-width:1.0;stroke-dasharray:2.0,2.0;" x1="1070.6599" x2="1424.5134" y1="373.9219" y2="373.9219"/>
    <text fill="#000000" font-family="sans-serif" font-size="13" font-weight="bold" lengthAdjust="spacing" textLength="9.0454" x="1082.6599" y="368.856">6</text>
    <text fill="#000000" font-family="sans-serif" font-size="13" lengthAdjust="spacing" textLength="118.2568" x="1095.7053" y="368.856">Return Participant</text>
    <line style="stroke:#181818;stroke-width:1.0;" x1="1065.6599" x2="1107.6599" y1="403.0547" y2="403.0547"/>
    <line style="stroke:#181818;stroke-width:1.0;" x1="1107.6599" x2="1107.6599" y1="403.0547" y2="416.0547"/>
    <line style="stroke:#181818;stroke-width:1.0;" x1="1066.6599" x2="1107.6599" y1="416.0547" y2="416.0547"/>
    <polygon fill="#181818" points="1076.6599,412.0547,1066.6599,416.0547,1076.6599,420.0547,1072.6599,416.0547" style="stroke:#181818;stroke-width:1.0;"/>
    <text fill="#000000" font-family="sans-serif" font-size="13" font-weight="bold" lengthAdjust="spacing" textLength="9.0454" x="1072.6599" y="397.9888">7</text>
    <text fill="#000000" font-family="sans-serif" font-size="13" lengthAdjust="spacing" textLength="91.1079" x="1085.7053" y="397.9888">Validate DFSP</text>
    <path d="M20,431.0547 L84.4429,431.0547 L84.4429,438.1875 L74.4429,448.1875 L20,448.1875 L20,431.0547 " fill="#EEEEEE" style="stroke:#000000;stroke-width:1.5;"/>
    <rect fill="none" height="1107.5859" style="stroke:#000000;stroke-width:1.5;" width="1885.4448" x="20" y="431.0547"/>
    <text fill="#000000" font-family="sans-serif" font-size="13" font-weight="bold" lengthAdjust="spacing" textLength="19.4429" x="35" y="444.1216">alt</text>
    <text fill="#000000" font-family="sans-serif" font-size="11" font-weight="bold" lengthAdjust="spacing" textLength="195.6636" x="99.4429" y="443.2651">[Validate participant (success)]</text>
    <line style="stroke:#181818;stroke-width:1.0;" x1="1065.6599" x2="1107.6599" y1="469.3203" y2="469.3203"/>
    <line style="stroke:#181818;stroke-width:1.0;" x1="1107.6599" x2="1107.6599" y1="469.3203" y2="482.3203"/>
    <line style="stroke:#181818;stroke-width:1.0;" x1="1066.6599" x2="1107.6599" y1="482.3203" y2="482.3203"/>
    <polygon fill="#181818" points="1076.6599,478.3203,1066.6599,482.3203,1076.6599,486.3203,1072.6599,482.3203" style="stroke:#181818;stroke-width:1.0;"/>
    <text fill="#000000" font-family="sans-serif" font-size="13" font-weight="bold" lengthAdjust="spacing" textLength="9.0454" x="1072.6599" y="464.2544">8</text>
    <text fill="#000000" font-family="sans-serif" font-size="13" lengthAdjust="spacing" textLength="215.0332" x="1085.7053" y="464.2544">check if &quot;type&quot; parameter is sent</text>
    <path d="M30,497.3203 L94.4429,497.3203 L94.4429,504.4531 L84.4429,514.4531 L30,514.4531 L30,497.3203 " fill="#EEEEEE" style="stroke:#000000;stroke-width:1.5;"/>
    <rect fill="none" height="800.1875" style="stroke:#000000;stroke-width:1.5;" width="1865.4448" x="30" y="497.3203"/>
    <text fill="#000000" font-family="sans-serif" font-size="13" font-weight="bold" lengthAdjust="spacing" textLength="19.4429" x="45" y="510.3872">alt</text>
    <text fill="#000000" font-family="sans-serif" font-size="11" font-weight="bold" lengthAdjust="spacing" textLength="259.166" x="109.4429" y="509.5308">[Check if &quot;type&quot; parameter is sent (Sent)]</text>
    <polygon fill="#181818" points="1408.5134,546.7188,1418.5134,550.7188,1408.5134,554.7188,1412.5134,550.7188" style="stroke:#181818;stroke-width:1.0;"/>
    <line style="stroke:#181818;stroke-width:1.0;" x1="1065.6599" x2="1414.5134" y1="550.7188" y2="550.7188"/>
    <text fill="#000000" font-family="sans-serif" font-size="13" font-weight="bold" lengthAdjust="spacing" textLength="9.0454" x="1072.6599" y="538.0864">9</text>
    <text fill="#000000" font-family="sans-serif" font-size="13" lengthAdjust="spacing" textLength="300.771" x="1085.7053" y="530.52">Fetch Callback details for Participant and type</text>
    <text fill="#FF0000" font-family="sans-serif" font-size="13" font-weight="bold" lengthAdjust="spacing" textLength="81.5293" x="1085.7053" y="545.6528">Error code:</text>
    <text fill="#FF0000" font-family="sans-serif" font-size="13" lengthAdjust="spacing" textLength="33.084" x="1171.3669" y="545.6528">3000</text>
    <polygon fill="#181818" points="1792.4417,575.8516,1802.4417,579.8516,1792.4417,583.8516,1796.4417,579.8516" style="stroke:#181818;stroke-width:1.0;"/>
    <line style="stroke:#181818;stroke-width:1.0;" x1="1430.5134" x2="1798.4417" y1="579.8516" y2="579.8516"/>
    <text fill="#000000" font-family="sans-serif" font-size="13" font-weight="bold" lengthAdjust="spacing" textLength="18.0908" x="1437.5134" y="574.7856">10</text>
    <text fill="#000000" font-family="sans-serif" font-size="13" lengthAdjust="spacing" textLength="300.771" x="1459.6042" y="574.7856">Fetch Callback details for Participant and type</text>
    <path d="M1435,592.8516 L1435,647.8516 L1654,647.8516 L1654,602.8516 L1644,592.8516 L1435,592.8516 " fill="#D3D3D3" style="stroke:#181818;stroke-width:0.5;"/>
    <path d="M1644,592.8516 L1644,602.8516 L1654,602.8516 L1644,592.8516 " fill="#D3D3D3" style="stroke:#181818;stroke-width:0.5;"/>
    <text fill="#000000" font-family="sans-serif" font-size="13" lengthAdjust="spacing" textLength="66.4155" x="1441" y="609.9185">Condition:</text>
    <text fill="#000000" font-family="sans-serif" font-size="13" lengthAdjust="spacing" textLength="78.2539" x="1457.5293" y="625.0513">isActive = 1</text>
    <text fill="#000000" font-family="sans-serif" font-size="13" lengthAdjust="spacing" textLength="181.7397" x="1457.5293" y="640.1841">[endpointTypeId = &lt;type&gt;]</text>
    <polygon fill="#FFFFE0" points="1743,658.25,1875,658.25,1885,669.25,1875,681.25,1743,681.25,1733,669.25,1743,658.25" style="stroke:#181818;stroke-width:0.5;"/>
    <text fill="#000000" font-family="sans-serif" font-size="13" lengthAdjust="spacing" textLength="128.4448" x="1745" y="674.3169">participantEndpoint</text>
    <polygon fill="#181818" points="1441.5134,703.5156,1431.5134,707.5156,1441.5134,711.5156,1437.5134,707.5156" style="stroke:#181818;stroke-width:1.0;"/>
    <line style="stroke:#181818;stroke-width:1.0;stroke-dasharray:2.0,2.0;" x1="1435.5134" x2="1808.4417" y1="707.5156" y2="707.5156"/>
    <text fill="#000000" font-family="sans-serif" font-size="13" font-weight="bold" lengthAdjust="spacing" textLength="18.0908" x="1447.5134" y="702.4497">11</text>
    <text fill="#000000" font-family="sans-serif" font-size="13" lengthAdjust="spacing" textLength="327.8374" x="1469.6042" y="702.4497">Retrieved Callback details for Participant and type</text>
    <polygon fill="#181818" points="1076.6599,732.6484,1066.6599,736.6484,1076.6599,740.6484,1072.6599,736.6484" style="stroke:#181818;stroke-width:1.0;"/>
    <line style="stroke:#181818;stroke-width:1.0;stroke-dasharray:2.0,2.0;" x1="1070.6599" x2="1424.5134" y1="736.6484" y2="736.6484"/>
    <text fill="#000000" font-family="sans-serif" font-size="13" font-weight="bold" lengthAdjust="spacing" textLength="18.0908" x="1082.6599" y="731.5825">12</text>
    <text fill="#000000" font-family="sans-serif" font-size="13" lengthAdjust="spacing" textLength="308.7627" x="1104.7507" y="731.5825">Return Callback details for Participant and type</text>
    <path d="M1070,749.6484 L1070,819.6484 L1394,819.6484 L1394,759.6484 L1384,749.6484 L1070,749.6484 " fill="#FFFF00" style="stroke:#181818;stroke-width:0.5;"/>
    <path d="M1384,749.6484 L1384,759.6484 L1394,759.6484 L1384,749.6484 " fill="#FFFF00" style="stroke:#181818;stroke-width:0.5;"/>
    <text fill="#000000" font-family="sans-serif" font-size="13" lengthAdjust="spacing" textLength="61.3564" x="1076" y="766.7153">Message:</text>
    <text fill="#000000" font-family="sans-serif" font-size="13" lengthAdjust="spacing" textLength="8.271" x="1076" y="781.8481">{</text>
    <text fill="#000000" font-family="sans-serif" font-size="13" lengthAdjust="spacing" textLength="287.4282" x="1092.5293" y="796.981">endpoints: {type: &lt;type&gt;, value: &lt;value&gt;}</text>
    <text fill="#000000" font-family="sans-serif" font-size="13" lengthAdjust="spacing" textLength="8.271" x="1076" y="812.1138">}</text>
    <polygon fill="#181818" points="773.5691,842.3125,763.5691,846.3125,773.5691,850.3125,769.5691,846.3125" style="stroke:#181818;stroke-width:1.0;"/>
    <line style="stroke:#181818;stroke-width:1.0;stroke-dasharray:2.0,2.0;" x1="767.5691" x2="1059.6599" y1="846.3125" y2="846.3125"/>
    <text fill="#000000" font-family="sans-serif" font-size="13" font-weight="bold" lengthAdjust="spacing" textLength="18.0908" x="779.5691" y="841.2466">13</text>
    <text fill="#000000" font-family="sans-serif" font-size="13" lengthAdjust="spacing" textLength="247" x="801.6599" y="841.2466">Return Callback details for Participant</text>
    <polygon fill="#181818" points="117.8164,871.4453,107.8164,875.4453,117.8164,879.4453,113.8164,875.4453" style="stroke:#181818;stroke-width:1.0;"/>
    <line style="stroke:#181818;stroke-width:1.0;stroke-dasharray:2.0,2.0;" x1="111.8164" x2="751.5691" y1="875.4453" y2="875.4453"/>
    <text fill="#000000" font-family="sans-serif" font-size="13" font-weight="bold" lengthAdjust="spacing" textLength="18.0908" x="123.8164" y="870.3794">14</text>
    <text fill="#000000" font-family="sans-serif" font-size="13" lengthAdjust="spacing" textLength="247" x="145.9072" y="870.3794">Return Callback details for Participant</text>
    <line style="stroke:#000000;stroke-width:1.0;stroke-dasharray:2.0,2.0;" x1="30" x2="1895.4448" y1="884.4453" y2="884.4453"/>
    <text fill="#000000" font-family="sans-serif" font-size="11" font-weight="bold" lengthAdjust="spacing" textLength="285.0171" x="35" y="894.6558">[Check if &quot;type&quot; parameter is sent (Not Sent)]</text>
    <polygon fill="#181818" points="1408.5134,930.5156,1418.5134,934.5156,1408.5134,938.5156,1412.5134,934.5156" style="stroke:#181818;stroke-width:1.0;"/>
    <line style="stroke:#181818;stroke-width:1.0;" x1="1065.6599" x2="1414.5134" y1="934.5156" y2="934.5156"/>
    <text fill="#000000" font-family="sans-serif" font-size="13" font-weight="bold" lengthAdjust="spacing" textLength="18.0908" x="1072.6599" y="921.8833">15</text>
    <text fill="#000000" font-family="sans-serif" font-size="13" lengthAdjust="spacing" textLength="239.0083" x="1094.7507" y="914.3169">Fetch Callback details for Participant</text>
    <text fill="#FF0000" font-family="sans-serif" font-size="13" font-weight="bold" lengthAdjust="spacing" textLength="81.5293" x="1094.7507" y="929.4497">Error code:</text>
    <text fill="#FF0000" font-family="sans-serif" font-size="13" lengthAdjust="spacing" textLength="33.084" x="1180.4124" y="929.4497">3000</text>
    <polygon fill="#181818" points="1792.4417,959.6484,1802.4417,963.6484,1792.4417,967.6484,1796.4417,963.6484" style="stroke:#181818;stroke-width:1.0;"/>
    <line style="stroke:#181818;stroke-width:1.0;" x1="1430.5134" x2="1798.4417" y1="963.6484" y2="963.6484"/>
    <text fill="#000000" font-family="sans-serif" font-size="13" font-weight="bold" lengthAdjust="spacing" textLength="18.0908" x="1437.5134" y="958.5825">16</text>
    <text fill="#000000" font-family="sans-serif" font-size="13" lengthAdjust="spacing" textLength="239.0083" x="1459.6042" y="958.5825">Fetch Callback details for Participant</text>
    <path d="M1435,976.6484 L1435,1016.6484 L1550,1016.6484 L1550,986.6484 L1540,976.6484 L1435,976.6484 " fill="#D3D3D3" style="stroke:#181818;stroke-width:0.5;"/>
    <path d="M1540,976.6484 L1540,986.6484 L1550,986.6484 L1540,976.6484 " fill="#D3D3D3" style="stroke:#181818;stroke-width:0.5;"/>
    <text fill="#000000" font-family="sans-serif" font-size="13" lengthAdjust="spacing" textLength="66.4155" x="1441" y="993.7153">Condition:</text>
    <text fill="#000000" font-family="sans-serif" font-size="13" lengthAdjust="spacing" textLength="78.2539" x="1457.5293" y="1008.8481">isActive = 1</text>
    <polygon fill="#FFFFE0" points="1743,1026.9141,1875,1026.9141,1885,1037.9141,1875,1049.9141,1743,1049.9141,1733,1037.9141,1743,1026.9141" style="stroke:#181818;stroke-width:0.5;"/>
    <text fill="#000000" font-family="sans-serif" font-size="13" lengthAdjust="spacing" textLength="128.4448" x="1745" y="1042.981">participantEndpoint</text>
    <polygon fill="#181818" points="1441.5134,1072.1797,1431.5134,1076.1797,1441.5134,1080.1797,1437.5134,1076.1797" style="stroke:#181818;stroke-width:1.0;"/>
    <line style="stroke:#181818;stroke-width:1.0;stroke-dasharray:2.0,2.0;" x1="1435.5134" x2="1808.4417" y1="1076.1797" y2="1076.1797"/>
    <text fill="#000000" font-family="sans-serif" font-size="13" font-weight="bold" lengthAdjust="spacing" textLength="18.0908" x="1447.5134" y="1071.1138">17</text>
    <text fill="#000000" font-family="sans-serif" font-size="13" lengthAdjust="spacing" textLength="266.0747" x="1469.6042" y="1071.1138">Retrieved Callback details for Participant</text>
    <polygon fill="#181818" points="1076.6599,1101.3125,1066.6599,1105.3125,1076.6599,1109.3125,1072.6599,1105.3125" style="stroke:#181818;stroke-width:1.0;"/>
    <line style="stroke:#181818;stroke-width:1.0;stroke-dasharray:2.0,2.0;" x1="1070.6599" x2="1424.5134" y1="1105.3125" y2="1105.3125"/>
    <text fill="#000000" font-family="sans-serif" font-size="13" font-weight="bold" lengthAdjust="spacing" textLength="18.0908" x="1082.6599" y="1100.2466">18</text>
    <text fill="#000000" font-family="sans-serif" font-size="13" lengthAdjust="spacing" textLength="247" x="1104.7507" y="1100.2466">Return Callback details for Participant</text>
    <path d="M1070,1118.3125 L1070,1233.3125 L1342,1233.3125 L1342,1128.3125 L1332,1118.3125 L1070,1118.3125 " fill="#FFFF00" style="stroke:#181818;stroke-width:0.5;"/>
    <path d="M1332,1118.3125 L1332,1128.3125 L1342,1128.3125 L1332,1118.3125 " fill="#FFFF00" style="stroke:#181818;stroke-width:0.5;"/>
    <text fill="#000000" font-family="sans-serif" font-size="13" lengthAdjust="spacing" textLength="61.3564" x="1076" y="1135.3794">Message:</text>
    <text fill="#000000" font-family="sans-serif" font-size="13" lengthAdjust="spacing" textLength="8.271" x="1076" y="1150.5122">{</text>
    <text fill="#000000" font-family="sans-serif" font-size="13" lengthAdjust="spacing" textLength="78" x="1092.5293" y="1165.645">endpoints: [</text>
    <text fill="#000000" font-family="sans-serif" font-size="13" lengthAdjust="spacing" textLength="218.6323" x="1109.0586" y="1180.7778">{type: &lt;type&gt;, value: &lt;value&gt;},</text>
    <text fill="#000000" font-family="sans-serif" font-size="13" lengthAdjust="spacing" textLength="214.5" x="1109.0586" y="1195.9106">{type: &lt;type&gt;, value: &lt;value&gt;}</text>
    <text fill="#000000" font-family="sans-serif" font-size="13" lengthAdjust="spacing" textLength="5.0718" x="1092.5293" y="1211.0435">]</text>
    <text fill="#000000" font-family="sans-serif" font-size="13" lengthAdjust="spacing" textLength="8.271" x="1076" y="1226.1763">}</text>
    <polygon fill="#181818" points="773.5691,1256.375,763.5691,1260.375,773.5691,1264.375,769.5691,1260.375" style="stroke:#181818;stroke-width:1.0;"/>
    <line style="stroke:#181818;stroke-width:1.0;stroke-dasharray:2.0,2.0;" x1="767.5691" x2="1054.6599" y1="1260.375" y2="1260.375"/>
    <text fill="#000000" font-family="sans-serif" font-size="13" font-weight="bold" lengthAdjust="spacing" textLength="18.0908" x="779.5691" y="1255.3091">19</text>
    <text fill="#000000" font-family="sans-serif" font-size="13" lengthAdjust="spacing" textLength="247" x="801.6599" y="1255.3091">Return Callback details for Participant</text>
    <polygon fill="#181818" points="117.8164,1285.5078,107.8164,1289.5078,117.8164,1293.5078,113.8164,1289.5078" style="stroke:#181818;stroke-width:1.0;"/>
    <line style="stroke:#181818;stroke-width:1.0;stroke-dasharray:2.0,2.0;" x1="111.8164" x2="751.5691" y1="1289.5078" y2="1289.5078"/>
    <text fill="#000000" font-family="sans-serif" font-size="13" font-weight="bold" lengthAdjust="spacing" textLength="18.0908" x="123.8164" y="1284.4419">20</text>
    <text fill="#000000" font-family="sans-serif" font-size="13" lengthAdjust="spacing" textLength="247" x="145.9072" y="1284.4419">Return Callback details for Participant</text>
    <line style="stroke:#000000;stroke-width:1.0;stroke-dasharray:2.0,2.0;" x1="20" x2="1905.4448" y1="1305.5078" y2="1305.5078"/>
    <text fill="#000000" font-family="sans-serif" font-size="11" font-weight="bold" lengthAdjust="spacing" textLength="227.3477" x="25" y="1315.7183">[Validate participant (failure)/ Error]</text>
    <path d="M1070,1324.3125 L1070,1349.3125 L1247,1349.3125 L1247,1334.3125 L1237,1324.3125 L1070,1324.3125 " fill="#FF0000" style="stroke:#181818;stroke-width:0.5;"/>
    <path d="M1237,1324.3125 L1237,1334.3125 L1247,1334.3125 L1237,1324.3125 " fill="#FF0000" style="stroke:#181818;stroke-width:0.5;"/>
    <text fill="#000000" font-family="sans-serif" font-size="13" lengthAdjust="spacing" textLength="156.6094" x="1076" y="1341.3794">Validation failure/ Error!</text>
    <path d="M1070,1359.4453 L1070,1474.4453 L1365,1474.4453 L1365,1369.4453 L1355,1359.4453 L1070,1359.4453 " fill="#FFFF00" style="stroke:#181818;stroke-width:0.5;"/>
    <path d="M1355,1359.4453 L1355,1369.4453 L1365,1369.4453 L1355,1359.4453 " fill="#FFFF00" style="stroke:#181818;stroke-width:0.5;"/>
    <text fill="#000000" font-family="sans-serif" font-size="13" lengthAdjust="spacing" textLength="61.3564" x="1076" y="1376.5122">Message:</text>
    <text fill="#000000" font-family="sans-serif" font-size="13" lengthAdjust="spacing" textLength="8.271" x="1076" y="1391.645">{</text>
    <text fill="#000000" font-family="sans-serif" font-size="13" lengthAdjust="spacing" textLength="136.208" x="1092.5293" y="1406.7778">&quot;errorInformation&quot;: {</text>
    <text fill="#000000" font-family="sans-serif" font-size="13" lengthAdjust="spacing" textLength="176.9219" x="1109.0586" y="1421.9106">&quot;errorCode&quot;: &lt;errorCode&gt;,</text>
    <text fill="#000000" font-family="sans-serif" font-size="13" lengthAdjust="spacing" textLength="241.5918" x="1109.0586" y="1437.0435">&quot;errorDescription&quot;: &lt;ErrorMessage&gt;,</text>
    <text fill="#000000" font-family="sans-serif" font-size="13" lengthAdjust="spacing" textLength="8.271" x="1092.5293" y="1452.1763">}</text>
    <text fill="#000000" font-family="sans-serif" font-size="13" lengthAdjust="spacing" textLength="8.271" x="1076" y="1467.3091">}</text>
    <polygon fill="#181818" points="773.5691,1497.5078,763.5691,1501.5078,773.5691,1505.5078,769.5691,1501.5078" style="stroke:#181818;stroke-width:1.0;"/>
    <line style="stroke:#181818;stroke-width:1.0;stroke-dasharray:2.0,2.0;" x1="767.5691" x2="1059.6599" y1="1501.5078" y2="1501.5078"/>
    <text fill="#000000" font-family="sans-serif" font-size="13" font-weight="bold" lengthAdjust="spacing" textLength="18.0908" x="779.5691" y="1496.4419">21</text>
    <text fill="#000000" font-family="sans-serif" font-size="13" lengthAdjust="spacing" textLength="43.9512" x="801.6599" y="1496.4419">Return</text>
    <text fill="#FF0000" font-family="sans-serif" font-size="13" font-weight="bold" lengthAdjust="spacing" textLength="81.5293" x="849.7434" y="1496.4419">Error code:</text>
    <text fill="#FF0000" font-family="sans-serif" font-size="13" lengthAdjust="spacing" textLength="74.4326" x="935.405" y="1496.4419">3000, 3200</text>
    <polygon fill="#181818" points="117.8164,1526.6406,107.8164,1530.6406,117.8164,1534.6406,113.8164,1530.6406" style="stroke:#181818;stroke-width:1.0;"/>
    <line style="stroke:#181818;stroke-width:1.0;stroke-dasharray:2.0,2.0;" x1="111.8164" x2="751.5691" y1="1530.6406" y2="1530.6406"/>
    <text fill="#000000" font-family="sans-serif" font-size="13" font-weight="bold" lengthAdjust="spacing" textLength="18.0908" x="123.8164" y="1525.5747">22</text>
    <text fill="#000000" font-family="sans-serif" font-size="13" lengthAdjust="spacing" textLength="43.9512" x="145.9072" y="1525.5747">Return</text>
    <text fill="#FF0000" font-family="sans-serif" font-size="13" font-weight="bold" lengthAdjust="spacing" textLength="81.5293" x="193.9907" y="1525.5747">Error code:</text>
    <text fill="#FF0000" font-family="sans-serif" font-size="13" lengthAdjust="spacing" textLength="74.4326" x="279.6523" y="1525.5747">3000, 3200</text>
  </g>
</svg>
