<svg xmlns="http://www.w3.org/2000/svg" xmlns:xlink="http://www.w3.org/1999/xlink" contentStyleType="text/css" height="1267px" preserveAspectRatio="none" style="width:1274px;height:1267px;background:#FFFFFF;" version="1.1" viewBox="0 0 1274 1267" width="1274px" zoomAndPan="magnify">
  <title>1.0.0 Get Health Check</title>
  <defs/>
  <g>
    <text fill="#000000" font-family="sans-serif" font-size="14" font-weight="bold" lengthAdjust="spacing" textLength="181.624" x="548.158" y="27.9951">1.0.0 Get Health Check</text>
    <rect fill="#FFFFE0" height="1211.2344" style="stroke:#181818;stroke-width:0.5;" width="881.0596" x="381.8804" y="43.2969"/>
    <text fill="#000000" font-family="sans-serif" font-size="13" font-weight="bold" lengthAdjust="spacing" textLength="119.7739" x="762.5232" y="55.3638">Central Services</text>
    <rect fill="#FFFFFF" height="686.1172" style="stroke:#181818;stroke-width:1.0;" width="10" x="83.8701" y="134.7266"/>
    <rect fill="#FFFFFF" height="640.8516" style="stroke:#181818;stroke-width:1.0;" width="10" x="450.7632" y="179.9922"/>
    <rect fill="#FFFFFF" height="335.5938" style="stroke:#181818;stroke-width:1.0;" width="10" x="744.3281" y="209.125"/>
    <rect fill="#FFFFFF" height="29.1328" style="stroke:#181818;stroke-width:1.0;" width="10" x="954.8892" y="345.7891"/>
    <rect fill="#FFFFFF" height="29.1328" style="stroke:#181818;stroke-width:1.0;" width="10" x="1063.8252" y="404.0547"/>
    <rect fill="#FFFFFF" height="29.1328" style="stroke:#181818;stroke-width:1.0;" width="10" x="1188.6665" y="462.3203"/>
    <rect fill="none" height="1030.5078" style="stroke:#000000;stroke-width:1.5;" width="1258.9399" x="10" y="141.7266"/>
    <rect fill="none" height="322.3906" style="stroke:#000000;stroke-width:1.5;" width="805.2632" x="20" y="506.4531"/>
    <rect fill="none" height="322.3906" style="stroke:#000000;stroke-width:1.5;" width="805.2632" x="20" y="842.8438"/>
    <line style="stroke:#181818;stroke-width:0.5;stroke-dasharray:5.0,5.0;" x1="88" x2="88" y1="124.7266" y2="1189.2344"/>
    <line style="stroke:#181818;stroke-width:0.5;stroke-dasharray:5.0,5.0;" x1="454.8804" x2="454.8804" y1="124.7266" y2="1189.2344"/>
    <line style="stroke:#181818;stroke-width:0.5;stroke-dasharray:5.0,5.0;" x1="748.3931" x2="748.3931" y1="124.7266" y2="1189.2344"/>
    <line style="stroke:#181818;stroke-width:0.5;stroke-dasharray:5.0,5.0;" x1="959.521" x2="959.521" y1="124.7266" y2="1189.2344"/>
    <line style="stroke:#181818;stroke-width:0.5;stroke-dasharray:5.0,5.0;" x1="1068.2573" x2="1068.2573" y1="124.7266" y2="1189.2344"/>
    <line style="stroke:#181818;stroke-width:0.5;stroke-dasharray:5.0,5.0;" x1="1193.3931" x2="1193.3931" y1="124.7266" y2="1189.2344"/>
    <text fill="#000000" font-family="sans-serif" font-size="14" lengthAdjust="spacing" textLength="111.7402" x="30" y="121.4248">HUB OPERATOR</text>
    <ellipse cx="88.8701" cy="92.4297" fill="#E2E2F0" rx="12" ry="12" style="stroke:#181818;stroke-width:0.5;"/>
    <line style="stroke:#181818;stroke-width:0.5;" x1="76.8701" x2="100.8701" y1="106.4297" y2="106.4297"/>
    <text fill="#000000" font-family="sans-serif" font-size="14" lengthAdjust="spacing" textLength="111.7402" x="30" y="1201.2295">HUB OPERATOR</text>
    <ellipse cx="88.8701" cy="1220.5313" fill="#E2E2F0" rx="12" ry="12" style="stroke:#181818;stroke-width:0.5;"/>
    <line style="stroke:#181818;stroke-width:0.5;" x1="76.8701" x2="100.8701" y1="1234.5313" y2="1234.5313"/>
    <text fill="#000000" font-family="sans-serif" font-size="14" lengthAdjust="spacing" textLength="133.7656" x="385.8804" y="121.4248">Central Service API</text>
    <path d="M435.2632,80.4297 L435.2632,104.4297 M435.2632,92.4297 L452.2632,92.4297 " fill="none" style="stroke:#181818;stroke-width:0.5;"/>
    <ellipse cx="464.2632" cy="92.4297" fill="#E2E2F0" rx="12" ry="12" style="stroke:#181818;stroke-width:0.5;"/>
    <text fill="#000000" font-family="sans-serif" font-size="14" lengthAdjust="spacing" textLength="133.7656" x="385.8804" y="1201.2295">Central Service API</text>
    <path d="M435.2632,1208.5313 L435.2632,1232.5313 M435.2632,1220.5313 L452.2632,1220.5313 " fill="none" style="stroke:#181818;stroke-width:0.5;"/>
    <ellipse cx="464.2632" cy="1220.5313" fill="#E2E2F0" rx="12" ry="12" style="stroke:#181818;stroke-width:0.5;"/>
    <text fill="#000000" font-family="sans-serif" font-size="14" lengthAdjust="spacing" textLength="125.8701" x="683.3931" y="121.4248">Metadata Handler</text>
    <ellipse cx="749.3281" cy="92.4297" fill="#E2E2F0" rx="12" ry="12" style="stroke:#181818;stroke-width:0.5;"/>
    <polygon fill="#181818" points="745.3281,80.4297,751.3281,75.4297,749.3281,80.4297,751.3281,85.4297,745.3281,80.4297" style="stroke:#181818;stroke-width:1.0;"/>
    <text fill="#000000" font-family="sans-serif" font-size="14" lengthAdjust="spacing" textLength="125.8701" x="683.3931" y="1201.2295">Metadata Handler</text>
    <ellipse cx="749.3281" cy="1220.5313" fill="#E2E2F0" rx="12" ry="12" style="stroke:#181818;stroke-width:0.5;"/>
    <polygon fill="#181818" points="745.3281,1208.5313,751.3281,1203.5313,749.3281,1208.5313,751.3281,1213.5313,745.3281,1208.5313" style="stroke:#181818;stroke-width:1.0;"/>
    <text fill="#000000" font-family="sans-serif" font-size="14" lengthAdjust="spacing" textLength="92.7363" x="910.521" y="121.4248">Central Store</text>
    <path d="M941.8892,72.4297 C941.8892,62.4297 959.8892,62.4297 959.8892,62.4297 C959.8892,62.4297 977.8892,62.4297 977.8892,72.4297 L977.8892,98.4297 C977.8892,108.4297 959.8892,108.4297 959.8892,108.4297 C959.8892,108.4297 941.8892,108.4297 941.8892,98.4297 L941.8892,72.4297 " fill="#E2E2F0" style="stroke:#181818;stroke-width:1.5;"/>
    <path d="M941.8892,72.4297 C941.8892,82.4297 959.8892,82.4297 959.8892,82.4297 C959.8892,82.4297 977.8892,82.4297 977.8892,72.4297 " fill="none" style="stroke:#181818;stroke-width:1.5;"/>
    <text fill="#000000" font-family="sans-serif" font-size="14" lengthAdjust="spacing" textLength="92.7363" x="910.521" y="1201.2295">Central Store</text>
    <path d="M941.8892,1214.5313 C941.8892,1204.5313 959.8892,1204.5313 959.8892,1204.5313 C959.8892,1204.5313 977.8892,1204.5313 977.8892,1214.5313 L977.8892,1240.5313 C977.8892,1250.5313 959.8892,1250.5313 959.8892,1250.5313 C959.8892,1250.5313 941.8892,1250.5313 941.8892,1240.5313 L941.8892,1214.5313 " fill="#E2E2F0" style="stroke:#181818;stroke-width:1.5;"/>
    <path d="M941.8892,1214.5313 C941.8892,1224.5313 959.8892,1224.5313 959.8892,1224.5313 C959.8892,1224.5313 977.8892,1224.5313 977.8892,1214.5313 " fill="none" style="stroke:#181818;stroke-width:1.5;"/>
    <rect fill="#E2E2F0" height="30.2969" style="stroke:#181818;stroke-width:0.5;" width="95.1357" x="1023.2573" y="89.4297"/>
    <rect fill="#E2E2F0" height="30.2969" style="stroke:#181818;stroke-width:0.5;" width="95.1357" x="1019.2573" y="93.4297"/>
    <text fill="#000000" font-family="sans-serif" font-size="14" lengthAdjust="spacing" textLength="81.1357" x="1026.2573" y="113.4248">Kafka Store</text>
    <rect fill="#E2E2F0" height="30.2969" style="stroke:#181818;stroke-width:0.5;" width="95.1357" x="1023.2573" y="1188.2344"/>
    <rect fill="#E2E2F0" height="30.2969" style="stroke:#181818;stroke-width:0.5;" width="95.1357" x="1019.2573" y="1192.2344"/>
    <text fill="#000000" font-family="sans-serif" font-size="14" lengthAdjust="spacing" textLength="81.1357" x="1026.2573" y="1212.2295">Kafka Store</text>
    <rect fill="#E2E2F0" height="30.2969" style="stroke:#181818;stroke-width:0.5;" width="126.5469" x="1132.3931" y="89.4297"/>
    <rect fill="#E2E2F0" height="30.2969" style="stroke:#181818;stroke-width:0.5;" width="126.5469" x="1128.3931" y="93.4297"/>
    <text fill="#000000" font-family="sans-serif" font-size="14" lengthAdjust="spacing" textLength="112.5469" x="1135.3931" y="113.4248">Logging Sidecar</text>
    <rect fill="#E2E2F0" height="30.2969" style="stroke:#181818;stroke-width:0.5;" width="126.5469" x="1132.3931" y="1188.2344"/>
    <rect fill="#E2E2F0" height="30.2969" style="stroke:#181818;stroke-width:0.5;" width="126.5469" x="1128.3931" y="1192.2344"/>
    <text fill="#000000" font-family="sans-serif" font-size="14" lengthAdjust="spacing" textLength="112.5469" x="1135.3931" y="1212.2295">Logging Sidecar</text>
    <rect fill="#FFFFFF" height="686.1172" style="stroke:#181818;stroke-width:1.0;" width="10" x="83.8701" y="134.7266"/>
    <rect fill="#FFFFFF" height="640.8516" style="stroke:#181818;stroke-width:1.0;" width="10" x="450.7632" y="179.9922"/>
    <rect fill="#FFFFFF" height="335.5938" style="stroke:#181818;stroke-width:1.0;" width="10" x="744.3281" y="209.125"/>
    <rect fill="#FFFFFF" height="29.1328" style="stroke:#181818;stroke-width:1.0;" width="10" x="954.8892" y="345.7891"/>
    <rect fill="#FFFFFF" height="29.1328" style="stroke:#181818;stroke-width:1.0;" width="10" x="1063.8252" y="404.0547"/>
    <rect fill="#FFFFFF" height="29.1328" style="stroke:#181818;stroke-width:1.0;" width="10" x="1188.6665" y="462.3203"/>
    <path d="M10,141.7266 L248.2671,141.7266 L248.2671,148.8594 L238.2671,158.8594 L10,158.8594 L10,141.7266 " fill="#EEEEEE" style="stroke:#000000;stroke-width:1.5;"/>
    <rect fill="none" height="1030.5078" style="stroke:#000000;stroke-width:1.5;" width="1258.9399" x="10" y="141.7266"/>
    <text fill="#000000" font-family="sans-serif" font-size="13" font-weight="bold" lengthAdjust="spacing" textLength="193.2671" x="25" y="154.7935">Get Detailed Health Check</text>
    <polygon fill="#181818" points="438.7632,175.9922,448.7632,179.9922,438.7632,183.9922,442.7632,179.9922" style="stroke:#181818;stroke-width:1.0;"/>
    <line style="stroke:#181818;stroke-width:1.0;" x1="93.8701" x2="444.7632" y1="179.9922" y2="179.9922"/>
    <text fill="#000000" font-family="sans-serif" font-size="13" font-weight="bold" lengthAdjust="spacing" textLength="9.0454" x="100.8701" y="174.9263">1</text>
    <text fill="#000000" font-family="sans-serif" font-size="13" lengthAdjust="spacing" textLength="324.8477" x="113.9155" y="174.9263">Request to getHealth - GET /health?detailed=true</text>
    <polygon fill="#181818" points="732.3281,205.125,742.3281,209.125,732.3281,213.125,736.3281,209.125" style="stroke:#181818;stroke-width:1.0;"/>
    <line style="stroke:#181818;stroke-width:1.0;" x1="460.7632" x2="738.3281" y1="209.125" y2="209.125"/>
    <text fill="#000000" font-family="sans-serif" font-size="13" font-weight="bold" lengthAdjust="spacing" textLength="9.0454" x="467.7632" y="204.0591">2</text>
    <text fill="#000000" font-family="sans-serif" font-size="13" lengthAdjust="spacing" textLength="251.5195" x="480.8086" y="204.0591">Fetch health status for all sub services</text>
    <line style="stroke:#181818;stroke-width:1.0;" x1="754.3281" x2="796.3281" y1="238.2578" y2="238.2578"/>
    <line style="stroke:#181818;stroke-width:1.0;" x1="796.3281" x2="796.3281" y1="238.2578" y2="251.2578"/>
    <line style="stroke:#181818;stroke-width:1.0;" x1="755.3281" x2="796.3281" y1="251.2578" y2="251.2578"/>
    <polygon fill="#181818" points="765.3281,247.2578,755.3281,251.2578,765.3281,255.2578,761.3281,251.2578" style="stroke:#181818;stroke-width:1.0;"/>
    <text fill="#000000" font-family="sans-serif" font-size="13" font-weight="bold" lengthAdjust="spacing" textLength="9.0454" x="761.3281" y="233.1919">3</text>
    <text fill="#000000" font-family="sans-serif" font-size="13" lengthAdjust="spacing" textLength="153.8291" x="774.3735" y="233.1919">Fetch Service Metadata</text>
    <path d="M759,264.2578 L759,319.2578 L919,319.2578 L919,274.2578 L909,264.2578 L759,264.2578 " fill="#FFFF00" style="stroke:#181818;stroke-width:0.5;"/>
    <path d="M909,264.2578 L909,274.2578 L919,274.2578 L909,264.2578 " fill="#FFFF00" style="stroke:#181818;stroke-width:0.5;"/>
    <text fill="#000000" font-family="sans-serif" font-size="13" lengthAdjust="spacing" textLength="108.6592" x="765" y="281.3247">- versionNumber</text>
    <text fill="#000000" font-family="sans-serif" font-size="13" lengthAdjust="spacing" textLength="54.6851" x="765" y="296.4575">- uptime</text>
    <text fill="#000000" font-family="sans-serif" font-size="13" lengthAdjust="spacing" textLength="139.5532" x="765" y="311.5903">- time service started</text>
    <polygon fill="#181818" points="942.8892,341.7891,952.8892,345.7891,942.8892,349.7891,946.8892,345.7891" style="stroke:#181818;stroke-width:1.0;"/>
    <line style="stroke:#181818;stroke-width:1.0;" x1="754.3281" x2="948.8892" y1="345.7891" y2="345.7891"/>
    <text fill="#000000" font-family="sans-serif" font-size="13" font-weight="bold" lengthAdjust="spacing" textLength="9.0454" x="761.3281" y="340.7231">4</text>
    <text fill="#000000" font-family="sans-serif" font-size="13" lengthAdjust="spacing" textLength="159.8276" x="774.3735" y="340.7231">Check connection status</text>
    <polygon fill="#181818" points="765.3281,370.9219,755.3281,374.9219,765.3281,378.9219,761.3281,374.9219" style="stroke:#181818;stroke-width:1.0;"/>
    <line style="stroke:#181818;stroke-width:1.0;stroke-dasharray:2.0,2.0;" x1="759.3281" x2="958.8892" y1="374.9219" y2="374.9219"/>
    <text fill="#000000" font-family="sans-serif" font-size="13" font-weight="bold" lengthAdjust="spacing" textLength="9.0454" x="771.3281" y="369.856">5</text>
    <text fill="#000000" font-family="sans-serif" font-size="13" lengthAdjust="spacing" textLength="163.5156" x="784.3735" y="369.856">Report connection status</text>
    <polygon fill="#181818" points="1051.8252,400.0547,1061.8252,404.0547,1051.8252,408.0547,1055.8252,404.0547" style="stroke:#181818;stroke-width:1.0;"/>
    <line style="stroke:#181818;stroke-width:1.0;" x1="754.3281" x2="1057.8252" y1="404.0547" y2="404.0547"/>
    <text fill="#000000" font-family="sans-serif" font-size="13" font-weight="bold" lengthAdjust="spacing" textLength="9.0454" x="761.3281" y="398.9888">6</text>
    <text fill="#000000" font-family="sans-serif" font-size="13" lengthAdjust="spacing" textLength="159.8276" x="774.3735" y="398.9888">Check connection status</text>
    <polygon fill="#181818" points="765.3281,429.1875,755.3281,433.1875,765.3281,437.1875,761.3281,433.1875" style="stroke:#181818;stroke-width:1.0;"/>
    <line style="stroke:#181818;stroke-width:1.0;stroke-dasharray:2.0,2.0;" x1="759.3281" x2="1067.8252" y1="433.1875" y2="433.1875"/>
    <text fill="#000000" font-family="sans-serif" font-size="13" font-weight="bold" lengthAdjust="spacing" textLength="9.0454" x="771.3281" y="428.1216">7</text>
    <text fill="#000000" font-family="sans-serif" font-size="13" lengthAdjust="spacing" textLength="163.5156" x="784.3735" y="428.1216">Report connection status</text>
    <polygon fill="#181818" points="1176.6665,458.3203,1186.6665,462.3203,1176.6665,466.3203,1180.6665,462.3203" style="stroke:#181818;stroke-width:1.0;"/>
    <line style="stroke:#181818;stroke-width:1.0;" x1="754.3281" x2="1182.6665" y1="462.3203" y2="462.3203"/>
    <text fill="#000000" font-family="sans-serif" font-size="13" font-weight="bold" lengthAdjust="spacing" textLength="9.0454" x="761.3281" y="457.2544">8</text>
    <text fill="#000000" font-family="sans-serif" font-size="13" lengthAdjust="spacing" textLength="159.8276" x="774.3735" y="457.2544">Check connection status</text>
    <polygon fill="#181818" points="765.3281,487.4531,755.3281,491.4531,765.3281,495.4531,761.3281,491.4531" style="stroke:#181818;stroke-width:1.0;"/>
    <line style="stroke:#181818;stroke-width:1.0;stroke-dasharray:2.0,2.0;" x1="759.3281" x2="1192.6665" y1="491.4531" y2="491.4531"/>
    <text fill="#000000" font-family="sans-serif" font-size="13" font-weight="bold" lengthAdjust="spacing" textLength="9.0454" x="771.3281" y="486.3872">9</text>
    <text fill="#000000" font-family="sans-serif" font-size="13" lengthAdjust="spacing" textLength="163.5156" x="784.3735" y="486.3872">Report connection status</text>
    <path d="M20,506.4531 L84.4429,506.4531 L84.4429,513.5859 L74.4429,523.5859 L20,523.5859 L20,506.4531 " fill="#EEEEEE" style="stroke:#000000;stroke-width:1.5;"/>
    <rect fill="none" height="322.3906" style="stroke:#000000;stroke-width:1.5;" width="805.2632" x="20" y="506.4531"/>
    <text fill="#000000" font-family="sans-serif" font-size="13" font-weight="bold" lengthAdjust="spacing" textLength="19.4429" x="35" y="519.52">alt</text>
    <text fill="#000000" font-family="sans-serif" font-size="11" font-weight="bold" lengthAdjust="spacing" textLength="167.4761" x="99.4429" y="518.6636">[Validate Status (success)]</text>
    <polygon fill="#181818" points="471.7632,540.7188,461.7632,544.7188,471.7632,548.7188,467.7632,544.7188" style="stroke:#181818;stroke-width:1.0;"/>
    <line style="stroke:#181818;stroke-width:1.0;stroke-dasharray:2.0,2.0;" x1="465.7632" x2="748.3281" y1="544.7188" y2="544.7188"/>
    <text fill="#000000" font-family="sans-serif" font-size="13" font-weight="bold" lengthAdjust="spacing" textLength="18.0908" x="477.7632" y="539.6528">10</text>
    <text fill="#000000" font-family="sans-serif" font-size="13" lengthAdjust="spacing" textLength="151.4932" x="499.854" y="539.6528">Return status response</text>
    <path d="M98,557.7188 L98,793.7188 L390,793.7188 L390,567.7188 L380,557.7188 L98,557.7188 " fill="#FFFF00" style="stroke:#181818;stroke-width:0.5;"/>
    <path d="M380,557.7188 L380,567.7188 L390,567.7188 L380,557.7188 " fill="#FFFF00" style="stroke:#181818;stroke-width:0.5;"/>
    <text fill="#000000" font-family="sans-serif" font-size="13" font-weight="bold" lengthAdjust="spacing" textLength="136.0112" x="104" y="574.7856">Example Message:</text>
    <text fill="#000000" font-family="monospace" font-size="13" lengthAdjust="spacing" textLength="86.0933" x="104" y="589.9185">200 Success</text>
    <text fill="#000000" font-family="sans-serif" font-size="13" lengthAdjust="spacing" textLength="8.271" x="104" y="605.0513">{</text>
    <text fill="#000000" font-family="sans-serif" font-size="13" lengthAdjust="spacing" textLength="93.8628" x="112.2646" y="620.1841">&quot;status&quot;: &quot;UP&quot;,</text>
    <text fill="#000000" font-family="sans-serif" font-size="13" lengthAdjust="spacing" textLength="103.5493" x="112.2646" y="635.3169">&quot;uptime&quot;: 1234,</text>
    <text fill="#000000" font-family="sans-serif" font-size="13" lengthAdjust="spacing" textLength="262.8184" x="112.2646" y="650.4497">&quot;started&quot;: &quot;2019-05-31T05:09:25.409Z&quot;,</text>
    <text fill="#000000" font-family="sans-serif" font-size="13" lengthAdjust="spacing" textLength="169.4761" x="112.2646" y="665.5825">&quot;versionNumber&quot;: &quot;5.2.3&quot;,</text>
    <text fill="#000000" font-family="sans-serif" font-size="13" lengthAdjust="spacing" textLength="78.8823" x="112.2646" y="680.7153">&quot;services&quot;: [</text>
    <text fill="#000000" font-family="sans-serif" font-size="13" lengthAdjust="spacing" textLength="8.271" x="120.5293" y="695.8481">{</text>
    <text fill="#000000" font-family="sans-serif" font-size="13" lengthAdjust="spacing" textLength="108.9956" x="128.7939" y="710.981">&quot;name&quot;: &quot;kafka&quot;,</text>
    <text fill="#000000" font-family="sans-serif" font-size="13" lengthAdjust="spacing" textLength="93.8628" x="128.7939" y="726.1138">&quot;status&quot;: &quot;UP&quot;,</text>
    <text fill="#000000" font-family="sans-serif" font-size="13" lengthAdjust="spacing" textLength="84.7666" x="128.7939" y="741.2466">&quot;latency&quot;: 10</text>
    <text fill="#000000" font-family="sans-serif" font-size="13" lengthAdjust="spacing" textLength="8.271" x="120.5293" y="756.3794">}</text>
    <text fill="#000000" font-family="sans-serif" font-size="13" lengthAdjust="spacing" textLength="5.0718" x="112.2646" y="771.5122">]</text>
    <text fill="#000000" font-family="sans-serif" font-size="13" lengthAdjust="spacing" textLength="8.271" x="104" y="786.645">}</text>
    <polygon fill="#181818" points="99.8701,816.8438,89.8701,820.8438,99.8701,824.8438,95.8701,820.8438" style="stroke:#181818;stroke-width:1.0;"/>
    <line style="stroke:#181818;stroke-width:1.0;stroke-dasharray:2.0,2.0;" x1="93.8701" x2="454.7632" y1="820.8438" y2="820.8438"/>
    <text fill="#000000" font-family="sans-serif" font-size="13" font-weight="bold" lengthAdjust="spacing" textLength="18.0908" x="105.8701" y="815.7778">11</text>
    <text fill="#000000" font-family="sans-serif" font-size="13" lengthAdjust="spacing" textLength="43.9512" x="127.9609" y="815.7778">Return</text>
    <text fill="#000000" font-family="sans-serif" font-size="13" font-weight="bold" lengthAdjust="spacing" textLength="95.4243" x="176.0444" y="815.7778">HTTP Status:</text>
    <text fill="#000000" font-family="sans-serif" font-size="13" lengthAdjust="spacing" textLength="24.813" x="275.6011" y="815.7778">200</text>
    <path d="M20,842.8438 L84.4429,842.8438 L84.4429,849.9766 L74.4429,859.9766 L20,859.9766 L20,842.8438 " fill="#EEEEEE" style="stroke:#000000;stroke-width:1.5;"/>
    <rect fill="none" height="322.3906" style="stroke:#000000;stroke-width:1.5;" width="805.2632" x="20" y="842.8438"/>
    <text fill="#000000" font-family="sans-serif" font-size="13" font-weight="bold" lengthAdjust="spacing" textLength="19.4429" x="35" y="855.9106">alt</text>
    <text fill="#000000" font-family="sans-serif" font-size="11" font-weight="bold" lengthAdjust="spacing" textLength="208.1514" x="99.4429" y="855.0542">[Validate Status (service failure)]</text>
    <polygon fill="#181818" points="466.7632,877.1094,456.7632,881.1094,466.7632,885.1094,462.7632,881.1094" style="stroke:#181818;stroke-width:1.0;"/>
    <line style="stroke:#181818;stroke-width:1.0;stroke-dasharray:2.0,2.0;" x1="460.7632" x2="748.3281" y1="881.1094" y2="881.1094"/>
    <text fill="#000000" font-family="sans-serif" font-size="13" font-weight="bold" lengthAdjust="spacing" textLength="18.0908" x="472.7632" y="876.0435">12</text>
    <text fill="#000000" font-family="sans-serif" font-size="13" lengthAdjust="spacing" textLength="151.4932" x="494.854" y="876.0435">Return status response</text>
    <path d="M93,894.1094 L93,1130.1094 L385,1130.1094 L385,904.1094 L375,894.1094 L93,894.1094 " fill="#FFFF00" style="stroke:#181818;stroke-width:0.5;"/>
    <path d="M375,894.1094 L375,904.1094 L385,904.1094 L375,894.1094 " fill="#FFFF00" style="stroke:#181818;stroke-width:0.5;"/>
    <text fill="#000000" font-family="sans-serif" font-size="13" font-weight="bold" lengthAdjust="spacing" textLength="136.0112" x="99" y="911.1763">Example Message:</text>
    <text fill="#000000" font-family="monospace" font-size="13" lengthAdjust="spacing" textLength="117.3999" x="99" y="926.3091">502 Bad Gateway</text>
    <text fill="#000000" font-family="sans-serif" font-size="13" lengthAdjust="spacing" textLength="8.271" x="99" y="941.4419">{</text>
    <text fill="#000000" font-family="sans-serif" font-size="13" lengthAdjust="spacing" textLength="119.3296" x="107.2646" y="956.5747">&quot;status&quot;: &quot;DOWN&quot;,</text>
    <text fill="#000000" font-family="sans-serif" font-size="13" lengthAdjust="spacing" textLength="103.5493" x="107.2646" y="971.7075">&quot;uptime&quot;: 1234,</text>
    <text fill="#000000" font-family="sans-serif" font-size="13" lengthAdjust="spacing" textLength="262.8184" x="107.2646" y="986.8403">&quot;started&quot;: &quot;2019-05-31T05:09:25.409Z&quot;,</text>
    <text fill="#000000" font-family="sans-serif" font-size="13" lengthAdjust="spacing" textLength="169.4761" x="107.2646" y="1001.9731">&quot;versionNumber&quot;: &quot;5.2.3&quot;,</text>
    <text fill="#000000" font-family="sans-serif" font-size="13" lengthAdjust="spacing" textLength="78.8823" x="107.2646" y="1017.106">&quot;services&quot;: [</text>
    <text fill="#000000" font-family="sans-serif" font-size="13" lengthAdjust="spacing" textLength="8.271" x="115.5293" y="1032.2388">{</text>
    <text fill="#000000" font-family="sans-serif" font-size="13" lengthAdjust="spacing" textLength="108.9956" x="123.7939" y="1047.3716">&quot;name&quot;: &quot;kafka&quot;,</text>
    <text fill="#000000" font-family="sans-serif" font-size="13" lengthAdjust="spacing" textLength="119.3296" x="123.7939" y="1062.5044">&quot;status&quot;: &quot;DOWN&quot;,</text>
    <text fill="#000000" font-family="sans-serif" font-size="13" lengthAdjust="spacing" textLength="126.1216" x="123.7939" y="1077.6372">&quot;latency&quot;: 1111111</text>
    <text fill="#000000" font-family="sans-serif" font-size="13" lengthAdjust="spacing" textLength="8.271" x="115.5293" y="1092.77">}</text>
    <text fill="#000000" font-family="sans-serif" font-size="13" lengthAdjust="spacing" textLength="5.0718" x="107.2646" y="1107.9028">]</text>
    <text fill="#000000" font-family="sans-serif" font-size="13" lengthAdjust="spacing" textLength="8.271" x="99" y="1123.0356">}</text>
    <polygon fill="#181818" points="99.8701,1153.2344,89.8701,1157.2344,99.8701,1161.2344,95.8701,1157.2344" style="stroke:#181818;stroke-width:1.0;"/>
    <line style="stroke:#181818;stroke-width:1.0;stroke-dasharray:2.0,2.0;" x1="93.8701" x2="454.7632" y1="1157.2344" y2="1157.2344"/>
    <text fill="#000000" font-family="sans-serif" font-size="13" font-weight="bold" lengthAdjust="spacing" textLength="18.0908" x="105.8701" y="1152.1685">13</text>
    <text fill="#000000" font-family="sans-serif" font-size="13" lengthAdjust="spacing" textLength="43.9512" x="127.9609" y="1152.1685">Return</text>
    <text fill="#FF0000" font-family="sans-serif" font-size="13" font-weight="bold" lengthAdjust="spacing" textLength="95.4243" x="176.0444" y="1152.1685">HTTP Status:</text>
    <text fill="#FF0000" font-family="sans-serif" font-size="13" lengthAdjust="spacing" textLength="24.813" x="275.6011" y="1152.1685">502</text>
  </g>
</svg>
