<svg xmlns="http://www.w3.org/2000/svg" xmlns:xlink="http://www.w3.org/1999/xlink" contentStyleType="text/css" height="984px" preserveAspectRatio="none" style="width:2048px;height:984px;background:#FFFFFF;" version="1.1" viewBox="0 0 2048 984" width="2048px" zoomAndPan="magnify">
  <title>1.0.0 Get Participant Limit Details For All Participants</title>
  <defs/>
  <g>
    <text fill="#000000" font-family="sans-serif" font-size="14" font-weight="bold" lengthAdjust="spacing" textLength="426.1523" x="812.7024" y="27.9951">1.0.0 Get Participant Limit Details For All Participants</text>
    <rect fill="#FFFFE0" height="927.7734" style="stroke:#181818;stroke-width:0.5;" width="1175.8374" x="672.7339" y="43.2969"/>
    <text fill="#000000" font-family="sans-serif" font-size="13" font-weight="bold" lengthAdjust="spacing" textLength="119.7739" x="1200.7656" y="55.3638">Central Services</text>
    <rect fill="#FFFFFF" height="746.0469" style="stroke:#181818;stroke-width:1.0;" width="10" x="73.8701" y="134.7266"/>
    <rect fill="#FFFFFF" height="700.7813" style="stroke:#181818;stroke-width:1.0;" width="10" x="741.6167" y="179.9922"/>
    <rect fill="#FFFFFF" height="627.3828" style="stroke:#181818;stroke-width:1.0;" width="10" x="1002.6987" y="209.125"/>
    <rect fill="#FFFFFF" height="322.125" style="stroke:#181818;stroke-width:1.0;" width="10" x="1405.5513" y="253.3906"/>
    <rect fill="#FFFFFF" height="263.8594" style="stroke:#181818;stroke-width:1.0;" width="10" x="1790.2031" y="282.5234"/>
    <rect fill="none" height="747.0469" style="stroke:#000000;stroke-width:1.5;" width="2032.5571" x="10" y="141.7266"/>
    <line style="stroke:#181818;stroke-width:0.5;stroke-dasharray:5.0,5.0;" x1="78" x2="78" y1="124.7266" y2="905.7734"/>
    <line style="stroke:#181818;stroke-width:0.5;stroke-dasharray:5.0,5.0;" x1="745.7339" x2="745.7339" y1="124.7266" y2="905.7734"/>
    <line style="stroke:#181818;stroke-width:0.5;stroke-dasharray:5.0,5.0;" x1="1007.1255" x2="1007.1255" y1="124.7266" y2="905.7734"/>
    <line style="stroke:#181818;stroke-width:0.5;stroke-dasharray:5.0,5.0;" x1="1410.3364" x2="1410.3364" y1="124.7266" y2="905.7734"/>
    <line style="stroke:#181818;stroke-width:0.5;stroke-dasharray:5.0,5.0;" x1="1794.835" x2="1794.835" y1="124.7266" y2="905.7734"/>
    <text fill="#000000" font-family="sans-serif" font-size="14" lengthAdjust="spacing" textLength="111.7402" x="20" y="121.4248">HUB OPERATOR</text>
    <ellipse cx="78.8701" cy="92.4297" fill="#E2E2F0" rx="12" ry="12" style="stroke:#181818;stroke-width:0.5;"/>
    <line style="stroke:#181818;stroke-width:0.5;" x1="66.8701" x2="90.8701" y1="106.4297" y2="106.4297"/>
    <text fill="#000000" font-family="sans-serif" font-size="14" lengthAdjust="spacing" textLength="111.7402" x="20" y="917.7686">HUB OPERATOR</text>
    <ellipse cx="78.8701" cy="937.0703" fill="#E2E2F0" rx="12" ry="12" style="stroke:#181818;stroke-width:0.5;"/>
    <line style="stroke:#181818;stroke-width:0.5;" x1="66.8701" x2="90.8701" y1="951.0703" y2="951.0703"/>
    <text fill="#000000" font-family="sans-serif" font-size="14" lengthAdjust="spacing" textLength="133.7656" x="676.7339" y="121.4248">Central Service API</text>
    <path d="M726.1167,80.4297 L726.1167,104.4297 M726.1167,92.4297 L743.1167,92.4297 " fill="none" style="stroke:#181818;stroke-width:0.5;"/>
    <ellipse cx="755.1167" cy="92.4297" fill="#E2E2F0" rx="12" ry="12" style="stroke:#181818;stroke-width:0.5;"/>
    <text fill="#000000" font-family="sans-serif" font-size="14" lengthAdjust="spacing" textLength="133.7656" x="676.7339" y="917.7686">Central Service API</text>
    <path d="M726.1167,925.0703 L726.1167,949.0703 M726.1167,937.0703 L743.1167,937.0703 " fill="none" style="stroke:#181818;stroke-width:0.5;"/>
    <ellipse cx="755.1167" cy="937.0703" fill="#E2E2F0" rx="12" ry="12" style="stroke:#181818;stroke-width:0.5;"/>
    <text fill="#000000" font-family="sans-serif" font-size="14" lengthAdjust="spacing" textLength="135.1465" x="937.1255" y="121.4248">Participant Handler</text>
    <ellipse cx="1007.6987" cy="92.4297" fill="#E2E2F0" rx="12" ry="12" style="stroke:#181818;stroke-width:0.5;"/>
    <polygon fill="#181818" points="1003.6987,80.4297,1009.6987,75.4297,1007.6987,80.4297,1009.6987,85.4297,1003.6987,80.4297" style="stroke:#181818;stroke-width:1.0;"/>
    <text fill="#000000" font-family="sans-serif" font-size="14" lengthAdjust="spacing" textLength="135.1465" x="937.1255" y="917.7686">Participant Handler</text>
    <ellipse cx="1007.6987" cy="937.0703" fill="#E2E2F0" rx="12" ry="12" style="stroke:#181818;stroke-width:0.5;"/>
    <polygon fill="#181818" points="1003.6987,925.0703,1009.6987,920.0703,1007.6987,925.0703,1009.6987,930.0703,1003.6987,925.0703" style="stroke:#181818;stroke-width:1.0;"/>
    <text fill="#000000" font-family="sans-serif" font-size="14" lengthAdjust="spacing" textLength="130.4297" x="1342.3364" y="121.4248">Participant Facade</text>
    <ellipse cx="1410.5513" cy="92.4297" fill="#E2E2F0" rx="12" ry="12" style="stroke:#181818;stroke-width:0.5;"/>
    <line style="stroke:#181818;stroke-width:0.5;" x1="1398.5513" x2="1422.5513" y1="106.4297" y2="106.4297"/>
    <text fill="#000000" font-family="sans-serif" font-size="14" lengthAdjust="spacing" textLength="130.4297" x="1342.3364" y="917.7686">Participant Facade</text>
    <ellipse cx="1410.5513" cy="937.0703" fill="#E2E2F0" rx="12" ry="12" style="stroke:#181818;stroke-width:0.5;"/>
    <line style="stroke:#181818;stroke-width:0.5;" x1="1398.5513" x2="1422.5513" y1="951.0703" y2="951.0703"/>
    <text fill="#000000" font-family="sans-serif" font-size="14" lengthAdjust="spacing" textLength="92.7363" x="1745.835" y="121.4248">Central Store</text>
    <path d="M1777.2031,72.4297 C1777.2031,62.4297 1795.2031,62.4297 1795.2031,62.4297 C1795.2031,62.4297 1813.2031,62.4297 1813.2031,72.4297 L1813.2031,98.4297 C1813.2031,108.4297 1795.2031,108.4297 1795.2031,108.4297 C1795.2031,108.4297 1777.2031,108.4297 1777.2031,98.4297 L1777.2031,72.4297 " fill="#E2E2F0" style="stroke:#181818;stroke-width:1.5;"/>
    <path d="M1777.2031,72.4297 C1777.2031,82.4297 1795.2031,82.4297 1795.2031,82.4297 C1795.2031,82.4297 1813.2031,82.4297 1813.2031,72.4297 " fill="none" style="stroke:#181818;stroke-width:1.5;"/>
    <text fill="#000000" font-family="sans-serif" font-size="14" lengthAdjust="spacing" textLength="92.7363" x="1745.835" y="917.7686">Central Store</text>
    <path d="M1777.2031,931.0703 C1777.2031,921.0703 1795.2031,921.0703 1795.2031,921.0703 C1795.2031,921.0703 1813.2031,921.0703 1813.2031,931.0703 L1813.2031,957.0703 C1813.2031,967.0703 1795.2031,967.0703 1795.2031,967.0703 C1795.2031,967.0703 1777.2031,967.0703 1777.2031,957.0703 L1777.2031,931.0703 " fill="#E2E2F0" style="stroke:#181818;stroke-width:1.5;"/>
    <path d="M1777.2031,931.0703 C1777.2031,941.0703 1795.2031,941.0703 1795.2031,941.0703 C1795.2031,941.0703 1813.2031,941.0703 1813.2031,931.0703 " fill="none" style="stroke:#181818;stroke-width:1.5;"/>
    <rect fill="#FFFFFF" height="746.0469" style="stroke:#181818;stroke-width:1.0;" width="10" x="73.8701" y="134.7266"/>
    <rect fill="#FFFFFF" height="700.7813" style="stroke:#181818;stroke-width:1.0;" width="10" x="741.6167" y="179.9922"/>
    <rect fill="#FFFFFF" height="627.3828" style="stroke:#181818;stroke-width:1.0;" width="10" x="1002.6987" y="209.125"/>
    <rect fill="#FFFFFF" height="322.125" style="stroke:#181818;stroke-width:1.0;" width="10" x="1405.5513" y="253.3906"/>
    <rect fill="#FFFFFF" height="263.8594" style="stroke:#181818;stroke-width:1.0;" width="10" x="1790.2031" y="282.5234"/>
    <path d="M10,141.7266 L271.0107,141.7266 L271.0107,148.8594 L261.0107,158.8594 L10,158.8594 L10,141.7266 " fill="#EEEEEE" style="stroke:#000000;stroke-width:1.5;"/>
    <rect fill="none" height="747.0469" style="stroke:#000000;stroke-width:1.5;" width="2032.5571" x="10" y="141.7266"/>
    <text fill="#000000" font-family="sans-serif" font-size="13" font-weight="bold" lengthAdjust="spacing" textLength="216.0107" x="25" y="154.7935">Get Limits for all Participants</text>
    <polygon fill="#181818" points="729.6167,175.9922,739.6167,179.9922,729.6167,183.9922,733.6167,179.9922" style="stroke:#181818;stroke-width:1.0;"/>
    <line style="stroke:#181818;stroke-width:1.0;" x1="83.8701" x2="735.6167" y1="179.9922" y2="179.9922"/>
    <text fill="#000000" font-family="sans-serif" font-size="13" font-weight="bold" lengthAdjust="spacing" textLength="9.0454" x="90.8701" y="174.9263">1</text>
    <text fill="#000000" font-family="sans-serif" font-size="13" lengthAdjust="spacing" textLength="625.7012" x="103.9155" y="174.9263">Request to get Limits - GET - /participants/limits?type={typeValue}&amp;currency={currencyType}</text>
    <polygon fill="#181818" points="990.6987,205.125,1000.6987,209.125,990.6987,213.125,994.6987,209.125" style="stroke:#181818;stroke-width:1.0;"/>
    <line style="stroke:#181818;stroke-width:1.0;" x1="751.6167" x2="996.6987" y1="209.125" y2="209.125"/>
    <text fill="#000000" font-family="sans-serif" font-size="13" font-weight="bold" lengthAdjust="spacing" textLength="9.0454" x="758.6167" y="204.0591">2</text>
    <text fill="#000000" font-family="sans-serif" font-size="13" lengthAdjust="spacing" textLength="201.5" x="771.6621" y="204.0591">Fetch Limits for all Participants</text>
    <polygon fill="#181818" points="1393.5513,249.3906,1403.5513,253.3906,1393.5513,257.3906,1397.5513,253.3906" style="stroke:#181818;stroke-width:1.0;"/>
    <line style="stroke:#181818;stroke-width:1.0;" x1="1012.6987" x2="1399.5513" y1="253.3906" y2="253.3906"/>
    <text fill="#000000" font-family="sans-serif" font-size="13" font-weight="bold" lengthAdjust="spacing" textLength="9.0454" x="1019.6987" y="240.7583">3</text>
    <text fill="#000000" font-family="sans-serif" font-size="13" lengthAdjust="spacing" textLength="356.6748" x="1032.7441" y="233.1919">Fetch Limits for all participants with currency and type</text>
    <text fill="#FF0000" font-family="sans-serif" font-size="13" font-weight="bold" lengthAdjust="spacing" textLength="81.5293" x="1032.7441" y="248.3247">Error code:</text>
    <text fill="#FF0000" font-family="sans-serif" font-size="13" lengthAdjust="spacing" textLength="33.084" x="1118.4058" y="248.3247">3000</text>
    <polygon fill="#181818" points="1778.2031,278.5234,1788.2031,282.5234,1778.2031,286.5234,1782.2031,282.5234" style="stroke:#181818;stroke-width:1.0;"/>
    <line style="stroke:#181818;stroke-width:1.0;" x1="1415.5513" x2="1784.2031" y1="282.5234" y2="282.5234"/>
    <text fill="#000000" font-family="sans-serif" font-size="13" font-weight="bold" lengthAdjust="spacing" textLength="9.0454" x="1422.5513" y="277.4575">4</text>
    <text fill="#000000" font-family="sans-serif" font-size="13" lengthAdjust="spacing" textLength="308.8452" x="1435.5967" y="277.4575">Fetch Limits  for currencyId and type(if passed)</text>
    <path d="M1420,295.5234 L1420,441.5234 L2032,441.5234 L2032,305.5234 L2022,295.5234 L1420,295.5234 " fill="#D3D3D3" style="stroke:#181818;stroke-width:0.5;"/>
    <path d="M2022,295.5234 L2022,305.5234 L2032,305.5234 L2022,295.5234 " fill="#D3D3D3" style="stroke:#181818;stroke-width:0.5;"/>
    <text fill="#000000" font-family="sans-serif" font-size="13" lengthAdjust="spacing" textLength="66.4155" x="1426" y="312.5903">Condition:</text>
    <text fill="#000000" font-family="sans-serif" font-size="13" lengthAdjust="spacing" textLength="511.1895" x="1442.5293" y="327.7231">participantCurrency.participantCurrencyId = participant.participantCurrencyId</text>
    <text fill="#000000" font-family="sans-serif" font-size="13" lengthAdjust="spacing" textLength="185.1992" x="1442.5293" y="342.856">participantLimit.isActive = 1</text>
    <text fill="#000000" font-family="sans-serif" font-size="13" lengthAdjust="spacing" textLength="543.4165" x="1442.5293" y="357.9888">participantLimit.participantCurrencyId = participantCurrency.participantCurrencyId</text>
    <text fill="#000000" font-family="sans-serif" font-size="13" lengthAdjust="spacing" textLength="5.0718" x="1442.5293" y="373.1216">[</text>
    <text fill="#000000" font-family="sans-serif" font-size="13" lengthAdjust="spacing" textLength="558.4985" x="1459.0586" y="388.2544">participantLimit.participantLimitTypeId = participantLimitType.participantLimitTypeId</text>
    <text fill="#000000" font-family="sans-serif" font-size="13" lengthAdjust="spacing" textLength="358.8838" x="1459.0586" y="403.3872">participantLimit.participantCurrencyId = &lt;currencyId&gt;</text>
    <text fill="#000000" font-family="sans-serif" font-size="13" lengthAdjust="spacing" textLength="245.6797" x="1459.0586" y="418.52">participantLimitType.name = &lt;type&gt;</text>
    <text fill="#000000" font-family="sans-serif" font-size="13" lengthAdjust="spacing" textLength="5.0718" x="1442.5293" y="433.6528">]</text>
    <polygon fill="#FFFFE0" points="1725,451.7188,1863,451.7188,1873,485.7188,1863,519.7188,1725,519.7188,1715,485.7188,1725,451.7188" style="stroke:#181818;stroke-width:0.5;"/>
    <text fill="#000000" font-family="sans-serif" font-size="13" lengthAdjust="spacing" textLength="70.5859" x="1727" y="467.7856">participant</text>
    <text fill="#000000" font-family="sans-serif" font-size="13" lengthAdjust="spacing" textLength="129.6699" x="1727" y="482.9185">participantCurrency</text>
    <text fill="#000000" font-family="sans-serif" font-size="13" lengthAdjust="spacing" textLength="102.813" x="1727" y="498.0513">participantLimit</text>
    <text fill="#000000" font-family="sans-serif" font-size="13" lengthAdjust="spacing" textLength="134.6973" x="1727" y="513.1841">participantLimitType</text>
    <polygon fill="#181818" points="1426.5513,542.3828,1416.5513,546.3828,1426.5513,550.3828,1422.5513,546.3828" style="stroke:#181818;stroke-width:1.0;"/>
    <line style="stroke:#181818;stroke-width:1.0;stroke-dasharray:2.0,2.0;" x1="1420.5513" x2="1794.2031" y1="546.3828" y2="546.3828"/>
    <text fill="#000000" font-family="sans-serif" font-size="13" font-weight="bold" lengthAdjust="spacing" textLength="9.0454" x="1432.5513" y="541.3169">5</text>
    <text fill="#000000" font-family="sans-serif" font-size="13" lengthAdjust="spacing" textLength="337.6064" x="1445.5967" y="541.3169">Retrieved Participant Limits for currencyId and type</text>
    <polygon fill="#181818" points="1023.6987,571.5156,1013.6987,575.5156,1023.6987,579.5156,1019.6987,575.5156" style="stroke:#181818;stroke-width:1.0;"/>
    <line style="stroke:#181818;stroke-width:1.0;stroke-dasharray:2.0,2.0;" x1="1017.6987" x2="1409.5513" y1="575.5156" y2="575.5156"/>
    <text fill="#000000" font-family="sans-serif" font-size="13" font-weight="bold" lengthAdjust="spacing" textLength="9.0454" x="1029.6987" y="570.4497">6</text>
    <text fill="#000000" font-family="sans-serif" font-size="13" lengthAdjust="spacing" textLength="209.9043" x="1042.7441" y="570.4497">Return Limits for all participants</text>
    <path d="M1017,588.5156 L1017,794.5156 L1322,794.5156 L1322,598.5156 L1312,588.5156 L1017,588.5156 " fill="#FFFF00" style="stroke:#181818;stroke-width:0.5;"/>
    <path d="M1312,588.5156 L1312,598.5156 L1322,598.5156 L1312,588.5156 " fill="#FFFF00" style="stroke:#181818;stroke-width:0.5;"/>
    <text fill="#000000" font-family="sans-serif" font-size="13" lengthAdjust="spacing" textLength="61.3564" x="1023" y="605.5825">Message:</text>
    <text fill="#000000" font-family="sans-serif" font-size="13" lengthAdjust="spacing" textLength="5.0718" x="1023" y="620.7153">[</text>
    <text fill="#000000" font-family="sans-serif" font-size="13" lengthAdjust="spacing" textLength="8.271" x="1039.5293" y="635.8481">{</text>
    <text fill="#000000" font-family="sans-serif" font-size="13" lengthAdjust="spacing" textLength="86.7661" x="1056.0586" y="650.981">name: &lt;fsp&gt;</text>
    <text fill="#000000" font-family="sans-serif" font-size="13" lengthAdjust="spacing" textLength="160.8242" x="1056.0586" y="666.1138">currency: &lt;currencyId&gt;,</text>
    <text fill="#000000" font-family="sans-serif" font-size="13" lengthAdjust="spacing" textLength="251.6084" x="1056.0586" y="681.2466">limit: {type: &lt;type&gt;, value: &lt;value&gt;}</text>
    <text fill="#000000" font-family="sans-serif" font-size="13" lengthAdjust="spacing" textLength="12.4033" x="1039.5293" y="696.3794">},</text>
    <text fill="#000000" font-family="sans-serif" font-size="13" lengthAdjust="spacing" textLength="8.271" x="1039.5293" y="711.5122">{</text>
    <text fill="#000000" font-family="sans-serif" font-size="13" lengthAdjust="spacing" textLength="86.7661" x="1056.0586" y="726.645">name: &lt;fsp&gt;</text>
    <text fill="#000000" font-family="sans-serif" font-size="13" lengthAdjust="spacing" textLength="160.8242" x="1056.0586" y="741.7778">currency: &lt;currencyId&gt;,</text>
    <text fill="#000000" font-family="sans-serif" font-size="13" lengthAdjust="spacing" textLength="251.6084" x="1056.0586" y="756.9106">limit: {type: &lt;type&gt;, value: &lt;value&gt;}</text>
    <text fill="#000000" font-family="sans-serif" font-size="13" lengthAdjust="spacing" textLength="8.271" x="1039.5293" y="772.0435">}</text>
    <text fill="#000000" font-family="sans-serif" font-size="13" lengthAdjust="spacing" textLength="5.0718" x="1023" y="787.1763">]</text>
    <polygon fill="#181818" points="762.6167,832.5078,752.6167,836.5078,762.6167,840.5078,758.6167,836.5078" style="stroke:#181818;stroke-width:1.0;"/>
    <line style="stroke:#181818;stroke-width:1.0;stroke-dasharray:2.0,2.0;" x1="756.6167" x2="1006.6987" y1="836.5078" y2="836.5078"/>
    <text fill="#000000" font-family="sans-serif" font-size="13" font-weight="bold" lengthAdjust="spacing" textLength="9.0454" x="768.6167" y="823.8755">7</text>
    <text fill="#000000" font-family="sans-serif" font-size="13" lengthAdjust="spacing" textLength="209.9043" x="781.6621" y="816.3091">Return Limits for all participants</text>
    <text fill="#FF0000" font-family="sans-serif" font-size="13" font-weight="bold" lengthAdjust="spacing" textLength="81.5293" x="781.6621" y="831.4419">Error code:</text>
    <text fill="#FF0000" font-family="sans-serif" font-size="13" lengthAdjust="spacing" textLength="33.084" x="867.3237" y="831.4419">3000</text>
    <polygon fill="#181818" points="89.8701,876.7734,79.8701,880.7734,89.8701,884.7734,85.8701,880.7734" style="stroke:#181818;stroke-width:1.0;"/>
    <line style="stroke:#181818;stroke-width:1.0;stroke-dasharray:2.0,2.0;" x1="83.8701" x2="745.6167" y1="880.7734" y2="880.7734"/>
    <text fill="#000000" font-family="sans-serif" font-size="13" font-weight="bold" lengthAdjust="spacing" textLength="9.0454" x="95.8701" y="868.1411">8</text>
    <text fill="#000000" font-family="sans-serif" font-size="13" lengthAdjust="spacing" textLength="209.9043" x="108.9155" y="860.5747">Return Limits for all participants</text>
    <text fill="#FF0000" font-family="sans-serif" font-size="13" font-weight="bold" lengthAdjust="spacing" textLength="81.5293" x="108.9155" y="875.7075">Error code:</text>
    <text fill="#FF0000" font-family="sans-serif" font-size="13" lengthAdjust="spacing" textLength="33.084" x="194.5771" y="875.7075">3000</text>
  </g>
</svg>
