<svg xmlns="http://www.w3.org/2000/svg" height="2332" preserveAspectRatio="none" style="width:2100px;height:2332px" width="2100">
  <defs>
    <filter height="300%" id="a" width="300%" x="-1" y="-1">
      <feGaussianBlur result="blurOut" stdDeviation="2"/>
      <feColorMatrix in="blurOut" result="blurOut2" values="0 0 0 0 0 0 0 0 0 0 0 0 0 0 0 0 0 0 .4 0"/>
      <feOffset dx="4" dy="4" in="blurOut2" result="blurOut3"/>
      <feBlend in="SourceGraphic" in2="blurOut3"/>
    </filter>
  </defs>
  <text font-family="sans-serif" font-size="18" lengthAdjust="spacingAndGlyphs" textLength="452" x="822" y="28.708">
    1.1.0 Request Participant Position and Limit Details
  </text>
  <path fill="#FFFFE0" stroke="#a80036" d="M741 40.953h1197v2285.563H741z"/>
  <text font-family="sans-serif" font-size="13" font-weight="bold" lengthAdjust="spacingAndGlyphs" textLength="119" x="1280" y="53.02">
    Central Services
  </text>
  <path fill="#FFF" filter="url(#a)" stroke="#a80036" d="M94 132.383h10v2111.836H94zM807 177.648h10v2066.57h-10zM1067 206.781h10v751.117h-10zM1072 987.031h10v963.922h-10z"/>
  <path fill="#FFF" filter="url(#a)" stroke="#a80036" d="M1072 987.031h10v213h-10zM1072 1980.086h10v272.133h-10z"/>
  <path fill="#FFF" filter="url(#a)" stroke="#a80036" d="M1072 1980.086h10v213h-10zM1448 317.313h10v135.664h-10zM1448 563.508h10v250.461h-10zM1448 1295.234h10v120.531h-10zM1448 1526.297h10v280.727h-10zM1881 346.445h10v77.398h-10zM1881 592.641h10v192.195h-10zM1881 1324.367h10v62.266h-10zM1881 1555.43h10v222.461h-10z"/>
  <path fill="#FFF" filter="url(#a)" stroke="#000" stroke-width="2" d="M10 139.383h2076v2104.836H10z"/>
  <path fill="#FFF" filter="url(#a)" stroke="#000" stroke-width="2" d="M20 263.914h2056v1973.305H20z"/>
  <path fill="#FFF" filter="url(#a)" stroke="#000" stroke-width="2" d="M30 510.109h2036v727.055H30z"/>
  <path fill="#FFF" d="M30 995.031h2036v242.133H30zM20 1244.164h2056v993.055H20z"/>
  <path fill="#FFF" filter="url(#a)" stroke="#000" stroke-width="2" d="M30 1472.898h2036v757.32H30z"/>
  <path fill="#FFF" d="M30 1988.086h2036v242.133H30z"/>
  <path stroke="#a80036" stroke-dasharray="5,5" d="M99 122.383v2138.836M812 122.383v2138.836M1071.5 122.383v2138.836M1453 122.383v2138.836M1886 122.383v2138.836"/>
  <text font-family="sans-serif" font-size="14" lengthAdjust="spacingAndGlyphs" textLength="112" x="40" y="119.081">
    HUB OPERATOR
  </text>
  <circle cx="99" cy="90.086" fill="#FEFECE" filter="url(#a)" stroke="#a80036" stroke-width="2" r="12"/>
  <path stroke="#a80036" stroke-width="2" d="M87 104.086h24"/>
  <text font-family="sans-serif" font-size="14" lengthAdjust="spacingAndGlyphs" textLength="112" x="40" y="2273.214">
    HUB OPERATOR
  </text>
  <circle cx="99" cy="2292.516" fill="#FEFECE" filter="url(#a)" stroke="#a80036" stroke-width="2" r="12"/>
  <path stroke="#a80036" stroke-width="2" d="M87 2306.516h24"/>
  <text font-family="sans-serif" font-size="14" lengthAdjust="spacingAndGlyphs" textLength="128" x="745" y="119.081">
    Central Service API
  </text>
  <path d="M791.5 78.086v24m0-12h17" fill="none" filter="url(#a)" stroke="#a80036" stroke-width="2"/>
  <circle cx="820.5" cy="90.086" fill="#FEFECE" filter="url(#a)" stroke="#a80036" stroke-width="2" r="12"/>
  <text font-family="sans-serif" font-size="14" lengthAdjust="spacingAndGlyphs" textLength="128" x="745" y="2273.214">
    Central Service API
  </text>
  <path d="M791.5 2280.516v24m0-12h17" fill="none" filter="url(#a)" stroke="#a80036" stroke-width="2"/>
  <circle cx="820.5" cy="2292.516" fill="#FEFECE" filter="url(#a)" stroke="#a80036" stroke-width="2" r="12"/>
  <text font-family="sans-serif" font-size="14" lengthAdjust="spacingAndGlyphs" textLength="129" x="1004.5" y="119.081">
    Participant Handler
  </text>
  <circle cx="1072" cy="90.086" fill="#FEFECE" filter="url(#a)" stroke="#a80036" stroke-width="2" r="12"/>
  <path fill="#A80036" stroke="#a80036" d="M1068 78.086l6-5-2 5 2 5-6-5z"/>
  <text font-family="sans-serif" font-size="14" lengthAdjust="spacingAndGlyphs" textLength="129" x="1004.5" y="2273.214">
    Participant Handler
  </text>
  <circle cx="1072" cy="2292.516" fill="#FEFECE" filter="url(#a)" stroke="#a80036" stroke-width="2" r="12"/>
  <path fill="#A80036" stroke="#a80036" d="M1068 2280.516l6-5-2 5 2 5-6-5z"/>
  <text font-family="sans-serif" font-size="14" lengthAdjust="spacingAndGlyphs" textLength="126" x="1387" y="119.081">
    Participant Facade
  </text>
  <circle cx="1453" cy="90.086" fill="#FEFECE" filter="url(#a)" stroke="#a80036" stroke-width="2" r="12"/>
  <path stroke="#a80036" stroke-width="2" d="M1441 104.086h24"/>
  <text font-family="sans-serif" font-size="14" lengthAdjust="spacingAndGlyphs" textLength="126" x="1387" y="2273.214">
    Participant Facade
  </text>
  <circle cx="1453" cy="2292.516" fill="#FEFECE" filter="url(#a)" stroke="#a80036" stroke-width="2" r="12"/>
  <path stroke="#a80036" stroke-width="2" d="M1441 2306.516h24"/>
  <text font-family="sans-serif" font-size="14" lengthAdjust="spacingAndGlyphs" textLength="90" x="1838" y="119.081">
    Central Store
  </text>
  <path d="M1868 70.086c0-10 18-10 18-10s18 0 18 10v26c0 10-18 10-18 10s-18 0-18-10v-26" fill="#FEFECE" filter="url(#a)" stroke="#000" stroke-width="1.5"/>
  <path d="M1868 70.086c0 10 18 10 18 10s18 0 18-10" fill="none" stroke="#000" stroke-width="1.5"/>
  <text font-family="sans-serif" font-size="14" lengthAdjust="spacingAndGlyphs" textLength="90" x="1838" y="2273.214">
    Central Store
  </text>
  <path d="M1868 2286.516c0-10 18-10 18-10s18 0 18 10v26c0 10-18 10-18 10s-18 0-18-10v-26" fill="#FEFECE" filter="url(#a)" stroke="#000" stroke-width="1.5"/>
  <path d="M1868 2286.516c0 10 18 10 18 10s18 0 18-10" fill="none" stroke="#000" stroke-width="1.5"/>
  <path fill="#FFF" filter="url(#a)" stroke="#a80036" d="M94 132.383h10v2111.836H94zM807 177.648h10v2066.57h-10zM1067 206.781h10v751.117h-10zM1072 987.031h10v963.922h-10z"/>
  <path fill="#FFF" filter="url(#a)" stroke="#a80036" d="M1072 987.031h10v213h-10zM1072 1980.086h10v272.133h-10z"/>
  <path fill="#FFF" filter="url(#a)" stroke="#a80036" d="M1072 1980.086h10v213h-10zM1448 317.313h10v135.664h-10zM1448 563.508h10v250.461h-10zM1448 1295.234h10v120.531h-10zM1448 1526.297h10v280.727h-10zM1881 346.445h10v77.398h-10zM1881 592.641h10v192.195h-10zM1881 1324.367h10v62.266h-10zM1881 1555.43h10v222.461h-10z"/>
  <path d="M10 139.383h195v7l-10 10H10v-17" fill="#EEE" stroke="#000"/>
  <path fill="none" stroke="#000" stroke-width="2" d="M10 139.383h2076v2104.836H10z"/>
  <text font-family="sans-serif" font-size="13" font-weight="bold" lengthAdjust="spacingAndGlyphs" textLength="150" x="25" y="152.45">
    Get Callback Details
  </text>
  <path fill="#A80036" stroke="#a80036" d="M795 173.648l10 4-10 4 4-4z"/>
  <path stroke="#a80036" d="M104 177.648h697"/>
  <text font-family="sans-serif" font-size="13" font-weight="bold" lengthAdjust="spacingAndGlyphs" textLength="9" x="111" y="172.583">
    1
  </text>
  <text font-family="sans-serif" font-size="13" lengthAdjust="spacingAndGlyphs" textLength="671" x="124" y="172.583">
    Request to get Limits - GET - /participants/{name}/limits?type={typeValue}&amp;currency={currencyValue}
  </text>
  <path fill="#A80036" stroke="#a80036" d="M1055 202.781l10 4-10 4 4-4z"/>
  <path stroke="#a80036" d="M817 206.781h244"/>
  <text font-family="sans-serif" font-size="13" font-weight="bold" lengthAdjust="spacingAndGlyphs" textLength="9" x="824" y="201.715">
    2
  </text>
  <text font-family="sans-serif" font-size="13" lengthAdjust="spacingAndGlyphs" textLength="170" x="837" y="201.715">
    Fetch Limits for Participant
  </text>
  <path stroke="#a80036" d="M1077 235.914h42M1119 235.914v13M1078 248.914h41"/>
  <path fill="#A80036" stroke="#a80036" d="M1088 244.914l-10 4 10 4-4-4z"/>
  <text font-family="sans-serif" font-size="13" font-weight="bold" lengthAdjust="spacingAndGlyphs" textLength="9" x="1084" y="230.848">
    3
  </text>
  <text font-family="sans-serif" font-size="13" lengthAdjust="spacingAndGlyphs" textLength="235" x="1097" y="230.848">
    check if &quot;currency&quot; parameter is sent
  </text>
  <path d="M20 263.914h64v7l-10 10H20v-17" fill="#EEE" stroke="#000"/>
  <path fill="none" stroke="#000" stroke-width="2" d="M20 263.914h2056v1973.305H20z"/>
  <text font-family="sans-serif" font-size="13" font-weight="bold" lengthAdjust="spacingAndGlyphs" textLength="19" x="35" y="276.981">
    alt
  </text>
  <text font-family="sans-serif" font-size="11" font-weight="bold" lengthAdjust="spacingAndGlyphs" textLength="293" x="99" y="276.125">
    [Check if &quot;currency&quot; parameter is sent (Sent)]
  </text>
  <path fill="#A80036" stroke="#a80036" d="M1436 313.313l10 4-10 4 4-4z"/>
  <path stroke="#a80036" d="M1077 317.313h365"/>
  <text font-family="sans-serif" font-size="13" font-weight="bold" lengthAdjust="spacingAndGlyphs" textLength="9" x="1084" y="304.68">
    4
  </text>
  <text font-family="sans-serif" font-size="13" lengthAdjust="spacingAndGlyphs" textLength="181" x="1097" y="297.114">
    Fetch Participant/currency id
  </text>
  <text fill="red" font-family="sans-serif" font-size="13" font-weight="bold" lengthAdjust="spacingAndGlyphs" textLength="82" x="1097" y="312.247">
    Error code:
  </text>
  <text fill="red" font-family="sans-serif" font-size="13" lengthAdjust="spacingAndGlyphs" textLength="32" x="1183" y="312.247">
    3200
  </text>
  <path fill="#A80036" stroke="#a80036" d="M1869 342.445l10 4-10 4 4-4z"/>
  <path stroke="#a80036" d="M1458 346.445h417"/>
  <text font-family="sans-serif" font-size="13" font-weight="bold" lengthAdjust="spacingAndGlyphs" textLength="9" x="1465" y="341.379">
    5
  </text>
  <text font-family="sans-serif" font-size="13" lengthAdjust="spacingAndGlyphs" textLength="181" x="1478" y="341.379">
    Fetch Participant/currency id
  </text>
  <path fill="#FFFFE0" filter="url(#a)" stroke="#a80036" d="M1821 359.445h129l10 19-10 19h-129l-10-19 10-19z"/>
  <text font-family="sans-serif" font-size="13" lengthAdjust="spacingAndGlyphs" textLength="68" x="1823" y="375.512">
    participant
  </text>
  <text font-family="sans-serif" font-size="13" lengthAdjust="spacingAndGlyphs" textLength="125" x="1823" y="390.645">
    participantCurrency
  </text>
  <path fill="#A80036" stroke="#a80036" d="M1469 419.844l-10 4 10 4-4-4z"/>
  <path stroke="#a80036" stroke-dasharray="2,2" d="M1463 423.844h422"/>
  <text font-family="sans-serif" font-size="13" font-weight="bold" lengthAdjust="spacingAndGlyphs" textLength="9" x="1475" y="418.778">
    6
  </text>
  <text font-family="sans-serif" font-size="13" lengthAdjust="spacingAndGlyphs" textLength="132" x="1488" y="418.778">
    Retrieved Participant
  </text>
  <path fill="#A80036" stroke="#a80036" d="M1088 448.977l-10 4 10 4-4-4z"/>
  <path stroke="#a80036" stroke-dasharray="2,2" d="M1082 452.977h370"/>
  <text font-family="sans-serif" font-size="13" font-weight="bold" lengthAdjust="spacingAndGlyphs" textLength="9" x="1094" y="447.911">
    7
  </text>
  <text font-family="sans-serif" font-size="13" lengthAdjust="spacingAndGlyphs" textLength="188" x="1107" y="447.911">
    Return Participant/currency id
  </text>
  <path stroke="#a80036" d="M1077 482.109h42M1119 482.109v13M1078 495.109h41"/>
  <path fill="#A80036" stroke="#a80036" d="M1088 491.11l-10 4 10 4-4-4z"/>
  <text font-family="sans-serif" font-size="13" font-weight="bold" lengthAdjust="spacingAndGlyphs" textLength="9" x="1084" y="477.043">
    8
  </text>
  <text font-family="sans-serif" font-size="13" lengthAdjust="spacingAndGlyphs" textLength="90" x="1097" y="477.043">
    Validate DFSP
  </text>
  <path d="M30 510.11h64v7l-10 10H30v-17" fill="#EEE" stroke="#000"/>
  <path fill="none" stroke="#000" stroke-width="2" d="M30 510.109h2036v727.055H30z"/>
  <text font-family="sans-serif" font-size="13" font-weight="bold" lengthAdjust="spacingAndGlyphs" textLength="19" x="45" y="523.176">
    alt
  </text>
  <text font-family="sans-serif" font-size="11" font-weight="bold" lengthAdjust="spacingAndGlyphs" textLength="202" x="109" y="522.32">
    [Validate participant (success)]
  </text>
  <path fill="#A80036" stroke="#a80036" d="M1436 559.508l10 4-10 4 4-4z"/>
  <path stroke="#a80036" d="M1077 563.508h365"/>
  <text font-family="sans-serif" font-size="13" font-weight="bold" lengthAdjust="spacingAndGlyphs" textLength="9" x="1084" y="550.875">
    9
  </text>
  <text font-family="sans-serif" font-size="13" lengthAdjust="spacingAndGlyphs" textLength="289" x="1097" y="543.309">
    Fetch Participant Limits for currency and type
  </text>
  <text fill="red" font-family="sans-serif" font-size="13" font-weight="bold" lengthAdjust="spacingAndGlyphs" textLength="82" x="1097" y="558.442">
    Error code:
  </text>
  <text fill="red" font-family="sans-serif" font-size="13" lengthAdjust="spacingAndGlyphs" textLength="32" x="1183" y="558.442">
    3000
  </text>
  <path fill="#A80036" stroke="#a80036" d="M1869 588.64l10 4-10 4 4-4z"/>
  <path stroke="#a80036" d="M1458 592.641h417"/>
  <text font-family="sans-serif" font-size="13" font-weight="bold" lengthAdjust="spacingAndGlyphs" textLength="18" x="1465" y="587.575">
    10
  </text>
  <text font-family="sans-serif" font-size="13" lengthAdjust="spacingAndGlyphs" textLength="364" x="1487" y="587.575">
    Fetch Participant Limit for currencyId and type(if passed)
  </text>
  <path d="M1463 605.64v100h589v-90l-10-10h-579" fill="#D3D3D3" filter="url(#a)" stroke="#a80036"/>
  <path d="M2042 605.64v10h10l-10-10" fill="#D3D3D3" stroke="#a80036"/>
  <text font-family="sans-serif" font-size="13" lengthAdjust="spacingAndGlyphs" textLength="64" x="1469" y="622.707">
    Condition:
  </text>
  <text font-family="sans-serif" font-size="13" lengthAdjust="spacingAndGlyphs" textLength="179" x="1485" y="637.84">
    participantLimit.isActive = 1
  </text>
  <text font-family="sans-serif" font-size="13" lengthAdjust="spacingAndGlyphs" textLength="346" x="1485" y="652.973">
    participantLimit.participantCurrencyId = &lt;currencyId&gt;
  </text>
  <text font-family="sans-serif" font-size="13" lengthAdjust="spacingAndGlyphs" textLength="552" x="1485" y="668.106">
    [ participantLimit.participantLimitTypeId = participantLimitType.participantLimitTypeId
  </text>
  <text font-family="sans-serif" font-size="13" lengthAdjust="spacingAndGlyphs" textLength="239" x="1501" y="683.239">
    participantLimitType.name = &lt;type&gt;
  </text>
  <text font-family="sans-serif" font-size="13" lengthAdjust="spacingAndGlyphs" textLength="5" x="1485" y="698.372">
    ]
  </text>
  <path fill="#FFFFE0" filter="url(#a)" stroke="#a80036" d="M1819 720.438h133l10 19-10 19h-133l-10-19 10-19z"/>
  <text font-family="sans-serif" font-size="13" lengthAdjust="spacingAndGlyphs" textLength="99" x="1821" y="736.504">
    participantLimit
  </text>
  <text font-family="sans-serif" font-size="13" lengthAdjust="spacingAndGlyphs" textLength="129" x="1821" y="751.637">
    participantLimitType
  </text>
  <path fill="#A80036" stroke="#a80036" d="M1469 780.836l-10 4 10 4-4-4z"/>
  <path stroke="#a80036" stroke-dasharray="2,2" d="M1463 784.836h422"/>
  <text font-family="sans-serif" font-size="13" font-weight="bold" lengthAdjust="spacingAndGlyphs" textLength="18" x="1475" y="779.77">
    11
  </text>
  <text font-family="sans-serif" font-size="13" lengthAdjust="spacingAndGlyphs" textLength="325" x="1497" y="779.77">
    Retrieved Participant Limits for currencyId and type
  </text>
  <path fill="#A80036" stroke="#a80036" d="M1088 809.969l-10 4 10 4-4-4z"/>
  <path stroke="#a80036" stroke-dasharray="2,2" d="M1082 813.969h370"/>
  <text font-family="sans-serif" font-size="13" font-weight="bold" lengthAdjust="spacingAndGlyphs" textLength="18" x="1094" y="808.903">
    12
  </text>
  <text font-family="sans-serif" font-size="13" lengthAdjust="spacingAndGlyphs" textLength="307" x="1116" y="808.903">
    Return Participant Limits for currencyId and type
  </text>
  <path d="M1082 826.969v100h296v-90l-10-10h-286" fill="#FF0" filter="url(#a)" stroke="#a80036"/>
  <path d="M1368 826.969v10h10l-10-10" fill="#FF0" stroke="#a80036"/>
  <text font-family="sans-serif" font-size="13" lengthAdjust="spacingAndGlyphs" textLength="61" x="1088" y="844.036">
    Message:
  </text>
  <text font-family="sans-serif" font-size="13" lengthAdjust="spacingAndGlyphs" textLength="5" x="1088" y="859.168">
    [
  </text>
  <text font-family="sans-serif" font-size="13" lengthAdjust="spacingAndGlyphs" textLength="175" x="1104" y="874.301">
    { currency: &lt;currencyId&gt;,
  </text>
  <text font-family="sans-serif" font-size="13" lengthAdjust="spacingAndGlyphs" textLength="243" x="1120" y="889.434">
    limit: {type: &lt;type&gt;, value: &lt;value&gt;}
  </text>
  <text font-family="sans-serif" font-size="13" lengthAdjust="spacingAndGlyphs" textLength="8" x="1104" y="904.567">
    }
  </text>
  <text font-family="sans-serif" font-size="13" lengthAdjust="spacingAndGlyphs" textLength="5" x="1088" y="919.7">
    ]
  </text>
  <path fill="#A80036" stroke="#a80036" d="M828 953.898l-10 4 10 4-4-4z"/>
  <path stroke="#a80036" stroke-dasharray="2,2" d="M822 957.898h249"/>
  <text font-family="sans-serif" font-size="13" font-weight="bold" lengthAdjust="spacingAndGlyphs" textLength="18" x="834" y="952.832">
    13
  </text>
  <text font-family="sans-serif" font-size="13" lengthAdjust="spacingAndGlyphs" textLength="156" x="856" y="952.832">
    Return Participant Limits
  </text>
  <path fill="#A80036" stroke="#a80036" d="M115 983.031l-10 4 10 4-4-4z"/>
  <path stroke="#a80036" stroke-dasharray="2,2" d="M109 987.031h697"/>
  <text font-family="sans-serif" font-size="13" font-weight="bold" lengthAdjust="spacingAndGlyphs" textLength="18" x="121" y="981.965">
    14
  </text>
  <text font-family="sans-serif" font-size="13" lengthAdjust="spacingAndGlyphs" textLength="156" x="143" y="981.965">
    Return Participant Limits
  </text>
  <path stroke="#000" stroke-dasharray="2,2" d="M30 996.031h2036"/>
  <text font-family="sans-serif" font-size="11" font-weight="bold" lengthAdjust="spacingAndGlyphs" textLength="232" x="35" y="1006.242">
    [Validate participant (failure)/ Error]
  </text>
  <path d="M1087 1014.836v25h171v-15l-10-10h-161" fill="red" filter="url(#a)" stroke="#a80036"/>
  <path d="M1248 1014.836v10h10l-10-10" fill="red" stroke="#a80036"/>
  <text font-family="sans-serif" font-size="13" lengthAdjust="spacingAndGlyphs" textLength="150" x="1093" y="1031.903">
    Validation failure/ Error!
  </text>
  <path d="M1087 1053.969v115h288v-105l-10-10h-278" fill="#FF0" filter="url(#a)" stroke="#a80036"/>
  <path d="M1365 1053.969v10h10l-10-10" fill="#FF0" stroke="#a80036"/>
  <text font-family="sans-serif" font-size="13" lengthAdjust="spacingAndGlyphs" textLength="61" x="1093" y="1071.036">
    Message:
  </text>
  <text font-family="sans-serif" font-size="13" lengthAdjust="spacingAndGlyphs" textLength="8" x="1093" y="1086.168">
    {
  </text>
  <text font-family="sans-serif" font-size="13" lengthAdjust="spacingAndGlyphs" textLength="130" x="1109" y="1101.301">
    &quot;errorInformation&quot;: {
  </text>
  <text font-family="sans-serif" font-size="13" lengthAdjust="spacingAndGlyphs" textLength="172" x="1125" y="1116.434">
    &quot;errorCode&quot;: &lt;errorCode&gt;,
  </text>
  <text font-family="sans-serif" font-size="13" lengthAdjust="spacingAndGlyphs" textLength="235" x="1125" y="1131.567">
    &quot;errorDescription&quot;: &lt;ErrorMessage&gt;,
  </text>
  <text font-family="sans-serif" font-size="13" lengthAdjust="spacingAndGlyphs" textLength="8" x="1109" y="1146.7">
    }
  </text>
  <text font-family="sans-serif" font-size="13" lengthAdjust="spacingAndGlyphs" textLength="8" x="1093" y="1161.832">
    }
  </text>
  <path fill="#A80036" stroke="#a80036" d="M828 1196.031l-10 4 10 4-4-4z"/>
  <path stroke="#a80036" stroke-dasharray="2,2" d="M822 1200.031h244"/>
  <text font-family="sans-serif" font-size="13" font-weight="bold" lengthAdjust="spacingAndGlyphs" textLength="18" x="834" y="1194.965">
    15
  </text>
  <text font-family="sans-serif" font-size="13" lengthAdjust="spacingAndGlyphs" textLength="42" x="856" y="1194.965">
    Return
  </text>
  <text fill="red" font-family="sans-serif" font-size="13" font-weight="bold" lengthAdjust="spacingAndGlyphs" textLength="82" x="902" y="1194.965">
    Error code:
  </text>
  <text fill="red" font-family="sans-serif" font-size="13" lengthAdjust="spacingAndGlyphs" textLength="72" x="988" y="1194.965">
    3000, 3200
  </text>
  <path fill="#A80036" stroke="#a80036" d="M115 1225.164l-10 4 10 4-4-4z"/>
  <path stroke="#a80036" stroke-dasharray="2,2" d="M109 1229.164h697"/>
  <text font-family="sans-serif" font-size="13" font-weight="bold" lengthAdjust="spacingAndGlyphs" textLength="18" x="121" y="1224.098">
    16
  </text>
  <text font-family="sans-serif" font-size="13" lengthAdjust="spacingAndGlyphs" textLength="42" x="143" y="1224.098">
    Return
  </text>
  <text fill="red" font-family="sans-serif" font-size="13" font-weight="bold" lengthAdjust="spacingAndGlyphs" textLength="82" x="189" y="1224.098">
    Error code:
  </text>
  <text fill="red" font-family="sans-serif" font-size="13" lengthAdjust="spacingAndGlyphs" textLength="72" x="275" y="1224.098">
    3000, 3200
  </text>
  <path stroke="#000" stroke-dasharray="2,2" d="M20 1245.164h2056"/>
  <text font-family="sans-serif" font-size="11" font-weight="bold" lengthAdjust="spacingAndGlyphs" textLength="319" x="25" y="1255.374">
    [Check if &quot;currency&quot; parameter is sent (Not Sent)]
  </text>
  <path fill="#A80036" stroke="#a80036" d="M1436 1291.234l10 4-10 4 4-4z"/>
  <path stroke="#a80036" d="M1077 1295.234h365"/>
  <text font-family="sans-serif" font-size="13" font-weight="bold" lengthAdjust="spacingAndGlyphs" textLength="18" x="1084" y="1282.602">
    17
  </text>
  <text font-family="sans-serif" font-size="13" lengthAdjust="spacingAndGlyphs" textLength="107" x="1106" y="1275.036">
    Fetch Participant
  </text>
  <text fill="red" font-family="sans-serif" font-size="13" font-weight="bold" lengthAdjust="spacingAndGlyphs" textLength="82" x="1106" y="1290.168">
    Error code:
  </text>
  <text fill="red" font-family="sans-serif" font-size="13" lengthAdjust="spacingAndGlyphs" textLength="32" x="1192" y="1290.168">
    3200
  </text>
  <path fill="#A80036" stroke="#a80036" d="M1869 1320.367l10 4-10 4 4-4z"/>
  <path stroke="#a80036" d="M1458 1324.367h417"/>
  <text font-family="sans-serif" font-size="13" font-weight="bold" lengthAdjust="spacingAndGlyphs" textLength="18" x="1465" y="1319.301">
    18
  </text>
  <text font-family="sans-serif" font-size="13" lengthAdjust="spacingAndGlyphs" textLength="107" x="1487" y="1319.301">
    Fetch Participant
  </text>
  <path fill="#FFFFE0" filter="url(#a)" stroke="#a80036" d="M1850 1337.367h72l10 11-10 12h-72l-10-12 10-11z"/>
  <text font-family="sans-serif" font-size="13" lengthAdjust="spacingAndGlyphs" textLength="68" x="1852" y="1353.434">
    participant
  </text>
  <path fill="#A80036" stroke="#a80036" d="M1469 1382.633l-10 4 10 4-4-4z"/>
  <path stroke="#a80036" stroke-dasharray="2,2" d="M1463 1386.633h422"/>
  <text font-family="sans-serif" font-size="13" font-weight="bold" lengthAdjust="spacingAndGlyphs" textLength="18" x="1475" y="1381.567">
    19
  </text>
  <text font-family="sans-serif" font-size="13" lengthAdjust="spacingAndGlyphs" textLength="132" x="1497" y="1381.567">
    Retrieved Participant
  </text>
  <path fill="#A80036" stroke="#a80036" d="M1088 1411.766l-10 4 10 4-4-4z"/>
  <path stroke="#a80036" stroke-dasharray="2,2" d="M1082 1415.766h370"/>
  <text font-family="sans-serif" font-size="13" font-weight="bold" lengthAdjust="spacingAndGlyphs" textLength="18" x="1094" y="1410.7">
    20
  </text>
  <text font-family="sans-serif" font-size="13" lengthAdjust="spacingAndGlyphs" textLength="114" x="1116" y="1410.7">
    Return Participant
  </text>
  <path stroke="#a80036" d="M1077 1444.898h42M1119 1444.898v13M1078 1457.898h41"/>
  <path fill="#A80036" stroke="#a80036" d="M1088 1453.898l-10 4 10 4-4-4z"/>
  <text font-family="sans-serif" font-size="13" font-weight="bold" lengthAdjust="spacingAndGlyphs" textLength="18" x="1084" y="1439.832">
    21
  </text>
  <text font-family="sans-serif" font-size="13" lengthAdjust="spacingAndGlyphs" textLength="90" x="1106" y="1439.832">
    Validate DFSP
  </text>
  <path d="M30 1472.898h64v7l-10 10H30v-17" fill="#EEE" stroke="#000"/>
  <path fill="none" stroke="#000" stroke-width="2" d="M30 1472.898h2036v757.32H30z"/>
  <text font-family="sans-serif" font-size="13" font-weight="bold" lengthAdjust="spacingAndGlyphs" textLength="19" x="45" y="1485.965">
    alt
  </text>
  <text font-family="sans-serif" font-size="11" font-weight="bold" lengthAdjust="spacingAndGlyphs" textLength="202" x="109" y="1485.109">
    [Validate participant (success)]
  </text>
  <path fill="#A80036" stroke="#a80036" d="M1436 1522.297l10 4-10 4 4-4z"/>
  <path stroke="#a80036" d="M1077 1526.297h365"/>
  <text font-family="sans-serif" font-size="13" font-weight="bold" lengthAdjust="spacingAndGlyphs" textLength="18" x="1084" y="1513.665">
    22
  </text>
  <text font-family="sans-serif" font-size="13" lengthAdjust="spacingAndGlyphs" textLength="318" x="1106" y="1506.098">
    Fetch Participant Limits for all currencies and type
  </text>
  <text fill="red" font-family="sans-serif" font-size="13" font-weight="bold" lengthAdjust="spacingAndGlyphs" textLength="82" x="1106" y="1521.231">
    Error code:
  </text>
  <text fill="red" font-family="sans-serif" font-size="13" lengthAdjust="spacingAndGlyphs" textLength="32" x="1192" y="1521.231">
    3000
  </text>
  <path fill="#A80036" stroke="#a80036" d="M1869 1551.43l10 4-10 4 4-4z"/>
  <path stroke="#a80036" d="M1458 1555.43h417"/>
  <text font-family="sans-serif" font-size="13" font-weight="bold" lengthAdjust="spacingAndGlyphs" textLength="18" x="1465" y="1550.364">
    23
  </text>
  <text font-family="sans-serif" font-size="13" lengthAdjust="spacingAndGlyphs" textLength="382" x="1487" y="1550.364">
    Fetch Participant Limit for all currencies and type(if passed)
  </text>
  <path d="M1463 1568.43v115h589v-105l-10-10h-579" fill="#D3D3D3" filter="url(#a)" stroke="#a80036"/>
  <path d="M2042 1568.43v10h10l-10-10" fill="#D3D3D3" stroke="#a80036"/>
  <text font-family="sans-serif" font-size="13" lengthAdjust="spacingAndGlyphs" textLength="64" x="1469" y="1585.497">
    Condition:
  </text>
  <text font-family="sans-serif" font-size="13" lengthAdjust="spacingAndGlyphs" textLength="328" x="1485" y="1600.629">
    participantCurrency.participantId = &lt;participantId&gt;
  </text>
  <text font-family="sans-serif" font-size="13" lengthAdjust="spacingAndGlyphs" textLength="523" x="1485" y="1615.762">
    participantLimit.participantCurrencyId = participantCurrency.participantCurrencyId
  </text>
  <text font-family="sans-serif" font-size="13" lengthAdjust="spacingAndGlyphs" textLength="179" x="1485" y="1630.895">
    participantLimit.isActive = 1
  </text>
  <text font-family="sans-serif" font-size="13" lengthAdjust="spacingAndGlyphs" textLength="552" x="1485" y="1646.028">
    [ participantLimit.participantLimitTypeId = participantLimitType.participantLimitTypeId
  </text>
  <text font-family="sans-serif" font-size="13" lengthAdjust="spacingAndGlyphs" textLength="239" x="1501" y="1661.161">
    participantLimitType.name = &lt;type&gt;
  </text>
  <text font-family="sans-serif" font-size="13" lengthAdjust="spacingAndGlyphs" textLength="5" x="1485" y="1676.293">
    ]
  </text>
  <path fill="#FFFFE0" filter="url(#a)" stroke="#a80036" d="M1819 1698.36h133l10 26-10 27h-133l-10-27 10-26z"/>
  <text font-family="sans-serif" font-size="13" lengthAdjust="spacingAndGlyphs" textLength="125" x="1821" y="1714.426">
    participantCurrency
  </text>
  <text font-family="sans-serif" font-size="13" lengthAdjust="spacingAndGlyphs" textLength="99" x="1821" y="1729.559">
    participantLimit
  </text>
  <text font-family="sans-serif" font-size="13" lengthAdjust="spacingAndGlyphs" textLength="129" x="1821" y="1744.692">
    participantLimitType
  </text>
  <path fill="#A80036" stroke="#a80036" d="M1469 1773.89l-10 4 10 4-4-4z"/>
  <path stroke="#a80036" stroke-dasharray="2,2" d="M1463 1777.891h422"/>
  <text font-family="sans-serif" font-size="13" font-weight="bold" lengthAdjust="spacingAndGlyphs" textLength="18" x="1475" y="1772.825">
    24
  </text>
  <text font-family="sans-serif" font-size="13" lengthAdjust="spacingAndGlyphs" textLength="343" x="1497" y="1772.825">
    Retrieved Participant Limits for all currencies and type
  </text>
  <path fill="#A80036" stroke="#a80036" d="M1088 1803.023l-10 4 10 4-4-4z"/>
  <path stroke="#a80036" stroke-dasharray="2,2" d="M1082 1807.023h370"/>
  <text font-family="sans-serif" font-size="13" font-weight="bold" lengthAdjust="spacingAndGlyphs" textLength="18" x="1094" y="1801.957">
    25
  </text>
  <text font-family="sans-serif" font-size="13" lengthAdjust="spacingAndGlyphs" textLength="325" x="1116" y="1801.957">
    Return Participant Limits for all currencies and type
  </text>
  <path d="M1082 1820.023v100h296v-90l-10-10h-286" fill="#FF0" filter="url(#a)" stroke="#a80036"/>
  <path d="M1368 1820.023v10h10l-10-10" fill="#FF0" stroke="#a80036"/>
  <text font-family="sans-serif" font-size="13" lengthAdjust="spacingAndGlyphs" textLength="61" x="1088" y="1837.09">
    Message:
  </text>
  <text font-family="sans-serif" font-size="13" lengthAdjust="spacingAndGlyphs" textLength="5" x="1088" y="1852.223">
    [
  </text>
  <text font-family="sans-serif" font-size="13" lengthAdjust="spacingAndGlyphs" textLength="175" x="1104" y="1867.356">
    { currency: &lt;currencyId&gt;,
  </text>
  <text font-family="sans-serif" font-size="13" lengthAdjust="spacingAndGlyphs" textLength="243" x="1120" y="1882.489">
    limit: {type: &lt;type&gt;, value: &lt;value&gt;}
  </text>
  <text font-family="sans-serif" font-size="13" lengthAdjust="spacingAndGlyphs" textLength="8" x="1104" y="1897.622">
    }
  </text>
  <text font-family="sans-serif" font-size="13" lengthAdjust="spacingAndGlyphs" textLength="5" x="1088" y="1912.754">
    ]
  </text>
  <path fill="#A80036" stroke="#a80036" d="M828 1946.953l-10 4 10 4-4-4z"/>
  <path stroke="#a80036" stroke-dasharray="2,2" d="M822 1950.953h249"/>
  <text font-family="sans-serif" font-size="13" font-weight="bold" lengthAdjust="spacingAndGlyphs" textLength="18" x="834" y="1945.887">
    26
  </text>
  <text font-family="sans-serif" font-size="13" lengthAdjust="spacingAndGlyphs" textLength="156" x="856" y="1945.887">
    Return Participant Limits
  </text>
  <path fill="#A80036" stroke="#a80036" d="M115 1976.086l-10 4 10 4-4-4z"/>
  <path stroke="#a80036" stroke-dasharray="2,2" d="M109 1980.086h697"/>
  <text font-family="sans-serif" font-size="13" font-weight="bold" lengthAdjust="spacingAndGlyphs" textLength="18" x="121" y="1975.02">
    27
  </text>
  <text font-family="sans-serif" font-size="13" lengthAdjust="spacingAndGlyphs" textLength="156" x="143" y="1975.02">
    Return Participant Limits
  </text>
  <path stroke="#000" stroke-dasharray="2,2" d="M30 1989.086h2036"/>
  <text font-family="sans-serif" font-size="11" font-weight="bold" lengthAdjust="spacingAndGlyphs" textLength="232" x="35" y="1999.296">
    [Validate participant (failure)/ Error]
  </text>
  <path d="M1087 2007.89v25h171v-15l-10-10h-161" fill="red" filter="url(#a)" stroke="#a80036"/>
  <path d="M1248 2007.89v10h10l-10-10" fill="red" stroke="#a80036"/>
  <text font-family="sans-serif" font-size="13" lengthAdjust="spacingAndGlyphs" textLength="150" x="1093" y="2024.957">
    Validation failure/ Error!
  </text>
  <path d="M1087 2047.023v115h288v-105l-10-10h-278" fill="#FF0" filter="url(#a)" stroke="#a80036"/>
  <path d="M1365 2047.023v10h10l-10-10" fill="#FF0" stroke="#a80036"/>
  <text font-family="sans-serif" font-size="13" lengthAdjust="spacingAndGlyphs" textLength="61" x="1093" y="2064.09">
    Message:
  </text>
  <text font-family="sans-serif" font-size="13" lengthAdjust="spacingAndGlyphs" textLength="8" x="1093" y="2079.223">
    {
  </text>
  <text font-family="sans-serif" font-size="13" lengthAdjust="spacingAndGlyphs" textLength="130" x="1109" y="2094.356">
    &quot;errorInformation&quot;: {
  </text>
  <text font-family="sans-serif" font-size="13" lengthAdjust="spacingAndGlyphs" textLength="172" x="1125" y="2109.489">
    &quot;errorCode&quot;: &lt;errorCode&gt;,
  </text>
  <text font-family="sans-serif" font-size="13" lengthAdjust="spacingAndGlyphs" textLength="235" x="1125" y="2124.622">
    &quot;errorDescription&quot;: &lt;ErrorMessage&gt;,
  </text>
  <text font-family="sans-serif" font-size="13" lengthAdjust="spacingAndGlyphs" textLength="8" x="1109" y="2139.754">
    }
  </text>
  <text font-family="sans-serif" font-size="13" lengthAdjust="spacingAndGlyphs" textLength="8" x="1093" y="2154.887">
    }
  </text>
  <path fill="#A80036" stroke="#a80036" d="M828 2189.086l-10 4 10 4-4-4z"/>
  <path stroke="#a80036" stroke-dasharray="2,2" d="M822 2193.086h244"/>
  <text font-family="sans-serif" font-size="13" font-weight="bold" lengthAdjust="spacingAndGlyphs" textLength="18" x="834" y="2188.02">
    28
  </text>
  <text font-family="sans-serif" font-size="13" lengthAdjust="spacingAndGlyphs" textLength="42" x="856" y="2188.02">
    Return
  </text>
  <text fill="red" font-family="sans-serif" font-size="13" font-weight="bold" lengthAdjust="spacingAndGlyphs" textLength="82" x="902" y="2188.02">
    Error code:
  </text>
  <text fill="red" font-family="sans-serif" font-size="13" lengthAdjust="spacingAndGlyphs" textLength="72" x="988" y="2188.02">
    3000, 3200
  </text>
  <path fill="#A80036" stroke="#a80036" d="M115 2218.219l-10 4 10 4-4-4z"/>
  <path stroke="#a80036" stroke-dasharray="2,2" d="M109 2222.219h697"/>
  <text font-family="sans-serif" font-size="13" font-weight="bold" lengthAdjust="spacingAndGlyphs" textLength="18" x="121" y="2217.153">
    29
  </text>
  <text font-family="sans-serif" font-size="13" lengthAdjust="spacingAndGlyphs" textLength="42" x="143" y="2217.153">
    Return
  </text>
  <text fill="red" font-family="sans-serif" font-size="13" font-weight="bold" lengthAdjust="spacingAndGlyphs" textLength="82" x="189" y="2217.153">
    Error code:
  </text>
  <text fill="red" font-family="sans-serif" font-size="13" lengthAdjust="spacingAndGlyphs" textLength="72" x="275" y="2217.153">
    3000, 3200
  </text>
</svg>
