<svg xmlns="http://www.w3.org/2000/svg" xmlns:xlink="http://www.w3.org/1999/xlink" contentStyleType="text/css" height="1852px" preserveAspectRatio="none" style="width:1290px;height:1852px;background:#FFFFFF;" version="1.1" viewBox="0 0 1290 1852" width="1290px" zoomAndPan="magnify">
  <title>Demander la création d’une cotation groupée</title>
  <defs/>
  <g>
    <text fill="#000000" font-family="sans-serif" font-size="14" font-weight="bold" lengthAdjust="spacing" textLength="360.8008" x="465.6816" y="27.9951">Demander la création d’une cotation groupée</text>
    <rect fill="none" height="232.6016" style="stroke:#000000;stroke-width:1.5;" width="590.7554" x="86" y="497.3516"/>
    <rect fill="none" height="957.5938" style="stroke:#000000;stroke-width:1.5;" width="1274.1641" x="9" y="826.2188"/>
    <rect fill="none" height="652.4609" style="stroke:#000000;stroke-width:1.5;" width="956.4355" x="19" y="1001.0156"/>
    <rect fill="none" height="75.3984" style="stroke:#000000;stroke-width:1.5;" width="651.4355" x="318.2607" y="1202.8125"/>
    <rect fill="none" height="59.2656" style="stroke:#000000;stroke-width:1.5;" width="367.54" x="318.2607" y="1292.2109"/>
    <line style="stroke:#181818;stroke-width:0.5;stroke-dasharray:5.0,5.0;" x1="183" x2="183" y1="89.8906" y2="1800.8125"/>
    <line style="stroke:#181818;stroke-width:0.5;stroke-dasharray:5.0,5.0;" x1="408.2607" x2="408.2607" y1="89.8906" y2="1800.8125"/>
    <line style="stroke:#181818;stroke-width:0.5;stroke-dasharray:5.0,5.0;" x1="896.6348" x2="896.6348" y1="89.8906" y2="1800.8125"/>
    <rect fill="#E2E2F0" height="30.2969" rx="2.5" ry="2.5" style="stroke:#181818;stroke-width:0.5;" width="92.8252" x="137" y="58.5938"/>
    <text fill="#000000" font-family="sans-serif" font-size="14" lengthAdjust="spacing" textLength="78.8252" x="144" y="78.5889">FSP payeur</text>
    <rect fill="#E2E2F0" height="30.2969" rx="2.5" ry="2.5" style="stroke:#181818;stroke-width:0.5;" width="92.8252" x="137" y="1799.8125"/>
    <text fill="#000000" font-family="sans-serif" font-size="14" lengthAdjust="spacing" textLength="78.8252" x="144" y="1819.8076">FSP payeur</text>
    <rect fill="#E2E2F0" height="46.5938" rx="2.5" ry="2.5" style="stroke:#181818;stroke-width:0.5;" width="160.2139" x="328.2607" y="42.2969"/>
    <text fill="#000000" font-family="sans-serif" font-size="14" lengthAdjust="spacing" textLength="46.2861" x="385.2246" y="62.292">Switch</text>
    <text fill="#000000" font-family="sans-serif" font-size="14" lengthAdjust="spacing" textLength="146.2139" x="335.2607" y="78.5889">[Service de cotation]</text>
    <rect fill="#E2E2F0" height="46.5938" rx="2.5" ry="2.5" style="stroke:#181818;stroke-width:0.5;" width="160.2139" x="328.2607" y="1799.8125"/>
    <text fill="#000000" font-family="sans-serif" font-size="14" lengthAdjust="spacing" textLength="46.2861" x="385.2246" y="1819.8076">Switch</text>
    <text fill="#000000" font-family="sans-serif" font-size="14" lengthAdjust="spacing" textLength="146.2139" x="335.2607" y="1836.1045">[Service de cotation]</text>
    <rect fill="#E2E2F0" height="30.2969" rx="2.5" ry="2.5" style="stroke:#181818;stroke-width:0.5;" width="126.0615" x="833.6348" y="58.5938"/>
    <text fill="#000000" font-family="sans-serif" font-size="14" lengthAdjust="spacing" textLength="112.0615" x="840.6348" y="78.5889">FSP bénéficiaire</text>
    <rect fill="#E2E2F0" height="30.2969" rx="2.5" ry="2.5" style="stroke:#181818;stroke-width:0.5;" width="126.0615" x="833.6348" y="1799.8125"/>
    <text fill="#000000" font-family="sans-serif" font-size="14" lengthAdjust="spacing" textLength="112.0615" x="840.6348" y="1819.8076">FSP bénéficiaire</text>
    <path d="M100,104.8906 L100,144.8906 L491,144.8906 L491,114.8906 L481,104.8906 L100,104.8906 " fill="#FEFFDD" style="stroke:#181818;stroke-width:0.5;"/>
    <path d="M481,104.8906 L481,114.8906 L491,114.8906 L481,104.8906 " fill="#FEFFDD" style="stroke:#181818;stroke-width:0.5;"/>
    <text fill="#000000" font-family="sans-serif" font-size="13" lengthAdjust="spacing" textLength="370.0557" x="106" y="121.9575">Le FSP payeur envoie une demande de cotation groupée</text>
    <text fill="#000000" font-family="sans-serif" font-size="13" lengthAdjust="spacing" textLength="210.6533" x="106" y="137.0903">au FSP bénéficiaire via le Switch</text>
    <polygon fill="#181818" points="396.3677,167.2891,406.3677,171.2891,396.3677,171.2891" style="stroke:#181818;stroke-width:1.0;"/>
    <line style="stroke:#181818;stroke-width:1.0;" x1="183.4126" x2="407.3677" y1="171.2891" y2="171.2891"/>
    <text fill="#000000" font-family="sans-serif" font-size="13" font-weight="bold" lengthAdjust="spacing" textLength="9.0454" x="190.4126" y="166.2231">1</text>
    <text fill="#000000" font-family="sans-serif" font-size="13" lengthAdjust="spacing" textLength="116.7017" x="203.458" y="166.2231">POST /bulkQuotes</text>
    <path d="M413,184.2891 L413,254.2891 L653,254.2891 L653,194.2891 L643,184.2891 L413,184.2891 " fill="#AAAAAA" style="stroke:#181818;stroke-width:0.5;"/>
    <path d="M643,184.2891 L643,194.2891 L653,194.2891 L643,184.2891 " fill="#AAAAAA" style="stroke:#181818;stroke-width:0.5;"/>
    <text fill="#000000" font-family="sans-serif" font-size="13" lengthAdjust="spacing" textLength="170.8662" x="419" y="201.356">Valider la requête selon la</text>
    <text fill="#000000" font-family="sans-serif" font-size="13" lengthAdjust="spacing" textLength="219.1338" x="419" y="216.4888">spécification d’interface Mojaloop</text>
    <text fill="#FF0000" font-family="sans-serif" font-size="13" font-weight="bold" lengthAdjust="spacing" textLength="203.9819" x="419" y="231.6216">Codes d’erreur : 300x, 310x</text>
    <text fill="#FF0000" font-family="sans-serif" font-size="13" font-weight="bold" lengthAdjust="spacing" textLength="191.9595" x="419" y="246.7544">Codes HTTP d’erreur : 4xx</text>
    <line style="stroke:#181818;stroke-width:1.0;" x1="408.3677" x2="450.3677" y1="280.9531" y2="280.9531"/>
    <line style="stroke:#181818;stroke-width:1.0;" x1="450.3677" x2="450.3677" y1="280.9531" y2="293.9531"/>
    <line style="stroke:#181818;stroke-width:1.0;" x1="409.3677" x2="450.3677" y1="293.9531" y2="293.9531"/>
    <polygon fill="#181818" points="419.3677,289.9531,409.3677,293.9531,419.3677,297.9531,415.3677,293.9531" style="stroke:#181818;stroke-width:1.0;"/>
    <text fill="#000000" font-family="sans-serif" font-size="13" font-weight="bold" lengthAdjust="spacing" textLength="9.0454" x="415.3677" y="275.8872">2</text>
    <text fill="#000000" font-family="sans-serif" font-size="13" lengthAdjust="spacing" textLength="140.5054" x="428.4131" y="275.8872">Validation de schéma</text>
    <polygon fill="#181818" points="194.4126,323.0859,184.4126,323.0859,194.4126,327.0859" style="stroke:#181818;stroke-width:1.0;"/>
    <line style="stroke:#181818;stroke-width:1.0;stroke-dasharray:2.0,2.0;" x1="183.4126" x2="407.3677" y1="323.0859" y2="323.0859"/>
    <text fill="#000000" font-family="sans-serif" font-size="13" font-weight="bold" lengthAdjust="spacing" textLength="9.0454" x="200.4126" y="318.02">3</text>
    <text fill="#000000" font-family="sans-serif" font-size="13" lengthAdjust="spacing" textLength="89.7305" x="213.458" y="318.02">202 Accepted</text>
    <line style="stroke:#181818;stroke-width:1.0;" x1="408.3677" x2="450.3677" y1="377.2188" y2="377.2188"/>
    <line style="stroke:#181818;stroke-width:1.0;" x1="450.3677" x2="450.3677" y1="377.2188" y2="390.2188"/>
    <line style="stroke:#181818;stroke-width:1.0;" x1="409.3677" x2="450.3677" y1="390.2188" y2="390.2188"/>
    <polygon fill="#181818" points="419.3677,386.2188,409.3677,390.2188,419.3677,394.2188,415.3677,390.2188" style="stroke:#181818;stroke-width:1.0;"/>
    <text fill="#000000" font-family="sans-serif" font-size="13" font-weight="bold" lengthAdjust="spacing" textLength="9.0454" x="415.3677" y="372.1528">4</text>
    <text fill="#000000" font-family="sans-serif" font-size="13" lengthAdjust="spacing" textLength="461.2524" x="428.4131" y="372.1528">Validation de la demande de cotation groupée (moteur de règles, etc.)</text>
    <line style="stroke:#181818;stroke-width:1.0;" x1="408.3677" x2="450.3677" y1="444.3516" y2="444.3516"/>
    <line style="stroke:#181818;stroke-width:1.0;" x1="450.3677" x2="450.3677" y1="444.3516" y2="457.3516"/>
    <line style="stroke:#181818;stroke-width:1.0;" x1="409.3677" x2="450.3677" y1="457.3516" y2="457.3516"/>
    <polygon fill="#181818" points="419.3677,453.3516,409.3677,457.3516,419.3677,461.3516,415.3677,457.3516" style="stroke:#181818;stroke-width:1.0;"/>
    <text fill="#000000" font-family="sans-serif" font-size="13" font-weight="bold" lengthAdjust="spacing" textLength="9.0454" x="415.3677" y="439.2856">5</text>
    <text fill="#000000" font-family="sans-serif" font-size="13" lengthAdjust="spacing" textLength="132.2915" x="428.4131" y="439.2856">Contrôle de doublon</text>
    <path d="M86,497.3516 L150.4429,497.3516 L150.4429,504.4844 L140.4429,514.4844 L86,514.4844 L86,497.3516 " fill="#EEEEEE" style="stroke:#000000;stroke-width:1.5;"/>
    <rect fill="none" height="232.6016" style="stroke:#000000;stroke-width:1.5;" width="590.7554" x="86" y="497.3516"/>
    <text fill="#000000" font-family="sans-serif" font-size="13" font-weight="bold" lengthAdjust="spacing" textLength="19.4429" x="101" y="510.4185">alt</text>
    <text fill="#000000" font-family="sans-serif" font-size="11" font-weight="bold" lengthAdjust="spacing" textLength="291.8008" x="165.4429" y="509.562">[la requête est un doublon mais pas un renvoi]</text>
    <path d="M96,544.4844 L96,584.4844 L403,584.4844 L403,554.4844 L393,544.4844 L96,544.4844 " fill="#FEFFDD" style="stroke:#181818;stroke-width:0.5;"/>
    <path d="M393,544.4844 L393,554.4844 L403,554.4844 L393,544.4844 " fill="#FEFFDD" style="stroke:#181818;stroke-width:0.5;"/>
    <text fill="#000000" font-family="sans-serif" font-size="13" lengthAdjust="spacing" textLength="286" x="102" y="561.5513">Le Switch renvoie une erreur au FSP payeur</text>
    <text fill="#FF0000" font-family="sans-serif" font-size="13" font-weight="bold" lengthAdjust="spacing" textLength="151.9185" x="102" y="576.6841">Code d’erreur : 3106</text>
    <polygon fill="#181818" points="194.4126,606.8828,184.4126,610.8828,194.4126,610.8828" style="stroke:#181818;stroke-width:1.0;"/>
    <line style="stroke:#181818;stroke-width:1.0;" x1="183.4126" x2="407.3677" y1="610.8828" y2="610.8828"/>
    <text fill="#000000" font-family="sans-serif" font-size="13" font-weight="bold" lengthAdjust="spacing" textLength="9.0454" x="200.4126" y="605.8169">6</text>
    <text fill="#000000" font-family="sans-serif" font-size="13" lengthAdjust="spacing" textLength="178.8643" x="213.458" y="605.8169">PUT /bulkQuotes/{ID}/error</text>
    <polygon fill="#181818" points="396.3677,640.0156,406.3677,640.0156,396.3677,644.0156" style="stroke:#181818;stroke-width:1.0;"/>
    <line style="stroke:#181818;stroke-width:1.0;stroke-dasharray:2.0,2.0;" x1="183.4126" x2="407.3677" y1="640.0156" y2="640.0156"/>
    <text fill="#000000" font-family="sans-serif" font-size="13" font-weight="bold" lengthAdjust="spacing" textLength="9.0454" x="190.4126" y="634.9497">7</text>
    <text fill="#000000" font-family="sans-serif" font-size="13" lengthAdjust="spacing" textLength="47.7026" x="203.458" y="634.9497">200 OK</text>
    <line style="stroke:#000000;stroke-width:1.0;stroke-dasharray:2.0,2.0;" x1="86" x2="676.7554" y1="674.0156" y2="674.0156"/>
    <text fill="#000000" font-family="sans-serif" font-size="11" font-weight="bold" lengthAdjust="spacing" textLength="249.6431" x="91" y="684.2261">[la requête est un doublon et un renvoi]</text>
    <line style="stroke:#181818;stroke-width:1.0;" x1="408.3677" x2="450.3677" y1="708.9531" y2="708.9531"/>
    <line style="stroke:#181818;stroke-width:1.0;" x1="450.3677" x2="450.3677" y1="708.9531" y2="721.9531"/>
    <line style="stroke:#181818;stroke-width:1.0;" x1="409.3677" x2="450.3677" y1="721.9531" y2="721.9531"/>
    <polygon fill="#181818" points="419.3677,717.9531,409.3677,721.9531,419.3677,725.9531,415.3677,721.9531" style="stroke:#181818;stroke-width:1.0;"/>
    <text fill="#000000" font-family="sans-serif" font-size="13" font-weight="bold" lengthAdjust="spacing" textLength="9.0454" x="415.3677" y="703.8872">8</text>
    <text fill="#000000" font-family="sans-serif" font-size="13" lengthAdjust="spacing" textLength="236.3423" x="428.4131" y="703.8872">Le Switch gère le scénario de renvoi</text>
    <line style="stroke:#181818;stroke-width:1.0;" x1="408.3677" x2="450.3677" y1="798.2188" y2="798.2188"/>
    <line style="stroke:#181818;stroke-width:1.0;" x1="450.3677" x2="450.3677" y1="798.2188" y2="811.2188"/>
    <line style="stroke:#181818;stroke-width:1.0;" x1="409.3677" x2="450.3677" y1="811.2188" y2="811.2188"/>
    <polygon fill="#181818" points="419.3677,807.2188,409.3677,811.2188,419.3677,815.2188,415.3677,811.2188" style="stroke:#181818;stroke-width:1.0;"/>
    <text fill="#000000" font-family="sans-serif" font-size="13" font-weight="bold" lengthAdjust="spacing" textLength="9.0454" x="415.3677" y="785.5864">9</text>
    <text fill="#000000" font-family="sans-serif" font-size="13" lengthAdjust="spacing" textLength="309.6323" x="428.4131" y="778.02">Utiliser l&apos;en-tête fspiop-destination pour obtenir</text>
    <text fill="#000000" font-family="sans-serif" font-size="13" lengthAdjust="spacing" textLength="308.0327" x="428.4131" y="793.1528">l&apos;endpoint « bulk quotes » du DFSP bénéficiaire</text>
    <path d="M9,826.2188 L73.4429,826.2188 L73.4429,833.3516 L63.4429,843.3516 L9,843.3516 L9,826.2188 " fill="#EEEEEE" style="stroke:#000000;stroke-width:1.5;"/>
    <rect fill="none" height="957.5938" style="stroke:#000000;stroke-width:1.5;" width="1274.1641" x="9" y="826.2188"/>
    <text fill="#000000" font-family="sans-serif" font-size="13" font-weight="bold" lengthAdjust="spacing" textLength="19.4429" x="24" y="839.2856">alt</text>
    <text fill="#000000" font-family="sans-serif" font-size="11" font-weight="bold" lengthAdjust="spacing" textLength="305.8086" x="88.4429" y="838.4292">[endpoint « bulk quotes » du bénéficiaire trouvé]</text>
    <path d="M413,848.3516 L413,873.3516 L905,873.3516 L905,858.3516 L895,848.3516 L413,848.3516 " fill="#FEFFDD" style="stroke:#181818;stroke-width:0.5;"/>
    <path d="M895,848.3516 L895,858.3516 L905,858.3516 L895,848.3516 " fill="#FEFFDD" style="stroke:#181818;stroke-width:0.5;"/>
    <text fill="#000000" font-family="sans-serif" font-size="13" lengthAdjust="spacing" textLength="471.1548" x="419" y="865.4185">Le Switch transmet la demande de cotation groupée au FSP bénéficiaire</text>
    <polygon fill="#181818" points="884.6655,895.6172,894.6655,899.6172,884.6655,899.6172" style="stroke:#181818;stroke-width:1.0;"/>
    <line style="stroke:#181818;stroke-width:1.0;" x1="408.3677" x2="895.6655" y1="899.6172" y2="899.6172"/>
    <text fill="#000000" font-family="sans-serif" font-size="13" font-weight="bold" lengthAdjust="spacing" textLength="18.0908" x="415.3677" y="894.5513">10</text>
    <text fill="#000000" font-family="sans-serif" font-size="13" lengthAdjust="spacing" textLength="116.7017" x="437.4585" y="894.5513">POST /bulkQuotes</text>
    <polygon fill="#181818" points="419.3677,928.75,409.3677,928.75,419.3677,932.75" style="stroke:#181818;stroke-width:1.0;"/>
    <line style="stroke:#181818;stroke-width:1.0;stroke-dasharray:2.0,2.0;" x1="408.3677" x2="895.6655" y1="928.75" y2="928.75"/>
    <text fill="#000000" font-family="sans-serif" font-size="13" font-weight="bold" lengthAdjust="spacing" textLength="18.0908" x="425.3677" y="923.6841">11</text>
    <text fill="#000000" font-family="sans-serif" font-size="13" lengthAdjust="spacing" textLength="47.7026" x="447.4585" y="923.6841">202 OK</text>
    <line style="stroke:#181818;stroke-width:1.0;" x1="896.6655" x2="938.6655" y1="973.0156" y2="973.0156"/>
    <line style="stroke:#181818;stroke-width:1.0;" x1="938.6655" x2="938.6655" y1="973.0156" y2="986.0156"/>
    <line style="stroke:#181818;stroke-width:1.0;" x1="897.6655" x2="938.6655" y1="986.0156" y2="986.0156"/>
    <polygon fill="#181818" points="907.6655,982.0156,897.6655,986.0156,907.6655,990.0156,903.6655,986.0156" style="stroke:#181818;stroke-width:1.0;"/>
    <text fill="#000000" font-family="sans-serif" font-size="13" font-weight="bold" lengthAdjust="spacing" textLength="18.0908" x="903.6655" y="960.3833">12</text>
    <text fill="#000000" font-family="sans-serif" font-size="13" lengthAdjust="spacing" textLength="345.4077" x="925.7563" y="952.8169">Le FSP bénéficiaire calcule les cotations individuelles</text>
    <text fill="#000000" font-family="sans-serif" font-size="13" lengthAdjust="spacing" textLength="308.8262" x="925.7563" y="967.9497">et répond avec un résultat de cotation groupée</text>
    <path d="M19,1001.0156 L83.4429,1001.0156 L83.4429,1008.1484 L73.4429,1018.1484 L19,1018.1484 L19,1001.0156 " fill="#EEEEEE" style="stroke:#000000;stroke-width:1.5;"/>
    <rect fill="none" height="652.4609" style="stroke:#000000;stroke-width:1.5;" width="956.4355" x="19" y="1001.0156"/>
    <text fill="#000000" font-family="sans-serif" font-size="13" font-weight="bold" lengthAdjust="spacing" textLength="19.4429" x="34" y="1014.0825">alt</text>
    <text fill="#000000" font-family="sans-serif" font-size="11" font-weight="bold" lengthAdjust="spacing" textLength="300.7061" x="98.4429" y="1013.2261">[traitement bulkQuotes réussi côté bénéficiaire]</text>
    <path d="M339,1023.1484 L339,1048.1484 L965,1048.1484 L965,1033.1484 L955,1023.1484 L339,1023.1484 " fill="#FEFFDD" style="stroke:#181818;stroke-width:0.5;"/>
    <path d="M955,1023.1484 L955,1033.1484 L965,1033.1484 L955,1023.1484 " fill="#FEFFDD" style="stroke:#181818;stroke-width:0.5;"/>
    <text fill="#000000" font-family="sans-serif" font-size="13" lengthAdjust="spacing" textLength="427.3813" x="434.0271" y="1040.2153">Le FSP bénéficiaire envoie la réponse au FSP payeur via le Switch</text>
    <polygon fill="#181818" points="419.3677,1070.4141,409.3677,1074.4141,419.3677,1074.4141" style="stroke:#181818;stroke-width:1.0;"/>
    <line style="stroke:#181818;stroke-width:1.0;" x1="408.3677" x2="895.6655" y1="1074.4141" y2="1074.4141"/>
    <text fill="#000000" font-family="sans-serif" font-size="13" font-weight="bold" lengthAdjust="spacing" textLength="18.0908" x="425.3677" y="1069.3481">13</text>
    <text fill="#000000" font-family="sans-serif" font-size="13" lengthAdjust="spacing" textLength="142.4985" x="447.4585" y="1069.3481">PUT /bulkQuotes/{ID}</text>
    <polygon fill="#181818" points="884.6655,1103.5469,894.6655,1103.5469,884.6655,1107.5469" style="stroke:#181818;stroke-width:1.0;"/>
    <line style="stroke:#181818;stroke-width:1.0;stroke-dasharray:2.0,2.0;" x1="408.3677" x2="895.6655" y1="1103.5469" y2="1103.5469"/>
    <text fill="#000000" font-family="sans-serif" font-size="13" font-weight="bold" lengthAdjust="spacing" textLength="18.0908" x="415.3677" y="1098.481">14</text>
    <text fill="#000000" font-family="sans-serif" font-size="13" lengthAdjust="spacing" textLength="47.7026" x="437.4585" y="1098.481">200 OK</text>
    <line style="stroke:#181818;stroke-width:1.0;" x1="408.3677" x2="450.3677" y1="1132.6797" y2="1132.6797"/>
    <line style="stroke:#181818;stroke-width:1.0;" x1="450.3677" x2="450.3677" y1="1132.6797" y2="1145.6797"/>
    <line style="stroke:#181818;stroke-width:1.0;" x1="409.3677" x2="450.3677" y1="1145.6797" y2="1145.6797"/>
    <polygon fill="#181818" points="419.3677,1141.6797,409.3677,1145.6797,419.3677,1149.6797,415.3677,1145.6797" style="stroke:#181818;stroke-width:1.0;"/>
    <text fill="#000000" font-family="sans-serif" font-size="13" font-weight="bold" lengthAdjust="spacing" textLength="18.0908" x="415.3677" y="1127.6138">15</text>
    <text fill="#000000" font-family="sans-serif" font-size="13" lengthAdjust="spacing" textLength="253.8301" x="437.4585" y="1127.6138">Valider la réponse de cotation groupée</text>
    <line style="stroke:#181818;stroke-width:1.0;" x1="408.3677" x2="450.3677" y1="1174.8125" y2="1174.8125"/>
    <line style="stroke:#181818;stroke-width:1.0;" x1="450.3677" x2="450.3677" y1="1174.8125" y2="1187.8125"/>
    <line style="stroke:#181818;stroke-width:1.0;" x1="409.3677" x2="450.3677" y1="1187.8125" y2="1187.8125"/>
    <polygon fill="#181818" points="419.3677,1183.8125,409.3677,1187.8125,419.3677,1191.8125,415.3677,1187.8125" style="stroke:#181818;stroke-width:1.0;"/>
    <text fill="#000000" font-family="sans-serif" font-size="13" font-weight="bold" lengthAdjust="spacing" textLength="18.0908" x="415.3677" y="1169.7466">16</text>
    <text fill="#000000" font-family="sans-serif" font-size="13" lengthAdjust="spacing" textLength="132.2915" x="437.4585" y="1169.7466">Contrôle de doublon</text>
    <path d="M318.2607,1202.8125 L382.7036,1202.8125 L382.7036,1209.9453 L372.7036,1219.9453 L318.2607,1219.9453 L318.2607,1202.8125 " fill="#EEEEEE" style="stroke:#000000;stroke-width:1.5;"/>
    <rect fill="none" height="75.3984" style="stroke:#000000;stroke-width:1.5;" width="651.4355" x="318.2607" y="1202.8125"/>
    <text fill="#000000" font-family="sans-serif" font-size="13" font-weight="bold" lengthAdjust="spacing" textLength="19.4429" x="333.2607" y="1215.8794">alt</text>
    <text fill="#000000" font-family="sans-serif" font-size="11" font-weight="bold" lengthAdjust="spacing" textLength="293.1865" x="397.7036" y="1215.0229">[la réponse est un doublon mais pas un renvoi]</text>
    <polygon fill="#181818" points="884.6655,1237.0781,894.6655,1241.0781,884.6655,1241.0781" style="stroke:#181818;stroke-width:1.0;"/>
    <line style="stroke:#181818;stroke-width:1.0;" x1="408.3677" x2="895.6655" y1="1241.0781" y2="1241.0781"/>
    <text fill="#000000" font-family="sans-serif" font-size="13" font-weight="bold" lengthAdjust="spacing" textLength="18.0908" x="415.3677" y="1236.0122">17</text>
    <text fill="#000000" font-family="sans-serif" font-size="13" lengthAdjust="spacing" textLength="178.8643" x="437.4585" y="1236.0122">PUT /bulkQuotes/{ID}/error</text>
    <polygon fill="#181818" points="419.3677,1270.2109,409.3677,1270.2109,419.3677,1274.2109" style="stroke:#181818;stroke-width:1.0;"/>
    <line style="stroke:#181818;stroke-width:1.0;stroke-dasharray:2.0,2.0;" x1="408.3677" x2="895.6655" y1="1270.2109" y2="1270.2109"/>
    <text fill="#000000" font-family="sans-serif" font-size="13" font-weight="bold" lengthAdjust="spacing" textLength="18.0908" x="425.3677" y="1265.145">18</text>
    <text fill="#000000" font-family="sans-serif" font-size="13" lengthAdjust="spacing" textLength="47.7026" x="447.4585" y="1265.145">200 OK</text>
    <path d="M318.2607,1292.2109 L382.7036,1292.2109 L382.7036,1299.3438 L372.7036,1309.3438 L318.2607,1309.3438 L318.2607,1292.2109 " fill="#EEEEEE" style="stroke:#000000;stroke-width:1.5;"/>
    <rect fill="none" height="59.2656" style="stroke:#000000;stroke-width:1.5;" width="367.54" x="318.2607" y="1292.2109"/>
    <text fill="#000000" font-family="sans-serif" font-size="13" font-weight="bold" lengthAdjust="spacing" textLength="19.4429" x="333.2607" y="1305.2778">alt</text>
    <text fill="#000000" font-family="sans-serif" font-size="11" font-weight="bold" lengthAdjust="spacing" textLength="251.0288" x="397.7036" y="1304.4214">[la réponse est un doublon et un renvoi]</text>
    <line style="stroke:#181818;stroke-width:1.0;" x1="408.3677" x2="450.3677" y1="1330.4766" y2="1330.4766"/>
    <line style="stroke:#181818;stroke-width:1.0;" x1="450.3677" x2="450.3677" y1="1330.4766" y2="1343.4766"/>
    <line style="stroke:#181818;stroke-width:1.0;" x1="409.3677" x2="450.3677" y1="1343.4766" y2="1343.4766"/>
    <polygon fill="#181818" points="419.3677,1339.4766,409.3677,1343.4766,419.3677,1347.4766,415.3677,1343.4766" style="stroke:#181818;stroke-width:1.0;"/>
    <text fill="#000000" font-family="sans-serif" font-size="13" font-weight="bold" lengthAdjust="spacing" textLength="18.0908" x="415.3677" y="1325.4106">19</text>
    <text fill="#000000" font-family="sans-serif" font-size="13" lengthAdjust="spacing" textLength="236.3423" x="437.4585" y="1325.4106">Le Switch gère le scénario de renvoi</text>
    <path d="M86,1363.4766 L86,1388.4766 L402,1388.4766 L402,1373.4766 L392,1363.4766 L86,1363.4766 " fill="#FEFFDD" style="stroke:#181818;stroke-width:0.5;"/>
    <path d="M392,1363.4766 L392,1373.4766 L402,1373.4766 L392,1363.4766 " fill="#FEFFDD" style="stroke:#181818;stroke-width:0.5;"/>
    <text fill="#000000" font-family="sans-serif" font-size="13" lengthAdjust="spacing" textLength="295.731" x="92" y="1380.5435">Le Switch transmet la réponse au FSP payeur</text>
    <polygon fill="#181818" points="194.4126,1410.7422,184.4126,1414.7422,194.4126,1414.7422" style="stroke:#181818;stroke-width:1.0;"/>
    <line style="stroke:#181818;stroke-width:1.0;" x1="183.4126" x2="407.3677" y1="1414.7422" y2="1414.7422"/>
    <text fill="#000000" font-family="sans-serif" font-size="13" font-weight="bold" lengthAdjust="spacing" textLength="18.0908" x="200.4126" y="1409.6763">20</text>
    <text fill="#000000" font-family="sans-serif" font-size="13" lengthAdjust="spacing" textLength="142.4985" x="222.5034" y="1409.6763">PUT /bulkQuotes/{ID}</text>
    <polygon fill="#181818" points="396.3677,1443.875,406.3677,1443.875,396.3677,1447.875" style="stroke:#181818;stroke-width:1.0;"/>
    <line style="stroke:#181818;stroke-width:1.0;stroke-dasharray:2.0,2.0;" x1="183.4126" x2="407.3677" y1="1443.875" y2="1443.875"/>
    <text fill="#000000" font-family="sans-serif" font-size="13" font-weight="bold" lengthAdjust="spacing" textLength="18.0908" x="190.4126" y="1438.8091">21</text>
    <text fill="#000000" font-family="sans-serif" font-size="13" lengthAdjust="spacing" textLength="47.7026" x="212.5034" y="1438.8091">200 OK</text>
    <line style="stroke:#000000;stroke-width:1.0;stroke-dasharray:2.0,2.0;" x1="19" x2="975.4355" y1="1452.875" y2="1452.875"/>
    <text fill="#000000" font-family="sans-serif" font-size="11" font-weight="bold" lengthAdjust="spacing" textLength="423.5537" x="24" y="1463.0854">[le bénéficiaire rejette la cotation groupée ou rencontre une erreur]</text>
    <path d="M380,1471.6797 L380,1496.6797 L890,1496.6797 L890,1481.6797 L880,1471.6797 L380,1471.6797 " fill="#FEFFDD" style="stroke:#181818;stroke-width:0.5;"/>
    <path d="M880,1471.6797 L880,1481.6797 L890,1481.6797 L880,1471.6797 " fill="#FEFFDD" style="stroke:#181818;stroke-width:0.5;"/>
    <text fill="#000000" font-family="sans-serif" font-size="13" lengthAdjust="spacing" textLength="489.7407" x="386" y="1488.7466">Le FSP bénéficiaire envoie un callback d’erreur au FSP payeur via le Switch</text>
    <polygon fill="#181818" points="419.3677,1518.9453,409.3677,1522.9453,419.3677,1522.9453" style="stroke:#181818;stroke-width:1.0;"/>
    <line style="stroke:#181818;stroke-width:1.0;" x1="408.3677" x2="895.6655" y1="1522.9453" y2="1522.9453"/>
    <text fill="#000000" font-family="sans-serif" font-size="13" font-weight="bold" lengthAdjust="spacing" textLength="18.0908" x="425.3677" y="1517.8794">22</text>
    <text fill="#000000" font-family="sans-serif" font-size="13" lengthAdjust="spacing" textLength="178.8643" x="447.4585" y="1517.8794">PUT /bulkQuotes/{ID}/error</text>
    <polygon fill="#181818" points="884.6655,1552.0781,894.6655,1552.0781,884.6655,1556.0781" style="stroke:#181818;stroke-width:1.0;"/>
    <line style="stroke:#181818;stroke-width:1.0;stroke-dasharray:2.0,2.0;" x1="408.3677" x2="895.6655" y1="1552.0781" y2="1552.0781"/>
    <text fill="#000000" font-family="sans-serif" font-size="13" font-weight="bold" lengthAdjust="spacing" textLength="18.0908" x="415.3677" y="1547.0122">23</text>
    <text fill="#000000" font-family="sans-serif" font-size="13" lengthAdjust="spacing" textLength="47.7026" x="437.4585" y="1547.0122">200 OK</text>
    <path d="M29,1565.0781 L29,1590.0781 L403,1590.0781 L403,1575.0781 L393,1565.0781 L29,1565.0781 " fill="#FEFFDD" style="stroke:#181818;stroke-width:0.5;"/>
    <path d="M393,1565.0781 L393,1575.0781 L403,1575.0781 L393,1565.0781 " fill="#FEFFDD" style="stroke:#181818;stroke-width:0.5;"/>
    <text fill="#000000" font-family="sans-serif" font-size="13" lengthAdjust="spacing" textLength="353.2217" x="35" y="1582.145">Le Switch transmet le callback d’erreur au FSP payeur</text>
    <polygon fill="#181818" points="194.4126,1612.3438,184.4126,1616.3438,194.4126,1616.3438" style="stroke:#181818;stroke-width:1.0;"/>
    <line style="stroke:#181818;stroke-width:1.0;" x1="183.4126" x2="407.3677" y1="1616.3438" y2="1616.3438"/>
    <text fill="#000000" font-family="sans-serif" font-size="13" font-weight="bold" lengthAdjust="spacing" textLength="18.0908" x="200.4126" y="1611.2778">24</text>
    <text fill="#000000" font-family="sans-serif" font-size="13" lengthAdjust="spacing" textLength="178.8643" x="222.5034" y="1611.2778">PUT /bulkQuotes/{ID}/error</text>
    <polygon fill="#181818" points="396.3677,1645.4766,406.3677,1645.4766,396.3677,1649.4766" style="stroke:#181818;stroke-width:1.0;"/>
    <line style="stroke:#181818;stroke-width:1.0;stroke-dasharray:2.0,2.0;" x1="183.4126" x2="407.3677" y1="1645.4766" y2="1645.4766"/>
    <text fill="#000000" font-family="sans-serif" font-size="13" font-weight="bold" lengthAdjust="spacing" textLength="18.0908" x="190.4126" y="1640.4106">25</text>
    <text fill="#000000" font-family="sans-serif" font-size="13" lengthAdjust="spacing" textLength="47.7026" x="212.5034" y="1640.4106">200 OK</text>
    <line style="stroke:#000000;stroke-width:1.0;stroke-dasharray:2.0,2.0;" x1="9" x2="1283.1641" y1="1661.4766" y2="1661.4766"/>
    <text fill="#000000" font-family="sans-serif" font-size="11" font-weight="bold" lengthAdjust="spacing" textLength="333.1851" x="14" y="1671.687">[endpoint « quotes » du FSP bénéficiaire introuvable]</text>
    <path d="M36,1680.2813 L36,1720.2813 L402,1720.2813 L402,1690.2813 L392,1680.2813 L36,1680.2813 " fill="#FEFFDD" style="stroke:#181818;stroke-width:0.5;"/>
    <path d="M392,1680.2813 L392,1690.2813 L402,1690.2813 L392,1680.2813 " fill="#FEFFDD" style="stroke:#181818;stroke-width:0.5;"/>
    <text fill="#000000" font-family="sans-serif" font-size="13" lengthAdjust="spacing" textLength="341.8467" x="42" y="1697.3481">Le Switch envoie un callback d&apos;erreur au FSP payeur</text>
    <text fill="#000000" font-family="sans-serif" font-size="13" lengthAdjust="spacing" textLength="4.1323" x="42" y="1712.481"> </text>
    <text fill="#FF0000" font-family="sans-serif" font-size="13" font-weight="bold" lengthAdjust="spacing" textLength="150.96" x="46.1323" y="1712.481">Code d&apos;erreur : 3201</text>
    <polygon fill="#181818" points="194.4126,1742.6797,184.4126,1746.6797,194.4126,1746.6797" style="stroke:#181818;stroke-width:1.0;"/>
    <line style="stroke:#181818;stroke-width:1.0;" x1="183.4126" x2="407.3677" y1="1746.6797" y2="1746.6797"/>
    <text fill="#000000" font-family="sans-serif" font-size="13" font-weight="bold" lengthAdjust="spacing" textLength="18.0908" x="200.4126" y="1741.6138">26</text>
    <text fill="#000000" font-family="sans-serif" font-size="13" lengthAdjust="spacing" textLength="178.8643" x="222.5034" y="1741.6138">PUT /bulkQuotes/{ID}/error</text>
    <polygon fill="#181818" points="396.3677,1771.8125,406.3677,1775.8125,396.3677,1775.8125" style="stroke:#181818;stroke-width:1.0;"/>
    <line style="stroke:#181818;stroke-width:1.0;stroke-dasharray:2.0,2.0;" x1="183.4126" x2="407.3677" y1="1775.8125" y2="1775.8125"/>
    <text fill="#000000" font-family="sans-serif" font-size="13" font-weight="bold" lengthAdjust="spacing" textLength="18.0908" x="190.4126" y="1770.7466">27</text>
    <text fill="#000000" font-family="sans-serif" font-size="13" lengthAdjust="spacing" textLength="47.7026" x="212.5034" y="1770.7466">200 OK</text>
  </g>
</svg>
