<svg xmlns="http://www.w3.org/2000/svg" xmlns:xlink="http://www.w3.org/1999/xlink" contentStyleType="text/css" height="2078px" preserveAspectRatio="none" style="width:1383px;height:2078px;background:#FFFFFF;" version="1.1" viewBox="0 0 1383 2078" width="1383px" zoomAndPan="magnify">
  <title>Obtenir les informations d’une cotation</title>
  <defs/>
  <g>
    <text fill="#000000" font-family="sans-serif" font-size="14" font-weight="bold" lengthAdjust="spacing" textLength="312.6279" x="536.2246" y="27.9951">Obtenir les informations d’une cotation</text>
    <rect fill="#FFFFFF" height="122.7969" style="stroke:#181818;stroke-width:1.0;" width="10" x="939.0298" y="859.6406"/>
    <rect fill="none" height="1586.9297" style="stroke:#000000;stroke-width:1.5;" width="1367.0771" x="9" y="396.5156"/>
    <rect fill="none" height="1281.7969" style="stroke:#000000;stroke-width:1.5;" width="1159.2686" x="19" y="571.3125"/>
    <rect fill="none" height="810" style="stroke:#000000;stroke-width:1.5;" width="1139.2686" x="29" y="730.9766"/>
    <rect fill="none" height="242.3281" style="stroke:#000000;stroke-width:1.5;" width="772.3047" x="304.1792" y="755.1094"/>
    <rect fill="none" height="169.0625" style="stroke:#000000;stroke-width:1.5;" width="752.3047" x="314.1792" y="821.375"/>
    <rect fill="none" height="116.2031" style="stroke:#000000;stroke-width:1.5;" width="404.5513" x="314.1792" y="1011.4375"/>
    <rect fill="none" height="233.8672" style="stroke:#000000;stroke-width:1.5;" width="1119.2686" x="39" y="1141.6406"/>
    <rect fill="none" height="59.2656" style="stroke:#000000;stroke-width:1.5;" width="293.334" x="314.1792" y="1678.3125"/>
    <line style="stroke:#181818;stroke-width:0.5;stroke-dasharray:5.0,5.0;" x1="175" x2="175" y1="106.1875" y2="2000.4453"/>
    <line style="stroke:#181818;stroke-width:0.5;stroke-dasharray:5.0,5.0;" x1="370.1792" x2="370.1792" y1="106.1875" y2="2000.4453"/>
    <line style="stroke:#181818;stroke-width:0.5;stroke-dasharray:5.0,5.0;" x1="943.8525" x2="943.8525" y1="106.1875" y2="2000.4453"/>
    <line style="stroke:#181818;stroke-width:0.5;stroke-dasharray:5.0,5.0;" x1="1085.207" x2="1085.207" y1="106.1875" y2="2000.4453"/>
    <rect fill="#E2E2F0" height="30.2969" rx="2.5" ry="2.5" style="stroke:#181818;stroke-width:0.5;" width="92.8252" x="129" y="74.8906"/>
    <text fill="#000000" font-family="sans-serif" font-size="14" lengthAdjust="spacing" textLength="78.8252" x="136" y="94.8857">FSP payeur</text>
    <rect fill="#E2E2F0" height="30.2969" rx="2.5" ry="2.5" style="stroke:#181818;stroke-width:0.5;" width="92.8252" x="129" y="1999.4453"/>
    <text fill="#000000" font-family="sans-serif" font-size="14" lengthAdjust="spacing" textLength="78.8252" x="136" y="2019.4404">FSP payeur</text>
    <rect fill="#E2E2F0" height="62.8906" rx="2.5" ry="2.5" style="stroke:#181818;stroke-width:0.5;" width="93.1533" x="324.1792" y="42.2969"/>
    <text fill="#000000" font-family="sans-serif" font-size="14" lengthAdjust="spacing" textLength="46.2861" x="347.6128" y="62.292">Switch</text>
    <text fill="#000000" font-family="sans-serif" font-size="14" lengthAdjust="spacing" textLength="79.1533" x="331.1792" y="78.5889">[Service de</text>
    <text fill="#000000" font-family="sans-serif" font-size="14" lengthAdjust="spacing" textLength="62.6104" x="339.4507" y="94.8857">cotation]</text>
    <rect fill="#E2E2F0" height="62.8906" rx="2.5" ry="2.5" style="stroke:#181818;stroke-width:0.5;" width="93.1533" x="324.1792" y="1999.4453"/>
    <text fill="#000000" font-family="sans-serif" font-size="14" lengthAdjust="spacing" textLength="46.2861" x="347.6128" y="2019.4404">Switch</text>
    <text fill="#000000" font-family="sans-serif" font-size="14" lengthAdjust="spacing" textLength="79.1533" x="331.1792" y="2035.7373">[Service de</text>
    <text fill="#000000" font-family="sans-serif" font-size="14" lengthAdjust="spacing" textLength="62.6104" x="339.4507" y="2052.0342">cotation]</text>
    <text fill="#000000" font-family="sans-serif" font-size="14" lengthAdjust="spacing" textLength="130.3545" x="875.8525" y="102.8857">Référentiel central</text>
    <path d="M926.0298,53.8906 C926.0298,43.8906 944.0298,43.8906 944.0298,43.8906 C944.0298,43.8906 962.0298,43.8906 962.0298,53.8906 L962.0298,79.8906 C962.0298,89.8906 944.0298,89.8906 944.0298,89.8906 C944.0298,89.8906 926.0298,89.8906 926.0298,79.8906 L926.0298,53.8906 " fill="#E2E2F0" style="stroke:#181818;stroke-width:1.5;"/>
    <path d="M926.0298,53.8906 C926.0298,63.8906 944.0298,63.8906 944.0298,63.8906 C944.0298,63.8906 962.0298,63.8906 962.0298,53.8906 " fill="none" style="stroke:#181818;stroke-width:1.5;"/>
    <text fill="#000000" font-family="sans-serif" font-size="14" lengthAdjust="spacing" textLength="130.3545" x="875.8525" y="2012.4404">Référentiel central</text>
    <path d="M926.0298,2025.7422 C926.0298,2015.7422 944.0298,2015.7422 944.0298,2015.7422 C944.0298,2015.7422 962.0298,2015.7422 962.0298,2025.7422 L962.0298,2051.7422 C962.0298,2061.7422 944.0298,2061.7422 944.0298,2061.7422 C944.0298,2061.7422 926.0298,2061.7422 926.0298,2051.7422 L926.0298,2025.7422 " fill="#E2E2F0" style="stroke:#181818;stroke-width:1.5;"/>
    <path d="M926.0298,2025.7422 C926.0298,2035.7422 944.0298,2035.7422 944.0298,2035.7422 C944.0298,2035.7422 962.0298,2035.7422 962.0298,2025.7422 " fill="none" style="stroke:#181818;stroke-width:1.5;"/>
    <rect fill="#E2E2F0" height="30.2969" rx="2.5" ry="2.5" style="stroke:#181818;stroke-width:0.5;" width="126.0615" x="1022.207" y="74.8906"/>
    <text fill="#000000" font-family="sans-serif" font-size="14" lengthAdjust="spacing" textLength="112.0615" x="1029.207" y="94.8857">FSP bénéficiaire</text>
    <rect fill="#E2E2F0" height="30.2969" rx="2.5" ry="2.5" style="stroke:#181818;stroke-width:0.5;" width="126.0615" x="1022.207" y="1999.4453"/>
    <text fill="#000000" font-family="sans-serif" font-size="14" lengthAdjust="spacing" textLength="112.0615" x="1029.207" y="2019.4404">FSP bénéficiaire</text>
    <rect fill="#FFFFFF" height="122.7969" style="stroke:#181818;stroke-width:1.0;" width="10" x="939.0298" y="859.6406"/>
    <path d="M180,121.1875 L180,161.1875 L513,161.1875 L513,131.1875 L503,121.1875 L180,121.1875 " fill="#FEFFDD" style="stroke:#181818;stroke-width:0.5;"/>
    <path d="M503,121.1875 L503,131.1875 L513,131.1875 L503,121.1875 " fill="#FEFFDD" style="stroke:#181818;stroke-width:0.5;"/>
    <text fill="#000000" font-family="sans-serif" font-size="13" lengthAdjust="spacing" textLength="312.6729" x="186" y="138.2544">Le FSP payeur demande le détail d’une cotation</text>
    <text fill="#000000" font-family="sans-serif" font-size="13" lengthAdjust="spacing" textLength="210.6533" x="186" y="153.3872">au FSP bénéficiaire via le Switch</text>
    <polygon fill="#181818" points="358.7559,183.5859,368.7559,187.5859,358.7559,187.5859" style="stroke:#181818;stroke-width:1.0;"/>
    <line style="stroke:#181818;stroke-width:1.0;" x1="175.4126" x2="369.7559" y1="187.5859" y2="187.5859"/>
    <text fill="#000000" font-family="sans-serif" font-size="13" font-weight="bold" lengthAdjust="spacing" textLength="9.0454" x="182.4126" y="182.52">1</text>
    <text fill="#000000" font-family="sans-serif" font-size="13" lengthAdjust="spacing" textLength="113.8198" x="195.458" y="182.52">GET /quotes/{ID}</text>
    <path d="M375,200.5859 L375,270.5859 L615,270.5859 L615,210.5859 L605,200.5859 L375,200.5859 " fill="#AAAAAA" style="stroke:#181818;stroke-width:0.5;"/>
    <path d="M605,200.5859 L605,210.5859 L615,210.5859 L605,200.5859 " fill="#AAAAAA" style="stroke:#181818;stroke-width:0.5;"/>
    <text fill="#000000" font-family="sans-serif" font-size="13" lengthAdjust="spacing" textLength="170.8662" x="381" y="217.6528">Valider la requête selon la</text>
    <text fill="#000000" font-family="sans-serif" font-size="13" lengthAdjust="spacing" textLength="219.1338" x="381" y="232.7856">spécification d’interface Mojaloop</text>
    <text fill="#FF0000" font-family="sans-serif" font-size="13" font-weight="bold" lengthAdjust="spacing" textLength="203.9819" x="381" y="247.9185">Codes d’erreur : 300x, 310x</text>
    <text fill="#FF0000" font-family="sans-serif" font-size="13" font-weight="bold" lengthAdjust="spacing" textLength="191.9595" x="381" y="263.0513">Codes HTTP d’erreur : 4xx</text>
    <line style="stroke:#181818;stroke-width:1.0;" x1="370.7559" x2="412.7559" y1="297.25" y2="297.25"/>
    <line style="stroke:#181818;stroke-width:1.0;" x1="412.7559" x2="412.7559" y1="297.25" y2="310.25"/>
    <line style="stroke:#181818;stroke-width:1.0;" x1="371.7559" x2="412.7559" y1="310.25" y2="310.25"/>
    <polygon fill="#181818" points="381.7559,306.25,371.7559,310.25,381.7559,314.25,377.7559,310.25" style="stroke:#181818;stroke-width:1.0;"/>
    <text fill="#000000" font-family="sans-serif" font-size="13" font-weight="bold" lengthAdjust="spacing" textLength="9.0454" x="377.7559" y="292.1841">2</text>
    <text fill="#000000" font-family="sans-serif" font-size="13" lengthAdjust="spacing" textLength="140.5054" x="390.8013" y="292.1841">Validation de schéma</text>
    <polygon fill="#181818" points="186.4126,339.3828,176.4126,339.3828,186.4126,343.3828" style="stroke:#181818;stroke-width:1.0;"/>
    <line style="stroke:#181818;stroke-width:1.0;stroke-dasharray:2.0,2.0;" x1="175.4126" x2="369.7559" y1="339.3828" y2="339.3828"/>
    <text fill="#000000" font-family="sans-serif" font-size="13" font-weight="bold" lengthAdjust="spacing" textLength="9.0454" x="192.4126" y="334.3169">3</text>
    <text fill="#000000" font-family="sans-serif" font-size="13" lengthAdjust="spacing" textLength="89.7305" x="205.458" y="334.3169">202 Accepted</text>
    <line style="stroke:#181818;stroke-width:1.0;" x1="370.7559" x2="412.7559" y1="368.5156" y2="368.5156"/>
    <line style="stroke:#181818;stroke-width:1.0;" x1="412.7559" x2="412.7559" y1="368.5156" y2="381.5156"/>
    <line style="stroke:#181818;stroke-width:1.0;" x1="371.7559" x2="412.7559" y1="381.5156" y2="381.5156"/>
    <polygon fill="#181818" points="381.7559,377.5156,371.7559,381.5156,381.7559,385.5156,377.7559,381.5156" style="stroke:#181818;stroke-width:1.0;"/>
    <text fill="#000000" font-family="sans-serif" font-size="13" font-weight="bold" lengthAdjust="spacing" textLength="9.0454" x="377.7559" y="363.4497">4</text>
    <text fill="#000000" font-family="sans-serif" font-size="13" lengthAdjust="spacing" textLength="423.8267" x="390.8013" y="363.4497">Récupérer le point de terminaison « quotes » du FSP bénéficiaire</text>
    <path d="M9,396.5156 L73.4429,396.5156 L73.4429,403.6484 L63.4429,413.6484 L9,413.6484 L9,396.5156 " fill="#EEEEEE" style="stroke:#000000;stroke-width:1.5;"/>
    <rect fill="none" height="1586.9297" style="stroke:#000000;stroke-width:1.5;" width="1367.0771" x="9" y="396.5156"/>
    <text fill="#000000" font-family="sans-serif" font-size="13" font-weight="bold" lengthAdjust="spacing" textLength="19.4429" x="24" y="409.5825">alt</text>
    <text fill="#000000" font-family="sans-serif" font-size="11" font-weight="bold" lengthAdjust="spacing" textLength="376.6802" x="88.4429" y="408.7261">[point de terminaison « quotes » du FSP bénéficiaire trouvé]</text>
    <path d="M375,418.6484 L375,458.6484 L862,458.6484 L862,428.6484 L852,418.6484 L375,418.6484 " fill="#FEFFDD" style="stroke:#181818;stroke-width:0.5;"/>
    <path d="M852,418.6484 L852,428.6484 L862,428.6484 L852,418.6484 " fill="#FEFFDD" style="stroke:#181818;stroke-width:0.5;"/>
    <text fill="#000000" font-family="sans-serif" font-size="13" lengthAdjust="spacing" textLength="466.0576" x="381" y="435.7153">Le Switch transmet la requête au FSP bénéficiaire (mode pass-through)</text>
    <text fill="#000000" font-family="sans-serif" font-size="13" lengthAdjust="spacing" textLength="147.4053" x="381" y="450.8481">&lt;Règles côté payeur&gt;</text>
    <polygon fill="#181818" points="1073.2378,481.0469,1083.2378,485.0469,1073.2378,485.0469" style="stroke:#181818;stroke-width:1.0;"/>
    <line style="stroke:#181818;stroke-width:1.0;" x1="370.7559" x2="1084.2378" y1="485.0469" y2="485.0469"/>
    <text fill="#000000" font-family="sans-serif" font-size="13" font-weight="bold" lengthAdjust="spacing" textLength="9.0454" x="377.7559" y="479.981">5</text>
    <text fill="#000000" font-family="sans-serif" font-size="13" lengthAdjust="spacing" textLength="113.8198" x="390.8013" y="479.981">GET /quotes/{ID}</text>
    <polygon fill="#181818" points="381.7559,514.1797,371.7559,514.1797,381.7559,518.1797" style="stroke:#181818;stroke-width:1.0;"/>
    <line style="stroke:#181818;stroke-width:1.0;stroke-dasharray:2.0,2.0;" x1="370.7559" x2="1084.2378" y1="514.1797" y2="514.1797"/>
    <text fill="#000000" font-family="sans-serif" font-size="13" font-weight="bold" lengthAdjust="spacing" textLength="9.0454" x="387.7559" y="509.1138">6</text>
    <text fill="#000000" font-family="sans-serif" font-size="13" lengthAdjust="spacing" textLength="89.7305" x="400.8013" y="509.1138">202 Accepted</text>
    <line style="stroke:#181818;stroke-width:1.0;" x1="1085.2378" x2="1127.2378" y1="543.3125" y2="543.3125"/>
    <line style="stroke:#181818;stroke-width:1.0;" x1="1127.2378" x2="1127.2378" y1="543.3125" y2="556.3125"/>
    <line style="stroke:#181818;stroke-width:1.0;" x1="1086.2378" x2="1127.2378" y1="556.3125" y2="556.3125"/>
    <polygon fill="#181818" points="1096.2378,552.3125,1086.2378,556.3125,1096.2378,560.3125,1092.2378,556.3125" style="stroke:#181818;stroke-width:1.0;"/>
    <text fill="#000000" font-family="sans-serif" font-size="13" font-weight="bold" lengthAdjust="spacing" textLength="9.0454" x="1092.2378" y="538.2466">7</text>
    <text fill="#000000" font-family="sans-serif" font-size="13" lengthAdjust="spacing" textLength="258.7939" x="1105.2832" y="538.2466">Le FSP bénéficiaire récupère la cotation</text>
    <path d="M19,571.3125 L83.4429,571.3125 L83.4429,578.4453 L73.4429,588.4453 L19,588.4453 L19,571.3125 " fill="#EEEEEE" style="stroke:#000000;stroke-width:1.5;"/>
    <rect fill="none" height="1281.7969" style="stroke:#000000;stroke-width:1.5;" width="1159.2686" x="19" y="571.3125"/>
    <text fill="#000000" font-family="sans-serif" font-size="13" font-weight="bold" lengthAdjust="spacing" textLength="19.4429" x="34" y="584.3794">alt</text>
    <text fill="#000000" font-family="sans-serif" font-size="11" font-weight="bold" lengthAdjust="spacing" textLength="332.9702" x="98.4429" y="583.5229">[le FSP bénéficiaire récupère la cotation avec succès]</text>
    <path d="M714,593.4453 L714,618.4453 L1079,618.4453 L1079,603.4453 L1069,593.4453 L714,593.4453 " fill="#FEFFDD" style="stroke:#181818;stroke-width:0.5;"/>
    <path d="M1069,593.4453 L1069,603.4453 L1079,603.4453 L1069,593.4453 " fill="#FEFFDD" style="stroke:#181818;stroke-width:0.5;"/>
    <text fill="#000000" font-family="sans-serif" font-size="13" lengthAdjust="spacing" textLength="344.4937" x="720" y="610.5122">Le FSP bénéficiaire répond à la demande de cotation</text>
    <polygon fill="#181818" points="381.7559,640.7109,371.7559,644.7109,381.7559,644.7109" style="stroke:#181818;stroke-width:1.0;"/>
    <line style="stroke:#181818;stroke-width:1.0;" x1="370.7559" x2="1084.2378" y1="644.7109" y2="644.7109"/>
    <text fill="#000000" font-family="sans-serif" font-size="13" font-weight="bold" lengthAdjust="spacing" textLength="9.0454" x="387.7559" y="639.645">8</text>
    <text fill="#000000" font-family="sans-serif" font-size="13" lengthAdjust="spacing" textLength="112.8867" x="400.8013" y="639.645">PUT /quotes/{ID}</text>
    <polygon fill="#181818" points="1073.2378,673.8438,1083.2378,673.8438,1073.2378,677.8438" style="stroke:#181818;stroke-width:1.0;"/>
    <line style="stroke:#181818;stroke-width:1.0;stroke-dasharray:2.0,2.0;" x1="370.7559" x2="1084.2378" y1="673.8438" y2="673.8438"/>
    <text fill="#000000" font-family="sans-serif" font-size="13" font-weight="bold" lengthAdjust="spacing" textLength="9.0454" x="377.7559" y="668.7778">9</text>
    <text fill="#000000" font-family="sans-serif" font-size="13" lengthAdjust="spacing" textLength="46.7061" x="390.8013" y="668.7778">200 Ok</text>
    <line style="stroke:#181818;stroke-width:1.0;" x1="370.7559" x2="412.7559" y1="702.9766" y2="702.9766"/>
    <line style="stroke:#181818;stroke-width:1.0;" x1="412.7559" x2="412.7559" y1="702.9766" y2="715.9766"/>
    <line style="stroke:#181818;stroke-width:1.0;" x1="371.7559" x2="412.7559" y1="715.9766" y2="715.9766"/>
    <polygon fill="#181818" points="381.7559,711.9766,371.7559,715.9766,381.7559,719.9766,377.7559,715.9766" style="stroke:#181818;stroke-width:1.0;"/>
    <text fill="#000000" font-family="sans-serif" font-size="13" font-weight="bold" lengthAdjust="spacing" textLength="18.0908" x="377.7559" y="697.9106">10</text>
    <text fill="#000000" font-family="sans-serif" font-size="13" lengthAdjust="spacing" textLength="249.4312" x="399.8467" y="697.9106">Valider la réponse (schéma, en-têtes (</text>
    <text fill="#FF0000" font-family="sans-serif" font-size="13" font-weight="bold" lengthAdjust="spacing" textLength="151.9185" x="649.2778" y="697.9106">Code d’erreur : 3100</text>
    <text fill="#000000" font-family="sans-serif" font-size="13" lengthAdjust="spacing" textLength="10.1436" x="801.1963" y="697.9106">))</text>
    <path d="M29,730.9766 L93.4429,730.9766 L93.4429,738.1094 L83.4429,748.1094 L29,748.1094 L29,730.9766 " fill="#EEEEEE" style="stroke:#000000;stroke-width:1.5;"/>
    <rect fill="none" height="810" style="stroke:#000000;stroke-width:1.5;" width="1139.2686" x="29" y="730.9766"/>
    <text fill="#000000" font-family="sans-serif" font-size="13" font-weight="bold" lengthAdjust="spacing" textLength="19.4429" x="44" y="744.0435">alt</text>
    <text fill="#000000" font-family="sans-serif" font-size="11" font-weight="bold" lengthAdjust="spacing" textLength="101.5083" x="108.4429" y="743.187">[réponse valide]</text>
    <path d="M304.1792,755.1094 L368.6221,755.1094 L368.6221,762.2422 L358.6221,772.2422 L304.1792,772.2422 L304.1792,755.1094 " fill="#EEEEEE" style="stroke:#000000;stroke-width:1.5;"/>
    <rect fill="none" height="242.3281" style="stroke:#000000;stroke-width:1.5;" width="772.3047" x="304.1792" y="755.1094"/>
    <text fill="#000000" font-family="sans-serif" font-size="13" font-weight="bold" lengthAdjust="spacing" textLength="19.4429" x="319.1792" y="768.1763">alt</text>
    <text fill="#000000" font-family="sans-serif" font-size="11" font-weight="bold" lengthAdjust="spacing" textLength="200.1431" x="383.6221" y="767.3198">[SimpleRoutingMode est FALSE]</text>
    <line style="stroke:#181818;stroke-width:1.0;" x1="370.7559" x2="412.7559" y1="793.375" y2="793.375"/>
    <line style="stroke:#181818;stroke-width:1.0;" x1="412.7559" x2="412.7559" y1="793.375" y2="806.375"/>
    <line style="stroke:#181818;stroke-width:1.0;" x1="371.7559" x2="412.7559" y1="806.375" y2="806.375"/>
    <polygon fill="#181818" points="381.7559,802.375,371.7559,806.375,381.7559,810.375,377.7559,806.375" style="stroke:#181818;stroke-width:1.0;"/>
    <text fill="#000000" font-family="sans-serif" font-size="13" font-weight="bold" lengthAdjust="spacing" textLength="18.0908" x="377.7559" y="788.3091">11</text>
    <text fill="#000000" font-family="sans-serif" font-size="13" lengthAdjust="spacing" textLength="375.1211" x="399.8467" y="788.3091">Valider la réponse (contrôle de doublon, scénario renvoi (</text>
    <text fill="#FF0000" font-family="sans-serif" font-size="13" font-weight="bold" lengthAdjust="spacing" textLength="151.9185" x="774.9678" y="788.3091">Code d’erreur : 3106</text>
    <text fill="#000000" font-family="sans-serif" font-size="13" lengthAdjust="spacing" textLength="10.1436" x="926.8862" y="788.3091">))</text>
    <path d="M314.1792,821.375 L378.6221,821.375 L378.6221,828.5078 L368.6221,838.5078 L314.1792,838.5078 L314.1792,821.375 " fill="#EEEEEE" style="stroke:#000000;stroke-width:1.5;"/>
    <rect fill="none" height="169.0625" style="stroke:#000000;stroke-width:1.5;" width="752.3047" x="314.1792" y="821.375"/>
    <text fill="#000000" font-family="sans-serif" font-size="13" font-weight="bold" lengthAdjust="spacing" textLength="19.4429" x="329.1792" y="834.4419">alt</text>
    <text fill="#000000" font-family="sans-serif" font-size="11" font-weight="bold" lengthAdjust="spacing" textLength="120.7744" x="393.6221" y="833.5854">[validation réussie]</text>
    <polygon fill="#181818" points="927.0298,855.6406,937.0298,859.6406,927.0298,859.6406" style="stroke:#181818;stroke-width:1.0;"/>
    <line style="stroke:#181818;stroke-width:1.0;" x1="370.7559" x2="938.0298" y1="859.6406" y2="859.6406"/>
    <text fill="#000000" font-family="sans-serif" font-size="13" font-weight="bold" lengthAdjust="spacing" textLength="18.0908" x="377.7559" y="854.5747">12</text>
    <text fill="#000000" font-family="sans-serif" font-size="13" lengthAdjust="spacing" textLength="206.7622" x="399.8467" y="854.5747">Persister la réponse de cotation</text>
    <polygon fill="#FEFFDD" points="840,872.6406,1046,872.6406,1056,913.6406,1046,955.6406,840,955.6406,830,913.6406,840,872.6406" style="stroke:#181818;stroke-width:0.5;"/>
    <text fill="#000000" font-family="sans-serif" font-size="13" lengthAdjust="spacing" textLength="100.5596" x="842" y="888.7075">quoteResponse</text>
    <text fill="#000000" font-family="sans-serif" font-size="13" lengthAdjust="spacing" textLength="202.4839" x="842" y="903.8403">quoteResponseDuplicateCheck</text>
    <text fill="#000000" font-family="sans-serif" font-size="13" lengthAdjust="spacing" textLength="159.834" x="842" y="918.9731">quoteResponseIlpPacket</text>
    <text fill="#000000" font-family="sans-serif" font-size="13" lengthAdjust="spacing" textLength="108.1323" x="842" y="934.106">quoteExtensions</text>
    <text fill="#000000" font-family="sans-serif" font-size="13" lengthAdjust="spacing" textLength="57.4844" x="842" y="949.2388">geoCode</text>
    <polygon fill="#181818" points="381.7559,982.4375,371.7559,982.4375,381.7559,986.4375" style="stroke:#181818;stroke-width:1.0;"/>
    <line style="stroke:#181818;stroke-width:1.0;stroke-dasharray:2.0,2.0;" x1="370.7559" x2="943.0298" y1="982.4375" y2="982.4375"/>
    <text fill="#000000" font-family="sans-serif" font-size="13" font-weight="bold" lengthAdjust="spacing" textLength="18.0908" x="387.7559" y="977.3716">13</text>
    <text fill="#000000" font-family="sans-serif" font-size="13" lengthAdjust="spacing" textLength="212.6147" x="409.8467" y="977.3716">Réponse de cotation enregistrée</text>
    <path d="M314.1792,1011.4375 L378.6221,1011.4375 L378.6221,1018.5703 L368.6221,1028.5703 L314.1792,1028.5703 L314.1792,1011.4375 " fill="#EEEEEE" style="stroke:#000000;stroke-width:1.5;"/>
    <rect fill="none" height="116.2031" style="stroke:#000000;stroke-width:1.5;" width="404.5513" x="314.1792" y="1011.4375"/>
    <text fill="#000000" font-family="sans-serif" font-size="13" font-weight="bold" lengthAdjust="spacing" textLength="19.4429" x="329.1792" y="1024.5044">alt</text>
    <text fill="#000000" font-family="sans-serif" font-size="11" font-weight="bold" lengthAdjust="spacing" textLength="194.0898" x="393.6221" y="1023.6479">[SimpleRoutingMode est TRUE]</text>
    <line style="stroke:#181818;stroke-width:1.0;" x1="370.7559" x2="412.7559" y1="1049.7031" y2="1049.7031"/>
    <line style="stroke:#181818;stroke-width:1.0;" x1="412.7559" x2="412.7559" y1="1049.7031" y2="1062.7031"/>
    <line style="stroke:#181818;stroke-width:1.0;" x1="371.7559" x2="412.7559" y1="1062.7031" y2="1062.7031"/>
    <polygon fill="#181818" points="381.7559,1058.7031,371.7559,1062.7031,381.7559,1066.7031,377.7559,1062.7031" style="stroke:#181818;stroke-width:1.0;"/>
    <text fill="#000000" font-family="sans-serif" font-size="13" font-weight="bold" lengthAdjust="spacing" textLength="18.0908" x="377.7559" y="1044.6372">14</text>
    <text fill="#000000" font-family="sans-serif" font-size="13" lengthAdjust="spacing" textLength="306.8838" x="399.8467" y="1044.6372">Récupérer l&apos;endpoint « quotes » du FSP payeur</text>
    <line style="stroke:#000000;stroke-width:1.0;stroke-dasharray:2.0,2.0;" x1="314.1792" x2="718.7305" y1="1071.7031" y2="1071.7031"/>
    <text fill="#000000" font-family="sans-serif" font-size="11" font-weight="bold" lengthAdjust="spacing" textLength="200.1431" x="319.1792" y="1081.9136">[SimpleRoutingMode est FALSE]</text>
    <line style="stroke:#181818;stroke-width:1.0;" x1="370.7559" x2="412.7559" y1="1106.6406" y2="1106.6406"/>
    <line style="stroke:#181818;stroke-width:1.0;" x1="412.7559" x2="412.7559" y1="1106.6406" y2="1119.6406"/>
    <line style="stroke:#181818;stroke-width:1.0;" x1="371.7559" x2="412.7559" y1="1119.6406" y2="1119.6406"/>
    <polygon fill="#181818" points="381.7559,1115.6406,371.7559,1119.6406,381.7559,1123.6406,377.7559,1119.6406" style="stroke:#181818;stroke-width:1.0;"/>
    <text fill="#000000" font-family="sans-serif" font-size="13" font-weight="bold" lengthAdjust="spacing" textLength="18.0908" x="377.7559" y="1101.5747">15</text>
    <text fill="#000000" font-family="sans-serif" font-size="13" lengthAdjust="spacing" textLength="296.8418" x="399.8467" y="1101.5747">Récupérer l&apos;endpoint « quote party » (PAYER)</text>
    <path d="M39,1141.6406 L103.4429,1141.6406 L103.4429,1148.7734 L93.4429,1158.7734 L39,1158.7734 L39,1141.6406 " fill="#EEEEEE" style="stroke:#000000;stroke-width:1.5;"/>
    <rect fill="none" height="233.8672" style="stroke:#000000;stroke-width:1.5;" width="1119.2686" x="39" y="1141.6406"/>
    <text fill="#000000" font-family="sans-serif" font-size="13" font-weight="bold" lengthAdjust="spacing" textLength="19.4429" x="54" y="1154.7075">alt</text>
    <text fill="#000000" font-family="sans-serif" font-size="11" font-weight="bold" lengthAdjust="spacing" textLength="251.8828" x="118.4429" y="1153.8511">[endpoint de callback « quotes » trouvé]</text>
    <path d="M49,1163.7734 L49,1203.7734 L365,1203.7734 L365,1173.7734 L355,1163.7734 L49,1163.7734 " fill="#FEFFDD" style="stroke:#181818;stroke-width:0.5;"/>
    <path d="M355,1163.7734 L355,1173.7734 L365,1173.7734 L355,1163.7734 " fill="#FEFFDD" style="stroke:#181818;stroke-width:0.5;"/>
    <text fill="#000000" font-family="sans-serif" font-size="13" lengthAdjust="spacing" textLength="295.731" x="55" y="1180.8403">Le Switch transmet la réponse au FSP payeur</text>
    <text fill="#000000" font-family="sans-serif" font-size="13" lengthAdjust="spacing" textLength="276.2119" x="55" y="1195.9731">&lt;Règle bénéficiaire — requête complète&gt;</text>
    <polygon fill="#181818" points="186.4126,1226.1719,176.4126,1230.1719,186.4126,1230.1719" style="stroke:#181818;stroke-width:1.0;"/>
    <line style="stroke:#181818;stroke-width:1.0;" x1="175.4126" x2="369.7559" y1="1230.1719" y2="1230.1719"/>
    <text fill="#000000" font-family="sans-serif" font-size="13" font-weight="bold" lengthAdjust="spacing" textLength="18.0908" x="192.4126" y="1225.106">16</text>
    <text fill="#000000" font-family="sans-serif" font-size="13" lengthAdjust="spacing" textLength="112.8867" x="214.5034" y="1225.106">PUT /quotes/{ID}</text>
    <polygon fill="#181818" points="358.7559,1259.3047,368.7559,1259.3047,358.7559,1263.3047" style="stroke:#181818;stroke-width:1.0;"/>
    <line style="stroke:#181818;stroke-width:1.0;stroke-dasharray:2.0,2.0;" x1="175.4126" x2="369.7559" y1="1259.3047" y2="1259.3047"/>
    <text fill="#000000" font-family="sans-serif" font-size="13" font-weight="bold" lengthAdjust="spacing" textLength="18.0908" x="182.4126" y="1254.2388">17</text>
    <text fill="#000000" font-family="sans-serif" font-size="13" lengthAdjust="spacing" textLength="46.7061" x="204.5034" y="1254.2388">200 Ok</text>
    <line style="stroke:#000000;stroke-width:1.0;stroke-dasharray:2.0,2.0;" x1="39" x2="1158.2686" y1="1268.3047" y2="1268.3047"/>
    <text fill="#000000" font-family="sans-serif" font-size="11" font-weight="bold" lengthAdjust="spacing" textLength="282.5518" x="44" y="1278.5151">[endpoint de callback « quotes » introuvable]</text>
    <path d="M375,1287.1094 L375,1312.1094 L712,1312.1094 L712,1297.1094 L702,1287.1094 L375,1287.1094 " fill="#FEFFDD" style="stroke:#181818;stroke-width:0.5;"/>
    <path d="M702,1287.1094 L702,1297.1094 L712,1297.1094 L702,1287.1094 " fill="#FEFFDD" style="stroke:#181818;stroke-width:0.5;"/>
    <text fill="#000000" font-family="sans-serif" font-size="13" lengthAdjust="spacing" textLength="316.8623" x="381" y="1304.1763">Le Switch renvoie une erreur au FSP bénéficiaire</text>
    <polygon fill="#181818" points="1073.2378,1334.375,1083.2378,1338.375,1073.2378,1338.375" style="stroke:#181818;stroke-width:1.0;"/>
    <line style="stroke:#181818;stroke-width:1.0;" x1="370.7559" x2="1084.2378" y1="1338.375" y2="1338.375"/>
    <text fill="#000000" font-family="sans-serif" font-size="13" font-weight="bold" lengthAdjust="spacing" textLength="18.0908" x="377.7559" y="1333.3091">18</text>
    <text fill="#000000" font-family="sans-serif" font-size="13" lengthAdjust="spacing" textLength="149.2524" x="399.8467" y="1333.3091">PUT /quotes/{ID}/error</text>
    <polygon fill="#181818" points="381.7559,1367.5078,371.7559,1367.5078,381.7559,1371.5078" style="stroke:#181818;stroke-width:1.0;"/>
    <line style="stroke:#181818;stroke-width:1.0;stroke-dasharray:2.0,2.0;" x1="370.7559" x2="1084.2378" y1="1367.5078" y2="1367.5078"/>
    <text fill="#000000" font-family="sans-serif" font-size="13" font-weight="bold" lengthAdjust="spacing" textLength="18.0908" x="387.7559" y="1362.4419">19</text>
    <text fill="#000000" font-family="sans-serif" font-size="13" lengthAdjust="spacing" textLength="46.7061" x="409.8467" y="1362.4419">200 Ok</text>
    <line style="stroke:#000000;stroke-width:1.0;stroke-dasharray:2.0,2.0;" x1="29" x2="1168.2686" y1="1383.5078" y2="1383.5078"/>
    <text fill="#000000" font-family="sans-serif" font-size="11" font-weight="bold" lengthAdjust="spacing" textLength="113.1099" x="34" y="1393.7183">[réponse invalide]</text>
    <path d="M375,1402.3125 L375,1427.3125 L712,1427.3125 L712,1412.3125 L702,1402.3125 L375,1402.3125 " fill="#FEFFDD" style="stroke:#181818;stroke-width:0.5;"/>
    <path d="M702,1402.3125 L702,1412.3125 L712,1412.3125 L702,1402.3125 " fill="#FEFFDD" style="stroke:#181818;stroke-width:0.5;"/>
    <text fill="#000000" font-family="sans-serif" font-size="13" lengthAdjust="spacing" textLength="316.8623" x="381" y="1419.3794">Le Switch renvoie une erreur au FSP bénéficiaire</text>
    <polygon fill="#181818" points="1073.2378,1449.5781,1083.2378,1453.5781,1073.2378,1453.5781" style="stroke:#181818;stroke-width:1.0;"/>
    <line style="stroke:#181818;stroke-width:1.0;" x1="370.7559" x2="1084.2378" y1="1453.5781" y2="1453.5781"/>
    <text fill="#000000" font-family="sans-serif" font-size="13" font-weight="bold" lengthAdjust="spacing" textLength="18.0908" x="377.7559" y="1448.5122">20</text>
    <text fill="#000000" font-family="sans-serif" font-size="13" lengthAdjust="spacing" textLength="149.2524" x="399.8467" y="1448.5122">PUT /quotes/{ID}/error</text>
    <polygon fill="#181818" points="381.7559,1482.7109,371.7559,1482.7109,381.7559,1486.7109" style="stroke:#181818;stroke-width:1.0;"/>
    <line style="stroke:#181818;stroke-width:1.0;stroke-dasharray:2.0,2.0;" x1="370.7559" x2="1084.2378" y1="1482.7109" y2="1482.7109"/>
    <text fill="#000000" font-family="sans-serif" font-size="13" font-weight="bold" lengthAdjust="spacing" textLength="18.0908" x="387.7559" y="1477.645">21</text>
    <text fill="#000000" font-family="sans-serif" font-size="13" lengthAdjust="spacing" textLength="46.7061" x="409.8467" y="1477.645">200 Ok</text>
    <path d="M318,1495.7109 L318,1535.7109 L1137,1535.7109 L1137,1505.7109 L1127,1495.7109 L318,1495.7109 " fill="#EC7063" style="stroke:#181818;stroke-width:0.5;"/>
    <path d="M1127,1495.7109 L1127,1505.7109 L1137,1505.7109 L1127,1495.7109 " fill="#EC7063" style="stroke:#181818;stroke-width:0.5;"/>
    <text fill="#000000" font-family="sans-serif" font-size="13" lengthAdjust="spacing" textLength="208.6348" x="617.3562" y="1512.7778">Dans ce scénario, le FSP payeur</text>
    <text fill="#000000" font-family="sans-serif" font-size="13" lengthAdjust="spacing" textLength="211.377" x="617.3562" y="1527.9106">peut ne pas recevoir de réponse</text>
    <line style="stroke:#000000;stroke-width:1.0;stroke-dasharray:2.0,2.0;" x1="19" x2="1178.2686" y1="1548.9766" y2="1548.9766"/>
    <text fill="#000000" font-family="sans-serif" font-size="11" font-weight="bold" lengthAdjust="spacing" textLength="136.4312" x="24" y="1559.187">[cotation introuvable]</text>
    <path d="M742,1567.7813 L742,1607.7813 L1079,1607.7813 L1079,1577.7813 L1069,1567.7813 L742,1567.7813 " fill="#FEFFDD" style="stroke:#181818;stroke-width:0.5;"/>
    <path d="M1069,1567.7813 L1069,1577.7813 L1079,1577.7813 L1069,1567.7813 " fill="#FEFFDD" style="stroke:#181818;stroke-width:0.5;"/>
    <text fill="#000000" font-family="sans-serif" font-size="13" lengthAdjust="spacing" textLength="316.8623" x="748" y="1584.8481">Le FSP bénéficiaire renvoie une erreur au Switch</text>
    <text fill="#000000" font-family="sans-serif" font-size="13" lengthAdjust="spacing" textLength="4.1323" x="748" y="1599.981"> </text>
    <text fill="#FF0000" font-family="sans-serif" font-size="13" font-weight="bold" lengthAdjust="spacing" textLength="151.9185" x="752.1323" y="1599.981">Code d’erreur : 3205</text>
    <polygon fill="#181818" points="381.7559,1630.1797,371.7559,1634.1797,381.7559,1634.1797" style="stroke:#181818;stroke-width:1.0;"/>
    <line style="stroke:#181818;stroke-width:1.0;" x1="370.7559" x2="1084.2378" y1="1634.1797" y2="1634.1797"/>
    <text fill="#000000" font-family="sans-serif" font-size="13" font-weight="bold" lengthAdjust="spacing" textLength="18.0908" x="387.7559" y="1629.1138">22</text>
    <text fill="#000000" font-family="sans-serif" font-size="13" lengthAdjust="spacing" textLength="149.2524" x="409.8467" y="1629.1138">PUT /quotes/{ID}/error</text>
    <polygon fill="#181818" points="1073.2378,1663.3125,1083.2378,1663.3125,1073.2378,1667.3125" style="stroke:#181818;stroke-width:1.0;"/>
    <line style="stroke:#181818;stroke-width:1.0;stroke-dasharray:2.0,2.0;" x1="370.7559" x2="1084.2378" y1="1663.3125" y2="1663.3125"/>
    <text fill="#000000" font-family="sans-serif" font-size="13" font-weight="bold" lengthAdjust="spacing" textLength="18.0908" x="377.7559" y="1658.2466">23</text>
    <text fill="#000000" font-family="sans-serif" font-size="13" lengthAdjust="spacing" textLength="47.7026" x="399.8467" y="1658.2466">200 OK</text>
    <path d="M314.1792,1678.3125 L378.6221,1678.3125 L378.6221,1685.4453 L368.6221,1695.4453 L314.1792,1695.4453 L314.1792,1678.3125 " fill="#EEEEEE" style="stroke:#000000;stroke-width:1.5;"/>
    <rect fill="none" height="59.2656" style="stroke:#000000;stroke-width:1.5;" width="293.334" x="314.1792" y="1678.3125"/>
    <text fill="#000000" font-family="sans-serif" font-size="13" font-weight="bold" lengthAdjust="spacing" textLength="19.4429" x="329.1792" y="1691.3794">alt</text>
    <text fill="#000000" font-family="sans-serif" font-size="11" font-weight="bold" lengthAdjust="spacing" textLength="200.1431" x="393.6221" y="1690.5229">[SimpleRoutingMode est FALSE]</text>
    <line style="stroke:#181818;stroke-width:1.0;" x1="370.7559" x2="412.7559" y1="1716.5781" y2="1716.5781"/>
    <line style="stroke:#181818;stroke-width:1.0;" x1="412.7559" x2="412.7559" y1="1716.5781" y2="1729.5781"/>
    <line style="stroke:#181818;stroke-width:1.0;" x1="371.7559" x2="412.7559" y1="1729.5781" y2="1729.5781"/>
    <polygon fill="#181818" points="381.7559,1725.5781,371.7559,1729.5781,381.7559,1733.5781,377.7559,1729.5781" style="stroke:#181818;stroke-width:1.0;"/>
    <text fill="#000000" font-family="sans-serif" font-size="13" font-weight="bold" lengthAdjust="spacing" textLength="18.0908" x="377.7559" y="1711.5122">24</text>
    <text fill="#000000" font-family="sans-serif" font-size="13" lengthAdjust="spacing" textLength="195.6665" x="399.8467" y="1711.5122">Persister les données d’erreur</text>
    <path d="M58,1749.5781 L58,1789.5781 L365,1789.5781 L365,1759.5781 L355,1749.5781 L58,1749.5781 " fill="#FEFFDD" style="stroke:#181818;stroke-width:0.5;"/>
    <path d="M355,1749.5781 L355,1759.5781 L365,1759.5781 L355,1749.5781 " fill="#FEFFDD" style="stroke:#181818;stroke-width:0.5;"/>
    <text fill="#000000" font-family="sans-serif" font-size="13" lengthAdjust="spacing" textLength="286" x="64" y="1766.645">Le Switch renvoie une erreur au FSP payeur</text>
    <text fill="#000000" font-family="sans-serif" font-size="13" lengthAdjust="spacing" textLength="4.1323" x="64" y="1781.7778"> </text>
    <text fill="#FF0000" font-family="sans-serif" font-size="13" font-weight="bold" lengthAdjust="spacing" textLength="151.9185" x="68.1323" y="1781.7778">Code d’erreur : 3205</text>
    <polygon fill="#181818" points="186.4126,1811.9766,176.4126,1815.9766,186.4126,1815.9766" style="stroke:#181818;stroke-width:1.0;"/>
    <line style="stroke:#181818;stroke-width:1.0;" x1="175.4126" x2="369.7559" y1="1815.9766" y2="1815.9766"/>
    <text fill="#000000" font-family="sans-serif" font-size="13" font-weight="bold" lengthAdjust="spacing" textLength="18.0908" x="192.4126" y="1810.9106">25</text>
    <text fill="#000000" font-family="sans-serif" font-size="13" lengthAdjust="spacing" textLength="149.2524" x="214.5034" y="1810.9106">PUT /quotes/{ID}/error</text>
    <polygon fill="#181818" points="358.7559,1845.1094,368.7559,1845.1094,358.7559,1849.1094" style="stroke:#181818;stroke-width:1.0;"/>
    <line style="stroke:#181818;stroke-width:1.0;stroke-dasharray:2.0,2.0;" x1="175.4126" x2="369.7559" y1="1845.1094" y2="1845.1094"/>
    <text fill="#000000" font-family="sans-serif" font-size="13" font-weight="bold" lengthAdjust="spacing" textLength="18.0908" x="182.4126" y="1840.0435">26</text>
    <text fill="#000000" font-family="sans-serif" font-size="13" lengthAdjust="spacing" textLength="47.7026" x="204.5034" y="1840.0435">200 OK</text>
    <line style="stroke:#000000;stroke-width:1.0;stroke-dasharray:2.0,2.0;" x1="9" x2="1376.0771" y1="1861.1094" y2="1861.1094"/>
    <text fill="#000000" font-family="sans-serif" font-size="11" font-weight="bold" lengthAdjust="spacing" textLength="333.1851" x="14" y="1871.3198">[endpoint « quotes » du FSP bénéficiaire introuvable]</text>
    <path d="M58,1879.9141 L58,1919.9141 L365,1919.9141 L365,1889.9141 L355,1879.9141 L58,1879.9141 " fill="#FEFFDD" style="stroke:#181818;stroke-width:0.5;"/>
    <path d="M355,1879.9141 L355,1889.9141 L365,1889.9141 L355,1879.9141 " fill="#FEFFDD" style="stroke:#181818;stroke-width:0.5;"/>
    <text fill="#000000" font-family="sans-serif" font-size="13" lengthAdjust="spacing" textLength="286" x="64" y="1896.981">Le Switch renvoie une erreur au FSP payeur</text>
    <text fill="#FF0000" font-family="sans-serif" font-size="13" font-weight="bold" lengthAdjust="spacing" textLength="151.9185" x="64" y="1912.1138">Code d’erreur : 3201</text>
    <polygon fill="#181818" points="186.4126,1942.3125,176.4126,1946.3125,186.4126,1946.3125" style="stroke:#181818;stroke-width:1.0;"/>
    <line style="stroke:#181818;stroke-width:1.0;" x1="175.4126" x2="369.7559" y1="1946.3125" y2="1946.3125"/>
    <text fill="#000000" font-family="sans-serif" font-size="13" font-weight="bold" lengthAdjust="spacing" textLength="18.0908" x="192.4126" y="1941.2466">27</text>
    <text fill="#000000" font-family="sans-serif" font-size="13" lengthAdjust="spacing" textLength="149.2524" x="214.5034" y="1941.2466">PUT /quotes/{ID}/error</text>
    <polygon fill="#181818" points="358.7559,1975.4453,368.7559,1975.4453,358.7559,1979.4453" style="stroke:#181818;stroke-width:1.0;"/>
    <line style="stroke:#181818;stroke-width:1.0;stroke-dasharray:2.0,2.0;" x1="175.4126" x2="369.7559" y1="1975.4453" y2="1975.4453"/>
    <text fill="#000000" font-family="sans-serif" font-size="13" font-weight="bold" lengthAdjust="spacing" textLength="18.0908" x="182.4126" y="1970.3794">28</text>
    <text fill="#000000" font-family="sans-serif" font-size="13" lengthAdjust="spacing" textLength="47.7026" x="204.5034" y="1970.3794">200 OK</text>
  </g>
</svg>
