<svg xmlns="http://www.w3.org/2000/svg" xmlns:xlink="http://www.w3.org/1999/xlink" contentStyleType="text/css" height="1626px" preserveAspectRatio="none" style="width:1346px;height:1626px;background:#FFFFFF;" version="1.1" viewBox="0 0 1346 1626" width="1346px" zoomAndPan="magnify">
  <title>Obtenir les informations d’une cotation groupée</title>
  <defs/>
  <g>
    <text fill="#000000" font-family="sans-serif" font-size="14" font-weight="bold" lengthAdjust="spacing" textLength="383.0244" x="482.4941" y="27.9951">Obtenir les informations d’une cotation groupée</text>
    <rect fill="none" height="1177.3984" style="stroke:#000000;stroke-width:1.5;" width="1330.0127" x="9" y="380.2188"/>
    <rect fill="none" height="887.3984" style="stroke:#000000;stroke-width:1.5;" width="1059.7734" x="19" y="539.8828"/>
    <rect fill="none" height="450.4688" style="stroke:#000000;stroke-width:1.5;" width="1039.7734" x="29" y="737.9453"/>
    <rect fill="none" height="218.7344" style="stroke:#000000;stroke-width:1.5;" width="1024.0342" x="39" y="804.2109"/>
    <line style="stroke:#181818;stroke-width:0.5;stroke-dasharray:5.0,5.0;" x1="282" x2="282" y1="89.8906" y2="1574.6172"/>
    <line style="stroke:#181818;stroke-width:0.5;stroke-dasharray:5.0,5.0;" x1="507.2607" x2="507.2607" y1="89.8906" y2="1574.6172"/>
    <line style="stroke:#181818;stroke-width:0.5;stroke-dasharray:5.0,5.0;" x1="989.9727" x2="989.9727" y1="89.8906" y2="1574.6172"/>
    <rect fill="#E2E2F0" height="30.2969" rx="2.5" ry="2.5" style="stroke:#181818;stroke-width:0.5;" width="92.8252" x="236" y="58.5938"/>
    <text fill="#000000" font-family="sans-serif" font-size="14" lengthAdjust="spacing" textLength="78.8252" x="243" y="78.5889">FSP payeur</text>
    <rect fill="#E2E2F0" height="30.2969" rx="2.5" ry="2.5" style="stroke:#181818;stroke-width:0.5;" width="92.8252" x="236" y="1573.6172"/>
    <text fill="#000000" font-family="sans-serif" font-size="14" lengthAdjust="spacing" textLength="78.8252" x="243" y="1593.6123">FSP payeur</text>
    <rect fill="#E2E2F0" height="46.5938" rx="2.5" ry="2.5" style="stroke:#181818;stroke-width:0.5;" width="160.2139" x="427.2607" y="42.2969"/>
    <text fill="#000000" font-family="sans-serif" font-size="14" lengthAdjust="spacing" textLength="46.2861" x="484.2246" y="62.292">Switch</text>
    <text fill="#000000" font-family="sans-serif" font-size="14" lengthAdjust="spacing" textLength="146.2139" x="434.2607" y="78.5889">[Service de cotation]</text>
    <rect fill="#E2E2F0" height="46.5938" rx="2.5" ry="2.5" style="stroke:#181818;stroke-width:0.5;" width="160.2139" x="427.2607" y="1573.6172"/>
    <text fill="#000000" font-family="sans-serif" font-size="14" lengthAdjust="spacing" textLength="46.2861" x="484.2246" y="1593.6123">Switch</text>
    <text fill="#000000" font-family="sans-serif" font-size="14" lengthAdjust="spacing" textLength="146.2139" x="434.2607" y="1609.9092">[Service de cotation]</text>
    <rect fill="#E2E2F0" height="30.2969" rx="2.5" ry="2.5" style="stroke:#181818;stroke-width:0.5;" width="126.0615" x="926.9727" y="58.5938"/>
    <text fill="#000000" font-family="sans-serif" font-size="14" lengthAdjust="spacing" textLength="112.0615" x="933.9727" y="78.5889">FSP bénéficiaire</text>
    <rect fill="#E2E2F0" height="30.2969" rx="2.5" ry="2.5" style="stroke:#181818;stroke-width:0.5;" width="126.0615" x="926.9727" y="1573.6172"/>
    <text fill="#000000" font-family="sans-serif" font-size="14" lengthAdjust="spacing" textLength="112.0615" x="933.9727" y="1593.6123">FSP bénéficiaire</text>
    <path d="M287,104.8906 L287,144.8906 L678,144.8906 L678,114.8906 L668,104.8906 L287,104.8906 " fill="#FEFFDD" style="stroke:#181818;stroke-width:0.5;"/>
    <path d="M668,104.8906 L668,114.8906 L678,114.8906 L668,104.8906 " fill="#FEFFDD" style="stroke:#181818;stroke-width:0.5;"/>
    <text fill="#000000" font-family="sans-serif" font-size="13" lengthAdjust="spacing" textLength="370.8428" x="293" y="121.9575">Le FSP payeur demande le détail d’une cotation groupée</text>
    <text fill="#000000" font-family="sans-serif" font-size="13" lengthAdjust="spacing" textLength="210.6533" x="293" y="137.0903">au FSP bénéficiaire via le Switch</text>
    <polygon fill="#181818" points="495.3677,167.2891,505.3677,171.2891,495.3677,171.2891" style="stroke:#181818;stroke-width:1.0;"/>
    <line style="stroke:#181818;stroke-width:1.0;" x1="282.4126" x2="506.3677" y1="171.2891" y2="171.2891"/>
    <text fill="#000000" font-family="sans-serif" font-size="13" font-weight="bold" lengthAdjust="spacing" textLength="9.0454" x="289.4126" y="166.2231">1</text>
    <text fill="#000000" font-family="sans-serif" font-size="13" lengthAdjust="spacing" textLength="143.4316" x="302.458" y="166.2231">GET /bulkQuotes/{ID}</text>
    <path d="M512,184.2891 L512,254.2891 L752,254.2891 L752,194.2891 L742,184.2891 L512,184.2891 " fill="#AAAAAA" style="stroke:#181818;stroke-width:0.5;"/>
    <path d="M742,184.2891 L742,194.2891 L752,194.2891 L742,184.2891 " fill="#AAAAAA" style="stroke:#181818;stroke-width:0.5;"/>
    <text fill="#000000" font-family="sans-serif" font-size="13" lengthAdjust="spacing" textLength="170.8662" x="518" y="201.356">Valider la requête selon la</text>
    <text fill="#000000" font-family="sans-serif" font-size="13" lengthAdjust="spacing" textLength="219.1338" x="518" y="216.4888">spécification d’interface Mojaloop</text>
    <text fill="#FF0000" font-family="sans-serif" font-size="13" font-weight="bold" lengthAdjust="spacing" textLength="203.9819" x="518" y="231.6216">Codes d’erreur : 300x, 310x</text>
    <text fill="#FF0000" font-family="sans-serif" font-size="13" font-weight="bold" lengthAdjust="spacing" textLength="191.9595" x="518" y="246.7544">Codes HTTP d’erreur : 4xx</text>
    <line style="stroke:#181818;stroke-width:1.0;" x1="507.3677" x2="549.3677" y1="280.9531" y2="280.9531"/>
    <line style="stroke:#181818;stroke-width:1.0;" x1="549.3677" x2="549.3677" y1="280.9531" y2="293.9531"/>
    <line style="stroke:#181818;stroke-width:1.0;" x1="508.3677" x2="549.3677" y1="293.9531" y2="293.9531"/>
    <polygon fill="#181818" points="518.3677,289.9531,508.3677,293.9531,518.3677,297.9531,514.3677,293.9531" style="stroke:#181818;stroke-width:1.0;"/>
    <text fill="#000000" font-family="sans-serif" font-size="13" font-weight="bold" lengthAdjust="spacing" textLength="9.0454" x="514.3677" y="275.8872">2</text>
    <text fill="#000000" font-family="sans-serif" font-size="13" lengthAdjust="spacing" textLength="140.5054" x="527.4131" y="275.8872">Validation de schéma</text>
    <polygon fill="#181818" points="293.4126,323.0859,283.4126,323.0859,293.4126,327.0859" style="stroke:#181818;stroke-width:1.0;"/>
    <line style="stroke:#181818;stroke-width:1.0;stroke-dasharray:2.0,2.0;" x1="282.4126" x2="506.3677" y1="323.0859" y2="323.0859"/>
    <text fill="#000000" font-family="sans-serif" font-size="13" font-weight="bold" lengthAdjust="spacing" textLength="9.0454" x="299.4126" y="318.02">3</text>
    <text fill="#000000" font-family="sans-serif" font-size="13" lengthAdjust="spacing" textLength="89.7305" x="312.458" y="318.02">202 Accepted</text>
    <line style="stroke:#181818;stroke-width:1.0;" x1="507.3677" x2="549.3677" y1="352.2188" y2="352.2188"/>
    <line style="stroke:#181818;stroke-width:1.0;" x1="549.3677" x2="549.3677" y1="352.2188" y2="365.2188"/>
    <line style="stroke:#181818;stroke-width:1.0;" x1="508.3677" x2="549.3677" y1="365.2188" y2="365.2188"/>
    <polygon fill="#181818" points="518.3677,361.2188,508.3677,365.2188,518.3677,369.2188,514.3677,365.2188" style="stroke:#181818;stroke-width:1.0;"/>
    <text fill="#000000" font-family="sans-serif" font-size="13" font-weight="bold" lengthAdjust="spacing" textLength="9.0454" x="514.3677" y="347.1528">4</text>
    <text fill="#000000" font-family="sans-serif" font-size="13" lengthAdjust="spacing" textLength="455.5903" x="527.4131" y="347.1528">Récupérer le point de terminaison « bulk quotes » du FSP bénéficiaire</text>
    <path d="M9,380.2188 L73.4429,380.2188 L73.4429,387.3516 L63.4429,397.3516 L9,397.3516 L9,380.2188 " fill="#EEEEEE" style="stroke:#000000;stroke-width:1.5;"/>
    <rect fill="none" height="1177.3984" style="stroke:#000000;stroke-width:1.5;" width="1330.0127" x="9" y="380.2188"/>
    <text fill="#000000" font-family="sans-serif" font-size="13" font-weight="bold" lengthAdjust="spacing" textLength="19.4429" x="24" y="393.2856">alt</text>
    <text fill="#000000" font-family="sans-serif" font-size="11" font-weight="bold" lengthAdjust="spacing" textLength="407.3008" x="88.4429" y="392.4292">[point de terminaison « bulk quotes » du FSP bénéficiaire trouvé]</text>
    <path d="M512,402.3516 L512,427.3516 L999,427.3516 L999,412.3516 L989,402.3516 L512,402.3516 " fill="#FEFFDD" style="stroke:#181818;stroke-width:0.5;"/>
    <path d="M989,402.3516 L989,412.3516 L999,412.3516 L989,402.3516 " fill="#FEFFDD" style="stroke:#181818;stroke-width:0.5;"/>
    <text fill="#000000" font-family="sans-serif" font-size="13" lengthAdjust="spacing" textLength="466.0576" x="518" y="419.4185">Le Switch transmet la requête au FSP bénéficiaire (mode pass-through)</text>
    <polygon fill="#181818" points="978.0034,449.6172,988.0034,453.6172,978.0034,453.6172" style="stroke:#181818;stroke-width:1.0;"/>
    <line style="stroke:#181818;stroke-width:1.0;" x1="507.3677" x2="989.0034" y1="453.6172" y2="453.6172"/>
    <text fill="#000000" font-family="sans-serif" font-size="13" font-weight="bold" lengthAdjust="spacing" textLength="9.0454" x="514.3677" y="448.5513">5</text>
    <text fill="#000000" font-family="sans-serif" font-size="13" lengthAdjust="spacing" textLength="143.4316" x="527.4131" y="448.5513">GET /bulkQuotes/{ID}</text>
    <polygon fill="#181818" points="518.3677,482.75,508.3677,482.75,518.3677,486.75" style="stroke:#181818;stroke-width:1.0;"/>
    <line style="stroke:#181818;stroke-width:1.0;stroke-dasharray:2.0,2.0;" x1="507.3677" x2="989.0034" y1="482.75" y2="482.75"/>
    <text fill="#000000" font-family="sans-serif" font-size="13" font-weight="bold" lengthAdjust="spacing" textLength="9.0454" x="524.3677" y="477.6841">6</text>
    <text fill="#000000" font-family="sans-serif" font-size="13" lengthAdjust="spacing" textLength="89.7305" x="537.4131" y="477.6841">202 Accepted</text>
    <line style="stroke:#181818;stroke-width:1.0;" x1="990.0034" x2="1032.0034" y1="511.8828" y2="511.8828"/>
    <line style="stroke:#181818;stroke-width:1.0;" x1="1032.0034" x2="1032.0034" y1="511.8828" y2="524.8828"/>
    <line style="stroke:#181818;stroke-width:1.0;" x1="991.0034" x2="1032.0034" y1="524.8828" y2="524.8828"/>
    <polygon fill="#181818" points="1001.0034,520.8828,991.0034,524.8828,1001.0034,528.8828,997.0034,524.8828" style="stroke:#181818;stroke-width:1.0;"/>
    <text fill="#000000" font-family="sans-serif" font-size="13" font-weight="bold" lengthAdjust="spacing" textLength="9.0454" x="997.0034" y="506.8169">7</text>
    <text fill="#000000" font-family="sans-serif" font-size="13" lengthAdjust="spacing" textLength="316.9639" x="1010.0488" y="506.8169">Le FSP bénéficiaire récupère la cotation groupée</text>
    <path d="M19,539.8828 L83.4429,539.8828 L83.4429,547.0156 L73.4429,557.0156 L19,557.0156 L19,539.8828 " fill="#EEEEEE" style="stroke:#000000;stroke-width:1.5;"/>
    <rect fill="none" height="887.3984" style="stroke:#000000;stroke-width:1.5;" width="1059.7734" x="19" y="539.8828"/>
    <text fill="#000000" font-family="sans-serif" font-size="13" font-weight="bold" lengthAdjust="spacing" textLength="19.4429" x="34" y="552.9497">alt</text>
    <text fill="#000000" font-family="sans-serif" font-size="11" font-weight="bold" lengthAdjust="spacing" textLength="332.9702" x="98.4429" y="552.0933">[le FSP bénéficiaire récupère la cotation avec succès]</text>
    <path d="M619,562.0156 L619,587.0156 L984,587.0156 L984,572.0156 L974,562.0156 L619,562.0156 " fill="#FEFFDD" style="stroke:#181818;stroke-width:0.5;"/>
    <path d="M974,562.0156 L974,572.0156 L984,572.0156 L974,562.0156 " fill="#FEFFDD" style="stroke:#181818;stroke-width:0.5;"/>
    <text fill="#000000" font-family="sans-serif" font-size="13" lengthAdjust="spacing" textLength="344.4937" x="625" y="579.0825">Le FSP bénéficiaire répond à la demande de cotation</text>
    <polygon fill="#181818" points="518.3677,609.2813,508.3677,613.2813,518.3677,613.2813" style="stroke:#181818;stroke-width:1.0;"/>
    <line style="stroke:#181818;stroke-width:1.0;" x1="507.3677" x2="989.0034" y1="613.2813" y2="613.2813"/>
    <text fill="#000000" font-family="sans-serif" font-size="13" font-weight="bold" lengthAdjust="spacing" textLength="9.0454" x="524.3677" y="608.2153">8</text>
    <text fill="#000000" font-family="sans-serif" font-size="13" lengthAdjust="spacing" textLength="112.8867" x="537.4131" y="608.2153">PUT /quotes/{ID}</text>
    <path d="M512,626.2813 L512,696.2813 L752,696.2813 L752,636.2813 L742,626.2813 L512,626.2813 " fill="#AAAAAA" style="stroke:#181818;stroke-width:0.5;"/>
    <path d="M742,626.2813 L742,636.2813 L752,636.2813 L742,626.2813 " fill="#AAAAAA" style="stroke:#181818;stroke-width:0.5;"/>
    <text fill="#000000" font-family="sans-serif" font-size="13" lengthAdjust="spacing" textLength="170.8662" x="518" y="643.3481">Valider la requête selon la</text>
    <text fill="#000000" font-family="sans-serif" font-size="13" lengthAdjust="spacing" textLength="219.1338" x="518" y="658.481">spécification d’interface Mojaloop</text>
    <text fill="#FF0000" font-family="sans-serif" font-size="13" font-weight="bold" lengthAdjust="spacing" textLength="203.9819" x="518" y="673.6138">Codes d’erreur : 300x, 310x</text>
    <text fill="#FF0000" font-family="sans-serif" font-size="13" font-weight="bold" lengthAdjust="spacing" textLength="191.9595" x="518" y="688.7466">Codes HTTP d’erreur : 4xx</text>
    <polygon fill="#181818" points="978.0034,722.9453,988.0034,722.9453,978.0034,726.9453" style="stroke:#181818;stroke-width:1.0;"/>
    <line style="stroke:#181818;stroke-width:1.0;stroke-dasharray:2.0,2.0;" x1="507.3677" x2="989.0034" y1="722.9453" y2="722.9453"/>
    <text fill="#000000" font-family="sans-serif" font-size="13" font-weight="bold" lengthAdjust="spacing" textLength="9.0454" x="514.3677" y="717.8794">9</text>
    <text fill="#000000" font-family="sans-serif" font-size="13" lengthAdjust="spacing" textLength="46.7061" x="527.4131" y="717.8794">200 Ok</text>
    <path d="M29,737.9453 L93.4429,737.9453 L93.4429,745.0781 L83.4429,755.0781 L29,755.0781 L29,737.9453 " fill="#EEEEEE" style="stroke:#000000;stroke-width:1.5;"/>
    <rect fill="none" height="450.4688" style="stroke:#000000;stroke-width:1.5;" width="1039.7734" x="29" y="737.9453"/>
    <text fill="#000000" font-family="sans-serif" font-size="13" font-weight="bold" lengthAdjust="spacing" textLength="19.4429" x="44" y="751.0122">alt</text>
    <text fill="#000000" font-family="sans-serif" font-size="11" font-weight="bold" lengthAdjust="spacing" textLength="101.5083" x="108.4429" y="750.1558">[réponse valide]</text>
    <line style="stroke:#181818;stroke-width:1.0;" x1="507.3677" x2="549.3677" y1="776.2109" y2="776.2109"/>
    <line style="stroke:#181818;stroke-width:1.0;" x1="549.3677" x2="549.3677" y1="776.2109" y2="789.2109"/>
    <line style="stroke:#181818;stroke-width:1.0;" x1="508.3677" x2="549.3677" y1="789.2109" y2="789.2109"/>
    <polygon fill="#181818" points="518.3677,785.2109,508.3677,789.2109,518.3677,793.2109,514.3677,789.2109" style="stroke:#181818;stroke-width:1.0;"/>
    <text fill="#000000" font-family="sans-serif" font-size="13" font-weight="bold" lengthAdjust="spacing" textLength="18.0908" x="514.3677" y="771.145">10</text>
    <text fill="#000000" font-family="sans-serif" font-size="13" lengthAdjust="spacing" textLength="424.728" x="536.4585" y="771.145">Récupérer le point de terminaison « bulk quotes » du FSP payeur</text>
    <path d="M39,804.2109 L103.4429,804.2109 L103.4429,811.3438 L93.4429,821.3438 L39,821.3438 L39,804.2109 " fill="#EEEEEE" style="stroke:#000000;stroke-width:1.5;"/>
    <rect fill="none" height="218.7344" style="stroke:#000000;stroke-width:1.5;" width="1024.0342" x="39" y="804.2109"/>
    <text fill="#000000" font-family="sans-serif" font-size="13" font-weight="bold" lengthAdjust="spacing" textLength="19.4429" x="54" y="817.2778">alt</text>
    <text fill="#000000" font-family="sans-serif" font-size="11" font-weight="bold" lengthAdjust="spacing" textLength="356.6675" x="118.4429" y="816.4214">[point de terminaison de callback « bulk quotes » trouvé]</text>
    <path d="M49,826.3438 L49,851.3438 L501,851.3438 L501,836.3438 L491,826.3438 L49,826.3438 " fill="#FEFFDD" style="stroke:#181818;stroke-width:0.5;"/>
    <path d="M491,826.3438 L491,836.3438 L501,836.3438 L491,826.3438 " fill="#FEFFDD" style="stroke:#181818;stroke-width:0.5;"/>
    <text fill="#000000" font-family="sans-serif" font-size="13" lengthAdjust="spacing" textLength="431.4819" x="55" y="843.4106">Le Switch transmet la réponse de cotation groupée au FSP payeur</text>
    <polygon fill="#181818" points="293.4126,873.6094,283.4126,877.6094,293.4126,877.6094" style="stroke:#181818;stroke-width:1.0;"/>
    <line style="stroke:#181818;stroke-width:1.0;" x1="282.4126" x2="506.3677" y1="877.6094" y2="877.6094"/>
    <text fill="#000000" font-family="sans-serif" font-size="13" font-weight="bold" lengthAdjust="spacing" textLength="18.0908" x="299.4126" y="872.5435">11</text>
    <text fill="#000000" font-family="sans-serif" font-size="13" lengthAdjust="spacing" textLength="142.4985" x="321.5034" y="872.5435">PUT /bulkQuotes/{ID}</text>
    <polygon fill="#181818" points="495.3677,906.7422,505.3677,906.7422,495.3677,910.7422" style="stroke:#181818;stroke-width:1.0;"/>
    <line style="stroke:#181818;stroke-width:1.0;stroke-dasharray:2.0,2.0;" x1="282.4126" x2="506.3677" y1="906.7422" y2="906.7422"/>
    <text fill="#000000" font-family="sans-serif" font-size="13" font-weight="bold" lengthAdjust="spacing" textLength="18.0908" x="289.4126" y="901.6763">12</text>
    <text fill="#000000" font-family="sans-serif" font-size="13" lengthAdjust="spacing" textLength="46.7061" x="311.5034" y="901.6763">200 Ok</text>
    <line style="stroke:#000000;stroke-width:1.0;stroke-dasharray:2.0,2.0;" x1="39" x2="1063.0342" y1="915.7422" y2="915.7422"/>
    <text fill="#000000" font-family="sans-serif" font-size="11" font-weight="bold" lengthAdjust="spacing" textLength="387.3364" x="44" y="925.9526">[point de terminaison de callback « bulk quotes » introuvable]</text>
    <path d="M512,934.5469 L512,959.5469 L849,959.5469 L849,944.5469 L839,934.5469 L512,934.5469 " fill="#FEFFDD" style="stroke:#181818;stroke-width:0.5;"/>
    <path d="M839,934.5469 L839,944.5469 L849,944.5469 L839,934.5469 " fill="#FEFFDD" style="stroke:#181818;stroke-width:0.5;"/>
    <text fill="#000000" font-family="sans-serif" font-size="13" lengthAdjust="spacing" textLength="316.8623" x="518" y="951.6138">Le Switch renvoie une erreur au FSP bénéficiaire</text>
    <polygon fill="#181818" points="978.0034,981.8125,988.0034,985.8125,978.0034,985.8125" style="stroke:#181818;stroke-width:1.0;"/>
    <line style="stroke:#181818;stroke-width:1.0;" x1="507.3677" x2="989.0034" y1="985.8125" y2="985.8125"/>
    <text fill="#000000" font-family="sans-serif" font-size="13" font-weight="bold" lengthAdjust="spacing" textLength="18.0908" x="514.3677" y="980.7466">13</text>
    <text fill="#000000" font-family="sans-serif" font-size="13" lengthAdjust="spacing" textLength="178.8643" x="536.4585" y="980.7466">PUT /bulkQuotes/{ID}/error</text>
    <polygon fill="#181818" points="518.3677,1014.9453,508.3677,1014.9453,518.3677,1018.9453" style="stroke:#181818;stroke-width:1.0;"/>
    <line style="stroke:#181818;stroke-width:1.0;stroke-dasharray:2.0,2.0;" x1="507.3677" x2="989.0034" y1="1014.9453" y2="1014.9453"/>
    <text fill="#000000" font-family="sans-serif" font-size="13" font-weight="bold" lengthAdjust="spacing" textLength="18.0908" x="524.3677" y="1009.8794">14</text>
    <text fill="#000000" font-family="sans-serif" font-size="13" lengthAdjust="spacing" textLength="46.7061" x="546.4585" y="1009.8794">200 Ok</text>
    <line style="stroke:#000000;stroke-width:1.0;stroke-dasharray:2.0,2.0;" x1="29" x2="1068.7734" y1="1030.9453" y2="1030.9453"/>
    <text fill="#000000" font-family="sans-serif" font-size="11" font-weight="bold" lengthAdjust="spacing" textLength="113.1099" x="34" y="1041.1558">[réponse invalide]</text>
    <path d="M512,1049.75 L512,1074.75 L849,1074.75 L849,1059.75 L839,1049.75 L512,1049.75 " fill="#FEFFDD" style="stroke:#181818;stroke-width:0.5;"/>
    <path d="M839,1049.75 L839,1059.75 L849,1059.75 L839,1049.75 " fill="#FEFFDD" style="stroke:#181818;stroke-width:0.5;"/>
    <text fill="#000000" font-family="sans-serif" font-size="13" lengthAdjust="spacing" textLength="316.8623" x="518" y="1066.8169">Le Switch renvoie une erreur au FSP bénéficiaire</text>
    <polygon fill="#181818" points="978.0034,1097.0156,988.0034,1101.0156,978.0034,1101.0156" style="stroke:#181818;stroke-width:1.0;"/>
    <line style="stroke:#181818;stroke-width:1.0;" x1="507.3677" x2="989.0034" y1="1101.0156" y2="1101.0156"/>
    <text fill="#000000" font-family="sans-serif" font-size="13" font-weight="bold" lengthAdjust="spacing" textLength="18.0908" x="514.3677" y="1095.9497">15</text>
    <text fill="#000000" font-family="sans-serif" font-size="13" lengthAdjust="spacing" textLength="178.8643" x="536.4585" y="1095.9497">PUT /bulkQuotes/{ID}/error</text>
    <polygon fill="#181818" points="518.3677,1130.1484,508.3677,1130.1484,518.3677,1134.1484" style="stroke:#181818;stroke-width:1.0;"/>
    <line style="stroke:#181818;stroke-width:1.0;stroke-dasharray:2.0,2.0;" x1="507.3677" x2="989.0034" y1="1130.1484" y2="1130.1484"/>
    <text fill="#000000" font-family="sans-serif" font-size="13" font-weight="bold" lengthAdjust="spacing" textLength="18.0908" x="524.3677" y="1125.0825">16</text>
    <text fill="#000000" font-family="sans-serif" font-size="13" lengthAdjust="spacing" textLength="46.7061" x="546.4585" y="1125.0825">200 Ok</text>
    <path d="M438,1143.1484 L438,1183.1484 L1058,1183.1484 L1058,1153.1484 L1048,1143.1484 L438,1143.1484 " fill="#EC7063" style="stroke:#181818;stroke-width:0.5;"/>
    <path d="M1048,1143.1484 L1048,1153.1484 L1058,1153.1484 L1048,1143.1484 " fill="#EC7063" style="stroke:#181818;stroke-width:0.5;"/>
    <text fill="#000000" font-family="sans-serif" font-size="13" lengthAdjust="spacing" textLength="208.6348" x="638.1982" y="1160.2153">Dans ce scénario, le FSP payeur</text>
    <text fill="#000000" font-family="sans-serif" font-size="13" lengthAdjust="spacing" textLength="211.377" x="638.1982" y="1175.3481">peut ne pas recevoir de réponse</text>
    <line style="stroke:#000000;stroke-width:1.0;stroke-dasharray:2.0,2.0;" x1="19" x2="1078.7734" y1="1196.4141" y2="1196.4141"/>
    <text fill="#000000" font-family="sans-serif" font-size="11" font-weight="bold" lengthAdjust="spacing" textLength="149.5044" x="24" y="1206.6245">[bulkQuote introuvable]</text>
    <path d="M647,1215.2188 L647,1255.2188 L984,1255.2188 L984,1225.2188 L974,1215.2188 L647,1215.2188 " fill="#FEFFDD" style="stroke:#181818;stroke-width:0.5;"/>
    <path d="M974,1215.2188 L974,1225.2188 L984,1225.2188 L974,1215.2188 " fill="#FEFFDD" style="stroke:#181818;stroke-width:0.5;"/>
    <text fill="#000000" font-family="sans-serif" font-size="13" lengthAdjust="spacing" textLength="316.8623" x="653" y="1232.2856">Le FSP bénéficiaire renvoie une erreur au Switch</text>
    <text fill="#000000" font-family="sans-serif" font-size="13" lengthAdjust="spacing" textLength="4.1323" x="653" y="1247.4185"> </text>
    <text fill="#FF0000" font-family="sans-serif" font-size="13" font-weight="bold" lengthAdjust="spacing" textLength="151.9185" x="657.1323" y="1247.4185">Code d’erreur : 3205</text>
    <polygon fill="#181818" points="518.3677,1277.6172,508.3677,1281.6172,518.3677,1281.6172" style="stroke:#181818;stroke-width:1.0;"/>
    <line style="stroke:#181818;stroke-width:1.0;" x1="507.3677" x2="989.0034" y1="1281.6172" y2="1281.6172"/>
    <text fill="#000000" font-family="sans-serif" font-size="13" font-weight="bold" lengthAdjust="spacing" textLength="18.0908" x="524.3677" y="1276.5513">17</text>
    <text fill="#000000" font-family="sans-serif" font-size="13" lengthAdjust="spacing" textLength="178.8643" x="546.4585" y="1276.5513">PUT /bulkQuotes/{ID}/error</text>
    <polygon fill="#181818" points="978.0034,1310.75,988.0034,1310.75,978.0034,1314.75" style="stroke:#181818;stroke-width:1.0;"/>
    <line style="stroke:#181818;stroke-width:1.0;stroke-dasharray:2.0,2.0;" x1="507.3677" x2="989.0034" y1="1310.75" y2="1310.75"/>
    <text fill="#000000" font-family="sans-serif" font-size="13" font-weight="bold" lengthAdjust="spacing" textLength="18.0908" x="514.3677" y="1305.6841">18</text>
    <text fill="#000000" font-family="sans-serif" font-size="13" lengthAdjust="spacing" textLength="47.7026" x="536.4585" y="1305.6841">200 OK</text>
    <path d="M195,1323.75 L195,1363.75 L502,1363.75 L502,1333.75 L492,1323.75 L195,1323.75 " fill="#FEFFDD" style="stroke:#181818;stroke-width:0.5;"/>
    <path d="M492,1323.75 L492,1333.75 L502,1333.75 L492,1323.75 " fill="#FEFFDD" style="stroke:#181818;stroke-width:0.5;"/>
    <text fill="#000000" font-family="sans-serif" font-size="13" lengthAdjust="spacing" textLength="286" x="201" y="1340.8169">Le Switch renvoie une erreur au FSP payeur</text>
    <text fill="#000000" font-family="sans-serif" font-size="13" lengthAdjust="spacing" textLength="4.1323" x="201" y="1355.9497"> </text>
    <text fill="#FF0000" font-family="sans-serif" font-size="13" font-weight="bold" lengthAdjust="spacing" textLength="151.9185" x="205.1323" y="1355.9497">Code d’erreur : 3205</text>
    <polygon fill="#181818" points="293.4126,1386.1484,283.4126,1390.1484,293.4126,1390.1484" style="stroke:#181818;stroke-width:1.0;"/>
    <line style="stroke:#181818;stroke-width:1.0;" x1="282.4126" x2="506.3677" y1="1390.1484" y2="1390.1484"/>
    <text fill="#000000" font-family="sans-serif" font-size="13" font-weight="bold" lengthAdjust="spacing" textLength="18.0908" x="299.4126" y="1385.0825">19</text>
    <text fill="#000000" font-family="sans-serif" font-size="13" lengthAdjust="spacing" textLength="178.8643" x="321.5034" y="1385.0825">PUT /bulkQuotes/{ID}/error</text>
    <polygon fill="#181818" points="495.3677,1419.2813,505.3677,1419.2813,495.3677,1423.2813" style="stroke:#181818;stroke-width:1.0;"/>
    <line style="stroke:#181818;stroke-width:1.0;stroke-dasharray:2.0,2.0;" x1="282.4126" x2="506.3677" y1="1419.2813" y2="1419.2813"/>
    <text fill="#000000" font-family="sans-serif" font-size="13" font-weight="bold" lengthAdjust="spacing" textLength="18.0908" x="289.4126" y="1414.2153">20</text>
    <text fill="#000000" font-family="sans-serif" font-size="13" lengthAdjust="spacing" textLength="47.7026" x="311.5034" y="1414.2153">200 OK</text>
    <line style="stroke:#000000;stroke-width:1.0;stroke-dasharray:2.0,2.0;" x1="9" x2="1339.0127" y1="1435.2813" y2="1435.2813"/>
    <text fill="#000000" font-family="sans-serif" font-size="11" font-weight="bold" lengthAdjust="spacing" textLength="437.9697" x="14" y="1445.4917">[point de terminaison « bulk quotes » du FSP bénéficiaire introuvable]</text>
    <path d="M195,1454.0859 L195,1494.0859 L502,1494.0859 L502,1464.0859 L492,1454.0859 L195,1454.0859 " fill="#FEFFDD" style="stroke:#181818;stroke-width:0.5;"/>
    <path d="M492,1454.0859 L492,1464.0859 L502,1464.0859 L492,1454.0859 " fill="#FEFFDD" style="stroke:#181818;stroke-width:0.5;"/>
    <text fill="#000000" font-family="sans-serif" font-size="13" lengthAdjust="spacing" textLength="286" x="201" y="1471.1528">Le Switch renvoie une erreur au FSP payeur</text>
    <text fill="#FF0000" font-family="sans-serif" font-size="13" font-weight="bold" lengthAdjust="spacing" textLength="151.9185" x="201" y="1486.2856">Code d’erreur : 3201</text>
    <polygon fill="#181818" points="293.4126,1516.4844,283.4126,1520.4844,293.4126,1520.4844" style="stroke:#181818;stroke-width:1.0;"/>
    <line style="stroke:#181818;stroke-width:1.0;" x1="282.4126" x2="506.3677" y1="1520.4844" y2="1520.4844"/>
    <text fill="#000000" font-family="sans-serif" font-size="13" font-weight="bold" lengthAdjust="spacing" textLength="18.0908" x="299.4126" y="1515.4185">21</text>
    <text fill="#000000" font-family="sans-serif" font-size="13" lengthAdjust="spacing" textLength="178.8643" x="321.5034" y="1515.4185">PUT /bulkQuotes/{ID}/error</text>
    <polygon fill="#181818" points="495.3677,1549.6172,505.3677,1549.6172,495.3677,1553.6172" style="stroke:#181818;stroke-width:1.0;"/>
    <line style="stroke:#181818;stroke-width:1.0;stroke-dasharray:2.0,2.0;" x1="282.4126" x2="506.3677" y1="1549.6172" y2="1549.6172"/>
    <text fill="#000000" font-family="sans-serif" font-size="13" font-weight="bold" lengthAdjust="spacing" textLength="18.0908" x="289.4126" y="1544.5513">22</text>
    <text fill="#000000" font-family="sans-serif" font-size="13" lengthAdjust="spacing" textLength="47.7026" x="311.5034" y="1544.5513">200 OK</text>
  </g>
</svg>
