<svg xmlns="http://www.w3.org/2000/svg" xmlns:xlink="http://www.w3.org/1999/xlink" contentStyleType="text/css" height="1477px" preserveAspectRatio="none" style="width:807px;height:1477px;background:#FFFFFF;" version="1.1" viewBox="0 0 807 1477" width="807px" zoomAndPan="magnify">
  <title>Séquences du service de cotation</title>
  <defs/>
  <g>
    <text fill="#000000" font-family="sans-serif" font-size="14" font-weight="bold" lengthAdjust="spacing" textLength="265.7402" x="271.7102" y="27.9951">Séquences du service de cotation</text>
    <rect fill="none" height="1134.1953" style="stroke:#000000;stroke-width:1.5;" width="791.1606" x="9" y="258.7188"/>
    <rect fill="none" height="802.0625" style="stroke:#000000;stroke-width:1.5;" width="646.6113" x="19" y="475.6484"/>
    <rect fill="none" height="391.6641" style="stroke:#000000;stroke-width:1.5;" width="626.6113" x="29" y="635.3125"/>
    <line style="stroke:#181818;stroke-width:0.5;stroke-dasharray:5.0,5.0;" x1="129" x2="129" y1="106.1875" y2="1409.9141"/>
    <line style="stroke:#181818;stroke-width:0.5;stroke-dasharray:5.0,5.0;" x1="324.3003" x2="324.3003" y1="106.1875" y2="1409.9141"/>
    <line style="stroke:#181818;stroke-width:0.5;stroke-dasharray:5.0,5.0;" x1="576.7695" x2="576.7695" y1="106.1875" y2="1409.9141"/>
    <rect fill="#E2E2F0" height="30.2969" rx="2.5" ry="2.5" style="stroke:#181818;stroke-width:0.5;" width="103.6055" x="78" y="74.8906"/>
    <text fill="#000000" font-family="sans-serif" font-size="14" lengthAdjust="spacing" textLength="89.6055" x="85" y="94.8857">DFSP payeur</text>
    <rect fill="#E2E2F0" height="30.2969" rx="2.5" ry="2.5" style="stroke:#181818;stroke-width:0.5;" width="103.6055" x="78" y="1408.9141"/>
    <text fill="#000000" font-family="sans-serif" font-size="14" lengthAdjust="spacing" textLength="89.6055" x="85" y="1428.9092">DFSP payeur</text>
    <rect fill="#E2E2F0" height="62.8906" rx="2.5" ry="2.5" style="stroke:#181818;stroke-width:0.5;" width="87.6914" x="281.3003" y="42.2969"/>
    <text fill="#000000" font-family="sans-serif" font-size="14" lengthAdjust="spacing" textLength="46.2861" x="302.0029" y="62.292">Switch</text>
    <text fill="#000000" font-family="sans-serif" font-size="14" lengthAdjust="spacing" textLength="73.6914" x="288.3003" y="78.5889">Service de</text>
    <text fill="#000000" font-family="sans-serif" font-size="14" lengthAdjust="spacing" textLength="57.1484" x="296.5718" y="94.8857">cotation</text>
    <rect fill="#E2E2F0" height="62.8906" rx="2.5" ry="2.5" style="stroke:#181818;stroke-width:0.5;" width="87.6914" x="281.3003" y="1408.9141"/>
    <text fill="#000000" font-family="sans-serif" font-size="14" lengthAdjust="spacing" textLength="46.2861" x="302.0029" y="1428.9092">Switch</text>
    <text fill="#000000" font-family="sans-serif" font-size="14" lengthAdjust="spacing" textLength="73.6914" x="288.3003" y="1445.2061">Service de</text>
    <text fill="#000000" font-family="sans-serif" font-size="14" lengthAdjust="spacing" textLength="57.1484" x="296.5718" y="1461.5029">cotation</text>
    <rect fill="#E2E2F0" height="30.2969" rx="2.5" ry="2.5" style="stroke:#181818;stroke-width:0.5;" width="136.8418" x="508.7695" y="74.8906"/>
    <text fill="#000000" font-family="sans-serif" font-size="14" lengthAdjust="spacing" textLength="122.8418" x="515.7695" y="94.8857">DFSP bénéficiaire</text>
    <rect fill="#E2E2F0" height="30.2969" rx="2.5" ry="2.5" style="stroke:#181818;stroke-width:0.5;" width="136.8418" x="508.7695" y="1408.9141"/>
    <text fill="#000000" font-family="sans-serif" font-size="14" lengthAdjust="spacing" textLength="122.8418" x="515.7695" y="1428.9092">DFSP bénéficiaire</text>
    <path d="M20,121.1875 L20,146.1875 L433,146.1875 L433,131.1875 L423,121.1875 L20,121.1875 " fill="#FEFFDD" style="stroke:#181818;stroke-width:0.5;"/>
    <path d="M423,121.1875 L423,131.1875 L433,131.1875 L423,121.1875 " fill="#FEFFDD" style="stroke:#181818;stroke-width:0.5;"/>
    <text fill="#000000" font-family="sans-serif" font-size="13" lengthAdjust="spacing" textLength="392.4248" x="26" y="138.2544">Le DFSP payeur demande une cotation au DFSP bénéficiaire</text>
    <polygon fill="#181818" points="313.146,168.4531,323.146,172.4531,313.146,172.4531" style="stroke:#181818;stroke-width:1.0;"/>
    <line style="stroke:#181818;stroke-width:1.0;" x1="129.8027" x2="324.146" y1="172.4531" y2="172.4531"/>
    <text fill="#000000" font-family="sans-serif" font-size="13" font-weight="bold" lengthAdjust="spacing" textLength="9.0454" x="136.8027" y="167.3872">1</text>
    <text fill="#000000" font-family="sans-serif" font-size="13" lengthAdjust="spacing" textLength="87.0898" x="149.8481" y="167.3872">POST /quotes</text>
    <polygon fill="#181818" points="140.8027,201.5859,130.8027,201.5859,140.8027,205.5859" style="stroke:#181818;stroke-width:1.0;"/>
    <line style="stroke:#181818;stroke-width:1.0;stroke-dasharray:2.0,2.0;" x1="129.8027" x2="324.146" y1="201.5859" y2="201.5859"/>
    <text fill="#000000" font-family="sans-serif" font-size="13" font-weight="bold" lengthAdjust="spacing" textLength="9.0454" x="146.8027" y="196.52">2</text>
    <text fill="#000000" font-family="sans-serif" font-size="13" lengthAdjust="spacing" textLength="89.7305" x="159.8481" y="196.52">202 Accepted</text>
    <line style="stroke:#181818;stroke-width:1.0;" x1="325.146" x2="367.146" y1="230.7188" y2="230.7188"/>
    <line style="stroke:#181818;stroke-width:1.0;" x1="367.146" x2="367.146" y1="230.7188" y2="243.7188"/>
    <line style="stroke:#181818;stroke-width:1.0;" x1="326.146" x2="367.146" y1="243.7188" y2="243.7188"/>
    <polygon fill="#181818" points="336.146,239.7188,326.146,243.7188,336.146,247.7188,332.146,243.7188" style="stroke:#181818;stroke-width:1.0;"/>
    <text fill="#000000" font-family="sans-serif" font-size="13" font-weight="bold" lengthAdjust="spacing" textLength="9.0454" x="332.146" y="225.6528">3</text>
    <text fill="#000000" font-family="sans-serif" font-size="13" lengthAdjust="spacing" textLength="204.4707" x="345.1914" y="225.6528">Valider la demande de cotation</text>
    <path d="M9,258.7188 L73.4429,258.7188 L73.4429,265.8516 L63.4429,275.8516 L9,275.8516 L9,258.7188 " fill="#EEEEEE" style="stroke:#000000;stroke-width:1.5;"/>
    <rect fill="none" height="1134.1953" style="stroke:#000000;stroke-width:1.5;" width="791.1606" x="9" y="258.7188"/>
    <text fill="#000000" font-family="sans-serif" font-size="13" font-weight="bold" lengthAdjust="spacing" textLength="19.4429" x="24" y="271.7856">alt</text>
    <text fill="#000000" font-family="sans-serif" font-size="11" font-weight="bold" lengthAdjust="spacing" textLength="102.5288" x="88.4429" y="270.9292">[cotation valide]</text>
    <line style="stroke:#181818;stroke-width:1.0;" x1="325.146" x2="367.146" y1="296.9844" y2="296.9844"/>
    <line style="stroke:#181818;stroke-width:1.0;" x1="367.146" x2="367.146" y1="296.9844" y2="309.9844"/>
    <line style="stroke:#181818;stroke-width:1.0;" x1="326.146" x2="367.146" y1="309.9844" y2="309.9844"/>
    <polygon fill="#181818" points="336.146,305.9844,326.146,309.9844,336.146,313.9844,332.146,309.9844" style="stroke:#181818;stroke-width:1.0;"/>
    <text fill="#000000" font-family="sans-serif" font-size="13" font-weight="bold" lengthAdjust="spacing" textLength="9.0454" x="332.146" y="291.9185">4</text>
    <text fill="#000000" font-family="sans-serif" font-size="13" lengthAdjust="spacing" textLength="216.4614" x="345.1914" y="291.9185">Persister les données de cotation</text>
    <path d="M267,322.9844 L267,362.9844 L633,362.9844 L633,332.9844 L623,322.9844 L267,322.9844 " fill="#FEFFDD" style="stroke:#181818;stroke-width:0.5;"/>
    <path d="M623,322.9844 L623,332.9844 L633,332.9844 L623,322.9844 " fill="#FEFFDD" style="stroke:#181818;stroke-width:0.5;"/>
    <text fill="#000000" font-family="sans-serif" font-size="13" lengthAdjust="spacing" textLength="345.4141" x="273" y="340.0513">Le Switch transmet la demande au DFSP bénéficiaire</text>
    <text fill="#000000" font-family="sans-serif" font-size="13" lengthAdjust="spacing" textLength="147.4053" x="273" y="355.1841">&lt;Règles côté payeur&gt;</text>
    <polygon fill="#181818" points="565.1904,385.3828,575.1904,389.3828,565.1904,389.3828" style="stroke:#181818;stroke-width:1.0;"/>
    <line style="stroke:#181818;stroke-width:1.0;" x1="325.146" x2="576.1904" y1="389.3828" y2="389.3828"/>
    <text fill="#000000" font-family="sans-serif" font-size="13" font-weight="bold" lengthAdjust="spacing" textLength="9.0454" x="332.146" y="384.3169">5</text>
    <text fill="#000000" font-family="sans-serif" font-size="13" lengthAdjust="spacing" textLength="87.0898" x="345.1914" y="384.3169">POST /quotes</text>
    <polygon fill="#181818" points="336.146,418.5156,326.146,418.5156,336.146,422.5156" style="stroke:#181818;stroke-width:1.0;"/>
    <line style="stroke:#181818;stroke-width:1.0;stroke-dasharray:2.0,2.0;" x1="325.146" x2="576.1904" y1="418.5156" y2="418.5156"/>
    <text fill="#000000" font-family="sans-serif" font-size="13" font-weight="bold" lengthAdjust="spacing" textLength="9.0454" x="342.146" y="413.4497">6</text>
    <text fill="#000000" font-family="sans-serif" font-size="13" lengthAdjust="spacing" textLength="89.7305" x="355.1914" y="413.4497">202 Accepted</text>
    <line style="stroke:#181818;stroke-width:1.0;" x1="577.1904" x2="619.1904" y1="447.6484" y2="447.6484"/>
    <line style="stroke:#181818;stroke-width:1.0;" x1="619.1904" x2="619.1904" y1="447.6484" y2="460.6484"/>
    <line style="stroke:#181818;stroke-width:1.0;" x1="578.1904" x2="619.1904" y1="460.6484" y2="460.6484"/>
    <polygon fill="#181818" points="588.1904,456.6484,578.1904,460.6484,588.1904,464.6484,584.1904,460.6484" style="stroke:#181818;stroke-width:1.0;"/>
    <text fill="#000000" font-family="sans-serif" font-size="13" font-weight="bold" lengthAdjust="spacing" textLength="9.0454" x="584.1904" y="442.5825">7</text>
    <text fill="#000000" font-family="sans-serif" font-size="13" lengthAdjust="spacing" textLength="190.9248" x="597.2358" y="442.5825">Calculer frais et commissions</text>
    <path d="M19,475.6484 L83.4429,475.6484 L83.4429,482.7813 L73.4429,492.7813 L19,492.7813 L19,475.6484 " fill="#EEEEEE" style="stroke:#000000;stroke-width:1.5;"/>
    <rect fill="none" height="802.0625" style="stroke:#000000;stroke-width:1.5;" width="646.6113" x="19" y="475.6484"/>
    <text fill="#000000" font-family="sans-serif" font-size="13" font-weight="bold" lengthAdjust="spacing" textLength="19.4429" x="34" y="488.7153">alt</text>
    <text fill="#000000" font-family="sans-serif" font-size="11" font-weight="bold" lengthAdjust="spacing" textLength="329.9409" x="98.4429" y="487.8589">[le DFSP bénéficiaire calcule la cotation avec succès]</text>
    <path d="M263,497.7813 L263,522.7813 L638,522.7813 L638,507.7813 L628,497.7813 L263,497.7813 " fill="#FEFFDD" style="stroke:#181818;stroke-width:0.5;"/>
    <path d="M628,497.7813 L628,507.7813 L638,507.7813 L628,497.7813 " fill="#FEFFDD" style="stroke:#181818;stroke-width:0.5;"/>
    <text fill="#000000" font-family="sans-serif" font-size="13" lengthAdjust="spacing" textLength="354.5039" x="269" y="514.8481">Le DFSP bénéficiaire répond à la demande de cotation</text>
    <polygon fill="#181818" points="336.146,545.0469,326.146,549.0469,336.146,549.0469" style="stroke:#181818;stroke-width:1.0;"/>
    <line style="stroke:#181818;stroke-width:1.0;" x1="325.146" x2="576.1904" y1="549.0469" y2="549.0469"/>
    <text fill="#000000" font-family="sans-serif" font-size="13" font-weight="bold" lengthAdjust="spacing" textLength="9.0454" x="342.146" y="543.981">8</text>
    <text fill="#000000" font-family="sans-serif" font-size="13" lengthAdjust="spacing" textLength="112.8867" x="355.1914" y="543.981">PUT /quotes/{ID}</text>
    <polygon fill="#181818" points="565.1904,578.1797,575.1904,578.1797,565.1904,582.1797" style="stroke:#181818;stroke-width:1.0;"/>
    <line style="stroke:#181818;stroke-width:1.0;stroke-dasharray:2.0,2.0;" x1="325.146" x2="576.1904" y1="578.1797" y2="578.1797"/>
    <text fill="#000000" font-family="sans-serif" font-size="13" font-weight="bold" lengthAdjust="spacing" textLength="9.0454" x="332.146" y="573.1138">9</text>
    <text fill="#000000" font-family="sans-serif" font-size="13" lengthAdjust="spacing" textLength="46.7061" x="345.1914" y="573.1138">200 Ok</text>
    <line style="stroke:#181818;stroke-width:1.0;" x1="325.146" x2="367.146" y1="607.3125" y2="607.3125"/>
    <line style="stroke:#181818;stroke-width:1.0;" x1="367.146" x2="367.146" y1="607.3125" y2="620.3125"/>
    <line style="stroke:#181818;stroke-width:1.0;" x1="326.146" x2="367.146" y1="620.3125" y2="620.3125"/>
    <polygon fill="#181818" points="336.146,616.3125,326.146,620.3125,336.146,624.3125,332.146,620.3125" style="stroke:#181818;stroke-width:1.0;"/>
    <text fill="#000000" font-family="sans-serif" font-size="13" font-weight="bold" lengthAdjust="spacing" textLength="18.0908" x="332.146" y="602.2466">10</text>
    <text fill="#000000" font-family="sans-serif" font-size="13" lengthAdjust="spacing" textLength="195.6602" x="354.2368" y="602.2466">Valider la réponse de cotation</text>
    <path d="M29,635.3125 L93.4429,635.3125 L93.4429,642.4453 L83.4429,652.4453 L29,652.4453 L29,635.3125 " fill="#EEEEEE" style="stroke:#000000;stroke-width:1.5;"/>
    <rect fill="none" height="391.6641" style="stroke:#000000;stroke-width:1.5;" width="626.6113" x="29" y="635.3125"/>
    <text fill="#000000" font-family="sans-serif" font-size="13" font-weight="bold" lengthAdjust="spacing" textLength="19.4429" x="44" y="648.3794">alt</text>
    <text fill="#000000" font-family="sans-serif" font-size="11" font-weight="bold" lengthAdjust="spacing" textLength="101.5083" x="108.4429" y="647.5229">[réponse valide]</text>
    <line style="stroke:#181818;stroke-width:1.0;" x1="325.146" x2="367.146" y1="673.5781" y2="673.5781"/>
    <line style="stroke:#181818;stroke-width:1.0;" x1="367.146" x2="367.146" y1="673.5781" y2="686.5781"/>
    <line style="stroke:#181818;stroke-width:1.0;" x1="326.146" x2="367.146" y1="686.5781" y2="686.5781"/>
    <polygon fill="#181818" points="336.146,682.5781,326.146,686.5781,336.146,690.5781,332.146,686.5781" style="stroke:#181818;stroke-width:1.0;"/>
    <text fill="#000000" font-family="sans-serif" font-size="13" font-weight="bold" lengthAdjust="spacing" textLength="18.0908" x="332.146" y="668.5122">11</text>
    <text fill="#000000" font-family="sans-serif" font-size="13" lengthAdjust="spacing" textLength="215.9536" x="354.2368" y="668.5122">Persister les données de réponse</text>
    <path d="M64,699.5781 L64,739.5781 L390,739.5781 L390,709.5781 L380,699.5781 L64,699.5781 " fill="#FEFFDD" style="stroke:#181818;stroke-width:0.5;"/>
    <path d="M380,699.5781 L380,709.5781 L390,709.5781 L380,699.5781 " fill="#FEFFDD" style="stroke:#181818;stroke-width:0.5;"/>
    <text fill="#000000" font-family="sans-serif" font-size="13" lengthAdjust="spacing" textLength="305.7412" x="70" y="716.645">Le Switch transmet la réponse au DFSP payeur</text>
    <text fill="#000000" font-family="sans-serif" font-size="13" lengthAdjust="spacing" textLength="276.2119" x="70" y="731.7778">&lt;Règle bénéficiaire — requête complète&gt;</text>
    <polygon fill="#181818" points="140.8027,761.9766,130.8027,765.9766,140.8027,765.9766" style="stroke:#181818;stroke-width:1.0;"/>
    <line style="stroke:#181818;stroke-width:1.0;" x1="129.8027" x2="324.146" y1="765.9766" y2="765.9766"/>
    <text fill="#000000" font-family="sans-serif" font-size="13" font-weight="bold" lengthAdjust="spacing" textLength="18.0908" x="146.8027" y="760.9106">12</text>
    <text fill="#000000" font-family="sans-serif" font-size="13" lengthAdjust="spacing" textLength="112.8867" x="168.8936" y="760.9106">PUT /quotes/{ID}</text>
    <polygon fill="#181818" points="313.146,795.1094,323.146,795.1094,313.146,799.1094" style="stroke:#181818;stroke-width:1.0;"/>
    <line style="stroke:#181818;stroke-width:1.0;stroke-dasharray:2.0,2.0;" x1="129.8027" x2="324.146" y1="795.1094" y2="795.1094"/>
    <text fill="#000000" font-family="sans-serif" font-size="13" font-weight="bold" lengthAdjust="spacing" textLength="18.0908" x="136.8027" y="790.0435">13</text>
    <text fill="#000000" font-family="sans-serif" font-size="13" lengthAdjust="spacing" textLength="46.7061" x="158.8936" y="790.0435">200 Ok</text>
    <path d="M39,808.1094 L39,863.1094 L220,863.1094 L220,818.1094 L210,808.1094 L39,808.1094 " fill="#3498DB" style="stroke:#181818;stroke-width:0.5;"/>
    <path d="M210,808.1094 L210,818.1094 L220,818.1094 L210,808.1094 " fill="#3498DB" style="stroke:#181818;stroke-width:0.5;"/>
    <text fill="#000000" font-family="sans-serif" font-size="13" lengthAdjust="spacing" textLength="160.2212" x="45" y="825.1763">Le DFSP payeur poursuit</text>
    <text fill="#000000" font-family="sans-serif" font-size="13" lengthAdjust="spacing" textLength="159.6055" x="45" y="840.3091">le transfert si la cotation</text>
    <text fill="#000000" font-family="sans-serif" font-size="13" lengthAdjust="spacing" textLength="108.437" x="45" y="855.4419">est acceptable…</text>
    <line style="stroke:#000000;stroke-width:1.0;stroke-dasharray:2.0,2.0;" x1="29" x2="655.6113" y1="869.5078" y2="869.5078"/>
    <text fill="#000000" font-family="sans-serif" font-size="11" font-weight="bold" lengthAdjust="spacing" textLength="113.1099" x="34" y="879.7183">[réponse invalide]</text>
    <path d="M271,888.3125 L271,913.3125 L630,913.3125 L630,898.3125 L620,888.3125 L271,888.3125 " fill="#FEFFDD" style="stroke:#181818;stroke-width:0.5;"/>
    <path d="M620,888.3125 L620,898.3125 L630,898.3125 L620,888.3125 " fill="#FEFFDD" style="stroke:#181818;stroke-width:0.5;"/>
    <text fill="#000000" font-family="sans-serif" font-size="13" lengthAdjust="spacing" textLength="326.8726" x="282.7192" y="905.3794">Le Switch renvoie une erreur au DFSP bénéficiaire</text>
    <polygon fill="#181818" points="565.1904,935.5781,575.1904,939.5781,565.1904,939.5781" style="stroke:#181818;stroke-width:1.0;"/>
    <line style="stroke:#181818;stroke-width:1.0;" x1="325.146" x2="576.1904" y1="939.5781" y2="939.5781"/>
    <text fill="#000000" font-family="sans-serif" font-size="13" font-weight="bold" lengthAdjust="spacing" textLength="18.0908" x="332.146" y="934.5122">14</text>
    <text fill="#000000" font-family="sans-serif" font-size="13" lengthAdjust="spacing" textLength="149.2524" x="354.2368" y="934.5122">PUT /quotes/{ID}/error</text>
    <polygon fill="#181818" points="336.146,968.7109,326.146,968.7109,336.146,972.7109" style="stroke:#181818;stroke-width:1.0;"/>
    <line style="stroke:#181818;stroke-width:1.0;stroke-dasharray:2.0,2.0;" x1="325.146" x2="576.1904" y1="968.7109" y2="968.7109"/>
    <text fill="#000000" font-family="sans-serif" font-size="13" font-weight="bold" lengthAdjust="spacing" textLength="18.0908" x="342.146" y="963.645">15</text>
    <text fill="#000000" font-family="sans-serif" font-size="13" lengthAdjust="spacing" textLength="46.7061" x="364.2368" y="963.645">200 Ok</text>
    <path d="M271,981.7109 L271,1021.7109 L630,1021.7109 L630,991.7109 L620,981.7109 L271,981.7109 " fill="#EC7063" style="stroke:#181818;stroke-width:0.5;"/>
    <path d="M620,981.7109 L620,991.7109 L630,991.7109 L620,981.7109 " fill="#EC7063" style="stroke:#181818;stroke-width:0.5;"/>
    <text fill="#000000" font-family="sans-serif" font-size="13" lengthAdjust="spacing" textLength="218.645" x="336.833" y="998.7778">Dans ce scénario, le DFSP payeur</text>
    <text fill="#000000" font-family="sans-serif" font-size="13" lengthAdjust="spacing" textLength="211.377" x="336.833" y="1013.9106">peut ne pas recevoir de réponse</text>
    <line style="stroke:#000000;stroke-width:1.0;stroke-dasharray:2.0,2.0;" x1="19" x2="665.6113" y1="1034.9766" y2="1034.9766"/>
    <text fill="#000000" font-family="sans-serif" font-size="11" font-weight="bold" lengthAdjust="spacing" textLength="310.9219" x="24" y="1045.187">[échec du calcul ou rejet par le DFSP bénéficiaire]</text>
    <path d="M271,1053.7813 L271,1078.7813 L630,1078.7813 L630,1063.7813 L620,1053.7813 L271,1053.7813 " fill="#FEFFDD" style="stroke:#181818;stroke-width:0.5;"/>
    <path d="M620,1053.7813 L620,1063.7813 L630,1063.7813 L620,1053.7813 " fill="#FEFFDD" style="stroke:#181818;stroke-width:0.5;"/>
    <text fill="#000000" font-family="sans-serif" font-size="13" lengthAdjust="spacing" textLength="326.8726" x="282.7192" y="1070.8481">Le DFSP bénéficiaire renvoie une erreur au Switch</text>
    <polygon fill="#181818" points="336.146,1101.0469,326.146,1105.0469,336.146,1105.0469" style="stroke:#181818;stroke-width:1.0;"/>
    <line style="stroke:#181818;stroke-width:1.0;" x1="325.146" x2="576.1904" y1="1105.0469" y2="1105.0469"/>
    <text fill="#000000" font-family="sans-serif" font-size="13" font-weight="bold" lengthAdjust="spacing" textLength="18.0908" x="342.146" y="1099.981">16</text>
    <text fill="#000000" font-family="sans-serif" font-size="13" lengthAdjust="spacing" textLength="149.2524" x="364.2368" y="1099.981">PUT /quotes/{ID}/error</text>
    <polygon fill="#181818" points="565.1904,1134.1797,575.1904,1134.1797,565.1904,1138.1797" style="stroke:#181818;stroke-width:1.0;"/>
    <line style="stroke:#181818;stroke-width:1.0;stroke-dasharray:2.0,2.0;" x1="325.146" x2="576.1904" y1="1134.1797" y2="1134.1797"/>
    <text fill="#000000" font-family="sans-serif" font-size="13" font-weight="bold" lengthAdjust="spacing" textLength="18.0908" x="332.146" y="1129.1138">17</text>
    <text fill="#000000" font-family="sans-serif" font-size="13" lengthAdjust="spacing" textLength="47.7026" x="354.2368" y="1129.1138">200 OK</text>
    <line style="stroke:#181818;stroke-width:1.0;" x1="325.146" x2="367.146" y1="1163.3125" y2="1163.3125"/>
    <line style="stroke:#181818;stroke-width:1.0;" x1="367.146" x2="367.146" y1="1163.3125" y2="1176.3125"/>
    <line style="stroke:#181818;stroke-width:1.0;" x1="326.146" x2="367.146" y1="1176.3125" y2="1176.3125"/>
    <polygon fill="#181818" points="336.146,1172.3125,326.146,1176.3125,336.146,1180.3125,332.146,1176.3125" style="stroke:#181818;stroke-width:1.0;"/>
    <text fill="#000000" font-family="sans-serif" font-size="13" font-weight="bold" lengthAdjust="spacing" textLength="18.0908" x="332.146" y="1158.2466">18</text>
    <text fill="#000000" font-family="sans-serif" font-size="13" lengthAdjust="spacing" textLength="195.6665" x="354.2368" y="1158.2466">Persister les données d’erreur</text>
    <path d="M68,1189.3125 L68,1214.3125 L385,1214.3125 L385,1199.3125 L375,1189.3125 L68,1189.3125 " fill="#FEFFDD" style="stroke:#181818;stroke-width:0.5;"/>
    <path d="M375,1189.3125 L375,1199.3125 L385,1199.3125 L375,1189.3125 " fill="#FEFFDD" style="stroke:#181818;stroke-width:0.5;"/>
    <text fill="#000000" font-family="sans-serif" font-size="13" lengthAdjust="spacing" textLength="296.0103" x="74" y="1206.3794">Le Switch renvoie une erreur au DFSP payeur</text>
    <polygon fill="#181818" points="140.8027,1236.5781,130.8027,1240.5781,140.8027,1240.5781" style="stroke:#181818;stroke-width:1.0;"/>
    <line style="stroke:#181818;stroke-width:1.0;" x1="129.8027" x2="324.146" y1="1240.5781" y2="1240.5781"/>
    <text fill="#000000" font-family="sans-serif" font-size="13" font-weight="bold" lengthAdjust="spacing" textLength="18.0908" x="146.8027" y="1235.5122">19</text>
    <text fill="#000000" font-family="sans-serif" font-size="13" lengthAdjust="spacing" textLength="149.2524" x="168.8936" y="1235.5122">PUT /quotes/{ID}/error</text>
    <polygon fill="#181818" points="313.146,1269.7109,323.146,1269.7109,313.146,1273.7109" style="stroke:#181818;stroke-width:1.0;"/>
    <line style="stroke:#181818;stroke-width:1.0;stroke-dasharray:2.0,2.0;" x1="129.8027" x2="324.146" y1="1269.7109" y2="1269.7109"/>
    <text fill="#000000" font-family="sans-serif" font-size="13" font-weight="bold" lengthAdjust="spacing" textLength="18.0908" x="136.8027" y="1264.645">20</text>
    <text fill="#000000" font-family="sans-serif" font-size="13" lengthAdjust="spacing" textLength="47.7026" x="158.8936" y="1264.645">200 OK</text>
    <line style="stroke:#000000;stroke-width:1.0;stroke-dasharray:2.0,2.0;" x1="9" x2="800.1606" y1="1285.7109" y2="1285.7109"/>
    <text fill="#000000" font-family="sans-serif" font-size="11" font-weight="bold" lengthAdjust="spacing" textLength="114.1304" x="14" y="1295.9214">[cotation invalide]</text>
    <path d="M68,1304.5156 L68,1329.5156 L385,1329.5156 L385,1314.5156 L375,1304.5156 L68,1304.5156 " fill="#FEFFDD" style="stroke:#181818;stroke-width:0.5;"/>
    <path d="M375,1304.5156 L375,1314.5156 L385,1314.5156 L375,1304.5156 " fill="#FEFFDD" style="stroke:#181818;stroke-width:0.5;"/>
    <text fill="#000000" font-family="sans-serif" font-size="13" lengthAdjust="spacing" textLength="296.0103" x="74" y="1321.5825">Le Switch renvoie une erreur au DFSP payeur</text>
    <polygon fill="#181818" points="140.8027,1351.7813,130.8027,1355.7813,140.8027,1355.7813" style="stroke:#181818;stroke-width:1.0;"/>
    <line style="stroke:#181818;stroke-width:1.0;" x1="129.8027" x2="324.146" y1="1355.7813" y2="1355.7813"/>
    <text fill="#000000" font-family="sans-serif" font-size="13" font-weight="bold" lengthAdjust="spacing" textLength="18.0908" x="146.8027" y="1350.7153">21</text>
    <text fill="#000000" font-family="sans-serif" font-size="13" lengthAdjust="spacing" textLength="149.2524" x="168.8936" y="1350.7153">PUT /quotes/{ID}/error</text>
    <polygon fill="#181818" points="313.146,1384.9141,323.146,1384.9141,313.146,1388.9141" style="stroke:#181818;stroke-width:1.0;"/>
    <line style="stroke:#181818;stroke-width:1.0;stroke-dasharray:2.0,2.0;" x1="129.8027" x2="324.146" y1="1384.9141" y2="1384.9141"/>
    <text fill="#000000" font-family="sans-serif" font-size="13" font-weight="bold" lengthAdjust="spacing" textLength="18.0908" x="136.8027" y="1379.8481">22</text>
    <text fill="#000000" font-family="sans-serif" font-size="13" lengthAdjust="spacing" textLength="47.7026" x="158.8936" y="1379.8481">200 OK</text>
  </g>
</svg>
