<svg xmlns="http://www.w3.org/2000/svg" xmlns:xlink="http://www.w3.org/1999/xlink" contentStyleType="text/css" height="2507px" preserveAspectRatio="none" style="width:1620px;height:2507px;background:#FFFFFF;" version="1.1" viewBox="0 0 1620 2507" width="1620px" zoomAndPan="magnify">
  <title>Demander la création d’une cotation</title>
  <defs/>
  <g>
    <text fill="#000000" font-family="sans-serif" font-size="14" font-weight="bold" lengthAdjust="spacing" textLength="290.4043" x="665.9026" y="27.9951">Demander la création d’une cotation</text>
    <rect fill="#FFFFFF" height="137.9297" style="stroke:#181818;stroke-width:1.0;" width="10" x="1106.5093" y="823.5156"/>
    <rect fill="#FFFFFF" height="122.7969" style="stroke:#181818;stroke-width:1.0;" width="10" x="1106.5093" y="1726.0391"/>
    <rect fill="#FFFFFF" height="62.2656" style="stroke:#181818;stroke-width:1.0;" width="10" x="1106.5093" y="2110.7031"/>
    <rect fill="none" height="522.9297" style="stroke:#000000;stroke-width:1.5;" width="1126.769" x="76" y="446.5156"/>
    <rect fill="none" height="232.6016" style="stroke:#000000;stroke-width:1.5;" width="591.1436" x="86" y="537.7813"/>
    <rect fill="none" height="116.2031" style="stroke:#000000;stroke-width:1.5;" width="764.3301" x="352.1792" y="1008.4453"/>
    <rect fill="none" height="1248.0547" style="stroke:#000000;stroke-width:1.5;" width="1604.2095" x="9" y="1163.6484"/>
    <rect fill="none" height="958.0547" style="stroke:#000000;stroke-width:1.5;" width="1326.748" x="19" y="1323.3125"/>
    <rect fill="none" height="373.8594" style="stroke:#000000;stroke-width:1.5;" width="993.5688" x="342.1792" y="1482.9766"/>
    <rect fill="none" height="75.3984" style="stroke:#000000;stroke-width:1.5;" width="973.5688" x="352.1792" y="1549.2422"/>
    <rect fill="none" height="59.2656" style="stroke:#000000;stroke-width:1.5;" width="335.4717" x="352.1792" y="1638.6406"/>
    <rect fill="none" height="108.5313" style="stroke:#000000;stroke-width:1.5;" width="837.5073" x="352.1792" y="2072.4375"/>
    <line style="stroke:#181818;stroke-width:0.5;stroke-dasharray:5.0,5.0;" x1="213" x2="213" y1="106.1875" y2="2428.7031"/>
    <line style="stroke:#181818;stroke-width:0.5;stroke-dasharray:5.0,5.0;" x1="408.1792" x2="408.1792" y1="106.1875" y2="2428.7031"/>
    <line style="stroke:#181818;stroke-width:0.5;stroke-dasharray:5.0,5.0;" x1="1111.332" x2="1111.332" y1="106.1875" y2="2428.7031"/>
    <line style="stroke:#181818;stroke-width:0.5;stroke-dasharray:5.0,5.0;" x1="1252.6865" x2="1252.6865" y1="106.1875" y2="2428.7031"/>
    <rect fill="#E2E2F0" height="30.2969" rx="2.5" ry="2.5" style="stroke:#181818;stroke-width:0.5;" width="92.8252" x="167" y="74.8906"/>
    <text fill="#000000" font-family="sans-serif" font-size="14" lengthAdjust="spacing" textLength="78.8252" x="174" y="94.8857">FSP payeur</text>
    <rect fill="#E2E2F0" height="30.2969" rx="2.5" ry="2.5" style="stroke:#181818;stroke-width:0.5;" width="92.8252" x="167" y="2427.7031"/>
    <text fill="#000000" font-family="sans-serif" font-size="14" lengthAdjust="spacing" textLength="78.8252" x="174" y="2447.6982">FSP payeur</text>
    <rect fill="#E2E2F0" height="62.8906" rx="2.5" ry="2.5" style="stroke:#181818;stroke-width:0.5;" width="93.1533" x="362.1792" y="42.2969"/>
    <text fill="#000000" font-family="sans-serif" font-size="14" lengthAdjust="spacing" textLength="46.2861" x="385.6128" y="62.292">Switch</text>
    <text fill="#000000" font-family="sans-serif" font-size="14" lengthAdjust="spacing" textLength="79.1533" x="369.1792" y="78.5889">[Service de</text>
    <text fill="#000000" font-family="sans-serif" font-size="14" lengthAdjust="spacing" textLength="62.6104" x="377.4507" y="94.8857">cotation]</text>
    <rect fill="#E2E2F0" height="62.8906" rx="2.5" ry="2.5" style="stroke:#181818;stroke-width:0.5;" width="93.1533" x="362.1792" y="2427.7031"/>
    <text fill="#000000" font-family="sans-serif" font-size="14" lengthAdjust="spacing" textLength="46.2861" x="385.6128" y="2447.6982">Switch</text>
    <text fill="#000000" font-family="sans-serif" font-size="14" lengthAdjust="spacing" textLength="79.1533" x="369.1792" y="2463.9951">[Service de</text>
    <text fill="#000000" font-family="sans-serif" font-size="14" lengthAdjust="spacing" textLength="62.6104" x="377.4507" y="2480.292">cotation]</text>
    <text fill="#000000" font-family="sans-serif" font-size="14" lengthAdjust="spacing" textLength="130.3545" x="1043.332" y="102.8857">Référentiel central</text>
    <path d="M1093.5093,53.8906 C1093.5093,43.8906 1111.5093,43.8906 1111.5093,43.8906 C1111.5093,43.8906 1129.5093,43.8906 1129.5093,53.8906 L1129.5093,79.8906 C1129.5093,89.8906 1111.5093,89.8906 1111.5093,89.8906 C1111.5093,89.8906 1093.5093,89.8906 1093.5093,79.8906 L1093.5093,53.8906 " fill="#E2E2F0" style="stroke:#181818;stroke-width:1.5;"/>
    <path d="M1093.5093,53.8906 C1093.5093,63.8906 1111.5093,63.8906 1111.5093,63.8906 C1111.5093,63.8906 1129.5093,63.8906 1129.5093,53.8906 " fill="none" style="stroke:#181818;stroke-width:1.5;"/>
    <text fill="#000000" font-family="sans-serif" font-size="14" lengthAdjust="spacing" textLength="130.3545" x="1043.332" y="2440.6982">Référentiel central</text>
    <path d="M1093.5093,2454 C1093.5093,2444 1111.5093,2444 1111.5093,2444 C1111.5093,2444 1129.5093,2444 1129.5093,2454 L1129.5093,2480 C1129.5093,2490 1111.5093,2490 1111.5093,2490 C1111.5093,2490 1093.5093,2490 1093.5093,2480 L1093.5093,2454 " fill="#E2E2F0" style="stroke:#181818;stroke-width:1.5;"/>
    <path d="M1093.5093,2454 C1093.5093,2464 1111.5093,2464 1111.5093,2464 C1111.5093,2464 1129.5093,2464 1129.5093,2454 " fill="none" style="stroke:#181818;stroke-width:1.5;"/>
    <rect fill="#E2E2F0" height="30.2969" rx="2.5" ry="2.5" style="stroke:#181818;stroke-width:0.5;" width="126.0615" x="1189.6865" y="74.8906"/>
    <text fill="#000000" font-family="sans-serif" font-size="14" lengthAdjust="spacing" textLength="112.0615" x="1196.6865" y="94.8857">FSP bénéficiaire</text>
    <rect fill="#E2E2F0" height="30.2969" rx="2.5" ry="2.5" style="stroke:#181818;stroke-width:0.5;" width="126.0615" x="1189.6865" y="2427.7031"/>
    <text fill="#000000" font-family="sans-serif" font-size="14" lengthAdjust="spacing" textLength="112.0615" x="1196.6865" y="2447.6982">FSP bénéficiaire</text>
    <rect fill="#FFFFFF" height="137.9297" style="stroke:#181818;stroke-width:1.0;" width="10" x="1106.5093" y="823.5156"/>
    <rect fill="#FFFFFF" height="122.7969" style="stroke:#181818;stroke-width:1.0;" width="10" x="1106.5093" y="1726.0391"/>
    <rect fill="#FFFFFF" height="62.2656" style="stroke:#181818;stroke-width:1.0;" width="10" x="1106.5093" y="2110.7031"/>
    <path d="M144,121.1875 L144,161.1875 L476,161.1875 L476,131.1875 L466,121.1875 L144,121.1875 " fill="#FEFFDD" style="stroke:#181818;stroke-width:0.5;"/>
    <path d="M466,121.1875 L466,131.1875 L476,131.1875 L466,121.1875 " fill="#FEFFDD" style="stroke:#181818;stroke-width:0.5;"/>
    <text fill="#000000" font-family="sans-serif" font-size="13" lengthAdjust="spacing" textLength="311.8857" x="150" y="138.2544">Le FSP payeur envoie une demande de cotation</text>
    <text fill="#000000" font-family="sans-serif" font-size="13" lengthAdjust="spacing" textLength="210.6533" x="150" y="153.3872">au FSP bénéficiaire via le Switch</text>
    <polygon fill="#181818" points="396.7559,183.5859,406.7559,187.5859,396.7559,187.5859" style="stroke:#181818;stroke-width:1.0;"/>
    <line style="stroke:#181818;stroke-width:1.0;" x1="213.4126" x2="407.7559" y1="187.5859" y2="187.5859"/>
    <text fill="#000000" font-family="sans-serif" font-size="13" font-weight="bold" lengthAdjust="spacing" textLength="9.0454" x="220.4126" y="182.52">1</text>
    <text fill="#000000" font-family="sans-serif" font-size="13" lengthAdjust="spacing" textLength="87.0898" x="233.458" y="182.52">POST /quotes</text>
    <path d="M413,200.5859 L413,270.5859 L653,270.5859 L653,210.5859 L643,200.5859 L413,200.5859 " fill="#AAAAAA" style="stroke:#181818;stroke-width:0.5;"/>
    <path d="M643,200.5859 L643,210.5859 L653,210.5859 L643,200.5859 " fill="#AAAAAA" style="stroke:#181818;stroke-width:0.5;"/>
    <text fill="#000000" font-family="sans-serif" font-size="13" lengthAdjust="spacing" textLength="170.8662" x="419" y="217.6528">Valider la requête selon la</text>
    <text fill="#000000" font-family="sans-serif" font-size="13" lengthAdjust="spacing" textLength="219.1338" x="419" y="232.7856">spécification d’interface Mojaloop</text>
    <text fill="#FF0000" font-family="sans-serif" font-size="13" font-weight="bold" lengthAdjust="spacing" textLength="203.9819" x="419" y="247.9185">Codes d’erreur : 300x, 310x</text>
    <text fill="#FF0000" font-family="sans-serif" font-size="13" font-weight="bold" lengthAdjust="spacing" textLength="191.9595" x="419" y="263.0513">Codes HTTP d’erreur : 4xx</text>
    <line style="stroke:#181818;stroke-width:1.0;" x1="408.7559" x2="450.7559" y1="297.25" y2="297.25"/>
    <line style="stroke:#181818;stroke-width:1.0;" x1="450.7559" x2="450.7559" y1="297.25" y2="310.25"/>
    <line style="stroke:#181818;stroke-width:1.0;" x1="409.7559" x2="450.7559" y1="310.25" y2="310.25"/>
    <polygon fill="#181818" points="419.7559,306.25,409.7559,310.25,419.7559,314.25,415.7559,310.25" style="stroke:#181818;stroke-width:1.0;"/>
    <text fill="#000000" font-family="sans-serif" font-size="13" font-weight="bold" lengthAdjust="spacing" textLength="9.0454" x="415.7559" y="292.1841">2</text>
    <text fill="#000000" font-family="sans-serif" font-size="13" lengthAdjust="spacing" textLength="140.5054" x="428.8013" y="292.1841">Validation de schéma</text>
    <polygon fill="#181818" points="224.4126,339.3828,214.4126,339.3828,224.4126,343.3828" style="stroke:#181818;stroke-width:1.0;"/>
    <line style="stroke:#181818;stroke-width:1.0;stroke-dasharray:2.0,2.0;" x1="213.4126" x2="407.7559" y1="339.3828" y2="339.3828"/>
    <text fill="#000000" font-family="sans-serif" font-size="13" font-weight="bold" lengthAdjust="spacing" textLength="9.0454" x="230.4126" y="334.3169">3</text>
    <text fill="#000000" font-family="sans-serif" font-size="13" lengthAdjust="spacing" textLength="89.7305" x="243.458" y="334.3169">202 Accepted</text>
    <line style="stroke:#181818;stroke-width:1.0;" x1="408.7559" x2="450.7559" y1="393.5156" y2="393.5156"/>
    <line style="stroke:#181818;stroke-width:1.0;" x1="450.7559" x2="450.7559" y1="393.5156" y2="406.5156"/>
    <line style="stroke:#181818;stroke-width:1.0;" x1="409.7559" x2="450.7559" y1="406.5156" y2="406.5156"/>
    <polygon fill="#181818" points="419.7559,402.5156,409.7559,406.5156,419.7559,410.5156,415.7559,406.5156" style="stroke:#181818;stroke-width:1.0;"/>
    <text fill="#000000" font-family="sans-serif" font-size="13" font-weight="bold" lengthAdjust="spacing" textLength="9.0454" x="415.7559" y="388.4497">4</text>
    <text fill="#000000" font-family="sans-serif" font-size="13" lengthAdjust="spacing" textLength="403.0825" x="428.8013" y="388.4497">Validation de la demande de cotation (moteur de règles, etc.)</text>
    <path d="M76,446.5156 L140.4429,446.5156 L140.4429,453.6484 L130.4429,463.6484 L76,463.6484 L76,446.5156 " fill="#EEEEEE" style="stroke:#000000;stroke-width:1.5;"/>
    <rect fill="none" height="522.9297" style="stroke:#000000;stroke-width:1.5;" width="1126.769" x="76" y="446.5156"/>
    <text fill="#000000" font-family="sans-serif" font-size="13" font-weight="bold" lengthAdjust="spacing" textLength="19.4429" x="91" y="459.5825">alt</text>
    <text fill="#000000" font-family="sans-serif" font-size="11" font-weight="bold" lengthAdjust="spacing" textLength="208.5273" x="155.4429" y="458.7261">[SimpleRoutingMode === FALSE]</text>
    <line style="stroke:#181818;stroke-width:1.0;" x1="408.7559" x2="450.7559" y1="484.7813" y2="484.7813"/>
    <line style="stroke:#181818;stroke-width:1.0;" x1="450.7559" x2="450.7559" y1="484.7813" y2="497.7813"/>
    <line style="stroke:#181818;stroke-width:1.0;" x1="409.7559" x2="450.7559" y1="497.7813" y2="497.7813"/>
    <polygon fill="#181818" points="419.7559,493.7813,409.7559,497.7813,419.7559,501.7813,415.7559,497.7813" style="stroke:#181818;stroke-width:1.0;"/>
    <text fill="#000000" font-family="sans-serif" font-size="13" font-weight="bold" lengthAdjust="spacing" textLength="9.0454" x="415.7559" y="479.7153">5</text>
    <text fill="#000000" font-family="sans-serif" font-size="13" lengthAdjust="spacing" textLength="132.2915" x="428.8013" y="479.7153">Contrôle de doublon</text>
    <path d="M86,537.7813 L150.4429,537.7813 L150.4429,544.9141 L140.4429,554.9141 L86,554.9141 L86,537.7813 " fill="#EEEEEE" style="stroke:#000000;stroke-width:1.5;"/>
    <rect fill="none" height="232.6016" style="stroke:#000000;stroke-width:1.5;" width="591.1436" x="86" y="537.7813"/>
    <text fill="#000000" font-family="sans-serif" font-size="13" font-weight="bold" lengthAdjust="spacing" textLength="19.4429" x="101" y="550.8481">alt</text>
    <text fill="#000000" font-family="sans-serif" font-size="11" font-weight="bold" lengthAdjust="spacing" textLength="291.8008" x="165.4429" y="549.9917">[la requête est un doublon mais pas un renvoi]</text>
    <path d="M96,584.9141 L96,624.9141 L403,624.9141 L403,594.9141 L393,584.9141 L96,584.9141 " fill="#FEFFDD" style="stroke:#181818;stroke-width:0.5;"/>
    <path d="M393,584.9141 L393,594.9141 L403,594.9141 L393,584.9141 " fill="#FEFFDD" style="stroke:#181818;stroke-width:0.5;"/>
    <text fill="#000000" font-family="sans-serif" font-size="13" lengthAdjust="spacing" textLength="286" x="102" y="601.981">Le Switch renvoie une erreur au FSP payeur</text>
    <text fill="#FF0000" font-family="sans-serif" font-size="13" font-weight="bold" lengthAdjust="spacing" textLength="151.9185" x="102" y="617.1138">Code d’erreur : 3106</text>
    <polygon fill="#181818" points="224.4126,647.3125,214.4126,651.3125,224.4126,651.3125" style="stroke:#181818;stroke-width:1.0;"/>
    <line style="stroke:#181818;stroke-width:1.0;" x1="213.4126" x2="407.7559" y1="651.3125" y2="651.3125"/>
    <text fill="#000000" font-family="sans-serif" font-size="13" font-weight="bold" lengthAdjust="spacing" textLength="9.0454" x="230.4126" y="646.2466">6</text>
    <text fill="#000000" font-family="sans-serif" font-size="13" lengthAdjust="spacing" textLength="149.2524" x="243.458" y="646.2466">PUT /quotes/{ID}/error</text>
    <polygon fill="#181818" points="396.7559,680.4453,406.7559,680.4453,396.7559,684.4453" style="stroke:#181818;stroke-width:1.0;"/>
    <line style="stroke:#181818;stroke-width:1.0;stroke-dasharray:2.0,2.0;" x1="213.4126" x2="407.7559" y1="680.4453" y2="680.4453"/>
    <text fill="#000000" font-family="sans-serif" font-size="13" font-weight="bold" lengthAdjust="spacing" textLength="9.0454" x="220.4126" y="675.3794">7</text>
    <text fill="#000000" font-family="sans-serif" font-size="13" lengthAdjust="spacing" textLength="47.7026" x="233.458" y="675.3794">200 OK</text>
    <line style="stroke:#000000;stroke-width:1.0;stroke-dasharray:2.0,2.0;" x1="86" x2="677.1436" y1="714.4453" y2="714.4453"/>
    <text fill="#000000" font-family="sans-serif" font-size="11" font-weight="bold" lengthAdjust="spacing" textLength="249.6431" x="91" y="724.6558">[la requête est un doublon et un renvoi]</text>
    <line style="stroke:#181818;stroke-width:1.0;" x1="408.7559" x2="450.7559" y1="749.3828" y2="749.3828"/>
    <line style="stroke:#181818;stroke-width:1.0;" x1="450.7559" x2="450.7559" y1="749.3828" y2="762.3828"/>
    <line style="stroke:#181818;stroke-width:1.0;" x1="409.7559" x2="450.7559" y1="762.3828" y2="762.3828"/>
    <polygon fill="#181818" points="419.7559,758.3828,409.7559,762.3828,419.7559,766.3828,415.7559,762.3828" style="stroke:#181818;stroke-width:1.0;"/>
    <text fill="#000000" font-family="sans-serif" font-size="13" font-weight="bold" lengthAdjust="spacing" textLength="9.0454" x="415.7559" y="744.3169">8</text>
    <text fill="#000000" font-family="sans-serif" font-size="13" lengthAdjust="spacing" textLength="236.3423" x="428.8013" y="744.3169">Le Switch gère le scénario de renvoi</text>
    <polygon fill="#181818" points="1094.5093,819.5156,1104.5093,823.5156,1094.5093,823.5156" style="stroke:#181818;stroke-width:1.0;"/>
    <line style="stroke:#181818;stroke-width:1.0;" x1="408.7559" x2="1105.5093" y1="823.5156" y2="823.5156"/>
    <text fill="#000000" font-family="sans-serif" font-size="13" font-weight="bold" lengthAdjust="spacing" textLength="9.0454" x="415.7559" y="818.4497">9</text>
    <text fill="#000000" font-family="sans-serif" font-size="13" lengthAdjust="spacing" textLength="215.5728" x="428.8013" y="818.4497">Persister la demande de cotation</text>
    <polygon fill="#FEFFDD" points="1039,836.5156,1182,836.5156,1192,885.5156,1182,934.5156,1039,934.5156,1029,885.5156,1039,836.5156" style="stroke:#181818;stroke-width:0.5;"/>
    <text fill="#000000" font-family="sans-serif" font-size="13" lengthAdjust="spacing" textLength="139.4644" x="1041" y="852.5825">quoteDuplicateCheck</text>
    <text fill="#000000" font-family="sans-serif" font-size="13" lengthAdjust="spacing" textLength="139.769" x="1041" y="867.7153">transactionReference</text>
    <text fill="#000000" font-family="sans-serif" font-size="13" lengthAdjust="spacing" textLength="37.54" x="1041" y="882.8481">quote</text>
    <text fill="#000000" font-family="sans-serif" font-size="13" lengthAdjust="spacing" textLength="71.481" x="1041" y="897.981">quoteParty</text>
    <text fill="#000000" font-family="sans-serif" font-size="13" lengthAdjust="spacing" textLength="101.3594" x="1041" y="913.1138">quoteExtension</text>
    <text fill="#000000" font-family="sans-serif" font-size="13" lengthAdjust="spacing" textLength="57.4844" x="1041" y="928.2466">geoCode</text>
    <polygon fill="#181818" points="419.7559,961.4453,409.7559,961.4453,419.7559,965.4453" style="stroke:#181818;stroke-width:1.0;"/>
    <line style="stroke:#181818;stroke-width:1.0;stroke-dasharray:2.0,2.0;" x1="408.7559" x2="1110.5093" y1="961.4453" y2="961.4453"/>
    <text fill="#000000" font-family="sans-serif" font-size="13" font-weight="bold" lengthAdjust="spacing" textLength="18.0908" x="425.7559" y="956.3794">10</text>
    <text fill="#000000" font-family="sans-serif" font-size="13" lengthAdjust="spacing" textLength="219.4956" x="447.8467" y="956.3794">Demande de cotation enregistrée</text>
    <path d="M352.1792,1008.4453 L416.6221,1008.4453 L416.6221,1015.5781 L406.6221,1025.5781 L352.1792,1025.5781 L352.1792,1008.4453 " fill="#EEEEEE" style="stroke:#000000;stroke-width:1.5;"/>
    <rect fill="none" height="116.2031" style="stroke:#000000;stroke-width:1.5;" width="764.3301" x="352.1792" y="1008.4453"/>
    <text fill="#000000" font-family="sans-serif" font-size="13" font-weight="bold" lengthAdjust="spacing" textLength="19.4429" x="367.1792" y="1021.5122">alt</text>
    <text fill="#000000" font-family="sans-serif" font-size="11" font-weight="bold" lengthAdjust="spacing" textLength="202.4741" x="431.6221" y="1020.6558">[SimpleRoutingMode === TRUE]</text>
    <line style="stroke:#181818;stroke-width:1.0;" x1="408.7559" x2="450.7559" y1="1046.7109" y2="1046.7109"/>
    <line style="stroke:#181818;stroke-width:1.0;" x1="450.7559" x2="450.7559" y1="1046.7109" y2="1059.7109"/>
    <line style="stroke:#181818;stroke-width:1.0;" x1="409.7559" x2="450.7559" y1="1059.7109" y2="1059.7109"/>
    <polygon fill="#181818" points="419.7559,1055.7109,409.7559,1059.7109,419.7559,1063.7109,415.7559,1059.7109" style="stroke:#181818;stroke-width:1.0;"/>
    <text fill="#000000" font-family="sans-serif" font-size="13" font-weight="bold" lengthAdjust="spacing" textLength="18.0908" x="415.7559" y="1041.645">11</text>
    <text fill="#000000" font-family="sans-serif" font-size="13" lengthAdjust="spacing" textLength="666.6626" x="437.8467" y="1041.645">Utiliser l’en-tête fspiop-destination pour obtenir le point de terminaison « quotes » du FSP bénéficiaire</text>
    <line style="stroke:#000000;stroke-width:1.0;stroke-dasharray:2.0,2.0;" x1="352.1792" x2="1116.5093" y1="1068.7109" y2="1068.7109"/>
    <text fill="#000000" font-family="sans-serif" font-size="11" font-weight="bold" lengthAdjust="spacing" textLength="208.5273" x="357.1792" y="1078.9214">[SimpleRoutingMode === FALSE]</text>
    <line style="stroke:#181818;stroke-width:1.0;" x1="408.7559" x2="450.7559" y1="1103.6484" y2="1103.6484"/>
    <line style="stroke:#181818;stroke-width:1.0;" x1="450.7559" x2="450.7559" y1="1103.6484" y2="1116.6484"/>
    <line style="stroke:#181818;stroke-width:1.0;" x1="409.7559" x2="450.7559" y1="1116.6484" y2="1116.6484"/>
    <polygon fill="#181818" points="419.7559,1112.6484,409.7559,1116.6484,419.7559,1120.6484,415.7559,1116.6484" style="stroke:#181818;stroke-width:1.0;"/>
    <text fill="#000000" font-family="sans-serif" font-size="13" font-weight="bold" lengthAdjust="spacing" textLength="18.0908" x="415.7559" y="1098.5825">12</text>
    <text fill="#000000" font-family="sans-serif" font-size="13" lengthAdjust="spacing" textLength="587.6216" x="437.8467" y="1098.5825">Récupérer le point de terminaison du FSP bénéficiaire via les informations « quote party »</text>
    <path d="M9,1163.6484 L73.4429,1163.6484 L73.4429,1170.7813 L63.4429,1180.7813 L9,1180.7813 L9,1163.6484 " fill="#EEEEEE" style="stroke:#000000;stroke-width:1.5;"/>
    <rect fill="none" height="1248.0547" style="stroke:#000000;stroke-width:1.5;" width="1604.2095" x="9" y="1163.6484"/>
    <text fill="#000000" font-family="sans-serif" font-size="13" font-weight="bold" lengthAdjust="spacing" textLength="19.4429" x="24" y="1176.7153">alt</text>
    <text fill="#000000" font-family="sans-serif" font-size="11" font-weight="bold" lengthAdjust="spacing" textLength="349.3521" x="88.4429" y="1175.8589">[point de terminaison « quotes » du bénéficiaire trouvé]</text>
    <path d="M413,1185.7813 L413,1210.7813 L769,1210.7813 L769,1195.7813 L759,1185.7813 L413,1185.7813 " fill="#FEFFDD" style="stroke:#181818;stroke-width:0.5;"/>
    <path d="M759,1185.7813 L759,1195.7813 L769,1195.7813 L759,1185.7813 " fill="#FEFFDD" style="stroke:#181818;stroke-width:0.5;"/>
    <text fill="#000000" font-family="sans-serif" font-size="13" lengthAdjust="spacing" textLength="335.4038" x="419" y="1202.8481">Le Switch transmet la demande au FSP bénéficiaire</text>
    <polygon fill="#181818" points="1240.7173,1233.0469,1250.7173,1237.0469,1240.7173,1237.0469" style="stroke:#181818;stroke-width:1.0;"/>
    <line style="stroke:#181818;stroke-width:1.0;" x1="408.7559" x2="1251.7173" y1="1237.0469" y2="1237.0469"/>
    <text fill="#000000" font-family="sans-serif" font-size="13" font-weight="bold" lengthAdjust="spacing" textLength="18.0908" x="415.7559" y="1231.981">13</text>
    <text fill="#000000" font-family="sans-serif" font-size="13" lengthAdjust="spacing" textLength="87.0898" x="437.8467" y="1231.981">POST /quotes</text>
    <polygon fill="#181818" points="419.7559,1266.1797,409.7559,1266.1797,419.7559,1270.1797" style="stroke:#181818;stroke-width:1.0;"/>
    <line style="stroke:#181818;stroke-width:1.0;stroke-dasharray:2.0,2.0;" x1="408.7559" x2="1251.7173" y1="1266.1797" y2="1266.1797"/>
    <text fill="#000000" font-family="sans-serif" font-size="13" font-weight="bold" lengthAdjust="spacing" textLength="18.0908" x="425.7559" y="1261.1138">14</text>
    <text fill="#000000" font-family="sans-serif" font-size="13" lengthAdjust="spacing" textLength="47.7026" x="447.8467" y="1261.1138">202 OK</text>
    <line style="stroke:#181818;stroke-width:1.0;" x1="1252.7173" x2="1294.7173" y1="1295.3125" y2="1295.3125"/>
    <line style="stroke:#181818;stroke-width:1.0;" x1="1294.7173" x2="1294.7173" y1="1295.3125" y2="1308.3125"/>
    <line style="stroke:#181818;stroke-width:1.0;" x1="1253.7173" x2="1294.7173" y1="1308.3125" y2="1308.3125"/>
    <polygon fill="#181818" points="1263.7173,1304.3125,1253.7173,1308.3125,1263.7173,1312.3125,1259.7173,1308.3125" style="stroke:#181818;stroke-width:1.0;"/>
    <text fill="#000000" font-family="sans-serif" font-size="13" font-weight="bold" lengthAdjust="spacing" textLength="18.0908" x="1259.7173" y="1290.2466">15</text>
    <text fill="#000000" font-family="sans-serif" font-size="13" lengthAdjust="spacing" textLength="319.4014" x="1281.8081" y="1290.2466">Le FSP bénéficiaire persiste et calcule la cotation</text>
    <path d="M19,1323.3125 L83.4429,1323.3125 L83.4429,1330.4453 L73.4429,1340.4453 L19,1340.4453 L19,1323.3125 " fill="#EEEEEE" style="stroke:#000000;stroke-width:1.5;"/>
    <rect fill="none" height="958.0547" style="stroke:#000000;stroke-width:1.5;" width="1326.748" x="19" y="1323.3125"/>
    <text fill="#000000" font-family="sans-serif" font-size="13" font-weight="bold" lengthAdjust="spacing" textLength="19.4429" x="34" y="1336.3794">alt</text>
    <text fill="#000000" font-family="sans-serif" font-size="11" font-weight="bold" lengthAdjust="spacing" textLength="315.2725" x="98.4429" y="1335.5229">[traitement de la cotation réussi côté bénéficiaire]</text>
    <path d="M799,1345.4453 L799,1370.4453 L1247,1370.4453 L1247,1355.4453 L1237,1345.4453 L799,1345.4453 " fill="#FEFFDD" style="stroke:#181818;stroke-width:0.5;"/>
    <path d="M1237,1345.4453 L1237,1355.4453 L1247,1355.4453 L1237,1345.4453 " fill="#FEFFDD" style="stroke:#181818;stroke-width:0.5;"/>
    <text fill="#000000" font-family="sans-serif" font-size="13" lengthAdjust="spacing" textLength="427.3813" x="805" y="1362.5122">Le FSP bénéficiaire envoie la réponse au FSP payeur via le Switch</text>
    <polygon fill="#181818" points="419.7559,1392.7109,409.7559,1396.7109,419.7559,1396.7109" style="stroke:#181818;stroke-width:1.0;"/>
    <line style="stroke:#181818;stroke-width:1.0;" x1="408.7559" x2="1251.7173" y1="1396.7109" y2="1396.7109"/>
    <text fill="#000000" font-family="sans-serif" font-size="13" font-weight="bold" lengthAdjust="spacing" textLength="18.0908" x="425.7559" y="1391.645">16</text>
    <text fill="#000000" font-family="sans-serif" font-size="13" lengthAdjust="spacing" textLength="112.8867" x="447.8467" y="1391.645">PUT /quotes/{ID}</text>
    <polygon fill="#181818" points="1240.7173,1425.8438,1250.7173,1425.8438,1240.7173,1429.8438" style="stroke:#181818;stroke-width:1.0;"/>
    <line style="stroke:#181818;stroke-width:1.0;stroke-dasharray:2.0,2.0;" x1="408.7559" x2="1251.7173" y1="1425.8438" y2="1425.8438"/>
    <text fill="#000000" font-family="sans-serif" font-size="13" font-weight="bold" lengthAdjust="spacing" textLength="18.0908" x="415.7559" y="1420.7778">17</text>
    <text fill="#000000" font-family="sans-serif" font-size="13" lengthAdjust="spacing" textLength="47.7026" x="437.8467" y="1420.7778">200 OK</text>
    <line style="stroke:#181818;stroke-width:1.0;" x1="408.7559" x2="450.7559" y1="1454.9766" y2="1454.9766"/>
    <line style="stroke:#181818;stroke-width:1.0;" x1="450.7559" x2="450.7559" y1="1454.9766" y2="1467.9766"/>
    <line style="stroke:#181818;stroke-width:1.0;" x1="409.7559" x2="450.7559" y1="1467.9766" y2="1467.9766"/>
    <polygon fill="#181818" points="419.7559,1463.9766,409.7559,1467.9766,419.7559,1471.9766,415.7559,1467.9766" style="stroke:#181818;stroke-width:1.0;"/>
    <text fill="#000000" font-family="sans-serif" font-size="13" font-weight="bold" lengthAdjust="spacing" textLength="18.0908" x="415.7559" y="1449.9106">18</text>
    <text fill="#000000" font-family="sans-serif" font-size="13" lengthAdjust="spacing" textLength="195.6602" x="437.8467" y="1449.9106">Valider la réponse de cotation</text>
    <path d="M342.1792,1482.9766 L406.6221,1482.9766 L406.6221,1490.1094 L396.6221,1500.1094 L342.1792,1500.1094 L342.1792,1482.9766 " fill="#EEEEEE" style="stroke:#000000;stroke-width:1.5;"/>
    <rect fill="none" height="373.8594" style="stroke:#000000;stroke-width:1.5;" width="993.5688" x="342.1792" y="1482.9766"/>
    <text fill="#000000" font-family="sans-serif" font-size="13" font-weight="bold" lengthAdjust="spacing" textLength="19.4429" x="357.1792" y="1496.0435">alt</text>
    <text fill="#000000" font-family="sans-serif" font-size="11" font-weight="bold" lengthAdjust="spacing" textLength="208.5273" x="421.6221" y="1495.187">[SimpleRoutingMode === FALSE]</text>
    <line style="stroke:#181818;stroke-width:1.0;" x1="408.7559" x2="450.7559" y1="1521.2422" y2="1521.2422"/>
    <line style="stroke:#181818;stroke-width:1.0;" x1="450.7559" x2="450.7559" y1="1521.2422" y2="1534.2422"/>
    <line style="stroke:#181818;stroke-width:1.0;" x1="409.7559" x2="450.7559" y1="1534.2422" y2="1534.2422"/>
    <polygon fill="#181818" points="419.7559,1530.2422,409.7559,1534.2422,419.7559,1538.2422,415.7559,1534.2422" style="stroke:#181818;stroke-width:1.0;"/>
    <text fill="#000000" font-family="sans-serif" font-size="13" font-weight="bold" lengthAdjust="spacing" textLength="18.0908" x="415.7559" y="1516.1763">19</text>
    <text fill="#000000" font-family="sans-serif" font-size="13" lengthAdjust="spacing" textLength="132.2915" x="437.8467" y="1516.1763">Contrôle de doublon</text>
    <path d="M352.1792,1549.2422 L416.6221,1549.2422 L416.6221,1556.375 L406.6221,1566.375 L352.1792,1566.375 L352.1792,1549.2422 " fill="#EEEEEE" style="stroke:#000000;stroke-width:1.5;"/>
    <rect fill="none" height="75.3984" style="stroke:#000000;stroke-width:1.5;" width="973.5688" x="352.1792" y="1549.2422"/>
    <text fill="#000000" font-family="sans-serif" font-size="13" font-weight="bold" lengthAdjust="spacing" textLength="19.4429" x="367.1792" y="1562.3091">alt</text>
    <text fill="#000000" font-family="sans-serif" font-size="11" font-weight="bold" lengthAdjust="spacing" textLength="293.1865" x="431.6221" y="1561.4526">[la réponse est un doublon mais pas un renvoi]</text>
    <polygon fill="#181818" points="1240.7173,1583.5078,1250.7173,1587.5078,1240.7173,1587.5078" style="stroke:#181818;stroke-width:1.0;"/>
    <line style="stroke:#181818;stroke-width:1.0;" x1="408.7559" x2="1251.7173" y1="1587.5078" y2="1587.5078"/>
    <text fill="#000000" font-family="sans-serif" font-size="13" font-weight="bold" lengthAdjust="spacing" textLength="18.0908" x="415.7559" y="1582.4419">20</text>
    <text fill="#000000" font-family="sans-serif" font-size="13" lengthAdjust="spacing" textLength="149.2524" x="437.8467" y="1582.4419">PUT /quotes/{ID}/error</text>
    <polygon fill="#181818" points="419.7559,1616.6406,409.7559,1616.6406,419.7559,1620.6406" style="stroke:#181818;stroke-width:1.0;"/>
    <line style="stroke:#181818;stroke-width:1.0;stroke-dasharray:2.0,2.0;" x1="408.7559" x2="1251.7173" y1="1616.6406" y2="1616.6406"/>
    <text fill="#000000" font-family="sans-serif" font-size="13" font-weight="bold" lengthAdjust="spacing" textLength="18.0908" x="425.7559" y="1611.5747">21</text>
    <text fill="#000000" font-family="sans-serif" font-size="13" lengthAdjust="spacing" textLength="47.7026" x="447.8467" y="1611.5747">200 OK</text>
    <path d="M352.1792,1638.6406 L416.6221,1638.6406 L416.6221,1645.7734 L406.6221,1655.7734 L352.1792,1655.7734 L352.1792,1638.6406 " fill="#EEEEEE" style="stroke:#000000;stroke-width:1.5;"/>
    <rect fill="none" height="59.2656" style="stroke:#000000;stroke-width:1.5;" width="335.4717" x="352.1792" y="1638.6406"/>
    <text fill="#000000" font-family="sans-serif" font-size="13" font-weight="bold" lengthAdjust="spacing" textLength="19.4429" x="367.1792" y="1651.7075">alt</text>
    <text fill="#000000" font-family="sans-serif" font-size="11" font-weight="bold" lengthAdjust="spacing" textLength="251.0288" x="431.6221" y="1650.8511">[la réponse est un doublon et un renvoi]</text>
    <line style="stroke:#181818;stroke-width:1.0;" x1="408.7559" x2="450.7559" y1="1676.9063" y2="1676.9063"/>
    <line style="stroke:#181818;stroke-width:1.0;" x1="450.7559" x2="450.7559" y1="1676.9063" y2="1689.9063"/>
    <line style="stroke:#181818;stroke-width:1.0;" x1="409.7559" x2="450.7559" y1="1689.9063" y2="1689.9063"/>
    <polygon fill="#181818" points="419.7559,1685.9063,409.7559,1689.9063,419.7559,1693.9063,415.7559,1689.9063" style="stroke:#181818;stroke-width:1.0;"/>
    <text fill="#000000" font-family="sans-serif" font-size="13" font-weight="bold" lengthAdjust="spacing" textLength="18.0908" x="415.7559" y="1671.8403">22</text>
    <text fill="#000000" font-family="sans-serif" font-size="13" lengthAdjust="spacing" textLength="236.3423" x="437.8467" y="1671.8403">Le Switch gère le scénario de renvoi</text>
    <polygon fill="#181818" points="1094.5093,1722.0391,1104.5093,1726.0391,1094.5093,1726.0391" style="stroke:#181818;stroke-width:1.0;"/>
    <line style="stroke:#181818;stroke-width:1.0;" x1="408.7559" x2="1105.5093" y1="1726.0391" y2="1726.0391"/>
    <text fill="#000000" font-family="sans-serif" font-size="13" font-weight="bold" lengthAdjust="spacing" textLength="18.0908" x="415.7559" y="1720.9731">23</text>
    <text fill="#000000" font-family="sans-serif" font-size="13" lengthAdjust="spacing" textLength="206.7622" x="437.8467" y="1720.9731">Persister la réponse de cotation</text>
    <polygon fill="#FEFFDD" points="1029,1739.0391,1192,1739.0391,1202,1780.0391,1192,1822.0391,1029,1822.0391,1019,1780.0391,1029,1739.0391" style="stroke:#181818;stroke-width:0.5;"/>
    <text fill="#000000" font-family="sans-serif" font-size="13" lengthAdjust="spacing" textLength="100.5596" x="1031" y="1755.106">quoteResponse</text>
    <text fill="#000000" font-family="sans-serif" font-size="13" lengthAdjust="spacing" textLength="139.4644" x="1031" y="1770.2388">quoteDuplicateCheck</text>
    <text fill="#000000" font-family="sans-serif" font-size="13" lengthAdjust="spacing" textLength="159.834" x="1031" y="1785.3716">quoteResponseIlpPacket</text>
    <text fill="#000000" font-family="sans-serif" font-size="13" lengthAdjust="spacing" textLength="57.4844" x="1031" y="1800.5044">geoCode</text>
    <text fill="#000000" font-family="sans-serif" font-size="13" lengthAdjust="spacing" textLength="101.3594" x="1031" y="1815.6372">quoteExtension</text>
    <polygon fill="#181818" points="419.7559,1848.8359,409.7559,1848.8359,419.7559,1852.8359" style="stroke:#181818;stroke-width:1.0;"/>
    <line style="stroke:#181818;stroke-width:1.0;stroke-dasharray:2.0,2.0;" x1="408.7559" x2="1110.5093" y1="1848.8359" y2="1848.8359"/>
    <text fill="#000000" font-family="sans-serif" font-size="13" font-weight="bold" lengthAdjust="spacing" textLength="18.0908" x="425.7559" y="1843.77">24</text>
    <text fill="#000000" font-family="sans-serif" font-size="13" lengthAdjust="spacing" textLength="212.6147" x="447.8467" y="1843.77">Réponse de cotation enregistrée</text>
    <path d="M87,1868.8359 L87,1893.8359 L403,1893.8359 L403,1878.8359 L393,1868.8359 L87,1868.8359 " fill="#FEFFDD" style="stroke:#181818;stroke-width:0.5;"/>
    <path d="M393,1868.8359 L393,1878.8359 L403,1878.8359 L393,1868.8359 " fill="#FEFFDD" style="stroke:#181818;stroke-width:0.5;"/>
    <text fill="#000000" font-family="sans-serif" font-size="13" lengthAdjust="spacing" textLength="295.731" x="93" y="1885.9028">Le Switch transmet la réponse au FSP payeur</text>
    <polygon fill="#181818" points="224.4126,1916.1016,214.4126,1920.1016,224.4126,1920.1016" style="stroke:#181818;stroke-width:1.0;"/>
    <line style="stroke:#181818;stroke-width:1.0;" x1="213.4126" x2="407.7559" y1="1920.1016" y2="1920.1016"/>
    <text fill="#000000" font-family="sans-serif" font-size="13" font-weight="bold" lengthAdjust="spacing" textLength="18.0908" x="230.4126" y="1915.0356">25</text>
    <text fill="#000000" font-family="sans-serif" font-size="13" lengthAdjust="spacing" textLength="112.8867" x="252.5034" y="1915.0356">PUT /quotes/{ID}</text>
    <polygon fill="#181818" points="396.7559,1949.2344,406.7559,1949.2344,396.7559,1953.2344" style="stroke:#181818;stroke-width:1.0;"/>
    <line style="stroke:#181818;stroke-width:1.0;stroke-dasharray:2.0,2.0;" x1="213.4126" x2="407.7559" y1="1949.2344" y2="1949.2344"/>
    <text fill="#000000" font-family="sans-serif" font-size="13" font-weight="bold" lengthAdjust="spacing" textLength="18.0908" x="220.4126" y="1944.1685">26</text>
    <text fill="#000000" font-family="sans-serif" font-size="13" lengthAdjust="spacing" textLength="47.7026" x="242.5034" y="1944.1685">200 OK</text>
    <line style="stroke:#000000;stroke-width:1.0;stroke-dasharray:2.0,2.0;" x1="19" x2="1345.748" y1="1958.2344" y2="1958.2344"/>
    <text fill="#000000" font-family="sans-serif" font-size="11" font-weight="bold" lengthAdjust="spacing" textLength="298.2139" x="24" y="1968.4448">[le bénéficiaire rejette ou rencontre une erreur]</text>
    <path d="M736,1977.0391 L736,2002.0391 L1246,2002.0391 L1246,1987.0391 L1236,1977.0391 L736,1977.0391 " fill="#FEFFDD" style="stroke:#181818;stroke-width:0.5;"/>
    <path d="M1236,1977.0391 L1236,1987.0391 L1246,1987.0391 L1236,1977.0391 " fill="#FEFFDD" style="stroke:#181818;stroke-width:0.5;"/>
    <text fill="#000000" font-family="sans-serif" font-size="13" lengthAdjust="spacing" textLength="489.7407" x="742" y="1994.106">Le FSP bénéficiaire envoie un callback d’erreur au FSP payeur via le Switch</text>
    <polygon fill="#181818" points="419.7559,2024.3047,409.7559,2028.3047,419.7559,2028.3047" style="stroke:#181818;stroke-width:1.0;"/>
    <line style="stroke:#181818;stroke-width:1.0;" x1="408.7559" x2="1251.7173" y1="2028.3047" y2="2028.3047"/>
    <text fill="#000000" font-family="sans-serif" font-size="13" font-weight="bold" lengthAdjust="spacing" textLength="18.0908" x="425.7559" y="2023.2388">27</text>
    <text fill="#000000" font-family="sans-serif" font-size="13" lengthAdjust="spacing" textLength="149.2524" x="447.8467" y="2023.2388">PUT /quotes/{ID}/error</text>
    <polygon fill="#181818" points="1240.7173,2057.4375,1250.7173,2057.4375,1240.7173,2061.4375" style="stroke:#181818;stroke-width:1.0;"/>
    <line style="stroke:#181818;stroke-width:1.0;stroke-dasharray:2.0,2.0;" x1="408.7559" x2="1251.7173" y1="2057.4375" y2="2057.4375"/>
    <text fill="#000000" font-family="sans-serif" font-size="13" font-weight="bold" lengthAdjust="spacing" textLength="18.0908" x="415.7559" y="2052.3716">28</text>
    <text fill="#000000" font-family="sans-serif" font-size="13" lengthAdjust="spacing" textLength="47.7026" x="437.8467" y="2052.3716">200 OK</text>
    <path d="M352.1792,2072.4375 L416.6221,2072.4375 L416.6221,2079.5703 L406.6221,2089.5703 L352.1792,2089.5703 L352.1792,2072.4375 " fill="#EEEEEE" style="stroke:#000000;stroke-width:1.5;"/>
    <rect fill="none" height="108.5313" style="stroke:#000000;stroke-width:1.5;" width="837.5073" x="352.1792" y="2072.4375"/>
    <text fill="#000000" font-family="sans-serif" font-size="13" font-weight="bold" lengthAdjust="spacing" textLength="19.4429" x="367.1792" y="2085.5044">alt</text>
    <text fill="#000000" font-family="sans-serif" font-size="11" font-weight="bold" lengthAdjust="spacing" textLength="208.5273" x="431.6221" y="2084.6479">[SimpleRoutingMode === FALSE]</text>
    <polygon fill="#181818" points="1094.5093,2106.7031,1104.5093,2110.7031,1094.5093,2110.7031" style="stroke:#181818;stroke-width:1.0;"/>
    <line style="stroke:#181818;stroke-width:1.0;" x1="408.7559" x2="1105.5093" y1="2110.7031" y2="2110.7031"/>
    <text fill="#000000" font-family="sans-serif" font-size="13" font-weight="bold" lengthAdjust="spacing" textLength="18.0908" x="415.7559" y="2105.6372">29</text>
    <text fill="#000000" font-family="sans-serif" font-size="13" lengthAdjust="spacing" textLength="201.9443" x="437.8467" y="2105.6372">Enregistrer l’erreur de cotation</text>
    <polygon fill="#FEFFDD" points="1074,2123.7031,1147,2123.7031,1157,2134.7031,1147,2146.7031,1074,2146.7031,1064,2134.7031,1074,2123.7031" style="stroke:#181818;stroke-width:0.5;"/>
    <text fill="#000000" font-family="sans-serif" font-size="13" lengthAdjust="spacing" textLength="69.7417" x="1076" y="2139.77">quoteError</text>
    <polygon fill="#181818" points="419.7559,2172.9688,409.7559,2172.9688,419.7559,2176.9688" style="stroke:#181818;stroke-width:1.0;"/>
    <line style="stroke:#181818;stroke-width:1.0;stroke-dasharray:2.0,2.0;" x1="408.7559" x2="1110.5093" y1="2172.9688" y2="2172.9688"/>
    <text fill="#000000" font-family="sans-serif" font-size="13" font-weight="bold" lengthAdjust="spacing" textLength="18.0908" x="425.7559" y="2167.9028">30</text>
    <text fill="#000000" font-family="sans-serif" font-size="13" lengthAdjust="spacing" textLength="196.8535" x="447.8467" y="2167.9028">Erreur de cotation enregistrée</text>
    <path d="M29,2192.9688 L29,2217.9688 L403,2217.9688 L403,2202.9688 L393,2192.9688 L29,2192.9688 " fill="#FEFFDD" style="stroke:#181818;stroke-width:0.5;"/>
    <path d="M393,2192.9688 L393,2202.9688 L403,2202.9688 L393,2192.9688 " fill="#FEFFDD" style="stroke:#181818;stroke-width:0.5;"/>
    <text fill="#000000" font-family="sans-serif" font-size="13" lengthAdjust="spacing" textLength="353.2217" x="35" y="2210.0356">Le Switch transmet le callback d’erreur au FSP payeur</text>
    <polygon fill="#181818" points="224.4126,2240.2344,214.4126,2244.2344,224.4126,2244.2344" style="stroke:#181818;stroke-width:1.0;"/>
    <line style="stroke:#181818;stroke-width:1.0;" x1="213.4126" x2="407.7559" y1="2244.2344" y2="2244.2344"/>
    <text fill="#000000" font-family="sans-serif" font-size="13" font-weight="bold" lengthAdjust="spacing" textLength="18.0908" x="230.4126" y="2239.1685">31</text>
    <text fill="#000000" font-family="sans-serif" font-size="13" lengthAdjust="spacing" textLength="149.2524" x="252.5034" y="2239.1685">PUT /quotes/{ID}/error</text>
    <polygon fill="#181818" points="396.7559,2273.3672,406.7559,2273.3672,396.7559,2277.3672" style="stroke:#181818;stroke-width:1.0;"/>
    <line style="stroke:#181818;stroke-width:1.0;stroke-dasharray:2.0,2.0;" x1="213.4126" x2="407.7559" y1="2273.3672" y2="2273.3672"/>
    <text fill="#000000" font-family="sans-serif" font-size="13" font-weight="bold" lengthAdjust="spacing" textLength="18.0908" x="220.4126" y="2268.3013">32</text>
    <text fill="#000000" font-family="sans-serif" font-size="13" lengthAdjust="spacing" textLength="47.7026" x="242.5034" y="2268.3013">200 OK</text>
    <line style="stroke:#000000;stroke-width:1.0;stroke-dasharray:2.0,2.0;" x1="9" x2="1613.2095" y1="2289.3672" y2="2289.3672"/>
    <text fill="#000000" font-family="sans-serif" font-size="11" font-weight="bold" lengthAdjust="spacing" textLength="407.3491" x="14" y="2299.5776">[point de terminaison « quotes » du FSP bénéficiaire introuvable]</text>
    <path d="M36,2308.1719 L36,2348.1719 L403,2348.1719 L403,2318.1719 L393,2308.1719 L36,2308.1719 " fill="#FEFFDD" style="stroke:#181818;stroke-width:0.5;"/>
    <path d="M393,2308.1719 L393,2318.1719 L403,2318.1719 L393,2308.1719 " fill="#FEFFDD" style="stroke:#181818;stroke-width:0.5;"/>
    <text fill="#000000" font-family="sans-serif" font-size="13" lengthAdjust="spacing" textLength="342.4053" x="42" y="2325.2388">Le Switch envoie un callback d’erreur au FSP payeur</text>
    <text fill="#000000" font-family="sans-serif" font-size="13" lengthAdjust="spacing" textLength="4.1323" x="42" y="2340.3716"> </text>
    <text fill="#FF0000" font-family="sans-serif" font-size="13" font-weight="bold" lengthAdjust="spacing" textLength="151.9185" x="46.1323" y="2340.3716">Code d’erreur : 3201</text>
    <polygon fill="#181818" points="224.4126,2370.5703,214.4126,2374.5703,224.4126,2374.5703" style="stroke:#181818;stroke-width:1.0;"/>
    <line style="stroke:#181818;stroke-width:1.0;" x1="213.4126" x2="407.7559" y1="2374.5703" y2="2374.5703"/>
    <text fill="#000000" font-family="sans-serif" font-size="13" font-weight="bold" lengthAdjust="spacing" textLength="18.0908" x="230.4126" y="2369.5044">33</text>
    <text fill="#000000" font-family="sans-serif" font-size="13" lengthAdjust="spacing" textLength="149.2524" x="252.5034" y="2369.5044">PUT /quotes/{ID}/error</text>
    <polygon fill="#181818" points="396.7559,2399.7031,406.7559,2403.7031,396.7559,2403.7031" style="stroke:#181818;stroke-width:1.0;"/>
    <line style="stroke:#181818;stroke-width:1.0;stroke-dasharray:2.0,2.0;" x1="213.4126" x2="407.7559" y1="2403.7031" y2="2403.7031"/>
    <text fill="#000000" font-family="sans-serif" font-size="13" font-weight="bold" lengthAdjust="spacing" textLength="18.0908" x="220.4126" y="2398.6372">34</text>
    <text fill="#000000" font-family="sans-serif" font-size="13" lengthAdjust="spacing" textLength="47.7026" x="242.5034" y="2398.6372">200 OK</text>
  </g>
</svg>
