<svg xmlns="http://www.w3.org/2000/svg" xmlns:xlink="http://www.w3.org/1999/xlink" contentStyleType="text/css" height="1562px" preserveAspectRatio="none" style="width:1612px;height:1562px;background:#FFFFFF;" version="1.1" viewBox="0 0 1612 1562" width="1612px" zoomAndPan="magnify">
  <title>Inter-schéma — schéma général</title>
  <defs/>
  <g>
    <text fill="#000000" font-family="sans-serif" font-size="14" font-weight="bold" lengthAdjust="spacing" textLength="253.0869" x="675.6172" y="27.9951">Inter-schéma — schéma général</text>
    <rect fill="#ADD8E6" height="1512.8281" style="stroke:#181818;stroke-width:0.5;" width="514.5518" x="319.2671" y="43.2969"/>
    <text fill="#000000" font-family="sans-serif" font-size="13" font-weight="bold" lengthAdjust="spacing" textLength="72.0459" x="540.52" y="55.3638">Schéma A</text>
    <rect fill="#D1E0C3" height="1512.8281" style="stroke:#181818;stroke-width:0.5;" width="366.5078" x="976.2075" y="43.2969"/>
    <text fill="#000000" font-family="sans-serif" font-size="13" font-weight="bold" lengthAdjust="spacing" textLength="71.8936" x="1123.5146" y="55.3638">Schéma B</text>
    <line style="stroke:#181818;stroke-width:0.5;stroke-dasharray:5.0,5.0;" x1="197" x2="197" y1="110.0234" y2="1505.5313"/>
    <line style="stroke:#181818;stroke-width:0.5;stroke-dasharray:5.0,5.0;" x1="374.2671" x2="374.2671" y1="110.0234" y2="1505.5313"/>
    <line style="stroke:#181818;stroke-width:0.5;stroke-dasharray:5.0,5.0;" x1="778.0522" x2="778.0522" y1="110.0234" y2="1505.5313"/>
    <line style="stroke:#181818;stroke-width:0.5;stroke-dasharray:5.0,5.0;" x1="877.8188" x2="877.8188" y1="110.0234" y2="1505.5313"/>
    <line style="stroke:#181818;stroke-width:0.5;stroke-dasharray:5.0,5.0;" x1="1031.2075" x2="1031.2075" y1="110.0234" y2="1505.5313"/>
    <line style="stroke:#181818;stroke-width:0.5;stroke-dasharray:5.0,5.0;" x1="1286.9487" x2="1286.9487" y1="110.0234" y2="1505.5313"/>
    <line style="stroke:#181818;stroke-width:0.5;stroke-dasharray:5.0,5.0;" x1="1416.7153" x2="1416.7153" y1="110.0234" y2="1505.5313"/>
    <rect fill="#E2E2F0" height="30.2969" rx="2.5" ry="2.5" style="stroke:#181818;stroke-width:0.5;" width="103.6055" x="146" y="78.7266"/>
    <text fill="#000000" font-family="sans-serif" font-size="14" lengthAdjust="spacing" textLength="89.6055" x="153" y="98.7217">DFSP payeur</text>
    <rect fill="#E2E2F0" height="30.2969" rx="2.5" ry="2.5" style="stroke:#181818;stroke-width:0.5;" width="103.6055" x="146" y="1504.5313"/>
    <text fill="#000000" font-family="sans-serif" font-size="14" lengthAdjust="spacing" textLength="89.6055" x="153" y="1524.5264">DFSP payeur</text>
    <rect fill="#E2E2F0" height="46.5938" rx="2.5" ry="2.5" style="stroke:#181818;stroke-width:0.5;" width="103.2842" x="323.2671" y="62.4297"/>
    <text fill="#000000" font-family="sans-serif" font-size="14" lengthAdjust="spacing" textLength="89.2842" x="330.2671" y="82.4248">Gestionnaire</text>
    <text fill="#000000" font-family="sans-serif" font-size="14" lengthAdjust="spacing" textLength="70.3145" x="339.752" y="98.7217">Schéma A</text>
    <rect fill="#E2E2F0" height="46.5938" rx="2.5" ry="2.5" style="stroke:#181818;stroke-width:0.5;" width="103.2842" x="323.2671" y="1504.5313"/>
    <text fill="#000000" font-family="sans-serif" font-size="14" lengthAdjust="spacing" textLength="89.2842" x="330.2671" y="1524.5264">Gestionnaire</text>
    <text fill="#000000" font-family="sans-serif" font-size="14" lengthAdjust="spacing" textLength="70.3145" x="339.752" y="1540.8232">Schéma A</text>
    <rect fill="#E2E2F0" height="46.5938" rx="2.5" ry="2.5" style="stroke:#181818;stroke-width:0.5;" width="101.7666" x="728.0522" y="62.4297"/>
    <text fill="#000000" font-family="sans-serif" font-size="14" lengthAdjust="spacing" textLength="87.7666" x="735.0522" y="82.4248">Cache proxy</text>
    <text fill="#000000" font-family="sans-serif" font-size="14" lengthAdjust="spacing" textLength="70.3145" x="743.7783" y="98.7217">Schéma A</text>
    <rect fill="#E2E2F0" height="46.5938" rx="2.5" ry="2.5" style="stroke:#181818;stroke-width:0.5;" width="101.7666" x="728.0522" y="1504.5313"/>
    <text fill="#000000" font-family="sans-serif" font-size="14" lengthAdjust="spacing" textLength="87.7666" x="735.0522" y="1524.5264">Cache proxy</text>
    <text fill="#000000" font-family="sans-serif" font-size="14" lengthAdjust="spacing" textLength="70.3145" x="743.7783" y="1540.8232">Schéma A</text>
    <rect fill="#E2E2F0" height="30.2969" rx="2.5" ry="2.5" style="stroke:#181818;stroke-width:0.5;" width="76.9658" x="839.8188" y="78.7266"/>
    <text fill="#000000" font-family="sans-serif" font-size="14" lengthAdjust="spacing" textLength="62.9658" x="846.8188" y="98.7217">Proxy AB</text>
    <rect fill="#E2E2F0" height="30.2969" rx="2.5" ry="2.5" style="stroke:#181818;stroke-width:0.5;" width="76.9658" x="839.8188" y="1504.5313"/>
    <text fill="#000000" font-family="sans-serif" font-size="14" lengthAdjust="spacing" textLength="62.9658" x="846.8188" y="1524.5264">Proxy AB</text>
    <rect fill="#E2E2F0" height="46.5938" rx="2.5" ry="2.5" style="stroke:#181818;stroke-width:0.5;" width="103.2842" x="980.2075" y="62.4297"/>
    <text fill="#000000" font-family="sans-serif" font-size="14" lengthAdjust="spacing" textLength="89.2842" x="987.2075" y="82.4248">Gestionnaire</text>
    <text fill="#000000" font-family="sans-serif" font-size="14" lengthAdjust="spacing" textLength="70.3418" x="996.6787" y="98.7217">Schéma B</text>
    <rect fill="#E2E2F0" height="46.5938" rx="2.5" ry="2.5" style="stroke:#181818;stroke-width:0.5;" width="103.2842" x="980.2075" y="1504.5313"/>
    <text fill="#000000" font-family="sans-serif" font-size="14" lengthAdjust="spacing" textLength="89.2842" x="987.2075" y="1524.5264">Gestionnaire</text>
    <text fill="#000000" font-family="sans-serif" font-size="14" lengthAdjust="spacing" textLength="70.3418" x="996.6787" y="1540.8232">Schéma B</text>
    <rect fill="#E2E2F0" height="46.5938" rx="2.5" ry="2.5" style="stroke:#181818;stroke-width:0.5;" width="101.7666" x="1236.9487" y="62.4297"/>
    <text fill="#000000" font-family="sans-serif" font-size="14" lengthAdjust="spacing" textLength="87.7666" x="1243.9487" y="82.4248">Cache proxy</text>
    <text fill="#000000" font-family="sans-serif" font-size="14" lengthAdjust="spacing" textLength="70.3418" x="1252.6611" y="98.7217">Schéma B</text>
    <rect fill="#E2E2F0" height="46.5938" rx="2.5" ry="2.5" style="stroke:#181818;stroke-width:0.5;" width="101.7666" x="1236.9487" y="1504.5313"/>
    <text fill="#000000" font-family="sans-serif" font-size="14" lengthAdjust="spacing" textLength="87.7666" x="1243.9487" y="1524.5264">Cache proxy</text>
    <text fill="#000000" font-family="sans-serif" font-size="14" lengthAdjust="spacing" textLength="70.3418" x="1252.6611" y="1540.8232">Schéma B</text>
    <rect fill="#E2E2F0" height="30.2969" rx="2.5" ry="2.5" style="stroke:#181818;stroke-width:0.5;" width="136.8418" x="1348.7153" y="78.7266"/>
    <text fill="#000000" font-family="sans-serif" font-size="14" lengthAdjust="spacing" textLength="122.8418" x="1355.7153" y="98.7217">DFSP bénéficiaire</text>
    <rect fill="#E2E2F0" height="30.2969" rx="2.5" ry="2.5" style="stroke:#181818;stroke-width:0.5;" width="136.8418" x="1348.7153" y="1504.5313"/>
    <text fill="#000000" font-family="sans-serif" font-size="14" lengthAdjust="spacing" textLength="122.8418" x="1355.7153" y="1524.5264">DFSP bénéficiaire</text>
    <rect fill="#EEEEEE" height="3" style="stroke:#EEEEEE;stroke-width:1.0;" width="1605.3213" x="0" y="140.5898"/>
    <line style="stroke:#000000;stroke-width:1.0;" x1="0" x2="1605.3213" y1="140.5898" y2="140.5898"/>
    <line style="stroke:#000000;stroke-width:1.0;" x1="0" x2="1605.3213" y1="143.5898" y2="143.5898"/>
    <rect fill="#EEEEEE" height="23.1328" style="stroke:#000000;stroke-width:2.0;" width="105.9712" x="749.675" y="130.0234"/>
    <text fill="#000000" font-family="sans-serif" font-size="13" font-weight="bold" lengthAdjust="spacing" textLength="87.4453" x="755.675" y="146.0903">Phase POST</text>
    <line style="stroke:#181818;stroke-width:1.0;" x1="372.9092" x2="362.9092" y1="217.5547" y2="213.5547"/>
    <line style="stroke:#181818;stroke-width:1.0;" x1="372.9092" x2="362.9092" y1="217.5547" y2="221.5547"/>
    <line style="stroke:#181818;stroke-width:1.0;" x1="197.8027" x2="373.9092" y1="217.5547" y2="217.5547"/>
    <text fill="#000000" font-family="sans-serif" font-size="13" font-weight="bold" lengthAdjust="spacing" textLength="20.9282" x="204.8027" y="212.4888">[1]</text>
    <text fill="#000000" font-family="sans-serif" font-size="13" lengthAdjust="spacing" textLength="65.8569" x="229.731" y="212.4888">POST /xxx</text>
    <path d="M5,168.1563 L5,253.1563 L193,253.1563 L193,178.1563 L183,168.1563 L5,168.1563 " fill="#FEFFDD" style="stroke:#181818;stroke-width:0.5;"/>
    <path d="M183,168.1563 L183,178.1563 L193,178.1563 L183,168.1563 " fill="#FEFFDD" style="stroke:#181818;stroke-width:0.5;"/>
    <text fill="#000000" font-family="sans-serif" font-size="13" lengthAdjust="spacing" textLength="47.1187" x="11" y="185.2231">en-tête</text>
    <text fill="#000000" font-family="sans-serif" font-size="13" lengthAdjust="spacing" textLength="126.9341" x="19.2646" y="200.356">source : payerDFSP</text>
    <text fill="#000000" font-family="sans-serif" font-size="13" lengthAdjust="spacing" textLength="158.9707" x="19.2646" y="215.4888">destination : payeeDFSP</text>
    <text fill="#000000" font-family="sans-serif" font-size="13" lengthAdjust="spacing" textLength="35.4707" x="11" y="230.6216">corps</text>
    <text fill="#000000" font-family="sans-serif" font-size="13" lengthAdjust="spacing" textLength="71.9824" x="15.1323" y="245.7544">{ID: 1234}</text>
    <line style="stroke:#181818;stroke-width:1.0;" x1="198.8027" x2="208.8027" y1="279.9531" y2="275.9531"/>
    <line style="stroke:#181818;stroke-width:1.0;" x1="198.8027" x2="208.8027" y1="279.9531" y2="283.9531"/>
    <line style="stroke:#181818;stroke-width:1.0;stroke-dasharray:2.0,2.0;" x1="197.8027" x2="373.9092" y1="279.9531" y2="279.9531"/>
    <text fill="#000000" font-family="sans-serif" font-size="13" font-weight="bold" lengthAdjust="spacing" textLength="20.9282" x="214.8027" y="274.8872">[2]</text>
    <text fill="#000000" font-family="sans-serif" font-size="13" lengthAdjust="spacing" textLength="119.1328" x="239.731" y="274.8872">réponse HTTP 202</text>
    <polygon fill="#181818" points="766.9355,335.3516,776.9355,339.3516,766.9355,343.3516,770.9355,339.3516" style="stroke:#181818;stroke-width:1.0;"/>
    <line style="stroke:#181818;stroke-width:1.0;" x1="374.9092" x2="772.9355" y1="339.3516" y2="339.3516"/>
    <text fill="#000000" font-family="sans-serif" font-size="13" font-weight="bold" lengthAdjust="spacing" textLength="20.9282" x="381.9092" y="319.1528">[3]</text>
    <text fill="#000000" font-family="sans-serif" font-size="13" lengthAdjust="spacing" textLength="170.4727" x="406.8374" y="304.02">Destination hors schéma :</text>
    <text fill="#000000" font-family="sans-serif" font-size="13" lengthAdjust="spacing" textLength="196.5298" x="410.9697" y="319.1528">payeeDFSP a un proxy mappé</text>
    <text fill="#000000" font-family="sans-serif" font-size="13" lengthAdjust="spacing" textLength="171.6343" x="410.9697" y="334.2856">envoyer vers « Proxy AB »</text>
    <line style="stroke:#181818;stroke-width:1.0;" x1="876.3018" x2="866.3018" y1="368.4844" y2="364.4844"/>
    <line style="stroke:#181818;stroke-width:1.0;" x1="876.3018" x2="866.3018" y1="368.4844" y2="372.4844"/>
    <line style="stroke:#181818;stroke-width:1.0;" x1="374.9092" x2="877.3018" y1="368.4844" y2="368.4844"/>
    <text fill="#000000" font-family="sans-serif" font-size="13" font-weight="bold" lengthAdjust="spacing" textLength="20.9282" x="381.9092" y="363.4185">[4]</text>
    <text fill="#000000" font-family="sans-serif" font-size="13" lengthAdjust="spacing" textLength="65.8569" x="406.8374" y="363.4185">POST /xxx</text>
    <line style="stroke:#181818;stroke-width:1.0;" x1="878.3018" x2="920.3018" y1="397.6172" y2="397.6172"/>
    <line style="stroke:#181818;stroke-width:1.0;" x1="920.3018" x2="920.3018" y1="397.6172" y2="410.6172"/>
    <line style="stroke:#181818;stroke-width:1.0;" x1="879.3018" x2="920.3018" y1="410.6172" y2="410.6172"/>
    <polygon fill="#181818" points="889.3018,406.6172,879.3018,410.6172,889.3018,414.6172,885.3018,410.6172" style="stroke:#181818;stroke-width:1.0;"/>
    <text fill="#000000" font-family="sans-serif" font-size="13" font-weight="bold" lengthAdjust="spacing" textLength="20.9282" x="885.3018" y="392.5513">[5]</text>
    <text fill="#000000" font-family="sans-serif" font-size="13" lengthAdjust="spacing" textLength="105.5742" x="910.23" y="392.5513">Ajouter l&apos;en-tête</text>
    <path d="M680,384.9844 L680,409.9844 L872,409.9844 L872,394.9844 L862,384.9844 L680,384.9844 " fill="#FEFFDD" style="stroke:#181818;stroke-width:0.5;"/>
    <path d="M862,384.9844 L862,394.9844 L872,394.9844 L862,384.9844 " fill="#FEFFDD" style="stroke:#181818;stroke-width:0.5;"/>
    <text fill="#000000" font-family="sans-serif" font-size="13" lengthAdjust="spacing" textLength="171.5518" x="686" y="402.0513">fxpiop-proxy = &quot;Proxy AB&quot;</text>
    <line style="stroke:#181818;stroke-width:1.0;" x1="1029.8496" x2="1019.8496" y1="442.75" y2="438.75"/>
    <line style="stroke:#181818;stroke-width:1.0;" x1="1029.8496" x2="1019.8496" y1="442.75" y2="446.75"/>
    <line style="stroke:#181818;stroke-width:1.0;" x1="878.3018" x2="1030.8496" y1="442.75" y2="442.75"/>
    <text fill="#000000" font-family="sans-serif" font-size="13" font-weight="bold" lengthAdjust="spacing" textLength="20.9282" x="885.3018" y="437.6841">[6]</text>
    <text fill="#000000" font-family="sans-serif" font-size="13" lengthAdjust="spacing" textLength="65.8569" x="910.23" y="437.6841">POST /xxx</text>
    <path d="M535,423.6172 L535,448.6172 L872,448.6172 L872,433.6172 L862,423.6172 L535,423.6172 " fill="#FEFFDD" style="stroke:#181818;stroke-width:0.5;"/>
    <path d="M862,423.6172 L862,433.6172 L872,433.6172 L862,423.6172 " fill="#FEFFDD" style="stroke:#181818;stroke-width:0.5;"/>
    <text fill="#000000" font-family="sans-serif" font-size="13" lengthAdjust="spacing" textLength="316.3481" x="541" y="440.6841">Message transmis à schéma B sans modification</text>
    <line style="stroke:#181818;stroke-width:1.0;" x1="879.3018" x2="889.3018" y1="474.8828" y2="470.8828"/>
    <line style="stroke:#181818;stroke-width:1.0;" x1="879.3018" x2="889.3018" y1="474.8828" y2="478.8828"/>
    <line style="stroke:#181818;stroke-width:1.0;stroke-dasharray:2.0,2.0;" x1="878.3018" x2="1030.8496" y1="474.8828" y2="474.8828"/>
    <text fill="#000000" font-family="sans-serif" font-size="13" font-weight="bold" lengthAdjust="spacing" textLength="20.9282" x="895.3018" y="469.8169">[7]</text>
    <text fill="#000000" font-family="sans-serif" font-size="13" lengthAdjust="spacing" textLength="47.7026" x="920.23" y="469.8169">202 OK</text>
    <line style="stroke:#181818;stroke-width:1.0;" x1="375.9092" x2="385.9092" y1="504.0156" y2="500.0156"/>
    <line style="stroke:#181818;stroke-width:1.0;" x1="375.9092" x2="385.9092" y1="504.0156" y2="508.0156"/>
    <line style="stroke:#181818;stroke-width:1.0;stroke-dasharray:2.0,2.0;" x1="374.9092" x2="877.3018" y1="504.0156" y2="504.0156"/>
    <text fill="#000000" font-family="sans-serif" font-size="13" font-weight="bold" lengthAdjust="spacing" textLength="20.9282" x="391.9092" y="498.9497">[8]</text>
    <text fill="#000000" font-family="sans-serif" font-size="13" lengthAdjust="spacing" textLength="47.7026" x="416.8374" y="498.9497">202 OK</text>
    <line style="stroke:#181818;stroke-width:1.0;" x1="1415.1362" x2="1405.1362" y1="533.1484" y2="529.1484"/>
    <line style="stroke:#181818;stroke-width:1.0;" x1="1415.1362" x2="1405.1362" y1="533.1484" y2="537.1484"/>
    <line style="stroke:#181818;stroke-width:1.0;" x1="1031.8496" x2="1416.1362" y1="533.1484" y2="533.1484"/>
    <text fill="#000000" font-family="sans-serif" font-size="13" font-weight="bold" lengthAdjust="spacing" textLength="20.9282" x="1038.8496" y="528.0825">[9]</text>
    <text fill="#000000" font-family="sans-serif" font-size="13" lengthAdjust="spacing" textLength="65.8569" x="1063.7778" y="528.0825">POST /xxx</text>
    <line style="stroke:#181818;stroke-width:1.0;" x1="1032.8496" x2="1042.8496" y1="562.2813" y2="558.2813"/>
    <line style="stroke:#181818;stroke-width:1.0;" x1="1032.8496" x2="1042.8496" y1="562.2813" y2="566.2813"/>
    <line style="stroke:#181818;stroke-width:1.0;stroke-dasharray:2.0,2.0;" x1="1031.8496" x2="1416.1362" y1="562.2813" y2="562.2813"/>
    <text fill="#000000" font-family="sans-serif" font-size="13" font-weight="bold" lengthAdjust="spacing" textLength="29.9736" x="1048.8496" y="557.2153">[10]</text>
    <text fill="#000000" font-family="sans-serif" font-size="13" lengthAdjust="spacing" textLength="119.1328" x="1082.8232" y="557.2153">réponse HTTP 202</text>
    <rect fill="#EEEEEE" height="3" style="stroke:#EEEEEE;stroke-width:1.0;" width="1605.3213" x="0" y="590.8477"/>
    <line style="stroke:#000000;stroke-width:1.0;" x1="0" x2="1605.3213" y1="590.8477" y2="590.8477"/>
    <line style="stroke:#000000;stroke-width:1.0;" x1="0" x2="1605.3213" y1="593.8477" y2="593.8477"/>
    <rect fill="#EEEEEE" height="23.1328" style="stroke:#000000;stroke-width:2.0;" width="95.5801" x="754.8706" y="580.2813"/>
    <text fill="#000000" font-family="sans-serif" font-size="13" font-weight="bold" lengthAdjust="spacing" textLength="77.0542" x="760.8706" y="596.3481">Phase GET</text>
    <polygon fill="#181818" points="362.9092,645.6797,372.9092,649.6797,362.9092,653.6797,366.9092,649.6797" style="stroke:#181818;stroke-width:1.0;"/>
    <line style="stroke:#181818;stroke-width:1.0;" x1="197.8027" x2="368.9092" y1="649.6797" y2="649.6797"/>
    <text fill="#000000" font-family="sans-serif" font-size="13" font-weight="bold" lengthAdjust="spacing" textLength="29.9736" x="204.8027" y="637.0474">[11]</text>
    <text fill="#000000" font-family="sans-serif" font-size="13" lengthAdjust="spacing" textLength="92.5869" x="238.7764" y="629.481">GET /xxx/{ID}</text>
    <text fill="#000000" font-family="sans-serif" font-size="13" lengthAdjust="spacing" textLength="106.7231" x="238.7764" y="644.6138">sans destination</text>
    <path d="M44,622.9805 L44,647.9805 L191,647.9805 L191,632.9805 L181,622.9805 L44,622.9805 " fill="#FEFFDD" style="stroke:#181818;stroke-width:0.5;"/>
    <path d="M181,622.9805 L181,632.9805 L191,632.9805 L181,622.9805 " fill="#FEFFDD" style="stroke:#181818;stroke-width:0.5;"/>
    <text fill="#000000" font-family="sans-serif" font-size="13" lengthAdjust="spacing" textLength="126.9341" x="50" y="640.0474">source : payerDFSP</text>
    <line style="stroke:#181818;stroke-width:1.0;" x1="198.8027" x2="208.8027" y1="678.8125" y2="674.8125"/>
    <line style="stroke:#181818;stroke-width:1.0;" x1="198.8027" x2="208.8027" y1="678.8125" y2="682.8125"/>
    <line style="stroke:#181818;stroke-width:1.0;stroke-dasharray:2.0,2.0;" x1="197.8027" x2="373.9092" y1="678.8125" y2="678.8125"/>
    <text fill="#000000" font-family="sans-serif" font-size="13" font-weight="bold" lengthAdjust="spacing" textLength="29.9736" x="214.8027" y="673.7466">[12]</text>
    <text fill="#000000" font-family="sans-serif" font-size="13" lengthAdjust="spacing" textLength="119.1328" x="248.7764" y="673.7466">réponse HTTP 202</text>
    <line style="stroke:#181818;stroke-width:1.0;" x1="374.9092" x2="416.9092" y1="707.9453" y2="707.9453"/>
    <line style="stroke:#181818;stroke-width:1.0;" x1="416.9092" x2="416.9092" y1="707.9453" y2="720.9453"/>
    <line style="stroke:#181818;stroke-width:1.0;" x1="375.9092" x2="416.9092" y1="720.9453" y2="720.9453"/>
    <polygon fill="#181818" points="385.9092,716.9453,375.9092,720.9453,385.9092,724.9453,381.9092,720.9453" style="stroke:#181818;stroke-width:1.0;"/>
    <text fill="#000000" font-family="sans-serif" font-size="13" font-weight="bold" lengthAdjust="spacing" textLength="29.9736" x="381.9092" y="702.8794">[13]</text>
    <text fill="#000000" font-family="sans-serif" font-size="13" lengthAdjust="spacing" textLength="356.0527" x="415.8828" y="702.8794">recherche du résultat par ID et déclenchement du PUT</text>
    <polygon fill="#181818" points="362.9092,764.2109,372.9092,768.2109,362.9092,772.2109,366.9092,768.2109" style="stroke:#181818;stroke-width:1.0;"/>
    <line style="stroke:#181818;stroke-width:1.0;" x1="197.8027" x2="368.9092" y1="768.2109" y2="768.2109"/>
    <text fill="#000000" font-family="sans-serif" font-size="13" font-weight="bold" lengthAdjust="spacing" textLength="29.9736" x="204.8027" y="755.5786">[14]</text>
    <text fill="#000000" font-family="sans-serif" font-size="13" lengthAdjust="spacing" textLength="92.5869" x="238.7764" y="748.0122">GET /xxx/{ID}</text>
    <text fill="#000000" font-family="sans-serif" font-size="13" lengthAdjust="spacing" textLength="107.7769" x="238.7764" y="763.145">avec destination</text>
    <path d="M12,733.9453 L12,773.9453 L191,773.9453 L191,743.9453 L181,733.9453 L12,733.9453 " fill="#FEFFDD" style="stroke:#181818;stroke-width:0.5;"/>
    <path d="M181,733.9453 L181,743.9453 L191,743.9453 L181,733.9453 " fill="#FEFFDD" style="stroke:#181818;stroke-width:0.5;"/>
    <text fill="#000000" font-family="sans-serif" font-size="13" lengthAdjust="spacing" textLength="126.9341" x="18" y="751.0122">source : payerDFSP</text>
    <text fill="#000000" font-family="sans-serif" font-size="13" lengthAdjust="spacing" textLength="158.9707" x="18" y="766.145">destination : payeeDFSP</text>
    <line style="stroke:#181818;stroke-width:1.0;" x1="198.8027" x2="208.8027" y1="800.3438" y2="796.3438"/>
    <line style="stroke:#181818;stroke-width:1.0;" x1="198.8027" x2="208.8027" y1="800.3438" y2="804.3438"/>
    <line style="stroke:#181818;stroke-width:1.0;stroke-dasharray:2.0,2.0;" x1="197.8027" x2="373.9092" y1="800.3438" y2="800.3438"/>
    <text fill="#000000" font-family="sans-serif" font-size="13" font-weight="bold" lengthAdjust="spacing" textLength="29.9736" x="214.8027" y="795.2778">[15]</text>
    <text fill="#000000" font-family="sans-serif" font-size="13" lengthAdjust="spacing" textLength="119.1328" x="248.7764" y="795.2778">réponse HTTP 202</text>
    <polygon fill="#181818" points="766.9355,855.7422,776.9355,859.7422,766.9355,863.7422,770.9355,859.7422" style="stroke:#181818;stroke-width:1.0;"/>
    <line style="stroke:#181818;stroke-width:1.0;" x1="374.9092" x2="772.9355" y1="859.7422" y2="859.7422"/>
    <text fill="#000000" font-family="sans-serif" font-size="13" font-weight="bold" lengthAdjust="spacing" textLength="29.9736" x="381.9092" y="839.5435">[16]</text>
    <text fill="#000000" font-family="sans-serif" font-size="13" lengthAdjust="spacing" textLength="170.4727" x="415.8828" y="824.4106">Destination hors schéma :</text>
    <text fill="#000000" font-family="sans-serif" font-size="13" lengthAdjust="spacing" textLength="196.5298" x="420.0151" y="839.5435">payeeDFSP a un proxy mappé</text>
    <text fill="#000000" font-family="sans-serif" font-size="13" lengthAdjust="spacing" textLength="171.6343" x="420.0151" y="854.6763">envoyer vers « Proxy AB »</text>
    <line style="stroke:#181818;stroke-width:1.0;" x1="876.3018" x2="866.3018" y1="888.875" y2="884.875"/>
    <line style="stroke:#181818;stroke-width:1.0;" x1="876.3018" x2="866.3018" y1="888.875" y2="892.875"/>
    <line style="stroke:#181818;stroke-width:1.0;" x1="374.9092" x2="877.3018" y1="888.875" y2="888.875"/>
    <text fill="#000000" font-family="sans-serif" font-size="13" font-weight="bold" lengthAdjust="spacing" textLength="29.9736" x="381.9092" y="883.8091">[17]</text>
    <text fill="#000000" font-family="sans-serif" font-size="13" lengthAdjust="spacing" textLength="57.8208" x="415.8828" y="883.8091">GET /xxx</text>
    <line style="stroke:#181818;stroke-width:1.0;" x1="878.3018" x2="920.3018" y1="918.0078" y2="918.0078"/>
    <line style="stroke:#181818;stroke-width:1.0;" x1="920.3018" x2="920.3018" y1="918.0078" y2="931.0078"/>
    <line style="stroke:#181818;stroke-width:1.0;" x1="879.3018" x2="920.3018" y1="931.0078" y2="931.0078"/>
    <polygon fill="#181818" points="889.3018,927.0078,879.3018,931.0078,889.3018,935.0078,885.3018,931.0078" style="stroke:#181818;stroke-width:1.0;"/>
    <text fill="#000000" font-family="sans-serif" font-size="13" font-weight="bold" lengthAdjust="spacing" textLength="29.9736" x="885.3018" y="912.9419">[18]</text>
    <text fill="#000000" font-family="sans-serif" font-size="13" lengthAdjust="spacing" textLength="105.5742" x="919.2754" y="912.9419">Ajouter l&apos;en-tête</text>
    <path d="M680,905.375 L680,930.375 L872,930.375 L872,915.375 L862,905.375 L680,905.375 " fill="#FEFFDD" style="stroke:#181818;stroke-width:0.5;"/>
    <path d="M862,905.375 L862,915.375 L872,915.375 L862,905.375 " fill="#FEFFDD" style="stroke:#181818;stroke-width:0.5;"/>
    <text fill="#000000" font-family="sans-serif" font-size="13" lengthAdjust="spacing" textLength="171.5518" x="686" y="922.4419">fxpiop-proxy = &quot;Proxy AB&quot;</text>
    <line style="stroke:#181818;stroke-width:1.0;" x1="1029.8496" x2="1019.8496" y1="963.1406" y2="959.1406"/>
    <line style="stroke:#181818;stroke-width:1.0;" x1="1029.8496" x2="1019.8496" y1="963.1406" y2="967.1406"/>
    <line style="stroke:#181818;stroke-width:1.0;" x1="878.3018" x2="1030.8496" y1="963.1406" y2="963.1406"/>
    <text fill="#000000" font-family="sans-serif" font-size="13" font-weight="bold" lengthAdjust="spacing" textLength="29.9736" x="885.3018" y="958.0747">[19]</text>
    <text fill="#000000" font-family="sans-serif" font-size="13" lengthAdjust="spacing" textLength="57.8208" x="919.2754" y="958.0747">GET /xxx</text>
    <path d="M535,944.0078 L535,969.0078 L872,969.0078 L872,954.0078 L862,944.0078 L535,944.0078 " fill="#FEFFDD" style="stroke:#181818;stroke-width:0.5;"/>
    <path d="M862,944.0078 L862,954.0078 L872,954.0078 L862,944.0078 " fill="#FEFFDD" style="stroke:#181818;stroke-width:0.5;"/>
    <text fill="#000000" font-family="sans-serif" font-size="13" lengthAdjust="spacing" textLength="316.3481" x="541" y="961.0747">Message transmis à schéma B sans modification</text>
    <line style="stroke:#181818;stroke-width:1.0;" x1="879.3018" x2="889.3018" y1="995.2734" y2="991.2734"/>
    <line style="stroke:#181818;stroke-width:1.0;" x1="879.3018" x2="889.3018" y1="995.2734" y2="999.2734"/>
    <line style="stroke:#181818;stroke-width:1.0;stroke-dasharray:2.0,2.0;" x1="878.3018" x2="1030.8496" y1="995.2734" y2="995.2734"/>
    <text fill="#000000" font-family="sans-serif" font-size="13" font-weight="bold" lengthAdjust="spacing" textLength="29.9736" x="895.3018" y="990.2075">[20]</text>
    <text fill="#000000" font-family="sans-serif" font-size="13" lengthAdjust="spacing" textLength="47.7026" x="929.2754" y="990.2075">202 OK</text>
    <line style="stroke:#181818;stroke-width:1.0;" x1="375.9092" x2="385.9092" y1="1024.4063" y2="1020.4063"/>
    <line style="stroke:#181818;stroke-width:1.0;" x1="375.9092" x2="385.9092" y1="1024.4063" y2="1028.4063"/>
    <line style="stroke:#181818;stroke-width:1.0;stroke-dasharray:2.0,2.0;" x1="374.9092" x2="877.3018" y1="1024.4063" y2="1024.4063"/>
    <text fill="#000000" font-family="sans-serif" font-size="13" font-weight="bold" lengthAdjust="spacing" textLength="29.9736" x="391.9092" y="1019.3403">[21]</text>
    <text fill="#000000" font-family="sans-serif" font-size="13" lengthAdjust="spacing" textLength="47.7026" x="425.8828" y="1019.3403">202 OK</text>
    <line style="stroke:#181818;stroke-width:1.0;" x1="1415.1362" x2="1405.1362" y1="1053.5391" y2="1049.5391"/>
    <line style="stroke:#181818;stroke-width:1.0;" x1="1415.1362" x2="1405.1362" y1="1053.5391" y2="1057.5391"/>
    <line style="stroke:#181818;stroke-width:1.0;" x1="1031.8496" x2="1416.1362" y1="1053.5391" y2="1053.5391"/>
    <text fill="#000000" font-family="sans-serif" font-size="13" font-weight="bold" lengthAdjust="spacing" textLength="29.9736" x="1038.8496" y="1048.4731">[22]</text>
    <text fill="#000000" font-family="sans-serif" font-size="13" lengthAdjust="spacing" textLength="57.8208" x="1072.8232" y="1048.4731">GET /xxx</text>
    <line style="stroke:#181818;stroke-width:1.0;" x1="1032.8496" x2="1042.8496" y1="1082.6719" y2="1078.6719"/>
    <line style="stroke:#181818;stroke-width:1.0;" x1="1032.8496" x2="1042.8496" y1="1082.6719" y2="1086.6719"/>
    <line style="stroke:#181818;stroke-width:1.0;stroke-dasharray:2.0,2.0;" x1="1031.8496" x2="1416.1362" y1="1082.6719" y2="1082.6719"/>
    <text fill="#000000" font-family="sans-serif" font-size="13" font-weight="bold" lengthAdjust="spacing" textLength="29.9736" x="1048.8496" y="1077.606">[23]</text>
    <text fill="#000000" font-family="sans-serif" font-size="13" lengthAdjust="spacing" textLength="119.1328" x="1082.8232" y="1077.606">réponse HTTP 202</text>
    <rect fill="#EEEEEE" height="3" style="stroke:#EEEEEE;stroke-width:1.0;" width="1605.3213" x="0" y="1111.2383"/>
    <line style="stroke:#000000;stroke-width:1.0;" x1="0" x2="1605.3213" y1="1111.2383" y2="1111.2383"/>
    <line style="stroke:#000000;stroke-width:1.0;" x1="0" x2="1605.3213" y1="1114.2383" y2="1114.2383"/>
    <rect fill="#EEEEEE" height="23.1328" style="stroke:#000000;stroke-width:2.0;" width="96.1133" x="754.604" y="1100.6719"/>
    <text fill="#000000" font-family="sans-serif" font-size="13" font-weight="bold" lengthAdjust="spacing" textLength="77.5874" x="760.604" y="1116.7388">Phase PUT</text>
    <polygon fill="#181818" points="1042.8496,1161.5039,1032.8496,1165.5039,1042.8496,1169.5039,1038.8496,1165.5039" style="stroke:#181818;stroke-width:1.0;"/>
    <line style="stroke:#181818;stroke-width:1.0;" x1="1036.8496" x2="1416.1362" y1="1165.5039" y2="1165.5039"/>
    <text fill="#000000" font-family="sans-serif" font-size="13" font-weight="bold" lengthAdjust="spacing" textLength="29.9736" x="1048.8496" y="1160.438">[24]</text>
    <text fill="#000000" font-family="sans-serif" font-size="13" lengthAdjust="spacing" textLength="56.8877" x="1082.8232" y="1160.438">PUT /xxx</text>
    <path d="M1422,1138.8047 L1422,1178.8047 L1595,1178.8047 L1595,1148.8047 L1585,1138.8047 L1422,1138.8047 " fill="#FEFFDD" style="stroke:#181818;stroke-width:0.5;"/>
    <path d="M1585,1138.8047 L1585,1148.8047 L1595,1148.8047 L1585,1138.8047 " fill="#FEFFDD" style="stroke:#181818;stroke-width:0.5;"/>
    <text fill="#000000" font-family="sans-serif" font-size="13" lengthAdjust="spacing" textLength="125.4551" x="1428" y="1155.8716">source: payeeDFSP</text>
    <text fill="#000000" font-family="sans-serif" font-size="13" lengthAdjust="spacing" textLength="152.1851" x="1428" y="1171.0044">destination: payerDFSP</text>
    <line style="stroke:#181818;stroke-width:1.0;" x1="1415.1362" x2="1405.1362" y1="1205.2031" y2="1201.2031"/>
    <line style="stroke:#181818;stroke-width:1.0;" x1="1415.1362" x2="1405.1362" y1="1205.2031" y2="1209.2031"/>
    <line style="stroke:#181818;stroke-width:1.0;stroke-dasharray:2.0,2.0;" x1="1031.8496" x2="1416.1362" y1="1205.2031" y2="1205.2031"/>
    <text fill="#000000" font-family="sans-serif" font-size="13" font-weight="bold" lengthAdjust="spacing" textLength="29.9736" x="1038.8496" y="1200.1372">[25]</text>
    <text fill="#000000" font-family="sans-serif" font-size="13" lengthAdjust="spacing" textLength="119.1328" x="1072.8232" y="1200.1372">réponse HTTP 200</text>
    <polygon fill="#181818" points="1275.832,1260.6016,1285.832,1264.6016,1275.832,1268.6016,1279.832,1264.6016" style="stroke:#181818;stroke-width:1.0;"/>
    <line style="stroke:#181818;stroke-width:1.0;" x1="1031.8496" x2="1281.832" y1="1264.6016" y2="1264.6016"/>
    <text fill="#000000" font-family="sans-serif" font-size="13" font-weight="bold" lengthAdjust="spacing" textLength="29.9736" x="1038.8496" y="1244.4028">[26]</text>
    <text fill="#000000" font-family="sans-serif" font-size="13" lengthAdjust="spacing" textLength="170.4727" x="1072.8232" y="1229.27">Destination hors schéma :</text>
    <text fill="#000000" font-family="sans-serif" font-size="13" lengthAdjust="spacing" textLength="193.8765" x="1076.9556" y="1244.4028">payerDFSP a un proxy mappé</text>
    <text fill="#000000" font-family="sans-serif" font-size="13" lengthAdjust="spacing" textLength="171.6343" x="1076.9556" y="1259.5356">envoyer vers « Proxy AB »</text>
    <polygon fill="#181818" points="889.3018,1289.7344,879.3018,1293.7344,889.3018,1297.7344,885.3018,1293.7344" style="stroke:#181818;stroke-width:1.0;"/>
    <line style="stroke:#181818;stroke-width:1.0;" x1="883.3018" x2="1030.8496" y1="1293.7344" y2="1293.7344"/>
    <text fill="#000000" font-family="sans-serif" font-size="13" font-weight="bold" lengthAdjust="spacing" textLength="29.9736" x="895.3018" y="1288.6685">[27]</text>
    <text fill="#000000" font-family="sans-serif" font-size="13" lengthAdjust="spacing" textLength="56.8877" x="929.2754" y="1288.6685">PUT /xxx</text>
    <line style="stroke:#181818;stroke-width:1.0;" x1="878.3018" x2="920.3018" y1="1322.8672" y2="1322.8672"/>
    <line style="stroke:#181818;stroke-width:1.0;" x1="920.3018" x2="920.3018" y1="1322.8672" y2="1335.8672"/>
    <line style="stroke:#181818;stroke-width:1.0;" x1="879.3018" x2="920.3018" y1="1335.8672" y2="1335.8672"/>
    <polygon fill="#181818" points="889.3018,1331.8672,879.3018,1335.8672,889.3018,1339.8672,885.3018,1335.8672" style="stroke:#181818;stroke-width:1.0;"/>
    <text fill="#000000" font-family="sans-serif" font-size="13" font-weight="bold" lengthAdjust="spacing" textLength="29.9736" x="885.3018" y="1317.8013">[28]</text>
    <text fill="#000000" font-family="sans-serif" font-size="13" lengthAdjust="spacing" textLength="105.5742" x="919.2754" y="1317.8013">Ajouter l&apos;en-tête</text>
    <path d="M680,1310.2344 L680,1335.2344 L872,1335.2344 L872,1320.2344 L862,1310.2344 L680,1310.2344 " fill="#FEFFDD" style="stroke:#181818;stroke-width:0.5;"/>
    <path d="M862,1310.2344 L862,1320.2344 L872,1320.2344 L862,1310.2344 " fill="#FEFFDD" style="stroke:#181818;stroke-width:0.5;"/>
    <text fill="#000000" font-family="sans-serif" font-size="13" lengthAdjust="spacing" textLength="171.5518" x="686" y="1327.3013">fxpiop-proxy = &quot;Proxy AB&quot;</text>
    <polygon fill="#181818" points="385.9092,1364,375.9092,1368,385.9092,1372,381.9092,1368" style="stroke:#181818;stroke-width:1.0;"/>
    <line style="stroke:#181818;stroke-width:1.0;" x1="379.9092" x2="877.3018" y1="1368" y2="1368"/>
    <text fill="#000000" font-family="sans-serif" font-size="13" font-weight="bold" lengthAdjust="spacing" textLength="29.9736" x="391.9092" y="1362.9341">[29]</text>
    <text fill="#000000" font-family="sans-serif" font-size="13" lengthAdjust="spacing" textLength="56.8877" x="425.8828" y="1362.9341">PUT /xxx</text>
    <path d="M883,1348.8672 L883,1373.8672 L1220,1373.8672 L1220,1358.8672 L1210,1348.8672 L883,1348.8672 " fill="#FEFFDD" style="stroke:#181818;stroke-width:0.5;"/>
    <path d="M1210,1348.8672 L1210,1358.8672 L1220,1358.8672 L1210,1348.8672 " fill="#FEFFDD" style="stroke:#181818;stroke-width:0.5;"/>
    <text fill="#000000" font-family="sans-serif" font-size="13" lengthAdjust="spacing" textLength="316.3228" x="889" y="1365.9341">Message transmis à schéma A sans modification</text>
    <line style="stroke:#181818;stroke-width:1.0;" x1="876.3018" x2="866.3018" y1="1400.1328" y2="1396.1328"/>
    <line style="stroke:#181818;stroke-width:1.0;" x1="876.3018" x2="866.3018" y1="1400.1328" y2="1404.1328"/>
    <line style="stroke:#181818;stroke-width:1.0;stroke-dasharray:2.0,2.0;" x1="374.9092" x2="877.3018" y1="1400.1328" y2="1400.1328"/>
    <text fill="#000000" font-family="sans-serif" font-size="13" font-weight="bold" lengthAdjust="spacing" textLength="29.9736" x="381.9092" y="1395.0669">[30]</text>
    <text fill="#000000" font-family="sans-serif" font-size="13" lengthAdjust="spacing" textLength="47.7026" x="415.8828" y="1395.0669">200 OK</text>
    <line style="stroke:#181818;stroke-width:1.0;" x1="1029.8496" x2="1019.8496" y1="1429.2656" y2="1425.2656"/>
    <line style="stroke:#181818;stroke-width:1.0;" x1="1029.8496" x2="1019.8496" y1="1429.2656" y2="1433.2656"/>
    <line style="stroke:#181818;stroke-width:1.0;stroke-dasharray:2.0,2.0;" x1="878.3018" x2="1030.8496" y1="1429.2656" y2="1429.2656"/>
    <text fill="#000000" font-family="sans-serif" font-size="13" font-weight="bold" lengthAdjust="spacing" textLength="29.9736" x="885.3018" y="1424.1997">[31]</text>
    <text fill="#000000" font-family="sans-serif" font-size="13" lengthAdjust="spacing" textLength="47.7026" x="919.2754" y="1424.1997">200 OK</text>
    <polygon fill="#181818" points="208.8027,1454.3984,198.8027,1458.3984,208.8027,1462.3984,204.8027,1458.3984" style="stroke:#181818;stroke-width:1.0;"/>
    <line style="stroke:#181818;stroke-width:1.0;" x1="202.8027" x2="373.9092" y1="1458.3984" y2="1458.3984"/>
    <text fill="#000000" font-family="sans-serif" font-size="13" font-weight="bold" lengthAdjust="spacing" textLength="29.9736" x="214.8027" y="1453.3325">[32]</text>
    <text fill="#000000" font-family="sans-serif" font-size="13" lengthAdjust="spacing" textLength="56.8877" x="248.7764" y="1453.3325">PUT /xxx</text>
    <line style="stroke:#181818;stroke-width:1.0;" x1="372.9092" x2="362.9092" y1="1487.5313" y2="1483.5313"/>
    <line style="stroke:#181818;stroke-width:1.0;" x1="372.9092" x2="362.9092" y1="1487.5313" y2="1491.5313"/>
    <line style="stroke:#181818;stroke-width:1.0;stroke-dasharray:2.0,2.0;" x1="197.8027" x2="373.9092" y1="1487.5313" y2="1487.5313"/>
    <text fill="#000000" font-family="sans-serif" font-size="13" font-weight="bold" lengthAdjust="spacing" textLength="29.9736" x="204.8027" y="1482.4653">[33]</text>
    <text fill="#000000" font-family="sans-serif" font-size="13" lengthAdjust="spacing" textLength="119.1328" x="238.7764" y="1482.4653">réponse HTTP 200</text>
  </g>
</svg>
