<svg xmlns="http://www.w3.org/2000/svg" xmlns:xlink="http://www.w3.org/1999/xlink" contentStyleType="text/css" height="709px" preserveAspectRatio="none" style="width:1487px;height:709px;background:#FFFFFF;" version="1.1" viewBox="0 0 1487 709" width="1487px" zoomAndPan="magnify">
  <title>Inter-schéma — GET /transfers</title>
  <defs/>
  <g>
    <text fill="#000000" font-family="sans-serif" font-size="14" font-weight="bold" lengthAdjust="spacing" textLength="240.7139" x="624.8157" y="27.9951">Inter-schéma — GET /transfers</text>
    <rect fill="#ADD8E6" height="660.2422" style="stroke:#181818;stroke-width:0.5;" width="382.062" x="330.8911" y="43.2969"/>
    <text fill="#000000" font-family="sans-serif" font-size="13" font-weight="bold" lengthAdjust="spacing" textLength="72.0459" x="483.6362" y="55.3638">Schéma A</text>
    <rect fill="#D1E0C3" height="660.2422" style="stroke:#181818;stroke-width:0.5;" width="425.5508" x="801.9189" y="43.2969"/>
    <text fill="#000000" font-family="sans-serif" font-size="13" font-weight="bold" lengthAdjust="spacing" textLength="71.8936" x="976.4846" y="55.3638">Schéma B</text>
    <line style="stroke:#181818;stroke-width:0.5;stroke-dasharray:5.0,5.0;" x1="197" x2="197" y1="110.0234" y2="652.9453"/>
    <line style="stroke:#181818;stroke-width:0.5;stroke-dasharray:5.0,5.0;" x1="376.8911" x2="376.8911" y1="110.0234" y2="652.9453"/>
    <line style="stroke:#181818;stroke-width:0.5;stroke-dasharray:5.0,5.0;" x1="657.1865" x2="657.1865" y1="110.0234" y2="652.9453"/>
    <line style="stroke:#181818;stroke-width:0.5;stroke-dasharray:5.0,5.0;" x1="756.9531" x2="756.9531" y1="110.0234" y2="652.9453"/>
    <line style="stroke:#181818;stroke-width:0.5;stroke-dasharray:5.0,5.0;" x1="847.9189" x2="847.9189" y1="110.0234" y2="652.9453"/>
    <line style="stroke:#181818;stroke-width:0.5;stroke-dasharray:5.0,5.0;" x1="1171.7031" x2="1171.7031" y1="110.0234" y2="652.9453"/>
    <line style="stroke:#181818;stroke-width:0.5;stroke-dasharray:5.0,5.0;" x1="1301.4697" x2="1301.4697" y1="110.0234" y2="652.9453"/>
    <rect fill="#E2E2F0" height="30.2969" rx="2.5" ry="2.5" style="stroke:#181818;stroke-width:0.5;" width="103.6055" x="146" y="78.7266"/>
    <text fill="#000000" font-family="sans-serif" font-size="14" lengthAdjust="spacing" textLength="89.6055" x="153" y="98.7217">DFSP payeur</text>
    <rect fill="#E2E2F0" height="30.2969" rx="2.5" ry="2.5" style="stroke:#181818;stroke-width:0.5;" width="103.6055" x="146" y="651.9453"/>
    <text fill="#000000" font-family="sans-serif" font-size="14" lengthAdjust="spacing" textLength="89.6055" x="153" y="671.9404">DFSP payeur</text>
    <rect fill="#E2E2F0" height="46.5938" rx="2.5" ry="2.5" style="stroke:#181818;stroke-width:0.5;" width="84.3145" x="334.8911" y="62.4297"/>
    <text fill="#000000" font-family="sans-serif" font-size="14" lengthAdjust="spacing" textLength="63.0205" x="345.5381" y="82.4248">Mojaloop</text>
    <text fill="#000000" font-family="sans-serif" font-size="14" lengthAdjust="spacing" textLength="70.3145" x="341.8911" y="98.7217">Schéma A</text>
    <rect fill="#E2E2F0" height="46.5938" rx="2.5" ry="2.5" style="stroke:#181818;stroke-width:0.5;" width="84.3145" x="334.8911" y="651.9453"/>
    <text fill="#000000" font-family="sans-serif" font-size="14" lengthAdjust="spacing" textLength="63.0205" x="345.5381" y="671.9404">Mojaloop</text>
    <text fill="#000000" font-family="sans-serif" font-size="14" lengthAdjust="spacing" textLength="70.3145" x="341.8911" y="688.2373">Schéma A</text>
    <rect fill="#E2E2F0" height="46.5938" rx="2.5" ry="2.5" style="stroke:#181818;stroke-width:0.5;" width="101.7666" x="607.1865" y="62.4297"/>
    <text fill="#000000" font-family="sans-serif" font-size="14" lengthAdjust="spacing" textLength="87.7666" x="614.1865" y="82.4248">Cache proxy</text>
    <text fill="#000000" font-family="sans-serif" font-size="14" lengthAdjust="spacing" textLength="70.3145" x="622.9126" y="98.7217">Schéma A</text>
    <rect fill="#E2E2F0" height="46.5938" rx="2.5" ry="2.5" style="stroke:#181818;stroke-width:0.5;" width="101.7666" x="607.1865" y="651.9453"/>
    <text fill="#000000" font-family="sans-serif" font-size="14" lengthAdjust="spacing" textLength="87.7666" x="614.1865" y="671.9404">Cache proxy</text>
    <text fill="#000000" font-family="sans-serif" font-size="14" lengthAdjust="spacing" textLength="70.3145" x="622.9126" y="688.2373">Schéma A</text>
    <rect fill="#E2E2F0" height="30.2969" rx="2.5" ry="2.5" style="stroke:#181818;stroke-width:0.5;" width="76.9658" x="718.9531" y="78.7266"/>
    <text fill="#000000" font-family="sans-serif" font-size="14" lengthAdjust="spacing" textLength="62.9658" x="725.9531" y="98.7217">Proxy AB</text>
    <rect fill="#E2E2F0" height="30.2969" rx="2.5" ry="2.5" style="stroke:#181818;stroke-width:0.5;" width="76.9658" x="718.9531" y="651.9453"/>
    <text fill="#000000" font-family="sans-serif" font-size="14" lengthAdjust="spacing" textLength="62.9658" x="725.9531" y="671.9404">Proxy AB</text>
    <rect fill="#E2E2F0" height="46.5938" rx="2.5" ry="2.5" style="stroke:#181818;stroke-width:0.5;" width="84.3418" x="805.9189" y="62.4297"/>
    <text fill="#000000" font-family="sans-serif" font-size="14" lengthAdjust="spacing" textLength="63.0205" x="816.5796" y="82.4248">Mojaloop</text>
    <text fill="#000000" font-family="sans-serif" font-size="14" lengthAdjust="spacing" textLength="70.3418" x="812.9189" y="98.7217">Schéma B</text>
    <rect fill="#E2E2F0" height="46.5938" rx="2.5" ry="2.5" style="stroke:#181818;stroke-width:0.5;" width="84.3418" x="805.9189" y="651.9453"/>
    <text fill="#000000" font-family="sans-serif" font-size="14" lengthAdjust="spacing" textLength="63.0205" x="816.5796" y="671.9404">Mojaloop</text>
    <text fill="#000000" font-family="sans-serif" font-size="14" lengthAdjust="spacing" textLength="70.3418" x="812.9189" y="688.2373">Schéma B</text>
    <rect fill="#E2E2F0" height="46.5938" rx="2.5" ry="2.5" style="stroke:#181818;stroke-width:0.5;" width="101.7666" x="1121.7031" y="62.4297"/>
    <text fill="#000000" font-family="sans-serif" font-size="14" lengthAdjust="spacing" textLength="87.7666" x="1128.7031" y="82.4248">Cache proxy</text>
    <text fill="#000000" font-family="sans-serif" font-size="14" lengthAdjust="spacing" textLength="70.3418" x="1137.4155" y="98.7217">Schéma B</text>
    <rect fill="#E2E2F0" height="46.5938" rx="2.5" ry="2.5" style="stroke:#181818;stroke-width:0.5;" width="101.7666" x="1121.7031" y="651.9453"/>
    <text fill="#000000" font-family="sans-serif" font-size="14" lengthAdjust="spacing" textLength="87.7666" x="1128.7031" y="671.9404">Cache proxy</text>
    <text fill="#000000" font-family="sans-serif" font-size="14" lengthAdjust="spacing" textLength="70.3418" x="1137.4155" y="688.2373">Schéma B</text>
    <rect fill="#E2E2F0" height="30.2969" rx="2.5" ry="2.5" style="stroke:#181818;stroke-width:0.5;" width="136.8418" x="1233.4697" y="78.7266"/>
    <text fill="#000000" font-family="sans-serif" font-size="14" lengthAdjust="spacing" textLength="122.8418" x="1240.4697" y="98.7217">DFSP bénéficiaire</text>
    <rect fill="#E2E2F0" height="30.2969" rx="2.5" ry="2.5" style="stroke:#181818;stroke-width:0.5;" width="136.8418" x="1233.4697" y="651.9453"/>
    <text fill="#000000" font-family="sans-serif" font-size="14" lengthAdjust="spacing" textLength="122.8418" x="1240.4697" y="671.9404">DFSP bénéficiaire</text>
    <line style="stroke:#181818;stroke-width:1.0;" x1="375.0483" x2="365.0483" y1="166.8555" y2="162.8555"/>
    <line style="stroke:#181818;stroke-width:1.0;" x1="375.0483" x2="365.0483" y1="166.8555" y2="170.8555"/>
    <line style="stroke:#181818;stroke-width:1.0;" x1="197.8027" x2="376.0483" y1="166.8555" y2="166.8555"/>
    <text fill="#000000" font-family="sans-serif" font-size="13" font-weight="bold" lengthAdjust="spacing" textLength="20.9282" x="204.8027" y="161.7896">[1]</text>
    <text fill="#000000" font-family="sans-serif" font-size="13" lengthAdjust="spacing" textLength="130.3174" x="229.731" y="161.7896">GET /transfers/1234</text>
    <path d="M5,125.0234 L5,195.0234 L193,195.0234 L193,135.0234 L183,125.0234 L5,125.0234 " fill="#FEFFDD" style="stroke:#181818;stroke-width:0.5;"/>
    <path d="M183,125.0234 L183,135.0234 L193,135.0234 L183,125.0234 " fill="#FEFFDD" style="stroke:#181818;stroke-width:0.5;"/>
    <text fill="#000000" font-family="sans-serif" font-size="13" lengthAdjust="spacing" textLength="47.1187" x="11" y="142.0903">en-tête</text>
    <text fill="#000000" font-family="sans-serif" font-size="13" lengthAdjust="spacing" textLength="126.9341" x="19.2646" y="157.2231">source : payerDFSP</text>
    <text fill="#000000" font-family="sans-serif" font-size="13" lengthAdjust="spacing" textLength="158.9707" x="19.2646" y="172.356">destination : payeeDFSP</text>
    <text fill="#000000" font-family="sans-serif" font-size="13" lengthAdjust="spacing" textLength="164.6074" x="11" y="187.4888">JWS signé par payerDFSP</text>
    <line style="stroke:#181818;stroke-width:1.0;" x1="198.8027" x2="208.8027" y1="221.6875" y2="217.6875"/>
    <line style="stroke:#181818;stroke-width:1.0;" x1="198.8027" x2="208.8027" y1="221.6875" y2="225.6875"/>
    <line style="stroke:#181818;stroke-width:1.0;stroke-dasharray:2.0,2.0;" x1="197.8027" x2="376.0483" y1="221.6875" y2="221.6875"/>
    <text fill="#000000" font-family="sans-serif" font-size="13" font-weight="bold" lengthAdjust="spacing" textLength="20.9282" x="214.8027" y="216.6216">[2]</text>
    <text fill="#000000" font-family="sans-serif" font-size="13" lengthAdjust="spacing" textLength="47.7026" x="239.731" y="216.6216">202 OK</text>
    <line style="stroke:#181818;stroke-width:1.0;" x1="377.0483" x2="419.0483" y1="250.8203" y2="250.8203"/>
    <line style="stroke:#181818;stroke-width:1.0;" x1="419.0483" x2="419.0483" y1="250.8203" y2="263.8203"/>
    <line style="stroke:#181818;stroke-width:1.0;" x1="378.0483" x2="419.0483" y1="263.8203" y2="263.8203"/>
    <polygon fill="#181818" points="388.0483,259.8203,378.0483,263.8203,388.0483,267.8203,384.0483,263.8203" style="stroke:#181818;stroke-width:1.0;"/>
    <text fill="#000000" font-family="sans-serif" font-size="13" font-weight="bold" lengthAdjust="spacing" textLength="20.9282" x="384.0483" y="245.7544">[3]</text>
    <text fill="#000000" font-family="sans-serif" font-size="13" lengthAdjust="spacing" textLength="242.0933" x="408.9766" y="245.7544">Charger les informations du transfert</text>
    <line style="stroke:#181818;stroke-width:1.0;" x1="198.8027" x2="208.8027" y1="318.6523" y2="314.6523"/>
    <line style="stroke:#181818;stroke-width:1.0;" x1="198.8027" x2="208.8027" y1="318.6523" y2="322.6523"/>
    <line style="stroke:#181818;stroke-width:1.0;" x1="197.8027" x2="376.0483" y1="318.6523" y2="318.6523"/>
    <text fill="#000000" font-family="sans-serif" font-size="13" font-weight="bold" lengthAdjust="spacing" textLength="20.9282" x="214.8027" y="313.5864">[4]</text>
    <text fill="#000000" font-family="sans-serif" font-size="13" lengthAdjust="spacing" textLength="129.3843" x="239.731" y="313.5864">PUT /transfers/1234</text>
    <path d="M382,276.8203 L382,346.8203 L567,346.8203 L567,286.8203 L557,276.8203 L382,276.8203 " fill="#FEFFDD" style="stroke:#181818;stroke-width:0.5;"/>
    <path d="M557,276.8203 L557,286.8203 L567,286.8203 L557,276.8203 " fill="#FEFFDD" style="stroke:#181818;stroke-width:0.5;"/>
    <text fill="#000000" font-family="sans-serif" font-size="13" lengthAdjust="spacing" textLength="47.1187" x="388" y="293.8872">en-tête</text>
    <text fill="#000000" font-family="sans-serif" font-size="13" lengthAdjust="spacing" textLength="115.8384" x="396.2646" y="309.02">source : schemeB</text>
    <text fill="#000000" font-family="sans-serif" font-size="13" lengthAdjust="spacing" textLength="156.3174" x="396.2646" y="324.1528">destination : payerDFSP</text>
    <text fill="#000000" font-family="sans-serif" font-size="13" lengthAdjust="spacing" textLength="153.48" x="388" y="339.2856">JWS signé par schémaB</text>
    <line style="stroke:#181818;stroke-width:1.0;" x1="375.0483" x2="365.0483" y1="373.4844" y2="369.4844"/>
    <line style="stroke:#181818;stroke-width:1.0;" x1="375.0483" x2="365.0483" y1="373.4844" y2="377.4844"/>
    <line style="stroke:#181818;stroke-width:1.0;stroke-dasharray:2.0,2.0;" x1="197.8027" x2="376.0483" y1="373.4844" y2="373.4844"/>
    <text fill="#000000" font-family="sans-serif" font-size="13" font-weight="bold" lengthAdjust="spacing" textLength="20.9282" x="204.8027" y="368.4185">[5]</text>
    <text fill="#000000" font-family="sans-serif" font-size="13" lengthAdjust="spacing" textLength="47.7026" x="229.731" y="368.4185">200 OK</text>
    <line style="stroke:#181818;stroke-width:1.0;" x1="849.0898" x2="859.0898" y1="420.75" y2="416.75"/>
    <line style="stroke:#181818;stroke-width:1.0;" x1="849.0898" x2="859.0898" y1="420.75" y2="424.75"/>
    <line style="stroke:#181818;stroke-width:1.0;" x1="848.0898" x2="1300.8906" y1="420.75" y2="420.75"/>
    <text fill="#000000" font-family="sans-serif" font-size="13" font-weight="bold" lengthAdjust="spacing" textLength="20.9282" x="865.0898" y="415.6841">[6]</text>
    <text fill="#000000" font-family="sans-serif" font-size="13" lengthAdjust="spacing" textLength="130.3174" x="890.0181" y="415.6841">GET /transfers/1234</text>
    <path d="M1306,386.4844 L1306,441.4844 L1480,441.4844 L1480,396.4844 L1470,386.4844 L1306,386.4844 " fill="#FEFFDD" style="stroke:#181818;stroke-width:0.5;"/>
    <path d="M1470,386.4844 L1470,396.4844 L1480,396.4844 L1470,386.4844 " fill="#FEFFDD" style="stroke:#181818;stroke-width:0.5;"/>
    <text fill="#000000" font-family="sans-serif" font-size="13" lengthAdjust="spacing" textLength="47.1187" x="1312" y="403.5513">en-tête</text>
    <text fill="#000000" font-family="sans-serif" font-size="13" lengthAdjust="spacing" textLength="119.9453" x="1320.2646" y="418.6841">source : scheme A</text>
    <text fill="#000000" font-family="sans-serif" font-size="13" lengthAdjust="spacing" textLength="153.4546" x="1312" y="433.8169">JWS signé par schémaA</text>
    <line style="stroke:#181818;stroke-width:1.0;" x1="1299.8906" x2="1289.8906" y1="468.0156" y2="464.0156"/>
    <line style="stroke:#181818;stroke-width:1.0;" x1="1299.8906" x2="1289.8906" y1="468.0156" y2="472.0156"/>
    <line style="stroke:#181818;stroke-width:1.0;stroke-dasharray:2.0,2.0;" x1="848.0898" x2="1300.8906" y1="468.0156" y2="468.0156"/>
    <text fill="#000000" font-family="sans-serif" font-size="13" font-weight="bold" lengthAdjust="spacing" textLength="20.9282" x="855.0898" y="462.9497">[7]</text>
    <text fill="#000000" font-family="sans-serif" font-size="13" lengthAdjust="spacing" textLength="47.7026" x="880.0181" y="462.9497">202 OK</text>
    <line style="stroke:#181818;stroke-width:1.0;" x1="848.0898" x2="890.0898" y1="512.2813" y2="512.2813"/>
    <line style="stroke:#181818;stroke-width:1.0;" x1="890.0898" x2="890.0898" y1="512.2813" y2="525.2813"/>
    <line style="stroke:#181818;stroke-width:1.0;" x1="849.0898" x2="890.0898" y1="525.2813" y2="525.2813"/>
    <polygon fill="#181818" points="859.0898,521.2813,849.0898,525.2813,859.0898,529.2813,855.0898,525.2813" style="stroke:#181818;stroke-width:1.0;"/>
    <text fill="#000000" font-family="sans-serif" font-size="13" font-weight="bold" lengthAdjust="spacing" textLength="20.9282" x="855.0898" y="499.6489">[8]</text>
    <text fill="#000000" font-family="sans-serif" font-size="13" lengthAdjust="spacing" textLength="242.0933" x="880.0181" y="492.0825">Charger les informations du transfert</text>
    <text fill="#000000" font-family="sans-serif" font-size="13" lengthAdjust="spacing" textLength="285.5684" x="880.0181" y="507.2153">et vérifier si payeeDFSP est dans le schéma</text>
    <line style="stroke:#181818;stroke-width:1.0;" x1="1299.8906" x2="1289.8906" y1="587.6797" y2="583.6797"/>
    <line style="stroke:#181818;stroke-width:1.0;" x1="1299.8906" x2="1289.8906" y1="587.6797" y2="591.6797"/>
    <line style="stroke:#181818;stroke-width:1.0;" x1="848.0898" x2="1300.8906" y1="587.6797" y2="587.6797"/>
    <text fill="#000000" font-family="sans-serif" font-size="13" font-weight="bold" lengthAdjust="spacing" textLength="20.9282" x="855.0898" y="575.0474">[9]</text>
    <text fill="#000000" font-family="sans-serif" font-size="13" lengthAdjust="spacing" textLength="188.8872" x="880.0181" y="567.481">Oui ; renvoi des informations</text>
    <text fill="#000000" font-family="sans-serif" font-size="13" lengthAdjust="spacing" textLength="129.3843" x="880.0181" y="582.6138">PUT /transfers/1234</text>
    <path d="M654,538.2813 L654,608.2813 L842,608.2813 L842,548.2813 L832,538.2813 L654,538.2813 " fill="#FEFFDD" style="stroke:#181818;stroke-width:0.5;"/>
    <path d="M832,538.2813 L832,548.2813 L842,548.2813 L832,538.2813 " fill="#FEFFDD" style="stroke:#181818;stroke-width:0.5;"/>
    <text fill="#000000" font-family="sans-serif" font-size="13" lengthAdjust="spacing" textLength="47.1187" x="660" y="555.3481">en-tête</text>
    <text fill="#000000" font-family="sans-serif" font-size="13" lengthAdjust="spacing" textLength="115.8384" x="668.2646" y="570.481">source : schemeB</text>
    <text fill="#000000" font-family="sans-serif" font-size="13" lengthAdjust="spacing" textLength="158.9707" x="668.2646" y="585.6138">destination : payeeDFSP</text>
    <text fill="#000000" font-family="sans-serif" font-size="13" lengthAdjust="spacing" textLength="153.48" x="660" y="600.7466">JWS signé par schémaB</text>
    <line style="stroke:#181818;stroke-width:1.0;" x1="1299.8906" x2="1289.8906" y1="634.9453" y2="630.9453"/>
    <line style="stroke:#181818;stroke-width:1.0;" x1="1299.8906" x2="1289.8906" y1="634.9453" y2="638.9453"/>
    <line style="stroke:#181818;stroke-width:1.0;stroke-dasharray:2.0,2.0;" x1="848.0898" x2="1300.8906" y1="634.9453" y2="634.9453"/>
    <text fill="#000000" font-family="sans-serif" font-size="13" font-weight="bold" lengthAdjust="spacing" textLength="29.9736" x="855.0898" y="629.8794">[10]</text>
    <text fill="#000000" font-family="sans-serif" font-size="13" lengthAdjust="spacing" textLength="47.7026" x="889.0635" y="629.8794">200 OK</text>
  </g>
</svg>
