<svg xmlns="http://www.w3.org/2000/svg" xmlns:xlink="http://www.w3.org/1999/xlink" contentStyleType="text/css" height="1351px" preserveAspectRatio="none" style="width:1791px;height:1351px;background:#FFFFFF;" version="1.1" viewBox="0 0 1791 1351" width="1791px" zoomAndPan="magnify">
  <title>Inter-schéma — transfert</title>
  <defs/>
  <g>
    <text fill="#000000" font-family="sans-serif" font-size="14" font-weight="bold" lengthAdjust="spacing" textLength="198.4814" x="797.7766" y="27.9951">Inter-schéma — transfert</text>
    <rect fill="#ADD8E6" height="1301.8281" style="stroke:#181818;stroke-width:0.5;" width="469.9731" x="363.5396" y="43.2969"/>
    <text fill="#000000" font-family="sans-serif" font-size="13" font-weight="bold" lengthAdjust="spacing" textLength="72.0459" x="560.2402" y="55.3638">Schéma A</text>
    <rect fill="#D1E0C3" height="1301.8281" style="stroke:#181818;stroke-width:0.5;" width="476.3789" x="981.7188" y="43.2969"/>
    <text fill="#000000" font-family="sans-serif" font-size="13" font-weight="bold" lengthAdjust="spacing" textLength="71.8936" x="1181.6985" y="55.3638">Schéma B</text>
    <line style="stroke:#181818;stroke-width:0.5;stroke-dasharray:5.0,5.0;" x1="259" x2="259" y1="110.0234" y2="1294.5313"/>
    <line style="stroke:#181818;stroke-width:0.5;stroke-dasharray:5.0,5.0;" x1="409.5396" x2="409.5396" y1="110.0234" y2="1294.5313"/>
    <line style="stroke:#181818;stroke-width:0.5;stroke-dasharray:5.0,5.0;" x1="777.7461" x2="777.7461" y1="110.0234" y2="1294.5313"/>
    <line style="stroke:#181818;stroke-width:0.5;stroke-dasharray:5.0,5.0;" x1="877.5127" x2="877.5127" y1="110.0234" y2="1294.5313"/>
    <line style="stroke:#181818;stroke-width:0.5;stroke-dasharray:5.0,5.0;" x1="1027.7188" x2="1027.7188" y1="110.0234" y2="1294.5313"/>
    <line style="stroke:#181818;stroke-width:0.5;stroke-dasharray:5.0,5.0;" x1="1402.3311" x2="1402.3311" y1="110.0234" y2="1294.5313"/>
    <line style="stroke:#181818;stroke-width:0.5;stroke-dasharray:5.0,5.0;" x1="1532.0977" x2="1532.0977" y1="110.0234" y2="1294.5313"/>
    <rect fill="#E2E2F0" height="30.2969" rx="2.5" ry="2.5" style="stroke:#181818;stroke-width:0.5;" width="103.6055" x="208" y="78.7266"/>
    <text fill="#000000" font-family="sans-serif" font-size="14" lengthAdjust="spacing" textLength="89.6055" x="215" y="98.7217">DFSP payeur</text>
    <rect fill="#E2E2F0" height="30.2969" rx="2.5" ry="2.5" style="stroke:#181818;stroke-width:0.5;" width="103.6055" x="208" y="1293.5313"/>
    <text fill="#000000" font-family="sans-serif" font-size="14" lengthAdjust="spacing" textLength="89.6055" x="215" y="1313.5264">DFSP payeur</text>
    <rect fill="#E2E2F0" height="46.5938" rx="2.5" ry="2.5" style="stroke:#181818;stroke-width:0.5;" width="84.3145" x="367.5396" y="62.4297"/>
    <text fill="#000000" font-family="sans-serif" font-size="14" lengthAdjust="spacing" textLength="63.0205" x="378.1865" y="82.4248">Mojaloop</text>
    <text fill="#000000" font-family="sans-serif" font-size="14" lengthAdjust="spacing" textLength="70.3145" x="374.5396" y="98.7217">Schéma A</text>
    <rect fill="#E2E2F0" height="46.5938" rx="2.5" ry="2.5" style="stroke:#181818;stroke-width:0.5;" width="84.3145" x="367.5396" y="1293.5313"/>
    <text fill="#000000" font-family="sans-serif" font-size="14" lengthAdjust="spacing" textLength="63.0205" x="378.1865" y="1313.5264">Mojaloop</text>
    <text fill="#000000" font-family="sans-serif" font-size="14" lengthAdjust="spacing" textLength="70.3145" x="374.5396" y="1329.8232">Schéma A</text>
    <rect fill="#E2E2F0" height="46.5938" rx="2.5" ry="2.5" style="stroke:#181818;stroke-width:0.5;" width="101.7666" x="727.7461" y="62.4297"/>
    <text fill="#000000" font-family="sans-serif" font-size="14" lengthAdjust="spacing" textLength="87.7666" x="734.7461" y="82.4248">Cache proxy</text>
    <text fill="#000000" font-family="sans-serif" font-size="14" lengthAdjust="spacing" textLength="70.3145" x="743.4722" y="98.7217">Schéma A</text>
    <rect fill="#E2E2F0" height="46.5938" rx="2.5" ry="2.5" style="stroke:#181818;stroke-width:0.5;" width="101.7666" x="727.7461" y="1293.5313"/>
    <text fill="#000000" font-family="sans-serif" font-size="14" lengthAdjust="spacing" textLength="87.7666" x="734.7461" y="1313.5264">Cache proxy</text>
    <text fill="#000000" font-family="sans-serif" font-size="14" lengthAdjust="spacing" textLength="70.3145" x="743.4722" y="1329.8232">Schéma A</text>
    <rect fill="#E2E2F0" height="30.2969" rx="2.5" ry="2.5" style="stroke:#181818;stroke-width:0.5;" width="76.9658" x="839.5127" y="78.7266"/>
    <text fill="#000000" font-family="sans-serif" font-size="14" lengthAdjust="spacing" textLength="62.9658" x="846.5127" y="98.7217">Proxy AB</text>
    <rect fill="#E2E2F0" height="30.2969" rx="2.5" ry="2.5" style="stroke:#181818;stroke-width:0.5;" width="76.9658" x="839.5127" y="1293.5313"/>
    <text fill="#000000" font-family="sans-serif" font-size="14" lengthAdjust="spacing" textLength="62.9658" x="846.5127" y="1313.5264">Proxy AB</text>
    <rect fill="#E2E2F0" height="46.5938" rx="2.5" ry="2.5" style="stroke:#181818;stroke-width:0.5;" width="84.3418" x="985.7188" y="62.4297"/>
    <text fill="#000000" font-family="sans-serif" font-size="14" lengthAdjust="spacing" textLength="63.0205" x="996.3794" y="82.4248">Mojaloop</text>
    <text fill="#000000" font-family="sans-serif" font-size="14" lengthAdjust="spacing" textLength="70.3418" x="992.7188" y="98.7217">Schéma B</text>
    <rect fill="#E2E2F0" height="46.5938" rx="2.5" ry="2.5" style="stroke:#181818;stroke-width:0.5;" width="84.3418" x="985.7188" y="1293.5313"/>
    <text fill="#000000" font-family="sans-serif" font-size="14" lengthAdjust="spacing" textLength="63.0205" x="996.3794" y="1313.5264">Mojaloop</text>
    <text fill="#000000" font-family="sans-serif" font-size="14" lengthAdjust="spacing" textLength="70.3418" x="992.7188" y="1329.8232">Schéma B</text>
    <rect fill="#E2E2F0" height="46.5938" rx="2.5" ry="2.5" style="stroke:#181818;stroke-width:0.5;" width="101.7666" x="1352.3311" y="62.4297"/>
    <text fill="#000000" font-family="sans-serif" font-size="14" lengthAdjust="spacing" textLength="87.7666" x="1359.3311" y="82.4248">Cache proxy</text>
    <text fill="#000000" font-family="sans-serif" font-size="14" lengthAdjust="spacing" textLength="70.3418" x="1368.0435" y="98.7217">Schéma B</text>
    <rect fill="#E2E2F0" height="46.5938" rx="2.5" ry="2.5" style="stroke:#181818;stroke-width:0.5;" width="101.7666" x="1352.3311" y="1293.5313"/>
    <text fill="#000000" font-family="sans-serif" font-size="14" lengthAdjust="spacing" textLength="87.7666" x="1359.3311" y="1313.5264">Cache proxy</text>
    <text fill="#000000" font-family="sans-serif" font-size="14" lengthAdjust="spacing" textLength="70.3418" x="1368.0435" y="1329.8232">Schéma B</text>
    <rect fill="#E2E2F0" height="30.2969" rx="2.5" ry="2.5" style="stroke:#181818;stroke-width:0.5;" width="136.8418" x="1464.0977" y="78.7266"/>
    <text fill="#000000" font-family="sans-serif" font-size="14" lengthAdjust="spacing" textLength="122.8418" x="1471.0977" y="98.7217">DFSP bénéficiaire</text>
    <rect fill="#E2E2F0" height="30.2969" rx="2.5" ry="2.5" style="stroke:#181818;stroke-width:0.5;" width="136.8418" x="1464.0977" y="1293.5313"/>
    <text fill="#000000" font-family="sans-serif" font-size="14" lengthAdjust="spacing" textLength="122.8418" x="1471.0977" y="1313.5264">DFSP bénéficiaire</text>
    <line style="stroke:#181818;stroke-width:1.0;" x1="407.6968" x2="397.6968" y1="181.9883" y2="177.9883"/>
    <line style="stroke:#181818;stroke-width:1.0;" x1="407.6968" x2="397.6968" y1="181.9883" y2="185.9883"/>
    <line style="stroke:#181818;stroke-width:1.0;" x1="259.8027" x2="408.6968" y1="181.9883" y2="181.9883"/>
    <text fill="#000000" font-family="sans-serif" font-size="13" font-weight="bold" lengthAdjust="spacing" textLength="20.9282" x="266.8027" y="176.9224">[1]</text>
    <text fill="#000000" font-family="sans-serif" font-size="13" lengthAdjust="spacing" textLength="100.8896" x="291.731" y="176.9224">POST /transfers</text>
    <path d="M66,125.0234 L66,225.0234 L254,225.0234 L254,135.0234 L244,125.0234 L66,125.0234 " fill="#FEFFDD" style="stroke:#181818;stroke-width:0.5;"/>
    <path d="M244,125.0234 L244,135.0234 L254,135.0234 L244,125.0234 " fill="#FEFFDD" style="stroke:#181818;stroke-width:0.5;"/>
    <text fill="#000000" font-family="sans-serif" font-size="13" lengthAdjust="spacing" textLength="47.1187" x="72" y="142.0903">en-tête</text>
    <text fill="#000000" font-family="sans-serif" font-size="13" lengthAdjust="spacing" textLength="126.9341" x="80.2646" y="157.2231">source : payerDFSP</text>
    <text fill="#000000" font-family="sans-serif" font-size="13" lengthAdjust="spacing" textLength="158.9707" x="80.2646" y="172.356">destination : payeeDFSP</text>
    <text fill="#000000" font-family="sans-serif" font-size="13" lengthAdjust="spacing" textLength="164.6074" x="72" y="187.4888">JWS signé par payerDFSP</text>
    <text fill="#000000" font-family="sans-serif" font-size="13" lengthAdjust="spacing" textLength="35.4707" x="72" y="202.6216">corps</text>
    <text fill="#000000" font-family="sans-serif" font-size="13" lengthAdjust="spacing" textLength="105.022" x="88.5293" y="217.7544">transferId: 1234</text>
    <line style="stroke:#181818;stroke-width:1.0;" x1="260.8027" x2="270.8027" y1="251.9531" y2="247.9531"/>
    <line style="stroke:#181818;stroke-width:1.0;" x1="260.8027" x2="270.8027" y1="251.9531" y2="255.9531"/>
    <line style="stroke:#181818;stroke-width:1.0;stroke-dasharray:2.0,2.0;" x1="259.8027" x2="408.6968" y1="251.9531" y2="251.9531"/>
    <text fill="#000000" font-family="sans-serif" font-size="13" font-weight="bold" lengthAdjust="spacing" textLength="20.9282" x="276.8027" y="246.8872">[2]</text>
    <text fill="#000000" font-family="sans-serif" font-size="13" lengthAdjust="spacing" textLength="47.7026" x="301.731" y="246.8872">202 OK</text>
    <line style="stroke:#181818;stroke-width:1.0;" x1="409.6968" x2="451.6968" y1="311.3516" y2="311.3516"/>
    <line style="stroke:#181818;stroke-width:1.0;" x1="451.6968" x2="451.6968" y1="311.3516" y2="324.3516"/>
    <line style="stroke:#181818;stroke-width:1.0;" x1="410.6968" x2="451.6968" y1="324.3516" y2="324.3516"/>
    <polygon fill="#181818" points="420.6968,320.3516,410.6968,324.3516,420.6968,328.3516,416.6968,324.3516" style="stroke:#181818;stroke-width:1.0;"/>
    <text fill="#000000" font-family="sans-serif" font-size="13" font-weight="bold" lengthAdjust="spacing" textLength="20.9282" x="416.6968" y="291.1528">[3]</text>
    <text fill="#000000" font-family="sans-serif" font-size="13" lengthAdjust="spacing" textLength="83.2051" x="441.625" y="276.02">DFSP payeur</text>
    <text fill="#000000" font-family="sans-serif" font-size="13" lengthAdjust="spacing" textLength="138.7534" x="445.7573" y="291.1528">- Contrôle des limites</text>
    <text fill="#000000" font-family="sans-serif" font-size="13" lengthAdjust="spacing" textLength="171.52" x="445.7573" y="306.2856">- Mise à jour de la position</text>
    <polygon fill="#181818" points="766.6294,364.6172,776.6294,368.6172,766.6294,372.6172,770.6294,368.6172" style="stroke:#181818;stroke-width:1.0;"/>
    <line style="stroke:#181818;stroke-width:1.0;" x1="409.6968" x2="772.6294" y1="368.6172" y2="368.6172"/>
    <text fill="#000000" font-family="sans-serif" font-size="13" font-weight="bold" lengthAdjust="spacing" textLength="20.9282" x="416.6968" y="355.9849">[4]</text>
    <text fill="#000000" font-family="sans-serif" font-size="13" lengthAdjust="spacing" textLength="161.9604" x="441.625" y="348.4185">Destination hors schéma</text>
    <text fill="#000000" font-family="sans-serif" font-size="13" lengthAdjust="spacing" textLength="320.0044" x="441.625" y="363.5513">Recherche du proxy pour payeeDFSP = Proxy AB</text>
    <line style="stroke:#181818;stroke-width:1.0;" x1="875.9956" x2="865.9956" y1="397.75" y2="393.75"/>
    <line style="stroke:#181818;stroke-width:1.0;" x1="875.9956" x2="865.9956" y1="397.75" y2="401.75"/>
    <line style="stroke:#181818;stroke-width:1.0;" x1="409.6968" x2="876.9956" y1="397.75" y2="397.75"/>
    <text fill="#000000" font-family="sans-serif" font-size="13" font-weight="bold" lengthAdjust="spacing" textLength="20.9282" x="416.6968" y="392.6841">[5]</text>
    <text fill="#000000" font-family="sans-serif" font-size="13" lengthAdjust="spacing" textLength="100.8896" x="441.625" y="392.6841">POST /transfers</text>
    <line style="stroke:#181818;stroke-width:1.0;" x1="1025.8896" x2="1015.8896" y1="475.2813" y2="471.2813"/>
    <line style="stroke:#181818;stroke-width:1.0;" x1="1025.8896" x2="1015.8896" y1="475.2813" y2="479.2813"/>
    <line style="stroke:#181818;stroke-width:1.0;" x1="877.9956" x2="1026.8896" y1="475.2813" y2="475.2813"/>
    <text fill="#000000" font-family="sans-serif" font-size="13" font-weight="bold" lengthAdjust="spacing" textLength="20.9282" x="884.9956" y="470.2153">[6]</text>
    <text fill="#000000" font-family="sans-serif" font-size="13" lengthAdjust="spacing" textLength="100.8896" x="909.9238" y="470.2153">POST /transfers</text>
    <path d="M684,410.75 L684,525.75 L872,525.75 L872,420.75 L862,410.75 L684,410.75 " fill="#FEFFDD" style="stroke:#181818;stroke-width:0.5;"/>
    <path d="M862,410.75 L862,420.75 L872,420.75 L862,410.75 " fill="#FEFFDD" style="stroke:#181818;stroke-width:0.5;"/>
    <text fill="#000000" font-family="sans-serif" font-size="13" lengthAdjust="spacing" textLength="47.1187" x="690" y="427.8169">en-tête</text>
    <text fill="#000000" font-family="sans-serif" font-size="13" lengthAdjust="spacing" textLength="126.9341" x="698.2646" y="442.9497">source : payerDFSP</text>
    <text fill="#000000" font-family="sans-serif" font-size="13" lengthAdjust="spacing" textLength="158.9707" x="698.2646" y="458.0825">destination : payeeDFSP</text>
    <text fill="#000000" font-family="sans-serif" font-size="13" lengthAdjust="spacing" textLength="145.228" x="698.2646" y="473.2153">fxpiop-proxy: proxyAB</text>
    <text fill="#000000" font-family="sans-serif" font-size="13" lengthAdjust="spacing" textLength="164.6074" x="690" y="488.3481">JWS signé par payerDFSP</text>
    <text fill="#000000" font-family="sans-serif" font-size="13" lengthAdjust="spacing" textLength="35.4707" x="690" y="503.481">corps</text>
    <text fill="#000000" font-family="sans-serif" font-size="13" lengthAdjust="spacing" textLength="105.022" x="706.5293" y="518.6138">transferId: 1234</text>
    <line style="stroke:#181818;stroke-width:1.0;" x1="878.9956" x2="888.9956" y1="552.8125" y2="548.8125"/>
    <line style="stroke:#181818;stroke-width:1.0;" x1="878.9956" x2="888.9956" y1="552.8125" y2="556.8125"/>
    <line style="stroke:#181818;stroke-width:1.0;stroke-dasharray:2.0,2.0;" x1="877.9956" x2="1026.8896" y1="552.8125" y2="552.8125"/>
    <text fill="#000000" font-family="sans-serif" font-size="13" font-weight="bold" lengthAdjust="spacing" textLength="20.9282" x="894.9956" y="547.7466">[7]</text>
    <text fill="#000000" font-family="sans-serif" font-size="13" lengthAdjust="spacing" textLength="47.7026" x="919.9238" y="547.7466">202 OK</text>
    <line style="stroke:#181818;stroke-width:1.0;" x1="410.6968" x2="420.6968" y1="581.9453" y2="577.9453"/>
    <line style="stroke:#181818;stroke-width:1.0;" x1="410.6968" x2="420.6968" y1="581.9453" y2="585.9453"/>
    <line style="stroke:#181818;stroke-width:1.0;stroke-dasharray:2.0,2.0;" x1="409.6968" x2="876.9956" y1="581.9453" y2="581.9453"/>
    <text fill="#000000" font-family="sans-serif" font-size="13" font-weight="bold" lengthAdjust="spacing" textLength="20.9282" x="426.6968" y="576.8794">[8]</text>
    <text fill="#000000" font-family="sans-serif" font-size="13" lengthAdjust="spacing" textLength="47.7026" x="451.625" y="576.8794">202 OK</text>
    <line style="stroke:#181818;stroke-width:1.0;" x1="409.6968" x2="451.6968" y1="611.0781" y2="611.0781"/>
    <line style="stroke:#181818;stroke-width:1.0;" x1="451.6968" x2="451.6968" y1="611.0781" y2="624.0781"/>
    <line style="stroke:#181818;stroke-width:1.0;" x1="410.6968" x2="451.6968" y1="624.0781" y2="624.0781"/>
    <polygon fill="#181818" points="420.6968,620.0781,410.6968,624.0781,420.6968,628.0781,416.6968,624.0781" style="stroke:#181818;stroke-width:1.0;"/>
    <text fill="#000000" font-family="sans-serif" font-size="13" font-weight="bold" lengthAdjust="spacing" textLength="20.9282" x="416.6968" y="606.0122">[9]</text>
    <text fill="#000000" font-family="sans-serif" font-size="13" lengthAdjust="spacing" textLength="202.6807" x="441.625" y="606.0122">Désactiver le délai d&apos;expiration</text>
    <line style="stroke:#181818;stroke-width:1.0;" x1="1027.8896" x2="1069.8896" y1="683.4766" y2="683.4766"/>
    <line style="stroke:#181818;stroke-width:1.0;" x1="1069.8896" x2="1069.8896" y1="683.4766" y2="696.4766"/>
    <line style="stroke:#181818;stroke-width:1.0;" x1="1028.8896" x2="1069.8896" y1="696.4766" y2="696.4766"/>
    <polygon fill="#181818" points="1038.8896,692.4766,1028.8896,696.4766,1038.8896,700.4766,1034.8896,696.4766" style="stroke:#181818;stroke-width:1.0;"/>
    <text fill="#000000" font-family="sans-serif" font-size="13" font-weight="bold" lengthAdjust="spacing" textLength="29.9736" x="1034.8896" y="663.2778">[10]</text>
    <text fill="#000000" font-family="sans-serif" font-size="13" lengthAdjust="spacing" textLength="58.4683" x="1068.8633" y="648.145">Proxy AB</text>
    <text fill="#000000" font-family="sans-serif" font-size="13" lengthAdjust="spacing" textLength="4.1323" x="1068.8633" y="663.2778"> </text>
    <text fill="#000000" font-family="sans-serif" font-size="13" font-weight="bold" lengthAdjust="spacing" textLength="192.9751" x="1072.9956" y="663.2778">- Pas de contrôle de limite</text>
    <text fill="#000000" font-family="sans-serif" font-size="13" lengthAdjust="spacing" textLength="171.52" x="1072.9956" y="678.4106">- Mise à jour de la position</text>
    <line style="stroke:#181818;stroke-width:1.0;" x1="1530.5186" x2="1520.5186" y1="728.6094" y2="724.6094"/>
    <line style="stroke:#181818;stroke-width:1.0;" x1="1530.5186" x2="1520.5186" y1="728.6094" y2="732.6094"/>
    <line style="stroke:#181818;stroke-width:1.0;" x1="1027.8896" x2="1531.5186" y1="728.6094" y2="728.6094"/>
    <text fill="#000000" font-family="sans-serif" font-size="13" font-weight="bold" lengthAdjust="spacing" textLength="29.9736" x="1034.8896" y="723.5435">[11]</text>
    <text fill="#000000" font-family="sans-serif" font-size="13" lengthAdjust="spacing" textLength="100.8896" x="1068.8633" y="723.5435">POST /transfers</text>
    <path d="M1537,709.4766 L1537,734.4766 L1784,734.4766 L1784,719.4766 L1774,709.4766 L1537,709.4766 " fill="#FEFFDD" style="stroke:#181818;stroke-width:0.5;"/>
    <path d="M1774,709.4766 L1774,719.4766 L1784,719.4766 L1774,709.4766 " fill="#FEFFDD" style="stroke:#181818;stroke-width:0.5;"/>
    <text fill="#000000" font-family="sans-serif" font-size="13" lengthAdjust="spacing" textLength="226.5161" x="1543" y="726.5435">Vérifie le JWS signé par payerDFSP</text>
    <line style="stroke:#181818;stroke-width:1.0;" x1="1028.8896" x2="1038.8896" y1="794.0078" y2="790.0078"/>
    <line style="stroke:#181818;stroke-width:1.0;" x1="1028.8896" x2="1038.8896" y1="794.0078" y2="798.0078"/>
    <line style="stroke:#181818;stroke-width:1.0;" x1="1027.8896" x2="1531.5186" y1="794.0078" y2="794.0078"/>
    <text fill="#000000" font-family="sans-serif" font-size="13" font-weight="bold" lengthAdjust="spacing" textLength="29.9736" x="1044.8896" y="781.3755">[12]</text>
    <text fill="#000000" font-family="sans-serif" font-size="13" lengthAdjust="spacing" textLength="91.9204" x="1078.8633" y="773.8091">PUT /transfers</text>
    <text fill="#000000" font-family="sans-serif" font-size="13" lengthAdjust="spacing" textLength="305.7983" x="1078.8633" y="788.9419">{fulfilment: &quot;xyz&quot;, transferState: &quot;RESERVED&quot;}</text>
    <path d="M1537,744.6094 L1537,814.6094 L1733,814.6094 L1733,754.6094 L1723,744.6094 L1537,744.6094 " fill="#FEFFDD" style="stroke:#181818;stroke-width:0.5;"/>
    <path d="M1723,744.6094 L1723,754.6094 L1733,754.6094 L1723,744.6094 " fill="#FEFFDD" style="stroke:#181818;stroke-width:0.5;"/>
    <text fill="#000000" font-family="sans-serif" font-size="13" lengthAdjust="spacing" textLength="47.1187" x="1543" y="761.6763">en-tête</text>
    <text fill="#000000" font-family="sans-serif" font-size="13" lengthAdjust="spacing" textLength="129.5874" x="1551.2646" y="776.8091">source : payeeDFSP</text>
    <text fill="#000000" font-family="sans-serif" font-size="13" lengthAdjust="spacing" textLength="156.3174" x="1551.2646" y="791.9419">destination : payerDFSP</text>
    <text fill="#000000" font-family="sans-serif" font-size="13" lengthAdjust="spacing" textLength="167.2607" x="1543" y="807.0747">JWS signé par payeeDFSP</text>
    <line style="stroke:#181818;stroke-width:1.0;" x1="1027.8896" x2="1069.8896" y1="856.4063" y2="856.4063"/>
    <line style="stroke:#181818;stroke-width:1.0;" x1="1069.8896" x2="1069.8896" y1="856.4063" y2="869.4063"/>
    <line style="stroke:#181818;stroke-width:1.0;" x1="1028.8896" x2="1069.8896" y1="869.4063" y2="869.4063"/>
    <polygon fill="#181818" points="1038.8896,865.4063,1028.8896,869.4063,1038.8896,873.4063,1034.8896,869.4063" style="stroke:#181818;stroke-width:1.0;"/>
    <text fill="#000000" font-family="sans-serif" font-size="13" font-weight="bold" lengthAdjust="spacing" textLength="29.9736" x="1034.8896" y="843.7739">[13]</text>
    <text fill="#000000" font-family="sans-serif" font-size="13" lengthAdjust="spacing" textLength="83.2051" x="1068.8633" y="836.2075">DFSP payeur</text>
    <text fill="#000000" font-family="sans-serif" font-size="13" lengthAdjust="spacing" textLength="171.52" x="1072.9956" y="851.3403">- Mise à jour de la position</text>
    <polygon fill="#181818" points="1391.2144,894.5391,1401.2144,898.5391,1391.2144,902.5391,1395.2144,898.5391" style="stroke:#181818;stroke-width:1.0;"/>
    <line style="stroke:#181818;stroke-width:1.0;" x1="1027.8896" x2="1397.2144" y1="898.5391" y2="898.5391"/>
    <text fill="#000000" font-family="sans-serif" font-size="13" font-weight="bold" lengthAdjust="spacing" textLength="29.9736" x="1034.8896" y="893.4731">[14]</text>
    <text fill="#000000" font-family="sans-serif" font-size="13" lengthAdjust="spacing" textLength="317.3511" x="1068.8633" y="893.4731">Recherche du proxy pour payerDFSP = Proxy AB</text>
    <line style="stroke:#181818;stroke-width:1.0;" x1="878.9956" x2="888.9956" y1="927.6719" y2="923.6719"/>
    <line style="stroke:#181818;stroke-width:1.0;" x1="878.9956" x2="888.9956" y1="927.6719" y2="931.6719"/>
    <line style="stroke:#181818;stroke-width:1.0;" x1="877.9956" x2="1026.8896" y1="927.6719" y2="927.6719"/>
    <text fill="#000000" font-family="sans-serif" font-size="13" font-weight="bold" lengthAdjust="spacing" textLength="29.9736" x="894.9956" y="922.606">[15]</text>
    <text fill="#000000" font-family="sans-serif" font-size="13" lengthAdjust="spacing" textLength="91.9204" x="928.9692" y="922.606">PUT /transfers</text>
    <line style="stroke:#181818;stroke-width:1.0;" x1="410.6968" x2="420.6968" y1="990.0703" y2="986.0703"/>
    <line style="stroke:#181818;stroke-width:1.0;" x1="410.6968" x2="420.6968" y1="990.0703" y2="994.0703"/>
    <line style="stroke:#181818;stroke-width:1.0;" x1="409.6968" x2="876.9956" y1="990.0703" y2="990.0703"/>
    <text fill="#000000" font-family="sans-serif" font-size="13" font-weight="bold" lengthAdjust="spacing" textLength="29.9736" x="426.6968" y="985.0044">[16]</text>
    <text fill="#000000" font-family="sans-serif" font-size="13" lengthAdjust="spacing" textLength="91.9204" x="460.6704" y="985.0044">PUT /transfers</text>
    <path d="M882,940.6719 L882,1025.6719 L1078,1025.6719 L1078,950.6719 L1068,940.6719 L882,940.6719 " fill="#FEFFDD" style="stroke:#181818;stroke-width:0.5;"/>
    <path d="M1068,940.6719 L1068,950.6719 L1078,950.6719 L1068,940.6719 " fill="#FEFFDD" style="stroke:#181818;stroke-width:0.5;"/>
    <text fill="#000000" font-family="sans-serif" font-size="13" lengthAdjust="spacing" textLength="47.1187" x="888" y="957.7388">en-tête</text>
    <text fill="#000000" font-family="sans-serif" font-size="13" lengthAdjust="spacing" textLength="129.5874" x="896.2646" y="972.8716">source : payeeDFSP</text>
    <text fill="#000000" font-family="sans-serif" font-size="13" lengthAdjust="spacing" textLength="156.3174" x="896.2646" y="988.0044">destination : payerDFSP</text>
    <text fill="#000000" font-family="sans-serif" font-size="13" lengthAdjust="spacing" textLength="145.228" x="896.2646" y="1003.1372">fxpiop-proxy: proxyAB</text>
    <text fill="#000000" font-family="sans-serif" font-size="13" lengthAdjust="spacing" textLength="167.2607" x="888" y="1018.27">JWS signé par payeeDFSP</text>
    <line style="stroke:#181818;stroke-width:1.0;" x1="875.9956" x2="865.9956" y1="1052.4688" y2="1048.4688"/>
    <line style="stroke:#181818;stroke-width:1.0;" x1="875.9956" x2="865.9956" y1="1052.4688" y2="1056.4688"/>
    <line style="stroke:#181818;stroke-width:1.0;stroke-dasharray:2.0,2.0;" x1="409.6968" x2="876.9956" y1="1052.4688" y2="1052.4688"/>
    <text fill="#000000" font-family="sans-serif" font-size="13" font-weight="bold" lengthAdjust="spacing" textLength="29.9736" x="416.6968" y="1047.4028">[17]</text>
    <text fill="#000000" font-family="sans-serif" font-size="13" lengthAdjust="spacing" textLength="47.7026" x="450.6704" y="1047.4028">200 OK</text>
    <line style="stroke:#181818;stroke-width:1.0;" x1="1025.8896" x2="1015.8896" y1="1081.6016" y2="1077.6016"/>
    <line style="stroke:#181818;stroke-width:1.0;" x1="1025.8896" x2="1015.8896" y1="1081.6016" y2="1085.6016"/>
    <line style="stroke:#181818;stroke-width:1.0;stroke-dasharray:2.0,2.0;" x1="877.9956" x2="1026.8896" y1="1081.6016" y2="1081.6016"/>
    <text fill="#000000" font-family="sans-serif" font-size="13" font-weight="bold" lengthAdjust="spacing" textLength="29.9736" x="884.9956" y="1076.5356">[18]</text>
    <text fill="#000000" font-family="sans-serif" font-size="13" lengthAdjust="spacing" textLength="47.7026" x="918.9692" y="1076.5356">200 OK</text>
    <line style="stroke:#181818;stroke-width:1.0;" x1="1530.5186" x2="1520.5186" y1="1125.8672" y2="1121.8672"/>
    <line style="stroke:#181818;stroke-width:1.0;" x1="1530.5186" x2="1520.5186" y1="1125.8672" y2="1129.8672"/>
    <line style="stroke:#181818;stroke-width:1.0;" x1="1027.8896" x2="1531.5186" y1="1125.8672" y2="1125.8672"/>
    <text fill="#000000" font-family="sans-serif" font-size="13" font-weight="bold" lengthAdjust="spacing" textLength="29.9736" x="1034.8896" y="1113.2349">[19]</text>
    <text fill="#000000" font-family="sans-serif" font-size="13" lengthAdjust="spacing" textLength="110.1509" x="1068.8633" y="1105.6685">PATCH /transfers</text>
    <text fill="#000000" font-family="sans-serif" font-size="13" lengthAdjust="spacing" textLength="202.4458" x="1068.8633" y="1120.8013">{transferState: &quot;COMMITTED&quot;}</text>
    <line style="stroke:#181818;stroke-width:1.0;" x1="1028.8896" x2="1038.8896" y1="1155" y2="1151"/>
    <line style="stroke:#181818;stroke-width:1.0;" x1="1028.8896" x2="1038.8896" y1="1155" y2="1159"/>
    <line style="stroke:#181818;stroke-width:1.0;stroke-dasharray:2.0,2.0;" x1="1027.8896" x2="1531.5186" y1="1155" y2="1155"/>
    <text fill="#000000" font-family="sans-serif" font-size="13" font-weight="bold" lengthAdjust="spacing" textLength="29.9736" x="1044.8896" y="1149.9341">[20]</text>
    <text fill="#000000" font-family="sans-serif" font-size="13" lengthAdjust="spacing" textLength="47.7026" x="1078.8633" y="1149.9341">200 OK</text>
    <line style="stroke:#181818;stroke-width:1.0;" x1="409.6968" x2="451.6968" y1="1199.2656" y2="1199.2656"/>
    <line style="stroke:#181818;stroke-width:1.0;" x1="451.6968" x2="451.6968" y1="1199.2656" y2="1212.2656"/>
    <line style="stroke:#181818;stroke-width:1.0;" x1="410.6968" x2="451.6968" y1="1212.2656" y2="1212.2656"/>
    <polygon fill="#181818" points="420.6968,1208.2656,410.6968,1212.2656,420.6968,1216.2656,416.6968,1212.2656" style="stroke:#181818;stroke-width:1.0;"/>
    <text fill="#000000" font-family="sans-serif" font-size="13" font-weight="bold" lengthAdjust="spacing" textLength="29.9736" x="416.6968" y="1186.6333">[21]</text>
    <text fill="#000000" font-family="sans-serif" font-size="13" lengthAdjust="spacing" textLength="59.2871" x="450.6704" y="1179.0669">Proxy NX</text>
    <text fill="#000000" font-family="sans-serif" font-size="13" lengthAdjust="spacing" textLength="171.52" x="454.8027" y="1194.1997">- Mise à jour de la position</text>
    <line style="stroke:#181818;stroke-width:1.0;" x1="260.8027" x2="270.8027" y1="1244.3984" y2="1240.3984"/>
    <line style="stroke:#181818;stroke-width:1.0;" x1="260.8027" x2="270.8027" y1="1244.3984" y2="1248.3984"/>
    <line style="stroke:#181818;stroke-width:1.0;" x1="259.8027" x2="408.6968" y1="1244.3984" y2="1244.3984"/>
    <text fill="#000000" font-family="sans-serif" font-size="13" font-weight="bold" lengthAdjust="spacing" textLength="29.9736" x="276.8027" y="1239.3325">[22]</text>
    <text fill="#000000" font-family="sans-serif" font-size="13" lengthAdjust="spacing" textLength="91.9204" x="310.7764" y="1239.3325">PUT /transfers</text>
    <path d="M5,1225.2656 L5,1250.2656 L255,1250.2656 L255,1235.2656 L245,1225.2656 L5,1225.2656 " fill="#FEFFDD" style="stroke:#181818;stroke-width:0.5;"/>
    <path d="M245,1225.2656 L245,1235.2656 L255,1235.2656 L245,1225.2656 " fill="#FEFFDD" style="stroke:#181818;stroke-width:0.5;"/>
    <text fill="#000000" font-family="sans-serif" font-size="13" lengthAdjust="spacing" textLength="229.1694" x="11" y="1242.3325">Vérifie le JWS signé par payeeDFSP</text>
    <line style="stroke:#181818;stroke-width:1.0;" x1="407.6968" x2="397.6968" y1="1276.5313" y2="1272.5313"/>
    <line style="stroke:#181818;stroke-width:1.0;" x1="407.6968" x2="397.6968" y1="1276.5313" y2="1280.5313"/>
    <line style="stroke:#181818;stroke-width:1.0;stroke-dasharray:2.0,2.0;" x1="259.8027" x2="408.6968" y1="1276.5313" y2="1276.5313"/>
    <text fill="#000000" font-family="sans-serif" font-size="13" font-weight="bold" lengthAdjust="spacing" textLength="29.9736" x="266.8027" y="1271.4653">[23]</text>
    <text fill="#000000" font-family="sans-serif" font-size="13" lengthAdjust="spacing" textLength="47.7026" x="300.7764" y="1271.4653">200 OK</text>
  </g>
</svg>
