<svg xmlns="http://www.w3.org/2000/svg" xmlns:xlink="http://www.w3.org/1999/xlink" contentStyleType="text/css" height="1688px" preserveAspectRatio="none" style="width:1877px;height:1688px;background:#FFFFFF;" version="1.1" viewBox="0 0 1877 1688" width="1877px" zoomAndPan="magnify">
  <title>Inter-schéma — cas d&apos;erreur</title>
  <defs/>
  <g>
    <text fill="#000000" font-family="sans-serif" font-size="14" font-weight="bold" lengthAdjust="spacing" textLength="222.8857" x="823.1536" y="27.9951">Inter-schéma — cas d&apos;erreur</text>
    <rect fill="#ADD8E6" height="1639.0938" style="stroke:#181818;stroke-width:0.5;" width="466.2852" x="374.6201" y="43.2969"/>
    <text fill="#000000" font-family="sans-serif" font-size="13" font-weight="bold" lengthAdjust="spacing" textLength="72.0459" x="571.7397" y="55.3638">Schéma A</text>
    <rect fill="#D1E0C3" height="1639.0938" style="stroke:#181818;stroke-width:0.5;" width="466.3789" x="1071.2373" y="43.2969"/>
    <text fill="#000000" font-family="sans-serif" font-size="13" font-weight="bold" lengthAdjust="spacing" textLength="71.8936" x="1268.48" y="55.3638">Schéma B</text>
    <rect fill="none" height="46.2656" style="stroke:#000000;stroke-width:1.5;" width="336.9346" x="136" y="235.5547"/>
    <rect fill="none" height="81.3984" style="stroke:#000000;stroke-width:1.5;" width="617.96" x="136" y="324.9531"/>
    <rect fill="none" height="81.3984" style="stroke:#000000;stroke-width:1.5;" width="461.0142" x="136" y="449.4844"/>
    <rect fill="none" height="229.3281" style="stroke:#000000;stroke-width:1.5;" width="950.895" x="136" y="574.0156"/>
    <rect fill="none" height="240.0625" style="stroke:#000000;stroke-width:1.5;" width="1314.5908" x="136" y="946.875"/>
    <rect fill="none" height="355.5938" style="stroke:#000000;stroke-width:1.5;" width="1724.1929" x="136" y="1259.2031"/>
    <line style="stroke:#181818;stroke-width:0.5;stroke-dasharray:5.0,5.0;" x1="197" x2="197" y1="110.0234" y2="1631.7969"/>
    <line style="stroke:#181818;stroke-width:0.5;stroke-dasharray:5.0,5.0;" x1="420.6201" x2="420.6201" y1="110.0234" y2="1631.7969"/>
    <line style="stroke:#181818;stroke-width:0.5;stroke-dasharray:5.0,5.0;" x1="785.1387" x2="785.1387" y1="110.0234" y2="1631.7969"/>
    <line style="stroke:#181818;stroke-width:0.5;stroke-dasharray:5.0,5.0;" x1="884.9053" x2="884.9053" y1="110.0234" y2="1631.7969"/>
    <line style="stroke:#181818;stroke-width:0.5;stroke-dasharray:5.0,5.0;" x1="1117.2373" x2="1117.2373" y1="110.0234" y2="1631.7969"/>
    <line style="stroke:#181818;stroke-width:0.5;stroke-dasharray:5.0,5.0;" x1="1481.8496" x2="1481.8496" y1="110.0234" y2="1631.7969"/>
    <line style="stroke:#181818;stroke-width:0.5;stroke-dasharray:5.0,5.0;" x1="1611.6162" x2="1611.6162" y1="110.0234" y2="1631.7969"/>
    <rect fill="#E2E2F0" height="30.2969" rx="2.5" ry="2.5" style="stroke:#181818;stroke-width:0.5;" width="103.6055" x="146" y="78.7266"/>
    <text fill="#000000" font-family="sans-serif" font-size="14" lengthAdjust="spacing" textLength="89.6055" x="153" y="98.7217">DFSP payeur</text>
    <rect fill="#E2E2F0" height="30.2969" rx="2.5" ry="2.5" style="stroke:#181818;stroke-width:0.5;" width="103.6055" x="146" y="1630.7969"/>
    <text fill="#000000" font-family="sans-serif" font-size="14" lengthAdjust="spacing" textLength="89.6055" x="153" y="1650.792">DFSP payeur</text>
    <rect fill="#E2E2F0" height="46.5938" rx="2.5" ry="2.5" style="stroke:#181818;stroke-width:0.5;" width="84.3145" x="378.6201" y="62.4297"/>
    <text fill="#000000" font-family="sans-serif" font-size="14" lengthAdjust="spacing" textLength="26.2637" x="407.6455" y="82.4248">ALS</text>
    <text fill="#000000" font-family="sans-serif" font-size="14" lengthAdjust="spacing" textLength="70.3145" x="385.6201" y="98.7217">Schéma A</text>
    <rect fill="#E2E2F0" height="46.5938" rx="2.5" ry="2.5" style="stroke:#181818;stroke-width:0.5;" width="84.3145" x="378.6201" y="1630.7969"/>
    <text fill="#000000" font-family="sans-serif" font-size="14" lengthAdjust="spacing" textLength="26.2637" x="407.6455" y="1650.792">ALS</text>
    <text fill="#000000" font-family="sans-serif" font-size="14" lengthAdjust="spacing" textLength="70.3145" x="385.6201" y="1667.0889">Schéma A</text>
    <rect fill="#E2E2F0" height="46.5938" rx="2.5" ry="2.5" style="stroke:#181818;stroke-width:0.5;" width="101.7666" x="735.1387" y="62.4297"/>
    <text fill="#000000" font-family="sans-serif" font-size="14" lengthAdjust="spacing" textLength="87.7666" x="742.1387" y="82.4248">Cache proxy</text>
    <text fill="#000000" font-family="sans-serif" font-size="14" lengthAdjust="spacing" textLength="70.3145" x="750.8647" y="98.7217">Schéma A</text>
    <rect fill="#E2E2F0" height="46.5938" rx="2.5" ry="2.5" style="stroke:#181818;stroke-width:0.5;" width="101.7666" x="735.1387" y="1630.7969"/>
    <text fill="#000000" font-family="sans-serif" font-size="14" lengthAdjust="spacing" textLength="87.7666" x="742.1387" y="1650.792">Cache proxy</text>
    <text fill="#000000" font-family="sans-serif" font-size="14" lengthAdjust="spacing" textLength="70.3145" x="750.8647" y="1667.0889">Schéma A</text>
    <rect fill="#E2E2F0" height="30.2969" rx="2.5" ry="2.5" style="stroke:#181818;stroke-width:0.5;" width="76.9658" x="846.9053" y="78.7266"/>
    <text fill="#000000" font-family="sans-serif" font-size="14" lengthAdjust="spacing" textLength="62.9658" x="853.9053" y="98.7217">Proxy AB</text>
    <rect fill="#E2E2F0" height="30.2969" rx="2.5" ry="2.5" style="stroke:#181818;stroke-width:0.5;" width="76.9658" x="846.9053" y="1630.7969"/>
    <text fill="#000000" font-family="sans-serif" font-size="14" lengthAdjust="spacing" textLength="62.9658" x="853.9053" y="1650.792">Proxy AB</text>
    <rect fill="#E2E2F0" height="46.5938" rx="2.5" ry="2.5" style="stroke:#181818;stroke-width:0.5;" width="84.3418" x="1075.2373" y="62.4297"/>
    <text fill="#000000" font-family="sans-serif" font-size="14" lengthAdjust="spacing" textLength="26.2637" x="1104.2764" y="82.4248">ALS</text>
    <text fill="#000000" font-family="sans-serif" font-size="14" lengthAdjust="spacing" textLength="70.3418" x="1082.2373" y="98.7217">Schéma B</text>
    <rect fill="#E2E2F0" height="46.5938" rx="2.5" ry="2.5" style="stroke:#181818;stroke-width:0.5;" width="84.3418" x="1075.2373" y="1630.7969"/>
    <text fill="#000000" font-family="sans-serif" font-size="14" lengthAdjust="spacing" textLength="26.2637" x="1104.2764" y="1650.792">ALS</text>
    <text fill="#000000" font-family="sans-serif" font-size="14" lengthAdjust="spacing" textLength="70.3418" x="1082.2373" y="1667.0889">Schéma B</text>
    <rect fill="#E2E2F0" height="46.5938" rx="2.5" ry="2.5" style="stroke:#181818;stroke-width:0.5;" width="101.7666" x="1431.8496" y="62.4297"/>
    <text fill="#000000" font-family="sans-serif" font-size="14" lengthAdjust="spacing" textLength="87.7666" x="1438.8496" y="82.4248">Cache proxy</text>
    <text fill="#000000" font-family="sans-serif" font-size="14" lengthAdjust="spacing" textLength="70.3418" x="1447.562" y="98.7217">Schéma B</text>
    <rect fill="#E2E2F0" height="46.5938" rx="2.5" ry="2.5" style="stroke:#181818;stroke-width:0.5;" width="101.7666" x="1431.8496" y="1630.7969"/>
    <text fill="#000000" font-family="sans-serif" font-size="14" lengthAdjust="spacing" textLength="87.7666" x="1438.8496" y="1650.792">Cache proxy</text>
    <text fill="#000000" font-family="sans-serif" font-size="14" lengthAdjust="spacing" textLength="70.3418" x="1447.562" y="1667.0889">Schéma B</text>
    <rect fill="#E2E2F0" height="30.2969" rx="2.5" ry="2.5" style="stroke:#181818;stroke-width:0.5;" width="136.8418" x="1543.6162" y="78.7266"/>
    <text fill="#000000" font-family="sans-serif" font-size="14" lengthAdjust="spacing" textLength="122.8418" x="1550.6162" y="98.7217">DFSP bénéficiaire</text>
    <rect fill="#E2E2F0" height="30.2969" rx="2.5" ry="2.5" style="stroke:#181818;stroke-width:0.5;" width="136.8418" x="1543.6162" y="1630.7969"/>
    <text fill="#000000" font-family="sans-serif" font-size="14" lengthAdjust="spacing" textLength="122.8418" x="1550.6162" y="1650.792">DFSP bénéficiaire</text>
    <rect fill="#EEEEEE" height="3" style="stroke:#EEEEEE;stroke-width:1.0;" width="1870.1929" x="0" y="140.5898"/>
    <line style="stroke:#000000;stroke-width:1.0;" x1="0" x2="1870.1929" y1="140.5898" y2="140.5898"/>
    <line style="stroke:#000000;stroke-width:1.0;" x1="0" x2="1870.1929" y1="143.5898" y2="143.5898"/>
    <rect fill="#EEEEEE" height="23.1328" style="stroke:#000000;stroke-width:2.0;" width="105.9712" x="882.1108" y="130.0234"/>
    <text fill="#000000" font-family="sans-serif" font-size="13" font-weight="bold" lengthAdjust="spacing" textLength="87.4453" x="888.1108" y="146.0903">Phase POST</text>
    <line style="stroke:#181818;stroke-width:1.0;" x1="418.7773" x2="408.7773" y1="202.4219" y2="198.4219"/>
    <line style="stroke:#181818;stroke-width:1.0;" x1="418.7773" x2="408.7773" y1="202.4219" y2="206.4219"/>
    <line style="stroke:#181818;stroke-width:1.0;" x1="197.8027" x2="419.7773" y1="202.4219" y2="202.4219"/>
    <text fill="#000000" font-family="sans-serif" font-size="13" font-weight="bold" lengthAdjust="spacing" textLength="20.9282" x="204.8027" y="197.356">[1]</text>
    <text fill="#000000" font-family="sans-serif" font-size="13" lengthAdjust="spacing" textLength="174.0464" x="229.731" y="197.356">POST/GET/PATCH/PUT /xxx</text>
    <path d="M5,168.1563 L5,223.1563 L193,223.1563 L193,178.1563 L183,168.1563 L5,168.1563 " fill="#FEFFDD" style="stroke:#181818;stroke-width:0.5;"/>
    <path d="M183,168.1563 L183,178.1563 L193,178.1563 L183,168.1563 " fill="#FEFFDD" style="stroke:#181818;stroke-width:0.5;"/>
    <text fill="#000000" font-family="sans-serif" font-size="13" lengthAdjust="spacing" textLength="47.1187" x="11" y="185.2231">en-tête</text>
    <text fill="#000000" font-family="sans-serif" font-size="13" lengthAdjust="spacing" textLength="126.9341" x="19.2646" y="200.356">source : payerDFSP</text>
    <text fill="#000000" font-family="sans-serif" font-size="13" lengthAdjust="spacing" textLength="158.9707" x="19.2646" y="215.4888">destination : payeeDFSP</text>
    <path d="M136,235.5547 L200.4429,235.5547 L200.4429,242.6875 L190.4429,252.6875 L136,252.6875 L136,235.5547 " fill="#EEEEEE" style="stroke:#000000;stroke-width:1.5;"/>
    <rect fill="none" height="46.2656" style="stroke:#000000;stroke-width:1.5;" width="336.9346" x="136" y="235.5547"/>
    <text fill="#000000" font-family="sans-serif" font-size="13" font-weight="bold" lengthAdjust="spacing" textLength="19.4429" x="151" y="248.6216">alt</text>
    <text fill="#000000" font-family="sans-serif" font-size="11" font-weight="bold" lengthAdjust="spacing" textLength="160.7783" x="215.4429" y="247.7651">[en cas d&apos;erreur OpenAPI]</text>
    <line style="stroke:#181818;stroke-width:1.0;" x1="198.8027" x2="208.8027" y1="273.8203" y2="269.8203"/>
    <line style="stroke:#181818;stroke-width:1.0;" x1="198.8027" x2="208.8027" y1="273.8203" y2="277.8203"/>
    <line style="stroke:#181818;stroke-width:1.0;stroke-dasharray:2.0,2.0;" x1="197.8027" x2="419.7773" y1="273.8203" y2="273.8203"/>
    <text fill="#000000" font-family="sans-serif" font-size="13" font-weight="bold" lengthAdjust="spacing" textLength="20.9282" x="214.8027" y="268.7544">[2]</text>
    <text fill="#000000" font-family="sans-serif" font-size="13" lengthAdjust="spacing" textLength="149.8872" x="239.731" y="268.7544">400 requête incorrecte</text>
    <line style="stroke:#181818;stroke-width:1.0;" x1="198.8027" x2="208.8027" y1="309.9531" y2="305.9531"/>
    <line style="stroke:#181818;stroke-width:1.0;" x1="198.8027" x2="208.8027" y1="309.9531" y2="313.9531"/>
    <line style="stroke:#181818;stroke-width:1.0;stroke-dasharray:2.0,2.0;" x1="197.8027" x2="419.7773" y1="309.9531" y2="309.9531"/>
    <text fill="#000000" font-family="sans-serif" font-size="13" font-weight="bold" lengthAdjust="spacing" textLength="20.9282" x="214.8027" y="304.8872">[3]</text>
    <text fill="#000000" font-family="sans-serif" font-size="13" lengthAdjust="spacing" textLength="47.7026" x="239.731" y="304.8872">202 OK</text>
    <path d="M136,324.9531 L200.4429,324.9531 L200.4429,332.0859 L190.4429,342.0859 L136,342.0859 L136,324.9531 " fill="#EEEEEE" style="stroke:#000000;stroke-width:1.5;"/>
    <rect fill="none" height="81.3984" style="stroke:#000000;stroke-width:1.5;" width="617.96" x="136" y="324.9531"/>
    <text fill="#000000" font-family="sans-serif" font-size="13" font-weight="bold" lengthAdjust="spacing" textLength="19.4429" x="151" y="338.02">alt</text>
    <text fill="#000000" font-family="sans-serif" font-size="11" font-weight="bold" lengthAdjust="spacing" textLength="196.856" x="215.4429" y="337.1636">[en cas d&apos;erreur dans schémaA]</text>
    <line style="stroke:#181818;stroke-width:1.0;" x1="198.8027" x2="208.8027" y1="366.2188" y2="362.2188"/>
    <line style="stroke:#181818;stroke-width:1.0;" x1="198.8027" x2="208.8027" y1="366.2188" y2="370.2188"/>
    <line style="stroke:#181818;stroke-width:1.0;" x1="197.8027" x2="419.7773" y1="366.2188" y2="366.2188"/>
    <text fill="#000000" font-family="sans-serif" font-size="13" font-weight="bold" lengthAdjust="spacing" textLength="20.9282" x="214.8027" y="361.1528">[4]</text>
    <text fill="#000000" font-family="sans-serif" font-size="13" lengthAdjust="spacing" textLength="128.0195" x="239.731" y="361.1528">PUT /xxx/{ID}/error</text>
    <path d="M425,347.0859 L425,372.0859 L738,372.0859 L738,357.0859 L728,347.0859 L425,347.0859 " fill="#FEFFDD" style="stroke:#181818;stroke-width:0.5;"/>
    <path d="M728,347.0859 L728,357.0859 L738,357.0859 L728,347.0859 " fill="#FEFFDD" style="stroke:#181818;stroke-width:0.5;"/>
    <text fill="#000000" font-family="sans-serif" font-size="13" lengthAdjust="spacing" textLength="259.124" x="431" y="364.1528">Codes d&apos;erreur : 2xxx, 3xxx, 4xxx, 5xxx</text>
    <line style="stroke:#181818;stroke-width:1.0;" x1="418.7773" x2="408.7773" y1="398.3516" y2="394.3516"/>
    <line style="stroke:#181818;stroke-width:1.0;" x1="418.7773" x2="408.7773" y1="398.3516" y2="402.3516"/>
    <line style="stroke:#181818;stroke-width:1.0;stroke-dasharray:2.0,2.0;" x1="197.8027" x2="419.7773" y1="398.3516" y2="398.3516"/>
    <text fill="#000000" font-family="sans-serif" font-size="13" font-weight="bold" lengthAdjust="spacing" textLength="20.9282" x="204.8027" y="393.2856">[5]</text>
    <text fill="#000000" font-family="sans-serif" font-size="13" lengthAdjust="spacing" textLength="47.7026" x="229.731" y="393.2856">200 OK</text>
    <polygon fill="#181818" points="774.022,430.4844,784.022,434.4844,774.022,438.4844,778.022,434.4844" style="stroke:#181818;stroke-width:1.0;"/>
    <line style="stroke:#181818;stroke-width:1.0;" x1="420.7773" x2="780.022" y1="434.4844" y2="434.4844"/>
    <text fill="#000000" font-family="sans-serif" font-size="13" font-weight="bold" lengthAdjust="spacing" textLength="20.9282" x="427.7773" y="429.4185">[6]</text>
    <text fill="#000000" font-family="sans-serif" font-size="13" lengthAdjust="spacing" textLength="316.3164" x="452.7056" y="429.4185">recherche du proxy pour payeeDFSP = Proxy AB</text>
    <path d="M136,449.4844 L200.4429,449.4844 L200.4429,456.6172 L190.4429,466.6172 L136,466.6172 L136,449.4844 " fill="#EEEEEE" style="stroke:#000000;stroke-width:1.5;"/>
    <rect fill="none" height="81.3984" style="stroke:#000000;stroke-width:1.5;" width="461.0142" x="136" y="449.4844"/>
    <text fill="#000000" font-family="sans-serif" font-size="13" font-weight="bold" lengthAdjust="spacing" textLength="19.4429" x="151" y="462.5513">alt</text>
    <text fill="#000000" font-family="sans-serif" font-size="11" font-weight="bold" lengthAdjust="spacing" textLength="164.667" x="215.4429" y="461.6948">[si absent du cache proxy]</text>
    <line style="stroke:#181818;stroke-width:1.0;" x1="198.8027" x2="208.8027" y1="490.75" y2="486.75"/>
    <line style="stroke:#181818;stroke-width:1.0;" x1="198.8027" x2="208.8027" y1="490.75" y2="494.75"/>
    <line style="stroke:#181818;stroke-width:1.0;" x1="197.8027" x2="419.7773" y1="490.75" y2="490.75"/>
    <text fill="#000000" font-family="sans-serif" font-size="13" font-weight="bold" lengthAdjust="spacing" textLength="20.9282" x="214.8027" y="485.6841">[7]</text>
    <text fill="#000000" font-family="sans-serif" font-size="13" lengthAdjust="spacing" textLength="128.0195" x="239.731" y="485.6841">PUT /xxx/{ID}/error</text>
    <path d="M425,471.6172 L425,496.6172 L581,496.6172 L581,481.6172 L571,471.6172 L425,471.6172 " fill="#FEFFDD" style="stroke:#181818;stroke-width:0.5;"/>
    <path d="M571,471.6172 L571,481.6172 L581,481.6172 L571,471.6172 " fill="#FEFFDD" style="stroke:#181818;stroke-width:0.5;"/>
    <text fill="#000000" font-family="sans-serif" font-size="13" lengthAdjust="spacing" textLength="135.2368" x="431" y="488.6841">Code d&apos;erreur : 3201</text>
    <line style="stroke:#181818;stroke-width:1.0;" x1="418.7773" x2="408.7773" y1="522.8828" y2="518.8828"/>
    <line style="stroke:#181818;stroke-width:1.0;" x1="418.7773" x2="408.7773" y1="522.8828" y2="526.8828"/>
    <line style="stroke:#181818;stroke-width:1.0;stroke-dasharray:2.0,2.0;" x1="197.8027" x2="419.7773" y1="522.8828" y2="522.8828"/>
    <text fill="#000000" font-family="sans-serif" font-size="13" font-weight="bold" lengthAdjust="spacing" textLength="20.9282" x="204.8027" y="517.8169">[8]</text>
    <text fill="#000000" font-family="sans-serif" font-size="13" lengthAdjust="spacing" textLength="47.7026" x="229.731" y="517.8169">200 OK</text>
    <line style="stroke:#181818;stroke-width:1.0;" x1="883.3882" x2="873.3882" y1="559.0156" y2="555.0156"/>
    <line style="stroke:#181818;stroke-width:1.0;" x1="883.3882" x2="873.3882" y1="559.0156" y2="563.0156"/>
    <line style="stroke:#181818;stroke-width:1.0;" x1="420.7773" x2="884.3882" y1="559.0156" y2="559.0156"/>
    <text fill="#000000" font-family="sans-serif" font-size="13" font-weight="bold" lengthAdjust="spacing" textLength="20.9282" x="427.7773" y="553.9497">[9]</text>
    <text fill="#000000" font-family="sans-serif" font-size="13" lengthAdjust="spacing" textLength="174.0464" x="452.7056" y="553.9497">POST/GET/PATCH/PUT /xxx</text>
    <path d="M136,574.0156 L200.4429,574.0156 L200.4429,581.1484 L190.4429,591.1484 L136,591.1484 L136,574.0156 " fill="#EEEEEE" style="stroke:#000000;stroke-width:1.5;"/>
    <rect fill="none" height="229.3281" style="stroke:#000000;stroke-width:1.5;" width="950.895" x="136" y="574.0156"/>
    <text fill="#000000" font-family="sans-serif" font-size="13" font-weight="bold" lengthAdjust="spacing" textLength="19.4429" x="151" y="587.0825">alt</text>
    <text fill="#000000" font-family="sans-serif" font-size="11" font-weight="bold" lengthAdjust="spacing" textLength="217.9106" x="215.4429" y="586.2261">[en cas d&apos;erreur dans le proxy xnp]</text>
    <line style="stroke:#181818;stroke-width:1.0;" x1="421.7773" x2="431.7773" y1="612.2813" y2="608.2813"/>
    <line style="stroke:#181818;stroke-width:1.0;" x1="421.7773" x2="431.7773" y1="612.2813" y2="616.2813"/>
    <line style="stroke:#181818;stroke-width:1.0;stroke-dasharray:2.0,2.0;" x1="420.7773" x2="884.3882" y1="612.2813" y2="612.2813"/>
    <text fill="#000000" font-family="sans-serif" font-size="13" font-weight="bold" lengthAdjust="spacing" textLength="29.9736" x="437.7773" y="607.2153">[10]</text>
    <text fill="#000000" font-family="sans-serif" font-size="13" lengthAdjust="spacing" textLength="156.6982" x="471.751" y="607.2153">503 { ErrorCode: 3100}</text>
    <line style="stroke:#181818;stroke-width:1.0;" x1="421.7773" x2="431.7773" y1="674.6797" y2="670.6797"/>
    <line style="stroke:#181818;stroke-width:1.0;" x1="421.7773" x2="431.7773" y1="674.6797" y2="678.6797"/>
    <line style="stroke:#181818;stroke-width:1.0;" x1="420.7773" x2="884.3882" y1="674.6797" y2="674.6797"/>
    <text fill="#000000" font-family="sans-serif" font-size="13" font-weight="bold" lengthAdjust="spacing" textLength="29.9736" x="437.7773" y="669.6138">[11]</text>
    <text fill="#000000" font-family="sans-serif" font-size="13" lengthAdjust="spacing" textLength="128.0195" x="471.751" y="669.6138">PUT /xxx/{ID}/error</text>
    <path d="M890,625.2813 L890,710.2813 L1071,710.2813 L1071,635.2813 L1061,625.2813 L890,625.2813 " fill="#FEFFDD" style="stroke:#181818;stroke-width:0.5;"/>
    <path d="M1061,625.2813 L1061,635.2813 L1071,635.2813 L1061,625.2813 " fill="#FEFFDD" style="stroke:#181818;stroke-width:0.5;"/>
    <text fill="#000000" font-family="sans-serif" font-size="13" lengthAdjust="spacing" textLength="47.1187" x="896" y="642.3481">en-tête</text>
    <text fill="#000000" font-family="sans-serif" font-size="13" lengthAdjust="spacing" textLength="114.5688" x="896" y="657.481">source : Proxy AB</text>
    <text fill="#000000" font-family="sans-serif" font-size="13" lengthAdjust="spacing" textLength="156.3174" x="896" y="672.6138">destination : payerDFSP</text>
    <text fill="#000000" font-family="sans-serif" font-size="13" lengthAdjust="spacing" textLength="152.2422" x="896" y="687.7466">JWS signé par Proxy AB</text>
    <text fill="#000000" font-family="sans-serif" font-size="13" lengthAdjust="spacing" textLength="142.0098" x="896" y="702.8794">Codes d&apos;erreur : 3100</text>
    <line style="stroke:#181818;stroke-width:1.0;" x1="883.3882" x2="873.3882" y1="737.0781" y2="733.0781"/>
    <line style="stroke:#181818;stroke-width:1.0;" x1="883.3882" x2="873.3882" y1="737.0781" y2="741.0781"/>
    <line style="stroke:#181818;stroke-width:1.0;stroke-dasharray:2.0,2.0;" x1="420.7773" x2="884.3882" y1="737.0781" y2="737.0781"/>
    <text fill="#000000" font-family="sans-serif" font-size="13" font-weight="bold" lengthAdjust="spacing" textLength="29.9736" x="427.7773" y="732.0122">[12]</text>
    <text fill="#000000" font-family="sans-serif" font-size="13" lengthAdjust="spacing" textLength="47.7026" x="461.751" y="732.0122">200 OK</text>
    <line style="stroke:#181818;stroke-width:1.0;" x1="198.8027" x2="208.8027" y1="766.2109" y2="762.2109"/>
    <line style="stroke:#181818;stroke-width:1.0;" x1="198.8027" x2="208.8027" y1="766.2109" y2="770.2109"/>
    <line style="stroke:#181818;stroke-width:1.0;" x1="197.8027" x2="419.7773" y1="766.2109" y2="766.2109"/>
    <text fill="#000000" font-family="sans-serif" font-size="13" font-weight="bold" lengthAdjust="spacing" textLength="29.9736" x="214.8027" y="761.145">[13]</text>
    <text fill="#000000" font-family="sans-serif" font-size="13" lengthAdjust="spacing" textLength="128.0195" x="248.7764" y="761.145">PUT /xxx/{ID}/error</text>
    <line style="stroke:#181818;stroke-width:1.0;" x1="418.7773" x2="408.7773" y1="795.3438" y2="791.3438"/>
    <line style="stroke:#181818;stroke-width:1.0;" x1="418.7773" x2="408.7773" y1="795.3438" y2="799.3438"/>
    <line style="stroke:#181818;stroke-width:1.0;stroke-dasharray:2.0,2.0;" x1="197.8027" x2="419.7773" y1="795.3438" y2="795.3438"/>
    <text fill="#000000" font-family="sans-serif" font-size="13" font-weight="bold" lengthAdjust="spacing" textLength="29.9736" x="204.8027" y="790.2778">[14]</text>
    <text fill="#000000" font-family="sans-serif" font-size="13" lengthAdjust="spacing" textLength="47.7026" x="238.7764" y="790.2778">200 OK</text>
    <line style="stroke:#181818;stroke-width:1.0;" x1="885.3882" x2="927.3882" y1="831.4766" y2="831.4766"/>
    <line style="stroke:#181818;stroke-width:1.0;" x1="927.3882" x2="927.3882" y1="831.4766" y2="844.4766"/>
    <line style="stroke:#181818;stroke-width:1.0;" x1="886.3882" x2="927.3882" y1="844.4766" y2="844.4766"/>
    <polygon fill="#181818" points="896.3882,840.4766,886.3882,844.4766,896.3882,848.4766,892.3882,844.4766" style="stroke:#181818;stroke-width:1.0;"/>
    <text fill="#000000" font-family="sans-serif" font-size="13" font-weight="bold" lengthAdjust="spacing" textLength="29.9736" x="892.3882" y="826.4106">[15]</text>
    <text fill="#000000" font-family="sans-serif" font-size="13" lengthAdjust="spacing" textLength="105.5742" x="926.3618" y="826.4106">Ajouter l&apos;en-tête</text>
    <path d="M687,818.8438 L687,843.8438 L879,843.8438 L879,828.8438 L869,818.8438 L687,818.8438 " fill="#FEFFDD" style="stroke:#181818;stroke-width:0.5;"/>
    <path d="M869,818.8438 L869,828.8438 L879,828.8438 L869,818.8438 " fill="#FEFFDD" style="stroke:#181818;stroke-width:0.5;"/>
    <text fill="#000000" font-family="sans-serif" font-size="13" lengthAdjust="spacing" textLength="171.5518" x="693" y="835.9106">fxpiop-proxy = &quot;Proxy AB&quot;</text>
    <line style="stroke:#181818;stroke-width:1.0;" x1="1115.4082" x2="1105.4082" y1="873.6094" y2="869.6094"/>
    <line style="stroke:#181818;stroke-width:1.0;" x1="1115.4082" x2="1105.4082" y1="873.6094" y2="877.6094"/>
    <line style="stroke:#181818;stroke-width:1.0;" x1="885.3882" x2="1116.4082" y1="873.6094" y2="873.6094"/>
    <text fill="#000000" font-family="sans-serif" font-size="13" font-weight="bold" lengthAdjust="spacing" textLength="29.9736" x="892.3882" y="868.5435">[16]</text>
    <text fill="#000000" font-family="sans-serif" font-size="13" lengthAdjust="spacing" textLength="174.0464" x="926.3618" y="868.5435">POST/GET/PATCH/PUT /xxx</text>
    <line style="stroke:#181818;stroke-width:1.0;" x1="886.3882" x2="896.3882" y1="902.7422" y2="898.7422"/>
    <line style="stroke:#181818;stroke-width:1.0;" x1="886.3882" x2="896.3882" y1="902.7422" y2="906.7422"/>
    <line style="stroke:#181818;stroke-width:1.0;stroke-dasharray:2.0,2.0;" x1="885.3882" x2="1116.4082" y1="902.7422" y2="902.7422"/>
    <text fill="#000000" font-family="sans-serif" font-size="13" font-weight="bold" lengthAdjust="spacing" textLength="29.9736" x="902.3882" y="897.6763">[17]</text>
    <text fill="#000000" font-family="sans-serif" font-size="13" lengthAdjust="spacing" textLength="47.7026" x="936.3618" y="897.6763">202 OK</text>
    <line style="stroke:#181818;stroke-width:1.0;" x1="421.7773" x2="431.7773" y1="931.875" y2="927.875"/>
    <line style="stroke:#181818;stroke-width:1.0;" x1="421.7773" x2="431.7773" y1="931.875" y2="935.875"/>
    <line style="stroke:#181818;stroke-width:1.0;stroke-dasharray:2.0,2.0;" x1="420.7773" x2="884.3882" y1="931.875" y2="931.875"/>
    <text fill="#000000" font-family="sans-serif" font-size="13" font-weight="bold" lengthAdjust="spacing" textLength="29.9736" x="437.7773" y="926.8091">[18]</text>
    <text fill="#000000" font-family="sans-serif" font-size="13" lengthAdjust="spacing" textLength="47.7026" x="471.751" y="926.8091">202 OK</text>
    <path d="M136,946.875 L200.4429,946.875 L200.4429,954.0078 L190.4429,964.0078 L136,964.0078 L136,946.875 " fill="#EEEEEE" style="stroke:#000000;stroke-width:1.5;"/>
    <rect fill="none" height="240.0625" style="stroke:#000000;stroke-width:1.5;" width="1314.5908" x="136" y="946.875"/>
    <text fill="#000000" font-family="sans-serif" font-size="13" font-weight="bold" lengthAdjust="spacing" textLength="19.4429" x="151" y="959.9419">alt</text>
    <text fill="#000000" font-family="sans-serif" font-size="11" font-weight="bold" lengthAdjust="spacing" textLength="196.7271" x="215.4429" y="959.0854">[en cas d&apos;erreur dans schémaB]</text>
    <line style="stroke:#181818;stroke-width:1.0;" x1="886.3882" x2="896.3882" y1="988.1406" y2="984.1406"/>
    <line style="stroke:#181818;stroke-width:1.0;" x1="886.3882" x2="896.3882" y1="988.1406" y2="992.1406"/>
    <line style="stroke:#181818;stroke-width:1.0;" x1="885.3882" x2="1116.4082" y1="988.1406" y2="988.1406"/>
    <text fill="#000000" font-family="sans-serif" font-size="13" font-weight="bold" lengthAdjust="spacing" textLength="29.9736" x="902.3882" y="983.0747">[19]</text>
    <text fill="#000000" font-family="sans-serif" font-size="13" lengthAdjust="spacing" textLength="128.0195" x="936.3618" y="983.0747">PUT /xxx/{ID}/error</text>
    <path d="M1122,969.0078 L1122,994.0078 L1435,994.0078 L1435,979.0078 L1425,969.0078 L1122,969.0078 " fill="#FEFFDD" style="stroke:#181818;stroke-width:0.5;"/>
    <path d="M1425,969.0078 L1425,979.0078 L1435,979.0078 L1425,969.0078 " fill="#FEFFDD" style="stroke:#181818;stroke-width:0.5;"/>
    <text fill="#000000" font-family="sans-serif" font-size="13" lengthAdjust="spacing" textLength="259.124" x="1128" y="986.0747">Codes d&apos;erreur : 2xxx, 3xxx, 4xxx, 5xxx</text>
    <line style="stroke:#181818;stroke-width:1.0;" x1="885.3882" x2="927.3882" y1="1020.2734" y2="1020.2734"/>
    <line style="stroke:#181818;stroke-width:1.0;" x1="927.3882" x2="927.3882" y1="1020.2734" y2="1033.2734"/>
    <line style="stroke:#181818;stroke-width:1.0;" x1="886.3882" x2="927.3882" y1="1033.2734" y2="1033.2734"/>
    <polygon fill="#181818" points="896.3882,1029.2734,886.3882,1033.2734,896.3882,1037.2734,892.3882,1033.2734" style="stroke:#181818;stroke-width:1.0;"/>
    <text fill="#000000" font-family="sans-serif" font-size="13" font-weight="bold" lengthAdjust="spacing" textLength="29.9736" x="892.3882" y="1015.2075">[20]</text>
    <text fill="#000000" font-family="sans-serif" font-size="13" lengthAdjust="spacing" textLength="105.5742" x="926.3618" y="1015.2075">Ajouter l&apos;en-tête</text>
    <path d="M687,1007.6406 L687,1032.6406 L879,1032.6406 L879,1017.6406 L869,1007.6406 L687,1007.6406 " fill="#FEFFDD" style="stroke:#181818;stroke-width:0.5;"/>
    <path d="M869,1007.6406 L869,1017.6406 L879,1017.6406 L869,1007.6406 " fill="#FEFFDD" style="stroke:#181818;stroke-width:0.5;"/>
    <text fill="#000000" font-family="sans-serif" font-size="13" lengthAdjust="spacing" textLength="171.5518" x="693" y="1024.7075">fxpiop-proxy = &quot;Proxy AB&quot;</text>
    <line style="stroke:#181818;stroke-width:1.0;" x1="421.7773" x2="431.7773" y1="1062.4063" y2="1058.4063"/>
    <line style="stroke:#181818;stroke-width:1.0;" x1="421.7773" x2="431.7773" y1="1062.4063" y2="1066.4063"/>
    <line style="stroke:#181818;stroke-width:1.0;" x1="420.7773" x2="884.3882" y1="1062.4063" y2="1062.4063"/>
    <text fill="#000000" font-family="sans-serif" font-size="13" font-weight="bold" lengthAdjust="spacing" textLength="29.9736" x="437.7773" y="1057.3403">[21]</text>
    <text fill="#000000" font-family="sans-serif" font-size="13" lengthAdjust="spacing" textLength="128.0195" x="471.751" y="1057.3403">PUT /xxx/{ID}/error</text>
    <line style="stroke:#181818;stroke-width:1.0;" x1="883.3882" x2="873.3882" y1="1091.5391" y2="1087.5391"/>
    <line style="stroke:#181818;stroke-width:1.0;" x1="883.3882" x2="873.3882" y1="1091.5391" y2="1095.5391"/>
    <line style="stroke:#181818;stroke-width:1.0;stroke-dasharray:2.0,2.0;" x1="420.7773" x2="884.3882" y1="1091.5391" y2="1091.5391"/>
    <text fill="#000000" font-family="sans-serif" font-size="13" font-weight="bold" lengthAdjust="spacing" textLength="29.9736" x="427.7773" y="1086.4731">[22]</text>
    <text fill="#000000" font-family="sans-serif" font-size="13" lengthAdjust="spacing" textLength="47.7026" x="461.751" y="1086.4731">200 OK</text>
    <line style="stroke:#181818;stroke-width:1.0;" x1="1115.4082" x2="1105.4082" y1="1120.6719" y2="1116.6719"/>
    <line style="stroke:#181818;stroke-width:1.0;" x1="1115.4082" x2="1105.4082" y1="1120.6719" y2="1124.6719"/>
    <line style="stroke:#181818;stroke-width:1.0;stroke-dasharray:2.0,2.0;" x1="885.3882" x2="1116.4082" y1="1120.6719" y2="1120.6719"/>
    <text fill="#000000" font-family="sans-serif" font-size="13" font-weight="bold" lengthAdjust="spacing" textLength="29.9736" x="892.3882" y="1115.606">[23]</text>
    <text fill="#000000" font-family="sans-serif" font-size="13" lengthAdjust="spacing" textLength="47.7026" x="926.3618" y="1115.606">200 OK</text>
    <line style="stroke:#181818;stroke-width:1.0;" x1="198.8027" x2="208.8027" y1="1149.8047" y2="1145.8047"/>
    <line style="stroke:#181818;stroke-width:1.0;" x1="198.8027" x2="208.8027" y1="1149.8047" y2="1153.8047"/>
    <line style="stroke:#181818;stroke-width:1.0;" x1="197.8027" x2="419.7773" y1="1149.8047" y2="1149.8047"/>
    <text fill="#000000" font-family="sans-serif" font-size="13" font-weight="bold" lengthAdjust="spacing" textLength="29.9736" x="214.8027" y="1144.7388">[24]</text>
    <text fill="#000000" font-family="sans-serif" font-size="13" lengthAdjust="spacing" textLength="128.0195" x="248.7764" y="1144.7388">PUT /xxx/{ID}/error</text>
    <line style="stroke:#181818;stroke-width:1.0;" x1="418.7773" x2="408.7773" y1="1178.9375" y2="1174.9375"/>
    <line style="stroke:#181818;stroke-width:1.0;" x1="418.7773" x2="408.7773" y1="1178.9375" y2="1182.9375"/>
    <line style="stroke:#181818;stroke-width:1.0;stroke-dasharray:2.0,2.0;" x1="197.8027" x2="419.7773" y1="1178.9375" y2="1178.9375"/>
    <text fill="#000000" font-family="sans-serif" font-size="13" font-weight="bold" lengthAdjust="spacing" textLength="29.9736" x="204.8027" y="1173.8716">[25]</text>
    <text fill="#000000" font-family="sans-serif" font-size="13" lengthAdjust="spacing" textLength="47.7026" x="238.7764" y="1173.8716">200 OK</text>
    <line style="stroke:#181818;stroke-width:1.0;" x1="1610.0371" x2="1600.0371" y1="1215.0703" y2="1211.0703"/>
    <line style="stroke:#181818;stroke-width:1.0;" x1="1610.0371" x2="1600.0371" y1="1215.0703" y2="1219.0703"/>
    <line style="stroke:#181818;stroke-width:1.0;" x1="1117.4082" x2="1611.0371" y1="1215.0703" y2="1215.0703"/>
    <text fill="#000000" font-family="sans-serif" font-size="13" font-weight="bold" lengthAdjust="spacing" textLength="29.9736" x="1124.4082" y="1210.0044">[26]</text>
    <text fill="#000000" font-family="sans-serif" font-size="13" lengthAdjust="spacing" textLength="174.0464" x="1158.3818" y="1210.0044">POST/GET/PATCH/PUT /xxx</text>
    <line style="stroke:#181818;stroke-width:1.0;" x1="1118.4082" x2="1128.4082" y1="1244.2031" y2="1240.2031"/>
    <line style="stroke:#181818;stroke-width:1.0;" x1="1118.4082" x2="1128.4082" y1="1244.2031" y2="1248.2031"/>
    <line style="stroke:#181818;stroke-width:1.0;stroke-dasharray:2.0,2.0;" x1="1117.4082" x2="1611.0371" y1="1244.2031" y2="1244.2031"/>
    <text fill="#000000" font-family="sans-serif" font-size="13" font-weight="bold" lengthAdjust="spacing" textLength="29.9736" x="1134.4082" y="1239.1372">[27]</text>
    <text fill="#000000" font-family="sans-serif" font-size="13" lengthAdjust="spacing" textLength="47.7026" x="1168.3818" y="1239.1372">200 OK</text>
    <path d="M136,1259.2031 L200.4429,1259.2031 L200.4429,1266.3359 L190.4429,1276.3359 L136,1276.3359 L136,1259.2031 " fill="#EEEEEE" style="stroke:#000000;stroke-width:1.5;"/>
    <rect fill="none" height="355.5938" style="stroke:#000000;stroke-width:1.5;" width="1724.1929" x="136" y="1259.2031"/>
    <text fill="#000000" font-family="sans-serif" font-size="13" font-weight="bold" lengthAdjust="spacing" textLength="19.4429" x="151" y="1272.27">alt</text>
    <text fill="#000000" font-family="sans-serif" font-size="11" font-weight="bold" lengthAdjust="spacing" textLength="211.1162" x="215.4429" y="1271.4136">[en cas d&apos;erreur dans payeeDFSP]</text>
    <line style="stroke:#181818;stroke-width:1.0;" x1="1118.4082" x2="1128.4082" y1="1308.0352" y2="1304.0352"/>
    <line style="stroke:#181818;stroke-width:1.0;" x1="1118.4082" x2="1128.4082" y1="1308.0352" y2="1312.0352"/>
    <line style="stroke:#181818;stroke-width:1.0;" x1="1117.4082" x2="1611.0371" y1="1308.0352" y2="1308.0352"/>
    <text fill="#000000" font-family="sans-serif" font-size="13" font-weight="bold" lengthAdjust="spacing" textLength="29.9736" x="1134.4082" y="1302.9692">[28]</text>
    <text fill="#000000" font-family="sans-serif" font-size="13" lengthAdjust="spacing" textLength="128.0195" x="1168.3818" y="1302.9692">PUT /xxx/{ID}/error</text>
    <path d="M1617,1281.3359 L1617,1321.3359 L1845,1321.3359 L1845,1291.3359 L1835,1281.3359 L1617,1281.3359 " fill="#FEFFDD" style="stroke:#181818;stroke-width:0.5;"/>
    <path d="M1835,1281.3359 L1835,1291.3359 L1845,1291.3359 L1835,1281.3359 " fill="#FEFFDD" style="stroke:#181818;stroke-width:0.5;"/>
    <text fill="#000000" font-family="sans-serif" font-size="13" lengthAdjust="spacing" textLength="207.1558" x="1623" y="1298.4028">en-tête destination : PayerDFSP</text>
    <text fill="#000000" font-family="sans-serif" font-size="13" lengthAdjust="spacing" textLength="140.2769" x="1623" y="1313.5356">Codes d&apos;erreur : 5xxx</text>
    <line style="stroke:#181818;stroke-width:1.0;" x1="1610.0371" x2="1600.0371" y1="1347.7344" y2="1343.7344"/>
    <line style="stroke:#181818;stroke-width:1.0;" x1="1610.0371" x2="1600.0371" y1="1347.7344" y2="1351.7344"/>
    <line style="stroke:#181818;stroke-width:1.0;stroke-dasharray:2.0,2.0;" x1="1117.4082" x2="1611.0371" y1="1347.7344" y2="1347.7344"/>
    <text fill="#000000" font-family="sans-serif" font-size="13" font-weight="bold" lengthAdjust="spacing" textLength="29.9736" x="1124.4082" y="1342.6685">[29]</text>
    <text fill="#000000" font-family="sans-serif" font-size="13" lengthAdjust="spacing" textLength="47.7026" x="1158.3818" y="1342.6685">200 OK</text>
    <line style="stroke:#181818;stroke-width:1.0;" x1="1117.4082" x2="1159.4082" y1="1376.8672" y2="1376.8672"/>
    <line style="stroke:#181818;stroke-width:1.0;" x1="1159.4082" x2="1159.4082" y1="1376.8672" y2="1389.8672"/>
    <line style="stroke:#181818;stroke-width:1.0;" x1="1118.4082" x2="1159.4082" y1="1389.8672" y2="1389.8672"/>
    <polygon fill="#181818" points="1128.4082,1385.8672,1118.4082,1389.8672,1128.4082,1393.8672,1124.4082,1389.8672" style="stroke:#181818;stroke-width:1.0;"/>
    <text fill="#000000" font-family="sans-serif" font-size="13" font-weight="bold" lengthAdjust="spacing" textLength="29.9736" x="1124.4082" y="1371.8013">[30]</text>
    <text fill="#000000" font-family="sans-serif" font-size="13" lengthAdjust="spacing" textLength="317.3511" x="1158.3818" y="1371.8013">Recherche du proxy pour payerDFSP = Proxy AB</text>
    <line style="stroke:#181818;stroke-width:1.0;" x1="886.3882" x2="896.3882" y1="1419" y2="1415"/>
    <line style="stroke:#181818;stroke-width:1.0;" x1="886.3882" x2="896.3882" y1="1419" y2="1423"/>
    <line style="stroke:#181818;stroke-width:1.0;" x1="885.3882" x2="1116.4082" y1="1419" y2="1419"/>
    <text fill="#000000" font-family="sans-serif" font-size="13" font-weight="bold" lengthAdjust="spacing" textLength="29.9736" x="902.3882" y="1413.9341">[31]</text>
    <text fill="#000000" font-family="sans-serif" font-size="13" lengthAdjust="spacing" textLength="128.0195" x="936.3618" y="1413.9341">PUT /xxx/{ID}/error</text>
    <line style="stroke:#181818;stroke-width:1.0;" x1="885.3882" x2="927.3882" y1="1448.1328" y2="1448.1328"/>
    <line style="stroke:#181818;stroke-width:1.0;" x1="927.3882" x2="927.3882" y1="1448.1328" y2="1461.1328"/>
    <line style="stroke:#181818;stroke-width:1.0;" x1="886.3882" x2="927.3882" y1="1461.1328" y2="1461.1328"/>
    <polygon fill="#181818" points="896.3882,1457.1328,886.3882,1461.1328,896.3882,1465.1328,892.3882,1461.1328" style="stroke:#181818;stroke-width:1.0;"/>
    <text fill="#000000" font-family="sans-serif" font-size="13" font-weight="bold" lengthAdjust="spacing" textLength="29.9736" x="892.3882" y="1443.0669">[32]</text>
    <text fill="#000000" font-family="sans-serif" font-size="13" lengthAdjust="spacing" textLength="105.5742" x="926.3618" y="1443.0669">Ajouter l&apos;en-tête</text>
    <path d="M687,1435.5 L687,1460.5 L879,1460.5 L879,1445.5 L869,1435.5 L687,1435.5 " fill="#FEFFDD" style="stroke:#181818;stroke-width:0.5;"/>
    <path d="M869,1435.5 L869,1445.5 L879,1445.5 L869,1435.5 " fill="#FEFFDD" style="stroke:#181818;stroke-width:0.5;"/>
    <text fill="#000000" font-family="sans-serif" font-size="13" lengthAdjust="spacing" textLength="171.5518" x="693" y="1452.5669">fxpiop-proxy = &quot;Proxy AB&quot;</text>
    <line style="stroke:#181818;stroke-width:1.0;" x1="421.7773" x2="431.7773" y1="1490.2656" y2="1486.2656"/>
    <line style="stroke:#181818;stroke-width:1.0;" x1="421.7773" x2="431.7773" y1="1490.2656" y2="1494.2656"/>
    <line style="stroke:#181818;stroke-width:1.0;" x1="420.7773" x2="884.3882" y1="1490.2656" y2="1490.2656"/>
    <text fill="#000000" font-family="sans-serif" font-size="13" font-weight="bold" lengthAdjust="spacing" textLength="29.9736" x="437.7773" y="1485.1997">[33]</text>
    <text fill="#000000" font-family="sans-serif" font-size="13" lengthAdjust="spacing" textLength="128.0195" x="471.751" y="1485.1997">PUT /xxx/{ID}/error</text>
    <line style="stroke:#181818;stroke-width:1.0;" x1="883.3882" x2="873.3882" y1="1519.3984" y2="1515.3984"/>
    <line style="stroke:#181818;stroke-width:1.0;" x1="883.3882" x2="873.3882" y1="1519.3984" y2="1523.3984"/>
    <line style="stroke:#181818;stroke-width:1.0;stroke-dasharray:2.0,2.0;" x1="420.7773" x2="884.3882" y1="1519.3984" y2="1519.3984"/>
    <text fill="#000000" font-family="sans-serif" font-size="13" font-weight="bold" lengthAdjust="spacing" textLength="29.9736" x="427.7773" y="1514.3325">[34]</text>
    <text fill="#000000" font-family="sans-serif" font-size="13" lengthAdjust="spacing" textLength="47.7026" x="461.751" y="1514.3325">200 OK</text>
    <line style="stroke:#181818;stroke-width:1.0;" x1="1115.4082" x2="1105.4082" y1="1548.5313" y2="1544.5313"/>
    <line style="stroke:#181818;stroke-width:1.0;" x1="1115.4082" x2="1105.4082" y1="1548.5313" y2="1552.5313"/>
    <line style="stroke:#181818;stroke-width:1.0;stroke-dasharray:2.0,2.0;" x1="885.3882" x2="1116.4082" y1="1548.5313" y2="1548.5313"/>
    <text fill="#000000" font-family="sans-serif" font-size="13" font-weight="bold" lengthAdjust="spacing" textLength="29.9736" x="892.3882" y="1543.4653">[35]</text>
    <text fill="#000000" font-family="sans-serif" font-size="13" lengthAdjust="spacing" textLength="47.7026" x="926.3618" y="1543.4653">200 OK</text>
    <line style="stroke:#181818;stroke-width:1.0;" x1="198.8027" x2="208.8027" y1="1577.6641" y2="1573.6641"/>
    <line style="stroke:#181818;stroke-width:1.0;" x1="198.8027" x2="208.8027" y1="1577.6641" y2="1581.6641"/>
    <line style="stroke:#181818;stroke-width:1.0;" x1="197.8027" x2="419.7773" y1="1577.6641" y2="1577.6641"/>
    <text fill="#000000" font-family="sans-serif" font-size="13" font-weight="bold" lengthAdjust="spacing" textLength="29.9736" x="214.8027" y="1572.5981">[36]</text>
    <text fill="#000000" font-family="sans-serif" font-size="13" lengthAdjust="spacing" textLength="128.0195" x="248.7764" y="1572.5981">PUT /xxx/{ID}/error</text>
    <line style="stroke:#181818;stroke-width:1.0;" x1="418.7773" x2="408.7773" y1="1606.7969" y2="1602.7969"/>
    <line style="stroke:#181818;stroke-width:1.0;" x1="418.7773" x2="408.7773" y1="1606.7969" y2="1610.7969"/>
    <line style="stroke:#181818;stroke-width:1.0;stroke-dasharray:2.0,2.0;" x1="197.8027" x2="419.7773" y1="1606.7969" y2="1606.7969"/>
    <text fill="#000000" font-family="sans-serif" font-size="13" font-weight="bold" lengthAdjust="spacing" textLength="29.9736" x="204.8027" y="1601.731">[37]</text>
    <text fill="#000000" font-family="sans-serif" font-size="13" lengthAdjust="spacing" textLength="47.7026" x="238.7764" y="1601.731">200 OK</text>
  </g>
</svg>
