<?xml version="1.0" encoding="us-ascii" standalone="no"?><svg xmlns="http://www.w3.org/2000/svg" xmlns:xlink="http://www.w3.org/1999/xlink" contentStyleType="text/css" height="1038px" preserveAspectRatio="none" style="width:1542px;height:1038px;background:#FFFFFF;" version="1.1" viewBox="0 0 1542 1038" width="1542px" zoomAndPan="magnify"><defs/><g><text fill="#000000" font-family="sans-serif" font-size="14" font-weight="bold" lengthAdjust="spacing" textLength="178" x="683.25" y="29.5332">Interscheme - Agreement</text><rect fill="#ADD8E6" height="987.7422" style="stroke:#181818;stroke-width:0.5;" width="383" x="323" y="44.6094"/><text fill="#000000" font-family="sans-serif" font-size="13" font-weight="bold" lengthAdjust="spacing" textLength="65" x="480" y="58.1045">Scheme A</text><rect fill="#D1E0C3" height="987.7422" style="stroke:#181818;stroke-width:0.5;" width="387" x="866.5" y="44.6094"/><text fill="#000000" font-family="sans-serif" font-size="13" font-weight="bold" lengthAdjust="spacing" textLength="65" x="1025.5" y="58.1045">Scheme B</text><line style="stroke:#181818;stroke-width:0.5;stroke-dasharray:5.0,5.0;" x1="241" x2="241" y1="115.1797" y2="979.1328"/><line style="stroke:#181818;stroke-width:0.5;stroke-dasharray:5.0,5.0;" x1="366" x2="366" y1="115.1797" y2="979.1328"/><line style="stroke:#181818;stroke-width:0.5;stroke-dasharray:5.0,5.0;" x1="655" x2="655" y1="115.1797" y2="979.1328"/><line style="stroke:#181818;stroke-width:0.5;stroke-dasharray:5.0,5.0;" x1="747" x2="747" y1="115.1797" y2="979.1328"/><line style="stroke:#181818;stroke-width:0.5;stroke-dasharray:5.0,5.0;" x1="909.5" x2="909.5" y1="115.1797" y2="979.1328"/><line style="stroke:#181818;stroke-width:0.5;stroke-dasharray:5.0,5.0;" x1="1202.5" x2="1202.5" y1="115.1797" y2="979.1328"/><line style="stroke:#181818;stroke-width:0.5;stroke-dasharray:5.0,5.0;" x1="1302.5" x2="1302.5" y1="115.1797" y2="979.1328"/><rect fill="#E2E2F0" height="31.6094" rx="2.5" ry="2.5" style="stroke:#181818;stroke-width:0.5;" width="92" x="195" y="82.5703"/><text fill="#000000" font-family="sans-serif" font-size="14" lengthAdjust="spacing" textLength="78" x="202" y="104.1035">Payer DFSP</text><rect fill="#E2E2F0" height="31.6094" rx="2.5" ry="2.5" style="stroke:#181818;stroke-width:0.5;" width="92" x="195" y="978.1328"/><text fill="#000000" font-family="sans-serif" font-size="14" lengthAdjust="spacing" textLength="78" x="202" y="999.666">Payer DFSP</text><rect fill="#E2E2F0" height="49.2188" rx="2.5" ry="2.5" style="stroke:#181818;stroke-width:0.5;" width="78" x="327" y="64.9609"/><text fill="#000000" font-family="sans-serif" font-size="14" lengthAdjust="spacing" textLength="57" x="337.5" y="86.4941">Mojaloop</text><text fill="#000000" font-family="sans-serif" font-size="14" lengthAdjust="spacing" textLength="64" x="334" y="104.1035">Scheme A</text><rect fill="#E2E2F0" height="49.2188" rx="2.5" ry="2.5" style="stroke:#181818;stroke-width:0.5;" width="78" x="327" y="978.1328"/><text fill="#000000" font-family="sans-serif" font-size="14" lengthAdjust="spacing" textLength="57" x="337.5" y="999.666">Mojaloop</text><text fill="#000000" font-family="sans-serif" font-size="14" lengthAdjust="spacing" textLength="64" x="334" y="1017.2754">Scheme A</text><rect fill="#E2E2F0" height="49.2188" rx="2.5" ry="2.5" style="stroke:#181818;stroke-width:0.5;" width="94" x="608" y="64.9609"/><text fill="#000000" font-family="sans-serif" font-size="14" lengthAdjust="spacing" textLength="80" x="615" y="86.4941">Proxy Cache</text><text fill="#000000" font-family="sans-serif" font-size="14" lengthAdjust="spacing" textLength="64" x="623" y="104.1035">Scheme A</text><rect fill="#E2E2F0" height="49.2188" rx="2.5" ry="2.5" style="stroke:#181818;stroke-width:0.5;" width="94" x="608" y="978.1328"/><text fill="#000000" font-family="sans-serif" font-size="14" lengthAdjust="spacing" textLength="80" x="615" y="999.666">Proxy Cache</text><text fill="#000000" font-family="sans-serif" font-size="14" lengthAdjust="spacing" textLength="64" x="623" y="1017.2754">Scheme A</text><rect fill="#E2E2F0" height="31.6094" rx="2.5" ry="2.5" style="stroke:#181818;stroke-width:0.5;" width="71" x="712" y="82.5703"/><text fill="#000000" font-family="sans-serif" font-size="14" lengthAdjust="spacing" textLength="57" x="719" y="104.1035">Proxy AB</text><rect fill="#E2E2F0" height="31.6094" rx="2.5" ry="2.5" style="stroke:#181818;stroke-width:0.5;" width="71" x="712" y="978.1328"/><text fill="#000000" font-family="sans-serif" font-size="14" lengthAdjust="spacing" textLength="57" x="719" y="999.666">Proxy AB</text><rect fill="#E2E2F0" height="49.2188" rx="2.5" ry="2.5" style="stroke:#181818;stroke-width:0.5;" width="78" x="870.5" y="64.9609"/><text fill="#000000" font-family="sans-serif" font-size="14" lengthAdjust="spacing" textLength="57" x="881" y="86.4941">Mojaloop</text><text fill="#000000" font-family="sans-serif" font-size="14" lengthAdjust="spacing" textLength="64" x="877.5" y="104.1035">Scheme B</text><rect fill="#E2E2F0" height="49.2188" rx="2.5" ry="2.5" style="stroke:#181818;stroke-width:0.5;" width="78" x="870.5" y="978.1328"/><text fill="#000000" font-family="sans-serif" font-size="14" lengthAdjust="spacing" textLength="57" x="881" y="999.666">Mojaloop</text><text fill="#000000" font-family="sans-serif" font-size="14" lengthAdjust="spacing" textLength="64" x="877.5" y="1017.2754">Scheme B</text><rect fill="#E2E2F0" height="49.2188" rx="2.5" ry="2.5" style="stroke:#181818;stroke-width:0.5;" width="94" x="1155.5" y="64.9609"/><text fill="#000000" font-family="sans-serif" font-size="14" lengthAdjust="spacing" textLength="80" x="1162.5" y="86.4941">Proxy Cache</text><text fill="#000000" font-family="sans-serif" font-size="14" lengthAdjust="spacing" textLength="64" x="1170.5" y="104.1035">Scheme B</text><rect fill="#E2E2F0" height="49.2188" rx="2.5" ry="2.5" style="stroke:#181818;stroke-width:0.5;" width="94" x="1155.5" y="978.1328"/><text fill="#000000" font-family="sans-serif" font-size="14" lengthAdjust="spacing" textLength="80" x="1162.5" y="999.666">Proxy Cache</text><text fill="#000000" font-family="sans-serif" font-size="14" lengthAdjust="spacing" textLength="64" x="1170.5" y="1017.2754">Scheme B</text><rect fill="#E2E2F0" height="31.6094" rx="2.5" ry="2.5" style="stroke:#181818;stroke-width:0.5;" width="86" x="1259.5" y="82.5703"/><text fill="#000000" font-family="sans-serif" font-size="14" lengthAdjust="spacing" textLength="72" x="1266.5" y="104.1035">Payee DFS</text><rect fill="#E2E2F0" height="31.6094" rx="2.5" ry="2.5" style="stroke:#181818;stroke-width:0.5;" width="86" x="1259.5" y="978.1328"/><text fill="#000000" font-family="sans-serif" font-size="14" lengthAdjust="spacing" textLength="72" x="1266.5" y="999.666">Payee DFS</text><line style="stroke:#181818;stroke-width:1.0;" x1="364" x2="354" y1="147.5313" y2="143.5313"/><line style="stroke:#181818;stroke-width:1.0;" x1="364" x2="354" y1="147.5313" y2="151.5313"/><line style="stroke:#181818;stroke-width:1.0;" x1="241" x2="365" y1="147.5313" y2="147.5313"/><text fill="#000000" font-family="sans-serif" font-size="13" font-weight="bold" lengthAdjust="spacing" textLength="15" x="248" y="142.6748">[1]</text><text fill="#000000" font-family="sans-serif" font-size="13" lengthAdjust="spacing" textLength="82" x="267" y="142.6748">POST /quotes</text><line style="stroke:#181818;stroke-width:1.0;" x1="242" x2="252" y1="205.4102" y2="201.4102"/><line style="stroke:#181818;stroke-width:1.0;" x1="242" x2="252" y1="205.4102" y2="209.4102"/><line style="stroke:#181818;stroke-width:1.0;stroke-dasharray:2.0,2.0;" x1="241" x2="365" y1="205.4102" y2="205.4102"/><text fill="#000000" font-family="sans-serif" font-size="13" font-weight="bold" lengthAdjust="spacing" textLength="15" x="258" y="200.5537">[2]</text><text fill="#000000" font-family="sans-serif" font-size="13" lengthAdjust="spacing" textLength="44" x="277" y="200.5537">202 OK</text><path d="M56,160.5313 L56,235.5313 L236,235.5313 L236,170.5313 L226,160.5313 L56,160.5313 " fill="#FEFFDD" style="stroke:#181818;stroke-width:0.5;"/><path d="M226,160.5313 L226,170.5313 L236,170.5313 L226,160.5313 " fill="#FEFFDD" style="stroke:#181818;stroke-width:0.5;"/><text fill="#000000" font-family="sans-serif" font-size="13" lengthAdjust="spacing" textLength="39" x="62" y="179.0264">header</text><text fill="#000000" font-family="sans-serif" font-size="13" lengthAdjust="spacing" textLength="114" x="70" y="195.3779">source: payerDFSP</text><text fill="#000000" font-family="sans-serif" font-size="13" lengthAdjust="spacing" textLength="141" x="70" y="211.7295">destination: payeeDFSP</text><text fill="#000000" font-family="sans-serif" font-size="13" lengthAdjust="spacing" textLength="159" x="62" y="228.0811">JWS signed by payerDFSP</text><polygon fill="#181818" points="643,275.6406,653,279.6406,643,283.6406,647,279.6406" style="stroke:#181818;stroke-width:1.0;"/><line style="stroke:#181818;stroke-width:1.0;" x1="366" x2="649" y1="279.6406" y2="279.6406"/><text fill="#000000" font-family="sans-serif" font-size="13" font-weight="bold" lengthAdjust="spacing" textLength="15" x="373" y="266.6084">[3]</text><text fill="#000000" font-family="sans-serif" font-size="13" lengthAdjust="spacing" textLength="153" x="392" y="258.4326">Destination not in Scheme</text><text fill="#000000" font-family="sans-serif" font-size="13" lengthAdjust="spacing" textLength="242" x="396" y="274.7842">Lookup proxy for payeeDFSP = Proxy AB</text><line style="stroke:#181818;stroke-width:1.0;" x1="745.5" x2="735.5" y1="309.9922" y2="305.9922"/><line style="stroke:#181818;stroke-width:1.0;" x1="745.5" x2="735.5" y1="309.9922" y2="313.9922"/><line style="stroke:#181818;stroke-width:1.0;" x1="366" x2="746.5" y1="309.9922" y2="309.9922"/><text fill="#000000" font-family="sans-serif" font-size="13" font-weight="bold" lengthAdjust="spacing" textLength="15" x="373" y="305.1357">[4]</text><text fill="#000000" font-family="sans-serif" font-size="13" lengthAdjust="spacing" textLength="82" x="392" y="305.1357">POST /quotes</text><line style="stroke:#181818;stroke-width:1.0;" x1="907.5" x2="897.5" y1="384.2227" y2="380.2227"/><line style="stroke:#181818;stroke-width:1.0;" x1="907.5" x2="897.5" y1="384.2227" y2="388.2227"/><line style="stroke:#181818;stroke-width:1.0;" x1="747.5" x2="908.5" y1="384.2227" y2="384.2227"/><text fill="#000000" font-family="sans-serif" font-size="13" font-weight="bold" lengthAdjust="spacing" textLength="15" x="754.5" y="371.1904">[5]</text><text fill="#000000" font-family="sans-serif" font-size="13" lengthAdjust="spacing" textLength="82" x="773.5" y="363.0146">POST /quotes</text><text fill="#000000" font-family="sans-serif" font-size="13" lengthAdjust="spacing" textLength="119" x="773.5" y="379.3662">message unmodified</text><path d="M562,322.9922 L562,413.9922 L742,413.9922 L742,332.9922 L732,322.9922 L562,322.9922 " fill="#FEFFDD" style="stroke:#181818;stroke-width:0.5;"/><path d="M732,322.9922 L732,332.9922 L742,332.9922 L732,322.9922 " fill="#FEFFDD" style="stroke:#181818;stroke-width:0.5;"/><text fill="#000000" font-family="sans-serif" font-size="13" lengthAdjust="spacing" textLength="39" x="568" y="341.4873">header</text><text fill="#000000" font-family="sans-serif" font-size="13" lengthAdjust="spacing" textLength="114" x="576" y="357.8389">source: payerDFSP</text><text fill="#000000" font-family="sans-serif" font-size="13" lengthAdjust="spacing" textLength="141" x="576" y="374.1904">destination: payeeDFSP</text><text fill="#000000" font-family="sans-serif" font-size="13" lengthAdjust="spacing" textLength="128" x="576" y="390.542">fxpiop-proxy: proxyAB</text><text fill="#000000" font-family="sans-serif" font-size="13" lengthAdjust="spacing" textLength="159" x="568" y="406.8936">JWS signed by payerDFSP</text><line style="stroke:#181818;stroke-width:1.0;" x1="748.5" x2="758.5" y1="442.1016" y2="438.1016"/><line style="stroke:#181818;stroke-width:1.0;" x1="748.5" x2="758.5" y1="442.1016" y2="446.1016"/><line style="stroke:#181818;stroke-width:1.0;stroke-dasharray:2.0,2.0;" x1="747.5" x2="908.5" y1="442.1016" y2="442.1016"/><text fill="#000000" font-family="sans-serif" font-size="13" font-weight="bold" lengthAdjust="spacing" textLength="15" x="764.5" y="437.2451">[6]</text><text fill="#000000" font-family="sans-serif" font-size="13" lengthAdjust="spacing" textLength="44" x="783.5" y="437.2451">202 OK</text><line style="stroke:#181818;stroke-width:1.0;" x1="367" x2="377" y1="472.4531" y2="468.4531"/><line style="stroke:#181818;stroke-width:1.0;" x1="367" x2="377" y1="472.4531" y2="476.4531"/><line style="stroke:#181818;stroke-width:1.0;stroke-dasharray:2.0,2.0;" x1="366" x2="746.5" y1="472.4531" y2="472.4531"/><text fill="#000000" font-family="sans-serif" font-size="13" font-weight="bold" lengthAdjust="spacing" textLength="15" x="383" y="467.5967">[7]</text><text fill="#000000" font-family="sans-serif" font-size="13" lengthAdjust="spacing" textLength="44" x="402" y="467.5967">202 OK</text><line style="stroke:#181818;stroke-width:1.0;" x1="1300.5" x2="1290.5" y1="502.8047" y2="498.8047"/><line style="stroke:#181818;stroke-width:1.0;" x1="1300.5" x2="1290.5" y1="502.8047" y2="506.8047"/><line style="stroke:#181818;stroke-width:1.0;" x1="909.5" x2="1301.5" y1="502.8047" y2="502.8047"/><text fill="#000000" font-family="sans-serif" font-size="13" font-weight="bold" lengthAdjust="spacing" textLength="15" x="916.5" y="497.9482">[8]</text><text fill="#000000" font-family="sans-serif" font-size="13" lengthAdjust="spacing" textLength="82" x="935.5" y="497.9482">POST /quotes</text><line style="stroke:#181818;stroke-width:1.0;" x1="910.5" x2="920.5" y1="536.1563" y2="532.1563"/><line style="stroke:#181818;stroke-width:1.0;" x1="910.5" x2="920.5" y1="536.1563" y2="540.1563"/><line style="stroke:#181818;stroke-width:1.0;stroke-dasharray:2.0,2.0;" x1="909.5" x2="1301.5" y1="536.1563" y2="536.1563"/><text fill="#000000" font-family="sans-serif" font-size="13" font-weight="bold" lengthAdjust="spacing" textLength="15" x="926.5" y="531.2998">[9]</text><text fill="#000000" font-family="sans-serif" font-size="13" lengthAdjust="spacing" textLength="44" x="945.5" y="531.2998">202 OK</text><path d="M1307,515.8047 L1307,541.8047 L1535,541.8047 L1535,525.8047 L1525,515.8047 L1307,515.8047 " fill="#FEFFDD" style="stroke:#181818;stroke-width:0.5;"/><path d="M1525,515.8047 L1525,525.8047 L1535,525.8047 L1525,515.8047 " fill="#FEFFDD" style="stroke:#181818;stroke-width:0.5;"/><text fill="#000000" font-family="sans-serif" font-size="13" lengthAdjust="spacing" textLength="207" x="1313" y="534.2998">Checks JWS signed by payerDFSP</text><line style="stroke:#181818;stroke-width:1.0;" x1="910.5" x2="920.5" y1="597.0352" y2="593.0352"/><line style="stroke:#181818;stroke-width:1.0;" x1="910.5" x2="920.5" y1="597.0352" y2="601.0352"/><line style="stroke:#181818;stroke-width:1.0;" x1="909.5" x2="1301.5" y1="597.0352" y2="597.0352"/><text fill="#000000" font-family="sans-serif" font-size="13" font-weight="bold" lengthAdjust="spacing" textLength="22" x="926.5" y="592.1787">[10]</text><text fill="#000000" font-family="sans-serif" font-size="13" lengthAdjust="spacing" textLength="72" x="952.5" y="592.1787">PUT /quotes</text><path d="M1307,552.1563 L1307,627.1563 L1490,627.1563 L1490,562.1563 L1480,552.1563 L1307,552.1563 " fill="#FEFFDD" style="stroke:#181818;stroke-width:0.5;"/><path d="M1480,552.1563 L1480,562.1563 L1490,562.1563 L1480,552.1563 " fill="#FEFFDD" style="stroke:#181818;stroke-width:0.5;"/><text fill="#000000" font-family="sans-serif" font-size="13" lengthAdjust="spacing" textLength="39" x="1313" y="570.6514">header</text><text fill="#000000" font-family="sans-serif" font-size="13" lengthAdjust="spacing" textLength="117" x="1321" y="587.0029">source: payeeDFSP</text><text fill="#000000" font-family="sans-serif" font-size="13" lengthAdjust="spacing" textLength="138" x="1321" y="603.3545">destination: payerDFSP</text><text fill="#000000" font-family="sans-serif" font-size="13" lengthAdjust="spacing" textLength="162" x="1313" y="619.7061">JWS signed by payeeDFSP</text><line style="stroke:#181818;stroke-width:1.0;" x1="1300.5" x2="1290.5" y1="654.9141" y2="650.9141"/><line style="stroke:#181818;stroke-width:1.0;" x1="1300.5" x2="1290.5" y1="654.9141" y2="658.9141"/><line style="stroke:#181818;stroke-width:1.0;stroke-dasharray:2.0,2.0;" x1="909.5" x2="1301.5" y1="654.9141" y2="654.9141"/><text fill="#000000" font-family="sans-serif" font-size="13" font-weight="bold" lengthAdjust="spacing" textLength="22" x="916.5" y="650.0576">[11]</text><text fill="#000000" font-family="sans-serif" font-size="13" lengthAdjust="spacing" textLength="44" x="942.5" y="650.0576">200 OK</text><polygon fill="#181818" points="1190.5,697.6172,1200.5,701.6172,1190.5,705.6172,1194.5,701.6172" style="stroke:#181818;stroke-width:1.0;"/><line style="stroke:#181818;stroke-width:1.0;" x1="909.5" x2="1196.5" y1="701.6172" y2="701.6172"/><text fill="#000000" font-family="sans-serif" font-size="13" font-weight="bold" lengthAdjust="spacing" textLength="22" x="916.5" y="688.585">[12]</text><text fill="#000000" font-family="sans-serif" font-size="13" lengthAdjust="spacing" textLength="153" x="942.5" y="680.4092">Destination not in Scheme</text><text fill="#000000" font-family="sans-serif" font-size="13" lengthAdjust="spacing" textLength="239" x="946.5" y="696.7607">Lookup proxy for payerDFSP = Proxy AB</text><line style="stroke:#181818;stroke-width:1.0;" x1="748.5" x2="758.5" y1="731.9688" y2="727.9688"/><line style="stroke:#181818;stroke-width:1.0;" x1="748.5" x2="758.5" y1="731.9688" y2="735.9688"/><line style="stroke:#181818;stroke-width:1.0;" x1="747.5" x2="908.5" y1="731.9688" y2="731.9688"/><text fill="#000000" font-family="sans-serif" font-size="13" font-weight="bold" lengthAdjust="spacing" textLength="22" x="764.5" y="727.1123">[13]</text><text fill="#000000" font-family="sans-serif" font-size="13" lengthAdjust="spacing" textLength="72" x="790.5" y="727.1123">PUT /quotes</text><line style="stroke:#181818;stroke-width:1.0;" x1="367" x2="377" y1="806.1992" y2="802.1992"/><line style="stroke:#181818;stroke-width:1.0;" x1="367" x2="377" y1="806.1992" y2="810.1992"/><line style="stroke:#181818;stroke-width:1.0;" x1="366" x2="746.5" y1="806.1992" y2="806.1992"/><text fill="#000000" font-family="sans-serif" font-size="13" font-weight="bold" lengthAdjust="spacing" textLength="22" x="383" y="793.167">[14]</text><text fill="#000000" font-family="sans-serif" font-size="13" lengthAdjust="spacing" textLength="72" x="409" y="784.9912">PUT /quotes</text><text fill="#000000" font-family="sans-serif" font-size="13" lengthAdjust="spacing" textLength="119" x="409" y="801.3428">message unmodified</text><path d="M752,744.9688 L752,835.9688 L935,835.9688 L935,754.9688 L925,744.9688 L752,744.9688 " fill="#FEFFDD" style="stroke:#181818;stroke-width:0.5;"/><path d="M925,744.9688 L925,754.9688 L935,754.9688 L925,744.9688 " fill="#FEFFDD" style="stroke:#181818;stroke-width:0.5;"/><text fill="#000000" font-family="sans-serif" font-size="13" lengthAdjust="spacing" textLength="39" x="758" y="763.4639">header</text><text fill="#000000" font-family="sans-serif" font-size="13" lengthAdjust="spacing" textLength="117" x="766" y="779.8154">source: payeeDFSP</text><text fill="#000000" font-family="sans-serif" font-size="13" lengthAdjust="spacing" textLength="138" x="766" y="796.167">destination: payerDFSP</text><text fill="#000000" font-family="sans-serif" font-size="13" lengthAdjust="spacing" textLength="128" x="766" y="812.5186">fxpiop-proxy: proxyAB</text><text fill="#000000" font-family="sans-serif" font-size="13" lengthAdjust="spacing" textLength="162" x="758" y="828.8701">JWS signed by payeeDFSP</text><line style="stroke:#181818;stroke-width:1.0;" x1="745.5" x2="735.5" y1="864.0781" y2="860.0781"/><line style="stroke:#181818;stroke-width:1.0;" x1="745.5" x2="735.5" y1="864.0781" y2="868.0781"/><line style="stroke:#181818;stroke-width:1.0;stroke-dasharray:2.0,2.0;" x1="366" x2="746.5" y1="864.0781" y2="864.0781"/><text fill="#000000" font-family="sans-serif" font-size="13" font-weight="bold" lengthAdjust="spacing" textLength="22" x="373" y="859.2217">[15]</text><text fill="#000000" font-family="sans-serif" font-size="13" lengthAdjust="spacing" textLength="44" x="399" y="859.2217">200 OK</text><line style="stroke:#181818;stroke-width:1.0;" x1="907.5" x2="897.5" y1="894.4297" y2="890.4297"/><line style="stroke:#181818;stroke-width:1.0;" x1="907.5" x2="897.5" y1="894.4297" y2="898.4297"/><line style="stroke:#181818;stroke-width:1.0;stroke-dasharray:2.0,2.0;" x1="747.5" x2="908.5" y1="894.4297" y2="894.4297"/><text fill="#000000" font-family="sans-serif" font-size="13" font-weight="bold" lengthAdjust="spacing" textLength="22" x="754.5" y="889.5732">[16]</text><text fill="#000000" font-family="sans-serif" font-size="13" lengthAdjust="spacing" textLength="44" x="780.5" y="889.5732">200 OK</text><line style="stroke:#181818;stroke-width:1.0;" x1="242" x2="252" y1="927.7813" y2="923.7813"/><line style="stroke:#181818;stroke-width:1.0;" x1="242" x2="252" y1="927.7813" y2="931.7813"/><line style="stroke:#181818;stroke-width:1.0;" x1="241" x2="365" y1="927.7813" y2="927.7813"/><text fill="#000000" font-family="sans-serif" font-size="13" font-weight="bold" lengthAdjust="spacing" textLength="22" x="258" y="922.9248">[17]</text><text fill="#000000" font-family="sans-serif" font-size="13" lengthAdjust="spacing" textLength="72" x="284" y="922.9248">PUT /quotes</text><path d="M5,907.4297 L5,933.4297 L236,933.4297 L236,917.4297 L226,907.4297 L5,907.4297 " fill="#FEFFDD" style="stroke:#181818;stroke-width:0.5;"/><path d="M226,907.4297 L226,917.4297 L236,917.4297 L226,907.4297 " fill="#FEFFDD" style="stroke:#181818;stroke-width:0.5;"/><text fill="#000000" font-family="sans-serif" font-size="13" lengthAdjust="spacing" textLength="210" x="11" y="925.9248">Checks JWS signed by payeeDFSP</text><line style="stroke:#181818;stroke-width:1.0;" x1="364" x2="354" y1="961.1328" y2="957.1328"/><line style="stroke:#181818;stroke-width:1.0;" x1="364" x2="354" y1="961.1328" y2="965.1328"/><line style="stroke:#181818;stroke-width:1.0;stroke-dasharray:2.0,2.0;" x1="241" x2="365" y1="961.1328" y2="961.1328"/><text fill="#000000" font-family="sans-serif" font-size="13" font-weight="bold" lengthAdjust="spacing" textLength="22" x="248" y="956.2764">[18]</text><text fill="#000000" font-family="sans-serif" font-size="13" lengthAdjust="spacing" textLength="44" x="274" y="956.2764">200 OK</text><!--SRC=[fPHTRvim58Rl_IkEqciqcjsX3GctchIjKv6oQXVBD3bmadXDR0-CbFpxsOu1Gq6DrZkmpyTxdlE2vlg0y5behEfYZqU42B9TXUP9Q4A8OfNc1LTCQ5Zax8mLt7zQvGjWDIZxQj_8HfvWTKdFuEQ1x_QQ7Xea08FyR_8FEqYfrg8DTdKkZRDnT5x9qndkcBaT9QZYTqPGb63waecSZBgmar2XCWetvIt6nVjNPT505hr65crbqHbPXXHQS1qtTDm8QxGKpN5ZiDx2uiCc_Hd_MbZgdYn4QThoII1_N7s7TtyRgR4c_XGY6z8b9B2Cb_3ubGWJ10VSQh97LfhwPevQDbM1IR0uW19hpGNJN8eaKFRbnmfglXDefZa72NOyMxfldxfr973V5x8Hm8K7lnRm8ELpeq0vT5jPzOtW8xGx2qgcTdUZUSr9G8CERzVYY7NDTWYDECgIRpcMRqK0i3qfBbNaP2SNzKRcbMZePJDk4ByJDy9We_x2PvYhhlre-kxSvdS8mbrNzgiZTtiidcjuLMDVBoYNF_KDWvhJz72ENZLZ89oa50s7NiPn0CIxY_w7kwffTrd65syz3QpLOSW6L_E-UWEQwuqrYIoBsXayB2j_w8g0OURv-h_3YnMxxsFMDVZIDVw_DBAnwqZ-0G00]--></g></svg>