<svg xmlns="http://www.w3.org/2000/svg" xmlns:xlink="http://www.w3.org/1999/xlink" contentStyleType="text/css" height="989px" preserveAspectRatio="none" style="width:1824px;height:989px;background:#FFFFFF;" version="1.1" viewBox="0 0 1824 989" width="1824px" zoomAndPan="magnify">
  <title>Inter-schéma — accord</title>
  <defs/>
  <g>
    <text fill="#000000" font-family="sans-serif" font-size="14" font-weight="bold" lengthAdjust="spacing" textLength="180.5439" x="823.3889" y="27.9951">Inter-schéma — accord</text>
    <rect fill="#ADD8E6" height="939.8359" style="stroke:#181818;stroke-width:0.5;" width="474.1055" x="349.7397" y="43.2969"/>
    <text fill="#000000" font-family="sans-serif" font-size="13" font-weight="bold" lengthAdjust="spacing" textLength="72.0459" x="548.5066" y="55.3638">Schéma A</text>
    <rect fill="#D1E0C3" height="939.8359" style="stroke:#181818;stroke-width:0.5;" width="480.5112" x="1010.8735" y="43.2969"/>
    <text fill="#000000" font-family="sans-serif" font-size="13" font-weight="bold" lengthAdjust="spacing" textLength="71.8936" x="1212.9194" y="55.3638">Schéma B</text>
    <line style="stroke:#181818;stroke-width:0.5;stroke-dasharray:5.0,5.0;" x1="259" x2="259" y1="110.0234" y2="932.5391"/>
    <line style="stroke:#181818;stroke-width:0.5;stroke-dasharray:5.0,5.0;" x1="395.7397" x2="395.7397" y1="110.0234" y2="932.5391"/>
    <line style="stroke:#181818;stroke-width:0.5;stroke-dasharray:5.0,5.0;" x1="768.0786" x2="768.0786" y1="110.0234" y2="932.5391"/>
    <line style="stroke:#181818;stroke-width:0.5;stroke-dasharray:5.0,5.0;" x1="867.8452" x2="867.8452" y1="110.0234" y2="932.5391"/>
    <line style="stroke:#181818;stroke-width:0.5;stroke-dasharray:5.0,5.0;" x1="1056.8735" x2="1056.8735" y1="110.0234" y2="932.5391"/>
    <line style="stroke:#181818;stroke-width:0.5;stroke-dasharray:5.0,5.0;" x1="1435.6182" x2="1435.6182" y1="110.0234" y2="932.5391"/>
    <line style="stroke:#181818;stroke-width:0.5;stroke-dasharray:5.0,5.0;" x1="1565.3848" x2="1565.3848" y1="110.0234" y2="932.5391"/>
    <rect fill="#E2E2F0" height="30.2969" rx="2.5" ry="2.5" style="stroke:#181818;stroke-width:0.5;" width="103.6055" x="208" y="78.7266"/>
    <text fill="#000000" font-family="sans-serif" font-size="14" lengthAdjust="spacing" textLength="89.6055" x="215" y="98.7217">DFSP payeur</text>
    <rect fill="#E2E2F0" height="30.2969" rx="2.5" ry="2.5" style="stroke:#181818;stroke-width:0.5;" width="103.6055" x="208" y="931.5391"/>
    <text fill="#000000" font-family="sans-serif" font-size="14" lengthAdjust="spacing" textLength="89.6055" x="215" y="951.5342">DFSP payeur</text>
    <rect fill="#E2E2F0" height="46.5938" rx="2.5" ry="2.5" style="stroke:#181818;stroke-width:0.5;" width="84.3145" x="353.7397" y="62.4297"/>
    <text fill="#000000" font-family="sans-serif" font-size="14" lengthAdjust="spacing" textLength="63.0205" x="364.3867" y="82.4248">Mojaloop</text>
    <text fill="#000000" font-family="sans-serif" font-size="14" lengthAdjust="spacing" textLength="70.3145" x="360.7397" y="98.7217">Schéma A</text>
    <rect fill="#E2E2F0" height="46.5938" rx="2.5" ry="2.5" style="stroke:#181818;stroke-width:0.5;" width="84.3145" x="353.7397" y="931.5391"/>
    <text fill="#000000" font-family="sans-serif" font-size="14" lengthAdjust="spacing" textLength="63.0205" x="364.3867" y="951.5342">Mojaloop</text>
    <text fill="#000000" font-family="sans-serif" font-size="14" lengthAdjust="spacing" textLength="70.3145" x="360.7397" y="967.8311">Schéma A</text>
    <rect fill="#E2E2F0" height="46.5938" rx="2.5" ry="2.5" style="stroke:#181818;stroke-width:0.5;" width="101.7666" x="718.0786" y="62.4297"/>
    <text fill="#000000" font-family="sans-serif" font-size="14" lengthAdjust="spacing" textLength="87.7666" x="725.0786" y="82.4248">Cache proxy</text>
    <text fill="#000000" font-family="sans-serif" font-size="14" lengthAdjust="spacing" textLength="70.3145" x="733.8047" y="98.7217">Schéma A</text>
    <rect fill="#E2E2F0" height="46.5938" rx="2.5" ry="2.5" style="stroke:#181818;stroke-width:0.5;" width="101.7666" x="718.0786" y="931.5391"/>
    <text fill="#000000" font-family="sans-serif" font-size="14" lengthAdjust="spacing" textLength="87.7666" x="725.0786" y="951.5342">Cache proxy</text>
    <text fill="#000000" font-family="sans-serif" font-size="14" lengthAdjust="spacing" textLength="70.3145" x="733.8047" y="967.8311">Schéma A</text>
    <rect fill="#E2E2F0" height="30.2969" rx="2.5" ry="2.5" style="stroke:#181818;stroke-width:0.5;" width="76.9658" x="829.8452" y="78.7266"/>
    <text fill="#000000" font-family="sans-serif" font-size="14" lengthAdjust="spacing" textLength="62.9658" x="836.8452" y="98.7217">Proxy AB</text>
    <rect fill="#E2E2F0" height="30.2969" rx="2.5" ry="2.5" style="stroke:#181818;stroke-width:0.5;" width="76.9658" x="829.8452" y="931.5391"/>
    <text fill="#000000" font-family="sans-serif" font-size="14" lengthAdjust="spacing" textLength="62.9658" x="836.8452" y="951.5342">Proxy AB</text>
    <rect fill="#E2E2F0" height="46.5938" rx="2.5" ry="2.5" style="stroke:#181818;stroke-width:0.5;" width="84.3418" x="1014.8735" y="62.4297"/>
    <text fill="#000000" font-family="sans-serif" font-size="14" lengthAdjust="spacing" textLength="63.0205" x="1025.5342" y="82.4248">Mojaloop</text>
    <text fill="#000000" font-family="sans-serif" font-size="14" lengthAdjust="spacing" textLength="70.3418" x="1021.8735" y="98.7217">Schéma B</text>
    <rect fill="#E2E2F0" height="46.5938" rx="2.5" ry="2.5" style="stroke:#181818;stroke-width:0.5;" width="84.3418" x="1014.8735" y="931.5391"/>
    <text fill="#000000" font-family="sans-serif" font-size="14" lengthAdjust="spacing" textLength="63.0205" x="1025.5342" y="951.5342">Mojaloop</text>
    <text fill="#000000" font-family="sans-serif" font-size="14" lengthAdjust="spacing" textLength="70.3418" x="1021.8735" y="967.8311">Schéma B</text>
    <rect fill="#E2E2F0" height="46.5938" rx="2.5" ry="2.5" style="stroke:#181818;stroke-width:0.5;" width="101.7666" x="1385.6182" y="62.4297"/>
    <text fill="#000000" font-family="sans-serif" font-size="14" lengthAdjust="spacing" textLength="87.7666" x="1392.6182" y="82.4248">Cache proxy</text>
    <text fill="#000000" font-family="sans-serif" font-size="14" lengthAdjust="spacing" textLength="70.3418" x="1401.3306" y="98.7217">Schéma B</text>
    <rect fill="#E2E2F0" height="46.5938" rx="2.5" ry="2.5" style="stroke:#181818;stroke-width:0.5;" width="101.7666" x="1385.6182" y="931.5391"/>
    <text fill="#000000" font-family="sans-serif" font-size="14" lengthAdjust="spacing" textLength="87.7666" x="1392.6182" y="951.5342">Cache proxy</text>
    <text fill="#000000" font-family="sans-serif" font-size="14" lengthAdjust="spacing" textLength="70.3418" x="1401.3306" y="967.8311">Schéma B</text>
    <rect fill="#E2E2F0" height="30.2969" rx="2.5" ry="2.5" style="stroke:#181818;stroke-width:0.5;" width="136.8418" x="1497.3848" y="78.7266"/>
    <text fill="#000000" font-family="sans-serif" font-size="14" lengthAdjust="spacing" textLength="122.8418" x="1504.3848" y="98.7217">DFSP bénéficiaire</text>
    <rect fill="#E2E2F0" height="30.2969" rx="2.5" ry="2.5" style="stroke:#181818;stroke-width:0.5;" width="136.8418" x="1497.3848" y="931.5391"/>
    <text fill="#000000" font-family="sans-serif" font-size="14" lengthAdjust="spacing" textLength="122.8418" x="1504.3848" y="951.5342">DFSP bénéficiaire</text>
    <line style="stroke:#181818;stroke-width:1.0;" x1="393.897" x2="383.897" y1="141.1563" y2="137.1563"/>
    <line style="stroke:#181818;stroke-width:1.0;" x1="393.897" x2="383.897" y1="141.1563" y2="145.1563"/>
    <line style="stroke:#181818;stroke-width:1.0;" x1="259.8027" x2="394.897" y1="141.1563" y2="141.1563"/>
    <text fill="#000000" font-family="sans-serif" font-size="13" font-weight="bold" lengthAdjust="spacing" textLength="20.9282" x="266.8027" y="136.0903">[1]</text>
    <text fill="#000000" font-family="sans-serif" font-size="13" lengthAdjust="spacing" textLength="87.0898" x="291.731" y="136.0903">POST /quotes</text>
    <line style="stroke:#181818;stroke-width:1.0;" x1="260.8027" x2="270.8027" y1="195.9883" y2="191.9883"/>
    <line style="stroke:#181818;stroke-width:1.0;" x1="260.8027" x2="270.8027" y1="195.9883" y2="199.9883"/>
    <line style="stroke:#181818;stroke-width:1.0;stroke-dasharray:2.0,2.0;" x1="259.8027" x2="394.897" y1="195.9883" y2="195.9883"/>
    <text fill="#000000" font-family="sans-serif" font-size="13" font-weight="bold" lengthAdjust="spacing" textLength="20.9282" x="276.8027" y="190.9224">[2]</text>
    <text fill="#000000" font-family="sans-serif" font-size="13" lengthAdjust="spacing" textLength="47.7026" x="301.731" y="190.9224">202 OK</text>
    <path d="M66,154.1563 L66,224.1563 L254,224.1563 L254,164.1563 L244,154.1563 L66,154.1563 " fill="#FEFFDD" style="stroke:#181818;stroke-width:0.5;"/>
    <path d="M244,154.1563 L244,164.1563 L254,164.1563 L244,154.1563 " fill="#FEFFDD" style="stroke:#181818;stroke-width:0.5;"/>
    <text fill="#000000" font-family="sans-serif" font-size="13" lengthAdjust="spacing" textLength="47.1187" x="72" y="171.2231">en-tête</text>
    <text fill="#000000" font-family="sans-serif" font-size="13" lengthAdjust="spacing" textLength="126.9341" x="80.2646" y="186.356">source : payerDFSP</text>
    <text fill="#000000" font-family="sans-serif" font-size="13" lengthAdjust="spacing" textLength="158.9707" x="80.2646" y="201.4888">destination : payeeDFSP</text>
    <text fill="#000000" font-family="sans-serif" font-size="13" lengthAdjust="spacing" textLength="164.6074" x="72" y="216.6216">JWS signé par payerDFSP</text>
    <polygon fill="#181818" points="756.9619,261.9531,766.9619,265.9531,756.9619,269.9531,760.9619,265.9531" style="stroke:#181818;stroke-width:1.0;"/>
    <line style="stroke:#181818;stroke-width:1.0;" x1="395.897" x2="762.9619" y1="265.9531" y2="265.9531"/>
    <text fill="#000000" font-family="sans-serif" font-size="13" font-weight="bold" lengthAdjust="spacing" textLength="20.9282" x="402.897" y="253.3208">[3]</text>
    <text fill="#000000" font-family="sans-serif" font-size="13" lengthAdjust="spacing" textLength="161.9604" x="427.8252" y="245.7544">Destination hors schéma</text>
    <text fill="#000000" font-family="sans-serif" font-size="13" lengthAdjust="spacing" textLength="320.0044" x="431.9575" y="260.8872">Recherche du proxy pour payeeDFSP = Proxy AB</text>
    <line style="stroke:#181818;stroke-width:1.0;" x1="866.3281" x2="856.3281" y1="295.0859" y2="291.0859"/>
    <line style="stroke:#181818;stroke-width:1.0;" x1="866.3281" x2="856.3281" y1="295.0859" y2="299.0859"/>
    <line style="stroke:#181818;stroke-width:1.0;" x1="395.897" x2="867.3281" y1="295.0859" y2="295.0859"/>
    <text fill="#000000" font-family="sans-serif" font-size="13" font-weight="bold" lengthAdjust="spacing" textLength="20.9282" x="402.897" y="290.02">[4]</text>
    <text fill="#000000" font-family="sans-serif" font-size="13" lengthAdjust="spacing" textLength="87.0898" x="427.8252" y="290.02">POST /quotes</text>
    <line style="stroke:#181818;stroke-width:1.0;" x1="1055.0444" x2="1045.0444" y1="365.0508" y2="361.0508"/>
    <line style="stroke:#181818;stroke-width:1.0;" x1="1055.0444" x2="1045.0444" y1="365.0508" y2="369.0508"/>
    <line style="stroke:#181818;stroke-width:1.0;" x1="868.3281" x2="1056.0444" y1="365.0508" y2="365.0508"/>
    <text fill="#000000" font-family="sans-serif" font-size="13" font-weight="bold" lengthAdjust="spacing" textLength="20.9282" x="875.3281" y="352.4185">[5]</text>
    <text fill="#000000" font-family="sans-serif" font-size="13" lengthAdjust="spacing" textLength="87.0898" x="900.2563" y="344.8521">POST /quotes</text>
    <text fill="#000000" font-family="sans-serif" font-size="13" lengthAdjust="spacing" textLength="139.7881" x="900.2563" y="359.9849">message non modifié</text>
    <path d="M675,308.0859 L675,393.0859 L863,393.0859 L863,318.0859 L853,308.0859 L675,308.0859 " fill="#FEFFDD" style="stroke:#181818;stroke-width:0.5;"/>
    <path d="M853,308.0859 L853,318.0859 L863,318.0859 L853,308.0859 " fill="#FEFFDD" style="stroke:#181818;stroke-width:0.5;"/>
    <text fill="#000000" font-family="sans-serif" font-size="13" lengthAdjust="spacing" textLength="47.1187" x="681" y="325.1528">en-tête</text>
    <text fill="#000000" font-family="sans-serif" font-size="13" lengthAdjust="spacing" textLength="126.9341" x="689.2646" y="340.2856">source : payerDFSP</text>
    <text fill="#000000" font-family="sans-serif" font-size="13" lengthAdjust="spacing" textLength="158.9707" x="689.2646" y="355.4185">destination : payeeDFSP</text>
    <text fill="#000000" font-family="sans-serif" font-size="13" lengthAdjust="spacing" textLength="145.228" x="689.2646" y="370.5513">fxpiop-proxy: proxyAB</text>
    <text fill="#000000" font-family="sans-serif" font-size="13" lengthAdjust="spacing" textLength="164.6074" x="681" y="385.6841">JWS signé par payerDFSP</text>
    <line style="stroke:#181818;stroke-width:1.0;" x1="869.3281" x2="879.3281" y1="419.8828" y2="415.8828"/>
    <line style="stroke:#181818;stroke-width:1.0;" x1="869.3281" x2="879.3281" y1="419.8828" y2="423.8828"/>
    <line style="stroke:#181818;stroke-width:1.0;stroke-dasharray:2.0,2.0;" x1="868.3281" x2="1056.0444" y1="419.8828" y2="419.8828"/>
    <text fill="#000000" font-family="sans-serif" font-size="13" font-weight="bold" lengthAdjust="spacing" textLength="20.9282" x="885.3281" y="414.8169">[6]</text>
    <text fill="#000000" font-family="sans-serif" font-size="13" lengthAdjust="spacing" textLength="47.7026" x="910.2563" y="414.8169">202 OK</text>
    <line style="stroke:#181818;stroke-width:1.0;" x1="396.897" x2="406.897" y1="449.0156" y2="445.0156"/>
    <line style="stroke:#181818;stroke-width:1.0;" x1="396.897" x2="406.897" y1="449.0156" y2="453.0156"/>
    <line style="stroke:#181818;stroke-width:1.0;stroke-dasharray:2.0,2.0;" x1="395.897" x2="867.3281" y1="449.0156" y2="449.0156"/>
    <text fill="#000000" font-family="sans-serif" font-size="13" font-weight="bold" lengthAdjust="spacing" textLength="20.9282" x="412.897" y="443.9497">[7]</text>
    <text fill="#000000" font-family="sans-serif" font-size="13" lengthAdjust="spacing" textLength="47.7026" x="437.8252" y="443.9497">202 OK</text>
    <line style="stroke:#181818;stroke-width:1.0;" x1="1563.8057" x2="1553.8057" y1="478.1484" y2="474.1484"/>
    <line style="stroke:#181818;stroke-width:1.0;" x1="1563.8057" x2="1553.8057" y1="478.1484" y2="482.1484"/>
    <line style="stroke:#181818;stroke-width:1.0;" x1="1057.0444" x2="1564.8057" y1="478.1484" y2="478.1484"/>
    <text fill="#000000" font-family="sans-serif" font-size="13" font-weight="bold" lengthAdjust="spacing" textLength="20.9282" x="1064.0444" y="473.0825">[8]</text>
    <text fill="#000000" font-family="sans-serif" font-size="13" lengthAdjust="spacing" textLength="87.0898" x="1088.9727" y="473.0825">POST /quotes</text>
    <line style="stroke:#181818;stroke-width:1.0;" x1="1058.0444" x2="1068.0444" y1="510.2813" y2="506.2813"/>
    <line style="stroke:#181818;stroke-width:1.0;" x1="1058.0444" x2="1068.0444" y1="510.2813" y2="514.2813"/>
    <line style="stroke:#181818;stroke-width:1.0;stroke-dasharray:2.0,2.0;" x1="1057.0444" x2="1564.8057" y1="510.2813" y2="510.2813"/>
    <text fill="#000000" font-family="sans-serif" font-size="13" font-weight="bold" lengthAdjust="spacing" textLength="20.9282" x="1074.0444" y="505.2153">[9]</text>
    <text fill="#000000" font-family="sans-serif" font-size="13" lengthAdjust="spacing" textLength="47.7026" x="1098.9727" y="505.2153">202 OK</text>
    <path d="M1570,491.1484 L1570,516.1484 L1817,516.1484 L1817,501.1484 L1807,491.1484 L1570,491.1484 " fill="#FEFFDD" style="stroke:#181818;stroke-width:0.5;"/>
    <path d="M1807,491.1484 L1807,501.1484 L1817,501.1484 L1807,491.1484 " fill="#FEFFDD" style="stroke:#181818;stroke-width:0.5;"/>
    <text fill="#000000" font-family="sans-serif" font-size="13" lengthAdjust="spacing" textLength="226.5161" x="1576" y="508.2153">Vérifie le JWS signé par payerDFSP</text>
    <line style="stroke:#181818;stroke-width:1.0;" x1="1058.0444" x2="1068.0444" y1="568.1133" y2="564.1133"/>
    <line style="stroke:#181818;stroke-width:1.0;" x1="1058.0444" x2="1068.0444" y1="568.1133" y2="572.1133"/>
    <line style="stroke:#181818;stroke-width:1.0;" x1="1057.0444" x2="1564.8057" y1="568.1133" y2="568.1133"/>
    <text fill="#000000" font-family="sans-serif" font-size="13" font-weight="bold" lengthAdjust="spacing" textLength="29.9736" x="1074.0444" y="563.0474">[10]</text>
    <text fill="#000000" font-family="sans-serif" font-size="13" lengthAdjust="spacing" textLength="78.1206" x="1108.0181" y="563.0474">PUT /quotes</text>
    <path d="M1570,526.2813 L1570,596.2813 L1758,596.2813 L1758,536.2813 L1748,526.2813 L1570,526.2813 " fill="#FEFFDD" style="stroke:#181818;stroke-width:0.5;"/>
    <path d="M1748,526.2813 L1748,536.2813 L1758,536.2813 L1748,526.2813 " fill="#FEFFDD" style="stroke:#181818;stroke-width:0.5;"/>
    <text fill="#000000" font-family="sans-serif" font-size="13" lengthAdjust="spacing" textLength="47.1187" x="1576" y="543.3481">en-tête</text>
    <text fill="#000000" font-family="sans-serif" font-size="13" lengthAdjust="spacing" textLength="129.5874" x="1584.2646" y="558.481">source : payeeDFSP</text>
    <text fill="#000000" font-family="sans-serif" font-size="13" lengthAdjust="spacing" textLength="156.3174" x="1584.2646" y="573.6138">destination : payerDFSP</text>
    <text fill="#000000" font-family="sans-serif" font-size="13" lengthAdjust="spacing" textLength="167.2607" x="1576" y="588.7466">JWS signé par payeeDFSP</text>
    <line style="stroke:#181818;stroke-width:1.0;" x1="1563.8057" x2="1553.8057" y1="622.9453" y2="618.9453"/>
    <line style="stroke:#181818;stroke-width:1.0;" x1="1563.8057" x2="1553.8057" y1="622.9453" y2="626.9453"/>
    <line style="stroke:#181818;stroke-width:1.0;stroke-dasharray:2.0,2.0;" x1="1057.0444" x2="1564.8057" y1="622.9453" y2="622.9453"/>
    <text fill="#000000" font-family="sans-serif" font-size="13" font-weight="bold" lengthAdjust="spacing" textLength="29.9736" x="1064.0444" y="617.8794">[11]</text>
    <text fill="#000000" font-family="sans-serif" font-size="13" lengthAdjust="spacing" textLength="47.7026" x="1098.0181" y="617.8794">200 OK</text>
    <polygon fill="#181818" points="1424.5015,663.2109,1434.5015,667.2109,1424.5015,671.2109,1428.5015,667.2109" style="stroke:#181818;stroke-width:1.0;"/>
    <line style="stroke:#181818;stroke-width:1.0;" x1="1057.0444" x2="1430.5015" y1="667.2109" y2="667.2109"/>
    <text fill="#000000" font-family="sans-serif" font-size="13" font-weight="bold" lengthAdjust="spacing" textLength="29.9736" x="1064.0444" y="654.5786">[12]</text>
    <text fill="#000000" font-family="sans-serif" font-size="13" lengthAdjust="spacing" textLength="161.9604" x="1098.0181" y="647.0122">Destination hors schéma</text>
    <text fill="#000000" font-family="sans-serif" font-size="13" lengthAdjust="spacing" textLength="317.3511" x="1102.1504" y="662.145">Recherche du proxy pour payerDFSP = Proxy AB</text>
    <line style="stroke:#181818;stroke-width:1.0;" x1="869.3281" x2="879.3281" y1="696.3438" y2="692.3438"/>
    <line style="stroke:#181818;stroke-width:1.0;" x1="869.3281" x2="879.3281" y1="696.3438" y2="700.3438"/>
    <line style="stroke:#181818;stroke-width:1.0;" x1="868.3281" x2="1056.0444" y1="696.3438" y2="696.3438"/>
    <text fill="#000000" font-family="sans-serif" font-size="13" font-weight="bold" lengthAdjust="spacing" textLength="29.9736" x="885.3281" y="691.2778">[13]</text>
    <text fill="#000000" font-family="sans-serif" font-size="13" lengthAdjust="spacing" textLength="78.1206" x="919.3018" y="691.2778">PUT /quotes</text>
    <line style="stroke:#181818;stroke-width:1.0;" x1="396.897" x2="406.897" y1="766.3086" y2="762.3086"/>
    <line style="stroke:#181818;stroke-width:1.0;" x1="396.897" x2="406.897" y1="766.3086" y2="770.3086"/>
    <line style="stroke:#181818;stroke-width:1.0;" x1="395.897" x2="867.3281" y1="766.3086" y2="766.3086"/>
    <text fill="#000000" font-family="sans-serif" font-size="13" font-weight="bold" lengthAdjust="spacing" textLength="29.9736" x="412.897" y="753.6763">[14]</text>
    <text fill="#000000" font-family="sans-serif" font-size="13" lengthAdjust="spacing" textLength="78.1206" x="446.8706" y="746.1099">PUT /quotes</text>
    <text fill="#000000" font-family="sans-serif" font-size="13" lengthAdjust="spacing" textLength="139.7881" x="446.8706" y="761.2427">message non modifié</text>
    <path d="M873,709.3438 L873,794.3438 L1061,794.3438 L1061,719.3438 L1051,709.3438 L873,709.3438 " fill="#FEFFDD" style="stroke:#181818;stroke-width:0.5;"/>
    <path d="M1051,709.3438 L1051,719.3438 L1061,719.3438 L1051,709.3438 " fill="#FEFFDD" style="stroke:#181818;stroke-width:0.5;"/>
    <text fill="#000000" font-family="sans-serif" font-size="13" lengthAdjust="spacing" textLength="47.1187" x="879" y="726.4106">en-tête</text>
    <text fill="#000000" font-family="sans-serif" font-size="13" lengthAdjust="spacing" textLength="129.5874" x="887.2646" y="741.5435">source : payeeDFSP</text>
    <text fill="#000000" font-family="sans-serif" font-size="13" lengthAdjust="spacing" textLength="156.3174" x="887.2646" y="756.6763">destination : payerDFSP</text>
    <text fill="#000000" font-family="sans-serif" font-size="13" lengthAdjust="spacing" textLength="145.228" x="887.2646" y="771.8091">fxpiop-proxy: proxyAB</text>
    <text fill="#000000" font-family="sans-serif" font-size="13" lengthAdjust="spacing" textLength="167.2607" x="879" y="786.9419">JWS signé par payeeDFSP</text>
    <line style="stroke:#181818;stroke-width:1.0;" x1="866.3281" x2="856.3281" y1="821.1406" y2="817.1406"/>
    <line style="stroke:#181818;stroke-width:1.0;" x1="866.3281" x2="856.3281" y1="821.1406" y2="825.1406"/>
    <line style="stroke:#181818;stroke-width:1.0;stroke-dasharray:2.0,2.0;" x1="395.897" x2="867.3281" y1="821.1406" y2="821.1406"/>
    <text fill="#000000" font-family="sans-serif" font-size="13" font-weight="bold" lengthAdjust="spacing" textLength="29.9736" x="402.897" y="816.0747">[15]</text>
    <text fill="#000000" font-family="sans-serif" font-size="13" lengthAdjust="spacing" textLength="47.7026" x="436.8706" y="816.0747">200 OK</text>
    <line style="stroke:#181818;stroke-width:1.0;" x1="1055.0444" x2="1045.0444" y1="850.2734" y2="846.2734"/>
    <line style="stroke:#181818;stroke-width:1.0;" x1="1055.0444" x2="1045.0444" y1="850.2734" y2="854.2734"/>
    <line style="stroke:#181818;stroke-width:1.0;stroke-dasharray:2.0,2.0;" x1="868.3281" x2="1056.0444" y1="850.2734" y2="850.2734"/>
    <text fill="#000000" font-family="sans-serif" font-size="13" font-weight="bold" lengthAdjust="spacing" textLength="29.9736" x="875.3281" y="845.2075">[16]</text>
    <text fill="#000000" font-family="sans-serif" font-size="13" lengthAdjust="spacing" textLength="47.7026" x="909.3018" y="845.2075">200 OK</text>
    <line style="stroke:#181818;stroke-width:1.0;" x1="260.8027" x2="270.8027" y1="882.4063" y2="878.4063"/>
    <line style="stroke:#181818;stroke-width:1.0;" x1="260.8027" x2="270.8027" y1="882.4063" y2="886.4063"/>
    <line style="stroke:#181818;stroke-width:1.0;" x1="259.8027" x2="394.897" y1="882.4063" y2="882.4063"/>
    <text fill="#000000" font-family="sans-serif" font-size="13" font-weight="bold" lengthAdjust="spacing" textLength="29.9736" x="276.8027" y="877.3403">[17]</text>
    <text fill="#000000" font-family="sans-serif" font-size="13" lengthAdjust="spacing" textLength="78.1206" x="310.7764" y="877.3403">PUT /quotes</text>
    <path d="M5,863.2734 L5,888.2734 L255,888.2734 L255,873.2734 L245,863.2734 L5,863.2734 " fill="#FEFFDD" style="stroke:#181818;stroke-width:0.5;"/>
    <path d="M245,863.2734 L245,873.2734 L255,873.2734 L245,863.2734 " fill="#FEFFDD" style="stroke:#181818;stroke-width:0.5;"/>
    <text fill="#000000" font-family="sans-serif" font-size="13" lengthAdjust="spacing" textLength="229.1694" x="11" y="880.3403">Vérifie le JWS signé par payeeDFSP</text>
    <line style="stroke:#181818;stroke-width:1.0;" x1="393.897" x2="383.897" y1="914.5391" y2="910.5391"/>
    <line style="stroke:#181818;stroke-width:1.0;" x1="393.897" x2="383.897" y1="914.5391" y2="918.5391"/>
    <line style="stroke:#181818;stroke-width:1.0;stroke-dasharray:2.0,2.0;" x1="259.8027" x2="394.897" y1="914.5391" y2="914.5391"/>
    <text fill="#000000" font-family="sans-serif" font-size="13" font-weight="bold" lengthAdjust="spacing" textLength="29.9736" x="266.8027" y="909.4731">[18]</text>
    <text fill="#000000" font-family="sans-serif" font-size="13" lengthAdjust="spacing" textLength="47.7026" x="300.7764" y="909.4731">200 OK</text>
  </g>
</svg>
