<?xml version="1.0" encoding="us-ascii" standalone="no"?><svg xmlns="http://www.w3.org/2000/svg" xmlns:xlink="http://www.w3.org/1999/xlink" contentStyleType="text/css" height="415px" preserveAspectRatio="none" style="width:528px;height:415px;background:#FFFFFF;" version="1.1" viewBox="0 0 528 415" width="528px" zoomAndPan="magnify"><defs/><g><text fill="#000000" font-family="sans-serif" font-size="14" font-weight="bold" lengthAdjust="spacing" textLength="212" x="154.25" y="29.5332">Central Ledger API / Admin API</text><line style="stroke:#181818;stroke-width:0.5;stroke-dasharray:5.0,5.0;" x1="156" x2="156" y1="93.8281" y2="361.6953"/><line style="stroke:#181818;stroke-width:0.5;stroke-dasharray:5.0,5.0;" x1="309.5" x2="309.5" y1="93.8281" y2="361.6953"/><line style="stroke:#181818;stroke-width:0.5;stroke-dasharray:5.0,5.0;" x1="393.5" x2="393.5" y1="93.8281" y2="361.6953"/><line style="stroke:#181818;stroke-width:0.5;stroke-dasharray:5.0,5.0;" x1="477.5" x2="477.5" y1="93.8281" y2="361.6953"/><rect fill="#E2E2F0" height="31.6094" rx="2.5" ry="2.5" style="stroke:#181818;stroke-width:0.5;" width="129" x="92" y="61.2188"/><text fill="#000000" font-family="sans-serif" font-size="14" lengthAdjust="spacing" textLength="115" x="99" y="82.752">Onboarding Script</text><rect fill="#E2E2F0" height="31.6094" rx="2.5" ry="2.5" style="stroke:#181818;stroke-width:0.5;" width="129" x="92" y="360.6953"/><text fill="#000000" font-family="sans-serif" font-size="14" lengthAdjust="spacing" textLength="115" x="99" y="382.2285">Onboarding Script</text><rect fill="#E2E2F0" height="49.2188" rx="2.5" ry="2.5" style="stroke:#181818;stroke-width:0.5;" width="78" x="270.5" y="43.6094"/><text fill="#000000" font-family="sans-serif" font-size="14" lengthAdjust="spacing" textLength="57" x="281" y="65.1426">Mojaloop</text><text fill="#000000" font-family="sans-serif" font-size="14" lengthAdjust="spacing" textLength="64" x="277.5" y="82.752">Scheme A</text><rect fill="#E2E2F0" height="49.2188" rx="2.5" ry="2.5" style="stroke:#181818;stroke-width:0.5;" width="78" x="270.5" y="360.6953"/><text fill="#000000" font-family="sans-serif" font-size="14" lengthAdjust="spacing" textLength="57" x="281" y="382.2285">Mojaloop</text><text fill="#000000" font-family="sans-serif" font-size="14" lengthAdjust="spacing" textLength="64" x="277.5" y="399.8379">Scheme A</text><rect fill="#E2E2F0" height="31.6094" rx="2.5" ry="2.5" style="stroke:#181818;stroke-width:0.5;" width="70" x="358.5" y="61.2188"/><text fill="#000000" font-family="sans-serif" font-size="14" lengthAdjust="spacing" textLength="56" x="365.5" y="82.752">XN Proxy</text><rect fill="#E2E2F0" height="31.6094" rx="2.5" ry="2.5" style="stroke:#181818;stroke-width:0.5;" width="70" x="358.5" y="360.6953"/><text fill="#000000" font-family="sans-serif" font-size="14" lengthAdjust="spacing" textLength="56" x="365.5" y="382.2285">XN Proxy</text><rect fill="#E2E2F0" height="49.2188" rx="2.5" ry="2.5" style="stroke:#181818;stroke-width:0.5;" width="78" x="438.5" y="43.6094"/><text fill="#000000" font-family="sans-serif" font-size="14" lengthAdjust="spacing" textLength="57" x="449" y="65.1426">Mojaloop</text><text fill="#000000" font-family="sans-serif" font-size="14" lengthAdjust="spacing" textLength="64" x="445.5" y="82.752">Scheme B</text><rect fill="#E2E2F0" height="49.2188" rx="2.5" ry="2.5" style="stroke:#181818;stroke-width:0.5;" width="78" x="438.5" y="360.6953"/><text fill="#000000" font-family="sans-serif" font-size="14" lengthAdjust="spacing" textLength="57" x="449" y="382.2285">Mojaloop</text><text fill="#000000" font-family="sans-serif" font-size="14" lengthAdjust="spacing" textLength="64" x="445.5" y="399.8379">Scheme B</text><rect fill="#EEEEEE" height="3" style="stroke:#EEEEEE;stroke-width:1.0;" width="521.5" x="0" y="125.0039"/><line style="stroke:#000000;stroke-width:1.0;" x1="0" x2="521.5" y1="125.0039" y2="125.0039"/><line style="stroke:#000000;stroke-width:1.0;" x1="0" x2="521.5" y1="128.0039" y2="128.0039"/><rect fill="#EEEEEE" height="24.3516" style="stroke:#000000;stroke-width:2.0;" width="174" x="173.75" y="113.8281"/><text fill="#000000" font-family="sans-serif" font-size="13" font-weight="bold" lengthAdjust="spacing" textLength="156" x="179.75" y="131.3232">Create Participant Types</text><polygon fill="#181818" points="297.5,202.2344,307.5,206.2344,297.5,210.2344,301.5,206.2344" style="stroke:#181818;stroke-width:1.0;"/><line style="stroke:#181818;stroke-width:1.0;" x1="156.5" x2="303.5" y1="206.2344" y2="206.2344"/><text fill="#000000" font-family="sans-serif" font-size="13" font-weight="bold" lengthAdjust="spacing" textLength="15" x="163.5" y="201.3779">[1]</text><text fill="#000000" font-family="sans-serif" font-size="13" lengthAdjust="spacing" textLength="110" x="182.5" y="201.3779">POST /participants</text><path d="M5,153.1797 L5,244.1797 L152,244.1797 L152,163.1797 L142,153.1797 L5,153.1797 " fill="#FEFFDD" style="stroke:#181818;stroke-width:0.5;"/><path d="M142,153.1797 L142,163.1797 L152,163.1797 L142,153.1797 " fill="#FEFFDD" style="stroke:#181818;stroke-width:0.5;"/><text fill="#000000" font-family="sans-serif" font-size="13" lengthAdjust="spacing" textLength="4" x="11" y="171.6748">{</text><text fill="#000000" font-family="sans-serif" font-size="13" lengthAdjust="spacing" textLength="118" x="19" y="188.0264">"name": "XN Proxy",</text><text fill="#000000" font-family="sans-serif" font-size="13" lengthAdjust="spacing" textLength="109" x="19" y="204.3779">"currency": "USD",</text><text fill="#000000" font-family="sans-serif" font-size="13" lengthAdjust="spacing" textLength="8" x="11" y="220.7295">&#160;&#160;</text><text fill="#FF0000" font-family="sans-serif" font-size="13" lengthAdjust="spacing" textLength="84" x="19" y="220.7295">"isProxy": true</text><text fill="#000000" font-family="sans-serif" font-size="13" lengthAdjust="spacing" textLength="4" x="11" y="237.0811">}</text><polygon fill="#181818" points="465.5,303.9922,475.5,307.9922,465.5,311.9922,469.5,307.9922" style="stroke:#181818;stroke-width:1.0;"/><line style="stroke:#181818;stroke-width:1.0;" x1="156.5" x2="471.5" y1="307.9922" y2="307.9922"/><text fill="#000000" font-family="sans-serif" font-size="13" font-weight="bold" lengthAdjust="spacing" textLength="15" x="163.5" y="303.1357">[2]</text><text fill="#000000" font-family="sans-serif" font-size="13" lengthAdjust="spacing" textLength="110" x="182.5" y="303.1357">POST /participants</text><path d="M5,254.9375 L5,345.9375 L152,345.9375 L152,264.9375 L142,254.9375 L5,254.9375 " fill="#FEFFDD" style="stroke:#181818;stroke-width:0.5;"/><path d="M142,254.9375 L142,264.9375 L152,264.9375 L142,254.9375 " fill="#FEFFDD" style="stroke:#181818;stroke-width:0.5;"/><text fill="#000000" font-family="sans-serif" font-size="13" lengthAdjust="spacing" textLength="4" x="11" y="273.4326">{</text><text fill="#000000" font-family="sans-serif" font-size="13" lengthAdjust="spacing" textLength="118" x="19" y="289.7842">"name": "XN Proxy",</text><text fill="#000000" font-family="sans-serif" font-size="13" lengthAdjust="spacing" textLength="109" x="19" y="306.1357">"currency": "USD",</text><text fill="#000000" font-family="sans-serif" font-size="13" lengthAdjust="spacing" textLength="8" x="11" y="322.4873">&#160;&#160;</text><text fill="#FF0000" font-family="sans-serif" font-size="13" lengthAdjust="spacing" textLength="84" x="19" y="322.4873">"isProxy": true</text><text fill="#000000" font-family="sans-serif" font-size="13" lengthAdjust="spacing" textLength="4" x="11" y="338.8389">}</text><!--SRC=[nOx1IiH038RlUOemNfLThsLRQDUBe6wXAmZgOJfDrv4sCwHJs2A-ksrNeOi7Zyufa_pvyWKR6i8jSH3Tu1rL1n9CyrjSOLgrbgSQm6i9rbYlEQ3QSUcqL9OFM1YnFYZK7NPpUPwyT- -wSSw_S67Ug2LClwFJ9ptFFZrWBkuup8aZ-pz8sOAK0UW-EExRSfI_HhKfa-VrgmA8OzmAwK2OBsZxmLE7SGnmaiQhvCSfmdnNx76rEDu1kn7GK1tW0n0LwvPKj32-dBgc5o4smpHvB6xcviQunabqKTVhyINATgU528Fq19z0NE54_ssI_PV95m00]--></g></svg>