<svg xmlns="http://www.w3.org/2000/svg" height="874" preserveAspectRatio="none" style="width:683px;height:874px" width="683">
  <defs>
    <filter height="300%" id="a" width="300%" x="-1" y="-1">
      <feGaussianBlur result="blurOut" stdDeviation="2"/>
      <feColorMatrix in="blurOut" result="blurOut2" values="0 0 0 0 0 0 0 0 0 0 0 0 0 0 0 0 0 0 .4 0"/>
      <feOffset dx="4" dy="4" in="blurOut2" result="blurOut3"/>
      <feBlend in="SourceGraphic" in2="blurOut3"/>
    </filter>
  </defs>
  <text font-family="sans-serif" font-size="18" lengthAdjust="spacingAndGlyphs" textLength="293" x="193.25" y="28.708">
    9.1.0. Event Handler Placeholder
  </text>
  <path fill="#D3D3D3" stroke="#a80036" d="M12.5 40.953h202v827.375h-202z"/>
  <text font-family="sans-serif" font-size="13" font-weight="bold" lengthAdjust="spacingAndGlyphs" textLength="196" x="15.5" y="53.02">
    Event Handler Placeholder
  </text>
  <path fill="#FFF" filter="url(#a)" stroke="#a80036" d="M108.5 118.383h10v688.648h-10zM322 702.766h10v28h-10z"/>
  <path fill="#FFF" filter="url(#a)" stroke="#000" stroke-width="2" d="M10 125.383h659v674.648H10z"/>
  <path stroke="#a80036" stroke-dasharray="5,5" d="M113 108.383v708.648M327 108.383v708.648"/>
  <text font-family="sans-serif" font-size="14" lengthAdjust="spacingAndGlyphs" textLength="181" x="20" y="105.081">
    Event Handler Placeholder
  </text>
  <circle cx="113.5" cy="76.086" fill="#FEFECE" filter="url(#a)" stroke="#a80036" stroke-width="2" r="12"/>
  <path fill="#A80036" stroke="#a80036" d="M109.5 64.086l6-5-2 5 2 5-6-5z"/>
  <text font-family="sans-serif" font-size="14" lengthAdjust="spacingAndGlyphs" textLength="181" x="20" y="829.026">
    Event Handler Placeholder
  </text>
  <circle cx="113.5" cy="848.328" fill="#FEFECE" filter="url(#a)" stroke="#a80036" stroke-width="2" r="12"/>
  <path fill="#A80036" stroke="#a80036" d="M109.5 836.328l6-5-2 5 2 5-6-5z"/>
  <path fill="#FEFECE" filter="url(#a)" stroke="#a80036" stroke-width="1.5" d="M279 69.086h96v30.297h-96z"/>
  <path fill="#FEFECE" filter="url(#a)" stroke="#a80036" stroke-width="1.5" d="M275 73.086h96v30.297h-96z"/>
  <text font-family="sans-serif" font-size="14" lengthAdjust="spacingAndGlyphs" textLength="82" x="282" y="93.081">
    Event-Topic
  </text>
  <path fill="#FEFECE" filter="url(#a)" stroke="#a80036" stroke-width="1.5" d="M279 816.031h96v30.297h-96z"/>
  <path fill="#FEFECE" filter="url(#a)" stroke="#a80036" stroke-width="1.5" d="M275 820.031h96v30.297h-96z"/>
  <text font-family="sans-serif" font-size="14" lengthAdjust="spacingAndGlyphs" textLength="82" x="282" y="840.026">
    Event-Topic
  </text>
  <path fill="#FFF" filter="url(#a)" stroke="#a80036" d="M108.5 118.383h10v688.648h-10zM322 702.766h10v28h-10z"/>
  <path d="M10 125.383h241v7l-10 10H10v-17" fill="#EEE" stroke="#000"/>
  <path fill="none" stroke="#000" stroke-width="2" d="M10 125.383h659v674.648H10z"/>
  <text font-family="sans-serif" font-size="13" font-weight="bold" lengthAdjust="spacingAndGlyphs" textLength="196" x="25" y="138.45">
    Event Handler Placeholder
  </text>
  <path fill="#A80036" stroke="#a80036" d="M315 174.781l10 4-10 4 4-4z"/>
  <path stroke="#a80036" d="M118.5 178.781H321"/>
  <text font-family="sans-serif" font-size="13" font-weight="bold" lengthAdjust="spacingAndGlyphs" textLength="9" x="125.5" y="166.149">
    1
  </text>
  <text font-family="sans-serif" font-size="13" lengthAdjust="spacingAndGlyphs" textLength="164" x="138.5" y="158.583">
    Consume Event message
  </text>
  <text fill="red" font-family="sans-serif" font-size="13" font-weight="bold" lengthAdjust="spacingAndGlyphs" textLength="82" x="142.5" y="173.715">
    Error code:
  </text>
  <text fill="red" font-family="sans-serif" font-size="13" lengthAdjust="spacingAndGlyphs" textLength="32" x="228.5" y="173.715">
    2001
  </text>
  <path d="M123 191.781v342h315v-332l-10-10H123" fill="#FF0" filter="url(#a)" stroke="#a80036"/>
  <path d="M428 191.781v10h10l-10-10" fill="#FF0" stroke="#a80036"/>
  <text font-family="sans-serif" font-size="13" lengthAdjust="spacingAndGlyphs" textLength="61" x="129" y="208.848">
    Message:
  </text>
  <text font-family="sans-serif" font-size="13" lengthAdjust="spacingAndGlyphs" textLength="8" x="129" y="223.981">
    {
  </text>
  <text font-family="sans-serif" font-size="13" lengthAdjust="spacingAndGlyphs" textLength="267" x="145" y="239.114">
    from: &lt;transferHeaders.FSPIOP-Source&gt;,
  </text>
  <text font-family="sans-serif" font-size="13" lengthAdjust="spacingAndGlyphs" textLength="278" x="145" y="254.247">
    to: &lt;transferHeaders.FSPIOP-Destination&gt;,
  </text>
  <text font-family="sans-serif" font-size="13" lengthAdjust="spacingAndGlyphs" textLength="139" x="145" y="269.379">
    type: application/json,
  </text>
  <text font-family="sans-serif" font-size="13" lengthAdjust="spacingAndGlyphs" textLength="65" x="145" y="284.512">
    content: {
  </text>
  <text font-family="sans-serif" font-size="13" lengthAdjust="spacingAndGlyphs" textLength="190" x="161" y="299.645">
    headers: &lt;transferHeaders&gt;,
  </text>
  <text font-family="sans-serif" font-size="13" lengthAdjust="spacingAndGlyphs" textLength="187" x="161" y="314.778">
    payload: &lt;transferMessage&gt;
  </text>
  <text font-family="sans-serif" font-size="13" lengthAdjust="spacingAndGlyphs" textLength="12" x="145" y="329.911">
    },
  </text>
  <text font-family="sans-serif" font-size="13" lengthAdjust="spacingAndGlyphs" textLength="79" x="145" y="345.043">
    metadata: {
  </text>
  <text font-family="sans-serif" font-size="13" lengthAdjust="spacingAndGlyphs" textLength="52" x="161" y="360.176">
    event: {
  </text>
  <text font-family="sans-serif" font-size="13" lengthAdjust="spacingAndGlyphs" textLength="72" x="177" y="375.309">
    id: &lt;uuid&gt;,
  </text>
  <text font-family="sans-serif" font-size="13" lengthAdjust="spacingAndGlyphs" textLength="70" x="177" y="390.442">
    type: INFO,
  </text>
  <text font-family="sans-serif" font-size="13" lengthAdjust="spacingAndGlyphs" textLength="90" x="177" y="405.575">
    action: AUDIT,
  </text>
  <text font-family="sans-serif" font-size="13" lengthAdjust="spacingAndGlyphs" textLength="167" x="177" y="420.707">
    createdAt: &lt;timestamp&gt;,
  </text>
  <text font-family="sans-serif" font-size="13" lengthAdjust="spacingAndGlyphs" textLength="49" x="177" y="435.84">
    state: {
  </text>
  <text font-family="sans-serif" font-size="13" lengthAdjust="spacingAndGlyphs" textLength="113" x="193" y="450.973">
    status: &quot;success&quot;,
  </text>
  <text font-family="sans-serif" font-size="13" lengthAdjust="spacingAndGlyphs" textLength="47" x="193" y="466.106">
    code: 0
  </text>
  <text font-family="sans-serif" font-size="13" lengthAdjust="spacingAndGlyphs" textLength="8" x="177" y="481.239">
    }
  </text>
  <text font-family="sans-serif" font-size="13" lengthAdjust="spacingAndGlyphs" textLength="8" x="161" y="496.372">
    }
  </text>
  <text font-family="sans-serif" font-size="13" lengthAdjust="spacingAndGlyphs" textLength="8" x="145" y="511.504">
    }
  </text>
  <text font-family="sans-serif" font-size="13" lengthAdjust="spacingAndGlyphs" textLength="8" x="129" y="526.637">
    }
  </text>
  <path d="M123 548.703v100h532v-90l-10-10H123" fill="#D3D3D3" filter="url(#a)" stroke="#a80036"/>
  <path d="M645 548.703v10h10l-10-10" fill="#D3D3D3" stroke="#a80036"/>
  <text font-family="sans-serif" font-size="13" lengthAdjust="spacingAndGlyphs" textLength="256" x="129" y="565.77">
    The type would be an ENUM with values:
  </text>
  <text font-family="sans-serif" font-size="13" lengthAdjust="spacingAndGlyphs" textLength="287" x="145" y="580.903">
    [INFO, DEBUG, ERROR, WARN, FATAL, TRACE]
  </text>
  <text font-family="sans-serif" font-size="13" lengthAdjust="spacingAndGlyphs" textLength="231" x="129" y="596.036">
    Possible values for &quot;action&quot; would be
  </text>
  <text font-family="sans-serif" font-size="13" lengthAdjust="spacingAndGlyphs" textLength="128" x="145" y="611.168">
    [AUDIT, EXCEPTION]
  </text>
  <text font-family="sans-serif" font-size="13" lengthAdjust="spacingAndGlyphs" textLength="511" x="129" y="626.301">
    The event messages can be handled based on the values of these two variables
  </text>
  <text font-family="sans-serif" font-size="13" lengthAdjust="spacingAndGlyphs" textLength="228" x="129" y="641.434">
    (when the placeholder is extended).
  </text>
  <path stroke="#a80036" d="M123.5 694.766h42M165.5 694.766v13M124.5 707.766h41"/>
  <path fill="#A80036" stroke="#a80036" d="M134.5 703.766l-10 4 10 4-4-4z"/>
  <text font-family="sans-serif" font-size="13" font-weight="bold" lengthAdjust="spacingAndGlyphs" textLength="9" x="130.5" y="682.133">
    2
  </text>
  <text font-family="sans-serif" font-size="13" lengthAdjust="spacingAndGlyphs" textLength="84" x="143.5" y="674.567">
    Auto-commit
  </text>
  <text fill="red" font-family="sans-serif" font-size="13" font-weight="bold" lengthAdjust="spacingAndGlyphs" textLength="82" x="147.5" y="689.7">
    Error code:
  </text>
  <text fill="red" font-family="sans-serif" font-size="13" lengthAdjust="spacingAndGlyphs" textLength="32" x="233.5" y="689.7">
    2001
  </text>
  <path d="M123 750.766v40h430v-30l-10-10H123" fill="#ADD8E6" filter="url(#a)" stroke="#a80036"/>
  <path d="M543 750.766v10h10l-10-10" fill="#ADD8E6" stroke="#a80036"/>
  <text font-family="sans-serif" font-size="13" lengthAdjust="spacingAndGlyphs" textLength="409" x="129" y="767.832">
    Currently events to only be published as part of the placeholder.
  </text>
  <text font-family="sans-serif" font-size="13" lengthAdjust="spacingAndGlyphs" textLength="311" x="129" y="782.965">
    This can be evolved to add relevant functionality.
  </text>
</svg>
