<?xml version="1.0" encoding="UTF-8" standalone="no"?>
<svg xmlns="http://www.w3.org/2000/svg" xmlns:xlink="http://www.w3.org/1999/xlink" contentScriptType="application/ecmascript" contentStyleType="text/css" height="1305px" preserveAspectRatio="none" style="width:1490px;height:1305px" version="1.1" viewBox="0 0 1490 1305" width="1490px" zoomAndPan="magnify">
  <defs>
    <filter height="300%" id="ffzpd87h2j798" width="300%" x="-1" y="-1">
      <feGaussianBlur result="blurOut" stdDeviation="2.0"/>
      <feColorMatrix in="blurOut" result="blurOut2" type="matrix" values="0 0 0 0 0 0 0 0 0 0 0 0 0 0 0 0 0 0 .4 0"/>
      <feOffset dx="4.0" dy="4.0" in="blurOut2" result="blurOut3"/>
      <feBlend in="SourceGraphic" in2="blurOut3" mode="normal"/>
    </filter>
  </defs>
  <g>
    <text fill="#000000" font-family="sans-serif" font-size="18" lengthAdjust="spacingAndGlyphs" textLength="362" x="562" y="28.708">5.1.1. Notification Handler for Rejections</text>
    <rect fill="#D3D3D3" height="1258.5703" style="stroke:#A80036;stroke-width:1.0" width="204" x="1" y="40.9531"/>
    <text fill="#000000" font-family="sans-serif" font-size="13" font-weight="bold" lengthAdjust="spacingAndGlyphs" textLength="198" x="4" y="53.02">Financial Service Providers</text>
    <rect fill="#ADD8E6" height="1258.5703" style="stroke:#A80036;stroke-width:1.0" width="238" x="304" y="40.9531"/>
    <text fill="#000000" font-family="sans-serif" font-size="13" font-weight="bold" lengthAdjust="spacingAndGlyphs" textLength="173" x="336.5" y="53.02">ML API Adapter Service</text>
    <rect fill="#FFFFE0" height="1258.5703" style="stroke:#A80036;stroke-width:1.0" width="407" x="1063" y="40.9531"/>
    <text fill="#000000" font-family="sans-serif" font-size="13" font-weight="bold" lengthAdjust="spacingAndGlyphs" textLength="111" x="1211" y="53.02">Central Service</text>
    <rect fill="#FFFFFF" filter="url(#ffzpd87h2j798)" height="1018.25" style="stroke:#A80036;stroke-width:1.0" width="10" x="418" y="169.6797"/>
    <rect fill="#FFFFFF" filter="url(#ffzpd87h2j798)" height="30" style="stroke:#A80036;stroke-width:1.0" width="10" x="1258" y="328.4766"/>
    <rect fill="#FFFFFF" filter="url(#ffzpd87h2j798)" height="30" style="stroke:#A80036;stroke-width:1.0" width="10" x="1258" y="1035.3984"/>
    <rect fill="#FFFFFF" filter="url(#ffzpd87h2j798)" height="30" style="stroke:#A80036;stroke-width:1.0" width="10" x="1390.5" y="230.0781"/>
    <rect fill="#FFFFFF" filter="url(#ffzpd87h2j798)" height="1003.25" style="stroke:#000000;stroke-width:2.0" width="1419" x="57" y="176.6797"/>
    <rect fill="#FFFFFF" filter="url(#ffzpd87h2j798)" height="136.6641" style="stroke:#000000;stroke-width:2.0" width="1027" x="298" y="275.0781"/>
    <rect fill="#FFFFFF" filter="url(#ffzpd87h2j798)" height="747.1875" style="stroke:#000000;stroke-width:2.0" width="1258" x="67" y="425.7422"/>
    <rect fill="#FFFFFF" filter="url(#ffzpd87h2j798)" height="59.2656" style="stroke:#000000;stroke-width:2.0" width="836" x="298" y="449.875"/>
    <rect fill="#FFFFFF" height="318.5313" style="stroke:none;stroke-width:1.0" width="1258" x="67" y="854.3984"/>
    <line style="stroke:#A80036;stroke-width:1.0;stroke-dasharray:5.0,5.0" x1="103" x2="103" y1="159.6797" y2="1196.9297"/>
    <line style="stroke:#A80036;stroke-width:1.0;stroke-dasharray:5.0,5.0" x1="423" x2="423" y1="159.6797" y2="1196.9297"/>
    <line style="stroke:#A80036;stroke-width:1.0;stroke-dasharray:5.0,5.0" x1="1134" x2="1134" y1="159.6797" y2="1196.9297"/>
    <line style="stroke:#A80036;stroke-width:1.0;stroke-dasharray:5.0,5.0" x1="1263" x2="1263" y1="159.6797" y2="1196.9297"/>
    <line style="stroke:#A80036;stroke-width:1.0;stroke-dasharray:5.0,5.0" x1="1395" x2="1395" y1="159.6797" y2="1196.9297"/>
    <text fill="#000000" font-family="sans-serif" font-size="14" lengthAdjust="spacingAndGlyphs" textLength="46" x="77" y="140.0811">DFSP1</text>
    <text fill="#000000" font-family="sans-serif" font-size="14" lengthAdjust="spacingAndGlyphs" textLength="38" x="81" y="156.3779">Payer</text>
    <ellipse cx="103" cy="70.0859" fill="#FEFECE" filter="url(#ffzpd87h2j798)" rx="8" ry="8" style="stroke:#A80036;stroke-width:2.0"/>
    <path d="M103,78.0859 L103,105.0859 M90,86.0859 L116,86.0859 M103,105.0859 L90,120.0859 M103,105.0859 L116,120.0859 " fill="none" filter="url(#ffzpd87h2j798)" style="stroke:#A80036;stroke-width:2.0"/>
    <text fill="#000000" font-family="sans-serif" font-size="14" lengthAdjust="spacingAndGlyphs" textLength="46" x="77" y="1208.9248">DFSP1</text>
    <text fill="#000000" font-family="sans-serif" font-size="14" lengthAdjust="spacingAndGlyphs" textLength="38" x="81" y="1225.2217">Payer</text>
    <ellipse cx="103" cy="1238.5234" fill="#FEFECE" filter="url(#ffzpd87h2j798)" rx="8" ry="8" style="stroke:#A80036;stroke-width:2.0"/>
    <path d="M103,1246.5234 L103,1273.5234 M90,1254.5234 L116,1254.5234 M103,1273.5234 L90,1288.5234 M103,1273.5234 L116,1288.5234 " fill="none" filter="url(#ffzpd87h2j798)" style="stroke:#A80036;stroke-width:2.0"/>
    <text fill="#000000" font-family="sans-serif" font-size="14" lengthAdjust="spacingAndGlyphs" textLength="224" x="308" y="156.3779">ML API Notification Event Handler</text>
    <ellipse cx="423" cy="127.3828" fill="#FEFECE" filter="url(#ffzpd87h2j798)" rx="12" ry="12" style="stroke:#A80036;stroke-width:2.0"/>
    <polygon fill="#A80036" points="419,115.3828,425,110.3828,423,115.3828,425,120.3828,419,115.3828" style="stroke:#A80036;stroke-width:1.0"/>
    <text fill="#000000" font-family="sans-serif" font-size="14" lengthAdjust="spacingAndGlyphs" textLength="224" x="308" y="1208.9248">ML API Notification Event Handler</text>
    <ellipse cx="423" cy="1228.2266" fill="#FEFECE" filter="url(#ffzpd87h2j798)" rx="12" ry="12" style="stroke:#A80036;stroke-width:2.0"/>
    <polygon fill="#A80036" points="419,1216.2266,425,1211.2266,423,1216.2266,425,1221.2266,419,1216.2266" style="stroke:#A80036;stroke-width:1.0"/>
    <text fill="#000000" font-family="sans-serif" font-size="14" lengthAdjust="spacingAndGlyphs" textLength="128" x="1067" y="156.3779">Central Service API</text>
    <path d="M1113.5,115.3828 L1113.5,139.3828 M1113.5,127.3828 L1130.5,127.3828 " fill="none" filter="url(#ffzpd87h2j798)" style="stroke:#A80036;stroke-width:2.0"/>
    <ellipse cx="1142.5" cy="127.3828" fill="#FEFECE" filter="url(#ffzpd87h2j798)" rx="12" ry="12" style="stroke:#A80036;stroke-width:2.0"/>
    <text fill="#000000" font-family="sans-serif" font-size="14" lengthAdjust="spacingAndGlyphs" textLength="128" x="1067" y="1208.9248">Central Service API</text>
    <path d="M1113.5,1216.2266 L1113.5,1240.2266 M1113.5,1228.2266 L1130.5,1228.2266 " fill="none" filter="url(#ffzpd87h2j798)" style="stroke:#A80036;stroke-width:2.0"/>
    <ellipse cx="1142.5" cy="1228.2266" fill="#FEFECE" filter="url(#ffzpd87h2j798)" rx="12" ry="12" style="stroke:#A80036;stroke-width:2.0"/>
    <rect fill="#FEFECE" filter="url(#ffzpd87h2j798)" height="30.2969" style="stroke:#A80036;stroke-width:1.5" width="96" x="1215" y="120.3828"/>
    <rect fill="#FEFECE" filter="url(#ffzpd87h2j798)" height="30.2969" style="stroke:#A80036;stroke-width:1.5" width="96" x="1211" y="124.3828"/>
    <text fill="#000000" font-family="sans-serif" font-size="14" lengthAdjust="spacingAndGlyphs" textLength="82" x="1218" y="144.3779">Event-Topic</text>
    <rect fill="#FEFECE" filter="url(#ffzpd87h2j798)" height="30.2969" style="stroke:#A80036;stroke-width:1.5" width="96" x="1215" y="1195.9297"/>
    <rect fill="#FEFECE" filter="url(#ffzpd87h2j798)" height="30.2969" style="stroke:#A80036;stroke-width:1.5" width="96" x="1211" y="1199.9297"/>
    <text fill="#000000" font-family="sans-serif" font-size="14" lengthAdjust="spacingAndGlyphs" textLength="82" x="1218" y="1219.9248">Event-Topic</text>
    <rect fill="#FEFECE" filter="url(#ffzpd87h2j798)" height="30.2969" style="stroke:#A80036;stroke-width:1.5" width="133" x="1329" y="120.3828"/>
    <rect fill="#FEFECE" filter="url(#ffzpd87h2j798)" height="30.2969" style="stroke:#A80036;stroke-width:1.5" width="133" x="1325" y="124.3828"/>
    <text fill="#000000" font-family="sans-serif" font-size="14" lengthAdjust="spacingAndGlyphs" textLength="119" x="1332" y="144.3779">Notification-Topic</text>
    <rect fill="#FEFECE" filter="url(#ffzpd87h2j798)" height="30.2969" style="stroke:#A80036;stroke-width:1.5" width="133" x="1329" y="1195.9297"/>
    <rect fill="#FEFECE" filter="url(#ffzpd87h2j798)" height="30.2969" style="stroke:#A80036;stroke-width:1.5" width="133" x="1325" y="1199.9297"/>
    <text fill="#000000" font-family="sans-serif" font-size="14" lengthAdjust="spacingAndGlyphs" textLength="119" x="1332" y="1219.9248">Notification-Topic</text>
    <rect fill="#FFFFFF" filter="url(#ffzpd87h2j798)" height="1018.25" style="stroke:#A80036;stroke-width:1.0" width="10" x="418" y="169.6797"/>
    <rect fill="#FFFFFF" filter="url(#ffzpd87h2j798)" height="30" style="stroke:#A80036;stroke-width:1.0" width="10" x="1258" y="328.4766"/>
    <rect fill="#FFFFFF" filter="url(#ffzpd87h2j798)" height="30" style="stroke:#A80036;stroke-width:1.0" width="10" x="1258" y="1035.3984"/>
    <rect fill="#FFFFFF" filter="url(#ffzpd87h2j798)" height="30" style="stroke:#A80036;stroke-width:1.0" width="10" x="1390.5" y="230.0781"/>
    <path d="M57,176.6797 L298,176.6797 L298,183.6797 L288,193.6797 L57,193.6797 L57,176.6797 " fill="#EEEEEE" style="stroke:#000000;stroke-width:1.0"/>
    <rect fill="none" height="1003.25" style="stroke:#000000;stroke-width:2.0" width="1419" x="57" y="176.6797"/>
    <text fill="#000000" font-family="sans-serif" font-size="13" font-weight="bold" lengthAdjust="spacingAndGlyphs" textLength="196" x="72" y="189.7466">DFSP Notified of Rejection</text>
    <polygon fill="#A80036" points="1378.5,226.0781,1388.5,230.0781,1378.5,234.0781,1382.5,230.0781" style="stroke:#A80036;stroke-width:1.0"/>
    <line style="stroke:#A80036;stroke-width:1.0" x1="428" x2="1384.5" y1="230.0781" y2="230.0781"/>
    <text fill="#000000" font-family="sans-serif" font-size="13" font-weight="bold" lengthAdjust="spacingAndGlyphs" textLength="9" x="435" y="217.4458">1</text>
    <text fill="#000000" font-family="sans-serif" font-size="13" lengthAdjust="spacingAndGlyphs" textLength="240" x="448" y="209.8794">Consume Notification event message</text>
    <text fill="#000000" font-family="sans-serif" font-size="13" lengthAdjust="spacingAndGlyphs" textLength="0" x="452" y="225.0122"/>
    <text fill="#FF0000" font-family="sans-serif" font-size="13" font-weight="bold" lengthAdjust="spacingAndGlyphs" textLength="82" x="452" y="225.0122">Error code:</text>
    <text fill="#FF0000" font-family="sans-serif" font-size="13" lengthAdjust="spacingAndGlyphs" textLength="32" x="538" y="225.0122">2001</text>
    <path d="M298,275.0781 L530,275.0781 L530,282.0781 L520,292.0781 L298,292.0781 L298,275.0781 " fill="#EEEEEE" style="stroke:#000000;stroke-width:1.0"/>
    <rect fill="none" height="136.6641" style="stroke:#000000;stroke-width:2.0" width="1027" x="298" y="275.0781"/>
    <text fill="#000000" font-family="sans-serif" font-size="13" font-weight="bold" lengthAdjust="spacingAndGlyphs" textLength="187" x="313" y="288.145">Persist Event Information</text>
    <polygon fill="#A80036" points="1246,324.4766,1256,328.4766,1246,332.4766,1250,328.4766" style="stroke:#A80036;stroke-width:1.0"/>
    <line style="stroke:#A80036;stroke-width:1.0" x1="428" x2="1252" y1="328.4766" y2="328.4766"/>
    <text fill="#000000" font-family="sans-serif" font-size="13" font-weight="bold" lengthAdjust="spacingAndGlyphs" textLength="9" x="435" y="315.8442">2</text>
    <text fill="#000000" font-family="sans-serif" font-size="13" lengthAdjust="spacingAndGlyphs" textLength="162" x="448" y="308.2778">Publish event information</text>
    <text fill="#000000" font-family="sans-serif" font-size="13" lengthAdjust="spacingAndGlyphs" textLength="0" x="452" y="323.4106"/>
    <text fill="#FF0000" font-family="sans-serif" font-size="13" font-weight="bold" lengthAdjust="spacingAndGlyphs" textLength="82" x="452" y="323.4106">Error code:</text>
    <text fill="#FF0000" font-family="sans-serif" font-size="13" lengthAdjust="spacingAndGlyphs" textLength="32" x="538" y="323.4106">3201</text>
    <rect fill="#FFFFFF" filter="url(#ffzpd87h2j798)" height="40.2656" style="stroke:#000000;stroke-width:2.0" width="106" x="1208" y="366.4766"/>
    <polygon fill="#EEEEEE" points="1208,366.4766,1274,366.4766,1274,373.4766,1264,383.4766,1208,383.4766,1208,366.4766" style="stroke:#000000;stroke-width:2.0"/>
    <text fill="#000000" font-family="sans-serif" font-size="13" font-weight="bold" lengthAdjust="spacingAndGlyphs" textLength="21" x="1221" y="380.5435">ref</text>
    <text fill="#000000" font-family="sans-serif" font-size="13" lengthAdjust="spacingAndGlyphs" textLength="90" x="1218" y="399.5435">Event Handler</text>
    <path d="M67,425.7422 L131,425.7422 L131,432.7422 L121,442.7422 L67,442.7422 L67,425.7422 " fill="#EEEEEE" style="stroke:#000000;stroke-width:1.0"/>
    <rect fill="none" height="747.1875" style="stroke:#000000;stroke-width:2.0" width="1258" x="67" y="425.7422"/>
    <text fill="#000000" font-family="sans-serif" font-size="13" font-weight="bold" lengthAdjust="spacingAndGlyphs" textLength="19" x="82" y="438.8091">alt</text>
    <text fill="#000000" font-family="sans-serif" font-size="11" font-weight="bold" lengthAdjust="spacingAndGlyphs" textLength="190" x="146" y="437.9526">[consume a single messages]</text>
    <path d="M298,449.875 L450,449.875 L450,456.875 L440,466.875 L298,466.875 L298,449.875 " fill="#EEEEEE" style="stroke:#000000;stroke-width:1.0"/>
    <rect fill="none" height="59.2656" style="stroke:#000000;stroke-width:2.0" width="836" x="298" y="449.875"/>
    <text fill="#000000" font-family="sans-serif" font-size="13" font-weight="bold" lengthAdjust="spacingAndGlyphs" textLength="107" x="313" y="462.9419">Validate Event</text>
    <line style="stroke:#A80036;stroke-width:1.0" x1="428" x2="470" y1="488.1406" y2="488.1406"/>
    <line style="stroke:#A80036;stroke-width:1.0" x1="470" x2="470" y1="488.1406" y2="501.1406"/>
    <line style="stroke:#A80036;stroke-width:1.0" x1="429" x2="470" y1="501.1406" y2="501.1406"/>
    <polygon fill="#A80036" points="439,497.1406,429,501.1406,439,505.1406,435,501.1406" style="stroke:#A80036;stroke-width:1.0"/>
    <text fill="#000000" font-family="sans-serif" font-size="13" font-weight="bold" lengthAdjust="spacingAndGlyphs" textLength="9" x="435" y="483.0747">3</text>
    <text fill="#000000" font-family="sans-serif" font-size="13" lengthAdjust="spacingAndGlyphs" textLength="674" x="448" y="483.0747">Validate event - Rule: type == &apos;notification&apos; &amp;&amp; [action IN [&apos;reject&apos;, &apos;timeout-received&apos;, &apos;timeout-reserved&apos;]]</text>
    <polygon fill="#A80036" points="1122,548.4063,1132,552.4063,1122,556.4063,1126,552.4063" style="stroke:#A80036;stroke-width:1.0"/>
    <line style="stroke:#A80036;stroke-width:1.0" x1="428" x2="1128" y1="552.4063" y2="552.4063"/>
    <text fill="#000000" font-family="sans-serif" font-size="13" font-weight="bold" lengthAdjust="spacingAndGlyphs" textLength="9" x="435" y="539.7739">4</text>
    <text fill="#000000" font-family="sans-serif" font-size="13" lengthAdjust="spacingAndGlyphs" textLength="227" x="448" y="532.2075">Request Participant Callback details</text>
    <text fill="#000000" font-family="sans-serif" font-size="13" lengthAdjust="spacingAndGlyphs" textLength="0" x="452" y="547.3403"/>
    <text fill="#FF0000" font-family="sans-serif" font-size="13" font-weight="bold" lengthAdjust="spacingAndGlyphs" textLength="82" x="452" y="547.3403">Error code:</text>
    <text fill="#FF0000" font-family="sans-serif" font-size="13" lengthAdjust="spacingAndGlyphs" textLength="32" x="538" y="547.3403">3201</text>
    <rect fill="#FFFFFF" filter="url(#ffzpd87h2j798)" height="40.2656" style="stroke:#000000;stroke-width:2.0" width="895" x="305" y="560.4063"/>
    <polygon fill="#EEEEEE" points="305,560.4063,371,560.4063,371,567.4063,361,577.4063,305,577.4063,305,560.4063" style="stroke:#000000;stroke-width:2.0"/>
    <text fill="#000000" font-family="sans-serif" font-size="13" font-weight="bold" lengthAdjust="spacingAndGlyphs" textLength="21" x="318" y="574.4731">ref</text>
    <text fill="#000000" font-family="sans-serif" font-size="13" lengthAdjust="spacingAndGlyphs" textLength="200" x="654.5" y="593.4731">Get Participant Callback Details</text>
    <polygon fill="#A80036" points="439,622.8047,429,626.8047,439,630.8047,435,626.8047" style="stroke:#A80036;stroke-width:1.0"/>
    <line style="stroke:#A80036;stroke-width:1.0;stroke-dasharray:2.0,2.0" x1="433" x2="1133" y1="626.8047" y2="626.8047"/>
    <text fill="#000000" font-family="sans-serif" font-size="13" font-weight="bold" lengthAdjust="spacingAndGlyphs" textLength="9" x="445" y="621.7388">5</text>
    <text fill="#000000" font-family="sans-serif" font-size="13" lengthAdjust="spacingAndGlyphs" textLength="217" x="458" y="621.7388">Return Participant Callback details</text>
    <path d="M94,639.8047 L94,800.8047 L409,800.8047 L409,649.8047 L399,639.8047 L94,639.8047 " fill="#FFFF00" filter="url(#ffzpd87h2j798)" style="stroke:#A80036;stroke-width:1.0"/>
    <path d="M399,639.8047 L399,649.8047 L409,649.8047 L399,639.8047 " fill="#FFFF00" style="stroke:#A80036;stroke-width:1.0"/>
    <text fill="#000000" font-family="sans-serif" font-size="13" lengthAdjust="spacingAndGlyphs" textLength="61" x="100" y="656.8716">Message:</text>
    <text fill="#000000" font-family="sans-serif" font-size="13" lengthAdjust="spacingAndGlyphs" textLength="8" x="100" y="672.0044">{</text>
    <text fill="#000000" font-family="sans-serif" font-size="13" lengthAdjust="spacingAndGlyphs" textLength="58" x="116" y="687.1372">id: &lt;ID&gt;,</text>
    <text fill="#000000" font-family="sans-serif" font-size="13" lengthAdjust="spacingAndGlyphs" textLength="267" x="116" y="702.27">from: &lt;transferHeaders.FSPIOP-Source&gt;,</text>
    <text fill="#000000" font-family="sans-serif" font-size="13" lengthAdjust="spacingAndGlyphs" textLength="278" x="116" y="717.4028">to: &lt;transferHeaders.FSPIOP-Destination&gt;,</text>
    <text fill="#000000" font-family="sans-serif" font-size="13" lengthAdjust="spacingAndGlyphs" textLength="139" x="116" y="732.5356">type: application/json,</text>
    <text fill="#000000" font-family="sans-serif" font-size="13" lengthAdjust="spacingAndGlyphs" textLength="65" x="116" y="747.6685">content: {</text>
    <text fill="#000000" font-family="sans-serif" font-size="13" lengthAdjust="spacingAndGlyphs" textLength="187" x="132" y="762.8013">payload: &lt;transferMessage&gt;</text>
    <text fill="#000000" font-family="sans-serif" font-size="13" lengthAdjust="spacingAndGlyphs" textLength="12" x="116" y="777.9341">},</text>
    <text fill="#000000" font-family="sans-serif" font-size="13" lengthAdjust="spacingAndGlyphs" textLength="8" x="100" y="793.0669">}</text>
    <polygon fill="#A80036" points="114,842.3984,104,846.3984,114,850.3984,110,846.3984" style="stroke:#A80036;stroke-width:1.0"/>
    <line style="stroke:#A80036;stroke-width:1.0;stroke-dasharray:2.0,2.0" x1="108" x2="417" y1="846.3984" y2="846.3984"/>
    <text fill="#000000" font-family="sans-serif" font-size="13" font-weight="bold" lengthAdjust="spacingAndGlyphs" textLength="9" x="120" y="833.7661">6</text>
    <text fill="#000000" font-family="sans-serif" font-size="13" lengthAdjust="spacingAndGlyphs" textLength="166" x="133" y="826.1997">Send Callback Notification</text>
    <text fill="#000000" font-family="sans-serif" font-size="13" lengthAdjust="spacingAndGlyphs" textLength="0" x="137" y="841.3325"/>
    <text fill="#FF0000" font-family="sans-serif" font-size="13" font-weight="bold" lengthAdjust="spacingAndGlyphs" textLength="82" x="137" y="841.3325">Error code:</text>
    <text fill="#FF0000" font-family="sans-serif" font-size="13" lengthAdjust="spacingAndGlyphs" textLength="112" x="223" y="841.3325">1000, 1001, 3002</text>
    <line style="stroke:#000000;stroke-width:1.0;stroke-dasharray:2.0,2.0" x1="67" x2="1325" y1="855.3984" y2="855.3984"/>
    <text fill="#000000" font-family="sans-serif" font-size="11" font-weight="bold" lengthAdjust="spacingAndGlyphs" textLength="269" x="72" y="865.6089">[Validate rule type != &apos;notification&apos; / Error]</text>
    <path d="M433,874.2031 L433,989.2031 L721,989.2031 L721,884.2031 L711,874.2031 L433,874.2031 " fill="#FFFF00" filter="url(#ffzpd87h2j798)" style="stroke:#A80036;stroke-width:1.0"/>
    <path d="M711,874.2031 L711,884.2031 L721,884.2031 L711,874.2031 " fill="#FFFF00" style="stroke:#A80036;stroke-width:1.0"/>
    <text fill="#000000" font-family="sans-serif" font-size="13" lengthAdjust="spacingAndGlyphs" textLength="61" x="439" y="891.27">Message:</text>
    <text fill="#000000" font-family="sans-serif" font-size="13" lengthAdjust="spacingAndGlyphs" textLength="8" x="439" y="906.4028">{</text>
    <text fill="#000000" font-family="sans-serif" font-size="13" lengthAdjust="spacingAndGlyphs" textLength="130" x="455" y="921.5356">&quot;errorInformation&quot;: {</text>
    <text fill="#000000" font-family="sans-serif" font-size="13" lengthAdjust="spacingAndGlyphs" textLength="172" x="471" y="936.6685">&quot;errorCode&quot;: &lt;errorCode&gt;,</text>
    <text fill="#000000" font-family="sans-serif" font-size="13" lengthAdjust="spacingAndGlyphs" textLength="235" x="471" y="951.8013">&quot;errorDescription&quot;: &lt;ErrorMessage&gt;,</text>
    <text fill="#000000" font-family="sans-serif" font-size="13" lengthAdjust="spacingAndGlyphs" textLength="8" x="455" y="966.9341">}</text>
    <text fill="#000000" font-family="sans-serif" font-size="13" lengthAdjust="spacingAndGlyphs" textLength="8" x="439" y="982.0669">}</text>
    <polygon fill="#A80036" points="1246,1031.3984,1256,1035.3984,1246,1039.3984,1250,1035.3984" style="stroke:#A80036;stroke-width:1.0"/>
    <line style="stroke:#A80036;stroke-width:1.0" x1="428" x2="1252" y1="1035.3984" y2="1035.3984"/>
    <text fill="#000000" font-family="sans-serif" font-size="13" font-weight="bold" lengthAdjust="spacingAndGlyphs" textLength="9" x="435" y="1022.7661">7</text>
    <text fill="#000000" font-family="sans-serif" font-size="13" lengthAdjust="spacingAndGlyphs" textLength="343" x="448" y="1015.1997">Invalid messages retrieved from the Notification Topic</text>
    <text fill="#000000" font-family="sans-serif" font-size="13" lengthAdjust="spacingAndGlyphs" textLength="0" x="452" y="1030.3325"/>
    <text fill="#FF0000" font-family="sans-serif" font-size="13" font-weight="bold" lengthAdjust="spacingAndGlyphs" textLength="82" x="452" y="1030.3325">Error code:</text>
    <text fill="#FF0000" font-family="sans-serif" font-size="13" lengthAdjust="spacingAndGlyphs" textLength="32" x="538" y="1030.3325">3201</text>
    <rect fill="#FFFFFF" filter="url(#ffzpd87h2j798)" height="40.2656" style="stroke:#000000;stroke-width:2.0" width="106" x="1208" y="1073.3984"/>
    <polygon fill="#EEEEEE" points="1208,1073.3984,1274,1073.3984,1274,1080.3984,1264,1090.3984,1208,1090.3984,1208,1073.3984" style="stroke:#000000;stroke-width:2.0"/>
    <text fill="#000000" font-family="sans-serif" font-size="13" font-weight="bold" lengthAdjust="spacingAndGlyphs" textLength="21" x="1221" y="1087.4653">ref</text>
    <text fill="#000000" font-family="sans-serif" font-size="13" lengthAdjust="spacingAndGlyphs" textLength="90" x="1218" y="1106.4653">Event Handler</text>
    <path d="M433,1123.6641 L433,1163.6641 L720,1163.6641 L720,1133.6641 L710,1123.6641 L433,1123.6641 " fill="#ADD8E6" filter="url(#ffzpd87h2j798)" style="stroke:#A80036;stroke-width:1.0"/>
    <path d="M710,1123.6641 L710,1133.6641 L720,1133.6641 L710,1123.6641 " fill="#ADD8E6" style="stroke:#A80036;stroke-width:1.0"/>
    <text fill="#000000" font-family="sans-serif" font-size="13" lengthAdjust="spacingAndGlyphs" textLength="137" x="439" y="1140.731">Log ERROR Messages</text>
    <text fill="#000000" font-family="sans-serif" font-size="13" lengthAdjust="spacingAndGlyphs" textLength="266" x="439" y="1155.8638">Update Event log upon ERROR notification</text>
  </g>
</svg>
