<?xml version="1.0" encoding="UTF-8" standalone="no"?>
<svg xmlns="http://www.w3.org/2000/svg" xmlns:xlink="http://www.w3.org/1999/xlink" contentScriptType="application/ecmascript" contentStyleType="text/css" height="989px" preserveAspectRatio="none" style="width:2042px;height:989px;" version="1.1" viewBox="0 0 2042 989" width="2042px" zoomAndPan="magnify">
  <defs>
    <filter height="300%" id="fazv6cz3uisda" width="300%" x="-1" y="-1">
      <feGaussianBlur result="blurOut" stdDeviation="2.0"/>
      <feColorMatrix in="blurOut" result="blurOut2" type="matrix" values="0 0 0 0 0 0 0 0 0 0 0 0 0 0 0 0 0 0 .4 0"/>
      <feOffset dx="4.0" dy="4.0" in="blurOut2" result="blurOut3"/>
      <feBlend in="SourceGraphic" in2="blurOut3" mode="normal"/>
    </filter>
  </defs>
  <g>
    <text fill="#000000" font-family="sans-serif" font-size="18" lengthAdjust="spacingAndGlyphs" textLength="714" x="661.75" y="28.708">1.1.4.a. Send notification to Participant (Payer/Payee/FXP) (single message) v2.0</text>
    <rect fill="#D3D3D3" height="942.6406" style="stroke:#A80036;stroke-width:1.0;" width="255" x="1" y="40.9531"/>
    <text fill="#000000" font-family="sans-serif" font-size="13" font-weight="bold" lengthAdjust="spacingAndGlyphs" textLength="249" x="4" y="53.02">Financial Service Provider (Payer)</text>
    <rect fill="#ADD8E6" height="942.6406" style="stroke:#A80036;stroke-width:1.0;" width="238" x="412.5" y="40.9531"/>
    <text fill="#000000" font-family="sans-serif" font-size="13" font-weight="bold" lengthAdjust="spacingAndGlyphs" textLength="173" x="445" y="53.02">ML API Adapter Service</text>
    <rect fill="#FFFFE0" height="942.6406" style="stroke:#A80036;stroke-width:1.0;" width="1046.5" x="676" y="40.9531"/>
    <text fill="#000000" font-family="sans-serif" font-size="13" font-weight="bold" lengthAdjust="spacingAndGlyphs" textLength="111" x="1143.75" y="53.02">Central Service</text>
    <rect fill="#D3D3D3" height="942.6406" style="stroke:#A80036;stroke-width:1.0;" width="312" x="1724.5" y="40.9531"/>
    <text fill="#000000" font-family="sans-serif" font-size="13" font-weight="bold" lengthAdjust="spacingAndGlyphs" textLength="306" x="1727.5" y="53.02">Financial Service Provider (Payee or FXP)</text>
    <rect fill="#FFFFFF" filter="url(#fazv6cz3uisda)" height="701.3203" style="stroke:#A80036;stroke-width:1.0;" width="10" x="526.5" y="169.6797"/>
    <rect fill="#FFFFFF" filter="url(#fazv6cz3uisda)" height="30" style="stroke:#A80036;stroke-width:1.0;" width="10" x="745.5" y="269.2109"/>
    <rect fill="#FFFFFF" filter="url(#fazv6cz3uisda)" height="209.0625" style="stroke:#A80036;stroke-width:1.0;" width="10" x="1071.5" y="397.7422"/>
    <rect fill="#FFFFFF" filter="url(#fazv6cz3uisda)" height="120.5313" style="stroke:#A80036;stroke-width:1.0;" width="10" x="1359.5" y="442.0078"/>
    <rect fill="#FFFFFF" filter="url(#fazv6cz3uisda)" height="62.2656" style="stroke:#A80036;stroke-width:1.0;" width="10" x="1665.5" y="471.1406"/>
    <rect fill="#FFFFFF" filter="url(#fazv6cz3uisda)" height="687.3203" style="stroke:#000000;stroke-width:2.0;" width="1894.5" x="76" y="176.6797"/>
    <rect fill="#FFFFFF" filter="url(#fazv6cz3uisda)" height="146.6641" style="stroke:#000000;stroke-width:2.0;" width="1564" x="396.5" y="710.3359"/>
    <rect fill="#FFFFFF" filter="url(#fazv6cz3uisda)" height="115.5313" style="stroke:#000000;stroke-width:2.0;" width="1544" x="406.5" y="734.4688"/>
    <line style="stroke:#A80036;stroke-width:1.0;stroke-dasharray:5.0,5.0;" x1="128" x2="128" y1="159.6797" y2="881"/>
    <line style="stroke:#A80036;stroke-width:1.0;stroke-dasharray:5.0,5.0;" x1="531.5" x2="531.5" y1="159.6797" y2="881"/>
    <line style="stroke:#A80036;stroke-width:1.0;stroke-dasharray:5.0,5.0;" x1="750" x2="750" y1="159.6797" y2="881"/>
    <line style="stroke:#A80036;stroke-width:1.0;stroke-dasharray:5.0,5.0;" x1="1076.5" x2="1076.5" y1="159.6797" y2="881"/>
    <line style="stroke:#A80036;stroke-width:1.0;stroke-dasharray:5.0,5.0;" x1="1364" x2="1364" y1="159.6797" y2="881"/>
    <line style="stroke:#A80036;stroke-width:1.0;stroke-dasharray:5.0,5.0;" x1="1670.5" x2="1670.5" y1="159.6797" y2="881"/>
    <line style="stroke:#A80036;stroke-width:1.0;stroke-dasharray:5.0,5.0;" x1="1880.5" x2="1880.5" y1="159.6797" y2="881"/>
    <text fill="#000000" font-family="sans-serif" font-size="14" lengthAdjust="spacingAndGlyphs" textLength="79" x="86" y="140.0811">Payer DFSP</text>
    <text fill="#000000" font-family="sans-serif" font-size="14" lengthAdjust="spacingAndGlyphs" textLength="72" x="89.5" y="156.3779">Participant</text>
    <ellipse cx="128.5" cy="70.0859" fill="#FEFECE" filter="url(#fazv6cz3uisda)" rx="8" ry="8" style="stroke:#A80036;stroke-width:2.0;"/>
    <path d="M128.5,78.0859 L128.5,105.0859 M115.5,86.0859 L141.5,86.0859 M128.5,105.0859 L115.5,120.0859 M128.5,105.0859 L141.5,120.0859 " fill="none" filter="url(#fazv6cz3uisda)" style="stroke:#A80036;stroke-width:2.0;"/>
    <text fill="#000000" font-family="sans-serif" font-size="14" lengthAdjust="spacingAndGlyphs" textLength="79" x="86" y="892.9951">Payer DFSP</text>
    <text fill="#000000" font-family="sans-serif" font-size="14" lengthAdjust="spacingAndGlyphs" textLength="72" x="89.5" y="909.292">Participant</text>
    <ellipse cx="128.5" cy="922.5938" fill="#FEFECE" filter="url(#fazv6cz3uisda)" rx="8" ry="8" style="stroke:#A80036;stroke-width:2.0;"/>
    <path d="M128.5,930.5938 L128.5,957.5938 M115.5,938.5938 L141.5,938.5938 M128.5,957.5938 L115.5,972.5938 M128.5,957.5938 L141.5,972.5938 " fill="none" filter="url(#fazv6cz3uisda)" style="stroke:#A80036;stroke-width:2.0;"/>
    <text fill="#000000" font-family="sans-serif" font-size="14" lengthAdjust="spacingAndGlyphs" textLength="224" x="416.5" y="156.3779">ML API Notification Event Handler</text>
    <ellipse cx="531.5" cy="127.3828" fill="#FEFECE" filter="url(#fazv6cz3uisda)" rx="12" ry="12" style="stroke:#A80036;stroke-width:2.0;"/>
    <polygon fill="#A80036" points="527.5,115.3828,533.5,110.3828,531.5,115.3828,533.5,120.3828,527.5,115.3828" style="stroke:#A80036;stroke-width:1.0;"/>
    <text fill="#000000" font-family="sans-serif" font-size="14" lengthAdjust="spacingAndGlyphs" textLength="224" x="416.5" y="892.9951">ML API Notification Event Handler</text>
    <ellipse cx="531.5" cy="912.2969" fill="#FEFECE" filter="url(#fazv6cz3uisda)" rx="12" ry="12" style="stroke:#A80036;stroke-width:2.0;"/>
    <polygon fill="#A80036" points="527.5,900.2969,533.5,895.2969,531.5,900.2969,533.5,905.2969,527.5,900.2969" style="stroke:#A80036;stroke-width:1.0;"/>
    <rect fill="#FEFECE" filter="url(#fazv6cz3uisda)" height="30.2969" style="stroke:#A80036;stroke-width:1.5;" width="133" x="684" y="120.3828"/>
    <rect fill="#FEFECE" filter="url(#fazv6cz3uisda)" height="30.2969" style="stroke:#A80036;stroke-width:1.5;" width="133" x="680" y="124.3828"/>
    <text fill="#000000" font-family="sans-serif" font-size="14" lengthAdjust="spacingAndGlyphs" textLength="119" x="687" y="144.3779">Notification-Topic</text>
    <rect fill="#FEFECE" filter="url(#fazv6cz3uisda)" height="30.2969" style="stroke:#A80036;stroke-width:1.5;" width="133" x="684" y="880"/>
    <rect fill="#FEFECE" filter="url(#fazv6cz3uisda)" height="30.2969" style="stroke:#A80036;stroke-width:1.5;" width="133" x="680" y="884"/>
    <text fill="#000000" font-family="sans-serif" font-size="14" lengthAdjust="spacingAndGlyphs" textLength="119" x="687" y="903.9951">Notification-Topic</text>
    <text fill="#000000" font-family="sans-serif" font-size="14" lengthAdjust="spacingAndGlyphs" textLength="128" x="1009.5" y="156.3779">Central Service API</text>
    <path d="M1056,115.3828 L1056,139.3828 M1056,127.3828 L1073,127.3828 " fill="none" filter="url(#fazv6cz3uisda)" style="stroke:#A80036;stroke-width:2.0;"/>
    <ellipse cx="1085" cy="127.3828" fill="#FEFECE" filter="url(#fazv6cz3uisda)" rx="12" ry="12" style="stroke:#A80036;stroke-width:2.0;"/>
    <text fill="#000000" font-family="sans-serif" font-size="14" lengthAdjust="spacingAndGlyphs" textLength="128" x="1009.5" y="892.9951">Central Service API</text>
    <path d="M1056,900.2969 L1056,924.2969 M1056,912.2969 L1073,912.2969 " fill="none" filter="url(#fazv6cz3uisda)" style="stroke:#A80036;stroke-width:2.0;"/>
    <ellipse cx="1085" cy="912.2969" fill="#FEFECE" filter="url(#fazv6cz3uisda)" rx="12" ry="12" style="stroke:#A80036;stroke-width:2.0;"/>
    <text fill="#000000" font-family="sans-serif" font-size="14" lengthAdjust="spacingAndGlyphs" textLength="107" x="1308" y="156.3779">Participant DAO</text>
    <ellipse cx="1364.5" cy="127.3828" fill="#FEFECE" filter="url(#fazv6cz3uisda)" rx="12" ry="12" style="stroke:#A80036;stroke-width:2.0;"/>
    <line style="stroke:#A80036;stroke-width:2.0;" x1="1352.5" x2="1376.5" y1="141.3828" y2="141.3828"/>
    <text fill="#000000" font-family="sans-serif" font-size="14" lengthAdjust="spacingAndGlyphs" textLength="107" x="1308" y="892.9951">Participant DAO</text>
    <ellipse cx="1364.5" cy="912.2969" fill="#FEFECE" filter="url(#fazv6cz3uisda)" rx="12" ry="12" style="stroke:#A80036;stroke-width:2.0;"/>
    <line style="stroke:#A80036;stroke-width:2.0;" x1="1352.5" x2="1376.5" y1="926.2969" y2="926.2969"/>
    <text fill="#000000" font-family="sans-serif" font-size="14" lengthAdjust="spacingAndGlyphs" textLength="90" x="1622.5" y="156.3779">Central Store</text>
    <path d="M1652.5,107.3828 C1652.5,97.3828 1670.5,97.3828 1670.5,97.3828 C1670.5,97.3828 1688.5,97.3828 1688.5,107.3828 L1688.5,133.3828 C1688.5,143.3828 1670.5,143.3828 1670.5,143.3828 C1670.5,143.3828 1652.5,143.3828 1652.5,133.3828 L1652.5,107.3828 " fill="#FEFECE" filter="url(#fazv6cz3uisda)" style="stroke:#000000;stroke-width:1.5;"/>
    <path d="M1652.5,107.3828 C1652.5,117.3828 1670.5,117.3828 1670.5,117.3828 C1670.5,117.3828 1688.5,117.3828 1688.5,107.3828 " fill="none" style="stroke:#000000;stroke-width:1.5;"/>
    <text fill="#000000" font-family="sans-serif" font-size="14" lengthAdjust="spacingAndGlyphs" textLength="90" x="1622.5" y="892.9951">Central Store</text>
    <path d="M1652.5,906.2969 C1652.5,896.2969 1670.5,896.2969 1670.5,896.2969 C1670.5,896.2969 1688.5,896.2969 1688.5,906.2969 L1688.5,932.2969 C1688.5,942.2969 1670.5,942.2969 1670.5,942.2969 C1670.5,942.2969 1652.5,942.2969 1652.5,932.2969 L1652.5,906.2969 " fill="#FEFECE" filter="url(#fazv6cz3uisda)" style="stroke:#000000;stroke-width:1.5;"/>
    <path d="M1652.5,906.2969 C1652.5,916.2969 1670.5,916.2969 1670.5,916.2969 C1670.5,916.2969 1688.5,916.2969 1688.5,906.2969 " fill="none" style="stroke:#000000;stroke-width:1.5;"/>
    <text fill="#000000" font-family="sans-serif" font-size="14" lengthAdjust="spacingAndGlyphs" textLength="114" x="1820.5" y="140.0811">Payee DFSP/FXP</text>
    <text fill="#000000" font-family="sans-serif" font-size="14" lengthAdjust="spacingAndGlyphs" textLength="72" x="1841.5" y="156.3779">Participant</text>
    <ellipse cx="1880.5" cy="70.0859" fill="#FEFECE" filter="url(#fazv6cz3uisda)" rx="8" ry="8" style="stroke:#A80036;stroke-width:2.0;"/>
    <path d="M1880.5,78.0859 L1880.5,105.0859 M1867.5,86.0859 L1893.5,86.0859 M1880.5,105.0859 L1867.5,120.0859 M1880.5,105.0859 L1893.5,120.0859 " fill="none" filter="url(#fazv6cz3uisda)" style="stroke:#A80036;stroke-width:2.0;"/>
    <text fill="#000000" font-family="sans-serif" font-size="14" lengthAdjust="spacingAndGlyphs" textLength="114" x="1820.5" y="892.9951">Payee DFSP/FXP</text>
    <text fill="#000000" font-family="sans-serif" font-size="14" lengthAdjust="spacingAndGlyphs" textLength="72" x="1841.5" y="909.292">Participant</text>
    <ellipse cx="1880.5" cy="922.5938" fill="#FEFECE" filter="url(#fazv6cz3uisda)" rx="8" ry="8" style="stroke:#A80036;stroke-width:2.0;"/>
    <path d="M1880.5,930.5938 L1880.5,957.5938 M1867.5,938.5938 L1893.5,938.5938 M1880.5,957.5938 L1867.5,972.5938 M1880.5,957.5938 L1893.5,972.5938 " fill="none" filter="url(#fazv6cz3uisda)" style="stroke:#A80036;stroke-width:2.0;"/>
    <rect fill="#FFFFFF" filter="url(#fazv6cz3uisda)" height="701.3203" style="stroke:#A80036;stroke-width:1.0;" width="10" x="526.5" y="169.6797"/>
    <rect fill="#FFFFFF" filter="url(#fazv6cz3uisda)" height="30" style="stroke:#A80036;stroke-width:1.0;" width="10" x="745.5" y="269.2109"/>
    <rect fill="#FFFFFF" filter="url(#fazv6cz3uisda)" height="209.0625" style="stroke:#A80036;stroke-width:1.0;" width="10" x="1071.5" y="397.7422"/>
    <rect fill="#FFFFFF" filter="url(#fazv6cz3uisda)" height="120.5313" style="stroke:#A80036;stroke-width:1.0;" width="10" x="1359.5" y="442.0078"/>
    <rect fill="#FFFFFF" filter="url(#fazv6cz3uisda)" height="62.2656" style="stroke:#A80036;stroke-width:1.0;" width="10" x="1665.5" y="471.1406"/>
    <path d="M76,176.6797 L360,176.6797 L360,183.6797 L350,193.6797 L76,193.6797 L76,176.6797 " fill="#EEEEEE" style="stroke:#000000;stroke-width:1.0;"/>
    <rect fill="none" height="687.3203" style="stroke:#000000;stroke-width:2.0;" width="1894.5" x="76" y="176.6797"/>
    <text fill="#000000" font-family="sans-serif" font-size="13" font-weight="bold" lengthAdjust="spacingAndGlyphs" textLength="239" x="91" y="189.7466">Send notification to Participants</text>
    <path d="M283,198.8125 L283,238.8125 L517,238.8125 L517,208.8125 L507,198.8125 L283,198.8125 " fill="#D3D3D3" filter="url(#fazv6cz3uisda)" style="stroke:#A80036;stroke-width:1.0;"/>
    <path d="M507,198.8125 L507,208.8125 L517,208.8125 L507,198.8125 " fill="#D3D3D3" style="stroke:#A80036;stroke-width:1.0;"/>
    <text fill="#000000" font-family="sans-serif" font-size="13" lengthAdjust="spacingAndGlyphs" textLength="207" x="289" y="215.8794">Event is automatically replicated</text>
    <text fill="#000000" font-family="sans-serif" font-size="13" lengthAdjust="spacingAndGlyphs" textLength="213" x="289" y="231.0122">to the events topic (topic-events)</text>
    <polygon fill="#A80036" points="733.5,265.2109,743.5,269.2109,733.5,273.2109,737.5,269.2109" style="stroke:#A80036;stroke-width:1.0;"/>
    <line style="stroke:#A80036;stroke-width:1.0;" x1="536.5" x2="739.5" y1="269.2109" y2="269.2109"/>
    <text fill="#000000" font-family="sans-serif" font-size="13" font-weight="bold" lengthAdjust="spacingAndGlyphs" textLength="9" x="543.5" y="264.145">1</text>
    <text fill="#000000" font-family="sans-serif" font-size="13" lengthAdjust="spacingAndGlyphs" textLength="177" x="556.5" y="264.145">Consume Notification event</text>
    <path d="M541,312.2109 L541,352.2109 L874,352.2109 L874,322.2109 L864,312.2109 L541,312.2109 " fill="#D3D3D3" filter="url(#fazv6cz3uisda)" style="stroke:#A80036;stroke-width:1.0;"/>
    <path d="M864,312.2109 L864,322.2109 L874,322.2109 L864,312.2109 " fill="#D3D3D3" style="stroke:#A80036;stroke-width:1.0;"/>
    <text fill="#000000" font-family="sans-serif" font-size="13" lengthAdjust="spacingAndGlyphs" textLength="312" x="547" y="329.2778">The endpoint details are cached, when the cache</text>
    <text fill="#000000" font-family="sans-serif" font-size="13" lengthAdjust="spacingAndGlyphs" textLength="237" x="547" y="344.4106">expires, the details are fetched again</text>
    <polygon fill="#A80036" points="1059.5,393.7422,1069.5,397.7422,1059.5,401.7422,1063.5,397.7422" style="stroke:#A80036;stroke-width:1.0;"/>
    <line style="stroke:#A80036;stroke-width:1.0;" x1="536.5" x2="1065.5" y1="397.7422" y2="397.7422"/>
    <text fill="#000000" font-family="sans-serif" font-size="13" font-weight="bold" lengthAdjust="spacingAndGlyphs" textLength="9" x="543.5" y="385.1099">2</text>
    <text fill="#000000" font-family="sans-serif" font-size="13" lengthAdjust="spacingAndGlyphs" textLength="503" x="556.5" y="377.5435">Request Endpoint details for Participant - GET - /participants/{{fsp}}/endpoints</text>
    <text fill="#FF0000" font-family="sans-serif" font-size="13" font-weight="bold" lengthAdjust="spacingAndGlyphs" textLength="82" x="556.5" y="392.6763">Error code:</text>
    <text fill="#FF0000" font-family="sans-serif" font-size="13" lengthAdjust="spacingAndGlyphs" textLength="32" x="642.5" y="392.6763">2003</text>
    <polygon fill="#A80036" points="1347.5,438.0078,1357.5,442.0078,1347.5,446.0078,1351.5,442.0078" style="stroke:#A80036;stroke-width:1.0;"/>
    <line style="stroke:#A80036;stroke-width:1.0;" x1="1081.5" x2="1353.5" y1="442.0078" y2="442.0078"/>
    <text fill="#000000" font-family="sans-serif" font-size="13" font-weight="bold" lengthAdjust="spacingAndGlyphs" textLength="9" x="1088.5" y="429.3755">3</text>
    <text fill="#000000" font-family="sans-serif" font-size="13" lengthAdjust="spacingAndGlyphs" textLength="234" x="1101.5" y="421.8091">Fetch Endpoint details for Participant</text>
    <text fill="#FF0000" font-family="sans-serif" font-size="13" font-weight="bold" lengthAdjust="spacingAndGlyphs" textLength="82" x="1101.5" y="436.9419">Error code:</text>
    <text fill="#FF0000" font-family="sans-serif" font-size="13" lengthAdjust="spacingAndGlyphs" textLength="32" x="1187.5" y="436.9419">2003</text>
    <polygon fill="#A80036" points="1653.5,467.1406,1663.5,471.1406,1653.5,475.1406,1657.5,471.1406" style="stroke:#A80036;stroke-width:1.0;"/>
    <line style="stroke:#A80036;stroke-width:1.0;" x1="1369.5" x2="1659.5" y1="471.1406" y2="471.1406"/>
    <text fill="#000000" font-family="sans-serif" font-size="13" font-weight="bold" lengthAdjust="spacingAndGlyphs" textLength="9" x="1376.5" y="466.0747">4</text>
    <text fill="#000000" font-family="sans-serif" font-size="13" lengthAdjust="spacingAndGlyphs" textLength="234" x="1389.5" y="466.0747">Fetch Endpoint details for Participant</text>
    <polygon fill="#FFFFE0" filter="url(#fazv6cz3uisda)" points="1606,484.1406,1734,484.1406,1744,495.1406,1734,507.1406,1606,507.1406,1596,495.1406,1606,484.1406" style="stroke:#A80036;stroke-width:1.0;"/>
    <text fill="#000000" font-family="sans-serif" font-size="13" lengthAdjust="spacingAndGlyphs" textLength="124" x="1608" y="500.2075">participantEndpoint</text>
    <polygon fill="#A80036" points="1380.5,529.4063,1370.5,533.4063,1380.5,537.4063,1376.5,533.4063" style="stroke:#A80036;stroke-width:1.0;"/>
    <line style="stroke:#A80036;stroke-width:1.0;" x1="1374.5" x2="1669.5" y1="533.4063" y2="533.4063"/>
    <text fill="#000000" font-family="sans-serif" font-size="13" font-weight="bold" lengthAdjust="spacingAndGlyphs" textLength="9" x="1386.5" y="528.3403">5</text>
    <text fill="#000000" font-family="sans-serif" font-size="13" lengthAdjust="spacingAndGlyphs" textLength="259" x="1399.5" y="528.3403">Retrieved Endpoint details for Participant</text>
    <polygon fill="#A80036" points="1092.5,558.5391,1082.5,562.5391,1092.5,566.5391,1088.5,562.5391" style="stroke:#A80036;stroke-width:1.0;"/>
    <line style="stroke:#A80036;stroke-width:1.0;stroke-dasharray:2.0,2.0;" x1="1086.5" x2="1363.5" y1="562.5391" y2="562.5391"/>
    <text fill="#000000" font-family="sans-serif" font-size="13" font-weight="bold" lengthAdjust="spacingAndGlyphs" textLength="9" x="1098.5" y="557.4731">6</text>
    <text fill="#000000" font-family="sans-serif" font-size="13" lengthAdjust="spacingAndGlyphs" textLength="241" x="1111.5" y="557.4731">Return Endpoint details for Participant</text>
    <polygon fill="#A80036" points="547.5,602.8047,537.5,606.8047,547.5,610.8047,543.5,606.8047" style="stroke:#A80036;stroke-width:1.0;"/>
    <line style="stroke:#A80036;stroke-width:1.0;stroke-dasharray:2.0,2.0;" x1="541.5" x2="1075.5" y1="606.8047" y2="606.8047"/>
    <text fill="#000000" font-family="sans-serif" font-size="13" font-weight="bold" lengthAdjust="spacingAndGlyphs" textLength="9" x="553.5" y="594.1724">7</text>
    <text fill="#000000" font-family="sans-serif" font-size="13" lengthAdjust="spacingAndGlyphs" textLength="241" x="566.5" y="586.606">Return Endpoint details for Participant</text>
    <text fill="#FF0000" font-family="sans-serif" font-size="13" font-weight="bold" lengthAdjust="spacingAndGlyphs" textLength="90" x="566.5" y="601.7388">Error codes:</text>
    <text fill="#FF0000" font-family="sans-serif" font-size="13" lengthAdjust="spacingAndGlyphs" textLength="72" x="660.5" y="601.7388">3202, 3203</text>
    <polygon fill="#A80036" points="139.5,662.2031,129.5,666.2031,139.5,670.2031,135.5,666.2031" style="stroke:#A80036;stroke-width:1.0;"/>
    <line style="stroke:#A80036;stroke-width:1.0;" x1="133.5" x2="525.5" y1="666.2031" y2="666.2031"/>
    <text fill="#000000" font-family="sans-serif" font-size="13" font-weight="bold" lengthAdjust="spacingAndGlyphs" textLength="9" x="145.5" y="646.0044">8</text>
    <text fill="#000000" font-family="sans-serif" font-size="13" lengthAdjust="spacingAndGlyphs" textLength="276" x="158.5" y="630.8716">Notification with Prepare/fulfil result/error to</text>
    <text fill="#000000" font-family="sans-serif" font-size="13" lengthAdjust="spacingAndGlyphs" textLength="249" x="158.5" y="646.0044">Payer DFSP to specified Endpoint - PUT</text>
    <text fill="#FF0000" font-family="sans-serif" font-size="13" font-weight="bold" lengthAdjust="spacingAndGlyphs" textLength="82" x="158.5" y="661.1372">Error code:</text>
    <text fill="#FF0000" font-family="sans-serif" font-size="13" lengthAdjust="spacingAndGlyphs" textLength="32" x="244.5" y="661.1372">1001</text>
    <polygon fill="#A80036" points="514.5,691.3359,524.5,695.3359,514.5,699.3359,518.5,695.3359" style="stroke:#A80036;stroke-width:1.0;"/>
    <line style="stroke:#A80036;stroke-width:1.0;stroke-dasharray:2.0,2.0;" x1="128.5" x2="520.5" y1="695.3359" y2="695.3359"/>
    <text fill="#000000" font-family="sans-serif" font-size="13" font-weight="bold" lengthAdjust="spacingAndGlyphs" textLength="9" x="135.5" y="690.27">9</text>
    <text fill="#000000" font-family="sans-serif" font-size="13" lengthAdjust="spacingAndGlyphs" textLength="82" x="148.5" y="690.27">HTTP 200 OK</text>
    <path d="M396.5,710.3359 L460.5,710.3359 L460.5,717.3359 L450.5,727.3359 L396.5,727.3359 L396.5,710.3359 " fill="#EEEEEE" style="stroke:#000000;stroke-width:1.0;"/>
    <rect fill="none" height="146.6641" style="stroke:#000000;stroke-width:2.0;" width="1564" x="396.5" y="710.3359"/>
    <text fill="#000000" font-family="sans-serif" font-size="13" font-weight="bold" lengthAdjust="spacingAndGlyphs" textLength="19" x="411.5" y="723.4028">alt</text>
    <text fill="#000000" font-family="sans-serif" font-size="11" font-weight="bold" lengthAdjust="spacingAndGlyphs" textLength="179" x="475.5" y="722.5464">[event.action === &apos;reserve&apos;]</text>
    <path d="M406.5,734.4688 L470.5,734.4688 L470.5,741.4688 L460.5,751.4688 L406.5,751.4688 L406.5,734.4688 " fill="#EEEEEE" style="stroke:#000000;stroke-width:1.0;"/>
    <rect fill="none" height="115.5313" style="stroke:#000000;stroke-width:2.0;" width="1544" x="406.5" y="734.4688"/>
    <text fill="#000000" font-family="sans-serif" font-size="13" font-weight="bold" lengthAdjust="spacingAndGlyphs" textLength="19" x="421.5" y="747.5356">alt</text>
    <text fill="#000000" font-family="sans-serif" font-size="11" font-weight="bold" lengthAdjust="spacingAndGlyphs" textLength="182" x="485.5" y="746.6792">[event.status === &apos;success&apos;]</text>
    <polygon fill="#A80036" points="1868.5,783.8672,1878.5,787.8672,1868.5,791.8672,1872.5,787.8672" style="stroke:#A80036;stroke-width:1.0;"/>
    <line style="stroke:#A80036;stroke-width:1.0;" x1="536.5" x2="1874.5" y1="787.8672" y2="787.8672"/>
    <text fill="#000000" font-family="sans-serif" font-size="13" font-weight="bold" lengthAdjust="spacingAndGlyphs" textLength="18" x="543.5" y="775.2349">10</text>
    <text fill="#000000" font-family="sans-serif" font-size="13" lengthAdjust="spacingAndGlyphs" textLength="652" x="565.5" y="767.6685">Notification to with succesful fulfil result (committed) to Payee DFSP/FXP to specified Endpoint - PATCH</text>
    <text fill="#FF0000" font-family="sans-serif" font-size="13" font-weight="bold" lengthAdjust="spacingAndGlyphs" textLength="82" x="565.5" y="782.8013">Error code:</text>
    <text fill="#FF0000" font-family="sans-serif" font-size="13" lengthAdjust="spacingAndGlyphs" textLength="32" x="651.5" y="782.8013">1001</text>
    <polygon fill="#A80036" points="547.5,838,537.5,842,547.5,846,543.5,842" style="stroke:#A80036;stroke-width:1.0;"/>
    <line style="stroke:#A80036;stroke-width:1.0;stroke-dasharray:2.0,2.0;" x1="541.5" x2="1879.5" y1="842" y2="842"/>
    <text fill="#000000" font-family="sans-serif" font-size="13" font-weight="bold" lengthAdjust="spacingAndGlyphs" textLength="18" x="553.5" y="836.9341">11</text>
    <text fill="#000000" font-family="sans-serif" font-size="13" lengthAdjust="spacingAndGlyphs" textLength="82" x="575.5" y="836.9341">HTTP 200 OK</text>
  </g>
</svg>
