<?xml version="1.0" encoding="UTF-8" standalone="no"?>
<svg xmlns="http://www.w3.org/2000/svg" xmlns:xlink="http://www.w3.org/1999/xlink" contentScriptType="application/ecmascript" contentStyleType="text/css" height="2542px" preserveAspectRatio="none" style="width:1262px;height:2542px" version="1.1" viewBox="0 0 1262 2542" width="1262px" zoomAndPan="magnify">
  <defs>
    <filter height="300%" id="f17nmkdnjnv2la" width="300%" x="-1" y="-1">
      <feGaussianBlur result="blurOut" stdDeviation="2.0"/>
      <feColorMatrix in="blurOut" result="blurOut2" type="matrix" values="0 0 0 0 0 0 0 0 0 0 0 0 0 0 0 0 0 0 .4 0"/>
      <feOffset dx="4.0" dy="4.0" in="blurOut2" result="blurOut3"/>
      <feBlend in="SourceGraphic" in2="blurOut3" mode="normal"/>
    </filter>
  </defs>
  <g>
    <text fill="#000000" font-family="sans-serif" font-size="18" lengthAdjust="spacingAndGlyphs" textLength="214" x="522" y="28.708">Request Quote Creation</text>
    <rect fill="#FFFFFF" filter="url(#f17nmkdnjnv2la)" height="137.9297" style="stroke:#A80036;stroke-width:1.0" width="10" x="841" y="837.1719"/>
    <rect fill="#FFFFFF" filter="url(#f17nmkdnjnv2la)" height="122.7969" style="stroke:#A80036;stroke-width:1.0" width="10" x="841" y="1747.6953"/>
    <rect fill="#FFFFFF" filter="url(#f17nmkdnjnv2la)" height="62.2656" style="stroke:#A80036;stroke-width:1.0" width="10" x="841" y="2140.3594"/>
    <rect fill="#FFFFFF" filter="url(#f17nmkdnjnv2la)" height="526.9297" style="stroke:#000000;stroke-width:2.0" width="883" x="53" y="456.1719"/>
    <rect fill="#FFFFFF" filter="url(#f17nmkdnjnv2la)" height="236.6016" style="stroke:#000000;stroke-width:2.0" width="518" x="63" y="547.4375"/>
    <rect fill="#FFFFFF" height="56.9375" style="stroke:none;stroke-width:1.0" width="518" x="63" y="727.1016"/>
    <rect fill="#FFFFFF" filter="url(#f17nmkdnjnv2la)" height="116.2031" style="stroke:#000000;stroke-width:2.0" width="552" x="299" y="1022.1016"/>
    <rect fill="#FFFFFF" height="56.9375" style="stroke:none;stroke-width:1.0" width="552" x="299" y="1081.3672"/>
    <rect fill="#FFFFFF" filter="url(#f17nmkdnjnv2la)" height="1272.0547" style="stroke:#000000;stroke-width:2.0" width="1238" x="10" y="1177.3047"/>
    <rect fill="#FFFFFF" filter="url(#f17nmkdnjnv2la)" height="974.0547" style="stroke:#000000;stroke-width:2.0" width="1004" x="20" y="1340.9688"/>
    <rect fill="#FFFFFF" filter="url(#f17nmkdnjnv2la)" height="373.8594" style="stroke:#000000;stroke-width:2.0" width="725" x="289" y="1504.6328"/>
    <rect fill="#FFFFFF" filter="url(#f17nmkdnjnv2la)" height="75.3984" style="stroke:#000000;stroke-width:2.0" width="705" x="299" y="1570.8984"/>
    <rect fill="#FFFFFF" filter="url(#f17nmkdnjnv2la)" height="59.2656" style="stroke:#000000;stroke-width:2.0" width="335" x="299" y="1660.2969"/>
    <rect fill="#FFFFFF" height="332.1328" style="stroke:none;stroke-width:1.0" width="1004" x="20" y="1982.8906"/>
    <rect fill="#FFFFFF" filter="url(#f17nmkdnjnv2la)" height="108.5313" style="stroke:#000000;stroke-width:2.0" width="605" x="299" y="2102.0938"/>
    <rect fill="#FFFFFF" height="127.3359" style="stroke:none;stroke-width:1.0" width="1238" x="10" y="2322.0234"/>
    <line style="stroke:#A80036;stroke-width:1.0;stroke-dasharray:5.0,5.0" x1="157" x2="157" y1="107.8438" y2="2466.3594"/>
    <line style="stroke:#A80036;stroke-width:1.0;stroke-dasharray:5.0,5.0" x1="348" x2="348" y1="107.8438" y2="2466.3594"/>
    <line style="stroke:#A80036;stroke-width:1.0;stroke-dasharray:5.0,5.0" x1="846" x2="846" y1="107.8438" y2="2466.3594"/>
    <line style="stroke:#A80036;stroke-width:1.0;stroke-dasharray:5.0,5.0" x1="949" x2="949" y1="107.8438" y2="2466.3594"/>
    <rect fill="#FEFECE" filter="url(#f17nmkdnjnv2la)" height="30.2969" style="stroke:#A80036;stroke-width:1.5" width="82" x="114" y="72.5469"/>
    <text fill="#000000" font-family="sans-serif" font-size="14" lengthAdjust="spacingAndGlyphs" textLength="68" x="121" y="92.542">Payer FSP</text>
    <rect fill="#FEFECE" filter="url(#f17nmkdnjnv2la)" height="30.2969" style="stroke:#A80036;stroke-width:1.5" width="82" x="114" y="2465.3594"/>
    <text fill="#000000" font-family="sans-serif" font-size="14" lengthAdjust="spacingAndGlyphs" textLength="68" x="121" y="2485.3545">Payer FSP</text>
    <rect fill="#FEFECE" filter="url(#f17nmkdnjnv2la)" height="62.8906" style="stroke:#A80036;stroke-width:1.5" width="74" x="309" y="39.9531"/>
    <text fill="#000000" font-family="sans-serif" font-size="14" lengthAdjust="spacingAndGlyphs" textLength="45" x="323.5" y="59.9482">Switch</text>
    <text fill="#000000" font-family="sans-serif" font-size="14" lengthAdjust="spacingAndGlyphs" textLength="60" x="316" y="76.2451">[Quoting</text>
    <text fill="#000000" font-family="sans-serif" font-size="14" lengthAdjust="spacingAndGlyphs" textLength="55" x="318.5" y="92.542">Service]</text>
    <rect fill="#FEFECE" filter="url(#f17nmkdnjnv2la)" height="62.8906" style="stroke:#A80036;stroke-width:1.5" width="74" x="309" y="2465.3594"/>
    <text fill="#000000" font-family="sans-serif" font-size="14" lengthAdjust="spacingAndGlyphs" textLength="45" x="323.5" y="2485.3545">Switch</text>
    <text fill="#000000" font-family="sans-serif" font-size="14" lengthAdjust="spacingAndGlyphs" textLength="60" x="316" y="2501.6514">[Quoting</text>
    <text fill="#000000" font-family="sans-serif" font-size="14" lengthAdjust="spacingAndGlyphs" textLength="55" x="318.5" y="2517.9482">Service]</text>
    <text fill="#000000" font-family="sans-serif" font-size="14" lengthAdjust="spacingAndGlyphs" textLength="90" x="798" y="104.542">Central Store</text>
    <path d="M828,55.5469 C828,45.5469 846,45.5469 846,45.5469 C846,45.5469 864,45.5469 864,55.5469 L864,81.5469 C864,91.5469 846,91.5469 846,91.5469 C846,91.5469 828,91.5469 828,81.5469 L828,55.5469 " fill="#FEFECE" filter="url(#f17nmkdnjnv2la)" style="stroke:#000000;stroke-width:1.5"/>
    <path d="M828,55.5469 C828,65.5469 846,65.5469 846,65.5469 C846,65.5469 864,65.5469 864,55.5469 " fill="none" style="stroke:#000000;stroke-width:1.5"/>
    <text fill="#000000" font-family="sans-serif" font-size="14" lengthAdjust="spacingAndGlyphs" textLength="90" x="798" y="2478.3545">Central Store</text>
    <path d="M828,2491.6563 C828,2481.6563 846,2481.6563 846,2481.6563 C846,2481.6563 864,2481.6563 864,2491.6563 L864,2517.6563 C864,2527.6563 846,2527.6563 846,2527.6563 C846,2527.6563 828,2527.6563 828,2517.6563 L828,2491.6563 " fill="#FEFECE" filter="url(#f17nmkdnjnv2la)" style="stroke:#000000;stroke-width:1.5"/>
    <path d="M828,2491.6563 C828,2501.6563 846,2501.6563 846,2501.6563 C846,2501.6563 864,2501.6563 864,2491.6563 " fill="none" style="stroke:#000000;stroke-width:1.5"/>
    <rect fill="#FEFECE" filter="url(#f17nmkdnjnv2la)" height="30.2969" style="stroke:#A80036;stroke-width:1.5" width="86" x="904" y="72.5469"/>
    <text fill="#000000" font-family="sans-serif" font-size="14" lengthAdjust="spacingAndGlyphs" textLength="72" x="911" y="92.542">Payee FSP</text>
    <rect fill="#FEFECE" filter="url(#f17nmkdnjnv2la)" height="30.2969" style="stroke:#A80036;stroke-width:1.5" width="86" x="904" y="2465.3594"/>
    <text fill="#000000" font-family="sans-serif" font-size="14" lengthAdjust="spacingAndGlyphs" textLength="72" x="911" y="2485.3545">Payee FSP</text>
    <rect fill="#FFFFFF" filter="url(#f17nmkdnjnv2la)" height="137.9297" style="stroke:#A80036;stroke-width:1.0" width="10" x="841" y="837.1719"/>
    <rect fill="#FFFFFF" filter="url(#f17nmkdnjnv2la)" height="122.7969" style="stroke:#A80036;stroke-width:1.0" width="10" x="841" y="1747.6953"/>
    <rect fill="#FFFFFF" filter="url(#f17nmkdnjnv2la)" height="62.2656" style="stroke:#A80036;stroke-width:1.0" width="10" x="841" y="2140.3594"/>
    <path d="M118,122.8438 L118,162.8438 L386,162.8438 L386,132.8438 L376,122.8438 L118,122.8438 " fill="#FBFB77" filter="url(#f17nmkdnjnv2la)" style="stroke:#A80036;stroke-width:1.0"/>
    <path d="M376,122.8438 L376,132.8438 L386,132.8438 L376,122.8438 " fill="#FBFB77" style="stroke:#A80036;stroke-width:1.0"/>
    <text fill="#000000" font-family="sans-serif" font-size="13" lengthAdjust="spacingAndGlyphs" textLength="221" x="133" y="139.9106">Payer FSP sends request for quote</text>
    <text fill="#000000" font-family="sans-serif" font-size="13" lengthAdjust="spacingAndGlyphs" textLength="176" x="133" y="155.0435">to Payee FSP via the Switch</text>
    <polygon fill="#A80036" points="336,189.2422,346,193.2422,336,193.2422" style="stroke:#A80036;stroke-width:1.0"/>
    <line style="stroke:#A80036;stroke-width:1.0" x1="157" x2="347" y1="193.2422" y2="193.2422"/>
    <text fill="#000000" font-family="sans-serif" font-size="13" font-weight="bold" lengthAdjust="spacingAndGlyphs" textLength="9" x="164" y="188.1763">1</text>
    <text fill="#000000" font-family="sans-serif" font-size="13" lengthAdjust="spacingAndGlyphs" textLength="86" x="177" y="188.1763">POST /quotes</text>
    <path d="M353,206.2422 L353,276.2422 L601,276.2422 L601,216.2422 L591,206.2422 L353,206.2422 " fill="#AAAAAA" filter="url(#f17nmkdnjnv2la)" style="stroke:#A80036;stroke-width:1.0"/>
    <path d="M591,206.2422 L591,216.2422 L601,216.2422 L591,206.2422 " fill="#AAAAAA" style="stroke:#A80036;stroke-width:1.0"/>
    <text fill="#000000" font-family="sans-serif" font-size="13" lengthAdjust="spacingAndGlyphs" textLength="156" x="359" y="223.3091">Validate request against</text>
    <text fill="#000000" font-family="sans-serif" font-size="13" lengthAdjust="spacingAndGlyphs" textLength="200" x="359" y="238.4419">Mojaloop interface specification</text>
    <text fill="#FF0000" font-family="sans-serif" font-size="13" font-weight="bold" lengthAdjust="spacingAndGlyphs" textLength="167" x="359" y="253.5747">Error code: 300x, 310x</text>
    <text fill="#FF0000" font-family="sans-serif" font-size="13" font-weight="bold" lengthAdjust="spacingAndGlyphs" textLength="227" x="359" y="268.7075">HTTP error response code: 4xx</text>
    <line style="stroke:#A80036;stroke-width:1.0" x1="348" x2="390" y1="306.9063" y2="306.9063"/>
    <line style="stroke:#A80036;stroke-width:1.0" x1="390" x2="390" y1="306.9063" y2="319.9063"/>
    <line style="stroke:#A80036;stroke-width:1.0" x1="349" x2="390" y1="319.9063" y2="319.9063"/>
    <polygon fill="#A80036" points="359,315.9063,349,319.9063,359,323.9063,355,319.9063" style="stroke:#A80036;stroke-width:1.0"/>
    <text fill="#000000" font-family="sans-serif" font-size="13" font-weight="bold" lengthAdjust="spacingAndGlyphs" textLength="9" x="355" y="301.8403">2</text>
    <text fill="#000000" font-family="sans-serif" font-size="13" lengthAdjust="spacingAndGlyphs" textLength="118" x="368" y="301.8403">Schema validation</text>
    <polygon fill="#A80036" points="168,350.0391,158,350.0391,168,354.0391" style="stroke:#A80036;stroke-width:1.0"/>
    <line style="stroke:#A80036;stroke-width:1.0;stroke-dasharray:2.0,2.0" x1="157" x2="347" y1="349.0391" y2="349.0391"/>
    <text fill="#000000" font-family="sans-serif" font-size="13" font-weight="bold" lengthAdjust="spacingAndGlyphs" textLength="9" x="174" y="343.9731">3</text>
    <text fill="#000000" font-family="sans-serif" font-size="13" lengthAdjust="spacingAndGlyphs" textLength="88" x="187" y="343.9731">202 Accepted</text>
    <line style="stroke:#A80036;stroke-width:1.0" x1="348" x2="390" y1="403.1719" y2="403.1719"/>
    <line style="stroke:#A80036;stroke-width:1.0" x1="390" x2="390" y1="403.1719" y2="416.1719"/>
    <line style="stroke:#A80036;stroke-width:1.0" x1="349" x2="390" y1="416.1719" y2="416.1719"/>
    <polygon fill="#A80036" points="359,412.1719,349,416.1719,359,420.1719,355,416.1719" style="stroke:#A80036;stroke-width:1.0"/>
    <text fill="#000000" font-family="sans-serif" font-size="13" font-weight="bold" lengthAdjust="spacingAndGlyphs" textLength="9" x="355" y="398.106">4</text>
    <text fill="#000000" font-family="sans-serif" font-size="13" lengthAdjust="spacingAndGlyphs" textLength="277" x="368" y="398.106">Quote request validation (rules engine etc.)</text>
    <path d="M53,456.1719 L117,456.1719 L117,463.1719 L107,473.1719 L53,473.1719 L53,456.1719 " fill="#EEEEEE" style="stroke:#000000;stroke-width:1.0"/>
    <rect fill="none" height="526.9297" style="stroke:#000000;stroke-width:2.0" width="883" x="53" y="456.1719"/>
    <text fill="#000000" font-family="sans-serif" font-size="13" font-weight="bold" lengthAdjust="spacingAndGlyphs" textLength="19" x="68" y="469.2388">alt</text>
    <text fill="#000000" font-family="sans-serif" font-size="11" font-weight="bold" lengthAdjust="spacingAndGlyphs" textLength="211" x="132" y="468.3823">[SimpleRoutingMode === FALSE]</text>
    <line style="stroke:#A80036;stroke-width:1.0" x1="348" x2="390" y1="494.4375" y2="494.4375"/>
    <line style="stroke:#A80036;stroke-width:1.0" x1="390" x2="390" y1="494.4375" y2="507.4375"/>
    <line style="stroke:#A80036;stroke-width:1.0" x1="349" x2="390" y1="507.4375" y2="507.4375"/>
    <polygon fill="#A80036" points="359,503.4375,349,507.4375,359,511.4375,355,507.4375" style="stroke:#A80036;stroke-width:1.0"/>
    <text fill="#000000" font-family="sans-serif" font-size="13" font-weight="bold" lengthAdjust="spacingAndGlyphs" textLength="9" x="355" y="489.3716">5</text>
    <text fill="#000000" font-family="sans-serif" font-size="13" lengthAdjust="spacingAndGlyphs" textLength="101" x="368" y="489.3716">Duplicate check</text>
    <path d="M63,547.4375 L127,547.4375 L127,554.4375 L117,564.4375 L63,564.4375 L63,547.4375 " fill="#EEEEEE" style="stroke:#000000;stroke-width:1.0"/>
    <rect fill="none" height="236.6016" style="stroke:#000000;stroke-width:2.0" width="518" x="63" y="547.4375"/>
    <text fill="#000000" font-family="sans-serif" font-size="13" font-weight="bold" lengthAdjust="spacingAndGlyphs" textLength="19" x="78" y="560.5044">alt</text>
    <text fill="#000000" font-family="sans-serif" font-size="11" font-weight="bold" lengthAdjust="spacingAndGlyphs" textLength="263" x="142" y="559.6479">[Request is a duplicate but not a resend]</text>
    <path d="M73,594.5703 L73,634.5703 L339,634.5703 L339,604.5703 L329,594.5703 L73,594.5703 " fill="#FBFB77" filter="url(#f17nmkdnjnv2la)" style="stroke:#A80036;stroke-width:1.0"/>
    <path d="M329,594.5703 L329,604.5703 L339,604.5703 L329,594.5703 " fill="#FBFB77" style="stroke:#A80036;stroke-width:1.0"/>
    <text fill="#000000" font-family="sans-serif" font-size="13" lengthAdjust="spacingAndGlyphs" textLength="245" x="79" y="611.6372">Switch returns error back to Payer FSP</text>
    <text fill="#FF0000" font-family="sans-serif" font-size="13" font-weight="bold" lengthAdjust="spacingAndGlyphs" textLength="123" x="79" y="626.77">Error code: 3106</text>
    <polygon fill="#A80036" points="168,660.9688,158,664.9688,168,664.9688" style="stroke:#A80036;stroke-width:1.0"/>
    <line style="stroke:#A80036;stroke-width:1.0" x1="157" x2="347" y1="664.9688" y2="664.9688"/>
    <text fill="#000000" font-family="sans-serif" font-size="13" font-weight="bold" lengthAdjust="spacingAndGlyphs" textLength="9" x="174" y="659.9028">6</text>
    <text fill="#000000" font-family="sans-serif" font-size="13" lengthAdjust="spacingAndGlyphs" textLength="145" x="187" y="659.9028">PUT /quotes/{ID}/error</text>
    <polygon fill="#A80036" points="336,695.1016,346,695.1016,336,699.1016" style="stroke:#A80036;stroke-width:1.0"/>
    <line style="stroke:#A80036;stroke-width:1.0;stroke-dasharray:2.0,2.0" x1="157" x2="347" y1="694.1016" y2="694.1016"/>
    <text fill="#000000" font-family="sans-serif" font-size="13" font-weight="bold" lengthAdjust="spacingAndGlyphs" textLength="9" x="164" y="689.0356">7</text>
    <text fill="#000000" font-family="sans-serif" font-size="13" lengthAdjust="spacingAndGlyphs" textLength="46" x="177" y="689.0356">200 OK</text>
    <line style="stroke:#000000;stroke-width:1.0;stroke-dasharray:2.0,2.0" x1="63" x2="581" y1="728.1016" y2="728.1016"/>
    <text fill="#000000" font-family="sans-serif" font-size="11" font-weight="bold" lengthAdjust="spacingAndGlyphs" textLength="241" x="68" y="738.312">[Request is a duplicate and a resend]</text>
    <line style="stroke:#A80036;stroke-width:1.0" x1="348" x2="390" y1="763.0391" y2="763.0391"/>
    <line style="stroke:#A80036;stroke-width:1.0" x1="390" x2="390" y1="763.0391" y2="776.0391"/>
    <line style="stroke:#A80036;stroke-width:1.0" x1="349" x2="390" y1="776.0391" y2="776.0391"/>
    <polygon fill="#A80036" points="359,772.0391,349,776.0391,359,780.0391,355,776.0391" style="stroke:#A80036;stroke-width:1.0"/>
    <text fill="#000000" font-family="sans-serif" font-size="13" font-weight="bold" lengthAdjust="spacingAndGlyphs" textLength="9" x="355" y="757.9731">8</text>
    <text fill="#000000" font-family="sans-serif" font-size="13" lengthAdjust="spacingAndGlyphs" textLength="201" x="368" y="757.9731">Switch handles resend scenario</text>
    <polygon fill="#A80036" points="829,833.1719,839,837.1719,829,837.1719" style="stroke:#A80036;stroke-width:1.0"/>
    <line style="stroke:#A80036;stroke-width:1.0" x1="348" x2="840" y1="837.1719" y2="837.1719"/>
    <text fill="#000000" font-family="sans-serif" font-size="13" font-weight="bold" lengthAdjust="spacingAndGlyphs" textLength="9" x="355" y="832.106">9</text>
    <text fill="#000000" font-family="sans-serif" font-size="13" lengthAdjust="spacingAndGlyphs" textLength="137" x="368" y="832.106">Persist quote request</text>
    <polygon fill="#FBFB77" filter="url(#f17nmkdnjnv2la)" points="776,850.1719,916,850.1719,926,899.1719,916,948.1719,776,948.1719,766,899.1719,776,850.1719" style="stroke:#A80036;stroke-width:1.0"/>
    <text fill="#000000" font-family="sans-serif" font-size="13" lengthAdjust="spacingAndGlyphs" textLength="136" x="778" y="866.2388">quoteDuplicateCheck</text>
    <text fill="#000000" font-family="sans-serif" font-size="13" lengthAdjust="spacingAndGlyphs" textLength="136" x="778" y="881.3716">transactionReference</text>
    <text fill="#000000" font-family="sans-serif" font-size="13" lengthAdjust="spacingAndGlyphs" textLength="37" x="778" y="896.5044">quote</text>
    <text fill="#000000" font-family="sans-serif" font-size="13" lengthAdjust="spacingAndGlyphs" textLength="70" x="778" y="911.6372">quoteParty</text>
    <text fill="#000000" font-family="sans-serif" font-size="13" lengthAdjust="spacingAndGlyphs" textLength="99" x="778" y="926.77">quoteExtension</text>
    <text fill="#000000" font-family="sans-serif" font-size="13" lengthAdjust="spacingAndGlyphs" textLength="57" x="778" y="941.9028">geoCode</text>
    <polygon fill="#A80036" points="359,976.1016,349,976.1016,359,980.1016" style="stroke:#A80036;stroke-width:1.0"/>
    <line style="stroke:#A80036;stroke-width:1.0;stroke-dasharray:2.0,2.0" x1="348" x2="845" y1="975.1016" y2="975.1016"/>
    <text fill="#000000" font-family="sans-serif" font-size="13" font-weight="bold" lengthAdjust="spacingAndGlyphs" textLength="18" x="365" y="970.0356">10</text>
    <text fill="#000000" font-family="sans-serif" font-size="13" lengthAdjust="spacingAndGlyphs" textLength="134" x="387" y="970.0356">Quote request saved</text>
    <path d="M299,1022.1016 L363,1022.1016 L363,1029.1016 L353,1039.1016 L299,1039.1016 L299,1022.1016 " fill="#EEEEEE" style="stroke:#000000;stroke-width:1.0"/>
    <rect fill="none" height="116.2031" style="stroke:#000000;stroke-width:2.0" width="552" x="299" y="1022.1016"/>
    <text fill="#000000" font-family="sans-serif" font-size="13" font-weight="bold" lengthAdjust="spacingAndGlyphs" textLength="19" x="314" y="1035.1685">alt</text>
    <text fill="#000000" font-family="sans-serif" font-size="11" font-weight="bold" lengthAdjust="spacingAndGlyphs" textLength="205" x="378" y="1034.312">[SimpleRoutingMode === TRUE]</text>
    <line style="stroke:#A80036;stroke-width:1.0" x1="348" x2="390" y1="1060.3672" y2="1060.3672"/>
    <line style="stroke:#A80036;stroke-width:1.0" x1="390" x2="390" y1="1060.3672" y2="1073.3672"/>
    <line style="stroke:#A80036;stroke-width:1.0" x1="349" x2="390" y1="1073.3672" y2="1073.3672"/>
    <polygon fill="#A80036" points="359,1069.3672,349,1073.3672,359,1077.3672,355,1073.3672" style="stroke:#A80036;stroke-width:1.0"/>
    <text fill="#000000" font-family="sans-serif" font-size="13" font-weight="bold" lengthAdjust="spacingAndGlyphs" textLength="18" x="355" y="1055.3013">11</text>
    <text fill="#000000" font-family="sans-serif" font-size="13" lengthAdjust="spacingAndGlyphs" textLength="462" x="377" y="1055.3013">Use fspiop-destination header to retrieve quotes endpoint for Payee FSP</text>
    <line style="stroke:#000000;stroke-width:1.0;stroke-dasharray:2.0,2.0" x1="299" x2="851" y1="1082.3672" y2="1082.3672"/>
    <text fill="#000000" font-family="sans-serif" font-size="11" font-weight="bold" lengthAdjust="spacingAndGlyphs" textLength="211" x="304" y="1092.5776">[SimpleRoutingMode === FALSE]</text>
    <line style="stroke:#A80036;stroke-width:1.0" x1="348" x2="390" y1="1117.3047" y2="1117.3047"/>
    <line style="stroke:#A80036;stroke-width:1.0" x1="390" x2="390" y1="1117.3047" y2="1130.3047"/>
    <line style="stroke:#A80036;stroke-width:1.0" x1="349" x2="390" y1="1130.3047" y2="1130.3047"/>
    <polygon fill="#A80036" points="359,1126.3047,349,1130.3047,359,1134.3047,355,1130.3047" style="stroke:#A80036;stroke-width:1.0"/>
    <text fill="#000000" font-family="sans-serif" font-size="13" font-weight="bold" lengthAdjust="spacingAndGlyphs" textLength="18" x="355" y="1112.2388">12</text>
    <text fill="#000000" font-family="sans-serif" font-size="13" lengthAdjust="spacingAndGlyphs" textLength="376" x="377" y="1112.2388">Retireve Payee FSP endpoint using quote party information</text>
    <path d="M10,1177.3047 L74,1177.3047 L74,1184.3047 L64,1194.3047 L10,1194.3047 L10,1177.3047 " fill="#EEEEEE" style="stroke:#000000;stroke-width:1.0"/>
    <rect fill="none" height="1272.0547" style="stroke:#000000;stroke-width:2.0" width="1238" x="10" y="1177.3047"/>
    <text fill="#000000" font-family="sans-serif" font-size="13" font-weight="bold" lengthAdjust="spacingAndGlyphs" textLength="19" x="25" y="1190.3716">alt</text>
    <text fill="#000000" font-family="sans-serif" font-size="11" font-weight="bold" lengthAdjust="spacingAndGlyphs" textLength="199" x="89" y="1189.5151">[Payee quotes endpoint found]</text>
    <path d="M353,1199.4375 L353,1224.4375 L655,1224.4375 L655,1209.4375 L645,1199.4375 L353,1199.4375 " fill="#FBFB77" filter="url(#f17nmkdnjnv2la)" style="stroke:#A80036;stroke-width:1.0"/>
    <path d="M645,1199.4375 L645,1209.4375 L655,1209.4375 L645,1199.4375 " fill="#FBFB77" style="stroke:#A80036;stroke-width:1.0"/>
    <text fill="#000000" font-family="sans-serif" font-size="13" lengthAdjust="spacingAndGlyphs" textLength="281" x="359" y="1216.5044">Switch forwards quote request to Payee FSP</text>
    <polygon fill="#A80036" points="937,1250.7031,947,1254.7031,937,1254.7031" style="stroke:#A80036;stroke-width:1.0"/>
    <line style="stroke:#A80036;stroke-width:1.0" x1="348" x2="948" y1="1254.7031" y2="1254.7031"/>
    <text fill="#000000" font-family="sans-serif" font-size="13" font-weight="bold" lengthAdjust="spacingAndGlyphs" textLength="18" x="355" y="1249.6372">13</text>
    <text fill="#000000" font-family="sans-serif" font-size="13" lengthAdjust="spacingAndGlyphs" textLength="86" x="377" y="1249.6372">POST /quotes</text>
    <polygon fill="#A80036" points="359,1284.8359,349,1284.8359,359,1288.8359" style="stroke:#A80036;stroke-width:1.0"/>
    <line style="stroke:#A80036;stroke-width:1.0;stroke-dasharray:2.0,2.0" x1="348" x2="948" y1="1283.8359" y2="1283.8359"/>
    <text fill="#000000" font-family="sans-serif" font-size="13" font-weight="bold" lengthAdjust="spacingAndGlyphs" textLength="18" x="365" y="1278.77">14</text>
    <text fill="#000000" font-family="sans-serif" font-size="13" lengthAdjust="spacingAndGlyphs" textLength="46" x="387" y="1278.77">202 OK</text>
    <line style="stroke:#A80036;stroke-width:1.0" x1="949" x2="991" y1="1312.9688" y2="1312.9688"/>
    <line style="stroke:#A80036;stroke-width:1.0" x1="991" x2="991" y1="1312.9688" y2="1325.9688"/>
    <line style="stroke:#A80036;stroke-width:1.0" x1="950" x2="991" y1="1325.9688" y2="1325.9688"/>
    <polygon fill="#A80036" points="960,1321.9688,950,1325.9688,960,1329.9688,956,1325.9688" style="stroke:#A80036;stroke-width:1.0"/>
    <text fill="#000000" font-family="sans-serif" font-size="13" font-weight="bold" lengthAdjust="spacingAndGlyphs" textLength="18" x="956" y="1307.9028">15</text>
    <text fill="#000000" font-family="sans-serif" font-size="13" lengthAdjust="spacingAndGlyphs" textLength="258" x="978" y="1307.9028">Payee FSP presists and calculates quote</text>
    <path d="M20,1340.9688 L84,1340.9688 L84,1347.9688 L74,1357.9688 L20,1357.9688 L20,1340.9688 " fill="#EEEEEE" style="stroke:#000000;stroke-width:1.0"/>
    <rect fill="none" height="974.0547" style="stroke:#000000;stroke-width:2.0" width="1004" x="20" y="1340.9688"/>
    <text fill="#000000" font-family="sans-serif" font-size="13" font-weight="bold" lengthAdjust="spacingAndGlyphs" textLength="19" x="35" y="1354.0356">alt</text>
    <text fill="#000000" font-family="sans-serif" font-size="11" font-weight="bold" lengthAdjust="spacingAndGlyphs" textLength="243" x="99" y="1353.1792">[Payee quotes processing successful]</text>
    <path d="M495,1363.1016 L495,1388.1016 L940,1388.1016 L940,1373.1016 L930,1363.1016 L495,1363.1016 " fill="#FBFB77" filter="url(#f17nmkdnjnv2la)" style="stroke:#A80036;stroke-width:1.0"/>
    <path d="M930,1363.1016 L930,1373.1016 L940,1373.1016 L930,1363.1016 " fill="#FBFB77" style="stroke:#A80036;stroke-width:1.0"/>
    <text fill="#000000" font-family="sans-serif" font-size="13" lengthAdjust="spacingAndGlyphs" textLength="424" x="501" y="1380.1685">Payee FSP sends quote response back to Payer FSP via the Switch</text>
    <polygon fill="#A80036" points="359,1414.3672,349,1418.3672,359,1418.3672" style="stroke:#A80036;stroke-width:1.0"/>
    <line style="stroke:#A80036;stroke-width:1.0" x1="348" x2="948" y1="1418.3672" y2="1418.3672"/>
    <text fill="#000000" font-family="sans-serif" font-size="13" font-weight="bold" lengthAdjust="spacingAndGlyphs" textLength="18" x="365" y="1413.3013">16</text>
    <text fill="#000000" font-family="sans-serif" font-size="13" lengthAdjust="spacingAndGlyphs" textLength="110" x="387" y="1413.3013">PUT /quotes/{ID}</text>
    <polygon fill="#A80036" points="937,1448.5,947,1448.5,937,1452.5" style="stroke:#A80036;stroke-width:1.0"/>
    <line style="stroke:#A80036;stroke-width:1.0;stroke-dasharray:2.0,2.0" x1="348" x2="948" y1="1447.5" y2="1447.5"/>
    <text fill="#000000" font-family="sans-serif" font-size="13" font-weight="bold" lengthAdjust="spacingAndGlyphs" textLength="18" x="355" y="1442.4341">17</text>
    <text fill="#000000" font-family="sans-serif" font-size="13" lengthAdjust="spacingAndGlyphs" textLength="46" x="377" y="1442.4341">200 OK</text>
    <line style="stroke:#A80036;stroke-width:1.0" x1="348" x2="390" y1="1476.6328" y2="1476.6328"/>
    <line style="stroke:#A80036;stroke-width:1.0" x1="390" x2="390" y1="1476.6328" y2="1489.6328"/>
    <line style="stroke:#A80036;stroke-width:1.0" x1="349" x2="390" y1="1489.6328" y2="1489.6328"/>
    <polygon fill="#A80036" points="359,1485.6328,349,1489.6328,359,1493.6328,355,1489.6328" style="stroke:#A80036;stroke-width:1.0"/>
    <text fill="#000000" font-family="sans-serif" font-size="13" font-weight="bold" lengthAdjust="spacingAndGlyphs" textLength="18" x="355" y="1471.5669">18</text>
    <text fill="#000000" font-family="sans-serif" font-size="13" lengthAdjust="spacingAndGlyphs" textLength="156" x="377" y="1471.5669">Validate quote response</text>
    <path d="M289,1504.6328 L353,1504.6328 L353,1511.6328 L343,1521.6328 L289,1521.6328 L289,1504.6328 " fill="#EEEEEE" style="stroke:#000000;stroke-width:1.0"/>
    <rect fill="none" height="373.8594" style="stroke:#000000;stroke-width:2.0" width="725" x="289" y="1504.6328"/>
    <text fill="#000000" font-family="sans-serif" font-size="13" font-weight="bold" lengthAdjust="spacingAndGlyphs" textLength="19" x="304" y="1517.6997">alt</text>
    <text fill="#000000" font-family="sans-serif" font-size="11" font-weight="bold" lengthAdjust="spacingAndGlyphs" textLength="211" x="368" y="1516.8433">[SimpleRoutingMode === FALSE]</text>
    <line style="stroke:#A80036;stroke-width:1.0" x1="348" x2="390" y1="1542.8984" y2="1542.8984"/>
    <line style="stroke:#A80036;stroke-width:1.0" x1="390" x2="390" y1="1542.8984" y2="1555.8984"/>
    <line style="stroke:#A80036;stroke-width:1.0" x1="349" x2="390" y1="1555.8984" y2="1555.8984"/>
    <polygon fill="#A80036" points="359,1551.8984,349,1555.8984,359,1559.8984,355,1555.8984" style="stroke:#A80036;stroke-width:1.0"/>
    <text fill="#000000" font-family="sans-serif" font-size="13" font-weight="bold" lengthAdjust="spacingAndGlyphs" textLength="18" x="355" y="1537.8325">19</text>
    <text fill="#000000" font-family="sans-serif" font-size="13" lengthAdjust="spacingAndGlyphs" textLength="101" x="377" y="1537.8325">Duplicate check</text>
    <path d="M299,1570.8984 L363,1570.8984 L363,1577.8984 L353,1587.8984 L299,1587.8984 L299,1570.8984 " fill="#EEEEEE" style="stroke:#000000;stroke-width:1.0"/>
    <rect fill="none" height="75.3984" style="stroke:#000000;stroke-width:2.0" width="705" x="299" y="1570.8984"/>
    <text fill="#000000" font-family="sans-serif" font-size="13" font-weight="bold" lengthAdjust="spacingAndGlyphs" textLength="19" x="314" y="1583.9653">alt</text>
    <text fill="#000000" font-family="sans-serif" font-size="11" font-weight="bold" lengthAdjust="spacingAndGlyphs" textLength="261" x="378" y="1583.1089">[Response is duplicate but not a resend]</text>
    <polygon fill="#A80036" points="937,1605.1641,947,1609.1641,937,1609.1641" style="stroke:#A80036;stroke-width:1.0"/>
    <line style="stroke:#A80036;stroke-width:1.0" x1="348" x2="948" y1="1609.1641" y2="1609.1641"/>
    <text fill="#000000" font-family="sans-serif" font-size="13" font-weight="bold" lengthAdjust="spacingAndGlyphs" textLength="18" x="355" y="1604.0981">20</text>
    <text fill="#000000" font-family="sans-serif" font-size="13" lengthAdjust="spacingAndGlyphs" textLength="145" x="377" y="1604.0981">PUT /quotes/{ID}/error</text>
    <polygon fill="#A80036" points="359,1639.2969,349,1639.2969,359,1643.2969" style="stroke:#A80036;stroke-width:1.0"/>
    <line style="stroke:#A80036;stroke-width:1.0;stroke-dasharray:2.0,2.0" x1="348" x2="948" y1="1638.2969" y2="1638.2969"/>
    <text fill="#000000" font-family="sans-serif" font-size="13" font-weight="bold" lengthAdjust="spacingAndGlyphs" textLength="18" x="365" y="1633.231">21</text>
    <text fill="#000000" font-family="sans-serif" font-size="13" lengthAdjust="spacingAndGlyphs" textLength="46" x="387" y="1633.231">200 OK</text>
    <path d="M299,1660.2969 L363,1660.2969 L363,1667.2969 L353,1677.2969 L299,1677.2969 L299,1660.2969 " fill="#EEEEEE" style="stroke:#000000;stroke-width:1.0"/>
    <rect fill="none" height="59.2656" style="stroke:#000000;stroke-width:2.0" width="335" x="299" y="1660.2969"/>
    <text fill="#000000" font-family="sans-serif" font-size="13" font-weight="bold" lengthAdjust="spacingAndGlyphs" textLength="19" x="314" y="1673.3638">alt</text>
    <text fill="#000000" font-family="sans-serif" font-size="11" font-weight="bold" lengthAdjust="spacingAndGlyphs" textLength="251" x="378" y="1672.5073">[Response is a duplicate and a resend]</text>
    <line style="stroke:#A80036;stroke-width:1.0" x1="348" x2="390" y1="1698.5625" y2="1698.5625"/>
    <line style="stroke:#A80036;stroke-width:1.0" x1="390" x2="390" y1="1698.5625" y2="1711.5625"/>
    <line style="stroke:#A80036;stroke-width:1.0" x1="349" x2="390" y1="1711.5625" y2="1711.5625"/>
    <polygon fill="#A80036" points="359,1707.5625,349,1711.5625,359,1715.5625,355,1711.5625" style="stroke:#A80036;stroke-width:1.0"/>
    <text fill="#000000" font-family="sans-serif" font-size="13" font-weight="bold" lengthAdjust="spacingAndGlyphs" textLength="18" x="355" y="1693.4966">22</text>
    <text fill="#000000" font-family="sans-serif" font-size="13" lengthAdjust="spacingAndGlyphs" textLength="201" x="377" y="1693.4966">Switch handles resend scenario</text>
    <polygon fill="#A80036" points="829,1743.6953,839,1747.6953,829,1747.6953" style="stroke:#A80036;stroke-width:1.0"/>
    <line style="stroke:#A80036;stroke-width:1.0" x1="348" x2="840" y1="1747.6953" y2="1747.6953"/>
    <text fill="#000000" font-family="sans-serif" font-size="13" font-weight="bold" lengthAdjust="spacingAndGlyphs" textLength="18" x="355" y="1742.6294">23</text>
    <text fill="#000000" font-family="sans-serif" font-size="13" lengthAdjust="spacingAndGlyphs" textLength="147" x="377" y="1742.6294">Persist quote response</text>
    <polygon fill="#FBFB77" filter="url(#f17nmkdnjnv2la)" points="766,1760.6953,926,1760.6953,936,1801.6953,926,1843.6953,766,1843.6953,756,1801.6953,766,1760.6953" style="stroke:#A80036;stroke-width:1.0"/>
    <text fill="#000000" font-family="sans-serif" font-size="13" lengthAdjust="spacingAndGlyphs" textLength="99" x="768" y="1776.7622">quoteResponse</text>
    <text fill="#000000" font-family="sans-serif" font-size="13" lengthAdjust="spacingAndGlyphs" textLength="136" x="768" y="1791.895">quoteDuplicateCheck</text>
    <text fill="#000000" font-family="sans-serif" font-size="13" lengthAdjust="spacingAndGlyphs" textLength="156" x="768" y="1807.0278">quoteResponseIlpPacket</text>
    <text fill="#000000" font-family="sans-serif" font-size="13" lengthAdjust="spacingAndGlyphs" textLength="57" x="768" y="1822.1606">geoCode</text>
    <text fill="#000000" font-family="sans-serif" font-size="13" lengthAdjust="spacingAndGlyphs" textLength="99" x="768" y="1837.2935">quoteExtension</text>
    <polygon fill="#A80036" points="359,1871.4922,349,1871.4922,359,1875.4922" style="stroke:#A80036;stroke-width:1.0"/>
    <line style="stroke:#A80036;stroke-width:1.0;stroke-dasharray:2.0,2.0" x1="348" x2="845" y1="1870.4922" y2="1870.4922"/>
    <text fill="#000000" font-family="sans-serif" font-size="13" font-weight="bold" lengthAdjust="spacingAndGlyphs" textLength="18" x="365" y="1865.4263">24</text>
    <text fill="#000000" font-family="sans-serif" font-size="13" lengthAdjust="spacingAndGlyphs" textLength="144" x="387" y="1865.4263">Quote response saved</text>
    <path d="M30,1890.4922 L30,1915.4922 L339,1915.4922 L339,1900.4922 L329,1890.4922 L30,1890.4922 " fill="#FBFB77" filter="url(#f17nmkdnjnv2la)" style="stroke:#A80036;stroke-width:1.0"/>
    <path d="M329,1890.4922 L329,1900.4922 L339,1900.4922 L329,1890.4922 " fill="#FBFB77" style="stroke:#A80036;stroke-width:1.0"/>
    <text fill="#000000" font-family="sans-serif" font-size="13" lengthAdjust="spacingAndGlyphs" textLength="288" x="36" y="1907.5591">Switch forwards quote response to Payer FSP</text>
    <polygon fill="#A80036" points="168,1941.7578,158,1945.7578,168,1945.7578" style="stroke:#A80036;stroke-width:1.0"/>
    <line style="stroke:#A80036;stroke-width:1.0" x1="157" x2="347" y1="1945.7578" y2="1945.7578"/>
    <text fill="#000000" font-family="sans-serif" font-size="13" font-weight="bold" lengthAdjust="spacingAndGlyphs" textLength="18" x="174" y="1940.6919">25</text>
    <text fill="#000000" font-family="sans-serif" font-size="13" lengthAdjust="spacingAndGlyphs" textLength="110" x="196" y="1940.6919">PUT /quotes/{ID}</text>
    <polygon fill="#A80036" points="336,1975.8906,346,1975.8906,336,1979.8906" style="stroke:#A80036;stroke-width:1.0"/>
    <line style="stroke:#A80036;stroke-width:1.0;stroke-dasharray:2.0,2.0" x1="157" x2="347" y1="1974.8906" y2="1974.8906"/>
    <text fill="#000000" font-family="sans-serif" font-size="13" font-weight="bold" lengthAdjust="spacingAndGlyphs" textLength="18" x="164" y="1969.8247">26</text>
    <text fill="#000000" font-family="sans-serif" font-size="13" lengthAdjust="spacingAndGlyphs" textLength="46" x="186" y="1969.8247">200 OK</text>
    <line style="stroke:#000000;stroke-width:1.0;stroke-dasharray:2.0,2.0" x1="20" x2="1024" y1="1983.8906" y2="1983.8906"/>
    <text fill="#000000" font-family="sans-serif" font-size="11" font-weight="bold" lengthAdjust="spacingAndGlyphs" textLength="301" x="25" y="1994.1011">[Payee rejects quotes or encounters and error]</text>
    <path d="M543,2002.6953 L543,2027.6953 L940,2027.6953 L940,2012.6953 L930,2002.6953 L543,2002.6953 " fill="#FBFB77" filter="url(#f17nmkdnjnv2la)" style="stroke:#A80036;stroke-width:1.0"/>
    <path d="M930,2002.6953 L930,2012.6953 L940,2012.6953 L930,2002.6953 " fill="#FBFB77" style="stroke:#A80036;stroke-width:1.0"/>
    <text fill="#000000" font-family="sans-serif" font-size="13" lengthAdjust="spacingAndGlyphs" textLength="376" x="549" y="2019.7622">Payee FSP sends error callback to Payer FSP via the Switch</text>
    <polygon fill="#A80036" points="359,2053.9609,349,2057.9609,359,2057.9609" style="stroke:#A80036;stroke-width:1.0"/>
    <line style="stroke:#A80036;stroke-width:1.0" x1="348" x2="948" y1="2057.9609" y2="2057.9609"/>
    <text fill="#000000" font-family="sans-serif" font-size="13" font-weight="bold" lengthAdjust="spacingAndGlyphs" textLength="18" x="365" y="2052.895">27</text>
    <text fill="#000000" font-family="sans-serif" font-size="13" lengthAdjust="spacingAndGlyphs" textLength="145" x="387" y="2052.895">PUT /quotes/{ID}/error</text>
    <polygon fill="#A80036" points="937,2088.0938,947,2088.0938,937,2092.0938" style="stroke:#A80036;stroke-width:1.0"/>
    <line style="stroke:#A80036;stroke-width:1.0;stroke-dasharray:2.0,2.0" x1="348" x2="948" y1="2087.0938" y2="2087.0938"/>
    <text fill="#000000" font-family="sans-serif" font-size="13" font-weight="bold" lengthAdjust="spacingAndGlyphs" textLength="18" x="355" y="2082.0278">28</text>
    <text fill="#000000" font-family="sans-serif" font-size="13" lengthAdjust="spacingAndGlyphs" textLength="46" x="377" y="2082.0278">200 OK</text>
    <path d="M299,2102.0938 L363,2102.0938 L363,2109.0938 L353,2119.0938 L299,2119.0938 L299,2102.0938 " fill="#EEEEEE" style="stroke:#000000;stroke-width:1.0"/>
    <rect fill="none" height="108.5313" style="stroke:#000000;stroke-width:2.0" width="605" x="299" y="2102.0938"/>
    <text fill="#000000" font-family="sans-serif" font-size="13" font-weight="bold" lengthAdjust="spacingAndGlyphs" textLength="19" x="314" y="2115.1606">alt</text>
    <text fill="#000000" font-family="sans-serif" font-size="11" font-weight="bold" lengthAdjust="spacingAndGlyphs" textLength="211" x="378" y="2114.3042">[SimpleRoutingMode === FALSE]</text>
    <polygon fill="#A80036" points="829,2136.3594,839,2140.3594,829,2140.3594" style="stroke:#A80036;stroke-width:1.0"/>
    <line style="stroke:#A80036;stroke-width:1.0" x1="348" x2="840" y1="2140.3594" y2="2140.3594"/>
    <text fill="#000000" font-family="sans-serif" font-size="13" font-weight="bold" lengthAdjust="spacingAndGlyphs" textLength="18" x="355" y="2135.2935">29</text>
    <text fill="#000000" font-family="sans-serif" font-size="13" lengthAdjust="spacingAndGlyphs" textLength="111" x="377" y="2135.2935">Store quote error</text>
    <polygon fill="#FBFB77" filter="url(#f17nmkdnjnv2la)" points="810,2153.3594,882,2153.3594,892,2164.3594,882,2176.3594,810,2176.3594,800,2164.3594,810,2153.3594" style="stroke:#A80036;stroke-width:1.0"/>
    <text fill="#000000" font-family="sans-serif" font-size="13" lengthAdjust="spacingAndGlyphs" textLength="68" x="812" y="2169.4263">quoteError</text>
    <polygon fill="#A80036" points="359,2203.625,349,2203.625,359,2207.625" style="stroke:#A80036;stroke-width:1.0"/>
    <line style="stroke:#A80036;stroke-width:1.0;stroke-dasharray:2.0,2.0" x1="348" x2="845" y1="2202.625" y2="2202.625"/>
    <text fill="#000000" font-family="sans-serif" font-size="13" font-weight="bold" lengthAdjust="spacingAndGlyphs" textLength="18" x="365" y="2197.5591">30</text>
    <text fill="#000000" font-family="sans-serif" font-size="13" lengthAdjust="spacingAndGlyphs" textLength="116" x="387" y="2197.5591">Quote error saved</text>
    <path d="M44,2222.625 L44,2247.625 L339,2247.625 L339,2232.625 L329,2222.625 L44,2222.625 " fill="#FBFB77" filter="url(#f17nmkdnjnv2la)" style="stroke:#A80036;stroke-width:1.0"/>
    <path d="M329,2222.625 L329,2232.625 L339,2232.625 L329,2222.625 " fill="#FBFB77" style="stroke:#A80036;stroke-width:1.0"/>
    <text fill="#000000" font-family="sans-serif" font-size="13" lengthAdjust="spacingAndGlyphs" textLength="274" x="50" y="2239.6919">Switch forwards error callback to Payer FSP</text>
    <polygon fill="#A80036" points="168,2273.8906,158,2277.8906,168,2277.8906" style="stroke:#A80036;stroke-width:1.0"/>
    <line style="stroke:#A80036;stroke-width:1.0" x1="157" x2="347" y1="2277.8906" y2="2277.8906"/>
    <text fill="#000000" font-family="sans-serif" font-size="13" font-weight="bold" lengthAdjust="spacingAndGlyphs" textLength="18" x="174" y="2272.8247">31</text>
    <text fill="#000000" font-family="sans-serif" font-size="13" lengthAdjust="spacingAndGlyphs" textLength="145" x="196" y="2272.8247">PUT /quotes/{ID}/error</text>
    <polygon fill="#A80036" points="336,2308.0234,346,2308.0234,336,2312.0234" style="stroke:#A80036;stroke-width:1.0"/>
    <line style="stroke:#A80036;stroke-width:1.0;stroke-dasharray:2.0,2.0" x1="157" x2="347" y1="2307.0234" y2="2307.0234"/>
    <text fill="#000000" font-family="sans-serif" font-size="13" font-weight="bold" lengthAdjust="spacingAndGlyphs" textLength="18" x="164" y="2301.9575">32</text>
    <text fill="#000000" font-family="sans-serif" font-size="13" lengthAdjust="spacingAndGlyphs" textLength="46" x="186" y="2301.9575">200 OK</text>
    <line style="stroke:#000000;stroke-width:1.0;stroke-dasharray:2.0,2.0" x1="10" x2="1248" y1="2323.0234" y2="2323.0234"/>
    <text fill="#000000" font-family="sans-serif" font-size="11" font-weight="bold" lengthAdjust="spacingAndGlyphs" textLength="252" x="15" y="2333.2339">[Payee FSP quotes endpoint not found]</text>
    <path d="M36,2341.8281 L36,2381.8281 L339,2381.8281 L339,2351.8281 L329,2341.8281 L36,2341.8281 " fill="#FBFB77" filter="url(#f17nmkdnjnv2la)" style="stroke:#A80036;stroke-width:1.0"/>
    <path d="M329,2341.8281 L329,2351.8281 L339,2351.8281 L329,2341.8281 " fill="#FBFB77" style="stroke:#A80036;stroke-width:1.0"/>
    <text fill="#000000" font-family="sans-serif" font-size="13" lengthAdjust="spacingAndGlyphs" textLength="278" x="42" y="2358.895">Switch sends an error callback to Payer FSP</text>
    <text fill="#000000" font-family="sans-serif" font-size="13" lengthAdjust="spacingAndGlyphs" textLength="0" x="46" y="2374.0278"/>
    <text fill="#FF0000" font-family="sans-serif" font-size="13" font-weight="bold" lengthAdjust="spacingAndGlyphs" textLength="123" x="46" y="2374.0278">Error code: 3201</text>
    <polygon fill="#A80036" points="168,2408.2266,158,2412.2266,168,2412.2266" style="stroke:#A80036;stroke-width:1.0"/>
    <line style="stroke:#A80036;stroke-width:1.0" x1="157" x2="347" y1="2412.2266" y2="2412.2266"/>
    <text fill="#000000" font-family="sans-serif" font-size="13" font-weight="bold" lengthAdjust="spacingAndGlyphs" textLength="18" x="174" y="2407.1606">33</text>
    <text fill="#000000" font-family="sans-serif" font-size="13" lengthAdjust="spacingAndGlyphs" textLength="145" x="196" y="2407.1606">PUT /quotes/{ID}/error</text>
    <polygon fill="#A80036" points="336,2437.3594,346,2441.3594,336,2441.3594" style="stroke:#A80036;stroke-width:1.0"/>
    <line style="stroke:#A80036;stroke-width:1.0;stroke-dasharray:2.0,2.0" x1="157" x2="347" y1="2441.3594" y2="2441.3594"/>
    <text fill="#000000" font-family="sans-serif" font-size="13" font-weight="bold" lengthAdjust="spacingAndGlyphs" textLength="18" x="164" y="2436.2935">34</text>
    <text fill="#000000" font-family="sans-serif" font-size="13" lengthAdjust="spacingAndGlyphs" textLength="46" x="186" y="2436.2935">200 OK</text>
  </g>
</svg>
