<svg xmlns="http://www.w3.org/2000/svg" xmlns:xlink="http://www.w3.org/1999/xlink" contentStyleType="text/css" height="1492px" preserveAspectRatio="none" style="width:702px;height:1492px;background:#FFFFFF;" version="1.1" viewBox="0 0 702 1492" width="702px" zoomAndPan="magnify">
  <title>Quoting Service Sequences</title>
  <defs/>
  <g>
    <text fill="#000000" font-family="sans-serif" font-size="14" font-weight="bold" lengthAdjust="spacing" textLength="216.0703" x="244.0544" y="27.9951">Quoting Service Sequences</text>
    <rect fill="none" height="1149.3281" style="stroke:#000000;stroke-width:1.5;" width="686.1792" x="9" y="258.7188"/>
    <rect fill="none" height="817.1953" style="stroke:#000000;stroke-width:1.5;" width="554.1919" x="19" y="475.6484"/>
    <rect fill="none" height="406.7969" style="stroke:#000000;stroke-width:1.5;" width="534.1919" x="29" y="635.3125"/>
    <line style="stroke:#181818;stroke-width:0.5;stroke-dasharray:5.0,5.0;" x1="118" x2="118" y1="106.1875" y2="1425.0469"/>
    <line style="stroke:#181818;stroke-width:0.5;stroke-dasharray:5.0,5.0;" x1="308.9189" x2="308.9189" y1="106.1875" y2="1425.0469"/>
    <line style="stroke:#181818;stroke-width:0.5;stroke-dasharray:5.0,5.0;" x1="509.8267" x2="509.8267" y1="106.1875" y2="1425.0469"/>
    <rect fill="#E2E2F0" height="30.2969" rx="2.5" ry="2.5" style="stroke:#181818;stroke-width:0.5;" width="83.5078" x="77" y="74.8906"/>
    <text fill="#000000" font-family="sans-serif" font-size="14" lengthAdjust="spacing" textLength="69.5078" x="84" y="94.8857">Payer FSP</text>
    <rect fill="#E2E2F0" height="30.2969" rx="2.5" ry="2.5" style="stroke:#181818;stroke-width:0.5;" width="83.5078" x="77" y="1424.0469"/>
    <text fill="#000000" font-family="sans-serif" font-size="14" lengthAdjust="spacing" textLength="69.5078" x="84" y="1444.042">Payer FSP</text>
    <rect fill="#E2E2F0" height="62.8906" rx="2.5" ry="2.5" style="stroke:#181818;stroke-width:0.5;" width="69.5967" x="274.9189" y="42.2969"/>
    <text fill="#000000" font-family="sans-serif" font-size="14" lengthAdjust="spacing" textLength="46.2861" x="286.5742" y="62.292">Switch</text>
    <text fill="#000000" font-family="sans-serif" font-size="14" lengthAdjust="spacing" textLength="55.5967" x="281.9189" y="78.5889">Quoting</text>
    <text fill="#000000" font-family="sans-serif" font-size="14" lengthAdjust="spacing" textLength="51.7412" x="283.8467" y="94.8857">Service</text>
    <rect fill="#E2E2F0" height="62.8906" rx="2.5" ry="2.5" style="stroke:#181818;stroke-width:0.5;" width="69.5967" x="274.9189" y="1424.0469"/>
    <text fill="#000000" font-family="sans-serif" font-size="14" lengthAdjust="spacing" textLength="46.2861" x="286.5742" y="1444.042">Switch</text>
    <text fill="#000000" font-family="sans-serif" font-size="14" lengthAdjust="spacing" textLength="55.5967" x="281.9189" y="1460.3389">Quoting</text>
    <text fill="#000000" font-family="sans-serif" font-size="14" lengthAdjust="spacing" textLength="51.7412" x="283.8467" y="1476.6357">Service</text>
    <rect fill="#E2E2F0" height="30.2969" rx="2.5" ry="2.5" style="stroke:#181818;stroke-width:0.5;" width="86.3652" x="466.8267" y="74.8906"/>
    <text fill="#000000" font-family="sans-serif" font-size="14" lengthAdjust="spacing" textLength="72.3652" x="473.8267" y="94.8857">Payee FSP</text>
    <rect fill="#E2E2F0" height="30.2969" rx="2.5" ry="2.5" style="stroke:#181818;stroke-width:0.5;" width="86.3652" x="466.8267" y="1424.0469"/>
    <text fill="#000000" font-family="sans-serif" font-size="14" lengthAdjust="spacing" textLength="72.3652" x="473.8267" y="1444.042">Payee FSP</text>
    <path d="M67,121.1875 L67,146.1875 L360,146.1875 L360,131.1875 L350,121.1875 L67,121.1875 " fill="#FEFFDD" style="stroke:#181818;stroke-width:0.5;"/>
    <path d="M350,121.1875 L350,131.1875 L360,131.1875 L350,121.1875 " fill="#FEFFDD" style="stroke:#181818;stroke-width:0.5;"/>
    <text fill="#000000" font-family="sans-serif" font-size="13" lengthAdjust="spacing" textLength="272.8223" x="73" y="138.2544">Payer FSP requests quote from Payee FSP</text>
    <polygon fill="#181818" points="297.7173,168.4531,307.7173,172.4531,297.7173,172.4531" style="stroke:#181818;stroke-width:1.0;"/>
    <line style="stroke:#181818;stroke-width:1.0;" x1="118.7539" x2="308.7173" y1="172.4531" y2="172.4531"/>
    <text fill="#000000" font-family="sans-serif" font-size="13" font-weight="bold" lengthAdjust="spacing" textLength="9.0454" x="125.7539" y="167.3872">1</text>
    <text fill="#000000" font-family="sans-serif" font-size="13" lengthAdjust="spacing" textLength="87.0898" x="138.7993" y="167.3872">POST /quotes</text>
    <polygon fill="#181818" points="129.7539,201.5859,119.7539,201.5859,129.7539,205.5859" style="stroke:#181818;stroke-width:1.0;"/>
    <line style="stroke:#181818;stroke-width:1.0;stroke-dasharray:2.0,2.0;" x1="118.7539" x2="308.7173" y1="201.5859" y2="201.5859"/>
    <text fill="#000000" font-family="sans-serif" font-size="13" font-weight="bold" lengthAdjust="spacing" textLength="9.0454" x="135.7539" y="196.52">2</text>
    <text fill="#000000" font-family="sans-serif" font-size="13" lengthAdjust="spacing" textLength="89.7305" x="148.7993" y="196.52">202 Accepted</text>
    <line style="stroke:#181818;stroke-width:1.0;" x1="309.7173" x2="351.7173" y1="230.7188" y2="230.7188"/>
    <line style="stroke:#181818;stroke-width:1.0;" x1="351.7173" x2="351.7173" y1="230.7188" y2="243.7188"/>
    <line style="stroke:#181818;stroke-width:1.0;" x1="310.7173" x2="351.7173" y1="243.7188" y2="243.7188"/>
    <polygon fill="#181818" points="320.7173,239.7188,310.7173,243.7188,320.7173,247.7188,316.7173,243.7188" style="stroke:#181818;stroke-width:1.0;"/>
    <text fill="#000000" font-family="sans-serif" font-size="13" font-weight="bold" lengthAdjust="spacing" textLength="9.0454" x="316.7173" y="225.6528">3</text>
    <text fill="#000000" font-family="sans-serif" font-size="13" lengthAdjust="spacing" textLength="154.5718" x="329.7627" y="225.6528">Validate Quote Request</text>
    <path d="M9,258.7188 L73.4429,258.7188 L73.4429,265.8516 L63.4429,275.8516 L9,275.8516 L9,258.7188 " fill="#EEEEEE" style="stroke:#000000;stroke-width:1.5;"/>
    <rect fill="none" height="1149.3281" style="stroke:#000000;stroke-width:1.5;" width="686.1792" x="9" y="258.7188"/>
    <text fill="#000000" font-family="sans-serif" font-size="13" font-weight="bold" lengthAdjust="spacing" textLength="19.4429" x="24" y="271.7856">alt</text>
    <text fill="#000000" font-family="sans-serif" font-size="11" font-weight="bold" lengthAdjust="spacing" textLength="94.021" x="88.4429" y="270.9292">[quote is valid]</text>
    <line style="stroke:#181818;stroke-width:1.0;" x1="309.7173" x2="351.7173" y1="296.9844" y2="296.9844"/>
    <line style="stroke:#181818;stroke-width:1.0;" x1="351.7173" x2="351.7173" y1="296.9844" y2="309.9844"/>
    <line style="stroke:#181818;stroke-width:1.0;" x1="310.7173" x2="351.7173" y1="309.9844" y2="309.9844"/>
    <polygon fill="#181818" points="320.7173,305.9844,310.7173,309.9844,320.7173,313.9844,316.7173,309.9844" style="stroke:#181818;stroke-width:1.0;"/>
    <text fill="#000000" font-family="sans-serif" font-size="13" font-weight="bold" lengthAdjust="spacing" textLength="9.0454" x="316.7173" y="291.9185">4</text>
    <text fill="#000000" font-family="sans-serif" font-size="13" lengthAdjust="spacing" textLength="122.2622" x="329.7627" y="291.9185">Persist Quote Data</text>
    <path d="M255,322.9844 L255,362.9844 L563,362.9844 L563,332.9844 L553,322.9844 L255,322.9844 " fill="#FEFFDD" style="stroke:#181818;stroke-width:0.5;"/>
    <path d="M553,322.9844 L553,332.9844 L563,332.9844 L553,322.9844 " fill="#FEFFDD" style="stroke:#181818;stroke-width:0.5;"/>
    <text fill="#000000" font-family="sans-serif" font-size="13" lengthAdjust="spacing" textLength="287.9741" x="261" y="340.0513">Switch forwards quote request to Payee FSP</text>
    <text fill="#000000" font-family="sans-serif" font-size="13" lengthAdjust="spacing" textLength="141.7876" x="261" y="355.1841">&lt;Payer based Rules&gt;</text>
    <polygon fill="#181818" points="498.0093,385.3828,508.0093,389.3828,498.0093,389.3828" style="stroke:#181818;stroke-width:1.0;"/>
    <line style="stroke:#181818;stroke-width:1.0;" x1="309.7173" x2="509.0093" y1="389.3828" y2="389.3828"/>
    <text fill="#000000" font-family="sans-serif" font-size="13" font-weight="bold" lengthAdjust="spacing" textLength="9.0454" x="316.7173" y="384.3169">5</text>
    <text fill="#000000" font-family="sans-serif" font-size="13" lengthAdjust="spacing" textLength="87.0898" x="329.7627" y="384.3169">POST /quotes</text>
    <polygon fill="#181818" points="320.7173,418.5156,310.7173,418.5156,320.7173,422.5156" style="stroke:#181818;stroke-width:1.0;"/>
    <line style="stroke:#181818;stroke-width:1.0;stroke-dasharray:2.0,2.0;" x1="309.7173" x2="509.0093" y1="418.5156" y2="418.5156"/>
    <text fill="#000000" font-family="sans-serif" font-size="13" font-weight="bold" lengthAdjust="spacing" textLength="9.0454" x="326.7173" y="413.4497">6</text>
    <text fill="#000000" font-family="sans-serif" font-size="13" lengthAdjust="spacing" textLength="89.7305" x="339.7627" y="413.4497">202 Accepted</text>
    <line style="stroke:#181818;stroke-width:1.0;" x1="510.0093" x2="552.0093" y1="447.6484" y2="447.6484"/>
    <line style="stroke:#181818;stroke-width:1.0;" x1="552.0093" x2="552.0093" y1="447.6484" y2="460.6484"/>
    <line style="stroke:#181818;stroke-width:1.0;" x1="511.0093" x2="552.0093" y1="460.6484" y2="460.6484"/>
    <polygon fill="#181818" points="521.0093,456.6484,511.0093,460.6484,521.0093,464.6484,517.0093,460.6484" style="stroke:#181818;stroke-width:1.0;"/>
    <text fill="#000000" font-family="sans-serif" font-size="13" font-weight="bold" lengthAdjust="spacing" textLength="9.0454" x="517.0093" y="442.5825">7</text>
    <text fill="#000000" font-family="sans-serif" font-size="13" lengthAdjust="spacing" textLength="153.1245" x="530.0547" y="442.5825">Calculate Fees/Charges</text>
    <path d="M19,475.6484 L83.4429,475.6484 L83.4429,482.7813 L73.4429,492.7813 L19,492.7813 L19,475.6484 " fill="#EEEEEE" style="stroke:#000000;stroke-width:1.5;"/>
    <rect fill="none" height="817.1953" style="stroke:#000000;stroke-width:1.5;" width="554.1919" x="19" y="475.6484"/>
    <text fill="#000000" font-family="sans-serif" font-size="13" font-weight="bold" lengthAdjust="spacing" textLength="19.4429" x="34" y="488.7153">alt</text>
    <text fill="#000000" font-family="sans-serif" font-size="11" font-weight="bold" lengthAdjust="spacing" textLength="260.2563" x="98.4429" y="487.8589">[Payee FSP successfully calculates quote]</text>
    <path d="M273,497.7813 L273,522.7813 L546,522.7813 L546,507.7813 L536,497.7813 L273,497.7813 " fill="#FEFFDD" style="stroke:#181818;stroke-width:0.5;"/>
    <path d="M536,497.7813 L536,507.7813 L546,507.7813 L536,497.7813 " fill="#FEFFDD" style="stroke:#181818;stroke-width:0.5;"/>
    <text fill="#000000" font-family="sans-serif" font-size="13" lengthAdjust="spacing" textLength="243.604" x="283.3345" y="514.8481">Payee FSP responds to quote request</text>
    <polygon fill="#181818" points="320.7173,545.0469,310.7173,549.0469,320.7173,549.0469" style="stroke:#181818;stroke-width:1.0;"/>
    <line style="stroke:#181818;stroke-width:1.0;" x1="309.7173" x2="509.0093" y1="549.0469" y2="549.0469"/>
    <text fill="#000000" font-family="sans-serif" font-size="13" font-weight="bold" lengthAdjust="spacing" textLength="9.0454" x="326.7173" y="543.981">8</text>
    <text fill="#000000" font-family="sans-serif" font-size="13" lengthAdjust="spacing" textLength="112.8867" x="339.7627" y="543.981">PUT /quotes/{ID}</text>
    <polygon fill="#181818" points="498.0093,578.1797,508.0093,578.1797,498.0093,582.1797" style="stroke:#181818;stroke-width:1.0;"/>
    <line style="stroke:#181818;stroke-width:1.0;stroke-dasharray:2.0,2.0;" x1="309.7173" x2="509.0093" y1="578.1797" y2="578.1797"/>
    <text fill="#000000" font-family="sans-serif" font-size="13" font-weight="bold" lengthAdjust="spacing" textLength="9.0454" x="316.7173" y="573.1138">9</text>
    <text fill="#000000" font-family="sans-serif" font-size="13" lengthAdjust="spacing" textLength="46.7061" x="329.7627" y="573.1138">200 Ok</text>
    <line style="stroke:#181818;stroke-width:1.0;" x1="309.7173" x2="351.7173" y1="607.3125" y2="607.3125"/>
    <line style="stroke:#181818;stroke-width:1.0;" x1="351.7173" x2="351.7173" y1="607.3125" y2="620.3125"/>
    <line style="stroke:#181818;stroke-width:1.0;" x1="310.7173" x2="351.7173" y1="620.3125" y2="620.3125"/>
    <polygon fill="#181818" points="320.7173,616.3125,310.7173,620.3125,320.7173,624.3125,316.7173,620.3125" style="stroke:#181818;stroke-width:1.0;"/>
    <text fill="#000000" font-family="sans-serif" font-size="13" font-weight="bold" lengthAdjust="spacing" textLength="18.0908" x="316.7173" y="602.2466">10</text>
    <text fill="#000000" font-family="sans-serif" font-size="13" lengthAdjust="spacing" textLength="164.2012" x="338.8081" y="602.2466">Validate Quote Response</text>
    <path d="M29,635.3125 L93.4429,635.3125 L93.4429,642.4453 L83.4429,652.4453 L29,652.4453 L29,635.3125 " fill="#EEEEEE" style="stroke:#000000;stroke-width:1.5;"/>
    <rect fill="none" height="406.7969" style="stroke:#000000;stroke-width:1.5;" width="534.1919" x="29" y="635.3125"/>
    <text fill="#000000" font-family="sans-serif" font-size="13" font-weight="bold" lengthAdjust="spacing" textLength="19.4429" x="44" y="648.3794">alt</text>
    <text fill="#000000" font-family="sans-serif" font-size="11" font-weight="bold" lengthAdjust="spacing" textLength="99.6069" x="108.4429" y="647.5229">[response is ok]</text>
    <line style="stroke:#181818;stroke-width:1.0;" x1="309.7173" x2="351.7173" y1="673.5781" y2="673.5781"/>
    <line style="stroke:#181818;stroke-width:1.0;" x1="351.7173" x2="351.7173" y1="673.5781" y2="686.5781"/>
    <line style="stroke:#181818;stroke-width:1.0;" x1="310.7173" x2="351.7173" y1="686.5781" y2="686.5781"/>
    <polygon fill="#181818" points="320.7173,682.5781,310.7173,686.5781,320.7173,690.5781,316.7173,686.5781" style="stroke:#181818;stroke-width:1.0;"/>
    <text fill="#000000" font-family="sans-serif" font-size="13" font-weight="bold" lengthAdjust="spacing" textLength="18.0908" x="316.7173" y="668.5122">11</text>
    <text fill="#000000" font-family="sans-serif" font-size="13" lengthAdjust="spacing" textLength="145.7612" x="338.8081" y="668.5122">Persist Response Data</text>
    <path d="M56,699.5781 L56,739.5781 L371,739.5781 L371,709.5781 L361,699.5781 L56,699.5781 " fill="#FEFFDD" style="stroke:#181818;stroke-width:0.5;"/>
    <path d="M361,699.5781 L361,709.5781 L371,709.5781 L361,699.5781 " fill="#FEFFDD" style="stroke:#181818;stroke-width:0.5;"/>
    <text fill="#000000" font-family="sans-serif" font-size="13" lengthAdjust="spacing" textLength="294.9502" x="62" y="716.645">Switch forwards quote response to Payer FSP</text>
    <text fill="#000000" font-family="sans-serif" font-size="13" lengthAdjust="spacing" textLength="190.6963" x="62" y="731.7778">&lt;Payee whole request Rule&gt;</text>
    <polygon fill="#181818" points="129.7539,761.9766,119.7539,765.9766,129.7539,765.9766" style="stroke:#181818;stroke-width:1.0;"/>
    <line style="stroke:#181818;stroke-width:1.0;" x1="118.7539" x2="308.7173" y1="765.9766" y2="765.9766"/>
    <text fill="#000000" font-family="sans-serif" font-size="13" font-weight="bold" lengthAdjust="spacing" textLength="18.0908" x="135.7539" y="760.9106">12</text>
    <text fill="#000000" font-family="sans-serif" font-size="13" lengthAdjust="spacing" textLength="112.8867" x="157.8447" y="760.9106">PUT /quotes/{ID}</text>
    <polygon fill="#181818" points="297.7173,795.1094,307.7173,795.1094,297.7173,799.1094" style="stroke:#181818;stroke-width:1.0;"/>
    <line style="stroke:#181818;stroke-width:1.0;stroke-dasharray:2.0,2.0;" x1="118.7539" x2="308.7173" y1="795.1094" y2="795.1094"/>
    <text fill="#000000" font-family="sans-serif" font-size="13" font-weight="bold" lengthAdjust="spacing" textLength="18.0908" x="125.7539" y="790.0435">13</text>
    <text fill="#000000" font-family="sans-serif" font-size="13" lengthAdjust="spacing" textLength="46.7061" x="147.8447" y="790.0435">200 Ok</text>
    <path d="M39,808.1094 L39,863.1094 L197,863.1094 L197,818.1094 L187,808.1094 L39,808.1094 " fill="#3498DB" style="stroke:#181818;stroke-width:0.5;"/>
    <path d="M187,808.1094 L187,818.1094 L197,818.1094 L187,808.1094 " fill="#3498DB" style="stroke:#181818;stroke-width:0.5;"/>
    <text fill="#000000" font-family="sans-serif" font-size="13" lengthAdjust="spacing" textLength="131.9741" x="45" y="825.1763">Payer FSP continues</text>
    <text fill="#000000" font-family="sans-serif" font-size="13" lengthAdjust="spacing" textLength="137.0459" x="45" y="840.3091">with transfer if quote</text>
    <text fill="#000000" font-family="sans-serif" font-size="13" lengthAdjust="spacing" textLength="98.3506" x="45" y="855.4419">is acceptable...</text>
    <line style="stroke:#000000;stroke-width:1.0;stroke-dasharray:2.0,2.0;" x1="29" x2="563.1919" y1="869.5078" y2="869.5078"/>
    <text fill="#000000" font-family="sans-serif" font-size="11" font-weight="bold" lengthAdjust="spacing" textLength="112.1968" x="34" y="879.7183">[response invalid]</text>
    <path d="M273,888.3125 L273,913.3125 L546,913.3125 L546,898.3125 L536,888.3125 L273,888.3125 " fill="#FEFFDD" style="stroke:#181818;stroke-width:0.5;"/>
    <path d="M536,888.3125 L536,898.3125 L546,898.3125 L536,888.3125 " fill="#FEFFDD" style="stroke:#181818;stroke-width:0.5;"/>
    <text fill="#000000" font-family="sans-serif" font-size="13" lengthAdjust="spacing" textLength="218.7783" x="295.7473" y="905.3794">Switch returns error to Payee FSP</text>
    <polygon fill="#181818" points="498.0093,935.5781,508.0093,939.5781,498.0093,939.5781" style="stroke:#181818;stroke-width:1.0;"/>
    <line style="stroke:#181818;stroke-width:1.0;" x1="309.7173" x2="509.0093" y1="939.5781" y2="939.5781"/>
    <text fill="#000000" font-family="sans-serif" font-size="13" font-weight="bold" lengthAdjust="spacing" textLength="18.0908" x="316.7173" y="934.5122">14</text>
    <text fill="#000000" font-family="sans-serif" font-size="13" lengthAdjust="spacing" textLength="149.2524" x="338.8081" y="934.5122">PUT /quotes/{ID}/error</text>
    <polygon fill="#181818" points="320.7173,968.7109,310.7173,968.7109,320.7173,972.7109" style="stroke:#181818;stroke-width:1.0;"/>
    <line style="stroke:#181818;stroke-width:1.0;stroke-dasharray:2.0,2.0;" x1="309.7173" x2="509.0093" y1="968.7109" y2="968.7109"/>
    <text fill="#000000" font-family="sans-serif" font-size="13" font-weight="bold" lengthAdjust="spacing" textLength="18.0908" x="326.7173" y="963.645">15</text>
    <text fill="#000000" font-family="sans-serif" font-size="13" lengthAdjust="spacing" textLength="46.7061" x="348.8081" y="963.645">200 Ok</text>
    <path d="M273,981.7109 L273,1036.7109 L546,1036.7109 L546,991.7109 L536,981.7109 L273,981.7109 " fill="#EC7063" style="stroke:#181818;stroke-width:0.5;"/>
    <path d="M536,981.7109 L536,991.7109 L546,991.7109 L536,981.7109 " fill="#EC7063" style="stroke:#181818;stroke-width:0.5;"/>
    <text fill="#000000" font-family="sans-serif" font-size="13" lengthAdjust="spacing" textLength="131.3647" x="314.5205" y="998.7778">Note that under this</text>
    <text fill="#000000" font-family="sans-serif" font-size="13" lengthAdjust="spacing" textLength="149.1763" x="314.5205" y="1013.9106">scenario the Payer FSP</text>
    <text fill="#000000" font-family="sans-serif" font-size="13" lengthAdjust="spacing" textLength="181.2319" x="314.5205" y="1029.0435">may not receive a response</text>
    <line style="stroke:#000000;stroke-width:1.0;stroke-dasharray:2.0,2.0;" x1="19" x2="573.1919" y1="1050.1094" y2="1050.1094"/>
    <text fill="#000000" font-family="sans-serif" font-size="11" font-weight="bold" lengthAdjust="spacing" textLength="315.7397" x="24" y="1060.3198">[Payee FSP calculation fails or rejects the request]</text>
    <path d="M273,1068.9141 L273,1093.9141 L546,1093.9141 L546,1078.9141 L536,1068.9141 L273,1068.9141 " fill="#FEFFDD" style="stroke:#181818;stroke-width:0.5;"/>
    <path d="M536,1068.9141 L536,1078.9141 L546,1078.9141 L536,1068.9141 " fill="#FEFFDD" style="stroke:#181818;stroke-width:0.5;"/>
    <text fill="#000000" font-family="sans-serif" font-size="13" lengthAdjust="spacing" textLength="218.7783" x="295.7473" y="1085.981">Payee FSP returns error to Switch</text>
    <polygon fill="#181818" points="320.7173,1116.1797,310.7173,1120.1797,320.7173,1120.1797" style="stroke:#181818;stroke-width:1.0;"/>
    <line style="stroke:#181818;stroke-width:1.0;" x1="309.7173" x2="509.0093" y1="1120.1797" y2="1120.1797"/>
    <text fill="#000000" font-family="sans-serif" font-size="13" font-weight="bold" lengthAdjust="spacing" textLength="18.0908" x="326.7173" y="1115.1138">16</text>
    <text fill="#000000" font-family="sans-serif" font-size="13" lengthAdjust="spacing" textLength="144.8726" x="348.8081" y="1115.1138">PUT quotes/{ID}/error</text>
    <polygon fill="#181818" points="498.0093,1149.3125,508.0093,1149.3125,498.0093,1153.3125" style="stroke:#181818;stroke-width:1.0;"/>
    <line style="stroke:#181818;stroke-width:1.0;stroke-dasharray:2.0,2.0;" x1="309.7173" x2="509.0093" y1="1149.3125" y2="1149.3125"/>
    <text fill="#000000" font-family="sans-serif" font-size="13" font-weight="bold" lengthAdjust="spacing" textLength="18.0908" x="316.7173" y="1144.2466">17</text>
    <text fill="#000000" font-family="sans-serif" font-size="13" lengthAdjust="spacing" textLength="47.7026" x="338.8081" y="1144.2466">200 OK</text>
    <line style="stroke:#181818;stroke-width:1.0;" x1="309.7173" x2="351.7173" y1="1178.4453" y2="1178.4453"/>
    <line style="stroke:#181818;stroke-width:1.0;" x1="351.7173" x2="351.7173" y1="1178.4453" y2="1191.4453"/>
    <line style="stroke:#181818;stroke-width:1.0;" x1="310.7173" x2="351.7173" y1="1191.4453" y2="1191.4453"/>
    <polygon fill="#181818" points="320.7173,1187.4453,310.7173,1191.4453,320.7173,1195.4453,316.7173,1191.4453" style="stroke:#181818;stroke-width:1.0;"/>
    <text fill="#000000" font-family="sans-serif" font-size="13" font-weight="bold" lengthAdjust="spacing" textLength="18.0908" x="316.7173" y="1173.3794">18</text>
    <text fill="#000000" font-family="sans-serif" font-size="13" lengthAdjust="spacing" textLength="112.9692" x="338.8081" y="1173.3794">Persist error data</text>
    <path d="M82,1204.4453 L82,1229.4453 L344,1229.4453 L344,1214.4453 L334,1204.4453 L82,1204.4453 " fill="#FEFFDD" style="stroke:#181818;stroke-width:0.5;"/>
    <path d="M334,1204.4453 L334,1214.4453 L344,1214.4453 L334,1204.4453 " fill="#FEFFDD" style="stroke:#181818;stroke-width:0.5;"/>
    <text fill="#000000" font-family="sans-serif" font-size="13" lengthAdjust="spacing" textLength="216.125" x="100.6953" y="1221.5122">Switch returns error to Payer FSP</text>
    <polygon fill="#181818" points="129.7539,1251.7109,119.7539,1255.7109,129.7539,1255.7109" style="stroke:#181818;stroke-width:1.0;"/>
    <line style="stroke:#181818;stroke-width:1.0;" x1="118.7539" x2="308.7173" y1="1255.7109" y2="1255.7109"/>
    <text fill="#000000" font-family="sans-serif" font-size="13" font-weight="bold" lengthAdjust="spacing" textLength="18.0908" x="135.7539" y="1250.645">19</text>
    <text fill="#000000" font-family="sans-serif" font-size="13" lengthAdjust="spacing" textLength="144.8726" x="157.8447" y="1250.645">PUT quotes/{ID}/error</text>
    <polygon fill="#181818" points="297.7173,1284.8438,307.7173,1284.8438,297.7173,1288.8438" style="stroke:#181818;stroke-width:1.0;"/>
    <line style="stroke:#181818;stroke-width:1.0;stroke-dasharray:2.0,2.0;" x1="118.7539" x2="308.7173" y1="1284.8438" y2="1284.8438"/>
    <text fill="#000000" font-family="sans-serif" font-size="13" font-weight="bold" lengthAdjust="spacing" textLength="18.0908" x="125.7539" y="1279.7778">20</text>
    <text fill="#000000" font-family="sans-serif" font-size="13" lengthAdjust="spacing" textLength="47.7026" x="147.8447" y="1279.7778">200 OK</text>
    <line style="stroke:#000000;stroke-width:1.0;stroke-dasharray:2.0,2.0;" x1="9" x2="695.1792" y1="1300.8438" y2="1300.8438"/>
    <text fill="#000000" font-family="sans-serif" font-size="11" font-weight="bold" lengthAdjust="spacing" textLength="91.4751" x="14" y="1311.0542">[quote invalid]</text>
    <path d="M82,1319.6484 L82,1344.6484 L344,1344.6484 L344,1329.6484 L334,1319.6484 L82,1319.6484 " fill="#FEFFDD" style="stroke:#181818;stroke-width:0.5;"/>
    <path d="M334,1319.6484 L334,1329.6484 L344,1329.6484 L334,1319.6484 " fill="#FEFFDD" style="stroke:#181818;stroke-width:0.5;"/>
    <text fill="#000000" font-family="sans-serif" font-size="13" lengthAdjust="spacing" textLength="216.125" x="100.6953" y="1336.7153">Switch returns error to Payer FSP</text>
    <polygon fill="#181818" points="129.7539,1366.9141,119.7539,1370.9141,129.7539,1370.9141" style="stroke:#181818;stroke-width:1.0;"/>
    <line style="stroke:#181818;stroke-width:1.0;" x1="118.7539" x2="308.7173" y1="1370.9141" y2="1370.9141"/>
    <text fill="#000000" font-family="sans-serif" font-size="13" font-weight="bold" lengthAdjust="spacing" textLength="18.0908" x="135.7539" y="1365.8481">21</text>
    <text fill="#000000" font-family="sans-serif" font-size="13" lengthAdjust="spacing" textLength="144.8726" x="157.8447" y="1365.8481">PUT quotes/{ID}/error</text>
    <polygon fill="#181818" points="297.7173,1400.0469,307.7173,1400.0469,297.7173,1404.0469" style="stroke:#181818;stroke-width:1.0;"/>
    <line style="stroke:#181818;stroke-width:1.0;stroke-dasharray:2.0,2.0;" x1="118.7539" x2="308.7173" y1="1400.0469" y2="1400.0469"/>
    <text fill="#000000" font-family="sans-serif" font-size="13" font-weight="bold" lengthAdjust="spacing" textLength="18.0908" x="125.7539" y="1394.981">22</text>
    <text fill="#000000" font-family="sans-serif" font-size="13" lengthAdjust="spacing" textLength="47.7026" x="147.8447" y="1394.981">200 OK</text>
  </g>
</svg>
