<?xml version="1.0" encoding="UTF-8" standalone="no"?>
<svg xmlns="http://www.w3.org/2000/svg" xmlns:xlink="http://www.w3.org/1999/xlink" contentScriptType="application/ecmascript" contentStyleType="text/css" height="1699px" preserveAspectRatio="none" style="width:982px;height:1699px" version="1.1" viewBox="0 0 982 1699" width="982px" zoomAndPan="magnify">
  <defs>
    <filter height="300%" id="f1tcm6arlohgph" width="300%" x="-1" y="-1">
      <feGaussianBlur result="blurOut" stdDeviation="2.0"/>
      <feColorMatrix in="blurOut" result="blurOut2" type="matrix" values="0 0 0 0 0 0 0 0 0 0 0 0 0 0 0 0 0 0 .4 0"/>
      <feOffset dx="4.0" dy="4.0" in="blurOut2" result="blurOut3"/>
      <feBlend in="SourceGraphic" in2="blurOut3" mode="normal"/>
    </filter>
  </defs>
  <g>
    <text fill="#000000" font-family="sans-serif" font-size="18" lengthAdjust="spacingAndGlyphs" textLength="290" x="344" y="28.708">Retrieve Bulk Quote Information</text>
    <rect fill="#FFFFFF" filter="url(#f1tcm6arlohgph)" height="1232.5313" style="stroke:#000000;stroke-width:2.0" width="958" x="10" y="389.875"/>
    <rect fill="#FFFFFF" filter="url(#f1tcm6arlohgph)" height="934.5313" style="stroke:#000000;stroke-width:2.0" width="791.5" x="20" y="553.5391"/>
    <rect fill="#FFFFFF" filter="url(#f1tcm6arlohgph)" height="481.6016" style="stroke:#000000;stroke-width:2.0" width="771.5" x="30" y="759.6016"/>
    <rect fill="#FFFFFF" filter="url(#f1tcm6arlohgph)" height="226.7344" style="stroke:#000000;stroke-width:2.0" width="753" x="40" y="825.8672"/>
    <rect fill="#FFFFFF" height="112.2031" style="stroke:none;stroke-width:1.0" width="753" x="40" y="940.3984"/>
    <rect fill="#FFFFFF" height="181.6016" style="stroke:none;stroke-width:1.0" width="771.5" x="30" y="1059.6016"/>
    <rect fill="#FFFFFF" height="239.8672" style="stroke:none;stroke-width:1.0" width="791.5" x="20" y="1248.2031"/>
    <rect fill="#FFFFFF" height="127.3359" style="stroke:none;stroke-width:1.0" width="958" x="10" y="1495.0703"/>
    <line style="stroke:#A80036;stroke-width:1.0;stroke-dasharray:5.0,5.0" x1="179" x2="179" y1="91.5469" y2="1639.4063"/>
    <line style="stroke:#A80036;stroke-width:1.0;stroke-dasharray:5.0,5.0" x1="397.5" x2="397.5" y1="91.5469" y2="1639.4063"/>
    <line style="stroke:#A80036;stroke-width:1.0;stroke-dasharray:5.0,5.0" x1="738" x2="738" y1="91.5469" y2="1639.4063"/>
    <rect fill="#FEFECE" filter="url(#f1tcm6arlohgph)" height="30.2969" style="stroke:#A80036;stroke-width:1.5" width="82" x="136" y="56.25"/>
    <text fill="#000000" font-family="sans-serif" font-size="14" lengthAdjust="spacingAndGlyphs" textLength="68" x="143" y="76.2451">Payer FSP</text>
    <rect fill="#FEFECE" filter="url(#f1tcm6arlohgph)" height="30.2969" style="stroke:#A80036;stroke-width:1.5" width="82" x="136" y="1638.4063"/>
    <text fill="#000000" font-family="sans-serif" font-size="14" lengthAdjust="spacingAndGlyphs" textLength="68" x="143" y="1658.4014">Payer FSP</text>
    <rect fill="#FEFECE" filter="url(#f1tcm6arlohgph)" height="46.5938" style="stroke:#A80036;stroke-width:1.5" width="133" x="329.5" y="39.9531"/>
    <text fill="#000000" font-family="sans-serif" font-size="14" lengthAdjust="spacingAndGlyphs" textLength="45" x="373.5" y="59.9482">Switch</text>
    <text fill="#000000" font-family="sans-serif" font-size="14" lengthAdjust="spacingAndGlyphs" textLength="119" x="336.5" y="76.2451">[Quoting Service]</text>
    <rect fill="#FEFECE" filter="url(#f1tcm6arlohgph)" height="46.5938" style="stroke:#A80036;stroke-width:1.5" width="133" x="329.5" y="1638.4063"/>
    <text fill="#000000" font-family="sans-serif" font-size="14" lengthAdjust="spacingAndGlyphs" textLength="45" x="373.5" y="1658.4014">Switch</text>
    <text fill="#000000" font-family="sans-serif" font-size="14" lengthAdjust="spacingAndGlyphs" textLength="119" x="336.5" y="1674.6982">[Quoting Service]</text>
    <rect fill="#FEFECE" filter="url(#f1tcm6arlohgph)" height="30.2969" style="stroke:#A80036;stroke-width:1.5" width="86" x="693" y="56.25"/>
    <text fill="#000000" font-family="sans-serif" font-size="14" lengthAdjust="spacingAndGlyphs" textLength="72" x="700" y="76.2451">Payee FSP</text>
    <rect fill="#FEFECE" filter="url(#f1tcm6arlohgph)" height="30.2969" style="stroke:#A80036;stroke-width:1.5" width="86" x="693" y="1638.4063"/>
    <text fill="#000000" font-family="sans-serif" font-size="14" lengthAdjust="spacingAndGlyphs" textLength="72" x="700" y="1658.4014">Payee FSP</text>
    <path d="M184,106.5469 L184,146.5469 L527,146.5469 L527,116.5469 L517,106.5469 L184,106.5469 " fill="#FBFB77" filter="url(#f1tcm6arlohgph)" style="stroke:#A80036;stroke-width:1.0"/>
    <path d="M517,106.5469 L517,116.5469 L527,116.5469 L517,106.5469 " fill="#FBFB77" style="stroke:#A80036;stroke-width:1.0"/>
    <text fill="#000000" font-family="sans-serif" font-size="13" lengthAdjust="spacingAndGlyphs" textLength="318" x="190" y="123.6138">Payer FSP sends request to get bulk quote details</text>
    <text fill="#000000" font-family="sans-serif" font-size="13" lengthAdjust="spacingAndGlyphs" textLength="176" x="190" y="138.7466">to Payee FSP via the Switch</text>
    <polygon fill="#A80036" points="386,172.9453,396,176.9453,386,176.9453" style="stroke:#A80036;stroke-width:1.0"/>
    <line style="stroke:#A80036;stroke-width:1.0" x1="179" x2="397" y1="176.9453" y2="176.9453"/>
    <text fill="#000000" font-family="sans-serif" font-size="13" font-weight="bold" lengthAdjust="spacingAndGlyphs" textLength="9" x="186" y="171.8794">1</text>
    <text fill="#000000" font-family="sans-serif" font-size="13" lengthAdjust="spacingAndGlyphs" textLength="138" x="199" y="171.8794">GET /bulkQuotes/{ID}</text>
    <path d="M403,189.9453 L403,259.9453 L651,259.9453 L651,199.9453 L641,189.9453 L403,189.9453 " fill="#AAAAAA" filter="url(#f1tcm6arlohgph)" style="stroke:#A80036;stroke-width:1.0"/>
    <path d="M641,189.9453 L641,199.9453 L651,199.9453 L641,189.9453 " fill="#AAAAAA" style="stroke:#A80036;stroke-width:1.0"/>
    <text fill="#000000" font-family="sans-serif" font-size="13" lengthAdjust="spacingAndGlyphs" textLength="156" x="409" y="207.0122">Validate request against</text>
    <text fill="#000000" font-family="sans-serif" font-size="13" lengthAdjust="spacingAndGlyphs" textLength="200" x="409" y="222.145">Mojaloop interface specification</text>
    <text fill="#FF0000" font-family="sans-serif" font-size="13" font-weight="bold" lengthAdjust="spacingAndGlyphs" textLength="167" x="409" y="237.2778">Error code: 300x, 310x</text>
    <text fill="#FF0000" font-family="sans-serif" font-size="13" font-weight="bold" lengthAdjust="spacingAndGlyphs" textLength="227" x="409" y="252.4106">HTTP error response code: 4xx</text>
    <line style="stroke:#A80036;stroke-width:1.0" x1="398" x2="440" y1="290.6094" y2="290.6094"/>
    <line style="stroke:#A80036;stroke-width:1.0" x1="440" x2="440" y1="290.6094" y2="303.6094"/>
    <line style="stroke:#A80036;stroke-width:1.0" x1="399" x2="440" y1="303.6094" y2="303.6094"/>
    <polygon fill="#A80036" points="409,299.6094,399,303.6094,409,307.6094,405,303.6094" style="stroke:#A80036;stroke-width:1.0"/>
    <text fill="#000000" font-family="sans-serif" font-size="13" font-weight="bold" lengthAdjust="spacingAndGlyphs" textLength="9" x="405" y="285.5435">2</text>
    <text fill="#000000" font-family="sans-serif" font-size="13" lengthAdjust="spacingAndGlyphs" textLength="118" x="418" y="285.5435">Schema validation</text>
    <polygon fill="#A80036" points="190,333.7422,180,333.7422,190,337.7422" style="stroke:#A80036;stroke-width:1.0"/>
    <line style="stroke:#A80036;stroke-width:1.0;stroke-dasharray:2.0,2.0" x1="179" x2="397" y1="332.7422" y2="332.7422"/>
    <text fill="#000000" font-family="sans-serif" font-size="13" font-weight="bold" lengthAdjust="spacingAndGlyphs" textLength="9" x="196" y="327.6763">3</text>
    <text fill="#000000" font-family="sans-serif" font-size="13" lengthAdjust="spacingAndGlyphs" textLength="88" x="209" y="327.6763">202 Accepted</text>
    <line style="stroke:#A80036;stroke-width:1.0" x1="398" x2="440" y1="361.875" y2="361.875"/>
    <line style="stroke:#A80036;stroke-width:1.0" x1="440" x2="440" y1="361.875" y2="374.875"/>
    <line style="stroke:#A80036;stroke-width:1.0" x1="399" x2="440" y1="374.875" y2="374.875"/>
    <polygon fill="#A80036" points="409,370.875,399,374.875,409,378.875,405,374.875" style="stroke:#A80036;stroke-width:1.0"/>
    <text fill="#000000" font-family="sans-serif" font-size="13" font-weight="bold" lengthAdjust="spacingAndGlyphs" textLength="9" x="405" y="356.8091">4</text>
    <text fill="#000000" font-family="sans-serif" font-size="13" lengthAdjust="spacingAndGlyphs" textLength="282" x="418" y="356.8091">Retrieve bulk quotes endpoint for Payee FSP</text>
    <path d="M10,389.875 L74,389.875 L74,396.875 L64,406.875 L10,406.875 L10,389.875 " fill="#EEEEEE" style="stroke:#000000;stroke-width:1.0"/>
    <rect fill="none" height="1232.5313" style="stroke:#000000;stroke-width:2.0" width="958" x="10" y="389.875"/>
    <text fill="#000000" font-family="sans-serif" font-size="13" font-weight="bold" lengthAdjust="spacingAndGlyphs" textLength="19" x="25" y="402.9419">alt</text>
    <text fill="#000000" font-family="sans-serif" font-size="11" font-weight="bold" lengthAdjust="spacingAndGlyphs" textLength="242" x="89" y="402.0854">[Payee FSP quotes endpoint is found]</text>
    <path d="M403,412.0078 L403,437.0078 L804,437.0078 L804,422.0078 L794,412.0078 L403,412.0078 " fill="#FBFB77" filter="url(#f1tcm6arlohgph)" style="stroke:#A80036;stroke-width:1.0"/>
    <path d="M794,412.0078 L794,422.0078 L804,422.0078 L794,412.0078 " fill="#FBFB77" style="stroke:#A80036;stroke-width:1.0"/>
    <text fill="#000000" font-family="sans-serif" font-size="13" lengthAdjust="spacingAndGlyphs" textLength="380" x="409" y="429.0747">Switch forwards request to Payee FSP (pass-through mode)</text>
    <polygon fill="#A80036" points="726,463.2734,736,467.2734,726,467.2734" style="stroke:#A80036;stroke-width:1.0"/>
    <line style="stroke:#A80036;stroke-width:1.0" x1="398" x2="737" y1="467.2734" y2="467.2734"/>
    <text fill="#000000" font-family="sans-serif" font-size="13" font-weight="bold" lengthAdjust="spacingAndGlyphs" textLength="9" x="405" y="462.2075">5</text>
    <text fill="#000000" font-family="sans-serif" font-size="13" lengthAdjust="spacingAndGlyphs" textLength="138" x="418" y="462.2075">GET /bulkQuotes/{ID}</text>
    <polygon fill="#A80036" points="409,497.4063,399,497.4063,409,501.4063" style="stroke:#A80036;stroke-width:1.0"/>
    <line style="stroke:#A80036;stroke-width:1.0;stroke-dasharray:2.0,2.0" x1="398" x2="737" y1="496.4063" y2="496.4063"/>
    <text fill="#000000" font-family="sans-serif" font-size="13" font-weight="bold" lengthAdjust="spacingAndGlyphs" textLength="9" x="415" y="491.3403">6</text>
    <text fill="#000000" font-family="sans-serif" font-size="13" lengthAdjust="spacingAndGlyphs" textLength="88" x="428" y="491.3403">202 Accepted</text>
    <line style="stroke:#A80036;stroke-width:1.0" x1="738" x2="780" y1="525.5391" y2="525.5391"/>
    <line style="stroke:#A80036;stroke-width:1.0" x1="780" x2="780" y1="525.5391" y2="538.5391"/>
    <line style="stroke:#A80036;stroke-width:1.0" x1="739" x2="780" y1="538.5391" y2="538.5391"/>
    <polygon fill="#A80036" points="749,534.5391,739,538.5391,749,542.5391,745,538.5391" style="stroke:#A80036;stroke-width:1.0"/>
    <text fill="#000000" font-family="sans-serif" font-size="13" font-weight="bold" lengthAdjust="spacingAndGlyphs" textLength="9" x="745" y="520.4731">7</text>
    <text fill="#000000" font-family="sans-serif" font-size="13" lengthAdjust="spacingAndGlyphs" textLength="198" x="758" y="520.4731">Payee FSP retireves bulk quote</text>
    <path d="M20,553.5391 L84,553.5391 L84,560.5391 L74,570.5391 L20,570.5391 L20,553.5391 " fill="#EEEEEE" style="stroke:#000000;stroke-width:1.0"/>
    <rect fill="none" height="934.5313" style="stroke:#000000;stroke-width:2.0" width="791.5" x="20" y="553.5391"/>
    <text fill="#000000" font-family="sans-serif" font-size="13" font-weight="bold" lengthAdjust="spacingAndGlyphs" textLength="19" x="35" y="566.606">alt</text>
    <text fill="#000000" font-family="sans-serif" font-size="11" font-weight="bold" lengthAdjust="spacingAndGlyphs" textLength="257" x="99" y="565.7495">[Payee FSP successfully retieves quote]</text>
    <path d="M467,575.6719 L467,600.6719 L729,600.6719 L729,585.6719 L719,575.6719 L467,575.6719 " fill="#FBFB77" filter="url(#f1tcm6arlohgph)" style="stroke:#A80036;stroke-width:1.0"/>
    <path d="M719,575.6719 L719,585.6719 L729,585.6719 L719,575.6719 " fill="#FBFB77" style="stroke:#A80036;stroke-width:1.0"/>
    <text fill="#000000" font-family="sans-serif" font-size="13" lengthAdjust="spacingAndGlyphs" textLength="241" x="473" y="592.7388">Payee FSP responds to quote request</text>
    <polygon fill="#A80036" points="409,626.9375,399,630.9375,409,630.9375" style="stroke:#A80036;stroke-width:1.0"/>
    <line style="stroke:#A80036;stroke-width:1.0" x1="398" x2="737" y1="630.9375" y2="630.9375"/>
    <text fill="#000000" font-family="sans-serif" font-size="13" font-weight="bold" lengthAdjust="spacingAndGlyphs" textLength="9" x="415" y="625.8716">8</text>
    <text fill="#000000" font-family="sans-serif" font-size="13" lengthAdjust="spacingAndGlyphs" textLength="110" x="428" y="625.8716">PUT /quotes/{ID}</text>
    <path d="M403,643.9375 L403,713.9375 L651,713.9375 L651,653.9375 L641,643.9375 L403,643.9375 " fill="#AAAAAA" filter="url(#f1tcm6arlohgph)" style="stroke:#A80036;stroke-width:1.0"/>
    <path d="M641,643.9375 L641,653.9375 L651,653.9375 L641,643.9375 " fill="#AAAAAA" style="stroke:#A80036;stroke-width:1.0"/>
    <text fill="#000000" font-family="sans-serif" font-size="13" lengthAdjust="spacingAndGlyphs" textLength="156" x="409" y="661.0044">Validate request against</text>
    <text fill="#000000" font-family="sans-serif" font-size="13" lengthAdjust="spacingAndGlyphs" textLength="200" x="409" y="676.1372">Mojaloop interface specification</text>
    <text fill="#FF0000" font-family="sans-serif" font-size="13" font-weight="bold" lengthAdjust="spacingAndGlyphs" textLength="167" x="409" y="691.27">Error code: 300x, 310x</text>
    <text fill="#FF0000" font-family="sans-serif" font-size="13" font-weight="bold" lengthAdjust="spacingAndGlyphs" textLength="227" x="409" y="706.4028">HTTP error response code: 4xx</text>
    <polygon fill="#A80036" points="726,745.6016,736,745.6016,726,749.6016" style="stroke:#A80036;stroke-width:1.0"/>
    <line style="stroke:#A80036;stroke-width:1.0;stroke-dasharray:2.0,2.0" x1="398" x2="737" y1="744.6016" y2="744.6016"/>
    <text fill="#000000" font-family="sans-serif" font-size="13" font-weight="bold" lengthAdjust="spacingAndGlyphs" textLength="9" x="405" y="739.5356">9</text>
    <text fill="#000000" font-family="sans-serif" font-size="13" lengthAdjust="spacingAndGlyphs" textLength="45" x="418" y="739.5356">200 Ok</text>
    <path d="M30,759.6016 L94,759.6016 L94,766.6016 L84,776.6016 L30,776.6016 L30,759.6016 " fill="#EEEEEE" style="stroke:#000000;stroke-width:1.0"/>
    <rect fill="none" height="481.6016" style="stroke:#000000;stroke-width:2.0" width="771.5" x="30" y="759.6016"/>
    <text fill="#000000" font-family="sans-serif" font-size="13" font-weight="bold" lengthAdjust="spacingAndGlyphs" textLength="19" x="45" y="772.6685">alt</text>
    <text fill="#000000" font-family="sans-serif" font-size="11" font-weight="bold" lengthAdjust="spacingAndGlyphs" textLength="106" x="109" y="771.812">[Response is ok]</text>
    <line style="stroke:#A80036;stroke-width:1.0" x1="398" x2="440" y1="797.8672" y2="797.8672"/>
    <line style="stroke:#A80036;stroke-width:1.0" x1="440" x2="440" y1="797.8672" y2="810.8672"/>
    <line style="stroke:#A80036;stroke-width:1.0" x1="399" x2="440" y1="810.8672" y2="810.8672"/>
    <polygon fill="#A80036" points="409,806.8672,399,810.8672,409,814.8672,405,810.8672" style="stroke:#A80036;stroke-width:1.0"/>
    <text fill="#000000" font-family="sans-serif" font-size="13" font-weight="bold" lengthAdjust="spacingAndGlyphs" textLength="18" x="405" y="792.8013">10</text>
    <text fill="#000000" font-family="sans-serif" font-size="13" lengthAdjust="spacingAndGlyphs" textLength="304" x="427" y="792.8013">Retrieve bulk quotes endpoint for the Payer FSP</text>
    <path d="M40,825.8672 L104,825.8672 L104,832.8672 L94,842.8672 L40,842.8672 L40,825.8672 " fill="#EEEEEE" style="stroke:#000000;stroke-width:1.0"/>
    <rect fill="none" height="226.7344" style="stroke:#000000;stroke-width:2.0" width="753" x="40" y="825.8672"/>
    <text fill="#000000" font-family="sans-serif" font-size="13" font-weight="bold" lengthAdjust="spacingAndGlyphs" textLength="19" x="55" y="838.9341">alt</text>
    <text fill="#000000" font-family="sans-serif" font-size="11" font-weight="bold" lengthAdjust="spacingAndGlyphs" textLength="247" x="119" y="838.0776">[Bulk Quotes callback endpoint found]</text>
    <path d="M50,848 L50,873 L389,873 L389,858 L379,848 L50,848 " fill="#FBFB77" filter="url(#f1tcm6arlohgph)" style="stroke:#A80036;stroke-width:1.0"/>
    <path d="M379,848 L379,858 L389,858 L379,848 " fill="#FBFB77" style="stroke:#A80036;stroke-width:1.0"/>
    <text fill="#000000" font-family="sans-serif" font-size="13" lengthAdjust="spacingAndGlyphs" textLength="318" x="56" y="865.0669">Switch forwards bulk quote response to Payer FSP</text>
    <polygon fill="#A80036" points="190,899.2656,180,903.2656,190,903.2656" style="stroke:#A80036;stroke-width:1.0"/>
    <line style="stroke:#A80036;stroke-width:1.0" x1="179" x2="397" y1="903.2656" y2="903.2656"/>
    <text fill="#000000" font-family="sans-serif" font-size="13" font-weight="bold" lengthAdjust="spacingAndGlyphs" textLength="18" x="196" y="898.1997">11</text>
    <text fill="#000000" font-family="sans-serif" font-size="13" lengthAdjust="spacingAndGlyphs" textLength="138" x="218" y="898.1997">PUT /bulkQuotes/{ID}</text>
    <polygon fill="#A80036" points="386,933.3984,396,933.3984,386,937.3984" style="stroke:#A80036;stroke-width:1.0"/>
    <line style="stroke:#A80036;stroke-width:1.0;stroke-dasharray:2.0,2.0" x1="179" x2="397" y1="932.3984" y2="932.3984"/>
    <text fill="#000000" font-family="sans-serif" font-size="13" font-weight="bold" lengthAdjust="spacingAndGlyphs" textLength="18" x="186" y="927.3325">12</text>
    <text fill="#000000" font-family="sans-serif" font-size="13" lengthAdjust="spacingAndGlyphs" textLength="45" x="208" y="927.3325">200 Ok</text>
    <line style="stroke:#000000;stroke-width:1.0;stroke-dasharray:2.0,2.0" x1="40" x2="793" y1="941.3984" y2="941.3984"/>
    <text fill="#000000" font-family="sans-serif" font-size="11" font-weight="bold" lengthAdjust="spacingAndGlyphs" textLength="272" x="45" y="951.6089">[Bulk Quotes callback endpoint not found]</text>
    <path d="M403,960.2031 L403,985.2031 L638,985.2031 L638,970.2031 L628,960.2031 L403,960.2031 " fill="#FBFB77" filter="url(#f1tcm6arlohgph)" style="stroke:#A80036;stroke-width:1.0"/>
    <path d="M628,960.2031 L628,970.2031 L638,970.2031 L628,960.2031 " fill="#FBFB77" style="stroke:#A80036;stroke-width:1.0"/>
    <text fill="#000000" font-family="sans-serif" font-size="13" lengthAdjust="spacingAndGlyphs" textLength="214" x="409" y="977.27">Switch returns error to Payee FSP</text>
    <polygon fill="#A80036" points="726,1011.4688,736,1015.4688,726,1015.4688" style="stroke:#A80036;stroke-width:1.0"/>
    <line style="stroke:#A80036;stroke-width:1.0" x1="398" x2="737" y1="1015.4688" y2="1015.4688"/>
    <text fill="#000000" font-family="sans-serif" font-size="13" font-weight="bold" lengthAdjust="spacingAndGlyphs" textLength="18" x="405" y="1010.4028">13</text>
    <text fill="#000000" font-family="sans-serif" font-size="13" lengthAdjust="spacingAndGlyphs" textLength="173" x="427" y="1010.4028">PUT /bulkQuotes/{ID}/error</text>
    <polygon fill="#A80036" points="409,1045.6016,399,1045.6016,409,1049.6016" style="stroke:#A80036;stroke-width:1.0"/>
    <line style="stroke:#A80036;stroke-width:1.0;stroke-dasharray:2.0,2.0" x1="398" x2="737" y1="1044.6016" y2="1044.6016"/>
    <text fill="#000000" font-family="sans-serif" font-size="13" font-weight="bold" lengthAdjust="spacingAndGlyphs" textLength="18" x="415" y="1039.5356">14</text>
    <text fill="#000000" font-family="sans-serif" font-size="13" lengthAdjust="spacingAndGlyphs" textLength="45" x="437" y="1039.5356">200 Ok</text>
    <line style="stroke:#000000;stroke-width:1.0;stroke-dasharray:2.0,2.0" x1="30" x2="801.5" y1="1060.6016" y2="1060.6016"/>
    <text fill="#000000" font-family="sans-serif" font-size="11" font-weight="bold" lengthAdjust="spacingAndGlyphs" textLength="134" x="35" y="1070.812">[Response is invalid]</text>
    <path d="M403,1079.4063 L403,1104.4063 L638,1104.4063 L638,1089.4063 L628,1079.4063 L403,1079.4063 " fill="#FBFB77" filter="url(#f1tcm6arlohgph)" style="stroke:#A80036;stroke-width:1.0"/>
    <path d="M628,1079.4063 L628,1089.4063 L638,1089.4063 L628,1079.4063 " fill="#FBFB77" style="stroke:#A80036;stroke-width:1.0"/>
    <text fill="#000000" font-family="sans-serif" font-size="13" lengthAdjust="spacingAndGlyphs" textLength="214" x="409" y="1096.4731">Switch returns error to Payee FSP</text>
    <polygon fill="#A80036" points="726,1130.6719,736,1134.6719,726,1134.6719" style="stroke:#A80036;stroke-width:1.0"/>
    <line style="stroke:#A80036;stroke-width:1.0" x1="398" x2="737" y1="1134.6719" y2="1134.6719"/>
    <text fill="#000000" font-family="sans-serif" font-size="13" font-weight="bold" lengthAdjust="spacingAndGlyphs" textLength="18" x="405" y="1129.606">15</text>
    <text fill="#000000" font-family="sans-serif" font-size="13" lengthAdjust="spacingAndGlyphs" textLength="173" x="427" y="1129.606">PUT /bulkQuotes/{ID}/error</text>
    <polygon fill="#A80036" points="409,1164.8047,399,1164.8047,409,1168.8047" style="stroke:#A80036;stroke-width:1.0"/>
    <line style="stroke:#A80036;stroke-width:1.0;stroke-dasharray:2.0,2.0" x1="398" x2="737" y1="1163.8047" y2="1163.8047"/>
    <text fill="#000000" font-family="sans-serif" font-size="13" font-weight="bold" lengthAdjust="spacingAndGlyphs" textLength="18" x="415" y="1158.7388">16</text>
    <text fill="#000000" font-family="sans-serif" font-size="13" lengthAdjust="spacingAndGlyphs" textLength="45" x="437" y="1158.7388">200 Ok</text>
    <path d="M343,1176.8047 L343,1231.8047 L791,1231.8047 L791,1186.8047 L781,1176.8047 L343,1176.8047 " fill="#EC7063" filter="url(#f1tcm6arlohgph)" style="stroke:#A80036;stroke-width:1.0"/>
    <path d="M781,1176.8047 L781,1186.8047 L791,1186.8047 L781,1176.8047 " fill="#EC7063" style="stroke:#A80036;stroke-width:1.0"/>
    <text fill="#000000" font-family="sans-serif" font-size="13" lengthAdjust="spacingAndGlyphs" textLength="129" x="471.75" y="1193.8716">Note that under this</text>
    <text fill="#000000" font-family="sans-serif" font-size="13" lengthAdjust="spacingAndGlyphs" textLength="147" x="471.75" y="1209.0044">scenario the Payer FSP</text>
    <text fill="#000000" font-family="sans-serif" font-size="13" lengthAdjust="spacingAndGlyphs" textLength="178" x="471.75" y="1224.1372">may not receive a response</text>
    <line style="stroke:#000000;stroke-width:1.0;stroke-dasharray:2.0,2.0" x1="20" x2="811.5" y1="1249.2031" y2="1249.2031"/>
    <text fill="#000000" font-family="sans-serif" font-size="11" font-weight="bold" lengthAdjust="spacingAndGlyphs" textLength="142" x="25" y="1259.4136">[bulkQuote not found]</text>
    <path d="M494,1268.0078 L494,1308.0078 L729,1308.0078 L729,1278.0078 L719,1268.0078 L494,1268.0078 " fill="#FBFB77" filter="url(#f1tcm6arlohgph)" style="stroke:#A80036;stroke-width:1.0"/>
    <path d="M719,1268.0078 L719,1278.0078 L729,1278.0078 L719,1268.0078 " fill="#FBFB77" style="stroke:#A80036;stroke-width:1.0"/>
    <text fill="#000000" font-family="sans-serif" font-size="13" lengthAdjust="spacingAndGlyphs" textLength="214" x="500" y="1285.0747">Payee FSP returns error to Switch</text>
    <text fill="#000000" font-family="sans-serif" font-size="13" lengthAdjust="spacingAndGlyphs" textLength="0" x="504" y="1300.2075"/>
    <text fill="#FF0000" font-family="sans-serif" font-size="13" font-weight="bold" lengthAdjust="spacingAndGlyphs" textLength="123" x="504" y="1300.2075">Error code: 3205</text>
    <polygon fill="#A80036" points="409,1334.4063,399,1338.4063,409,1338.4063" style="stroke:#A80036;stroke-width:1.0"/>
    <line style="stroke:#A80036;stroke-width:1.0" x1="398" x2="737" y1="1338.4063" y2="1338.4063"/>
    <text fill="#000000" font-family="sans-serif" font-size="13" font-weight="bold" lengthAdjust="spacingAndGlyphs" textLength="18" x="415" y="1333.3403">17</text>
    <text fill="#000000" font-family="sans-serif" font-size="13" lengthAdjust="spacingAndGlyphs" textLength="173" x="437" y="1333.3403">PUT /bulkQuotes/{ID}/error</text>
    <polygon fill="#A80036" points="726,1368.5391,736,1368.5391,726,1372.5391" style="stroke:#A80036;stroke-width:1.0"/>
    <line style="stroke:#A80036;stroke-width:1.0;stroke-dasharray:2.0,2.0" x1="398" x2="737" y1="1367.5391" y2="1367.5391"/>
    <text fill="#000000" font-family="sans-serif" font-size="13" font-weight="bold" lengthAdjust="spacingAndGlyphs" textLength="18" x="405" y="1362.4731">18</text>
    <text fill="#000000" font-family="sans-serif" font-size="13" lengthAdjust="spacingAndGlyphs" textLength="46" x="427" y="1362.4731">200 OK</text>
    <path d="M157,1380.5391 L157,1420.5391 L389,1420.5391 L389,1390.5391 L379,1380.5391 L157,1380.5391 " fill="#FBFB77" filter="url(#f1tcm6arlohgph)" style="stroke:#A80036;stroke-width:1.0"/>
    <path d="M379,1380.5391 L379,1390.5391 L389,1390.5391 L379,1380.5391 " fill="#FBFB77" style="stroke:#A80036;stroke-width:1.0"/>
    <text fill="#000000" font-family="sans-serif" font-size="13" lengthAdjust="spacingAndGlyphs" textLength="211" x="163" y="1397.606">Switch returns error to Payer FSP</text>
    <text fill="#000000" font-family="sans-serif" font-size="13" lengthAdjust="spacingAndGlyphs" textLength="0" x="167" y="1412.7388"/>
    <text fill="#FF0000" font-family="sans-serif" font-size="13" font-weight="bold" lengthAdjust="spacingAndGlyphs" textLength="123" x="167" y="1412.7388">Error code: 3205</text>
    <polygon fill="#A80036" points="190,1446.9375,180,1450.9375,190,1450.9375" style="stroke:#A80036;stroke-width:1.0"/>
    <line style="stroke:#A80036;stroke-width:1.0" x1="179" x2="397" y1="1450.9375" y2="1450.9375"/>
    <text fill="#000000" font-family="sans-serif" font-size="13" font-weight="bold" lengthAdjust="spacingAndGlyphs" textLength="18" x="196" y="1445.8716">19</text>
    <text fill="#000000" font-family="sans-serif" font-size="13" lengthAdjust="spacingAndGlyphs" textLength="173" x="218" y="1445.8716">PUT /bulkQuotes/{ID}/error</text>
    <polygon fill="#A80036" points="386,1481.0703,396,1481.0703,386,1485.0703" style="stroke:#A80036;stroke-width:1.0"/>
    <line style="stroke:#A80036;stroke-width:1.0;stroke-dasharray:2.0,2.0" x1="179" x2="397" y1="1480.0703" y2="1480.0703"/>
    <text fill="#000000" font-family="sans-serif" font-size="13" font-weight="bold" lengthAdjust="spacingAndGlyphs" textLength="18" x="186" y="1475.0044">20</text>
    <text fill="#000000" font-family="sans-serif" font-size="13" lengthAdjust="spacingAndGlyphs" textLength="46" x="208" y="1475.0044">200 OK</text>
    <line style="stroke:#000000;stroke-width:1.0;stroke-dasharray:2.0,2.0" x1="10" x2="968" y1="1496.0703" y2="1496.0703"/>
    <text fill="#000000" font-family="sans-serif" font-size="11" font-weight="bold" lengthAdjust="spacingAndGlyphs" textLength="299" x="15" y="1506.2808">[Payee FSP Bulk quotes endpoint is not found]</text>
    <path d="M157,1514.875 L157,1554.875 L389,1554.875 L389,1524.875 L379,1514.875 L157,1514.875 " fill="#FBFB77" filter="url(#f1tcm6arlohgph)" style="stroke:#A80036;stroke-width:1.0"/>
    <path d="M379,1514.875 L379,1524.875 L389,1524.875 L379,1514.875 " fill="#FBFB77" style="stroke:#A80036;stroke-width:1.0"/>
    <text fill="#000000" font-family="sans-serif" font-size="13" lengthAdjust="spacingAndGlyphs" textLength="211" x="163" y="1531.9419">Switch returns error to Payer FSP</text>
    <text fill="#FF0000" font-family="sans-serif" font-size="13" font-weight="bold" lengthAdjust="spacingAndGlyphs" textLength="123" x="163" y="1547.0747">Error code: 3201</text>
    <polygon fill="#A80036" points="190,1581.2734,180,1585.2734,190,1585.2734" style="stroke:#A80036;stroke-width:1.0"/>
    <line style="stroke:#A80036;stroke-width:1.0" x1="179" x2="397" y1="1585.2734" y2="1585.2734"/>
    <text fill="#000000" font-family="sans-serif" font-size="13" font-weight="bold" lengthAdjust="spacingAndGlyphs" textLength="18" x="196" y="1580.2075">21</text>
    <text fill="#000000" font-family="sans-serif" font-size="13" lengthAdjust="spacingAndGlyphs" textLength="169" x="218" y="1580.2075">PUT /bulkQuotes/{ID}error</text>
    <polygon fill="#A80036" points="386,1615.4063,396,1615.4063,386,1619.4063" style="stroke:#A80036;stroke-width:1.0"/>
    <line style="stroke:#A80036;stroke-width:1.0;stroke-dasharray:2.0,2.0" x1="179" x2="397" y1="1614.4063" y2="1614.4063"/>
    <text fill="#000000" font-family="sans-serif" font-size="13" font-weight="bold" lengthAdjust="spacingAndGlyphs" textLength="18" x="186" y="1609.3403">22</text>
    <text fill="#000000" font-family="sans-serif" font-size="13" lengthAdjust="spacingAndGlyphs" textLength="46" x="208" y="1609.3403">200 OK</text>
  </g>
</svg>
