<svg xmlns="http://www.w3.org/2000/svg" xmlns:xlink="http://www.w3.org/1999/xlink" contentStyleType="text/css" height="1492px" preserveAspectRatio="none" style="width:704px;height:1492px;background:#FFFFFF;" version="1.1" viewBox="0 0 704 1492" width="704px" zoomAndPan="magnify">
  <title>Quoting Service Sequences</title>
  <defs/>
  <g>
    <text fill="#000000" font-family="sans-serif" font-size="14" font-weight="bold" lengthAdjust="spacing" textLength="216.0703" x="245.2495" y="27.9951">Quoting Service Sequences</text>
    <rect fill="none" height="1149.3281" style="stroke:#000000;stroke-width:1.5;" width="688.5693" x="9" y="258.7188"/>
    <rect fill="none" height="817.1953" style="stroke:#000000;stroke-width:1.5;" width="561.9722" x="19" y="475.6484"/>
    <rect fill="none" height="406.7969" style="stroke:#000000;stroke-width:1.5;" width="541.9722" x="29" y="635.3125"/>
    <line style="stroke:#181818;stroke-width:0.5;stroke-dasharray:5.0,5.0;" x1="121" x2="121" y1="106.1875" y2="1425.0469"/>
    <line style="stroke:#181818;stroke-width:0.5;stroke-dasharray:5.0,5.0;" x1="311.3091" x2="311.3091" y1="106.1875" y2="1425.0469"/>
    <line style="stroke:#181818;stroke-width:0.5;stroke-dasharray:5.0,5.0;" x1="511.8267" x2="511.8267" y1="106.1875" y2="1425.0469"/>
    <rect fill="#E2E2F0" height="30.2969" rx="2.5" ry="2.5" style="stroke:#181818;stroke-width:0.5;" width="94.2881" x="74" y="74.8906"/>
    <text fill="#000000" font-family="sans-serif" font-size="14" lengthAdjust="spacing" textLength="80.2881" x="81" y="94.8857">Payer DFSP</text>
    <rect fill="#E2E2F0" height="30.2969" rx="2.5" ry="2.5" style="stroke:#181818;stroke-width:0.5;" width="94.2881" x="74" y="1424.0469"/>
    <text fill="#000000" font-family="sans-serif" font-size="14" lengthAdjust="spacing" textLength="80.2881" x="81" y="1444.042">Payer DFSP</text>
    <rect fill="#E2E2F0" height="62.8906" rx="2.5" ry="2.5" style="stroke:#181818;stroke-width:0.5;" width="69.5967" x="277.3091" y="42.2969"/>
    <text fill="#000000" font-family="sans-serif" font-size="14" lengthAdjust="spacing" textLength="46.2861" x="288.9644" y="62.292">Switch</text>
    <text fill="#000000" font-family="sans-serif" font-size="14" lengthAdjust="spacing" textLength="55.5967" x="284.3091" y="78.5889">Quoting</text>
    <text fill="#000000" font-family="sans-serif" font-size="14" lengthAdjust="spacing" textLength="51.7412" x="286.2368" y="94.8857">Service</text>
    <rect fill="#E2E2F0" height="62.8906" rx="2.5" ry="2.5" style="stroke:#181818;stroke-width:0.5;" width="69.5967" x="277.3091" y="1424.0469"/>
    <text fill="#000000" font-family="sans-serif" font-size="14" lengthAdjust="spacing" textLength="46.2861" x="288.9644" y="1444.042">Switch</text>
    <text fill="#000000" font-family="sans-serif" font-size="14" lengthAdjust="spacing" textLength="55.5967" x="284.3091" y="1460.3389">Quoting</text>
    <text fill="#000000" font-family="sans-serif" font-size="14" lengthAdjust="spacing" textLength="51.7412" x="286.2368" y="1476.6357">Service</text>
    <rect fill="#E2E2F0" height="30.2969" rx="2.5" ry="2.5" style="stroke:#181818;stroke-width:0.5;" width="97.1455" x="463.8267" y="74.8906"/>
    <text fill="#000000" font-family="sans-serif" font-size="14" lengthAdjust="spacing" textLength="83.1455" x="470.8267" y="94.8857">Payee DFSP</text>
    <rect fill="#E2E2F0" height="30.2969" rx="2.5" ry="2.5" style="stroke:#181818;stroke-width:0.5;" width="97.1455" x="463.8267" y="1424.0469"/>
    <text fill="#000000" font-family="sans-serif" font-size="14" lengthAdjust="spacing" textLength="83.1455" x="470.8267" y="1444.042">Payee DFSP</text>
    <path d="M59,121.1875 L59,146.1875 L372,146.1875 L372,131.1875 L362,121.1875 L59,121.1875 " fill="#FEFFDD" style="stroke:#181818;stroke-width:0.5;"/>
    <path d="M362,121.1875 L362,131.1875 L372,131.1875 L362,121.1875 " fill="#FEFFDD" style="stroke:#181818;stroke-width:0.5;"/>
    <text fill="#000000" font-family="sans-serif" font-size="13" lengthAdjust="spacing" textLength="292.8428" x="65" y="138.2544">Payer DFSP requests quote from Payee DFSP</text>
    <polygon fill="#181818" points="300.1074,168.4531,310.1074,172.4531,300.1074,172.4531" style="stroke:#181818;stroke-width:1.0;"/>
    <line style="stroke:#181818;stroke-width:1.0;" x1="121.144" x2="311.1074" y1="172.4531" y2="172.4531"/>
    <text fill="#000000" font-family="sans-serif" font-size="13" font-weight="bold" lengthAdjust="spacing" textLength="9.0454" x="128.144" y="167.3872">1</text>
    <text fill="#000000" font-family="sans-serif" font-size="13" lengthAdjust="spacing" textLength="87.0898" x="141.1895" y="167.3872">POST /quotes</text>
    <polygon fill="#181818" points="132.144,201.5859,122.144,201.5859,132.144,205.5859" style="stroke:#181818;stroke-width:1.0;"/>
    <line style="stroke:#181818;stroke-width:1.0;stroke-dasharray:2.0,2.0;" x1="121.144" x2="311.1074" y1="201.5859" y2="201.5859"/>
    <text fill="#000000" font-family="sans-serif" font-size="13" font-weight="bold" lengthAdjust="spacing" textLength="9.0454" x="138.144" y="196.52">2</text>
    <text fill="#000000" font-family="sans-serif" font-size="13" lengthAdjust="spacing" textLength="89.7305" x="151.1895" y="196.52">202 Accepted</text>
    <line style="stroke:#181818;stroke-width:1.0;" x1="312.1074" x2="354.1074" y1="230.7188" y2="230.7188"/>
    <line style="stroke:#181818;stroke-width:1.0;" x1="354.1074" x2="354.1074" y1="230.7188" y2="243.7188"/>
    <line style="stroke:#181818;stroke-width:1.0;" x1="313.1074" x2="354.1074" y1="243.7188" y2="243.7188"/>
    <polygon fill="#181818" points="323.1074,239.7188,313.1074,243.7188,323.1074,247.7188,319.1074,243.7188" style="stroke:#181818;stroke-width:1.0;"/>
    <text fill="#000000" font-family="sans-serif" font-size="13" font-weight="bold" lengthAdjust="spacing" textLength="9.0454" x="319.1074" y="225.6528">3</text>
    <text fill="#000000" font-family="sans-serif" font-size="13" lengthAdjust="spacing" textLength="154.5718" x="332.1528" y="225.6528">Validate Quote Request</text>
    <path d="M9,258.7188 L73.4429,258.7188 L73.4429,265.8516 L63.4429,275.8516 L9,275.8516 L9,258.7188 " fill="#EEEEEE" style="stroke:#000000;stroke-width:1.5;"/>
    <rect fill="none" height="1149.3281" style="stroke:#000000;stroke-width:1.5;" width="688.5693" x="9" y="258.7188"/>
    <text fill="#000000" font-family="sans-serif" font-size="13" font-weight="bold" lengthAdjust="spacing" textLength="19.4429" x="24" y="271.7856">alt</text>
    <text fill="#000000" font-family="sans-serif" font-size="11" font-weight="bold" lengthAdjust="spacing" textLength="94.021" x="88.4429" y="270.9292">[quote is valid]</text>
    <line style="stroke:#181818;stroke-width:1.0;" x1="312.1074" x2="354.1074" y1="296.9844" y2="296.9844"/>
    <line style="stroke:#181818;stroke-width:1.0;" x1="354.1074" x2="354.1074" y1="296.9844" y2="309.9844"/>
    <line style="stroke:#181818;stroke-width:1.0;" x1="313.1074" x2="354.1074" y1="309.9844" y2="309.9844"/>
    <polygon fill="#181818" points="323.1074,305.9844,313.1074,309.9844,323.1074,313.9844,319.1074,309.9844" style="stroke:#181818;stroke-width:1.0;"/>
    <text fill="#000000" font-family="sans-serif" font-size="13" font-weight="bold" lengthAdjust="spacing" textLength="9.0454" x="319.1074" y="291.9185">4</text>
    <text fill="#000000" font-family="sans-serif" font-size="13" lengthAdjust="spacing" textLength="122.2622" x="332.1528" y="291.9185">Persist Quote Data</text>
    <path d="M252,322.9844 L252,362.9844 L570,362.9844 L570,332.9844 L560,322.9844 L252,322.9844 " fill="#FEFFDD" style="stroke:#181818;stroke-width:0.5;"/>
    <path d="M560,322.9844 L560,332.9844 L570,332.9844 L560,322.9844 " fill="#FEFFDD" style="stroke:#181818;stroke-width:0.5;"/>
    <text fill="#000000" font-family="sans-serif" font-size="13" lengthAdjust="spacing" textLength="297.9844" x="258" y="340.0513">Switch forwards quote request to Payee DFSP</text>
    <text fill="#000000" font-family="sans-serif" font-size="13" lengthAdjust="spacing" textLength="141.7876" x="258" y="355.1841">&lt;Payer based Rules&gt;</text>
    <polygon fill="#181818" points="500.3994,385.3828,510.3994,389.3828,500.3994,389.3828" style="stroke:#181818;stroke-width:1.0;"/>
    <line style="stroke:#181818;stroke-width:1.0;" x1="312.1074" x2="511.3994" y1="389.3828" y2="389.3828"/>
    <text fill="#000000" font-family="sans-serif" font-size="13" font-weight="bold" lengthAdjust="spacing" textLength="9.0454" x="319.1074" y="384.3169">5</text>
    <text fill="#000000" font-family="sans-serif" font-size="13" lengthAdjust="spacing" textLength="87.0898" x="332.1528" y="384.3169">POST /quotes</text>
    <polygon fill="#181818" points="323.1074,418.5156,313.1074,418.5156,323.1074,422.5156" style="stroke:#181818;stroke-width:1.0;"/>
    <line style="stroke:#181818;stroke-width:1.0;stroke-dasharray:2.0,2.0;" x1="312.1074" x2="511.3994" y1="418.5156" y2="418.5156"/>
    <text fill="#000000" font-family="sans-serif" font-size="13" font-weight="bold" lengthAdjust="spacing" textLength="9.0454" x="329.1074" y="413.4497">6</text>
    <text fill="#000000" font-family="sans-serif" font-size="13" lengthAdjust="spacing" textLength="89.7305" x="342.1528" y="413.4497">202 Accepted</text>
    <line style="stroke:#181818;stroke-width:1.0;" x1="512.3994" x2="554.3994" y1="447.6484" y2="447.6484"/>
    <line style="stroke:#181818;stroke-width:1.0;" x1="554.3994" x2="554.3994" y1="447.6484" y2="460.6484"/>
    <line style="stroke:#181818;stroke-width:1.0;" x1="513.3994" x2="554.3994" y1="460.6484" y2="460.6484"/>
    <polygon fill="#181818" points="523.3994,456.6484,513.3994,460.6484,523.3994,464.6484,519.3994,460.6484" style="stroke:#181818;stroke-width:1.0;"/>
    <text fill="#000000" font-family="sans-serif" font-size="13" font-weight="bold" lengthAdjust="spacing" textLength="9.0454" x="519.3994" y="442.5825">7</text>
    <text fill="#000000" font-family="sans-serif" font-size="13" lengthAdjust="spacing" textLength="153.1245" x="532.4448" y="442.5825">Calculate Fees/Charges</text>
    <path d="M19,475.6484 L83.4429,475.6484 L83.4429,482.7813 L73.4429,492.7813 L19,492.7813 L19,475.6484 " fill="#EEEEEE" style="stroke:#000000;stroke-width:1.5;"/>
    <rect fill="none" height="817.1953" style="stroke:#000000;stroke-width:1.5;" width="561.9722" x="19" y="475.6484"/>
    <text fill="#000000" font-family="sans-serif" font-size="13" font-weight="bold" lengthAdjust="spacing" textLength="19.4429" x="34" y="488.7153">alt</text>
    <text fill="#000000" font-family="sans-serif" font-size="11" font-weight="bold" lengthAdjust="spacing" textLength="269.3872" x="98.4429" y="487.8589">[Payee DFSP successfully calculates quote]</text>
    <path d="M272,497.7813 L272,522.7813 L550,522.7813 L550,507.7813 L540,497.7813 L272,497.7813 " fill="#FEFFDD" style="stroke:#181818;stroke-width:0.5;"/>
    <path d="M540,497.7813 L540,507.7813 L550,507.7813 L540,497.7813 " fill="#FEFFDD" style="stroke:#181818;stroke-width:0.5;"/>
    <text fill="#000000" font-family="sans-serif" font-size="13" lengthAdjust="spacing" textLength="253.6143" x="280.0244" y="514.8481">Payee DFSP responds to quote request</text>
    <polygon fill="#181818" points="323.1074,545.0469,313.1074,549.0469,323.1074,549.0469" style="stroke:#181818;stroke-width:1.0;"/>
    <line style="stroke:#181818;stroke-width:1.0;" x1="312.1074" x2="511.3994" y1="549.0469" y2="549.0469"/>
    <text fill="#000000" font-family="sans-serif" font-size="13" font-weight="bold" lengthAdjust="spacing" textLength="9.0454" x="329.1074" y="543.981">8</text>
    <text fill="#000000" font-family="sans-serif" font-size="13" lengthAdjust="spacing" textLength="112.8867" x="342.1528" y="543.981">PUT /quotes/{ID}</text>
    <polygon fill="#181818" points="500.3994,578.1797,510.3994,578.1797,500.3994,582.1797" style="stroke:#181818;stroke-width:1.0;"/>
    <line style="stroke:#181818;stroke-width:1.0;stroke-dasharray:2.0,2.0;" x1="312.1074" x2="511.3994" y1="578.1797" y2="578.1797"/>
    <text fill="#000000" font-family="sans-serif" font-size="13" font-weight="bold" lengthAdjust="spacing" textLength="9.0454" x="319.1074" y="573.1138">9</text>
    <text fill="#000000" font-family="sans-serif" font-size="13" lengthAdjust="spacing" textLength="46.7061" x="332.1528" y="573.1138">200 Ok</text>
    <line style="stroke:#181818;stroke-width:1.0;" x1="312.1074" x2="354.1074" y1="607.3125" y2="607.3125"/>
    <line style="stroke:#181818;stroke-width:1.0;" x1="354.1074" x2="354.1074" y1="607.3125" y2="620.3125"/>
    <line style="stroke:#181818;stroke-width:1.0;" x1="313.1074" x2="354.1074" y1="620.3125" y2="620.3125"/>
    <polygon fill="#181818" points="323.1074,616.3125,313.1074,620.3125,323.1074,624.3125,319.1074,620.3125" style="stroke:#181818;stroke-width:1.0;"/>
    <text fill="#000000" font-family="sans-serif" font-size="13" font-weight="bold" lengthAdjust="spacing" textLength="18.0908" x="319.1074" y="602.2466">10</text>
    <text fill="#000000" font-family="sans-serif" font-size="13" lengthAdjust="spacing" textLength="164.2012" x="341.1982" y="602.2466">Validate Quote Response</text>
    <path d="M29,635.3125 L93.4429,635.3125 L93.4429,642.4453 L83.4429,652.4453 L29,652.4453 L29,635.3125 " fill="#EEEEEE" style="stroke:#000000;stroke-width:1.5;"/>
    <rect fill="none" height="406.7969" style="stroke:#000000;stroke-width:1.5;" width="541.9722" x="29" y="635.3125"/>
    <text fill="#000000" font-family="sans-serif" font-size="13" font-weight="bold" lengthAdjust="spacing" textLength="19.4429" x="44" y="648.3794">alt</text>
    <text fill="#000000" font-family="sans-serif" font-size="11" font-weight="bold" lengthAdjust="spacing" textLength="99.6069" x="108.4429" y="647.5229">[response is ok]</text>
    <line style="stroke:#181818;stroke-width:1.0;" x1="312.1074" x2="354.1074" y1="673.5781" y2="673.5781"/>
    <line style="stroke:#181818;stroke-width:1.0;" x1="354.1074" x2="354.1074" y1="673.5781" y2="686.5781"/>
    <line style="stroke:#181818;stroke-width:1.0;" x1="313.1074" x2="354.1074" y1="686.5781" y2="686.5781"/>
    <polygon fill="#181818" points="323.1074,682.5781,313.1074,686.5781,323.1074,690.5781,319.1074,686.5781" style="stroke:#181818;stroke-width:1.0;"/>
    <text fill="#000000" font-family="sans-serif" font-size="13" font-weight="bold" lengthAdjust="spacing" textLength="18.0908" x="319.1074" y="668.5122">11</text>
    <text fill="#000000" font-family="sans-serif" font-size="13" lengthAdjust="spacing" textLength="145.7612" x="341.1982" y="668.5122">Persist Response Data</text>
    <path d="M53,699.5781 L53,739.5781 L378,739.5781 L378,709.5781 L368,699.5781 L53,699.5781 " fill="#FEFFDD" style="stroke:#181818;stroke-width:0.5;"/>
    <path d="M368,699.5781 L368,709.5781 L378,709.5781 L368,699.5781 " fill="#FEFFDD" style="stroke:#181818;stroke-width:0.5;"/>
    <text fill="#000000" font-family="sans-serif" font-size="13" lengthAdjust="spacing" textLength="304.9604" x="59" y="716.645">Switch forwards quote response to Payer DFSP</text>
    <text fill="#000000" font-family="sans-serif" font-size="13" lengthAdjust="spacing" textLength="190.6963" x="59" y="731.7778">&lt;Payee whole request Rule&gt;</text>
    <polygon fill="#181818" points="132.144,761.9766,122.144,765.9766,132.144,765.9766" style="stroke:#181818;stroke-width:1.0;"/>
    <line style="stroke:#181818;stroke-width:1.0;" x1="121.144" x2="311.1074" y1="765.9766" y2="765.9766"/>
    <text fill="#000000" font-family="sans-serif" font-size="13" font-weight="bold" lengthAdjust="spacing" textLength="18.0908" x="138.144" y="760.9106">12</text>
    <text fill="#000000" font-family="sans-serif" font-size="13" lengthAdjust="spacing" textLength="112.8867" x="160.2349" y="760.9106">PUT /quotes/{ID}</text>
    <polygon fill="#181818" points="300.1074,795.1094,310.1074,795.1094,300.1074,799.1094" style="stroke:#181818;stroke-width:1.0;"/>
    <line style="stroke:#181818;stroke-width:1.0;stroke-dasharray:2.0,2.0;" x1="121.144" x2="311.1074" y1="795.1094" y2="795.1094"/>
    <text fill="#000000" font-family="sans-serif" font-size="13" font-weight="bold" lengthAdjust="spacing" textLength="18.0908" x="128.144" y="790.0435">13</text>
    <text fill="#000000" font-family="sans-serif" font-size="13" lengthAdjust="spacing" textLength="46.7061" x="150.2349" y="790.0435">200 Ok</text>
    <path d="M39,808.1094 L39,863.1094 L201,863.1094 L201,818.1094 L191,808.1094 L39,808.1094 " fill="#3498DB" style="stroke:#181818;stroke-width:0.5;"/>
    <path d="M191,808.1094 L191,818.1094 L201,818.1094 L191,808.1094 " fill="#3498DB" style="stroke:#181818;stroke-width:0.5;"/>
    <text fill="#000000" font-family="sans-serif" font-size="13" lengthAdjust="spacing" textLength="141.9844" x="45" y="825.1763">Payer DFSP continues</text>
    <text fill="#000000" font-family="sans-serif" font-size="13" lengthAdjust="spacing" textLength="137.0459" x="45" y="840.3091">with transfer if quote</text>
    <text fill="#000000" font-family="sans-serif" font-size="13" lengthAdjust="spacing" textLength="98.3506" x="45" y="855.4419">is acceptable...</text>
    <line style="stroke:#000000;stroke-width:1.0;stroke-dasharray:2.0,2.0;" x1="29" x2="570.9722" y1="869.5078" y2="869.5078"/>
    <text fill="#000000" font-family="sans-serif" font-size="11" font-weight="bold" lengthAdjust="spacing" textLength="112.1968" x="34" y="879.7183">[response invalid]</text>
    <path d="M272,888.3125 L272,913.3125 L550,913.3125 L550,898.3125 L540,888.3125 L272,888.3125 " fill="#FEFFDD" style="stroke:#181818;stroke-width:0.5;"/>
    <path d="M540,888.3125 L540,898.3125 L550,898.3125 L540,888.3125 " fill="#FEFFDD" style="stroke:#181818;stroke-width:0.5;"/>
    <text fill="#000000" font-family="sans-serif" font-size="13" lengthAdjust="spacing" textLength="228.7886" x="292.4373" y="905.3794">Switch returns error to Payee DFSP</text>
    <polygon fill="#181818" points="500.3994,935.5781,510.3994,939.5781,500.3994,939.5781" style="stroke:#181818;stroke-width:1.0;"/>
    <line style="stroke:#181818;stroke-width:1.0;" x1="312.1074" x2="511.3994" y1="939.5781" y2="939.5781"/>
    <text fill="#000000" font-family="sans-serif" font-size="13" font-weight="bold" lengthAdjust="spacing" textLength="18.0908" x="319.1074" y="934.5122">14</text>
    <text fill="#000000" font-family="sans-serif" font-size="13" lengthAdjust="spacing" textLength="149.2524" x="341.1982" y="934.5122">PUT /quotes/{ID}/error</text>
    <polygon fill="#181818" points="323.1074,968.7109,313.1074,968.7109,323.1074,972.7109" style="stroke:#181818;stroke-width:1.0;"/>
    <line style="stroke:#181818;stroke-width:1.0;stroke-dasharray:2.0,2.0;" x1="312.1074" x2="511.3994" y1="968.7109" y2="968.7109"/>
    <text fill="#000000" font-family="sans-serif" font-size="13" font-weight="bold" lengthAdjust="spacing" textLength="18.0908" x="329.1074" y="963.645">15</text>
    <text fill="#000000" font-family="sans-serif" font-size="13" lengthAdjust="spacing" textLength="46.7061" x="351.1982" y="963.645">200 Ok</text>
    <path d="M272,981.7109 L272,1036.7109 L550,1036.7109 L550,991.7109 L540,981.7109 L272,981.7109 " fill="#EC7063" style="stroke:#181818;stroke-width:0.5;"/>
    <path d="M540,981.7109 L540,991.7109 L550,991.7109 L540,981.7109 " fill="#EC7063" style="stroke:#181818;stroke-width:0.5;"/>
    <text fill="#000000" font-family="sans-serif" font-size="13" lengthAdjust="spacing" textLength="131.3647" x="316.2156" y="998.7778">Note that under this</text>
    <text fill="#000000" font-family="sans-serif" font-size="13" lengthAdjust="spacing" textLength="159.1865" x="316.2156" y="1013.9106">scenario the Payer DFSP</text>
    <text fill="#000000" font-family="sans-serif" font-size="13" lengthAdjust="spacing" textLength="181.2319" x="316.2156" y="1029.0435">may not receive a response</text>
    <line style="stroke:#000000;stroke-width:1.0;stroke-dasharray:2.0,2.0;" x1="19" x2="580.9722" y1="1050.1094" y2="1050.1094"/>
    <text fill="#000000" font-family="sans-serif" font-size="11" font-weight="bold" lengthAdjust="spacing" textLength="324.8706" x="24" y="1060.3198">[Payee DFSP calculation fails or rejects the request]</text>
    <path d="M272,1068.9141 L272,1093.9141 L550,1093.9141 L550,1078.9141 L540,1068.9141 L272,1068.9141 " fill="#FEFFDD" style="stroke:#181818;stroke-width:0.5;"/>
    <path d="M540,1068.9141 L540,1078.9141 L550,1078.9141 L540,1068.9141 " fill="#FEFFDD" style="stroke:#181818;stroke-width:0.5;"/>
    <text fill="#000000" font-family="sans-serif" font-size="13" lengthAdjust="spacing" textLength="228.7886" x="292.4373" y="1085.981">Payee DFSP returns error to Switch</text>
    <polygon fill="#181818" points="323.1074,1116.1797,313.1074,1120.1797,323.1074,1120.1797" style="stroke:#181818;stroke-width:1.0;"/>
    <line style="stroke:#181818;stroke-width:1.0;" x1="312.1074" x2="511.3994" y1="1120.1797" y2="1120.1797"/>
    <text fill="#000000" font-family="sans-serif" font-size="13" font-weight="bold" lengthAdjust="spacing" textLength="18.0908" x="329.1074" y="1115.1138">16</text>
    <text fill="#000000" font-family="sans-serif" font-size="13" lengthAdjust="spacing" textLength="144.8726" x="351.1982" y="1115.1138">PUT quotes/{ID}/error</text>
    <polygon fill="#181818" points="500.3994,1149.3125,510.3994,1149.3125,500.3994,1153.3125" style="stroke:#181818;stroke-width:1.0;"/>
    <line style="stroke:#181818;stroke-width:1.0;stroke-dasharray:2.0,2.0;" x1="312.1074" x2="511.3994" y1="1149.3125" y2="1149.3125"/>
    <text fill="#000000" font-family="sans-serif" font-size="13" font-weight="bold" lengthAdjust="spacing" textLength="18.0908" x="319.1074" y="1144.2466">17</text>
    <text fill="#000000" font-family="sans-serif" font-size="13" lengthAdjust="spacing" textLength="47.7026" x="341.1982" y="1144.2466">200 OK</text>
    <line style="stroke:#181818;stroke-width:1.0;" x1="312.1074" x2="354.1074" y1="1178.4453" y2="1178.4453"/>
    <line style="stroke:#181818;stroke-width:1.0;" x1="354.1074" x2="354.1074" y1="1178.4453" y2="1191.4453"/>
    <line style="stroke:#181818;stroke-width:1.0;" x1="313.1074" x2="354.1074" y1="1191.4453" y2="1191.4453"/>
    <polygon fill="#181818" points="323.1074,1187.4453,313.1074,1191.4453,323.1074,1195.4453,319.1074,1191.4453" style="stroke:#181818;stroke-width:1.0;"/>
    <text fill="#000000" font-family="sans-serif" font-size="13" font-weight="bold" lengthAdjust="spacing" textLength="18.0908" x="319.1074" y="1173.3794">18</text>
    <text fill="#000000" font-family="sans-serif" font-size="13" lengthAdjust="spacing" textLength="112.9692" x="341.1982" y="1173.3794">Persist error data</text>
    <path d="M82,1204.4453 L82,1229.4453 L349,1229.4453 L349,1214.4453 L339,1204.4453 L82,1204.4453 " fill="#FEFFDD" style="stroke:#181818;stroke-width:0.5;"/>
    <path d="M339,1204.4453 L339,1214.4453 L349,1214.4453 L339,1204.4453 " fill="#FEFFDD" style="stroke:#181818;stroke-width:0.5;"/>
    <text fill="#000000" font-family="sans-serif" font-size="13" lengthAdjust="spacing" textLength="226.1353" x="98.3853" y="1221.5122">Switch returns error to Payer DFSP</text>
    <polygon fill="#181818" points="132.144,1251.7109,122.144,1255.7109,132.144,1255.7109" style="stroke:#181818;stroke-width:1.0;"/>
    <line style="stroke:#181818;stroke-width:1.0;" x1="121.144" x2="311.1074" y1="1255.7109" y2="1255.7109"/>
    <text fill="#000000" font-family="sans-serif" font-size="13" font-weight="bold" lengthAdjust="spacing" textLength="18.0908" x="138.144" y="1250.645">19</text>
    <text fill="#000000" font-family="sans-serif" font-size="13" lengthAdjust="spacing" textLength="144.8726" x="160.2349" y="1250.645">PUT quotes/{ID}/error</text>
    <polygon fill="#181818" points="300.1074,1284.8438,310.1074,1284.8438,300.1074,1288.8438" style="stroke:#181818;stroke-width:1.0;"/>
    <line style="stroke:#181818;stroke-width:1.0;stroke-dasharray:2.0,2.0;" x1="121.144" x2="311.1074" y1="1284.8438" y2="1284.8438"/>
    <text fill="#000000" font-family="sans-serif" font-size="13" font-weight="bold" lengthAdjust="spacing" textLength="18.0908" x="128.144" y="1279.7778">20</text>
    <text fill="#000000" font-family="sans-serif" font-size="13" lengthAdjust="spacing" textLength="47.7026" x="150.2349" y="1279.7778">200 OK</text>
    <line style="stroke:#000000;stroke-width:1.0;stroke-dasharray:2.0,2.0;" x1="9" x2="697.5693" y1="1300.8438" y2="1300.8438"/>
    <text fill="#000000" font-family="sans-serif" font-size="11" font-weight="bold" lengthAdjust="spacing" textLength="91.4751" x="14" y="1311.0542">[quote invalid]</text>
    <path d="M82,1319.6484 L82,1344.6484 L349,1344.6484 L349,1329.6484 L339,1319.6484 L82,1319.6484 " fill="#FEFFDD" style="stroke:#181818;stroke-width:0.5;"/>
    <path d="M339,1319.6484 L339,1329.6484 L349,1329.6484 L339,1319.6484 " fill="#FEFFDD" style="stroke:#181818;stroke-width:0.5;"/>
    <text fill="#000000" font-family="sans-serif" font-size="13" lengthAdjust="spacing" textLength="226.1353" x="98.3853" y="1336.7153">Switch returns error to Payer DFSP</text>
    <polygon fill="#181818" points="132.144,1366.9141,122.144,1370.9141,132.144,1370.9141" style="stroke:#181818;stroke-width:1.0;"/>
    <line style="stroke:#181818;stroke-width:1.0;" x1="121.144" x2="311.1074" y1="1370.9141" y2="1370.9141"/>
    <text fill="#000000" font-family="sans-serif" font-size="13" font-weight="bold" lengthAdjust="spacing" textLength="18.0908" x="138.144" y="1365.8481">21</text>
    <text fill="#000000" font-family="sans-serif" font-size="13" lengthAdjust="spacing" textLength="144.8726" x="160.2349" y="1365.8481">PUT quotes/{ID}/error</text>
    <polygon fill="#181818" points="300.1074,1400.0469,310.1074,1400.0469,300.1074,1404.0469" style="stroke:#181818;stroke-width:1.0;"/>
    <line style="stroke:#181818;stroke-width:1.0;stroke-dasharray:2.0,2.0;" x1="121.144" x2="311.1074" y1="1400.0469" y2="1400.0469"/>
    <text fill="#000000" font-family="sans-serif" font-size="13" font-weight="bold" lengthAdjust="spacing" textLength="18.0908" x="128.144" y="1394.981">22</text>
    <text fill="#000000" font-family="sans-serif" font-size="13" lengthAdjust="spacing" textLength="47.7026" x="150.2349" y="1394.981">200 OK</text>
  </g>
</svg>
