<?xml version="1.0" encoding="UTF-8" standalone="no"?>
<svg xmlns="http://www.w3.org/2000/svg" xmlns:xlink="http://www.w3.org/1999/xlink" contentScriptType="application/ecmascript" contentStyleType="text/css" height="2137px" preserveAspectRatio="none" style="width:1306px;height:2137px" version="1.1" viewBox="0 0 1306 2137" width="1306px" zoomAndPan="magnify">
  <defs>
    <filter height="300%" id="f1mkwv9iprmpo4" width="300%" x="-1" y="-1">
      <feGaussianBlur result="blurOut" stdDeviation="2.0"/>
      <feColorMatrix in="blurOut" result="blurOut2" type="matrix" values="0 0 0 0 0 0 0 0 0 0 0 0 0 0 0 0 0 0 .4 0"/>
      <feOffset dx="4.0" dy="4.0" in="blurOut2" result="blurOut3"/>
      <feBlend in="SourceGraphic" in2="blurOut3" mode="normal"/>
    </filter>
  </defs>
  <g>
    <text fill="#000000" font-family="sans-serif" font-size="18" lengthAdjust="spacingAndGlyphs" textLength="246" x="528" y="28.708">Retrieve Quote Information</text>
    <rect fill="#FFFFFF" filter="url(#f1mkwv9iprmpo4)" height="122.7969" style="stroke:#A80036;stroke-width:1.0" width="10" x="984" y="877.2969"/>
    <rect fill="#FFFFFF" filter="url(#f1mkwv9iprmpo4)" height="1638.0625" style="stroke:#000000;stroke-width:2.0" width="1282" x="10" y="406.1719"/>
    <rect fill="#FFFFFF" filter="url(#f1mkwv9iprmpo4)" height="1324.9297" style="stroke:#000000;stroke-width:2.0" width="1147" x="20" y="584.9688"/>
    <rect fill="#FFFFFF" filter="url(#f1mkwv9iprmpo4)" height="841.1328" style="stroke:#000000;stroke-width:2.0" width="1127" x="30" y="748.6328"/>
    <rect fill="#FFFFFF" filter="url(#f1mkwv9iprmpo4)" height="242.3281" style="stroke:#000000;stroke-width:2.0" width="811" x="309" y="772.7656"/>
    <rect fill="#FFFFFF" filter="url(#f1mkwv9iprmpo4)" height="169.0625" style="stroke:#000000;stroke-width:2.0" width="791" x="319" y="839.0313"/>
    <rect fill="#FFFFFF" filter="url(#f1mkwv9iprmpo4)" height="116.2031" style="stroke:#000000;stroke-width:2.0" width="364" x="319" y="1029.0938"/>
    <rect fill="#FFFFFF" height="56.9375" style="stroke:none;stroke-width:1.0" width="364" x="319" y="1088.3594"/>
    <rect fill="#FFFFFF" filter="url(#f1mkwv9iprmpo4)" height="241.8672" style="stroke:#000000;stroke-width:2.0" width="1107" x="40" y="1159.2969"/>
    <rect fill="#FFFFFF" height="112.2031" style="stroke:none;stroke-width:1.0" width="1107" x="40" y="1288.9609"/>
    <rect fill="#FFFFFF" height="181.6016" style="stroke:none;stroke-width:1.0" width="1127" x="30" y="1408.1641"/>
    <rect fill="#FFFFFF" height="313.1328" style="stroke:none;stroke-width:1.0" width="1147" x="20" y="1596.7656"/>
    <rect fill="#FFFFFF" filter="url(#f1mkwv9iprmpo4)" height="59.2656" style="stroke:#000000;stroke-width:2.0" width="279" x="319" y="1731.1016"/>
    <rect fill="#FFFFFF" height="127.3359" style="stroke:none;stroke-width:1.0" width="1282" x="10" y="1916.8984"/>
    <line style="stroke:#A80036;stroke-width:1.0;stroke-dasharray:5.0,5.0" x1="181" x2="181" y1="107.8438" y2="2061.2344"/>
    <line style="stroke:#A80036;stroke-width:1.0;stroke-dasharray:5.0,5.0" x1="368" x2="368" y1="107.8438" y2="2061.2344"/>
    <line style="stroke:#A80036;stroke-width:1.0;stroke-dasharray:5.0,5.0" x1="989" x2="989" y1="107.8438" y2="2061.2344"/>
    <line style="stroke:#A80036;stroke-width:1.0;stroke-dasharray:5.0,5.0" x1="1092" x2="1092" y1="107.8438" y2="2061.2344"/>
    <rect fill="#FEFECE" filter="url(#f1mkwv9iprmpo4)" height="30.2969" style="stroke:#A80036;stroke-width:1.5" width="82" x="138" y="72.5469"/>
    <text fill="#000000" font-family="sans-serif" font-size="14" lengthAdjust="spacingAndGlyphs" textLength="68" x="145" y="92.542">Payer FSP</text>
    <rect fill="#FEFECE" filter="url(#f1mkwv9iprmpo4)" height="30.2969" style="stroke:#A80036;stroke-width:1.5" width="82" x="138" y="2060.2344"/>
    <text fill="#000000" font-family="sans-serif" font-size="14" lengthAdjust="spacingAndGlyphs" textLength="68" x="145" y="2080.2295">Payer FSP</text>
    <rect fill="#FEFECE" filter="url(#f1mkwv9iprmpo4)" height="62.8906" style="stroke:#A80036;stroke-width:1.5" width="74" x="329" y="39.9531"/>
    <text fill="#000000" font-family="sans-serif" font-size="14" lengthAdjust="spacingAndGlyphs" textLength="45" x="343.5" y="59.9482">Switch</text>
    <text fill="#000000" font-family="sans-serif" font-size="14" lengthAdjust="spacingAndGlyphs" textLength="60" x="336" y="76.2451">[Quoting</text>
    <text fill="#000000" font-family="sans-serif" font-size="14" lengthAdjust="spacingAndGlyphs" textLength="55" x="338.5" y="92.542">Service]</text>
    <rect fill="#FEFECE" filter="url(#f1mkwv9iprmpo4)" height="62.8906" style="stroke:#A80036;stroke-width:1.5" width="74" x="329" y="2060.2344"/>
    <text fill="#000000" font-family="sans-serif" font-size="14" lengthAdjust="spacingAndGlyphs" textLength="45" x="343.5" y="2080.2295">Switch</text>
    <text fill="#000000" font-family="sans-serif" font-size="14" lengthAdjust="spacingAndGlyphs" textLength="60" x="336" y="2096.5264">[Quoting</text>
    <text fill="#000000" font-family="sans-serif" font-size="14" lengthAdjust="spacingAndGlyphs" textLength="55" x="338.5" y="2112.8232">Service]</text>
    <text fill="#000000" font-family="sans-serif" font-size="14" lengthAdjust="spacingAndGlyphs" textLength="90" x="941" y="104.542">Central Store</text>
    <path d="M971,55.5469 C971,45.5469 989,45.5469 989,45.5469 C989,45.5469 1007,45.5469 1007,55.5469 L1007,81.5469 C1007,91.5469 989,91.5469 989,91.5469 C989,91.5469 971,91.5469 971,81.5469 L971,55.5469 " fill="#FEFECE" filter="url(#f1mkwv9iprmpo4)" style="stroke:#000000;stroke-width:1.5"/>
    <path d="M971,55.5469 C971,65.5469 989,65.5469 989,65.5469 C989,65.5469 1007,65.5469 1007,55.5469 " fill="none" style="stroke:#000000;stroke-width:1.5"/>
    <text fill="#000000" font-family="sans-serif" font-size="14" lengthAdjust="spacingAndGlyphs" textLength="90" x="941" y="2073.2295">Central Store</text>
    <path d="M971,2086.5313 C971,2076.5313 989,2076.5313 989,2076.5313 C989,2076.5313 1007,2076.5313 1007,2086.5313 L1007,2112.5313 C1007,2122.5313 989,2122.5313 989,2122.5313 C989,2122.5313 971,2122.5313 971,2112.5313 L971,2086.5313 " fill="#FEFECE" filter="url(#f1mkwv9iprmpo4)" style="stroke:#000000;stroke-width:1.5"/>
    <path d="M971,2086.5313 C971,2096.5313 989,2096.5313 989,2096.5313 C989,2096.5313 1007,2096.5313 1007,2086.5313 " fill="none" style="stroke:#000000;stroke-width:1.5"/>
    <rect fill="#FEFECE" filter="url(#f1mkwv9iprmpo4)" height="30.2969" style="stroke:#A80036;stroke-width:1.5" width="86" x="1047" y="72.5469"/>
    <text fill="#000000" font-family="sans-serif" font-size="14" lengthAdjust="spacingAndGlyphs" textLength="72" x="1054" y="92.542">Payee FSP</text>
    <rect fill="#FEFECE" filter="url(#f1mkwv9iprmpo4)" height="30.2969" style="stroke:#A80036;stroke-width:1.5" width="86" x="1047" y="2060.2344"/>
    <text fill="#000000" font-family="sans-serif" font-size="14" lengthAdjust="spacingAndGlyphs" textLength="72" x="1054" y="2080.2295">Payee FSP</text>
    <rect fill="#FFFFFF" filter="url(#f1mkwv9iprmpo4)" height="122.7969" style="stroke:#A80036;stroke-width:1.0" width="10" x="984" y="877.2969"/>
    <path d="M186,122.8438 L186,162.8438 L499,162.8438 L499,132.8438 L489,122.8438 L186,122.8438 " fill="#FBFB77" filter="url(#f1mkwv9iprmpo4)" style="stroke:#A80036;stroke-width:1.0"/>
    <path d="M489,122.8438 L489,132.8438 L499,132.8438 L489,122.8438 " fill="#FBFB77" style="stroke:#A80036;stroke-width:1.0"/>
    <text fill="#000000" font-family="sans-serif" font-size="13" lengthAdjust="spacingAndGlyphs" textLength="288" x="192" y="139.9106">Payer FSP sends request to get quote details</text>
    <text fill="#000000" font-family="sans-serif" font-size="13" lengthAdjust="spacingAndGlyphs" textLength="176" x="192" y="155.0435">to Payee FSP via the Switch</text>
    <polygon fill="#A80036" points="356,189.2422,366,193.2422,356,193.2422" style="stroke:#A80036;stroke-width:1.0"/>
    <line style="stroke:#A80036;stroke-width:1.0" x1="181" x2="367" y1="193.2422" y2="193.2422"/>
    <text fill="#000000" font-family="sans-serif" font-size="13" font-weight="bold" lengthAdjust="spacingAndGlyphs" textLength="9" x="188" y="188.1763">1</text>
    <text fill="#000000" font-family="sans-serif" font-size="13" lengthAdjust="spacingAndGlyphs" textLength="110" x="201" y="188.1763">GET /quotes/{ID}</text>
    <path d="M373,206.2422 L373,276.2422 L621,276.2422 L621,216.2422 L611,206.2422 L373,206.2422 " fill="#AAAAAA" filter="url(#f1mkwv9iprmpo4)" style="stroke:#A80036;stroke-width:1.0"/>
    <path d="M611,206.2422 L611,216.2422 L621,216.2422 L611,206.2422 " fill="#AAAAAA" style="stroke:#A80036;stroke-width:1.0"/>
    <text fill="#000000" font-family="sans-serif" font-size="13" lengthAdjust="spacingAndGlyphs" textLength="156" x="379" y="223.3091">Validate request against</text>
    <text fill="#000000" font-family="sans-serif" font-size="13" lengthAdjust="spacingAndGlyphs" textLength="200" x="379" y="238.4419">Mojaloop interface specification</text>
    <text fill="#FF0000" font-family="sans-serif" font-size="13" font-weight="bold" lengthAdjust="spacingAndGlyphs" textLength="167" x="379" y="253.5747">Error code: 300x, 310x</text>
    <text fill="#FF0000" font-family="sans-serif" font-size="13" font-weight="bold" lengthAdjust="spacingAndGlyphs" textLength="227" x="379" y="268.7075">HTTP error response code: 4xx</text>
    <line style="stroke:#A80036;stroke-width:1.0" x1="368" x2="410" y1="306.9063" y2="306.9063"/>
    <line style="stroke:#A80036;stroke-width:1.0" x1="410" x2="410" y1="306.9063" y2="319.9063"/>
    <line style="stroke:#A80036;stroke-width:1.0" x1="369" x2="410" y1="319.9063" y2="319.9063"/>
    <polygon fill="#A80036" points="379,315.9063,369,319.9063,379,323.9063,375,319.9063" style="stroke:#A80036;stroke-width:1.0"/>
    <text fill="#000000" font-family="sans-serif" font-size="13" font-weight="bold" lengthAdjust="spacingAndGlyphs" textLength="9" x="375" y="301.8403">2</text>
    <text fill="#000000" font-family="sans-serif" font-size="13" lengthAdjust="spacingAndGlyphs" textLength="118" x="388" y="301.8403">Schema validation</text>
    <polygon fill="#A80036" points="192,350.0391,182,350.0391,192,354.0391" style="stroke:#A80036;stroke-width:1.0"/>
    <line style="stroke:#A80036;stroke-width:1.0;stroke-dasharray:2.0,2.0" x1="181" x2="367" y1="349.0391" y2="349.0391"/>
    <text fill="#000000" font-family="sans-serif" font-size="13" font-weight="bold" lengthAdjust="spacingAndGlyphs" textLength="9" x="198" y="343.9731">3</text>
    <text fill="#000000" font-family="sans-serif" font-size="13" lengthAdjust="spacingAndGlyphs" textLength="88" x="211" y="343.9731">202 Accepted</text>
    <line style="stroke:#A80036;stroke-width:1.0" x1="368" x2="410" y1="378.1719" y2="378.1719"/>
    <line style="stroke:#A80036;stroke-width:1.0" x1="410" x2="410" y1="378.1719" y2="391.1719"/>
    <line style="stroke:#A80036;stroke-width:1.0" x1="369" x2="410" y1="391.1719" y2="391.1719"/>
    <polygon fill="#A80036" points="379,387.1719,369,391.1719,379,395.1719,375,391.1719" style="stroke:#A80036;stroke-width:1.0"/>
    <text fill="#000000" font-family="sans-serif" font-size="13" font-weight="bold" lengthAdjust="spacingAndGlyphs" textLength="9" x="375" y="373.106">4</text>
    <text fill="#000000" font-family="sans-serif" font-size="13" lengthAdjust="spacingAndGlyphs" textLength="252" x="388" y="373.106">Retrieve quotes endpoint for Payee FSP</text>
    <path d="M10,406.1719 L74,406.1719 L74,413.1719 L64,423.1719 L10,423.1719 L10,406.1719 " fill="#EEEEEE" style="stroke:#000000;stroke-width:1.0"/>
    <rect fill="none" height="1638.0625" style="stroke:#000000;stroke-width:2.0" width="1282" x="10" y="406.1719"/>
    <text fill="#000000" font-family="sans-serif" font-size="13" font-weight="bold" lengthAdjust="spacingAndGlyphs" textLength="19" x="25" y="419.2388">alt</text>
    <text fill="#000000" font-family="sans-serif" font-size="11" font-weight="bold" lengthAdjust="spacingAndGlyphs" textLength="242" x="89" y="418.3823">[Payee FSP quotes endpoint is found]</text>
    <path d="M373,428.3047 L373,468.3047 L774,468.3047 L774,438.3047 L764,428.3047 L373,428.3047 " fill="#FBFB77" filter="url(#f1mkwv9iprmpo4)" style="stroke:#A80036;stroke-width:1.0"/>
    <path d="M764,428.3047 L764,438.3047 L774,438.3047 L764,428.3047 " fill="#FBFB77" style="stroke:#A80036;stroke-width:1.0"/>
    <text fill="#000000" font-family="sans-serif" font-size="13" lengthAdjust="spacingAndGlyphs" textLength="380" x="379" y="445.3716">Switch forwards request to Payee FSP (pass-through mode)</text>
    <text fill="#000000" font-family="sans-serif" font-size="13" lengthAdjust="spacingAndGlyphs" textLength="139" x="379" y="460.5044">&lt;Payer based Rules&gt;</text>
    <polygon fill="#A80036" points="1080,494.7031,1090,498.7031,1080,498.7031" style="stroke:#A80036;stroke-width:1.0"/>
    <line style="stroke:#A80036;stroke-width:1.0" x1="368" x2="1091" y1="498.7031" y2="498.7031"/>
    <text fill="#000000" font-family="sans-serif" font-size="13" font-weight="bold" lengthAdjust="spacingAndGlyphs" textLength="9" x="375" y="493.6372">5</text>
    <text fill="#000000" font-family="sans-serif" font-size="13" lengthAdjust="spacingAndGlyphs" textLength="110" x="388" y="493.6372">GET /quotes/{ID}</text>
    <polygon fill="#A80036" points="379,528.8359,369,528.8359,379,532.8359" style="stroke:#A80036;stroke-width:1.0"/>
    <line style="stroke:#A80036;stroke-width:1.0;stroke-dasharray:2.0,2.0" x1="368" x2="1091" y1="527.8359" y2="527.8359"/>
    <text fill="#000000" font-family="sans-serif" font-size="13" font-weight="bold" lengthAdjust="spacingAndGlyphs" textLength="9" x="385" y="522.77">6</text>
    <text fill="#000000" font-family="sans-serif" font-size="13" lengthAdjust="spacingAndGlyphs" textLength="88" x="398" y="522.77">202 Accepted</text>
    <line style="stroke:#A80036;stroke-width:1.0" x1="1092" x2="1134" y1="556.9688" y2="556.9688"/>
    <line style="stroke:#A80036;stroke-width:1.0" x1="1134" x2="1134" y1="556.9688" y2="569.9688"/>
    <line style="stroke:#A80036;stroke-width:1.0" x1="1093" x2="1134" y1="569.9688" y2="569.9688"/>
    <polygon fill="#A80036" points="1103,565.9688,1093,569.9688,1103,573.9688,1099,569.9688" style="stroke:#A80036;stroke-width:1.0"/>
    <text fill="#000000" font-family="sans-serif" font-size="13" font-weight="bold" lengthAdjust="spacingAndGlyphs" textLength="9" x="1099" y="551.9028">7</text>
    <text fill="#000000" font-family="sans-serif" font-size="13" lengthAdjust="spacingAndGlyphs" textLength="168" x="1112" y="551.9028">Payee FSP retireves quote</text>
    <path d="M20,584.9688 L84,584.9688 L84,591.9688 L74,601.9688 L20,601.9688 L20,584.9688 " fill="#EEEEEE" style="stroke:#000000;stroke-width:1.0"/>
    <rect fill="none" height="1324.9297" style="stroke:#000000;stroke-width:2.0" width="1147" x="20" y="584.9688"/>
    <text fill="#000000" font-family="sans-serif" font-size="13" font-weight="bold" lengthAdjust="spacingAndGlyphs" textLength="19" x="35" y="598.0356">alt</text>
    <text fill="#000000" font-family="sans-serif" font-size="11" font-weight="bold" lengthAdjust="spacingAndGlyphs" textLength="257" x="99" y="597.1792">[Payee FSP successfully retieves quote]</text>
    <path d="M821,607.1016 L821,632.1016 L1083,632.1016 L1083,617.1016 L1073,607.1016 L821,607.1016 " fill="#FBFB77" filter="url(#f1mkwv9iprmpo4)" style="stroke:#A80036;stroke-width:1.0"/>
    <path d="M1073,607.1016 L1073,617.1016 L1083,617.1016 L1073,607.1016 " fill="#FBFB77" style="stroke:#A80036;stroke-width:1.0"/>
    <text fill="#000000" font-family="sans-serif" font-size="13" lengthAdjust="spacingAndGlyphs" textLength="241" x="827" y="624.1685">Payee FSP responds to quote request</text>
    <polygon fill="#A80036" points="379,658.3672,369,662.3672,379,662.3672" style="stroke:#A80036;stroke-width:1.0"/>
    <line style="stroke:#A80036;stroke-width:1.0" x1="368" x2="1091" y1="662.3672" y2="662.3672"/>
    <text fill="#000000" font-family="sans-serif" font-size="13" font-weight="bold" lengthAdjust="spacingAndGlyphs" textLength="9" x="385" y="657.3013">8</text>
    <text fill="#000000" font-family="sans-serif" font-size="13" lengthAdjust="spacingAndGlyphs" textLength="110" x="398" y="657.3013">PUT /quotes/{ID}</text>
    <polygon fill="#A80036" points="1080,692.5,1090,692.5,1080,696.5" style="stroke:#A80036;stroke-width:1.0"/>
    <line style="stroke:#A80036;stroke-width:1.0;stroke-dasharray:2.0,2.0" x1="368" x2="1091" y1="691.5" y2="691.5"/>
    <text fill="#000000" font-family="sans-serif" font-size="13" font-weight="bold" lengthAdjust="spacingAndGlyphs" textLength="9" x="375" y="686.4341">9</text>
    <text fill="#000000" font-family="sans-serif" font-size="13" lengthAdjust="spacingAndGlyphs" textLength="45" x="388" y="686.4341">200 Ok</text>
    <line style="stroke:#A80036;stroke-width:1.0" x1="368" x2="410" y1="720.6328" y2="720.6328"/>
    <line style="stroke:#A80036;stroke-width:1.0" x1="410" x2="410" y1="720.6328" y2="733.6328"/>
    <line style="stroke:#A80036;stroke-width:1.0" x1="369" x2="410" y1="733.6328" y2="733.6328"/>
    <polygon fill="#A80036" points="379,729.6328,369,733.6328,379,737.6328,375,733.6328" style="stroke:#A80036;stroke-width:1.0"/>
    <text fill="#000000" font-family="sans-serif" font-size="13" font-weight="bold" lengthAdjust="spacingAndGlyphs" textLength="18" x="375" y="715.5669">10</text>
    <text fill="#000000" font-family="sans-serif" font-size="13" lengthAdjust="spacingAndGlyphs" textLength="244" x="397" y="715.5669">Validate response (schema, headers (</text>
    <text fill="#FF0000" font-family="sans-serif" font-size="13" font-weight="bold" lengthAdjust="spacingAndGlyphs" textLength="123" x="641" y="715.5669">Error code: 3100</text>
    <text fill="#000000" font-family="sans-serif" font-size="13" lengthAdjust="spacingAndGlyphs" textLength="10" x="764" y="715.5669">))</text>
    <path d="M30,748.6328 L94,748.6328 L94,755.6328 L84,765.6328 L30,765.6328 L30,748.6328 " fill="#EEEEEE" style="stroke:#000000;stroke-width:1.0"/>
    <rect fill="none" height="841.1328" style="stroke:#000000;stroke-width:2.0" width="1127" x="30" y="748.6328"/>
    <text fill="#000000" font-family="sans-serif" font-size="13" font-weight="bold" lengthAdjust="spacingAndGlyphs" textLength="19" x="45" y="761.6997">alt</text>
    <text fill="#000000" font-family="sans-serif" font-size="11" font-weight="bold" lengthAdjust="spacingAndGlyphs" textLength="106" x="109" y="760.8433">[Response is ok]</text>
    <path d="M309,772.7656 L373,772.7656 L373,779.7656 L363,789.7656 L309,789.7656 L309,772.7656 " fill="#EEEEEE" style="stroke:#000000;stroke-width:1.0"/>
    <rect fill="none" height="242.3281" style="stroke:#000000;stroke-width:2.0" width="811" x="309" y="772.7656"/>
    <text fill="#000000" font-family="sans-serif" font-size="13" font-weight="bold" lengthAdjust="spacingAndGlyphs" textLength="19" x="324" y="785.8325">alt</text>
    <text fill="#000000" font-family="sans-serif" font-size="11" font-weight="bold" lengthAdjust="spacingAndGlyphs" textLength="195" x="388" y="784.9761">[SimpleRoutingMode is FALSE]</text>
    <line style="stroke:#A80036;stroke-width:1.0" x1="368" x2="410" y1="811.0313" y2="811.0313"/>
    <line style="stroke:#A80036;stroke-width:1.0" x1="410" x2="410" y1="811.0313" y2="824.0313"/>
    <line style="stroke:#A80036;stroke-width:1.0" x1="369" x2="410" y1="824.0313" y2="824.0313"/>
    <polygon fill="#A80036" points="379,820.0313,369,824.0313,379,828.0313,375,824.0313" style="stroke:#A80036;stroke-width:1.0"/>
    <text fill="#000000" font-family="sans-serif" font-size="13" font-weight="bold" lengthAdjust="spacingAndGlyphs" textLength="18" x="375" y="805.9653">11</text>
    <text fill="#000000" font-family="sans-serif" font-size="13" lengthAdjust="spacingAndGlyphs" textLength="452" x="397" y="805.9653">Validate response (duplicate response check, handle resend scenario (</text>
    <text fill="#FF0000" font-family="sans-serif" font-size="13" font-weight="bold" lengthAdjust="spacingAndGlyphs" textLength="123" x="849" y="805.9653">Error code: 3106</text>
    <text fill="#000000" font-family="sans-serif" font-size="13" lengthAdjust="spacingAndGlyphs" textLength="10" x="972" y="805.9653">))</text>
    <path d="M319,839.0313 L383,839.0313 L383,846.0313 L373,856.0313 L319,856.0313 L319,839.0313 " fill="#EEEEEE" style="stroke:#000000;stroke-width:1.0"/>
    <rect fill="none" height="169.0625" style="stroke:#000000;stroke-width:2.0" width="791" x="319" y="839.0313"/>
    <text fill="#000000" font-family="sans-serif" font-size="13" font-weight="bold" lengthAdjust="spacingAndGlyphs" textLength="19" x="334" y="852.0981">alt</text>
    <text fill="#000000" font-family="sans-serif" font-size="11" font-weight="bold" lengthAdjust="spacingAndGlyphs" textLength="125" x="398" y="851.2417">[Validation passed]</text>
    <polygon fill="#A80036" points="972,873.2969,982,877.2969,972,877.2969" style="stroke:#A80036;stroke-width:1.0"/>
    <line style="stroke:#A80036;stroke-width:1.0" x1="368" x2="983" y1="877.2969" y2="877.2969"/>
    <text fill="#000000" font-family="sans-serif" font-size="13" font-weight="bold" lengthAdjust="spacingAndGlyphs" textLength="18" x="375" y="872.231">12</text>
    <text fill="#000000" font-family="sans-serif" font-size="13" lengthAdjust="spacingAndGlyphs" textLength="147" x="397" y="872.231">Persist quote response</text>
    <polygon fill="#FBFB77" filter="url(#f1mkwv9iprmpo4)" points="888,890.2969,1090,890.2969,1100,931.2969,1090,973.2969,888,973.2969,878,931.2969,888,890.2969" style="stroke:#A80036;stroke-width:1.0"/>
    <text fill="#000000" font-family="sans-serif" font-size="13" lengthAdjust="spacingAndGlyphs" textLength="99" x="890" y="906.3638">quoteResponse</text>
    <text fill="#000000" font-family="sans-serif" font-size="13" lengthAdjust="spacingAndGlyphs" textLength="198" x="890" y="921.4966">quoteResponseDuplicateCheck</text>
    <text fill="#000000" font-family="sans-serif" font-size="13" lengthAdjust="spacingAndGlyphs" textLength="156" x="890" y="936.6294">quoteResponseIlpPacket</text>
    <text fill="#000000" font-family="sans-serif" font-size="13" lengthAdjust="spacingAndGlyphs" textLength="106" x="890" y="951.7622">quoteExtensions</text>
    <text fill="#000000" font-family="sans-serif" font-size="13" lengthAdjust="spacingAndGlyphs" textLength="57" x="890" y="966.895">geoCode</text>
    <polygon fill="#A80036" points="379,1001.0938,369,1001.0938,379,1005.0938" style="stroke:#A80036;stroke-width:1.0"/>
    <line style="stroke:#A80036;stroke-width:1.0;stroke-dasharray:2.0,2.0" x1="368" x2="988" y1="1000.0938" y2="1000.0938"/>
    <text fill="#000000" font-family="sans-serif" font-size="13" font-weight="bold" lengthAdjust="spacingAndGlyphs" textLength="18" x="385" y="995.0278">13</text>
    <text fill="#000000" font-family="sans-serif" font-size="13" lengthAdjust="spacingAndGlyphs" textLength="144" x="407" y="995.0278">Quote response saved</text>
    <path d="M319,1029.0938 L383,1029.0938 L383,1036.0938 L373,1046.0938 L319,1046.0938 L319,1029.0938 " fill="#EEEEEE" style="stroke:#000000;stroke-width:1.0"/>
    <rect fill="none" height="116.2031" style="stroke:#000000;stroke-width:2.0" width="364" x="319" y="1029.0938"/>
    <text fill="#000000" font-family="sans-serif" font-size="13" font-weight="bold" lengthAdjust="spacingAndGlyphs" textLength="19" x="334" y="1042.1606">alt</text>
    <text fill="#000000" font-family="sans-serif" font-size="11" font-weight="bold" lengthAdjust="spacingAndGlyphs" textLength="189" x="398" y="1041.3042">[SimpleRoutingMode is TRUE]</text>
    <line style="stroke:#A80036;stroke-width:1.0" x1="368" x2="410" y1="1067.3594" y2="1067.3594"/>
    <line style="stroke:#A80036;stroke-width:1.0" x1="410" x2="410" y1="1067.3594" y2="1080.3594"/>
    <line style="stroke:#A80036;stroke-width:1.0" x1="369" x2="410" y1="1080.3594" y2="1080.3594"/>
    <polygon fill="#A80036" points="379,1076.3594,369,1080.3594,379,1084.3594,375,1080.3594" style="stroke:#A80036;stroke-width:1.0"/>
    <text fill="#000000" font-family="sans-serif" font-size="13" font-weight="bold" lengthAdjust="spacingAndGlyphs" textLength="18" x="375" y="1062.2935">14</text>
    <text fill="#000000" font-family="sans-serif" font-size="13" lengthAdjust="spacingAndGlyphs" textLength="274" x="397" y="1062.2935">Retrieve quotes endpoint for the Payer FSP</text>
    <line style="stroke:#000000;stroke-width:1.0;stroke-dasharray:2.0,2.0" x1="319" x2="683" y1="1089.3594" y2="1089.3594"/>
    <text fill="#000000" font-family="sans-serif" font-size="11" font-weight="bold" lengthAdjust="spacingAndGlyphs" textLength="195" x="324" y="1099.5698">[SimpleRoutingMode is FALSE]</text>
    <line style="stroke:#A80036;stroke-width:1.0" x1="368" x2="410" y1="1124.2969" y2="1124.2969"/>
    <line style="stroke:#A80036;stroke-width:1.0" x1="410" x2="410" y1="1124.2969" y2="1137.2969"/>
    <line style="stroke:#A80036;stroke-width:1.0" x1="369" x2="410" y1="1137.2969" y2="1137.2969"/>
    <polygon fill="#A80036" points="379,1133.2969,369,1137.2969,379,1141.2969,375,1137.2969" style="stroke:#A80036;stroke-width:1.0"/>
    <text fill="#000000" font-family="sans-serif" font-size="13" font-weight="bold" lengthAdjust="spacingAndGlyphs" textLength="18" x="375" y="1119.231">15</text>
    <text fill="#000000" font-family="sans-serif" font-size="13" lengthAdjust="spacingAndGlyphs" textLength="244" x="397" y="1119.231">Retrieve quote party endpoint (PAYER)</text>
    <path d="M40,1159.2969 L104,1159.2969 L104,1166.2969 L94,1176.2969 L40,1176.2969 L40,1159.2969 " fill="#EEEEEE" style="stroke:#000000;stroke-width:1.0"/>
    <rect fill="none" height="241.8672" style="stroke:#000000;stroke-width:2.0" width="1107" x="40" y="1159.2969"/>
    <text fill="#000000" font-family="sans-serif" font-size="13" font-weight="bold" lengthAdjust="spacingAndGlyphs" textLength="19" x="55" y="1172.3638">alt</text>
    <text fill="#000000" font-family="sans-serif" font-size="11" font-weight="bold" lengthAdjust="spacingAndGlyphs" textLength="215" x="119" y="1171.5073">[Quotes callback endpoint found]</text>
    <path d="M50,1181.4297 L50,1221.4297 L359,1221.4297 L359,1191.4297 L349,1181.4297 L50,1181.4297 " fill="#FBFB77" filter="url(#f1mkwv9iprmpo4)" style="stroke:#A80036;stroke-width:1.0"/>
    <path d="M349,1181.4297 L349,1191.4297 L359,1191.4297 L349,1181.4297 " fill="#FBFB77" style="stroke:#A80036;stroke-width:1.0"/>
    <text fill="#000000" font-family="sans-serif" font-size="13" lengthAdjust="spacingAndGlyphs" textLength="288" x="56" y="1198.4966">Switch forwards quote response to Payer FSP</text>
    <text fill="#000000" font-family="sans-serif" font-size="13" lengthAdjust="spacingAndGlyphs" textLength="185" x="56" y="1213.6294">&lt;Payee whole request Rule&gt;</text>
    <polygon fill="#A80036" points="192,1247.8281,182,1251.8281,192,1251.8281" style="stroke:#A80036;stroke-width:1.0"/>
    <line style="stroke:#A80036;stroke-width:1.0" x1="181" x2="367" y1="1251.8281" y2="1251.8281"/>
    <text fill="#000000" font-family="sans-serif" font-size="13" font-weight="bold" lengthAdjust="spacingAndGlyphs" textLength="18" x="198" y="1246.7622">16</text>
    <text fill="#000000" font-family="sans-serif" font-size="13" lengthAdjust="spacingAndGlyphs" textLength="110" x="220" y="1246.7622">PUT /quotes/{ID}</text>
    <polygon fill="#A80036" points="356,1281.9609,366,1281.9609,356,1285.9609" style="stroke:#A80036;stroke-width:1.0"/>
    <line style="stroke:#A80036;stroke-width:1.0;stroke-dasharray:2.0,2.0" x1="181" x2="367" y1="1280.9609" y2="1280.9609"/>
    <text fill="#000000" font-family="sans-serif" font-size="13" font-weight="bold" lengthAdjust="spacingAndGlyphs" textLength="18" x="188" y="1275.895">17</text>
    <text fill="#000000" font-family="sans-serif" font-size="13" lengthAdjust="spacingAndGlyphs" textLength="45" x="210" y="1275.895">200 Ok</text>
    <line style="stroke:#000000;stroke-width:1.0;stroke-dasharray:2.0,2.0" x1="40" x2="1147" y1="1289.9609" y2="1289.9609"/>
    <text fill="#000000" font-family="sans-serif" font-size="11" font-weight="bold" lengthAdjust="spacingAndGlyphs" textLength="240" x="45" y="1300.1714">[Quotes callback endpoint not found]</text>
    <path d="M373,1308.7656 L373,1333.7656 L608,1333.7656 L608,1318.7656 L598,1308.7656 L373,1308.7656 " fill="#FBFB77" filter="url(#f1mkwv9iprmpo4)" style="stroke:#A80036;stroke-width:1.0"/>
    <path d="M598,1308.7656 L598,1318.7656 L608,1318.7656 L598,1308.7656 " fill="#FBFB77" style="stroke:#A80036;stroke-width:1.0"/>
    <text fill="#000000" font-family="sans-serif" font-size="13" lengthAdjust="spacingAndGlyphs" textLength="214" x="379" y="1325.8325">Switch returns error to Payee FSP</text>
    <polygon fill="#A80036" points="1080,1360.0313,1090,1364.0313,1080,1364.0313" style="stroke:#A80036;stroke-width:1.0"/>
    <line style="stroke:#A80036;stroke-width:1.0" x1="368" x2="1091" y1="1364.0313" y2="1364.0313"/>
    <text fill="#000000" font-family="sans-serif" font-size="13" font-weight="bold" lengthAdjust="spacingAndGlyphs" textLength="18" x="375" y="1358.9653">18</text>
    <text fill="#000000" font-family="sans-serif" font-size="13" lengthAdjust="spacingAndGlyphs" textLength="145" x="397" y="1358.9653">PUT /quotes/{ID}/error</text>
    <polygon fill="#A80036" points="379,1394.1641,369,1394.1641,379,1398.1641" style="stroke:#A80036;stroke-width:1.0"/>
    <line style="stroke:#A80036;stroke-width:1.0;stroke-dasharray:2.0,2.0" x1="368" x2="1091" y1="1393.1641" y2="1393.1641"/>
    <text fill="#000000" font-family="sans-serif" font-size="13" font-weight="bold" lengthAdjust="spacingAndGlyphs" textLength="18" x="385" y="1388.0981">19</text>
    <text fill="#000000" font-family="sans-serif" font-size="13" lengthAdjust="spacingAndGlyphs" textLength="45" x="407" y="1388.0981">200 Ok</text>
    <line style="stroke:#000000;stroke-width:1.0;stroke-dasharray:2.0,2.0" x1="30" x2="1157" y1="1409.1641" y2="1409.1641"/>
    <text fill="#000000" font-family="sans-serif" font-size="11" font-weight="bold" lengthAdjust="spacingAndGlyphs" textLength="134" x="35" y="1419.3745">[Response is invalid]</text>
    <path d="M373,1427.9688 L373,1452.9688 L608,1452.9688 L608,1437.9688 L598,1427.9688 L373,1427.9688 " fill="#FBFB77" filter="url(#f1mkwv9iprmpo4)" style="stroke:#A80036;stroke-width:1.0"/>
    <path d="M598,1427.9688 L598,1437.9688 L608,1437.9688 L598,1427.9688 " fill="#FBFB77" style="stroke:#A80036;stroke-width:1.0"/>
    <text fill="#000000" font-family="sans-serif" font-size="13" lengthAdjust="spacingAndGlyphs" textLength="214" x="379" y="1445.0356">Switch returns error to Payee FSP</text>
    <polygon fill="#A80036" points="1080,1479.2344,1090,1483.2344,1080,1483.2344" style="stroke:#A80036;stroke-width:1.0"/>
    <line style="stroke:#A80036;stroke-width:1.0" x1="368" x2="1091" y1="1483.2344" y2="1483.2344"/>
    <text fill="#000000" font-family="sans-serif" font-size="13" font-weight="bold" lengthAdjust="spacingAndGlyphs" textLength="18" x="375" y="1478.1685">20</text>
    <text fill="#000000" font-family="sans-serif" font-size="13" lengthAdjust="spacingAndGlyphs" textLength="145" x="397" y="1478.1685">PUT /quotes/{ID}/error</text>
    <polygon fill="#A80036" points="379,1513.3672,369,1513.3672,379,1517.3672" style="stroke:#A80036;stroke-width:1.0"/>
    <line style="stroke:#A80036;stroke-width:1.0;stroke-dasharray:2.0,2.0" x1="368" x2="1091" y1="1512.3672" y2="1512.3672"/>
    <text fill="#000000" font-family="sans-serif" font-size="13" font-weight="bold" lengthAdjust="spacingAndGlyphs" textLength="18" x="385" y="1507.3013">21</text>
    <text fill="#000000" font-family="sans-serif" font-size="13" lengthAdjust="spacingAndGlyphs" textLength="45" x="407" y="1507.3013">200 Ok</text>
    <path d="M328,1525.3672 L328,1580.3672 L1131,1580.3672 L1131,1535.3672 L1121,1525.3672 L328,1525.3672 " fill="#EC7063" filter="url(#f1mkwv9iprmpo4)" style="stroke:#A80036;stroke-width:1.0"/>
    <path d="M1121,1525.3672 L1121,1535.3672 L1131,1535.3672 L1121,1525.3672 " fill="#EC7063" style="stroke:#A80036;stroke-width:1.0"/>
    <text fill="#000000" font-family="sans-serif" font-size="13" lengthAdjust="spacingAndGlyphs" textLength="129" x="634" y="1542.4341">Note that under this</text>
    <text fill="#000000" font-family="sans-serif" font-size="13" lengthAdjust="spacingAndGlyphs" textLength="147" x="634" y="1557.5669">scenario the Payer FSP</text>
    <text fill="#000000" font-family="sans-serif" font-size="13" lengthAdjust="spacingAndGlyphs" textLength="178" x="634" y="1572.6997">may not receive a response</text>
    <line style="stroke:#000000;stroke-width:1.0;stroke-dasharray:2.0,2.0" x1="20" x2="1167" y1="1597.7656" y2="1597.7656"/>
    <text fill="#000000" font-family="sans-serif" font-size="11" font-weight="bold" lengthAdjust="spacingAndGlyphs" textLength="115" x="25" y="1607.9761">[Quote not found]</text>
    <path d="M848,1616.5703 L848,1656.5703 L1083,1656.5703 L1083,1626.5703 L1073,1616.5703 L848,1616.5703 " fill="#FBFB77" filter="url(#f1mkwv9iprmpo4)" style="stroke:#A80036;stroke-width:1.0"/>
    <path d="M1073,1616.5703 L1073,1626.5703 L1083,1626.5703 L1073,1616.5703 " fill="#FBFB77" style="stroke:#A80036;stroke-width:1.0"/>
    <text fill="#000000" font-family="sans-serif" font-size="13" lengthAdjust="spacingAndGlyphs" textLength="214" x="854" y="1633.6372">Payee FSP returns error to Switch</text>
    <text fill="#000000" font-family="sans-serif" font-size="13" lengthAdjust="spacingAndGlyphs" textLength="0" x="858" y="1648.77"/>
    <text fill="#FF0000" font-family="sans-serif" font-size="13" font-weight="bold" lengthAdjust="spacingAndGlyphs" textLength="123" x="858" y="1648.77">Error code: 3205</text>
    <polygon fill="#A80036" points="379,1682.9688,369,1686.9688,379,1686.9688" style="stroke:#A80036;stroke-width:1.0"/>
    <line style="stroke:#A80036;stroke-width:1.0" x1="368" x2="1091" y1="1686.9688" y2="1686.9688"/>
    <text fill="#000000" font-family="sans-serif" font-size="13" font-weight="bold" lengthAdjust="spacingAndGlyphs" textLength="18" x="385" y="1681.9028">22</text>
    <text fill="#000000" font-family="sans-serif" font-size="13" lengthAdjust="spacingAndGlyphs" textLength="141" x="407" y="1681.9028">PUT quotes/{ID}/error</text>
    <polygon fill="#A80036" points="1080,1717.1016,1090,1717.1016,1080,1721.1016" style="stroke:#A80036;stroke-width:1.0"/>
    <line style="stroke:#A80036;stroke-width:1.0;stroke-dasharray:2.0,2.0" x1="368" x2="1091" y1="1716.1016" y2="1716.1016"/>
    <text fill="#000000" font-family="sans-serif" font-size="13" font-weight="bold" lengthAdjust="spacingAndGlyphs" textLength="18" x="375" y="1711.0356">23</text>
    <text fill="#000000" font-family="sans-serif" font-size="13" lengthAdjust="spacingAndGlyphs" textLength="46" x="397" y="1711.0356">200 OK</text>
    <path d="M319,1731.1016 L383,1731.1016 L383,1738.1016 L373,1748.1016 L319,1748.1016 L319,1731.1016 " fill="#EEEEEE" style="stroke:#000000;stroke-width:1.0"/>
    <rect fill="none" height="59.2656" style="stroke:#000000;stroke-width:2.0" width="279" x="319" y="1731.1016"/>
    <text fill="#000000" font-family="sans-serif" font-size="13" font-weight="bold" lengthAdjust="spacingAndGlyphs" textLength="19" x="334" y="1744.1685">alt</text>
    <text fill="#000000" font-family="sans-serif" font-size="11" font-weight="bold" lengthAdjust="spacingAndGlyphs" textLength="195" x="398" y="1743.312">[SimpleRoutingMode is FALSE]</text>
    <line style="stroke:#A80036;stroke-width:1.0" x1="368" x2="410" y1="1769.3672" y2="1769.3672"/>
    <line style="stroke:#A80036;stroke-width:1.0" x1="410" x2="410" y1="1769.3672" y2="1782.3672"/>
    <line style="stroke:#A80036;stroke-width:1.0" x1="369" x2="410" y1="1782.3672" y2="1782.3672"/>
    <polygon fill="#A80036" points="379,1778.3672,369,1782.3672,379,1786.3672,375,1782.3672" style="stroke:#A80036;stroke-width:1.0"/>
    <text fill="#000000" font-family="sans-serif" font-size="13" font-weight="bold" lengthAdjust="spacingAndGlyphs" textLength="18" x="375" y="1764.3013">24</text>
    <text fill="#000000" font-family="sans-serif" font-size="13" lengthAdjust="spacingAndGlyphs" textLength="111" x="397" y="1764.3013">Persist error data</text>
    <path d="M127,1802.3672 L127,1842.3672 L359,1842.3672 L359,1812.3672 L349,1802.3672 L127,1802.3672 " fill="#FBFB77" filter="url(#f1mkwv9iprmpo4)" style="stroke:#A80036;stroke-width:1.0"/>
    <path d="M349,1802.3672 L349,1812.3672 L359,1812.3672 L349,1802.3672 " fill="#FBFB77" style="stroke:#A80036;stroke-width:1.0"/>
    <text fill="#000000" font-family="sans-serif" font-size="13" lengthAdjust="spacingAndGlyphs" textLength="211" x="133" y="1819.4341">Switch returns error to Payer FSP</text>
    <text fill="#000000" font-family="sans-serif" font-size="13" lengthAdjust="spacingAndGlyphs" textLength="0" x="137" y="1834.5669"/>
    <text fill="#FF0000" font-family="sans-serif" font-size="13" font-weight="bold" lengthAdjust="spacingAndGlyphs" textLength="123" x="137" y="1834.5669">Error code: 3205</text>
    <polygon fill="#A80036" points="192,1868.7656,182,1872.7656,192,1872.7656" style="stroke:#A80036;stroke-width:1.0"/>
    <line style="stroke:#A80036;stroke-width:1.0" x1="181" x2="367" y1="1872.7656" y2="1872.7656"/>
    <text fill="#000000" font-family="sans-serif" font-size="13" font-weight="bold" lengthAdjust="spacingAndGlyphs" textLength="18" x="198" y="1867.6997">25</text>
    <text fill="#000000" font-family="sans-serif" font-size="13" lengthAdjust="spacingAndGlyphs" textLength="141" x="220" y="1867.6997">PUT quotes/{ID}/error</text>
    <polygon fill="#A80036" points="356,1902.8984,366,1902.8984,356,1906.8984" style="stroke:#A80036;stroke-width:1.0"/>
    <line style="stroke:#A80036;stroke-width:1.0;stroke-dasharray:2.0,2.0" x1="181" x2="367" y1="1901.8984" y2="1901.8984"/>
    <text fill="#000000" font-family="sans-serif" font-size="13" font-weight="bold" lengthAdjust="spacingAndGlyphs" textLength="18" x="188" y="1896.8325">26</text>
    <text fill="#000000" font-family="sans-serif" font-size="13" lengthAdjust="spacingAndGlyphs" textLength="46" x="210" y="1896.8325">200 OK</text>
    <line style="stroke:#000000;stroke-width:1.0;stroke-dasharray:2.0,2.0" x1="10" x2="1292" y1="1917.8984" y2="1917.8984"/>
    <text fill="#000000" font-family="sans-serif" font-size="11" font-weight="bold" lengthAdjust="spacingAndGlyphs" textLength="267" x="15" y="1928.1089">[Payee FSP quotes endpoint is not found]</text>
    <path d="M127,1936.7031 L127,1976.7031 L359,1976.7031 L359,1946.7031 L349,1936.7031 L127,1936.7031 " fill="#FBFB77" filter="url(#f1mkwv9iprmpo4)" style="stroke:#A80036;stroke-width:1.0"/>
    <path d="M349,1936.7031 L349,1946.7031 L359,1946.7031 L349,1936.7031 " fill="#FBFB77" style="stroke:#A80036;stroke-width:1.0"/>
    <text fill="#000000" font-family="sans-serif" font-size="13" lengthAdjust="spacingAndGlyphs" textLength="211" x="133" y="1953.77">Switch returns error to Payer FSP</text>
    <text fill="#FF0000" font-family="sans-serif" font-size="13" font-weight="bold" lengthAdjust="spacingAndGlyphs" textLength="123" x="133" y="1968.9028">Error code: 3201</text>
    <polygon fill="#A80036" points="192,2003.1016,182,2007.1016,192,2007.1016" style="stroke:#A80036;stroke-width:1.0"/>
    <line style="stroke:#A80036;stroke-width:1.0" x1="181" x2="367" y1="2007.1016" y2="2007.1016"/>
    <text fill="#000000" font-family="sans-serif" font-size="13" font-weight="bold" lengthAdjust="spacingAndGlyphs" textLength="18" x="198" y="2002.0356">27</text>
    <text fill="#000000" font-family="sans-serif" font-size="13" lengthAdjust="spacingAndGlyphs" textLength="137" x="220" y="2002.0356">PUT quotes/{ID}error</text>
    <polygon fill="#A80036" points="356,2037.2344,366,2037.2344,356,2041.2344" style="stroke:#A80036;stroke-width:1.0"/>
    <line style="stroke:#A80036;stroke-width:1.0;stroke-dasharray:2.0,2.0" x1="181" x2="367" y1="2036.2344" y2="2036.2344"/>
    <text fill="#000000" font-family="sans-serif" font-size="13" font-weight="bold" lengthAdjust="spacingAndGlyphs" textLength="18" x="188" y="2031.1685">28</text>
    <text fill="#000000" font-family="sans-serif" font-size="13" lengthAdjust="spacingAndGlyphs" textLength="46" x="210" y="2031.1685">200 OK</text>
  </g>
</svg>
