<svg xmlns="http://www.w3.org/2000/svg" xmlns:xlink="http://www.w3.org/1999/xlink" contentStyleType="text/css" height="2093px" preserveAspectRatio="none" style="width:1313px;height:2093px;background:#FFFFFF;" version="1.1" viewBox="0 0 1313 2093" width="1313px" zoomAndPan="magnify">
  <title>Retrieve Quote Information</title>
  <defs/>
  <g>
    <text fill="#000000" font-family="sans-serif" font-size="14" font-weight="bold" lengthAdjust="spacing" textLength="217.1094" x="549.0557" y="27.9951">Retrieve Quote Information</text>
    <rect fill="#FFFFFF" height="122.7969" style="stroke:#181818;stroke-width:1.0;" width="10" x="995.7646" y="859.6406"/>
    <rect fill="none" height="1602.0625" style="stroke:#000000;stroke-width:1.5;" width="1297.2207" x="9" y="396.5156"/>
    <rect fill="none" height="1296.9297" style="stroke:#000000;stroke-width:1.5;" width="1157.498" x="19" y="571.3125"/>
    <rect fill="none" height="825.1328" style="stroke:#000000;stroke-width:1.5;" width="1137.498" x="29" y="730.9766"/>
    <rect fill="none" height="242.3281" style="stroke:#000000;stroke-width:1.5;" width="820.2959" x="313.188" y="755.1094"/>
    <rect fill="none" height="169.0625" style="stroke:#000000;stroke-width:1.5;" width="800.2959" x="323.188" y="821.375"/>
    <rect fill="none" height="116.2031" style="stroke:#000000;stroke-width:1.5;" width="369.7642" x="323.188" y="1011.4375"/>
    <rect fill="none" height="233.8672" style="stroke:#000000;stroke-width:1.5;" width="1117.498" x="39" y="1141.6406"/>
    <rect fill="none" height="59.2656" style="stroke:#000000;stroke-width:1.5;" width="275.6377" x="323.188" y="1693.4453"/>
    <line style="stroke:#181818;stroke-width:0.5;stroke-dasharray:5.0,5.0;" x1="179" x2="179" y1="106.1875" y2="2015.5781"/>
    <line style="stroke:#181818;stroke-width:0.5;stroke-dasharray:5.0,5.0;" x1="370.188" x2="370.188" y1="106.1875" y2="2015.5781"/>
    <line style="stroke:#181818;stroke-width:0.5;stroke-dasharray:5.0,5.0;" x1="1000.3965" x2="1000.3965" y1="106.1875" y2="2015.5781"/>
    <line style="stroke:#181818;stroke-width:0.5;stroke-dasharray:5.0,5.0;" x1="1103.1328" x2="1103.1328" y1="106.1875" y2="2015.5781"/>
    <rect fill="#E2E2F0" height="30.2969" rx="2.5" ry="2.5" style="stroke:#181818;stroke-width:0.5;" width="83.5078" x="138" y="74.8906"/>
    <text fill="#000000" font-family="sans-serif" font-size="14" lengthAdjust="spacing" textLength="69.5078" x="145" y="94.8857">Payer FSP</text>
    <rect fill="#E2E2F0" height="30.2969" rx="2.5" ry="2.5" style="stroke:#181818;stroke-width:0.5;" width="83.5078" x="138" y="2014.5781"/>
    <text fill="#000000" font-family="sans-serif" font-size="14" lengthAdjust="spacing" textLength="69.5078" x="145" y="2034.5732">Payer FSP</text>
    <rect fill="#E2E2F0" height="62.8906" rx="2.5" ry="2.5" style="stroke:#181818;stroke-width:0.5;" width="75.0586" x="333.188" y="42.2969"/>
    <text fill="#000000" font-family="sans-serif" font-size="14" lengthAdjust="spacing" textLength="46.2861" x="347.5742" y="62.292">Switch</text>
    <text fill="#000000" font-family="sans-serif" font-size="14" lengthAdjust="spacing" textLength="61.0586" x="340.188" y="78.5889">[Quoting</text>
    <text fill="#000000" font-family="sans-serif" font-size="14" lengthAdjust="spacing" textLength="57.2031" x="342.1157" y="94.8857">Service]</text>
    <rect fill="#E2E2F0" height="62.8906" rx="2.5" ry="2.5" style="stroke:#181818;stroke-width:0.5;" width="75.0586" x="333.188" y="2014.5781"/>
    <text fill="#000000" font-family="sans-serif" font-size="14" lengthAdjust="spacing" textLength="46.2861" x="347.5742" y="2034.5732">Switch</text>
    <text fill="#000000" font-family="sans-serif" font-size="14" lengthAdjust="spacing" textLength="61.0586" x="340.188" y="2050.8701">[Quoting</text>
    <text fill="#000000" font-family="sans-serif" font-size="14" lengthAdjust="spacing" textLength="57.2031" x="342.1157" y="2067.167">Service]</text>
    <text fill="#000000" font-family="sans-serif" font-size="14" lengthAdjust="spacing" textLength="92.7363" x="951.3965" y="102.8857">Central Store</text>
    <path d="M982.7646,53.8906 C982.7646,43.8906 1000.7646,43.8906 1000.7646,43.8906 C1000.7646,43.8906 1018.7646,43.8906 1018.7646,53.8906 L1018.7646,79.8906 C1018.7646,89.8906 1000.7646,89.8906 1000.7646,89.8906 C1000.7646,89.8906 982.7646,89.8906 982.7646,79.8906 L982.7646,53.8906 " fill="#E2E2F0" style="stroke:#181818;stroke-width:1.5;"/>
    <path d="M982.7646,53.8906 C982.7646,63.8906 1000.7646,63.8906 1000.7646,63.8906 C1000.7646,63.8906 1018.7646,63.8906 1018.7646,53.8906 " fill="none" style="stroke:#181818;stroke-width:1.5;"/>
    <text fill="#000000" font-family="sans-serif" font-size="14" lengthAdjust="spacing" textLength="92.7363" x="951.3965" y="2027.5732">Central Store</text>
    <path d="M982.7646,2040.875 C982.7646,2030.875 1000.7646,2030.875 1000.7646,2030.875 C1000.7646,2030.875 1018.7646,2030.875 1018.7646,2040.875 L1018.7646,2066.875 C1018.7646,2076.875 1000.7646,2076.875 1000.7646,2076.875 C1000.7646,2076.875 982.7646,2076.875 982.7646,2066.875 L982.7646,2040.875 " fill="#E2E2F0" style="stroke:#181818;stroke-width:1.5;"/>
    <path d="M982.7646,2040.875 C982.7646,2050.875 1000.7646,2050.875 1000.7646,2050.875 C1000.7646,2050.875 1018.7646,2050.875 1018.7646,2040.875 " fill="none" style="stroke:#181818;stroke-width:1.5;"/>
    <rect fill="#E2E2F0" height="30.2969" rx="2.5" ry="2.5" style="stroke:#181818;stroke-width:0.5;" width="86.3652" x="1060.1328" y="74.8906"/>
    <text fill="#000000" font-family="sans-serif" font-size="14" lengthAdjust="spacing" textLength="72.3652" x="1067.1328" y="94.8857">Payee FSP</text>
    <rect fill="#E2E2F0" height="30.2969" rx="2.5" ry="2.5" style="stroke:#181818;stroke-width:0.5;" width="86.3652" x="1060.1328" y="2014.5781"/>
    <text fill="#000000" font-family="sans-serif" font-size="14" lengthAdjust="spacing" textLength="72.3652" x="1067.1328" y="2034.5732">Payee FSP</text>
    <rect fill="#FFFFFF" height="122.7969" style="stroke:#181818;stroke-width:1.0;" width="10" x="995.7646" y="859.6406"/>
    <path d="M184,121.1875 L184,161.1875 L501,161.1875 L501,131.1875 L491,121.1875 L184,121.1875 " fill="#FEFFDD" style="stroke:#181818;stroke-width:0.5;"/>
    <path d="M491,121.1875 L491,131.1875 L501,131.1875 L491,121.1875 " fill="#FEFFDD" style="stroke:#181818;stroke-width:0.5;"/>
    <text fill="#000000" font-family="sans-serif" font-size="13" lengthAdjust="spacing" textLength="292.3223" x="190" y="138.2544">Payer FSP sends request to get quote details</text>
    <text fill="#000000" font-family="sans-serif" font-size="13" lengthAdjust="spacing" textLength="180.3623" x="190" y="153.3872">to Payee FSP via the Switch</text>
    <polygon fill="#181818" points="358.7173,183.5859,368.7173,187.5859,358.7173,187.5859" style="stroke:#181818;stroke-width:1.0;"/>
    <line style="stroke:#181818;stroke-width:1.0;" x1="179.7539" x2="369.7173" y1="187.5859" y2="187.5859"/>
    <text fill="#000000" font-family="sans-serif" font-size="13" font-weight="bold" lengthAdjust="spacing" textLength="9.0454" x="186.7539" y="182.52">1</text>
    <text fill="#000000" font-family="sans-serif" font-size="13" lengthAdjust="spacing" textLength="113.8198" x="199.7993" y="182.52">GET /quotes/{ID}</text>
    <path d="M375,200.5859 L375,270.5859 L622,270.5859 L622,210.5859 L612,200.5859 L375,200.5859 " fill="#AAAAAA" style="stroke:#181818;stroke-width:0.5;"/>
    <path d="M612,200.5859 L612,210.5859 L622,210.5859 L612,200.5859 " fill="#AAAAAA" style="stroke:#181818;stroke-width:0.5;"/>
    <text fill="#000000" font-family="sans-serif" font-size="13" lengthAdjust="spacing" textLength="159.269" x="381" y="217.6528">Validate request against</text>
    <text fill="#000000" font-family="sans-serif" font-size="13" lengthAdjust="spacing" textLength="206.7495" x="381" y="232.7856">Mojaloop interface specification</text>
    <text fill="#FF0000" font-family="sans-serif" font-size="13" font-weight="bold" lengthAdjust="spacing" textLength="166.5625" x="381" y="247.9185">Error code: 300x, 310x</text>
    <text fill="#FF0000" font-family="sans-serif" font-size="13" font-weight="bold" lengthAdjust="spacing" textLength="226.0146" x="381" y="263.0513">HTTP error response code: 4xx</text>
    <line style="stroke:#181818;stroke-width:1.0;" x1="370.7173" x2="412.7173" y1="297.25" y2="297.25"/>
    <line style="stroke:#181818;stroke-width:1.0;" x1="412.7173" x2="412.7173" y1="297.25" y2="310.25"/>
    <line style="stroke:#181818;stroke-width:1.0;" x1="371.7173" x2="412.7173" y1="310.25" y2="310.25"/>
    <polygon fill="#181818" points="381.7173,306.25,371.7173,310.25,381.7173,314.25,377.7173,310.25" style="stroke:#181818;stroke-width:1.0;"/>
    <text fill="#000000" font-family="sans-serif" font-size="13" font-weight="bold" lengthAdjust="spacing" textLength="9.0454" x="377.7173" y="292.1841">2</text>
    <text fill="#000000" font-family="sans-serif" font-size="13" lengthAdjust="spacing" textLength="120.4023" x="390.7627" y="292.1841">Schema validation</text>
    <polygon fill="#181818" points="190.7539,339.3828,180.7539,339.3828,190.7539,343.3828" style="stroke:#181818;stroke-width:1.0;"/>
    <line style="stroke:#181818;stroke-width:1.0;stroke-dasharray:2.0,2.0;" x1="179.7539" x2="369.7173" y1="339.3828" y2="339.3828"/>
    <text fill="#000000" font-family="sans-serif" font-size="13" font-weight="bold" lengthAdjust="spacing" textLength="9.0454" x="196.7539" y="334.3169">3</text>
    <text fill="#000000" font-family="sans-serif" font-size="13" lengthAdjust="spacing" textLength="89.7305" x="209.7993" y="334.3169">202 Accepted</text>
    <line style="stroke:#181818;stroke-width:1.0;" x1="370.7173" x2="412.7173" y1="368.5156" y2="368.5156"/>
    <line style="stroke:#181818;stroke-width:1.0;" x1="412.7173" x2="412.7173" y1="368.5156" y2="381.5156"/>
    <line style="stroke:#181818;stroke-width:1.0;" x1="371.7173" x2="412.7173" y1="381.5156" y2="381.5156"/>
    <polygon fill="#181818" points="381.7173,377.5156,371.7173,381.5156,381.7173,385.5156,377.7173,381.5156" style="stroke:#181818;stroke-width:1.0;"/>
    <text fill="#000000" font-family="sans-serif" font-size="13" font-weight="bold" lengthAdjust="spacing" textLength="9.0454" x="377.7173" y="363.4497">4</text>
    <text fill="#000000" font-family="sans-serif" font-size="13" lengthAdjust="spacing" textLength="258.3306" x="390.7627" y="363.4497">Retrieve quotes endpoint for Payee FSP</text>
    <path d="M9,396.5156 L73.4429,396.5156 L73.4429,403.6484 L63.4429,413.6484 L9,413.6484 L9,396.5156 " fill="#EEEEEE" style="stroke:#000000;stroke-width:1.5;"/>
    <rect fill="none" height="1602.0625" style="stroke:#000000;stroke-width:1.5;" width="1297.2207" x="9" y="396.5156"/>
    <text fill="#000000" font-family="sans-serif" font-size="13" font-weight="bold" lengthAdjust="spacing" textLength="19.4429" x="24" y="409.5825">alt</text>
    <text fill="#000000" font-family="sans-serif" font-size="11" font-weight="bold" lengthAdjust="spacing" textLength="234.459" x="88.4429" y="408.7261">[Payee FSP quotes endpoint is found]</text>
    <path d="M375,418.6484 L375,458.6484 L783,458.6484 L783,428.6484 L773,418.6484 L375,418.6484 " fill="#FEFFDD" style="stroke:#181818;stroke-width:0.5;"/>
    <path d="M773,418.6484 L773,428.6484 L783,428.6484 L773,418.6484 " fill="#FEFFDD" style="stroke:#181818;stroke-width:0.5;"/>
    <text fill="#000000" font-family="sans-serif" font-size="13" lengthAdjust="spacing" textLength="387.3975" x="381" y="435.7153">Switch forwards request to Payee FSP (pass-through mode)</text>
    <text fill="#000000" font-family="sans-serif" font-size="13" lengthAdjust="spacing" textLength="141.7876" x="381" y="450.8481">&lt;Payer based Rules&gt;</text>
    <polygon fill="#181818" points="1091.3154,481.0469,1101.3154,485.0469,1091.3154,485.0469" style="stroke:#181818;stroke-width:1.0;"/>
    <line style="stroke:#181818;stroke-width:1.0;" x1="370.7173" x2="1102.3154" y1="485.0469" y2="485.0469"/>
    <text fill="#000000" font-family="sans-serif" font-size="13" font-weight="bold" lengthAdjust="spacing" textLength="9.0454" x="377.7173" y="479.981">5</text>
    <text fill="#000000" font-family="sans-serif" font-size="13" lengthAdjust="spacing" textLength="113.8198" x="390.7627" y="479.981">GET /quotes/{ID}</text>
    <polygon fill="#181818" points="381.7173,514.1797,371.7173,514.1797,381.7173,518.1797" style="stroke:#181818;stroke-width:1.0;"/>
    <line style="stroke:#181818;stroke-width:1.0;stroke-dasharray:2.0,2.0;" x1="370.7173" x2="1102.3154" y1="514.1797" y2="514.1797"/>
    <text fill="#000000" font-family="sans-serif" font-size="13" font-weight="bold" lengthAdjust="spacing" textLength="9.0454" x="387.7173" y="509.1138">6</text>
    <text fill="#000000" font-family="sans-serif" font-size="13" lengthAdjust="spacing" textLength="89.7305" x="400.7627" y="509.1138">202 Accepted</text>
    <line style="stroke:#181818;stroke-width:1.0;" x1="1103.3154" x2="1145.3154" y1="543.3125" y2="543.3125"/>
    <line style="stroke:#181818;stroke-width:1.0;" x1="1145.3154" x2="1145.3154" y1="543.3125" y2="556.3125"/>
    <line style="stroke:#181818;stroke-width:1.0;" x1="1104.3154" x2="1145.3154" y1="556.3125" y2="556.3125"/>
    <polygon fill="#181818" points="1114.3154,552.3125,1104.3154,556.3125,1114.3154,560.3125,1110.3154,556.3125" style="stroke:#181818;stroke-width:1.0;"/>
    <text fill="#000000" font-family="sans-serif" font-size="13" font-weight="bold" lengthAdjust="spacing" textLength="9.0454" x="1110.3154" y="538.2466">7</text>
    <text fill="#000000" font-family="sans-serif" font-size="13" lengthAdjust="spacing" textLength="170.8599" x="1123.3608" y="538.2466">Payee FSP retireves quote</text>
    <path d="M19,571.3125 L83.4429,571.3125 L83.4429,578.4453 L73.4429,588.4453 L19,588.4453 L19,571.3125 " fill="#EEEEEE" style="stroke:#000000;stroke-width:1.5;"/>
    <rect fill="none" height="1296.9297" style="stroke:#000000;stroke-width:1.5;" width="1157.498" x="19" y="571.3125"/>
    <text fill="#000000" font-family="sans-serif" font-size="13" font-weight="bold" lengthAdjust="spacing" textLength="19.4429" x="34" y="584.3794">alt</text>
    <text fill="#000000" font-family="sans-serif" font-size="11" font-weight="bold" lengthAdjust="spacing" textLength="248.2842" x="98.4429" y="583.5229">[Payee FSP successfully retieves quote]</text>
    <path d="M833,593.4453 L833,618.4453 L1097,618.4453 L1097,603.4453 L1087,593.4453 L833,593.4453 " fill="#FEFFDD" style="stroke:#181818;stroke-width:0.5;"/>
    <path d="M1087,593.4453 L1087,603.4453 L1097,603.4453 L1087,593.4453 " fill="#FEFFDD" style="stroke:#181818;stroke-width:0.5;"/>
    <text fill="#000000" font-family="sans-serif" font-size="13" lengthAdjust="spacing" textLength="243.604" x="839" y="610.5122">Payee FSP responds to quote request</text>
    <polygon fill="#181818" points="381.7173,640.7109,371.7173,644.7109,381.7173,644.7109" style="stroke:#181818;stroke-width:1.0;"/>
    <line style="stroke:#181818;stroke-width:1.0;" x1="370.7173" x2="1102.3154" y1="644.7109" y2="644.7109"/>
    <text fill="#000000" font-family="sans-serif" font-size="13" font-weight="bold" lengthAdjust="spacing" textLength="9.0454" x="387.7173" y="639.645">8</text>
    <text fill="#000000" font-family="sans-serif" font-size="13" lengthAdjust="spacing" textLength="112.8867" x="400.7627" y="639.645">PUT /quotes/{ID}</text>
    <polygon fill="#181818" points="1091.3154,673.8438,1101.3154,673.8438,1091.3154,677.8438" style="stroke:#181818;stroke-width:1.0;"/>
    <line style="stroke:#181818;stroke-width:1.0;stroke-dasharray:2.0,2.0;" x1="370.7173" x2="1102.3154" y1="673.8438" y2="673.8438"/>
    <text fill="#000000" font-family="sans-serif" font-size="13" font-weight="bold" lengthAdjust="spacing" textLength="9.0454" x="377.7173" y="668.7778">9</text>
    <text fill="#000000" font-family="sans-serif" font-size="13" lengthAdjust="spacing" textLength="46.7061" x="390.7627" y="668.7778">200 Ok</text>
    <line style="stroke:#181818;stroke-width:1.0;" x1="370.7173" x2="412.7173" y1="702.9766" y2="702.9766"/>
    <line style="stroke:#181818;stroke-width:1.0;" x1="412.7173" x2="412.7173" y1="702.9766" y2="715.9766"/>
    <line style="stroke:#181818;stroke-width:1.0;" x1="371.7173" x2="412.7173" y1="715.9766" y2="715.9766"/>
    <polygon fill="#181818" points="381.7173,711.9766,371.7173,715.9766,381.7173,719.9766,377.7173,715.9766" style="stroke:#181818;stroke-width:1.0;"/>
    <text fill="#000000" font-family="sans-serif" font-size="13" font-weight="bold" lengthAdjust="spacing" textLength="18.0908" x="377.7173" y="697.9106">10</text>
    <text fill="#000000" font-family="sans-serif" font-size="13" lengthAdjust="spacing" textLength="246.8921" x="399.8081" y="697.9106">Validate response (schema, headers (</text>
    <text fill="#FF0000" font-family="sans-serif" font-size="13" font-weight="bold" lengthAdjust="spacing" textLength="122.2368" x="646.7002" y="697.9106">Error code: 3100</text>
    <text fill="#000000" font-family="sans-serif" font-size="13" lengthAdjust="spacing" textLength="10.1436" x="768.937" y="697.9106">))</text>
    <path d="M29,730.9766 L93.4429,730.9766 L93.4429,738.1094 L83.4429,748.1094 L29,748.1094 L29,730.9766 " fill="#EEEEEE" style="stroke:#000000;stroke-width:1.5;"/>
    <rect fill="none" height="825.1328" style="stroke:#000000;stroke-width:1.5;" width="1137.498" x="29" y="730.9766"/>
    <text fill="#000000" font-family="sans-serif" font-size="13" font-weight="bold" lengthAdjust="spacing" textLength="19.4429" x="44" y="744.0435">alt</text>
    <text fill="#000000" font-family="sans-serif" font-size="11" font-weight="bold" lengthAdjust="spacing" textLength="102.6523" x="108.4429" y="743.187">[Response is ok]</text>
    <path d="M313.188,755.1094 L377.6309,755.1094 L377.6309,762.2422 L367.6309,772.2422 L313.188,772.2422 L313.188,755.1094 " fill="#EEEEEE" style="stroke:#000000;stroke-width:1.5;"/>
    <rect fill="none" height="242.3281" style="stroke:#000000;stroke-width:1.5;" width="820.2959" x="313.188" y="755.1094"/>
    <text fill="#000000" font-family="sans-serif" font-size="13" font-weight="bold" lengthAdjust="spacing" textLength="19.4429" x="328.188" y="768.1763">alt</text>
    <text fill="#000000" font-family="sans-serif" font-size="11" font-weight="bold" lengthAdjust="spacing" textLength="191.1948" x="392.6309" y="767.3198">[SimpleRoutingMode is FALSE]</text>
    <line style="stroke:#181818;stroke-width:1.0;" x1="370.7173" x2="412.7173" y1="793.375" y2="793.375"/>
    <line style="stroke:#181818;stroke-width:1.0;" x1="412.7173" x2="412.7173" y1="793.375" y2="806.375"/>
    <line style="stroke:#181818;stroke-width:1.0;" x1="371.7173" x2="412.7173" y1="806.375" y2="806.375"/>
    <polygon fill="#181818" points="381.7173,802.375,371.7173,806.375,381.7173,810.375,377.7173,806.375" style="stroke:#181818;stroke-width:1.0;"/>
    <text fill="#000000" font-family="sans-serif" font-size="13" font-weight="bold" lengthAdjust="spacing" textLength="18.0908" x="377.7173" y="788.3091">11</text>
    <text fill="#000000" font-family="sans-serif" font-size="13" lengthAdjust="spacing" textLength="461.5762" x="399.8081" y="788.3091">Validate response (duplicate response check, handle resend scenario (</text>
    <text fill="#FF0000" font-family="sans-serif" font-size="13" font-weight="bold" lengthAdjust="spacing" textLength="122.2368" x="861.3843" y="788.3091">Error code: 3106</text>
    <text fill="#000000" font-family="sans-serif" font-size="13" lengthAdjust="spacing" textLength="10.1436" x="983.6211" y="788.3091">))</text>
    <path d="M323.188,821.375 L387.6309,821.375 L387.6309,828.5078 L377.6309,838.5078 L323.188,838.5078 L323.188,821.375 " fill="#EEEEEE" style="stroke:#000000;stroke-width:1.5;"/>
    <rect fill="none" height="169.0625" style="stroke:#000000;stroke-width:1.5;" width="800.2959" x="323.188" y="821.375"/>
    <text fill="#000000" font-family="sans-serif" font-size="13" font-weight="bold" lengthAdjust="spacing" textLength="19.4429" x="338.188" y="834.4419">alt</text>
    <text fill="#000000" font-family="sans-serif" font-size="11" font-weight="bold" lengthAdjust="spacing" textLength="120.8013" x="402.6309" y="833.5854">[Validation passed]</text>
    <polygon fill="#181818" points="983.7646,855.6406,993.7646,859.6406,983.7646,859.6406" style="stroke:#181818;stroke-width:1.0;"/>
    <line style="stroke:#181818;stroke-width:1.0;" x1="370.7173" x2="994.7646" y1="859.6406" y2="859.6406"/>
    <text fill="#000000" font-family="sans-serif" font-size="13" font-weight="bold" lengthAdjust="spacing" textLength="18.0908" x="377.7173" y="854.5747">12</text>
    <text fill="#000000" font-family="sans-serif" font-size="13" lengthAdjust="spacing" textLength="148.5732" x="399.8081" y="854.5747">Persist quote response</text>
    <polygon fill="#FEFFDD" points="897,872.6406,1103,872.6406,1113,913.6406,1103,955.6406,897,955.6406,887,913.6406,897,872.6406" style="stroke:#181818;stroke-width:0.5;"/>
    <text fill="#000000" font-family="sans-serif" font-size="13" lengthAdjust="spacing" textLength="100.5596" x="899" y="888.7075">quoteResponse</text>
    <text fill="#000000" font-family="sans-serif" font-size="13" lengthAdjust="spacing" textLength="202.4839" x="899" y="903.8403">quoteResponseDuplicateCheck</text>
    <text fill="#000000" font-family="sans-serif" font-size="13" lengthAdjust="spacing" textLength="159.834" x="899" y="918.9731">quoteResponseIlpPacket</text>
    <text fill="#000000" font-family="sans-serif" font-size="13" lengthAdjust="spacing" textLength="108.1323" x="899" y="934.106">quoteExtensions</text>
    <text fill="#000000" font-family="sans-serif" font-size="13" lengthAdjust="spacing" textLength="57.4844" x="899" y="949.2388">geoCode</text>
    <polygon fill="#181818" points="381.7173,982.4375,371.7173,982.4375,381.7173,986.4375" style="stroke:#181818;stroke-width:1.0;"/>
    <line style="stroke:#181818;stroke-width:1.0;stroke-dasharray:2.0,2.0;" x1="370.7173" x2="999.7646" y1="982.4375" y2="982.4375"/>
    <text fill="#000000" font-family="sans-serif" font-size="13" font-weight="bold" lengthAdjust="spacing" textLength="18.0908" x="387.7173" y="977.3716">13</text>
    <text fill="#000000" font-family="sans-serif" font-size="13" lengthAdjust="spacing" textLength="145.7993" x="409.8081" y="977.3716">Quote response saved</text>
    <path d="M323.188,1011.4375 L387.6309,1011.4375 L387.6309,1018.5703 L377.6309,1028.5703 L323.188,1028.5703 L323.188,1011.4375 " fill="#EEEEEE" style="stroke:#000000;stroke-width:1.5;"/>
    <rect fill="none" height="116.2031" style="stroke:#000000;stroke-width:1.5;" width="369.7642" x="323.188" y="1011.4375"/>
    <text fill="#000000" font-family="sans-serif" font-size="13" font-weight="bold" lengthAdjust="spacing" textLength="19.4429" x="338.188" y="1024.5044">alt</text>
    <text fill="#000000" font-family="sans-serif" font-size="11" font-weight="bold" lengthAdjust="spacing" textLength="185.1416" x="402.6309" y="1023.6479">[SimpleRoutingMode is TRUE]</text>
    <line style="stroke:#181818;stroke-width:1.0;" x1="370.7173" x2="412.7173" y1="1049.7031" y2="1049.7031"/>
    <line style="stroke:#181818;stroke-width:1.0;" x1="412.7173" x2="412.7173" y1="1049.7031" y2="1062.7031"/>
    <line style="stroke:#181818;stroke-width:1.0;" x1="371.7173" x2="412.7173" y1="1062.7031" y2="1062.7031"/>
    <polygon fill="#181818" points="381.7173,1058.7031,371.7173,1062.7031,381.7173,1066.7031,377.7173,1062.7031" style="stroke:#181818;stroke-width:1.0;"/>
    <text fill="#000000" font-family="sans-serif" font-size="13" font-weight="bold" lengthAdjust="spacing" textLength="18.0908" x="377.7173" y="1044.6372">14</text>
    <text fill="#000000" font-family="sans-serif" font-size="13" lengthAdjust="spacing" textLength="281.144" x="399.8081" y="1044.6372">Retrieve quotes endpoint for the Payer FSP</text>
    <line style="stroke:#000000;stroke-width:1.0;stroke-dasharray:2.0,2.0;" x1="323.188" x2="692.9521" y1="1071.7031" y2="1071.7031"/>
    <text fill="#000000" font-family="sans-serif" font-size="11" font-weight="bold" lengthAdjust="spacing" textLength="191.1948" x="328.188" y="1081.9136">[SimpleRoutingMode is FALSE]</text>
    <line style="stroke:#181818;stroke-width:1.0;" x1="370.7173" x2="412.7173" y1="1106.6406" y2="1106.6406"/>
    <line style="stroke:#181818;stroke-width:1.0;" x1="412.7173" x2="412.7173" y1="1106.6406" y2="1119.6406"/>
    <line style="stroke:#181818;stroke-width:1.0;" x1="371.7173" x2="412.7173" y1="1119.6406" y2="1119.6406"/>
    <polygon fill="#181818" points="381.7173,1115.6406,371.7173,1119.6406,381.7173,1123.6406,377.7173,1119.6406" style="stroke:#181818;stroke-width:1.0;"/>
    <text fill="#000000" font-family="sans-serif" font-size="13" font-weight="bold" lengthAdjust="spacing" textLength="18.0908" x="377.7173" y="1101.5747">15</text>
    <text fill="#000000" font-family="sans-serif" font-size="13" lengthAdjust="spacing" textLength="252.9033" x="399.8081" y="1101.5747">Retrieve quote party endpoint (PAYER)</text>
    <path d="M39,1141.6406 L103.4429,1141.6406 L103.4429,1148.7734 L93.4429,1158.7734 L39,1158.7734 L39,1141.6406 " fill="#EEEEEE" style="stroke:#000000;stroke-width:1.5;"/>
    <rect fill="none" height="233.8672" style="stroke:#000000;stroke-width:1.5;" width="1117.498" x="39" y="1141.6406"/>
    <text fill="#000000" font-family="sans-serif" font-size="13" font-weight="bold" lengthAdjust="spacing" textLength="19.4429" x="54" y="1154.7075">alt</text>
    <text fill="#000000" font-family="sans-serif" font-size="11" font-weight="bold" lengthAdjust="spacing" textLength="207.5015" x="118.4429" y="1153.8511">[Quotes callback endpoint found]</text>
    <path d="M49,1163.7734 L49,1203.7734 L364,1203.7734 L364,1173.7734 L354,1163.7734 L49,1163.7734 " fill="#FEFFDD" style="stroke:#181818;stroke-width:0.5;"/>
    <path d="M354,1163.7734 L354,1173.7734 L364,1173.7734 L354,1163.7734 " fill="#FEFFDD" style="stroke:#181818;stroke-width:0.5;"/>
    <text fill="#000000" font-family="sans-serif" font-size="13" lengthAdjust="spacing" textLength="294.9502" x="55" y="1180.8403">Switch forwards quote response to Payer FSP</text>
    <text fill="#000000" font-family="sans-serif" font-size="13" lengthAdjust="spacing" textLength="190.6963" x="55" y="1195.9731">&lt;Payee whole request Rule&gt;</text>
    <polygon fill="#181818" points="190.7539,1226.1719,180.7539,1230.1719,190.7539,1230.1719" style="stroke:#181818;stroke-width:1.0;"/>
    <line style="stroke:#181818;stroke-width:1.0;" x1="179.7539" x2="369.7173" y1="1230.1719" y2="1230.1719"/>
    <text fill="#000000" font-family="sans-serif" font-size="13" font-weight="bold" lengthAdjust="spacing" textLength="18.0908" x="196.7539" y="1225.106">16</text>
    <text fill="#000000" font-family="sans-serif" font-size="13" lengthAdjust="spacing" textLength="112.8867" x="218.8447" y="1225.106">PUT /quotes/{ID}</text>
    <polygon fill="#181818" points="358.7173,1259.3047,368.7173,1259.3047,358.7173,1263.3047" style="stroke:#181818;stroke-width:1.0;"/>
    <line style="stroke:#181818;stroke-width:1.0;stroke-dasharray:2.0,2.0;" x1="179.7539" x2="369.7173" y1="1259.3047" y2="1259.3047"/>
    <text fill="#000000" font-family="sans-serif" font-size="13" font-weight="bold" lengthAdjust="spacing" textLength="18.0908" x="186.7539" y="1254.2388">17</text>
    <text fill="#000000" font-family="sans-serif" font-size="13" lengthAdjust="spacing" textLength="46.7061" x="208.8447" y="1254.2388">200 Ok</text>
    <line style="stroke:#000000;stroke-width:1.0;stroke-dasharray:2.0,2.0;" x1="39" x2="1156.498" y1="1268.3047" y2="1268.3047"/>
    <text fill="#000000" font-family="sans-serif" font-size="11" font-weight="bold" lengthAdjust="spacing" textLength="231.9775" x="44" y="1278.5151">[Quotes callback endpoint not found]</text>
    <path d="M375,1287.1094 L375,1312.1094 L614,1312.1094 L614,1297.1094 L604,1287.1094 L375,1287.1094 " fill="#FEFFDD" style="stroke:#181818;stroke-width:0.5;"/>
    <path d="M604,1287.1094 L604,1297.1094 L614,1297.1094 L604,1287.1094 " fill="#FEFFDD" style="stroke:#181818;stroke-width:0.5;"/>
    <text fill="#000000" font-family="sans-serif" font-size="13" lengthAdjust="spacing" textLength="218.7783" x="381" y="1304.1763">Switch returns error to Payee FSP</text>
    <polygon fill="#181818" points="1091.3154,1334.375,1101.3154,1338.375,1091.3154,1338.375" style="stroke:#181818;stroke-width:1.0;"/>
    <line style="stroke:#181818;stroke-width:1.0;" x1="370.7173" x2="1102.3154" y1="1338.375" y2="1338.375"/>
    <text fill="#000000" font-family="sans-serif" font-size="13" font-weight="bold" lengthAdjust="spacing" textLength="18.0908" x="377.7173" y="1333.3091">18</text>
    <text fill="#000000" font-family="sans-serif" font-size="13" lengthAdjust="spacing" textLength="149.2524" x="399.8081" y="1333.3091">PUT /quotes/{ID}/error</text>
    <polygon fill="#181818" points="381.7173,1367.5078,371.7173,1367.5078,381.7173,1371.5078" style="stroke:#181818;stroke-width:1.0;"/>
    <line style="stroke:#181818;stroke-width:1.0;stroke-dasharray:2.0,2.0;" x1="370.7173" x2="1102.3154" y1="1367.5078" y2="1367.5078"/>
    <text fill="#000000" font-family="sans-serif" font-size="13" font-weight="bold" lengthAdjust="spacing" textLength="18.0908" x="387.7173" y="1362.4419">19</text>
    <text fill="#000000" font-family="sans-serif" font-size="13" lengthAdjust="spacing" textLength="46.7061" x="409.8081" y="1362.4419">200 Ok</text>
    <line style="stroke:#000000;stroke-width:1.0;stroke-dasharray:2.0,2.0;" x1="29" x2="1166.498" y1="1383.5078" y2="1383.5078"/>
    <text fill="#000000" font-family="sans-serif" font-size="11" font-weight="bold" lengthAdjust="spacing" textLength="129.3896" x="34" y="1393.7183">[Response is invalid]</text>
    <path d="M375,1402.3125 L375,1427.3125 L614,1427.3125 L614,1412.3125 L604,1402.3125 L375,1402.3125 " fill="#FEFFDD" style="stroke:#181818;stroke-width:0.5;"/>
    <path d="M604,1402.3125 L604,1412.3125 L614,1412.3125 L604,1402.3125 " fill="#FEFFDD" style="stroke:#181818;stroke-width:0.5;"/>
    <text fill="#000000" font-family="sans-serif" font-size="13" lengthAdjust="spacing" textLength="218.7783" x="381" y="1419.3794">Switch returns error to Payee FSP</text>
    <polygon fill="#181818" points="1091.3154,1449.5781,1101.3154,1453.5781,1091.3154,1453.5781" style="stroke:#181818;stroke-width:1.0;"/>
    <line style="stroke:#181818;stroke-width:1.0;" x1="370.7173" x2="1102.3154" y1="1453.5781" y2="1453.5781"/>
    <text fill="#000000" font-family="sans-serif" font-size="13" font-weight="bold" lengthAdjust="spacing" textLength="18.0908" x="377.7173" y="1448.5122">20</text>
    <text fill="#000000" font-family="sans-serif" font-size="13" lengthAdjust="spacing" textLength="149.2524" x="399.8081" y="1448.5122">PUT /quotes/{ID}/error</text>
    <polygon fill="#181818" points="381.7173,1482.7109,371.7173,1482.7109,381.7173,1486.7109" style="stroke:#181818;stroke-width:1.0;"/>
    <line style="stroke:#181818;stroke-width:1.0;stroke-dasharray:2.0,2.0;" x1="370.7173" x2="1102.3154" y1="1482.7109" y2="1482.7109"/>
    <text fill="#000000" font-family="sans-serif" font-size="13" font-weight="bold" lengthAdjust="spacing" textLength="18.0908" x="387.7173" y="1477.645">21</text>
    <text fill="#000000" font-family="sans-serif" font-size="13" lengthAdjust="spacing" textLength="46.7061" x="409.8081" y="1477.645">200 Ok</text>
    <path d="M332,1495.7109 L332,1550.7109 L1140,1550.7109 L1140,1505.7109 L1130,1495.7109 L332,1495.7109 " fill="#EC7063" style="stroke:#181818;stroke-width:0.5;"/>
    <path d="M1130,1495.7109 L1130,1505.7109 L1140,1505.7109 L1130,1495.7109 " fill="#EC7063" style="stroke:#181818;stroke-width:0.5;"/>
    <text fill="#000000" font-family="sans-serif" font-size="13" lengthAdjust="spacing" textLength="131.3647" x="641.0391" y="1512.7778">Note that under this</text>
    <text fill="#000000" font-family="sans-serif" font-size="13" lengthAdjust="spacing" textLength="149.1763" x="641.0391" y="1527.9106">scenario the Payer FSP</text>
    <text fill="#000000" font-family="sans-serif" font-size="13" lengthAdjust="spacing" textLength="181.2319" x="641.0391" y="1543.0435">may not receive a response</text>
    <line style="stroke:#000000;stroke-width:1.0;stroke-dasharray:2.0,2.0;" x1="19" x2="1176.498" y1="1564.1094" y2="1564.1094"/>
    <text fill="#000000" font-family="sans-serif" font-size="11" font-weight="bold" lengthAdjust="spacing" textLength="111.6973" x="24" y="1574.3198">[Quote not found]</text>
    <path d="M858,1582.9141 L858,1622.9141 L1097,1622.9141 L1097,1592.9141 L1087,1582.9141 L858,1582.9141 " fill="#FEFFDD" style="stroke:#181818;stroke-width:0.5;"/>
    <path d="M1087,1582.9141 L1087,1592.9141 L1097,1592.9141 L1087,1582.9141 " fill="#FEFFDD" style="stroke:#181818;stroke-width:0.5;"/>
    <text fill="#000000" font-family="sans-serif" font-size="13" lengthAdjust="spacing" textLength="218.7783" x="864" y="1599.981">Payee FSP returns error to Switch</text>
    <text fill="#000000" font-family="sans-serif" font-size="13" lengthAdjust="spacing" textLength="4.1323" x="864" y="1615.1138"> </text>
    <text fill="#FF0000" font-family="sans-serif" font-size="13" font-weight="bold" lengthAdjust="spacing" textLength="122.2368" x="868.1323" y="1615.1138">Error code: 3205</text>
    <polygon fill="#181818" points="381.7173,1645.3125,371.7173,1649.3125,381.7173,1649.3125" style="stroke:#181818;stroke-width:1.0;"/>
    <line style="stroke:#181818;stroke-width:1.0;" x1="370.7173" x2="1102.3154" y1="1649.3125" y2="1649.3125"/>
    <text fill="#000000" font-family="sans-serif" font-size="13" font-weight="bold" lengthAdjust="spacing" textLength="18.0908" x="387.7173" y="1644.2466">22</text>
    <text fill="#000000" font-family="sans-serif" font-size="13" lengthAdjust="spacing" textLength="144.8726" x="409.8081" y="1644.2466">PUT quotes/{ID}/error</text>
    <polygon fill="#181818" points="1091.3154,1678.4453,1101.3154,1678.4453,1091.3154,1682.4453" style="stroke:#181818;stroke-width:1.0;"/>
    <line style="stroke:#181818;stroke-width:1.0;stroke-dasharray:2.0,2.0;" x1="370.7173" x2="1102.3154" y1="1678.4453" y2="1678.4453"/>
    <text fill="#000000" font-family="sans-serif" font-size="13" font-weight="bold" lengthAdjust="spacing" textLength="18.0908" x="377.7173" y="1673.3794">23</text>
    <text fill="#000000" font-family="sans-serif" font-size="13" lengthAdjust="spacing" textLength="47.7026" x="399.8081" y="1673.3794">200 OK</text>
    <path d="M323.188,1693.4453 L387.6309,1693.4453 L387.6309,1700.5781 L377.6309,1710.5781 L323.188,1710.5781 L323.188,1693.4453 " fill="#EEEEEE" style="stroke:#000000;stroke-width:1.5;"/>
    <rect fill="none" height="59.2656" style="stroke:#000000;stroke-width:1.5;" width="275.6377" x="323.188" y="1693.4453"/>
    <text fill="#000000" font-family="sans-serif" font-size="13" font-weight="bold" lengthAdjust="spacing" textLength="19.4429" x="338.188" y="1706.5122">alt</text>
    <text fill="#000000" font-family="sans-serif" font-size="11" font-weight="bold" lengthAdjust="spacing" textLength="191.1948" x="402.6309" y="1705.6558">[SimpleRoutingMode is FALSE]</text>
    <line style="stroke:#181818;stroke-width:1.0;" x1="370.7173" x2="412.7173" y1="1731.7109" y2="1731.7109"/>
    <line style="stroke:#181818;stroke-width:1.0;" x1="412.7173" x2="412.7173" y1="1731.7109" y2="1744.7109"/>
    <line style="stroke:#181818;stroke-width:1.0;" x1="371.7173" x2="412.7173" y1="1744.7109" y2="1744.7109"/>
    <polygon fill="#181818" points="381.7173,1740.7109,371.7173,1744.7109,381.7173,1748.7109,377.7173,1744.7109" style="stroke:#181818;stroke-width:1.0;"/>
    <text fill="#000000" font-family="sans-serif" font-size="13" font-weight="bold" lengthAdjust="spacing" textLength="18.0908" x="377.7173" y="1726.645">24</text>
    <text fill="#000000" font-family="sans-serif" font-size="13" lengthAdjust="spacing" textLength="112.9692" x="399.8081" y="1726.645">Persist error data</text>
    <path d="M128,1764.7109 L128,1804.7109 L365,1804.7109 L365,1774.7109 L355,1764.7109 L128,1764.7109 " fill="#FEFFDD" style="stroke:#181818;stroke-width:0.5;"/>
    <path d="M355,1764.7109 L355,1774.7109 L365,1774.7109 L355,1764.7109 " fill="#FEFFDD" style="stroke:#181818;stroke-width:0.5;"/>
    <text fill="#000000" font-family="sans-serif" font-size="13" lengthAdjust="spacing" textLength="216.125" x="134" y="1781.7778">Switch returns error to Payer FSP</text>
    <text fill="#000000" font-family="sans-serif" font-size="13" lengthAdjust="spacing" textLength="4.1323" x="134" y="1796.9106"> </text>
    <text fill="#FF0000" font-family="sans-serif" font-size="13" font-weight="bold" lengthAdjust="spacing" textLength="122.2368" x="138.1323" y="1796.9106">Error code: 3205</text>
    <polygon fill="#181818" points="190.7539,1827.1094,180.7539,1831.1094,190.7539,1831.1094" style="stroke:#181818;stroke-width:1.0;"/>
    <line style="stroke:#181818;stroke-width:1.0;" x1="179.7539" x2="369.7173" y1="1831.1094" y2="1831.1094"/>
    <text fill="#000000" font-family="sans-serif" font-size="13" font-weight="bold" lengthAdjust="spacing" textLength="18.0908" x="196.7539" y="1826.0435">25</text>
    <text fill="#000000" font-family="sans-serif" font-size="13" lengthAdjust="spacing" textLength="144.8726" x="218.8447" y="1826.0435">PUT quotes/{ID}/error</text>
    <polygon fill="#181818" points="358.7173,1860.2422,368.7173,1860.2422,358.7173,1864.2422" style="stroke:#181818;stroke-width:1.0;"/>
    <line style="stroke:#181818;stroke-width:1.0;stroke-dasharray:2.0,2.0;" x1="179.7539" x2="369.7173" y1="1860.2422" y2="1860.2422"/>
    <text fill="#000000" font-family="sans-serif" font-size="13" font-weight="bold" lengthAdjust="spacing" textLength="18.0908" x="186.7539" y="1855.1763">26</text>
    <text fill="#000000" font-family="sans-serif" font-size="13" lengthAdjust="spacing" textLength="47.7026" x="208.8447" y="1855.1763">200 OK</text>
    <line style="stroke:#000000;stroke-width:1.0;stroke-dasharray:2.0,2.0;" x1="9" x2="1306.2207" y1="1876.2422" y2="1876.2422"/>
    <text fill="#000000" font-family="sans-serif" font-size="11" font-weight="bold" lengthAdjust="spacing" textLength="258.9351" x="14" y="1886.4526">[Payee FSP quotes endpoint is not found]</text>
    <path d="M128,1895.0469 L128,1935.0469 L365,1935.0469 L365,1905.0469 L355,1895.0469 L128,1895.0469 " fill="#FEFFDD" style="stroke:#181818;stroke-width:0.5;"/>
    <path d="M355,1895.0469 L355,1905.0469 L365,1905.0469 L355,1895.0469 " fill="#FEFFDD" style="stroke:#181818;stroke-width:0.5;"/>
    <text fill="#000000" font-family="sans-serif" font-size="13" lengthAdjust="spacing" textLength="216.125" x="134" y="1912.1138">Switch returns error to Payer FSP</text>
    <text fill="#FF0000" font-family="sans-serif" font-size="13" font-weight="bold" lengthAdjust="spacing" textLength="122.2368" x="134" y="1927.2466">Error code: 3201</text>
    <polygon fill="#181818" points="190.7539,1957.4453,180.7539,1961.4453,190.7539,1961.4453" style="stroke:#181818;stroke-width:1.0;"/>
    <line style="stroke:#181818;stroke-width:1.0;" x1="179.7539" x2="369.7173" y1="1961.4453" y2="1961.4453"/>
    <text fill="#000000" font-family="sans-serif" font-size="13" font-weight="bold" lengthAdjust="spacing" textLength="18.0908" x="196.7539" y="1956.3794">27</text>
    <text fill="#000000" font-family="sans-serif" font-size="13" lengthAdjust="spacing" textLength="140.4927" x="218.8447" y="1956.3794">PUT quotes/{ID}error</text>
    <polygon fill="#181818" points="358.7173,1990.5781,368.7173,1990.5781,358.7173,1994.5781" style="stroke:#181818;stroke-width:1.0;"/>
    <line style="stroke:#181818;stroke-width:1.0;stroke-dasharray:2.0,2.0;" x1="179.7539" x2="369.7173" y1="1990.5781" y2="1990.5781"/>
    <text fill="#000000" font-family="sans-serif" font-size="13" font-weight="bold" lengthAdjust="spacing" textLength="18.0908" x="186.7539" y="1985.5122">28</text>
    <text fill="#000000" font-family="sans-serif" font-size="13" lengthAdjust="spacing" textLength="47.7026" x="208.8447" y="1985.5122">200 OK</text>
  </g>
</svg>
