<svg xmlns="http://www.w3.org/2000/svg" xmlns:xlink="http://www.w3.org/1999/xlink" contentStyleType="text/css" height="1852px" preserveAspectRatio="none" style="width:995px;height:1852px;background:#FFFFFF;" version="1.1" viewBox="0 0 995 1852" width="995px" zoomAndPan="magnify">
  <title>Request Bulk Quote Creation</title>
  <defs/>
  <g>
    <text fill="#000000" font-family="sans-serif" font-size="14" font-weight="bold" lengthAdjust="spacing" textLength="229.0244" x="384.2583" y="27.9951">Request Bulk Quote Creation</text>
    <rect fill="none" height="232.6016" style="stroke:#000000;stroke-width:1.5;" width="525.8501" x="63" y="497.3516"/>
    <rect fill="none" height="957.5938" style="stroke:#000000;stroke-width:1.5;" width="979.541" x="9" y="826.2188"/>
    <rect fill="none" height="652.4609" style="stroke:#000000;stroke-width:1.5;" width="755.1313" x="19" y="1001.0156"/>
    <rect fill="none" height="75.3984" style="stroke:#000000;stroke-width:1.5;" width="475.7256" x="272.353" y="1202.8125"/>
    <rect fill="none" height="59.2656" style="stroke:#000000;stroke-width:1.5;" width="325.895" x="272.353" y="1292.2109"/>
    <line style="stroke:#181818;stroke-width:0.5;stroke-dasharray:5.0,5.0;" x1="125" x2="125" y1="89.8906" y2="1800.8125"/>
    <line style="stroke:#181818;stroke-width:0.5;stroke-dasharray:5.0,5.0;" x1="350.353" x2="350.353" y1="89.8906" y2="1800.8125"/>
    <line style="stroke:#181818;stroke-width:0.5;stroke-dasharray:5.0,5.0;" x1="694.7134" x2="694.7134" y1="89.8906" y2="1800.8125"/>
    <rect fill="#E2E2F0" height="30.2969" rx="2.5" ry="2.5" style="stroke:#181818;stroke-width:0.5;" width="83.5078" x="84" y="58.5938"/>
    <text fill="#000000" font-family="sans-serif" font-size="14" lengthAdjust="spacing" textLength="69.5078" x="91" y="78.5889">Payer FSP</text>
    <rect fill="#E2E2F0" height="30.2969" rx="2.5" ry="2.5" style="stroke:#181818;stroke-width:0.5;" width="83.5078" x="84" y="1799.8125"/>
    <text fill="#000000" font-family="sans-serif" font-size="14" lengthAdjust="spacing" textLength="69.5078" x="91" y="1819.8076">Payer FSP</text>
    <rect fill="#E2E2F0" height="46.5938" rx="2.5" ry="2.5" style="stroke:#181818;stroke-width:0.5;" width="136.7119" x="282.353" y="42.2969"/>
    <text fill="#000000" font-family="sans-serif" font-size="14" lengthAdjust="spacing" textLength="46.2861" x="327.5659" y="62.292">Switch</text>
    <text fill="#000000" font-family="sans-serif" font-size="14" lengthAdjust="spacing" textLength="122.7119" x="289.353" y="78.5889">[Quoting Service]</text>
    <rect fill="#E2E2F0" height="46.5938" rx="2.5" ry="2.5" style="stroke:#181818;stroke-width:0.5;" width="136.7119" x="282.353" y="1799.8125"/>
    <text fill="#000000" font-family="sans-serif" font-size="14" lengthAdjust="spacing" textLength="46.2861" x="327.5659" y="1819.8076">Switch</text>
    <text fill="#000000" font-family="sans-serif" font-size="14" lengthAdjust="spacing" textLength="122.7119" x="289.353" y="1836.1045">[Quoting Service]</text>
    <rect fill="#E2E2F0" height="30.2969" rx="2.5" ry="2.5" style="stroke:#181818;stroke-width:0.5;" width="86.3652" x="651.7134" y="58.5938"/>
    <text fill="#000000" font-family="sans-serif" font-size="14" lengthAdjust="spacing" textLength="72.3652" x="658.7134" y="78.5889">Payee FSP</text>
    <rect fill="#E2E2F0" height="30.2969" rx="2.5" ry="2.5" style="stroke:#181818;stroke-width:0.5;" width="86.3652" x="651.7134" y="1799.8125"/>
    <text fill="#000000" font-family="sans-serif" font-size="14" lengthAdjust="spacing" textLength="72.3652" x="658.7134" y="1819.8076">Payee FSP</text>
    <path d="M73,104.8906 L73,144.8906 L403,144.8906 L403,114.8906 L393,104.8906 L73,104.8906 " fill="#FEFFDD" style="stroke:#181818;stroke-width:0.5;"/>
    <path d="M393,104.8906 L393,114.8906 L403,114.8906 L393,104.8906 " fill="#FEFFDD" style="stroke:#181818;stroke-width:0.5;"/>
    <text fill="#000000" font-family="sans-serif" font-size="13" lengthAdjust="spacing" textLength="233.981" x="116.542" y="121.9575">Payer FSP sends bulk quote request</text>
    <text fill="#000000" font-family="sans-serif" font-size="13" lengthAdjust="spacing" textLength="180.3623" x="116.542" y="137.0903">to Payee FSP via the Switch</text>
    <polygon fill="#181818" points="338.709,167.2891,348.709,171.2891,338.709,171.2891" style="stroke:#181818;stroke-width:1.0;"/>
    <line style="stroke:#181818;stroke-width:1.0;" x1="125.7539" x2="349.709" y1="171.2891" y2="171.2891"/>
    <text fill="#000000" font-family="sans-serif" font-size="13" font-weight="bold" lengthAdjust="spacing" textLength="9.0454" x="132.7539" y="166.2231">1</text>
    <text fill="#000000" font-family="sans-serif" font-size="13" lengthAdjust="spacing" textLength="116.7017" x="145.7993" y="166.2231">POST /bulkQuotes</text>
    <path d="M355,184.2891 L355,254.2891 L602,254.2891 L602,194.2891 L592,184.2891 L355,184.2891 " fill="#AAAAAA" style="stroke:#181818;stroke-width:0.5;"/>
    <path d="M592,184.2891 L592,194.2891 L602,194.2891 L592,184.2891 " fill="#AAAAAA" style="stroke:#181818;stroke-width:0.5;"/>
    <text fill="#000000" font-family="sans-serif" font-size="13" lengthAdjust="spacing" textLength="159.269" x="361" y="201.356">Validate request against</text>
    <text fill="#000000" font-family="sans-serif" font-size="13" lengthAdjust="spacing" textLength="206.7495" x="361" y="216.4888">Mojaloop interface specification</text>
    <text fill="#FF0000" font-family="sans-serif" font-size="13" font-weight="bold" lengthAdjust="spacing" textLength="166.5625" x="361" y="231.6216">Error code: 300x, 310x</text>
    <text fill="#FF0000" font-family="sans-serif" font-size="13" font-weight="bold" lengthAdjust="spacing" textLength="226.0146" x="361" y="246.7544">HTTP error response code: 4xx</text>
    <line style="stroke:#181818;stroke-width:1.0;" x1="350.709" x2="392.709" y1="280.9531" y2="280.9531"/>
    <line style="stroke:#181818;stroke-width:1.0;" x1="392.709" x2="392.709" y1="280.9531" y2="293.9531"/>
    <line style="stroke:#181818;stroke-width:1.0;" x1="351.709" x2="392.709" y1="293.9531" y2="293.9531"/>
    <polygon fill="#181818" points="361.709,289.9531,351.709,293.9531,361.709,297.9531,357.709,293.9531" style="stroke:#181818;stroke-width:1.0;"/>
    <text fill="#000000" font-family="sans-serif" font-size="13" font-weight="bold" lengthAdjust="spacing" textLength="9.0454" x="357.709" y="275.8872">2</text>
    <text fill="#000000" font-family="sans-serif" font-size="13" lengthAdjust="spacing" textLength="120.4023" x="370.7544" y="275.8872">Schema validation</text>
    <polygon fill="#181818" points="136.7539,323.0859,126.7539,323.0859,136.7539,327.0859" style="stroke:#181818;stroke-width:1.0;"/>
    <line style="stroke:#181818;stroke-width:1.0;stroke-dasharray:2.0,2.0;" x1="125.7539" x2="349.709" y1="323.0859" y2="323.0859"/>
    <text fill="#000000" font-family="sans-serif" font-size="13" font-weight="bold" lengthAdjust="spacing" textLength="9.0454" x="142.7539" y="318.02">3</text>
    <text fill="#000000" font-family="sans-serif" font-size="13" lengthAdjust="spacing" textLength="89.7305" x="155.7993" y="318.02">202 Accepted</text>
    <line style="stroke:#181818;stroke-width:1.0;" x1="350.709" x2="392.709" y1="377.2188" y2="377.2188"/>
    <line style="stroke:#181818;stroke-width:1.0;" x1="392.709" x2="392.709" y1="377.2188" y2="390.2188"/>
    <line style="stroke:#181818;stroke-width:1.0;" x1="351.709" x2="392.709" y1="390.2188" y2="390.2188"/>
    <polygon fill="#181818" points="361.709,386.2188,351.709,390.2188,361.709,394.2188,357.709,390.2188" style="stroke:#181818;stroke-width:1.0;"/>
    <text fill="#000000" font-family="sans-serif" font-size="13" font-weight="bold" lengthAdjust="spacing" textLength="9.0454" x="357.709" y="372.1528">4</text>
    <text fill="#000000" font-family="sans-serif" font-size="13" lengthAdjust="spacing" textLength="317.1416" x="370.7544" y="372.1528">Bulk Quote request validation (rules engine etc.)</text>
    <line style="stroke:#181818;stroke-width:1.0;" x1="350.709" x2="392.709" y1="444.3516" y2="444.3516"/>
    <line style="stroke:#181818;stroke-width:1.0;" x1="392.709" x2="392.709" y1="444.3516" y2="457.3516"/>
    <line style="stroke:#181818;stroke-width:1.0;" x1="351.709" x2="392.709" y1="457.3516" y2="457.3516"/>
    <polygon fill="#181818" points="361.709,453.3516,351.709,457.3516,361.709,461.3516,357.709,457.3516" style="stroke:#181818;stroke-width:1.0;"/>
    <text fill="#000000" font-family="sans-serif" font-size="13" font-weight="bold" lengthAdjust="spacing" textLength="9.0454" x="357.709" y="439.2856">5</text>
    <text fill="#000000" font-family="sans-serif" font-size="13" lengthAdjust="spacing" textLength="104.127" x="370.7544" y="439.2856">Duplicate check</text>
    <path d="M63,497.3516 L127.4429,497.3516 L127.4429,504.4844 L117.4429,514.4844 L63,514.4844 L63,497.3516 " fill="#EEEEEE" style="stroke:#000000;stroke-width:1.5;"/>
    <rect fill="none" height="232.6016" style="stroke:#000000;stroke-width:1.5;" width="525.8501" x="63" y="497.3516"/>
    <text fill="#000000" font-family="sans-serif" font-size="13" font-weight="bold" lengthAdjust="spacing" textLength="19.4429" x="78" y="510.4185">alt</text>
    <text fill="#000000" font-family="sans-serif" font-size="11" font-weight="bold" lengthAdjust="spacing" textLength="254.9175" x="142.4429" y="509.562">[Request is a duplicate but not a resend]</text>
    <path d="M73,544.4844 L73,584.4844 L345,584.4844 L345,554.4844 L335,544.4844 L73,544.4844 " fill="#FEFFDD" style="stroke:#181818;stroke-width:0.5;"/>
    <path d="M335,544.4844 L335,554.4844 L345,554.4844 L335,544.4844 " fill="#FEFFDD" style="stroke:#181818;stroke-width:0.5;"/>
    <text fill="#000000" font-family="sans-serif" font-size="13" lengthAdjust="spacing" textLength="251.1514" x="79" y="561.5513">Switch returns error back to Payer FSP</text>
    <text fill="#FF0000" font-family="sans-serif" font-size="13" font-weight="bold" lengthAdjust="spacing" textLength="122.2368" x="79" y="576.6841">Error code: 3106</text>
    <polygon fill="#181818" points="136.7539,606.8828,126.7539,610.8828,136.7539,610.8828" style="stroke:#181818;stroke-width:1.0;"/>
    <line style="stroke:#181818;stroke-width:1.0;" x1="125.7539" x2="349.709" y1="610.8828" y2="610.8828"/>
    <text fill="#000000" font-family="sans-serif" font-size="13" font-weight="bold" lengthAdjust="spacing" textLength="9.0454" x="142.7539" y="605.8169">6</text>
    <text fill="#000000" font-family="sans-serif" font-size="13" lengthAdjust="spacing" textLength="178.8643" x="155.7993" y="605.8169">PUT /bulkQuotes/{ID}/error</text>
    <polygon fill="#181818" points="338.709,640.0156,348.709,640.0156,338.709,644.0156" style="stroke:#181818;stroke-width:1.0;"/>
    <line style="stroke:#181818;stroke-width:1.0;stroke-dasharray:2.0,2.0;" x1="125.7539" x2="349.709" y1="640.0156" y2="640.0156"/>
    <text fill="#000000" font-family="sans-serif" font-size="13" font-weight="bold" lengthAdjust="spacing" textLength="9.0454" x="132.7539" y="634.9497">7</text>
    <text fill="#000000" font-family="sans-serif" font-size="13" lengthAdjust="spacing" textLength="47.7026" x="145.7993" y="634.9497">200 OK</text>
    <line style="stroke:#000000;stroke-width:1.0;stroke-dasharray:2.0,2.0;" x1="63" x2="588.8501" y1="674.0156" y2="674.0156"/>
    <text fill="#000000" font-family="sans-serif" font-size="11" font-weight="bold" lengthAdjust="spacing" textLength="232.606" x="68" y="684.2261">[Request is a duplicate and a resend]</text>
    <line style="stroke:#181818;stroke-width:1.0;" x1="350.709" x2="392.709" y1="708.9531" y2="708.9531"/>
    <line style="stroke:#181818;stroke-width:1.0;" x1="392.709" x2="392.709" y1="708.9531" y2="721.9531"/>
    <line style="stroke:#181818;stroke-width:1.0;" x1="351.709" x2="392.709" y1="721.9531" y2="721.9531"/>
    <polygon fill="#181818" points="361.709,717.9531,351.709,721.9531,361.709,725.9531,357.709,721.9531" style="stroke:#181818;stroke-width:1.0;"/>
    <text fill="#000000" font-family="sans-serif" font-size="13" font-weight="bold" lengthAdjust="spacing" textLength="9.0454" x="357.709" y="703.8872">8</text>
    <text fill="#000000" font-family="sans-serif" font-size="13" lengthAdjust="spacing" textLength="206.0957" x="370.7544" y="703.8872">Switch handles resend scenario</text>
    <line style="stroke:#181818;stroke-width:1.0;" x1="350.709" x2="392.709" y1="798.2188" y2="798.2188"/>
    <line style="stroke:#181818;stroke-width:1.0;" x1="392.709" x2="392.709" y1="798.2188" y2="811.2188"/>
    <line style="stroke:#181818;stroke-width:1.0;" x1="351.709" x2="392.709" y1="811.2188" y2="811.2188"/>
    <polygon fill="#181818" points="361.709,807.2188,351.709,811.2188,361.709,815.2188,357.709,811.2188" style="stroke:#181818;stroke-width:1.0;"/>
    <text fill="#000000" font-family="sans-serif" font-size="13" font-weight="bold" lengthAdjust="spacing" textLength="9.0454" x="357.709" y="785.5864">9</text>
    <text fill="#000000" font-family="sans-serif" font-size="13" lengthAdjust="spacing" textLength="267.6997" x="370.7544" y="778.02">Use fspiop-destination header to retrieve</text>
    <text fill="#000000" font-family="sans-serif" font-size="13" lengthAdjust="spacing" textLength="241.1982" x="374.8867" y="793.1528">bulk quotes endpoint for Payee DFSP</text>
    <path d="M9,826.2188 L73.4429,826.2188 L73.4429,833.3516 L63.4429,843.3516 L9,843.3516 L9,826.2188 " fill="#EEEEEE" style="stroke:#000000;stroke-width:1.5;"/>
    <rect fill="none" height="957.5938" style="stroke:#000000;stroke-width:1.5;" width="979.541" x="9" y="826.2188"/>
    <text fill="#000000" font-family="sans-serif" font-size="13" font-weight="bold" lengthAdjust="spacing" textLength="19.4429" x="24" y="839.2856">alt</text>
    <text fill="#000000" font-family="sans-serif" font-size="11" font-weight="bold" lengthAdjust="spacing" textLength="223.604" x="88.4429" y="838.4292">[Payee bulk quotes endpoint found]</text>
    <path d="M355,848.3516 L355,873.3516 L695,873.3516 L695,858.3516 L685,848.3516 L355,848.3516 " fill="#FEFFDD" style="stroke:#181818;stroke-width:0.5;"/>
    <path d="M685,848.3516 L685,858.3516 L695,858.3516 L685,848.3516 " fill="#FEFFDD" style="stroke:#181818;stroke-width:0.5;"/>
    <text fill="#000000" font-family="sans-serif" font-size="13" lengthAdjust="spacing" textLength="319.7378" x="361" y="865.4185">Switch forwards bulk quote request to Payee FSP</text>
    <polygon fill="#181818" points="682.896,895.6172,692.896,899.6172,682.896,899.6172" style="stroke:#181818;stroke-width:1.0;"/>
    <line style="stroke:#181818;stroke-width:1.0;" x1="350.709" x2="693.896" y1="899.6172" y2="899.6172"/>
    <text fill="#000000" font-family="sans-serif" font-size="13" font-weight="bold" lengthAdjust="spacing" textLength="18.0908" x="357.709" y="894.5513">10</text>
    <text fill="#000000" font-family="sans-serif" font-size="13" lengthAdjust="spacing" textLength="116.7017" x="379.7998" y="894.5513">POST /bulkQuotes</text>
    <polygon fill="#181818" points="361.709,928.75,351.709,928.75,361.709,932.75" style="stroke:#181818;stroke-width:1.0;"/>
    <line style="stroke:#181818;stroke-width:1.0;stroke-dasharray:2.0,2.0;" x1="350.709" x2="693.896" y1="928.75" y2="928.75"/>
    <text fill="#000000" font-family="sans-serif" font-size="13" font-weight="bold" lengthAdjust="spacing" textLength="18.0908" x="367.709" y="923.6841">11</text>
    <text fill="#000000" font-family="sans-serif" font-size="13" lengthAdjust="spacing" textLength="47.7026" x="389.7998" y="923.6841">202 OK</text>
    <line style="stroke:#181818;stroke-width:1.0;" x1="694.896" x2="736.896" y1="973.0156" y2="973.0156"/>
    <line style="stroke:#181818;stroke-width:1.0;" x1="736.896" x2="736.896" y1="973.0156" y2="986.0156"/>
    <line style="stroke:#181818;stroke-width:1.0;" x1="695.896" x2="736.896" y1="986.0156" y2="986.0156"/>
    <polygon fill="#181818" points="705.896,982.0156,695.896,986.0156,705.896,990.0156,701.896,986.0156" style="stroke:#181818;stroke-width:1.0;"/>
    <text fill="#000000" font-family="sans-serif" font-size="13" font-weight="bold" lengthAdjust="spacing" textLength="18.0908" x="701.896" y="960.3833">12</text>
    <text fill="#000000" font-family="sans-serif" font-size="13" lengthAdjust="spacing" textLength="252.5542" x="723.9868" y="952.8169">Payee FSP calculates individual quotes</text>
    <text fill="#000000" font-family="sans-serif" font-size="13" lengthAdjust="spacing" textLength="246.6191" x="723.9868" y="967.9497">and responds with a bulk quote result</text>
    <path d="M19,1001.0156 L83.4429,1001.0156 L83.4429,1008.1484 L73.4429,1018.1484 L19,1018.1484 L19,1001.0156 " fill="#EEEEEE" style="stroke:#000000;stroke-width:1.5;"/>
    <rect fill="none" height="652.4609" style="stroke:#000000;stroke-width:1.5;" width="755.1313" x="19" y="1001.0156"/>
    <text fill="#000000" font-family="sans-serif" font-size="13" font-weight="bold" lengthAdjust="spacing" textLength="19.4429" x="34" y="1014.0825">alt</text>
    <text fill="#000000" font-family="sans-serif" font-size="11" font-weight="bold" lengthAdjust="spacing" textLength="261.6851" x="98.4429" y="1013.2261">[Payee bulkQuotes processing successful]</text>
    <path d="M280,1023.1484 L280,1048.1484 L764,1048.1484 L764,1033.1484 L754,1023.1484 L280,1023.1484 " fill="#FEFFDD" style="stroke:#181818;stroke-width:0.5;"/>
    <path d="M754,1023.1484 L754,1033.1484 L764,1033.1484 L754,1023.1484 " fill="#FEFFDD" style="stroke:#181818;stroke-width:0.5;"/>
    <text fill="#000000" font-family="sans-serif" font-size="13" lengthAdjust="spacing" textLength="463.1313" x="286" y="1040.2153">Payee FSP sends bulk quote response back to Payer FSP via the Switch</text>
    <polygon fill="#181818" points="361.709,1070.4141,351.709,1074.4141,361.709,1074.4141" style="stroke:#181818;stroke-width:1.0;"/>
    <line style="stroke:#181818;stroke-width:1.0;" x1="350.709" x2="693.896" y1="1074.4141" y2="1074.4141"/>
    <text fill="#000000" font-family="sans-serif" font-size="13" font-weight="bold" lengthAdjust="spacing" textLength="18.0908" x="367.709" y="1069.3481">13</text>
    <text fill="#000000" font-family="sans-serif" font-size="13" lengthAdjust="spacing" textLength="142.4985" x="389.7998" y="1069.3481">PUT /bulkQuotes/{ID}</text>
    <polygon fill="#181818" points="682.896,1103.5469,692.896,1103.5469,682.896,1107.5469" style="stroke:#181818;stroke-width:1.0;"/>
    <line style="stroke:#181818;stroke-width:1.0;stroke-dasharray:2.0,2.0;" x1="350.709" x2="693.896" y1="1103.5469" y2="1103.5469"/>
    <text fill="#000000" font-family="sans-serif" font-size="13" font-weight="bold" lengthAdjust="spacing" textLength="18.0908" x="357.709" y="1098.481">14</text>
    <text fill="#000000" font-family="sans-serif" font-size="13" lengthAdjust="spacing" textLength="47.7026" x="379.7998" y="1098.481">200 OK</text>
    <line style="stroke:#181818;stroke-width:1.0;" x1="350.709" x2="392.709" y1="1132.6797" y2="1132.6797"/>
    <line style="stroke:#181818;stroke-width:1.0;" x1="392.709" x2="392.709" y1="1132.6797" y2="1145.6797"/>
    <line style="stroke:#181818;stroke-width:1.0;" x1="351.709" x2="392.709" y1="1145.6797" y2="1145.6797"/>
    <polygon fill="#181818" points="361.709,1141.6797,351.709,1145.6797,361.709,1149.6797,357.709,1145.6797" style="stroke:#181818;stroke-width:1.0;"/>
    <text fill="#000000" font-family="sans-serif" font-size="13" font-weight="bold" lengthAdjust="spacing" textLength="18.0908" x="357.709" y="1127.6138">15</text>
    <text fill="#000000" font-family="sans-serif" font-size="13" lengthAdjust="spacing" textLength="190.2964" x="379.7998" y="1127.6138">Validate bulk quote response</text>
    <line style="stroke:#181818;stroke-width:1.0;" x1="350.709" x2="392.709" y1="1174.8125" y2="1174.8125"/>
    <line style="stroke:#181818;stroke-width:1.0;" x1="392.709" x2="392.709" y1="1174.8125" y2="1187.8125"/>
    <line style="stroke:#181818;stroke-width:1.0;" x1="351.709" x2="392.709" y1="1187.8125" y2="1187.8125"/>
    <polygon fill="#181818" points="361.709,1183.8125,351.709,1187.8125,361.709,1191.8125,357.709,1187.8125" style="stroke:#181818;stroke-width:1.0;"/>
    <text fill="#000000" font-family="sans-serif" font-size="13" font-weight="bold" lengthAdjust="spacing" textLength="18.0908" x="357.709" y="1169.7466">16</text>
    <text fill="#000000" font-family="sans-serif" font-size="13" lengthAdjust="spacing" textLength="104.127" x="379.7998" y="1169.7466">Duplicate check</text>
    <path d="M272.353,1202.8125 L336.7959,1202.8125 L336.7959,1209.9453 L326.7959,1219.9453 L272.353,1219.9453 L272.353,1202.8125 " fill="#EEEEEE" style="stroke:#000000;stroke-width:1.5;"/>
    <rect fill="none" height="75.3984" style="stroke:#000000;stroke-width:1.5;" width="475.7256" x="272.353" y="1202.8125"/>
    <text fill="#000000" font-family="sans-serif" font-size="13" font-weight="bold" lengthAdjust="spacing" textLength="19.4429" x="287.353" y="1215.8794">alt</text>
    <text fill="#000000" font-family="sans-serif" font-size="11" font-weight="bold" lengthAdjust="spacing" textLength="252.5112" x="351.7959" y="1215.0229">[Response is duplicate but not a resend]</text>
    <polygon fill="#181818" points="682.896,1237.0781,692.896,1241.0781,682.896,1241.0781" style="stroke:#181818;stroke-width:1.0;"/>
    <line style="stroke:#181818;stroke-width:1.0;" x1="350.709" x2="693.896" y1="1241.0781" y2="1241.0781"/>
    <text fill="#000000" font-family="sans-serif" font-size="13" font-weight="bold" lengthAdjust="spacing" textLength="18.0908" x="357.709" y="1236.0122">17</text>
    <text fill="#000000" font-family="sans-serif" font-size="13" lengthAdjust="spacing" textLength="178.8643" x="379.7998" y="1236.0122">PUT /bulkQuotes/{ID}/error</text>
    <polygon fill="#181818" points="361.709,1270.2109,351.709,1270.2109,361.709,1274.2109" style="stroke:#181818;stroke-width:1.0;"/>
    <line style="stroke:#181818;stroke-width:1.0;stroke-dasharray:2.0,2.0;" x1="350.709" x2="693.896" y1="1270.2109" y2="1270.2109"/>
    <text fill="#000000" font-family="sans-serif" font-size="13" font-weight="bold" lengthAdjust="spacing" textLength="18.0908" x="367.709" y="1265.145">18</text>
    <text fill="#000000" font-family="sans-serif" font-size="13" lengthAdjust="spacing" textLength="47.7026" x="389.7998" y="1265.145">200 OK</text>
    <path d="M272.353,1292.2109 L336.7959,1292.2109 L336.7959,1299.3438 L326.7959,1309.3438 L272.353,1309.3438 L272.353,1292.2109 " fill="#EEEEEE" style="stroke:#000000;stroke-width:1.5;"/>
    <rect fill="none" height="59.2656" style="stroke:#000000;stroke-width:1.5;" width="325.895" x="272.353" y="1292.2109"/>
    <text fill="#000000" font-family="sans-serif" font-size="13" font-weight="bold" lengthAdjust="spacing" textLength="19.4429" x="287.353" y="1305.2778">alt</text>
    <text fill="#000000" font-family="sans-serif" font-size="11" font-weight="bold" lengthAdjust="spacing" textLength="241.4521" x="351.7959" y="1304.4214">[Response is a duplicate and a resend]</text>
    <line style="stroke:#181818;stroke-width:1.0;" x1="350.709" x2="392.709" y1="1330.4766" y2="1330.4766"/>
    <line style="stroke:#181818;stroke-width:1.0;" x1="392.709" x2="392.709" y1="1330.4766" y2="1343.4766"/>
    <line style="stroke:#181818;stroke-width:1.0;" x1="351.709" x2="392.709" y1="1343.4766" y2="1343.4766"/>
    <polygon fill="#181818" points="361.709,1339.4766,351.709,1343.4766,361.709,1347.4766,357.709,1343.4766" style="stroke:#181818;stroke-width:1.0;"/>
    <text fill="#000000" font-family="sans-serif" font-size="13" font-weight="bold" lengthAdjust="spacing" textLength="18.0908" x="357.709" y="1325.4106">19</text>
    <text fill="#000000" font-family="sans-serif" font-size="13" lengthAdjust="spacing" textLength="206.0957" x="379.7998" y="1325.4106">Switch handles resend scenario</text>
    <path d="M29,1363.4766 L29,1388.4766 L344,1388.4766 L344,1373.4766 L334,1363.4766 L29,1363.4766 " fill="#FEFFDD" style="stroke:#181818;stroke-width:0.5;"/>
    <path d="M334,1363.4766 L334,1373.4766 L344,1373.4766 L334,1363.4766 " fill="#FEFFDD" style="stroke:#181818;stroke-width:0.5;"/>
    <text fill="#000000" font-family="sans-serif" font-size="13" lengthAdjust="spacing" textLength="294.9502" x="35" y="1380.5435">Switch forwards quote response to Payer FSP</text>
    <polygon fill="#181818" points="136.7539,1410.7422,126.7539,1414.7422,136.7539,1414.7422" style="stroke:#181818;stroke-width:1.0;"/>
    <line style="stroke:#181818;stroke-width:1.0;" x1="125.7539" x2="349.709" y1="1414.7422" y2="1414.7422"/>
    <text fill="#000000" font-family="sans-serif" font-size="13" font-weight="bold" lengthAdjust="spacing" textLength="18.0908" x="142.7539" y="1409.6763">20</text>
    <text fill="#000000" font-family="sans-serif" font-size="13" lengthAdjust="spacing" textLength="142.4985" x="164.8447" y="1409.6763">PUT /bulkQuotes/{ID}</text>
    <polygon fill="#181818" points="338.709,1443.875,348.709,1443.875,338.709,1447.875" style="stroke:#181818;stroke-width:1.0;"/>
    <line style="stroke:#181818;stroke-width:1.0;stroke-dasharray:2.0,2.0;" x1="125.7539" x2="349.709" y1="1443.875" y2="1443.875"/>
    <text fill="#000000" font-family="sans-serif" font-size="13" font-weight="bold" lengthAdjust="spacing" textLength="18.0908" x="132.7539" y="1438.8091">21</text>
    <text fill="#000000" font-family="sans-serif" font-size="13" lengthAdjust="spacing" textLength="47.7026" x="154.8447" y="1438.8091">200 OK</text>
    <line style="stroke:#000000;stroke-width:1.0;stroke-dasharray:2.0,2.0;" x1="19" x2="774.1313" y1="1452.875" y2="1452.875"/>
    <text fill="#000000" font-family="sans-serif" font-size="11" font-weight="bold" lengthAdjust="spacing" textLength="308.9023" x="24" y="1463.0854">[Payee rejects bulk quote or encounters an error]</text>
    <path d="M284,1471.6797 L284,1496.6797 L689,1496.6797 L689,1481.6797 L679,1471.6797 L284,1471.6797 " fill="#FEFFDD" style="stroke:#181818;stroke-width:0.5;"/>
    <path d="M679,1471.6797 L679,1481.6797 L689,1481.6797 L679,1471.6797 " fill="#FEFFDD" style="stroke:#181818;stroke-width:0.5;"/>
    <text fill="#000000" font-family="sans-serif" font-size="13" lengthAdjust="spacing" textLength="384.687" x="290" y="1488.7466">Payee FSP sends error callback to Payer FSP via the Switch</text>
    <polygon fill="#181818" points="361.709,1518.9453,351.709,1522.9453,361.709,1522.9453" style="stroke:#181818;stroke-width:1.0;"/>
    <line style="stroke:#181818;stroke-width:1.0;" x1="350.709" x2="693.896" y1="1522.9453" y2="1522.9453"/>
    <text fill="#000000" font-family="sans-serif" font-size="13" font-weight="bold" lengthAdjust="spacing" textLength="18.0908" x="367.709" y="1517.8794">22</text>
    <text fill="#000000" font-family="sans-serif" font-size="13" lengthAdjust="spacing" textLength="178.8643" x="389.7998" y="1517.8794">PUT /bulkQuotes/{ID}/error</text>
    <polygon fill="#181818" points="682.896,1552.0781,692.896,1552.0781,682.896,1556.0781" style="stroke:#181818;stroke-width:1.0;"/>
    <line style="stroke:#181818;stroke-width:1.0;stroke-dasharray:2.0,2.0;" x1="350.709" x2="693.896" y1="1552.0781" y2="1552.0781"/>
    <text fill="#000000" font-family="sans-serif" font-size="13" font-weight="bold" lengthAdjust="spacing" textLength="18.0908" x="357.709" y="1547.0122">23</text>
    <text fill="#000000" font-family="sans-serif" font-size="13" lengthAdjust="spacing" textLength="47.7026" x="379.7998" y="1547.0122">200 OK</text>
    <path d="M41,1565.0781 L41,1590.0781 L345,1590.0781 L345,1575.0781 L335,1565.0781 L41,1565.0781 " fill="#FEFFDD" style="stroke:#181818;stroke-width:0.5;"/>
    <path d="M335,1565.0781 L335,1575.0781 L345,1575.0781 L335,1565.0781 " fill="#FEFFDD" style="stroke:#181818;stroke-width:0.5;"/>
    <text fill="#000000" font-family="sans-serif" font-size="13" lengthAdjust="spacing" textLength="283.2959" x="47" y="1582.145">Switch forwards error callback to Payer FSP</text>
    <polygon fill="#181818" points="136.7539,1612.3438,126.7539,1616.3438,136.7539,1616.3438" style="stroke:#181818;stroke-width:1.0;"/>
    <line style="stroke:#181818;stroke-width:1.0;" x1="125.7539" x2="349.709" y1="1616.3438" y2="1616.3438"/>
    <text fill="#000000" font-family="sans-serif" font-size="13" font-weight="bold" lengthAdjust="spacing" textLength="18.0908" x="142.7539" y="1611.2778">24</text>
    <text fill="#000000" font-family="sans-serif" font-size="13" lengthAdjust="spacing" textLength="178.8643" x="164.8447" y="1611.2778">PUT /bulkQuotes/{ID}/error</text>
    <polygon fill="#181818" points="338.709,1645.4766,348.709,1645.4766,338.709,1649.4766" style="stroke:#181818;stroke-width:1.0;"/>
    <line style="stroke:#181818;stroke-width:1.0;stroke-dasharray:2.0,2.0;" x1="125.7539" x2="349.709" y1="1645.4766" y2="1645.4766"/>
    <text fill="#000000" font-family="sans-serif" font-size="13" font-weight="bold" lengthAdjust="spacing" textLength="18.0908" x="132.7539" y="1640.4106">25</text>
    <text fill="#000000" font-family="sans-serif" font-size="13" lengthAdjust="spacing" textLength="47.7026" x="154.8447" y="1640.4106">200 OK</text>
    <line style="stroke:#000000;stroke-width:1.0;stroke-dasharray:2.0,2.0;" x1="9" x2="988.541" y1="1661.4766" y2="1661.4766"/>
    <text fill="#000000" font-family="sans-serif" font-size="11" font-weight="bold" lengthAdjust="spacing" textLength="244.7876" x="14" y="1671.687">[Payee FSP quotes endpoint not found]</text>
    <path d="M35,1680.2813 L35,1720.2813 L344,1720.2813 L344,1690.2813 L334,1680.2813 L35,1680.2813 " fill="#FEFFDD" style="stroke:#181818;stroke-width:0.5;"/>
    <path d="M334,1680.2813 L334,1690.2813 L344,1690.2813 L334,1680.2813 " fill="#FEFFDD" style="stroke:#181818;stroke-width:0.5;"/>
    <text fill="#000000" font-family="sans-serif" font-size="13" lengthAdjust="spacing" textLength="284.8257" x="41" y="1697.3481">Switch sends an error callback to Payer FSP</text>
    <text fill="#000000" font-family="sans-serif" font-size="13" lengthAdjust="spacing" textLength="4.1323" x="41" y="1712.481"> </text>
    <text fill="#FF0000" font-family="sans-serif" font-size="13" font-weight="bold" lengthAdjust="spacing" textLength="122.2368" x="45.1323" y="1712.481">Error code: 3201</text>
    <polygon fill="#181818" points="136.7539,1742.6797,126.7539,1746.6797,136.7539,1746.6797" style="stroke:#181818;stroke-width:1.0;"/>
    <line style="stroke:#181818;stroke-width:1.0;" x1="125.7539" x2="349.709" y1="1746.6797" y2="1746.6797"/>
    <text fill="#000000" font-family="sans-serif" font-size="13" font-weight="bold" lengthAdjust="spacing" textLength="18.0908" x="142.7539" y="1741.6138">26</text>
    <text fill="#000000" font-family="sans-serif" font-size="13" lengthAdjust="spacing" textLength="178.8643" x="164.8447" y="1741.6138">PUT /bulkQuotes/{ID}/error</text>
    <polygon fill="#181818" points="338.709,1771.8125,348.709,1775.8125,338.709,1775.8125" style="stroke:#181818;stroke-width:1.0;"/>
    <line style="stroke:#181818;stroke-width:1.0;stroke-dasharray:2.0,2.0;" x1="125.7539" x2="349.709" y1="1775.8125" y2="1775.8125"/>
    <text fill="#000000" font-family="sans-serif" font-size="13" font-weight="bold" lengthAdjust="spacing" textLength="18.0908" x="132.7539" y="1770.7466">27</text>
    <text fill="#000000" font-family="sans-serif" font-size="13" lengthAdjust="spacing" textLength="47.7026" x="154.8447" y="1770.7466">200 OK</text>
  </g>
</svg>
