<svg xmlns="http://www.w3.org/2000/svg" xmlns:xlink="http://www.w3.org/1999/xlink" contentStyleType="text/css" height="714px" preserveAspectRatio="none" style="width:1584px;height:714px;background:#FFFFFF;" version="1.1" viewBox="0 0 1584 714" width="1584px" zoomAndPan="magnify">
  <title>Découverte — conversion de devises</title>
  <defs/>
  <g>
    <text fill="#000000" font-family="sans-serif" font-size="14" font-weight="bold" lengthAdjust="spacing" textLength="289.4541" x="654.575" y="27.9951">Découverte — conversion de devises</text>
    <rect fill="#ADD8E6" height="665.5156" style="stroke:#181818;stroke-width:0.5;" width="111.6055" x="328.4473" y="43.2969"/>
    <text fill="#000000" font-family="sans-serif" font-size="13" font-weight="bold" lengthAdjust="spacing" textLength="94.123" x="337.1885" y="55.3638">DFSP payeur</text>
    <rect fill="#ADD8E6" height="665.5156" style="stroke:#181818;stroke-width:0.5;" width="170.5996" x="1014.4551" y="43.2969"/>
    <text fill="#000000" font-family="sans-serif" font-size="13" font-weight="bold" lengthAdjust="spacing" textLength="130.0127" x="1034.7485" y="55.3638">DFSP bénéficiaire</text>
    <rect fill="#FFFFFF" height="44.2656" style="stroke:#181818;stroke-width:1.0;" width="10" x="379.25" y="164.8594"/>
    <rect fill="#FFFFFF" height="44.2656" style="stroke:#181818;stroke-width:1.0;" width="10" x="379.25" y="538.1172"/>
    <rect fill="#FFFFFF" height="86.3984" style="stroke:#181818;stroke-width:1.0;" width="10" x="740.6968" y="209.125"/>
    <rect fill="#FFFFFF" height="100.2305" style="stroke:#181818;stroke-width:1.0;" width="10" x="740.6968" y="437.8867"/>
    <rect fill="#FFFFFF" height="142.3633" style="stroke:#181818;stroke-width:1.0;" width="10" x="1094.7549" y="295.5234"/>
    <line style="stroke:#181818;stroke-width:0.5;stroke-dasharray:5.0,5.0;" x1="23" x2="23" y1="118.5938" y2="629.5156"/>
    <line style="stroke:#181818;stroke-width:0.5;stroke-dasharray:5.0,5.0;" x1="383.4473" x2="383.4473" y1="118.5938" y2="629.5156"/>
    <line style="stroke:#181818;stroke-width:0.5;stroke-dasharray:5.0,5.0;" x1="745.3169" x2="745.3169" y1="118.5938" y2="629.5156"/>
    <line style="stroke:#181818;stroke-width:0.5;stroke-dasharray:5.0,5.0;" x1="1099.4551" x2="1099.4551" y1="118.5938" y2="629.5156"/>
    <text fill="#000000" font-family="sans-serif" font-size="14" lengthAdjust="spacing" textLength="30.4404" x="5" y="115.292">John</text>
    <ellipse cx="23.2202" cy="50.7969" fill="#E2E2F0" rx="8" ry="8" style="stroke:#181818;stroke-width:0.5;"/>
    <path d="M23.2202,58.7969 L23.2202,85.7969 M10.2202,66.7969 L36.2202,66.7969 M23.2202,85.7969 L10.2202,100.7969 M23.2202,85.7969 L36.2202,100.7969 " fill="none" style="stroke:#181818;stroke-width:0.5;"/>
    <text fill="#000000" font-family="sans-serif" font-size="14" lengthAdjust="spacing" textLength="30.4404" x="5" y="641.5107">John</text>
    <ellipse cx="23.2202" cy="653.3125" fill="#E2E2F0" rx="8" ry="8" style="stroke:#181818;stroke-width:0.5;"/>
    <path d="M23.2202,661.3125 L23.2202,688.3125 M10.2202,669.3125 L36.2202,669.3125 M23.2202,688.3125 L10.2202,703.3125 M23.2202,688.3125 L36.2202,703.3125 " fill="none" style="stroke:#181818;stroke-width:0.5;"/>
    <rect fill="#E2E2F0" height="30.2969" rx="2.5" ry="2.5" style="stroke:#181818;stroke-width:0.5;" width="103.6055" x="332.4473" y="87.2969"/>
    <text fill="#000000" font-family="sans-serif" font-size="14" lengthAdjust="spacing" textLength="89.6055" x="339.4473" y="107.292">DFSP payeur</text>
    <rect fill="#E2E2F0" height="30.2969" rx="2.5" ry="2.5" style="stroke:#181818;stroke-width:0.5;" width="103.6055" x="332.4473" y="628.5156"/>
    <text fill="#000000" font-family="sans-serif" font-size="14" lengthAdjust="spacing" textLength="89.6055" x="339.4473" y="648.5107">DFSP payeur</text>
    <rect fill="#E2E2F0" height="30.2969" rx="2.5" ry="2.5" style="stroke:#181818;stroke-width:0.5;" width="178.7598" x="656.3169" y="87.2969"/>
    <text fill="#000000" font-family="sans-serif" font-size="14" lengthAdjust="spacing" textLength="164.7598" x="663.3169" y="107.292">Commutateur Mojaloop</text>
    <rect fill="#E2E2F0" height="30.2969" rx="2.5" ry="2.5" style="stroke:#181818;stroke-width:0.5;" width="178.7598" x="656.3169" y="628.5156"/>
    <text fill="#000000" font-family="sans-serif" font-size="14" lengthAdjust="spacing" textLength="164.7598" x="663.3169" y="648.5107">Commutateur Mojaloop</text>
    <rect fill="#E2E2F0" height="46.5938" rx="2.5" ry="2.5" style="stroke:#181818;stroke-width:0.5;" width="162.5996" x="1018.4551" y="71"/>
    <text fill="#000000" font-family="sans-serif" font-size="14" lengthAdjust="spacing" textLength="148.5996" x="1025.4551" y="90.9951">Connecteur Mojaloop</text>
    <text fill="#000000" font-family="sans-serif" font-size="14" lengthAdjust="spacing" textLength="82.2295" x="1058.6401" y="107.292">bénéficiaire</text>
    <rect fill="#E2E2F0" height="46.5938" rx="2.5" ry="2.5" style="stroke:#181818;stroke-width:0.5;" width="162.5996" x="1018.4551" y="628.5156"/>
    <text fill="#000000" font-family="sans-serif" font-size="14" lengthAdjust="spacing" textLength="148.5996" x="1025.4551" y="648.5107">Connecteur Mojaloop</text>
    <text fill="#000000" font-family="sans-serif" font-size="14" lengthAdjust="spacing" textLength="82.2295" x="1058.6401" y="664.8076">bénéficiaire</text>
    <rect fill="#FFFFFF" height="44.2656" style="stroke:#181818;stroke-width:1.0;" width="10" x="379.25" y="164.8594"/>
    <rect fill="#FFFFFF" height="44.2656" style="stroke:#181818;stroke-width:1.0;" width="10" x="379.25" y="538.1172"/>
    <rect fill="#FFFFFF" height="86.3984" style="stroke:#181818;stroke-width:1.0;" width="10" x="740.6968" y="209.125"/>
    <rect fill="#FFFFFF" height="100.2305" style="stroke:#181818;stroke-width:1.0;" width="10" x="740.6968" y="437.8867"/>
    <rect fill="#FFFFFF" height="142.3633" style="stroke:#181818;stroke-width:1.0;" width="10" x="1094.7549" y="295.5234"/>
    <polygon fill="#181818" points="367.25,160.8594,377.25,164.8594,367.25,168.8594,371.25,164.8594" style="stroke:#181818;stroke-width:1.0;"/>
    <line style="stroke:#181818;stroke-width:1.0;" x1="23.2202" x2="373.25" y1="164.8594" y2="164.8594"/>
    <text fill="#000000" font-family="sans-serif" font-size="13" font-weight="bold" lengthAdjust="spacing" textLength="9.0454" x="30.2202" y="152.2271">1</text>
    <text fill="#000000" font-family="sans-serif" font-size="13" lengthAdjust="spacing" textLength="146.5229" x="43.2656" y="144.6606">Je voudrais payer Yaro</text>
    <text fill="#000000" font-family="sans-serif" font-size="13" lengthAdjust="spacing" textLength="151.855" x="43.2656" y="159.7935">300 BWP, s&apos;il vous plaît</text>
    <line style="stroke:#181818;stroke-width:1.0;" x1="738.6968" x2="728.6968" y1="209.125" y2="205.125"/>
    <line style="stroke:#181818;stroke-width:1.0;" x1="738.6968" x2="728.6968" y1="209.125" y2="213.125"/>
    <line style="stroke:#181818;stroke-width:1.0;" x1="384.25" x2="739.6968" y1="209.125" y2="209.125"/>
    <text fill="#000000" font-family="sans-serif" font-size="13" font-weight="bold" lengthAdjust="spacing" textLength="9.0454" x="391.25" y="196.4927">2</text>
    <text fill="#000000" font-family="sans-serif" font-size="13" lengthAdjust="spacing" textLength="319.4014" x="404.2954" y="188.9263">Je veux envoyer vers le MSISDN 2551234567890</text>
    <text fill="#000000" font-family="sans-serif" font-size="13" font-weight="bold" lengthAdjust="spacing" textLength="274.6631" x="404.2954" y="204.0591">GET /parties/MSISDN/2551234567890</text>
    <line style="stroke:#181818;stroke-width:1.0;" x1="750.6968" x2="792.6968" y1="253.3906" y2="253.3906"/>
    <line style="stroke:#181818;stroke-width:1.0;" x1="792.6968" x2="792.6968" y1="253.3906" y2="266.3906"/>
    <line style="stroke:#181818;stroke-width:1.0;" x1="751.6968" x2="792.6968" y1="266.3906" y2="266.3906"/>
    <polygon fill="#181818" points="761.6968,262.3906,751.6968,266.3906,761.6968,270.3906,757.6968,266.3906" style="stroke:#181818;stroke-width:1.0;"/>
    <text fill="#000000" font-family="sans-serif" font-size="13" font-weight="bold" lengthAdjust="spacing" textLength="9.0454" x="757.6968" y="240.7583">3</text>
    <text fill="#000000" font-family="sans-serif" font-size="13" lengthAdjust="spacing" textLength="240.7539" x="770.7422" y="233.1919">Who owns MSISDN 2551234567890?</text>
    <text fill="#000000" font-family="sans-serif" font-size="13" lengthAdjust="spacing" textLength="86.4741" x="770.7422" y="248.3247">It&apos;s PayeeFSP</text>
    <line style="stroke:#181818;stroke-width:1.0;" x1="1092.7549" x2="1082.7549" y1="295.5234" y2="291.5234"/>
    <line style="stroke:#181818;stroke-width:1.0;" x1="1092.7549" x2="1082.7549" y1="295.5234" y2="299.5234"/>
    <line style="stroke:#181818;stroke-width:1.0;" x1="745.6968" x2="1093.7549" y1="295.5234" y2="295.5234"/>
    <text fill="#000000" font-family="sans-serif" font-size="13" font-weight="bold" lengthAdjust="spacing" textLength="9.0454" x="752.6968" y="290.4575">4</text>
    <text fill="#000000" font-family="sans-serif" font-size="13" lengthAdjust="spacing" textLength="312.0127" x="765.7422" y="290.4575">Le MSISDN 2551234567890 vous appartient-il ?</text>
    <line style="stroke:#181818;stroke-width:1.0;" x1="1104.7549" x2="1146.7549" y1="324.6563" y2="324.6563"/>
    <line style="stroke:#181818;stroke-width:1.0;" x1="1146.7549" x2="1146.7549" y1="324.6563" y2="337.6563"/>
    <line style="stroke:#181818;stroke-width:1.0;" x1="1105.7549" x2="1146.7549" y1="337.6563" y2="337.6563"/>
    <polygon fill="#181818" points="1115.7549,333.6563,1105.7549,337.6563,1115.7549,341.6563,1111.7549,337.6563" style="stroke:#181818;stroke-width:1.0;"/>
    <text fill="#000000" font-family="sans-serif" font-size="13" font-weight="bold" lengthAdjust="spacing" textLength="9.0454" x="1111.7549" y="319.5903">5</text>
    <text fill="#000000" font-family="sans-serif" font-size="13" lengthAdjust="spacing" textLength="452.8037" x="1124.8003" y="319.5903">Vérifier le statut de liste de sanctions et déclencher une actualisation</text>
    <line style="stroke:#181818;stroke-width:1.0;" x1="751.6968" x2="761.6968" y1="437.8867" y2="433.8867"/>
    <line style="stroke:#181818;stroke-width:1.0;" x1="751.6968" x2="761.6968" y1="437.8867" y2="441.8867"/>
    <line style="stroke:#181818;stroke-width:1.0;" x1="750.6968" x2="1098.7549" y1="437.8867" y2="437.8867"/>
    <text fill="#000000" font-family="sans-serif" font-size="13" font-weight="bold" lengthAdjust="spacing" textLength="9.0454" x="767.6968" y="425.2544">6</text>
    <text fill="#000000" font-family="sans-serif" font-size="13" lengthAdjust="spacing" textLength="250.5293" x="780.7422" y="417.688">Oui, c&apos;est Yaro. Il peut recevoir en TZS</text>
    <text fill="#000000" font-family="sans-serif" font-size="13" font-weight="bold" lengthAdjust="spacing" textLength="275.1963" x="780.7422" y="432.8208">PUT /parties/MSISDN/2551234567890</text>
    <path d="M1109,350.6563 L1109,496.6563 L1400,496.6563 L1400,360.6563 L1390,350.6563 L1109,350.6563 " fill="#FEFFDD" style="stroke:#181818;stroke-width:0.5;"/>
    <path d="M1390,350.6563 L1390,360.6563 L1400,360.6563 L1390,350.6563 " fill="#FEFFDD" style="stroke:#181818;stroke-width:0.5;"/>
    <text fill="#000000" font-family="sans-serif" font-size="13" font-weight="bold" lengthAdjust="spacing" textLength="89.9399" x="1115" y="367.7231">PUT /parties</text>
    <text fill="#000000" font-family="sans-serif" font-size="13" lengthAdjust="spacing" textLength="8.271" x="1115" y="382.856">{</text>
    <text fill="#000000" font-family="sans-serif" font-size="13" lengthAdjust="spacing" textLength="99.7852" x="1131.5293" y="397.9888">&quot;partyIdInfo&quot;: {</text>
    <text fill="#000000" font-family="sans-serif" font-size="13" lengthAdjust="spacing" textLength="166.1753" x="1148.0586" y="413.1216">&quot;partyIdType&quot;: &quot;MSISDN&quot;,</text>
    <text fill="#000000" font-family="sans-serif" font-size="13" lengthAdjust="spacing" textLength="237.0024" x="1148.0586" y="428.2544">&quot;partyIdentifier&quot;: &quot;2551234567890&quot;,</text>
    <text fill="#000000" font-family="sans-serif" font-size="13" lengthAdjust="spacing" textLength="139.585" x="1148.0586" y="443.3872">&quot;fspId&quot;: &quot;PayeeFSP&quot;},</text>
    <text fill="#000000" font-family="sans-serif" font-size="13" lengthAdjust="spacing" textLength="102.6353" x="1131.5293" y="458.52">&quot;name&quot;: &quot;Yaro&quot;,</text>
    <text fill="#000000" font-family="sans-serif" font-size="13" lengthAdjust="spacing" textLength="211.8721" x="1131.5293" y="473.6528">&quot;supportedCurrencies&quot;: [ &quot;TZS&quot; ]</text>
    <text fill="#000000" font-family="sans-serif" font-size="13" lengthAdjust="spacing" textLength="8.271" x="1115" y="488.7856">}</text>
    <line style="stroke:#181818;stroke-width:1.0;" x1="390.25" x2="400.25" y1="538.1172" y2="534.1172"/>
    <line style="stroke:#181818;stroke-width:1.0;" x1="390.25" x2="400.25" y1="538.1172" y2="542.1172"/>
    <line style="stroke:#181818;stroke-width:1.0;" x1="389.25" x2="744.6968" y1="538.1172" y2="538.1172"/>
    <text fill="#000000" font-family="sans-serif" font-size="13" font-weight="bold" lengthAdjust="spacing" textLength="9.0454" x="406.25" y="525.4849">7</text>
    <text fill="#000000" font-family="sans-serif" font-size="13" lengthAdjust="spacing" textLength="250.5293" x="419.2954" y="517.9185">Oui, c&apos;est Yaro. Il peut recevoir en TZS</text>
    <text fill="#000000" font-family="sans-serif" font-size="13" font-weight="bold" lengthAdjust="spacing" textLength="275.1963" x="419.2954" y="533.0513">PUT /parties/MSISDN/2551234567890</text>
    <polygon fill="#181818" points="34.2202,578.3828,24.2202,582.3828,34.2202,586.3828,30.2202,582.3828" style="stroke:#181818;stroke-width:1.0;"/>
    <line style="stroke:#181818;stroke-width:1.0;" x1="28.2202" x2="383.25" y1="582.3828" y2="582.3828"/>
    <text fill="#000000" font-family="sans-serif" font-size="13" font-weight="bold" lengthAdjust="spacing" textLength="9.0454" x="40.2202" y="569.7505">8</text>
    <text fill="#000000" font-family="sans-serif" font-size="13" lengthAdjust="spacing" textLength="283.0103" x="53.2656" y="562.1841">Bonjour, John : le numéro appartient à Yaro</text>
    <text fill="#000000" font-family="sans-serif" font-size="13" lengthAdjust="spacing" textLength="244.5562" x="53.2656" y="577.3169">Dites-moi si vous souhaitez continuer</text>
    <polygon fill="#181818" points="372.25,607.5156,382.25,611.5156,372.25,615.5156,376.25,611.5156" style="stroke:#181818;stroke-width:1.0;"/>
    <line style="stroke:#181818;stroke-width:1.0;" x1="23.2202" x2="378.25" y1="611.5156" y2="611.5156"/>
    <text fill="#000000" font-family="sans-serif" font-size="13" font-weight="bold" lengthAdjust="spacing" textLength="9.0454" x="30.2202" y="606.4497">9</text>
    <text fill="#000000" font-family="sans-serif" font-size="13" lengthAdjust="spacing" textLength="323.9844" x="43.2656" y="606.4497">Le payeur a accepté les informations sur la partie</text>
  </g>
</svg>
