<svg xmlns="http://www.w3.org/2000/svg" xmlns:xlink="http://www.w3.org/1999/xlink" contentStyleType="text/css" height="1029px" preserveAspectRatio="none" style="width:1245px;height:1029px;background:#FFFFFF;" version="1.1" viewBox="0 0 1245 1029" width="1245px" zoomAndPan="magnify">
  <title>Transaction Requests Service - Authorizations</title>
  <defs/>
  <g>
    <text fill="#000000" font-family="sans-serif" font-size="14" font-weight="bold" lengthAdjust="spacing" textLength="365.4355" x="441.1831" y="27.9951">Transaction Requests Service - Authorizations</text>
    <rect fill="none" height="646.4609" style="stroke:#000000;stroke-width:1.5;" width="1229.8018" x="9" y="314.8203"/>
    <line style="stroke:#181818;stroke-width:0.5;stroke-dasharray:5.0,5.0;" x1="91" x2="91" y1="89.8906" y2="978.2813"/>
    <line style="stroke:#181818;stroke-width:0.5;stroke-dasharray:5.0,5.0;" x1="465.293" x2="465.293" y1="89.8906" y2="978.2813"/>
    <line style="stroke:#181818;stroke-width:0.5;stroke-dasharray:5.0,5.0;" x1="974.3765" x2="974.3765" y1="89.8906" y2="978.2813"/>
    <rect fill="#E2E2F0" height="30.2969" rx="2.5" ry="2.5" style="stroke:#181818;stroke-width:0.5;" width="83.5078" x="50" y="58.5938"/>
    <text fill="#000000" font-family="sans-serif" font-size="14" lengthAdjust="spacing" textLength="69.5078" x="57" y="78.5889">Payer FSP</text>
    <rect fill="#E2E2F0" height="30.2969" rx="2.5" ry="2.5" style="stroke:#181818;stroke-width:0.5;" width="83.5078" x="50" y="977.2813"/>
    <text fill="#000000" font-family="sans-serif" font-size="14" lengthAdjust="spacing" textLength="69.5078" x="57" y="997.2764">Payer FSP</text>
    <rect fill="#E2E2F0" height="46.5938" rx="2.5" ry="2.5" style="stroke:#181818;stroke-width:0.5;" width="214.1563" x="358.293" y="42.2969"/>
    <text fill="#000000" font-family="sans-serif" font-size="14" lengthAdjust="spacing" textLength="46.2861" x="442.228" y="62.292">Switch</text>
    <text fill="#000000" font-family="sans-serif" font-size="14" lengthAdjust="spacing" textLength="200.1563" x="365.293" y="78.5889">transaction-requests-service</text>
    <rect fill="#E2E2F0" height="46.5938" rx="2.5" ry="2.5" style="stroke:#181818;stroke-width:0.5;" width="214.1563" x="358.293" y="977.2813"/>
    <text fill="#000000" font-family="sans-serif" font-size="14" lengthAdjust="spacing" textLength="46.2861" x="442.228" y="997.2764">Switch</text>
    <text fill="#000000" font-family="sans-serif" font-size="14" lengthAdjust="spacing" textLength="200.1563" x="365.293" y="1013.5732">transaction-requests-service</text>
    <rect fill="#E2E2F0" height="30.2969" rx="2.5" ry="2.5" style="stroke:#181818;stroke-width:0.5;" width="86.3652" x="931.3765" y="58.5938"/>
    <text fill="#000000" font-family="sans-serif" font-size="14" lengthAdjust="spacing" textLength="72.3652" x="938.3765" y="78.5889">Payee FSP</text>
    <rect fill="#E2E2F0" height="30.2969" rx="2.5" ry="2.5" style="stroke:#181818;stroke-width:0.5;" width="86.3652" x="931.3765" y="977.2813"/>
    <text fill="#000000" font-family="sans-serif" font-size="14" lengthAdjust="spacing" textLength="72.3652" x="938.3765" y="997.2764">Payee FSP</text>
    <line style="stroke:#181818;stroke-width:1.0;stroke-dasharray:2.0,2.0;" x1="974.5591" x2="1016.5591" y1="136.1563" y2="136.1563"/>
    <line style="stroke:#181818;stroke-width:1.0;stroke-dasharray:2.0,2.0;" x1="1016.5591" x2="1016.5591" y1="136.1563" y2="149.1563"/>
    <line style="stroke:#181818;stroke-width:1.0;stroke-dasharray:2.0,2.0;" x1="975.5591" x2="1016.5591" y1="149.1563" y2="149.1563"/>
    <polygon fill="#181818" points="984.5591,145.1563,974.5591,149.1563,984.5591,149.1563" style="stroke:#181818;stroke-width:1.0;"/>
    <text fill="#000000" font-family="sans-serif" font-size="13" font-weight="bold" lengthAdjust="spacing" textLength="9.0454" x="981.5591" y="123.5239">1</text>
    <text fill="#000000" font-family="sans-serif" font-size="13" lengthAdjust="spacing" textLength="189.6807" x="994.6045" y="115.9575">Lookup, Transaction request,</text>
    <text fill="#000000" font-family="sans-serif" font-size="13" lengthAdjust="spacing" textLength="175.4492" x="994.6045" y="131.0903">processing not shown here</text>
    <path d="M392,162.1563 L392,187.1563 L1046,187.1563 L1046,172.1563 L1036,162.1563 L392,162.1563 " fill="#FEFFDD" style="stroke:#181818;stroke-width:0.5;"/>
    <path d="M1036,162.1563 L1036,172.1563 L1046,172.1563 L1036,162.1563 " fill="#FEFFDD" style="stroke:#181818;stroke-width:0.5;"/>
    <text fill="#000000" font-family="sans-serif" font-size="13" lengthAdjust="spacing" textLength="392.3804" x="518.5342" y="179.2231">Payee FSP generates a transaction-request to the Payer FSP</text>
    <line style="stroke:#181818;stroke-width:1.0;stroke-dasharray:2.0,2.0;" x1="91.7539" x2="133.7539" y1="228.5547" y2="228.5547"/>
    <line style="stroke:#181818;stroke-width:1.0;stroke-dasharray:2.0,2.0;" x1="133.7539" x2="133.7539" y1="228.5547" y2="241.5547"/>
    <line style="stroke:#181818;stroke-width:1.0;stroke-dasharray:2.0,2.0;" x1="92.7539" x2="133.7539" y1="241.5547" y2="241.5547"/>
    <polygon fill="#181818" points="102.7539,237.5547,92.7539,241.5547,102.7539,245.5547,98.7539,241.5547" style="stroke:#181818;stroke-width:1.0;"/>
    <text fill="#000000" font-family="sans-serif" font-size="13" font-weight="bold" lengthAdjust="spacing" textLength="9.0454" x="98.7539" y="215.9224">2</text>
    <text fill="#000000" font-family="sans-serif" font-size="13" lengthAdjust="spacing" textLength="156.9395" x="111.7993" y="208.356">Do quote, generate OTP</text>
    <text fill="#000000" font-family="sans-serif" font-size="13" lengthAdjust="spacing" textLength="184.9072" x="111.7993" y="223.4888">notify user (not shown here)</text>
    <polygon fill="#181818" points="453.3711,266.6875,463.3711,270.6875,453.3711,270.6875" style="stroke:#181818;stroke-width:1.0;"/>
    <line style="stroke:#181818;stroke-width:1.0;" x1="91.7539" x2="464.3711" y1="270.6875" y2="270.6875"/>
    <text fill="#000000" font-family="sans-serif" font-size="13" font-weight="bold" lengthAdjust="spacing" textLength="9.0454" x="98.7539" y="265.6216">3</text>
    <text fill="#000000" font-family="sans-serif" font-size="13" lengthAdjust="spacing" textLength="292.0938" x="111.7993" y="265.6216">GET /authorizations/{TransactionRequestID}</text>
    <polygon fill="#181818" points="102.7539,299.8203,92.7539,299.8203,102.7539,303.8203" style="stroke:#181818;stroke-width:1.0;"/>
    <line style="stroke:#181818;stroke-width:1.0;stroke-dasharray:2.0,2.0;" x1="91.7539" x2="464.3711" y1="299.8203" y2="299.8203"/>
    <text fill="#000000" font-family="sans-serif" font-size="13" font-weight="bold" lengthAdjust="spacing" textLength="9.0454" x="108.7539" y="294.7544">4</text>
    <text fill="#000000" font-family="sans-serif" font-size="13" lengthAdjust="spacing" textLength="89.7305" x="121.7993" y="294.7544">202 Accepted</text>
    <path d="M9,314.8203 L73.4429,314.8203 L73.4429,321.9531 L63.4429,331.9531 L9,331.9531 L9,314.8203 " fill="#EEEEEE" style="stroke:#000000;stroke-width:1.5;"/>
    <rect fill="none" height="646.4609" style="stroke:#000000;stroke-width:1.5;" width="1229.8018" x="9" y="314.8203"/>
    <text fill="#000000" font-family="sans-serif" font-size="13" font-weight="bold" lengthAdjust="spacing" textLength="19.4429" x="24" y="327.8872">alt</text>
    <text fill="#000000" font-family="sans-serif" font-size="11" font-weight="bold" lengthAdjust="spacing" textLength="193.064" x="88.4429" y="327.0308">[authorization request is valid]</text>
    <line style="stroke:#181818;stroke-width:1.0;" x1="465.3711" x2="507.3711" y1="353.0859" y2="353.0859"/>
    <line style="stroke:#181818;stroke-width:1.0;" x1="507.3711" x2="507.3711" y1="353.0859" y2="366.0859"/>
    <line style="stroke:#181818;stroke-width:1.0;" x1="466.3711" x2="507.3711" y1="366.0859" y2="366.0859"/>
    <polygon fill="#181818" points="476.3711,362.0859,466.3711,366.0859,476.3711,370.0859,472.3711,366.0859" style="stroke:#181818;stroke-width:1.0;"/>
    <text fill="#000000" font-family="sans-serif" font-size="13" font-weight="bold" lengthAdjust="spacing" textLength="9.0454" x="472.3711" y="348.02">5</text>
    <text fill="#000000" font-family="sans-serif" font-size="13" lengthAdjust="spacing" textLength="482.1426" x="485.4165" y="348.02">Validate GET /authorizations/{TransactionRequestID} (internal validation)</text>
    <line style="stroke:#181818;stroke-width:1.0;" x1="465.3711" x2="507.3711" y1="395.2188" y2="395.2188"/>
    <line style="stroke:#181818;stroke-width:1.0;" x1="507.3711" x2="507.3711" y1="395.2188" y2="408.2188"/>
    <line style="stroke:#181818;stroke-width:1.0;" x1="466.3711" x2="507.3711" y1="408.2188" y2="408.2188"/>
    <polygon fill="#181818" points="476.3711,404.2188,466.3711,408.2188,476.3711,412.2188,472.3711,408.2188" style="stroke:#181818;stroke-width:1.0;"/>
    <text fill="#000000" font-family="sans-serif" font-size="13" font-weight="bold" lengthAdjust="spacing" textLength="9.0454" x="472.3711" y="390.1528">6</text>
    <text fill="#000000" font-family="sans-serif" font-size="13" lengthAdjust="spacing" textLength="318.8428" x="485.4165" y="390.1528">Retrieve corresponding end-points for Payee FSP</text>
    <path d="M392,421.2188 L392,446.2188 L1046,446.2188 L1046,431.2188 L1036,421.2188 L392,421.2188 " fill="#FEFFDD" style="stroke:#181818;stroke-width:0.5;"/>
    <path d="M1036,421.2188 L1036,431.2188 L1046,431.2188 L1036,421.2188 " fill="#FEFFDD" style="stroke:#181818;stroke-width:0.5;"/>
    <text fill="#000000" font-family="sans-serif" font-size="13" lengthAdjust="spacing" textLength="378.0918" x="525.6785" y="438.2856">Switch forwards GET /authorizations request to Payee FSP</text>
    <polygon fill="#181818" points="962.5591,468.4844,972.5591,472.4844,962.5591,472.4844" style="stroke:#181818;stroke-width:1.0;"/>
    <line style="stroke:#181818;stroke-width:1.0;" x1="465.3711" x2="973.5591" y1="472.4844" y2="472.4844"/>
    <text fill="#000000" font-family="sans-serif" font-size="13" font-weight="bold" lengthAdjust="spacing" textLength="9.0454" x="472.3711" y="467.4185">7</text>
    <text fill="#000000" font-family="sans-serif" font-size="13" lengthAdjust="spacing" textLength="292.0938" x="485.4165" y="467.4185">GET /authorizations/{TransactionRequestID}</text>
    <polygon fill="#181818" points="476.3711,501.6172,466.3711,501.6172,476.3711,505.6172" style="stroke:#181818;stroke-width:1.0;"/>
    <line style="stroke:#181818;stroke-width:1.0;stroke-dasharray:2.0,2.0;" x1="465.3711" x2="973.5591" y1="501.6172" y2="501.6172"/>
    <text fill="#000000" font-family="sans-serif" font-size="13" font-weight="bold" lengthAdjust="spacing" textLength="9.0454" x="482.3711" y="496.5513">8</text>
    <text fill="#000000" font-family="sans-serif" font-size="13" lengthAdjust="spacing" textLength="89.7305" x="495.4165" y="496.5513">202 Accepted</text>
    <line style="stroke:#181818;stroke-width:1.0;" x1="974.5591" x2="1016.5591" y1="561.0156" y2="561.0156"/>
    <line style="stroke:#181818;stroke-width:1.0;" x1="1016.5591" x2="1016.5591" y1="561.0156" y2="574.0156"/>
    <line style="stroke:#181818;stroke-width:1.0;" x1="975.5591" x2="1016.5591" y1="574.0156" y2="574.0156"/>
    <polygon fill="#181818" points="985.5591,570.0156,975.5591,574.0156,985.5591,578.0156,981.5591,574.0156" style="stroke:#181818;stroke-width:1.0;"/>
    <text fill="#000000" font-family="sans-serif" font-size="13" font-weight="bold" lengthAdjust="spacing" textLength="9.0454" x="981.5591" y="540.8169">9</text>
    <text fill="#000000" font-family="sans-serif" font-size="13" lengthAdjust="spacing" textLength="193.9399" x="994.6045" y="525.6841">Process authorization request</text>
    <text fill="#000000" font-family="sans-serif" font-size="13" lengthAdjust="spacing" textLength="232.1973" x="994.6045" y="540.8169">(Payer approves/rejects transaction</text>
    <text fill="#000000" font-family="sans-serif" font-size="13" lengthAdjust="spacing" textLength="70.332" x="994.6045" y="555.9497">using OTP)</text>
    <path d="M392,587.0156 L392,612.0156 L1046,612.0156 L1046,597.0156 L1036,587.0156 L392,587.0156 " fill="#FEFFDD" style="stroke:#181818;stroke-width:0.5;"/>
    <path d="M1036,587.0156 L1036,597.0156 L1046,597.0156 L1036,587.0156 " fill="#FEFFDD" style="stroke:#181818;stroke-width:0.5;"/>
    <text fill="#000000" font-family="sans-serif" font-size="13" lengthAdjust="spacing" textLength="462.2998" x="483.5745" y="604.0825">Payee FSP responds with PUT /authorizations//{TransactionRequestID}</text>
    <polygon fill="#181818" points="476.3711,634.2813,466.3711,638.2813,476.3711,638.2813" style="stroke:#181818;stroke-width:1.0;"/>
    <line style="stroke:#181818;stroke-width:1.0;" x1="465.3711" x2="973.5591" y1="638.2813" y2="638.2813"/>
    <text fill="#000000" font-family="sans-serif" font-size="13" font-weight="bold" lengthAdjust="spacing" textLength="18.0908" x="482.3711" y="633.2153">10</text>
    <text fill="#000000" font-family="sans-serif" font-size="13" lengthAdjust="spacing" textLength="295.5405" x="504.4619" y="633.2153">PUT /authorizations//{TransactionRequestID}</text>
    <polygon fill="#181818" points="962.5591,667.4141,972.5591,667.4141,962.5591,671.4141" style="stroke:#181818;stroke-width:1.0;"/>
    <line style="stroke:#181818;stroke-width:1.0;stroke-dasharray:2.0,2.0;" x1="465.3711" x2="973.5591" y1="667.4141" y2="667.4141"/>
    <text fill="#000000" font-family="sans-serif" font-size="13" font-weight="bold" lengthAdjust="spacing" textLength="18.0908" x="472.3711" y="662.3481">11</text>
    <text fill="#000000" font-family="sans-serif" font-size="13" lengthAdjust="spacing" textLength="46.7061" x="494.4619" y="662.3481">200 Ok</text>
    <path d="M19,680.4141 L19,705.4141 L536,705.4141 L536,690.4141 L526,680.4141 L19,680.4141 " fill="#FEFFDD" style="stroke:#181818;stroke-width:0.5;"/>
    <path d="M526,680.4141 L526,690.4141 L536,690.4141 L526,680.4141 " fill="#FEFFDD" style="stroke:#181818;stroke-width:0.5;"/>
    <text fill="#000000" font-family="sans-serif" font-size="13" lengthAdjust="spacing" textLength="489.4868" x="28.4812" y="697.481">Switch forwards PUT /authorizations//{TransactionRequestID} to Payer FSP</text>
    <line style="stroke:#181818;stroke-width:1.0;" x1="465.3711" x2="507.3711" y1="731.6797" y2="731.6797"/>
    <line style="stroke:#181818;stroke-width:1.0;" x1="507.3711" x2="507.3711" y1="731.6797" y2="744.6797"/>
    <line style="stroke:#181818;stroke-width:1.0;" x1="466.3711" x2="507.3711" y1="744.6797" y2="744.6797"/>
    <polygon fill="#181818" points="476.3711,740.6797,466.3711,744.6797,476.3711,748.6797,472.3711,744.6797" style="stroke:#181818;stroke-width:1.0;"/>
    <text fill="#000000" font-family="sans-serif" font-size="13" font-weight="bold" lengthAdjust="spacing" textLength="18.0908" x="472.3711" y="726.6138">12</text>
    <text fill="#000000" font-family="sans-serif" font-size="13" lengthAdjust="spacing" textLength="316.1895" x="494.4619" y="726.6138">Retrieve corresponding end-points for Payer FSP</text>
    <polygon fill="#181818" points="102.7539,769.8125,92.7539,773.8125,102.7539,773.8125" style="stroke:#181818;stroke-width:1.0;"/>
    <line style="stroke:#181818;stroke-width:1.0;" x1="91.7539" x2="464.3711" y1="773.8125" y2="773.8125"/>
    <text fill="#000000" font-family="sans-serif" font-size="13" font-weight="bold" lengthAdjust="spacing" textLength="18.0908" x="108.7539" y="768.7466">13</text>
    <text fill="#000000" font-family="sans-serif" font-size="13" lengthAdjust="spacing" textLength="295.5405" x="130.8447" y="768.7466">PUT /authorizations//{TransactionRequestID}</text>
    <polygon fill="#181818" points="453.3711,802.9453,463.3711,802.9453,453.3711,806.9453" style="stroke:#181818;stroke-width:1.0;"/>
    <line style="stroke:#181818;stroke-width:1.0;stroke-dasharray:2.0,2.0;" x1="91.7539" x2="464.3711" y1="802.9453" y2="802.9453"/>
    <text fill="#000000" font-family="sans-serif" font-size="13" font-weight="bold" lengthAdjust="spacing" textLength="18.0908" x="98.7539" y="797.8794">14</text>
    <text fill="#000000" font-family="sans-serif" font-size="13" lengthAdjust="spacing" textLength="46.7061" x="120.8447" y="797.8794">200 Ok</text>
    <line style="stroke:#000000;stroke-width:1.0;stroke-dasharray:2.0,2.0;" x1="9" x2="1238.8018" y1="811.9453" y2="811.9453"/>
    <text fill="#000000" font-family="sans-serif" font-size="11" font-weight="bold" lengthAdjust="spacing" textLength="204.6655" x="14" y="822.1558">[authorization request is invalid]</text>
    <path d="M19,830.75 L19,855.75 L536,855.75 L536,840.75 L526,830.75 L19,830.75 " fill="#FEFFDD" style="stroke:#181818;stroke-width:0.5;"/>
    <path d="M526,830.75 L526,840.75 L536,840.75 L526,830.75 " fill="#FEFFDD" style="stroke:#181818;stroke-width:0.5;"/>
    <text fill="#000000" font-family="sans-serif" font-size="13" lengthAdjust="spacing" textLength="273.4888" x="136.4802" y="847.8169">Switch returns error callback to Payer FSP</text>
    <polygon fill="#181818" points="102.7539,878.0156,92.7539,882.0156,102.7539,882.0156" style="stroke:#181818;stroke-width:1.0;"/>
    <line style="stroke:#181818;stroke-width:1.0;" x1="91.7539" x2="464.3711" y1="882.0156" y2="882.0156"/>
    <text fill="#000000" font-family="sans-serif" font-size="13" font-weight="bold" lengthAdjust="spacing" textLength="18.0908" x="108.7539" y="876.9497">15</text>
    <text fill="#000000" font-family="sans-serif" font-size="13" lengthAdjust="spacing" textLength="327.5264" x="130.8447" y="876.9497">PUT /authorizations/{TransactionRequestID}/error</text>
    <polygon fill="#181818" points="453.3711,911.1484,463.3711,911.1484,453.3711,915.1484" style="stroke:#181818;stroke-width:1.0;"/>
    <line style="stroke:#181818;stroke-width:1.0;stroke-dasharray:2.0,2.0;" x1="91.7539" x2="464.3711" y1="911.1484" y2="911.1484"/>
    <text fill="#000000" font-family="sans-serif" font-size="13" font-weight="bold" lengthAdjust="spacing" textLength="18.0908" x="98.7539" y="906.0825">16</text>
    <text fill="#000000" font-family="sans-serif" font-size="13" lengthAdjust="spacing" textLength="47.7026" x="120.8447" y="906.0825">200 OK</text>
    <line style="stroke:#181818;stroke-width:1.0;stroke-dasharray:2.0,2.0;" x1="91.7539" x2="133.7539" y1="940.2813" y2="940.2813"/>
    <line style="stroke:#181818;stroke-width:1.0;stroke-dasharray:2.0,2.0;" x1="133.7539" x2="133.7539" y1="940.2813" y2="953.2813"/>
    <line style="stroke:#181818;stroke-width:1.0;stroke-dasharray:2.0,2.0;" x1="92.7539" x2="133.7539" y1="953.2813" y2="953.2813"/>
    <polygon fill="#181818" points="102.7539,949.2813,92.7539,953.2813,102.7539,957.2813,98.7539,953.2813" style="stroke:#181818;stroke-width:1.0;"/>
    <text fill="#000000" font-family="sans-serif" font-size="13" font-weight="bold" lengthAdjust="spacing" textLength="18.0908" x="98.7539" y="935.2153">17</text>
    <text fill="#000000" font-family="sans-serif" font-size="13" lengthAdjust="spacing" textLength="207.1875" x="120.8447" y="935.2153">Validate OTP sent by Payee FSP</text>
  </g>
</svg>
