<svg xmlns="http://www.w3.org/2000/svg" xmlns:xlink="http://www.w3.org/1999/xlink" contentStyleType="text/css" height="1472px" preserveAspectRatio="none" style="width:963px;height:1472px;background:#FFFFFF;" version="1.1" viewBox="0 0 963 1472" width="963px" zoomAndPan="magnify">
  <title>Transaction Requests Service - Create</title>
  <defs/>
  <g>
    <text fill="#000000" font-family="sans-serif" font-size="14" font-weight="bold" lengthAdjust="spacing" textLength="301.957" x="331.854" y="27.9951">Transaction Requests Service - Create</text>
    <rect fill="none" height="1103.9297" style="stroke:#000000;stroke-width:1.5;" width="947.665" x="9" y="299.6875"/>
    <rect fill="none" height="744.7969" style="stroke:#000000;stroke-width:1.5;" width="927.665" x="19" y="543.6172"/>
    <rect fill="none" height="376.5313" style="stroke:#000000;stroke-width:1.5;" width="907.665" x="29" y="703.2813"/>
    <line style="stroke:#181818;stroke-width:0.5;stroke-dasharray:5.0,5.0;" x1="111" x2="111" y1="89.8906" y2="1420.6172"/>
    <line style="stroke:#181818;stroke-width:0.5;stroke-dasharray:5.0,5.0;" x1="396.3052" x2="396.3052" y1="89.8906" y2="1420.6172"/>
    <line style="stroke:#181818;stroke-width:0.5;stroke-dasharray:5.0,5.0;" x1="789.6709" x2="789.6709" y1="89.8906" y2="1420.6172"/>
    <rect fill="#E2E2F0" height="30.2969" rx="2.5" ry="2.5" style="stroke:#181818;stroke-width:0.5;" width="83.5078" x="70" y="58.5938"/>
    <text fill="#000000" font-family="sans-serif" font-size="14" lengthAdjust="spacing" textLength="69.5078" x="77" y="78.5889">Payer FSP</text>
    <rect fill="#E2E2F0" height="30.2969" rx="2.5" ry="2.5" style="stroke:#181818;stroke-width:0.5;" width="83.5078" x="70" y="1419.6172"/>
    <text fill="#000000" font-family="sans-serif" font-size="14" lengthAdjust="spacing" textLength="69.5078" x="77" y="1439.6123">Payer FSP</text>
    <rect fill="#E2E2F0" height="46.5938" rx="2.5" ry="2.5" style="stroke:#181818;stroke-width:0.5;" width="214.1563" x="289.3052" y="42.2969"/>
    <text fill="#000000" font-family="sans-serif" font-size="14" lengthAdjust="spacing" textLength="46.2861" x="373.2402" y="62.292">Switch</text>
    <text fill="#000000" font-family="sans-serif" font-size="14" lengthAdjust="spacing" textLength="200.1563" x="296.3052" y="78.5889">transaction-requests-service</text>
    <rect fill="#E2E2F0" height="46.5938" rx="2.5" ry="2.5" style="stroke:#181818;stroke-width:0.5;" width="214.1563" x="289.3052" y="1419.6172"/>
    <text fill="#000000" font-family="sans-serif" font-size="14" lengthAdjust="spacing" textLength="46.2861" x="373.2402" y="1439.6123">Switch</text>
    <text fill="#000000" font-family="sans-serif" font-size="14" lengthAdjust="spacing" textLength="200.1563" x="296.3052" y="1455.9092">transaction-requests-service</text>
    <rect fill="#E2E2F0" height="30.2969" rx="2.5" ry="2.5" style="stroke:#181818;stroke-width:0.5;" width="86.3652" x="746.6709" y="58.5938"/>
    <text fill="#000000" font-family="sans-serif" font-size="14" lengthAdjust="spacing" textLength="72.3652" x="753.6709" y="78.5889">Payee FSP</text>
    <rect fill="#E2E2F0" height="30.2969" rx="2.5" ry="2.5" style="stroke:#181818;stroke-width:0.5;" width="86.3652" x="746.6709" y="1419.6172"/>
    <text fill="#000000" font-family="sans-serif" font-size="14" lengthAdjust="spacing" textLength="72.3652" x="753.6709" y="1439.6123">Payee FSP</text>
    <line style="stroke:#181818;stroke-width:1.0;" x1="789.8535" x2="831.8535" y1="136.1563" y2="136.1563"/>
    <line style="stroke:#181818;stroke-width:1.0;" x1="831.8535" x2="831.8535" y1="136.1563" y2="149.1563"/>
    <line style="stroke:#181818;stroke-width:1.0;" x1="790.8535" x2="831.8535" y1="149.1563" y2="149.1563"/>
    <polygon fill="#181818" points="799.8535,145.1563,789.8535,149.1563,799.8535,149.1563" style="stroke:#181818;stroke-width:1.0;"/>
    <text fill="#000000" font-family="sans-serif" font-size="13" font-weight="bold" lengthAdjust="spacing" textLength="9.0454" x="796.8535" y="123.5239">1</text>
    <text fill="#000000" font-family="sans-serif" font-size="13" lengthAdjust="spacing" textLength="101.5435" x="809.8989" y="115.9575">Lookup process</text>
    <text fill="#000000" font-family="sans-serif" font-size="13" lengthAdjust="spacing" textLength="111.1157" x="809.8989" y="131.0903">(not shown here)</text>
    <path d="M323,162.1563 L323,187.1563 L861,187.1563 L861,172.1563 L851,162.1563 L323,162.1563 " fill="#FEFFDD" style="stroke:#181818;stroke-width:0.5;"/>
    <path d="M851,162.1563 L851,172.1563 L861,172.1563 L851,162.1563 " fill="#FEFFDD" style="stroke:#181818;stroke-width:0.5;"/>
    <text fill="#000000" font-family="sans-serif" font-size="13" lengthAdjust="spacing" textLength="392.3804" x="391.6753" y="179.2231">Payee FSP generates a transaction-request to the Payer FSP</text>
    <polygon fill="#181818" points="407.3833,209.4219,397.3833,213.4219,407.3833,213.4219" style="stroke:#181818;stroke-width:1.0;"/>
    <line style="stroke:#181818;stroke-width:1.0;" x1="396.3833" x2="788.8535" y1="213.4219" y2="213.4219"/>
    <text fill="#000000" font-family="sans-serif" font-size="13" font-weight="bold" lengthAdjust="spacing" textLength="9.0454" x="413.3833" y="208.356">2</text>
    <text fill="#000000" font-family="sans-serif" font-size="13" lengthAdjust="spacing" textLength="176.376" x="426.4287" y="208.356">POST /transactionRequests</text>
    <line style="stroke:#181818;stroke-width:1.0;" x1="396.3833" x2="438.3833" y1="242.5547" y2="242.5547"/>
    <line style="stroke:#181818;stroke-width:1.0;" x1="438.3833" x2="438.3833" y1="242.5547" y2="255.5547"/>
    <line style="stroke:#181818;stroke-width:1.0;" x1="397.3833" x2="438.3833" y1="255.5547" y2="255.5547"/>
    <polygon fill="#181818" points="407.3833,251.5547,397.3833,255.5547,407.3833,259.5547,403.3833,255.5547" style="stroke:#181818;stroke-width:1.0;"/>
    <text fill="#000000" font-family="sans-serif" font-size="13" font-weight="bold" lengthAdjust="spacing" textLength="9.0454" x="403.3833" y="237.4888">3</text>
    <text fill="#000000" font-family="sans-serif" font-size="13" lengthAdjust="spacing" textLength="288.8247" x="416.4287" y="237.4888">Validate POST /transactionRequests schema</text>
    <polygon fill="#181818" points="777.8535,284.6875,787.8535,284.6875,777.8535,288.6875" style="stroke:#181818;stroke-width:1.0;"/>
    <line style="stroke:#181818;stroke-width:1.0;stroke-dasharray:2.0,2.0;" x1="396.3833" x2="788.8535" y1="284.6875" y2="284.6875"/>
    <text fill="#000000" font-family="sans-serif" font-size="13" font-weight="bold" lengthAdjust="spacing" textLength="9.0454" x="403.3833" y="279.6216">4</text>
    <text fill="#000000" font-family="sans-serif" font-size="13" lengthAdjust="spacing" textLength="89.7305" x="416.4287" y="279.6216">202 Accepted</text>
    <path d="M9,299.6875 L73.4429,299.6875 L73.4429,306.8203 L63.4429,316.8203 L9,316.8203 L9,299.6875 " fill="#EEEEEE" style="stroke:#000000;stroke-width:1.5;"/>
    <rect fill="none" height="1103.9297" style="stroke:#000000;stroke-width:1.5;" width="947.665" x="9" y="299.6875"/>
    <text fill="#000000" font-family="sans-serif" font-size="13" font-weight="bold" lengthAdjust="spacing" textLength="19.4429" x="24" y="312.7544">alt</text>
    <text fill="#000000" font-family="sans-serif" font-size="11" font-weight="bold" lengthAdjust="spacing" textLength="181.3066" x="88.4429" y="311.8979">[transaction-request is valid]</text>
    <line style="stroke:#181818;stroke-width:1.0;" x1="396.3833" x2="438.3833" y1="337.9531" y2="337.9531"/>
    <line style="stroke:#181818;stroke-width:1.0;" x1="438.3833" x2="438.3833" y1="337.9531" y2="350.9531"/>
    <line style="stroke:#181818;stroke-width:1.0;" x1="397.3833" x2="438.3833" y1="350.9531" y2="350.9531"/>
    <polygon fill="#181818" points="407.3833,346.9531,397.3833,350.9531,407.3833,354.9531,403.3833,350.9531" style="stroke:#181818;stroke-width:1.0;"/>
    <text fill="#000000" font-family="sans-serif" font-size="13" font-weight="bold" lengthAdjust="spacing" textLength="9.0454" x="403.3833" y="332.8872">5</text>
    <text fill="#000000" font-family="sans-serif" font-size="13" lengthAdjust="spacing" textLength="366.4248" x="416.4287" y="332.8872">Validate POST /transactionRequests (internal validation)</text>
    <line style="stroke:#181818;stroke-width:1.0;" x1="396.3833" x2="438.3833" y1="380.0859" y2="380.0859"/>
    <line style="stroke:#181818;stroke-width:1.0;" x1="438.3833" x2="438.3833" y1="380.0859" y2="393.0859"/>
    <line style="stroke:#181818;stroke-width:1.0;" x1="397.3833" x2="438.3833" y1="393.0859" y2="393.0859"/>
    <polygon fill="#181818" points="407.3833,389.0859,397.3833,393.0859,407.3833,397.0859,403.3833,393.0859" style="stroke:#181818;stroke-width:1.0;"/>
    <text fill="#000000" font-family="sans-serif" font-size="13" font-weight="bold" lengthAdjust="spacing" textLength="9.0454" x="403.3833" y="375.02">6</text>
    <text fill="#000000" font-family="sans-serif" font-size="13" lengthAdjust="spacing" textLength="316.1895" x="416.4287" y="375.02">Retrieve corresponding end-points for Payer FSP</text>
    <path d="M31,406.0859 L31,431.0859 L476,431.0859 L476,416.0859 L466,406.0859 L31,406.0859 " fill="#FEFFDD" style="stroke:#181818;stroke-width:0.5;"/>
    <path d="M466,406.0859 L466,416.0859 L476,416.0859 L466,406.0859 " fill="#FEFFDD" style="stroke:#181818;stroke-width:0.5;"/>
    <text fill="#000000" font-family="sans-serif" font-size="13" lengthAdjust="spacing" textLength="424.1567" x="37" y="423.1528">Switch forwards POST /transactionRequests request to Payer FSP</text>
    <polygon fill="#181818" points="122.7539,453.3516,112.7539,457.3516,122.7539,457.3516" style="stroke:#181818;stroke-width:1.0;"/>
    <line style="stroke:#181818;stroke-width:1.0;" x1="111.7539" x2="395.3833" y1="457.3516" y2="457.3516"/>
    <text fill="#000000" font-family="sans-serif" font-size="13" font-weight="bold" lengthAdjust="spacing" textLength="9.0454" x="128.7539" y="452.2856">7</text>
    <text fill="#000000" font-family="sans-serif" font-size="13" lengthAdjust="spacing" textLength="176.376" x="141.7993" y="452.2856">POST /transactionRequests</text>
    <polygon fill="#181818" points="384.3833,486.4844,394.3833,486.4844,384.3833,490.4844" style="stroke:#181818;stroke-width:1.0;"/>
    <line style="stroke:#181818;stroke-width:1.0;stroke-dasharray:2.0,2.0;" x1="111.7539" x2="395.3833" y1="486.4844" y2="486.4844"/>
    <text fill="#000000" font-family="sans-serif" font-size="13" font-weight="bold" lengthAdjust="spacing" textLength="9.0454" x="118.7539" y="481.4185">8</text>
    <text fill="#000000" font-family="sans-serif" font-size="13" lengthAdjust="spacing" textLength="89.7305" x="131.7993" y="481.4185">202 Accepted</text>
    <line style="stroke:#181818;stroke-width:1.0;" x1="111.7539" x2="153.7539" y1="515.6172" y2="515.6172"/>
    <line style="stroke:#181818;stroke-width:1.0;" x1="153.7539" x2="153.7539" y1="515.6172" y2="528.6172"/>
    <line style="stroke:#181818;stroke-width:1.0;" x1="112.7539" x2="153.7539" y1="528.6172" y2="528.6172"/>
    <polygon fill="#181818" points="122.7539,524.6172,112.7539,528.6172,122.7539,532.6172,118.7539,528.6172" style="stroke:#181818;stroke-width:1.0;"/>
    <text fill="#000000" font-family="sans-serif" font-size="13" font-weight="bold" lengthAdjust="spacing" textLength="9.0454" x="118.7539" y="510.5513">9</text>
    <text fill="#000000" font-family="sans-serif" font-size="13" lengthAdjust="spacing" textLength="181.7905" x="131.7993" y="510.5513">Process transaction-request</text>
    <path d="M19,543.6172 L83.4429,543.6172 L83.4429,550.75 L73.4429,560.75 L19,560.75 L19,543.6172 " fill="#EEEEEE" style="stroke:#000000;stroke-width:1.5;"/>
    <rect fill="none" height="744.7969" style="stroke:#000000;stroke-width:1.5;" width="927.665" x="19" y="543.6172"/>
    <text fill="#000000" font-family="sans-serif" font-size="13" font-weight="bold" lengthAdjust="spacing" textLength="19.4429" x="34" y="556.6841">alt</text>
    <text fill="#000000" font-family="sans-serif" font-size="11" font-weight="bold" lengthAdjust="spacing" textLength="344.9209" x="98.4429" y="555.8276">[Payer FSP successfully processes transaction-request]</text>
    <path d="M39,565.75 L39,590.75 L467,590.75 L467,575.75 L457,565.75 L39,565.75 " fill="#FEFFDD" style="stroke:#181818;stroke-width:0.5;"/>
    <path d="M457,565.75 L457,575.75 L467,575.75 L457,565.75 " fill="#FEFFDD" style="stroke:#181818;stroke-width:0.5;"/>
    <text fill="#000000" font-family="sans-serif" font-size="13" lengthAdjust="spacing" textLength="325.9521" x="85.7546" y="582.8169">Payer FSP responds to POST /transactionRequests</text>
    <polygon fill="#181818" points="384.3833,613.0156,394.3833,617.0156,384.3833,617.0156" style="stroke:#181818;stroke-width:1.0;"/>
    <line style="stroke:#181818;stroke-width:1.0;" x1="111.7539" x2="395.3833" y1="617.0156" y2="617.0156"/>
    <text fill="#000000" font-family="sans-serif" font-size="13" font-weight="bold" lengthAdjust="spacing" textLength="18.0908" x="118.7539" y="611.9497">10</text>
    <text fill="#000000" font-family="sans-serif" font-size="13" lengthAdjust="spacing" textLength="202.1729" x="140.8447" y="611.9497">PUT /transactionRequests/{ID}</text>
    <polygon fill="#181818" points="122.7539,646.1484,112.7539,646.1484,122.7539,650.1484" style="stroke:#181818;stroke-width:1.0;"/>
    <line style="stroke:#181818;stroke-width:1.0;stroke-dasharray:2.0,2.0;" x1="111.7539" x2="395.3833" y1="646.1484" y2="646.1484"/>
    <text fill="#000000" font-family="sans-serif" font-size="13" font-weight="bold" lengthAdjust="spacing" textLength="18.0908" x="128.7539" y="641.0825">11</text>
    <text fill="#000000" font-family="sans-serif" font-size="13" lengthAdjust="spacing" textLength="46.7061" x="150.8447" y="641.0825">200 Ok</text>
    <line style="stroke:#181818;stroke-width:1.0;" x1="396.3833" x2="438.3833" y1="675.2813" y2="675.2813"/>
    <line style="stroke:#181818;stroke-width:1.0;" x1="438.3833" x2="438.3833" y1="675.2813" y2="688.2813"/>
    <line style="stroke:#181818;stroke-width:1.0;" x1="397.3833" x2="438.3833" y1="688.2813" y2="688.2813"/>
    <polygon fill="#181818" points="407.3833,684.2813,397.3833,688.2813,407.3833,692.2813,403.3833,688.2813" style="stroke:#181818;stroke-width:1.0;"/>
    <text fill="#000000" font-family="sans-serif" font-size="13" font-weight="bold" lengthAdjust="spacing" textLength="18.0908" x="403.3833" y="670.2153">12</text>
    <text fill="#000000" font-family="sans-serif" font-size="13" lengthAdjust="spacing" textLength="259.7017" x="425.4741" y="670.2153">Validate PUT /transactionRequests/{ID}</text>
    <path d="M29,703.2813 L93.4429,703.2813 L93.4429,710.4141 L83.4429,720.4141 L29,720.4141 L29,703.2813 " fill="#EEEEEE" style="stroke:#000000;stroke-width:1.5;"/>
    <rect fill="none" height="376.5313" style="stroke:#000000;stroke-width:1.5;" width="907.665" x="29" y="703.2813"/>
    <text fill="#000000" font-family="sans-serif" font-size="13" font-weight="bold" lengthAdjust="spacing" textLength="19.4429" x="44" y="716.3481">alt</text>
    <text fill="#000000" font-family="sans-serif" font-size="11" font-weight="bold" lengthAdjust="spacing" textLength="99.6069" x="108.4429" y="715.4917">[response is ok]</text>
    <path d="M323,725.4141 L323,750.4141 L861,750.4141 L861,735.4141 L851,725.4141 L323,725.4141 " fill="#FEFFDD" style="stroke:#181818;stroke-width:0.5;"/>
    <path d="M851,725.4141 L851,735.4141 L861,735.4141 L851,725.4141 " fill="#FEFFDD" style="stroke:#181818;stroke-width:0.5;"/>
    <text fill="#000000" font-family="sans-serif" font-size="13" lengthAdjust="spacing" textLength="387.8926" x="393.9192" y="742.481">Switch forwards transaction-request response to Payee FSP</text>
    <line style="stroke:#181818;stroke-width:1.0;" x1="396.3833" x2="438.3833" y1="776.6797" y2="776.6797"/>
    <line style="stroke:#181818;stroke-width:1.0;" x1="438.3833" x2="438.3833" y1="776.6797" y2="789.6797"/>
    <line style="stroke:#181818;stroke-width:1.0;" x1="397.3833" x2="438.3833" y1="789.6797" y2="789.6797"/>
    <polygon fill="#181818" points="407.3833,785.6797,397.3833,789.6797,407.3833,793.6797,403.3833,789.6797" style="stroke:#181818;stroke-width:1.0;"/>
    <text fill="#000000" font-family="sans-serif" font-size="13" font-weight="bold" lengthAdjust="spacing" textLength="18.0908" x="403.3833" y="771.6138">13</text>
    <text fill="#000000" font-family="sans-serif" font-size="13" lengthAdjust="spacing" textLength="318.8428" x="425.4741" y="771.6138">Retrieve corresponding end-points for Payee FSP</text>
    <polygon fill="#181818" points="777.8535,814.8125,787.8535,818.8125,777.8535,818.8125" style="stroke:#181818;stroke-width:1.0;"/>
    <line style="stroke:#181818;stroke-width:1.0;" x1="396.3833" x2="788.8535" y1="818.8125" y2="818.8125"/>
    <text fill="#000000" font-family="sans-serif" font-size="13" font-weight="bold" lengthAdjust="spacing" textLength="18.0908" x="403.3833" y="813.7466">14</text>
    <text fill="#000000" font-family="sans-serif" font-size="13" lengthAdjust="spacing" textLength="202.1729" x="425.4741" y="813.7466">PUT /transactionRequests/{ID}</text>
    <polygon fill="#181818" points="407.3833,847.9453,397.3833,847.9453,407.3833,851.9453" style="stroke:#181818;stroke-width:1.0;"/>
    <line style="stroke:#181818;stroke-width:1.0;stroke-dasharray:2.0,2.0;" x1="396.3833" x2="788.8535" y1="847.9453" y2="847.9453"/>
    <text fill="#000000" font-family="sans-serif" font-size="13" font-weight="bold" lengthAdjust="spacing" textLength="18.0908" x="413.3833" y="842.8794">15</text>
    <text fill="#000000" font-family="sans-serif" font-size="13" lengthAdjust="spacing" textLength="46.7061" x="435.4741" y="842.8794">200 Ok</text>
    <path d="M652,860.9453 L652,900.9453 L926,900.9453 L926,870.9453 L916,860.9453 L652,860.9453 " fill="#3498DB" style="stroke:#181818;stroke-width:0.5;"/>
    <path d="M916,860.9453 L916,870.9453 L926,870.9453 L916,860.9453 " fill="#3498DB" style="stroke:#181818;stroke-width:0.5;"/>
    <text fill="#000000" font-family="sans-serif" font-size="13" lengthAdjust="spacing" textLength="253.665" x="658" y="878.0122">Wait for a quote, transfer by Payer FSP</text>
    <text fill="#000000" font-family="sans-serif" font-size="13" lengthAdjust="spacing" textLength="214.938" x="658" y="893.145">or a rejected transaction-request</text>
    <line style="stroke:#000000;stroke-width:1.0;stroke-dasharray:2.0,2.0;" x1="29" x2="936.665" y1="907.2109" y2="907.2109"/>
    <text fill="#000000" font-family="sans-serif" font-size="11" font-weight="bold" lengthAdjust="spacing" textLength="112.1968" x="34" y="917.4214">[response invalid]</text>
    <path d="M39,926.0156 L39,951.0156 L467,951.0156 L467,936.0156 L457,926.0156 L39,926.0156 " fill="#FEFFDD" style="stroke:#181818;stroke-width:0.5;"/>
    <path d="M457,926.0156 L457,936.0156 L467,936.0156 L457,926.0156 " fill="#FEFFDD" style="stroke:#181818;stroke-width:0.5;"/>
    <text fill="#000000" font-family="sans-serif" font-size="13" lengthAdjust="spacing" textLength="216.125" x="140.6682" y="943.0825">Switch returns error to Payer FSP</text>
    <polygon fill="#181818" points="122.7539,973.2813,112.7539,977.2813,122.7539,977.2813" style="stroke:#181818;stroke-width:1.0;"/>
    <line style="stroke:#181818;stroke-width:1.0;" x1="111.7539" x2="395.3833" y1="977.2813" y2="977.2813"/>
    <text fill="#000000" font-family="sans-serif" font-size="13" font-weight="bold" lengthAdjust="spacing" textLength="18.0908" x="128.7539" y="972.2153">16</text>
    <text fill="#000000" font-family="sans-serif" font-size="13" lengthAdjust="spacing" textLength="238.5386" x="150.8447" y="972.2153">PUT /transactionRequests/{ID}/error</text>
    <polygon fill="#181818" points="384.3833,1006.4141,394.3833,1006.4141,384.3833,1010.4141" style="stroke:#181818;stroke-width:1.0;"/>
    <line style="stroke:#181818;stroke-width:1.0;stroke-dasharray:2.0,2.0;" x1="111.7539" x2="395.3833" y1="1006.4141" y2="1006.4141"/>
    <text fill="#000000" font-family="sans-serif" font-size="13" font-weight="bold" lengthAdjust="spacing" textLength="18.0908" x="118.7539" y="1001.3481">17</text>
    <text fill="#000000" font-family="sans-serif" font-size="13" lengthAdjust="spacing" textLength="46.7061" x="140.8447" y="1001.3481">200 Ok</text>
    <path d="M39,1019.4141 L39,1074.4141 L467,1074.4141 L467,1029.4141 L457,1019.4141 L39,1019.4141 " fill="#EC7063" style="stroke:#181818;stroke-width:0.5;"/>
    <path d="M457,1019.4141 L457,1029.4141 L467,1029.4141 L457,1019.4141 " fill="#EC7063" style="stroke:#181818;stroke-width:0.5;"/>
    <text fill="#000000" font-family="sans-serif" font-size="13" lengthAdjust="spacing" textLength="131.3647" x="158.1147" y="1036.481">Note that under this</text>
    <text fill="#000000" font-family="sans-serif" font-size="13" lengthAdjust="spacing" textLength="151.8296" x="158.1147" y="1051.6138">scenario the Payee FSP</text>
    <text fill="#000000" font-family="sans-serif" font-size="13" lengthAdjust="spacing" textLength="181.2319" x="158.1147" y="1066.7466">may not receive a response</text>
    <line style="stroke:#000000;stroke-width:1.0;stroke-dasharray:2.0,2.0;" x1="19" x2="946.665" y1="1087.8125" y2="1087.8125"/>
    <text fill="#000000" font-family="sans-serif" font-size="11" font-weight="bold" lengthAdjust="spacing" textLength="313.7041" x="24" y="1098.0229">[Payer FSP calculation fails or rejects the request]</text>
    <path d="M39,1106.6172 L39,1131.6172 L467,1131.6172 L467,1116.6172 L457,1106.6172 L39,1106.6172 " fill="#FEFFDD" style="stroke:#181818;stroke-width:0.5;"/>
    <path d="M457,1106.6172 L457,1116.6172 L467,1116.6172 L457,1106.6172 " fill="#FEFFDD" style="stroke:#181818;stroke-width:0.5;"/>
    <text fill="#000000" font-family="sans-serif" font-size="13" lengthAdjust="spacing" textLength="216.125" x="140.6682" y="1123.6841">Payer FSP returns error to Switch</text>
    <polygon fill="#181818" points="384.3833,1153.8828,394.3833,1157.8828,384.3833,1157.8828" style="stroke:#181818;stroke-width:1.0;"/>
    <line style="stroke:#181818;stroke-width:1.0;" x1="111.7539" x2="395.3833" y1="1157.8828" y2="1157.8828"/>
    <text fill="#000000" font-family="sans-serif" font-size="13" font-weight="bold" lengthAdjust="spacing" textLength="18.0908" x="118.7539" y="1152.8169">18</text>
    <text fill="#000000" font-family="sans-serif" font-size="13" lengthAdjust="spacing" textLength="238.5386" x="140.8447" y="1152.8169">PUT /transactionRequests/{ID}/error</text>
    <polygon fill="#181818" points="122.7539,1187.0156,112.7539,1187.0156,122.7539,1191.0156" style="stroke:#181818;stroke-width:1.0;"/>
    <line style="stroke:#181818;stroke-width:1.0;stroke-dasharray:2.0,2.0;" x1="111.7539" x2="395.3833" y1="1187.0156" y2="1187.0156"/>
    <text fill="#000000" font-family="sans-serif" font-size="13" font-weight="bold" lengthAdjust="spacing" textLength="18.0908" x="128.7539" y="1181.9497">19</text>
    <text fill="#000000" font-family="sans-serif" font-size="13" lengthAdjust="spacing" textLength="47.7026" x="150.8447" y="1181.9497">200 OK</text>
    <path d="M323,1200.0156 L323,1225.0156 L861,1225.0156 L861,1210.0156 L851,1200.0156 L323,1200.0156 " fill="#FEFFDD" style="stroke:#181818;stroke-width:0.5;"/>
    <path d="M851,1200.0156 L851,1210.0156 L861,1210.0156 L851,1200.0156 " fill="#FEFFDD" style="stroke:#181818;stroke-width:0.5;"/>
    <text fill="#000000" font-family="sans-serif" font-size="13" lengthAdjust="spacing" textLength="218.7783" x="478.4763" y="1217.0825">Switch returns error to Payee FSP</text>
    <polygon fill="#181818" points="777.8535,1247.2813,787.8535,1251.2813,777.8535,1251.2813" style="stroke:#181818;stroke-width:1.0;"/>
    <line style="stroke:#181818;stroke-width:1.0;" x1="396.3833" x2="788.8535" y1="1251.2813" y2="1251.2813"/>
    <text fill="#000000" font-family="sans-serif" font-size="13" font-weight="bold" lengthAdjust="spacing" textLength="18.0908" x="403.3833" y="1246.2153">20</text>
    <text fill="#000000" font-family="sans-serif" font-size="13" lengthAdjust="spacing" textLength="238.5386" x="425.4741" y="1246.2153">PUT /transactionRequests/{ID}/error</text>
    <polygon fill="#181818" points="407.3833,1280.4141,397.3833,1280.4141,407.3833,1284.4141" style="stroke:#181818;stroke-width:1.0;"/>
    <line style="stroke:#181818;stroke-width:1.0;stroke-dasharray:2.0,2.0;" x1="396.3833" x2="788.8535" y1="1280.4141" y2="1280.4141"/>
    <text fill="#000000" font-family="sans-serif" font-size="13" font-weight="bold" lengthAdjust="spacing" textLength="18.0908" x="413.3833" y="1275.3481">21</text>
    <text fill="#000000" font-family="sans-serif" font-size="13" lengthAdjust="spacing" textLength="47.7026" x="435.4741" y="1275.3481">200 OK</text>
    <line style="stroke:#000000;stroke-width:1.0;stroke-dasharray:2.0,2.0;" x1="9" x2="956.665" y1="1296.4141" y2="1296.4141"/>
    <text fill="#000000" font-family="sans-serif" font-size="11" font-weight="bold" lengthAdjust="spacing" textLength="192.9082" x="14" y="1306.6245">[transaction-request is invalid]</text>
    <path d="M323,1315.2188 L323,1340.2188 L861,1340.2188 L861,1325.2188 L851,1315.2188 L323,1315.2188 " fill="#FEFFDD" style="stroke:#181818;stroke-width:0.5;"/>
    <path d="M851,1315.2188 L851,1325.2188 L861,1325.2188 L851,1315.2188 " fill="#FEFFDD" style="stroke:#181818;stroke-width:0.5;"/>
    <text fill="#000000" font-family="sans-serif" font-size="13" lengthAdjust="spacing" textLength="218.7783" x="478.4763" y="1332.2856">Switch returns error to Payee FSP</text>
    <polygon fill="#181818" points="777.8535,1362.4844,787.8535,1366.4844,777.8535,1366.4844" style="stroke:#181818;stroke-width:1.0;"/>
    <line style="stroke:#181818;stroke-width:1.0;" x1="396.3833" x2="788.8535" y1="1366.4844" y2="1366.4844"/>
    <text fill="#000000" font-family="sans-serif" font-size="13" font-weight="bold" lengthAdjust="spacing" textLength="18.0908" x="403.3833" y="1361.4185">22</text>
    <text fill="#000000" font-family="sans-serif" font-size="13" lengthAdjust="spacing" textLength="238.5386" x="425.4741" y="1361.4185">PUT /transactionRequests/{ID}/error</text>
    <polygon fill="#181818" points="407.3833,1395.6172,397.3833,1395.6172,407.3833,1399.6172" style="stroke:#181818;stroke-width:1.0;"/>
    <line style="stroke:#181818;stroke-width:1.0;stroke-dasharray:2.0,2.0;" x1="396.3833" x2="788.8535" y1="1395.6172" y2="1395.6172"/>
    <text fill="#000000" font-family="sans-serif" font-size="13" font-weight="bold" lengthAdjust="spacing" textLength="18.0908" x="413.3833" y="1390.5513">23</text>
    <text fill="#000000" font-family="sans-serif" font-size="13" lengthAdjust="spacing" textLength="47.7026" x="435.4741" y="1390.5513">200 OK</text>
  </g>
</svg>
