<?xml version="1.0" encoding="UTF-8" standalone="no"?>
<svg xmlns="http://www.w3.org/2000/svg" xmlns:xlink="http://www.w3.org/1999/xlink" contentScriptType="application/ecmascript" contentStyleType="text/css" height="1398px" preserveAspectRatio="none" style="width:855px;height:1398px" version="1.1" viewBox="0 0 855 1398" width="855px" zoomAndPan="magnify">
  <defs>
    <filter height="300%" id="f5v6o94dgerc7" width="300%" x="-1" y="-1">
      <feGaussianBlur result="blurOut" stdDeviation="2.0"/>
      <feColorMatrix in="blurOut" result="blurOut2" type="matrix" values="0 0 0 0 0 0 0 0 0 0 0 0 0 0 0 0 0 0 .4 0"/>
      <feOffset dx="4.0" dy="4.0" in="blurOut2" result="blurOut3"/>
      <feBlend in="SourceGraphic" in2="blurOut3" mode="normal"/>
    </filter>
  </defs>
  <g>
    <text fill="#000000" font-family="sans-serif" font-size="18" lengthAdjust="spacingAndGlyphs" textLength="334" x="258.5" y="28.708">Transaction Requests Service - Query</text>
    <rect fill="#FFFFFF" filter="url(#f5v6o94dgerc7)" height="1058.6641" style="stroke:#000000;stroke-width:2.0" width="832" x="9" y="263.2109"/>
    <rect fill="#FFFFFF" filter="url(#f5v6o94dgerc7)" height="733.6641" style="stroke:#000000;stroke-width:2.0" width="812" x="19" y="469.0078"/>
    <rect fill="#FFFFFF" filter="url(#f5v6o94dgerc7)" height="338.2656" style="stroke:#000000;stroke-width:2.0" width="792" x="29" y="647.8047"/>
    <rect fill="#FFFFFF" height="181.6016" style="stroke:none;stroke-width:1.0" width="792" x="29" y="804.4688"/>
    <rect fill="#FFFFFF" height="209.6016" style="stroke:none;stroke-width:1.0" width="812" x="19" y="993.0703"/>
    <rect fill="#FFFFFF" height="112.2031" style="stroke:none;stroke-width:1.0" width="832" x="9" y="1209.6719"/>
    <line style="stroke:#A80036;stroke-width:1.0;stroke-dasharray:5.0,5.0" x1="112" x2="112" y1="91.5469" y2="1338.875"/>
    <line style="stroke:#A80036;stroke-width:1.0;stroke-dasharray:5.0,5.0" x1="390" x2="390" y1="91.5469" y2="1338.875"/>
    <line style="stroke:#A80036;stroke-width:1.0;stroke-dasharray:5.0,5.0" x1="737" x2="737" y1="91.5469" y2="1338.875"/>
    <rect fill="#FEFECE" filter="url(#f5v6o94dgerc7)" height="30.2969" style="stroke:#A80036;stroke-width:1.5" width="82" x="69" y="56.25"/>
    <text fill="#000000" font-family="sans-serif" font-size="14" lengthAdjust="spacingAndGlyphs" textLength="68" x="76" y="76.2451">Payer FSP</text>
    <rect fill="#FEFECE" filter="url(#f5v6o94dgerc7)" height="30.2969" style="stroke:#A80036;stroke-width:1.5" width="82" x="69" y="1337.875"/>
    <text fill="#000000" font-family="sans-serif" font-size="14" lengthAdjust="spacingAndGlyphs" textLength="68" x="76" y="1357.8701">Payer FSP</text>
    <rect fill="#FEFECE" filter="url(#f5v6o94dgerc7)" height="46.5938" style="stroke:#A80036;stroke-width:1.5" width="212" x="282" y="39.9531"/>
    <text fill="#000000" font-family="sans-serif" font-size="14" lengthAdjust="spacingAndGlyphs" textLength="45" x="365.5" y="59.9482">Switch</text>
    <text fill="#000000" font-family="sans-serif" font-size="14" lengthAdjust="spacingAndGlyphs" textLength="198" x="289" y="76.2451">transaction-requests-service</text>
    <rect fill="#FEFECE" filter="url(#f5v6o94dgerc7)" height="46.5938" style="stroke:#A80036;stroke-width:1.5" width="212" x="282" y="1337.875"/>
    <text fill="#000000" font-family="sans-serif" font-size="14" lengthAdjust="spacingAndGlyphs" textLength="45" x="365.5" y="1357.8701">Switch</text>
    <text fill="#000000" font-family="sans-serif" font-size="14" lengthAdjust="spacingAndGlyphs" textLength="198" x="289" y="1374.167">transaction-requests-service</text>
    <rect fill="#FEFECE" filter="url(#f5v6o94dgerc7)" height="30.2969" style="stroke:#A80036;stroke-width:1.5" width="86" x="692" y="56.25"/>
    <text fill="#000000" font-family="sans-serif" font-size="14" lengthAdjust="spacingAndGlyphs" textLength="72" x="699" y="76.2451">Payee FSP</text>
    <rect fill="#FEFECE" filter="url(#f5v6o94dgerc7)" height="30.2969" style="stroke:#A80036;stroke-width:1.5" width="86" x="692" y="1337.875"/>
    <text fill="#000000" font-family="sans-serif" font-size="14" lengthAdjust="spacingAndGlyphs" textLength="72" x="699" y="1357.8701">Payee FSP</text>
    <path d="M316,106.5469 L316,146.5469 L811,146.5469 L811,116.5469 L801,106.5469 L316,106.5469 " fill="#FBFB77" filter="url(#f5v6o94dgerc7)" style="stroke:#A80036;stroke-width:1.0"/>
    <path d="M801,106.5469 L801,116.5469 L811,116.5469 L801,106.5469 " fill="#FBFB77" style="stroke:#A80036;stroke-width:1.0"/>
    <text fill="#000000" font-family="sans-serif" font-size="13" lengthAdjust="spacingAndGlyphs" textLength="468" x="323" y="123.6138">Payee FSP requests the status of a transaction-request at the Payer FSP.</text>
    <text fill="#000000" font-family="sans-serif" font-size="13" lengthAdjust="spacingAndGlyphs" textLength="369" x="323" y="138.7466">ID here is the ID of prevoiusly created transaction-request</text>
    <polygon fill="#A80036" points="401,172.9453,391,176.9453,401,176.9453" style="stroke:#A80036;stroke-width:1.0"/>
    <line style="stroke:#A80036;stroke-width:1.0" x1="390" x2="736" y1="176.9453" y2="176.9453"/>
    <text fill="#000000" font-family="sans-serif" font-size="13" font-weight="bold" lengthAdjust="spacingAndGlyphs" textLength="9" x="407" y="171.8794">1</text>
    <text fill="#000000" font-family="sans-serif" font-size="13" lengthAdjust="spacingAndGlyphs" textLength="197" x="420" y="171.8794">GET /transactionRequests/{ID}</text>
    <line style="stroke:#A80036;stroke-width:1.0" x1="390" x2="432" y1="206.0781" y2="206.0781"/>
    <line style="stroke:#A80036;stroke-width:1.0" x1="432" x2="432" y1="206.0781" y2="219.0781"/>
    <line style="stroke:#A80036;stroke-width:1.0" x1="391" x2="432" y1="219.0781" y2="219.0781"/>
    <polygon fill="#A80036" points="401,215.0781,391,219.0781,401,223.0781,397,219.0781" style="stroke:#A80036;stroke-width:1.0"/>
    <text fill="#000000" font-family="sans-serif" font-size="13" font-weight="bold" lengthAdjust="spacingAndGlyphs" textLength="9" x="397" y="201.0122">2</text>
    <text fill="#000000" font-family="sans-serif" font-size="13" lengthAdjust="spacingAndGlyphs" textLength="253" x="410" y="201.0122">Validate GET /transactionRequests/{ID}</text>
    <polygon fill="#A80036" points="725,249.2109,735,249.2109,725,253.2109" style="stroke:#A80036;stroke-width:1.0"/>
    <line style="stroke:#A80036;stroke-width:1.0;stroke-dasharray:2.0,2.0" x1="390" x2="736" y1="248.2109" y2="248.2109"/>
    <text fill="#000000" font-family="sans-serif" font-size="13" font-weight="bold" lengthAdjust="spacingAndGlyphs" textLength="9" x="397" y="243.145">3</text>
    <text fill="#000000" font-family="sans-serif" font-size="13" lengthAdjust="spacingAndGlyphs" textLength="88" x="410" y="243.145">202 Accepted</text>
    <path d="M9,263.2109 L73,263.2109 L73,270.2109 L63,280.2109 L9,280.2109 L9,263.2109 " fill="#EEEEEE" style="stroke:#000000;stroke-width:1.0"/>
    <rect fill="none" height="1058.6641" style="stroke:#000000;stroke-width:2.0" width="832" x="9" y="263.2109"/>
    <text fill="#000000" font-family="sans-serif" font-size="13" font-weight="bold" lengthAdjust="spacingAndGlyphs" textLength="19" x="24" y="276.2778">alt</text>
    <text fill="#000000" font-family="sans-serif" font-size="11" font-weight="bold" lengthAdjust="spacingAndGlyphs" textLength="227" x="88" y="275.4214">[transaction-request query is valid]</text>
    <line style="stroke:#A80036;stroke-width:1.0" x1="390" x2="432" y1="301.4766" y2="301.4766"/>
    <line style="stroke:#A80036;stroke-width:1.0" x1="432" x2="432" y1="301.4766" y2="314.4766"/>
    <line style="stroke:#A80036;stroke-width:1.0" x1="391" x2="432" y1="314.4766" y2="314.4766"/>
    <polygon fill="#A80036" points="401,310.4766,391,314.4766,401,318.4766,397,314.4766" style="stroke:#A80036;stroke-width:1.0"/>
    <text fill="#000000" font-family="sans-serif" font-size="13" font-weight="bold" lengthAdjust="spacingAndGlyphs" textLength="9" x="397" y="296.4106">4</text>
    <text fill="#000000" font-family="sans-serif" font-size="13" lengthAdjust="spacingAndGlyphs" textLength="308" x="410" y="296.4106">Retrieve corresponding end-points for Payer FSP</text>
    <path d="M19,327.4766 L19,352.4766 L478,352.4766 L478,337.4766 L468,327.4766 L19,327.4766 " fill="#FBFB77" filter="url(#f5v6o94dgerc7)" style="stroke:#A80036;stroke-width:1.0"/>
    <path d="M468,327.4766 L468,337.4766 L478,337.4766 L468,327.4766 " fill="#FBFB77" style="stroke:#A80036;stroke-width:1.0"/>
    <text fill="#000000" font-family="sans-serif" font-size="13" lengthAdjust="spacingAndGlyphs" textLength="438" x="25" y="344.5435">Switch forwards GET /transactionRequests/{ID} request to Payer FSP</text>
    <polygon fill="#A80036" points="123,378.7422,113,382.7422,123,382.7422" style="stroke:#A80036;stroke-width:1.0"/>
    <line style="stroke:#A80036;stroke-width:1.0" x1="112" x2="389" y1="382.7422" y2="382.7422"/>
    <text fill="#000000" font-family="sans-serif" font-size="13" font-weight="bold" lengthAdjust="spacingAndGlyphs" textLength="9" x="129" y="377.6763">5</text>
    <text fill="#000000" font-family="sans-serif" font-size="13" lengthAdjust="spacingAndGlyphs" textLength="197" x="142" y="377.6763">GET /transactionRequests/{ID}</text>
    <polygon fill="#A80036" points="378,412.875,388,412.875,378,416.875" style="stroke:#A80036;stroke-width:1.0"/>
    <line style="stroke:#A80036;stroke-width:1.0;stroke-dasharray:2.0,2.0" x1="112" x2="389" y1="411.875" y2="411.875"/>
    <text fill="#000000" font-family="sans-serif" font-size="13" font-weight="bold" lengthAdjust="spacingAndGlyphs" textLength="9" x="119" y="406.8091">6</text>
    <text fill="#000000" font-family="sans-serif" font-size="13" lengthAdjust="spacingAndGlyphs" textLength="88" x="132" y="406.8091">202 Accepted</text>
    <line style="stroke:#A80036;stroke-width:1.0" x1="112" x2="154" y1="441.0078" y2="441.0078"/>
    <line style="stroke:#A80036;stroke-width:1.0" x1="154" x2="154" y1="441.0078" y2="454.0078"/>
    <line style="stroke:#A80036;stroke-width:1.0" x1="113" x2="154" y1="454.0078" y2="454.0078"/>
    <polygon fill="#A80036" points="123,450.0078,113,454.0078,123,458.0078,119,454.0078" style="stroke:#A80036;stroke-width:1.0"/>
    <text fill="#000000" font-family="sans-serif" font-size="13" font-weight="bold" lengthAdjust="spacingAndGlyphs" textLength="9" x="119" y="435.9419">7</text>
    <text fill="#000000" font-family="sans-serif" font-size="13" lengthAdjust="spacingAndGlyphs" textLength="182" x="132" y="435.9419">Retrieve transaction-request</text>
    <path d="M19,469.0078 L83,469.0078 L83,476.0078 L73,486.0078 L19,486.0078 L19,469.0078 " fill="#EEEEEE" style="stroke:#000000;stroke-width:1.0"/>
    <rect fill="none" height="733.6641" style="stroke:#000000;stroke-width:2.0" width="812" x="19" y="469.0078"/>
    <text fill="#000000" font-family="sans-serif" font-size="13" font-weight="bold" lengthAdjust="spacingAndGlyphs" textLength="19" x="34" y="482.0747">alt</text>
    <text fill="#000000" font-family="sans-serif" font-size="11" font-weight="bold" lengthAdjust="spacingAndGlyphs" textLength="349" x="98" y="481.2183">[Payer FSP successfully retrieves transaction-request]</text>
    <path d="M39,491.1406 L39,531.1406 L463,531.1406 L463,501.1406 L453,491.1406 L39,491.1406 " fill="#FBFB77" filter="url(#f5v6o94dgerc7)" style="stroke:#A80036;stroke-width:1.0"/>
    <path d="M453,491.1406 L453,501.1406 L463,501.1406 L453,491.1406 " fill="#FBFB77" style="stroke:#A80036;stroke-width:1.0"/>
    <text fill="#000000" font-family="sans-serif" font-size="13" lengthAdjust="spacingAndGlyphs" textLength="181" x="118.5" y="508.2075">Payer FSP responds with the</text>
    <text fill="#000000" font-family="sans-serif" font-size="13" lengthAdjust="spacingAndGlyphs" textLength="252" x="118.5" y="523.3403">PUT /transactionRequests/{ID} callback</text>
    <polygon fill="#A80036" points="378,557.5391,388,561.5391,378,561.5391" style="stroke:#A80036;stroke-width:1.0"/>
    <line style="stroke:#A80036;stroke-width:1.0" x1="112" x2="389" y1="561.5391" y2="561.5391"/>
    <text fill="#000000" font-family="sans-serif" font-size="13" font-weight="bold" lengthAdjust="spacingAndGlyphs" textLength="9" x="119" y="556.4731">8</text>
    <text fill="#000000" font-family="sans-serif" font-size="13" lengthAdjust="spacingAndGlyphs" textLength="197" x="132" y="556.4731">PUT /transactionRequests/{ID}</text>
    <polygon fill="#A80036" points="123,591.6719,113,591.6719,123,595.6719" style="stroke:#A80036;stroke-width:1.0"/>
    <line style="stroke:#A80036;stroke-width:1.0;stroke-dasharray:2.0,2.0" x1="112" x2="389" y1="590.6719" y2="590.6719"/>
    <text fill="#000000" font-family="sans-serif" font-size="13" font-weight="bold" lengthAdjust="spacingAndGlyphs" textLength="9" x="129" y="585.606">9</text>
    <text fill="#000000" font-family="sans-serif" font-size="13" lengthAdjust="spacingAndGlyphs" textLength="45" x="142" y="585.606">200 Ok</text>
    <line style="stroke:#A80036;stroke-width:1.0" x1="390" x2="432" y1="619.8047" y2="619.8047"/>
    <line style="stroke:#A80036;stroke-width:1.0" x1="432" x2="432" y1="619.8047" y2="632.8047"/>
    <line style="stroke:#A80036;stroke-width:1.0" x1="391" x2="432" y1="632.8047" y2="632.8047"/>
    <polygon fill="#A80036" points="401,628.8047,391,632.8047,401,636.8047,397,632.8047" style="stroke:#A80036;stroke-width:1.0"/>
    <text fill="#000000" font-family="sans-serif" font-size="13" font-weight="bold" lengthAdjust="spacingAndGlyphs" textLength="18" x="397" y="614.7388">10</text>
    <text fill="#000000" font-family="sans-serif" font-size="13" lengthAdjust="spacingAndGlyphs" textLength="253" x="419" y="614.7388">Validate PUT /transactionRequests/{ID}</text>
    <path d="M29,647.8047 L93,647.8047 L93,654.8047 L83,664.8047 L29,664.8047 L29,647.8047 " fill="#EEEEEE" style="stroke:#000000;stroke-width:1.0"/>
    <rect fill="none" height="338.2656" style="stroke:#000000;stroke-width:2.0" width="792" x="29" y="647.8047"/>
    <text fill="#000000" font-family="sans-serif" font-size="13" font-weight="bold" lengthAdjust="spacingAndGlyphs" textLength="19" x="44" y="660.8716">alt</text>
    <text fill="#000000" font-family="sans-serif" font-size="11" font-weight="bold" lengthAdjust="spacingAndGlyphs" textLength="103" x="108" y="660.0151">[response is ok]</text>
    <path d="M316,669.9375 L316,694.9375 L811,694.9375 L811,679.9375 L801,669.9375 L316,669.9375 " fill="#FBFB77" filter="url(#f5v6o94dgerc7)" style="stroke:#A80036;stroke-width:1.0"/>
    <path d="M801,669.9375 L801,679.9375 L811,679.9375 L801,669.9375 " fill="#FBFB77" style="stroke:#A80036;stroke-width:1.0"/>
    <text fill="#000000" font-family="sans-serif" font-size="13" lengthAdjust="spacingAndGlyphs" textLength="380" x="367" y="687.0044">Switch forwards transaction-request response to Payee FSP</text>
    <line style="stroke:#A80036;stroke-width:1.0" x1="390" x2="432" y1="725.2031" y2="725.2031"/>
    <line style="stroke:#A80036;stroke-width:1.0" x1="432" x2="432" y1="725.2031" y2="738.2031"/>
    <line style="stroke:#A80036;stroke-width:1.0" x1="391" x2="432" y1="738.2031" y2="738.2031"/>
    <polygon fill="#A80036" points="401,734.2031,391,738.2031,401,742.2031,397,738.2031" style="stroke:#A80036;stroke-width:1.0"/>
    <text fill="#000000" font-family="sans-serif" font-size="13" font-weight="bold" lengthAdjust="spacingAndGlyphs" textLength="18" x="397" y="720.1372">11</text>
    <text fill="#000000" font-family="sans-serif" font-size="13" lengthAdjust="spacingAndGlyphs" textLength="311" x="419" y="720.1372">Retrieve corresponding end-points for Payee FSP</text>
    <polygon fill="#A80036" points="725,763.3359,735,767.3359,725,767.3359" style="stroke:#A80036;stroke-width:1.0"/>
    <line style="stroke:#A80036;stroke-width:1.0" x1="390" x2="736" y1="767.3359" y2="767.3359"/>
    <text fill="#000000" font-family="sans-serif" font-size="13" font-weight="bold" lengthAdjust="spacingAndGlyphs" textLength="18" x="397" y="762.27">12</text>
    <text fill="#000000" font-family="sans-serif" font-size="13" lengthAdjust="spacingAndGlyphs" textLength="197" x="419" y="762.27">PUT /transactionRequests/{ID}</text>
    <polygon fill="#A80036" points="401,797.4688,391,797.4688,401,801.4688" style="stroke:#A80036;stroke-width:1.0"/>
    <line style="stroke:#A80036;stroke-width:1.0;stroke-dasharray:2.0,2.0" x1="390" x2="736" y1="796.4688" y2="796.4688"/>
    <text fill="#000000" font-family="sans-serif" font-size="13" font-weight="bold" lengthAdjust="spacingAndGlyphs" textLength="18" x="407" y="791.4028">13</text>
    <text fill="#000000" font-family="sans-serif" font-size="13" lengthAdjust="spacingAndGlyphs" textLength="45" x="429" y="791.4028">200 Ok</text>
    <line style="stroke:#000000;stroke-width:1.0;stroke-dasharray:2.0,2.0" x1="29" x2="821" y1="805.4688" y2="805.4688"/>
    <text fill="#000000" font-family="sans-serif" font-size="11" font-weight="bold" lengthAdjust="spacingAndGlyphs" textLength="116" x="34" y="815.6792">[response invalid]</text>
    <path d="M39,824.2734 L39,849.2734 L463,849.2734 L463,834.2734 L453,824.2734 L39,824.2734 " fill="#FBFB77" filter="url(#f5v6o94dgerc7)" style="stroke:#A80036;stroke-width:1.0"/>
    <path d="M453,824.2734 L453,834.2734 L463,834.2734 L453,824.2734 " fill="#FBFB77" style="stroke:#A80036;stroke-width:1.0"/>
    <text fill="#000000" font-family="sans-serif" font-size="13" lengthAdjust="spacingAndGlyphs" textLength="211" x="139" y="841.3403">Switch returns error to Payer FSP</text>
    <polygon fill="#A80036" points="123,875.5391,113,879.5391,123,879.5391" style="stroke:#A80036;stroke-width:1.0"/>
    <line style="stroke:#A80036;stroke-width:1.0" x1="112" x2="389" y1="879.5391" y2="879.5391"/>
    <text fill="#000000" font-family="sans-serif" font-size="13" font-weight="bold" lengthAdjust="spacingAndGlyphs" textLength="18" x="129" y="874.4731">14</text>
    <text fill="#000000" font-family="sans-serif" font-size="13" lengthAdjust="spacingAndGlyphs" textLength="232" x="151" y="874.4731">PUT /transactionRequests/{ID}/error</text>
    <polygon fill="#A80036" points="378,909.6719,388,909.6719,378,913.6719" style="stroke:#A80036;stroke-width:1.0"/>
    <line style="stroke:#A80036;stroke-width:1.0;stroke-dasharray:2.0,2.0" x1="112" x2="389" y1="908.6719" y2="908.6719"/>
    <text fill="#000000" font-family="sans-serif" font-size="13" font-weight="bold" lengthAdjust="spacingAndGlyphs" textLength="18" x="119" y="903.606">15</text>
    <text fill="#000000" font-family="sans-serif" font-size="13" lengthAdjust="spacingAndGlyphs" textLength="45" x="141" y="903.606">200 Ok</text>
    <path d="M39,921.6719 L39,976.6719 L463,976.6719 L463,931.6719 L453,921.6719 L39,921.6719 " fill="#EC7063" filter="url(#f5v6o94dgerc7)" style="stroke:#A80036;stroke-width:1.0"/>
    <path d="M453,921.6719 L453,931.6719 L463,931.6719 L453,921.6719 " fill="#EC7063" style="stroke:#A80036;stroke-width:1.0"/>
    <text fill="#000000" font-family="sans-serif" font-size="13" lengthAdjust="spacingAndGlyphs" textLength="129" x="155.5" y="938.7388">Note that under this</text>
    <text fill="#000000" font-family="sans-serif" font-size="13" lengthAdjust="spacingAndGlyphs" textLength="150" x="155.5" y="953.8716">scenario the Payee FSP</text>
    <text fill="#000000" font-family="sans-serif" font-size="13" lengthAdjust="spacingAndGlyphs" textLength="178" x="155.5" y="969.0044">may not receive a response</text>
    <line style="stroke:#000000;stroke-width:1.0;stroke-dasharray:2.0,2.0" x1="19" x2="831" y1="994.0703" y2="994.0703"/>
    <text fill="#000000" font-family="sans-serif" font-size="11" font-weight="bold" lengthAdjust="spacingAndGlyphs" textLength="364" x="24" y="1004.2808">[Payer FSP is unable to retrieve the transaction-request]</text>
    <path d="M39,1012.875 L39,1037.875 L463,1037.875 L463,1022.875 L453,1012.875 L39,1012.875 " fill="#FBFB77" filter="url(#f5v6o94dgerc7)" style="stroke:#A80036;stroke-width:1.0"/>
    <path d="M453,1012.875 L453,1022.875 L463,1022.875 L453,1012.875 " fill="#FBFB77" style="stroke:#A80036;stroke-width:1.0"/>
    <text fill="#000000" font-family="sans-serif" font-size="13" lengthAdjust="spacingAndGlyphs" textLength="211" x="139" y="1029.9419">Payer FSP returns error to Switch</text>
    <polygon fill="#A80036" points="378,1064.1406,388,1068.1406,378,1068.1406" style="stroke:#A80036;stroke-width:1.0"/>
    <line style="stroke:#A80036;stroke-width:1.0" x1="112" x2="389" y1="1068.1406" y2="1068.1406"/>
    <text fill="#000000" font-family="sans-serif" font-size="13" font-weight="bold" lengthAdjust="spacingAndGlyphs" textLength="18" x="119" y="1063.0747">16</text>
    <text fill="#000000" font-family="sans-serif" font-size="13" lengthAdjust="spacingAndGlyphs" textLength="232" x="141" y="1063.0747">PUT /transactionRequests/{ID}/error</text>
    <polygon fill="#A80036" points="123,1098.2734,113,1098.2734,123,1102.2734" style="stroke:#A80036;stroke-width:1.0"/>
    <line style="stroke:#A80036;stroke-width:1.0;stroke-dasharray:2.0,2.0" x1="112" x2="389" y1="1097.2734" y2="1097.2734"/>
    <text fill="#000000" font-family="sans-serif" font-size="13" font-weight="bold" lengthAdjust="spacingAndGlyphs" textLength="18" x="129" y="1092.2075">17</text>
    <text fill="#000000" font-family="sans-serif" font-size="13" lengthAdjust="spacingAndGlyphs" textLength="46" x="151" y="1092.2075">200 OK</text>
    <path d="M316,1110.2734 L316,1135.2734 L811,1135.2734 L811,1120.2734 L801,1110.2734 L316,1110.2734 " fill="#FBFB77" filter="url(#f5v6o94dgerc7)" style="stroke:#A80036;stroke-width:1.0"/>
    <path d="M801,1110.2734 L801,1120.2734 L811,1120.2734 L801,1110.2734 " fill="#FBFB77" style="stroke:#A80036;stroke-width:1.0"/>
    <text fill="#000000" font-family="sans-serif" font-size="13" lengthAdjust="spacingAndGlyphs" textLength="214" x="450" y="1127.3403">Switch returns error to Payee FSP</text>
    <polygon fill="#A80036" points="725,1161.5391,735,1165.5391,725,1165.5391" style="stroke:#A80036;stroke-width:1.0"/>
    <line style="stroke:#A80036;stroke-width:1.0" x1="390" x2="736" y1="1165.5391" y2="1165.5391"/>
    <text fill="#000000" font-family="sans-serif" font-size="13" font-weight="bold" lengthAdjust="spacingAndGlyphs" textLength="18" x="397" y="1160.4731">18</text>
    <text fill="#000000" font-family="sans-serif" font-size="13" lengthAdjust="spacingAndGlyphs" textLength="232" x="419" y="1160.4731">PUT /transactionRequests/{ID}/error</text>
    <polygon fill="#A80036" points="401,1195.6719,391,1195.6719,401,1199.6719" style="stroke:#A80036;stroke-width:1.0"/>
    <line style="stroke:#A80036;stroke-width:1.0;stroke-dasharray:2.0,2.0" x1="390" x2="736" y1="1194.6719" y2="1194.6719"/>
    <text fill="#000000" font-family="sans-serif" font-size="13" font-weight="bold" lengthAdjust="spacingAndGlyphs" textLength="18" x="407" y="1189.606">19</text>
    <text fill="#000000" font-family="sans-serif" font-size="13" lengthAdjust="spacingAndGlyphs" textLength="46" x="429" y="1189.606">200 OK</text>
    <line style="stroke:#000000;stroke-width:1.0;stroke-dasharray:2.0,2.0" x1="9" x2="841" y1="1210.6719" y2="1210.6719"/>
    <text fill="#000000" font-family="sans-serif" font-size="11" font-weight="bold" lengthAdjust="spacingAndGlyphs" textLength="199" x="14" y="1220.8823">[transaction-request is invalid]</text>
    <path d="M316,1229.4766 L316,1254.4766 L811,1254.4766 L811,1239.4766 L801,1229.4766 L316,1229.4766 " fill="#FBFB77" filter="url(#f5v6o94dgerc7)" style="stroke:#A80036;stroke-width:1.0"/>
    <path d="M801,1229.4766 L801,1239.4766 L811,1239.4766 L801,1229.4766 " fill="#FBFB77" style="stroke:#A80036;stroke-width:1.0"/>
    <text fill="#000000" font-family="sans-serif" font-size="13" lengthAdjust="spacingAndGlyphs" textLength="214" x="450" y="1246.5435">Switch returns error to Payee FSP</text>
    <polygon fill="#A80036" points="725,1280.7422,735,1284.7422,725,1284.7422" style="stroke:#A80036;stroke-width:1.0"/>
    <line style="stroke:#A80036;stroke-width:1.0" x1="390" x2="736" y1="1284.7422" y2="1284.7422"/>
    <text fill="#000000" font-family="sans-serif" font-size="13" font-weight="bold" lengthAdjust="spacingAndGlyphs" textLength="18" x="397" y="1279.6763">20</text>
    <text fill="#000000" font-family="sans-serif" font-size="13" lengthAdjust="spacingAndGlyphs" textLength="232" x="419" y="1279.6763">PUT /transactionRequests/{ID}/error</text>
    <polygon fill="#A80036" points="401,1314.875,391,1314.875,401,1318.875" style="stroke:#A80036;stroke-width:1.0"/>
    <line style="stroke:#A80036;stroke-width:1.0;stroke-dasharray:2.0,2.0" x1="390" x2="736" y1="1313.875" y2="1313.875"/>
    <text fill="#000000" font-family="sans-serif" font-size="13" font-weight="bold" lengthAdjust="spacingAndGlyphs" textLength="18" x="407" y="1308.8091">21</text>
    <text fill="#000000" font-family="sans-serif" font-size="13" lengthAdjust="spacingAndGlyphs" textLength="46" x="429" y="1308.8091">200 OK</text>
  </g>
</svg>
