<?xml version="1.0" encoding="UTF-8" standalone="no"?>
<svg xmlns="http://www.w3.org/2000/svg" xmlns:xlink="http://www.w3.org/1999/xlink" contentScriptType="application/ecmascript" contentStyleType="text/css" height="1521px" preserveAspectRatio="none" style="width:953px;height:1521px" version="1.1" viewBox="0 0 953 1521" width="953px" zoomAndPan="magnify">
  <defs>
    <filter height="300%" id="f1poyt44xoasoj" width="300%" x="-1" y="-1">
      <feGaussianBlur result="blurOut" stdDeviation="2.0"/>
      <feColorMatrix in="blurOut" result="blurOut2" type="matrix" values="0 0 0 0 0 0 0 0 0 0 0 0 0 0 0 0 0 0 .4 0"/>
      <feOffset dx="4.0" dy="4.0" in="blurOut2" result="blurOut3"/>
      <feBlend in="SourceGraphic" in2="blurOut3" mode="normal"/>
    </filter>
  </defs>
  <g>
    <text fill="#000000" font-family="sans-serif" font-size="18" lengthAdjust="spacingAndGlyphs" textLength="339" x="305" y="28.708">Transaction Requests Service - Create</text>
    <rect fill="#FFFFFF" filter="url(#f1poyt44xoasoj)" height="1139.9297" style="stroke:#000000;stroke-width:2.0" width="929" x="10" y="305.3438"/>
    <rect fill="#FFFFFF" filter="url(#f1poyt44xoasoj)" height="772.7969" style="stroke:#000000;stroke-width:2.0" width="909" x="20" y="553.2734"/>
    <rect fill="#FFFFFF" filter="url(#f1poyt44xoasoj)" height="392.5313" style="stroke:#000000;stroke-width:2.0" width="889" x="30" y="716.9375"/>
    <rect fill="#FFFFFF" height="181.6016" style="stroke:none;stroke-width:1.0" width="889" x="30" y="927.8672"/>
    <rect fill="#FFFFFF" height="209.6016" style="stroke:none;stroke-width:1.0" width="909" x="20" y="1116.4688"/>
    <rect fill="#FFFFFF" height="112.2031" style="stroke:none;stroke-width:1.0" width="929" x="10" y="1333.0703"/>
    <line style="stroke:#A80036;stroke-width:1.0;stroke-dasharray:5.0,5.0" x1="113" x2="113" y1="91.5469" y2="1462.2734"/>
    <line style="stroke:#A80036;stroke-width:1.0;stroke-dasharray:5.0,5.0" x1="391" x2="391" y1="91.5469" y2="1462.2734"/>
    <line style="stroke:#A80036;stroke-width:1.0;stroke-dasharray:5.0,5.0" x1="774" x2="774" y1="91.5469" y2="1462.2734"/>
    <rect fill="#FEFECE" filter="url(#f1poyt44xoasoj)" height="30.2969" style="stroke:#A80036;stroke-width:1.5" width="82" x="70" y="56.25"/>
    <text fill="#000000" font-family="sans-serif" font-size="14" lengthAdjust="spacingAndGlyphs" textLength="68" x="77" y="76.2451">Payer FSP</text>
    <rect fill="#FEFECE" filter="url(#f1poyt44xoasoj)" height="30.2969" style="stroke:#A80036;stroke-width:1.5" width="82" x="70" y="1461.2734"/>
    <text fill="#000000" font-family="sans-serif" font-size="14" lengthAdjust="spacingAndGlyphs" textLength="68" x="77" y="1481.2686">Payer FSP</text>
    <rect fill="#FEFECE" filter="url(#f1poyt44xoasoj)" height="46.5938" style="stroke:#A80036;stroke-width:1.5" width="212" x="283" y="39.9531"/>
    <text fill="#000000" font-family="sans-serif" font-size="14" lengthAdjust="spacingAndGlyphs" textLength="45" x="366.5" y="59.9482">Switch</text>
    <text fill="#000000" font-family="sans-serif" font-size="14" lengthAdjust="spacingAndGlyphs" textLength="198" x="290" y="76.2451">transaction-requests-service</text>
    <rect fill="#FEFECE" filter="url(#f1poyt44xoasoj)" height="46.5938" style="stroke:#A80036;stroke-width:1.5" width="212" x="283" y="1461.2734"/>
    <text fill="#000000" font-family="sans-serif" font-size="14" lengthAdjust="spacingAndGlyphs" textLength="45" x="366.5" y="1481.2686">Switch</text>
    <text fill="#000000" font-family="sans-serif" font-size="14" lengthAdjust="spacingAndGlyphs" textLength="198" x="290" y="1497.5654">transaction-requests-service</text>
    <rect fill="#FEFECE" filter="url(#f1poyt44xoasoj)" height="30.2969" style="stroke:#A80036;stroke-width:1.5" width="86" x="729" y="56.25"/>
    <text fill="#000000" font-family="sans-serif" font-size="14" lengthAdjust="spacingAndGlyphs" textLength="72" x="736" y="76.2451">Payee FSP</text>
    <rect fill="#FEFECE" filter="url(#f1poyt44xoasoj)" height="30.2969" style="stroke:#A80036;stroke-width:1.5" width="86" x="729" y="1461.2734"/>
    <text fill="#000000" font-family="sans-serif" font-size="14" lengthAdjust="spacingAndGlyphs" textLength="72" x="736" y="1481.2686">Payee FSP</text>
    <line style="stroke:#A80036;stroke-width:1.0" x1="774" x2="816" y1="137.8125" y2="137.8125"/>
    <line style="stroke:#A80036;stroke-width:1.0" x1="816" x2="816" y1="137.8125" y2="150.8125"/>
    <line style="stroke:#A80036;stroke-width:1.0" x1="775" x2="816" y1="150.8125" y2="150.8125"/>
    <polygon fill="#A80036" points="785,146.8125,775,150.8125,785,150.8125" style="stroke:#A80036;stroke-width:1.0"/>
    <text fill="#000000" font-family="sans-serif" font-size="13" font-weight="bold" lengthAdjust="spacingAndGlyphs" textLength="9" x="781" y="125.1802">1</text>
    <text fill="#000000" font-family="sans-serif" font-size="13" lengthAdjust="spacingAndGlyphs" textLength="100" x="794" y="117.6138">Lookup process</text>
    <text fill="#000000" font-family="sans-serif" font-size="13" lengthAdjust="spacingAndGlyphs" textLength="108" x="794" y="132.7466">(not shown here)</text>
    <path d="M317,163.8125 L317,188.8125 L848,188.8125 L848,173.8125 L838,163.8125 L317,163.8125 " fill="#FBFB77" filter="url(#f1poyt44xoasoj)" style="stroke:#A80036;stroke-width:1.0"/>
    <path d="M838,163.8125 L838,173.8125 L848,173.8125 L838,163.8125 " fill="#FBFB77" style="stroke:#A80036;stroke-width:1.0"/>
    <text fill="#000000" font-family="sans-serif" font-size="13" lengthAdjust="spacingAndGlyphs" textLength="388" x="382" y="180.8794">Payee FSP generates a transaction-request to the Payer FSP</text>
    <polygon fill="#A80036" points="402,215.0781,392,219.0781,402,219.0781" style="stroke:#A80036;stroke-width:1.0"/>
    <line style="stroke:#A80036;stroke-width:1.0" x1="391" x2="773" y1="219.0781" y2="219.0781"/>
    <text fill="#000000" font-family="sans-serif" font-size="13" font-weight="bold" lengthAdjust="spacingAndGlyphs" textLength="9" x="408" y="214.0122">2</text>
    <text fill="#000000" font-family="sans-serif" font-size="13" lengthAdjust="spacingAndGlyphs" textLength="173" x="421" y="214.0122">POST /transactionRequests</text>
    <line style="stroke:#A80036;stroke-width:1.0" x1="391" x2="433" y1="248.2109" y2="248.2109"/>
    <line style="stroke:#A80036;stroke-width:1.0" x1="433" x2="433" y1="248.2109" y2="261.2109"/>
    <line style="stroke:#A80036;stroke-width:1.0" x1="392" x2="433" y1="261.2109" y2="261.2109"/>
    <polygon fill="#A80036" points="402,257.2109,392,261.2109,402,265.2109,398,261.2109" style="stroke:#A80036;stroke-width:1.0"/>
    <text fill="#000000" font-family="sans-serif" font-size="13" font-weight="bold" lengthAdjust="spacingAndGlyphs" textLength="9" x="398" y="243.145">3</text>
    <text fill="#000000" font-family="sans-serif" font-size="13" lengthAdjust="spacingAndGlyphs" textLength="284" x="411" y="243.145">Validate POST /transactionRequests schema</text>
    <polygon fill="#A80036" points="762,291.3438,772,291.3438,762,295.3438" style="stroke:#A80036;stroke-width:1.0"/>
    <line style="stroke:#A80036;stroke-width:1.0;stroke-dasharray:2.0,2.0" x1="391" x2="773" y1="290.3438" y2="290.3438"/>
    <text fill="#000000" font-family="sans-serif" font-size="13" font-weight="bold" lengthAdjust="spacingAndGlyphs" textLength="9" x="398" y="285.2778">4</text>
    <text fill="#000000" font-family="sans-serif" font-size="13" lengthAdjust="spacingAndGlyphs" textLength="88" x="411" y="285.2778">202 Accepted</text>
    <path d="M10,305.3438 L74,305.3438 L74,312.3438 L64,322.3438 L10,322.3438 L10,305.3438 " fill="#EEEEEE" style="stroke:#000000;stroke-width:1.0"/>
    <rect fill="none" height="1139.9297" style="stroke:#000000;stroke-width:2.0" width="929" x="10" y="305.3438"/>
    <text fill="#000000" font-family="sans-serif" font-size="13" font-weight="bold" lengthAdjust="spacingAndGlyphs" textLength="19" x="25" y="318.4106">alt</text>
    <text fill="#000000" font-family="sans-serif" font-size="11" font-weight="bold" lengthAdjust="spacingAndGlyphs" textLength="187" x="89" y="317.5542">[transaction-request is valid]</text>
    <line style="stroke:#A80036;stroke-width:1.0" x1="391" x2="433" y1="343.6094" y2="343.6094"/>
    <line style="stroke:#A80036;stroke-width:1.0" x1="433" x2="433" y1="343.6094" y2="356.6094"/>
    <line style="stroke:#A80036;stroke-width:1.0" x1="392" x2="433" y1="356.6094" y2="356.6094"/>
    <polygon fill="#A80036" points="402,352.6094,392,356.6094,402,360.6094,398,356.6094" style="stroke:#A80036;stroke-width:1.0"/>
    <text fill="#000000" font-family="sans-serif" font-size="13" font-weight="bold" lengthAdjust="spacingAndGlyphs" textLength="9" x="398" y="338.5435">5</text>
    <text fill="#000000" font-family="sans-serif" font-size="13" lengthAdjust="spacingAndGlyphs" textLength="356" x="411" y="338.5435">Validate POST /transactionRequests (internal validation)</text>
    <line style="stroke:#A80036;stroke-width:1.0" x1="391" x2="433" y1="385.7422" y2="385.7422"/>
    <line style="stroke:#A80036;stroke-width:1.0" x1="433" x2="433" y1="385.7422" y2="398.7422"/>
    <line style="stroke:#A80036;stroke-width:1.0" x1="392" x2="433" y1="398.7422" y2="398.7422"/>
    <polygon fill="#A80036" points="402,394.7422,392,398.7422,402,402.7422,398,398.7422" style="stroke:#A80036;stroke-width:1.0"/>
    <text fill="#000000" font-family="sans-serif" font-size="13" font-weight="bold" lengthAdjust="spacingAndGlyphs" textLength="9" x="398" y="380.6763">6</text>
    <text fill="#000000" font-family="sans-serif" font-size="13" lengthAdjust="spacingAndGlyphs" textLength="308" x="411" y="380.6763">Retrieve corresponding end-points for Payer FSP</text>
    <path d="M32,411.7422 L32,436.7422 L467,436.7422 L467,421.7422 L457,411.7422 L32,411.7422 " fill="#FBFB77" filter="url(#f1poyt44xoasoj)" style="stroke:#A80036;stroke-width:1.0"/>
    <path d="M457,411.7422 L457,421.7422 L467,421.7422 L457,411.7422 " fill="#FBFB77" style="stroke:#A80036;stroke-width:1.0"/>
    <text fill="#000000" font-family="sans-serif" font-size="13" lengthAdjust="spacingAndGlyphs" textLength="414" x="38" y="428.8091">Switch forwards POST /transactionRequests request to Payer FSP</text>
    <polygon fill="#A80036" points="124,463.0078,114,467.0078,124,467.0078" style="stroke:#A80036;stroke-width:1.0"/>
    <line style="stroke:#A80036;stroke-width:1.0" x1="113" x2="390" y1="467.0078" y2="467.0078"/>
    <text fill="#000000" font-family="sans-serif" font-size="13" font-weight="bold" lengthAdjust="spacingAndGlyphs" textLength="9" x="130" y="461.9419">7</text>
    <text fill="#000000" font-family="sans-serif" font-size="13" lengthAdjust="spacingAndGlyphs" textLength="173" x="143" y="461.9419">POST /transactionRequests</text>
    <polygon fill="#A80036" points="379,497.1406,389,497.1406,379,501.1406" style="stroke:#A80036;stroke-width:1.0"/>
    <line style="stroke:#A80036;stroke-width:1.0;stroke-dasharray:2.0,2.0" x1="113" x2="390" y1="496.1406" y2="496.1406"/>
    <text fill="#000000" font-family="sans-serif" font-size="13" font-weight="bold" lengthAdjust="spacingAndGlyphs" textLength="9" x="120" y="491.0747">8</text>
    <text fill="#000000" font-family="sans-serif" font-size="13" lengthAdjust="spacingAndGlyphs" textLength="88" x="133" y="491.0747">202 Accepted</text>
    <line style="stroke:#A80036;stroke-width:1.0" x1="113" x2="155" y1="525.2734" y2="525.2734"/>
    <line style="stroke:#A80036;stroke-width:1.0" x1="155" x2="155" y1="525.2734" y2="538.2734"/>
    <line style="stroke:#A80036;stroke-width:1.0" x1="114" x2="155" y1="538.2734" y2="538.2734"/>
    <polygon fill="#A80036" points="124,534.2734,114,538.2734,124,542.2734,120,538.2734" style="stroke:#A80036;stroke-width:1.0"/>
    <text fill="#000000" font-family="sans-serif" font-size="13" font-weight="bold" lengthAdjust="spacingAndGlyphs" textLength="9" x="120" y="520.2075">9</text>
    <text fill="#000000" font-family="sans-serif" font-size="13" lengthAdjust="spacingAndGlyphs" textLength="180" x="133" y="520.2075">Process transaction-request</text>
    <path d="M20,553.2734 L84,553.2734 L84,560.2734 L74,570.2734 L20,570.2734 L20,553.2734 " fill="#EEEEEE" style="stroke:#000000;stroke-width:1.0"/>
    <rect fill="none" height="772.7969" style="stroke:#000000;stroke-width:2.0" width="909" x="20" y="553.2734"/>
    <text fill="#000000" font-family="sans-serif" font-size="13" font-weight="bold" lengthAdjust="spacingAndGlyphs" textLength="19" x="35" y="566.3403">alt</text>
    <text fill="#000000" font-family="sans-serif" font-size="11" font-weight="bold" lengthAdjust="spacingAndGlyphs" textLength="357" x="99" y="565.4839">[Payer FSP successfully processes transaction-request]</text>
    <path d="M40,575.4063 L40,600.4063 L464,600.4063 L464,585.4063 L454,575.4063 L40,575.4063 " fill="#FBFB77" filter="url(#f1poyt44xoasoj)" style="stroke:#A80036;stroke-width:1.0"/>
    <path d="M454,575.4063 L454,585.4063 L464,585.4063 L454,575.4063 " fill="#FBFB77" style="stroke:#A80036;stroke-width:1.0"/>
    <text fill="#000000" font-family="sans-serif" font-size="13" lengthAdjust="spacingAndGlyphs" textLength="321" x="85" y="592.4731">Payer FSP responds to POST /transactionRequests</text>
    <polygon fill="#A80036" points="379,626.6719,389,630.6719,379,630.6719" style="stroke:#A80036;stroke-width:1.0"/>
    <line style="stroke:#A80036;stroke-width:1.0" x1="113" x2="390" y1="630.6719" y2="630.6719"/>
    <text fill="#000000" font-family="sans-serif" font-size="13" font-weight="bold" lengthAdjust="spacingAndGlyphs" textLength="18" x="120" y="625.606">10</text>
    <text fill="#000000" font-family="sans-serif" font-size="13" lengthAdjust="spacingAndGlyphs" textLength="197" x="142" y="625.606">PUT /transactionRequests/{ID}</text>
    <polygon fill="#A80036" points="124,660.8047,114,660.8047,124,664.8047" style="stroke:#A80036;stroke-width:1.0"/>
    <line style="stroke:#A80036;stroke-width:1.0;stroke-dasharray:2.0,2.0" x1="113" x2="390" y1="659.8047" y2="659.8047"/>
    <text fill="#000000" font-family="sans-serif" font-size="13" font-weight="bold" lengthAdjust="spacingAndGlyphs" textLength="18" x="130" y="654.7388">11</text>
    <text fill="#000000" font-family="sans-serif" font-size="13" lengthAdjust="spacingAndGlyphs" textLength="45" x="152" y="654.7388">200 Ok</text>
    <line style="stroke:#A80036;stroke-width:1.0" x1="391" x2="433" y1="688.9375" y2="688.9375"/>
    <line style="stroke:#A80036;stroke-width:1.0" x1="433" x2="433" y1="688.9375" y2="701.9375"/>
    <line style="stroke:#A80036;stroke-width:1.0" x1="392" x2="433" y1="701.9375" y2="701.9375"/>
    <polygon fill="#A80036" points="402,697.9375,392,701.9375,402,705.9375,398,701.9375" style="stroke:#A80036;stroke-width:1.0"/>
    <text fill="#000000" font-family="sans-serif" font-size="13" font-weight="bold" lengthAdjust="spacingAndGlyphs" textLength="18" x="398" y="683.8716">12</text>
    <text fill="#000000" font-family="sans-serif" font-size="13" lengthAdjust="spacingAndGlyphs" textLength="253" x="420" y="683.8716">Validate PUT /transactionRequests/{ID}</text>
    <path d="M30,716.9375 L94,716.9375 L94,723.9375 L84,733.9375 L30,733.9375 L30,716.9375 " fill="#EEEEEE" style="stroke:#000000;stroke-width:1.0"/>
    <rect fill="none" height="392.5313" style="stroke:#000000;stroke-width:2.0" width="889" x="30" y="716.9375"/>
    <text fill="#000000" font-family="sans-serif" font-size="13" font-weight="bold" lengthAdjust="spacingAndGlyphs" textLength="19" x="45" y="730.0044">alt</text>
    <text fill="#000000" font-family="sans-serif" font-size="11" font-weight="bold" lengthAdjust="spacingAndGlyphs" textLength="103" x="109" y="729.1479">[response is ok]</text>
    <path d="M317,739.0703 L317,764.0703 L848,764.0703 L848,749.0703 L838,739.0703 L317,739.0703 " fill="#FBFB77" filter="url(#f1poyt44xoasoj)" style="stroke:#A80036;stroke-width:1.0"/>
    <path d="M838,739.0703 L838,749.0703 L848,749.0703 L838,739.0703 " fill="#FBFB77" style="stroke:#A80036;stroke-width:1.0"/>
    <text fill="#000000" font-family="sans-serif" font-size="13" lengthAdjust="spacingAndGlyphs" textLength="380" x="386" y="756.1372">Switch forwards transaction-request response to Payee FSP</text>
    <line style="stroke:#A80036;stroke-width:1.0" x1="391" x2="433" y1="794.3359" y2="794.3359"/>
    <line style="stroke:#A80036;stroke-width:1.0" x1="433" x2="433" y1="794.3359" y2="807.3359"/>
    <line style="stroke:#A80036;stroke-width:1.0" x1="392" x2="433" y1="807.3359" y2="807.3359"/>
    <polygon fill="#A80036" points="402,803.3359,392,807.3359,402,811.3359,398,807.3359" style="stroke:#A80036;stroke-width:1.0"/>
    <text fill="#000000" font-family="sans-serif" font-size="13" font-weight="bold" lengthAdjust="spacingAndGlyphs" textLength="18" x="398" y="789.27">13</text>
    <text fill="#000000" font-family="sans-serif" font-size="13" lengthAdjust="spacingAndGlyphs" textLength="311" x="420" y="789.27">Retrieve corresponding end-points for Payee FSP</text>
    <polygon fill="#A80036" points="762,832.4688,772,836.4688,762,836.4688" style="stroke:#A80036;stroke-width:1.0"/>
    <line style="stroke:#A80036;stroke-width:1.0" x1="391" x2="773" y1="836.4688" y2="836.4688"/>
    <text fill="#000000" font-family="sans-serif" font-size="13" font-weight="bold" lengthAdjust="spacingAndGlyphs" textLength="18" x="398" y="831.4028">14</text>
    <text fill="#000000" font-family="sans-serif" font-size="13" lengthAdjust="spacingAndGlyphs" textLength="197" x="420" y="831.4028">PUT /transactionRequests/{ID}</text>
    <polygon fill="#A80036" points="402,866.6016,392,866.6016,402,870.6016" style="stroke:#A80036;stroke-width:1.0"/>
    <line style="stroke:#A80036;stroke-width:1.0;stroke-dasharray:2.0,2.0" x1="391" x2="773" y1="865.6016" y2="865.6016"/>
    <text fill="#000000" font-family="sans-serif" font-size="13" font-weight="bold" lengthAdjust="spacingAndGlyphs" textLength="18" x="408" y="860.5356">15</text>
    <text fill="#000000" font-family="sans-serif" font-size="13" lengthAdjust="spacingAndGlyphs" textLength="45" x="430" y="860.5356">200 Ok</text>
    <path d="M638,878.6016 L638,918.6016 L905,918.6016 L905,888.6016 L895,878.6016 L638,878.6016 " fill="#3498DB" filter="url(#f1poyt44xoasoj)" style="stroke:#A80036;stroke-width:1.0"/>
    <path d="M895,878.6016 L895,888.6016 L905,888.6016 L895,878.6016 " fill="#3498DB" style="stroke:#A80036;stroke-width:1.0"/>
    <text fill="#000000" font-family="sans-serif" font-size="13" lengthAdjust="spacingAndGlyphs" textLength="246" x="644" y="895.6685">Wait for a quote, transfer by Payer FSP</text>
    <text fill="#000000" font-family="sans-serif" font-size="13" lengthAdjust="spacingAndGlyphs" textLength="211" x="644" y="910.8013">or a rejected transaction-request</text>
    <line style="stroke:#000000;stroke-width:1.0;stroke-dasharray:2.0,2.0" x1="30" x2="919" y1="928.8672" y2="928.8672"/>
    <text fill="#000000" font-family="sans-serif" font-size="11" font-weight="bold" lengthAdjust="spacingAndGlyphs" textLength="116" x="35" y="939.0776">[response invalid]</text>
    <path d="M40,947.6719 L40,972.6719 L464,972.6719 L464,957.6719 L454,947.6719 L40,947.6719 " fill="#FBFB77" filter="url(#f1poyt44xoasoj)" style="stroke:#A80036;stroke-width:1.0"/>
    <path d="M454,947.6719 L454,957.6719 L464,957.6719 L454,947.6719 " fill="#FBFB77" style="stroke:#A80036;stroke-width:1.0"/>
    <text fill="#000000" font-family="sans-serif" font-size="13" lengthAdjust="spacingAndGlyphs" textLength="211" x="140" y="964.7388">Switch returns error to Payer FSP</text>
    <polygon fill="#A80036" points="124,998.9375,114,1002.9375,124,1002.9375" style="stroke:#A80036;stroke-width:1.0"/>
    <line style="stroke:#A80036;stroke-width:1.0" x1="113" x2="390" y1="1002.9375" y2="1002.9375"/>
    <text fill="#000000" font-family="sans-serif" font-size="13" font-weight="bold" lengthAdjust="spacingAndGlyphs" textLength="18" x="130" y="997.8716">16</text>
    <text fill="#000000" font-family="sans-serif" font-size="13" lengthAdjust="spacingAndGlyphs" textLength="232" x="152" y="997.8716">PUT /transactionRequests/{ID}/error</text>
    <polygon fill="#A80036" points="379,1033.0703,389,1033.0703,379,1037.0703" style="stroke:#A80036;stroke-width:1.0"/>
    <line style="stroke:#A80036;stroke-width:1.0;stroke-dasharray:2.0,2.0" x1="113" x2="390" y1="1032.0703" y2="1032.0703"/>
    <text fill="#000000" font-family="sans-serif" font-size="13" font-weight="bold" lengthAdjust="spacingAndGlyphs" textLength="18" x="120" y="1027.0044">17</text>
    <text fill="#000000" font-family="sans-serif" font-size="13" lengthAdjust="spacingAndGlyphs" textLength="45" x="142" y="1027.0044">200 Ok</text>
    <path d="M40,1045.0703 L40,1100.0703 L464,1100.0703 L464,1055.0703 L454,1045.0703 L40,1045.0703 " fill="#EC7063" filter="url(#f1poyt44xoasoj)" style="stroke:#A80036;stroke-width:1.0"/>
    <path d="M454,1045.0703 L454,1055.0703 L464,1055.0703 L454,1045.0703 " fill="#EC7063" style="stroke:#A80036;stroke-width:1.0"/>
    <text fill="#000000" font-family="sans-serif" font-size="13" lengthAdjust="spacingAndGlyphs" textLength="129" x="156.5" y="1062.1372">Note that under this</text>
    <text fill="#000000" font-family="sans-serif" font-size="13" lengthAdjust="spacingAndGlyphs" textLength="150" x="156.5" y="1077.27">scenario the Payee FSP</text>
    <text fill="#000000" font-family="sans-serif" font-size="13" lengthAdjust="spacingAndGlyphs" textLength="178" x="156.5" y="1092.4028">may not receive a response</text>
    <line style="stroke:#000000;stroke-width:1.0;stroke-dasharray:2.0,2.0" x1="20" x2="929" y1="1117.4688" y2="1117.4688"/>
    <text fill="#000000" font-family="sans-serif" font-size="11" font-weight="bold" lengthAdjust="spacingAndGlyphs" textLength="324" x="25" y="1127.6792">[Payer FSP calculation fails or rejects the request]</text>
    <path d="M40,1136.2734 L40,1161.2734 L464,1161.2734 L464,1146.2734 L454,1136.2734 L40,1136.2734 " fill="#FBFB77" filter="url(#f1poyt44xoasoj)" style="stroke:#A80036;stroke-width:1.0"/>
    <path d="M454,1136.2734 L454,1146.2734 L464,1146.2734 L454,1136.2734 " fill="#FBFB77" style="stroke:#A80036;stroke-width:1.0"/>
    <text fill="#000000" font-family="sans-serif" font-size="13" lengthAdjust="spacingAndGlyphs" textLength="211" x="140" y="1153.3403">Payer FSP returns error to Switch</text>
    <polygon fill="#A80036" points="379,1187.5391,389,1191.5391,379,1191.5391" style="stroke:#A80036;stroke-width:1.0"/>
    <line style="stroke:#A80036;stroke-width:1.0" x1="113" x2="390" y1="1191.5391" y2="1191.5391"/>
    <text fill="#000000" font-family="sans-serif" font-size="13" font-weight="bold" lengthAdjust="spacingAndGlyphs" textLength="18" x="120" y="1186.4731">18</text>
    <text fill="#000000" font-family="sans-serif" font-size="13" lengthAdjust="spacingAndGlyphs" textLength="232" x="142" y="1186.4731">PUT /transactionRequests/{ID}/error</text>
    <polygon fill="#A80036" points="124,1221.6719,114,1221.6719,124,1225.6719" style="stroke:#A80036;stroke-width:1.0"/>
    <line style="stroke:#A80036;stroke-width:1.0;stroke-dasharray:2.0,2.0" x1="113" x2="390" y1="1220.6719" y2="1220.6719"/>
    <text fill="#000000" font-family="sans-serif" font-size="13" font-weight="bold" lengthAdjust="spacingAndGlyphs" textLength="18" x="130" y="1215.606">19</text>
    <text fill="#000000" font-family="sans-serif" font-size="13" lengthAdjust="spacingAndGlyphs" textLength="46" x="152" y="1215.606">200 OK</text>
    <path d="M317,1233.6719 L317,1258.6719 L848,1258.6719 L848,1243.6719 L838,1233.6719 L317,1233.6719 " fill="#FBFB77" filter="url(#f1poyt44xoasoj)" style="stroke:#A80036;stroke-width:1.0"/>
    <path d="M838,1233.6719 L838,1243.6719 L848,1243.6719 L838,1233.6719 " fill="#FBFB77" style="stroke:#A80036;stroke-width:1.0"/>
    <text fill="#000000" font-family="sans-serif" font-size="13" lengthAdjust="spacingAndGlyphs" textLength="214" x="469" y="1250.7388">Switch returns error to Payee FSP</text>
    <polygon fill="#A80036" points="762,1284.9375,772,1288.9375,762,1288.9375" style="stroke:#A80036;stroke-width:1.0"/>
    <line style="stroke:#A80036;stroke-width:1.0" x1="391" x2="773" y1="1288.9375" y2="1288.9375"/>
    <text fill="#000000" font-family="sans-serif" font-size="13" font-weight="bold" lengthAdjust="spacingAndGlyphs" textLength="18" x="398" y="1283.8716">20</text>
    <text fill="#000000" font-family="sans-serif" font-size="13" lengthAdjust="spacingAndGlyphs" textLength="232" x="420" y="1283.8716">PUT /transactionRequests/{ID}/error</text>
    <polygon fill="#A80036" points="402,1319.0703,392,1319.0703,402,1323.0703" style="stroke:#A80036;stroke-width:1.0"/>
    <line style="stroke:#A80036;stroke-width:1.0;stroke-dasharray:2.0,2.0" x1="391" x2="773" y1="1318.0703" y2="1318.0703"/>
    <text fill="#000000" font-family="sans-serif" font-size="13" font-weight="bold" lengthAdjust="spacingAndGlyphs" textLength="18" x="408" y="1313.0044">21</text>
    <text fill="#000000" font-family="sans-serif" font-size="13" lengthAdjust="spacingAndGlyphs" textLength="46" x="430" y="1313.0044">200 OK</text>
    <line style="stroke:#000000;stroke-width:1.0;stroke-dasharray:2.0,2.0" x1="10" x2="939" y1="1334.0703" y2="1334.0703"/>
    <text fill="#000000" font-family="sans-serif" font-size="11" font-weight="bold" lengthAdjust="spacingAndGlyphs" textLength="199" x="15" y="1344.2808">[transaction-request is invalid]</text>
    <path d="M317,1352.875 L317,1377.875 L848,1377.875 L848,1362.875 L838,1352.875 L317,1352.875 " fill="#FBFB77" filter="url(#f1poyt44xoasoj)" style="stroke:#A80036;stroke-width:1.0"/>
    <path d="M838,1352.875 L838,1362.875 L848,1362.875 L838,1352.875 " fill="#FBFB77" style="stroke:#A80036;stroke-width:1.0"/>
    <text fill="#000000" font-family="sans-serif" font-size="13" lengthAdjust="spacingAndGlyphs" textLength="214" x="469" y="1369.9419">Switch returns error to Payee FSP</text>
    <polygon fill="#A80036" points="762,1404.1406,772,1408.1406,762,1408.1406" style="stroke:#A80036;stroke-width:1.0"/>
    <line style="stroke:#A80036;stroke-width:1.0" x1="391" x2="773" y1="1408.1406" y2="1408.1406"/>
    <text fill="#000000" font-family="sans-serif" font-size="13" font-weight="bold" lengthAdjust="spacingAndGlyphs" textLength="18" x="398" y="1403.0747">22</text>
    <text fill="#000000" font-family="sans-serif" font-size="13" lengthAdjust="spacingAndGlyphs" textLength="232" x="420" y="1403.0747">PUT /transactionRequests/{ID}/error</text>
    <polygon fill="#A80036" points="402,1438.2734,392,1438.2734,402,1442.2734" style="stroke:#A80036;stroke-width:1.0"/>
    <line style="stroke:#A80036;stroke-width:1.0;stroke-dasharray:2.0,2.0" x1="391" x2="773" y1="1437.2734" y2="1437.2734"/>
    <text fill="#000000" font-family="sans-serif" font-size="13" font-weight="bold" lengthAdjust="spacingAndGlyphs" textLength="18" x="408" y="1432.2075">23</text>
    <text fill="#000000" font-family="sans-serif" font-size="13" lengthAdjust="spacingAndGlyphs" textLength="46" x="430" y="1432.2075">200 OK</text>
  </g>
</svg>
