<?xml version="1.0" encoding="us-ascii" standalone="no"?><svg xmlns="http://www.w3.org/2000/svg" xmlns:xlink="http://www.w3.org/1999/xlink" contentStyleType="text/css" height="1758px" preserveAspectRatio="none" style="width:1606px;height:1758px;background:#FFFFFF;" version="1.1" viewBox="0 0 1606 1758" width="1606px" zoomAndPan="magnify"><defs/><g><text fill="#000000" font-family="sans-serif" font-size="14" font-weight="bold" lengthAdjust="spacing" textLength="184" x="707.25" y="29.5332">Interscheme - Error Cases</text><rect fill="#DDDDDD" height="1707.7188" style="stroke:#181818;stroke-width:0.5;" width="375" x="350" y="44.6094"/><text fill="#000000" font-family="sans-serif" font-size="13" font-weight="bold" lengthAdjust="spacing" textLength="65" x="505" y="58.1045">Scheme A</text><rect fill="#DDDDDD" height="1707.7188" style="stroke:#181818;stroke-width:0.5;" width="373" x="943.5" y="44.6094"/><text fill="#000000" font-family="sans-serif" font-size="13" font-weight="bold" lengthAdjust="spacing" textLength="65" x="1097.5" y="58.1045">Scheme B</text><rect fill="none" height="48.7031" style="stroke:#000000;stroke-width:1.5;" width="318" x="124" y="245.5859"/><rect fill="none" height="85.0547" style="stroke:#000000;stroke-width:1.5;" width="555" x="124" y="338.6406"/><rect fill="none" height="85.0547" style="stroke:#000000;stroke-width:1.5;" width="408" x="124" y="468.0469"/><rect fill="none" height="241.5156" style="stroke:#000000;stroke-width:1.5;" width="841.5" x="124" y="597.4531"/><rect fill="none" height="249.8125" style="stroke:#000000;stroke-width:1.5;" width="1148.5" x="124" y="987.375"/><rect fill="none" height="370.2188" style="stroke:#000000;stroke-width:1.5;" width="1465.5" x="124" y="1311.8906"/><line style="stroke:#181818;stroke-width:0.5;stroke-dasharray:5.0,5.0;" x1="180" x2="180" y1="115.1797" y2="1699.1094"/><line style="stroke:#181818;stroke-width:0.5;stroke-dasharray:5.0,5.0;" x1="393" x2="393" y1="115.1797" y2="1699.1094"/><line style="stroke:#181818;stroke-width:0.5;stroke-dasharray:5.0,5.0;" x1="674" x2="674" y1="115.1797" y2="1699.1094"/><line style="stroke:#181818;stroke-width:0.5;stroke-dasharray:5.0,5.0;" x1="766" x2="766" y1="115.1797" y2="1699.1094"/><line style="stroke:#181818;stroke-width:0.5;stroke-dasharray:5.0,5.0;" x1="986.5" x2="986.5" y1="115.1797" y2="1699.1094"/><line style="stroke:#181818;stroke-width:0.5;stroke-dasharray:5.0,5.0;" x1="1265.5" x2="1265.5" y1="115.1797" y2="1699.1094"/><line style="stroke:#181818;stroke-width:0.5;stroke-dasharray:5.0,5.0;" x1="1365.5" x2="1365.5" y1="115.1797" y2="1699.1094"/><rect fill="#E2E2F0" height="31.6094" rx="2.5" ry="2.5" style="stroke:#181818;stroke-width:0.5;" width="92" x="134" y="82.5703"/><text fill="#000000" font-family="sans-serif" font-size="14" lengthAdjust="spacing" textLength="78" x="141" y="104.1035">Payer DFSP</text><rect fill="#E2E2F0" height="31.6094" rx="2.5" ry="2.5" style="stroke:#181818;stroke-width:0.5;" width="92" x="134" y="1698.1094"/><text fill="#000000" font-family="sans-serif" font-size="14" lengthAdjust="spacing" textLength="78" x="141" y="1719.6426">Payer DFSP</text><rect fill="#E2E2F0" height="49.2188" rx="2.5" ry="2.5" style="stroke:#181818;stroke-width:0.5;" width="78" x="354" y="64.9609"/><text fill="#000000" font-family="sans-serif" font-size="14" lengthAdjust="spacing" textLength="26" x="380" y="86.4941">ALS</text><text fill="#000000" font-family="sans-serif" font-size="14" lengthAdjust="spacing" textLength="64" x="361" y="104.1035">Scheme A</text><rect fill="#E2E2F0" height="49.2188" rx="2.5" ry="2.5" style="stroke:#181818;stroke-width:0.5;" width="78" x="354" y="1698.1094"/><text fill="#000000" font-family="sans-serif" font-size="14" lengthAdjust="spacing" textLength="26" x="380" y="1719.6426">ALS</text><text fill="#000000" font-family="sans-serif" font-size="14" lengthAdjust="spacing" textLength="64" x="361" y="1737.252">Scheme A</text><rect fill="#E2E2F0" height="49.2188" rx="2.5" ry="2.5" style="stroke:#181818;stroke-width:0.5;" width="94" x="627" y="64.9609"/><text fill="#000000" font-family="sans-serif" font-size="14" lengthAdjust="spacing" textLength="80" x="634" y="86.4941">Proxy Cache</text><text fill="#000000" font-family="sans-serif" font-size="14" lengthAdjust="spacing" textLength="64" x="642" y="104.1035">Scheme A</text><rect fill="#E2E2F0" height="49.2188" rx="2.5" ry="2.5" style="stroke:#181818;stroke-width:0.5;" width="94" x="627" y="1698.1094"/><text fill="#000000" font-family="sans-serif" font-size="14" lengthAdjust="spacing" textLength="80" x="634" y="1719.6426">Proxy Cache</text><text fill="#000000" font-family="sans-serif" font-size="14" lengthAdjust="spacing" textLength="64" x="642" y="1737.252">Scheme A</text><rect fill="#E2E2F0" height="31.6094" rx="2.5" ry="2.5" style="stroke:#181818;stroke-width:0.5;" width="71" x="731" y="82.5703"/><text fill="#000000" font-family="sans-serif" font-size="14" lengthAdjust="spacing" textLength="57" x="738" y="104.1035">Proxy AB</text><rect fill="#E2E2F0" height="31.6094" rx="2.5" ry="2.5" style="stroke:#181818;stroke-width:0.5;" width="71" x="731" y="1698.1094"/><text fill="#000000" font-family="sans-serif" font-size="14" lengthAdjust="spacing" textLength="57" x="738" y="1719.6426">Proxy AB</text><rect fill="#E2E2F0" height="49.2188" rx="2.5" ry="2.5" style="stroke:#181818;stroke-width:0.5;" width="78" x="947.5" y="64.9609"/><text fill="#000000" font-family="sans-serif" font-size="14" lengthAdjust="spacing" textLength="26" x="973.5" y="86.4941">ALS</text><text fill="#000000" font-family="sans-serif" font-size="14" lengthAdjust="spacing" textLength="64" x="954.5" y="104.1035">Scheme B</text><rect fill="#E2E2F0" height="49.2188" rx="2.5" ry="2.5" style="stroke:#181818;stroke-width:0.5;" width="78" x="947.5" y="1698.1094"/><text fill="#000000" font-family="sans-serif" font-size="14" lengthAdjust="spacing" textLength="26" x="973.5" y="1719.6426">ALS</text><text fill="#000000" font-family="sans-serif" font-size="14" lengthAdjust="spacing" textLength="64" x="954.5" y="1737.252">Scheme B</text><rect fill="#E2E2F0" height="49.2188" rx="2.5" ry="2.5" style="stroke:#181818;stroke-width:0.5;" width="94" x="1218.5" y="64.9609"/><text fill="#000000" font-family="sans-serif" font-size="14" lengthAdjust="spacing" textLength="80" x="1225.5" y="86.4941">Proxy Cache</text><text fill="#000000" font-family="sans-serif" font-size="14" lengthAdjust="spacing" textLength="64" x="1233.5" y="104.1035">Scheme B</text><rect fill="#E2E2F0" height="49.2188" rx="2.5" ry="2.5" style="stroke:#181818;stroke-width:0.5;" width="94" x="1218.5" y="1698.1094"/><text fill="#000000" font-family="sans-serif" font-size="14" lengthAdjust="spacing" textLength="80" x="1225.5" y="1719.6426">Proxy Cache</text><text fill="#000000" font-family="sans-serif" font-size="14" lengthAdjust="spacing" textLength="64" x="1233.5" y="1737.252">Scheme B</text><rect fill="#E2E2F0" height="31.6094" rx="2.5" ry="2.5" style="stroke:#181818;stroke-width:0.5;" width="86" x="1322.5" y="82.5703"/><text fill="#000000" font-family="sans-serif" font-size="14" lengthAdjust="spacing" textLength="72" x="1329.5" y="104.1035">Payee DFS</text><rect fill="#E2E2F0" height="31.6094" rx="2.5" ry="2.5" style="stroke:#181818;stroke-width:0.5;" width="86" x="1322.5" y="1698.1094"/><text fill="#000000" font-family="sans-serif" font-size="14" lengthAdjust="spacing" textLength="72" x="1329.5" y="1719.6426">Payee DFS</text><rect fill="#EEEEEE" height="3" style="stroke:#EEEEEE;stroke-width:1.0;" width="1599.5" x="0" y="146.3555"/><line style="stroke:#000000;stroke-width:1.0;" x1="0" x2="1599.5" y1="146.3555" y2="146.3555"/><line style="stroke:#000000;stroke-width:1.0;" x1="0" x2="1599.5" y1="149.3555" y2="149.3555"/><rect fill="#EEEEEE" height="24.3516" style="stroke:#000000;stroke-width:2.0;" width="54" x="772.75" y="135.1797"/><text fill="#000000" font-family="sans-serif" font-size="13" font-weight="bold" lengthAdjust="spacing" textLength="36" x="778.75" y="152.6748">POST</text><line style="stroke:#181818;stroke-width:1.0;" x1="391" x2="381" y1="211.2344" y2="207.2344"/><line style="stroke:#181818;stroke-width:1.0;" x1="391" x2="381" y1="211.2344" y2="215.2344"/><line style="stroke:#181818;stroke-width:1.0;" x1="180" x2="392" y1="211.2344" y2="211.2344"/><text fill="#000000" font-family="sans-serif" font-size="13" font-weight="bold" lengthAdjust="spacing" textLength="15" x="187" y="206.3779">[1]</text><text fill="#000000" font-family="sans-serif" font-size="13" lengthAdjust="spacing" textLength="170" x="206" y="206.3779">POST/GET/PATCH/PUT /xxx</text><path d="M5,174.5313 L5,233.5313 L175,233.5313 L175,184.5313 L165,174.5313 L5,174.5313 " fill="#FEFFDD" style="stroke:#181818;stroke-width:0.5;"/><path d="M165,174.5313 L165,184.5313 L175,184.5313 L165,174.5313 " fill="#FEFFDD" style="stroke:#181818;stroke-width:0.5;"/><text fill="#000000" font-family="sans-serif" font-size="13" lengthAdjust="spacing" textLength="39" x="11" y="193.0264">header</text><text fill="#000000" font-family="sans-serif" font-size="13" lengthAdjust="spacing" textLength="114" x="19" y="209.3779">source: payerDFSP</text><text fill="#000000" font-family="sans-serif" font-size="13" lengthAdjust="spacing" textLength="141" x="19" y="225.7295">destination: payeeDFSP</text><path d="M124,245.5859 L185,245.5859 L185,253.9375 L175,263.9375 L124,263.9375 L124,245.5859 " fill="#EEEEEE" style="stroke:#000000;stroke-width:1.5;"/><rect fill="none" height="48.7031" style="stroke:#000000;stroke-width:1.5;" width="318" x="124" y="245.5859"/><text fill="#000000" font-family="sans-serif" font-size="13" font-weight="bold" lengthAdjust="spacing" textLength="16" x="139" y="260.0811">alt</text><text fill="#000000" font-family="sans-serif" font-size="11" font-weight="bold" lengthAdjust="spacing" textLength="96" x="200" y="259.0049">[if OpenAPI Error]</text><line style="stroke:#181818;stroke-width:1.0;" x1="181" x2="191" y1="286.2891" y2="282.2891"/><line style="stroke:#181818;stroke-width:1.0;" x1="181" x2="191" y1="286.2891" y2="290.2891"/><line style="stroke:#181818;stroke-width:1.0;stroke-dasharray:2.0,2.0;" x1="180" x2="392" y1="286.2891" y2="286.2891"/><text fill="#000000" font-family="sans-serif" font-size="13" font-weight="bold" lengthAdjust="spacing" textLength="15" x="197" y="281.4326">[2]</text><text fill="#000000" font-family="sans-serif" font-size="13" lengthAdjust="spacing" textLength="100" x="216" y="281.4326">400 Bad Request</text><line style="stroke:#181818;stroke-width:1.0;" x1="181" x2="191" y1="323.6406" y2="319.6406"/><line style="stroke:#181818;stroke-width:1.0;" x1="181" x2="191" y1="323.6406" y2="327.6406"/><line style="stroke:#181818;stroke-width:1.0;stroke-dasharray:2.0,2.0;" x1="180" x2="392" y1="323.6406" y2="323.6406"/><text fill="#000000" font-family="sans-serif" font-size="13" font-weight="bold" lengthAdjust="spacing" textLength="15" x="197" y="318.7842">[3]</text><text fill="#000000" font-family="sans-serif" font-size="13" lengthAdjust="spacing" textLength="44" x="216" y="318.7842">202 OK</text><path d="M124,338.6406 L185,338.6406 L185,346.9922 L175,356.9922 L124,356.9922 L124,338.6406 " fill="#EEEEEE" style="stroke:#000000;stroke-width:1.5;"/><rect fill="none" height="85.0547" style="stroke:#000000;stroke-width:1.5;" width="555" x="124" y="338.6406"/><text fill="#000000" font-family="sans-serif" font-size="13" font-weight="bold" lengthAdjust="spacing" textLength="16" x="139" y="353.1357">alt</text><text fill="#000000" font-family="sans-serif" font-size="11" font-weight="bold" lengthAdjust="spacing" textLength="116" x="200" y="352.0596">[if error in schemeA]</text><line style="stroke:#181818;stroke-width:1.0;" x1="181" x2="191" y1="382.3438" y2="378.3438"/><line style="stroke:#181818;stroke-width:1.0;" x1="181" x2="191" y1="382.3438" y2="386.3438"/><line style="stroke:#181818;stroke-width:1.0;" x1="180" x2="392" y1="382.3438" y2="382.3438"/><text fill="#000000" font-family="sans-serif" font-size="13" font-weight="bold" lengthAdjust="spacing" textLength="15" x="197" y="377.4873">[4]</text><text fill="#000000" font-family="sans-serif" font-size="13" lengthAdjust="spacing" textLength="108" x="216" y="377.4873">PUT /xxx/{ID}/error</text><path d="M398,361.9922 L398,387.9922 L664,387.9922 L664,371.9922 L654,361.9922 L398,361.9922 " fill="#FEFFDD" style="stroke:#181818;stroke-width:0.5;"/><path d="M654,361.9922 L654,371.9922 L664,371.9922 L654,361.9922 " fill="#FEFFDD" style="stroke:#181818;stroke-width:0.5;"/><text fill="#000000" font-family="sans-serif" font-size="13" lengthAdjust="spacing" textLength="213" x="404" y="380.4873">Error Codes: 2xxx, 3xxx, 4xxx, 5xxx</text><line style="stroke:#181818;stroke-width:1.0;" x1="391" x2="381" y1="415.6953" y2="411.6953"/><line style="stroke:#181818;stroke-width:1.0;" x1="391" x2="381" y1="415.6953" y2="419.6953"/><line style="stroke:#181818;stroke-width:1.0;stroke-dasharray:2.0,2.0;" x1="180" x2="392" y1="415.6953" y2="415.6953"/><text fill="#000000" font-family="sans-serif" font-size="13" font-weight="bold" lengthAdjust="spacing" textLength="15" x="187" y="410.8389">[5]</text><text fill="#000000" font-family="sans-serif" font-size="13" lengthAdjust="spacing" textLength="44" x="206" y="410.8389">200 OK</text><polygon fill="#181818" points="662,449.0469,672,453.0469,662,457.0469,666,453.0469" style="stroke:#181818;stroke-width:1.0;"/><line style="stroke:#181818;stroke-width:1.0;" x1="393" x2="668" y1="453.0469" y2="453.0469"/><text fill="#000000" font-family="sans-serif" font-size="13" font-weight="bold" lengthAdjust="spacing" textLength="15" x="400" y="448.1904">[6]</text><text fill="#000000" font-family="sans-serif" font-size="13" lengthAdjust="spacing" textLength="238" x="419" y="448.1904">lookup proxy for payeeDFSP = Proxy AB</text><path d="M124,468.0469 L185,468.0469 L185,476.3984 L175,486.3984 L124,486.3984 L124,468.0469 " fill="#EEEEEE" style="stroke:#000000;stroke-width:1.5;"/><rect fill="none" height="85.0547" style="stroke:#000000;stroke-width:1.5;" width="408" x="124" y="468.0469"/><text fill="#000000" font-family="sans-serif" font-size="13" font-weight="bold" lengthAdjust="spacing" textLength="16" x="139" y="482.542">alt</text><text fill="#000000" font-family="sans-serif" font-size="11" font-weight="bold" lengthAdjust="spacing" textLength="118" x="200" y="481.4658">[if not in proxy cache]</text><line style="stroke:#181818;stroke-width:1.0;" x1="181" x2="191" y1="511.75" y2="507.75"/><line style="stroke:#181818;stroke-width:1.0;" x1="181" x2="191" y1="511.75" y2="515.75"/><line style="stroke:#181818;stroke-width:1.0;" x1="180" x2="392" y1="511.75" y2="511.75"/><text fill="#000000" font-family="sans-serif" font-size="13" font-weight="bold" lengthAdjust="spacing" textLength="15" x="197" y="506.8936">[7]</text><text fill="#000000" font-family="sans-serif" font-size="13" lengthAdjust="spacing" textLength="108" x="216" y="506.8936">PUT /xxx/{ID}/error</text><path d="M398,491.3984 L398,517.3984 L517,517.3984 L517,501.3984 L507,491.3984 L398,491.3984 " fill="#FEFFDD" style="stroke:#181818;stroke-width:0.5;"/><path d="M507,491.3984 L507,501.3984 L517,501.3984 L507,491.3984 " fill="#FEFFDD" style="stroke:#181818;stroke-width:0.5;"/><text fill="#000000" font-family="sans-serif" font-size="13" lengthAdjust="spacing" textLength="98" x="404" y="509.8936">Error Code: 3201</text><line style="stroke:#181818;stroke-width:1.0;" x1="391" x2="381" y1="545.1016" y2="541.1016"/><line style="stroke:#181818;stroke-width:1.0;" x1="391" x2="381" y1="545.1016" y2="549.1016"/><line style="stroke:#181818;stroke-width:1.0;stroke-dasharray:2.0,2.0;" x1="180" x2="392" y1="545.1016" y2="545.1016"/><text fill="#000000" font-family="sans-serif" font-size="13" font-weight="bold" lengthAdjust="spacing" textLength="15" x="187" y="540.2451">[8]</text><text fill="#000000" font-family="sans-serif" font-size="13" lengthAdjust="spacing" textLength="44" x="206" y="540.2451">200 OK</text><line style="stroke:#181818;stroke-width:1.0;" x1="764.5" x2="754.5" y1="582.4531" y2="578.4531"/><line style="stroke:#181818;stroke-width:1.0;" x1="764.5" x2="754.5" y1="582.4531" y2="586.4531"/><line style="stroke:#181818;stroke-width:1.0;" x1="393" x2="765.5" y1="582.4531" y2="582.4531"/><text fill="#000000" font-family="sans-serif" font-size="13" font-weight="bold" lengthAdjust="spacing" textLength="15" x="400" y="577.5967">[9]</text><text fill="#000000" font-family="sans-serif" font-size="13" lengthAdjust="spacing" textLength="170" x="419" y="577.5967">POST/GET/PATCH/PUT /xxx</text><path d="M124,597.4531 L185,597.4531 L185,605.8047 L175,615.8047 L124,615.8047 L124,597.4531 " fill="#EEEEEE" style="stroke:#000000;stroke-width:1.5;"/><rect fill="none" height="241.5156" style="stroke:#000000;stroke-width:1.5;" width="841.5" x="124" y="597.4531"/><text fill="#000000" font-family="sans-serif" font-size="13" font-weight="bold" lengthAdjust="spacing" textLength="16" x="139" y="611.9482">alt</text><text fill="#000000" font-family="sans-serif" font-size="11" font-weight="bold" lengthAdjust="spacing" textLength="83" x="200" y="610.8721">[if error in xnp]</text><line style="stroke:#181818;stroke-width:1.0;" x1="394" x2="404" y1="638.1563" y2="634.1563"/><line style="stroke:#181818;stroke-width:1.0;" x1="394" x2="404" y1="638.1563" y2="642.1563"/><line style="stroke:#181818;stroke-width:1.0;stroke-dasharray:2.0,2.0;" x1="393" x2="765.5" y1="638.1563" y2="638.1563"/><text fill="#000000" font-family="sans-serif" font-size="13" font-weight="bold" lengthAdjust="spacing" textLength="22" x="410" y="633.2998">[10]</text><text fill="#000000" font-family="sans-serif" font-size="13" lengthAdjust="spacing" textLength="131" x="436" y="633.2998">503 { ErrorCode: 3100}</text><line style="stroke:#181818;stroke-width:1.0;" x1="394" x2="404" y1="704.2109" y2="700.2109"/><line style="stroke:#181818;stroke-width:1.0;" x1="394" x2="404" y1="704.2109" y2="708.2109"/><line style="stroke:#181818;stroke-width:1.0;" x1="393" x2="765.5" y1="704.2109" y2="704.2109"/><text fill="#000000" font-family="sans-serif" font-size="13" font-weight="bold" lengthAdjust="spacing" textLength="22" x="410" y="699.3545">[11]</text><text fill="#000000" font-family="sans-serif" font-size="13" lengthAdjust="spacing" textLength="108" x="436" y="699.3545">PUT /xxx/{ID}/error</text><path d="M771,651.1563 L771,742.1563 L950,742.1563 L950,661.1563 L940,651.1563 L771,651.1563 " fill="#FEFFDD" style="stroke:#181818;stroke-width:0.5;"/><path d="M940,651.1563 L940,661.1563 L950,661.1563 L940,651.1563 " fill="#FEFFDD" style="stroke:#181818;stroke-width:0.5;"/><text fill="#000000" font-family="sans-serif" font-size="13" lengthAdjust="spacing" textLength="39" x="777" y="669.6514">header</text><text fill="#000000" font-family="sans-serif" font-size="13" lengthAdjust="spacing" textLength="103" x="777" y="686.0029">source: Proxy AB</text><text fill="#000000" font-family="sans-serif" font-size="13" lengthAdjust="spacing" textLength="138" x="777" y="702.3545">destination: payerDFSP</text><text fill="#000000" font-family="sans-serif" font-size="13" lengthAdjust="spacing" textLength="150" x="777" y="718.7061">JWS Signed by Proxy AB</text><text fill="#000000" font-family="sans-serif" font-size="13" lengthAdjust="spacing" textLength="105" x="777" y="735.0576">Error Codes: 3100</text><line style="stroke:#181818;stroke-width:1.0;" x1="764.5" x2="754.5" y1="770.2656" y2="766.2656"/><line style="stroke:#181818;stroke-width:1.0;" x1="764.5" x2="754.5" y1="770.2656" y2="774.2656"/><line style="stroke:#181818;stroke-width:1.0;stroke-dasharray:2.0,2.0;" x1="393" x2="765.5" y1="770.2656" y2="770.2656"/><text fill="#000000" font-family="sans-serif" font-size="13" font-weight="bold" lengthAdjust="spacing" textLength="22" x="400" y="765.4092">[12]</text><text fill="#000000" font-family="sans-serif" font-size="13" lengthAdjust="spacing" textLength="44" x="426" y="765.4092">200 OK</text><line style="stroke:#181818;stroke-width:1.0;" x1="181" x2="191" y1="800.6172" y2="796.6172"/><line style="stroke:#181818;stroke-width:1.0;" x1="181" x2="191" y1="800.6172" y2="804.6172"/><line style="stroke:#181818;stroke-width:1.0;" x1="180" x2="392" y1="800.6172" y2="800.6172"/><text fill="#000000" font-family="sans-serif" font-size="13" font-weight="bold" lengthAdjust="spacing" textLength="22" x="197" y="795.7607">[13]</text><text fill="#000000" font-family="sans-serif" font-size="13" lengthAdjust="spacing" textLength="108" x="223" y="795.7607">PUT /xxx/{ID}/error</text><line style="stroke:#181818;stroke-width:1.0;" x1="391" x2="381" y1="830.9688" y2="826.9688"/><line style="stroke:#181818;stroke-width:1.0;" x1="391" x2="381" y1="830.9688" y2="834.9688"/><line style="stroke:#181818;stroke-width:1.0;stroke-dasharray:2.0,2.0;" x1="180" x2="392" y1="830.9688" y2="830.9688"/><text fill="#000000" font-family="sans-serif" font-size="13" font-weight="bold" lengthAdjust="spacing" textLength="22" x="187" y="826.1123">[14]</text><text fill="#000000" font-family="sans-serif" font-size="13" lengthAdjust="spacing" textLength="44" x="213" y="826.1123">200 OK</text><line style="stroke:#181818;stroke-width:1.0;" x1="766.5" x2="808.5" y1="868.3203" y2="868.3203"/><line style="stroke:#181818;stroke-width:1.0;" x1="808.5" x2="808.5" y1="868.3203" y2="881.3203"/><line style="stroke:#181818;stroke-width:1.0;" x1="767.5" x2="808.5" y1="881.3203" y2="881.3203"/><polygon fill="#181818" points="777.5,877.3203,767.5,881.3203,777.5,885.3203,773.5,881.3203" style="stroke:#181818;stroke-width:1.0;"/><text fill="#000000" font-family="sans-serif" font-size="13" font-weight="bold" lengthAdjust="spacing" textLength="22" x="773.5" y="863.4639">[15]</text><text fill="#000000" font-family="sans-serif" font-size="13" lengthAdjust="spacing" textLength="66" x="799.5" y="863.4639">Add header</text><path d="M588,854.4688 L588,880.4688 L761,880.4688 L761,864.4688 L751,854.4688 L588,854.4688 " fill="#FEFFDD" style="stroke:#181818;stroke-width:0.5;"/><path d="M751,854.4688 L751,864.4688 L761,864.4688 L751,854.4688 " fill="#FEFFDD" style="stroke:#181818;stroke-width:0.5;"/><text fill="#000000" font-family="sans-serif" font-size="13" lengthAdjust="spacing" textLength="152" x="594" y="872.9639">fxpiop-proxy = "Proxy AB"</text><line style="stroke:#181818;stroke-width:1.0;" x1="984.5" x2="974.5" y1="911.6719" y2="907.6719"/><line style="stroke:#181818;stroke-width:1.0;" x1="984.5" x2="974.5" y1="911.6719" y2="915.6719"/><line style="stroke:#181818;stroke-width:1.0;" x1="766.5" x2="985.5" y1="911.6719" y2="911.6719"/><text fill="#000000" font-family="sans-serif" font-size="13" font-weight="bold" lengthAdjust="spacing" textLength="22" x="773.5" y="906.8154">[16]</text><text fill="#000000" font-family="sans-serif" font-size="13" lengthAdjust="spacing" textLength="170" x="799.5" y="906.8154">POST/GET/PATCH/PUT /xxx</text><line style="stroke:#181818;stroke-width:1.0;" x1="767.5" x2="777.5" y1="942.0234" y2="938.0234"/><line style="stroke:#181818;stroke-width:1.0;" x1="767.5" x2="777.5" y1="942.0234" y2="946.0234"/><line style="stroke:#181818;stroke-width:1.0;stroke-dasharray:2.0,2.0;" x1="766.5" x2="985.5" y1="942.0234" y2="942.0234"/><text fill="#000000" font-family="sans-serif" font-size="13" font-weight="bold" lengthAdjust="spacing" textLength="22" x="783.5" y="937.167">[17]</text><text fill="#000000" font-family="sans-serif" font-size="13" lengthAdjust="spacing" textLength="44" x="809.5" y="937.167">202 OK</text><line style="stroke:#181818;stroke-width:1.0;" x1="394" x2="404" y1="972.375" y2="968.375"/><line style="stroke:#181818;stroke-width:1.0;" x1="394" x2="404" y1="972.375" y2="976.375"/><line style="stroke:#181818;stroke-width:1.0;stroke-dasharray:2.0,2.0;" x1="393" x2="765.5" y1="972.375" y2="972.375"/><text fill="#000000" font-family="sans-serif" font-size="13" font-weight="bold" lengthAdjust="spacing" textLength="22" x="410" y="967.5186">[18]</text><text fill="#000000" font-family="sans-serif" font-size="13" lengthAdjust="spacing" textLength="44" x="436" y="967.5186">202 OK</text><path d="M124,987.375 L185,987.375 L185,995.7266 L175,1005.7266 L124,1005.7266 L124,987.375 " fill="#EEEEEE" style="stroke:#000000;stroke-width:1.5;"/><rect fill="none" height="249.8125" style="stroke:#000000;stroke-width:1.5;" width="1148.5" x="124" y="987.375"/><text fill="#000000" font-family="sans-serif" font-size="13" font-weight="bold" lengthAdjust="spacing" textLength="16" x="139" y="1001.8701">alt</text><text fill="#000000" font-family="sans-serif" font-size="11" font-weight="bold" lengthAdjust="spacing" textLength="115" x="200" y="1000.7939">[if error in schemeB]</text><line style="stroke:#181818;stroke-width:1.0;" x1="767.5" x2="777.5" y1="1031.0781" y2="1027.0781"/><line style="stroke:#181818;stroke-width:1.0;" x1="767.5" x2="777.5" y1="1031.0781" y2="1035.0781"/><line style="stroke:#181818;stroke-width:1.0;" x1="766.5" x2="985.5" y1="1031.0781" y2="1031.0781"/><text fill="#000000" font-family="sans-serif" font-size="13" font-weight="bold" lengthAdjust="spacing" textLength="22" x="783.5" y="1026.2217">[19]</text><text fill="#000000" font-family="sans-serif" font-size="13" lengthAdjust="spacing" textLength="108" x="809.5" y="1026.2217">PUT /xxx/{ID}/error</text><path d="M991,1010.7266 L991,1036.7266 L1257,1036.7266 L1257,1020.7266 L1247,1010.7266 L991,1010.7266 " fill="#FEFFDD" style="stroke:#181818;stroke-width:0.5;"/><path d="M1247,1010.7266 L1247,1020.7266 L1257,1020.7266 L1247,1010.7266 " fill="#FEFFDD" style="stroke:#181818;stroke-width:0.5;"/><text fill="#000000" font-family="sans-serif" font-size="13" lengthAdjust="spacing" textLength="213" x="997" y="1029.2217">Error Codes: 2xxx, 3xxx, 4xxx, 5xxx</text><line style="stroke:#181818;stroke-width:1.0;" x1="766.5" x2="808.5" y1="1064.4297" y2="1064.4297"/><line style="stroke:#181818;stroke-width:1.0;" x1="808.5" x2="808.5" y1="1064.4297" y2="1077.4297"/><line style="stroke:#181818;stroke-width:1.0;" x1="767.5" x2="808.5" y1="1077.4297" y2="1077.4297"/><polygon fill="#181818" points="777.5,1073.4297,767.5,1077.4297,777.5,1081.4297,773.5,1077.4297" style="stroke:#181818;stroke-width:1.0;"/><text fill="#000000" font-family="sans-serif" font-size="13" font-weight="bold" lengthAdjust="spacing" textLength="22" x="773.5" y="1059.5732">[20]</text><text fill="#000000" font-family="sans-serif" font-size="13" lengthAdjust="spacing" textLength="66" x="799.5" y="1059.5732">Add header</text><path d="M588,1050.5781 L588,1076.5781 L761,1076.5781 L761,1060.5781 L751,1050.5781 L588,1050.5781 " fill="#FEFFDD" style="stroke:#181818;stroke-width:0.5;"/><path d="M751,1050.5781 L751,1060.5781 L761,1060.5781 L751,1050.5781 " fill="#FEFFDD" style="stroke:#181818;stroke-width:0.5;"/><text fill="#000000" font-family="sans-serif" font-size="13" lengthAdjust="spacing" textLength="152" x="594" y="1069.0732">fxpiop-proxy = "Proxy AB"</text><line style="stroke:#181818;stroke-width:1.0;" x1="394" x2="404" y1="1107.7813" y2="1103.7813"/><line style="stroke:#181818;stroke-width:1.0;" x1="394" x2="404" y1="1107.7813" y2="1111.7813"/><line style="stroke:#181818;stroke-width:1.0;" x1="393" x2="765.5" y1="1107.7813" y2="1107.7813"/><text fill="#000000" font-family="sans-serif" font-size="13" font-weight="bold" lengthAdjust="spacing" textLength="22" x="410" y="1102.9248">[21]</text><text fill="#000000" font-family="sans-serif" font-size="13" lengthAdjust="spacing" textLength="108" x="436" y="1102.9248">PUT /xxx/{ID}/error</text><line style="stroke:#181818;stroke-width:1.0;" x1="764.5" x2="754.5" y1="1138.1328" y2="1134.1328"/><line style="stroke:#181818;stroke-width:1.0;" x1="764.5" x2="754.5" y1="1138.1328" y2="1142.1328"/><line style="stroke:#181818;stroke-width:1.0;stroke-dasharray:2.0,2.0;" x1="393" x2="765.5" y1="1138.1328" y2="1138.1328"/><text fill="#000000" font-family="sans-serif" font-size="13" font-weight="bold" lengthAdjust="spacing" textLength="22" x="400" y="1133.2764">[22]</text><text fill="#000000" font-family="sans-serif" font-size="13" lengthAdjust="spacing" textLength="44" x="426" y="1133.2764">200 OK</text><line style="stroke:#181818;stroke-width:1.0;" x1="984.5" x2="974.5" y1="1168.4844" y2="1164.4844"/><line style="stroke:#181818;stroke-width:1.0;" x1="984.5" x2="974.5" y1="1168.4844" y2="1172.4844"/><line style="stroke:#181818;stroke-width:1.0;stroke-dasharray:2.0,2.0;" x1="766.5" x2="985.5" y1="1168.4844" y2="1168.4844"/><text fill="#000000" font-family="sans-serif" font-size="13" font-weight="bold" lengthAdjust="spacing" textLength="22" x="773.5" y="1163.6279">[23]</text><text fill="#000000" font-family="sans-serif" font-size="13" lengthAdjust="spacing" textLength="44" x="799.5" y="1163.6279">200 OK</text><line style="stroke:#181818;stroke-width:1.0;" x1="181" x2="191" y1="1198.8359" y2="1194.8359"/><line style="stroke:#181818;stroke-width:1.0;" x1="181" x2="191" y1="1198.8359" y2="1202.8359"/><line style="stroke:#181818;stroke-width:1.0;" x1="180" x2="392" y1="1198.8359" y2="1198.8359"/><text fill="#000000" font-family="sans-serif" font-size="13" font-weight="bold" lengthAdjust="spacing" textLength="22" x="197" y="1193.9795">[24]</text><text fill="#000000" font-family="sans-serif" font-size="13" lengthAdjust="spacing" textLength="108" x="223" y="1193.9795">PUT /xxx/{ID}/error</text><line style="stroke:#181818;stroke-width:1.0;" x1="391" x2="381" y1="1229.1875" y2="1225.1875"/><line style="stroke:#181818;stroke-width:1.0;" x1="391" x2="381" y1="1229.1875" y2="1233.1875"/><line style="stroke:#181818;stroke-width:1.0;stroke-dasharray:2.0,2.0;" x1="180" x2="392" y1="1229.1875" y2="1229.1875"/><text fill="#000000" font-family="sans-serif" font-size="13" font-weight="bold" lengthAdjust="spacing" textLength="22" x="187" y="1224.3311">[25]</text><text fill="#000000" font-family="sans-serif" font-size="13" lengthAdjust="spacing" textLength="44" x="213" y="1224.3311">200 OK</text><line style="stroke:#181818;stroke-width:1.0;" x1="1363.5" x2="1353.5" y1="1266.5391" y2="1262.5391"/><line style="stroke:#181818;stroke-width:1.0;" x1="1363.5" x2="1353.5" y1="1266.5391" y2="1270.5391"/><line style="stroke:#181818;stroke-width:1.0;" x1="986.5" x2="1364.5" y1="1266.5391" y2="1266.5391"/><text fill="#000000" font-family="sans-serif" font-size="13" font-weight="bold" lengthAdjust="spacing" textLength="22" x="993.5" y="1261.6826">[26]</text><text fill="#000000" font-family="sans-serif" font-size="13" lengthAdjust="spacing" textLength="170" x="1019.5" y="1261.6826">POST/GET/PATCH/PUT /xxx</text><line style="stroke:#181818;stroke-width:1.0;" x1="987.5" x2="997.5" y1="1296.8906" y2="1292.8906"/><line style="stroke:#181818;stroke-width:1.0;" x1="987.5" x2="997.5" y1="1296.8906" y2="1300.8906"/><line style="stroke:#181818;stroke-width:1.0;stroke-dasharray:2.0,2.0;" x1="986.5" x2="1364.5" y1="1296.8906" y2="1296.8906"/><text fill="#000000" font-family="sans-serif" font-size="13" font-weight="bold" lengthAdjust="spacing" textLength="22" x="1003.5" y="1292.0342">[27]</text><text fill="#000000" font-family="sans-serif" font-size="13" lengthAdjust="spacing" textLength="44" x="1029.5" y="1292.0342">200 OK</text><path d="M124,1311.8906 L185,1311.8906 L185,1320.2422 L175,1330.2422 L124,1330.2422 L124,1311.8906 " fill="#EEEEEE" style="stroke:#000000;stroke-width:1.5;"/><rect fill="none" height="370.2188" style="stroke:#000000;stroke-width:1.5;" width="1465.5" x="124" y="1311.8906"/><text fill="#000000" font-family="sans-serif" font-size="13" font-weight="bold" lengthAdjust="spacing" textLength="16" x="139" y="1326.3857">alt</text><text fill="#000000" font-family="sans-serif" font-size="11" font-weight="bold" lengthAdjust="spacing" textLength="123" x="200" y="1325.3096">[if error in payeeDFSP]</text><line style="stroke:#181818;stroke-width:1.0;" x1="987.5" x2="997.5" y1="1363.7695" y2="1359.7695"/><line style="stroke:#181818;stroke-width:1.0;" x1="987.5" x2="997.5" y1="1363.7695" y2="1367.7695"/><line style="stroke:#181818;stroke-width:1.0;" x1="986.5" x2="1364.5" y1="1363.7695" y2="1363.7695"/><text fill="#000000" font-family="sans-serif" font-size="13" font-weight="bold" lengthAdjust="spacing" textLength="22" x="1003.5" y="1358.9131">[28]</text><text fill="#000000" font-family="sans-serif" font-size="13" lengthAdjust="spacing" textLength="108" x="1029.5" y="1358.9131">PUT /xxx/{ID}/error</text><path d="M1370,1335.2422 L1370,1377.2422 L1574,1377.2422 L1574,1345.2422 L1564,1335.2422 L1370,1335.2422 " fill="#FEFFDD" style="stroke:#181818;stroke-width:0.5;"/><path d="M1564,1335.2422 L1564,1345.2422 L1574,1345.2422 L1564,1335.2422 " fill="#FEFFDD" style="stroke:#181818;stroke-width:0.5;"/><text fill="#000000" font-family="sans-serif" font-size="13" lengthAdjust="spacing" textLength="183" x="1376" y="1353.7373">header destination: PayerDFSP</text><text fill="#000000" font-family="sans-serif" font-size="13" lengthAdjust="spacing" textLength="105" x="1376" y="1370.0889">Error Codes: 5xxx</text><line style="stroke:#181818;stroke-width:1.0;" x1="1363.5" x2="1353.5" y1="1405.2969" y2="1401.2969"/><line style="stroke:#181818;stroke-width:1.0;" x1="1363.5" x2="1353.5" y1="1405.2969" y2="1409.2969"/><line style="stroke:#181818;stroke-width:1.0;stroke-dasharray:2.0,2.0;" x1="986.5" x2="1364.5" y1="1405.2969" y2="1405.2969"/><text fill="#000000" font-family="sans-serif" font-size="13" font-weight="bold" lengthAdjust="spacing" textLength="22" x="993.5" y="1400.4404">[29]</text><text fill="#000000" font-family="sans-serif" font-size="13" lengthAdjust="spacing" textLength="44" x="1019.5" y="1400.4404">200 OK</text><line style="stroke:#181818;stroke-width:1.0;" x1="986.5" x2="1028.5" y1="1435.6484" y2="1435.6484"/><line style="stroke:#181818;stroke-width:1.0;" x1="1028.5" x2="1028.5" y1="1435.6484" y2="1448.6484"/><line style="stroke:#181818;stroke-width:1.0;" x1="987.5" x2="1028.5" y1="1448.6484" y2="1448.6484"/><polygon fill="#181818" points="997.5,1444.6484,987.5,1448.6484,997.5,1452.6484,993.5,1448.6484" style="stroke:#181818;stroke-width:1.0;"/><text fill="#000000" font-family="sans-serif" font-size="13" font-weight="bold" lengthAdjust="spacing" textLength="22" x="993.5" y="1430.792">[30]</text><text fill="#000000" font-family="sans-serif" font-size="13" lengthAdjust="spacing" textLength="239" x="1019.5" y="1430.792">Lookup proxy for payerDFSP = Proxy AB</text><line style="stroke:#181818;stroke-width:1.0;" x1="767.5" x2="777.5" y1="1479" y2="1475"/><line style="stroke:#181818;stroke-width:1.0;" x1="767.5" x2="777.5" y1="1479" y2="1483"/><line style="stroke:#181818;stroke-width:1.0;" x1="766.5" x2="985.5" y1="1479" y2="1479"/><text fill="#000000" font-family="sans-serif" font-size="13" font-weight="bold" lengthAdjust="spacing" textLength="22" x="783.5" y="1474.1436">[31]</text><text fill="#000000" font-family="sans-serif" font-size="13" lengthAdjust="spacing" textLength="108" x="809.5" y="1474.1436">PUT /xxx/{ID}/error</text><line style="stroke:#181818;stroke-width:1.0;" x1="766.5" x2="808.5" y1="1509.3516" y2="1509.3516"/><line style="stroke:#181818;stroke-width:1.0;" x1="808.5" x2="808.5" y1="1509.3516" y2="1522.3516"/><line style="stroke:#181818;stroke-width:1.0;" x1="767.5" x2="808.5" y1="1522.3516" y2="1522.3516"/><polygon fill="#181818" points="777.5,1518.3516,767.5,1522.3516,777.5,1526.3516,773.5,1522.3516" style="stroke:#181818;stroke-width:1.0;"/><text fill="#000000" font-family="sans-serif" font-size="13" font-weight="bold" lengthAdjust="spacing" textLength="22" x="773.5" y="1504.4951">[32]</text><text fill="#000000" font-family="sans-serif" font-size="13" lengthAdjust="spacing" textLength="66" x="799.5" y="1504.4951">Add header</text><path d="M588,1495.5 L588,1521.5 L761,1521.5 L761,1505.5 L751,1495.5 L588,1495.5 " fill="#FEFFDD" style="stroke:#181818;stroke-width:0.5;"/><path d="M751,1495.5 L751,1505.5 L761,1505.5 L751,1495.5 " fill="#FEFFDD" style="stroke:#181818;stroke-width:0.5;"/><text fill="#000000" font-family="sans-serif" font-size="13" lengthAdjust="spacing" textLength="152" x="594" y="1513.9951">fxpiop-proxy = "Proxy AB"</text><line style="stroke:#181818;stroke-width:1.0;" x1="394" x2="404" y1="1552.7031" y2="1548.7031"/><line style="stroke:#181818;stroke-width:1.0;" x1="394" x2="404" y1="1552.7031" y2="1556.7031"/><line style="stroke:#181818;stroke-width:1.0;" x1="393" x2="765.5" y1="1552.7031" y2="1552.7031"/><text fill="#000000" font-family="sans-serif" font-size="13" font-weight="bold" lengthAdjust="spacing" textLength="22" x="410" y="1547.8467">[33]</text><text fill="#000000" font-family="sans-serif" font-size="13" lengthAdjust="spacing" textLength="108" x="436" y="1547.8467">PUT /xxx/{ID}/error</text><line style="stroke:#181818;stroke-width:1.0;" x1="764.5" x2="754.5" y1="1583.0547" y2="1579.0547"/><line style="stroke:#181818;stroke-width:1.0;" x1="764.5" x2="754.5" y1="1583.0547" y2="1587.0547"/><line style="stroke:#181818;stroke-width:1.0;stroke-dasharray:2.0,2.0;" x1="393" x2="765.5" y1="1583.0547" y2="1583.0547"/><text fill="#000000" font-family="sans-serif" font-size="13" font-weight="bold" lengthAdjust="spacing" textLength="22" x="400" y="1578.1982">[34]</text><text fill="#000000" font-family="sans-serif" font-size="13" lengthAdjust="spacing" textLength="44" x="426" y="1578.1982">200 OK</text><line style="stroke:#181818;stroke-width:1.0;" x1="984.5" x2="974.5" y1="1613.4063" y2="1609.4063"/><line style="stroke:#181818;stroke-width:1.0;" x1="984.5" x2="974.5" y1="1613.4063" y2="1617.4063"/><line style="stroke:#181818;stroke-width:1.0;stroke-dasharray:2.0,2.0;" x1="766.5" x2="985.5" y1="1613.4063" y2="1613.4063"/><text fill="#000000" font-family="sans-serif" font-size="13" font-weight="bold" lengthAdjust="spacing" textLength="22" x="773.5" y="1608.5498">[35]</text><text fill="#000000" font-family="sans-serif" font-size="13" lengthAdjust="spacing" textLength="44" x="799.5" y="1608.5498">200 OK</text><line style="stroke:#181818;stroke-width:1.0;" x1="181" x2="191" y1="1643.7578" y2="1639.7578"/><line style="stroke:#181818;stroke-width:1.0;" x1="181" x2="191" y1="1643.7578" y2="1647.7578"/><line style="stroke:#181818;stroke-width:1.0;" x1="180" x2="392" y1="1643.7578" y2="1643.7578"/><text fill="#000000" font-family="sans-serif" font-size="13" font-weight="bold" lengthAdjust="spacing" textLength="22" x="197" y="1638.9014">[36]</text><text fill="#000000" font-family="sans-serif" font-size="13" lengthAdjust="spacing" textLength="108" x="223" y="1638.9014">PUT /xxx/{ID}/error</text><line style="stroke:#181818;stroke-width:1.0;" x1="391" x2="381" y1="1674.1094" y2="1670.1094"/><line style="stroke:#181818;stroke-width:1.0;" x1="391" x2="381" y1="1674.1094" y2="1678.1094"/><line style="stroke:#181818;stroke-width:1.0;stroke-dasharray:2.0,2.0;" x1="180" x2="392" y1="1674.1094" y2="1674.1094"/><text fill="#000000" font-family="sans-serif" font-size="13" font-weight="bold" lengthAdjust="spacing" textLength="22" x="187" y="1669.2529">[37]</text><text fill="#000000" font-family="sans-serif" font-size="13" lengthAdjust="spacing" textLength="44" x="213" y="1669.2529">200 OK</text><!--SRC=[xLLDZvim4BtxLunoRWH9DXVKHCAxspRjIa4bLGzjLP7WR52pXe8ZiLhjVwzjZ6D3oCTMrLxA0M7icNdpvisO9MnBO4OPoOlLXZmGwCDjdgSvN4S5AH3AefmbgoIBA8DU43sI76xUXK4FeW8oiHGhj4nBw8ML0x-7W3-MeNyNVgTwNzXMqVpsqI1FoqSUdUytJBBLJnyH6WEFXWxO-5WUAsbcuS4dy6033puF3wxnu0uyd1WYUD8q4KaJYdOifRk79MTn0Bsto-atzqSFeSa4WdcuWCa4QKwXFvtMB7bostb_kt02Vt7zmGc-BC0fonBHb17OaZL36nB5t2rFe4Xt-OfuHda0ObAmX4OiIQbd01BeXGkERCiWMSCy8zGFPae3aWs50Ve2aFRfmPNh0evY-4n-xxXtuGkfi-AeSNBe3c7-2KblAWwH_XDgwS2APWUh4tQUPZVFZhJM9fA3FBdVCFrBIJZbQVFmtEuDZEJxIhx7_5qVrJQQY_g7KGgh5aEUE4z7sI2RfAcKgGVRDFsroo2JwbbpC9fquCLMUZKPuQ457vN1IiZjdt7YmMZe3luwyIOqtdZTGjLKDmKWshKAoxyQ0SVk29ugu0htm7MVaGOgBQmskOoIVSyeebNdMFKHJwjzwhwgdezVGmYJUqhuB7ZKreQsB3sA9Bh9jzfDKchG_a8rN51Gf7ZjJsLiFuuLIqXpACUDMAtBB4cpVYNPYJ66aPKPQfSA7nUAEcHnCAoHjcLYR1wPCRZ183P4-mhJfPFZDi-dkUwAS7vtd9HTWtRy6heq2wVdwN4fxSTk9_Y3cjdVaIPO-SUMyOicZZLFWjOyiGGshbCvCYxm_dOczPrxe3Y2kJtqkqDNL7xeYhguQVwB-snn_m40]--></g></svg>