<?xml version="1.0" encoding="us-ascii" standalone="no"?><svg xmlns="http://www.w3.org/2000/svg" xmlns:xlink="http://www.w3.org/1999/xlink" contentStyleType="text/css" height="1344px" preserveAspectRatio="none" style="width:1707px;height:1344px;background:#FFFFFF;" version="1.1" viewBox="0 0 1707 1344" width="1707px" zoomAndPan="magnify"><defs/><g><text fill="#000000" font-family="sans-serif" font-size="14" font-weight="bold" lengthAdjust="spacing" textLength="190" x="759.75" y="29.5332">Stale Party Identifier Cache</text><rect fill="#ADD8E6" height="1293.7969" style="stroke:#181818;stroke-width:0.5;" width="438" x="333" y="44.6094"/><text fill="#000000" font-family="sans-serif" font-size="13" font-weight="bold" lengthAdjust="spacing" textLength="65" x="519.5" y="58.1045">Scheme A</text><rect fill="#D1E0C3" height="1293.7969" style="stroke:#181818;stroke-width:0.5;" width="380" x="956.5" y="44.6094"/><text fill="#000000" font-family="sans-serif" font-size="13" font-weight="bold" lengthAdjust="spacing" textLength="65" x="1114" y="58.1045">Scheme B</text><rect fill="none" height="177.1094" style="stroke:#000000;stroke-width:1.5;" width="561" x="216" y="302.9375"/><rect fill="none" height="61.7031" style="stroke:#000000;stroke-width:1.5;" width="228" x="1228.5" y="661.1563"/><rect fill="none" height="226.1641" style="stroke:#000000;stroke-width:1.5;" width="533" x="140" y="1042.0234"/><line style="stroke:#181818;stroke-width:0.5;stroke-dasharray:5.0,5.0;" x1="196" x2="196" y1="115.1797" y2="1285.1875"/><line style="stroke:#181818;stroke-width:0.5;stroke-dasharray:5.0,5.0;" x1="376" x2="376" y1="115.1797" y2="1285.1875"/><line style="stroke:#181818;stroke-width:0.5;stroke-dasharray:5.0,5.0;" x1="624" x2="624" y1="115.1797" y2="1285.1875"/><line style="stroke:#181818;stroke-width:0.5;stroke-dasharray:5.0,5.0;" x1="720" x2="720" y1="115.1797" y2="1285.1875"/><line style="stroke:#181818;stroke-width:0.5;stroke-dasharray:5.0,5.0;" x1="812" x2="812" y1="115.1797" y2="1285.1875"/><line style="stroke:#181818;stroke-width:0.5;stroke-dasharray:5.0,5.0;" x1="999.5" x2="999.5" y1="115.1797" y2="1285.1875"/><line style="stroke:#181818;stroke-width:0.5;stroke-dasharray:5.0,5.0;" x1="1167.5" x2="1167.5" y1="115.1797" y2="1285.1875"/><line style="stroke:#181818;stroke-width:0.5;stroke-dasharray:5.0,5.0;" x1="1285.5" x2="1285.5" y1="115.1797" y2="1285.1875"/><line style="stroke:#181818;stroke-width:0.5;stroke-dasharray:5.0,5.0;" x1="1482.5" x2="1482.5" y1="115.1797" y2="1285.1875"/><rect fill="#E2E2F0" height="31.6094" rx="2.5" ry="2.5" style="stroke:#181818;stroke-width:0.5;" width="92" x="150" y="82.5703"/><text fill="#000000" font-family="sans-serif" font-size="14" lengthAdjust="spacing" textLength="78" x="157" y="104.1035">Payer DFSP</text><rect fill="#E2E2F0" height="31.6094" rx="2.5" ry="2.5" style="stroke:#181818;stroke-width:0.5;" width="92" x="150" y="1284.1875"/><text fill="#000000" font-family="sans-serif" font-size="14" lengthAdjust="spacing" textLength="78" x="157" y="1305.7207">Payer DFSP</text><rect fill="#E2E2F0" height="49.2188" rx="2.5" ry="2.5" style="stroke:#181818;stroke-width:0.5;" width="78" x="337" y="64.9609"/><text fill="#000000" font-family="sans-serif" font-size="14" lengthAdjust="spacing" textLength="26" x="363" y="86.4941">ALS</text><text fill="#000000" font-family="sans-serif" font-size="14" lengthAdjust="spacing" textLength="64" x="344" y="104.1035">Scheme A</text><rect fill="#E2E2F0" height="49.2188" rx="2.5" ry="2.5" style="stroke:#181818;stroke-width:0.5;" width="78" x="337" y="1284.1875"/><text fill="#000000" font-family="sans-serif" font-size="14" lengthAdjust="spacing" textLength="26" x="363" y="1305.7207">ALS</text><text fill="#000000" font-family="sans-serif" font-size="14" lengthAdjust="spacing" textLength="64" x="344" y="1323.3301">Scheme A</text><rect fill="#E2E2F0" height="49.2188" rx="2.5" ry="2.5" style="stroke:#181818;stroke-width:0.5;" width="78" x="585" y="64.9609"/><text fill="#000000" font-family="sans-serif" font-size="14" lengthAdjust="spacing" textLength="42" x="603" y="86.4941">Oracle</text><text fill="#000000" font-family="sans-serif" font-size="14" lengthAdjust="spacing" textLength="64" x="592" y="104.1035">Scheme A</text><rect fill="#E2E2F0" height="49.2188" rx="2.5" ry="2.5" style="stroke:#181818;stroke-width:0.5;" width="78" x="585" y="1284.1875"/><text fill="#000000" font-family="sans-serif" font-size="14" lengthAdjust="spacing" textLength="42" x="603" y="1305.7207">Oracle</text><text fill="#000000" font-family="sans-serif" font-size="14" lengthAdjust="spacing" textLength="64" x="592" y="1323.3301">Scheme A</text><rect fill="#E2E2F0" height="49.2188" rx="2.5" ry="2.5" style="stroke:#181818;stroke-width:0.5;" width="94" x="673" y="64.9609"/><text fill="#000000" font-family="sans-serif" font-size="14" lengthAdjust="spacing" textLength="80" x="680" y="86.4941">Proxy Cache</text><text fill="#000000" font-family="sans-serif" font-size="14" lengthAdjust="spacing" textLength="64" x="688" y="104.1035">Scheme A</text><rect fill="#E2E2F0" height="49.2188" rx="2.5" ry="2.5" style="stroke:#181818;stroke-width:0.5;" width="94" x="673" y="1284.1875"/><text fill="#000000" font-family="sans-serif" font-size="14" lengthAdjust="spacing" textLength="80" x="680" y="1305.7207">Proxy Cache</text><text fill="#000000" font-family="sans-serif" font-size="14" lengthAdjust="spacing" textLength="64" x="688" y="1323.3301">Scheme A</text><rect fill="#E2E2F0" height="31.6094" rx="2.5" ry="2.5" style="stroke:#181818;stroke-width:0.5;" width="71" x="777" y="82.5703"/><text fill="#000000" font-family="sans-serif" font-size="14" lengthAdjust="spacing" textLength="57" x="784" y="104.1035">Proxy AB</text><rect fill="#E2E2F0" height="31.6094" rx="2.5" ry="2.5" style="stroke:#181818;stroke-width:0.5;" width="71" x="777" y="1284.1875"/><text fill="#000000" font-family="sans-serif" font-size="14" lengthAdjust="spacing" textLength="57" x="784" y="1305.7207">Proxy AB</text><rect fill="#E2E2F0" height="49.2188" rx="2.5" ry="2.5" style="stroke:#181818;stroke-width:0.5;" width="78" x="960.5" y="64.9609"/><text fill="#000000" font-family="sans-serif" font-size="14" lengthAdjust="spacing" textLength="26" x="986.5" y="86.4941">ALS</text><text fill="#000000" font-family="sans-serif" font-size="14" lengthAdjust="spacing" textLength="64" x="967.5" y="104.1035">Scheme B</text><rect fill="#E2E2F0" height="49.2188" rx="2.5" ry="2.5" style="stroke:#181818;stroke-width:0.5;" width="78" x="960.5" y="1284.1875"/><text fill="#000000" font-family="sans-serif" font-size="14" lengthAdjust="spacing" textLength="26" x="986.5" y="1305.7207">ALS</text><text fill="#000000" font-family="sans-serif" font-size="14" lengthAdjust="spacing" textLength="64" x="967.5" y="1323.3301">Scheme B</text><rect fill="#E2E2F0" height="49.2188" rx="2.5" ry="2.5" style="stroke:#181818;stroke-width:0.5;" width="78" x="1128.5" y="64.9609"/><text fill="#000000" font-family="sans-serif" font-size="14" lengthAdjust="spacing" textLength="42" x="1146.5" y="86.4941">Oracle</text><text fill="#000000" font-family="sans-serif" font-size="14" lengthAdjust="spacing" textLength="64" x="1135.5" y="104.1035">Scheme A</text><rect fill="#E2E2F0" height="49.2188" rx="2.5" ry="2.5" style="stroke:#181818;stroke-width:0.5;" width="78" x="1128.5" y="1284.1875"/><text fill="#000000" font-family="sans-serif" font-size="14" lengthAdjust="spacing" textLength="42" x="1146.5" y="1305.7207">Oracle</text><text fill="#000000" font-family="sans-serif" font-size="14" lengthAdjust="spacing" textLength="64" x="1135.5" y="1323.3301">Scheme A</text><rect fill="#E2E2F0" height="49.2188" rx="2.5" ry="2.5" style="stroke:#181818;stroke-width:0.5;" width="94" x="1238.5" y="64.9609"/><text fill="#000000" font-family="sans-serif" font-size="14" lengthAdjust="spacing" textLength="80" x="1245.5" y="86.4941">Proxy Cache</text><text fill="#000000" font-family="sans-serif" font-size="14" lengthAdjust="spacing" textLength="64" x="1253.5" y="104.1035">Scheme B</text><rect fill="#E2E2F0" height="49.2188" rx="2.5" ry="2.5" style="stroke:#181818;stroke-width:0.5;" width="94" x="1238.5" y="1284.1875"/><text fill="#000000" font-family="sans-serif" font-size="14" lengthAdjust="spacing" textLength="80" x="1245.5" y="1305.7207">Proxy Cache</text><text fill="#000000" font-family="sans-serif" font-size="14" lengthAdjust="spacing" textLength="64" x="1253.5" y="1323.3301">Scheme B</text><rect fill="#E2E2F0" height="31.6094" rx="2.5" ry="2.5" style="stroke:#181818;stroke-width:0.5;" width="86" x="1439.5" y="82.5703"/><text fill="#000000" font-family="sans-serif" font-size="14" lengthAdjust="spacing" textLength="72" x="1446.5" y="104.1035">Payee DFS</text><rect fill="#E2E2F0" height="31.6094" rx="2.5" ry="2.5" style="stroke:#181818;stroke-width:0.5;" width="86" x="1439.5" y="1284.1875"/><text fill="#000000" font-family="sans-serif" font-size="14" lengthAdjust="spacing" textLength="72" x="1446.5" y="1305.7207">Payee DFS</text><line style="stroke:#181818;stroke-width:1.0;" x1="374" x2="364" y1="150.5313" y2="146.5313"/><line style="stroke:#181818;stroke-width:1.0;" x1="374" x2="364" y1="150.5313" y2="154.5313"/><line style="stroke:#181818;stroke-width:1.0;" x1="196" x2="375" y1="150.5313" y2="150.5313"/><text fill="#000000" font-family="sans-serif" font-size="13" font-weight="bold" lengthAdjust="spacing" textLength="15" x="203" y="145.6748">[1]</text><text fill="#000000" font-family="sans-serif" font-size="13" font-weight="bold" lengthAdjust="spacing" textLength="26" x="222" y="145.6748">GET</text><text fill="#000000" font-family="sans-serif" font-size="13" lengthAdjust="spacing" textLength="107" x="252" y="145.6748">/parties/{Type}/{ID}</text><path d="M5,130.1797 L5,156.1797 L191,156.1797 L191,140.1797 L181,130.1797 L5,130.1797 " fill="#FEFFDD" style="stroke:#181818;stroke-width:0.5;"/><path d="M181,130.1797 L181,140.1797 L191,140.1797 L181,130.1797 " fill="#FEFFDD" style="stroke:#181818;stroke-width:0.5;"/><text fill="#000000" font-family="sans-serif" font-size="13" lengthAdjust="spacing" textLength="165" x="11" y="148.6748">header source = payerDFSP</text><polygon fill="#181818" points="612,179.8828,622,183.8828,612,187.8828,616,183.8828" style="stroke:#181818;stroke-width:1.0;"/><line style="stroke:#181818;stroke-width:1.0;" x1="376" x2="618" y1="183.8828" y2="183.8828"/><text fill="#000000" font-family="sans-serif" font-size="13" font-weight="bold" lengthAdjust="spacing" textLength="15" x="383" y="179.0264">[2]</text><text fill="#000000" font-family="sans-serif" font-size="13" font-weight="bold" lengthAdjust="spacing" textLength="26" x="402" y="179.0264">GET</text><text fill="#000000" font-family="sans-serif" font-size="13" lengthAdjust="spacing" textLength="88" x="432" y="179.0264">/participant/{ID}</text><polygon fill="#181818" points="387,210.2344,377,214.2344,387,218.2344,383,214.2344" style="stroke:#181818;stroke-width:1.0;"/><line style="stroke:#181818;stroke-width:1.0;stroke-dasharray:2.0,2.0;" x1="381" x2="623" y1="214.2344" y2="214.2344"/><text fill="#000000" font-family="sans-serif" font-size="13" font-weight="bold" lengthAdjust="spacing" textLength="15" x="393" y="209.3779">[3]</text><text fill="#000000" font-family="sans-serif" font-size="13" lengthAdjust="spacing" textLength="156" x="412" y="209.3779">found DFSP = payeeDFSP</text><line style="stroke:#181818;stroke-width:1.0;" x1="376" x2="418" y1="244.5859" y2="244.5859"/><line style="stroke:#181818;stroke-width:1.0;" x1="418" x2="418" y1="244.5859" y2="257.5859"/><line style="stroke:#181818;stroke-width:1.0;" x1="377" x2="418" y1="257.5859" y2="257.5859"/><line style="stroke:#181818;stroke-width:1.0;" x1="377" x2="387" y1="257.5859" y2="253.5859"/><line style="stroke:#181818;stroke-width:1.0;" x1="377" x2="387" y1="257.5859" y2="261.5859"/><text fill="#000000" font-family="sans-serif" font-size="13" font-weight="bold" lengthAdjust="spacing" textLength="15" x="383" y="239.7295">[4]</text><text fill="#000000" font-family="sans-serif" font-size="13" lengthAdjust="spacing" textLength="121" x="402" y="239.7295">DFSP not in scheme</text><polygon fill="#181818" points="708,283.9375,718,287.9375,708,291.9375,712,287.9375" style="stroke:#181818;stroke-width:1.0;"/><line style="stroke:#181818;stroke-width:1.0;" x1="376" x2="714" y1="287.9375" y2="287.9375"/><text fill="#000000" font-family="sans-serif" font-size="13" font-weight="bold" lengthAdjust="spacing" textLength="15" x="383" y="283.0811">[5]</text><text fill="#000000" font-family="sans-serif" font-size="13" lengthAdjust="spacing" textLength="171" x="402" y="283.0811">Who is payee DFSP's proxy?</text><path d="M216,302.9375 L277,302.9375 L277,311.2891 L267,321.2891 L216,321.2891 L216,302.9375 " fill="#EEEEEE" style="stroke:#000000;stroke-width:1.5;"/><rect fill="none" height="177.1094" style="stroke:#000000;stroke-width:1.5;" width="561" x="216" y="302.9375"/><text fill="#000000" font-family="sans-serif" font-size="13" font-weight="bold" lengthAdjust="spacing" textLength="16" x="231" y="317.4326">alt</text><text fill="#000000" font-family="sans-serif" font-size="11" font-weight="bold" lengthAdjust="spacing" textLength="180" x="292" y="316.3564">[proxy representative not found]</text><polygon fill="#181818" points="387,339.6406,377,343.6406,387,347.6406,383,343.6406" style="stroke:#181818;stroke-width:1.0;"/><line style="stroke:#181818;stroke-width:1.0;stroke-dasharray:2.0,2.0;" x1="381" x2="719" y1="343.6406" y2="343.6406"/><text fill="#000000" font-family="sans-serif" font-size="13" font-weight="bold" lengthAdjust="spacing" textLength="15" x="393" y="338.7842">[6]</text><text fill="#000000" font-family="sans-serif" font-size="13" lengthAdjust="spacing" textLength="91" x="412" y="338.7842">Proxy not found</text><polygon fill="#181818" points="612,389.3438,622,393.3438,612,397.3438,616,393.3438" style="stroke:#181818;stroke-width:1.0;"/><line style="stroke:#181818;stroke-width:1.0;" x1="376" x2="618" y1="393.3438" y2="393.3438"/><text fill="#000000" font-family="sans-serif" font-size="13" font-weight="bold" lengthAdjust="spacing" textLength="15" x="383" y="380.3115">[7]</text><text fill="#000000" font-family="sans-serif" font-size="13" lengthAdjust="spacing" textLength="155" x="402" y="372.1357">Remove mapping in Oracle</text><text fill="#000000" font-family="sans-serif" font-size="13" lengthAdjust="spacing" textLength="4" x="402" y="388.4873">&#160;</text><text fill="#000000" font-family="sans-serif" font-size="13" font-weight="bold" lengthAdjust="spacing" textLength="49" x="406" y="388.4873">DELETE</text><text fill="#000000" font-family="sans-serif" font-size="13" lengthAdjust="spacing" textLength="135" x="459" y="388.4873">\participants\{Type}\{ID}</text><path d="M226,356.6406 L226,398.6406 L371,398.6406 L371,366.6406 L361,356.6406 L226,356.6406 " fill="#FEFFDD" style="stroke:#181818;stroke-width:0.5;"/><path d="M361,356.6406 L361,366.6406 L371,366.6406 L361,356.6406 " fill="#FEFFDD" style="stroke:#181818;stroke-width:0.5;"/><text fill="#000000" font-family="sans-serif" font-size="13" font-weight="bold" lengthAdjust="spacing" textLength="57" x="232" y="375.1357">Self heal</text><text fill="#000000" font-family="sans-serif" font-size="13" lengthAdjust="spacing" textLength="42" x="293" y="375.1357">if proxy</text><text fill="#000000" font-family="sans-serif" font-size="13" lengthAdjust="spacing" textLength="124" x="232" y="391.4873">reference is not found</text><line style="stroke:#181818;stroke-width:1.0;" x1="376" x2="418" y1="426.6953" y2="426.6953"/><line style="stroke:#181818;stroke-width:1.0;" x1="418" x2="418" y1="426.6953" y2="439.6953"/><line style="stroke:#181818;stroke-width:1.0;" x1="377" x2="418" y1="439.6953" y2="439.6953"/><line style="stroke:#181818;stroke-width:1.0;" x1="377" x2="387" y1="439.6953" y2="435.6953"/><line style="stroke:#181818;stroke-width:1.0;" x1="377" x2="387" y1="439.6953" y2="443.6953"/><text fill="#000000" font-family="sans-serif" font-size="13" font-weight="bold" lengthAdjust="spacing" textLength="15" x="383" y="421.8389">[8]</text><text fill="#000000" font-family="sans-serif" font-size="13" lengthAdjust="spacing" textLength="208" x="402" y="421.8389">Restart the ALS get parties process</text><line style="stroke:#000000;stroke-width:1.0;stroke-dasharray:2.0,2.0;" x1="216" x2="777" y1="448.6953" y2="448.6953"/><polygon fill="#181818" points="387,468.0469,377,472.0469,387,476.0469,383,472.0469" style="stroke:#181818;stroke-width:1.0;"/><line style="stroke:#181818;stroke-width:1.0;stroke-dasharray:2.0,2.0;" x1="381" x2="719" y1="472.0469" y2="472.0469"/><text fill="#000000" font-family="sans-serif" font-size="13" font-weight="bold" lengthAdjust="spacing" textLength="15" x="393" y="467.1904">[9]</text><text fill="#000000" font-family="sans-serif" font-size="13" lengthAdjust="spacing" textLength="116" x="412" y="467.1904">forward to Proxy AB</text><line style="stroke:#181818;stroke-width:1.0;" x1="810.5" x2="800.5" y1="509.3984" y2="505.3984"/><line style="stroke:#181818;stroke-width:1.0;" x1="810.5" x2="800.5" y1="509.3984" y2="513.3984"/><line style="stroke:#181818;stroke-width:1.0;" x1="376" x2="811.5" y1="509.3984" y2="509.3984"/><text fill="#000000" font-family="sans-serif" font-size="13" font-weight="bold" lengthAdjust="spacing" textLength="22" x="383" y="504.542">[10]</text><text fill="#000000" font-family="sans-serif" font-size="13" font-weight="bold" lengthAdjust="spacing" textLength="26" x="409" y="504.542">GET</text><text fill="#000000" font-family="sans-serif" font-size="13" lengthAdjust="spacing" textLength="107" x="439" y="504.542">/parties/{Type}/{ID}</text><line style="stroke:#181818;stroke-width:1.0;" x1="812.5" x2="854.5" y1="539.75" y2="539.75"/><line style="stroke:#181818;stroke-width:1.0;" x1="854.5" x2="854.5" y1="539.75" y2="552.75"/><line style="stroke:#181818;stroke-width:1.0;" x1="813.5" x2="854.5" y1="552.75" y2="552.75"/><polygon fill="#181818" points="823.5,548.75,813.5,552.75,823.5,556.75,819.5,552.75" style="stroke:#181818;stroke-width:1.0;"/><text fill="#000000" font-family="sans-serif" font-size="13" font-weight="bold" lengthAdjust="spacing" textLength="22" x="819.5" y="534.8936">[11]</text><text fill="#000000" font-family="sans-serif" font-size="13" lengthAdjust="spacing" textLength="66" x="845.5" y="534.8936">Add header</text><path d="M634,525.8984 L634,551.8984 L807,551.8984 L807,535.8984 L797,525.8984 L634,525.8984 " fill="#FEFFDD" style="stroke:#181818;stroke-width:0.5;"/><path d="M797,525.8984 L797,535.8984 L807,535.8984 L797,525.8984 " fill="#FEFFDD" style="stroke:#181818;stroke-width:0.5;"/><text fill="#000000" font-family="sans-serif" font-size="13" lengthAdjust="spacing" textLength="152" x="640" y="544.3936">fxpiop-proxy = "Proxy AB"</text><line style="stroke:#181818;stroke-width:1.0;" x1="997.5" x2="987.5" y1="583.1016" y2="579.1016"/><line style="stroke:#181818;stroke-width:1.0;" x1="997.5" x2="987.5" y1="583.1016" y2="587.1016"/><line style="stroke:#181818;stroke-width:1.0;" x1="812.5" x2="998.5" y1="583.1016" y2="583.1016"/><text fill="#000000" font-family="sans-serif" font-size="13" font-weight="bold" lengthAdjust="spacing" textLength="22" x="819.5" y="578.2451">[12]</text><text fill="#000000" font-family="sans-serif" font-size="13" font-weight="bold" lengthAdjust="spacing" textLength="26" x="845.5" y="578.2451">GET</text><text fill="#000000" font-family="sans-serif" font-size="13" lengthAdjust="spacing" textLength="107" x="875.5" y="578.2451">/parties/{Type}/{ID}</text><line style="stroke:#181818;stroke-width:1.0;" x1="1283.5" x2="1273.5" y1="646.1563" y2="642.1563"/><line style="stroke:#181818;stroke-width:1.0;" x1="1283.5" x2="1273.5" y1="646.1563" y2="650.1563"/><line style="stroke:#181818;stroke-width:1.0;" x1="999.5" x2="1284.5" y1="646.1563" y2="646.1563"/><text fill="#000000" font-family="sans-serif" font-size="13" font-weight="bold" lengthAdjust="spacing" textLength="22" x="1006.5" y="624.9482">[13]</text><text fill="#000000" font-family="sans-serif" font-size="13" lengthAdjust="spacing" textLength="133" x="1032.5" y="608.5967">Source not in Scheme:</text><text fill="#000000" font-family="sans-serif" font-size="13" lengthAdjust="spacing" textLength="152" x="1032.5" y="624.9482">fxpiop-proxy = "Proxy AB"</text><text fill="#000000" font-family="sans-serif" font-size="13" lengthAdjust="spacing" textLength="236" x="1032.5" y="641.2998">Add 'Payer DFSP' to 'Proxy AB' mapping</text><path d="M1228.5,661.1563 L1289.5,661.1563 L1289.5,669.5078 L1279.5,679.5078 L1228.5,679.5078 L1228.5,661.1563 " fill="#EEEEEE" style="stroke:#000000;stroke-width:1.5;"/><rect fill="none" height="61.7031" style="stroke:#000000;stroke-width:1.5;" width="228" x="1228.5" y="661.1563"/><text fill="#000000" font-family="sans-serif" font-size="13" font-weight="bold" lengthAdjust="spacing" textLength="16" x="1243.5" y="675.6514">alt</text><text fill="#000000" font-family="sans-serif" font-size="11" font-weight="bold" lengthAdjust="spacing" textLength="54" x="1304.5" y="674.5752">[not MVP]</text><line style="stroke:#181818;stroke-width:1.0;" x1="1285.5" x2="1327.5" y1="701.8594" y2="701.8594"/><line style="stroke:#181818;stroke-width:1.0;" x1="1327.5" x2="1327.5" y1="701.8594" y2="714.8594"/><line style="stroke:#181818;stroke-width:1.0;" x1="1286.5" x2="1327.5" y1="714.8594" y2="714.8594"/><polygon fill="#181818" points="1296.5,710.8594,1286.5,714.8594,1296.5,718.8594,1292.5,714.8594" style="stroke:#181818;stroke-width:1.0;"/><text fill="#000000" font-family="sans-serif" font-size="13" font-weight="bold" lengthAdjust="spacing" textLength="22" x="1292.5" y="697.0029">[14]</text><text fill="#000000" font-family="sans-serif" font-size="13" lengthAdjust="spacing" textLength="126" x="1318.5" y="697.0029">Check JWS signature</text><line style="stroke:#181818;stroke-width:1.0;" x1="1285.5" x2="1327.5" y1="752.2109" y2="752.2109"/><line style="stroke:#181818;stroke-width:1.0;" x1="1327.5" x2="1327.5" y1="752.2109" y2="765.2109"/><line style="stroke:#181818;stroke-width:1.0;" x1="1286.5" x2="1327.5" y1="765.2109" y2="765.2109"/><polygon fill="#181818" points="1296.5,761.2109,1286.5,765.2109,1296.5,769.2109,1292.5,765.2109" style="stroke:#181818;stroke-width:1.0;"/><text fill="#000000" font-family="sans-serif" font-size="13" font-weight="bold" lengthAdjust="spacing" textLength="22" x="1292.5" y="747.3545">[15]</text><text fill="#000000" font-family="sans-serif" font-size="13" lengthAdjust="spacing" textLength="157" x="1318.5" y="747.3545">Add new mapping to cache</text><path d="M1118,738.3594 L1118,764.3594 L1280,764.3594 L1280,748.3594 L1270,738.3594 L1118,738.3594 " fill="#FEFFDD" style="stroke:#181818;stroke-width:0.5;"/><path d="M1270,738.3594 L1270,748.3594 L1280,748.3594 L1270,738.3594 " fill="#FEFFDD" style="stroke:#181818;stroke-width:0.5;"/><text fill="#000000" font-family="sans-serif" font-size="13" lengthAdjust="spacing" textLength="141" x="1124" y="756.8545">Payer DFSP : Proxy AB</text><polygon fill="#181818" points="1155.5,791.5625,1165.5,795.5625,1155.5,799.5625,1159.5,795.5625" style="stroke:#181818;stroke-width:1.0;"/><line style="stroke:#181818;stroke-width:1.0;" x1="999.5" x2="1161.5" y1="795.5625" y2="795.5625"/><text fill="#000000" font-family="sans-serif" font-size="13" font-weight="bold" lengthAdjust="spacing" textLength="22" x="1006.5" y="790.7061">[16]</text><text fill="#000000" font-family="sans-serif" font-size="13" font-weight="bold" lengthAdjust="spacing" textLength="26" x="1032.5" y="790.7061">GET</text><text fill="#000000" font-family="sans-serif" font-size="13" lengthAdjust="spacing" textLength="88" x="1062.5" y="790.7061">/participant/{ID}</text><polygon fill="#181818" points="1010.5,821.9141,1000.5,825.9141,1010.5,829.9141,1006.5,825.9141" style="stroke:#181818;stroke-width:1.0;"/><line style="stroke:#181818;stroke-width:1.0;stroke-dasharray:2.0,2.0;" x1="1004.5" x2="1166.5" y1="825.9141" y2="825.9141"/><text fill="#000000" font-family="sans-serif" font-size="13" font-weight="bold" lengthAdjust="spacing" textLength="22" x="1016.5" y="821.0576">[17]</text><text fill="#000000" font-family="sans-serif" font-size="13" lengthAdjust="spacing" textLength="110" x="1042.5" y="821.0576">dfps = payeeDFSP</text><line style="stroke:#181818;stroke-width:1.0;" x1="1480.5" x2="1470.5" y1="856.2656" y2="852.2656"/><line style="stroke:#181818;stroke-width:1.0;" x1="1480.5" x2="1470.5" y1="856.2656" y2="860.2656"/><line style="stroke:#181818;stroke-width:1.0;" x1="999.5" x2="1481.5" y1="856.2656" y2="856.2656"/><text fill="#000000" font-family="sans-serif" font-size="13" font-weight="bold" lengthAdjust="spacing" textLength="22" x="1006.5" y="851.4092">[18]</text><text fill="#000000" font-family="sans-serif" font-size="13" font-weight="bold" lengthAdjust="spacing" textLength="26" x="1032.5" y="851.4092">GET</text><text fill="#000000" font-family="sans-serif" font-size="13" lengthAdjust="spacing" textLength="107" x="1062.5" y="851.4092">/parties/{Type}/{ID}</text><line style="stroke:#181818;stroke-width:1.0;" x1="1000.5" x2="1010.5" y1="889.6172" y2="885.6172"/><line style="stroke:#181818;stroke-width:1.0;" x1="1000.5" x2="1010.5" y1="889.6172" y2="893.6172"/><line style="stroke:#181818;stroke-width:1.0;" x1="999.5" x2="1481.5" y1="889.6172" y2="889.6172"/><text fill="#000000" font-family="sans-serif" font-size="13" font-weight="bold" lengthAdjust="spacing" textLength="22" x="1016.5" y="884.7607">[19]</text><text fill="#000000" font-family="sans-serif" font-size="13" font-weight="bold" lengthAdjust="spacing" textLength="26" x="1042.5" y="884.7607">PUT</text><text fill="#000000" font-family="sans-serif" font-size="13" lengthAdjust="spacing" textLength="97" x="1072.5" y="884.7607">/parties/{ID}/error</text><path d="M1487,869.2656 L1487,895.2656 L1700,895.2656 L1700,879.2656 L1690,869.2656 L1487,869.2656 " fill="#FEFFDD" style="stroke:#181818;stroke-width:0.5;"/><path d="M1690,869.2656 L1690,879.2656 L1700,879.2656 L1690,869.2656 " fill="#FEFFDD" style="stroke:#181818;stroke-width:0.5;"/><text fill="#000000" font-family="sans-serif" font-size="13" lengthAdjust="spacing" textLength="192" x="1493" y="887.7607">header desitination = payerDFSP</text><polygon fill="#181818" points="1273.5,918.9688,1283.5,922.9688,1273.5,926.9688,1277.5,922.9688" style="stroke:#181818;stroke-width:1.0;"/><line style="stroke:#181818;stroke-width:1.0;" x1="999.5" x2="1279.5" y1="922.9688" y2="922.9688"/><text fill="#000000" font-family="sans-serif" font-size="13" font-weight="bold" lengthAdjust="spacing" textLength="22" x="1006.5" y="918.1123">[20]</text><text fill="#000000" font-family="sans-serif" font-size="13" lengthAdjust="spacing" textLength="149" x="1032.5" y="918.1123">Lookup payerDFSP proxy</text><line style="stroke:#181818;stroke-width:1.0;" x1="813.5" x2="823.5" y1="953.3203" y2="949.3203"/><line style="stroke:#181818;stroke-width:1.0;" x1="813.5" x2="823.5" y1="953.3203" y2="957.3203"/><line style="stroke:#181818;stroke-width:1.0;" x1="812.5" x2="998.5" y1="953.3203" y2="953.3203"/><text fill="#000000" font-family="sans-serif" font-size="13" font-weight="bold" lengthAdjust="spacing" textLength="22" x="829.5" y="948.4639">[21]</text><text fill="#000000" font-family="sans-serif" font-size="13" font-weight="bold" lengthAdjust="spacing" textLength="26" x="855.5" y="948.4639">PUT</text><text fill="#000000" font-family="sans-serif" font-size="13" lengthAdjust="spacing" textLength="97" x="885.5" y="948.4639">/parties/{ID}/error</text><line style="stroke:#181818;stroke-width:1.0;" x1="812.5" x2="854.5" y1="983.6719" y2="983.6719"/><line style="stroke:#181818;stroke-width:1.0;" x1="854.5" x2="854.5" y1="983.6719" y2="996.6719"/><line style="stroke:#181818;stroke-width:1.0;" x1="813.5" x2="854.5" y1="996.6719" y2="996.6719"/><polygon fill="#181818" points="823.5,992.6719,813.5,996.6719,823.5,1000.6719,819.5,996.6719" style="stroke:#181818;stroke-width:1.0;"/><text fill="#000000" font-family="sans-serif" font-size="13" font-weight="bold" lengthAdjust="spacing" textLength="22" x="819.5" y="978.8154">[22]</text><text fill="#000000" font-family="sans-serif" font-size="13" lengthAdjust="spacing" textLength="66" x="845.5" y="978.8154">Add header</text><path d="M634,969.8203 L634,995.8203 L807,995.8203 L807,979.8203 L797,969.8203 L634,969.8203 " fill="#FEFFDD" style="stroke:#181818;stroke-width:0.5;"/><path d="M797,969.8203 L797,979.8203 L807,979.8203 L797,969.8203 " fill="#FEFFDD" style="stroke:#181818;stroke-width:0.5;"/><text fill="#000000" font-family="sans-serif" font-size="13" lengthAdjust="spacing" textLength="152" x="640" y="988.3154">fxpiop-proxy = "Proxy AB"</text><line style="stroke:#181818;stroke-width:1.0;" x1="377" x2="387" y1="1027.0234" y2="1023.0234"/><line style="stroke:#181818;stroke-width:1.0;" x1="377" x2="387" y1="1027.0234" y2="1031.0234"/><line style="stroke:#181818;stroke-width:1.0;" x1="376" x2="811.5" y1="1027.0234" y2="1027.0234"/><text fill="#000000" font-family="sans-serif" font-size="13" font-weight="bold" lengthAdjust="spacing" textLength="22" x="393" y="1022.167">[23]</text><text fill="#000000" font-family="sans-serif" font-size="13" font-weight="bold" lengthAdjust="spacing" textLength="26" x="419" y="1022.167">PUT</text><text fill="#000000" font-family="sans-serif" font-size="13" lengthAdjust="spacing" textLength="97" x="449" y="1022.167">/parties/{ID}/error</text><path d="M140,1042.0234 L201,1042.0234 L201,1050.375 L191,1060.375 L140,1060.375 L140,1042.0234 " fill="#EEEEEE" style="stroke:#000000;stroke-width:1.5;"/><rect fill="none" height="226.1641" style="stroke:#000000;stroke-width:1.5;" width="533" x="140" y="1042.0234"/><text fill="#000000" font-family="sans-serif" font-size="13" font-weight="bold" lengthAdjust="spacing" textLength="16" x="155" y="1056.5186">alt</text><text fill="#000000" font-family="sans-serif" font-size="11" font-weight="bold" lengthAdjust="spacing" textLength="319" x="216" y="1055.4424">[message from proxy &amp; error &amp; no proxy message cache]</text><path d="M153,1065.375 L153,1140.375 L371,1140.375 L371,1075.375 L361,1065.375 L153,1065.375 " fill="#FEFFDD" style="stroke:#181818;stroke-width:0.5;"/><path d="M361,1065.375 L361,1075.375 L371,1075.375 L361,1065.375 " fill="#FEFFDD" style="stroke:#181818;stroke-width:0.5;"/><text fill="#000000" font-family="sans-serif" font-size="13" font-weight="bold" lengthAdjust="spacing" textLength="57" x="159" y="1083.8701">Self heal</text><text fill="#000000" font-family="sans-serif" font-size="13" lengthAdjust="spacing" textLength="93" x="220" y="1083.8701">if error in routing</text><text fill="#000000" font-family="sans-serif" font-size="13" lengthAdjust="spacing" textLength="152" x="163" y="1100.2217">fxpiop-proxy = "Proxy AB"</text><text fill="#000000" font-family="sans-serif" font-size="13" lengthAdjust="spacing" textLength="102" x="163" y="1116.5732">PUT /parties error</text><text fill="#000000" font-family="sans-serif" font-size="13" lengthAdjust="spacing" textLength="193" x="163" y="1132.9248">SentToProxies[{ID}] list undefined</text><polygon fill="#181818" points="612,1180.4844,622,1184.4844,612,1188.4844,616,1184.4844" style="stroke:#181818;stroke-width:1.0;"/><line style="stroke:#181818;stroke-width:1.0;" x1="376" x2="618" y1="1184.4844" y2="1184.4844"/><text fill="#000000" font-family="sans-serif" font-size="13" font-weight="bold" lengthAdjust="spacing" textLength="22" x="383" y="1171.4521">[24]</text><text fill="#000000" font-family="sans-serif" font-size="13" lengthAdjust="spacing" textLength="155" x="409" y="1163.2764">Remove mapping in Oracle</text><text fill="#000000" font-family="sans-serif" font-size="13" lengthAdjust="spacing" textLength="4" x="409" y="1179.6279">&#160;</text><text fill="#000000" font-family="sans-serif" font-size="13" font-weight="bold" lengthAdjust="spacing" textLength="49" x="413" y="1179.6279">DELETE</text><text fill="#000000" font-family="sans-serif" font-size="13" lengthAdjust="spacing" textLength="135" x="466" y="1179.6279">\participants\{Type}\{ID}</text><line style="stroke:#181818;stroke-width:1.0;" x1="376" x2="418" y1="1214.8359" y2="1214.8359"/><line style="stroke:#181818;stroke-width:1.0;" x1="418" x2="418" y1="1214.8359" y2="1227.8359"/><line style="stroke:#181818;stroke-width:1.0;" x1="377" x2="418" y1="1227.8359" y2="1227.8359"/><line style="stroke:#181818;stroke-width:1.0;" x1="377" x2="387" y1="1227.8359" y2="1223.8359"/><line style="stroke:#181818;stroke-width:1.0;" x1="377" x2="387" y1="1227.8359" y2="1231.8359"/><text fill="#000000" font-family="sans-serif" font-size="13" font-weight="bold" lengthAdjust="spacing" textLength="22" x="383" y="1209.9795">[25]</text><text fill="#000000" font-family="sans-serif" font-size="13" lengthAdjust="spacing" textLength="208" x="409" y="1209.9795">Restart the ALS get parties process</text><line style="stroke:#000000;stroke-width:1.0;stroke-dasharray:2.0,2.0;" x1="140" x2="673" y1="1236.8359" y2="1236.8359"/><line style="stroke:#181818;stroke-width:1.0;" x1="197" x2="207" y1="1260.1875" y2="1256.1875"/><line style="stroke:#181818;stroke-width:1.0;" x1="197" x2="207" y1="1260.1875" y2="1264.1875"/><line style="stroke:#181818;stroke-width:1.0;" x1="196" x2="375" y1="1260.1875" y2="1260.1875"/><text fill="#000000" font-family="sans-serif" font-size="13" font-weight="bold" lengthAdjust="spacing" textLength="22" x="213" y="1255.3311">[26]</text><text fill="#000000" font-family="sans-serif" font-size="13" font-weight="bold" lengthAdjust="spacing" textLength="26" x="239" y="1255.3311">PUT</text><text fill="#000000" font-family="sans-serif" font-size="13" lengthAdjust="spacing" textLength="97" x="269" y="1255.3311">/parties/{ID}/error</text><!--SRC=[hLNRRjf047ttLuo8L2GaHAA-eOOA9xHAHLLKq-OXH95ZZs4Liskjrmqeohztzk9R892gyGF8ksTdpvavCrPCfGY12kbt5agrXQiOkM89GmaNORH2pyjedKKi2xc2pYpSqixbbs3MWJ27JB_gD-zURA0Jq84rmhW39rEsN2a_BT03UbennjDWmMieXQ6Lk_4ky8SCenHVOEtYFlXCYitMidvn9elknXhk8O-1c7fxperz0ztmhAM5La_YCpoDFXuMubT2_7yJuhzDY5yAyGy8eMgWBavL6pIryS922LwixwbqPz3vT3-wERtjwCgwwa5_DB9564AlztKox_LWO49ZFdYQRpDy7ZnTNJvxN2Y451FbmGh3cEBbef0Hmdd32fgR1dgap0JjZwgglOnlgTlWKA7w_OfE8WeAPqYUDoIvo4tY1aFt0kEGcwGrKCO2GxXU2M0kDUP0brvqjZyJDaoLVG69cSIS6Y5Kx0-Qe8O7WOoL6lnihPg8wifQyqzS2ugp3hECyQKcM3g2qd4vcKxc4yh8ef6HV67Jlj2P0OhQo3oT2J1DT0LIEiOInvfs92OeaLD1I6MJL5MJFOdxYRcYcq6jK2_14XMuukl84UQvZf3ck4T_8kHZA6DG0ie-ijTvhQkehOvOIzkQKFsHWOxZs3dCR3JL0oIRZ8ciRrMVDnhOx3RjHx4gfVvX0W2Ei6zEw4uRGc3TxLnbMt482_ugWmNNpBlrcEpgp7JB_Mxf0K-RJOVz_djci-exbzAj5okC7k3RTG0vM_9G5H9rK-tWz5KS7ojVqKsHcTbrkceYCAmBLAO8tECPtRLb_JUrgL_QWE1nakLx6jJbibmzQe4AsQxQx5Vx3847AAMGPMD8_RNHrNTJASQSAKQfOuAtPjDE9pJIEHNYeSXgi6shbX9duqDytjV3RGkFZrskNRMcVWsN28aKQpSPFe01q3yNRgb4MSCqsDKVuvqnOuDG8qXHA6tYuqA8R4KLIfO00StMkT1GMh_H4cuXPRa2cbQOC8wlpAptdQd_DmdTfsrK-ULmSNG3_mK0]--></g></svg>