<?xml version="1.0" encoding="us-ascii" standalone="no"?><svg xmlns="http://www.w3.org/2000/svg" xmlns:xlink="http://www.w3.org/1999/xlink" contentStyleType="text/css" height="1418px" preserveAspectRatio="none" style="width:1519px;height:1418px;background:#FFFFFF;" version="1.1" viewBox="0 0 1519 1418" width="1519px" zoomAndPan="magnify"><defs/><g><text fill="#000000" font-family="sans-serif" font-size="14" font-weight="bold" lengthAdjust="spacing" textLength="160" x="680.75" y="29.5332">Interscheme - Transfer</text><rect fill="#DDDDDD" height="1368.0156" style="stroke:#181818;stroke-width:0.5;" width="379" x="334" y="44.6094"/><text fill="#000000" font-family="sans-serif" font-size="13" font-weight="bold" lengthAdjust="spacing" textLength="65" x="491" y="58.1045">Scheme A</text><rect fill="#DDDDDD" height="1368.0156" style="stroke:#181818;stroke-width:0.5;" width="383" x="847.5" y="44.6094"/><text fill="#000000" font-family="sans-serif" font-size="13" font-weight="bold" lengthAdjust="spacing" textLength="65" x="1006.5" y="58.1045">Scheme B</text><line style="stroke:#181818;stroke-width:0.5;stroke-dasharray:5.0,5.0;" x1="241" x2="241" y1="115.1797" y2="1359.4063"/><line style="stroke:#181818;stroke-width:0.5;stroke-dasharray:5.0,5.0;" x1="377" x2="377" y1="115.1797" y2="1359.4063"/><line style="stroke:#181818;stroke-width:0.5;stroke-dasharray:5.0,5.0;" x1="662" x2="662" y1="115.1797" y2="1359.4063"/><line style="stroke:#181818;stroke-width:0.5;stroke-dasharray:5.0,5.0;" x1="754" x2="754" y1="115.1797" y2="1359.4063"/><line style="stroke:#181818;stroke-width:0.5;stroke-dasharray:5.0,5.0;" x1="890.5" x2="890.5" y1="115.1797" y2="1359.4063"/><line style="stroke:#181818;stroke-width:0.5;stroke-dasharray:5.0,5.0;" x1="1179.5" x2="1179.5" y1="115.1797" y2="1359.4063"/><line style="stroke:#181818;stroke-width:0.5;stroke-dasharray:5.0,5.0;" x1="1279.5" x2="1279.5" y1="115.1797" y2="1359.4063"/><rect fill="#E2E2F0" height="31.6094" rx="2.5" ry="2.5" style="stroke:#181818;stroke-width:0.5;" width="92" x="195" y="82.5703"/><text fill="#000000" font-family="sans-serif" font-size="14" lengthAdjust="spacing" textLength="78" x="202" y="104.1035">Payer DFSP</text><rect fill="#E2E2F0" height="31.6094" rx="2.5" ry="2.5" style="stroke:#181818;stroke-width:0.5;" width="92" x="195" y="1358.4063"/><text fill="#000000" font-family="sans-serif" font-size="14" lengthAdjust="spacing" textLength="78" x="202" y="1379.9395">Payer DFSP</text><rect fill="#E2E2F0" height="49.2188" rx="2.5" ry="2.5" style="stroke:#181818;stroke-width:0.5;" width="78" x="338" y="64.9609"/><text fill="#000000" font-family="sans-serif" font-size="14" lengthAdjust="spacing" textLength="57" x="348.5" y="86.4941">Mojaloop</text><text fill="#000000" font-family="sans-serif" font-size="14" lengthAdjust="spacing" textLength="64" x="345" y="104.1035">Scheme A</text><rect fill="#E2E2F0" height="49.2188" rx="2.5" ry="2.5" style="stroke:#181818;stroke-width:0.5;" width="78" x="338" y="1358.4063"/><text fill="#000000" font-family="sans-serif" font-size="14" lengthAdjust="spacing" textLength="57" x="348.5" y="1379.9395">Mojaloop</text><text fill="#000000" font-family="sans-serif" font-size="14" lengthAdjust="spacing" textLength="64" x="345" y="1397.5488">Scheme A</text><rect fill="#E2E2F0" height="49.2188" rx="2.5" ry="2.5" style="stroke:#181818;stroke-width:0.5;" width="94" x="615" y="64.9609"/><text fill="#000000" font-family="sans-serif" font-size="14" lengthAdjust="spacing" textLength="80" x="622" y="86.4941">Proxy Cache</text><text fill="#000000" font-family="sans-serif" font-size="14" lengthAdjust="spacing" textLength="64" x="630" y="104.1035">Scheme A</text><rect fill="#E2E2F0" height="49.2188" rx="2.5" ry="2.5" style="stroke:#181818;stroke-width:0.5;" width="94" x="615" y="1358.4063"/><text fill="#000000" font-family="sans-serif" font-size="14" lengthAdjust="spacing" textLength="80" x="622" y="1379.9395">Proxy Cache</text><text fill="#000000" font-family="sans-serif" font-size="14" lengthAdjust="spacing" textLength="64" x="630" y="1397.5488">Scheme A</text><rect fill="#E2E2F0" height="31.6094" rx="2.5" ry="2.5" style="stroke:#181818;stroke-width:0.5;" width="71" x="719" y="82.5703"/><text fill="#000000" font-family="sans-serif" font-size="14" lengthAdjust="spacing" textLength="57" x="726" y="104.1035">Proxy AB</text><rect fill="#E2E2F0" height="31.6094" rx="2.5" ry="2.5" style="stroke:#181818;stroke-width:0.5;" width="71" x="719" y="1358.4063"/><text fill="#000000" font-family="sans-serif" font-size="14" lengthAdjust="spacing" textLength="57" x="726" y="1379.9395">Proxy AB</text><rect fill="#E2E2F0" height="49.2188" rx="2.5" ry="2.5" style="stroke:#181818;stroke-width:0.5;" width="78" x="851.5" y="64.9609"/><text fill="#000000" font-family="sans-serif" font-size="14" lengthAdjust="spacing" textLength="57" x="862" y="86.4941">Mojaloop</text><text fill="#000000" font-family="sans-serif" font-size="14" lengthAdjust="spacing" textLength="64" x="858.5" y="104.1035">Scheme B</text><rect fill="#E2E2F0" height="49.2188" rx="2.5" ry="2.5" style="stroke:#181818;stroke-width:0.5;" width="78" x="851.5" y="1358.4063"/><text fill="#000000" font-family="sans-serif" font-size="14" lengthAdjust="spacing" textLength="57" x="862" y="1379.9395">Mojaloop</text><text fill="#000000" font-family="sans-serif" font-size="14" lengthAdjust="spacing" textLength="64" x="858.5" y="1397.5488">Scheme B</text><rect fill="#E2E2F0" height="49.2188" rx="2.5" ry="2.5" style="stroke:#181818;stroke-width:0.5;" width="94" x="1132.5" y="64.9609"/><text fill="#000000" font-family="sans-serif" font-size="14" lengthAdjust="spacing" textLength="80" x="1139.5" y="86.4941">Proxy Cache</text><text fill="#000000" font-family="sans-serif" font-size="14" lengthAdjust="spacing" textLength="64" x="1147.5" y="104.1035">Scheme B</text><rect fill="#E2E2F0" height="49.2188" rx="2.5" ry="2.5" style="stroke:#181818;stroke-width:0.5;" width="94" x="1132.5" y="1358.4063"/><text fill="#000000" font-family="sans-serif" font-size="14" lengthAdjust="spacing" textLength="80" x="1139.5" y="1379.9395">Proxy Cache</text><text fill="#000000" font-family="sans-serif" font-size="14" lengthAdjust="spacing" textLength="64" x="1147.5" y="1397.5488">Scheme B</text><rect fill="#E2E2F0" height="31.6094" rx="2.5" ry="2.5" style="stroke:#181818;stroke-width:0.5;" width="86" x="1236.5" y="82.5703"/><text fill="#000000" font-family="sans-serif" font-size="14" lengthAdjust="spacing" textLength="72" x="1243.5" y="104.1035">Payee DFS</text><rect fill="#E2E2F0" height="31.6094" rx="2.5" ry="2.5" style="stroke:#181818;stroke-width:0.5;" width="86" x="1236.5" y="1358.4063"/><text fill="#000000" font-family="sans-serif" font-size="14" lengthAdjust="spacing" textLength="72" x="1243.5" y="1379.9395">Payee DFS</text><line style="stroke:#181818;stroke-width:1.0;" x1="375" x2="365" y1="191.4102" y2="187.4102"/><line style="stroke:#181818;stroke-width:1.0;" x1="375" x2="365" y1="191.4102" y2="195.4102"/><line style="stroke:#181818;stroke-width:1.0;" x1="241" x2="376" y1="191.4102" y2="191.4102"/><text fill="#000000" font-family="sans-serif" font-size="13" font-weight="bold" lengthAdjust="spacing" textLength="15" x="248" y="186.5537">[1]</text><text fill="#000000" font-family="sans-serif" font-size="13" lengthAdjust="spacing" textLength="93" x="267" y="186.5537">POST /transfers</text><path d="M56,130.1797 L56,238.1797 L236,238.1797 L236,140.1797 L226,130.1797 L56,130.1797 " fill="#FEFFDD" style="stroke:#181818;stroke-width:0.5;"/><path d="M226,130.1797 L226,140.1797 L236,140.1797 L226,130.1797 " fill="#FEFFDD" style="stroke:#181818;stroke-width:0.5;"/><text fill="#000000" font-family="sans-serif" font-size="13" lengthAdjust="spacing" textLength="39" x="62" y="148.6748">header</text><text fill="#000000" font-family="sans-serif" font-size="13" lengthAdjust="spacing" textLength="114" x="70" y="165.0264">source: payerDFSP</text><text fill="#000000" font-family="sans-serif" font-size="13" lengthAdjust="spacing" textLength="141" x="70" y="181.3779">destination: payeeDFSP</text><text fill="#000000" font-family="sans-serif" font-size="13" lengthAdjust="spacing" textLength="159" x="62" y="197.7295">JWS signed by payerDFSP</text><text fill="#000000" font-family="sans-serif" font-size="13" lengthAdjust="spacing" textLength="28" x="62" y="214.0811">body</text><text fill="#000000" font-family="sans-serif" font-size="13" lengthAdjust="spacing" textLength="89" x="78" y="230.4326">transferId: 1234</text><line style="stroke:#181818;stroke-width:1.0;" x1="242" x2="252" y1="265.6406" y2="261.6406"/><line style="stroke:#181818;stroke-width:1.0;" x1="242" x2="252" y1="265.6406" y2="269.6406"/><line style="stroke:#181818;stroke-width:1.0;stroke-dasharray:2.0,2.0;" x1="241" x2="376" y1="265.6406" y2="265.6406"/><text fill="#000000" font-family="sans-serif" font-size="13" font-weight="bold" lengthAdjust="spacing" textLength="15" x="258" y="260.7842">[2]</text><text fill="#000000" font-family="sans-serif" font-size="13" lengthAdjust="spacing" textLength="44" x="277" y="260.7842">202 OK</text><line style="stroke:#181818;stroke-width:1.0;" x1="377" x2="419" y1="328.6953" y2="328.6953"/><line style="stroke:#181818;stroke-width:1.0;" x1="419" x2="419" y1="328.6953" y2="341.6953"/><line style="stroke:#181818;stroke-width:1.0;" x1="378" x2="419" y1="341.6953" y2="341.6953"/><polygon fill="#181818" points="388,337.6953,378,341.6953,388,345.6953,384,341.6953" style="stroke:#181818;stroke-width:1.0;"/><text fill="#000000" font-family="sans-serif" font-size="13" font-weight="bold" lengthAdjust="spacing" textLength="15" x="384" y="307.4873">[3]</text><text fill="#000000" font-family="sans-serif" font-size="13" lengthAdjust="spacing" textLength="73" x="403" y="291.1357">Payer DFSP</text><text fill="#000000" font-family="sans-serif" font-size="13" lengthAdjust="spacing" textLength="87" x="407" y="307.4873">- Checks limits</text><text fill="#000000" font-family="sans-serif" font-size="13" lengthAdjust="spacing" textLength="105" x="407" y="323.8389">- Updates position</text><polygon fill="#181818" points="650,384.3984,660,388.3984,650,392.3984,654,388.3984" style="stroke:#181818;stroke-width:1.0;"/><line style="stroke:#181818;stroke-width:1.0;" x1="377" x2="656" y1="388.3984" y2="388.3984"/><text fill="#000000" font-family="sans-serif" font-size="13" font-weight="bold" lengthAdjust="spacing" textLength="15" x="384" y="375.3662">[4]</text><text fill="#000000" font-family="sans-serif" font-size="13" lengthAdjust="spacing" textLength="153" x="403" y="367.1904">Destination not in Scheme</text><text fill="#000000" font-family="sans-serif" font-size="13" lengthAdjust="spacing" textLength="242" x="403" y="383.542">Lookup proxy for payeeDFSP = Proxy AB</text><line style="stroke:#181818;stroke-width:1.0;" x1="752.5" x2="742.5" y1="418.75" y2="414.75"/><line style="stroke:#181818;stroke-width:1.0;" x1="752.5" x2="742.5" y1="418.75" y2="422.75"/><line style="stroke:#181818;stroke-width:1.0;" x1="377" x2="753.5" y1="418.75" y2="418.75"/><text fill="#000000" font-family="sans-serif" font-size="13" font-weight="bold" lengthAdjust="spacing" textLength="15" x="384" y="413.8936">[5]</text><text fill="#000000" font-family="sans-serif" font-size="13" lengthAdjust="spacing" textLength="93" x="403" y="413.8936">POST /transfers</text><line style="stroke:#181818;stroke-width:1.0;" x1="888.5" x2="878.5" y1="501.1563" y2="497.1563"/><line style="stroke:#181818;stroke-width:1.0;" x1="888.5" x2="878.5" y1="501.1563" y2="505.1563"/><line style="stroke:#181818;stroke-width:1.0;" x1="754.5" x2="889.5" y1="501.1563" y2="501.1563"/><text fill="#000000" font-family="sans-serif" font-size="13" font-weight="bold" lengthAdjust="spacing" textLength="15" x="761.5" y="496.2998">[6]</text><text fill="#000000" font-family="sans-serif" font-size="13" lengthAdjust="spacing" textLength="93" x="780.5" y="496.2998">POST /transfers</text><path d="M569,431.75 L569,555.75 L749,555.75 L749,441.75 L739,431.75 L569,431.75 " fill="#FEFFDD" style="stroke:#181818;stroke-width:0.5;"/><path d="M739,431.75 L739,441.75 L749,441.75 L739,431.75 " fill="#FEFFDD" style="stroke:#181818;stroke-width:0.5;"/><text fill="#000000" font-family="sans-serif" font-size="13" lengthAdjust="spacing" textLength="39" x="575" y="450.2451">header</text><text fill="#000000" font-family="sans-serif" font-size="13" lengthAdjust="spacing" textLength="114" x="583" y="466.5967">source: payerDFSP</text><text fill="#000000" font-family="sans-serif" font-size="13" lengthAdjust="spacing" textLength="141" x="583" y="482.9482">destination: payeeDFSP</text><text fill="#000000" font-family="sans-serif" font-size="13" lengthAdjust="spacing" textLength="128" x="583" y="499.2998">fxpiop-proxy: proxyAB</text><text fill="#000000" font-family="sans-serif" font-size="13" lengthAdjust="spacing" textLength="159" x="575" y="515.6514">JWS signed by payerDFSP</text><text fill="#000000" font-family="sans-serif" font-size="13" lengthAdjust="spacing" textLength="28" x="575" y="532.0029">body</text><text fill="#000000" font-family="sans-serif" font-size="13" lengthAdjust="spacing" textLength="89" x="591" y="548.3545">transferId: 1234</text><line style="stroke:#181818;stroke-width:1.0;" x1="755.5" x2="765.5" y1="583.5625" y2="579.5625"/><line style="stroke:#181818;stroke-width:1.0;" x1="755.5" x2="765.5" y1="583.5625" y2="587.5625"/><line style="stroke:#181818;stroke-width:1.0;stroke-dasharray:2.0,2.0;" x1="754.5" x2="889.5" y1="583.5625" y2="583.5625"/><text fill="#000000" font-family="sans-serif" font-size="13" font-weight="bold" lengthAdjust="spacing" textLength="15" x="771.5" y="578.7061">[7]</text><text fill="#000000" font-family="sans-serif" font-size="13" lengthAdjust="spacing" textLength="44" x="790.5" y="578.7061">202 OK</text><line style="stroke:#181818;stroke-width:1.0;" x1="378" x2="388" y1="613.9141" y2="609.9141"/><line style="stroke:#181818;stroke-width:1.0;" x1="378" x2="388" y1="613.9141" y2="617.9141"/><line style="stroke:#181818;stroke-width:1.0;stroke-dasharray:2.0,2.0;" x1="377" x2="753.5" y1="613.9141" y2="613.9141"/><text fill="#000000" font-family="sans-serif" font-size="13" font-weight="bold" lengthAdjust="spacing" textLength="15" x="394" y="609.0576">[8]</text><text fill="#000000" font-family="sans-serif" font-size="13" lengthAdjust="spacing" textLength="44" x="413" y="609.0576">202 OK</text><line style="stroke:#181818;stroke-width:1.0;" x1="377" x2="419" y1="644.2656" y2="644.2656"/><line style="stroke:#181818;stroke-width:1.0;" x1="419" x2="419" y1="644.2656" y2="657.2656"/><line style="stroke:#181818;stroke-width:1.0;" x1="378" x2="419" y1="657.2656" y2="657.2656"/><polygon fill="#181818" points="388,653.2656,378,657.2656,388,661.2656,384,657.2656" style="stroke:#181818;stroke-width:1.0;"/><text fill="#000000" font-family="sans-serif" font-size="13" font-weight="bold" lengthAdjust="spacing" textLength="15" x="384" y="639.4092">[9]</text><text fill="#000000" font-family="sans-serif" font-size="13" lengthAdjust="spacing" textLength="90" x="403" y="639.4092">Disable timeout</text><line style="stroke:#181818;stroke-width:1.0;" x1="890.5" x2="932.5" y1="720.3203" y2="720.3203"/><line style="stroke:#181818;stroke-width:1.0;" x1="932.5" x2="932.5" y1="720.3203" y2="733.3203"/><line style="stroke:#181818;stroke-width:1.0;" x1="891.5" x2="932.5" y1="733.3203" y2="733.3203"/><polygon fill="#181818" points="901.5,729.3203,891.5,733.3203,901.5,737.3203,897.5,733.3203" style="stroke:#181818;stroke-width:1.0;"/><text fill="#000000" font-family="sans-serif" font-size="13" font-weight="bold" lengthAdjust="spacing" textLength="22" x="897.5" y="699.1123">[10]</text><text fill="#000000" font-family="sans-serif" font-size="13" lengthAdjust="spacing" textLength="56" x="923.5" y="682.7607">Proxy AB</text><text fill="#000000" font-family="sans-serif" font-size="13" lengthAdjust="spacing" textLength="4" x="923.5" y="699.1123">&#160;</text><text fill="#000000" font-family="sans-serif" font-size="13" font-weight="bold" lengthAdjust="spacing" textLength="98" x="927.5" y="699.1123">- No limit check</text><text fill="#000000" font-family="sans-serif" font-size="13" lengthAdjust="spacing" textLength="105" x="927.5" y="715.4639">- Updates position</text><line style="stroke:#181818;stroke-width:1.0;" x1="1277.5" x2="1267.5" y1="766.6719" y2="762.6719"/><line style="stroke:#181818;stroke-width:1.0;" x1="1277.5" x2="1267.5" y1="766.6719" y2="770.6719"/><line style="stroke:#181818;stroke-width:1.0;" x1="890.5" x2="1278.5" y1="766.6719" y2="766.6719"/><text fill="#000000" font-family="sans-serif" font-size="13" font-weight="bold" lengthAdjust="spacing" textLength="22" x="897.5" y="761.8154">[11]</text><text fill="#000000" font-family="sans-serif" font-size="13" lengthAdjust="spacing" textLength="93" x="923.5" y="761.8154">POST /transfers</text><path d="M1284,746.3203 L1284,772.3203 L1512,772.3203 L1512,756.3203 L1502,746.3203 L1284,746.3203 " fill="#FEFFDD" style="stroke:#181818;stroke-width:0.5;"/><path d="M1502,746.3203 L1502,756.3203 L1512,756.3203 L1502,746.3203 " fill="#FEFFDD" style="stroke:#181818;stroke-width:0.5;"/><text fill="#000000" font-family="sans-serif" font-size="13" lengthAdjust="spacing" textLength="207" x="1290" y="764.8154">Checks JWS signed by payerDFSP</text><line style="stroke:#181818;stroke-width:1.0;" x1="891.5" x2="901.5" y1="835.7266" y2="831.7266"/><line style="stroke:#181818;stroke-width:1.0;" x1="891.5" x2="901.5" y1="835.7266" y2="839.7266"/><line style="stroke:#181818;stroke-width:1.0;" x1="890.5" x2="1278.5" y1="835.7266" y2="835.7266"/><text fill="#000000" font-family="sans-serif" font-size="13" font-weight="bold" lengthAdjust="spacing" textLength="22" x="907.5" y="822.6943">[12]</text><text fill="#000000" font-family="sans-serif" font-size="13" lengthAdjust="spacing" textLength="83" x="933.5" y="814.5186">PUT /transfers</text><text fill="#000000" font-family="sans-serif" font-size="13" lengthAdjust="spacing" textLength="270" x="933.5" y="830.8701">{fulfilment: "xyz", transferState: "RESERVED"}</text><path d="M1284,782.6719 L1284,857.6719 L1475,857.6719 L1475,792.6719 L1465,782.6719 L1284,782.6719 " fill="#FEFFDD" style="stroke:#181818;stroke-width:0.5;"/><path d="M1465,782.6719 L1465,792.6719 L1475,792.6719 L1465,782.6719 " fill="#FEFFDD" style="stroke:#181818;stroke-width:0.5;"/><text fill="#000000" font-family="sans-serif" font-size="13" lengthAdjust="spacing" textLength="39" x="1290" y="801.167">header</text><text fill="#000000" font-family="sans-serif" font-size="13" lengthAdjust="spacing" textLength="117" x="1298" y="817.5186">source: payeeDFSP</text><text fill="#000000" font-family="sans-serif" font-size="13" lengthAdjust="spacing" textLength="138" x="1298" y="833.8701">destination: payerDFSP</text><text fill="#000000" font-family="sans-serif" font-size="13" lengthAdjust="spacing" textLength="162" x="1290" y="850.2217">JWS signed by payeeDFSP</text><line style="stroke:#181818;stroke-width:1.0;" x1="890.5" x2="932.5" y1="901.7813" y2="901.7813"/><line style="stroke:#181818;stroke-width:1.0;" x1="932.5" x2="932.5" y1="901.7813" y2="914.7813"/><line style="stroke:#181818;stroke-width:1.0;" x1="891.5" x2="932.5" y1="914.7813" y2="914.7813"/><polygon fill="#181818" points="901.5,910.7813,891.5,914.7813,901.5,918.7813,897.5,914.7813" style="stroke:#181818;stroke-width:1.0;"/><text fill="#000000" font-family="sans-serif" font-size="13" font-weight="bold" lengthAdjust="spacing" textLength="22" x="897.5" y="888.749">[13]</text><text fill="#000000" font-family="sans-serif" font-size="13" lengthAdjust="spacing" textLength="73" x="923.5" y="880.5732">Payer DFSP</text><text fill="#000000" font-family="sans-serif" font-size="13" lengthAdjust="spacing" textLength="105" x="927.5" y="896.9248">- Updates position</text><polygon fill="#181818" points="1167.5,941.1328,1177.5,945.1328,1167.5,949.1328,1171.5,945.1328" style="stroke:#181818;stroke-width:1.0;"/><line style="stroke:#181818;stroke-width:1.0;" x1="890.5" x2="1173.5" y1="945.1328" y2="945.1328"/><text fill="#000000" font-family="sans-serif" font-size="13" font-weight="bold" lengthAdjust="spacing" textLength="22" x="897.5" y="940.2764">[14]</text><text fill="#000000" font-family="sans-serif" font-size="13" lengthAdjust="spacing" textLength="239" x="923.5" y="940.2764">Lookup proxy for payerDFSP = Proxy AB</text><line style="stroke:#181818;stroke-width:1.0;" x1="755.5" x2="765.5" y1="975.4844" y2="971.4844"/><line style="stroke:#181818;stroke-width:1.0;" x1="755.5" x2="765.5" y1="975.4844" y2="979.4844"/><line style="stroke:#181818;stroke-width:1.0;" x1="754.5" x2="889.5" y1="975.4844" y2="975.4844"/><text fill="#000000" font-family="sans-serif" font-size="13" font-weight="bold" lengthAdjust="spacing" textLength="22" x="771.5" y="970.6279">[15]</text><text fill="#000000" font-family="sans-serif" font-size="13" lengthAdjust="spacing" textLength="83" x="797.5" y="970.6279">PUT /transfers</text><line style="stroke:#181818;stroke-width:1.0;" x1="378" x2="388" y1="1041.5391" y2="1037.5391"/><line style="stroke:#181818;stroke-width:1.0;" x1="378" x2="388" y1="1041.5391" y2="1045.5391"/><line style="stroke:#181818;stroke-width:1.0;" x1="377" x2="753.5" y1="1041.5391" y2="1041.5391"/><text fill="#000000" font-family="sans-serif" font-size="13" font-weight="bold" lengthAdjust="spacing" textLength="22" x="394" y="1036.6826">[16]</text><text fill="#000000" font-family="sans-serif" font-size="13" lengthAdjust="spacing" textLength="83" x="420" y="1036.6826">PUT /transfers</text><path d="M759,988.4844 L759,1079.4844 L950,1079.4844 L950,998.4844 L940,988.4844 L759,988.4844 " fill="#FEFFDD" style="stroke:#181818;stroke-width:0.5;"/><path d="M940,988.4844 L940,998.4844 L950,998.4844 L940,988.4844 " fill="#FEFFDD" style="stroke:#181818;stroke-width:0.5;"/><text fill="#000000" font-family="sans-serif" font-size="13" lengthAdjust="spacing" textLength="39" x="765" y="1006.9795">header</text><text fill="#000000" font-family="sans-serif" font-size="13" lengthAdjust="spacing" textLength="117" x="773" y="1023.3311">source: payeeDFSP</text><text fill="#000000" font-family="sans-serif" font-size="13" lengthAdjust="spacing" textLength="138" x="773" y="1039.6826">destination: payerDFSP</text><text fill="#000000" font-family="sans-serif" font-size="13" lengthAdjust="spacing" textLength="128" x="773" y="1056.0342">fxpiop-proxy: proxyAB</text><text fill="#000000" font-family="sans-serif" font-size="13" lengthAdjust="spacing" textLength="162" x="765" y="1072.3857">JWS signed by payeeDFSP</text><line style="stroke:#181818;stroke-width:1.0;" x1="752.5" x2="742.5" y1="1107.5938" y2="1103.5938"/><line style="stroke:#181818;stroke-width:1.0;" x1="752.5" x2="742.5" y1="1107.5938" y2="1111.5938"/><line style="stroke:#181818;stroke-width:1.0;stroke-dasharray:2.0,2.0;" x1="377" x2="753.5" y1="1107.5938" y2="1107.5938"/><text fill="#000000" font-family="sans-serif" font-size="13" font-weight="bold" lengthAdjust="spacing" textLength="22" x="384" y="1102.7373">[17]</text><text fill="#000000" font-family="sans-serif" font-size="13" lengthAdjust="spacing" textLength="44" x="410" y="1102.7373">200 OK</text><line style="stroke:#181818;stroke-width:1.0;" x1="888.5" x2="878.5" y1="1137.9453" y2="1133.9453"/><line style="stroke:#181818;stroke-width:1.0;" x1="888.5" x2="878.5" y1="1137.9453" y2="1141.9453"/><line style="stroke:#181818;stroke-width:1.0;stroke-dasharray:2.0,2.0;" x1="754.5" x2="889.5" y1="1137.9453" y2="1137.9453"/><text fill="#000000" font-family="sans-serif" font-size="13" font-weight="bold" lengthAdjust="spacing" textLength="22" x="761.5" y="1133.0889">[18]</text><text fill="#000000" font-family="sans-serif" font-size="13" lengthAdjust="spacing" textLength="44" x="787.5" y="1133.0889">200 OK</text><line style="stroke:#181818;stroke-width:1.0;" x1="1277.5" x2="1267.5" y1="1184.6484" y2="1180.6484"/><line style="stroke:#181818;stroke-width:1.0;" x1="1277.5" x2="1267.5" y1="1184.6484" y2="1188.6484"/><line style="stroke:#181818;stroke-width:1.0;" x1="890.5" x2="1278.5" y1="1184.6484" y2="1184.6484"/><text fill="#000000" font-family="sans-serif" font-size="13" font-weight="bold" lengthAdjust="spacing" textLength="22" x="897.5" y="1171.6162">[19]</text><text fill="#000000" font-family="sans-serif" font-size="13" lengthAdjust="spacing" textLength="101" x="923.5" y="1163.4404">PATCH /transfers</text><text fill="#000000" font-family="sans-serif" font-size="13" lengthAdjust="spacing" textLength="176" x="923.5" y="1179.792">{transferState: "COMMITTED"}</text><line style="stroke:#181818;stroke-width:1.0;" x1="891.5" x2="901.5" y1="1215" y2="1211"/><line style="stroke:#181818;stroke-width:1.0;" x1="891.5" x2="901.5" y1="1215" y2="1219"/><line style="stroke:#181818;stroke-width:1.0;stroke-dasharray:2.0,2.0;" x1="890.5" x2="1278.5" y1="1215" y2="1215"/><text fill="#000000" font-family="sans-serif" font-size="13" font-weight="bold" lengthAdjust="spacing" textLength="22" x="907.5" y="1210.1436">[20]</text><text fill="#000000" font-family="sans-serif" font-size="13" lengthAdjust="spacing" textLength="44" x="933.5" y="1210.1436">200 OK</text><line style="stroke:#181818;stroke-width:1.0;" x1="377" x2="419" y1="1261.7031" y2="1261.7031"/><line style="stroke:#181818;stroke-width:1.0;" x1="419" x2="419" y1="1261.7031" y2="1274.7031"/><line style="stroke:#181818;stroke-width:1.0;" x1="378" x2="419" y1="1274.7031" y2="1274.7031"/><polygon fill="#181818" points="388,1270.7031,378,1274.7031,388,1278.7031,384,1274.7031" style="stroke:#181818;stroke-width:1.0;"/><text fill="#000000" font-family="sans-serif" font-size="13" font-weight="bold" lengthAdjust="spacing" textLength="22" x="384" y="1248.6709">[21]</text><text fill="#000000" font-family="sans-serif" font-size="13" lengthAdjust="spacing" textLength="54" x="410" y="1240.4951">NX Proxy</text><text fill="#000000" font-family="sans-serif" font-size="13" lengthAdjust="spacing" textLength="105" x="414" y="1256.8467">- Updates position</text><line style="stroke:#181818;stroke-width:1.0;" x1="242" x2="252" y1="1308.0547" y2="1304.0547"/><line style="stroke:#181818;stroke-width:1.0;" x1="242" x2="252" y1="1308.0547" y2="1312.0547"/><line style="stroke:#181818;stroke-width:1.0;" x1="241" x2="376" y1="1308.0547" y2="1308.0547"/><text fill="#000000" font-family="sans-serif" font-size="13" font-weight="bold" lengthAdjust="spacing" textLength="22" x="258" y="1303.1982">[22]</text><text fill="#000000" font-family="sans-serif" font-size="13" lengthAdjust="spacing" textLength="83" x="284" y="1303.1982">PUT /transfers</text><path d="M5,1287.7031 L5,1313.7031 L236,1313.7031 L236,1297.7031 L226,1287.7031 L5,1287.7031 " fill="#FEFFDD" style="stroke:#181818;stroke-width:0.5;"/><path d="M226,1287.7031 L226,1297.7031 L236,1297.7031 L226,1287.7031 " fill="#FEFFDD" style="stroke:#181818;stroke-width:0.5;"/><text fill="#000000" font-family="sans-serif" font-size="13" lengthAdjust="spacing" textLength="210" x="11" y="1306.1982">Checks JWS signed by payeeDFSP</text><line style="stroke:#181818;stroke-width:1.0;" x1="375" x2="365" y1="1341.4063" y2="1337.4063"/><line style="stroke:#181818;stroke-width:1.0;" x1="375" x2="365" y1="1341.4063" y2="1345.4063"/><line style="stroke:#181818;stroke-width:1.0;stroke-dasharray:2.0,2.0;" x1="241" x2="376" y1="1341.4063" y2="1341.4063"/><text fill="#000000" font-family="sans-serif" font-size="13" font-weight="bold" lengthAdjust="spacing" textLength="22" x="248" y="1336.5498">[23]</text><text fill="#000000" font-family="sans-serif" font-size="13" lengthAdjust="spacing" textLength="44" x="274" y="1336.5498">200 OK</text><!--SRC=[hPNXZvCm6CQ_zwzumyT5ucxwYUWIs6QSkhlbsDJ46TD1kTLZBO6IR1h_TzjIeDjWNd9-fEtxzkdlULe45Ic1EHCaBw8TsHDmOPLZLYGaHoZ3kQ0HpJ0Ju2pnaUGmVHSk7S05PEfJVQ4jFq1O5Vi8uAHemN_YbFDim-eLkhZQwsBrCkU78qomd3qhoA8VFY8i1haPwgZn0xtim39RJl1FEO4b9tYAdA2M4_J8aLY8ejH08XeImgNWhDnl9SCRSDvinz-6tns5s604TpokkNYml0jNy58O9mh4k22GaaIW7S6nx26r5hpC8-9PJW34f12KOK4vywpTFtm9eQ0FZ4Z5nnFhugDg1L1lDOyzk1czUgrFftP5HXEuIc1Jwi5eE8AxZ-sqhRw9oeR9G4rs97ei8ALxAWeziivYB8ZammkgjDfTbDKUJDk3A1b0cJ5rmpvn_bXca6bt4fwtvuItKCV1wZXMiRX4AWSjvi5_PmwG73BACrSBzIgzKjZplGWgB_IfZ0lwC2S9kcBFb1PuAw-ze7l2Iu7QjZOD0rBwDHYuSCih_o1IPWu6rsmCf926Gm_Nd3xi13B9w4FIdBlf9Zkt2jTsMzYmtqcP9ZJT4oOyS0x7NywBXcKef58vUZyBP_UVPrFdZwsZss3IPt3USwcg44A7NpROqylHnz1S1LdGcVUyE-yAVPNszNdO6tJ-nUnpIJmzwZs4VBVMFHeEJPvTssipt9qlVpLvVvQ4SzidTul5VBNIlhTXwjtXzBxSVgqmNtswZ2RpE7O1raz9R-B9PUBDV-7iMckPVm40]--></g></svg>