<?xml version="1.0" encoding="us-ascii" standalone="no"?><svg xmlns="http://www.w3.org/2000/svg" xmlns:xlink="http://www.w3.org/1999/xlink" contentStyleType="text/css" height="1629px" preserveAspectRatio="none" style="width:1307px;height:1629px;background:#FFFFFF;" version="1.1" viewBox="0 0 1307 1629" width="1307px" zoomAndPan="magnify"><defs/><g><text fill="#000000" font-family="sans-serif" font-size="14" font-weight="bold" lengthAdjust="spacing" textLength="212" x="543.75" y="29.5332">Interscheme - General Pattern</text><rect fill="#ADD8E6" height="1579.0156" style="stroke:#181818;stroke-width:0.5;" width="340" x="295" y="44.6094"/><text fill="#000000" font-family="sans-serif" font-size="13" font-weight="bold" lengthAdjust="spacing" textLength="65" x="432.5" y="58.1045">Scheme A</text><rect fill="#D1E0C3" height="1579.0156" style="stroke:#181818;stroke-width:0.5;" width="337" x="740.5" y="44.6094"/><text fill="#000000" font-family="sans-serif" font-size="13" font-weight="bold" lengthAdjust="spacing" textLength="65" x="876.5" y="58.1045">Scheme B</text><line style="stroke:#181818;stroke-width:0.5;stroke-dasharray:5.0,5.0;" x1="180" x2="180" y1="115.1797" y2="1570.4063"/><line style="stroke:#181818;stroke-width:0.5;stroke-dasharray:5.0,5.0;" x1="338" x2="338" y1="115.1797" y2="1570.4063"/><line style="stroke:#181818;stroke-width:0.5;stroke-dasharray:5.0,5.0;" x1="584" x2="584" y1="115.1797" y2="1570.4063"/><line style="stroke:#181818;stroke-width:0.5;stroke-dasharray:5.0,5.0;" x1="676" x2="676" y1="115.1797" y2="1570.4063"/><line style="stroke:#181818;stroke-width:0.5;stroke-dasharray:5.0,5.0;" x1="783.5" x2="783.5" y1="115.1797" y2="1570.4063"/><line style="stroke:#181818;stroke-width:0.5;stroke-dasharray:5.0,5.0;" x1="1026.5" x2="1026.5" y1="115.1797" y2="1570.4063"/><line style="stroke:#181818;stroke-width:0.5;stroke-dasharray:5.0,5.0;" x1="1126.5" x2="1126.5" y1="115.1797" y2="1570.4063"/><rect fill="#E2E2F0" height="31.6094" rx="2.5" ry="2.5" style="stroke:#181818;stroke-width:0.5;" width="92" x="134" y="82.5703"/><text fill="#000000" font-family="sans-serif" font-size="14" lengthAdjust="spacing" textLength="78" x="141" y="104.1035">Payer DFSP</text><rect fill="#E2E2F0" height="31.6094" rx="2.5" ry="2.5" style="stroke:#181818;stroke-width:0.5;" width="92" x="134" y="1569.4063"/><text fill="#000000" font-family="sans-serif" font-size="14" lengthAdjust="spacing" textLength="78" x="141" y="1590.9395">Payer DFSP</text><rect fill="#E2E2F0" height="49.2188" rx="2.5" ry="2.5" style="stroke:#181818;stroke-width:0.5;" width="78" x="299" y="64.9609"/><text fill="#000000" font-family="sans-serif" font-size="14" lengthAdjust="spacing" textLength="49" x="313.5" y="86.4941">Handler</text><text fill="#000000" font-family="sans-serif" font-size="14" lengthAdjust="spacing" textLength="64" x="306" y="104.1035">Scheme A</text><rect fill="#E2E2F0" height="49.2188" rx="2.5" ry="2.5" style="stroke:#181818;stroke-width:0.5;" width="78" x="299" y="1569.4063"/><text fill="#000000" font-family="sans-serif" font-size="14" lengthAdjust="spacing" textLength="49" x="313.5" y="1590.9395">Handler</text><text fill="#000000" font-family="sans-serif" font-size="14" lengthAdjust="spacing" textLength="64" x="306" y="1608.5488">Scheme A</text><rect fill="#E2E2F0" height="49.2188" rx="2.5" ry="2.5" style="stroke:#181818;stroke-width:0.5;" width="94" x="537" y="64.9609"/><text fill="#000000" font-family="sans-serif" font-size="14" lengthAdjust="spacing" textLength="80" x="544" y="86.4941">Proxy Cache</text><text fill="#000000" font-family="sans-serif" font-size="14" lengthAdjust="spacing" textLength="64" x="552" y="104.1035">Scheme A</text><rect fill="#E2E2F0" height="49.2188" rx="2.5" ry="2.5" style="stroke:#181818;stroke-width:0.5;" width="94" x="537" y="1569.4063"/><text fill="#000000" font-family="sans-serif" font-size="14" lengthAdjust="spacing" textLength="80" x="544" y="1590.9395">Proxy Cache</text><text fill="#000000" font-family="sans-serif" font-size="14" lengthAdjust="spacing" textLength="64" x="552" y="1608.5488">Scheme A</text><rect fill="#E2E2F0" height="31.6094" rx="2.5" ry="2.5" style="stroke:#181818;stroke-width:0.5;" width="71" x="641" y="82.5703"/><text fill="#000000" font-family="sans-serif" font-size="14" lengthAdjust="spacing" textLength="57" x="648" y="104.1035">Proxy AB</text><rect fill="#E2E2F0" height="31.6094" rx="2.5" ry="2.5" style="stroke:#181818;stroke-width:0.5;" width="71" x="641" y="1569.4063"/><text fill="#000000" font-family="sans-serif" font-size="14" lengthAdjust="spacing" textLength="57" x="648" y="1590.9395">Proxy AB</text><rect fill="#E2E2F0" height="49.2188" rx="2.5" ry="2.5" style="stroke:#181818;stroke-width:0.5;" width="78" x="744.5" y="64.9609"/><text fill="#000000" font-family="sans-serif" font-size="14" lengthAdjust="spacing" textLength="49" x="759" y="86.4941">Handler</text><text fill="#000000" font-family="sans-serif" font-size="14" lengthAdjust="spacing" textLength="64" x="751.5" y="104.1035">Scheme B</text><rect fill="#E2E2F0" height="49.2188" rx="2.5" ry="2.5" style="stroke:#181818;stroke-width:0.5;" width="78" x="744.5" y="1569.4063"/><text fill="#000000" font-family="sans-serif" font-size="14" lengthAdjust="spacing" textLength="49" x="759" y="1590.9395">Handler</text><text fill="#000000" font-family="sans-serif" font-size="14" lengthAdjust="spacing" textLength="64" x="751.5" y="1608.5488">Scheme B</text><rect fill="#E2E2F0" height="49.2188" rx="2.5" ry="2.5" style="stroke:#181818;stroke-width:0.5;" width="94" x="979.5" y="64.9609"/><text fill="#000000" font-family="sans-serif" font-size="14" lengthAdjust="spacing" textLength="80" x="986.5" y="86.4941">Proxy Cache</text><text fill="#000000" font-family="sans-serif" font-size="14" lengthAdjust="spacing" textLength="64" x="994.5" y="104.1035">Scheme B</text><rect fill="#E2E2F0" height="49.2188" rx="2.5" ry="2.5" style="stroke:#181818;stroke-width:0.5;" width="94" x="979.5" y="1569.4063"/><text fill="#000000" font-family="sans-serif" font-size="14" lengthAdjust="spacing" textLength="80" x="986.5" y="1590.9395">Proxy Cache</text><text fill="#000000" font-family="sans-serif" font-size="14" lengthAdjust="spacing" textLength="64" x="994.5" y="1608.5488">Scheme B</text><rect fill="#E2E2F0" height="31.6094" rx="2.5" ry="2.5" style="stroke:#181818;stroke-width:0.5;" width="86" x="1083.5" y="82.5703"/><text fill="#000000" font-family="sans-serif" font-size="14" lengthAdjust="spacing" textLength="72" x="1090.5" y="104.1035">Payee DFS</text><rect fill="#E2E2F0" height="31.6094" rx="2.5" ry="2.5" style="stroke:#181818;stroke-width:0.5;" width="86" x="1083.5" y="1569.4063"/><text fill="#000000" font-family="sans-serif" font-size="14" lengthAdjust="spacing" textLength="72" x="1090.5" y="1590.9395">Payee DFS</text><rect fill="#EEEEEE" height="3" style="stroke:#EEEEEE;stroke-width:1.0;" width="1300.5" x="0" y="146.3555"/><line style="stroke:#000000;stroke-width:1.0;" x1="0" x2="1300.5" y1="146.3555" y2="146.3555"/><line style="stroke:#000000;stroke-width:1.0;" x1="0" x2="1300.5" y1="149.3555" y2="149.3555"/><rect fill="#EEEEEE" height="24.3516" style="stroke:#000000;stroke-width:2.0;" width="54" x="623.25" y="135.1797"/><text fill="#000000" font-family="sans-serif" font-size="13" font-weight="bold" lengthAdjust="spacing" textLength="36" x="629.25" y="152.6748">POST</text><line style="stroke:#181818;stroke-width:1.0;" x1="336" x2="326" y1="227.5859" y2="223.5859"/><line style="stroke:#181818;stroke-width:1.0;" x1="336" x2="326" y1="227.5859" y2="231.5859"/><line style="stroke:#181818;stroke-width:1.0;" x1="180" x2="337" y1="227.5859" y2="227.5859"/><text fill="#000000" font-family="sans-serif" font-size="13" font-weight="bold" lengthAdjust="spacing" textLength="15" x="187" y="222.7295">[1]</text><text fill="#000000" font-family="sans-serif" font-size="13" lengthAdjust="spacing" textLength="64" x="206" y="222.7295">POST /xxx</text><path d="M5,174.5313 L5,265.5313 L175,265.5313 L175,184.5313 L165,174.5313 L5,174.5313 " fill="#FEFFDD" style="stroke:#181818;stroke-width:0.5;"/><path d="M165,174.5313 L165,184.5313 L175,184.5313 L165,174.5313 " fill="#FEFFDD" style="stroke:#181818;stroke-width:0.5;"/><text fill="#000000" font-family="sans-serif" font-size="13" lengthAdjust="spacing" textLength="39" x="11" y="193.0264">header</text><text fill="#000000" font-family="sans-serif" font-size="13" lengthAdjust="spacing" textLength="114" x="19" y="209.3779">source: payerDFSP</text><text fill="#000000" font-family="sans-serif" font-size="13" lengthAdjust="spacing" textLength="141" x="19" y="225.7295">destination: payeeDFSP</text><text fill="#000000" font-family="sans-serif" font-size="13" lengthAdjust="spacing" textLength="28" x="11" y="242.0811">body</text><text fill="#000000" font-family="sans-serif" font-size="13" lengthAdjust="spacing" textLength="56" x="15" y="258.4326">{ID: 1234}</text><line style="stroke:#181818;stroke-width:1.0;" x1="181" x2="191" y1="293.6406" y2="289.6406"/><line style="stroke:#181818;stroke-width:1.0;" x1="181" x2="191" y1="293.6406" y2="297.6406"/><line style="stroke:#181818;stroke-width:1.0;stroke-dasharray:2.0,2.0;" x1="180" x2="337" y1="293.6406" y2="293.6406"/><text fill="#000000" font-family="sans-serif" font-size="13" font-weight="bold" lengthAdjust="spacing" textLength="15" x="197" y="288.7842">[2]</text><text fill="#000000" font-family="sans-serif" font-size="13" lengthAdjust="spacing" textLength="104" x="216" y="288.7842">http 202 response</text><polygon fill="#181818" points="572,352.6953,582,356.6953,572,360.6953,576,356.6953" style="stroke:#181818;stroke-width:1.0;"/><line style="stroke:#181818;stroke-width:1.0;" x1="338" x2="578" y1="356.6953" y2="356.6953"/><text fill="#000000" font-family="sans-serif" font-size="13" font-weight="bold" lengthAdjust="spacing" textLength="15" x="345" y="335.4873">[3]</text><text fill="#000000" font-family="sans-serif" font-size="13" lengthAdjust="spacing" textLength="155" x="364" y="319.1357">Destination not in scheme:</text><text fill="#000000" font-family="sans-serif" font-size="13" lengthAdjust="spacing" textLength="192" x="368" y="335.4873">payeeDFSP has a proxy mapped</text><text fill="#000000" font-family="sans-serif" font-size="13" lengthAdjust="spacing" textLength="154" x="368" y="351.8389">need to send to 'Proxy AB'</text><line style="stroke:#181818;stroke-width:1.0;" x1="674.5" x2="664.5" y1="387.0469" y2="383.0469"/><line style="stroke:#181818;stroke-width:1.0;" x1="674.5" x2="664.5" y1="387.0469" y2="391.0469"/><line style="stroke:#181818;stroke-width:1.0;" x1="338" x2="675.5" y1="387.0469" y2="387.0469"/><text fill="#000000" font-family="sans-serif" font-size="13" font-weight="bold" lengthAdjust="spacing" textLength="15" x="345" y="382.1904">[4]</text><text fill="#000000" font-family="sans-serif" font-size="13" lengthAdjust="spacing" textLength="64" x="364" y="382.1904">POST /xxx</text><line style="stroke:#181818;stroke-width:1.0;" x1="676.5" x2="718.5" y1="417.3984" y2="417.3984"/><line style="stroke:#181818;stroke-width:1.0;" x1="718.5" x2="718.5" y1="417.3984" y2="430.3984"/><line style="stroke:#181818;stroke-width:1.0;" x1="677.5" x2="718.5" y1="430.3984" y2="430.3984"/><polygon fill="#181818" points="687.5,426.3984,677.5,430.3984,687.5,434.3984,683.5,430.3984" style="stroke:#181818;stroke-width:1.0;"/><text fill="#000000" font-family="sans-serif" font-size="13" font-weight="bold" lengthAdjust="spacing" textLength="15" x="683.5" y="412.542">[5]</text><text fill="#000000" font-family="sans-serif" font-size="13" lengthAdjust="spacing" textLength="66" x="702.5" y="412.542">Add header</text><path d="M498,403.5469 L498,429.5469 L671,429.5469 L671,413.5469 L661,403.5469 L498,403.5469 " fill="#FEFFDD" style="stroke:#181818;stroke-width:0.5;"/><path d="M661,403.5469 L661,413.5469 L671,413.5469 L661,403.5469 " fill="#FEFFDD" style="stroke:#181818;stroke-width:0.5;"/><text fill="#000000" font-family="sans-serif" font-size="13" lengthAdjust="spacing" textLength="152" x="504" y="422.042">fxpiop-proxy = "Proxy AB"</text><line style="stroke:#181818;stroke-width:1.0;" x1="781.5" x2="771.5" y1="463.75" y2="459.75"/><line style="stroke:#181818;stroke-width:1.0;" x1="781.5" x2="771.5" y1="463.75" y2="467.75"/><line style="stroke:#181818;stroke-width:1.0;" x1="676.5" x2="782.5" y1="463.75" y2="463.75"/><text fill="#000000" font-family="sans-serif" font-size="13" font-weight="bold" lengthAdjust="spacing" textLength="15" x="683.5" y="458.8936">[6]</text><text fill="#000000" font-family="sans-serif" font-size="13" lengthAdjust="spacing" textLength="64" x="702.5" y="458.8936">POST /xxx</text><path d="M388,443.3984 L388,469.3984 L671,469.3984 L671,453.3984 L661,443.3984 L388,443.3984 " fill="#FEFFDD" style="stroke:#181818;stroke-width:0.5;"/><path d="M661,443.3984 L661,453.3984 L671,453.3984 L661,443.3984 " fill="#FEFFDD" style="stroke:#181818;stroke-width:0.5;"/><text fill="#000000" font-family="sans-serif" font-size="13" lengthAdjust="spacing" textLength="262" x="394" y="461.8936">Message if forwarded to schemeB unmodified</text><line style="stroke:#181818;stroke-width:1.0;" x1="677.5" x2="687.5" y1="497.1016" y2="493.1016"/><line style="stroke:#181818;stroke-width:1.0;" x1="677.5" x2="687.5" y1="497.1016" y2="501.1016"/><line style="stroke:#181818;stroke-width:1.0;stroke-dasharray:2.0,2.0;" x1="676.5" x2="782.5" y1="497.1016" y2="497.1016"/><text fill="#000000" font-family="sans-serif" font-size="13" font-weight="bold" lengthAdjust="spacing" textLength="15" x="693.5" y="492.2451">[7]</text><text fill="#000000" font-family="sans-serif" font-size="13" lengthAdjust="spacing" textLength="44" x="712.5" y="492.2451">202 OK</text><line style="stroke:#181818;stroke-width:1.0;" x1="339" x2="349" y1="527.4531" y2="523.4531"/><line style="stroke:#181818;stroke-width:1.0;" x1="339" x2="349" y1="527.4531" y2="531.4531"/><line style="stroke:#181818;stroke-width:1.0;stroke-dasharray:2.0,2.0;" x1="338" x2="675.5" y1="527.4531" y2="527.4531"/><text fill="#000000" font-family="sans-serif" font-size="13" font-weight="bold" lengthAdjust="spacing" textLength="15" x="355" y="522.5967">[8]</text><text fill="#000000" font-family="sans-serif" font-size="13" lengthAdjust="spacing" textLength="44" x="374" y="522.5967">202 OK</text><line style="stroke:#181818;stroke-width:1.0;" x1="1124.5" x2="1114.5" y1="557.8047" y2="553.8047"/><line style="stroke:#181818;stroke-width:1.0;" x1="1124.5" x2="1114.5" y1="557.8047" y2="561.8047"/><line style="stroke:#181818;stroke-width:1.0;" x1="783.5" x2="1125.5" y1="557.8047" y2="557.8047"/><text fill="#000000" font-family="sans-serif" font-size="13" font-weight="bold" lengthAdjust="spacing" textLength="15" x="790.5" y="552.9482">[9]</text><text fill="#000000" font-family="sans-serif" font-size="13" lengthAdjust="spacing" textLength="64" x="809.5" y="552.9482">POST /xxx</text><line style="stroke:#181818;stroke-width:1.0;" x1="784.5" x2="794.5" y1="588.1563" y2="584.1563"/><line style="stroke:#181818;stroke-width:1.0;" x1="784.5" x2="794.5" y1="588.1563" y2="592.1563"/><line style="stroke:#181818;stroke-width:1.0;stroke-dasharray:2.0,2.0;" x1="783.5" x2="1125.5" y1="588.1563" y2="588.1563"/><text fill="#000000" font-family="sans-serif" font-size="13" font-weight="bold" lengthAdjust="spacing" textLength="22" x="800.5" y="583.2998">[10]</text><text fill="#000000" font-family="sans-serif" font-size="13" lengthAdjust="spacing" textLength="104" x="826.5" y="583.2998">http 202 response</text><rect fill="#EEEEEE" height="3" style="stroke:#EEEEEE;stroke-width:1.0;" width="1300.5" x="0" y="617.332"/><line style="stroke:#000000;stroke-width:1.0;" x1="0" x2="1300.5" y1="617.332" y2="617.332"/><line style="stroke:#000000;stroke-width:1.0;" x1="0" x2="1300.5" y1="620.332" y2="620.332"/><rect fill="#EEEEEE" height="24.3516" style="stroke:#000000;stroke-width:2.0;" width="44" x="628.25" y="606.1563"/><text fill="#000000" font-family="sans-serif" font-size="13" font-weight="bold" lengthAdjust="spacing" textLength="26" x="634.25" y="623.6514">GET</text><polygon fill="#181818" points="326,675.2109,336,679.2109,326,683.2109,330,679.2109" style="stroke:#181818;stroke-width:1.0;"/><line style="stroke:#181818;stroke-width:1.0;" x1="180" x2="332" y1="679.2109" y2="679.2109"/><text fill="#000000" font-family="sans-serif" font-size="13" font-weight="bold" lengthAdjust="spacing" textLength="22" x="187" y="666.1787">[11]</text><text fill="#000000" font-family="sans-serif" font-size="13" lengthAdjust="spacing" textLength="79" x="213" y="658.0029">GET /xxx/{ID}</text><text fill="#000000" font-family="sans-serif" font-size="13" lengthAdjust="spacing" textLength="108" x="213" y="674.3545">without destination</text><path d="M40,650.6836 L40,676.6836 L175,676.6836 L175,660.6836 L165,650.6836 L40,650.6836 " fill="#FEFFDD" style="stroke:#181818;stroke-width:0.5;"/><path d="M165,650.6836 L165,660.6836 L175,660.6836 L165,650.6836 " fill="#FEFFDD" style="stroke:#181818;stroke-width:0.5;"/><text fill="#000000" font-family="sans-serif" font-size="13" lengthAdjust="spacing" textLength="114" x="46" y="669.1787">source: payerDFSP</text><line style="stroke:#181818;stroke-width:1.0;" x1="181" x2="191" y1="709.5625" y2="705.5625"/><line style="stroke:#181818;stroke-width:1.0;" x1="181" x2="191" y1="709.5625" y2="713.5625"/><line style="stroke:#181818;stroke-width:1.0;stroke-dasharray:2.0,2.0;" x1="180" x2="337" y1="709.5625" y2="709.5625"/><text fill="#000000" font-family="sans-serif" font-size="13" font-weight="bold" lengthAdjust="spacing" textLength="22" x="197" y="704.7061">[12]</text><text fill="#000000" font-family="sans-serif" font-size="13" lengthAdjust="spacing" textLength="104" x="223" y="704.7061">http 202 response</text><line style="stroke:#181818;stroke-width:1.0;" x1="338" x2="380" y1="739.9141" y2="739.9141"/><line style="stroke:#181818;stroke-width:1.0;" x1="380" x2="380" y1="739.9141" y2="752.9141"/><line style="stroke:#181818;stroke-width:1.0;" x1="339" x2="380" y1="752.9141" y2="752.9141"/><polygon fill="#181818" points="349,748.9141,339,752.9141,349,756.9141,345,752.9141" style="stroke:#181818;stroke-width:1.0;"/><text fill="#000000" font-family="sans-serif" font-size="13" font-weight="bold" lengthAdjust="spacing" textLength="22" x="345" y="735.0576">[13]</text><text fill="#000000" font-family="sans-serif" font-size="13" lengthAdjust="spacing" textLength="194" x="371" y="735.0576">lookup if ID result and triggers put</text><polygon fill="#181818" points="326,798.6172,336,802.6172,326,806.6172,330,802.6172" style="stroke:#181818;stroke-width:1.0;"/><line style="stroke:#181818;stroke-width:1.0;" x1="180" x2="332" y1="802.6172" y2="802.6172"/><text fill="#000000" font-family="sans-serif" font-size="13" font-weight="bold" lengthAdjust="spacing" textLength="22" x="187" y="789.585">[14]</text><text fill="#000000" font-family="sans-serif" font-size="13" lengthAdjust="spacing" textLength="79" x="213" y="781.4092">GET /xxx/{ID}</text><text fill="#000000" font-family="sans-serif" font-size="13" lengthAdjust="spacing" textLength="90" x="213" y="797.7607">with destination</text><path d="M13,765.9141 L13,807.9141 L175,807.9141 L175,775.9141 L165,765.9141 L13,765.9141 " fill="#FEFFDD" style="stroke:#181818;stroke-width:0.5;"/><path d="M165,765.9141 L165,775.9141 L175,775.9141 L165,765.9141 " fill="#FEFFDD" style="stroke:#181818;stroke-width:0.5;"/><text fill="#000000" font-family="sans-serif" font-size="13" lengthAdjust="spacing" textLength="114" x="19" y="784.4092">source: payerDFSP</text><text fill="#000000" font-family="sans-serif" font-size="13" lengthAdjust="spacing" textLength="141" x="19" y="800.7607">destination: payeeDFSP</text><line style="stroke:#181818;stroke-width:1.0;" x1="181" x2="191" y1="835.9688" y2="831.9688"/><line style="stroke:#181818;stroke-width:1.0;" x1="181" x2="191" y1="835.9688" y2="839.9688"/><line style="stroke:#181818;stroke-width:1.0;stroke-dasharray:2.0,2.0;" x1="180" x2="337" y1="835.9688" y2="835.9688"/><text fill="#000000" font-family="sans-serif" font-size="13" font-weight="bold" lengthAdjust="spacing" textLength="22" x="197" y="831.1123">[15]</text><text fill="#000000" font-family="sans-serif" font-size="13" lengthAdjust="spacing" textLength="104" x="223" y="831.1123">http 202 response</text><polygon fill="#181818" points="572,895.0234,582,899.0234,572,903.0234,576,899.0234" style="stroke:#181818;stroke-width:1.0;"/><line style="stroke:#181818;stroke-width:1.0;" x1="338" x2="578" y1="899.0234" y2="899.0234"/><text fill="#000000" font-family="sans-serif" font-size="13" font-weight="bold" lengthAdjust="spacing" textLength="22" x="345" y="877.8154">[16]</text><text fill="#000000" font-family="sans-serif" font-size="13" lengthAdjust="spacing" textLength="155" x="371" y="861.4639">Destination not in scheme:</text><text fill="#000000" font-family="sans-serif" font-size="13" lengthAdjust="spacing" textLength="192" x="375" y="877.8154">payeeDFSP has a proxy mapped</text><text fill="#000000" font-family="sans-serif" font-size="13" lengthAdjust="spacing" textLength="154" x="375" y="894.167">need to send to 'Proxy AB'</text><line style="stroke:#181818;stroke-width:1.0;" x1="674.5" x2="664.5" y1="929.375" y2="925.375"/><line style="stroke:#181818;stroke-width:1.0;" x1="674.5" x2="664.5" y1="929.375" y2="933.375"/><line style="stroke:#181818;stroke-width:1.0;" x1="338" x2="675.5" y1="929.375" y2="929.375"/><text fill="#000000" font-family="sans-serif" font-size="13" font-weight="bold" lengthAdjust="spacing" textLength="22" x="345" y="924.5186">[17]</text><text fill="#000000" font-family="sans-serif" font-size="13" lengthAdjust="spacing" textLength="55" x="371" y="924.5186">GET /xxx</text><line style="stroke:#181818;stroke-width:1.0;" x1="676.5" x2="718.5" y1="959.7266" y2="959.7266"/><line style="stroke:#181818;stroke-width:1.0;" x1="718.5" x2="718.5" y1="959.7266" y2="972.7266"/><line style="stroke:#181818;stroke-width:1.0;" x1="677.5" x2="718.5" y1="972.7266" y2="972.7266"/><polygon fill="#181818" points="687.5,968.7266,677.5,972.7266,687.5,976.7266,683.5,972.7266" style="stroke:#181818;stroke-width:1.0;"/><text fill="#000000" font-family="sans-serif" font-size="13" font-weight="bold" lengthAdjust="spacing" textLength="22" x="683.5" y="954.8701">[18]</text><text fill="#000000" font-family="sans-serif" font-size="13" lengthAdjust="spacing" textLength="66" x="709.5" y="954.8701">Add header</text><path d="M498,945.875 L498,971.875 L671,971.875 L671,955.875 L661,945.875 L498,945.875 " fill="#FEFFDD" style="stroke:#181818;stroke-width:0.5;"/><path d="M661,945.875 L661,955.875 L671,955.875 L661,945.875 " fill="#FEFFDD" style="stroke:#181818;stroke-width:0.5;"/><text fill="#000000" font-family="sans-serif" font-size="13" lengthAdjust="spacing" textLength="152" x="504" y="964.3701">fxpiop-proxy = "Proxy AB"</text><line style="stroke:#181818;stroke-width:1.0;" x1="781.5" x2="771.5" y1="1006.0781" y2="1002.0781"/><line style="stroke:#181818;stroke-width:1.0;" x1="781.5" x2="771.5" y1="1006.0781" y2="1010.0781"/><line style="stroke:#181818;stroke-width:1.0;" x1="676.5" x2="782.5" y1="1006.0781" y2="1006.0781"/><text fill="#000000" font-family="sans-serif" font-size="13" font-weight="bold" lengthAdjust="spacing" textLength="22" x="683.5" y="1001.2217">[19]</text><text fill="#000000" font-family="sans-serif" font-size="13" lengthAdjust="spacing" textLength="55" x="709.5" y="1001.2217">GET /xxx</text><path d="M388,985.7266 L388,1011.7266 L671,1011.7266 L671,995.7266 L661,985.7266 L388,985.7266 " fill="#FEFFDD" style="stroke:#181818;stroke-width:0.5;"/><path d="M661,985.7266 L661,995.7266 L671,995.7266 L661,985.7266 " fill="#FEFFDD" style="stroke:#181818;stroke-width:0.5;"/><text fill="#000000" font-family="sans-serif" font-size="13" lengthAdjust="spacing" textLength="262" x="394" y="1004.2217">Message if forwarded to schemeB unmodified</text><line style="stroke:#181818;stroke-width:1.0;" x1="677.5" x2="687.5" y1="1039.4297" y2="1035.4297"/><line style="stroke:#181818;stroke-width:1.0;" x1="677.5" x2="687.5" y1="1039.4297" y2="1043.4297"/><line style="stroke:#181818;stroke-width:1.0;stroke-dasharray:2.0,2.0;" x1="676.5" x2="782.5" y1="1039.4297" y2="1039.4297"/><text fill="#000000" font-family="sans-serif" font-size="13" font-weight="bold" lengthAdjust="spacing" textLength="22" x="693.5" y="1034.5732">[20]</text><text fill="#000000" font-family="sans-serif" font-size="13" lengthAdjust="spacing" textLength="44" x="719.5" y="1034.5732">202 OK</text><line style="stroke:#181818;stroke-width:1.0;" x1="339" x2="349" y1="1069.7813" y2="1065.7813"/><line style="stroke:#181818;stroke-width:1.0;" x1="339" x2="349" y1="1069.7813" y2="1073.7813"/><line style="stroke:#181818;stroke-width:1.0;stroke-dasharray:2.0,2.0;" x1="338" x2="675.5" y1="1069.7813" y2="1069.7813"/><text fill="#000000" font-family="sans-serif" font-size="13" font-weight="bold" lengthAdjust="spacing" textLength="22" x="355" y="1064.9248">[21]</text><text fill="#000000" font-family="sans-serif" font-size="13" lengthAdjust="spacing" textLength="44" x="381" y="1064.9248">202 OK</text><line style="stroke:#181818;stroke-width:1.0;" x1="1124.5" x2="1114.5" y1="1100.1328" y2="1096.1328"/><line style="stroke:#181818;stroke-width:1.0;" x1="1124.5" x2="1114.5" y1="1100.1328" y2="1104.1328"/><line style="stroke:#181818;stroke-width:1.0;" x1="783.5" x2="1125.5" y1="1100.1328" y2="1100.1328"/><text fill="#000000" font-family="sans-serif" font-size="13" font-weight="bold" lengthAdjust="spacing" textLength="22" x="790.5" y="1095.2764">[22]</text><text fill="#000000" font-family="sans-serif" font-size="13" lengthAdjust="spacing" textLength="55" x="816.5" y="1095.2764">GET /xxx</text><line style="stroke:#181818;stroke-width:1.0;" x1="784.5" x2="794.5" y1="1130.4844" y2="1126.4844"/><line style="stroke:#181818;stroke-width:1.0;" x1="784.5" x2="794.5" y1="1130.4844" y2="1134.4844"/><line style="stroke:#181818;stroke-width:1.0;stroke-dasharray:2.0,2.0;" x1="783.5" x2="1125.5" y1="1130.4844" y2="1130.4844"/><text fill="#000000" font-family="sans-serif" font-size="13" font-weight="bold" lengthAdjust="spacing" textLength="22" x="800.5" y="1125.6279">[23]</text><text fill="#000000" font-family="sans-serif" font-size="13" lengthAdjust="spacing" textLength="104" x="826.5" y="1125.6279">http 202 response</text><rect fill="#EEEEEE" height="3" style="stroke:#EEEEEE;stroke-width:1.0;" width="1300.5" x="0" y="1159.6602"/><line style="stroke:#000000;stroke-width:1.0;" x1="0" x2="1300.5" y1="1159.6602" y2="1159.6602"/><line style="stroke:#000000;stroke-width:1.0;" x1="0" x2="1300.5" y1="1162.6602" y2="1162.6602"/><rect fill="#EEEEEE" height="24.3516" style="stroke:#000000;stroke-width:2.0;" width="44" x="628.25" y="1148.4844"/><text fill="#000000" font-family="sans-serif" font-size="13" font-weight="bold" lengthAdjust="spacing" textLength="26" x="634.25" y="1165.9795">PUT</text><polygon fill="#181818" points="794.5,1212.3633,784.5,1216.3633,794.5,1220.3633,790.5,1216.3633" style="stroke:#181818;stroke-width:1.0;"/><line style="stroke:#181818;stroke-width:1.0;" x1="788.5" x2="1125.5" y1="1216.3633" y2="1216.3633"/><text fill="#000000" font-family="sans-serif" font-size="13" font-weight="bold" lengthAdjust="spacing" textLength="22" x="800.5" y="1211.5068">[24]</text><text fill="#000000" font-family="sans-serif" font-size="13" lengthAdjust="spacing" textLength="54" x="826.5" y="1211.5068">PUT /xxx</text><path d="M1131,1187.8359 L1131,1229.8359 L1290,1229.8359 L1290,1197.8359 L1280,1187.8359 L1131,1187.8359 " fill="#FEFFDD" style="stroke:#181818;stroke-width:0.5;"/><path d="M1280,1187.8359 L1280,1197.8359 L1290,1197.8359 L1280,1187.8359 " fill="#FEFFDD" style="stroke:#181818;stroke-width:0.5;"/><text fill="#000000" font-family="sans-serif" font-size="13" lengthAdjust="spacing" textLength="117" x="1137" y="1206.3311">source: payeeDFSP</text><text fill="#000000" font-family="sans-serif" font-size="13" lengthAdjust="spacing" textLength="138" x="1137" y="1222.6826">destination: payerDFSP</text><line style="stroke:#181818;stroke-width:1.0;" x1="1124.5" x2="1114.5" y1="1257.8906" y2="1253.8906"/><line style="stroke:#181818;stroke-width:1.0;" x1="1124.5" x2="1114.5" y1="1257.8906" y2="1261.8906"/><line style="stroke:#181818;stroke-width:1.0;stroke-dasharray:2.0,2.0;" x1="783.5" x2="1125.5" y1="1257.8906" y2="1257.8906"/><text fill="#000000" font-family="sans-serif" font-size="13" font-weight="bold" lengthAdjust="spacing" textLength="22" x="790.5" y="1253.0342">[25]</text><text fill="#000000" font-family="sans-serif" font-size="13" lengthAdjust="spacing" textLength="104" x="816.5" y="1253.0342">http 200 response</text><polygon fill="#181818" points="1014.5,1316.9453,1024.5,1320.9453,1014.5,1324.9453,1018.5,1320.9453" style="stroke:#181818;stroke-width:1.0;"/><line style="stroke:#181818;stroke-width:1.0;" x1="783.5" x2="1020.5" y1="1320.9453" y2="1320.9453"/><text fill="#000000" font-family="sans-serif" font-size="13" font-weight="bold" lengthAdjust="spacing" textLength="22" x="790.5" y="1299.7373">[26]</text><text fill="#000000" font-family="sans-serif" font-size="13" lengthAdjust="spacing" textLength="155" x="816.5" y="1283.3857">Destination not in scheme:</text><text fill="#000000" font-family="sans-serif" font-size="13" lengthAdjust="spacing" textLength="189" x="820.5" y="1299.7373">payerDFSP has a proxy mapped</text><text fill="#000000" font-family="sans-serif" font-size="13" lengthAdjust="spacing" textLength="154" x="820.5" y="1316.0889">need to send to 'Proxy AB'</text><polygon fill="#181818" points="687.5,1347.2969,677.5,1351.2969,687.5,1355.2969,683.5,1351.2969" style="stroke:#181818;stroke-width:1.0;"/><line style="stroke:#181818;stroke-width:1.0;" x1="681.5" x2="782.5" y1="1351.2969" y2="1351.2969"/><text fill="#000000" font-family="sans-serif" font-size="13" font-weight="bold" lengthAdjust="spacing" textLength="22" x="693.5" y="1346.4404">[27]</text><text fill="#000000" font-family="sans-serif" font-size="13" lengthAdjust="spacing" textLength="54" x="719.5" y="1346.4404">PUT /xxx</text><line style="stroke:#181818;stroke-width:1.0;" x1="676.5" x2="718.5" y1="1381.6484" y2="1381.6484"/><line style="stroke:#181818;stroke-width:1.0;" x1="718.5" x2="718.5" y1="1381.6484" y2="1394.6484"/><line style="stroke:#181818;stroke-width:1.0;" x1="677.5" x2="718.5" y1="1394.6484" y2="1394.6484"/><polygon fill="#181818" points="687.5,1390.6484,677.5,1394.6484,687.5,1398.6484,683.5,1394.6484" style="stroke:#181818;stroke-width:1.0;"/><text fill="#000000" font-family="sans-serif" font-size="13" font-weight="bold" lengthAdjust="spacing" textLength="22" x="683.5" y="1376.792">[28]</text><text fill="#000000" font-family="sans-serif" font-size="13" lengthAdjust="spacing" textLength="66" x="709.5" y="1376.792">Add header</text><path d="M498,1367.7969 L498,1393.7969 L671,1393.7969 L671,1377.7969 L661,1367.7969 L498,1367.7969 " fill="#FEFFDD" style="stroke:#181818;stroke-width:0.5;"/><path d="M661,1367.7969 L661,1377.7969 L671,1377.7969 L661,1367.7969 " fill="#FEFFDD" style="stroke:#181818;stroke-width:0.5;"/><text fill="#000000" font-family="sans-serif" font-size="13" lengthAdjust="spacing" textLength="152" x="504" y="1386.292">fxpiop-proxy = "Proxy AB"</text><polygon fill="#181818" points="349,1424,339,1428,349,1432,345,1428" style="stroke:#181818;stroke-width:1.0;"/><line style="stroke:#181818;stroke-width:1.0;" x1="343" x2="675.5" y1="1428" y2="1428"/><text fill="#000000" font-family="sans-serif" font-size="13" font-weight="bold" lengthAdjust="spacing" textLength="22" x="355" y="1423.1436">[29]</text><text fill="#000000" font-family="sans-serif" font-size="13" lengthAdjust="spacing" textLength="54" x="381" y="1423.1436">PUT /xxx</text><path d="M681,1407.6484 L681,1433.6484 L964,1433.6484 L964,1417.6484 L954,1407.6484 L681,1407.6484 " fill="#FEFFDD" style="stroke:#181818;stroke-width:0.5;"/><path d="M954,1407.6484 L954,1417.6484 L964,1417.6484 L954,1407.6484 " fill="#FEFFDD" style="stroke:#181818;stroke-width:0.5;"/><text fill="#000000" font-family="sans-serif" font-size="13" lengthAdjust="spacing" textLength="262" x="687" y="1426.1436">Message if forwarded to schemeA unmodified</text><line style="stroke:#181818;stroke-width:1.0;" x1="674.5" x2="664.5" y1="1461.3516" y2="1457.3516"/><line style="stroke:#181818;stroke-width:1.0;" x1="674.5" x2="664.5" y1="1461.3516" y2="1465.3516"/><line style="stroke:#181818;stroke-width:1.0;stroke-dasharray:2.0,2.0;" x1="338" x2="675.5" y1="1461.3516" y2="1461.3516"/><text fill="#000000" font-family="sans-serif" font-size="13" font-weight="bold" lengthAdjust="spacing" textLength="22" x="345" y="1456.4951">[30]</text><text fill="#000000" font-family="sans-serif" font-size="13" lengthAdjust="spacing" textLength="44" x="371" y="1456.4951">200 OK</text><line style="stroke:#181818;stroke-width:1.0;" x1="781.5" x2="771.5" y1="1491.7031" y2="1487.7031"/><line style="stroke:#181818;stroke-width:1.0;" x1="781.5" x2="771.5" y1="1491.7031" y2="1495.7031"/><line style="stroke:#181818;stroke-width:1.0;stroke-dasharray:2.0,2.0;" x1="676.5" x2="782.5" y1="1491.7031" y2="1491.7031"/><text fill="#000000" font-family="sans-serif" font-size="13" font-weight="bold" lengthAdjust="spacing" textLength="22" x="683.5" y="1486.8467">[31]</text><text fill="#000000" font-family="sans-serif" font-size="13" lengthAdjust="spacing" textLength="44" x="709.5" y="1486.8467">200 OK</text><polygon fill="#181818" points="191,1518.0547,181,1522.0547,191,1526.0547,187,1522.0547" style="stroke:#181818;stroke-width:1.0;"/><line style="stroke:#181818;stroke-width:1.0;" x1="185" x2="337" y1="1522.0547" y2="1522.0547"/><text fill="#000000" font-family="sans-serif" font-size="13" font-weight="bold" lengthAdjust="spacing" textLength="22" x="197" y="1517.1982">[32]</text><text fill="#000000" font-family="sans-serif" font-size="13" lengthAdjust="spacing" textLength="54" x="223" y="1517.1982">PUT /xxx</text><line style="stroke:#181818;stroke-width:1.0;" x1="336" x2="326" y1="1552.4063" y2="1548.4063"/><line style="stroke:#181818;stroke-width:1.0;" x1="336" x2="326" y1="1552.4063" y2="1556.4063"/><line style="stroke:#181818;stroke-width:1.0;stroke-dasharray:2.0,2.0;" x1="180" x2="337" y1="1552.4063" y2="1552.4063"/><text fill="#000000" font-family="sans-serif" font-size="13" font-weight="bold" lengthAdjust="spacing" textLength="22" x="187" y="1547.5498">[33]</text><text fill="#000000" font-family="sans-serif" font-size="13" lengthAdjust="spacing" textLength="104" x="213" y="1547.5498">http 200 response</text><!--SRC=[lLLHRzem47xthpZHXpwX0jrJD28bO-lGDXMfvMbCay47M0ksvJXgqDJ_FZi1nuoqWtKTByY-ytsVl_lECTna26DXKEUBDMuGkd230ZNDO4ADtHQ4AAeDNt15XO7EX6vHm-Z3tQG3D0Vbbcv5vhA4pbrT9Ed0nMU-MfiqAv20_HtK-4W5or3FH9DkIzK4akFqYPRb5jvH6__jY5fyJmWA1XQSj9n9qYgj5Eg0djszO7tiBQx_p2qDkAMdSKlttD8dk5dDq4de5SHAGK8B8qMncLk1-z1vEu-_zhvr21aEON9xTm_38V5oGpUEzuf5TVYgB4iYf478S6d86Yb3RHddij0BZ89M0J3C3HVKS2cYWC5SiYs1d-DH1Ft1zPl7YhyhINPGNGlhwqImDaR1e3S0ZRcI8lTvbbxLd0X63PAh15piQ4SpqI33sYf1GLLgRgXIo6nO838m4d97m_vVxhjw6U34hhsX17RPZQkzX37mCW0qshZLibHSgcuDEGmSKqNznMsXGEkqNUilcETqXS2Ni9JwWMgs8ruVWa9i9EDBZgnHrA6GVKBNtyEfUVkfXZteyIxG7B51hrz8os-wyvxsSQkShsxU7zcgGNH1L_7A6k8HPkA1cxKiJ6WU4cfwRBIpxUCJOyyYa_97ePoquv5BB383rFb1yzNAFbkW2aFEkC4Pz9-Sax- -r_-VYxq4hpqM7kTbK_7l1i8JEdaUwfTsMaq4QOurZdBJFmslgTqthX8cD0_kpDDYdzQnIFVsmGFxz8xia-xiavvW7_q2-rGuzQiwVKNt1D-l5bMVTq_oZ7kI0_VqMjoJ-i31O3OJx0dvlSOyILk7VW40]--></g></svg>