<?xml version="1.0" encoding="us-ascii" standalone="no"?><svg xmlns="http://www.w3.org/2000/svg" xmlns:xlink="http://www.w3.org/1999/xlink" contentStyleType="text/css" height="1386px" preserveAspectRatio="none" style="width:1715px;height:1386px;background:#FFFFFF;" version="1.1" viewBox="0 0 1715 1386" width="1715px" zoomAndPan="magnify"><defs/><g><text fill="#000000" font-family="sans-serif" font-size="14" font-weight="bold" lengthAdjust="spacing" textLength="190" x="764.25" y="29.5332">Stale Party Identifier Cache</text><rect fill="#ADD8E6" height="1335.5" style="stroke:#181818;stroke-width:0.5;" width="432" x="333" y="44.6094"/><text fill="#000000" font-family="sans-serif" font-size="13" font-weight="bold" lengthAdjust="spacing" textLength="65" x="516.5" y="58.1045">Scheme A</text><rect fill="#D1E0C3" height="1335.5" style="stroke:#181818;stroke-width:0.5;" width="380" x="950.5" y="44.6094"/><text fill="#000000" font-family="sans-serif" font-size="13" font-weight="bold" lengthAdjust="spacing" textLength="65" x="1108" y="58.1045">Scheme B</text><rect fill="none" height="177.1094" style="stroke:#000000;stroke-width:1.5;" width="555" x="216" y="302.9375"/><rect fill="none" height="61.7031" style="stroke:#000000;stroke-width:1.5;" width="228" x="1222.5" y="661.1563"/><rect fill="none" height="85.0547" style="stroke:#000000;stroke-width:1.5;" width="765" x="944.5" y="840.9141"/><rect fill="none" height="235.5156" style="stroke:#000000;stroke-width:1.5;" width="527" x="140" y="1074.375"/><line style="stroke:#181818;stroke-width:0.5;stroke-dasharray:5.0,5.0;" x1="196" x2="196" y1="115.1797" y2="1326.8906"/><line style="stroke:#181818;stroke-width:0.5;stroke-dasharray:5.0,5.0;" x1="376" x2="376" y1="115.1797" y2="1326.8906"/><line style="stroke:#181818;stroke-width:0.5;stroke-dasharray:5.0,5.0;" x1="618" x2="618" y1="115.1797" y2="1326.8906"/><line style="stroke:#181818;stroke-width:0.5;stroke-dasharray:5.0,5.0;" x1="714" x2="714" y1="115.1797" y2="1326.8906"/><line style="stroke:#181818;stroke-width:0.5;stroke-dasharray:5.0,5.0;" x1="806" x2="806" y1="115.1797" y2="1326.8906"/><line style="stroke:#181818;stroke-width:0.5;stroke-dasharray:5.0,5.0;" x1="993.5" x2="993.5" y1="115.1797" y2="1326.8906"/><line style="stroke:#181818;stroke-width:0.5;stroke-dasharray:5.0,5.0;" x1="1161.5" x2="1161.5" y1="115.1797" y2="1326.8906"/><line style="stroke:#181818;stroke-width:0.5;stroke-dasharray:5.0,5.0;" x1="1279.5" x2="1279.5" y1="115.1797" y2="1326.8906"/><line style="stroke:#181818;stroke-width:0.5;stroke-dasharray:5.0,5.0;" x1="1476.5" x2="1476.5" y1="115.1797" y2="1326.8906"/><rect fill="#E2E2F0" height="31.6094" rx="2.5" ry="2.5" style="stroke:#181818;stroke-width:0.5;" width="92" x="150" y="82.5703"/><text fill="#000000" font-family="sans-serif" font-size="14" lengthAdjust="spacing" textLength="78" x="157" y="104.1035">Payer DFSP</text><rect fill="#E2E2F0" height="31.6094" rx="2.5" ry="2.5" style="stroke:#181818;stroke-width:0.5;" width="92" x="150" y="1325.8906"/><text fill="#000000" font-family="sans-serif" font-size="14" lengthAdjust="spacing" textLength="78" x="157" y="1347.4238">Payer DFSP</text><rect fill="#E2E2F0" height="49.2188" rx="2.5" ry="2.5" style="stroke:#181818;stroke-width:0.5;" width="78" x="337" y="64.9609"/><text fill="#000000" font-family="sans-serif" font-size="14" lengthAdjust="spacing" textLength="26" x="363" y="86.4941">ALS</text><text fill="#000000" font-family="sans-serif" font-size="14" lengthAdjust="spacing" textLength="64" x="344" y="104.1035">Scheme A</text><rect fill="#E2E2F0" height="49.2188" rx="2.5" ry="2.5" style="stroke:#181818;stroke-width:0.5;" width="78" x="337" y="1325.8906"/><text fill="#000000" font-family="sans-serif" font-size="14" lengthAdjust="spacing" textLength="26" x="363" y="1347.4238">ALS</text><text fill="#000000" font-family="sans-serif" font-size="14" lengthAdjust="spacing" textLength="64" x="344" y="1365.0332">Scheme A</text><rect fill="#E2E2F0" height="49.2188" rx="2.5" ry="2.5" style="stroke:#181818;stroke-width:0.5;" width="78" x="579" y="64.9609"/><text fill="#000000" font-family="sans-serif" font-size="14" lengthAdjust="spacing" textLength="42" x="597" y="86.4941">Oracle</text><text fill="#000000" font-family="sans-serif" font-size="14" lengthAdjust="spacing" textLength="64" x="586" y="104.1035">Scheme A</text><rect fill="#E2E2F0" height="49.2188" rx="2.5" ry="2.5" style="stroke:#181818;stroke-width:0.5;" width="78" x="579" y="1325.8906"/><text fill="#000000" font-family="sans-serif" font-size="14" lengthAdjust="spacing" textLength="42" x="597" y="1347.4238">Oracle</text><text fill="#000000" font-family="sans-serif" font-size="14" lengthAdjust="spacing" textLength="64" x="586" y="1365.0332">Scheme A</text><rect fill="#E2E2F0" height="49.2188" rx="2.5" ry="2.5" style="stroke:#181818;stroke-width:0.5;" width="94" x="667" y="64.9609"/><text fill="#000000" font-family="sans-serif" font-size="14" lengthAdjust="spacing" textLength="80" x="674" y="86.4941">Proxy Cache</text><text fill="#000000" font-family="sans-serif" font-size="14" lengthAdjust="spacing" textLength="64" x="682" y="104.1035">Scheme A</text><rect fill="#E2E2F0" height="49.2188" rx="2.5" ry="2.5" style="stroke:#181818;stroke-width:0.5;" width="94" x="667" y="1325.8906"/><text fill="#000000" font-family="sans-serif" font-size="14" lengthAdjust="spacing" textLength="80" x="674" y="1347.4238">Proxy Cache</text><text fill="#000000" font-family="sans-serif" font-size="14" lengthAdjust="spacing" textLength="64" x="682" y="1365.0332">Scheme A</text><rect fill="#E2E2F0" height="31.6094" rx="2.5" ry="2.5" style="stroke:#181818;stroke-width:0.5;" width="71" x="771" y="82.5703"/><text fill="#000000" font-family="sans-serif" font-size="14" lengthAdjust="spacing" textLength="57" x="778" y="104.1035">Proxy AB</text><rect fill="#E2E2F0" height="31.6094" rx="2.5" ry="2.5" style="stroke:#181818;stroke-width:0.5;" width="71" x="771" y="1325.8906"/><text fill="#000000" font-family="sans-serif" font-size="14" lengthAdjust="spacing" textLength="57" x="778" y="1347.4238">Proxy AB</text><rect fill="#E2E2F0" height="49.2188" rx="2.5" ry="2.5" style="stroke:#181818;stroke-width:0.5;" width="78" x="954.5" y="64.9609"/><text fill="#000000" font-family="sans-serif" font-size="14" lengthAdjust="spacing" textLength="26" x="980.5" y="86.4941">ALS</text><text fill="#000000" font-family="sans-serif" font-size="14" lengthAdjust="spacing" textLength="64" x="961.5" y="104.1035">Scheme B</text><rect fill="#E2E2F0" height="49.2188" rx="2.5" ry="2.5" style="stroke:#181818;stroke-width:0.5;" width="78" x="954.5" y="1325.8906"/><text fill="#000000" font-family="sans-serif" font-size="14" lengthAdjust="spacing" textLength="26" x="980.5" y="1347.4238">ALS</text><text fill="#000000" font-family="sans-serif" font-size="14" lengthAdjust="spacing" textLength="64" x="961.5" y="1365.0332">Scheme B</text><rect fill="#E2E2F0" height="49.2188" rx="2.5" ry="2.5" style="stroke:#181818;stroke-width:0.5;" width="78" x="1122.5" y="64.9609"/><text fill="#000000" font-family="sans-serif" font-size="14" lengthAdjust="spacing" textLength="42" x="1140.5" y="86.4941">Oracle</text><text fill="#000000" font-family="sans-serif" font-size="14" lengthAdjust="spacing" textLength="64" x="1129.5" y="104.1035">Scheme A</text><rect fill="#E2E2F0" height="49.2188" rx="2.5" ry="2.5" style="stroke:#181818;stroke-width:0.5;" width="78" x="1122.5" y="1325.8906"/><text fill="#000000" font-family="sans-serif" font-size="14" lengthAdjust="spacing" textLength="42" x="1140.5" y="1347.4238">Oracle</text><text fill="#000000" font-family="sans-serif" font-size="14" lengthAdjust="spacing" textLength="64" x="1129.5" y="1365.0332">Scheme A</text><rect fill="#E2E2F0" height="49.2188" rx="2.5" ry="2.5" style="stroke:#181818;stroke-width:0.5;" width="94" x="1232.5" y="64.9609"/><text fill="#000000" font-family="sans-serif" font-size="14" lengthAdjust="spacing" textLength="80" x="1239.5" y="86.4941">Proxy Cache</text><text fill="#000000" font-family="sans-serif" font-size="14" lengthAdjust="spacing" textLength="64" x="1247.5" y="104.1035">Scheme B</text><rect fill="#E2E2F0" height="49.2188" rx="2.5" ry="2.5" style="stroke:#181818;stroke-width:0.5;" width="94" x="1232.5" y="1325.8906"/><text fill="#000000" font-family="sans-serif" font-size="14" lengthAdjust="spacing" textLength="80" x="1239.5" y="1347.4238">Proxy Cache</text><text fill="#000000" font-family="sans-serif" font-size="14" lengthAdjust="spacing" textLength="64" x="1247.5" y="1365.0332">Scheme B</text><rect fill="#E2E2F0" height="31.6094" rx="2.5" ry="2.5" style="stroke:#181818;stroke-width:0.5;" width="86" x="1433.5" y="82.5703"/><text fill="#000000" font-family="sans-serif" font-size="14" lengthAdjust="spacing" textLength="72" x="1440.5" y="104.1035">Payee DFS</text><rect fill="#E2E2F0" height="31.6094" rx="2.5" ry="2.5" style="stroke:#181818;stroke-width:0.5;" width="86" x="1433.5" y="1325.8906"/><text fill="#000000" font-family="sans-serif" font-size="14" lengthAdjust="spacing" textLength="72" x="1440.5" y="1347.4238">Payee DFS</text><line style="stroke:#181818;stroke-width:1.0;" x1="374" x2="364" y1="150.5313" y2="146.5313"/><line style="stroke:#181818;stroke-width:1.0;" x1="374" x2="364" y1="150.5313" y2="154.5313"/><line style="stroke:#181818;stroke-width:1.0;" x1="196" x2="375" y1="150.5313" y2="150.5313"/><text fill="#000000" font-family="sans-serif" font-size="13" font-weight="bold" lengthAdjust="spacing" textLength="15" x="203" y="145.6748">[1]</text><text fill="#000000" font-family="sans-serif" font-size="13" font-weight="bold" lengthAdjust="spacing" textLength="26" x="222" y="145.6748">GET</text><text fill="#000000" font-family="sans-serif" font-size="13" lengthAdjust="spacing" textLength="107" x="252" y="145.6748">/parties/{Type}/{ID}</text><path d="M5,130.1797 L5,156.1797 L191,156.1797 L191,140.1797 L181,130.1797 L5,130.1797 " fill="#FEFFDD" style="stroke:#181818;stroke-width:0.5;"/><path d="M181,130.1797 L181,140.1797 L191,140.1797 L181,130.1797 " fill="#FEFFDD" style="stroke:#181818;stroke-width:0.5;"/><text fill="#000000" font-family="sans-serif" font-size="13" lengthAdjust="spacing" textLength="165" x="11" y="148.6748">header source = payerDFSP</text><polygon fill="#181818" points="606,179.8828,616,183.8828,606,187.8828,610,183.8828" style="stroke:#181818;stroke-width:1.0;"/><line style="stroke:#181818;stroke-width:1.0;" x1="376" x2="612" y1="183.8828" y2="183.8828"/><text fill="#000000" font-family="sans-serif" font-size="13" font-weight="bold" lengthAdjust="spacing" textLength="15" x="383" y="179.0264">[2]</text><text fill="#000000" font-family="sans-serif" font-size="13" font-weight="bold" lengthAdjust="spacing" textLength="26" x="402" y="179.0264">GET</text><text fill="#000000" font-family="sans-serif" font-size="13" lengthAdjust="spacing" textLength="88" x="432" y="179.0264">/participant/{ID}</text><polygon fill="#181818" points="387,210.2344,377,214.2344,387,218.2344,383,214.2344" style="stroke:#181818;stroke-width:1.0;"/><line style="stroke:#181818;stroke-width:1.0;stroke-dasharray:2.0,2.0;" x1="381" x2="617" y1="214.2344" y2="214.2344"/><text fill="#000000" font-family="sans-serif" font-size="13" font-weight="bold" lengthAdjust="spacing" textLength="15" x="393" y="209.3779">[3]</text><text fill="#000000" font-family="sans-serif" font-size="13" lengthAdjust="spacing" textLength="156" x="412" y="209.3779">found DFSP = payeeDFSP</text><line style="stroke:#181818;stroke-width:1.0;" x1="376" x2="418" y1="244.5859" y2="244.5859"/><line style="stroke:#181818;stroke-width:1.0;" x1="418" x2="418" y1="244.5859" y2="257.5859"/><line style="stroke:#181818;stroke-width:1.0;" x1="377" x2="418" y1="257.5859" y2="257.5859"/><line style="stroke:#181818;stroke-width:1.0;" x1="377" x2="387" y1="257.5859" y2="253.5859"/><line style="stroke:#181818;stroke-width:1.0;" x1="377" x2="387" y1="257.5859" y2="261.5859"/><text fill="#000000" font-family="sans-serif" font-size="13" font-weight="bold" lengthAdjust="spacing" textLength="15" x="383" y="239.7295">[4]</text><text fill="#000000" font-family="sans-serif" font-size="13" lengthAdjust="spacing" textLength="121" x="402" y="239.7295">DFSP not in scheme</text><polygon fill="#181818" points="702,283.9375,712,287.9375,702,291.9375,706,287.9375" style="stroke:#181818;stroke-width:1.0;"/><line style="stroke:#181818;stroke-width:1.0;" x1="376" x2="708" y1="287.9375" y2="287.9375"/><text fill="#000000" font-family="sans-serif" font-size="13" font-weight="bold" lengthAdjust="spacing" textLength="15" x="383" y="283.0811">[5]</text><text fill="#000000" font-family="sans-serif" font-size="13" lengthAdjust="spacing" textLength="171" x="402" y="283.0811">Who is payee DFSP's proxy?</text><path d="M216,302.9375 L277,302.9375 L277,311.2891 L267,321.2891 L216,321.2891 L216,302.9375 " fill="#EEEEEE" style="stroke:#000000;stroke-width:1.5;"/><rect fill="none" height="177.1094" style="stroke:#000000;stroke-width:1.5;" width="555" x="216" y="302.9375"/><text fill="#000000" font-family="sans-serif" font-size="13" font-weight="bold" lengthAdjust="spacing" textLength="16" x="231" y="317.4326">alt</text><text fill="#000000" font-family="sans-serif" font-size="11" font-weight="bold" lengthAdjust="spacing" textLength="180" x="292" y="316.3564">[proxy representative not found]</text><polygon fill="#181818" points="387,339.6406,377,343.6406,387,347.6406,383,343.6406" style="stroke:#181818;stroke-width:1.0;"/><line style="stroke:#181818;stroke-width:1.0;stroke-dasharray:2.0,2.0;" x1="381" x2="713" y1="343.6406" y2="343.6406"/><text fill="#000000" font-family="sans-serif" font-size="13" font-weight="bold" lengthAdjust="spacing" textLength="15" x="393" y="338.7842">[6]</text><text fill="#000000" font-family="sans-serif" font-size="13" lengthAdjust="spacing" textLength="91" x="412" y="338.7842">Proxy not found</text><polygon fill="#181818" points="606,389.3438,616,393.3438,606,397.3438,610,393.3438" style="stroke:#181818;stroke-width:1.0;"/><line style="stroke:#181818;stroke-width:1.0;" x1="376" x2="612" y1="393.3438" y2="393.3438"/><text fill="#000000" font-family="sans-serif" font-size="13" font-weight="bold" lengthAdjust="spacing" textLength="15" x="383" y="380.3115">[7]</text><text fill="#000000" font-family="sans-serif" font-size="13" lengthAdjust="spacing" textLength="155" x="402" y="372.1357">Remove mapping in Oracle</text><text fill="#000000" font-family="sans-serif" font-size="13" lengthAdjust="spacing" textLength="4" x="402" y="388.4873">&#160;</text><text fill="#000000" font-family="sans-serif" font-size="13" font-weight="bold" lengthAdjust="spacing" textLength="49" x="406" y="388.4873">DELETE</text><text fill="#000000" font-family="sans-serif" font-size="13" lengthAdjust="spacing" textLength="135" x="459" y="388.4873">\participants\{Type}\{ID}</text><path d="M226,356.6406 L226,398.6406 L371,398.6406 L371,366.6406 L361,356.6406 L226,356.6406 " fill="#FEFFDD" style="stroke:#181818;stroke-width:0.5;"/><path d="M361,356.6406 L361,366.6406 L371,366.6406 L361,356.6406 " fill="#FEFFDD" style="stroke:#181818;stroke-width:0.5;"/><text fill="#000000" font-family="sans-serif" font-size="13" font-weight="bold" lengthAdjust="spacing" textLength="57" x="232" y="375.1357">Self heal</text><text fill="#000000" font-family="sans-serif" font-size="13" lengthAdjust="spacing" textLength="42" x="293" y="375.1357">if proxy</text><text fill="#000000" font-family="sans-serif" font-size="13" lengthAdjust="spacing" textLength="124" x="232" y="391.4873">reference is not found</text><line style="stroke:#181818;stroke-width:1.0;" x1="376" x2="418" y1="426.6953" y2="426.6953"/><line style="stroke:#181818;stroke-width:1.0;" x1="418" x2="418" y1="426.6953" y2="439.6953"/><line style="stroke:#181818;stroke-width:1.0;" x1="377" x2="418" y1="439.6953" y2="439.6953"/><line style="stroke:#181818;stroke-width:1.0;" x1="377" x2="387" y1="439.6953" y2="435.6953"/><line style="stroke:#181818;stroke-width:1.0;" x1="377" x2="387" y1="439.6953" y2="443.6953"/><text fill="#000000" font-family="sans-serif" font-size="13" font-weight="bold" lengthAdjust="spacing" textLength="15" x="383" y="421.8389">[8]</text><text fill="#000000" font-family="sans-serif" font-size="13" lengthAdjust="spacing" textLength="208" x="402" y="421.8389">Restart the ALS get parties process</text><line style="stroke:#000000;stroke-width:1.0;stroke-dasharray:2.0,2.0;" x1="216" x2="771" y1="448.6953" y2="448.6953"/><polygon fill="#181818" points="387,468.0469,377,472.0469,387,476.0469,383,472.0469" style="stroke:#181818;stroke-width:1.0;"/><line style="stroke:#181818;stroke-width:1.0;stroke-dasharray:2.0,2.0;" x1="381" x2="713" y1="472.0469" y2="472.0469"/><text fill="#000000" font-family="sans-serif" font-size="13" font-weight="bold" lengthAdjust="spacing" textLength="15" x="393" y="467.1904">[9]</text><text fill="#000000" font-family="sans-serif" font-size="13" lengthAdjust="spacing" textLength="116" x="412" y="467.1904">forward to Proxy AB</text><line style="stroke:#181818;stroke-width:1.0;" x1="804.5" x2="794.5" y1="509.3984" y2="505.3984"/><line style="stroke:#181818;stroke-width:1.0;" x1="804.5" x2="794.5" y1="509.3984" y2="513.3984"/><line style="stroke:#181818;stroke-width:1.0;" x1="376" x2="805.5" y1="509.3984" y2="509.3984"/><text fill="#000000" font-family="sans-serif" font-size="13" font-weight="bold" lengthAdjust="spacing" textLength="22" x="383" y="504.542">[10]</text><text fill="#000000" font-family="sans-serif" font-size="13" font-weight="bold" lengthAdjust="spacing" textLength="26" x="409" y="504.542">GET</text><text fill="#000000" font-family="sans-serif" font-size="13" lengthAdjust="spacing" textLength="107" x="439" y="504.542">/parties/{Type}/{ID}</text><line style="stroke:#181818;stroke-width:1.0;" x1="806.5" x2="848.5" y1="539.75" y2="539.75"/><line style="stroke:#181818;stroke-width:1.0;" x1="848.5" x2="848.5" y1="539.75" y2="552.75"/><line style="stroke:#181818;stroke-width:1.0;" x1="807.5" x2="848.5" y1="552.75" y2="552.75"/><polygon fill="#181818" points="817.5,548.75,807.5,552.75,817.5,556.75,813.5,552.75" style="stroke:#181818;stroke-width:1.0;"/><text fill="#000000" font-family="sans-serif" font-size="13" font-weight="bold" lengthAdjust="spacing" textLength="22" x="813.5" y="534.8936">[11]</text><text fill="#000000" font-family="sans-serif" font-size="13" lengthAdjust="spacing" textLength="66" x="839.5" y="534.8936">Add header</text><path d="M628,525.8984 L628,551.8984 L801,551.8984 L801,535.8984 L791,525.8984 L628,525.8984 " fill="#FEFFDD" style="stroke:#181818;stroke-width:0.5;"/><path d="M791,525.8984 L791,535.8984 L801,535.8984 L791,525.8984 " fill="#FEFFDD" style="stroke:#181818;stroke-width:0.5;"/><text fill="#000000" font-family="sans-serif" font-size="13" lengthAdjust="spacing" textLength="152" x="634" y="544.3936">fxpiop-proxy = "Proxy AB"</text><line style="stroke:#181818;stroke-width:1.0;" x1="991.5" x2="981.5" y1="583.1016" y2="579.1016"/><line style="stroke:#181818;stroke-width:1.0;" x1="991.5" x2="981.5" y1="583.1016" y2="587.1016"/><line style="stroke:#181818;stroke-width:1.0;" x1="806.5" x2="992.5" y1="583.1016" y2="583.1016"/><text fill="#000000" font-family="sans-serif" font-size="13" font-weight="bold" lengthAdjust="spacing" textLength="22" x="813.5" y="578.2451">[12]</text><text fill="#000000" font-family="sans-serif" font-size="13" font-weight="bold" lengthAdjust="spacing" textLength="26" x="839.5" y="578.2451">GET</text><text fill="#000000" font-family="sans-serif" font-size="13" lengthAdjust="spacing" textLength="107" x="869.5" y="578.2451">/parties/{Type}/{ID}</text><line style="stroke:#181818;stroke-width:1.0;" x1="1277.5" x2="1267.5" y1="646.1563" y2="642.1563"/><line style="stroke:#181818;stroke-width:1.0;" x1="1277.5" x2="1267.5" y1="646.1563" y2="650.1563"/><line style="stroke:#181818;stroke-width:1.0;" x1="993.5" x2="1278.5" y1="646.1563" y2="646.1563"/><text fill="#000000" font-family="sans-serif" font-size="13" font-weight="bold" lengthAdjust="spacing" textLength="22" x="1000.5" y="624.9482">[13]</text><text fill="#000000" font-family="sans-serif" font-size="13" lengthAdjust="spacing" textLength="133" x="1026.5" y="608.5967">Source not in Scheme:</text><text fill="#000000" font-family="sans-serif" font-size="13" lengthAdjust="spacing" textLength="152" x="1026.5" y="624.9482">fxpiop-proxy = "Proxy AB"</text><text fill="#000000" font-family="sans-serif" font-size="13" lengthAdjust="spacing" textLength="236" x="1026.5" y="641.2998">Add 'Payer DFSP' to 'Proxy AB' mapping</text><path d="M1222.5,661.1563 L1283.5,661.1563 L1283.5,669.5078 L1273.5,679.5078 L1222.5,679.5078 L1222.5,661.1563 " fill="#EEEEEE" style="stroke:#000000;stroke-width:1.5;"/><rect fill="none" height="61.7031" style="stroke:#000000;stroke-width:1.5;" width="228" x="1222.5" y="661.1563"/><text fill="#000000" font-family="sans-serif" font-size="13" font-weight="bold" lengthAdjust="spacing" textLength="16" x="1237.5" y="675.6514">alt</text><text fill="#000000" font-family="sans-serif" font-size="11" font-weight="bold" lengthAdjust="spacing" textLength="54" x="1298.5" y="674.5752">[not MVP]</text><line style="stroke:#181818;stroke-width:1.0;" x1="1279.5" x2="1321.5" y1="701.8594" y2="701.8594"/><line style="stroke:#181818;stroke-width:1.0;" x1="1321.5" x2="1321.5" y1="701.8594" y2="714.8594"/><line style="stroke:#181818;stroke-width:1.0;" x1="1280.5" x2="1321.5" y1="714.8594" y2="714.8594"/><polygon fill="#181818" points="1290.5,710.8594,1280.5,714.8594,1290.5,718.8594,1286.5,714.8594" style="stroke:#181818;stroke-width:1.0;"/><text fill="#000000" font-family="sans-serif" font-size="13" font-weight="bold" lengthAdjust="spacing" textLength="22" x="1286.5" y="697.0029">[14]</text><text fill="#000000" font-family="sans-serif" font-size="13" lengthAdjust="spacing" textLength="126" x="1312.5" y="697.0029">Check JWS signature</text><line style="stroke:#181818;stroke-width:1.0;" x1="1279.5" x2="1321.5" y1="752.2109" y2="752.2109"/><line style="stroke:#181818;stroke-width:1.0;" x1="1321.5" x2="1321.5" y1="752.2109" y2="765.2109"/><line style="stroke:#181818;stroke-width:1.0;" x1="1280.5" x2="1321.5" y1="765.2109" y2="765.2109"/><polygon fill="#181818" points="1290.5,761.2109,1280.5,765.2109,1290.5,769.2109,1286.5,765.2109" style="stroke:#181818;stroke-width:1.0;"/><text fill="#000000" font-family="sans-serif" font-size="13" font-weight="bold" lengthAdjust="spacing" textLength="22" x="1286.5" y="747.3545">[15]</text><text fill="#000000" font-family="sans-serif" font-size="13" lengthAdjust="spacing" textLength="157" x="1312.5" y="747.3545">Add new mapping to cache</text><path d="M1112,738.3594 L1112,764.3594 L1274,764.3594 L1274,748.3594 L1264,738.3594 L1112,738.3594 " fill="#FEFFDD" style="stroke:#181818;stroke-width:0.5;"/><path d="M1264,738.3594 L1264,748.3594 L1274,748.3594 L1264,738.3594 " fill="#FEFFDD" style="stroke:#181818;stroke-width:0.5;"/><text fill="#000000" font-family="sans-serif" font-size="13" lengthAdjust="spacing" textLength="141" x="1118" y="756.8545">Payer DFSP : Proxy AB</text><polygon fill="#181818" points="1149.5,791.5625,1159.5,795.5625,1149.5,799.5625,1153.5,795.5625" style="stroke:#181818;stroke-width:1.0;"/><line style="stroke:#181818;stroke-width:1.0;" x1="993.5" x2="1155.5" y1="795.5625" y2="795.5625"/><text fill="#000000" font-family="sans-serif" font-size="13" font-weight="bold" lengthAdjust="spacing" textLength="22" x="1000.5" y="790.7061">[16]</text><text fill="#000000" font-family="sans-serif" font-size="13" font-weight="bold" lengthAdjust="spacing" textLength="26" x="1026.5" y="790.7061">GET</text><text fill="#000000" font-family="sans-serif" font-size="13" lengthAdjust="spacing" textLength="88" x="1056.5" y="790.7061">/participant/{ID}</text><polygon fill="#181818" points="1004.5,821.9141,994.5,825.9141,1004.5,829.9141,1000.5,825.9141" style="stroke:#181818;stroke-width:1.0;"/><line style="stroke:#181818;stroke-width:1.0;stroke-dasharray:2.0,2.0;" x1="998.5" x2="1160.5" y1="825.9141" y2="825.9141"/><text fill="#000000" font-family="sans-serif" font-size="13" font-weight="bold" lengthAdjust="spacing" textLength="22" x="1010.5" y="821.0576">[17]</text><text fill="#000000" font-family="sans-serif" font-size="13" lengthAdjust="spacing" textLength="110" x="1036.5" y="821.0576">dfps = payeeDFSP</text><path d="M944.5,840.9141 L1005.5,840.9141 L1005.5,849.2656 L995.5,859.2656 L944.5,859.2656 L944.5,840.9141 " fill="#EEEEEE" style="stroke:#000000;stroke-width:1.5;"/><rect fill="none" height="85.0547" style="stroke:#000000;stroke-width:1.5;" width="765" x="944.5" y="840.9141"/><text fill="#000000" font-family="sans-serif" font-size="13" font-weight="bold" lengthAdjust="spacing" textLength="16" x="959.5" y="855.4092">alt</text><text fill="#000000" font-family="sans-serif" font-size="11" font-weight="bold" lengthAdjust="spacing" textLength="188" x="1020.5" y="854.333">[if dfsp is a member of Scheme B]</text><line style="stroke:#181818;stroke-width:1.0;" x1="1474.5" x2="1464.5" y1="881.6172" y2="877.6172"/><line style="stroke:#181818;stroke-width:1.0;" x1="1474.5" x2="1464.5" y1="881.6172" y2="885.6172"/><line style="stroke:#181818;stroke-width:1.0;" x1="993.5" x2="1475.5" y1="881.6172" y2="881.6172"/><text fill="#000000" font-family="sans-serif" font-size="13" font-weight="bold" lengthAdjust="spacing" textLength="22" x="1000.5" y="876.7607">[18]</text><text fill="#000000" font-family="sans-serif" font-size="13" font-weight="bold" lengthAdjust="spacing" textLength="26" x="1026.5" y="876.7607">GET</text><text fill="#000000" font-family="sans-serif" font-size="13" lengthAdjust="spacing" textLength="107" x="1056.5" y="876.7607">/parties/{Type}/{ID}</text><line style="stroke:#181818;stroke-width:1.0;" x1="994.5" x2="1004.5" y1="914.9688" y2="910.9688"/><line style="stroke:#181818;stroke-width:1.0;" x1="994.5" x2="1004.5" y1="914.9688" y2="918.9688"/><line style="stroke:#181818;stroke-width:1.0;" x1="993.5" x2="1475.5" y1="914.9688" y2="914.9688"/><text fill="#000000" font-family="sans-serif" font-size="13" font-weight="bold" lengthAdjust="spacing" textLength="22" x="1010.5" y="910.1123">[19]</text><text fill="#000000" font-family="sans-serif" font-size="13" font-weight="bold" lengthAdjust="spacing" textLength="26" x="1036.5" y="910.1123">PUT</text><text fill="#000000" font-family="sans-serif" font-size="13" lengthAdjust="spacing" textLength="97" x="1066.5" y="910.1123">/parties/{ID}/error</text><path d="M1481,894.6172 L1481,920.6172 L1694,920.6172 L1694,904.6172 L1684,894.6172 L1481,894.6172 " fill="#FEFFDD" style="stroke:#181818;stroke-width:0.5;"/><path d="M1684,894.6172 L1684,904.6172 L1694,904.6172 L1684,894.6172 " fill="#FEFFDD" style="stroke:#181818;stroke-width:0.5;"/><text fill="#000000" font-family="sans-serif" font-size="13" lengthAdjust="spacing" textLength="192" x="1487" y="913.1123">header desitination = payerDFSP</text><polygon fill="#181818" points="1267.5,951.3203,1277.5,955.3203,1267.5,959.3203,1271.5,955.3203" style="stroke:#181818;stroke-width:1.0;"/><line style="stroke:#181818;stroke-width:1.0;" x1="993.5" x2="1273.5" y1="955.3203" y2="955.3203"/><text fill="#000000" font-family="sans-serif" font-size="13" font-weight="bold" lengthAdjust="spacing" textLength="22" x="1000.5" y="950.4639">[20]</text><text fill="#000000" font-family="sans-serif" font-size="13" lengthAdjust="spacing" textLength="149" x="1026.5" y="950.4639">Lookup payerDFSP proxy</text><line style="stroke:#181818;stroke-width:1.0;" x1="807.5" x2="817.5" y1="985.6719" y2="981.6719"/><line style="stroke:#181818;stroke-width:1.0;" x1="807.5" x2="817.5" y1="985.6719" y2="989.6719"/><line style="stroke:#181818;stroke-width:1.0;" x1="806.5" x2="992.5" y1="985.6719" y2="985.6719"/><text fill="#000000" font-family="sans-serif" font-size="13" font-weight="bold" lengthAdjust="spacing" textLength="22" x="823.5" y="980.8154">[21]</text><text fill="#000000" font-family="sans-serif" font-size="13" font-weight="bold" lengthAdjust="spacing" textLength="26" x="849.5" y="980.8154">PUT</text><text fill="#000000" font-family="sans-serif" font-size="13" lengthAdjust="spacing" textLength="97" x="879.5" y="980.8154">/parties/{ID}/error</text><line style="stroke:#181818;stroke-width:1.0;" x1="806.5" x2="848.5" y1="1016.0234" y2="1016.0234"/><line style="stroke:#181818;stroke-width:1.0;" x1="848.5" x2="848.5" y1="1016.0234" y2="1029.0234"/><line style="stroke:#181818;stroke-width:1.0;" x1="807.5" x2="848.5" y1="1029.0234" y2="1029.0234"/><polygon fill="#181818" points="817.5,1025.0234,807.5,1029.0234,817.5,1033.0234,813.5,1029.0234" style="stroke:#181818;stroke-width:1.0;"/><text fill="#000000" font-family="sans-serif" font-size="13" font-weight="bold" lengthAdjust="spacing" textLength="22" x="813.5" y="1011.167">[22]</text><text fill="#000000" font-family="sans-serif" font-size="13" lengthAdjust="spacing" textLength="66" x="839.5" y="1011.167">Add header</text><path d="M628,1002.1719 L628,1028.1719 L801,1028.1719 L801,1012.1719 L791,1002.1719 L628,1002.1719 " fill="#FEFFDD" style="stroke:#181818;stroke-width:0.5;"/><path d="M791,1002.1719 L791,1012.1719 L801,1012.1719 L791,1002.1719 " fill="#FEFFDD" style="stroke:#181818;stroke-width:0.5;"/><text fill="#000000" font-family="sans-serif" font-size="13" lengthAdjust="spacing" textLength="152" x="634" y="1020.667">fxpiop-proxy = "Proxy AB"</text><line style="stroke:#181818;stroke-width:1.0;" x1="377" x2="387" y1="1059.375" y2="1055.375"/><line style="stroke:#181818;stroke-width:1.0;" x1="377" x2="387" y1="1059.375" y2="1063.375"/><line style="stroke:#181818;stroke-width:1.0;" x1="376" x2="805.5" y1="1059.375" y2="1059.375"/><text fill="#000000" font-family="sans-serif" font-size="13" font-weight="bold" lengthAdjust="spacing" textLength="22" x="393" y="1054.5186">[23]</text><text fill="#000000" font-family="sans-serif" font-size="13" font-weight="bold" lengthAdjust="spacing" textLength="26" x="419" y="1054.5186">PUT</text><text fill="#000000" font-family="sans-serif" font-size="13" lengthAdjust="spacing" textLength="97" x="449" y="1054.5186">/parties/{ID}/error</text><path d="M140,1074.375 L201,1074.375 L201,1082.7266 L191,1092.7266 L140,1092.7266 L140,1074.375 " fill="#EEEEEE" style="stroke:#000000;stroke-width:1.5;"/><rect fill="none" height="235.5156" style="stroke:#000000;stroke-width:1.5;" width="527" x="140" y="1074.375"/><text fill="#000000" font-family="sans-serif" font-size="13" font-weight="bold" lengthAdjust="spacing" textLength="16" x="155" y="1088.8701">alt</text><text fill="#000000" font-family="sans-serif" font-size="11" font-weight="bold" lengthAdjust="spacing" textLength="319" x="216" y="1087.7939">[message from proxy &amp; error &amp; no proxy message cache]</text><path d="M153,1097.7266 L153,1172.7266 L371,1172.7266 L371,1107.7266 L361,1097.7266 L153,1097.7266 " fill="#FEFFDD" style="stroke:#181818;stroke-width:0.5;"/><path d="M361,1097.7266 L361,1107.7266 L371,1107.7266 L361,1097.7266 " fill="#FEFFDD" style="stroke:#181818;stroke-width:0.5;"/><text fill="#000000" font-family="sans-serif" font-size="13" font-weight="bold" lengthAdjust="spacing" textLength="57" x="159" y="1116.2217">Self heal</text><text fill="#000000" font-family="sans-serif" font-size="13" lengthAdjust="spacing" textLength="93" x="220" y="1116.2217">if error in routing</text><text fill="#000000" font-family="sans-serif" font-size="13" lengthAdjust="spacing" textLength="152" x="163" y="1132.5732">fxpiop-proxy = "Proxy AB"</text><text fill="#000000" font-family="sans-serif" font-size="13" lengthAdjust="spacing" textLength="102" x="163" y="1148.9248">PUT /parties error</text><text fill="#000000" font-family="sans-serif" font-size="13" lengthAdjust="spacing" textLength="193" x="163" y="1165.2764">SentToProxies[{ID}] list undefined</text><polygon fill="#181818" points="606,1212.8359,616,1216.8359,606,1220.8359,610,1216.8359" style="stroke:#181818;stroke-width:1.0;"/><line style="stroke:#181818;stroke-width:1.0;" x1="376" x2="612" y1="1216.8359" y2="1216.8359"/><text fill="#000000" font-family="sans-serif" font-size="13" font-weight="bold" lengthAdjust="spacing" textLength="22" x="383" y="1203.8037">[24]</text><text fill="#000000" font-family="sans-serif" font-size="13" lengthAdjust="spacing" textLength="155" x="409" y="1195.6279">Remove mapping in Oracle</text><text fill="#000000" font-family="sans-serif" font-size="13" lengthAdjust="spacing" textLength="4" x="409" y="1211.9795">&#160;</text><text fill="#000000" font-family="sans-serif" font-size="13" font-weight="bold" lengthAdjust="spacing" textLength="49" x="413" y="1211.9795">DELETE</text><text fill="#000000" font-family="sans-serif" font-size="13" lengthAdjust="spacing" textLength="135" x="466" y="1211.9795">\participants\{Type}\{ID}</text><line style="stroke:#181818;stroke-width:1.0;" x1="197" x2="207" y1="1258.3633" y2="1254.3633"/><line style="stroke:#181818;stroke-width:1.0;" x1="197" x2="207" y1="1258.3633" y2="1262.3633"/><line style="stroke:#181818;stroke-width:1.0;" x1="196" x2="375" y1="1258.3633" y2="1258.3633"/><text fill="#000000" font-family="sans-serif" font-size="13" font-weight="bold" lengthAdjust="spacing" textLength="22" x="213" y="1253.5068">[25]</text><text fill="#000000" font-family="sans-serif" font-size="13" font-weight="bold" lengthAdjust="spacing" textLength="26" x="239" y="1253.5068">PUT</text><text fill="#000000" font-family="sans-serif" font-size="13" lengthAdjust="spacing" textLength="97" x="269" y="1253.5068">/parties/{ID}/error</text><path d="M381,1229.8359 L381,1271.8359 L521,1271.8359 L521,1239.8359 L511,1229.8359 L381,1229.8359 " fill="#FEFFDD" style="stroke:#181818;stroke-width:0.5;"/><path d="M511,1229.8359 L511,1239.8359 L521,1239.8359 L511,1229.8359 " fill="#FEFFDD" style="stroke:#181818;stroke-width:0.5;"/><text fill="#000000" font-family="sans-serif" font-size="13" lengthAdjust="spacing" textLength="112" x="387" y="1248.3311">{ErrorCode: "2003"}</text><text fill="#000000" font-family="sans-serif" font-size="13" lengthAdjust="spacing" textLength="119" x="387" y="1264.6826">(Service Unavailable)</text><line style="stroke:#000000;stroke-width:1.0;stroke-dasharray:2.0,2.0;" x1="140" x2="667" y1="1278.5391" y2="1278.5391"/><line style="stroke:#181818;stroke-width:1.0;" x1="197" x2="207" y1="1301.8906" y2="1297.8906"/><line style="stroke:#181818;stroke-width:1.0;" x1="197" x2="207" y1="1301.8906" y2="1305.8906"/><line style="stroke:#181818;stroke-width:1.0;" x1="196" x2="375" y1="1301.8906" y2="1301.8906"/><text fill="#000000" font-family="sans-serif" font-size="13" font-weight="bold" lengthAdjust="spacing" textLength="22" x="213" y="1297.0342">[26]</text><text fill="#000000" font-family="sans-serif" font-size="13" font-weight="bold" lengthAdjust="spacing" textLength="26" x="239" y="1297.0342">PUT</text><text fill="#000000" font-family="sans-serif" font-size="13" lengthAdjust="spacing" textLength="97" x="269" y="1297.0342">/parties/{ID}/error</text><!--SRC=[hLNRJjj047ttLuo2rBH84L3Uef8gXhIYecg4eJmGX1PxdAnmTgtr1e8G_zwPNL-vLo8F8A_Fp9upSsPifSqG8YlexrGOUmU72IehKua6zaMym238wLp6CXVAGcygxkZDmOzesWDHGCwF_1HSwJNq8WfO8enxi74avmiRPYiCW7wT7EEZQAOQAAMXaylnK-0V8-8C7s7zuNFmgT7hEy_wKKmUNuuP7g1AW9W6pyIDGmTTgxoZXKutaXtSZdTV5nBMGiB_4nA-JqXO2GbV4KBTG6vEtHjqlGd4ocgrMbvHwtQWz-rgTBvzqUFEbjs3mMZacp24pSsVavFDJTXogR7OkZ-vo_5Xw_xmu25GsY9acDe05YWIobVebOaHzbfMO6uC34YPIpeOrLrxdDzJzycXHWq6DPrKhoYT8xdNabHcRXDt6BeNf8B25Qs5SXOOmjb2WonBumBwzC3L_avOaLd_00PpWmKDWh3o1brInuD0paejVhvNRKHzPQFv69UQyYn5dairPuAL8wWS1vEZoSc4AZ9hLQIO-RBFk390MLkLfvW8ivGxa56OJ4lMzCPWYWOLDOHKjadLFNccSCTOMBePx0Bv2EPeeMm-PuwnA3X3Lk0p-bDjReL9m6geviXV5tIkeh5wmrfiQq8DHWuwJfBIOUv5Mpr0kiwbpWTUzLvhWDtRjlqeLwqqV9q0G4auT14yQKE8lBjBL_bH7C9ClSXWffXvlrcJVQvClthVhpmGiDauxU-_Kr_Li7GftRg_mFWQVfr5KCYv4dPba8Vg2OwlKdXR-ufkYjtERihL485Xqw2gH53-0gUxiMpuhZ4DAniGF4dpeZkWB92icQH5pcOKi4ItW7GArKhh5hmAVTCdDRBRskbfDuR0MsYCDjNq6FuaiKNArPLW8Qsa-agjEWkiCovO3tMhyaTQNw_o9iHFO4TFwVZNM7sitRjk7xzrEVTdIQCjvWYfqSjoYNm21w3_IfT75SfxgyMk-Mu_sKW-2SsCqIlBVdzR296jgKB54Y2YDNoY6KhdvopX0Z9PMA35XgbK-C9w-zZrssookkVlznmdk9_myRvEQ7_qlcvlx_PStiyHcXj9A-PKYHiXCt6LuPT71lIBj_oIZjvvFzls7m00]--></g></svg>