<?xml version="1.0" encoding="us-ascii" standalone="no"?><svg xmlns="http://www.w3.org/2000/svg" xmlns:xlink="http://www.w3.org/1999/xlink" contentStyleType="text/css" height="1167px" preserveAspectRatio="none" style="width:1700px;height:1167px;background:#FFFFFF;" version="1.1" viewBox="0 0 1700 1167" width="1700px" zoomAndPan="magnify"><defs/><g><text fill="#000000" font-family="sans-serif" font-size="14" font-weight="bold" lengthAdjust="spacing" textLength="190" x="756.25" y="29.5332">Stale Party Identifier Cache</text><rect fill="#DDDDDD" height="1116.6875" style="stroke:#181818;stroke-width:0.5;" width="438" x="333" y="44.6094"/><text fill="#000000" font-family="sans-serif" font-size="13" font-weight="bold" lengthAdjust="spacing" textLength="65" x="519.5" y="58.1045">Scheme A</text><rect fill="#DDDDDD" height="1116.6875" style="stroke:#181818;stroke-width:0.5;" width="380" x="949.5" y="44.6094"/><text fill="#000000" font-family="sans-serif" font-size="13" font-weight="bold" lengthAdjust="spacing" textLength="65" x="1107" y="58.1045">Scheme B</text><rect fill="none" height="61.7031" style="stroke:#000000;stroke-width:1.5;" width="228" x="1221.5" y="500.3984"/><rect fill="none" height="209.8125" style="stroke:#000000;stroke-width:1.5;" width="566" x="107" y="881.2656"/><line style="stroke:#181818;stroke-width:0.5;stroke-dasharray:5.0,5.0;" x1="196" x2="196" y1="115.1797" y2="1108.0781"/><line style="stroke:#181818;stroke-width:0.5;stroke-dasharray:5.0,5.0;" x1="376" x2="376" y1="115.1797" y2="1108.0781"/><line style="stroke:#181818;stroke-width:0.5;stroke-dasharray:5.0,5.0;" x1="624" x2="624" y1="115.1797" y2="1108.0781"/><line style="stroke:#181818;stroke-width:0.5;stroke-dasharray:5.0,5.0;" x1="720" x2="720" y1="115.1797" y2="1108.0781"/><line style="stroke:#181818;stroke-width:0.5;stroke-dasharray:5.0,5.0;" x1="812" x2="812" y1="115.1797" y2="1108.0781"/><line style="stroke:#181818;stroke-width:0.5;stroke-dasharray:5.0,5.0;" x1="992.5" x2="992.5" y1="115.1797" y2="1108.0781"/><line style="stroke:#181818;stroke-width:0.5;stroke-dasharray:5.0,5.0;" x1="1160.5" x2="1160.5" y1="115.1797" y2="1108.0781"/><line style="stroke:#181818;stroke-width:0.5;stroke-dasharray:5.0,5.0;" x1="1278.5" x2="1278.5" y1="115.1797" y2="1108.0781"/><line style="stroke:#181818;stroke-width:0.5;stroke-dasharray:5.0,5.0;" x1="1475.5" x2="1475.5" y1="115.1797" y2="1108.0781"/><rect fill="#E2E2F0" height="31.6094" rx="2.5" ry="2.5" style="stroke:#181818;stroke-width:0.5;" width="92" x="150" y="82.5703"/><text fill="#000000" font-family="sans-serif" font-size="14" lengthAdjust="spacing" textLength="78" x="157" y="104.1035">Payer DFSP</text><rect fill="#E2E2F0" height="31.6094" rx="2.5" ry="2.5" style="stroke:#181818;stroke-width:0.5;" width="92" x="150" y="1107.0781"/><text fill="#000000" font-family="sans-serif" font-size="14" lengthAdjust="spacing" textLength="78" x="157" y="1128.6113">Payer DFSP</text><rect fill="#E2E2F0" height="49.2188" rx="2.5" ry="2.5" style="stroke:#181818;stroke-width:0.5;" width="78" x="337" y="64.9609"/><text fill="#000000" font-family="sans-serif" font-size="14" lengthAdjust="spacing" textLength="26" x="363" y="86.4941">ALS</text><text fill="#000000" font-family="sans-serif" font-size="14" lengthAdjust="spacing" textLength="64" x="344" y="104.1035">Scheme A</text><rect fill="#E2E2F0" height="49.2188" rx="2.5" ry="2.5" style="stroke:#181818;stroke-width:0.5;" width="78" x="337" y="1107.0781"/><text fill="#000000" font-family="sans-serif" font-size="14" lengthAdjust="spacing" textLength="26" x="363" y="1128.6113">ALS</text><text fill="#000000" font-family="sans-serif" font-size="14" lengthAdjust="spacing" textLength="64" x="344" y="1146.2207">Scheme A</text><rect fill="#E2E2F0" height="49.2188" rx="2.5" ry="2.5" style="stroke:#181818;stroke-width:0.5;" width="78" x="585" y="64.9609"/><text fill="#000000" font-family="sans-serif" font-size="14" lengthAdjust="spacing" textLength="42" x="603" y="86.4941">Oracle</text><text fill="#000000" font-family="sans-serif" font-size="14" lengthAdjust="spacing" textLength="64" x="592" y="104.1035">Scheme A</text><rect fill="#E2E2F0" height="49.2188" rx="2.5" ry="2.5" style="stroke:#181818;stroke-width:0.5;" width="78" x="585" y="1107.0781"/><text fill="#000000" font-family="sans-serif" font-size="14" lengthAdjust="spacing" textLength="42" x="603" y="1128.6113">Oracle</text><text fill="#000000" font-family="sans-serif" font-size="14" lengthAdjust="spacing" textLength="64" x="592" y="1146.2207">Scheme A</text><rect fill="#E2E2F0" height="49.2188" rx="2.5" ry="2.5" style="stroke:#181818;stroke-width:0.5;" width="94" x="673" y="64.9609"/><text fill="#000000" font-family="sans-serif" font-size="14" lengthAdjust="spacing" textLength="80" x="680" y="86.4941">Proxy Cache</text><text fill="#000000" font-family="sans-serif" font-size="14" lengthAdjust="spacing" textLength="64" x="688" y="104.1035">Scheme A</text><rect fill="#E2E2F0" height="49.2188" rx="2.5" ry="2.5" style="stroke:#181818;stroke-width:0.5;" width="94" x="673" y="1107.0781"/><text fill="#000000" font-family="sans-serif" font-size="14" lengthAdjust="spacing" textLength="80" x="680" y="1128.6113">Proxy Cache</text><text fill="#000000" font-family="sans-serif" font-size="14" lengthAdjust="spacing" textLength="64" x="688" y="1146.2207">Scheme A</text><rect fill="#E2E2F0" height="31.6094" rx="2.5" ry="2.5" style="stroke:#181818;stroke-width:0.5;" width="71" x="777" y="82.5703"/><text fill="#000000" font-family="sans-serif" font-size="14" lengthAdjust="spacing" textLength="57" x="784" y="104.1035">Proxy AB</text><rect fill="#E2E2F0" height="31.6094" rx="2.5" ry="2.5" style="stroke:#181818;stroke-width:0.5;" width="71" x="777" y="1107.0781"/><text fill="#000000" font-family="sans-serif" font-size="14" lengthAdjust="spacing" textLength="57" x="784" y="1128.6113">Proxy AB</text><rect fill="#E2E2F0" height="49.2188" rx="2.5" ry="2.5" style="stroke:#181818;stroke-width:0.5;" width="78" x="953.5" y="64.9609"/><text fill="#000000" font-family="sans-serif" font-size="14" lengthAdjust="spacing" textLength="26" x="979.5" y="86.4941">ALS</text><text fill="#000000" font-family="sans-serif" font-size="14" lengthAdjust="spacing" textLength="64" x="960.5" y="104.1035">Scheme B</text><rect fill="#E2E2F0" height="49.2188" rx="2.5" ry="2.5" style="stroke:#181818;stroke-width:0.5;" width="78" x="953.5" y="1107.0781"/><text fill="#000000" font-family="sans-serif" font-size="14" lengthAdjust="spacing" textLength="26" x="979.5" y="1128.6113">ALS</text><text fill="#000000" font-family="sans-serif" font-size="14" lengthAdjust="spacing" textLength="64" x="960.5" y="1146.2207">Scheme B</text><rect fill="#E2E2F0" height="49.2188" rx="2.5" ry="2.5" style="stroke:#181818;stroke-width:0.5;" width="78" x="1121.5" y="64.9609"/><text fill="#000000" font-family="sans-serif" font-size="14" lengthAdjust="spacing" textLength="42" x="1139.5" y="86.4941">Oracle</text><text fill="#000000" font-family="sans-serif" font-size="14" lengthAdjust="spacing" textLength="64" x="1128.5" y="104.1035">Scheme A</text><rect fill="#E2E2F0" height="49.2188" rx="2.5" ry="2.5" style="stroke:#181818;stroke-width:0.5;" width="78" x="1121.5" y="1107.0781"/><text fill="#000000" font-family="sans-serif" font-size="14" lengthAdjust="spacing" textLength="42" x="1139.5" y="1128.6113">Oracle</text><text fill="#000000" font-family="sans-serif" font-size="14" lengthAdjust="spacing" textLength="64" x="1128.5" y="1146.2207">Scheme A</text><rect fill="#E2E2F0" height="49.2188" rx="2.5" ry="2.5" style="stroke:#181818;stroke-width:0.5;" width="94" x="1231.5" y="64.9609"/><text fill="#000000" font-family="sans-serif" font-size="14" lengthAdjust="spacing" textLength="80" x="1238.5" y="86.4941">Proxy Cache</text><text fill="#000000" font-family="sans-serif" font-size="14" lengthAdjust="spacing" textLength="64" x="1246.5" y="104.1035">Scheme B</text><rect fill="#E2E2F0" height="49.2188" rx="2.5" ry="2.5" style="stroke:#181818;stroke-width:0.5;" width="94" x="1231.5" y="1107.0781"/><text fill="#000000" font-family="sans-serif" font-size="14" lengthAdjust="spacing" textLength="80" x="1238.5" y="1128.6113">Proxy Cache</text><text fill="#000000" font-family="sans-serif" font-size="14" lengthAdjust="spacing" textLength="64" x="1246.5" y="1146.2207">Scheme B</text><rect fill="#E2E2F0" height="31.6094" rx="2.5" ry="2.5" style="stroke:#181818;stroke-width:0.5;" width="86" x="1432.5" y="82.5703"/><text fill="#000000" font-family="sans-serif" font-size="14" lengthAdjust="spacing" textLength="72" x="1439.5" y="104.1035">Payee DFS</text><rect fill="#E2E2F0" height="31.6094" rx="2.5" ry="2.5" style="stroke:#181818;stroke-width:0.5;" width="86" x="1432.5" y="1107.0781"/><text fill="#000000" font-family="sans-serif" font-size="14" lengthAdjust="spacing" textLength="72" x="1439.5" y="1128.6113">Payee DFS</text><line style="stroke:#181818;stroke-width:1.0;" x1="374" x2="364" y1="150.5313" y2="146.5313"/><line style="stroke:#181818;stroke-width:1.0;" x1="374" x2="364" y1="150.5313" y2="154.5313"/><line style="stroke:#181818;stroke-width:1.0;" x1="196" x2="375" y1="150.5313" y2="150.5313"/><text fill="#000000" font-family="sans-serif" font-size="13" font-weight="bold" lengthAdjust="spacing" textLength="15" x="203" y="145.6748">[1]</text><text fill="#000000" font-family="sans-serif" font-size="13" font-weight="bold" lengthAdjust="spacing" textLength="26" x="222" y="145.6748">GET</text><text fill="#000000" font-family="sans-serif" font-size="13" lengthAdjust="spacing" textLength="107" x="252" y="145.6748">/parties/{Type}/{ID}</text><path d="M5,130.1797 L5,156.1797 L191,156.1797 L191,140.1797 L181,130.1797 L5,130.1797 " fill="#FEFFDD" style="stroke:#181818;stroke-width:0.5;"/><path d="M181,130.1797 L181,140.1797 L191,140.1797 L181,130.1797 " fill="#FEFFDD" style="stroke:#181818;stroke-width:0.5;"/><text fill="#000000" font-family="sans-serif" font-size="13" lengthAdjust="spacing" textLength="165" x="11" y="148.6748">header source = payerDFSP</text><polygon fill="#181818" points="612,179.8828,622,183.8828,612,187.8828,616,183.8828" style="stroke:#181818;stroke-width:1.0;"/><line style="stroke:#181818;stroke-width:1.0;" x1="376" x2="618" y1="183.8828" y2="183.8828"/><text fill="#000000" font-family="sans-serif" font-size="13" font-weight="bold" lengthAdjust="spacing" textLength="15" x="383" y="179.0264">[2]</text><text fill="#000000" font-family="sans-serif" font-size="13" font-weight="bold" lengthAdjust="spacing" textLength="26" x="402" y="179.0264">GET</text><text fill="#000000" font-family="sans-serif" font-size="13" lengthAdjust="spacing" textLength="88" x="432" y="179.0264">/participant/{ID}</text><polygon fill="#181818" points="387,210.2344,377,214.2344,387,218.2344,383,214.2344" style="stroke:#181818;stroke-width:1.0;"/><line style="stroke:#181818;stroke-width:1.0;stroke-dasharray:2.0,2.0;" x1="381" x2="623" y1="214.2344" y2="214.2344"/><text fill="#000000" font-family="sans-serif" font-size="13" font-weight="bold" lengthAdjust="spacing" textLength="15" x="393" y="209.3779">[3]</text><text fill="#000000" font-family="sans-serif" font-size="13" lengthAdjust="spacing" textLength="156" x="412" y="209.3779">found DFSP = payeeDFSP</text><line style="stroke:#181818;stroke-width:1.0;" x1="376" x2="418" y1="244.5859" y2="244.5859"/><line style="stroke:#181818;stroke-width:1.0;" x1="418" x2="418" y1="244.5859" y2="257.5859"/><line style="stroke:#181818;stroke-width:1.0;" x1="377" x2="418" y1="257.5859" y2="257.5859"/><line style="stroke:#181818;stroke-width:1.0;" x1="377" x2="387" y1="257.5859" y2="253.5859"/><line style="stroke:#181818;stroke-width:1.0;" x1="377" x2="387" y1="257.5859" y2="261.5859"/><text fill="#000000" font-family="sans-serif" font-size="13" font-weight="bold" lengthAdjust="spacing" textLength="15" x="383" y="239.7295">[4]</text><text fill="#000000" font-family="sans-serif" font-size="13" lengthAdjust="spacing" textLength="121" x="402" y="239.7295">DFSP not in scheme</text><polygon fill="#181818" points="708,283.9375,718,287.9375,708,291.9375,712,287.9375" style="stroke:#181818;stroke-width:1.0;"/><line style="stroke:#181818;stroke-width:1.0;" x1="376" x2="714" y1="287.9375" y2="287.9375"/><text fill="#000000" font-family="sans-serif" font-size="13" font-weight="bold" lengthAdjust="spacing" textLength="15" x="383" y="283.0811">[5]</text><text fill="#000000" font-family="sans-serif" font-size="13" lengthAdjust="spacing" textLength="171" x="402" y="283.0811">Who is payee DFSP's proxy?</text><polygon fill="#181818" points="387,314.2891,377,318.2891,387,322.2891,383,318.2891" style="stroke:#181818;stroke-width:1.0;"/><line style="stroke:#181818;stroke-width:1.0;stroke-dasharray:2.0,2.0;" x1="381" x2="719" y1="318.2891" y2="318.2891"/><text fill="#000000" font-family="sans-serif" font-size="13" font-weight="bold" lengthAdjust="spacing" textLength="15" x="393" y="313.4326">[6]</text><text fill="#000000" font-family="sans-serif" font-size="13" lengthAdjust="spacing" textLength="116" x="412" y="313.4326">forward to Proxy AB</text><line style="stroke:#181818;stroke-width:1.0;" x1="810.5" x2="800.5" y1="348.6406" y2="344.6406"/><line style="stroke:#181818;stroke-width:1.0;" x1="810.5" x2="800.5" y1="348.6406" y2="352.6406"/><line style="stroke:#181818;stroke-width:1.0;" x1="376" x2="811.5" y1="348.6406" y2="348.6406"/><text fill="#000000" font-family="sans-serif" font-size="13" font-weight="bold" lengthAdjust="spacing" textLength="15" x="383" y="343.7842">[7]</text><text fill="#000000" font-family="sans-serif" font-size="13" font-weight="bold" lengthAdjust="spacing" textLength="26" x="402" y="343.7842">GET</text><text fill="#000000" font-family="sans-serif" font-size="13" lengthAdjust="spacing" textLength="107" x="432" y="343.7842">/parties/{Type}/{ID}</text><line style="stroke:#181818;stroke-width:1.0;" x1="812.5" x2="854.5" y1="378.9922" y2="378.9922"/><line style="stroke:#181818;stroke-width:1.0;" x1="854.5" x2="854.5" y1="378.9922" y2="391.9922"/><line style="stroke:#181818;stroke-width:1.0;" x1="813.5" x2="854.5" y1="391.9922" y2="391.9922"/><polygon fill="#181818" points="823.5,387.9922,813.5,391.9922,823.5,395.9922,819.5,391.9922" style="stroke:#181818;stroke-width:1.0;"/><text fill="#000000" font-family="sans-serif" font-size="13" font-weight="bold" lengthAdjust="spacing" textLength="15" x="819.5" y="374.1357">[8]</text><text fill="#000000" font-family="sans-serif" font-size="13" lengthAdjust="spacing" textLength="66" x="838.5" y="374.1357">Add header</text><path d="M634,365.1406 L634,391.1406 L807,391.1406 L807,375.1406 L797,365.1406 L634,365.1406 " fill="#FEFFDD" style="stroke:#181818;stroke-width:0.5;"/><path d="M797,365.1406 L797,375.1406 L807,375.1406 L797,365.1406 " fill="#FEFFDD" style="stroke:#181818;stroke-width:0.5;"/><text fill="#000000" font-family="sans-serif" font-size="13" lengthAdjust="spacing" textLength="152" x="640" y="383.6357">fxpiop-proxy = "Proxy AB"</text><line style="stroke:#181818;stroke-width:1.0;" x1="990.5" x2="980.5" y1="422.3438" y2="418.3438"/><line style="stroke:#181818;stroke-width:1.0;" x1="990.5" x2="980.5" y1="422.3438" y2="426.3438"/><line style="stroke:#181818;stroke-width:1.0;" x1="812.5" x2="991.5" y1="422.3438" y2="422.3438"/><text fill="#000000" font-family="sans-serif" font-size="13" font-weight="bold" lengthAdjust="spacing" textLength="15" x="819.5" y="417.4873">[9]</text><text fill="#000000" font-family="sans-serif" font-size="13" font-weight="bold" lengthAdjust="spacing" textLength="26" x="838.5" y="417.4873">GET</text><text fill="#000000" font-family="sans-serif" font-size="13" lengthAdjust="spacing" textLength="107" x="868.5" y="417.4873">/parties/{Type}/{ID}</text><line style="stroke:#181818;stroke-width:1.0;" x1="1276.5" x2="1266.5" y1="485.3984" y2="481.3984"/><line style="stroke:#181818;stroke-width:1.0;" x1="1276.5" x2="1266.5" y1="485.3984" y2="489.3984"/><line style="stroke:#181818;stroke-width:1.0;" x1="992.5" x2="1277.5" y1="485.3984" y2="485.3984"/><text fill="#000000" font-family="sans-serif" font-size="13" font-weight="bold" lengthAdjust="spacing" textLength="22" x="999.5" y="464.1904">[10]</text><text fill="#000000" font-family="sans-serif" font-size="13" lengthAdjust="spacing" textLength="133" x="1025.5" y="447.8389">Source not in Scheme:</text><text fill="#000000" font-family="sans-serif" font-size="13" lengthAdjust="spacing" textLength="152" x="1025.5" y="464.1904">fxpiop-proxy = "Proxy AB"</text><text fill="#000000" font-family="sans-serif" font-size="13" lengthAdjust="spacing" textLength="236" x="1025.5" y="480.542">Add 'Payer DFSP' to 'Proxy AB' mapping</text><path d="M1221.5,500.3984 L1282.5,500.3984 L1282.5,508.75 L1272.5,518.75 L1221.5,518.75 L1221.5,500.3984 " fill="#EEEEEE" style="stroke:#000000;stroke-width:1.5;"/><rect fill="none" height="61.7031" style="stroke:#000000;stroke-width:1.5;" width="228" x="1221.5" y="500.3984"/><text fill="#000000" font-family="sans-serif" font-size="13" font-weight="bold" lengthAdjust="spacing" textLength="16" x="1236.5" y="514.8936">alt</text><text fill="#000000" font-family="sans-serif" font-size="11" font-weight="bold" lengthAdjust="spacing" textLength="54" x="1297.5" y="513.8174">[not MVP]</text><line style="stroke:#181818;stroke-width:1.0;" x1="1278.5" x2="1320.5" y1="541.1016" y2="541.1016"/><line style="stroke:#181818;stroke-width:1.0;" x1="1320.5" x2="1320.5" y1="541.1016" y2="554.1016"/><line style="stroke:#181818;stroke-width:1.0;" x1="1279.5" x2="1320.5" y1="554.1016" y2="554.1016"/><polygon fill="#181818" points="1289.5,550.1016,1279.5,554.1016,1289.5,558.1016,1285.5,554.1016" style="stroke:#181818;stroke-width:1.0;"/><text fill="#000000" font-family="sans-serif" font-size="13" font-weight="bold" lengthAdjust="spacing" textLength="22" x="1285.5" y="536.2451">[11]</text><text fill="#000000" font-family="sans-serif" font-size="13" lengthAdjust="spacing" textLength="126" x="1311.5" y="536.2451">Check JWS signature</text><line style="stroke:#181818;stroke-width:1.0;" x1="1278.5" x2="1320.5" y1="591.4531" y2="591.4531"/><line style="stroke:#181818;stroke-width:1.0;" x1="1320.5" x2="1320.5" y1="591.4531" y2="604.4531"/><line style="stroke:#181818;stroke-width:1.0;" x1="1279.5" x2="1320.5" y1="604.4531" y2="604.4531"/><polygon fill="#181818" points="1289.5,600.4531,1279.5,604.4531,1289.5,608.4531,1285.5,604.4531" style="stroke:#181818;stroke-width:1.0;"/><text fill="#000000" font-family="sans-serif" font-size="13" font-weight="bold" lengthAdjust="spacing" textLength="22" x="1285.5" y="586.5967">[12]</text><text fill="#000000" font-family="sans-serif" font-size="13" lengthAdjust="spacing" textLength="157" x="1311.5" y="586.5967">Add new mapping to cache</text><path d="M1111,577.6016 L1111,603.6016 L1273,603.6016 L1273,587.6016 L1263,577.6016 L1111,577.6016 " fill="#FEFFDD" style="stroke:#181818;stroke-width:0.5;"/><path d="M1263,577.6016 L1263,587.6016 L1273,587.6016 L1263,577.6016 " fill="#FEFFDD" style="stroke:#181818;stroke-width:0.5;"/><text fill="#000000" font-family="sans-serif" font-size="13" lengthAdjust="spacing" textLength="141" x="1117" y="596.0967">Payer DFSP : Proxy AB</text><polygon fill="#181818" points="1148.5,630.8047,1158.5,634.8047,1148.5,638.8047,1152.5,634.8047" style="stroke:#181818;stroke-width:1.0;"/><line style="stroke:#181818;stroke-width:1.0;" x1="992.5" x2="1154.5" y1="634.8047" y2="634.8047"/><text fill="#000000" font-family="sans-serif" font-size="13" font-weight="bold" lengthAdjust="spacing" textLength="22" x="999.5" y="629.9482">[13]</text><text fill="#000000" font-family="sans-serif" font-size="13" font-weight="bold" lengthAdjust="spacing" textLength="26" x="1025.5" y="629.9482">GET</text><text fill="#000000" font-family="sans-serif" font-size="13" lengthAdjust="spacing" textLength="88" x="1055.5" y="629.9482">/participant/{ID}</text><polygon fill="#181818" points="1003.5,661.1563,993.5,665.1563,1003.5,669.1563,999.5,665.1563" style="stroke:#181818;stroke-width:1.0;"/><line style="stroke:#181818;stroke-width:1.0;stroke-dasharray:2.0,2.0;" x1="997.5" x2="1159.5" y1="665.1563" y2="665.1563"/><text fill="#000000" font-family="sans-serif" font-size="13" font-weight="bold" lengthAdjust="spacing" textLength="22" x="1009.5" y="660.2998">[14]</text><text fill="#000000" font-family="sans-serif" font-size="13" lengthAdjust="spacing" textLength="110" x="1035.5" y="660.2998">dfps = payeeDFSP</text><line style="stroke:#181818;stroke-width:1.0;" x1="1473.5" x2="1463.5" y1="695.5078" y2="691.5078"/><line style="stroke:#181818;stroke-width:1.0;" x1="1473.5" x2="1463.5" y1="695.5078" y2="699.5078"/><line style="stroke:#181818;stroke-width:1.0;" x1="992.5" x2="1474.5" y1="695.5078" y2="695.5078"/><text fill="#000000" font-family="sans-serif" font-size="13" font-weight="bold" lengthAdjust="spacing" textLength="22" x="999.5" y="690.6514">[15]</text><text fill="#000000" font-family="sans-serif" font-size="13" font-weight="bold" lengthAdjust="spacing" textLength="26" x="1025.5" y="690.6514">GET</text><text fill="#000000" font-family="sans-serif" font-size="13" lengthAdjust="spacing" textLength="107" x="1055.5" y="690.6514">/parties/{Type}/{ID}</text><line style="stroke:#181818;stroke-width:1.0;" x1="993.5" x2="1003.5" y1="728.8594" y2="724.8594"/><line style="stroke:#181818;stroke-width:1.0;" x1="993.5" x2="1003.5" y1="728.8594" y2="732.8594"/><line style="stroke:#181818;stroke-width:1.0;" x1="992.5" x2="1474.5" y1="728.8594" y2="728.8594"/><text fill="#000000" font-family="sans-serif" font-size="13" font-weight="bold" lengthAdjust="spacing" textLength="22" x="1009.5" y="724.0029">[16]</text><text fill="#000000" font-family="sans-serif" font-size="13" font-weight="bold" lengthAdjust="spacing" textLength="26" x="1035.5" y="724.0029">PUT</text><text fill="#000000" font-family="sans-serif" font-size="13" lengthAdjust="spacing" textLength="97" x="1065.5" y="724.0029">/parties/{ID}/error</text><path d="M1480,708.5078 L1480,734.5078 L1693,734.5078 L1693,718.5078 L1683,708.5078 L1480,708.5078 " fill="#FEFFDD" style="stroke:#181818;stroke-width:0.5;"/><path d="M1683,708.5078 L1683,718.5078 L1693,718.5078 L1683,708.5078 " fill="#FEFFDD" style="stroke:#181818;stroke-width:0.5;"/><text fill="#000000" font-family="sans-serif" font-size="13" lengthAdjust="spacing" textLength="192" x="1486" y="727.0029">header desitination = payerDFSP</text><polygon fill="#181818" points="1266.5,758.2109,1276.5,762.2109,1266.5,766.2109,1270.5,762.2109" style="stroke:#181818;stroke-width:1.0;"/><line style="stroke:#181818;stroke-width:1.0;" x1="992.5" x2="1272.5" y1="762.2109" y2="762.2109"/><text fill="#000000" font-family="sans-serif" font-size="13" font-weight="bold" lengthAdjust="spacing" textLength="22" x="999.5" y="757.3545">[17]</text><text fill="#000000" font-family="sans-serif" font-size="13" lengthAdjust="spacing" textLength="149" x="1025.5" y="757.3545">Lookup payerDFSP proxy</text><line style="stroke:#181818;stroke-width:1.0;" x1="813.5" x2="823.5" y1="792.5625" y2="788.5625"/><line style="stroke:#181818;stroke-width:1.0;" x1="813.5" x2="823.5" y1="792.5625" y2="796.5625"/><line style="stroke:#181818;stroke-width:1.0;" x1="812.5" x2="991.5" y1="792.5625" y2="792.5625"/><text fill="#000000" font-family="sans-serif" font-size="13" font-weight="bold" lengthAdjust="spacing" textLength="22" x="829.5" y="787.7061">[18]</text><text fill="#000000" font-family="sans-serif" font-size="13" font-weight="bold" lengthAdjust="spacing" textLength="26" x="855.5" y="787.7061">PUT</text><text fill="#000000" font-family="sans-serif" font-size="13" lengthAdjust="spacing" textLength="97" x="885.5" y="787.7061">/parties/{ID}/error</text><line style="stroke:#181818;stroke-width:1.0;" x1="812.5" x2="854.5" y1="822.9141" y2="822.9141"/><line style="stroke:#181818;stroke-width:1.0;" x1="854.5" x2="854.5" y1="822.9141" y2="835.9141"/><line style="stroke:#181818;stroke-width:1.0;" x1="813.5" x2="854.5" y1="835.9141" y2="835.9141"/><polygon fill="#181818" points="823.5,831.9141,813.5,835.9141,823.5,839.9141,819.5,835.9141" style="stroke:#181818;stroke-width:1.0;"/><text fill="#000000" font-family="sans-serif" font-size="13" font-weight="bold" lengthAdjust="spacing" textLength="22" x="819.5" y="818.0576">[19]</text><text fill="#000000" font-family="sans-serif" font-size="13" lengthAdjust="spacing" textLength="66" x="845.5" y="818.0576">Add header</text><path d="M634,809.0625 L634,835.0625 L807,835.0625 L807,819.0625 L797,809.0625 L634,809.0625 " fill="#FEFFDD" style="stroke:#181818;stroke-width:0.5;"/><path d="M797,809.0625 L797,819.0625 L807,819.0625 L797,809.0625 " fill="#FEFFDD" style="stroke:#181818;stroke-width:0.5;"/><text fill="#000000" font-family="sans-serif" font-size="13" lengthAdjust="spacing" textLength="152" x="640" y="827.5576">fxpiop-proxy = "Proxy AB"</text><line style="stroke:#181818;stroke-width:1.0;" x1="377" x2="387" y1="866.2656" y2="862.2656"/><line style="stroke:#181818;stroke-width:1.0;" x1="377" x2="387" y1="866.2656" y2="870.2656"/><line style="stroke:#181818;stroke-width:1.0;" x1="376" x2="811.5" y1="866.2656" y2="866.2656"/><text fill="#000000" font-family="sans-serif" font-size="13" font-weight="bold" lengthAdjust="spacing" textLength="22" x="393" y="861.4092">[20]</text><text fill="#000000" font-family="sans-serif" font-size="13" font-weight="bold" lengthAdjust="spacing" textLength="26" x="419" y="861.4092">PUT</text><text fill="#000000" font-family="sans-serif" font-size="13" lengthAdjust="spacing" textLength="97" x="449" y="861.4092">/parties/{ID}/error</text><path d="M107,881.2656 L168,881.2656 L168,889.6172 L158,899.6172 L107,899.6172 L107,881.2656 " fill="#EEEEEE" style="stroke:#000000;stroke-width:1.5;"/><rect fill="none" height="209.8125" style="stroke:#000000;stroke-width:1.5;" width="566" x="107" y="881.2656"/><text fill="#000000" font-family="sans-serif" font-size="13" font-weight="bold" lengthAdjust="spacing" textLength="16" x="122" y="895.7607">alt</text><text fill="#000000" font-family="sans-serif" font-size="11" font-weight="bold" lengthAdjust="spacing" textLength="307" x="183" y="894.6846">[message from proxy &amp; error &amp; desitination in scheme]</text><path d="M117,904.6172 L117,963.6172 L371,963.6172 L371,914.6172 L361,904.6172 L117,904.6172 " fill="#FEFFDD" style="stroke:#181818;stroke-width:0.5;"/><path d="M361,904.6172 L361,914.6172 L371,914.6172 L361,904.6172 " fill="#FEFFDD" style="stroke:#181818;stroke-width:0.5;"/><text fill="#000000" font-family="sans-serif" font-size="13" lengthAdjust="spacing" textLength="152" x="123" y="923.1123">fxpiop-proxy = "Proxy AB"</text><text fill="#000000" font-family="sans-serif" font-size="13" lengthAdjust="spacing" textLength="106" x="123" y="939.4639">Error Code = 5107</text><text fill="#000000" font-family="sans-serif" font-size="13" lengthAdjust="spacing" textLength="233" x="123" y="955.8154">Destination = Payer DFSP in Scheme A</text><polygon fill="#181818" points="612,1003.375,622,1007.375,612,1011.375,616,1007.375" style="stroke:#181818;stroke-width:1.0;"/><line style="stroke:#181818;stroke-width:1.0;" x1="376" x2="618" y1="1007.375" y2="1007.375"/><text fill="#000000" font-family="sans-serif" font-size="13" font-weight="bold" lengthAdjust="spacing" textLength="22" x="383" y="994.3428">[21]</text><text fill="#000000" font-family="sans-serif" font-size="13" lengthAdjust="spacing" textLength="155" x="409" y="986.167">Remove mapping in Oracle</text><text fill="#000000" font-family="sans-serif" font-size="13" lengthAdjust="spacing" textLength="4" x="409" y="1002.5186">&#160;</text><text fill="#000000" font-family="sans-serif" font-size="13" font-weight="bold" lengthAdjust="spacing" textLength="49" x="413" y="1002.5186">DELETE</text><text fill="#000000" font-family="sans-serif" font-size="13" lengthAdjust="spacing" textLength="135" x="466" y="1002.5186">\participants\{Type}\{ID}</text><line style="stroke:#181818;stroke-width:1.0;" x1="376" x2="418" y1="1037.7266" y2="1037.7266"/><line style="stroke:#181818;stroke-width:1.0;" x1="418" x2="418" y1="1037.7266" y2="1050.7266"/><line style="stroke:#181818;stroke-width:1.0;" x1="377" x2="418" y1="1050.7266" y2="1050.7266"/><line style="stroke:#181818;stroke-width:1.0;" x1="377" x2="387" y1="1050.7266" y2="1046.7266"/><line style="stroke:#181818;stroke-width:1.0;" x1="377" x2="387" y1="1050.7266" y2="1054.7266"/><text fill="#000000" font-family="sans-serif" font-size="13" font-weight="bold" lengthAdjust="spacing" textLength="22" x="383" y="1032.8701">[22]</text><text fill="#000000" font-family="sans-serif" font-size="13" lengthAdjust="spacing" textLength="208" x="409" y="1032.8701">Restart the ALS get parties process</text><line style="stroke:#000000;stroke-width:1.0;stroke-dasharray:2.0,2.0;" x1="107" x2="673" y1="1059.7266" y2="1059.7266"/><line style="stroke:#181818;stroke-width:1.0;" x1="197" x2="207" y1="1083.0781" y2="1079.0781"/><line style="stroke:#181818;stroke-width:1.0;" x1="197" x2="207" y1="1083.0781" y2="1087.0781"/><line style="stroke:#181818;stroke-width:1.0;" x1="196" x2="375" y1="1083.0781" y2="1083.0781"/><text fill="#000000" font-family="sans-serif" font-size="13" font-weight="bold" lengthAdjust="spacing" textLength="22" x="213" y="1078.2217">[23]</text><text fill="#000000" font-family="sans-serif" font-size="13" font-weight="bold" lengthAdjust="spacing" textLength="26" x="239" y="1078.2217">PUT</text><text fill="#000000" font-family="sans-serif" font-size="13" lengthAdjust="spacing" textLength="97" x="269" y="1078.2217">/parties/{ID}/error</text><!--SRC=[hLNHRjem57tFLrpbOKX8YFPXceJMJ0cmgHFJKCFMXp5L9hc0LR2Zn5b1LV-zrqxY9C2WavO7KEpZwtFEFNOKLnk4K37wdR9KxU4sHg7uacCAGnQjqN4I6kSHJvXGu4xPdcP6dyEf2oo3HB_gDsSXT-26j62BuBiEqDDQw4_2kR3pUYsDFFZ7mEyfYpPuW2q6Jy6dgTpj2we7QvBemTTm1qKCHCyviSuF37GdafQ0u8A0m0e8_ar0y3O1GIKWE2E0h4VT2Ti8D8rmMAwaoBSBwjCrk1yNtg-htwvkOzagw7bUOVu0kjqlurct2trJ6hF-ysoVu4l_-NRquWYf43QuL0wiaSLKBvDv6Y7SDFgkkMcWGyfCqPvdktLOlw1U50UBwlKidQNCgPmXUTEGL5Pk4ZSOsXUuWCoOra2PrW_WVYs1bzQO1HrwqMv_8gn9Hslhz8cbCIW9LJHQ-r94BjYbMqMedcUWVXoNhfc9XfVqB7S9bqdFa26bTHZDRDDIgcLb1-S9K50Ame5PeTCpWB3eMEbK4Qy1pCLV6So5Pjwfptb7MzAfvZkmPKd2nSfX6sNAVlivBUmCIkTfr-4QeqVuUXz2nbU2gJn57PGZdDvAu5DLK-yKcKkdjgic0eEwCvL5K3wEqLr7BtXJz8Ag_mIFbqbs8dIbbzNenGXOPBjhqn_jDGJkOvfA7GwZ8-MhjSb6UT9YpBZYP1sNedNU6l6e6PPsJgHyp9CQNAIzfQICyJa-_pV3xGZxbpRNgTfYbh4LmZALsq82l0C3eF-MCSt3RzdP3yivXcDJRYXZVPkzlxxwG6CZp1gMDu9dJmxun_wR2wU-yUvmA_-WJJGjhRu7f7mqdendOn8_RuGocnSHcfj3VEgokoDYX0UrHZq4ArHGkgVzYSWlpMkJONq9UpO5votNn_8L]--></g></svg>