<?xml version="1.0" encoding="us-ascii" standalone="no"?><svg xmlns="http://www.w3.org/2000/svg" xmlns:xlink="http://www.w3.org/1999/xlink" contentStyleType="text/css" height="744px" preserveAspectRatio="none" style="width:1236px;height:744px;background:#FFFFFF;" version="1.1" viewBox="0 0 1236 744" width="1236px" zoomAndPan="magnify"><defs/><g><text fill="#000000" font-family="sans-serif" font-size="14" font-weight="bold" lengthAdjust="spacing" textLength="200" x="519" y="29.5332">Interscheme - GET Transfers</text><rect fill="#DDDDDD" height="693.5234" style="stroke:#181818;stroke-width:0.5;" width="269" x="306" y="44.6094"/><text fill="#000000" font-family="sans-serif" font-size="13" font-weight="bold" lengthAdjust="spacing" textLength="65" x="408" y="58.1045">Scheme A</text><rect fill="#DDDDDD" height="693.5234" style="stroke:#181818;stroke-width:0.5;" width="349" x="658" y="44.6094"/><text fill="#000000" font-family="sans-serif" font-size="13" font-weight="bold" lengthAdjust="spacing" textLength="65" x="800" y="58.1045">Scheme B</text><line style="stroke:#181818;stroke-width:0.5;stroke-dasharray:5.0,5.0;" x1="190" x2="190" y1="115.1797" y2="684.9141"/><line style="stroke:#181818;stroke-width:0.5;stroke-dasharray:5.0,5.0;" x1="349" x2="349" y1="115.1797" y2="684.9141"/><line style="stroke:#181818;stroke-width:0.5;stroke-dasharray:5.0,5.0;" x1="524" x2="524" y1="115.1797" y2="684.9141"/><line style="stroke:#181818;stroke-width:0.5;stroke-dasharray:5.0,5.0;" x1="616" x2="616" y1="115.1797" y2="684.9141"/><line style="stroke:#181818;stroke-width:0.5;stroke-dasharray:5.0,5.0;" x1="701" x2="701" y1="115.1797" y2="684.9141"/><line style="stroke:#181818;stroke-width:0.5;stroke-dasharray:5.0,5.0;" x1="956" x2="956" y1="115.1797" y2="684.9141"/><line style="stroke:#181818;stroke-width:0.5;stroke-dasharray:5.0,5.0;" x1="1056" x2="1056" y1="115.1797" y2="684.9141"/><rect fill="#E2E2F0" height="31.6094" rx="2.5" ry="2.5" style="stroke:#181818;stroke-width:0.5;" width="92" x="144" y="82.5703"/><text fill="#000000" font-family="sans-serif" font-size="14" lengthAdjust="spacing" textLength="78" x="151" y="104.1035">Payer DFSP</text><rect fill="#E2E2F0" height="31.6094" rx="2.5" ry="2.5" style="stroke:#181818;stroke-width:0.5;" width="92" x="144" y="683.9141"/><text fill="#000000" font-family="sans-serif" font-size="14" lengthAdjust="spacing" textLength="78" x="151" y="705.4473">Payer DFSP</text><rect fill="#E2E2F0" height="49.2188" rx="2.5" ry="2.5" style="stroke:#181818;stroke-width:0.5;" width="78" x="310" y="64.9609"/><text fill="#000000" font-family="sans-serif" font-size="14" lengthAdjust="spacing" textLength="57" x="320.5" y="86.4941">Mojaloop</text><text fill="#000000" font-family="sans-serif" font-size="14" lengthAdjust="spacing" textLength="64" x="317" y="104.1035">Scheme A</text><rect fill="#E2E2F0" height="49.2188" rx="2.5" ry="2.5" style="stroke:#181818;stroke-width:0.5;" width="78" x="310" y="683.9141"/><text fill="#000000" font-family="sans-serif" font-size="14" lengthAdjust="spacing" textLength="57" x="320.5" y="705.4473">Mojaloop</text><text fill="#000000" font-family="sans-serif" font-size="14" lengthAdjust="spacing" textLength="64" x="317" y="723.0566">Scheme A</text><rect fill="#E2E2F0" height="49.2188" rx="2.5" ry="2.5" style="stroke:#181818;stroke-width:0.5;" width="94" x="477" y="64.9609"/><text fill="#000000" font-family="sans-serif" font-size="14" lengthAdjust="spacing" textLength="80" x="484" y="86.4941">Proxy Cache</text><text fill="#000000" font-family="sans-serif" font-size="14" lengthAdjust="spacing" textLength="64" x="492" y="104.1035">Scheme A</text><rect fill="#E2E2F0" height="49.2188" rx="2.5" ry="2.5" style="stroke:#181818;stroke-width:0.5;" width="94" x="477" y="683.9141"/><text fill="#000000" font-family="sans-serif" font-size="14" lengthAdjust="spacing" textLength="80" x="484" y="705.4473">Proxy Cache</text><text fill="#000000" font-family="sans-serif" font-size="14" lengthAdjust="spacing" textLength="64" x="492" y="723.0566">Scheme A</text><rect fill="#E2E2F0" height="31.6094" rx="2.5" ry="2.5" style="stroke:#181818;stroke-width:0.5;" width="71" x="581" y="82.5703"/><text fill="#000000" font-family="sans-serif" font-size="14" lengthAdjust="spacing" textLength="57" x="588" y="104.1035">Proxy AB</text><rect fill="#E2E2F0" height="31.6094" rx="2.5" ry="2.5" style="stroke:#181818;stroke-width:0.5;" width="71" x="581" y="683.9141"/><text fill="#000000" font-family="sans-serif" font-size="14" lengthAdjust="spacing" textLength="57" x="588" y="705.4473">Proxy AB</text><rect fill="#E2E2F0" height="49.2188" rx="2.5" ry="2.5" style="stroke:#181818;stroke-width:0.5;" width="78" x="662" y="64.9609"/><text fill="#000000" font-family="sans-serif" font-size="14" lengthAdjust="spacing" textLength="57" x="672.5" y="86.4941">Mojaloop</text><text fill="#000000" font-family="sans-serif" font-size="14" lengthAdjust="spacing" textLength="64" x="669" y="104.1035">Scheme B</text><rect fill="#E2E2F0" height="49.2188" rx="2.5" ry="2.5" style="stroke:#181818;stroke-width:0.5;" width="78" x="662" y="683.9141"/><text fill="#000000" font-family="sans-serif" font-size="14" lengthAdjust="spacing" textLength="57" x="672.5" y="705.4473">Mojaloop</text><text fill="#000000" font-family="sans-serif" font-size="14" lengthAdjust="spacing" textLength="64" x="669" y="723.0566">Scheme B</text><rect fill="#E2E2F0" height="49.2188" rx="2.5" ry="2.5" style="stroke:#181818;stroke-width:0.5;" width="94" x="909" y="64.9609"/><text fill="#000000" font-family="sans-serif" font-size="14" lengthAdjust="spacing" textLength="80" x="916" y="86.4941">Proxy Cache</text><text fill="#000000" font-family="sans-serif" font-size="14" lengthAdjust="spacing" textLength="64" x="924" y="104.1035">Scheme B</text><rect fill="#E2E2F0" height="49.2188" rx="2.5" ry="2.5" style="stroke:#181818;stroke-width:0.5;" width="94" x="909" y="683.9141"/><text fill="#000000" font-family="sans-serif" font-size="14" lengthAdjust="spacing" textLength="80" x="916" y="705.4473">Proxy Cache</text><text fill="#000000" font-family="sans-serif" font-size="14" lengthAdjust="spacing" textLength="64" x="924" y="723.0566">Scheme B</text><rect fill="#E2E2F0" height="31.6094" rx="2.5" ry="2.5" style="stroke:#181818;stroke-width:0.5;" width="86" x="1013" y="82.5703"/><text fill="#000000" font-family="sans-serif" font-size="14" lengthAdjust="spacing" textLength="72" x="1020" y="104.1035">Payee DFS</text><rect fill="#E2E2F0" height="31.6094" rx="2.5" ry="2.5" style="stroke:#181818;stroke-width:0.5;" width="86" x="1013" y="683.9141"/><text fill="#000000" font-family="sans-serif" font-size="14" lengthAdjust="spacing" textLength="72" x="1020" y="705.4473">Payee DFS</text><line style="stroke:#181818;stroke-width:1.0;" x1="347" x2="337" y1="175.0586" y2="171.0586"/><line style="stroke:#181818;stroke-width:1.0;" x1="347" x2="337" y1="175.0586" y2="179.0586"/><line style="stroke:#181818;stroke-width:1.0;" x1="190" x2="348" y1="175.0586" y2="175.0586"/><text fill="#000000" font-family="sans-serif" font-size="13" font-weight="bold" lengthAdjust="spacing" textLength="15" x="197" y="170.2021">[1]</text><text fill="#000000" font-family="sans-serif" font-size="13" lengthAdjust="spacing" textLength="116" x="216" y="170.2021">GET /transfers/1234</text><path d="M5,130.1797 L5,205.1797 L185,205.1797 L185,140.1797 L175,130.1797 L5,130.1797 " fill="#FEFFDD" style="stroke:#181818;stroke-width:0.5;"/><path d="M175,130.1797 L175,140.1797 L185,140.1797 L175,130.1797 " fill="#FEFFDD" style="stroke:#181818;stroke-width:0.5;"/><text fill="#000000" font-family="sans-serif" font-size="13" lengthAdjust="spacing" textLength="39" x="11" y="148.6748">header</text><text fill="#000000" font-family="sans-serif" font-size="13" lengthAdjust="spacing" textLength="114" x="19" y="165.0264">source: payerDFSP</text><text fill="#000000" font-family="sans-serif" font-size="13" lengthAdjust="spacing" textLength="141" x="19" y="181.3779">destination: payeeDFSP</text><text fill="#000000" font-family="sans-serif" font-size="13" lengthAdjust="spacing" textLength="159" x="11" y="197.7295">JWS signed by payerDFSP</text><line style="stroke:#181818;stroke-width:1.0;" x1="191" x2="201" y1="232.9375" y2="228.9375"/><line style="stroke:#181818;stroke-width:1.0;" x1="191" x2="201" y1="232.9375" y2="236.9375"/><line style="stroke:#181818;stroke-width:1.0;stroke-dasharray:2.0,2.0;" x1="190" x2="348" y1="232.9375" y2="232.9375"/><text fill="#000000" font-family="sans-serif" font-size="13" font-weight="bold" lengthAdjust="spacing" textLength="15" x="207" y="228.0811">[2]</text><text fill="#000000" font-family="sans-serif" font-size="13" lengthAdjust="spacing" textLength="44" x="226" y="228.0811">202 OK</text><line style="stroke:#181818;stroke-width:1.0;" x1="349" x2="391" y1="263.2891" y2="263.2891"/><line style="stroke:#181818;stroke-width:1.0;" x1="391" x2="391" y1="263.2891" y2="276.2891"/><line style="stroke:#181818;stroke-width:1.0;" x1="350" x2="391" y1="276.2891" y2="276.2891"/><polygon fill="#181818" points="360,272.2891,350,276.2891,360,280.2891,356,276.2891" style="stroke:#181818;stroke-width:1.0;"/><text fill="#000000" font-family="sans-serif" font-size="13" font-weight="bold" lengthAdjust="spacing" textLength="15" x="356" y="258.4326">[3]</text><text fill="#000000" font-family="sans-serif" font-size="13" lengthAdjust="spacing" textLength="142" x="375" y="258.4326">Load transfer information</text><line style="stroke:#181818;stroke-width:1.0;" x1="191" x2="201" y1="334.168" y2="330.168"/><line style="stroke:#181818;stroke-width:1.0;" x1="191" x2="201" y1="334.168" y2="338.168"/><line style="stroke:#181818;stroke-width:1.0;" x1="190" x2="348" y1="334.168" y2="334.168"/><text fill="#000000" font-family="sans-serif" font-size="13" font-weight="bold" lengthAdjust="spacing" textLength="15" x="207" y="329.3115">[4]</text><text fill="#000000" font-family="sans-serif" font-size="13" lengthAdjust="spacing" textLength="115" x="226" y="329.3115">PUT /transfers/1234</text><path d="M354,289.2891 L354,364.2891 L522,364.2891 L522,299.2891 L512,289.2891 L354,289.2891 " fill="#FEFFDD" style="stroke:#181818;stroke-width:0.5;"/><path d="M512,289.2891 L512,299.2891 L522,299.2891 L512,289.2891 " fill="#FEFFDD" style="stroke:#181818;stroke-width:0.5;"/><text fill="#000000" font-family="sans-serif" font-size="13" lengthAdjust="spacing" textLength="39" x="360" y="307.7842">header</text><text fill="#000000" font-family="sans-serif" font-size="13" lengthAdjust="spacing" textLength="102" x="368" y="324.1357">source: schemeB</text><text fill="#000000" font-family="sans-serif" font-size="13" lengthAdjust="spacing" textLength="138" x="368" y="340.4873">destination: payerDFSP</text><text fill="#000000" font-family="sans-serif" font-size="13" lengthAdjust="spacing" textLength="147" x="360" y="356.8389">JWS signed by schemeB</text><line style="stroke:#181818;stroke-width:1.0;" x1="347" x2="337" y1="392.0469" y2="388.0469"/><line style="stroke:#181818;stroke-width:1.0;" x1="347" x2="337" y1="392.0469" y2="396.0469"/><line style="stroke:#181818;stroke-width:1.0;stroke-dasharray:2.0,2.0;" x1="190" x2="348" y1="392.0469" y2="392.0469"/><text fill="#000000" font-family="sans-serif" font-size="13" font-weight="bold" lengthAdjust="spacing" textLength="15" x="197" y="387.1904">[5]</text><text fill="#000000" font-family="sans-serif" font-size="13" lengthAdjust="spacing" textLength="44" x="216" y="387.1904">200 OK</text><line style="stroke:#181818;stroke-width:1.0;" x1="702" x2="712" y1="441.75" y2="437.75"/><line style="stroke:#181818;stroke-width:1.0;" x1="702" x2="712" y1="441.75" y2="445.75"/><line style="stroke:#181818;stroke-width:1.0;" x1="701" x2="1055" y1="441.75" y2="441.75"/><text fill="#000000" font-family="sans-serif" font-size="13" font-weight="bold" lengthAdjust="spacing" textLength="15" x="718" y="436.8936">[6]</text><text fill="#000000" font-family="sans-serif" font-size="13" lengthAdjust="spacing" textLength="116" x="737" y="436.8936">GET /transfers/1234</text><path d="M1061,405.0469 L1061,464.0469 L1229,464.0469 L1229,415.0469 L1219,405.0469 L1061,405.0469 " fill="#FEFFDD" style="stroke:#181818;stroke-width:0.5;"/><path d="M1219,405.0469 L1219,415.0469 L1229,415.0469 L1219,405.0469 " fill="#FEFFDD" style="stroke:#181818;stroke-width:0.5;"/><text fill="#000000" font-family="sans-serif" font-size="13" lengthAdjust="spacing" textLength="39" x="1067" y="423.542">header</text><text fill="#000000" font-family="sans-serif" font-size="13" lengthAdjust="spacing" textLength="106" x="1075" y="439.8936">source: scheme A</text><text fill="#000000" font-family="sans-serif" font-size="13" lengthAdjust="spacing" textLength="147" x="1067" y="456.2451">JWS signed by schemeA</text><line style="stroke:#181818;stroke-width:1.0;" x1="1054" x2="1044" y1="491.4531" y2="487.4531"/><line style="stroke:#181818;stroke-width:1.0;" x1="1054" x2="1044" y1="491.4531" y2="495.4531"/><line style="stroke:#181818;stroke-width:1.0;stroke-dasharray:2.0,2.0;" x1="701" x2="1055" y1="491.4531" y2="491.4531"/><text fill="#000000" font-family="sans-serif" font-size="13" font-weight="bold" lengthAdjust="spacing" textLength="15" x="708" y="486.5967">[7]</text><text fill="#000000" font-family="sans-serif" font-size="13" lengthAdjust="spacing" textLength="44" x="727" y="486.5967">202 OK</text><line style="stroke:#181818;stroke-width:1.0;" x1="701" x2="743" y1="538.1563" y2="538.1563"/><line style="stroke:#181818;stroke-width:1.0;" x1="743" x2="743" y1="538.1563" y2="551.1563"/><line style="stroke:#181818;stroke-width:1.0;" x1="702" x2="743" y1="551.1563" y2="551.1563"/><polygon fill="#181818" points="712,547.1563,702,551.1563,712,555.1563,708,551.1563" style="stroke:#181818;stroke-width:1.0;"/><text fill="#000000" font-family="sans-serif" font-size="13" font-weight="bold" lengthAdjust="spacing" textLength="15" x="708" y="525.124">[8]</text><text fill="#000000" font-family="sans-serif" font-size="13" lengthAdjust="spacing" textLength="142" x="727" y="516.9482">Load transfer informtaion</text><text fill="#000000" font-family="sans-serif" font-size="13" lengthAdjust="spacing" textLength="222" x="727" y="533.2998">and check if payeeDFSP is in scheme</text><line style="stroke:#181818;stroke-width:1.0;" x1="1054" x2="1044" y1="617.2109" y2="613.2109"/><line style="stroke:#181818;stroke-width:1.0;" x1="1054" x2="1044" y1="617.2109" y2="621.2109"/><line style="stroke:#181818;stroke-width:1.0;" x1="701" x2="1055" y1="617.2109" y2="617.2109"/><text fill="#000000" font-family="sans-serif" font-size="13" font-weight="bold" lengthAdjust="spacing" textLength="15" x="708" y="604.1787">[9]</text><text fill="#000000" font-family="sans-serif" font-size="13" lengthAdjust="spacing" textLength="131" x="727" y="596.0029">Yes; return information</text><text fill="#000000" font-family="sans-serif" font-size="13" lengthAdjust="spacing" textLength="115" x="727" y="612.3545">PUT /transfers/1234</text><path d="M526,564.1563 L526,639.1563 L696,639.1563 L696,574.1563 L686,564.1563 L526,564.1563 " fill="#FEFFDD" style="stroke:#181818;stroke-width:0.5;"/><path d="M686,564.1563 L686,574.1563 L696,574.1563 L686,564.1563 " fill="#FEFFDD" style="stroke:#181818;stroke-width:0.5;"/><text fill="#000000" font-family="sans-serif" font-size="13" lengthAdjust="spacing" textLength="39" x="532" y="582.6514">header</text><text fill="#000000" font-family="sans-serif" font-size="13" lengthAdjust="spacing" textLength="102" x="540" y="599.0029">source: schemeB</text><text fill="#000000" font-family="sans-serif" font-size="13" lengthAdjust="spacing" textLength="141" x="540" y="615.3545">destination: payeeDFSP</text><text fill="#000000" font-family="sans-serif" font-size="13" lengthAdjust="spacing" textLength="147" x="532" y="631.7061">JWS signed by schemeB</text><line style="stroke:#181818;stroke-width:1.0;" x1="1054" x2="1044" y1="666.9141" y2="662.9141"/><line style="stroke:#181818;stroke-width:1.0;" x1="1054" x2="1044" y1="666.9141" y2="670.9141"/><line style="stroke:#181818;stroke-width:1.0;stroke-dasharray:2.0,2.0;" x1="701" x2="1055" y1="666.9141" y2="666.9141"/><text fill="#000000" font-family="sans-serif" font-size="13" font-weight="bold" lengthAdjust="spacing" textLength="22" x="708" y="662.0576">[10]</text><text fill="#000000" font-family="sans-serif" font-size="13" lengthAdjust="spacing" textLength="44" x="734" y="662.0576">200 OK</text><!--SRC=[ZP9RRu9048NVzrTCU3TIsYVQcB2zfRUKH9kcgKspmg3RwYvPbaJ_VHVaiYfO7vUPENFcEsYkbmWFGgFAeWMk40PmVpk1YM8YIyn7GbAcD8zuoeG69sGRL71pDmuTO1canRDuaPbSmtYh4120dQ4N-SEMKgPJKNUKmzk51zsXakiDN3DJtHj8e- -0e8Z1B2CTCm4jszOYjUtGV-rGomuznGwjxT0UEmOB5fGQI5X28YpNKkIhcM5u1ixLRFJfVZa5uWeZ34QZcejV1Z7KTHB3C-_yWWYf4PQOQB905XiTupUJkOhGjz80Y37JN33DfV0j1u_lOyZuNA1nlR46YZCAQL8jXq7XfAdxuBaUl3wrPSlcisGnr3Q1YqIgLRcOaBhVY5bQuLlFNOhF5rs7jT4SdAKwpghRcwCilZk0FTSjZY8D7rEjXe_GF-xI_FvTRe9znBH5Z1s8QOkOTYFMp42O2cPaJLlq2pnfrO1dfgqIg2Mh5Afr7vXTWaATAs67DXMzyVJyTaVImLFIwUUnJUSF]--></g></svg>