<svg xmlns="http://www.w3.org/2000/svg" xmlns:xlink="http://www.w3.org/1999/xlink" contentStyleType="text/css" height="969px" preserveAspectRatio="none" style="width:2618px;height:969px;background:#FFFFFF;" version="1.1" viewBox="0 0 2618 969" width="2618px" zoomAndPan="magnify">
  <title>1.1.4.a. Envoi de notification au participant (Payeur / Bénéficiaire / FXP) (message unique) v2.0</title>
  <defs/>
  <g>
    <text fill="#000000" font-family="sans-serif" font-size="14" font-weight="bold" lengthAdjust="spacing" textLength="756.9434" x="927.636" y="27.9951">1.1.4.a. Envoi de notification au participant (Payeur / Bénéficiaire / FXP) (message unique) v2.0</text>
    <rect fill="#D3D3D3" height="920.6406" style="stroke:#181818;stroke-width:0.5;" width="324.9697" x="1" y="43.2969"/>
    <text fill="#000000" font-family="sans-serif" font-size="13" font-weight="bold" lengthAdjust="spacing" textLength="318.9697" x="4" y="55.3638">Fournisseur de services financiers (payeur)</text>
    <rect fill="#ADD8E6" height="920.6406" style="stroke:#181818;stroke-width:0.5;" width="363.4326" x="505.7769" y="43.2969"/>
    <text fill="#000000" font-family="sans-serif" font-size="13" font-weight="bold" lengthAdjust="spacing" textLength="195.1079" x="589.9392" y="55.3638">Service adaptateur ML API</text>
    <rect fill="#FFFFE0" height="920.6406" style="stroke:#181818;stroke-width:0.5;" width="1277.1045" x="916.5825" y="43.2969"/>
    <text fill="#000000" font-family="sans-serif" font-size="13" font-weight="bold" lengthAdjust="spacing" textLength="110.2017" x="1500.0339" y="55.3638">Service central</text>
    <rect fill="#D3D3D3" height="920.6406" style="stroke:#181818;stroke-width:0.5;" width="416.5283" x="2195.687" y="43.2969"/>
    <text fill="#000000" font-family="sans-serif" font-size="13" font-weight="bold" lengthAdjust="spacing" textLength="410.5283" x="2198.687" y="55.3638">Fournisseur de services financiers (bénéficiaire ou FXP)</text>
    <rect fill="#FFFFFF" height="693.3203" style="stroke:#181818;stroke-width:1.0;" width="10" x="682.4932" y="165.0234"/>
    <rect fill="#FFFFFF" height="30" style="stroke:#181818;stroke-width:1.0;" width="10" x="986.0684" y="260.5547"/>
    <rect fill="#FFFFFF" height="209.0625" style="stroke:#181818;stroke-width:1.0;" width="10" x="1336.4336" y="385.0859"/>
    <rect fill="#FFFFFF" height="120.5313" style="stroke:#181818;stroke-width:1.0;" width="10" x="1729.5171" y="429.3516"/>
    <rect fill="#FFFFFF" height="62.2656" style="stroke:#181818;stroke-width:1.0;" width="10" x="2122.6006" y="458.4844"/>
    <rect fill="none" height="679.3203" style="stroke:#000000;stroke-width:1.5;" width="2412.5415" x="105.6821" y="172.0234"/>
    <rect fill="none" height="146.6641" style="stroke:#000000;stroke-width:1.5;" width="2018.4468" x="489.7769" y="697.6797"/>
    <rect fill="none" height="115.5313" style="stroke:#000000;stroke-width:1.5;" width="1998.4468" x="499.7769" y="721.8125"/>
    <line style="stroke:#181818;stroke-width:0.5;stroke-dasharray:5.0,5.0;" x1="162.6821" x2="162.6821" y1="155.0234" y2="868.3438"/>
    <line style="stroke:#181818;stroke-width:0.5;stroke-dasharray:5.0,5.0;" x1="686.7769" x2="686.7769" y1="155.0234" y2="868.3438"/>
    <line style="stroke:#181818;stroke-width:0.5;stroke-dasharray:5.0,5.0;" x1="990.5825" x2="990.5825" y1="155.0234" y2="868.3438"/>
    <line style="stroke:#181818;stroke-width:0.5;stroke-dasharray:5.0,5.0;" x1="1341.2813" x2="1341.2813" y1="155.0234" y2="868.3438"/>
    <line style="stroke:#181818;stroke-width:0.5;stroke-dasharray:5.0,5.0;" x1="1733.8179" x2="1733.8179" y1="155.0234" y2="868.3438"/>
    <line style="stroke:#181818;stroke-width:0.5;stroke-dasharray:5.0,5.0;" x1="2127.5142" x2="2127.5142" y1="155.0234" y2="868.3438"/>
    <line style="stroke:#181818;stroke-width:0.5;stroke-dasharray:5.0,5.0;" x1="2403.6787" x2="2403.6787" y1="155.0234" y2="868.3438"/>
    <text fill="#000000" font-family="sans-serif" font-size="14" lengthAdjust="spacing" textLength="89.6055" x="115.6821" y="135.4248">DFSP payeur</text>
    <text fill="#000000" font-family="sans-serif" font-size="14" lengthAdjust="spacing" textLength="75.5713" x="122.6992" y="151.7217">Participant</text>
    <ellipse cx="163.4849" cy="70.9297" fill="#E2E2F0" rx="8" ry="8" style="stroke:#181818;stroke-width:0.5;"/>
    <path d="M163.4849,78.9297 L163.4849,105.9297 M150.4849,86.9297 L176.4849,86.9297 M163.4849,105.9297 L150.4849,120.9297 M163.4849,105.9297 L176.4849,120.9297 " fill="none" style="stroke:#181818;stroke-width:0.5;"/>
    <text fill="#000000" font-family="sans-serif" font-size="14" lengthAdjust="spacing" textLength="89.6055" x="115.6821" y="880.3389">DFSP payeur</text>
    <text fill="#000000" font-family="sans-serif" font-size="14" lengthAdjust="spacing" textLength="75.5713" x="122.6992" y="896.6357">Participant</text>
    <ellipse cx="163.4849" cy="908.4375" fill="#E2E2F0" rx="8" ry="8" style="stroke:#181818;stroke-width:0.5;"/>
    <path d="M163.4849,916.4375 L163.4849,943.4375 M150.4849,924.4375 L176.4849,924.4375 M163.4849,943.4375 L150.4849,958.4375 M163.4849,943.4375 L176.4849,958.4375 " fill="none" style="stroke:#181818;stroke-width:0.5;"/>
    <text fill="#000000" font-family="sans-serif" font-size="14" lengthAdjust="spacing" textLength="349.4326" x="509.7769" y="151.7217">Gestionnaire d&apos;événements de notification ML API</text>
    <ellipse cx="687.4932" cy="122.7266" fill="#E2E2F0" rx="12" ry="12" style="stroke:#181818;stroke-width:0.5;"/>
    <polygon fill="#181818" points="683.4932,110.7266,689.4932,105.7266,687.4932,110.7266,689.4932,115.7266,683.4932,110.7266" style="stroke:#181818;stroke-width:1.0;"/>
    <text fill="#000000" font-family="sans-serif" font-size="14" lengthAdjust="spacing" textLength="349.4326" x="509.7769" y="880.3389">Gestionnaire d&apos;événements de notification ML API</text>
    <ellipse cx="687.4932" cy="899.6406" fill="#E2E2F0" rx="12" ry="12" style="stroke:#181818;stroke-width:0.5;"/>
    <polygon fill="#181818" points="683.4932,887.6406,689.4932,882.6406,687.4932,887.6406,689.4932,892.6406,683.4932,887.6406" style="stroke:#181818;stroke-width:1.0;"/>
    <rect fill="#E2E2F0" height="30.2969" style="stroke:#181818;stroke-width:0.5;" width="136.9717" x="924.5825" y="119.7266"/>
    <rect fill="#E2E2F0" height="30.2969" style="stroke:#181818;stroke-width:0.5;" width="136.9717" x="920.5825" y="123.7266"/>
    <text fill="#000000" font-family="sans-serif" font-size="14" lengthAdjust="spacing" textLength="122.9717" x="927.5825" y="143.7217">Notification-Topic</text>
    <rect fill="#E2E2F0" height="30.2969" style="stroke:#181818;stroke-width:0.5;" width="136.9717" x="924.5825" y="867.3438"/>
    <rect fill="#E2E2F0" height="30.2969" style="stroke:#181818;stroke-width:0.5;" width="136.9717" x="920.5825" y="871.3438"/>
    <text fill="#000000" font-family="sans-serif" font-size="14" lengthAdjust="spacing" textLength="122.9717" x="927.5825" y="891.3389">Notification-Topic</text>
    <text fill="#000000" font-family="sans-serif" font-size="14" lengthAdjust="spacing" textLength="152.3047" x="1262.2813" y="151.7217">API du service central</text>
    <path d="M1320.9336,110.7266 L1320.9336,134.7266 M1320.9336,122.7266 L1337.9336,122.7266 " fill="none" style="stroke:#181818;stroke-width:0.5;"/>
    <ellipse cx="1349.9336" cy="122.7266" fill="#E2E2F0" rx="12" ry="12" style="stroke:#181818;stroke-width:0.5;"/>
    <text fill="#000000" font-family="sans-serif" font-size="14" lengthAdjust="spacing" textLength="152.3047" x="1262.2813" y="880.3389">API du service central</text>
    <path d="M1320.9336,887.6406 L1320.9336,911.6406 M1320.9336,899.6406 L1337.9336,899.6406 " fill="none" style="stroke:#181818;stroke-width:0.5;"/>
    <ellipse cx="1349.9336" cy="899.6406" fill="#E2E2F0" rx="12" ry="12" style="stroke:#181818;stroke-width:0.5;"/>
    <text fill="#000000" font-family="sans-serif" font-size="14" lengthAdjust="spacing" textLength="111.3984" x="1675.8179" y="151.7217">DAO Participant</text>
    <ellipse cx="1734.5171" cy="122.7266" fill="#E2E2F0" rx="12" ry="12" style="stroke:#181818;stroke-width:0.5;"/>
    <line style="stroke:#181818;stroke-width:0.5;" x1="1722.5171" x2="1746.5171" y1="136.7266" y2="136.7266"/>
    <text fill="#000000" font-family="sans-serif" font-size="14" lengthAdjust="spacing" textLength="111.3984" x="1675.8179" y="880.3389">DAO Participant</text>
    <ellipse cx="1734.5171" cy="899.6406" fill="#E2E2F0" rx="12" ry="12" style="stroke:#181818;stroke-width:0.5;"/>
    <line style="stroke:#181818;stroke-width:0.5;" x1="1722.5171" x2="1746.5171" y1="913.6406" y2="913.6406"/>
    <text fill="#000000" font-family="sans-serif" font-size="14" lengthAdjust="spacing" textLength="118.1729" x="2065.5142" y="151.7217">Stockage central</text>
    <path d="M2109.6006,102.7266 C2109.6006,92.7266 2127.6006,92.7266 2127.6006,92.7266 C2127.6006,92.7266 2145.6006,92.7266 2145.6006,102.7266 L2145.6006,128.7266 C2145.6006,138.7266 2127.6006,138.7266 2127.6006,138.7266 C2127.6006,138.7266 2109.6006,138.7266 2109.6006,128.7266 L2109.6006,102.7266 " fill="#E2E2F0" style="stroke:#181818;stroke-width:1.5;"/>
    <path d="M2109.6006,102.7266 C2109.6006,112.7266 2127.6006,112.7266 2127.6006,112.7266 C2127.6006,112.7266 2145.6006,112.7266 2145.6006,102.7266 " fill="none" style="stroke:#181818;stroke-width:1.5;"/>
    <text fill="#000000" font-family="sans-serif" font-size="14" lengthAdjust="spacing" textLength="118.1729" x="2065.5142" y="880.3389">Stockage central</text>
    <path d="M2109.6006,893.6406 C2109.6006,883.6406 2127.6006,883.6406 2127.6006,883.6406 C2127.6006,883.6406 2145.6006,883.6406 2145.6006,893.6406 L2145.6006,919.6406 C2145.6006,929.6406 2127.6006,929.6406 2127.6006,929.6406 C2127.6006,929.6406 2109.6006,929.6406 2109.6006,919.6406 L2109.6006,893.6406 " fill="#E2E2F0" style="stroke:#181818;stroke-width:1.5;"/>
    <path d="M2109.6006,893.6406 C2109.6006,903.6406 2127.6006,903.6406 2127.6006,903.6406 C2127.6006,903.6406 2145.6006,903.6406 2145.6006,893.6406 " fill="none" style="stroke:#181818;stroke-width:1.5;"/>
    <text fill="#000000" font-family="sans-serif" font-size="14" lengthAdjust="spacing" textLength="162.5449" x="2319.6787" y="135.4248">DFSP bénéficiaire / FXP</text>
    <text fill="#000000" font-family="sans-serif" font-size="14" lengthAdjust="spacing" textLength="75.5713" x="2363.1655" y="151.7217">Participant</text>
    <ellipse cx="2403.9512" cy="70.9297" fill="#E2E2F0" rx="8" ry="8" style="stroke:#181818;stroke-width:0.5;"/>
    <path d="M2403.9512,78.9297 L2403.9512,105.9297 M2390.9512,86.9297 L2416.9512,86.9297 M2403.9512,105.9297 L2390.9512,120.9297 M2403.9512,105.9297 L2416.9512,120.9297 " fill="none" style="stroke:#181818;stroke-width:0.5;"/>
    <text fill="#000000" font-family="sans-serif" font-size="14" lengthAdjust="spacing" textLength="162.5449" x="2319.6787" y="880.3389">DFSP bénéficiaire / FXP</text>
    <text fill="#000000" font-family="sans-serif" font-size="14" lengthAdjust="spacing" textLength="75.5713" x="2363.1655" y="896.6357">Participant</text>
    <ellipse cx="2403.9512" cy="908.4375" fill="#E2E2F0" rx="8" ry="8" style="stroke:#181818;stroke-width:0.5;"/>
    <path d="M2403.9512,916.4375 L2403.9512,943.4375 M2390.9512,924.4375 L2416.9512,924.4375 M2403.9512,943.4375 L2390.9512,958.4375 M2403.9512,943.4375 L2416.9512,958.4375 " fill="none" style="stroke:#181818;stroke-width:0.5;"/>
    <rect fill="#FFFFFF" height="693.3203" style="stroke:#181818;stroke-width:1.0;" width="10" x="682.4932" y="165.0234"/>
    <rect fill="#FFFFFF" height="30" style="stroke:#181818;stroke-width:1.0;" width="10" x="986.0684" y="260.5547"/>
    <rect fill="#FFFFFF" height="209.0625" style="stroke:#181818;stroke-width:1.0;" width="10" x="1336.4336" y="385.0859"/>
    <rect fill="#FFFFFF" height="120.5313" style="stroke:#181818;stroke-width:1.0;" width="10" x="1729.5171" y="429.3516"/>
    <rect fill="#FFFFFF" height="62.2656" style="stroke:#181818;stroke-width:1.0;" width="10" x="2122.6006" y="458.4844"/>
    <path d="M105.6821,172.0234 L426.2275,172.0234 L426.2275,179.1563 L416.2275,189.1563 L105.6821,189.1563 L105.6821,172.0234 " fill="#EEEEEE" style="stroke:#000000;stroke-width:1.5;"/>
    <rect fill="none" height="679.3203" style="stroke:#000000;stroke-width:1.5;" width="2412.5415" x="105.6821" y="172.0234"/>
    <text fill="#000000" font-family="sans-serif" font-size="13" font-weight="bold" lengthAdjust="spacing" textLength="275.5454" x="120.6821" y="185.0903">Envoi de notification aux participants</text>
    <path d="M369,194.1563 L369,234.1563 L677,234.1563 L677,204.1563 L667,194.1563 L369,194.1563 " fill="#D3D3D3" style="stroke:#181818;stroke-width:0.5;"/>
    <path d="M667,194.1563 L667,204.1563 L677,204.1563 L667,194.1563 " fill="#D3D3D3" style="stroke:#181818;stroke-width:0.5;"/>
    <text fill="#000000" font-family="sans-serif" font-size="13" lengthAdjust="spacing" textLength="287.3965" x="375" y="211.2231">L&apos;événement est automatiquement répliqué</text>
    <text fill="#000000" font-family="sans-serif" font-size="13" lengthAdjust="spacing" textLength="286.5586" x="375" y="226.356">vers le topic des événements (topic-events)</text>
    <polygon fill="#181818" points="974.0684,256.5547,984.0684,260.5547,974.0684,264.5547,978.0684,260.5547" style="stroke:#181818;stroke-width:1.0;"/>
    <line style="stroke:#181818;stroke-width:1.0;" x1="692.4932" x2="980.0684" y1="260.5547" y2="260.5547"/>
    <text fill="#000000" font-family="sans-serif" font-size="13" font-weight="bold" lengthAdjust="spacing" textLength="9.0454" x="699.4932" y="255.4888">1</text>
    <text fill="#000000" font-family="sans-serif" font-size="13" lengthAdjust="spacing" textLength="261.5298" x="712.5386" y="255.4888">Consommer l&apos;événement de notification</text>
    <path d="M697,303.5547 L697,343.5547 L1164,343.5547 L1164,313.5547 L1154,303.5547 L697,303.5547 " fill="#D3D3D3" style="stroke:#181818;stroke-width:0.5;"/>
    <path d="M1154,303.5547 L1154,313.5547 L1164,313.5547 L1154,303.5547 " fill="#D3D3D3" style="stroke:#181818;stroke-width:0.5;"/>
    <text fill="#000000" font-family="sans-serif" font-size="13" lengthAdjust="spacing" textLength="446.2593" x="703" y="320.6216">Les détails de l&apos;endpoint sont mis en cache ; à l&apos;expiration du cache,</text>
    <text fill="#000000" font-family="sans-serif" font-size="13" lengthAdjust="spacing" textLength="239.8081" x="703" y="335.7544">les détails sont récupérés à nouveau</text>
    <polygon fill="#181818" points="1324.4336,381.0859,1334.4336,385.0859,1324.4336,389.0859,1328.4336,385.0859" style="stroke:#181818;stroke-width:1.0;"/>
    <line style="stroke:#181818;stroke-width:1.0;" x1="692.4932" x2="1330.4336" y1="385.0859" y2="385.0859"/>
    <text fill="#000000" font-family="sans-serif" font-size="13" font-weight="bold" lengthAdjust="spacing" textLength="9.0454" x="699.4932" y="372.4536">2</text>
    <text fill="#000000" font-family="sans-serif" font-size="13" lengthAdjust="spacing" textLength="611.895" x="712.5386" y="364.8872">Demander les détails de l&apos;endpoint pour le participant - GET - /participants/{{fsp}}/endpoints</text>
    <text fill="#FF0000" font-family="sans-serif" font-size="13" font-weight="bold" lengthAdjust="spacing" textLength="110.2524" x="712.5386" y="380.02">Code d&apos;erreur :</text>
    <text fill="#FF0000" font-family="sans-serif" font-size="13" lengthAdjust="spacing" textLength="33.084" x="826.9233" y="380.02">2003</text>
    <polygon fill="#181818" points="1717.5171,425.3516,1727.5171,429.3516,1717.5171,433.3516,1721.5171,429.3516" style="stroke:#181818;stroke-width:1.0;"/>
    <line style="stroke:#181818;stroke-width:1.0;" x1="1346.4336" x2="1723.5171" y1="429.3516" y2="429.3516"/>
    <text fill="#000000" font-family="sans-serif" font-size="13" font-weight="bold" lengthAdjust="spacing" textLength="9.0454" x="1353.4336" y="416.7192">3</text>
    <text fill="#000000" font-family="sans-serif" font-size="13" lengthAdjust="spacing" textLength="351.0381" x="1366.479" y="409.1528">Récupérer les détails de l&apos;endpoint pour le participant</text>
    <text fill="#FF0000" font-family="sans-serif" font-size="13" font-weight="bold" lengthAdjust="spacing" textLength="110.2524" x="1366.479" y="424.2856">Code d&apos;erreur :</text>
    <text fill="#FF0000" font-family="sans-serif" font-size="13" lengthAdjust="spacing" textLength="33.084" x="1480.8638" y="424.2856">2003</text>
    <polygon fill="#181818" points="2110.6006,454.4844,2120.6006,458.4844,2110.6006,462.4844,2114.6006,458.4844" style="stroke:#181818;stroke-width:1.0;"/>
    <line style="stroke:#181818;stroke-width:1.0;" x1="1739.5171" x2="2116.6006" y1="458.4844" y2="458.4844"/>
    <text fill="#000000" font-family="sans-serif" font-size="13" font-weight="bold" lengthAdjust="spacing" textLength="9.0454" x="1746.5171" y="453.4185">4</text>
    <text fill="#000000" font-family="sans-serif" font-size="13" lengthAdjust="spacing" textLength="351.0381" x="1759.5625" y="453.4185">Récupérer les détails de l&apos;endpoint pour le participant</text>
    <polygon fill="#FFFFE0" points="2061,471.4844,2193,471.4844,2203,482.4844,2193,494.4844,2061,494.4844,2051,482.4844,2061,471.4844" style="stroke:#181818;stroke-width:0.5;"/>
    <text fill="#000000" font-family="sans-serif" font-size="13" lengthAdjust="spacing" textLength="128.4448" x="2063" y="487.5513">participantEndpoint</text>
    <polygon fill="#181818" points="1750.5171,516.75,1740.5171,520.75,1750.5171,524.75,1746.5171,520.75" style="stroke:#181818;stroke-width:1.0;"/>
    <line style="stroke:#181818;stroke-width:1.0;" x1="1744.5171" x2="2126.6006" y1="520.75" y2="520.75"/>
    <text fill="#000000" font-family="sans-serif" font-size="13" font-weight="bold" lengthAdjust="spacing" textLength="9.0454" x="1756.5171" y="515.6841">5</text>
    <text fill="#000000" font-family="sans-serif" font-size="13" lengthAdjust="spacing" textLength="328.0215" x="1769.5625" y="515.6841">Détails de l&apos;endpoint récupérés pour le participant</text>
    <polygon fill="#181818" points="1357.4336,545.8828,1347.4336,549.8828,1357.4336,553.8828,1353.4336,549.8828" style="stroke:#181818;stroke-width:1.0;"/>
    <line style="stroke:#181818;stroke-width:1.0;stroke-dasharray:2.0,2.0;" x1="1351.4336" x2="1733.5171" y1="549.8828" y2="549.8828"/>
    <text fill="#000000" font-family="sans-serif" font-size="13" font-weight="bold" lengthAdjust="spacing" textLength="9.0454" x="1363.4336" y="544.8169">6</text>
    <text fill="#000000" font-family="sans-serif" font-size="13" lengthAdjust="spacing" textLength="331.9888" x="1376.479" y="544.8169">Retour des détails de l&apos;endpoint pour le participant</text>
    <polygon fill="#181818" points="703.4932,590.1484,693.4932,594.1484,703.4932,598.1484,699.4932,594.1484" style="stroke:#181818;stroke-width:1.0;"/>
    <line style="stroke:#181818;stroke-width:1.0;stroke-dasharray:2.0,2.0;" x1="697.4932" x2="1340.4336" y1="594.1484" y2="594.1484"/>
    <text fill="#000000" font-family="sans-serif" font-size="13" font-weight="bold" lengthAdjust="spacing" textLength="9.0454" x="709.4932" y="581.5161">7</text>
    <text fill="#000000" font-family="sans-serif" font-size="13" lengthAdjust="spacing" textLength="331.9888" x="722.5386" y="573.9497">Retour des détails de l&apos;endpoint pour le participant</text>
    <text fill="#FF0000" font-family="sans-serif" font-size="13" font-weight="bold" lengthAdjust="spacing" textLength="117.9902" x="722.5386" y="589.0825">Codes d&apos;erreur :</text>
    <text fill="#FF0000" font-family="sans-serif" font-size="13" lengthAdjust="spacing" textLength="74.4326" x="844.6611" y="589.0825">3202, 3203</text>
    <polygon fill="#181818" points="174.4849,649.5469,164.4849,653.5469,174.4849,657.5469,170.4849,653.5469" style="stroke:#181818;stroke-width:1.0;"/>
    <line style="stroke:#181818;stroke-width:1.0;" x1="168.4849" x2="681.4932" y1="653.5469" y2="653.5469"/>
    <text fill="#000000" font-family="sans-serif" font-size="13" font-weight="bold" lengthAdjust="spacing" textLength="9.0454" x="180.4849" y="633.3481">8</text>
    <text fill="#000000" font-family="sans-serif" font-size="13" lengthAdjust="spacing" textLength="371.2808" x="193.5303" y="618.2153">Notification avec le résultat prepare/fulfil ou l&apos;erreur vers</text>
    <text fill="#000000" font-family="sans-serif" font-size="13" lengthAdjust="spacing" textLength="282.9849" x="193.5303" y="633.3481">le DFSP payeur sur l&apos;endpoint indiqué - PUT</text>
    <text fill="#FF0000" font-family="sans-serif" font-size="13" font-weight="bold" lengthAdjust="spacing" textLength="110.2524" x="193.5303" y="648.481">Code d&apos;erreur :</text>
    <text fill="#FF0000" font-family="sans-serif" font-size="13" lengthAdjust="spacing" textLength="33.084" x="307.915" y="648.481">1001</text>
    <polygon fill="#181818" points="670.4932,678.6797,680.4932,682.6797,670.4932,686.6797,674.4932,682.6797" style="stroke:#181818;stroke-width:1.0;"/>
    <line style="stroke:#181818;stroke-width:1.0;stroke-dasharray:2.0,2.0;" x1="163.4849" x2="676.4932" y1="682.6797" y2="682.6797"/>
    <text fill="#000000" font-family="sans-serif" font-size="13" font-weight="bold" lengthAdjust="spacing" textLength="9.0454" x="170.4849" y="677.6138">9</text>
    <text fill="#000000" font-family="sans-serif" font-size="13" lengthAdjust="spacing" textLength="85.3315" x="183.5303" y="677.6138">HTTP 200 OK</text>
    <path d="M489.7769,697.6797 L554.2197,697.6797 L554.2197,704.8125 L544.2197,714.8125 L489.7769,714.8125 L489.7769,697.6797 " fill="#EEEEEE" style="stroke:#000000;stroke-width:1.5;"/>
    <rect fill="none" height="146.6641" style="stroke:#000000;stroke-width:1.5;" width="2018.4468" x="489.7769" y="697.6797"/>
    <text fill="#000000" font-family="sans-serif" font-size="13" font-weight="bold" lengthAdjust="spacing" textLength="19.4429" x="504.7769" y="710.7466">alt</text>
    <text fill="#000000" font-family="sans-serif" font-size="11" font-weight="bold" lengthAdjust="spacing" textLength="176.7681" x="569.2197" y="709.8901">[event.action === &apos;reserve&apos;]</text>
    <path d="M499.7769,721.8125 L564.2197,721.8125 L564.2197,728.9453 L554.2197,738.9453 L499.7769,738.9453 L499.7769,721.8125 " fill="#EEEEEE" style="stroke:#000000;stroke-width:1.5;"/>
    <rect fill="none" height="115.5313" style="stroke:#000000;stroke-width:1.5;" width="1998.4468" x="499.7769" y="721.8125"/>
    <text fill="#000000" font-family="sans-serif" font-size="13" font-weight="bold" lengthAdjust="spacing" textLength="19.4429" x="514.7769" y="734.8794">alt</text>
    <text fill="#000000" font-family="sans-serif" font-size="11" font-weight="bold" lengthAdjust="spacing" textLength="178.2988" x="579.2197" y="734.0229">[event.status === &apos;success&apos;]</text>
    <polygon fill="#181818" points="2391.9512,771.2109,2401.9512,775.2109,2391.9512,779.2109,2395.9512,775.2109" style="stroke:#181818;stroke-width:1.0;"/>
    <line style="stroke:#181818;stroke-width:1.0;" x1="692.4932" x2="2397.9512" y1="775.2109" y2="775.2109"/>
    <text fill="#000000" font-family="sans-serif" font-size="13" font-weight="bold" lengthAdjust="spacing" textLength="18.0908" x="699.4932" y="762.5786">10</text>
    <text fill="#000000" font-family="sans-serif" font-size="13" lengthAdjust="spacing" textLength="740.2827" x="721.584" y="755.0122">Notification du résultat d&apos;exécution réussi (engagé) vers le DFSP bénéficiaire / FXP sur l&apos;endpoint indiqué - PATCH</text>
    <text fill="#FF0000" font-family="sans-serif" font-size="13" font-weight="bold" lengthAdjust="spacing" textLength="110.2524" x="721.584" y="770.145">Code d&apos;erreur :</text>
    <text fill="#FF0000" font-family="sans-serif" font-size="13" lengthAdjust="spacing" textLength="33.084" x="835.9688" y="770.145">1001</text>
    <polygon fill="#181818" points="703.4932,825.3438,693.4932,829.3438,703.4932,833.3438,699.4932,829.3438" style="stroke:#181818;stroke-width:1.0;"/>
    <line style="stroke:#181818;stroke-width:1.0;stroke-dasharray:2.0,2.0;" x1="697.4932" x2="2402.9512" y1="829.3438" y2="829.3438"/>
    <text fill="#000000" font-family="sans-serif" font-size="13" font-weight="bold" lengthAdjust="spacing" textLength="18.0908" x="709.4932" y="824.2778">11</text>
    <text fill="#000000" font-family="sans-serif" font-size="13" lengthAdjust="spacing" textLength="85.3315" x="731.584" y="824.2778">HTTP 200 OK</text>
  </g>
</svg>
