<svg xmlns="http://www.w3.org/2000/svg" height="747" preserveAspectRatio="none" style="width:969px;height:747px" width="969">
  <defs>
    <filter height="300%" id="a" width="300%" x="-1" y="-1">
      <feGaussianBlur result="blurOut" stdDeviation="2"/>
      <feColorMatrix in="blurOut" result="blurOut2" values="0 0 0 0 0 0 0 0 0 0 0 0 0 0 0 0 0 0 .4 0"/>
      <feOffset dx="4" dy="4" in="blurOut2" result="blurOut3"/>
      <feBlend in="SourceGraphic" in2="blurOut3"/>
    </filter>
  </defs>
  <text font-family="sans-serif" font-size="18" lengthAdjust="spacingAndGlyphs" textLength="257" x="354" y="28.708">
    7.3.4 Delete Oracle Endpoint
  </text>
  <path fill="#FFFFE0" stroke="#a80036" d="M234 40.953h664.5v700.516H234z"/>
  <text font-family="sans-serif" font-size="13" font-weight="bold" lengthAdjust="spacingAndGlyphs" textLength="176" x="478.25" y="53.02">
    Account Lookup Service
  </text>
  <path fill="#FFF" filter="url(#a)" stroke="#a80036" d="M84 132.383h10v263.328H84zM355 192.781h10v202.93h-10zM569.5 221.914h10v144.664h-10zM853.5 251.047h10v86.398h-10z"/>
  <path fill="#FFF" filter="url(#a)" stroke="#000" stroke-width="2" d="M10 139.383h945v519.789H10z"/>
  <path fill="#FFF" filter="url(#a)" stroke="#000" stroke-width="2" d="M20 299.18h884.5v104.531H20zM20 417.711h884.5v234.461H20z"/>
  <path stroke="#a80036" stroke-dasharray="5,5" d="M89 122.383v553.789M360 122.383v553.789M574 122.383v553.789M858.5 122.383v553.789"/>
  <text font-family="sans-serif" font-size="14" lengthAdjust="spacingAndGlyphs" textLength="112" x="30" y="119.081">
    HUB OPERATOR
  </text>
  <circle cx="89" cy="90.086" fill="#FEFECE" filter="url(#a)" stroke="#a80036" stroke-width="2" r="12"/>
  <path stroke="#a80036" stroke-width="2" d="M77 104.086h24"/>
  <text font-family="sans-serif" font-size="14" lengthAdjust="spacingAndGlyphs" textLength="112" x="30" y="688.167">
    HUB OPERATOR
  </text>
  <circle cx="89" cy="707.469" fill="#FEFECE" filter="url(#a)" stroke="#a80036" stroke-width="2" r="12"/>
  <path stroke="#a80036" stroke-width="2" d="M77 721.469h24"/>
  <text font-family="sans-serif" font-size="14" lengthAdjust="spacingAndGlyphs" textLength="238" x="238" y="119.081">
    Account Lookup Service Admin API
  </text>
  <path d="M339.5 78.086v24m0-12h17" fill="none" filter="url(#a)" stroke="#a80036" stroke-width="2"/>
  <circle cx="368.5" cy="90.086" fill="#FEFECE" filter="url(#a)" stroke="#a80036" stroke-width="2" r="12"/>
  <text font-family="sans-serif" font-size="14" lengthAdjust="spacingAndGlyphs" textLength="238" x="238" y="688.167">
    Account Lookup Service Admin API
  </text>
  <path d="M339.5 695.469v24m0-12h17" fill="none" filter="url(#a)" stroke="#a80036" stroke-width="2"/>
  <circle cx="368.5" cy="707.469" fill="#FEFECE" filter="url(#a)" stroke="#a80036" stroke-width="2" r="12"/>
  <text font-family="sans-serif" font-size="14" lengthAdjust="spacingAndGlyphs" textLength="159" x="492" y="119.081">
    DELETE Oracle Handler
  </text>
  <circle cx="574.5" cy="90.086" fill="#FEFECE" filter="url(#a)" stroke="#a80036" stroke-width="2" r="12"/>
  <path fill="#A80036" stroke="#a80036" d="M570.5 78.086l6-5-2 5 2 5-6-5z"/>
  <text font-family="sans-serif" font-size="14" lengthAdjust="spacingAndGlyphs" textLength="159" x="492" y="688.167">
    DELETE Oracle Handler
  </text>
  <circle cx="574.5" cy="707.469" fill="#FEFECE" filter="url(#a)" stroke="#a80036" stroke-width="2" r="12"/>
  <path fill="#A80036" stroke="#a80036" d="M570.5 695.469l6-5-2 5 2 5-6-5z"/>
  <text font-family="sans-serif" font-size="14" lengthAdjust="spacingAndGlyphs" textLength="66" x="822.5" y="119.081">
    ALS Store
  </text>
  <path d="M840.5 70.086c0-10 18-10 18-10s18 0 18 10v26c0 10-18 10-18 10s-18 0-18-10v-26" fill="#FEFECE" filter="url(#a)" stroke="#000" stroke-width="1.5"/>
  <path d="M840.5 70.086c0 10 18 10 18 10s18 0 18-10" fill="none" stroke="#000" stroke-width="1.5"/>
  <text font-family="sans-serif" font-size="14" lengthAdjust="spacingAndGlyphs" textLength="66" x="822.5" y="688.167">
    ALS Store
  </text>
  <path d="M840.5 701.469c0-10 18-10 18-10s18 0 18 10v26c0 10-18 10-18 10s-18 0-18-10v-26" fill="#FEFECE" filter="url(#a)" stroke="#000" stroke-width="1.5"/>
  <path d="M840.5 701.469c0 10 18 10 18 10s18 0 18-10" fill="none" stroke="#000" stroke-width="1.5"/>
  <path fill="#FFF" filter="url(#a)" stroke="#a80036" d="M84 132.383h10v263.328H84zM355 192.781h10v202.93h-10zM569.5 221.914h10v144.664h-10zM853.5 251.047h10v86.398h-10z"/>
  <path d="M10 139.383h194v7l-10 10H10v-17" fill="#EEE" stroke="#000"/>
  <path fill="none" stroke="#000" stroke-width="2" d="M10 139.383h945v519.789H10z"/>
  <text font-family="sans-serif" font-size="13" font-weight="bold" lengthAdjust="spacingAndGlyphs" textLength="149" x="25" y="152.45">
    Get Oracle Endpoint
  </text>
  <path fill="#A80036" stroke="#a80036" d="M343 188.781l10 4-10 4 4-4z"/>
  <path stroke="#a80036" d="M94 192.781h255"/>
  <text font-family="sans-serif" font-size="13" font-weight="bold" lengthAdjust="spacingAndGlyphs" textLength="9" x="101" y="180.149">
    1
  </text>
  <text font-family="sans-serif" font-size="13" lengthAdjust="spacingAndGlyphs" textLength="229" x="114" y="172.583">
    Request to Delete Oracle Endpoint -
  </text>
  <text font-family="sans-serif" font-size="13" lengthAdjust="spacingAndGlyphs" textLength="135" x="114" y="187.715">
    DELETE /oracles/{ID}
  </text>
  <path fill="#A80036" stroke="#a80036" d="M557.5 217.914l10 4-10 4 4-4z"/>
  <path stroke="#a80036" d="M365 221.914h198.5"/>
  <text font-family="sans-serif" font-size="13" font-weight="bold" lengthAdjust="spacingAndGlyphs" textLength="9" x="372" y="216.848">
    2
  </text>
  <text font-family="sans-serif" font-size="13" lengthAdjust="spacingAndGlyphs" textLength="147" x="385" y="216.848">
    Delete Oracle Endpoint
  </text>
  <path fill="#A80036" stroke="#a80036" d="M841.5 247.047l10 4-10 4 4-4z"/>
  <path stroke="#a80036" d="M579.5 251.047h268"/>
  <text font-family="sans-serif" font-size="13" font-weight="bold" lengthAdjust="spacingAndGlyphs" textLength="9" x="586.5" y="245.981">
    3
  </text>
  <text font-family="sans-serif" font-size="13" lengthAdjust="spacingAndGlyphs" textLength="242" x="599.5" y="245.981">
    Update existing Oracle Endpoint By ID
  </text>
  <path fill="#FFFFE0" filter="url(#a)" stroke="#a80036" d="M782 264.047h153l10 11-10 12H782l-10-12 10-11z"/>
  <text font-family="sans-serif" font-size="13" lengthAdjust="spacingAndGlyphs" textLength="149" x="784" y="280.114">
    Update isActive = false
  </text>
  <path d="M20 299.18h64v7l-10 10H20v-17" fill="#EEE" stroke="#000"/>
  <path fill="none" stroke="#000" stroke-width="2" d="M20 299.18h884.5v104.531H20z"/>
  <text font-family="sans-serif" font-size="13" font-weight="bold" lengthAdjust="spacingAndGlyphs" textLength="19" x="35" y="312.247">
    alt
  </text>
  <text font-family="sans-serif" font-size="11" font-weight="bold" lengthAdjust="spacingAndGlyphs" textLength="279" x="99" y="311.39">
    [Delete existing Oracle Endpoint (success)]
  </text>
  <path fill="#A80036" stroke="#a80036" d="M590.5 333.445l-10 4 10 4-4-4z"/>
  <path stroke="#a80036" d="M584.5 337.445h273"/>
  <text font-family="sans-serif" font-size="13" font-weight="bold" lengthAdjust="spacingAndGlyphs" textLength="9" x="596.5" y="332.379">
    4
  </text>
  <text font-family="sans-serif" font-size="13" lengthAdjust="spacingAndGlyphs" textLength="99" x="609.5" y="332.379">
    Return Success
  </text>
  <path fill="#A80036" stroke="#a80036" d="M376 362.578l-10 4 10 4-4-4z"/>
  <path stroke="#a80036" d="M370 366.578h203.5"/>
  <text font-family="sans-serif" font-size="13" font-weight="bold" lengthAdjust="spacingAndGlyphs" textLength="9" x="382" y="361.512">
    5
  </text>
  <text font-family="sans-serif" font-size="13" lengthAdjust="spacingAndGlyphs" textLength="160" x="395" y="361.512">
    Return success response
  </text>
  <path fill="#A80036" stroke="#a80036" d="M100 391.71l-10 4 10 4-4-4z"/>
  <path stroke="#a80036" stroke-dasharray="2,2" d="M94 395.711h265"/>
  <text font-family="sans-serif" font-size="13" font-weight="bold" lengthAdjust="spacingAndGlyphs" textLength="9" x="106" y="390.645">
    6
  </text>
  <text font-family="sans-serif" font-size="13" lengthAdjust="spacingAndGlyphs" textLength="42" x="119" y="390.645">
    Return
  </text>
  <text font-family="sans-serif" font-size="13" font-weight="bold" lengthAdjust="spacingAndGlyphs" textLength="94" x="165" y="390.645">
    HTTP Status:
  </text>
  <text font-family="sans-serif" font-size="13" lengthAdjust="spacingAndGlyphs" textLength="24" x="263" y="390.645">
    204
  </text>
  <path d="M20 417.71h64v7l-10 10H20v-17" fill="#EEE" stroke="#000"/>
  <path fill="none" stroke="#000" stroke-width="2" d="M20 417.711h884.5v234.461H20z"/>
  <text font-family="sans-serif" font-size="13" font-weight="bold" lengthAdjust="spacingAndGlyphs" textLength="19" x="35" y="430.778">
    alt
  </text>
  <text font-family="sans-serif" font-size="11" font-weight="bold" lengthAdjust="spacingAndGlyphs" textLength="270" x="99" y="429.921">
    [Delete existing Oracle Endpoint (failure)]
  </text>
  <path fill="#A80036" stroke="#a80036" d="M585.5 451.977l-10 4 10 4-4-4z"/>
  <path stroke="#a80036" d="M579.5 455.977h278"/>
  <text font-family="sans-serif" font-size="13" font-weight="bold" lengthAdjust="spacingAndGlyphs" textLength="9" x="591.5" y="450.911">
    7
  </text>
  <text font-family="sans-serif" font-size="13" lengthAdjust="spacingAndGlyphs" textLength="159" x="604.5" y="450.911">
    Throws Error (Not Found)
  </text>
  <path fill="#A80036" stroke="#a80036" d="M371 481.11l-10 4 10 4-4-4z"/>
  <path stroke="#a80036" d="M365 485.109h208.5"/>
  <text font-family="sans-serif" font-size="13" font-weight="bold" lengthAdjust="spacingAndGlyphs" textLength="9" x="377" y="480.043">
    8
  </text>
  <text font-family="sans-serif" font-size="13" lengthAdjust="spacingAndGlyphs" textLength="72" x="390" y="480.043">
    Throw Error
  </text>
  <path d="M122 498.11v115h229v-105l-10-10H122" fill="#FF0" filter="url(#a)" stroke="#a80036"/>
  <path d="M341 498.11v10h10l-10-10" fill="#FF0" stroke="#a80036"/>
  <text font-family="sans-serif" font-size="13" lengthAdjust="spacingAndGlyphs" textLength="61" x="128" y="515.176">
    Message:
  </text>
  <text font-family="sans-serif" font-size="13" lengthAdjust="spacingAndGlyphs" textLength="8" x="128" y="530.309">
    {
  </text>
  <text font-family="sans-serif" font-size="13" lengthAdjust="spacingAndGlyphs" textLength="130" x="144" y="545.442">
    &quot;errorInformation&quot;: {
  </text>
  <text font-family="sans-serif" font-size="13" lengthAdjust="spacingAndGlyphs" textLength="176" x="160" y="560.575">
    &quot;errorCode&quot;: &lt;Error Code&gt;,
  </text>
  <text font-family="sans-serif" font-size="13" lengthAdjust="spacingAndGlyphs" textLength="173" x="160" y="575.707">
    &quot;errorDescription&quot;: &lt;Msg&gt;,
  </text>
  <text font-family="sans-serif" font-size="13" lengthAdjust="spacingAndGlyphs" textLength="8" x="144" y="590.84">
    }
  </text>
  <text font-family="sans-serif" font-size="13" lengthAdjust="spacingAndGlyphs" textLength="8" x="128" y="605.973">
    }
  </text>
  <path fill="#A80036" stroke="#a80036" d="M100 640.172l-10 4 10 4-4-4z"/>
  <path stroke="#a80036" stroke-dasharray="2,2" d="M94 644.172h265"/>
  <text font-family="sans-serif" font-size="13" font-weight="bold" lengthAdjust="spacingAndGlyphs" textLength="9" x="106" y="639.106">
    9
  </text>
  <text font-family="sans-serif" font-size="13" lengthAdjust="spacingAndGlyphs" textLength="42" x="119" y="639.106">
    Return
  </text>
  <text fill="red" font-family="sans-serif" font-size="13" font-weight="bold" lengthAdjust="spacingAndGlyphs" textLength="94" x="165" y="639.106">
    HTTP Status:
  </text>
  <text fill="red" font-family="sans-serif" font-size="13" lengthAdjust="spacingAndGlyphs" textLength="24" x="263" y="639.106">
    502
  </text>
</svg>
