<svg xmlns="http://www.w3.org/2000/svg" height="1269" preserveAspectRatio="none" style="width:933px;height:1269px" width="933">
  <defs>
    <filter height="300%" id="a" width="300%" x="-1" y="-1">
      <feGaussianBlur result="blurOut" stdDeviation="2"/>
      <feColorMatrix in="blurOut" result="blurOut2" values="0 0 0 0 0 0 0 0 0 0 0 0 0 0 0 0 0 0 .4 0"/>
      <feOffset dx="4" dy="4" in="blurOut2" result="blurOut3"/>
      <feBlend in="SourceGraphic" in2="blurOut3"/>
    </filter>
  </defs>
  <text font-family="sans-serif" font-size="18" lengthAdjust="spacingAndGlyphs" textLength="262" x="333.5" y="28.708">
    7.3.3 Update Oracle Endpoint
  </text>
  <path fill="#FFFFE0" stroke="#a80036" d="M249 40.953h644v1222.703H249z"/>
  <text font-family="sans-serif" font-size="13" font-weight="bold" lengthAdjust="spacingAndGlyphs" textLength="176" x="483" y="53.02">
    Account Lookup Service
  </text>
  <path fill="#FFF" filter="url(#a)" stroke="#a80036" d="M94 132.383h10v530.055H94zM370 192.781h10v469.656h-10zM577 397.242h10v236.063h-10zM848 426.375h10v53.266h-10zM848 550.906h10v53.266h-10z"/>
  <path fill="#FFF" filter="url(#a)" stroke="#000" stroke-width="2" d="M10 139.383h909V1181.36H10z"/>
  <path fill="#FFF" filter="url(#a)" stroke="#000" stroke-width="2" d="M20 441.375h889v484.523H20z"/>
  <path fill="#FFF" filter="url(#a)" stroke="#000" stroke-width="2" d="M30 565.906h869v104.531H30zM30 684.438h869v234.461H30zM30 939.898h869v234.461H30z"/>
  <path stroke="#a80036" stroke-dasharray="5,5" d="M99 122.383v1075.976M375 122.383v1075.976M581.5 122.383v1075.976M853 122.383v1075.976"/>
  <text font-family="sans-serif" font-size="14" lengthAdjust="spacingAndGlyphs" textLength="112" x="40" y="119.081">
    HUB OPERATOR
  </text>
  <circle cx="99" cy="90.086" fill="#FEFECE" filter="url(#a)" stroke="#a80036" stroke-width="2" r="12"/>
  <path stroke="#a80036" stroke-width="2" d="M87 104.086h24"/>
  <text font-family="sans-serif" font-size="14" lengthAdjust="spacingAndGlyphs" textLength="112" x="40" y="1210.354">
    HUB OPERATOR
  </text>
  <circle cx="99" cy="1229.656" fill="#FEFECE" filter="url(#a)" stroke="#a80036" stroke-width="2" r="12"/>
  <path stroke="#a80036" stroke-width="2" d="M87 1243.656h24"/>
  <text font-family="sans-serif" font-size="14" lengthAdjust="spacingAndGlyphs" textLength="238" x="253" y="119.081">
    Account Lookup Service Admin API
  </text>
  <path d="M354.5 78.086v24m0-12h17" fill="none" filter="url(#a)" stroke="#a80036" stroke-width="2"/>
  <circle cx="383.5" cy="90.086" fill="#FEFECE" filter="url(#a)" stroke="#a80036" stroke-width="2" r="12"/>
  <text font-family="sans-serif" font-size="14" lengthAdjust="spacingAndGlyphs" textLength="238" x="253" y="1210.354">
    Account Lookup Service Admin API
  </text>
  <path d="M354.5 1217.656v24m0-12h17" fill="none" filter="url(#a)" stroke="#a80036" stroke-width="2"/>
  <circle cx="383.5" cy="1229.656" fill="#FEFECE" filter="url(#a)" stroke="#a80036" stroke-width="2" r="12"/>
  <text font-family="sans-serif" font-size="14" lengthAdjust="spacingAndGlyphs" textLength="133" x="512.5" y="119.081">
    PUT Oracle Handler
  </text>
  <circle cx="582" cy="90.086" fill="#FEFECE" filter="url(#a)" stroke="#a80036" stroke-width="2" r="12"/>
  <path fill="#A80036" stroke="#a80036" d="M578 78.086l6-5-2 5 2 5-6-5z"/>
  <text font-family="sans-serif" font-size="14" lengthAdjust="spacingAndGlyphs" textLength="133" x="512.5" y="1210.354">
    PUT Oracle Handler
  </text>
  <circle cx="582" cy="1229.656" fill="#FEFECE" filter="url(#a)" stroke="#a80036" stroke-width="2" r="12"/>
  <path fill="#A80036" stroke="#a80036" d="M578 1217.656l6-5-2 5 2 5-6-5z"/>
  <text font-family="sans-serif" font-size="14" lengthAdjust="spacingAndGlyphs" textLength="66" x="817" y="119.081">
    ALS Store
  </text>
  <path d="M835 70.086c0-10 18-10 18-10s18 0 18 10v26c0 10-18 10-18 10s-18 0-18-10v-26" fill="#FEFECE" filter="url(#a)" stroke="#000" stroke-width="1.5"/>
  <path d="M835 70.086c0 10 18 10 18 10s18 0 18-10" fill="none" stroke="#000" stroke-width="1.5"/>
  <text font-family="sans-serif" font-size="14" lengthAdjust="spacingAndGlyphs" textLength="66" x="817" y="1210.354">
    ALS Store
  </text>
  <path d="M835 1223.656c0-10 18-10 18-10s18 0 18 10v26c0 10-18 10-18 10s-18 0-18-10v-26" fill="#FEFECE" filter="url(#a)" stroke="#000" stroke-width="1.5"/>
  <path d="M835 1223.656c0 10 18 10 18 10s18 0 18-10" fill="none" stroke="#000" stroke-width="1.5"/>
  <path fill="#FFF" filter="url(#a)" stroke="#a80036" d="M94 132.383h10v530.055H94zM370 192.781h10v469.656h-10zM577 397.242h10v236.063h-10zM848 426.375h10v53.266h-10zM848 550.906h10v53.266h-10z"/>
  <path d="M10 139.383h194v7l-10 10H10v-17" fill="#EEE" stroke="#000"/>
  <path fill="none" stroke="#000" stroke-width="2" d="M10 139.383h909V1181.36H10z"/>
  <text font-family="sans-serif" font-size="13" font-weight="bold" lengthAdjust="spacingAndGlyphs" textLength="149" x="25" y="152.45">
    Get Oracle Endpoint
  </text>
  <path fill="#A80036" stroke="#a80036" d="M358 188.781l10 4-10 4 4-4z"/>
  <path stroke="#a80036" d="M104 192.781h260"/>
  <text font-family="sans-serif" font-size="13" font-weight="bold" lengthAdjust="spacingAndGlyphs" textLength="9" x="111" y="180.149">
    1
  </text>
  <text font-family="sans-serif" font-size="13" lengthAdjust="spacingAndGlyphs" textLength="234" x="124" y="172.583">
    Request to Update Oracle Endpoint -
  </text>
  <text font-family="sans-serif" font-size="13" lengthAdjust="spacingAndGlyphs" textLength="112" x="124" y="187.715">
    PUT /oracles/{ID}
  </text>
  <path d="M96 205.781v161h265v-151l-10-10H96" fill="#FF0" filter="url(#a)" stroke="#a80036"/>
  <path d="M351 205.781v10h10l-10-10" fill="#FF0" stroke="#a80036"/>
  <text font-family="sans-serif" font-size="13" lengthAdjust="spacingAndGlyphs" textLength="61" x="102" y="222.848">
    Message:
  </text>
  <text font-family="sans-serif" font-size="13" lengthAdjust="spacingAndGlyphs" textLength="8" x="102" y="237.981">
    {
  </text>
  <text font-family="sans-serif" font-size="13" lengthAdjust="spacingAndGlyphs" textLength="198" x="118" y="253.114">
    &quot;oracleIdType&quot;: &lt;PartyIdType&gt;,
  </text>
  <text font-family="sans-serif" font-size="13" lengthAdjust="spacingAndGlyphs" textLength="82" x="118" y="268.247">
    &quot;endpoint&quot;: {
  </text>
  <text font-family="sans-serif" font-size="13" lengthAdjust="spacingAndGlyphs" textLength="114" x="134" y="283.379">
    &quot;value&quot;: &lt;string&gt;,
  </text>
  <text font-family="sans-serif" font-size="13" lengthAdjust="spacingAndGlyphs" textLength="212" x="134" y="298.512">
    &quot;endpointType&quot;: &lt;EndpointType&gt;
  </text>
  <text font-family="sans-serif" font-size="13" lengthAdjust="spacingAndGlyphs" textLength="12" x="118" y="313.645">
    },
  </text>
  <text font-family="sans-serif" font-size="13" lengthAdjust="spacingAndGlyphs" textLength="156" x="118" y="328.778">
    &quot;currency&quot;: &lt;Currency&gt;,
  </text>
  <text font-family="sans-serif" font-size="13" lengthAdjust="spacingAndGlyphs" textLength="147" x="118" y="343.911">
    &quot;isDefault&quot;: &lt;boolean&gt;
  </text>
  <text font-family="sans-serif" font-size="13" lengthAdjust="spacingAndGlyphs" textLength="8" x="102" y="359.043">
    }
  </text>
  <path fill="#A80036" stroke="#a80036" d="M565 393.242l10 4-10 4 4-4z"/>
  <path stroke="#a80036" d="M380 397.242h191"/>
  <text font-family="sans-serif" font-size="13" font-weight="bold" lengthAdjust="spacingAndGlyphs" textLength="9" x="387" y="392.176">
    2
  </text>
  <text font-family="sans-serif" font-size="13" lengthAdjust="spacingAndGlyphs" textLength="152" x="400" y="392.176">
    Update Oracle Endpoint
  </text>
  <path fill="#A80036" stroke="#a80036" d="M836 422.375l10 4-10 4 4-4z"/>
  <path stroke="#a80036" d="M587 426.375h255"/>
  <text font-family="sans-serif" font-size="13" font-weight="bold" lengthAdjust="spacingAndGlyphs" textLength="9" x="594" y="421.309">
    3
  </text>
  <text font-family="sans-serif" font-size="13" lengthAdjust="spacingAndGlyphs" textLength="184" x="607" y="421.309">
    Find existing Oracle Endpoint
  </text>
  <path d="M20 441.375h64v7l-10 10H20v-17" fill="#EEE" stroke="#000"/>
  <path fill="none" stroke="#000" stroke-width="2" d="M20 441.375h889v484.523H20z"/>
  <text font-family="sans-serif" font-size="13" font-weight="bold" lengthAdjust="spacingAndGlyphs" textLength="19" x="35" y="454.442">
    alt
  </text>
  <text font-family="sans-serif" font-size="11" font-weight="bold" lengthAdjust="spacingAndGlyphs" textLength="265" x="99" y="453.585">
    [Find existing Oracle Endpoint (success)]
  </text>
  <path fill="#A80036" stroke="#a80036" d="M598 475.64l-10 4 10 4-4-4z"/>
  <path stroke="#a80036" d="M592 479.641h260"/>
  <text font-family="sans-serif" font-size="13" font-weight="bold" lengthAdjust="spacingAndGlyphs" textLength="9" x="604" y="474.575">
    4
  </text>
  <text font-family="sans-serif" font-size="13" lengthAdjust="spacingAndGlyphs" textLength="190" x="617" y="474.575">
    Return Oracle Endpoint Result
  </text>
  <path stroke="#a80036" d="M587 508.773h42M629 508.773v13M588 521.773h41"/>
  <path fill="#A80036" stroke="#a80036" d="M598 517.773l-10 4 10 4-4-4z"/>
  <text font-family="sans-serif" font-size="13" font-weight="bold" lengthAdjust="spacingAndGlyphs" textLength="9" x="594" y="503.707">
    5
  </text>
  <text font-family="sans-serif" font-size="13" lengthAdjust="spacingAndGlyphs" textLength="234" x="607" y="503.707">
    Update Returned Oracle Data Object
  </text>
  <path fill="#A80036" stroke="#a80036" d="M836 546.906l10 4-10 4 4-4z"/>
  <path stroke="#a80036" d="M587 550.906h255"/>
  <text font-family="sans-serif" font-size="13" font-weight="bold" lengthAdjust="spacingAndGlyphs" textLength="9" x="594" y="545.84">
    6
  </text>
  <text font-family="sans-serif" font-size="13" lengthAdjust="spacingAndGlyphs" textLength="172" x="607" y="545.84">
    Update Oracle Data Object
  </text>
  <path d="M30 565.906h64v7l-10 10H30v-17" fill="#EEE" stroke="#000"/>
  <path fill="none" stroke="#000" stroke-width="2" d="M30 565.906h869v104.531H30z"/>
  <text font-family="sans-serif" font-size="13" font-weight="bold" lengthAdjust="spacingAndGlyphs" textLength="19" x="45" y="578.973">
    alt
  </text>
  <text font-family="sans-serif" font-size="11" font-weight="bold" lengthAdjust="spacingAndGlyphs" textLength="204" x="109" y="578.117">
    [Update Oracle Entry (success)]
  </text>
  <path fill="#A80036" stroke="#a80036" d="M598 600.172l-10 4 10 4-4-4z"/>
  <path stroke="#a80036" stroke-dasharray="2,2" d="M592 604.172h260"/>
  <text font-family="sans-serif" font-size="13" font-weight="bold" lengthAdjust="spacingAndGlyphs" textLength="9" x="604" y="599.106">
    7
  </text>
  <text font-family="sans-serif" font-size="13" lengthAdjust="spacingAndGlyphs" textLength="160" x="617" y="599.106">
    Return success response
  </text>
  <path fill="#A80036" stroke="#a80036" d="M391 629.305l-10 4 10 4-4-4z"/>
  <path stroke="#a80036" d="M385 633.305h196"/>
  <text font-family="sans-serif" font-size="13" font-weight="bold" lengthAdjust="spacingAndGlyphs" textLength="9" x="397" y="628.239">
    8
  </text>
  <text font-family="sans-serif" font-size="13" lengthAdjust="spacingAndGlyphs" textLength="160" x="410" y="628.239">
    Return success response
  </text>
  <path fill="#A80036" stroke="#a80036" d="M110 658.438l-10 4 10 4-4-4z"/>
  <path stroke="#a80036" stroke-dasharray="2,2" d="M104 662.438h270"/>
  <text font-family="sans-serif" font-size="13" font-weight="bold" lengthAdjust="spacingAndGlyphs" textLength="9" x="116" y="657.372">
    9
  </text>
  <text font-family="sans-serif" font-size="13" lengthAdjust="spacingAndGlyphs" textLength="42" x="129" y="657.372">
    Return
  </text>
  <text font-family="sans-serif" font-size="13" font-weight="bold" lengthAdjust="spacingAndGlyphs" textLength="94" x="175" y="657.372">
    HTTP Status:
  </text>
  <text font-family="sans-serif" font-size="13" lengthAdjust="spacingAndGlyphs" textLength="24" x="273" y="657.372">
    204
  </text>
  <path d="M30 684.438h64v7l-10 10H30v-17" fill="#EEE" stroke="#000"/>
  <path fill="none" stroke="#000" stroke-width="2" d="M30 684.438h869v234.461H30z"/>
  <text font-family="sans-serif" font-size="13" font-weight="bold" lengthAdjust="spacingAndGlyphs" textLength="19" x="45" y="697.504">
    alt
  </text>
  <text font-family="sans-serif" font-size="11" font-weight="bold" lengthAdjust="spacingAndGlyphs" textLength="195" x="109" y="696.648">
    [Update Oracle Entry (failure)]
  </text>
  <path fill="#A80036" stroke="#a80036" d="M593 718.703l-10 4 10 4-4-4z"/>
  <path stroke="#a80036" stroke-dasharray="2,2" d="M587 722.703h265"/>
  <text font-family="sans-serif" font-size="13" font-weight="bold" lengthAdjust="spacingAndGlyphs" textLength="18" x="599" y="717.637">
    10
  </text>
  <text font-family="sans-serif" font-size="13" lengthAdjust="spacingAndGlyphs" textLength="72" x="621" y="717.637">
    Throw Error
  </text>
  <path fill="#A80036" stroke="#a80036" d="M386 747.836l-10 4 10 4-4-4z"/>
  <path stroke="#a80036" d="M380 751.836h201"/>
  <text font-family="sans-serif" font-size="13" font-weight="bold" lengthAdjust="spacingAndGlyphs" textLength="18" x="392" y="746.77">
    11
  </text>
  <text font-family="sans-serif" font-size="13" lengthAdjust="spacingAndGlyphs" textLength="72" x="414" y="746.77">
    Throw Error
  </text>
  <path d="M137 764.836v115h229v-105l-10-10H137" fill="#FF0" filter="url(#a)" stroke="#a80036"/>
  <path d="M356 764.836v10h10l-10-10" fill="#FF0" stroke="#a80036"/>
  <text font-family="sans-serif" font-size="13" lengthAdjust="spacingAndGlyphs" textLength="61" x="143" y="781.903">
    Message:
  </text>
  <text font-family="sans-serif" font-size="13" lengthAdjust="spacingAndGlyphs" textLength="8" x="143" y="797.036">
    {
  </text>
  <text font-family="sans-serif" font-size="13" lengthAdjust="spacingAndGlyphs" textLength="130" x="159" y="812.168">
    &quot;errorInformation&quot;: {
  </text>
  <text font-family="sans-serif" font-size="13" lengthAdjust="spacingAndGlyphs" textLength="176" x="175" y="827.301">
    &quot;errorCode&quot;: &lt;Error Code&gt;,
  </text>
  <text font-family="sans-serif" font-size="13" lengthAdjust="spacingAndGlyphs" textLength="173" x="175" y="842.434">
    &quot;errorDescription&quot;: &lt;Msg&gt;,
  </text>
  <text font-family="sans-serif" font-size="13" lengthAdjust="spacingAndGlyphs" textLength="8" x="159" y="857.567">
    }
  </text>
  <text font-family="sans-serif" font-size="13" lengthAdjust="spacingAndGlyphs" textLength="8" x="143" y="872.7">
    }
  </text>
  <path fill="#A80036" stroke="#a80036" d="M110 906.898l-10 4 10 4-4-4z"/>
  <path stroke="#a80036" stroke-dasharray="2,2" d="M104 910.898h270"/>
  <text font-family="sans-serif" font-size="13" font-weight="bold" lengthAdjust="spacingAndGlyphs" textLength="18" x="116" y="905.832">
    12
  </text>
  <text font-family="sans-serif" font-size="13" lengthAdjust="spacingAndGlyphs" textLength="42" x="138" y="905.832">
    Return
  </text>
  <text fill="red" font-family="sans-serif" font-size="13" font-weight="bold" lengthAdjust="spacingAndGlyphs" textLength="94" x="184" y="905.832">
    HTTP Status:
  </text>
  <text fill="red" font-family="sans-serif" font-size="13" lengthAdjust="spacingAndGlyphs" textLength="24" x="282" y="905.832">
    502
  </text>
  <path d="M30 939.898h64v7l-10 10H30v-17" fill="#EEE" stroke="#000"/>
  <path fill="none" stroke="#000" stroke-width="2" d="M30 939.898h869v234.461H30z"/>
  <text font-family="sans-serif" font-size="13" font-weight="bold" lengthAdjust="spacingAndGlyphs" textLength="19" x="45" y="952.965">
    alt
  </text>
  <text font-family="sans-serif" font-size="11" font-weight="bold" lengthAdjust="spacingAndGlyphs" textLength="256" x="109" y="952.109">
    [Find existing Oracle Endpoint (failure)]
  </text>
  <path fill="#A80036" stroke="#a80036" d="M593 974.164l-10 4 10 4-4-4z"/>
  <path stroke="#a80036" d="M587 978.164h265"/>
  <text font-family="sans-serif" font-size="13" font-weight="bold" lengthAdjust="spacingAndGlyphs" textLength="18" x="599" y="973.098">
    13
  </text>
  <text font-family="sans-serif" font-size="13" lengthAdjust="spacingAndGlyphs" textLength="139" x="621" y="973.098">
    Returns Empty Object
  </text>
  <path fill="#A80036" stroke="#a80036" d="M386 1003.297l-10 4 10 4-4-4z"/>
  <path stroke="#a80036" d="M380 1007.297h201"/>
  <text font-family="sans-serif" font-size="13" font-weight="bold" lengthAdjust="spacingAndGlyphs" textLength="18" x="392" y="1002.231">
    14
  </text>
  <text font-family="sans-serif" font-size="13" lengthAdjust="spacingAndGlyphs" textLength="72" x="414" y="1002.231">
    Throw Error
  </text>
  <path d="M137 1020.297v115h229v-105l-10-10H137" fill="#FF0" filter="url(#a)" stroke="#a80036"/>
  <path d="M356 1020.297v10h10l-10-10" fill="#FF0" stroke="#a80036"/>
  <text font-family="sans-serif" font-size="13" lengthAdjust="spacingAndGlyphs" textLength="61" x="143" y="1037.364">
    Message:
  </text>
  <text font-family="sans-serif" font-size="13" lengthAdjust="spacingAndGlyphs" textLength="8" x="143" y="1052.497">
    {
  </text>
  <text font-family="sans-serif" font-size="13" lengthAdjust="spacingAndGlyphs" textLength="130" x="159" y="1067.629">
    &quot;errorInformation&quot;: {
  </text>
  <text font-family="sans-serif" font-size="13" lengthAdjust="spacingAndGlyphs" textLength="176" x="175" y="1082.762">
    &quot;errorCode&quot;: &lt;Error Code&gt;,
  </text>
  <text font-family="sans-serif" font-size="13" lengthAdjust="spacingAndGlyphs" textLength="173" x="175" y="1097.895">
    &quot;errorDescription&quot;: &lt;Msg&gt;,
  </text>
  <text font-family="sans-serif" font-size="13" lengthAdjust="spacingAndGlyphs" textLength="8" x="159" y="1113.028">
    }
  </text>
  <text font-family="sans-serif" font-size="13" lengthAdjust="spacingAndGlyphs" textLength="8" x="143" y="1128.161">
    }
  </text>
  <path fill="#A80036" stroke="#a80036" d="M110 1162.36l-10 4 10 4-4-4z"/>
  <path stroke="#a80036" stroke-dasharray="2,2" d="M104 1166.359h270"/>
  <text font-family="sans-serif" font-size="13" font-weight="bold" lengthAdjust="spacingAndGlyphs" textLength="18" x="116" y="1161.293">
    15
  </text>
  <text font-family="sans-serif" font-size="13" lengthAdjust="spacingAndGlyphs" textLength="42" x="138" y="1161.293">
    Return
  </text>
  <text fill="red" font-family="sans-serif" font-size="13" font-weight="bold" lengthAdjust="spacingAndGlyphs" textLength="94" x="184" y="1161.293">
    HTTP Status:
  </text>
  <text fill="red" font-family="sans-serif" font-size="13" lengthAdjust="spacingAndGlyphs" textLength="24" x="282" y="1161.293">
    502
  </text>
</svg>
