<?xml version="1.0" encoding="UTF-8" standalone="no"?><svg xmlns="http://www.w3.org/2000/svg" xmlns:xlink="http://www.w3.org/1999/xlink" contentScriptType="application/ecmascript" contentStyleType="text/css" height="760px" preserveAspectRatio="none" style="width:931px;height:760px;" version="1.1" viewBox="0 0 931 760" width="931px" zoomAndPan="magnify"><defs><filter height="300%" id="f1jg8hszoiedfy" width="300%" x="-1" y="-1"><feGaussianBlur result="blurOut" stdDeviation="2.0"/><feColorMatrix in="blurOut" result="blurOut2" type="matrix" values="0 0 0 0 0 0 0 0 0 0 0 0 0 0 0 0 0 0 .4 0"/><feOffset dx="4.0" dy="4.0" in="blurOut2" result="blurOut3"/><feBlend in="SourceGraphic" in2="blurOut3" mode="normal"/></filter></defs><g><text fill="#000000" font-family="sans-serif" font-size="14" font-weight="bold" lengthAdjust="spacingAndGlyphs" textLength="200" x="366.5" y="23.5352">7.3.0 Delete Endpoint Cache</text><rect fill="#FFFFE0" height="714.8086" style="stroke: #A80036; stroke-width: 1.0;" width="490" x="414" y="34.4883"/><text fill="#000000" font-family="sans-serif" font-size="13" font-weight="bold" lengthAdjust="spacingAndGlyphs" textLength="161" x="578.5" y="47.0566">Account Lookup Service</text><rect fill="#FFFFFF" filter="url(#f1jg8hszoiedfy)" height="275.1055" style="stroke: #A80036; stroke-width: 1.0;" width="10" x="84.5" y="126.2871"/><rect fill="#FFFFFF" filter="url(#f1jg8hszoiedfy)" height="479.9004" style="stroke: #A80036; stroke-width: 1.0;" width="10" x="515.5" y="171.9082"/><rect fill="#FFFFFF" filter="url(#f1jg8hszoiedfy)" height="229.4844" style="stroke: #A80036; stroke-width: 1.0;" width="10" x="515.5" y="171.9082"/><rect fill="#FFFFFF" filter="url(#f1jg8hszoiedfy)" height="170.8633" style="stroke: #A80036; stroke-width: 1.0;" width="10" x="727.5" y="201.2188"/><rect fill="#FFFFFF" filter="url(#f1jg8hszoiedfy)" height="53.6211" style="stroke: #A80036; stroke-width: 1.0;" width="10" x="871" y="230.5293"/><rect fill="#FFFFFF" filter="url(#f1jg8hszoiedfy)" height="29.3105" style="stroke: #A80036; stroke-width: 1.0;" width="10" x="871" y="313.4609"/><rect fill="#FFFFFF" filter="url(#f1jg8hszoiedfy)" height="533.5215" style="stroke: #000000; stroke-width: 2.0;" width="907" x="13" y="133.2871"/><rect fill="#FFFFFF" filter="url(#f1jg8hszoiedfy)" height="163.8633" style="stroke: #000000; stroke-width: 2.0;" width="887" x="23" y="245.5293"/><rect fill="#FFFFFF" filter="url(#f1jg8hszoiedfy)" height="236.416" style="stroke: #000000; stroke-width: 2.0;" width="887" x="23" y="423.3926"/><line style="stroke: #A80036; stroke-width: 1.0; stroke-dasharray: 5.0,5.0;" x1="89" x2="89" y1="116.2871" y2="683.8086"/><line style="stroke: #A80036; stroke-width: 1.0; stroke-dasharray: 5.0,5.0;" x1="515" x2="515" y1="116.2871" y2="683.8086"/><line style="stroke: #A80036; stroke-width: 1.0; stroke-dasharray: 5.0,5.0;" x1="732" x2="732" y1="116.2871" y2="683.8086"/><line style="stroke: #A80036; stroke-width: 1.0; stroke-dasharray: 5.0,5.0;" x1="876" x2="876" y1="116.2871" y2="683.8086"/><text fill="#000000" font-family="sans-serif" font-size="14" lengthAdjust="spacingAndGlyphs" textLength="107" x="33" y="113.334">HUB OPERATOR</text><ellipse cx="89.5" cy="83.7988" fill="#FEFECE" filter="url(#f1jg8hszoiedfy)" rx="12" ry="12" style="stroke: #A80036; stroke-width: 2.0;"/><line style="stroke: #A80036; stroke-width: 2.0;" x1="77.5" x2="101.5" y1="97.7988" y2="97.7988"/><text fill="#000000" font-family="sans-serif" font-size="14" lengthAdjust="spacingAndGlyphs" textLength="107" x="33" y="696.3438">HUB OPERATOR</text><ellipse cx="89.5" cy="715.2969" fill="#FEFECE" filter="url(#f1jg8hszoiedfy)" rx="12" ry="12" style="stroke: #A80036; stroke-width: 2.0;"/><line style="stroke: #A80036; stroke-width: 2.0;" x1="77.5" x2="101.5" y1="729.2969" y2="729.2969"/><text fill="#000000" font-family="sans-serif" font-size="14" lengthAdjust="spacingAndGlyphs" textLength="189" x="418" y="113.334">Account Lookup Service API</text><path d="M495,71.7988 L495,95.7988 M495,83.7988 L512,83.7988 " fill="none" filter="url(#f1jg8hszoiedfy)" style="stroke: #A80036; stroke-width: 2.0;"/><ellipse cx="524" cy="83.7988" fill="#FEFECE" filter="url(#f1jg8hszoiedfy)" rx="12" ry="12" style="stroke: #A80036; stroke-width: 2.0;"/><text fill="#000000" font-family="sans-serif" font-size="14" lengthAdjust="spacingAndGlyphs" textLength="189" x="418" y="696.3438">Account Lookup Service API</text><path d="M495,703.2969 L495,727.2969 M495,715.2969 L512,715.2969 " fill="none" filter="url(#f1jg8hszoiedfy)" style="stroke: #A80036; stroke-width: 2.0;"/><ellipse cx="524" cy="715.2969" fill="#FEFECE" filter="url(#f1jg8hszoiedfy)" rx="12" ry="12" style="stroke: #A80036; stroke-width: 2.0;"/><text fill="#000000" font-family="sans-serif" font-size="14" lengthAdjust="spacingAndGlyphs" textLength="213" x="623" y="113.334">Delete Endpoint Cache Handler</text><ellipse cx="732.5" cy="83.7988" fill="#FEFECE" filter="url(#f1jg8hszoiedfy)" rx="12" ry="12" style="stroke: #A80036; stroke-width: 2.0;"/><polygon fill="#A80036" points="728.5,71.7988,734.5,66.7988,732.5,71.7988,734.5,76.7988,728.5,71.7988" style="stroke: #A80036; stroke-width: 1.0;"/><text fill="#000000" font-family="sans-serif" font-size="14" lengthAdjust="spacingAndGlyphs" textLength="213" x="623" y="696.3438">Delete Endpoint Cache Handler</text><ellipse cx="732.5" cy="715.2969" fill="#FEFECE" filter="url(#f1jg8hszoiedfy)" rx="12" ry="12" style="stroke: #A80036; stroke-width: 2.0;"/><polygon fill="#A80036" points="728.5,703.2969,734.5,698.2969,732.5,703.2969,734.5,708.2969,728.5,703.2969" style="stroke: #A80036; stroke-width: 1.0;"/><text fill="#000000" font-family="sans-serif" font-size="14" lengthAdjust="spacingAndGlyphs" textLength="42" x="852" y="113.334">Cache</text><path d="M858,63.7988 C858,53.7988 876,53.7988 876,53.7988 C876,53.7988 894,53.7988 894,63.7988 L894,89.7988 C894,99.7988 876,99.7988 876,99.7988 C876,99.7988 858,99.7988 858,89.7988 L858,63.7988 " fill="#FEFECE" filter="url(#f1jg8hszoiedfy)" style="stroke: #000000; stroke-width: 1.5;"/><path d="M858,63.7988 C858,73.7988 876,73.7988 876,73.7988 C876,73.7988 894,73.7988 894,63.7988 " fill="none" style="stroke: #000000; stroke-width: 1.5;"/><text fill="#000000" font-family="sans-serif" font-size="14" lengthAdjust="spacingAndGlyphs" textLength="42" x="852" y="696.3438">Cache</text><path d="M858,709.2969 C858,699.2969 876,699.2969 876,699.2969 C876,699.2969 894,699.2969 894,709.2969 L894,735.2969 C894,745.2969 876,745.2969 876,745.2969 C876,745.2969 858,745.2969 858,735.2969 L858,709.2969 " fill="#FEFECE" filter="url(#f1jg8hszoiedfy)" style="stroke: #000000; stroke-width: 1.5;"/><path d="M858,709.2969 C858,719.2969 876,719.2969 876,719.2969 C876,719.2969 894,719.2969 894,709.2969 " fill="none" style="stroke: #000000; stroke-width: 1.5;"/><rect fill="#FFFFFF" filter="url(#f1jg8hszoiedfy)" height="275.1055" style="stroke: #A80036; stroke-width: 1.0;" width="10" x="84.5" y="126.2871"/><rect fill="#FFFFFF" filter="url(#f1jg8hszoiedfy)" height="479.9004" style="stroke: #A80036; stroke-width: 1.0;" width="10" x="515.5" y="171.9082"/><rect fill="#FFFFFF" filter="url(#f1jg8hszoiedfy)" height="229.4844" style="stroke: #A80036; stroke-width: 1.0;" width="10" x="515.5" y="171.9082"/><rect fill="#FFFFFF" filter="url(#f1jg8hszoiedfy)" height="170.8633" style="stroke: #A80036; stroke-width: 1.0;" width="10" x="727.5" y="201.2188"/><rect fill="#FFFFFF" filter="url(#f1jg8hszoiedfy)" height="53.6211" style="stroke: #A80036; stroke-width: 1.0;" width="10" x="871" y="230.5293"/><rect fill="#FFFFFF" filter="url(#f1jg8hszoiedfy)" height="29.3105" style="stroke: #A80036; stroke-width: 1.0;" width="10" x="871" y="313.4609"/><path d="M13,133.2871 L211,133.2871 L211,140.2871 L201,150.2871 L13,150.2871 L13,133.2871 " fill="#EEEEEE" style="stroke: #000000; stroke-width: 1.0;"/><rect fill="none" height="533.5215" style="stroke: #000000; stroke-width: 2.0;" width="907" x="13" y="133.2871"/><text fill="#000000" font-family="sans-serif" font-size="13" font-weight="bold" lengthAdjust="spacingAndGlyphs" textLength="153" x="28" y="146.8555">Delete Endpoint Cache</text><polygon fill="#A80036" points="503.5,167.9082,513.5,171.9082,503.5,175.9082,507.5,171.9082" style="stroke: #A80036; stroke-width: 1.0;"/><line style="stroke: #A80036; stroke-width: 1.0;" x1="94.5" x2="509.5" y1="171.9082" y2="171.9082"/><text fill="#000000" font-family="sans-serif" font-size="13" font-weight="bold" lengthAdjust="spacingAndGlyphs" textLength="9" x="101.5" y="167.166">1</text><text fill="#000000" font-family="sans-serif" font-size="13" lengthAdjust="spacingAndGlyphs" textLength="384" x="114.5" y="167.166">Request to DELETE Endpoint Cache - DELETE /endpointcache</text><polygon fill="#A80036" points="715.5,197.2188,725.5,201.2188,715.5,205.2188,719.5,201.2188" style="stroke: #A80036; stroke-width: 1.0;"/><line style="stroke: #A80036; stroke-width: 1.0;" x1="525.5" x2="721.5" y1="201.2188" y2="201.2188"/><text fill="#000000" font-family="sans-serif" font-size="13" font-weight="bold" lengthAdjust="spacingAndGlyphs" textLength="9" x="532.5" y="196.4766">2</text><text fill="#000000" font-family="sans-serif" font-size="13" lengthAdjust="spacingAndGlyphs" textLength="82" x="545.5" y="196.4766">Delete Cache</text><polygon fill="#A80036" points="859,226.5293,869,230.5293,859,234.5293,863,230.5293" style="stroke: #A80036; stroke-width: 1.0;"/><line style="stroke: #A80036; stroke-width: 1.0;" x1="737.5" x2="865" y1="230.5293" y2="230.5293"/><text fill="#000000" font-family="sans-serif" font-size="13" font-weight="bold" lengthAdjust="spacingAndGlyphs" textLength="9" x="744.5" y="225.7871">3</text><text fill="#000000" font-family="sans-serif" font-size="13" lengthAdjust="spacingAndGlyphs" textLength="70" x="757.5" y="225.7871">Stop Cache</text><path d="M23,245.5293 L85,245.5293 L85,252.5293 L75,262.5293 L23,262.5293 L23,245.5293 " fill="#EEEEEE" style="stroke: #000000; stroke-width: 1.0;"/><rect fill="none" height="163.8633" style="stroke: #000000; stroke-width: 2.0;" width="887" x="23" y="245.5293"/><text fill="#000000" font-family="sans-serif" font-size="13" font-weight="bold" lengthAdjust="spacingAndGlyphs" textLength="17" x="38" y="259.0977">alt</text><text fill="#000000" font-family="sans-serif" font-size="11" font-weight="bold" lengthAdjust="spacingAndGlyphs" textLength="161" x="100" y="258.1641">[Stop Cache Status (success)]</text><polygon fill="#A80036" points="748.5,280.1504,738.5,284.1504,748.5,288.1504,744.5,284.1504" style="stroke: #A80036; stroke-width: 1.0;"/><line style="stroke: #A80036; stroke-width: 1.0; stroke-dasharray: 2.0,2.0;" x1="742.5" x2="875" y1="284.1504" y2="284.1504"/><text fill="#000000" font-family="sans-serif" font-size="13" font-weight="bold" lengthAdjust="spacingAndGlyphs" textLength="9" x="754.5" y="279.4082">4</text><text fill="#000000" font-family="sans-serif" font-size="13" lengthAdjust="spacingAndGlyphs" textLength="84" x="767.5" y="279.4082">Return status</text><polygon fill="#A80036" points="859,309.4609,869,313.4609,859,317.4609,863,313.4609" style="stroke: #A80036; stroke-width: 1.0;"/><line style="stroke: #A80036; stroke-width: 1.0;" x1="737.5" x2="865" y1="313.4609" y2="313.4609"/><text fill="#000000" font-family="sans-serif" font-size="13" font-weight="bold" lengthAdjust="spacingAndGlyphs" textLength="9" x="744.5" y="308.7188">5</text><text fill="#000000" font-family="sans-serif" font-size="13" lengthAdjust="spacingAndGlyphs" textLength="96" x="757.5" y="308.7188">Initialize Cache</text><polygon fill="#A80036" points="748.5,338.7715,738.5,342.7715,748.5,346.7715,744.5,342.7715" style="stroke: #A80036; stroke-width: 1.0;"/><line style="stroke: #A80036; stroke-width: 1.0;" x1="742.5" x2="875" y1="342.7715" y2="342.7715"/><text fill="#000000" font-family="sans-serif" font-size="13" font-weight="bold" lengthAdjust="spacingAndGlyphs" textLength="9" x="754.5" y="338.0293">6</text><text fill="#000000" font-family="sans-serif" font-size="13" lengthAdjust="spacingAndGlyphs" textLength="84" x="767.5" y="338.0293">Return Status</text><polygon fill="#A80036" points="536.5,368.082,526.5,372.082,536.5,376.082,532.5,372.082" style="stroke: #A80036; stroke-width: 1.0;"/><line style="stroke: #A80036; stroke-width: 1.0;" x1="530.5" x2="731.5" y1="372.082" y2="372.082"/><text fill="#000000" font-family="sans-serif" font-size="13" font-weight="bold" lengthAdjust="spacingAndGlyphs" textLength="9" x="542.5" y="367.3398">7</text><text fill="#000000" font-family="sans-serif" font-size="13" lengthAdjust="spacingAndGlyphs" textLength="84" x="555.5" y="367.3398">Return Status</text><polygon fill="#A80036" points="100.5,397.3926,90.5,401.3926,100.5,405.3926,96.5,401.3926" style="stroke: #A80036; stroke-width: 1.0;"/><line style="stroke: #A80036; stroke-width: 1.0; stroke-dasharray: 2.0,2.0;" x1="94.5" x2="509.5" y1="401.3926" y2="401.3926"/><text fill="#000000" font-family="sans-serif" font-size="13" font-weight="bold" lengthAdjust="spacingAndGlyphs" textLength="9" x="106.5" y="396.6504">8</text><text fill="#000000" font-family="sans-serif" font-size="13" lengthAdjust="spacingAndGlyphs" textLength="41" x="119.5" y="396.6504">Return</text><text fill="#000000" font-family="sans-serif" font-size="13" font-weight="bold" lengthAdjust="spacingAndGlyphs" textLength="84" x="164.5" y="396.6504">HTTP Status:</text><text fill="#000000" font-family="sans-serif" font-size="13" lengthAdjust="spacingAndGlyphs" textLength="24" x="252.5" y="396.6504">202</text><path d="M23,423.3926 L85,423.3926 L85,430.3926 L75,440.3926 L23,440.3926 L23,423.3926 " fill="#EEEEEE" style="stroke: #000000; stroke-width: 1.0;"/><rect fill="none" height="236.416" style="stroke: #000000; stroke-width: 2.0;" width="887" x="23" y="423.3926"/><text fill="#000000" font-family="sans-serif" font-size="13" font-weight="bold" lengthAdjust="spacingAndGlyphs" textLength="17" x="38" y="436.9609">alt</text><text fill="#000000" font-family="sans-serif" font-size="11" font-weight="bold" lengthAdjust="spacingAndGlyphs" textLength="183" x="100" y="436.0273">[Validate Status (service failure)]</text><polygon fill="#A80036" points="743.5,458.0137,733.5,462.0137,743.5,466.0137,739.5,462.0137" style="stroke: #A80036; stroke-width: 1.0;"/><line style="stroke: #A80036; stroke-width: 1.0; stroke-dasharray: 2.0,2.0;" x1="737.5" x2="875" y1="462.0137" y2="462.0137"/><text fill="#000000" font-family="sans-serif" font-size="13" font-weight="bold" lengthAdjust="spacingAndGlyphs" textLength="9" x="749.5" y="457.2715">9</text><text fill="#000000" font-family="sans-serif" font-size="13" lengthAdjust="spacingAndGlyphs" textLength="73" x="762.5" y="457.2715">Throw Error</text><polygon fill="#A80036" points="531.5,487.3242,521.5,491.3242,531.5,495.3242,527.5,491.3242" style="stroke: #A80036; stroke-width: 1.0;"/><line style="stroke: #A80036; stroke-width: 1.0;" x1="525.5" x2="731.5" y1="491.3242" y2="491.3242"/><text fill="#000000" font-family="sans-serif" font-size="13" font-weight="bold" lengthAdjust="spacingAndGlyphs" textLength="18" x="537.5" y="486.582">10</text><text fill="#000000" font-family="sans-serif" font-size="13" lengthAdjust="spacingAndGlyphs" textLength="73" x="559.5" y="486.582">Throw Error</text><path d="M277,504.3242 L277,621.3242 L501,621.3242 L501,514.3242 L491,504.3242 L277,504.3242 " fill="#FFFF00" filter="url(#f1jg8hszoiedfy)" style="stroke: #A80036; stroke-width: 1.0;"/><path d="M491,504.3242 L491,514.3242 L501,514.3242 L491,504.3242 " fill="#FFFF00" style="stroke: #A80036; stroke-width: 1.0;"/><text fill="#000000" font-family="sans-serif" font-size="13" lengthAdjust="spacingAndGlyphs" textLength="58" x="283" y="521.8926">Message:</text><text fill="#000000" font-family="sans-serif" font-size="13" lengthAdjust="spacingAndGlyphs" textLength="4" x="283" y="537.2031">{</text><text fill="#000000" font-family="sans-serif" font-size="13" lengthAdjust="spacingAndGlyphs" textLength="126" x="299" y="552.5137">"errorInformation": {</text><text fill="#000000" font-family="sans-serif" font-size="13" lengthAdjust="spacingAndGlyphs" textLength="170" x="315" y="567.8242">"errorCode": &lt;Error Code&gt;,</text><text fill="#000000" font-family="sans-serif" font-size="13" lengthAdjust="spacingAndGlyphs" textLength="171" x="315" y="583.1348">"errorDescription": &lt;Msg&gt;,</text><text fill="#000000" font-family="sans-serif" font-size="13" lengthAdjust="spacingAndGlyphs" textLength="4" x="299" y="598.4453">}</text><text fill="#000000" font-family="sans-serif" font-size="13" lengthAdjust="spacingAndGlyphs" textLength="4" x="283" y="613.7559">}</text><polygon fill="#A80036" points="100.5,647.8086,90.5,651.8086,100.5,655.8086,96.5,651.8086" style="stroke: #A80036; stroke-width: 1.0;"/><line style="stroke: #A80036; stroke-width: 1.0; stroke-dasharray: 2.0,2.0;" x1="94.5" x2="514.5" y1="651.8086" y2="651.8086"/><text fill="#000000" font-family="sans-serif" font-size="13" font-weight="bold" lengthAdjust="spacingAndGlyphs" textLength="18" x="106.5" y="647.0664">11</text><text fill="#000000" font-family="sans-serif" font-size="13" lengthAdjust="spacingAndGlyphs" textLength="41" x="128.5" y="647.0664">Return</text><text fill="#FF0000" font-family="sans-serif" font-size="13" font-weight="bold" lengthAdjust="spacingAndGlyphs" textLength="84" x="173.5" y="647.0664">HTTP Status:</text><text fill="#FF0000" font-family="sans-serif" font-size="13" lengthAdjust="spacingAndGlyphs" textLength="24" x="261.5" y="647.0664">502</text><!--
@startuml
title 7.3.0 Delete Endpoint Cache

autonumber



entity "HUB OPERATOR" as OPERATOR
boundary "Account Lookup Service API" as ALSAPI
control "Delete Endpoint Cache Handler" as DEL_HANDLER
database "Cache" as Cache

box "Account Lookup Service" #LightYellow
participant ALSAPI
participant DEL_HANDLER
participant Cache
end box


activate OPERATOR
group Delete Endpoint Cache
  OPERATOR -> ALSAPI: Request to DELETE Endpoint Cache - DELETE /endpointcache
  activate ALSAPI
  activate ALSAPI

  ALSAPI -> DEL_HANDLER: Delete Cache
  activate DEL_HANDLER
  DEL_HANDLER -> Cache: Stop Cache
  activate Cache


  alt Stop Cache Status (success)
    Cache - -> DEL_HANDLER: Return status
    deactivate Cache

    DEL_HANDLER -> Cache: Initialize Cache
    activate Cache
    Cache -> DEL_HANDLER: Return Status
    deactivate Cache
    DEL_HANDLER -> ALSAPI: Return Status
    deactivate DEL_HANDLER
    ALSAPI - -> OPERATOR: Return <color #000000><b>HTTP Status:</b> 202</color>

    deactivate ALSAPI
    deactivate OPERATOR
  end

  alt Validate Status (service failure)
    Cache - -> DEL_HANDLER: Throw Error
    deactivate Cache
    DEL_HANDLER -> ALSAPI: Throw Error
    deactivate DEL_HANDLER
    note left of ALSAPI #yellow
        Message:
        {
            "errorInformation": {
                "errorCode": <Error Code>,
                "errorDescription": <Msg>,
            }
        }
    end note

    ALSAPI - -> OPERATOR: Return <color #FF0000><b>HTTP Status:</b> 502</color>

    deactivate ALSAPI
    deactivate OPERATOR


  end
end

@enduml

PlantUML version 1.2019.06(Sat May 25 01:10:25 PHT 2019)
(GPL source distribution)
Java Runtime: Java(TM) SE Runtime Environment
JVM: Java HotSpot(TM) 64-Bit Server VM
Java Version: 1.8.0_171-b11
Operating System: Mac OS X
OS Version: 10.13.6
Default Encoding: UTF-8
Language: en
Country: AU
--></g></svg>