<svg xmlns="http://www.w3.org/2000/svg" xmlns:xlink="http://www.w3.org/1999/xlink" height="2005" preserveAspectRatio="none" style="width:2255px;height:2005px" width="2255">
  <defs>
    <filter height="300%" id="a" width="300%" x="-1" y="-1">
      <feGaussianBlur result="blurOut" stdDeviation="2"/>
      <feColorMatrix in="blurOut" result="blurOut2" values="0 0 0 0 0 0 0 0 0 0 0 0 0 0 0 0 0 0 .4 0"/>
      <feOffset dx="4" dy="4" in="blurOut2" result="blurOut3"/>
      <feBlend in="SourceGraphic" in2="blurOut3"/>
    </filter>
  </defs>
  <text font-family="sans-serif" font-size="18" lengthAdjust="spacingAndGlyphs" textLength="397" x="926.75" y="28.708">
    7.1.3 Post Participant Details by Type and ID
  </text>
  <path fill="#D3D3D3" stroke="#a80036" d="M1 40.953h196v1958.758H1z"/>
  <text font-family="sans-serif" font-size="13" font-weight="bold" lengthAdjust="spacingAndGlyphs" textLength="190" x="4" y="53.02">
    Financial Service Provider
  </text>
  <path fill="#FFFFE0" stroke="#a80036" d="M435 40.953h1310.5v1958.758H435z"/>
  <text font-family="sans-serif" font-size="13" font-weight="bold" lengthAdjust="spacingAndGlyphs" textLength="176" x="1002.25" y="53.02">
    Account Lookup Service
  </text>
  <path fill="#90EE90" stroke="#a80036" d="M1897.5 40.953h142v1958.758h-142z"/>
  <text font-family="sans-serif" font-size="13" font-weight="bold" lengthAdjust="spacingAndGlyphs" textLength="119" x="1909" y="53.02">
    Central Services
  </text>
  <path fill="#ADD8E6" stroke="#a80036" d="M2041.5 40.953h208v1958.758h-208z"/>
  <text font-family="sans-serif" font-size="13" font-weight="bold" lengthAdjust="spacingAndGlyphs" textLength="202" x="2044.5" y="53.02">
    ALS Oracle Service/Adapter
  </text>
  <path fill="#FFF" filter="url(#a)" stroke="#a80036" d="M493 525.305h10v98.531h-10zM918 623.836h10v1272.578h-10zM1284 1133.492h10v132.797h-10zM1525.5 1310.555h10v132.797h-10zM1525.5 1617.953h10v132.797h-10zM1669.5 892.164h10v117.664h-10zM1963.5 951.563h10v29.133h-10zM1963.5 1385.086h10v29.133h-10zM1963.5 1692.484h10v29.133h-10zM2140.5 1208.023h10v29.133h-10z"/>
  <path fill="#FFF" filter="url(#a)" stroke="#000" stroke-width="2" d="M42 160.383h2188v1736.031H42z"/>
  <path fill="#FFF" filter="url(#a)" stroke="#000" stroke-width="2" d="M52 696.102h2168v1193.313H52z"/>
  <path fill="#FFF" filter="url(#a)" stroke="#000" stroke-width="2" d="M859.5 838.766h1186v236.328h-1186z"/>
  <path fill="#FFF" d="M52 1566.883h2168v322.531H52z"/>
  <path stroke="#a80036" stroke-dasharray="5,5" d="M99 143.383v1770.031M498 143.383v1770.031M922.5 143.383v1770.031M1288.5 143.383v1770.031M1402.5 143.383v1770.031M1530.5 143.383v1770.031M1674.5 143.383v1770.031M1968.5 143.383v1770.031M2145 143.383v1770.031"/>
  <text font-family="sans-serif" font-size="14" lengthAdjust="spacingAndGlyphs" textLength="68" x="62" y="140.081">
    Payer FSP
  </text>
  <circle cx="99" cy="70.086" fill="#FEFECE" filter="url(#a)" stroke="#a80036" stroke-width="2" r="8"/>
  <path d="M99 78.086v27m-13-19h26m-13 19l-13 15m13-15l13 15" fill="none" filter="url(#a)" stroke="#a80036" stroke-width="2"/>
  <text font-family="sans-serif" font-size="14" lengthAdjust="spacingAndGlyphs" textLength="68" x="62" y="1925.409">
    Payer FSP
  </text>
  <circle cx="99" cy="1938.711" fill="#FEFECE" filter="url(#a)" stroke="#a80036" stroke-width="2" r="8"/>
  <path d="M99 1946.71v27m-13-19h26m-13 19l-13 15m13-15l13 15" fill="none" filter="url(#a)" stroke="#a80036" stroke-width="2"/>
  <text font-family="sans-serif" font-size="14" lengthAdjust="spacingAndGlyphs" textLength="112" x="439" y="123.784">
    Account Lookup
  </text>
  <text font-family="sans-serif" font-size="14" lengthAdjust="spacingAndGlyphs" textLength="89" x="450.5" y="140.081">
    Service (ALS)
  </text>
  <path d="M477.5 82.79v24m0-12h17" fill="none" filter="url(#a)" stroke="#a80036" stroke-width="2"/>
  <circle cx="506.5" cy="94.789" fill="#FEFECE" filter="url(#a)" stroke="#a80036" stroke-width="2" r="12"/>
  <text font-family="sans-serif" font-size="14" lengthAdjust="spacingAndGlyphs" textLength="112" x="439" y="1925.409">
    Account Lookup
  </text>
  <text font-family="sans-serif" font-size="14" lengthAdjust="spacingAndGlyphs" textLength="89" x="450.5" y="1941.706">
    Service (ALS)
  </text>
  <path d="M477.5 1949.008v24m0-12h17" fill="none" filter="url(#a)" stroke="#a80036" stroke-width="2"/>
  <circle cx="506.5" cy="1961.008" fill="#FEFECE" filter="url(#a)" stroke="#a80036" stroke-width="2" r="12"/>
  <text font-family="sans-serif" font-size="14" lengthAdjust="spacingAndGlyphs" textLength="101" x="869.5" y="123.784">
    ALS Participant
  </text>
  <text font-family="sans-serif" font-size="14" lengthAdjust="spacingAndGlyphs" textLength="53" x="893.5" y="140.081">
    Handler
  </text>
  <circle cx="923" cy="94.789" fill="#FEFECE" filter="url(#a)" stroke="#a80036" stroke-width="2" r="12"/>
  <path fill="#A80036" stroke="#a80036" d="M919 82.79l6-5-2 5 2 5-6-5z"/>
  <text font-family="sans-serif" font-size="14" lengthAdjust="spacingAndGlyphs" textLength="101" x="869.5" y="1925.409">
    ALS Participant
  </text>
  <text font-family="sans-serif" font-size="14" lengthAdjust="spacingAndGlyphs" textLength="53" x="893.5" y="1941.706">
    Handler
  </text>
  <circle cx="923" cy="1961.008" fill="#FEFECE" filter="url(#a)" stroke="#a80036" stroke-width="2" r="12"/>
  <path fill="#A80036" stroke="#a80036" d="M919 1949.008l6-5-2 5 2 5-6-5z"/>
  <text font-family="sans-serif" font-size="14" lengthAdjust="spacingAndGlyphs" textLength="101" x="1235.5" y="123.784">
    ALS Participant
  </text>
  <text font-family="sans-serif" font-size="14" lengthAdjust="spacingAndGlyphs" textLength="79" x="1246.5" y="140.081">
    Oracle DAO
  </text>
  <circle cx="1289" cy="94.789" fill="#FEFECE" filter="url(#a)" stroke="#a80036" stroke-width="2" r="12"/>
  <path stroke="#a80036" stroke-width="2" d="M1277 108.789h24"/>
  <text font-family="sans-serif" font-size="14" lengthAdjust="spacingAndGlyphs" textLength="101" x="1235.5" y="1925.409">
    ALS Participant
  </text>
  <text font-family="sans-serif" font-size="14" lengthAdjust="spacingAndGlyphs" textLength="79" x="1246.5" y="1941.706">
    Oracle DAO
  </text>
  <circle cx="1289" cy="1961.008" fill="#FEFECE" filter="url(#a)" stroke="#a80036" stroke-width="2" r="12"/>
  <path stroke="#a80036" stroke-width="2" d="M1277 1975.008h24"/>
  <text font-family="sans-serif" font-size="14" lengthAdjust="spacingAndGlyphs" textLength="95" x="1352.5" y="140.081">
    ALS Database
  </text>
  <path d="M1385 91.086c0-10 18-10 18-10s18 0 18 10v26c0 10-18 10-18 10s-18 0-18-10v-26" fill="#FEFECE" filter="url(#a)" stroke="#000" stroke-width="1.5"/>
  <path d="M1385 91.086c0 10 18 10 18 10s18 0 18-10" fill="none" stroke="#000" stroke-width="1.5"/>
  <text font-family="sans-serif" font-size="14" lengthAdjust="spacingAndGlyphs" textLength="95" x="1352.5" y="1925.409">
    ALS Database
  </text>
  <path d="M1385 1938.71c0-10 18-10 18-10s18 0 18 10v26c0 10-18 10-18 10s-18 0-18-10v-26" fill="#FEFECE" filter="url(#a)" stroke="#000" stroke-width="1.5"/>
  <path d="M1385 1938.71c0 10 18 10 18 10s18 0 18-10" fill="none" stroke="#000" stroke-width="1.5"/>
  <text font-family="sans-serif" font-size="14" lengthAdjust="spacingAndGlyphs" textLength="128" x="1463.5" y="123.784">
    ALS CentralService
  </text>
  <text font-family="sans-serif" font-size="14" lengthAdjust="spacingAndGlyphs" textLength="97" x="1479" y="140.081">
    Endpoint DAO
  </text>
  <circle cx="1530.5" cy="94.789" fill="#FEFECE" filter="url(#a)" stroke="#a80036" stroke-width="2" r="12"/>
  <path stroke="#a80036" stroke-width="2" d="M1518.5 108.789h24"/>
  <text font-family="sans-serif" font-size="14" lengthAdjust="spacingAndGlyphs" textLength="128" x="1463.5" y="1925.409">
    ALS CentralService
  </text>
  <text font-family="sans-serif" font-size="14" lengthAdjust="spacingAndGlyphs" textLength="97" x="1479" y="1941.706">
    Endpoint DAO
  </text>
  <circle cx="1530.5" cy="1961.008" fill="#FEFECE" filter="url(#a)" stroke="#a80036" stroke-width="2" r="12"/>
  <path stroke="#a80036" stroke-width="2" d="M1518.5 1975.008h24"/>
  <text font-family="sans-serif" font-size="14" lengthAdjust="spacingAndGlyphs" textLength="128" x="1607.5" y="123.784">
    ALS CentralService
  </text>
  <text font-family="sans-serif" font-size="14" lengthAdjust="spacingAndGlyphs" textLength="107" x="1618" y="140.081">
    Participant DAO
  </text>
  <circle cx="1674.5" cy="94.789" fill="#FEFECE" filter="url(#a)" stroke="#a80036" stroke-width="2" r="12"/>
  <path stroke="#a80036" stroke-width="2" d="M1662.5 108.789h24"/>
  <text font-family="sans-serif" font-size="14" lengthAdjust="spacingAndGlyphs" textLength="128" x="1607.5" y="1925.409">
    ALS CentralService
  </text>
  <text font-family="sans-serif" font-size="14" lengthAdjust="spacingAndGlyphs" textLength="107" x="1618" y="1941.706">
    Participant DAO
  </text>
  <circle cx="1674.5" cy="1961.008" fill="#FEFECE" filter="url(#a)" stroke="#a80036" stroke-width="2" r="12"/>
  <path stroke="#a80036" stroke-width="2" d="M1662.5 1975.008h24"/>
  <text font-family="sans-serif" font-size="14" lengthAdjust="spacingAndGlyphs" textLength="128" x="1901.5" y="140.081">
    Central Service API
  </text>
  <path d="M1948 99.086v24m0-12h17" fill="none" filter="url(#a)" stroke="#a80036" stroke-width="2"/>
  <circle cx="1977" cy="111.086" fill="#FEFECE" filter="url(#a)" stroke="#a80036" stroke-width="2" r="12"/>
  <text font-family="sans-serif" font-size="14" lengthAdjust="spacingAndGlyphs" textLength="128" x="1901.5" y="1925.409">
    Central Service API
  </text>
  <path d="M1948 1932.71v24m0-12h17" fill="none" filter="url(#a)" stroke="#a80036" stroke-width="2"/>
  <circle cx="1977" cy="1944.711" fill="#FEFECE" filter="url(#a)" stroke="#a80036" stroke-width="2" r="12"/>
  <text font-family="sans-serif" font-size="14" lengthAdjust="spacingAndGlyphs" textLength="123" x="2081" y="140.081">
    Oracle Service API
  </text>
  <path d="M2125 99.086v24m0-12h17" fill="none" filter="url(#a)" stroke="#a80036" stroke-width="2"/>
  <circle cx="2154" cy="111.086" fill="#FEFECE" filter="url(#a)" stroke="#a80036" stroke-width="2" r="12"/>
  <text font-family="sans-serif" font-size="14" lengthAdjust="spacingAndGlyphs" textLength="123" x="2081" y="1925.409">
    Oracle Service API
  </text>
  <path d="M2125 1932.71v24m0-12h17" fill="none" filter="url(#a)" stroke="#a80036" stroke-width="2"/>
  <circle cx="2154" cy="1944.711" fill="#FEFECE" filter="url(#a)" stroke="#a80036" stroke-width="2" r="12"/>
  <path fill="#FFF" filter="url(#a)" stroke="#a80036" d="M493 525.305h10v98.531h-10zM918 623.836h10v1272.578h-10zM1284 1133.492h10v132.797h-10zM1525.5 1310.555h10v132.797h-10zM1525.5 1617.953h10v132.797h-10zM1669.5 892.164h10v117.664h-10zM1963.5 951.563h10v29.133h-10zM1963.5 1385.086h10v29.133h-10zM1963.5 1692.484h10v29.133h-10zM2140.5 1208.023h10v29.133h-10z"/>
  <path d="M42 160.383h265v7l-10 10H42v-17" fill="#EEE" stroke="#000"/>
  <path fill="none" stroke="#000" stroke-width="2" d="M42 160.383h2188v1736.031H42z"/>
  <text font-family="sans-serif" font-size="13" font-weight="bold" lengthAdjust="spacingAndGlyphs" textLength="220" x="57" y="173.45">
    Post Participant&apos;s FSP Details
  </text>
  <path d="M104 182.516v267h337v-257l-10-10H104" fill="#FF0" filter="url(#a)" stroke="#a80036"/>
  <path d="M431 182.516v10h10l-10-10" fill="#FF0" stroke="#a80036"/>
  <text font-family="sans-serif" font-size="13" lengthAdjust="spacingAndGlyphs" textLength="299" x="110" y="199.583">
    Headers - postParticipantsByTypeIDHeaders: {
  </text>
  <text font-family="sans-serif" font-size="13" lengthAdjust="spacingAndGlyphs" textLength="234" x="126" y="214.715">
    Content-Length: &lt;Content-Length&gt;,
  </text>
  <text font-family="sans-serif" font-size="13" lengthAdjust="spacingAndGlyphs" textLength="206" x="126" y="229.848">
    Content-Type: &lt;Content-Type&gt;,
  </text>
  <text font-family="sans-serif" font-size="13" lengthAdjust="spacingAndGlyphs" textLength="96" x="126" y="244.981">
    Date: &lt;Date&gt;,
  </text>
  <text font-family="sans-serif" font-size="13" lengthAdjust="spacingAndGlyphs" textLength="242" x="126" y="260.114">
    X-Forwarded-For: &lt;X-Forwarded-For&gt;,
  </text>
  <text font-family="sans-serif" font-size="13" lengthAdjust="spacingAndGlyphs" textLength="224" x="126" y="275.247">
    FSPIOP-Source: &lt;FSPIOP-Source&gt;,
  </text>
  <text font-family="sans-serif" font-size="13" lengthAdjust="spacingAndGlyphs" textLength="280" x="126" y="290.379">
    FSPIOP-Destination: &lt;FSPIOP-Destination&gt;,
  </text>
  <text font-family="sans-serif" font-size="13" lengthAdjust="spacingAndGlyphs" textLength="268" x="126" y="305.512">
    FSPIOP-Encryption: &lt;FSPIOP-Encryption&gt;,
  </text>
  <text font-family="sans-serif" font-size="13" lengthAdjust="spacingAndGlyphs" textLength="258" x="126" y="320.645">
    FSPIOP-Signature: &lt;FSPIOP-Signature&gt;,
  </text>
  <text font-family="sans-serif" font-size="13" lengthAdjust="spacingAndGlyphs" textLength="176" x="126" y="335.778">
    FSPIOP-URI: &lt;FSPIOP-URI&gt;,
  </text>
  <text font-family="sans-serif" font-size="13" lengthAdjust="spacingAndGlyphs" textLength="300" x="126" y="350.911">
    FSPIOP-HTTP-Method: &lt;FSPIOP-HTTP-Method&gt;
  </text>
  <text font-family="sans-serif" font-size="13" lengthAdjust="spacingAndGlyphs" textLength="8" x="110" y="366.043">
    }
  </text>
  <text font-family="sans-serif" font-size="13" lengthAdjust="spacingAndGlyphs" textLength="286" x="110" y="396.309">
    Payload - postParticipantsByTypeIDMessage:
  </text>
  <text font-family="sans-serif" font-size="13" lengthAdjust="spacingAndGlyphs" textLength="8" x="110" y="411.442">
    {
  </text>
  <text font-family="sans-serif" font-size="13" lengthAdjust="spacingAndGlyphs" textLength="94" x="118" y="426.575">
    &quot;fspId&quot;: &quot;string&quot;
  </text>
  <text font-family="sans-serif" font-size="13" lengthAdjust="spacingAndGlyphs" textLength="8" x="110" y="441.707">
    }
  </text>
  <path stroke="#a80036" d="M491 525.305l-10-4M491 525.305l-10 4M99 525.305h393"/>
  <text font-family="sans-serif" font-size="13" font-weight="bold" lengthAdjust="spacingAndGlyphs" textLength="9" x="106" y="497.54">
    1
  </text>
  <text font-family="sans-serif" font-size="13" lengthAdjust="spacingAndGlyphs" textLength="253" x="119" y="474.84">
    Request to add participant&apos;s FSP details
  </text>
  <text font-family="sans-serif" font-size="13" lengthAdjust="spacingAndGlyphs" textLength="209" x="119" y="489.973">
    POST - /participants/{Type}/{ID}
  </text>
  <text fill="#388724" font-family="sans-serif" font-size="13" font-weight="bold" lengthAdjust="spacingAndGlyphs" textLength="118" x="119" y="505.106">
    Response code:
  </text>
  <text fill="#388724" font-family="sans-serif" font-size="13" lengthAdjust="spacingAndGlyphs" textLength="24" x="241" y="505.106">
    202
  </text>
  <text fill="red" font-family="sans-serif" font-size="13" font-weight="bold" lengthAdjust="spacingAndGlyphs" textLength="82" x="119" y="520.239">
    Error code:
  </text>
  <text fill="red" font-family="sans-serif" font-size="13" lengthAdjust="spacingAndGlyphs" textLength="148" x="205" y="520.239">
    200x, 300x, 310x, 320x
  </text>
  <path d="M257 538.305v55h227v-45l-10-10H257" fill="#D3D3D3" filter="url(#a)" stroke="#a80036"/>
  <path d="M474 538.305v10h10l-10-10" fill="#D3D3D3" stroke="#a80036"/>
  <text font-family="sans-serif" font-size="13" lengthAdjust="spacingAndGlyphs" textLength="156" x="263" y="555.372">
    Validate request against
  </text>
  <text font-family="sans-serif" font-size="13" lengthAdjust="spacingAndGlyphs" textLength="206" x="263" y="570.504">
    Mojaloop Interface Specification.
  </text>
  <text fill="red" font-family="sans-serif" font-size="13" font-weight="bold" lengthAdjust="spacingAndGlyphs" textLength="82" x="263" y="585.637">
    Error code:
  </text>
  <text fill="red" font-family="sans-serif" font-size="13" lengthAdjust="spacingAndGlyphs" textLength="70" x="349" y="585.637">
    300x, 310x
  </text>
  <path fill="#A80036" stroke="#a80036" d="M906 619.836l10 4-10 4 4-4z"/>
  <path stroke="#a80036" d="M498 623.836h414"/>
  <text font-family="sans-serif" font-size="13" font-weight="bold" lengthAdjust="spacingAndGlyphs" textLength="9" x="505" y="618.77">
    2
  </text>
  <text font-family="sans-serif" font-size="13" lengthAdjust="spacingAndGlyphs" textLength="251" x="518" y="618.77">
    Process create participant&apos;s FSP details
  </text>
  <path stroke="#a80036" d="M928 668.102h42M970 668.102v13M929 681.102h41"/>
  <path fill="#A80036" stroke="#a80036" d="M939 677.102l-10 4 10 4-4-4z"/>
  <text font-family="sans-serif" font-size="13" font-weight="bold" lengthAdjust="spacingAndGlyphs" textLength="9" x="935" y="655.469">
    3
  </text>
  <text font-family="sans-serif" font-size="13" lengthAdjust="spacingAndGlyphs" textLength="326" x="948" y="647.903">
    Validate that PARTICIPANT.fspId == FSPIOP-Source
  </text>
  <text fill="red" font-family="sans-serif" font-size="13" font-weight="bold" lengthAdjust="spacingAndGlyphs" textLength="82" x="948" y="663.036">
    Error code:
  </text>
  <text fill="red" font-family="sans-serif" font-size="13" lengthAdjust="spacingAndGlyphs" textLength="32" x="1034" y="663.036">
    3100
  </text>
  <path d="M52 696.102h64v7l-10 10H52v-17" fill="#EEE" stroke="#000"/>
  <path fill="none" stroke="#000" stroke-width="2" d="M52 696.102h2168v1193.313H52z"/>
  <text font-family="sans-serif" font-size="13" font-weight="bold" lengthAdjust="spacingAndGlyphs" textLength="19" x="67" y="709.168">
    alt
  </text>
  <text font-family="sans-serif" font-size="11" font-weight="bold" lengthAdjust="spacingAndGlyphs" textLength="125" x="131" y="708.312">
    [Validation passed]
  </text>
  <path fill="#A80036" stroke="#a80036" d="M939 745.5l-10 4 10 4-4-4zM1391 745.5l10 4-10 4 4-4z"/>
  <path stroke="#a80036" d="M933 749.5h464"/>
  <text font-family="sans-serif" font-size="13" font-weight="bold" lengthAdjust="spacingAndGlyphs" textLength="9" x="945" y="736.868">
    4
  </text>
  <text font-family="sans-serif" font-size="13" lengthAdjust="spacingAndGlyphs" textLength="415" x="958" y="729.301">
    Get Oracle Routing Config based on Type (and optional Currency)
  </text>
  <text fill="red" font-family="sans-serif" font-size="13" font-weight="bold" lengthAdjust="spacingAndGlyphs" textLength="82" x="958" y="744.434">
    Error code:
  </text>
  <text fill="red" font-family="sans-serif" font-size="13" lengthAdjust="spacingAndGlyphs" textLength="70" x="1044" y="744.434">
    300x, 310x
  </text>
  <path fill="#FFF" filter="url(#a)" stroke="#000" stroke-width="2" d="M866.5 757.5h586v44.266h-586z"/>
  <path fill="#EEE" stroke="#000" stroke-width="2" d="M866.5 757.5h66v7l-10 10h-56v-17z"/>
  <text font-family="sans-serif" font-size="13" font-weight="bold" lengthAdjust="spacingAndGlyphs" textLength="21" x="879.5" y="771.567">
    ref
  </text>
  <text font-family="sans-serif" font-size="13" lengthAdjust="spacingAndGlyphs" textLength="113" x="987" y="790.567">
    GET Participants -
  </text>
  <a target="_top" xlink:actuate="onRequest" xlink:href="https://docs.mojaloop.live/mojaloop-technical-overview/account-lookup-service/als-get-participants.html" xlink:show="new" xlink:title="https://docs.mojaloop.live/mojaloop-technical-overview/account-lookup-service/als-get-participants.html" xlink:type="simple">
    <text fill="#00F" font-family="sans-serif" font-size="13" lengthAdjust="spacingAndGlyphs" text-decoration="underline" textLength="232" x="1104" y="790.567">
      Get Oracle Routing Config Sequence
    </text>
  </a>
  <path stroke="#000" d="M987 795.633h0M987 795.633h0M987 795.633h0"/>
  <path d="M859.5 838.766h237v7l-10 10h-227v-17" fill="#EEE" stroke="#000"/>
  <path fill="none" stroke="#000" stroke-width="2" d="M859.5 838.766h1186v236.328h-1186z"/>
  <text font-family="sans-serif" font-size="13" font-weight="bold" lengthAdjust="spacingAndGlyphs" textLength="192" x="874.5" y="851.832">
    Validate Participant&apos;s FSP
  </text>
  <path fill="#A80036" stroke="#a80036" d="M1657.5 888.164l10 4-10 4 4-4z"/>
  <path stroke="#a80036" d="M928 892.164h735.5"/>
  <text font-family="sans-serif" font-size="13" font-weight="bold" lengthAdjust="spacingAndGlyphs" textLength="9" x="935" y="879.532">
    5
  </text>
  <text font-family="sans-serif" font-size="13" lengthAdjust="spacingAndGlyphs" textLength="401" x="948" y="871.965">
    Request participant (PARTICIPANT.fspId) information for {Type}
  </text>
  <text fill="red" font-family="sans-serif" font-size="13" font-weight="bold" lengthAdjust="spacingAndGlyphs" textLength="82" x="948" y="887.098">
    Error code:
  </text>
  <text fill="red" font-family="sans-serif" font-size="13" lengthAdjust="spacingAndGlyphs" textLength="31" x="1034" y="887.098">
    200x
  </text>
  <path fill="#A80036" stroke="#a80036" d="M1951.5 947.563l10 4-10 4 4-4z"/>
  <path stroke="#a80036" d="M1679.5 951.563h278"/>
  <text font-family="sans-serif" font-size="13" font-weight="bold" lengthAdjust="spacingAndGlyphs" textLength="9" x="1686.5" y="931.364">
    6
  </text>
  <text font-family="sans-serif" font-size="13" lengthAdjust="spacingAndGlyphs" textLength="252" x="1699.5" y="916.231">
    GET - /participants/{PARTICIPANT.fspId}
  </text>
  <text fill="#388724" font-family="sans-serif" font-size="13" font-weight="bold" lengthAdjust="spacingAndGlyphs" textLength="118" x="1699.5" y="931.364">
    Response code:
  </text>
  <text fill="#388724" font-family="sans-serif" font-size="13" lengthAdjust="spacingAndGlyphs" textLength="24" x="1821.5" y="931.364">
    200
  </text>
  <text fill="red" font-family="sans-serif" font-size="13" font-weight="bold" lengthAdjust="spacingAndGlyphs" textLength="82" x="1699.5" y="946.497">
    Error code:
  </text>
  <text fill="red" font-family="sans-serif" font-size="13" lengthAdjust="spacingAndGlyphs" textLength="109" x="1785.5" y="946.497">
    200x, 310x, 320x
  </text>
  <path fill="#A80036" stroke="#a80036" d="M1690.5 976.695l-10 4 10 4-4-4z"/>
  <path stroke="#a80036" stroke-dasharray="2,2" d="M1684.5 980.695h283"/>
  <text font-family="sans-serif" font-size="13" font-weight="bold" lengthAdjust="spacingAndGlyphs" textLength="9" x="1696.5" y="975.629">
    7
  </text>
  <text font-family="sans-serif" font-size="13" lengthAdjust="spacingAndGlyphs" textLength="191" x="1709.5" y="975.629">
    Return participant information
  </text>
  <path fill="#A80036" stroke="#a80036" d="M939 1005.828l-10 4 10 4-4-4z"/>
  <path stroke="#a80036" stroke-dasharray="2,2" d="M933 1009.828h740.5"/>
  <text font-family="sans-serif" font-size="13" font-weight="bold" lengthAdjust="spacingAndGlyphs" textLength="9" x="945" y="1004.762">
    8
  </text>
  <text font-family="sans-serif" font-size="13" lengthAdjust="spacingAndGlyphs" textLength="191" x="958" y="1004.762">
    Return participant information
  </text>
  <path stroke="#a80036" d="M928 1054.094h42M970 1054.094v13M929 1067.094h41"/>
  <path fill="#A80036" stroke="#a80036" d="M939 1063.094l-10 4 10 4-4-4z"/>
  <text font-family="sans-serif" font-size="13" font-weight="bold" lengthAdjust="spacingAndGlyphs" textLength="9" x="935" y="1041.461">
    9
  </text>
  <text font-family="sans-serif" font-size="13" lengthAdjust="spacingAndGlyphs" textLength="124" x="948" y="1033.895">
    Validate participant
  </text>
  <text fill="red" font-family="sans-serif" font-size="13" font-weight="bold" lengthAdjust="spacingAndGlyphs" textLength="82" x="948" y="1049.028">
    Error code:
  </text>
  <text fill="red" font-family="sans-serif" font-size="13" lengthAdjust="spacingAndGlyphs" textLength="31" x="1034" y="1049.028">
    320x
  </text>
  <path fill="#A80036" stroke="#a80036" d="M1272 1129.492l10 4-10 4 4-4z"/>
  <path stroke="#a80036" d="M928 1133.492h350"/>
  <text font-family="sans-serif" font-size="13" font-weight="bold" lengthAdjust="spacingAndGlyphs" textLength="18" x="935" y="1113.293">
    10
  </text>
  <text font-family="sans-serif" font-size="13" lengthAdjust="spacingAndGlyphs" textLength="199" x="957" y="1098.161">
    Create participant&apos;s FSP details
  </text>
  <text font-family="sans-serif" font-size="13" lengthAdjust="spacingAndGlyphs" textLength="126" x="957" y="1113.293">
    POST - /participants
  </text>
  <text fill="red" font-family="sans-serif" font-size="13" font-weight="bold" lengthAdjust="spacingAndGlyphs" textLength="82" x="957" y="1128.426">
    Error code:
  </text>
  <text fill="red" font-family="sans-serif" font-size="13" lengthAdjust="spacingAndGlyphs" textLength="109" x="1043" y="1128.426">
    200x, 310x, 320x
  </text>
  <path fill="#A80036" stroke="#a80036" d="M2128.5 1204.023l10 4-10 4 4-4z"/>
  <path stroke="#a80036" d="M1294 1208.023h840.5"/>
  <text font-family="sans-serif" font-size="13" font-weight="bold" lengthAdjust="spacingAndGlyphs" textLength="18" x="1301" y="1180.258">
    11
  </text>
  <text font-family="sans-serif" font-size="13" lengthAdjust="spacingAndGlyphs" textLength="199" x="1323" y="1157.559">
    Create participant&apos;s FSP details
  </text>
  <text font-family="sans-serif" font-size="13" lengthAdjust="spacingAndGlyphs" textLength="126" x="1323" y="1172.692">
    POST - /participants
  </text>
  <text fill="#388724" font-family="sans-serif" font-size="13" font-weight="bold" lengthAdjust="spacingAndGlyphs" textLength="118" x="1323" y="1187.825">
    Response code:
  </text>
  <text fill="#388724" font-family="sans-serif" font-size="13" lengthAdjust="spacingAndGlyphs" textLength="24" x="1445" y="1187.825">
    204
  </text>
  <text fill="red" font-family="sans-serif" font-size="13" font-weight="bold" lengthAdjust="spacingAndGlyphs" textLength="82" x="1323" y="1202.957">
    Error code:
  </text>
  <text fill="red" font-family="sans-serif" font-size="13" lengthAdjust="spacingAndGlyphs" textLength="109" x="1409" y="1202.957">
    200x, 310x, 320x
  </text>
  <path fill="#A80036" stroke="#a80036" d="M1305 1233.156l-10 4 10 4-4-4z"/>
  <path stroke="#a80036" stroke-dasharray="2,2" d="M1299 1237.156h845.5"/>
  <text font-family="sans-serif" font-size="13" font-weight="bold" lengthAdjust="spacingAndGlyphs" textLength="18" x="1311" y="1232.09">
    12
  </text>
  <text font-family="sans-serif" font-size="13" lengthAdjust="spacingAndGlyphs" textLength="270" x="1333" y="1232.09">
    Return result of Participant Create request
  </text>
  <path fill="#A80036" stroke="#a80036" d="M939 1262.29l-10 4 10 4-4-4z"/>
  <path stroke="#a80036" stroke-dasharray="2,2" d="M933 1266.289h355"/>
  <text font-family="sans-serif" font-size="13" font-weight="bold" lengthAdjust="spacingAndGlyphs" textLength="18" x="945" y="1261.223">
    13
  </text>
  <text font-family="sans-serif" font-size="13" lengthAdjust="spacingAndGlyphs" textLength="270" x="967" y="1261.223">
    Return result of Participant Create request
  </text>
  <path fill="#A80036" stroke="#a80036" d="M1513.5 1306.555l10 4-10 4 4-4z"/>
  <path stroke="#a80036" d="M928 1310.555h591.5"/>
  <text font-family="sans-serif" font-size="13" font-weight="bold" lengthAdjust="spacingAndGlyphs" textLength="18" x="935" y="1297.922">
    14
  </text>
  <text font-family="sans-serif" font-size="13" lengthAdjust="spacingAndGlyphs" textLength="439" x="957" y="1290.356">
    Retrieve the PayerFSP (FSPIOP-Source) Participant Callback Endpoint
  </text>
  <text fill="red" font-family="sans-serif" font-size="13" font-weight="bold" lengthAdjust="spacingAndGlyphs" textLength="82" x="957" y="1305.489">
    Error code:
  </text>
  <text fill="red" font-family="sans-serif" font-size="13" lengthAdjust="spacingAndGlyphs" textLength="109" x="1043" y="1305.489">
    200x, 310x, 320x
  </text>
  <path fill="#A80036" stroke="#a80036" d="M1951.5 1381.086l10 4-10 4 4-4z"/>
  <path stroke="#a80036" d="M1535.5 1385.086h422"/>
  <text font-family="sans-serif" font-size="13" font-weight="bold" lengthAdjust="spacingAndGlyphs" textLength="18" x="1542.5" y="1357.321">
    15
  </text>
  <text font-family="sans-serif" font-size="13" lengthAdjust="spacingAndGlyphs" textLength="330" x="1564.5" y="1334.622">
    Retrieve the PayerFSP Participant Callback Endpoint
  </text>
  <text font-family="sans-serif" font-size="13" lengthAdjust="spacingAndGlyphs" textLength="299" x="1564.5" y="1349.754">
    GET - /participants/{FSPIOP-Source}/endpoints
  </text>
  <text fill="#388724" font-family="sans-serif" font-size="13" font-weight="bold" lengthAdjust="spacingAndGlyphs" textLength="118" x="1564.5" y="1364.887">
    Response code:
  </text>
  <text fill="#388724" font-family="sans-serif" font-size="13" lengthAdjust="spacingAndGlyphs" textLength="24" x="1686.5" y="1364.887">
    200
  </text>
  <text fill="red" font-family="sans-serif" font-size="13" font-weight="bold" lengthAdjust="spacingAndGlyphs" textLength="82" x="1564.5" y="1380.02">
    Error code:
  </text>
  <text fill="red" font-family="sans-serif" font-size="13" lengthAdjust="spacingAndGlyphs" textLength="109" x="1650.5" y="1380.02">
    200x, 310x, 320x
  </text>
  <path fill="#A80036" stroke="#a80036" d="M1546.5 1410.219l-10 4 10 4-4-4z"/>
  <path stroke="#a80036" stroke-dasharray="2,2" d="M1540.5 1414.219h427"/>
  <text font-family="sans-serif" font-size="13" font-weight="bold" lengthAdjust="spacingAndGlyphs" textLength="18" x="1552.5" y="1409.153">
    16
  </text>
  <text font-family="sans-serif" font-size="13" lengthAdjust="spacingAndGlyphs" textLength="298" x="1574.5" y="1409.153">
    List of PayerFSP Participant Callback Endpoints
  </text>
  <path fill="#A80036" stroke="#a80036" d="M939 1439.352l-10 4 10 4-4-4z"/>
  <path stroke="#a80036" stroke-dasharray="2,2" d="M933 1443.352h596.5"/>
  <text font-family="sans-serif" font-size="13" font-weight="bold" lengthAdjust="spacingAndGlyphs" textLength="18" x="945" y="1438.286">
    17
  </text>
  <text font-family="sans-serif" font-size="13" lengthAdjust="spacingAndGlyphs" textLength="298" x="967" y="1438.286">
    List of PayerFSP Participant Callback Endpoints
  </text>
  <path stroke="#a80036" d="M928 1487.617h42M970 1487.617v13M929 1500.617h41"/>
  <path fill="#A80036" stroke="#a80036" d="M939 1496.617l-10 4 10 4-4-4z"/>
  <text font-family="sans-serif" font-size="13" font-weight="bold" lengthAdjust="spacingAndGlyphs" textLength="18" x="935" y="1474.985">
    18
  </text>
  <text font-family="sans-serif" font-size="13" lengthAdjust="spacingAndGlyphs" textLength="320" x="957" y="1467.418">
    Match PayerFSP Participant Callback Endpoints for
  </text>
  <text font-family="sans-serif" font-size="13" lengthAdjust="spacingAndGlyphs" textLength="271" x="957" y="1482.551">
    FSPIOP_CALLBACK_URL_PARTICIPANT_PUT
  </text>
  <path fill="#A80036" stroke="#a80036" d="M509 1525.75l-10 4 10 4-4-4z"/>
  <path stroke="#a80036" stroke-dasharray="2,2" d="M503 1529.75h414"/>
  <text font-family="sans-serif" font-size="13" font-weight="bold" lengthAdjust="spacingAndGlyphs" textLength="18" x="515" y="1524.684">
    19
  </text>
  <text font-family="sans-serif" font-size="13" lengthAdjust="spacingAndGlyphs" textLength="374" x="537" y="1524.684">
    Return list of Participant information from ParticipantResult
  </text>
  <path stroke="#a80036" d="M99 1558.883l10-4M99 1558.883l10 4M99 1558.883h398"/>
  <text font-family="sans-serif" font-size="13" font-weight="bold" lengthAdjust="spacingAndGlyphs" textLength="18" x="116" y="1553.817">
    20
  </text>
  <text font-family="sans-serif" font-size="13" lengthAdjust="spacingAndGlyphs" textLength="261" x="138" y="1553.817">
    Callback: PUT - /participants/{Type}/{ID}
  </text>
  <path stroke="#000" stroke-dasharray="2,2" d="M52 1567.883h2168"/>
  <text font-family="sans-serif" font-size="11" font-weight="bold" lengthAdjust="spacingAndGlyphs" textLength="121" x="57" y="1578.093">
    [Validation failure]
  </text>
  <path fill="#A80036" stroke="#a80036" d="M1513.5 1613.953l10 4-10 4 4-4z"/>
  <path stroke="#a80036" d="M928 1617.953h591.5"/>
  <text font-family="sans-serif" font-size="13" font-weight="bold" lengthAdjust="spacingAndGlyphs" textLength="18" x="935" y="1605.321">
    21
  </text>
  <text font-family="sans-serif" font-size="13" lengthAdjust="spacingAndGlyphs" textLength="439" x="957" y="1597.754">
    Retrieve the PayerFSP (FSPIOP-Source) Participant Callback Endpoint
  </text>
  <text fill="red" font-family="sans-serif" font-size="13" font-weight="bold" lengthAdjust="spacingAndGlyphs" textLength="82" x="957" y="1612.887">
    Error code:
  </text>
  <text fill="red" font-family="sans-serif" font-size="13" lengthAdjust="spacingAndGlyphs" textLength="109" x="1043" y="1612.887">
    200x, 310x, 320x
  </text>
  <path fill="#A80036" stroke="#a80036" d="M1951.5 1688.484l10 4-10 4 4-4z"/>
  <path stroke="#a80036" d="M1535.5 1692.484h422"/>
  <text font-family="sans-serif" font-size="13" font-weight="bold" lengthAdjust="spacingAndGlyphs" textLength="18" x="1542.5" y="1664.719">
    22
  </text>
  <text font-family="sans-serif" font-size="13" lengthAdjust="spacingAndGlyphs" textLength="330" x="1564.5" y="1642.02">
    Retrieve the PayerFSP Participant Callback Endpoint
  </text>
  <text font-family="sans-serif" font-size="13" lengthAdjust="spacingAndGlyphs" textLength="299" x="1564.5" y="1657.153">
    GET - /participants/{FSPIOP-Source}/endpoints
  </text>
  <text fill="#388724" font-family="sans-serif" font-size="13" font-weight="bold" lengthAdjust="spacingAndGlyphs" textLength="118" x="1564.5" y="1672.286">
    Response code:
  </text>
  <text fill="#388724" font-family="sans-serif" font-size="13" lengthAdjust="spacingAndGlyphs" textLength="24" x="1686.5" y="1672.286">
    200
  </text>
  <text fill="red" font-family="sans-serif" font-size="13" font-weight="bold" lengthAdjust="spacingAndGlyphs" textLength="82" x="1564.5" y="1687.418">
    Error code:
  </text>
  <text fill="red" font-family="sans-serif" font-size="13" lengthAdjust="spacingAndGlyphs" textLength="109" x="1650.5" y="1687.418">
    200x, 310x, 320x
  </text>
  <path fill="#A80036" stroke="#a80036" d="M1546.5 1717.617l-10 4 10 4-4-4z"/>
  <path stroke="#a80036" stroke-dasharray="2,2" d="M1540.5 1721.617h427"/>
  <text font-family="sans-serif" font-size="13" font-weight="bold" lengthAdjust="spacingAndGlyphs" textLength="18" x="1552.5" y="1716.551">
    23
  </text>
  <text font-family="sans-serif" font-size="13" lengthAdjust="spacingAndGlyphs" textLength="298" x="1574.5" y="1716.551">
    List of PayerFSP Participant Callback Endpoints
  </text>
  <path fill="#A80036" stroke="#a80036" d="M939 1746.75l-10 4 10 4-4-4z"/>
  <path stroke="#a80036" stroke-dasharray="2,2" d="M933 1750.75h596.5"/>
  <text font-family="sans-serif" font-size="13" font-weight="bold" lengthAdjust="spacingAndGlyphs" textLength="18" x="945" y="1745.684">
    24
  </text>
  <text font-family="sans-serif" font-size="13" lengthAdjust="spacingAndGlyphs" textLength="298" x="967" y="1745.684">
    List of PayerFSP Participant Callback Endpoints
  </text>
  <path stroke="#a80036" d="M928 1795.016h42M970 1795.016v13M929 1808.016h41"/>
  <path fill="#A80036" stroke="#a80036" d="M939 1804.016l-10 4 10 4-4-4z"/>
  <text font-family="sans-serif" font-size="13" font-weight="bold" lengthAdjust="spacingAndGlyphs" textLength="18" x="935" y="1782.383">
    25
  </text>
  <text font-family="sans-serif" font-size="13" lengthAdjust="spacingAndGlyphs" textLength="256" x="957" y="1774.817">
    Match Participant Callback Endpoints for
  </text>
  <text font-family="sans-serif" font-size="13" lengthAdjust="spacingAndGlyphs" textLength="320" x="957" y="1789.95">
    FSPIOP_CALLBACK_URL_PARTICIPANT_PUT_ERROR
  </text>
  <path fill="#A80036" stroke="#a80036" d="M509 1848.281l-10 4 10 4-4-4z"/>
  <path stroke="#a80036" stroke-dasharray="2,2" d="M503 1852.281h414"/>
  <text font-family="sans-serif" font-size="13" font-weight="bold" lengthAdjust="spacingAndGlyphs" textLength="18" x="515" y="1839.649">
    26
  </text>
  <text font-family="sans-serif" font-size="13" lengthAdjust="spacingAndGlyphs" textLength="80" x="537" y="1832.082">
    Handle error
  </text>
  <text fill="red" font-family="sans-serif" font-size="13" font-weight="bold" lengthAdjust="spacingAndGlyphs" textLength="82" x="537" y="1847.215">
    Error code:
  </text>
  <text fill="red" font-family="sans-serif" font-size="13" lengthAdjust="spacingAndGlyphs" textLength="109" x="623" y="1847.215">
    200x, 310x, 320x
  </text>
  <path stroke="#a80036" d="M99 1881.414l10-4M99 1881.414l10 4M99 1881.414h398"/>
  <text font-family="sans-serif" font-size="13" font-weight="bold" lengthAdjust="spacingAndGlyphs" textLength="18" x="116" y="1876.348">
    27
  </text>
  <text font-family="sans-serif" font-size="13" lengthAdjust="spacingAndGlyphs" textLength="296" x="138" y="1876.348">
    Callback: PUT - /participants/{Type}/{ID}/error
  </text>
</svg>
