<?xml version="1.0" encoding="UTF-8" standalone="no"?><svg xmlns="http://www.w3.org/2000/svg" xmlns:xlink="http://www.w3.org/1999/xlink" contentScriptType="application/ecmascript" contentStyleType="text/css" height="936px" preserveAspectRatio="none" style="width:891px;height:936px;" version="1.1" viewBox="0 0 891 936" width="891px" zoomAndPan="magnify"><defs><filter height="300%" id="f1qmvka884eacv" width="300%" x="-1" y="-1"><feGaussianBlur result="blurOut" stdDeviation="2.0"/><feColorMatrix in="blurOut" result="blurOut2" type="matrix" values="0 0 0 0 0 0 0 0 0 0 0 0 0 0 0 0 0 0 .4 0"/><feOffset dx="4.0" dy="4.0" in="blurOut2" result="blurOut3"/><feBlend in="SourceGraphic" in2="blurOut3" mode="normal"/></filter></defs><g><text fill="#000000" font-family="sans-serif" font-size="14" font-weight="bold" lengthAdjust="spacingAndGlyphs" textLength="212" x="340.5" y="23.5352">7.3.2 Create Oracle Endpoints</text><rect fill="#FFFFE0" height="890.9141" style="stroke: #A80036; stroke-width: 1.0;" width="631.5" x="232.5" y="34.4883"/><text fill="#000000" font-family="sans-serif" font-size="13" font-weight="bold" lengthAdjust="spacingAndGlyphs" textLength="161" x="467.75" y="47.0566">Account Lookup Service</text><rect fill="#FFFFFF" filter="url(#f1qmvka884eacv)" height="451.2109" style="stroke: #A80036; stroke-width: 1.0;" width="10" x="84.5" y="126.2871"/><rect fill="#FFFFFF" filter="url(#f1qmvka884eacv)" height="390.2793" style="stroke: #A80036; stroke-width: 1.0;" width="10" x="353.5" y="187.2188"/><rect fill="#FFFFFF" filter="url(#f1qmvka884eacv)" height="154.5527" style="stroke: #A80036; stroke-width: 1.0;" width="10" x="559.5" y="393.6348"/><rect fill="#FFFFFF" filter="url(#f1qmvka884eacv)" height="53.6211" style="stroke: #A80036; stroke-width: 1.0;" width="10" x="819.5" y="465.2559"/><rect fill="#FFFFFF" filter="url(#f1qmvka884eacv)" height="709.627" style="stroke: #000000; stroke-width: 2.0;" width="867" x="13" y="133.2871"/><rect fill="#FFFFFF" filter="url(#f1qmvka884eacv)" height="105.2422" style="stroke: #000000; stroke-width: 2.0;" width="847" x="23" y="480.2559"/><rect fill="#FFFFFF" filter="url(#f1qmvka884eacv)" height="236.416" style="stroke: #000000; stroke-width: 2.0;" width="847" x="23" y="599.498"/><line style="stroke: #A80036; stroke-width: 1.0; stroke-dasharray: 5.0,5.0;" x1="89" x2="89" y1="116.2871" y2="859.9141"/><line style="stroke: #A80036; stroke-width: 1.0; stroke-dasharray: 5.0,5.0;" x1="358.5" x2="358.5" y1="116.2871" y2="859.9141"/><line style="stroke: #A80036; stroke-width: 1.0; stroke-dasharray: 5.0,5.0;" x1="564.5" x2="564.5" y1="116.2871" y2="859.9141"/><line style="stroke: #A80036; stroke-width: 1.0; stroke-dasharray: 5.0,5.0;" x1="824" x2="824" y1="116.2871" y2="859.9141"/><text fill="#000000" font-family="sans-serif" font-size="14" lengthAdjust="spacingAndGlyphs" textLength="107" x="33" y="113.334">HUB OPERATOR</text><ellipse cx="89.5" cy="83.7988" fill="#FEFECE" filter="url(#f1qmvka884eacv)" rx="12" ry="12" style="stroke: #A80036; stroke-width: 2.0;"/><line style="stroke: #A80036; stroke-width: 2.0;" x1="77.5" x2="101.5" y1="97.7988" y2="97.7988"/><text fill="#000000" font-family="sans-serif" font-size="14" lengthAdjust="spacingAndGlyphs" textLength="107" x="33" y="872.4492">HUB OPERATOR</text><ellipse cx="89.5" cy="891.4023" fill="#FEFECE" filter="url(#f1qmvka884eacv)" rx="12" ry="12" style="stroke: #A80036; stroke-width: 2.0;"/><line style="stroke: #A80036; stroke-width: 2.0;" x1="77.5" x2="101.5" y1="905.4023" y2="905.4023"/><text fill="#000000" font-family="sans-serif" font-size="14" lengthAdjust="spacingAndGlyphs" textLength="238" x="236.5" y="113.334">Account Lookup Service Admin API</text><path d="M338,71.7988 L338,95.7988 M338,83.7988 L355,83.7988 " fill="none" filter="url(#f1qmvka884eacv)" style="stroke: #A80036; stroke-width: 2.0;"/><ellipse cx="367" cy="83.7988" fill="#FEFECE" filter="url(#f1qmvka884eacv)" rx="12" ry="12" style="stroke: #A80036; stroke-width: 2.0;"/><text fill="#000000" font-family="sans-serif" font-size="14" lengthAdjust="spacingAndGlyphs" textLength="238" x="236.5" y="872.4492">Account Lookup Service Admin API</text><path d="M338,879.4023 L338,903.4023 M338,891.4023 L355,891.4023 " fill="none" filter="url(#f1qmvka884eacv)" style="stroke: #A80036; stroke-width: 2.0;"/><ellipse cx="367" cy="891.4023" fill="#FEFECE" filter="url(#f1qmvka884eacv)" rx="12" ry="12" style="stroke: #A80036; stroke-width: 2.0;"/><text fill="#000000" font-family="sans-serif" font-size="14" lengthAdjust="spacingAndGlyphs" textLength="142" x="490.5" y="113.334">POST Oracle Handler</text><ellipse cx="564.5" cy="83.7988" fill="#FEFECE" filter="url(#f1qmvka884eacv)" rx="12" ry="12" style="stroke: #A80036; stroke-width: 2.0;"/><polygon fill="#A80036" points="560.5,71.7988,566.5,66.7988,564.5,71.7988,566.5,76.7988,560.5,71.7988" style="stroke: #A80036; stroke-width: 1.0;"/><text fill="#000000" font-family="sans-serif" font-size="14" lengthAdjust="spacingAndGlyphs" textLength="142" x="490.5" y="872.4492">POST Oracle Handler</text><ellipse cx="564.5" cy="891.4023" fill="#FEFECE" filter="url(#f1qmvka884eacv)" rx="12" ry="12" style="stroke: #A80036; stroke-width: 2.0;"/><polygon fill="#A80036" points="560.5,879.4023,566.5,874.4023,564.5,879.4023,566.5,884.4023,560.5,879.4023" style="stroke: #A80036; stroke-width: 1.0;"/><text fill="#000000" font-family="sans-serif" font-size="14" lengthAdjust="spacingAndGlyphs" textLength="65" x="789" y="113.334">ALS Store</text><path d="M806.5,63.7988 C806.5,53.7988 824.5,53.7988 824.5,53.7988 C824.5,53.7988 842.5,53.7988 842.5,63.7988 L842.5,89.7988 C842.5,99.7988 824.5,99.7988 824.5,99.7988 C824.5,99.7988 806.5,99.7988 806.5,89.7988 L806.5,63.7988 " fill="#FEFECE" filter="url(#f1qmvka884eacv)" style="stroke: #000000; stroke-width: 1.5;"/><path d="M806.5,63.7988 C806.5,73.7988 824.5,73.7988 824.5,73.7988 C824.5,73.7988 842.5,73.7988 842.5,63.7988 " fill="none" style="stroke: #000000; stroke-width: 1.5;"/><text fill="#000000" font-family="sans-serif" font-size="14" lengthAdjust="spacingAndGlyphs" textLength="65" x="789" y="872.4492">ALS Store</text><path d="M806.5,885.4023 C806.5,875.4023 824.5,875.4023 824.5,875.4023 C824.5,875.4023 842.5,875.4023 842.5,885.4023 L842.5,911.4023 C842.5,921.4023 824.5,921.4023 824.5,921.4023 C824.5,921.4023 806.5,921.4023 806.5,911.4023 L806.5,885.4023 " fill="#FEFECE" filter="url(#f1qmvka884eacv)" style="stroke: #000000; stroke-width: 1.5;"/><path d="M806.5,885.4023 C806.5,895.4023 824.5,895.4023 824.5,895.4023 C824.5,895.4023 842.5,895.4023 842.5,885.4023 " fill="none" style="stroke: #000000; stroke-width: 1.5;"/><rect fill="#FFFFFF" filter="url(#f1qmvka884eacv)" height="451.2109" style="stroke: #A80036; stroke-width: 1.0;" width="10" x="84.5" y="126.2871"/><rect fill="#FFFFFF" filter="url(#f1qmvka884eacv)" height="390.2793" style="stroke: #A80036; stroke-width: 1.0;" width="10" x="353.5" y="187.2188"/><rect fill="#FFFFFF" filter="url(#f1qmvka884eacv)" height="154.5527" style="stroke: #A80036; stroke-width: 1.0;" width="10" x="559.5" y="393.6348"/><rect fill="#FFFFFF" filter="url(#f1qmvka884eacv)" height="53.6211" style="stroke: #A80036; stroke-width: 1.0;" width="10" x="819.5" y="465.2559"/><path d="M13,133.2871 L194,133.2871 L194,140.2871 L184,150.2871 L13,150.2871 L13,133.2871 " fill="#EEEEEE" style="stroke: #000000; stroke-width: 1.0;"/><rect fill="none" height="709.627" style="stroke: #000000; stroke-width: 2.0;" width="867" x="13" y="133.2871"/><text fill="#000000" font-family="sans-serif" font-size="13" font-weight="bold" lengthAdjust="spacingAndGlyphs" textLength="136" x="28" y="146.8555">Get Oracle Endpoint</text><polygon fill="#A80036" points="341.5,183.2188,351.5,187.2188,341.5,191.2188,345.5,187.2188" style="stroke: #A80036; stroke-width: 1.0;"/><line style="stroke: #A80036; stroke-width: 1.0;" x1="94.5" x2="347.5" y1="187.2188" y2="187.2188"/><text fill="#000000" font-family="sans-serif" font-size="13" font-weight="bold" lengthAdjust="spacingAndGlyphs" textLength="9" x="101.5" y="174.8213">1</text><text fill="#000000" font-family="sans-serif" font-size="13" lengthAdjust="spacingAndGlyphs" textLength="227" x="114.5" y="167.166">Request to Create Oracle Endpoint -</text><text fill="#000000" font-family="sans-serif" font-size="13" lengthAdjust="spacingAndGlyphs" textLength="88" x="114.5" y="182.4766">POST /oracles</text><path d="M81,200.2188 L81,363.2188 L344,363.2188 L344,210.2188 L334,200.2188 L81,200.2188 " fill="#FFFF00" filter="url(#f1qmvka884eacv)" style="stroke: #A80036; stroke-width: 1.0;"/><path d="M334,200.2188 L334,210.2188 L344,210.2188 L334,200.2188 " fill="#FFFF00" style="stroke: #A80036; stroke-width: 1.0;"/><text fill="#000000" font-family="sans-serif" font-size="13" lengthAdjust="spacingAndGlyphs" textLength="58" x="87" y="217.7871">Message:</text><text fill="#000000" font-family="sans-serif" font-size="13" lengthAdjust="spacingAndGlyphs" textLength="4" x="87" y="233.0977">{</text><text fill="#000000" font-family="sans-serif" font-size="13" lengthAdjust="spacingAndGlyphs" textLength="195" x="103" y="248.4082">"oracleIdType": &lt;PartyIdType&gt;,</text><text fill="#000000" font-family="sans-serif" font-size="13" lengthAdjust="spacingAndGlyphs" textLength="78" x="103" y="263.7188">"endpoint": {</text><text fill="#000000" font-family="sans-serif" font-size="13" lengthAdjust="spacingAndGlyphs" textLength="112" x="119" y="279.0293">"value": &lt;string&gt;,</text><text fill="#000000" font-family="sans-serif" font-size="13" lengthAdjust="spacingAndGlyphs" textLength="210" x="119" y="294.3398">"endpointType": &lt;EndpointType&gt;</text><text fill="#000000" font-family="sans-serif" font-size="13" lengthAdjust="spacingAndGlyphs" textLength="8" x="103" y="309.6504">},</text><text fill="#000000" font-family="sans-serif" font-size="13" lengthAdjust="spacingAndGlyphs" textLength="152" x="103" y="324.9609">"currency": &lt;Currency&gt;,</text><text fill="#000000" font-family="sans-serif" font-size="13" lengthAdjust="spacingAndGlyphs" textLength="145" x="103" y="340.2715">"isDefault": &lt;boolean&gt;</text><text fill="#000000" font-family="sans-serif" font-size="13" lengthAdjust="spacingAndGlyphs" textLength="4" x="87" y="355.582">}</text><polygon fill="#A80036" points="547.5,389.6348,557.5,393.6348,547.5,397.6348,551.5,393.6348" style="stroke: #A80036; stroke-width: 1.0;"/><line style="stroke: #A80036; stroke-width: 1.0;" x1="363.5" x2="553.5" y1="393.6348" y2="393.6348"/><text fill="#000000" font-family="sans-serif" font-size="13" font-weight="bold" lengthAdjust="spacingAndGlyphs" textLength="9" x="370.5" y="388.8926">2</text><text fill="#000000" font-family="sans-serif" font-size="13" lengthAdjust="spacingAndGlyphs" textLength="144" x="383.5" y="388.8926">Create Oracle Endpoint</text><line style="stroke: #A80036; stroke-width: 1.0;" x1="569.5" x2="611.5" y1="422.9453" y2="422.9453"/><line style="stroke: #A80036; stroke-width: 1.0;" x1="611.5" x2="611.5" y1="422.9453" y2="435.9453"/><line style="stroke: #A80036; stroke-width: 1.0;" x1="570.5" x2="611.5" y1="435.9453" y2="435.9453"/><polygon fill="#A80036" points="580.5,431.9453,570.5,435.9453,580.5,439.9453,576.5,435.9453" style="stroke: #A80036; stroke-width: 1.0;"/><text fill="#000000" font-family="sans-serif" font-size="13" font-weight="bold" lengthAdjust="spacingAndGlyphs" textLength="9" x="576.5" y="418.2031">3</text><text fill="#000000" font-family="sans-serif" font-size="13" lengthAdjust="spacingAndGlyphs" textLength="213" x="589.5" y="418.2031">Build Oracle Endpoint Data Object</text><polygon fill="#A80036" points="807.5,461.2559,817.5,465.2559,807.5,469.2559,811.5,465.2559" style="stroke: #A80036; stroke-width: 1.0;"/><line style="stroke: #A80036; stroke-width: 1.0;" x1="569.5" x2="813.5" y1="465.2559" y2="465.2559"/><text fill="#000000" font-family="sans-serif" font-size="13" font-weight="bold" lengthAdjust="spacingAndGlyphs" textLength="9" x="576.5" y="460.5137">4</text><text fill="#000000" font-family="sans-serif" font-size="13" lengthAdjust="spacingAndGlyphs" textLength="218" x="589.5" y="460.5137">Insert Oracle Endpoint Data Object</text><path d="M23,480.2559 L85,480.2559 L85,487.2559 L75,497.2559 L23,497.2559 L23,480.2559 " fill="#EEEEEE" style="stroke: #000000; stroke-width: 1.0;"/><rect fill="none" height="105.2422" style="stroke: #000000; stroke-width: 2.0;" width="847" x="23" y="480.2559"/><text fill="#000000" font-family="sans-serif" font-size="13" font-weight="bold" lengthAdjust="spacingAndGlyphs" textLength="17" x="38" y="493.8242">alt</text><text fill="#000000" font-family="sans-serif" font-size="11" font-weight="bold" lengthAdjust="spacingAndGlyphs" textLength="171" x="100" y="492.8906">[Create Oracle Entry (success)]</text><polygon fill="#A80036" points="580.5,514.877,570.5,518.877,580.5,522.877,576.5,518.877" style="stroke: #A80036; stroke-width: 1.0;"/><line style="stroke: #A80036; stroke-width: 1.0; stroke-dasharray: 2.0,2.0;" x1="574.5" x2="823.5" y1="518.877" y2="518.877"/><text fill="#000000" font-family="sans-serif" font-size="13" font-weight="bold" lengthAdjust="spacingAndGlyphs" textLength="9" x="586.5" y="514.1348">5</text><text fill="#000000" font-family="sans-serif" font-size="13" lengthAdjust="spacingAndGlyphs" textLength="156" x="599.5" y="514.1348">Return success response</text><polygon fill="#A80036" points="374.5,544.1875,364.5,548.1875,374.5,552.1875,370.5,548.1875" style="stroke: #A80036; stroke-width: 1.0;"/><line style="stroke: #A80036; stroke-width: 1.0;" x1="368.5" x2="563.5" y1="548.1875" y2="548.1875"/><text fill="#000000" font-family="sans-serif" font-size="13" font-weight="bold" lengthAdjust="spacingAndGlyphs" textLength="9" x="380.5" y="543.4453">6</text><text fill="#000000" font-family="sans-serif" font-size="13" lengthAdjust="spacingAndGlyphs" textLength="156" x="393.5" y="543.4453">Return success response</text><polygon fill="#A80036" points="100.5,573.498,90.5,577.498,100.5,581.498,96.5,577.498" style="stroke: #A80036; stroke-width: 1.0;"/><line style="stroke: #A80036; stroke-width: 1.0; stroke-dasharray: 2.0,2.0;" x1="94.5" x2="357.5" y1="577.498" y2="577.498"/><text fill="#000000" font-family="sans-serif" font-size="13" font-weight="bold" lengthAdjust="spacingAndGlyphs" textLength="9" x="106.5" y="572.7559">7</text><text fill="#000000" font-family="sans-serif" font-size="13" lengthAdjust="spacingAndGlyphs" textLength="41" x="119.5" y="572.7559">Return</text><text fill="#000000" font-family="sans-serif" font-size="13" font-weight="bold" lengthAdjust="spacingAndGlyphs" textLength="84" x="164.5" y="572.7559">HTTP Status:</text><text fill="#000000" font-family="sans-serif" font-size="13" lengthAdjust="spacingAndGlyphs" textLength="24" x="252.5" y="572.7559">201</text><path d="M23,599.498 L85,599.498 L85,606.498 L75,616.498 L23,616.498 L23,599.498 " fill="#EEEEEE" style="stroke: #000000; stroke-width: 1.0;"/><rect fill="none" height="236.416" style="stroke: #000000; stroke-width: 2.0;" width="847" x="23" y="599.498"/><text fill="#000000" font-family="sans-serif" font-size="13" font-weight="bold" lengthAdjust="spacingAndGlyphs" textLength="17" x="38" y="613.0664">alt</text><text fill="#000000" font-family="sans-serif" font-size="11" font-weight="bold" lengthAdjust="spacingAndGlyphs" textLength="165" x="100" y="612.1328">[Create Oracle Entry (failure)]</text><polygon fill="#A80036" points="575.5,634.1191,565.5,638.1191,575.5,642.1191,571.5,638.1191" style="stroke: #A80036; stroke-width: 1.0;"/><line style="stroke: #A80036; stroke-width: 1.0; stroke-dasharray: 2.0,2.0;" x1="569.5" x2="823.5" y1="638.1191" y2="638.1191"/><text fill="#000000" font-family="sans-serif" font-size="13" font-weight="bold" lengthAdjust="spacingAndGlyphs" textLength="9" x="581.5" y="633.377">8</text><text fill="#000000" font-family="sans-serif" font-size="13" lengthAdjust="spacingAndGlyphs" textLength="73" x="594.5" y="633.377">Throw Error</text><polygon fill="#A80036" points="369.5,663.4297,359.5,667.4297,369.5,671.4297,365.5,667.4297" style="stroke: #A80036; stroke-width: 1.0;"/><line style="stroke: #A80036; stroke-width: 1.0;" x1="363.5" x2="563.5" y1="667.4297" y2="667.4297"/><text fill="#000000" font-family="sans-serif" font-size="13" font-weight="bold" lengthAdjust="spacingAndGlyphs" textLength="9" x="375.5" y="662.6875">9</text><text fill="#000000" font-family="sans-serif" font-size="13" lengthAdjust="spacingAndGlyphs" textLength="73" x="388.5" y="662.6875">Throw Error</text><path d="M125,680.4297 L125,797.4297 L349,797.4297 L349,690.4297 L339,680.4297 L125,680.4297 " fill="#FFFF00" filter="url(#f1qmvka884eacv)" style="stroke: #A80036; stroke-width: 1.0;"/><path d="M339,680.4297 L339,690.4297 L349,690.4297 L339,680.4297 " fill="#FFFF00" style="stroke: #A80036; stroke-width: 1.0;"/><text fill="#000000" font-family="sans-serif" font-size="13" lengthAdjust="spacingAndGlyphs" textLength="58" x="131" y="697.998">Message:</text><text fill="#000000" font-family="sans-serif" font-size="13" lengthAdjust="spacingAndGlyphs" textLength="4" x="131" y="713.3086">{</text><text fill="#000000" font-family="sans-serif" font-size="13" lengthAdjust="spacingAndGlyphs" textLength="126" x="147" y="728.6191">"errorInformation": {</text><text fill="#000000" font-family="sans-serif" font-size="13" lengthAdjust="spacingAndGlyphs" textLength="170" x="163" y="743.9297">"errorCode": &lt;Error Code&gt;,</text><text fill="#000000" font-family="sans-serif" font-size="13" lengthAdjust="spacingAndGlyphs" textLength="171" x="163" y="759.2402">"errorDescription": &lt;Msg&gt;,</text><text fill="#000000" font-family="sans-serif" font-size="13" lengthAdjust="spacingAndGlyphs" textLength="4" x="147" y="774.5508">}</text><text fill="#000000" font-family="sans-serif" font-size="13" lengthAdjust="spacingAndGlyphs" textLength="4" x="131" y="789.8613">}</text><polygon fill="#A80036" points="100.5,823.9141,90.5,827.9141,100.5,831.9141,96.5,827.9141" style="stroke: #A80036; stroke-width: 1.0;"/><line style="stroke: #A80036; stroke-width: 1.0; stroke-dasharray: 2.0,2.0;" x1="94.5" x2="357.5" y1="827.9141" y2="827.9141"/><text fill="#000000" font-family="sans-serif" font-size="13" font-weight="bold" lengthAdjust="spacingAndGlyphs" textLength="18" x="106.5" y="823.1719">10</text><text fill="#000000" font-family="sans-serif" font-size="13" lengthAdjust="spacingAndGlyphs" textLength="41" x="128.5" y="823.1719">Return</text><text fill="#FF0000" font-family="sans-serif" font-size="13" font-weight="bold" lengthAdjust="spacingAndGlyphs" textLength="84" x="173.5" y="823.1719">HTTP Status:</text><text fill="#FF0000" font-family="sans-serif" font-size="13" lengthAdjust="spacingAndGlyphs" textLength="24" x="261.5" y="823.1719">502</text><!--
@startuml
title 7.3.2 Create Oracle Endpoints

autonumber



entity "HUB OPERATOR" as OPERATOR
boundary "Account Lookup Service Admin API" as ALSADM
control "POST Oracle Handler" as ORC_HANDLER
database "ALS Store" as DB

box "Account Lookup Service" #LightYellow
participant ALSADM
participant ORC_HANDLER
participant DB
end box


activate OPERATOR
group Get Oracle Endpoint
  OPERATOR -> ALSADM: Request to Create Oracle Endpoint -\nPOST /oracles
  note left of ALSADM #yellow
      Message:
      {
          "oracleIdType": <PartyIdType>,
          "endpoint": {
              "value": <string>,
              "endpointType": <EndpointType>
          },
          "currency": <Currency>,
          "isDefault": <boolean>
      }
  end note
  activate ALSADM

  ALSADM -> ORC_HANDLER: Create Oracle Endpoint

  activate ORC_HANDLER
  ORC_HANDLER -> ORC_HANDLER: Build Oracle Endpoint Data Object
  ORC_HANDLER -> DB: Insert Oracle Endpoint Data Object
  activate DB

  alt Create Oracle Entry (success)
    DB - -> ORC_HANDLER: Return success response
    deactivate DB

    ORC_HANDLER -> ALSADM: Return success response
    deactivate ORC_HANDLER
    ALSADM - -> OPERATOR: Return <color #000000><b>HTTP Status:</b> 201</color>

    deactivate ALSADM
    deactivate OPERATOR
  end

  alt Create Oracle Entry (failure)
    DB - -> ORC_HANDLER: Throw Error
    deactivate DB
    ORC_HANDLER -> ALSADM: Throw Error
    deactivate ORC_HANDLER
    note left of ALSADM #yellow
        Message:
        {
            "errorInformation": {
                "errorCode": <Error Code>,
                "errorDescription": <Msg>,
            }
        }
    end note

    ALSADM - -> OPERATOR: Return <color #FF0000><b>HTTP Status:</b> 502</color>

    deactivate ALSADM
    deactivate OPERATOR


  end
end

@enduml

PlantUML version 1.2019.06(Sat May 25 01:10:25 PHT 2019)
(GPL source distribution)
Java Runtime: Java(TM) SE Runtime Environment
JVM: Java HotSpot(TM) 64-Bit Server VM
Java Version: 1.8.0_171-b11
Operating System: Mac OS X
OS Version: 10.13.6
Default Encoding: UTF-8
Language: en
Country: AU
--></g></svg>