<svg xmlns="http://www.w3.org/2000/svg" height="1779" preserveAspectRatio="none" style="width:2331px;height:1779px" width="2331">
  <defs>
    <filter height="300%" id="a" width="300%" x="-1" y="-1">
      <feGaussianBlur result="blurOut" stdDeviation="2"/>
      <feColorMatrix in="blurOut" result="blurOut2" values="0 0 0 0 0 0 0 0 0 0 0 0 0 0 0 0 0 0 .4 0"/>
      <feOffset dx="4" dy="4" in="blurOut2" result="blurOut3"/>
      <feBlend in="SourceGraphic" in2="blurOut3"/>
    </filter>
  </defs>
  <text font-family="sans-serif" font-size="18" lengthAdjust="spacingAndGlyphs" textLength="255" x="1035.75" y="28.708">
    7.1.0. Get Participant Details
  </text>
  <path fill="#D3D3D3" stroke="#a80036" d="M1 40.953h196v1732.57H1z"/>
  <text font-family="sans-serif" font-size="13" font-weight="bold" lengthAdjust="spacingAndGlyphs" textLength="190" x="4" y="53.02">
    Financial Service Provider
  </text>
  <path fill="#FFFFE0" stroke="#a80036" d="M563 40.953h1171.5v1732.57H563z"/>
  <text font-family="sans-serif" font-size="13" font-weight="bold" lengthAdjust="spacingAndGlyphs" textLength="176" x="1060.75" y="53.02">
    Account Lookup Service
  </text>
  <path fill="#90EE90" stroke="#a80036" d="M1973.5 40.953h142v1732.57h-142z"/>
  <text font-family="sans-serif" font-size="13" font-weight="bold" lengthAdjust="spacingAndGlyphs" textLength="119" x="1985" y="53.02">
    Central Services
  </text>
  <path fill="#ADD8E6" stroke="#a80036" d="M2117.5 40.953h208v1732.57h-208z"/>
  <text font-family="sans-serif" font-size="13" font-weight="bold" lengthAdjust="spacingAndGlyphs" textLength="202" x="2120.5" y="53.02">
    ALS Oracle Service/Adapter
  </text>
  <path fill="#FFF" filter="url(#a)" stroke="#a80036" d="M621 244.047h10v1426.18h-10zM913 342.578h10v1327.648h-10zM1279 450.242h10v181.063h-10zM1410 795.102h10v132.797h-10zM1531 494.508h10v107.664h-10zM1658.5 979.164h10v132.797h-10zM1658.5 1286.563h10v132.797h-10zM2039.5 1053.695h10v29.133h-10zM2039.5 1361.094h10v29.133h-10zM2216.5 869.633h10v29.133h-10z"/>
  <path fill="#FFF" filter="url(#a)" stroke="#000" stroke-width="2" d="M42 160.383h2274v1509.844H42z"/>
  <path fill="#FFF" filter="url(#a)" stroke="#000" stroke-width="2" d="M52 357.578h2254v1305.648H52z"/>
  <path fill="#87CEFA" filter="url(#a)" stroke="#000" stroke-width="2" d="M844.5 381.711H1618V712.57H844.5z"/>
  <path fill="#87CEFA" filter="url(#a)" stroke="#000" stroke-width="2" d="M854.5 646.305h249v59.266h-249zM854.5 726.57H2296v209.328H854.5z"/>
  <path fill="#FFF" d="M52 1235.492h2254v322.531H52zM52 1558.023h2254v105.203H52z"/>
  <path stroke="#a80036" stroke-dasharray="5,5" d="M99 143.383v1543.844M626 143.383v1543.844M917.5 143.383v1543.844M1283.5 143.383v1543.844M1414.5 143.383v1543.844M1535.5 143.383v1543.844M1663.5 143.383v1543.844M2044.5 143.383v1543.844M2221 143.383v1543.844"/>
  <text font-family="sans-serif" font-size="14" lengthAdjust="spacingAndGlyphs" textLength="68" x="62" y="140.081">
    Payer FSP
  </text>
  <circle cx="99" cy="70.086" fill="#FEFECE" filter="url(#a)" stroke="#a80036" stroke-width="2" r="8"/>
  <path d="M99 78.086v27m-13-19h26m-13 19l-13 15m13-15l13 15" fill="none" filter="url(#a)" stroke="#a80036" stroke-width="2"/>
  <text font-family="sans-serif" font-size="14" lengthAdjust="spacingAndGlyphs" textLength="68" x="62" y="1699.222">
    Payer FSP
  </text>
  <circle cx="99" cy="1712.523" fill="#FEFECE" filter="url(#a)" stroke="#a80036" stroke-width="2" r="8"/>
  <path d="M99 1720.523v27m-13-19h26m-13 19l-13 15m13-15l13 15" fill="none" filter="url(#a)" stroke="#a80036" stroke-width="2"/>
  <text font-family="sans-serif" font-size="14" lengthAdjust="spacingAndGlyphs" textLength="112" x="567" y="123.784">
    Account Lookup
  </text>
  <text font-family="sans-serif" font-size="14" lengthAdjust="spacingAndGlyphs" textLength="89" x="578.5" y="140.081">
    Service (ALS)
  </text>
  <path d="M605.5 82.79v24m0-12h17" fill="none" filter="url(#a)" stroke="#a80036" stroke-width="2"/>
  <circle cx="634.5" cy="94.789" fill="#FEFECE" filter="url(#a)" stroke="#a80036" stroke-width="2" r="12"/>
  <text font-family="sans-serif" font-size="14" lengthAdjust="spacingAndGlyphs" textLength="112" x="567" y="1699.222">
    Account Lookup
  </text>
  <text font-family="sans-serif" font-size="14" lengthAdjust="spacingAndGlyphs" textLength="89" x="578.5" y="1715.519">
    Service (ALS)
  </text>
  <path d="M605.5 1722.82v24m0-12h17" fill="none" filter="url(#a)" stroke="#a80036" stroke-width="2"/>
  <circle cx="634.5" cy="1734.82" fill="#FEFECE" filter="url(#a)" stroke="#a80036" stroke-width="2" r="12"/>
  <text font-family="sans-serif" font-size="14" lengthAdjust="spacingAndGlyphs" textLength="101" x="864.5" y="123.784">
    ALS Participant
  </text>
  <text font-family="sans-serif" font-size="14" lengthAdjust="spacingAndGlyphs" textLength="53" x="888.5" y="140.081">
    Handler
  </text>
  <circle cx="918" cy="94.789" fill="#FEFECE" filter="url(#a)" stroke="#a80036" stroke-width="2" r="12"/>
  <path fill="#A80036" stroke="#a80036" d="M914 82.79l6-5-2 5 2 5-6-5z"/>
  <text font-family="sans-serif" font-size="14" lengthAdjust="spacingAndGlyphs" textLength="101" x="864.5" y="1699.222">
    ALS Participant
  </text>
  <text font-family="sans-serif" font-size="14" lengthAdjust="spacingAndGlyphs" textLength="53" x="888.5" y="1715.519">
    Handler
  </text>
  <circle cx="918" cy="1734.82" fill="#FEFECE" filter="url(#a)" stroke="#a80036" stroke-width="2" r="12"/>
  <path fill="#A80036" stroke="#a80036" d="M914 1722.82l6-5-2 5 2 5-6-5z"/>
  <text font-family="sans-serif" font-size="14" lengthAdjust="spacingAndGlyphs" textLength="129" x="1216.5" y="123.784">
    ALS Endpoint Type
  </text>
  <text font-family="sans-serif" font-size="14" lengthAdjust="spacingAndGlyphs" textLength="79" x="1241.5" y="140.081">
    Config DAO
  </text>
  <circle cx="1284" cy="94.789" fill="#FEFECE" filter="url(#a)" stroke="#a80036" stroke-width="2" r="12"/>
  <path stroke="#a80036" stroke-width="2" d="M1272 108.789h24"/>
  <text font-family="sans-serif" font-size="14" lengthAdjust="spacingAndGlyphs" textLength="129" x="1216.5" y="1699.222">
    ALS Endpoint Type
  </text>
  <text font-family="sans-serif" font-size="14" lengthAdjust="spacingAndGlyphs" textLength="79" x="1241.5" y="1715.519">
    Config DAO
  </text>
  <circle cx="1284" cy="1734.82" fill="#FEFECE" filter="url(#a)" stroke="#a80036" stroke-width="2" r="12"/>
  <path stroke="#a80036" stroke-width="2" d="M1272 1748.82h24"/>
  <text font-family="sans-serif" font-size="14" lengthAdjust="spacingAndGlyphs" textLength="101" x="1361.5" y="123.784">
    ALS Participant
  </text>
  <text font-family="sans-serif" font-size="14" lengthAdjust="spacingAndGlyphs" textLength="79" x="1372.5" y="140.081">
    Oracle DAO
  </text>
  <circle cx="1415" cy="94.789" fill="#FEFECE" filter="url(#a)" stroke="#a80036" stroke-width="2" r="12"/>
  <path stroke="#a80036" stroke-width="2" d="M1403 108.789h24"/>
  <text font-family="sans-serif" font-size="14" lengthAdjust="spacingAndGlyphs" textLength="101" x="1361.5" y="1699.222">
    ALS Participant
  </text>
  <text font-family="sans-serif" font-size="14" lengthAdjust="spacingAndGlyphs" textLength="79" x="1372.5" y="1715.519">
    Oracle DAO
  </text>
  <circle cx="1415" cy="1734.82" fill="#FEFECE" filter="url(#a)" stroke="#a80036" stroke-width="2" r="12"/>
  <path stroke="#a80036" stroke-width="2" d="M1403 1748.82h24"/>
  <text font-family="sans-serif" font-size="14" lengthAdjust="spacingAndGlyphs" textLength="95" x="1485.5" y="140.081">
    ALS Database
  </text>
  <path d="M1518 91.086c0-10 18-10 18-10s18 0 18 10v26c0 10-18 10-18 10s-18 0-18-10v-26" fill="#FEFECE" filter="url(#a)" stroke="#000" stroke-width="1.5"/>
  <path d="M1518 91.086c0 10 18 10 18 10s18 0 18-10" fill="none" stroke="#000" stroke-width="1.5"/>
  <text font-family="sans-serif" font-size="14" lengthAdjust="spacingAndGlyphs" textLength="95" x="1485.5" y="1699.222">
    ALS Database
  </text>
  <path d="M1518 1712.523c0-10 18-10 18-10s18 0 18 10v26c0 10-18 10-18 10s-18 0-18-10v-26" fill="#FEFECE" filter="url(#a)" stroke="#000" stroke-width="1.5"/>
  <path d="M1518 1712.523c0 10 18 10 18 10s18 0 18-10" fill="none" stroke="#000" stroke-width="1.5"/>
  <text font-family="sans-serif" font-size="14" lengthAdjust="spacingAndGlyphs" textLength="128" x="1596.5" y="123.784">
    ALS CentralService
  </text>
  <text font-family="sans-serif" font-size="14" lengthAdjust="spacingAndGlyphs" textLength="97" x="1612" y="140.081">
    Endpoint DAO
  </text>
  <circle cx="1663.5" cy="94.789" fill="#FEFECE" filter="url(#a)" stroke="#a80036" stroke-width="2" r="12"/>
  <path stroke="#a80036" stroke-width="2" d="M1651.5 108.789h24"/>
  <text font-family="sans-serif" font-size="14" lengthAdjust="spacingAndGlyphs" textLength="128" x="1596.5" y="1699.222">
    ALS CentralService
  </text>
  <text font-family="sans-serif" font-size="14" lengthAdjust="spacingAndGlyphs" textLength="97" x="1612" y="1715.519">
    Endpoint DAO
  </text>
  <circle cx="1663.5" cy="1734.82" fill="#FEFECE" filter="url(#a)" stroke="#a80036" stroke-width="2" r="12"/>
  <path stroke="#a80036" stroke-width="2" d="M1651.5 1748.82h24"/>
  <text font-family="sans-serif" font-size="14" lengthAdjust="spacingAndGlyphs" textLength="128" x="1977.5" y="140.081">
    Central Service API
  </text>
  <path d="M2024 99.086v24m0-12h17" fill="none" filter="url(#a)" stroke="#a80036" stroke-width="2"/>
  <circle cx="2053" cy="111.086" fill="#FEFECE" filter="url(#a)" stroke="#a80036" stroke-width="2" r="12"/>
  <text font-family="sans-serif" font-size="14" lengthAdjust="spacingAndGlyphs" textLength="128" x="1977.5" y="1699.222">
    Central Service API
  </text>
  <path d="M2024 1706.523v24m0-12h17" fill="none" filter="url(#a)" stroke="#a80036" stroke-width="2"/>
  <circle cx="2053" cy="1718.523" fill="#FEFECE" filter="url(#a)" stroke="#a80036" stroke-width="2" r="12"/>
  <text font-family="sans-serif" font-size="14" lengthAdjust="spacingAndGlyphs" textLength="123" x="2157" y="140.081">
    Oracle Service API
  </text>
  <path d="M2201 99.086v24m0-12h17" fill="none" filter="url(#a)" stroke="#a80036" stroke-width="2"/>
  <circle cx="2230" cy="111.086" fill="#FEFECE" filter="url(#a)" stroke="#a80036" stroke-width="2" r="12"/>
  <text font-family="sans-serif" font-size="14" lengthAdjust="spacingAndGlyphs" textLength="123" x="2157" y="1699.222">
    Oracle Service API
  </text>
  <path d="M2201 1706.523v24m0-12h17" fill="none" filter="url(#a)" stroke="#a80036" stroke-width="2"/>
  <circle cx="2230" cy="1718.523" fill="#FEFECE" filter="url(#a)" stroke="#a80036" stroke-width="2" r="12"/>
  <path fill="#FFF" filter="url(#a)" stroke="#a80036" d="M621 244.047h10v1426.18h-10zM913 342.578h10v1327.648h-10zM1279 450.242h10v181.063h-10zM1410 795.102h10v132.797h-10zM1531 494.508h10v107.664h-10zM1658.5 979.164h10v132.797h-10zM1658.5 1286.563h10v132.797h-10zM2039.5 1053.695h10v29.133h-10zM2039.5 1361.094h10v29.133h-10zM2216.5 869.633h10v29.133h-10z"/>
  <path d="M42 160.383h258v7l-10 10H42v-17" fill="#EEE" stroke="#000"/>
  <path fill="none" stroke="#000" stroke-width="2" d="M42 160.383h2274v1509.844H42z"/>
  <text font-family="sans-serif" font-size="13" font-weight="bold" lengthAdjust="spacingAndGlyphs" textLength="213" x="57" y="173.45">
    Get Participant&apos;s FSP Details
  </text>
  <path stroke="#a80036" d="M619 244.047l-10-4M619 244.047l-10 4M99 244.047h521"/>
  <text font-family="sans-serif" font-size="13" font-weight="bold" lengthAdjust="spacingAndGlyphs" textLength="9" x="106" y="216.282">
    1
  </text>
  <text font-family="sans-serif" font-size="13" lengthAdjust="spacingAndGlyphs" textLength="250" x="119" y="193.583">
    Request to get participant&apos;s FSP details
  </text>
  <text font-family="sans-serif" font-size="13" lengthAdjust="spacingAndGlyphs" textLength="358" x="119" y="208.715">
    GET - /participants/{TYPE}/{ID}?currency={CURRENCY}
  </text>
  <text fill="#388724" font-family="sans-serif" font-size="13" font-weight="bold" lengthAdjust="spacingAndGlyphs" textLength="118" x="119" y="223.848">
    Response code:
  </text>
  <text fill="#388724" font-family="sans-serif" font-size="13" lengthAdjust="spacingAndGlyphs" textLength="24" x="241" y="223.848">
    202
  </text>
  <text fill="red" font-family="sans-serif" font-size="13" font-weight="bold" lengthAdjust="spacingAndGlyphs" textLength="82" x="119" y="238.981">
    Error code:
  </text>
  <text fill="red" font-family="sans-serif" font-size="13" lengthAdjust="spacingAndGlyphs" textLength="148" x="205" y="238.981">
    200x, 300x, 310x, 320x
  </text>
  <path d="M385 257.047v55h227v-45l-10-10H385" fill="#D3D3D3" filter="url(#a)" stroke="#a80036"/>
  <path d="M602 257.047v10h10l-10-10" fill="#D3D3D3" stroke="#a80036"/>
  <text font-family="sans-serif" font-size="13" lengthAdjust="spacingAndGlyphs" textLength="156" x="391" y="274.114">
    Validate request against
  </text>
  <text font-family="sans-serif" font-size="13" lengthAdjust="spacingAndGlyphs" textLength="206" x="391" y="289.247">
    Mojaloop Interface Specification.
  </text>
  <text fill="red" font-family="sans-serif" font-size="13" font-weight="bold" lengthAdjust="spacingAndGlyphs" textLength="82" x="391" y="304.379">
    Error code:
  </text>
  <text fill="red" font-family="sans-serif" font-size="13" lengthAdjust="spacingAndGlyphs" textLength="70" x="477" y="304.379">
    300x, 310x
  </text>
  <path fill="#A80036" stroke="#a80036" d="M901 338.578l10 4-10 4 4-4z"/>
  <path stroke="#a80036" d="M631 342.578h276"/>
  <text font-family="sans-serif" font-size="13" font-weight="bold" lengthAdjust="spacingAndGlyphs" textLength="9" x="638" y="337.512">
    2
  </text>
  <text font-family="sans-serif" font-size="13" lengthAdjust="spacingAndGlyphs" textLength="250" x="651" y="337.512">
    Request to get participant&apos;s FSP details
  </text>
  <path d="M52 357.578h64v7l-10 10H52v-17" fill="#EEE" stroke="#000"/>
  <path fill="none" stroke="#000" stroke-width="2" d="M52 357.578h2254v1305.648H52z"/>
  <text font-family="sans-serif" font-size="13" font-weight="bold" lengthAdjust="spacingAndGlyphs" textLength="19" x="67" y="370.645">
    alt
  </text>
  <text font-family="sans-serif" font-size="11" font-weight="bold" lengthAdjust="spacingAndGlyphs" textLength="191" x="131" y="369.789">
    [oracleEndpoint match found]
  </text>
  <path d="M844.5 381.71h459v7l-10 10h-449v-17" fill="#EEE" stroke="#000"/>
  <path fill="none" stroke="#000" stroke-width="2" d="M844.5 381.711H1618V712.57H844.5z"/>
  <text font-family="sans-serif" font-size="13" font-weight="bold" lengthAdjust="spacingAndGlyphs" textLength="409" x="859.5" y="394.778">
    IMPLEMENTATION: Get Oracle Routing Config Sequence
  </text>
  <text font-family="sans-serif" font-size="11" font-weight="bold" lengthAdjust="spacingAndGlyphs" textLength="62" x="1318.5" y="393.921">
    [CACHED]
  </text>
  <path fill="#A80036" stroke="#a80036" d="M1267 446.242l10 4-10 4 4-4z"/>
  <path stroke="#a80036" d="M923 450.242h350"/>
  <text font-family="sans-serif" font-size="13" font-weight="bold" lengthAdjust="spacingAndGlyphs" textLength="9" x="930" y="430.043">
    3
  </text>
  <text font-family="sans-serif" font-size="13" lengthAdjust="spacingAndGlyphs" textLength="272" x="943" y="414.911">
    Fetch Oracle Routing information based on
  </text>
  <text font-family="sans-serif" font-size="13" lengthAdjust="spacingAndGlyphs" textLength="233" x="943" y="430.043">
    {TYPE} and {CURRENCY} if provided
  </text>
  <text fill="red" font-family="sans-serif" font-size="13" font-weight="bold" lengthAdjust="spacingAndGlyphs" textLength="82" x="943" y="445.176">
    Error code:
  </text>
  <text fill="red" font-family="sans-serif" font-size="13" lengthAdjust="spacingAndGlyphs" textLength="31" x="1029" y="445.176">
    200x
  </text>
  <path fill="#A80036" stroke="#a80036" d="M1519 490.508l10 4-10 4 4-4z"/>
  <path stroke="#a80036" d="M1289 494.508h236"/>
  <text font-family="sans-serif" font-size="13" font-weight="bold" lengthAdjust="spacingAndGlyphs" textLength="9" x="1296" y="481.875">
    4
  </text>
  <text font-family="sans-serif" font-size="13" lengthAdjust="spacingAndGlyphs" textLength="151" x="1309" y="474.309">
    Retrieve oracleEndpoint
  </text>
  <text fill="red" font-family="sans-serif" font-size="13" font-weight="bold" lengthAdjust="spacingAndGlyphs" textLength="82" x="1309" y="489.442">
    Error code:
  </text>
  <text fill="red" font-family="sans-serif" font-size="13" lengthAdjust="spacingAndGlyphs" textLength="31" x="1395" y="489.442">
    200x
  </text>
  <path fill="#FFFFE0" filter="url(#a)" stroke="#a80036" d="M1474 507.508h124l10 34-10 34h-124l-10-34 10-34z"/>
  <text font-family="sans-serif" font-size="13" lengthAdjust="spacingAndGlyphs" textLength="95" x="1476" y="523.575">
    oracleEndpoint
  </text>
  <text font-family="sans-serif" font-size="13" lengthAdjust="spacingAndGlyphs" textLength="86" x="1476" y="538.707">
    endpointType
  </text>
  <text font-family="sans-serif" font-size="13" lengthAdjust="spacingAndGlyphs" textLength="74" x="1476" y="553.84">
    partyIdType
  </text>
  <text font-family="sans-serif" font-size="13" lengthAdjust="spacingAndGlyphs" textLength="120" x="1476" y="568.973">
    currency (optional)
  </text>
  <path fill="#A80036" stroke="#a80036" d="M1300 598.172l-10 4 10 4-4-4z"/>
  <path stroke="#a80036" stroke-dasharray="2,2" d="M1294 602.172h241"/>
  <text font-family="sans-serif" font-size="13" font-weight="bold" lengthAdjust="spacingAndGlyphs" textLength="9" x="1306" y="597.106">
    5
  </text>
  <text font-family="sans-serif" font-size="13" lengthAdjust="spacingAndGlyphs" textLength="205" x="1319" y="597.106">
    Return oracleEndpoint result set
  </text>
  <path fill="#A80036" stroke="#a80036" d="M934 627.305l-10 4 10 4-4-4z"/>
  <path stroke="#a80036" stroke-dasharray="2,2" d="M928 631.305h355"/>
  <text font-family="sans-serif" font-size="13" font-weight="bold" lengthAdjust="spacingAndGlyphs" textLength="9" x="940" y="626.239">
    6
  </text>
  <text font-family="sans-serif" font-size="13" lengthAdjust="spacingAndGlyphs" textLength="38" x="953" y="626.239">
    List of
  </text>
  <text font-family="sans-serif" font-size="13" font-weight="bold" lengthAdjust="spacingAndGlyphs" textLength="111" x="995" y="626.239">
    oracleEndpoint
  </text>
  <text font-family="sans-serif" font-size="13" lengthAdjust="spacingAndGlyphs" textLength="114" x="1110" y="626.239">
    for the Participant
  </text>
  <path d="M854.5 646.305h70v7l-10 10h-60v-17" fill="#EEE" stroke="#000"/>
  <path fill="none" stroke="#000" stroke-width="2" d="M854.5 646.305h249v59.266h-249z"/>
  <text font-family="sans-serif" font-size="13" font-weight="bold" lengthAdjust="spacingAndGlyphs" textLength="25" x="869.5" y="659.372">
    opt
  </text>
  <text font-family="sans-serif" font-size="11" font-weight="bold" lengthAdjust="spacingAndGlyphs" textLength="159" x="939.5" y="658.515">
    [oracleEndpoint IS NULL]
  </text>
  <path stroke="#a80036" d="M923 684.57h42M965 684.57v13M924 697.57h41"/>
  <path fill="#A80036" stroke="#a80036" d="M934 693.57l-10 4 10 4-4-4z"/>
  <text font-family="sans-serif" font-size="13" font-weight="bold" lengthAdjust="spacingAndGlyphs" textLength="9" x="930" y="679.504">
    7
  </text>
  <text fill="red" font-family="sans-serif" font-size="13" font-weight="bold" lengthAdjust="spacingAndGlyphs" textLength="82" x="943" y="679.504">
    Error code:
  </text>
  <text fill="red" font-family="sans-serif" font-size="13" lengthAdjust="spacingAndGlyphs" textLength="32" x="1029" y="679.504">
    3200
  </text>
  <path d="M854.5 726.57h590v7l-10 10h-580v-17" fill="#EEE" stroke="#000"/>
  <path fill="none" stroke="#000" stroke-width="2" d="M854.5 726.57H2296v209.328H854.5z"/>
  <text font-family="sans-serif" font-size="13" font-weight="bold" lengthAdjust="spacingAndGlyphs" textLength="545" x="869.5" y="739.637">
    IMPLEMENTATION: Request Participant Information from Oracle Sequence
  </text>
  <path fill="#A80036" stroke="#a80036" d="M1398 791.102l10 4-10 4 4-4z"/>
  <path stroke="#a80036" d="M923 795.102h481"/>
  <text font-family="sans-serif" font-size="13" font-weight="bold" lengthAdjust="spacingAndGlyphs" textLength="9" x="930" y="774.903">
    8
  </text>
  <text font-family="sans-serif" font-size="13" lengthAdjust="spacingAndGlyphs" textLength="250" x="943" y="759.77">
    Request to get participant&apos;s FSP details
  </text>
  <text font-family="sans-serif" font-size="13" lengthAdjust="spacingAndGlyphs" textLength="358" x="943" y="774.903">
    GET - /participants/{TYPE}/{ID}?currency={CURRENCY}
  </text>
  <text fill="red" font-family="sans-serif" font-size="13" font-weight="bold" lengthAdjust="spacingAndGlyphs" textLength="82" x="943" y="790.036">
    Error code:
  </text>
  <text fill="red" font-family="sans-serif" font-size="13" lengthAdjust="spacingAndGlyphs" textLength="109" x="1029" y="790.036">
    200x, 310x, 320x
  </text>
  <path fill="#A80036" stroke="#a80036" d="M2204.5 865.633l10 4-10 4 4-4z"/>
  <path stroke="#a80036" d="M1420 869.633h790.5"/>
  <text font-family="sans-serif" font-size="13" font-weight="bold" lengthAdjust="spacingAndGlyphs" textLength="9" x="1427" y="841.868">
    9
  </text>
  <text font-family="sans-serif" font-size="13" lengthAdjust="spacingAndGlyphs" textLength="250" x="1440" y="819.168">
    Request to get participant&apos;s FSP details
  </text>
  <text font-family="sans-serif" font-size="13" lengthAdjust="spacingAndGlyphs" textLength="358" x="1440" y="834.301">
    GET - /participants/{TYPE}/{ID}?currency={CURRENCY}
  </text>
  <text fill="#388724" font-family="sans-serif" font-size="13" font-weight="bold" lengthAdjust="spacingAndGlyphs" textLength="118" x="1440" y="849.434">
    Response code:
  </text>
  <text fill="#388724" font-family="sans-serif" font-size="13" lengthAdjust="spacingAndGlyphs" textLength="24" x="1562" y="849.434">
    200
  </text>
  <text fill="red" font-family="sans-serif" font-size="13" font-weight="bold" lengthAdjust="spacingAndGlyphs" textLength="82" x="1440" y="864.567">
    Error code:
  </text>
  <text fill="red" font-family="sans-serif" font-size="13" lengthAdjust="spacingAndGlyphs" textLength="109" x="1526" y="864.567">
    200x, 310x, 320x
  </text>
  <path fill="#A80036" stroke="#a80036" d="M1431 894.766l-10 4 10 4-4-4z"/>
  <path stroke="#a80036" stroke-dasharray="2,2" d="M1425 898.766h795.5"/>
  <text font-family="sans-serif" font-size="13" font-weight="bold" lengthAdjust="spacingAndGlyphs" textLength="18" x="1437" y="893.7">
    10
  </text>
  <text font-family="sans-serif" font-size="13" lengthAdjust="spacingAndGlyphs" textLength="229" x="1459" y="893.7">
    Return list of Participant information
  </text>
  <path fill="#A80036" stroke="#a80036" d="M934 923.898l-10 4 10 4-4-4z"/>
  <path stroke="#a80036" stroke-dasharray="2,2" d="M928 927.898h486"/>
  <text font-family="sans-serif" font-size="13" font-weight="bold" lengthAdjust="spacingAndGlyphs" textLength="18" x="940" y="922.832">
    11
  </text>
  <text font-family="sans-serif" font-size="13" lengthAdjust="spacingAndGlyphs" textLength="229" x="962" y="922.832">
    Return list of Participant information
  </text>
  <path fill="#A80036" stroke="#a80036" d="M1646.5 975.164l10 4-10 4 4-4z"/>
  <path stroke="#a80036" d="M923 979.164h729.5"/>
  <text font-family="sans-serif" font-size="13" font-weight="bold" lengthAdjust="spacingAndGlyphs" textLength="18" x="930" y="966.532">
    12
  </text>
  <text font-family="sans-serif" font-size="13" lengthAdjust="spacingAndGlyphs" textLength="330" x="952" y="958.965">
    Retrieve the PayerFSP Participant Callback Endpoint
  </text>
  <text fill="red" font-family="sans-serif" font-size="13" font-weight="bold" lengthAdjust="spacingAndGlyphs" textLength="82" x="952" y="974.098">
    Error code:
  </text>
  <text fill="red" font-family="sans-serif" font-size="13" lengthAdjust="spacingAndGlyphs" textLength="109" x="1038" y="974.098">
    200x, 310x, 320x
  </text>
  <path fill="#A80036" stroke="#a80036" d="M2027.5 1049.695l10 4-10 4 4-4z"/>
  <path stroke="#a80036" d="M1668.5 1053.695h365"/>
  <text font-family="sans-serif" font-size="13" font-weight="bold" lengthAdjust="spacingAndGlyphs" textLength="18" x="1675.5" y="1025.93">
    13
  </text>
  <text font-family="sans-serif" font-size="13" lengthAdjust="spacingAndGlyphs" textLength="330" x="1697.5" y="1003.231">
    Retrieve the PayerFSP Participant Callback Endpoint
  </text>
  <text font-family="sans-serif" font-size="13" lengthAdjust="spacingAndGlyphs" textLength="299" x="1697.5" y="1018.364">
    GET - /participants/{FSPIOP-Source}/endpoints
  </text>
  <text fill="#388724" font-family="sans-serif" font-size="13" font-weight="bold" lengthAdjust="spacingAndGlyphs" textLength="118" x="1697.5" y="1033.497">
    Response code:
  </text>
  <text fill="#388724" font-family="sans-serif" font-size="13" lengthAdjust="spacingAndGlyphs" textLength="24" x="1819.5" y="1033.497">
    200
  </text>
  <text fill="red" font-family="sans-serif" font-size="13" font-weight="bold" lengthAdjust="spacingAndGlyphs" textLength="82" x="1697.5" y="1048.629">
    Error code:
  </text>
  <text fill="red" font-family="sans-serif" font-size="13" lengthAdjust="spacingAndGlyphs" textLength="109" x="1783.5" y="1048.629">
    200x, 310x, 320x
  </text>
  <path fill="#A80036" stroke="#a80036" d="M1679.5 1078.828l-10 4 10 4-4-4z"/>
  <path stroke="#a80036" stroke-dasharray="2,2" d="M1673.5 1082.828h370"/>
  <text font-family="sans-serif" font-size="13" font-weight="bold" lengthAdjust="spacingAndGlyphs" textLength="18" x="1685.5" y="1077.762">
    14
  </text>
  <text font-family="sans-serif" font-size="13" lengthAdjust="spacingAndGlyphs" textLength="298" x="1707.5" y="1077.762">
    List of PayerFSP Participant Callback Endpoints
  </text>
  <path fill="#A80036" stroke="#a80036" d="M934 1107.96l-10 4 10 4-4-4z"/>
  <path stroke="#a80036" stroke-dasharray="2,2" d="M928 1111.961h734.5"/>
  <text font-family="sans-serif" font-size="13" font-weight="bold" lengthAdjust="spacingAndGlyphs" textLength="18" x="940" y="1106.895">
    15
  </text>
  <text font-family="sans-serif" font-size="13" lengthAdjust="spacingAndGlyphs" textLength="298" x="962" y="1106.895">
    List of PayerFSP Participant Callback Endpoints
  </text>
  <path stroke="#a80036" d="M923 1156.227h42M965 1156.227v13M924 1169.227h41"/>
  <path fill="#A80036" stroke="#a80036" d="M934 1165.227l-10 4 10 4-4-4z"/>
  <text font-family="sans-serif" font-size="13" font-weight="bold" lengthAdjust="spacingAndGlyphs" textLength="18" x="930" y="1143.594">
    16
  </text>
  <text font-family="sans-serif" font-size="13" lengthAdjust="spacingAndGlyphs" textLength="320" x="952" y="1136.028">
    Match PayerFSP Participant Callback Endpoints for
  </text>
  <text font-family="sans-serif" font-size="13" lengthAdjust="spacingAndGlyphs" textLength="271" x="952" y="1151.161">
    FSPIOP_CALLBACK_URL_PARTICIPANT_PUT
  </text>
  <path fill="#A80036" stroke="#a80036" d="M642 1194.36l-10 4 10 4-4-4z"/>
  <path stroke="#a80036" stroke-dasharray="2,2" d="M636 1198.359h276"/>
  <text font-family="sans-serif" font-size="13" font-weight="bold" lengthAdjust="spacingAndGlyphs" textLength="18" x="648" y="1193.293">
    17
  </text>
  <text font-family="sans-serif" font-size="13" lengthAdjust="spacingAndGlyphs" textLength="229" x="670" y="1193.293">
    Return list of Participant information
  </text>
  <path stroke="#a80036" d="M99 1227.492l10-4M99 1227.492l10 4M99 1227.492h521"/>
  <text font-family="sans-serif" font-size="13" font-weight="bold" lengthAdjust="spacingAndGlyphs" textLength="18" x="116" y="1222.426">
    18
  </text>
  <text font-family="sans-serif" font-size="13" lengthAdjust="spacingAndGlyphs" textLength="419" x="138" y="1222.426">
    Callback: PUT - /participants/{TYPE}/{ID}?currency={CURRENCY}
  </text>
  <path stroke="#000" stroke-dasharray="2,2" d="M52 1236.492h2254"/>
  <text font-family="sans-serif" font-size="11" font-weight="bold" lengthAdjust="spacingAndGlyphs" textLength="276" x="57" y="1246.703">
    [oracleEndpoint IS NULL OR error occurred]
  </text>
  <path fill="#A80036" stroke="#a80036" d="M1646.5 1282.563l10 4-10 4 4-4z"/>
  <path stroke="#a80036" d="M923 1286.563h729.5"/>
  <text font-family="sans-serif" font-size="13" font-weight="bold" lengthAdjust="spacingAndGlyphs" textLength="18" x="930" y="1273.93">
    19
  </text>
  <text font-family="sans-serif" font-size="13" lengthAdjust="spacingAndGlyphs" textLength="266" x="952" y="1266.364">
    Retrieve the Participant Callback Endpoint
  </text>
  <text fill="red" font-family="sans-serif" font-size="13" font-weight="bold" lengthAdjust="spacingAndGlyphs" textLength="82" x="952" y="1281.497">
    Error code:
  </text>
  <text fill="red" font-family="sans-serif" font-size="13" lengthAdjust="spacingAndGlyphs" textLength="109" x="1038" y="1281.497">
    200x, 310x, 320x
  </text>
  <path fill="#A80036" stroke="#a80036" d="M2027.5 1357.094l10 4-10 4 4-4z"/>
  <path stroke="#a80036" d="M1668.5 1361.094h365"/>
  <text font-family="sans-serif" font-size="13" font-weight="bold" lengthAdjust="spacingAndGlyphs" textLength="18" x="1675.5" y="1333.329">
    20
  </text>
  <text font-family="sans-serif" font-size="13" lengthAdjust="spacingAndGlyphs" textLength="266" x="1697.5" y="1310.629">
    Retrieve the Participant Callback Endpoint
  </text>
  <text font-family="sans-serif" font-size="13" lengthAdjust="spacingAndGlyphs" textLength="303" x="1697.5" y="1325.762">
    GET - /participants/{FSPIOP-Source}/endpoints.
  </text>
  <text fill="#388724" font-family="sans-serif" font-size="13" font-weight="bold" lengthAdjust="spacingAndGlyphs" textLength="118" x="1697.5" y="1340.895">
    Response code:
  </text>
  <text fill="#388724" font-family="sans-serif" font-size="13" lengthAdjust="spacingAndGlyphs" textLength="24" x="1820.5" y="1340.895">
    200
  </text>
  <text fill="red" font-family="sans-serif" font-size="13" font-weight="bold" lengthAdjust="spacingAndGlyphs" textLength="82" x="1697.5" y="1356.028">
    Error code:
  </text>
  <text fill="red" font-family="sans-serif" font-size="13" lengthAdjust="spacingAndGlyphs" textLength="109" x="1783.5" y="1356.028">
    200x, 310x, 320x
  </text>
  <path fill="#A80036" stroke="#a80036" d="M1679.5 1386.227l-10 4 10 4-4-4z"/>
  <path stroke="#a80036" stroke-dasharray="2,2" d="M1673.5 1390.227h370"/>
  <text font-family="sans-serif" font-size="13" font-weight="bold" lengthAdjust="spacingAndGlyphs" textLength="18" x="1685.5" y="1385.161">
    21
  </text>
  <text font-family="sans-serif" font-size="13" lengthAdjust="spacingAndGlyphs" textLength="234" x="1707.5" y="1385.161">
    List of Participant Callback Endpoints
  </text>
  <path fill="#A80036" stroke="#a80036" d="M934 1415.36l-10 4 10 4-4-4z"/>
  <path stroke="#a80036" stroke-dasharray="2,2" d="M928 1419.359h734.5"/>
  <text font-family="sans-serif" font-size="13" font-weight="bold" lengthAdjust="spacingAndGlyphs" textLength="18" x="940" y="1414.293">
    22
  </text>
  <text font-family="sans-serif" font-size="13" lengthAdjust="spacingAndGlyphs" textLength="234" x="962" y="1414.293">
    List of Participant Callback Endpoints
  </text>
  <path stroke="#a80036" d="M923 1463.625h42M965 1463.625v13M924 1476.625h41"/>
  <path fill="#A80036" stroke="#a80036" d="M934 1472.625l-10 4 10 4-4-4z"/>
  <text font-family="sans-serif" font-size="13" font-weight="bold" lengthAdjust="spacingAndGlyphs" textLength="18" x="930" y="1450.993">
    23
  </text>
  <text font-family="sans-serif" font-size="13" lengthAdjust="spacingAndGlyphs" textLength="256" x="952" y="1443.426">
    Match Participant Callback Endpoints for
  </text>
  <text font-family="sans-serif" font-size="13" lengthAdjust="spacingAndGlyphs" textLength="320" x="952" y="1458.559">
    FSPIOP_CALLBACK_URL_PARTICIPANT_PUT_ERROR
  </text>
  <path fill="#A80036" stroke="#a80036" d="M642 1516.89l-10 4 10 4-4-4z"/>
  <path stroke="#a80036" stroke-dasharray="2,2" d="M636 1520.891h276"/>
  <text font-family="sans-serif" font-size="13" font-weight="bold" lengthAdjust="spacingAndGlyphs" textLength="18" x="648" y="1508.258">
    24
  </text>
  <text font-family="sans-serif" font-size="13" lengthAdjust="spacingAndGlyphs" textLength="80" x="670" y="1500.692">
    Handle error
  </text>
  <text fill="red" font-family="sans-serif" font-size="13" font-weight="bold" lengthAdjust="spacingAndGlyphs" textLength="82" x="670" y="1515.825">
    Error code:
  </text>
  <text fill="red" font-family="sans-serif" font-size="13" lengthAdjust="spacingAndGlyphs" textLength="109" x="756" y="1515.825">
    200x, 310x, 320x
  </text>
  <path stroke="#a80036" d="M99 1550.023l10-4M99 1550.023l10 4M99 1550.023h521"/>
  <text font-family="sans-serif" font-size="13" font-weight="bold" lengthAdjust="spacingAndGlyphs" textLength="18" x="116" y="1544.957">
    25
  </text>
  <text font-family="sans-serif" font-size="13" lengthAdjust="spacingAndGlyphs" textLength="296" x="138" y="1544.957">
    Callback: PUT - /participants/{TYPE}/{ID}/error
  </text>
  <path stroke="#000" stroke-dasharray="2,2" d="M52 1559.023h2254"/>
  <text font-family="sans-serif" font-size="11" font-weight="bold" lengthAdjust="spacingAndGlyphs" textLength="161" x="57" y="1569.234">
    [switchEndpoint IS NULL]
  </text>
  <path stroke="#a80036" d="M923 1609.094h42M965 1609.094v13M924 1622.094h41"/>
  <path fill="#A80036" stroke="#a80036" d="M934 1618.094l-10 4 10 4-4-4z"/>
  <text font-family="sans-serif" font-size="13" font-weight="bold" lengthAdjust="spacingAndGlyphs" textLength="18" x="930" y="1596.461">
    26
  </text>
  <text font-family="sans-serif" font-size="13" lengthAdjust="spacingAndGlyphs" textLength="80" x="952" y="1588.895">
    Handle error
  </text>
  <text fill="red" font-family="sans-serif" font-size="13" font-weight="bold" lengthAdjust="spacingAndGlyphs" textLength="82" x="952" y="1604.028">
    Error code:
  </text>
  <text fill="red" font-family="sans-serif" font-size="13" lengthAdjust="spacingAndGlyphs" textLength="31" x="1038" y="1604.028">
    200x
  </text>
  <path fill="red" filter="url(#a)" stroke="#a80036" d="M938 1635.094h169l10 11-10 12H938l-10-12 10-11z"/>
  <text fill="#FFF" font-family="sans-serif" font-size="13" lengthAdjust="spacingAndGlyphs" textLength="165" x="940" y="1651.161">
    Error Handling Framework
  </text>
</svg>
