<?xml version="1.0" encoding="UTF-8" standalone="no"?><svg xmlns="http://www.w3.org/2000/svg" xmlns:xlink="http://www.w3.org/1999/xlink" contentScriptType="application/ecmascript" contentStyleType="text/css" height="970px" preserveAspectRatio="none" style="width:870px;height:970px;" version="1.1" viewBox="0 0 870 970" width="870px" zoomAndPan="magnify"><defs><filter height="300%" id="f1ax8qh8hz7hox" width="300%" x="-1" y="-1"><feGaussianBlur result="blurOut" stdDeviation="2.0"/><feColorMatrix in="blurOut" result="blurOut2" type="matrix" values="0 0 0 0 0 0 0 0 0 0 0 0 0 0 0 0 0 0 .4 0"/><feOffset dx="4.0" dy="4.0" in="blurOut2" result="blurOut3"/><feBlend in="SourceGraphic" in2="blurOut3" mode="normal"/></filter></defs><g><text fill="#000000" font-family="sans-serif" font-size="14" font-weight="bold" lengthAdjust="spacingAndGlyphs" textLength="215" x="328.5" y="23.5352">7.3.1 Get All Oracle Endpoints</text><rect fill="#FFFFE0" height="925.1563" style="stroke: #A80036; stroke-width: 1.0;" width="567.5" x="275.5" y="34.4883"/><text fill="#000000" font-family="sans-serif" font-size="13" font-weight="bold" lengthAdjust="spacingAndGlyphs" textLength="161" x="478.75" y="47.0566">Account Lookup Service</text><rect fill="#FFFFFF" filter="url(#f1ax8qh8hz7hox)" height="485.4531" style="stroke: #A80036; stroke-width: 1.0;" width="10" x="84.5" y="126.2871"/><rect fill="#FFFFFF" filter="url(#f1ax8qh8hz7hox)" height="424.5215" style="stroke: #A80036; stroke-width: 1.0;" width="10" x="396.5" y="187.2188"/><rect fill="#FFFFFF" filter="url(#f1ax8qh8hz7hox)" height="112.2422" style="stroke: #A80036; stroke-width: 1.0;" width="10" x="599.5" y="216.5293"/><rect fill="#FFFFFF" filter="url(#f1ax8qh8hz7hox)" height="53.6211" style="stroke: #A80036; stroke-width: 1.0;" width="10" x="798.5" y="245.8398"/><rect fill="#FFFFFF" filter="url(#f1ax8qh8hz7hox)" height="743.8691" style="stroke: #000000; stroke-width: 2.0;" width="846" x="13" y="133.2871"/><rect fill="#FFFFFF" filter="url(#f1ax8qh8hz7hox)" height="358.9004" style="stroke: #000000; stroke-width: 2.0;" width="826" x="23" y="260.8398"/><rect fill="#FFFFFF" filter="url(#f1ax8qh8hz7hox)" height="236.416" style="stroke: #000000; stroke-width: 2.0;" width="826" x="23" y="633.7402"/><line style="stroke: #A80036; stroke-width: 1.0; stroke-dasharray: 5.0,5.0;" x1="89" x2="89" y1="116.2871" y2="894.1563"/><line style="stroke: #A80036; stroke-width: 1.0; stroke-dasharray: 5.0,5.0;" x1="401.5" x2="401.5" y1="116.2871" y2="894.1563"/><line style="stroke: #A80036; stroke-width: 1.0; stroke-dasharray: 5.0,5.0;" x1="604.5" x2="604.5" y1="116.2871" y2="894.1563"/><line style="stroke: #A80036; stroke-width: 1.0; stroke-dasharray: 5.0,5.0;" x1="803" x2="803" y1="116.2871" y2="894.1563"/><text fill="#000000" font-family="sans-serif" font-size="14" lengthAdjust="spacingAndGlyphs" textLength="107" x="33" y="113.334">HUB OPERATOR</text><ellipse cx="89.5" cy="83.7988" fill="#FEFECE" filter="url(#f1ax8qh8hz7hox)" rx="12" ry="12" style="stroke: #A80036; stroke-width: 2.0;"/><line style="stroke: #A80036; stroke-width: 2.0;" x1="77.5" x2="101.5" y1="97.7988" y2="97.7988"/><text fill="#000000" font-family="sans-serif" font-size="14" lengthAdjust="spacingAndGlyphs" textLength="107" x="33" y="906.6914">HUB OPERATOR</text><ellipse cx="89.5" cy="925.6445" fill="#FEFECE" filter="url(#f1ax8qh8hz7hox)" rx="12" ry="12" style="stroke: #A80036; stroke-width: 2.0;"/><line style="stroke: #A80036; stroke-width: 2.0;" x1="77.5" x2="101.5" y1="939.6445" y2="939.6445"/><text fill="#000000" font-family="sans-serif" font-size="14" lengthAdjust="spacingAndGlyphs" textLength="238" x="279.5" y="113.334">Account Lookup Service Admin API</text><path d="M381,71.7988 L381,95.7988 M381,83.7988 L398,83.7988 " fill="none" filter="url(#f1ax8qh8hz7hox)" style="stroke: #A80036; stroke-width: 2.0;"/><ellipse cx="410" cy="83.7988" fill="#FEFECE" filter="url(#f1ax8qh8hz7hox)" rx="12" ry="12" style="stroke: #A80036; stroke-width: 2.0;"/><text fill="#000000" font-family="sans-serif" font-size="14" lengthAdjust="spacingAndGlyphs" textLength="238" x="279.5" y="906.6914">Account Lookup Service Admin API</text><path d="M381,913.6445 L381,937.6445 M381,925.6445 L398,925.6445 " fill="none" filter="url(#f1ax8qh8hz7hox)" style="stroke: #A80036; stroke-width: 2.0;"/><ellipse cx="410" cy="925.6445" fill="#FEFECE" filter="url(#f1ax8qh8hz7hox)" rx="12" ry="12" style="stroke: #A80036; stroke-width: 2.0;"/><text fill="#000000" font-family="sans-serif" font-size="14" lengthAdjust="spacingAndGlyphs" textLength="136" x="533.5" y="113.334">Get Oracles Handler</text><ellipse cx="604.5" cy="83.7988" fill="#FEFECE" filter="url(#f1ax8qh8hz7hox)" rx="12" ry="12" style="stroke: #A80036; stroke-width: 2.0;"/><polygon fill="#A80036" points="600.5,71.7988,606.5,66.7988,604.5,71.7988,606.5,76.7988,600.5,71.7988" style="stroke: #A80036; stroke-width: 1.0;"/><text fill="#000000" font-family="sans-serif" font-size="14" lengthAdjust="spacingAndGlyphs" textLength="136" x="533.5" y="906.6914">Get Oracles Handler</text><ellipse cx="604.5" cy="925.6445" fill="#FEFECE" filter="url(#f1ax8qh8hz7hox)" rx="12" ry="12" style="stroke: #A80036; stroke-width: 2.0;"/><polygon fill="#A80036" points="600.5,913.6445,606.5,908.6445,604.5,913.6445,606.5,918.6445,600.5,913.6445" style="stroke: #A80036; stroke-width: 1.0;"/><text fill="#000000" font-family="sans-serif" font-size="14" lengthAdjust="spacingAndGlyphs" textLength="65" x="768" y="113.334">ALS Store</text><path d="M785.5,63.7988 C785.5,53.7988 803.5,53.7988 803.5,53.7988 C803.5,53.7988 821.5,53.7988 821.5,63.7988 L821.5,89.7988 C821.5,99.7988 803.5,99.7988 803.5,99.7988 C803.5,99.7988 785.5,99.7988 785.5,89.7988 L785.5,63.7988 " fill="#FEFECE" filter="url(#f1ax8qh8hz7hox)" style="stroke: #000000; stroke-width: 1.5;"/><path d="M785.5,63.7988 C785.5,73.7988 803.5,73.7988 803.5,73.7988 C803.5,73.7988 821.5,73.7988 821.5,63.7988 " fill="none" style="stroke: #000000; stroke-width: 1.5;"/><text fill="#000000" font-family="sans-serif" font-size="14" lengthAdjust="spacingAndGlyphs" textLength="65" x="768" y="906.6914">ALS Store</text><path d="M785.5,919.6445 C785.5,909.6445 803.5,909.6445 803.5,909.6445 C803.5,909.6445 821.5,909.6445 821.5,919.6445 L821.5,945.6445 C821.5,955.6445 803.5,955.6445 803.5,955.6445 C803.5,955.6445 785.5,955.6445 785.5,945.6445 L785.5,919.6445 " fill="#FEFECE" filter="url(#f1ax8qh8hz7hox)" style="stroke: #000000; stroke-width: 1.5;"/><path d="M785.5,919.6445 C785.5,929.6445 803.5,929.6445 803.5,929.6445 C803.5,929.6445 821.5,929.6445 821.5,919.6445 " fill="none" style="stroke: #000000; stroke-width: 1.5;"/><rect fill="#FFFFFF" filter="url(#f1ax8qh8hz7hox)" height="485.4531" style="stroke: #A80036; stroke-width: 1.0;" width="10" x="84.5" y="126.2871"/><rect fill="#FFFFFF" filter="url(#f1ax8qh8hz7hox)" height="424.5215" style="stroke: #A80036; stroke-width: 1.0;" width="10" x="396.5" y="187.2188"/><rect fill="#FFFFFF" filter="url(#f1ax8qh8hz7hox)" height="112.2422" style="stroke: #A80036; stroke-width: 1.0;" width="10" x="599.5" y="216.5293"/><rect fill="#FFFFFF" filter="url(#f1ax8qh8hz7hox)" height="53.6211" style="stroke: #A80036; stroke-width: 1.0;" width="10" x="798.5" y="245.8398"/><path d="M13,133.2871 L201,133.2871 L201,140.2871 L191,150.2871 L13,150.2871 L13,133.2871 " fill="#EEEEEE" style="stroke: #000000; stroke-width: 1.0;"/><rect fill="none" height="743.8691" style="stroke: #000000; stroke-width: 2.0;" width="846" x="13" y="133.2871"/><text fill="#000000" font-family="sans-serif" font-size="13" font-weight="bold" lengthAdjust="spacingAndGlyphs" textLength="143" x="28" y="146.8555">Get Oracle Endpoints</text><polygon fill="#A80036" points="384.5,183.2188,394.5,187.2188,384.5,191.2188,388.5,187.2188" style="stroke: #A80036; stroke-width: 1.0;"/><line style="stroke: #A80036; stroke-width: 1.0;" x1="94.5" x2="390.5" y1="187.2188" y2="187.2188"/><text fill="#000000" font-family="sans-serif" font-size="13" font-weight="bold" lengthAdjust="spacingAndGlyphs" textLength="9" x="101.5" y="174.8213">1</text><text fill="#000000" font-family="sans-serif" font-size="13" lengthAdjust="spacingAndGlyphs" textLength="237" x="114.5" y="167.166">Request to GET all Oracle Endpoints -</text><text fill="#000000" font-family="sans-serif" font-size="13" lengthAdjust="spacingAndGlyphs" textLength="270" x="114.5" y="182.4766">GET /oracles?currency=USD&amp;type=MSISDN</text><polygon fill="#A80036" points="587.5,212.5293,597.5,216.5293,587.5,220.5293,591.5,216.5293" style="stroke: #A80036; stroke-width: 1.0;"/><line style="stroke: #A80036; stroke-width: 1.0;" x1="406.5" x2="593.5" y1="216.5293" y2="216.5293"/><text fill="#000000" font-family="sans-serif" font-size="13" font-weight="bold" lengthAdjust="spacingAndGlyphs" textLength="9" x="413.5" y="211.7871">2</text><text fill="#000000" font-family="sans-serif" font-size="13" lengthAdjust="spacingAndGlyphs" textLength="132" x="426.5" y="211.7871">Get Oracle Endpoints</text><polygon fill="#A80036" points="786.5,241.8398,796.5,245.8398,786.5,249.8398,790.5,245.8398" style="stroke: #A80036; stroke-width: 1.0;"/><line style="stroke: #A80036; stroke-width: 1.0;" x1="609.5" x2="792.5" y1="245.8398" y2="245.8398"/><text fill="#000000" font-family="sans-serif" font-size="13" font-weight="bold" lengthAdjust="spacingAndGlyphs" textLength="9" x="616.5" y="241.0977">3</text><text fill="#000000" font-family="sans-serif" font-size="13" lengthAdjust="spacingAndGlyphs" textLength="130" x="629.5" y="241.0977">Get oracle endpoints</text><path d="M23,260.8398 L85,260.8398 L85,267.8398 L75,277.8398 L23,277.8398 L23,260.8398 " fill="#EEEEEE" style="stroke: #000000; stroke-width: 1.0;"/><rect fill="none" height="358.9004" style="stroke: #000000; stroke-width: 2.0;" width="826" x="23" y="260.8398"/><text fill="#000000" font-family="sans-serif" font-size="13" font-weight="bold" lengthAdjust="spacingAndGlyphs" textLength="17" x="38" y="274.4082">alt</text><text fill="#000000" font-family="sans-serif" font-size="11" font-weight="bold" lengthAdjust="spacingAndGlyphs" textLength="181" x="100" y="273.4746">[Get Oracle Endpoints (success)]</text><polygon fill="#A80036" points="620.5,295.4609,610.5,299.4609,620.5,303.4609,616.5,299.4609" style="stroke: #A80036; stroke-width: 1.0;"/><line style="stroke: #A80036; stroke-width: 1.0; stroke-dasharray: 2.0,2.0;" x1="614.5" x2="802.5" y1="299.4609" y2="299.4609"/><text fill="#000000" font-family="sans-serif" font-size="13" font-weight="bold" lengthAdjust="spacingAndGlyphs" textLength="9" x="626.5" y="294.7188">4</text><text fill="#000000" font-family="sans-serif" font-size="13" lengthAdjust="spacingAndGlyphs" textLength="152" x="639.5" y="294.7188">Return Oracle Endpoints</text><polygon fill="#A80036" points="417.5,324.7715,407.5,328.7715,417.5,332.7715,413.5,328.7715" style="stroke: #A80036; stroke-width: 1.0;"/><line style="stroke: #A80036; stroke-width: 1.0;" x1="411.5" x2="603.5" y1="328.7715" y2="328.7715"/><text fill="#000000" font-family="sans-serif" font-size="13" font-weight="bold" lengthAdjust="spacingAndGlyphs" textLength="9" x="423.5" y="324.0293">5</text><text fill="#000000" font-family="sans-serif" font-size="13" lengthAdjust="spacingAndGlyphs" textLength="152" x="436.5" y="324.0293">Return Oracle Endpoints</text><path d="M92,341.7715 L92,580.7715 L387,580.7715 L387,351.7715 L377,341.7715 L92,341.7715 " fill="#FFFF00" filter="url(#f1ax8qh8hz7hox)" style="stroke: #A80036; stroke-width: 1.0;"/><path d="M377,341.7715 L377,351.7715 L387,351.7715 L377,341.7715 " fill="#FFFF00" style="stroke: #A80036; stroke-width: 1.0;"/><text fill="#000000" font-family="sans-serif" font-size="13" lengthAdjust="spacingAndGlyphs" textLength="58" x="98" y="359.3398">Message:</text><text fill="#000000" font-family="sans-serif" font-size="13" lengthAdjust="spacingAndGlyphs" textLength="4" x="98" y="374.6504">{</text><text fill="#000000" font-family="sans-serif" font-size="13" lengthAdjust="spacingAndGlyphs" textLength="4" x="114" y="389.9609">[</text><text fill="#000000" font-family="sans-serif" font-size="13" lengthAdjust="spacingAndGlyphs" textLength="4" x="130" y="405.2715">{</text><text fill="#000000" font-family="sans-serif" font-size="13" lengthAdjust="spacingAndGlyphs" textLength="129" x="146" y="420.582">"oracleId": &lt;string&gt;,</text><text fill="#000000" font-family="sans-serif" font-size="13" lengthAdjust="spacingAndGlyphs" textLength="195" x="146" y="435.8926">"oracleIdType": &lt;PartyIdType&gt;,</text><text fill="#000000" font-family="sans-serif" font-size="13" lengthAdjust="spacingAndGlyphs" textLength="78" x="146" y="451.2031">"endpoint": {</text><text fill="#000000" font-family="sans-serif" font-size="13" lengthAdjust="spacingAndGlyphs" textLength="112" x="162" y="466.5137">"value": &lt;string&gt;,</text><text fill="#000000" font-family="sans-serif" font-size="13" lengthAdjust="spacingAndGlyphs" textLength="210" x="162" y="481.8242">"endpointType": &lt;EndpointType&gt;</text><text fill="#000000" font-family="sans-serif" font-size="13" lengthAdjust="spacingAndGlyphs" textLength="8" x="146" y="497.1348">},</text><text fill="#000000" font-family="sans-serif" font-size="13" lengthAdjust="spacingAndGlyphs" textLength="152" x="146" y="512.4453">"currency": &lt;Currency&gt;,</text><text fill="#000000" font-family="sans-serif" font-size="13" lengthAdjust="spacingAndGlyphs" textLength="145" x="146" y="527.7559">"isDefault": &lt;boolean&gt;</text><text fill="#000000" font-family="sans-serif" font-size="13" lengthAdjust="spacingAndGlyphs" textLength="4" x="130" y="543.0664">}</text><text fill="#000000" font-family="sans-serif" font-size="13" lengthAdjust="spacingAndGlyphs" textLength="4" x="114" y="558.377">]</text><text fill="#000000" font-family="sans-serif" font-size="13" lengthAdjust="spacingAndGlyphs" textLength="4" x="98" y="573.6875">}</text><polygon fill="#A80036" points="100.5,607.7402,90.5,611.7402,100.5,615.7402,96.5,611.7402" style="stroke: #A80036; stroke-width: 1.0;"/><line style="stroke: #A80036; stroke-width: 1.0; stroke-dasharray: 2.0,2.0;" x1="94.5" x2="400.5" y1="611.7402" y2="611.7402"/><text fill="#000000" font-family="sans-serif" font-size="13" font-weight="bold" lengthAdjust="spacingAndGlyphs" textLength="9" x="106.5" y="606.998">6</text><text fill="#000000" font-family="sans-serif" font-size="13" lengthAdjust="spacingAndGlyphs" textLength="41" x="119.5" y="606.998">Return</text><text fill="#000000" font-family="sans-serif" font-size="13" font-weight="bold" lengthAdjust="spacingAndGlyphs" textLength="84" x="164.5" y="606.998">HTTP Status:</text><text fill="#000000" font-family="sans-serif" font-size="13" lengthAdjust="spacingAndGlyphs" textLength="24" x="252.5" y="606.998">200</text><path d="M23,633.7402 L85,633.7402 L85,640.7402 L75,650.7402 L23,650.7402 L23,633.7402 " fill="#EEEEEE" style="stroke: #000000; stroke-width: 1.0;"/><rect fill="none" height="236.416" style="stroke: #000000; stroke-width: 2.0;" width="826" x="23" y="633.7402"/><text fill="#000000" font-family="sans-serif" font-size="13" font-weight="bold" lengthAdjust="spacingAndGlyphs" textLength="17" x="38" y="647.3086">alt</text><text fill="#000000" font-family="sans-serif" font-size="11" font-weight="bold" lengthAdjust="spacingAndGlyphs" textLength="175" x="100" y="646.375">[Get Oracle Endpoints (failure)]</text><polygon fill="#A80036" points="615.5,668.3613,605.5,672.3613,615.5,676.3613,611.5,672.3613" style="stroke: #A80036; stroke-width: 1.0;"/><line style="stroke: #A80036; stroke-width: 1.0; stroke-dasharray: 2.0,2.0;" x1="609.5" x2="802.5" y1="672.3613" y2="672.3613"/><text fill="#000000" font-family="sans-serif" font-size="13" font-weight="bold" lengthAdjust="spacingAndGlyphs" textLength="9" x="621.5" y="667.6191">7</text><text fill="#000000" font-family="sans-serif" font-size="13" lengthAdjust="spacingAndGlyphs" textLength="73" x="634.5" y="667.6191">Throw Error</text><polygon fill="#A80036" points="412.5,697.6719,402.5,701.6719,412.5,705.6719,408.5,701.6719" style="stroke: #A80036; stroke-width: 1.0;"/><line style="stroke: #A80036; stroke-width: 1.0;" x1="406.5" x2="603.5" y1="701.6719" y2="701.6719"/><text fill="#000000" font-family="sans-serif" font-size="13" font-weight="bold" lengthAdjust="spacingAndGlyphs" textLength="9" x="418.5" y="696.9297">8</text><text fill="#000000" font-family="sans-serif" font-size="13" lengthAdjust="spacingAndGlyphs" textLength="73" x="431.5" y="696.9297">Throw Error</text><path d="M168,714.6719 L168,831.6719 L392,831.6719 L392,724.6719 L382,714.6719 L168,714.6719 " fill="#FFFF00" filter="url(#f1ax8qh8hz7hox)" style="stroke: #A80036; stroke-width: 1.0;"/><path d="M382,714.6719 L382,724.6719 L392,724.6719 L382,714.6719 " fill="#FFFF00" style="stroke: #A80036; stroke-width: 1.0;"/><text fill="#000000" font-family="sans-serif" font-size="13" lengthAdjust="spacingAndGlyphs" textLength="58" x="174" y="732.2402">Message:</text><text fill="#000000" font-family="sans-serif" font-size="13" lengthAdjust="spacingAndGlyphs" textLength="4" x="174" y="747.5508">{</text><text fill="#000000" font-family="sans-serif" font-size="13" lengthAdjust="spacingAndGlyphs" textLength="126" x="190" y="762.8613">"errorInformation": {</text><text fill="#000000" font-family="sans-serif" font-size="13" lengthAdjust="spacingAndGlyphs" textLength="170" x="206" y="778.1719">"errorCode": &lt;Error Code&gt;,</text><text fill="#000000" font-family="sans-serif" font-size="13" lengthAdjust="spacingAndGlyphs" textLength="171" x="206" y="793.4824">"errorDescription": &lt;Msg&gt;,</text><text fill="#000000" font-family="sans-serif" font-size="13" lengthAdjust="spacingAndGlyphs" textLength="4" x="190" y="808.793">}</text><text fill="#000000" font-family="sans-serif" font-size="13" lengthAdjust="spacingAndGlyphs" textLength="4" x="174" y="824.1035">}</text><polygon fill="#A80036" points="100.5,858.1563,90.5,862.1563,100.5,866.1563,96.5,862.1563" style="stroke: #A80036; stroke-width: 1.0;"/><line style="stroke: #A80036; stroke-width: 1.0; stroke-dasharray: 2.0,2.0;" x1="94.5" x2="400.5" y1="862.1563" y2="862.1563"/><text fill="#000000" font-family="sans-serif" font-size="13" font-weight="bold" lengthAdjust="spacingAndGlyphs" textLength="9" x="106.5" y="857.4141">9</text><text fill="#000000" font-family="sans-serif" font-size="13" lengthAdjust="spacingAndGlyphs" textLength="41" x="119.5" y="857.4141">Return</text><text fill="#FF0000" font-family="sans-serif" font-size="13" font-weight="bold" lengthAdjust="spacingAndGlyphs" textLength="84" x="164.5" y="857.4141">HTTP Status:</text><text fill="#FF0000" font-family="sans-serif" font-size="13" lengthAdjust="spacingAndGlyphs" textLength="24" x="252.5" y="857.4141">502</text><!--
@startuml
title 7.3.1 Get All Oracle Endpoints

autonumber



entity "HUB OPERATOR" as OPERATOR
boundary "Account Lookup Service Admin API" as ALSADM
control "Get Oracles Handler" as ORC_HANDLER
database "ALS Store" as DB

box "Account Lookup Service" #LightYellow
participant ALSADM
participant ORC_HANDLER
participant DB
end box


activate OPERATOR
group Get Oracle Endpoints
  OPERATOR -> ALSADM: Request to GET all Oracle Endpoints -\nGET /oracles?currency=USD&type=MSISDN
  activate ALSADM

  ALSADM -> ORC_HANDLER: Get Oracle Endpoints
  activate ORC_HANDLER
  ORC_HANDLER -> DB: Get oracle endpoints
  activate DB

  alt Get Oracle Endpoints (success)
    DB - -> ORC_HANDLER: Return Oracle Endpoints
    deactivate DB

    deactivate DB
    ORC_HANDLER -> ALSADM: Return Oracle Endpoints
    deactivate ORC_HANDLER
    note left of ALSADM #yellow
        Message:
        {
            [
                {
                    "oracleId": <string>,
                    "oracleIdType": <PartyIdType>,
                    "endpoint": {
                        "value": <string>,
                        "endpointType": <EndpointType>
                    },
                    "currency": <Currency>,
                    "isDefault": <boolean>
                }
            ]
        }
    end note
    ALSADM - -> OPERATOR: Return <color #000000><b>HTTP Status:</b> 200</color>

    deactivate ALSADM
    deactivate OPERATOR
  end

  alt Get Oracle Endpoints (failure)
    DB - -> ORC_HANDLER: Throw Error
    deactivate DB
    ORC_HANDLER -> ALSADM: Throw Error
    deactivate ORC_HANDLER
    note left of ALSADM #yellow
        Message:
        {
            "errorInformation": {
                "errorCode": <Error Code>,
                "errorDescription": <Msg>,
            }
        }
    end note

    ALSADM - -> OPERATOR: Return <color #FF0000><b>HTTP Status:</b> 502</color>

    deactivate ALSADM
    deactivate OPERATOR


  end
end

@enduml

PlantUML version 1.2019.06(Sat May 25 01:10:25 PHT 2019)
(GPL source distribution)
Java Runtime: Java(TM) SE Runtime Environment
JVM: Java HotSpot(TM) 64-Bit Server VM
Java Version: 1.8.0_171-b11
Operating System: Mac OS X
OS Version: 10.13.6
Default Encoding: UTF-8
Language: en
Country: AU
--></g></svg>