<svg xmlns="http://www.w3.org/2000/svg" height="757" preserveAspectRatio="none" style="width:944px;height:757px" width="944">
  <defs>
    <filter height="300%" id="a" width="300%" x="-1" y="-1">
      <feGaussianBlur result="blurOut" stdDeviation="2"/>
      <feColorMatrix in="blurOut" result="blurOut2" values="0 0 0 0 0 0 0 0 0 0 0 0 0 0 0 0 0 0 .4 0"/>
      <feOffset dx="4" dy="4" in="blurOut2" result="blurOut3"/>
      <feBlend in="SourceGraphic" in2="blurOut3"/>
    </filter>
  </defs>
  <text font-family="sans-serif" font-size="18" lengthAdjust="spacingAndGlyphs" textLength="254" x="343.25" y="28.708">
    7.3.0 Delete Endpoint Cache
  </text>
  <path fill="#FFFFE0" stroke="#a80036" d="M416.5 40.953h498v710.516h-498z"/>
  <text font-family="sans-serif" font-size="13" font-weight="bold" lengthAdjust="spacingAndGlyphs" textLength="176" x="577.5" y="53.02">
    Account Lookup Service
  </text>
  <path fill="#FFF" filter="url(#a)" stroke="#a80036" d="M84 132.383h10v273.328H84zM519 177.648h10v476.523h-10z"/>
  <path fill="#FFF" filter="url(#a)" stroke="#a80036" d="M519 177.648h10v228.063h-10zM734 206.781h10v169.797h-10zM880.5 235.914h10v53.266h-10zM880.5 318.313h10v29.133h-10z"/>
  <path fill="#FFF" filter="url(#a)" stroke="#000" stroke-width="2" d="M10 139.383h920.5v529.789H10z"/>
  <path fill="#FFF" filter="url(#a)" stroke="#000" stroke-width="2" d="M20 250.914h900.5v162.797H20zM20 427.711h900.5v234.461H20z"/>
  <path stroke="#a80036" stroke-dasharray="5,5" d="M89 122.383v563.789M518.5 122.383v563.789M738.5 122.383v563.789M885.5 122.383v563.789"/>
  <text font-family="sans-serif" font-size="14" lengthAdjust="spacingAndGlyphs" textLength="112" x="30" y="119.081">
    HUB OPERATOR
  </text>
  <circle cx="89" cy="90.086" fill="#FEFECE" filter="url(#a)" stroke="#a80036" stroke-width="2" r="12"/>
  <path stroke="#a80036" stroke-width="2" d="M77 104.086h24"/>
  <text font-family="sans-serif" font-size="14" lengthAdjust="spacingAndGlyphs" textLength="112" x="30" y="698.167">
    HUB OPERATOR
  </text>
  <circle cx="89" cy="717.469" fill="#FEFECE" filter="url(#a)" stroke="#a80036" stroke-width="2" r="12"/>
  <path stroke="#a80036" stroke-width="2" d="M77 731.469h24"/>
  <text font-family="sans-serif" font-size="14" lengthAdjust="spacingAndGlyphs" textLength="191" x="420.5" y="119.081">
    Account Lookup Service API
  </text>
  <path d="M498.5 78.086v24m0-12h17" fill="none" filter="url(#a)" stroke="#a80036" stroke-width="2"/>
  <circle cx="527.5" cy="90.086" fill="#FEFECE" filter="url(#a)" stroke="#a80036" stroke-width="2" r="12"/>
  <text font-family="sans-serif" font-size="14" lengthAdjust="spacingAndGlyphs" textLength="191" x="420.5" y="698.167">
    Account Lookup Service API
  </text>
  <path d="M498.5 705.469v24m0-12h17" fill="none" filter="url(#a)" stroke="#a80036" stroke-width="2"/>
  <circle cx="527.5" cy="717.469" fill="#FEFECE" filter="url(#a)" stroke="#a80036" stroke-width="2" r="12"/>
  <text font-family="sans-serif" font-size="14" lengthAdjust="spacingAndGlyphs" textLength="217" x="627.5" y="119.081">
    Delete Endpoint Cache Handler
  </text>
  <circle cx="739" cy="90.086" fill="#FEFECE" filter="url(#a)" stroke="#a80036" stroke-width="2" r="12"/>
  <path fill="#A80036" stroke="#a80036" d="M735 78.086l6-5-2 5 2 5-6-5z"/>
  <text font-family="sans-serif" font-size="14" lengthAdjust="spacingAndGlyphs" textLength="217" x="627.5" y="698.167">
    Delete Endpoint Cache Handler
  </text>
  <circle cx="739" cy="717.469" fill="#FEFECE" filter="url(#a)" stroke="#a80036" stroke-width="2" r="12"/>
  <path fill="#A80036" stroke="#a80036" d="M735 705.469l6-5-2 5 2 5-6-5z"/>
  <text font-family="sans-serif" font-size="14" lengthAdjust="spacingAndGlyphs" textLength="44" x="860.5" y="119.081">
    Cache
  </text>
  <path d="M867.5 70.086c0-10 18-10 18-10s18 0 18 10v26c0 10-18 10-18 10s-18 0-18-10v-26" fill="#FEFECE" filter="url(#a)" stroke="#000" stroke-width="1.5"/>
  <path d="M867.5 70.086c0 10 18 10 18 10s18 0 18-10" fill="none" stroke="#000" stroke-width="1.5"/>
  <text font-family="sans-serif" font-size="14" lengthAdjust="spacingAndGlyphs" textLength="44" x="860.5" y="698.167">
    Cache
  </text>
  <path d="M867.5 711.469c0-10 18-10 18-10s18 0 18 10v26c0 10-18 10-18 10s-18 0-18-10v-26" fill="#FEFECE" filter="url(#a)" stroke="#000" stroke-width="1.5"/>
  <path d="M867.5 711.469c0 10 18 10 18 10s18 0 18-10" fill="none" stroke="#000" stroke-width="1.5"/>
  <path fill="#FFF" filter="url(#a)" stroke="#a80036" d="M84 132.383h10v273.328H84zM519 177.648h10v476.523h-10z"/>
  <path fill="#FFF" filter="url(#a)" stroke="#a80036" d="M519 177.648h10v228.063h-10zM734 206.781h10v169.797h-10zM880.5 235.914h10v53.266h-10zM880.5 318.313h10v29.133h-10z"/>
  <path d="M10 139.383h214v7l-10 10H10v-17" fill="#EEE" stroke="#000"/>
  <path fill="none" stroke="#000" stroke-width="2" d="M10 139.383h920.5v529.789H10z"/>
  <text font-family="sans-serif" font-size="13" font-weight="bold" lengthAdjust="spacingAndGlyphs" textLength="169" x="25" y="152.45">
    Delete Endpoint Cache
  </text>
  <path fill="#A80036" stroke="#a80036" d="M507 173.648l10 4-10 4 4-4z"/>
  <path stroke="#a80036" d="M94 177.648h419"/>
  <text font-family="sans-serif" font-size="13" font-weight="bold" lengthAdjust="spacingAndGlyphs" textLength="9" x="101" y="172.583">
    1
  </text>
  <text font-family="sans-serif" font-size="13" lengthAdjust="spacingAndGlyphs" textLength="388" x="114" y="172.583">
    Request to DELETE Endpoint Cache - DELETE /endpointcache
  </text>
  <path fill="#A80036" stroke="#a80036" d="M722 202.781l10 4-10 4 4-4z"/>
  <path stroke="#a80036" d="M529 206.781h199"/>
  <text font-family="sans-serif" font-size="13" font-weight="bold" lengthAdjust="spacingAndGlyphs" textLength="9" x="536" y="201.715">
    2
  </text>
  <text font-family="sans-serif" font-size="13" lengthAdjust="spacingAndGlyphs" textLength="86" x="549" y="201.715">
    Delete Cache
  </text>
  <path fill="#A80036" stroke="#a80036" d="M868.5 231.914l10 4-10 4 4-4z"/>
  <path stroke="#a80036" d="M744 235.914h130.5"/>
  <text font-family="sans-serif" font-size="13" font-weight="bold" lengthAdjust="spacingAndGlyphs" textLength="9" x="751" y="230.848">
    3
  </text>
  <text font-family="sans-serif" font-size="13" lengthAdjust="spacingAndGlyphs" textLength="74" x="764" y="230.848">
    Stop Cache
  </text>
  <path d="M20 250.914h64v7l-10 10H20v-17" fill="#EEE" stroke="#000"/>
  <path fill="none" stroke="#000" stroke-width="2" d="M20 250.914h900.5v162.797H20z"/>
  <text font-family="sans-serif" font-size="13" font-weight="bold" lengthAdjust="spacingAndGlyphs" textLength="19" x="35" y="263.981">
    alt
  </text>
  <text font-family="sans-serif" font-size="11" font-weight="bold" lengthAdjust="spacingAndGlyphs" textLength="193" x="99" y="263.125">
    [Stop Cache Status (success)]
  </text>
  <path fill="#A80036" stroke="#a80036" d="M755 285.18l-10 4 10 4-4-4z"/>
  <path stroke="#a80036" stroke-dasharray="2,2" d="M749 289.18h135.5"/>
  <text font-family="sans-serif" font-size="13" font-weight="bold" lengthAdjust="spacingAndGlyphs" textLength="9" x="761" y="284.114">
    4
  </text>
  <text font-family="sans-serif" font-size="13" lengthAdjust="spacingAndGlyphs" textLength="86" x="774" y="284.114">
    Return status
  </text>
  <path fill="#A80036" stroke="#a80036" d="M868.5 314.313l10 4-10 4 4-4z"/>
  <path stroke="#a80036" d="M744 318.313h130.5"/>
  <text font-family="sans-serif" font-size="13" font-weight="bold" lengthAdjust="spacingAndGlyphs" textLength="9" x="751" y="313.247">
    5
  </text>
  <text font-family="sans-serif" font-size="13" lengthAdjust="spacingAndGlyphs" textLength="95" x="764" y="313.247">
    Initialize Cache
  </text>
  <path fill="#A80036" stroke="#a80036" d="M755 343.445l-10 4 10 4-4-4z"/>
  <path stroke="#a80036" d="M749 347.445h135.5"/>
  <text font-family="sans-serif" font-size="13" font-weight="bold" lengthAdjust="spacingAndGlyphs" textLength="9" x="761" y="342.379">
    6
  </text>
  <text font-family="sans-serif" font-size="13" lengthAdjust="spacingAndGlyphs" textLength="88" x="774" y="342.379">
    Return Status
  </text>
  <path fill="#A80036" stroke="#a80036" d="M540 372.578l-10 4 10 4-4-4z"/>
  <path stroke="#a80036" d="M534 376.578h204"/>
  <text font-family="sans-serif" font-size="13" font-weight="bold" lengthAdjust="spacingAndGlyphs" textLength="9" x="546" y="371.512">
    7
  </text>
  <text font-family="sans-serif" font-size="13" lengthAdjust="spacingAndGlyphs" textLength="88" x="559" y="371.512">
    Return Status
  </text>
  <path fill="#A80036" stroke="#a80036" d="M100 401.71l-10 4 10 4-4-4z"/>
  <path stroke="#a80036" stroke-dasharray="2,2" d="M94 405.711h419"/>
  <text font-family="sans-serif" font-size="13" font-weight="bold" lengthAdjust="spacingAndGlyphs" textLength="9" x="106" y="400.645">
    8
  </text>
  <text font-family="sans-serif" font-size="13" lengthAdjust="spacingAndGlyphs" textLength="42" x="119" y="400.645">
    Return
  </text>
  <text font-family="sans-serif" font-size="13" font-weight="bold" lengthAdjust="spacingAndGlyphs" textLength="94" x="165" y="400.645">
    HTTP Status:
  </text>
  <text font-family="sans-serif" font-size="13" lengthAdjust="spacingAndGlyphs" textLength="24" x="263" y="400.645">
    202
  </text>
  <path d="M20 427.71h64v7l-10 10H20v-17" fill="#EEE" stroke="#000"/>
  <path fill="none" stroke="#000" stroke-width="2" d="M20 427.711h900.5v234.461H20z"/>
  <text font-family="sans-serif" font-size="13" font-weight="bold" lengthAdjust="spacingAndGlyphs" textLength="19" x="35" y="440.778">
    alt
  </text>
  <text font-family="sans-serif" font-size="11" font-weight="bold" lengthAdjust="spacingAndGlyphs" textLength="214" x="99" y="439.921">
    [Validate Status (service failure)]
  </text>
  <path fill="#A80036" stroke="#a80036" d="M750 461.977l-10 4 10 4-4-4z"/>
  <path stroke="#a80036" stroke-dasharray="2,2" d="M744 465.977h140.5"/>
  <text font-family="sans-serif" font-size="13" font-weight="bold" lengthAdjust="spacingAndGlyphs" textLength="9" x="756" y="460.911">
    9
  </text>
  <text font-family="sans-serif" font-size="13" lengthAdjust="spacingAndGlyphs" textLength="72" x="769" y="460.911">
    Throw Error
  </text>
  <path fill="#A80036" stroke="#a80036" d="M535 491.11l-10 4 10 4-4-4z"/>
  <path stroke="#a80036" d="M529 495.109h209"/>
  <text font-family="sans-serif" font-size="13" font-weight="bold" lengthAdjust="spacingAndGlyphs" textLength="18" x="541" y="490.043">
    10
  </text>
  <text font-family="sans-serif" font-size="13" lengthAdjust="spacingAndGlyphs" textLength="72" x="563" y="490.043">
    Throw Error
  </text>
  <path d="M276 508.11v115h229v-105l-10-10H276" fill="#FF0" filter="url(#a)" stroke="#a80036"/>
  <path d="M495 508.11v10h10l-10-10" fill="#FF0" stroke="#a80036"/>
  <text font-family="sans-serif" font-size="13" lengthAdjust="spacingAndGlyphs" textLength="61" x="282" y="525.176">
    Message:
  </text>
  <text font-family="sans-serif" font-size="13" lengthAdjust="spacingAndGlyphs" textLength="8" x="282" y="540.309">
    {
  </text>
  <text font-family="sans-serif" font-size="13" lengthAdjust="spacingAndGlyphs" textLength="130" x="298" y="555.442">
    &quot;errorInformation&quot;: {
  </text>
  <text font-family="sans-serif" font-size="13" lengthAdjust="spacingAndGlyphs" textLength="176" x="314" y="570.575">
    &quot;errorCode&quot;: &lt;Error Code&gt;,
  </text>
  <text font-family="sans-serif" font-size="13" lengthAdjust="spacingAndGlyphs" textLength="173" x="314" y="585.707">
    &quot;errorDescription&quot;: &lt;Msg&gt;,
  </text>
  <text font-family="sans-serif" font-size="13" lengthAdjust="spacingAndGlyphs" textLength="8" x="298" y="600.84">
    }
  </text>
  <text font-family="sans-serif" font-size="13" lengthAdjust="spacingAndGlyphs" textLength="8" x="282" y="615.973">
    }
  </text>
  <path fill="#A80036" stroke="#a80036" d="M100 650.172l-10 4 10 4-4-4z"/>
  <path stroke="#a80036" stroke-dasharray="2,2" d="M94 654.172h424"/>
  <text font-family="sans-serif" font-size="13" font-weight="bold" lengthAdjust="spacingAndGlyphs" textLength="18" x="106" y="649.106">
    11
  </text>
  <text font-family="sans-serif" font-size="13" lengthAdjust="spacingAndGlyphs" textLength="42" x="128" y="649.106">
    Return
  </text>
  <text fill="red" font-family="sans-serif" font-size="13" font-weight="bold" lengthAdjust="spacingAndGlyphs" textLength="94" x="174" y="649.106">
    HTTP Status:
  </text>
  <text fill="red" font-family="sans-serif" font-size="13" lengthAdjust="spacingAndGlyphs" textLength="24" x="272" y="649.106">
    502
  </text>
</svg>
