<?xml version="1.0" encoding="UTF-8" standalone="no"?>
<svg xmlns="http://www.w3.org/2000/svg" xmlns:xlink="http://www.w3.org/1999/xlink" contentScriptType="application/ecmascript" contentStyleType="text/css" height="1542px" preserveAspectRatio="none" style="width:698px;height:1542px" version="1.1" viewBox="0 0 698 1542" width="698px" zoomAndPan="magnify">
  <defs>
    <filter height="300%" id="f1q09x5vebim7w" width="300%" x="-1" y="-1">
      <feGaussianBlur result="blurOut" stdDeviation="2.0"/>
      <feColorMatrix in="blurOut" result="blurOut2" type="matrix" values="0 0 0 0 0 0 0 0 0 0 0 0 0 0 0 0 0 0 .4 0"/>
      <feOffset dx="4.0" dy="4.0" in="blurOut2" result="blurOut3"/>
      <feBlend in="SourceGraphic" in2="blurOut3" mode="normal"/>
    </filter>
  </defs>
  <g>
    <text fill="#000000" font-family="sans-serif" font-size="18" lengthAdjust="spacingAndGlyphs" textLength="242" x="226" y="28.708">Quoting Service Sequences</text>
    <rect fill="#FFFFFF" filter="url(#f1q09x5vebim7w)" height="1185.3281" style="stroke:#000000;stroke-width:2.0" width="674" x="10" y="264.375"/>
    <rect fill="#FFFFFF" filter="url(#f1q09x5vebim7w)" height="845.1953" style="stroke:#000000;stroke-width:2.0" width="547" x="20" y="485.3047"/>
    <rect fill="#FFFFFF" filter="url(#f1q09x5vebim7w)" height="422.7969" style="stroke:#000000;stroke-width:2.0" width="527" x="30" y="648.9688"/>
    <rect fill="#FFFFFF" height="181.6016" style="stroke:none;stroke-width:1.0" width="527" x="30" y="890.1641"/>
    <rect fill="#FFFFFF" height="251.7344" style="stroke:none;stroke-width:1.0" width="547" x="20" y="1078.7656"/>
    <rect fill="#FFFFFF" height="112.2031" style="stroke:none;stroke-width:1.0" width="674" x="10" y="1337.5"/>
    <line style="stroke:#A80036;stroke-width:1.0;stroke-dasharray:5.0,5.0" x1="118" x2="118" y1="107.8438" y2="1466.7031"/>
    <line style="stroke:#A80036;stroke-width:1.0;stroke-dasharray:5.0,5.0" x1="304.5" x2="304.5" y1="107.8438" y2="1466.7031"/>
    <line style="stroke:#A80036;stroke-width:1.0;stroke-dasharray:5.0,5.0" x1="502" x2="502" y1="107.8438" y2="1466.7031"/>
    <rect fill="#FEFECE" filter="url(#f1q09x5vebim7w)" height="30.2969" style="stroke:#A80036;stroke-width:1.5" width="82" x="75" y="72.5469"/>
    <text fill="#000000" font-family="sans-serif" font-size="14" lengthAdjust="spacingAndGlyphs" textLength="68" x="82" y="92.542">Payer FSP</text>
    <rect fill="#FEFECE" filter="url(#f1q09x5vebim7w)" height="30.2969" style="stroke:#A80036;stroke-width:1.5" width="82" x="75" y="1465.7031"/>
    <text fill="#000000" font-family="sans-serif" font-size="14" lengthAdjust="spacingAndGlyphs" textLength="68" x="82" y="1485.6982">Payer FSP</text>
    <rect fill="#FEFECE" filter="url(#f1q09x5vebim7w)" height="62.8906" style="stroke:#A80036;stroke-width:1.5" width="69" x="268.5" y="39.9531"/>
    <text fill="#000000" font-family="sans-serif" font-size="14" lengthAdjust="spacingAndGlyphs" textLength="45" x="280.5" y="59.9482">Switch</text>
    <text fill="#000000" font-family="sans-serif" font-size="14" lengthAdjust="spacingAndGlyphs" textLength="55" x="275.5" y="76.2451">Quoting</text>
    <text fill="#000000" font-family="sans-serif" font-size="14" lengthAdjust="spacingAndGlyphs" textLength="50" x="278" y="92.542">Service</text>
    <rect fill="#FEFECE" filter="url(#f1q09x5vebim7w)" height="62.8906" style="stroke:#A80036;stroke-width:1.5" width="69" x="268.5" y="1465.7031"/>
    <text fill="#000000" font-family="sans-serif" font-size="14" lengthAdjust="spacingAndGlyphs" textLength="45" x="280.5" y="1485.6982">Switch</text>
    <text fill="#000000" font-family="sans-serif" font-size="14" lengthAdjust="spacingAndGlyphs" textLength="55" x="275.5" y="1501.9951">Quoting</text>
    <text fill="#000000" font-family="sans-serif" font-size="14" lengthAdjust="spacingAndGlyphs" textLength="50" x="278" y="1518.292">Service</text>
    <rect fill="#FEFECE" filter="url(#f1q09x5vebim7w)" height="30.2969" style="stroke:#A80036;stroke-width:1.5" width="86" x="457" y="72.5469"/>
    <text fill="#000000" font-family="sans-serif" font-size="14" lengthAdjust="spacingAndGlyphs" textLength="72" x="464" y="92.542">Payee FSP</text>
    <rect fill="#FEFECE" filter="url(#f1q09x5vebim7w)" height="30.2969" style="stroke:#A80036;stroke-width:1.5" width="86" x="457" y="1465.7031"/>
    <text fill="#000000" font-family="sans-serif" font-size="14" lengthAdjust="spacingAndGlyphs" textLength="72" x="464" y="1485.6982">Payee FSP</text>
    <path d="M64,122.8438 L64,147.8438 L355,147.8438 L355,132.8438 L345,122.8438 L64,122.8438 " fill="#FBFB77" filter="url(#f1q09x5vebim7w)" style="stroke:#A80036;stroke-width:1.0"/>
    <path d="M345,122.8438 L345,132.8438 L355,132.8438 L345,122.8438 " fill="#FBFB77" style="stroke:#A80036;stroke-width:1.0"/>
    <text fill="#000000" font-family="sans-serif" font-size="13" lengthAdjust="spacingAndGlyphs" textLength="270" x="70" y="139.9106">Payer FSP requests quote from Payee FSP</text>
    <polygon fill="#A80036" points="293,174.1094,303,178.1094,293,178.1094" style="stroke:#A80036;stroke-width:1.0"/>
    <line style="stroke:#A80036;stroke-width:1.0" x1="118" x2="304" y1="178.1094" y2="178.1094"/>
    <text fill="#000000" font-family="sans-serif" font-size="13" font-weight="bold" lengthAdjust="spacingAndGlyphs" textLength="9" x="125" y="173.0435">1</text>
    <text fill="#000000" font-family="sans-serif" font-size="13" lengthAdjust="spacingAndGlyphs" textLength="86" x="138" y="173.0435">POST /quotes</text>
    <polygon fill="#A80036" points="129,208.2422,119,208.2422,129,212.2422" style="stroke:#A80036;stroke-width:1.0"/>
    <line style="stroke:#A80036;stroke-width:1.0;stroke-dasharray:2.0,2.0" x1="118" x2="304" y1="207.2422" y2="207.2422"/>
    <text fill="#000000" font-family="sans-serif" font-size="13" font-weight="bold" lengthAdjust="spacingAndGlyphs" textLength="9" x="135" y="202.1763">2</text>
    <text fill="#000000" font-family="sans-serif" font-size="13" lengthAdjust="spacingAndGlyphs" textLength="88" x="148" y="202.1763">202 Accepted</text>
    <line style="stroke:#A80036;stroke-width:1.0" x1="305" x2="347" y1="236.375" y2="236.375"/>
    <line style="stroke:#A80036;stroke-width:1.0" x1="347" x2="347" y1="236.375" y2="249.375"/>
    <line style="stroke:#A80036;stroke-width:1.0" x1="306" x2="347" y1="249.375" y2="249.375"/>
    <polygon fill="#A80036" points="316,245.375,306,249.375,316,253.375,312,249.375" style="stroke:#A80036;stroke-width:1.0"/>
    <text fill="#000000" font-family="sans-serif" font-size="13" font-weight="bold" lengthAdjust="spacingAndGlyphs" textLength="9" x="312" y="231.3091">3</text>
    <text fill="#000000" font-family="sans-serif" font-size="13" lengthAdjust="spacingAndGlyphs" textLength="151" x="325" y="231.3091">Validate Quote Request</text>
    <path d="M10,264.375 L74,264.375 L74,271.375 L64,281.375 L10,281.375 L10,264.375 " fill="#EEEEEE" style="stroke:#000000;stroke-width:1.0"/>
    <rect fill="none" height="1185.3281" style="stroke:#000000;stroke-width:2.0" width="674" x="10" y="264.375"/>
    <text fill="#000000" font-family="sans-serif" font-size="13" font-weight="bold" lengthAdjust="spacingAndGlyphs" textLength="19" x="25" y="277.4419">alt</text>
    <text fill="#000000" font-family="sans-serif" font-size="11" font-weight="bold" lengthAdjust="spacingAndGlyphs" textLength="97" x="89" y="276.5854">[quote is valid]</text>
    <line style="stroke:#A80036;stroke-width:1.0" x1="305" x2="347" y1="302.6406" y2="302.6406"/>
    <line style="stroke:#A80036;stroke-width:1.0" x1="347" x2="347" y1="302.6406" y2="315.6406"/>
    <line style="stroke:#A80036;stroke-width:1.0" x1="306" x2="347" y1="315.6406" y2="315.6406"/>
    <polygon fill="#A80036" points="316,311.6406,306,315.6406,316,319.6406,312,315.6406" style="stroke:#A80036;stroke-width:1.0"/>
    <text fill="#000000" font-family="sans-serif" font-size="13" font-weight="bold" lengthAdjust="spacingAndGlyphs" textLength="9" x="312" y="297.5747">4</text>
    <text fill="#000000" font-family="sans-serif" font-size="13" lengthAdjust="spacingAndGlyphs" textLength="121" x="325" y="297.5747">Persist Quote Data</text>
    <path d="M250,328.6406 L250,368.6406 L552,368.6406 L552,338.6406 L542,328.6406 L250,328.6406 " fill="#FBFB77" filter="url(#f1q09x5vebim7w)" style="stroke:#A80036;stroke-width:1.0"/>
    <path d="M542,328.6406 L542,338.6406 L552,338.6406 L542,328.6406 " fill="#FBFB77" style="stroke:#A80036;stroke-width:1.0"/>
    <text fill="#000000" font-family="sans-serif" font-size="13" lengthAdjust="spacingAndGlyphs" textLength="281" x="256" y="345.7075">Switch forwards quote request to Payee FSP</text>
    <text fill="#000000" font-family="sans-serif" font-size="13" lengthAdjust="spacingAndGlyphs" textLength="139" x="256" y="360.8403">&lt;Payer based Rules&gt;</text>
    <polygon fill="#A80036" points="490,395.0391,500,399.0391,490,399.0391" style="stroke:#A80036;stroke-width:1.0"/>
    <line style="stroke:#A80036;stroke-width:1.0" x1="305" x2="501" y1="399.0391" y2="399.0391"/>
    <text fill="#000000" font-family="sans-serif" font-size="13" font-weight="bold" lengthAdjust="spacingAndGlyphs" textLength="9" x="312" y="393.9731">5</text>
    <text fill="#000000" font-family="sans-serif" font-size="13" lengthAdjust="spacingAndGlyphs" textLength="86" x="325" y="393.9731">POST /quotes</text>
    <polygon fill="#A80036" points="316,429.1719,306,429.1719,316,433.1719" style="stroke:#A80036;stroke-width:1.0"/>
    <line style="stroke:#A80036;stroke-width:1.0;stroke-dasharray:2.0,2.0" x1="305" x2="501" y1="428.1719" y2="428.1719"/>
    <text fill="#000000" font-family="sans-serif" font-size="13" font-weight="bold" lengthAdjust="spacingAndGlyphs" textLength="9" x="322" y="423.106">6</text>
    <text fill="#000000" font-family="sans-serif" font-size="13" lengthAdjust="spacingAndGlyphs" textLength="88" x="335" y="423.106">202 Accepted</text>
    <line style="stroke:#A80036;stroke-width:1.0" x1="502" x2="544" y1="457.3047" y2="457.3047"/>
    <line style="stroke:#A80036;stroke-width:1.0" x1="544" x2="544" y1="457.3047" y2="470.3047"/>
    <line style="stroke:#A80036;stroke-width:1.0" x1="503" x2="544" y1="470.3047" y2="470.3047"/>
    <polygon fill="#A80036" points="513,466.3047,503,470.3047,513,474.3047,509,470.3047" style="stroke:#A80036;stroke-width:1.0"/>
    <text fill="#000000" font-family="sans-serif" font-size="13" font-weight="bold" lengthAdjust="spacingAndGlyphs" textLength="9" x="509" y="452.2388">7</text>
    <text fill="#000000" font-family="sans-serif" font-size="13" lengthAdjust="spacingAndGlyphs" textLength="150" x="522" y="452.2388">Calculate Fees/Charges</text>
    <path d="M20,485.3047 L84,485.3047 L84,492.3047 L74,502.3047 L20,502.3047 L20,485.3047 " fill="#EEEEEE" style="stroke:#000000;stroke-width:1.0"/>
    <rect fill="none" height="845.1953" style="stroke:#000000;stroke-width:2.0" width="547" x="20" y="485.3047"/>
    <text fill="#000000" font-family="sans-serif" font-size="13" font-weight="bold" lengthAdjust="spacingAndGlyphs" textLength="19" x="35" y="498.3716">alt</text>
    <text fill="#000000" font-family="sans-serif" font-size="11" font-weight="bold" lengthAdjust="spacingAndGlyphs" textLength="271" x="99" y="497.5151">[Payee FSP successfully calculates quote]</text>
    <path d="M266,507.4375 L266,532.4375 L539,532.4375 L539,517.4375 L529,507.4375 L266,507.4375 " fill="#FBFB77" filter="url(#f1q09x5vebim7w)" style="stroke:#A80036;stroke-width:1.0"/>
    <path d="M529,507.4375 L529,517.4375 L539,517.4375 L529,507.4375 " fill="#FBFB77" style="stroke:#A80036;stroke-width:1.0"/>
    <text fill="#000000" font-family="sans-serif" font-size="13" lengthAdjust="spacingAndGlyphs" textLength="241" x="275.75" y="524.5044">Payee FSP responds to quote request</text>
    <polygon fill="#A80036" points="316,558.7031,306,562.7031,316,562.7031" style="stroke:#A80036;stroke-width:1.0"/>
    <line style="stroke:#A80036;stroke-width:1.0" x1="305" x2="501" y1="562.7031" y2="562.7031"/>
    <text fill="#000000" font-family="sans-serif" font-size="13" font-weight="bold" lengthAdjust="spacingAndGlyphs" textLength="9" x="322" y="557.6372">8</text>
    <text fill="#000000" font-family="sans-serif" font-size="13" lengthAdjust="spacingAndGlyphs" textLength="110" x="335" y="557.6372">PUT /quotes/{ID}</text>
    <polygon fill="#A80036" points="490,592.8359,500,592.8359,490,596.8359" style="stroke:#A80036;stroke-width:1.0"/>
    <line style="stroke:#A80036;stroke-width:1.0;stroke-dasharray:2.0,2.0" x1="305" x2="501" y1="591.8359" y2="591.8359"/>
    <text fill="#000000" font-family="sans-serif" font-size="13" font-weight="bold" lengthAdjust="spacingAndGlyphs" textLength="9" x="312" y="586.77">9</text>
    <text fill="#000000" font-family="sans-serif" font-size="13" lengthAdjust="spacingAndGlyphs" textLength="45" x="325" y="586.77">200 Ok</text>
    <line style="stroke:#A80036;stroke-width:1.0" x1="305" x2="347" y1="620.9688" y2="620.9688"/>
    <line style="stroke:#A80036;stroke-width:1.0" x1="347" x2="347" y1="620.9688" y2="633.9688"/>
    <line style="stroke:#A80036;stroke-width:1.0" x1="306" x2="347" y1="633.9688" y2="633.9688"/>
    <polygon fill="#A80036" points="316,629.9688,306,633.9688,316,637.9688,312,633.9688" style="stroke:#A80036;stroke-width:1.0"/>
    <text fill="#000000" font-family="sans-serif" font-size="13" font-weight="bold" lengthAdjust="spacingAndGlyphs" textLength="18" x="312" y="615.9028">10</text>
    <text fill="#000000" font-family="sans-serif" font-size="13" lengthAdjust="spacingAndGlyphs" textLength="161" x="334" y="615.9028">Validate Quote Response</text>
    <path d="M30,648.9688 L94,648.9688 L94,655.9688 L84,665.9688 L30,665.9688 L30,648.9688 " fill="#EEEEEE" style="stroke:#000000;stroke-width:1.0"/>
    <rect fill="none" height="422.7969" style="stroke:#000000;stroke-width:2.0" width="527" x="30" y="648.9688"/>
    <text fill="#000000" font-family="sans-serif" font-size="13" font-weight="bold" lengthAdjust="spacingAndGlyphs" textLength="19" x="45" y="662.0356">alt</text>
    <text fill="#000000" font-family="sans-serif" font-size="11" font-weight="bold" lengthAdjust="spacingAndGlyphs" textLength="103" x="109" y="661.1792">[response is ok]</text>
    <line style="stroke:#A80036;stroke-width:1.0" x1="305" x2="347" y1="687.2344" y2="687.2344"/>
    <line style="stroke:#A80036;stroke-width:1.0" x1="347" x2="347" y1="687.2344" y2="700.2344"/>
    <line style="stroke:#A80036;stroke-width:1.0" x1="306" x2="347" y1="700.2344" y2="700.2344"/>
    <polygon fill="#A80036" points="316,696.2344,306,700.2344,316,704.2344,312,700.2344" style="stroke:#A80036;stroke-width:1.0"/>
    <text fill="#000000" font-family="sans-serif" font-size="13" font-weight="bold" lengthAdjust="spacingAndGlyphs" textLength="18" x="312" y="682.1685">11</text>
    <text fill="#000000" font-family="sans-serif" font-size="13" lengthAdjust="spacingAndGlyphs" textLength="144" x="334" y="682.1685">Persist Response Data</text>
    <path d="M55,713.2344 L55,753.2344 L364,753.2344 L364,723.2344 L354,713.2344 L55,713.2344 " fill="#FBFB77" filter="url(#f1q09x5vebim7w)" style="stroke:#A80036;stroke-width:1.0"/>
    <path d="M354,713.2344 L354,723.2344 L364,723.2344 L354,713.2344 " fill="#FBFB77" style="stroke:#A80036;stroke-width:1.0"/>
    <text fill="#000000" font-family="sans-serif" font-size="13" lengthAdjust="spacingAndGlyphs" textLength="288" x="61" y="730.3013">Switch forwards quote response to Payer FSP</text>
    <text fill="#000000" font-family="sans-serif" font-size="13" lengthAdjust="spacingAndGlyphs" textLength="185" x="61" y="745.4341">&lt;Payee whole request Rule&gt;</text>
    <polygon fill="#A80036" points="129,779.6328,119,783.6328,129,783.6328" style="stroke:#A80036;stroke-width:1.0"/>
    <line style="stroke:#A80036;stroke-width:1.0" x1="118" x2="304" y1="783.6328" y2="783.6328"/>
    <text fill="#000000" font-family="sans-serif" font-size="13" font-weight="bold" lengthAdjust="spacingAndGlyphs" textLength="18" x="135" y="778.5669">12</text>
    <text fill="#000000" font-family="sans-serif" font-size="13" lengthAdjust="spacingAndGlyphs" textLength="110" x="157" y="778.5669">PUT /quotes/{ID}</text>
    <polygon fill="#A80036" points="293,813.7656,303,813.7656,293,817.7656" style="stroke:#A80036;stroke-width:1.0"/>
    <line style="stroke:#A80036;stroke-width:1.0;stroke-dasharray:2.0,2.0" x1="118" x2="304" y1="812.7656" y2="812.7656"/>
    <text fill="#000000" font-family="sans-serif" font-size="13" font-weight="bold" lengthAdjust="spacingAndGlyphs" textLength="18" x="125" y="807.6997">13</text>
    <text fill="#000000" font-family="sans-serif" font-size="13" lengthAdjust="spacingAndGlyphs" textLength="45" x="147" y="807.6997">200 Ok</text>
    <path d="M40,825.7656 L40,880.7656 L192,880.7656 L192,835.7656 L182,825.7656 L40,825.7656 " fill="#3498DB" filter="url(#f1q09x5vebim7w)" style="stroke:#A80036;stroke-width:1.0"/>
    <path d="M182,825.7656 L182,835.7656 L192,835.7656 L182,825.7656 " fill="#3498DB" style="stroke:#A80036;stroke-width:1.0"/>
    <text fill="#000000" font-family="sans-serif" font-size="13" lengthAdjust="spacingAndGlyphs" textLength="130" x="46" y="842.8325">Payer FSP continues</text>
    <text fill="#000000" font-family="sans-serif" font-size="13" lengthAdjust="spacingAndGlyphs" textLength="131" x="46" y="857.9653">with transfer if quote</text>
    <text fill="#000000" font-family="sans-serif" font-size="13" lengthAdjust="spacingAndGlyphs" textLength="96" x="46" y="873.0981">is acceptable...</text>
    <line style="stroke:#000000;stroke-width:1.0;stroke-dasharray:2.0,2.0" x1="30" x2="557" y1="891.1641" y2="891.1641"/>
    <text fill="#000000" font-family="sans-serif" font-size="11" font-weight="bold" lengthAdjust="spacingAndGlyphs" textLength="116" x="35" y="901.3745">[response invalid]</text>
    <path d="M266,909.9688 L266,934.9688 L539,934.9688 L539,919.9688 L529,909.9688 L266,909.9688 " fill="#FBFB77" filter="url(#f1q09x5vebim7w)" style="stroke:#A80036;stroke-width:1.0"/>
    <path d="M529,909.9688 L529,919.9688 L539,919.9688 L529,909.9688 " fill="#FBFB77" style="stroke:#A80036;stroke-width:1.0"/>
    <text fill="#000000" font-family="sans-serif" font-size="13" lengthAdjust="spacingAndGlyphs" textLength="214" x="289.25" y="927.0356">Switch returns error to Payee FSP</text>
    <polygon fill="#A80036" points="490,961.2344,500,965.2344,490,965.2344" style="stroke:#A80036;stroke-width:1.0"/>
    <line style="stroke:#A80036;stroke-width:1.0" x1="305" x2="501" y1="965.2344" y2="965.2344"/>
    <text fill="#000000" font-family="sans-serif" font-size="13" font-weight="bold" lengthAdjust="spacingAndGlyphs" textLength="18" x="312" y="960.1685">14</text>
    <text fill="#000000" font-family="sans-serif" font-size="13" lengthAdjust="spacingAndGlyphs" textLength="145" x="334" y="960.1685">PUT /quotes/{ID}/error</text>
    <polygon fill="#A80036" points="316,995.3672,306,995.3672,316,999.3672" style="stroke:#A80036;stroke-width:1.0"/>
    <line style="stroke:#A80036;stroke-width:1.0;stroke-dasharray:2.0,2.0" x1="305" x2="501" y1="994.3672" y2="994.3672"/>
    <text fill="#000000" font-family="sans-serif" font-size="13" font-weight="bold" lengthAdjust="spacingAndGlyphs" textLength="18" x="322" y="989.3013">15</text>
    <text fill="#000000" font-family="sans-serif" font-size="13" lengthAdjust="spacingAndGlyphs" textLength="45" x="344" y="989.3013">200 Ok</text>
    <path d="M266,1007.3672 L266,1062.3672 L539,1062.3672 L539,1017.3672 L529,1007.3672 L266,1007.3672 " fill="#EC7063" filter="url(#f1q09x5vebim7w)" style="stroke:#A80036;stroke-width:1.0"/>
    <path d="M529,1007.3672 L529,1017.3672 L539,1017.3672 L529,1007.3672 " fill="#EC7063" style="stroke:#A80036;stroke-width:1.0"/>
    <text fill="#000000" font-family="sans-serif" font-size="13" lengthAdjust="spacingAndGlyphs" textLength="129" x="307.25" y="1024.4341">Note that under this</text>
    <text fill="#000000" font-family="sans-serif" font-size="13" lengthAdjust="spacingAndGlyphs" textLength="147" x="307.25" y="1039.5669">scenario the Payer FSP</text>
    <text fill="#000000" font-family="sans-serif" font-size="13" lengthAdjust="spacingAndGlyphs" textLength="178" x="307.25" y="1054.6997">may not receive a response</text>
    <line style="stroke:#000000;stroke-width:1.0;stroke-dasharray:2.0,2.0" x1="20" x2="567" y1="1079.7656" y2="1079.7656"/>
    <text fill="#000000" font-family="sans-serif" font-size="11" font-weight="bold" lengthAdjust="spacingAndGlyphs" textLength="327" x="25" y="1089.9761">[Payee FSP calculation fails or rejects the request]</text>
    <path d="M266,1098.5703 L266,1123.5703 L539,1123.5703 L539,1108.5703 L529,1098.5703 L266,1098.5703 " fill="#FBFB77" filter="url(#f1q09x5vebim7w)" style="stroke:#A80036;stroke-width:1.0"/>
    <path d="M529,1098.5703 L529,1108.5703 L539,1108.5703 L529,1098.5703 " fill="#FBFB77" style="stroke:#A80036;stroke-width:1.0"/>
    <text fill="#000000" font-family="sans-serif" font-size="13" lengthAdjust="spacingAndGlyphs" textLength="214" x="289.25" y="1115.6372">Payee FSP returns error to Switch</text>
    <polygon fill="#A80036" points="316,1149.8359,306,1153.8359,316,1153.8359" style="stroke:#A80036;stroke-width:1.0"/>
    <line style="stroke:#A80036;stroke-width:1.0" x1="305" x2="501" y1="1153.8359" y2="1153.8359"/>
    <text fill="#000000" font-family="sans-serif" font-size="13" font-weight="bold" lengthAdjust="spacingAndGlyphs" textLength="18" x="322" y="1148.77">16</text>
    <text fill="#000000" font-family="sans-serif" font-size="13" lengthAdjust="spacingAndGlyphs" textLength="141" x="344" y="1148.77">PUT quotes/{ID}/error</text>
    <polygon fill="#A80036" points="490,1183.9688,500,1183.9688,490,1187.9688" style="stroke:#A80036;stroke-width:1.0"/>
    <line style="stroke:#A80036;stroke-width:1.0;stroke-dasharray:2.0,2.0" x1="305" x2="501" y1="1182.9688" y2="1182.9688"/>
    <text fill="#000000" font-family="sans-serif" font-size="13" font-weight="bold" lengthAdjust="spacingAndGlyphs" textLength="18" x="312" y="1177.9028">17</text>
    <text fill="#000000" font-family="sans-serif" font-size="13" lengthAdjust="spacingAndGlyphs" textLength="46" x="334" y="1177.9028">200 OK</text>
    <line style="stroke:#A80036;stroke-width:1.0" x1="305" x2="347" y1="1212.1016" y2="1212.1016"/>
    <line style="stroke:#A80036;stroke-width:1.0" x1="347" x2="347" y1="1212.1016" y2="1225.1016"/>
    <line style="stroke:#A80036;stroke-width:1.0" x1="306" x2="347" y1="1225.1016" y2="1225.1016"/>
    <polygon fill="#A80036" points="316,1221.1016,306,1225.1016,316,1229.1016,312,1225.1016" style="stroke:#A80036;stroke-width:1.0"/>
    <text fill="#000000" font-family="sans-serif" font-size="13" font-weight="bold" lengthAdjust="spacingAndGlyphs" textLength="18" x="312" y="1207.0356">18</text>
    <text fill="#000000" font-family="sans-serif" font-size="13" lengthAdjust="spacingAndGlyphs" textLength="111" x="334" y="1207.0356">Persist error data</text>
    <path d="M80,1238.1016 L80,1263.1016 L341,1263.1016 L341,1248.1016 L331,1238.1016 L80,1238.1016 " fill="#FBFB77" filter="url(#f1q09x5vebim7w)" style="stroke:#A80036;stroke-width:1.0"/>
    <path d="M331,1238.1016 L331,1248.1016 L341,1248.1016 L331,1238.1016 " fill="#FBFB77" style="stroke:#A80036;stroke-width:1.0"/>
    <text fill="#000000" font-family="sans-serif" font-size="13" lengthAdjust="spacingAndGlyphs" textLength="211" x="98.75" y="1255.1685">Switch returns error to Payer FSP</text>
    <polygon fill="#A80036" points="129,1289.3672,119,1293.3672,129,1293.3672" style="stroke:#A80036;stroke-width:1.0"/>
    <line style="stroke:#A80036;stroke-width:1.0" x1="118" x2="304" y1="1293.3672" y2="1293.3672"/>
    <text fill="#000000" font-family="sans-serif" font-size="13" font-weight="bold" lengthAdjust="spacingAndGlyphs" textLength="18" x="135" y="1288.3013">19</text>
    <text fill="#000000" font-family="sans-serif" font-size="13" lengthAdjust="spacingAndGlyphs" textLength="141" x="157" y="1288.3013">PUT quotes/{ID}/error</text>
    <polygon fill="#A80036" points="293,1323.5,303,1323.5,293,1327.5" style="stroke:#A80036;stroke-width:1.0"/>
    <line style="stroke:#A80036;stroke-width:1.0;stroke-dasharray:2.0,2.0" x1="118" x2="304" y1="1322.5" y2="1322.5"/>
    <text fill="#000000" font-family="sans-serif" font-size="13" font-weight="bold" lengthAdjust="spacingAndGlyphs" textLength="18" x="125" y="1317.4341">20</text>
    <text fill="#000000" font-family="sans-serif" font-size="13" lengthAdjust="spacingAndGlyphs" textLength="46" x="147" y="1317.4341">200 OK</text>
    <line style="stroke:#000000;stroke-width:1.0;stroke-dasharray:2.0,2.0" x1="10" x2="684" y1="1338.5" y2="1338.5"/>
    <text fill="#000000" font-family="sans-serif" font-size="11" font-weight="bold" lengthAdjust="spacingAndGlyphs" textLength="94" x="15" y="1348.7104">[quote invalid]</text>
    <path d="M80,1357.3047 L80,1382.3047 L341,1382.3047 L341,1367.3047 L331,1357.3047 L80,1357.3047 " fill="#FBFB77" filter="url(#f1q09x5vebim7w)" style="stroke:#A80036;stroke-width:1.0"/>
    <path d="M331,1357.3047 L331,1367.3047 L341,1367.3047 L331,1357.3047 " fill="#FBFB77" style="stroke:#A80036;stroke-width:1.0"/>
    <text fill="#000000" font-family="sans-serif" font-size="13" lengthAdjust="spacingAndGlyphs" textLength="211" x="98.75" y="1374.3716">Switch returns error to Payer FSP</text>
    <polygon fill="#A80036" points="129,1408.5703,119,1412.5703,129,1412.5703" style="stroke:#A80036;stroke-width:1.0"/>
    <line style="stroke:#A80036;stroke-width:1.0" x1="118" x2="304" y1="1412.5703" y2="1412.5703"/>
    <text fill="#000000" font-family="sans-serif" font-size="13" font-weight="bold" lengthAdjust="spacingAndGlyphs" textLength="18" x="135" y="1407.5044">21</text>
    <text fill="#000000" font-family="sans-serif" font-size="13" lengthAdjust="spacingAndGlyphs" textLength="141" x="157" y="1407.5044">PUT quotes/{ID}/error</text>
    <polygon fill="#A80036" points="293,1442.7031,303,1442.7031,293,1446.7031" style="stroke:#A80036;stroke-width:1.0"/>
    <line style="stroke:#A80036;stroke-width:1.0;stroke-dasharray:2.0,2.0" x1="118" x2="304" y1="1441.7031" y2="1441.7031"/>
    <text fill="#000000" font-family="sans-serif" font-size="13" font-weight="bold" lengthAdjust="spacingAndGlyphs" textLength="18" x="125" y="1436.6372">22</text>
    <text fill="#000000" font-family="sans-serif" font-size="13" lengthAdjust="spacingAndGlyphs" textLength="46" x="147" y="1436.6372">200 OK</text>
  </g>
</svg>
