<?xml version="1.0" encoding="UTF-8" standalone="no"?>
<svg xmlns="http://www.w3.org/2000/svg" xmlns:xlink="http://www.w3.org/1999/xlink" contentScriptType="application/ecmascript" contentStyleType="text/css" height="1898px" preserveAspectRatio="none" style="width:984px;height:1898px" version="1.1" viewBox="0 0 984 1898" width="984px" zoomAndPan="magnify">
  <defs>
    <filter height="300%" id="f84osvwiujq5p" width="300%" x="-1" y="-1">
      <feGaussianBlur result="blurOut" stdDeviation="2.0"/>
      <feColorMatrix in="blurOut" result="blurOut2" type="matrix" values="0 0 0 0 0 0 0 0 0 0 0 0 0 0 0 0 0 0 .4 0"/>
      <feOffset dx="4.0" dy="4.0" in="blurOut2" result="blurOut3"/>
      <feBlend in="SourceGraphic" in2="blurOut3" mode="normal"/>
    </filter>
  </defs>
  <g>
    <text fill="#000000" font-family="sans-serif" font-size="18" lengthAdjust="spacingAndGlyphs" textLength="258" x="361" y="28.708">Request Bulk Quote Creation</text>
    <rect fill="#FFFFFF" filter="url(#f84osvwiujq5p)" height="236.6016" style="stroke:#000000;stroke-width:2.0" width="518" x="63" y="507.0078"/>
    <rect fill="#FFFFFF" height="56.9375" style="stroke:none;stroke-width:1.0" width="518" x="63" y="686.6719"/>
    <rect fill="#FFFFFF" filter="url(#f84osvwiujq5p)" height="981.5938" style="stroke:#000000;stroke-width:2.0" width="960" x="10" y="839.875"/>
    <rect fill="#FFFFFF" filter="url(#f84osvwiujq5p)" height="668.4609" style="stroke:#000000;stroke-width:2.0" width="745" x="20" y="1018.6719"/>
    <rect fill="#FFFFFF" filter="url(#f84osvwiujq5p)" height="75.3984" style="stroke:#000000;stroke-width:2.0" width="468.5" x="269.5" y="1224.4688"/>
    <rect fill="#FFFFFF" filter="url(#f84osvwiujq5p)" height="59.2656" style="stroke:#000000;stroke-width:2.0" width="335" x="269.5" y="1313.8672"/>
    <rect fill="#FFFFFF" height="209.6016" style="stroke:none;stroke-width:1.0" width="745" x="20" y="1477.5313"/>
    <rect fill="#FFFFFF" height="127.3359" style="stroke:none;stroke-width:1.0" width="960" x="10" y="1694.1328"/>
    <line style="stroke:#A80036;stroke-width:1.0;stroke-dasharray:5.0,5.0" x1="129" x2="129" y1="91.5469" y2="1838.4688"/>
    <line style="stroke:#A80036;stroke-width:1.0;stroke-dasharray:5.0,5.0" x1="347.5" x2="347.5" y1="91.5469" y2="1838.4688"/>
    <line style="stroke:#A80036;stroke-width:1.0;stroke-dasharray:5.0,5.0" x1="683" x2="683" y1="91.5469" y2="1838.4688"/>
    <rect fill="#FEFECE" filter="url(#f84osvwiujq5p)" height="30.2969" style="stroke:#A80036;stroke-width:1.5" width="82" x="86" y="56.25"/>
    <text fill="#000000" font-family="sans-serif" font-size="14" lengthAdjust="spacingAndGlyphs" textLength="68" x="93" y="76.2451">Payer FSP</text>
    <rect fill="#FEFECE" filter="url(#f84osvwiujq5p)" height="30.2969" style="stroke:#A80036;stroke-width:1.5" width="82" x="86" y="1837.4688"/>
    <text fill="#000000" font-family="sans-serif" font-size="14" lengthAdjust="spacingAndGlyphs" textLength="68" x="93" y="1857.4639">Payer FSP</text>
    <rect fill="#FEFECE" filter="url(#f84osvwiujq5p)" height="46.5938" style="stroke:#A80036;stroke-width:1.5" width="133" x="279.5" y="39.9531"/>
    <text fill="#000000" font-family="sans-serif" font-size="14" lengthAdjust="spacingAndGlyphs" textLength="45" x="323.5" y="59.9482">Switch</text>
    <text fill="#000000" font-family="sans-serif" font-size="14" lengthAdjust="spacingAndGlyphs" textLength="119" x="286.5" y="76.2451">[Quoting Service]</text>
    <rect fill="#FEFECE" filter="url(#f84osvwiujq5p)" height="46.5938" style="stroke:#A80036;stroke-width:1.5" width="133" x="279.5" y="1837.4688"/>
    <text fill="#000000" font-family="sans-serif" font-size="14" lengthAdjust="spacingAndGlyphs" textLength="45" x="323.5" y="1857.4639">Switch</text>
    <text fill="#000000" font-family="sans-serif" font-size="14" lengthAdjust="spacingAndGlyphs" textLength="119" x="286.5" y="1873.7607">[Quoting Service]</text>
    <rect fill="#FEFECE" filter="url(#f84osvwiujq5p)" height="30.2969" style="stroke:#A80036;stroke-width:1.5" width="86" x="638" y="56.25"/>
    <text fill="#000000" font-family="sans-serif" font-size="14" lengthAdjust="spacingAndGlyphs" textLength="72" x="645" y="76.2451">Payee FSP</text>
    <rect fill="#FEFECE" filter="url(#f84osvwiujq5p)" height="30.2969" style="stroke:#A80036;stroke-width:1.5" width="86" x="638" y="1837.4688"/>
    <text fill="#000000" font-family="sans-serif" font-size="14" lengthAdjust="spacingAndGlyphs" textLength="72" x="645" y="1857.4639">Payee FSP</text>
    <path d="M75,106.5469 L75,146.5469 L400,146.5469 L400,116.5469 L390,106.5469 L75,106.5469 " fill="#FBFB77" filter="url(#f84osvwiujq5p)" style="stroke:#A80036;stroke-width:1.0"/>
    <path d="M390,106.5469 L390,116.5469 L400,116.5469 L390,106.5469 " fill="#FBFB77" style="stroke:#A80036;stroke-width:1.0"/>
    <text fill="#000000" font-family="sans-serif" font-size="13" lengthAdjust="spacingAndGlyphs" textLength="230" x="116.25" y="123.6138">Payer FSP sends bulk quote request</text>
    <text fill="#000000" font-family="sans-serif" font-size="13" lengthAdjust="spacingAndGlyphs" textLength="176" x="116.25" y="138.7466">to Payee FSP via the Switch</text>
    <polygon fill="#A80036" points="336,172.9453,346,176.9453,336,176.9453" style="stroke:#A80036;stroke-width:1.0"/>
    <line style="stroke:#A80036;stroke-width:1.0" x1="129" x2="347" y1="176.9453" y2="176.9453"/>
    <text fill="#000000" font-family="sans-serif" font-size="13" font-weight="bold" lengthAdjust="spacingAndGlyphs" textLength="9" x="136" y="171.8794">1</text>
    <text fill="#000000" font-family="sans-serif" font-size="13" lengthAdjust="spacingAndGlyphs" textLength="114" x="149" y="171.8794">POST /bulkQuotes</text>
    <path d="M353,189.9453 L353,259.9453 L601,259.9453 L601,199.9453 L591,189.9453 L353,189.9453 " fill="#AAAAAA" filter="url(#f84osvwiujq5p)" style="stroke:#A80036;stroke-width:1.0"/>
    <path d="M591,189.9453 L591,199.9453 L601,199.9453 L591,189.9453 " fill="#AAAAAA" style="stroke:#A80036;stroke-width:1.0"/>
    <text fill="#000000" font-family="sans-serif" font-size="13" lengthAdjust="spacingAndGlyphs" textLength="156" x="359" y="207.0122">Validate request against</text>
    <text fill="#000000" font-family="sans-serif" font-size="13" lengthAdjust="spacingAndGlyphs" textLength="200" x="359" y="222.145">Mojaloop interface specification</text>
    <text fill="#FF0000" font-family="sans-serif" font-size="13" font-weight="bold" lengthAdjust="spacingAndGlyphs" textLength="167" x="359" y="237.2778">Error code: 300x, 310x</text>
    <text fill="#FF0000" font-family="sans-serif" font-size="13" font-weight="bold" lengthAdjust="spacingAndGlyphs" textLength="227" x="359" y="252.4106">HTTP error response code: 4xx</text>
    <line style="stroke:#A80036;stroke-width:1.0" x1="348" x2="390" y1="290.6094" y2="290.6094"/>
    <line style="stroke:#A80036;stroke-width:1.0" x1="390" x2="390" y1="290.6094" y2="303.6094"/>
    <line style="stroke:#A80036;stroke-width:1.0" x1="349" x2="390" y1="303.6094" y2="303.6094"/>
    <polygon fill="#A80036" points="359,299.6094,349,303.6094,359,307.6094,355,303.6094" style="stroke:#A80036;stroke-width:1.0"/>
    <text fill="#000000" font-family="sans-serif" font-size="13" font-weight="bold" lengthAdjust="spacingAndGlyphs" textLength="9" x="355" y="285.5435">2</text>
    <text fill="#000000" font-family="sans-serif" font-size="13" lengthAdjust="spacingAndGlyphs" textLength="118" x="368" y="285.5435">Schema validation</text>
    <polygon fill="#A80036" points="140,333.7422,130,333.7422,140,337.7422" style="stroke:#A80036;stroke-width:1.0"/>
    <line style="stroke:#A80036;stroke-width:1.0;stroke-dasharray:2.0,2.0" x1="129" x2="347" y1="332.7422" y2="332.7422"/>
    <text fill="#000000" font-family="sans-serif" font-size="13" font-weight="bold" lengthAdjust="spacingAndGlyphs" textLength="9" x="146" y="327.6763">3</text>
    <text fill="#000000" font-family="sans-serif" font-size="13" lengthAdjust="spacingAndGlyphs" textLength="88" x="159" y="327.6763">202 Accepted</text>
    <line style="stroke:#A80036;stroke-width:1.0" x1="348" x2="390" y1="386.875" y2="386.875"/>
    <line style="stroke:#A80036;stroke-width:1.0" x1="390" x2="390" y1="386.875" y2="399.875"/>
    <line style="stroke:#A80036;stroke-width:1.0" x1="349" x2="390" y1="399.875" y2="399.875"/>
    <polygon fill="#A80036" points="359,395.875,349,399.875,359,403.875,355,399.875" style="stroke:#A80036;stroke-width:1.0"/>
    <text fill="#000000" font-family="sans-serif" font-size="13" font-weight="bold" lengthAdjust="spacingAndGlyphs" textLength="9" x="355" y="381.8091">4</text>
    <text fill="#000000" font-family="sans-serif" font-size="13" lengthAdjust="spacingAndGlyphs" textLength="308" x="368" y="381.8091">Bulk Quote request validation (rules engine etc.)</text>
    <line style="stroke:#A80036;stroke-width:1.0" x1="348" x2="390" y1="454.0078" y2="454.0078"/>
    <line style="stroke:#A80036;stroke-width:1.0" x1="390" x2="390" y1="454.0078" y2="467.0078"/>
    <line style="stroke:#A80036;stroke-width:1.0" x1="349" x2="390" y1="467.0078" y2="467.0078"/>
    <polygon fill="#A80036" points="359,463.0078,349,467.0078,359,471.0078,355,467.0078" style="stroke:#A80036;stroke-width:1.0"/>
    <text fill="#000000" font-family="sans-serif" font-size="13" font-weight="bold" lengthAdjust="spacingAndGlyphs" textLength="9" x="355" y="448.9419">5</text>
    <text fill="#000000" font-family="sans-serif" font-size="13" lengthAdjust="spacingAndGlyphs" textLength="101" x="368" y="448.9419">Duplicate check</text>
    <path d="M63,507.0078 L127,507.0078 L127,514.0078 L117,524.0078 L63,524.0078 L63,507.0078 " fill="#EEEEEE" style="stroke:#000000;stroke-width:1.0"/>
    <rect fill="none" height="236.6016" style="stroke:#000000;stroke-width:2.0" width="518" x="63" y="507.0078"/>
    <text fill="#000000" font-family="sans-serif" font-size="13" font-weight="bold" lengthAdjust="spacingAndGlyphs" textLength="19" x="78" y="520.0747">alt</text>
    <text fill="#000000" font-family="sans-serif" font-size="11" font-weight="bold" lengthAdjust="spacingAndGlyphs" textLength="263" x="142" y="519.2183">[Request is a duplicate but not a resend]</text>
    <path d="M73,554.1406 L73,594.1406 L339,594.1406 L339,564.1406 L329,554.1406 L73,554.1406 " fill="#FBFB77" filter="url(#f84osvwiujq5p)" style="stroke:#A80036;stroke-width:1.0"/>
    <path d="M329,554.1406 L329,564.1406 L339,564.1406 L329,554.1406 " fill="#FBFB77" style="stroke:#A80036;stroke-width:1.0"/>
    <text fill="#000000" font-family="sans-serif" font-size="13" lengthAdjust="spacingAndGlyphs" textLength="245" x="79" y="571.2075">Switch returns error back to Payer FSP</text>
    <text fill="#FF0000" font-family="sans-serif" font-size="13" font-weight="bold" lengthAdjust="spacingAndGlyphs" textLength="123" x="79" y="586.3403">Error code: 3106</text>
    <polygon fill="#A80036" points="140,620.5391,130,624.5391,140,624.5391" style="stroke:#A80036;stroke-width:1.0"/>
    <line style="stroke:#A80036;stroke-width:1.0" x1="129" x2="347" y1="624.5391" y2="624.5391"/>
    <text fill="#000000" font-family="sans-serif" font-size="13" font-weight="bold" lengthAdjust="spacingAndGlyphs" textLength="9" x="146" y="619.4731">6</text>
    <text fill="#000000" font-family="sans-serif" font-size="13" lengthAdjust="spacingAndGlyphs" textLength="173" x="159" y="619.4731">PUT /bulkQuotes/{ID}/error</text>
    <polygon fill="#A80036" points="336,654.6719,346,654.6719,336,658.6719" style="stroke:#A80036;stroke-width:1.0"/>
    <line style="stroke:#A80036;stroke-width:1.0;stroke-dasharray:2.0,2.0" x1="129" x2="347" y1="653.6719" y2="653.6719"/>
    <text fill="#000000" font-family="sans-serif" font-size="13" font-weight="bold" lengthAdjust="spacingAndGlyphs" textLength="9" x="136" y="648.606">7</text>
    <text fill="#000000" font-family="sans-serif" font-size="13" lengthAdjust="spacingAndGlyphs" textLength="46" x="149" y="648.606">200 OK</text>
    <line style="stroke:#000000;stroke-width:1.0;stroke-dasharray:2.0,2.0" x1="63" x2="581" y1="687.6719" y2="687.6719"/>
    <text fill="#000000" font-family="sans-serif" font-size="11" font-weight="bold" lengthAdjust="spacingAndGlyphs" textLength="241" x="68" y="697.8823">[Request is a duplicate and a resend]</text>
    <line style="stroke:#A80036;stroke-width:1.0" x1="348" x2="390" y1="722.6094" y2="722.6094"/>
    <line style="stroke:#A80036;stroke-width:1.0" x1="390" x2="390" y1="722.6094" y2="735.6094"/>
    <line style="stroke:#A80036;stroke-width:1.0" x1="349" x2="390" y1="735.6094" y2="735.6094"/>
    <polygon fill="#A80036" points="359,731.6094,349,735.6094,359,739.6094,355,735.6094" style="stroke:#A80036;stroke-width:1.0"/>
    <text fill="#000000" font-family="sans-serif" font-size="13" font-weight="bold" lengthAdjust="spacingAndGlyphs" textLength="9" x="355" y="717.5435">8</text>
    <text fill="#000000" font-family="sans-serif" font-size="13" lengthAdjust="spacingAndGlyphs" textLength="201" x="368" y="717.5435">Switch handles resend scenario</text>
    <line style="stroke:#A80036;stroke-width:1.0" x1="348" x2="390" y1="811.875" y2="811.875"/>
    <line style="stroke:#A80036;stroke-width:1.0" x1="390" x2="390" y1="811.875" y2="824.875"/>
    <line style="stroke:#A80036;stroke-width:1.0" x1="349" x2="390" y1="824.875" y2="824.875"/>
    <polygon fill="#A80036" points="359,820.875,349,824.875,359,828.875,355,824.875" style="stroke:#A80036;stroke-width:1.0"/>
    <text fill="#000000" font-family="sans-serif" font-size="13" font-weight="bold" lengthAdjust="spacingAndGlyphs" textLength="9" x="355" y="799.2427">9</text>
    <text fill="#000000" font-family="sans-serif" font-size="13" lengthAdjust="spacingAndGlyphs" textLength="262" x="368" y="791.6763">Use fspiop-destination header to retrieve</text>
    <text fill="#000000" font-family="sans-serif" font-size="13" lengthAdjust="spacingAndGlyphs" textLength="236" x="372" y="806.8091">bulk quotes endpoint for Payee DFSP</text>
    <path d="M10,839.875 L74,839.875 L74,846.875 L64,856.875 L10,856.875 L10,839.875 " fill="#EEEEEE" style="stroke:#000000;stroke-width:1.0"/>
    <rect fill="none" height="981.5938" style="stroke:#000000;stroke-width:2.0" width="960" x="10" y="839.875"/>
    <text fill="#000000" font-family="sans-serif" font-size="13" font-weight="bold" lengthAdjust="spacingAndGlyphs" textLength="19" x="25" y="852.9419">alt</text>
    <text fill="#000000" font-family="sans-serif" font-size="11" font-weight="bold" lengthAdjust="spacingAndGlyphs" textLength="230" x="89" y="852.0854">[Payee bulk quotes endpoint found]</text>
    <path d="M353,862.0078 L353,887.0078 L685,887.0078 L685,872.0078 L675,862.0078 L353,862.0078 " fill="#FBFB77" filter="url(#f84osvwiujq5p)" style="stroke:#A80036;stroke-width:1.0"/>
    <path d="M675,862.0078 L675,872.0078 L685,872.0078 L675,862.0078 " fill="#FBFB77" style="stroke:#A80036;stroke-width:1.0"/>
    <text fill="#000000" font-family="sans-serif" font-size="13" lengthAdjust="spacingAndGlyphs" textLength="311" x="359" y="879.0747">Switch forwards bulk quote request to Payee FSP</text>
    <polygon fill="#A80036" points="671,913.2734,681,917.2734,671,917.2734" style="stroke:#A80036;stroke-width:1.0"/>
    <line style="stroke:#A80036;stroke-width:1.0" x1="348" x2="682" y1="917.2734" y2="917.2734"/>
    <text fill="#000000" font-family="sans-serif" font-size="13" font-weight="bold" lengthAdjust="spacingAndGlyphs" textLength="18" x="355" y="912.2075">10</text>
    <text fill="#000000" font-family="sans-serif" font-size="13" lengthAdjust="spacingAndGlyphs" textLength="114" x="377" y="912.2075">POST /bulkQuotes</text>
    <polygon fill="#A80036" points="359,947.4063,349,947.4063,359,951.4063" style="stroke:#A80036;stroke-width:1.0"/>
    <line style="stroke:#A80036;stroke-width:1.0;stroke-dasharray:2.0,2.0" x1="348" x2="682" y1="946.4063" y2="946.4063"/>
    <text fill="#000000" font-family="sans-serif" font-size="13" font-weight="bold" lengthAdjust="spacingAndGlyphs" textLength="18" x="365" y="941.3403">11</text>
    <text fill="#000000" font-family="sans-serif" font-size="13" lengthAdjust="spacingAndGlyphs" textLength="46" x="387" y="941.3403">202 OK</text>
    <line style="stroke:#A80036;stroke-width:1.0" x1="683" x2="725" y1="990.6719" y2="990.6719"/>
    <line style="stroke:#A80036;stroke-width:1.0" x1="725" x2="725" y1="990.6719" y2="1003.6719"/>
    <line style="stroke:#A80036;stroke-width:1.0" x1="684" x2="725" y1="1003.6719" y2="1003.6719"/>
    <polygon fill="#A80036" points="694,999.6719,684,1003.6719,694,1007.6719,690,1003.6719" style="stroke:#A80036;stroke-width:1.0"/>
    <text fill="#000000" font-family="sans-serif" font-size="13" font-weight="bold" lengthAdjust="spacingAndGlyphs" textLength="18" x="690" y="978.0396">12</text>
    <text fill="#000000" font-family="sans-serif" font-size="13" lengthAdjust="spacingAndGlyphs" textLength="246" x="712" y="970.4731">Payee FSP calculates individual quotes</text>
    <text fill="#000000" font-family="sans-serif" font-size="13" lengthAdjust="spacingAndGlyphs" textLength="239" x="712" y="985.606">and responds with a bulk quote result</text>
    <path d="M20,1018.6719 L84,1018.6719 L84,1025.6719 L74,1035.6719 L20,1035.6719 L20,1018.6719 " fill="#EEEEEE" style="stroke:#000000;stroke-width:1.0"/>
    <rect fill="none" height="668.4609" style="stroke:#000000;stroke-width:2.0" width="745" x="20" y="1018.6719"/>
    <text fill="#000000" font-family="sans-serif" font-size="13" font-weight="bold" lengthAdjust="spacingAndGlyphs" textLength="19" x="35" y="1031.7388">alt</text>
    <text fill="#000000" font-family="sans-serif" font-size="11" font-weight="bold" lengthAdjust="spacingAndGlyphs" textLength="272" x="99" y="1030.8823">[Payee bulkQuotes processing successful]</text>
    <path d="M276,1040.8047 L276,1065.8047 L751,1065.8047 L751,1050.8047 L741,1040.8047 L276,1040.8047 " fill="#FBFB77" filter="url(#f84osvwiujq5p)" style="stroke:#A80036;stroke-width:1.0"/>
    <path d="M741,1040.8047 L741,1050.8047 L751,1050.8047 L741,1040.8047 " fill="#FBFB77" style="stroke:#A80036;stroke-width:1.0"/>
    <text fill="#000000" font-family="sans-serif" font-size="13" lengthAdjust="spacingAndGlyphs" textLength="454" x="282" y="1057.8716">Payee FSP sends bulk quote response back to Payer FSP via the Switch</text>
    <polygon fill="#A80036" points="359,1092.0703,349,1096.0703,359,1096.0703" style="stroke:#A80036;stroke-width:1.0"/>
    <line style="stroke:#A80036;stroke-width:1.0" x1="348" x2="682" y1="1096.0703" y2="1096.0703"/>
    <text fill="#000000" font-family="sans-serif" font-size="13" font-weight="bold" lengthAdjust="spacingAndGlyphs" textLength="18" x="365" y="1091.0044">13</text>
    <text fill="#000000" font-family="sans-serif" font-size="13" lengthAdjust="spacingAndGlyphs" textLength="138" x="387" y="1091.0044">PUT /bulkQuotes/{ID}</text>
    <polygon fill="#A80036" points="671,1126.2031,681,1126.2031,671,1130.2031" style="stroke:#A80036;stroke-width:1.0"/>
    <line style="stroke:#A80036;stroke-width:1.0;stroke-dasharray:2.0,2.0" x1="348" x2="682" y1="1125.2031" y2="1125.2031"/>
    <text fill="#000000" font-family="sans-serif" font-size="13" font-weight="bold" lengthAdjust="spacingAndGlyphs" textLength="18" x="355" y="1120.1372">14</text>
    <text fill="#000000" font-family="sans-serif" font-size="13" lengthAdjust="spacingAndGlyphs" textLength="46" x="377" y="1120.1372">200 OK</text>
    <line style="stroke:#A80036;stroke-width:1.0" x1="348" x2="390" y1="1154.3359" y2="1154.3359"/>
    <line style="stroke:#A80036;stroke-width:1.0" x1="390" x2="390" y1="1154.3359" y2="1167.3359"/>
    <line style="stroke:#A80036;stroke-width:1.0" x1="349" x2="390" y1="1167.3359" y2="1167.3359"/>
    <polygon fill="#A80036" points="359,1163.3359,349,1167.3359,359,1171.3359,355,1167.3359" style="stroke:#A80036;stroke-width:1.0"/>
    <text fill="#000000" font-family="sans-serif" font-size="13" font-weight="bold" lengthAdjust="spacingAndGlyphs" textLength="18" x="355" y="1149.27">15</text>
    <text fill="#000000" font-family="sans-serif" font-size="13" lengthAdjust="spacingAndGlyphs" textLength="186" x="377" y="1149.27">Validate bulk quote response</text>
    <line style="stroke:#A80036;stroke-width:1.0" x1="348" x2="390" y1="1196.4688" y2="1196.4688"/>
    <line style="stroke:#A80036;stroke-width:1.0" x1="390" x2="390" y1="1196.4688" y2="1209.4688"/>
    <line style="stroke:#A80036;stroke-width:1.0" x1="349" x2="390" y1="1209.4688" y2="1209.4688"/>
    <polygon fill="#A80036" points="359,1205.4688,349,1209.4688,359,1213.4688,355,1209.4688" style="stroke:#A80036;stroke-width:1.0"/>
    <text fill="#000000" font-family="sans-serif" font-size="13" font-weight="bold" lengthAdjust="spacingAndGlyphs" textLength="18" x="355" y="1191.4028">16</text>
    <text fill="#000000" font-family="sans-serif" font-size="13" lengthAdjust="spacingAndGlyphs" textLength="101" x="377" y="1191.4028">Duplicate check</text>
    <path d="M269.5,1224.4688 L333.5,1224.4688 L333.5,1231.4688 L323.5,1241.4688 L269.5,1241.4688 L269.5,1224.4688 " fill="#EEEEEE" style="stroke:#000000;stroke-width:1.0"/>
    <rect fill="none" height="75.3984" style="stroke:#000000;stroke-width:2.0" width="468.5" x="269.5" y="1224.4688"/>
    <text fill="#000000" font-family="sans-serif" font-size="13" font-weight="bold" lengthAdjust="spacingAndGlyphs" textLength="19" x="284.5" y="1237.5356">alt</text>
    <text fill="#000000" font-family="sans-serif" font-size="11" font-weight="bold" lengthAdjust="spacingAndGlyphs" textLength="261" x="348.5" y="1236.6792">[Response is duplicate but not a resend]</text>
    <polygon fill="#A80036" points="671,1258.7344,681,1262.7344,671,1262.7344" style="stroke:#A80036;stroke-width:1.0"/>
    <line style="stroke:#A80036;stroke-width:1.0" x1="348" x2="682" y1="1262.7344" y2="1262.7344"/>
    <text fill="#000000" font-family="sans-serif" font-size="13" font-weight="bold" lengthAdjust="spacingAndGlyphs" textLength="18" x="355" y="1257.6685">17</text>
    <text fill="#000000" font-family="sans-serif" font-size="13" lengthAdjust="spacingAndGlyphs" textLength="173" x="377" y="1257.6685">PUT /bulkQuotes/{ID}/error</text>
    <polygon fill="#A80036" points="359,1292.8672,349,1292.8672,359,1296.8672" style="stroke:#A80036;stroke-width:1.0"/>
    <line style="stroke:#A80036;stroke-width:1.0;stroke-dasharray:2.0,2.0" x1="348" x2="682" y1="1291.8672" y2="1291.8672"/>
    <text fill="#000000" font-family="sans-serif" font-size="13" font-weight="bold" lengthAdjust="spacingAndGlyphs" textLength="18" x="365" y="1286.8013">18</text>
    <text fill="#000000" font-family="sans-serif" font-size="13" lengthAdjust="spacingAndGlyphs" textLength="46" x="387" y="1286.8013">200 OK</text>
    <path d="M269.5,1313.8672 L333.5,1313.8672 L333.5,1320.8672 L323.5,1330.8672 L269.5,1330.8672 L269.5,1313.8672 " fill="#EEEEEE" style="stroke:#000000;stroke-width:1.0"/>
    <rect fill="none" height="59.2656" style="stroke:#000000;stroke-width:2.0" width="335" x="269.5" y="1313.8672"/>
    <text fill="#000000" font-family="sans-serif" font-size="13" font-weight="bold" lengthAdjust="spacingAndGlyphs" textLength="19" x="284.5" y="1326.9341">alt</text>
    <text fill="#000000" font-family="sans-serif" font-size="11" font-weight="bold" lengthAdjust="spacingAndGlyphs" textLength="251" x="348.5" y="1326.0776">[Response is a duplicate and a resend]</text>
    <line style="stroke:#A80036;stroke-width:1.0" x1="348" x2="390" y1="1352.1328" y2="1352.1328"/>
    <line style="stroke:#A80036;stroke-width:1.0" x1="390" x2="390" y1="1352.1328" y2="1365.1328"/>
    <line style="stroke:#A80036;stroke-width:1.0" x1="349" x2="390" y1="1365.1328" y2="1365.1328"/>
    <polygon fill="#A80036" points="359,1361.1328,349,1365.1328,359,1369.1328,355,1365.1328" style="stroke:#A80036;stroke-width:1.0"/>
    <text fill="#000000" font-family="sans-serif" font-size="13" font-weight="bold" lengthAdjust="spacingAndGlyphs" textLength="18" x="355" y="1347.0669">19</text>
    <text fill="#000000" font-family="sans-serif" font-size="13" lengthAdjust="spacingAndGlyphs" textLength="201" x="377" y="1347.0669">Switch handles resend scenario</text>
    <path d="M30,1385.1328 L30,1410.1328 L339,1410.1328 L339,1395.1328 L329,1385.1328 L30,1385.1328 " fill="#FBFB77" filter="url(#f84osvwiujq5p)" style="stroke:#A80036;stroke-width:1.0"/>
    <path d="M329,1385.1328 L329,1395.1328 L339,1395.1328 L329,1385.1328 " fill="#FBFB77" style="stroke:#A80036;stroke-width:1.0"/>
    <text fill="#000000" font-family="sans-serif" font-size="13" lengthAdjust="spacingAndGlyphs" textLength="288" x="36" y="1402.1997">Switch forwards quote response to Payer FSP</text>
    <polygon fill="#A80036" points="140,1436.3984,130,1440.3984,140,1440.3984" style="stroke:#A80036;stroke-width:1.0"/>
    <line style="stroke:#A80036;stroke-width:1.0" x1="129" x2="347" y1="1440.3984" y2="1440.3984"/>
    <text fill="#000000" font-family="sans-serif" font-size="13" font-weight="bold" lengthAdjust="spacingAndGlyphs" textLength="18" x="146" y="1435.3325">20</text>
    <text fill="#000000" font-family="sans-serif" font-size="13" lengthAdjust="spacingAndGlyphs" textLength="138" x="168" y="1435.3325">PUT /bulkQuotes/{ID}</text>
    <polygon fill="#A80036" points="336,1470.5313,346,1470.5313,336,1474.5313" style="stroke:#A80036;stroke-width:1.0"/>
    <line style="stroke:#A80036;stroke-width:1.0;stroke-dasharray:2.0,2.0" x1="129" x2="347" y1="1469.5313" y2="1469.5313"/>
    <text fill="#000000" font-family="sans-serif" font-size="13" font-weight="bold" lengthAdjust="spacingAndGlyphs" textLength="18" x="136" y="1464.4653">21</text>
    <text fill="#000000" font-family="sans-serif" font-size="13" lengthAdjust="spacingAndGlyphs" textLength="46" x="158" y="1464.4653">200 OK</text>
    <line style="stroke:#000000;stroke-width:1.0;stroke-dasharray:2.0,2.0" x1="20" x2="765" y1="1478.5313" y2="1478.5313"/>
    <text fill="#000000" font-family="sans-serif" font-size="11" font-weight="bold" lengthAdjust="spacingAndGlyphs" textLength="317" x="25" y="1488.7417">[Payee rejects bulk quote or encounters an error]</text>
    <path d="M277,1497.3359 L277,1522.3359 L674,1522.3359 L674,1507.3359 L664,1497.3359 L277,1497.3359 " fill="#FBFB77" filter="url(#f84osvwiujq5p)" style="stroke:#A80036;stroke-width:1.0"/>
    <path d="M664,1497.3359 L664,1507.3359 L674,1507.3359 L664,1497.3359 " fill="#FBFB77" style="stroke:#A80036;stroke-width:1.0"/>
    <text fill="#000000" font-family="sans-serif" font-size="13" lengthAdjust="spacingAndGlyphs" textLength="376" x="283" y="1514.4028">Payee FSP sends error callback to Payer FSP via the Switch</text>
    <polygon fill="#A80036" points="359,1548.6016,349,1552.6016,359,1552.6016" style="stroke:#A80036;stroke-width:1.0"/>
    <line style="stroke:#A80036;stroke-width:1.0" x1="348" x2="682" y1="1552.6016" y2="1552.6016"/>
    <text fill="#000000" font-family="sans-serif" font-size="13" font-weight="bold" lengthAdjust="spacingAndGlyphs" textLength="18" x="365" y="1547.5356">22</text>
    <text fill="#000000" font-family="sans-serif" font-size="13" lengthAdjust="spacingAndGlyphs" textLength="173" x="387" y="1547.5356">PUT /bulkQuotes/{ID}/error</text>
    <polygon fill="#A80036" points="671,1582.7344,681,1582.7344,671,1586.7344" style="stroke:#A80036;stroke-width:1.0"/>
    <line style="stroke:#A80036;stroke-width:1.0;stroke-dasharray:2.0,2.0" x1="348" x2="682" y1="1581.7344" y2="1581.7344"/>
    <text fill="#000000" font-family="sans-serif" font-size="13" font-weight="bold" lengthAdjust="spacingAndGlyphs" textLength="18" x="355" y="1576.6685">23</text>
    <text fill="#000000" font-family="sans-serif" font-size="13" lengthAdjust="spacingAndGlyphs" textLength="46" x="377" y="1576.6685">200 OK</text>
    <path d="M44,1594.7344 L44,1619.7344 L339,1619.7344 L339,1604.7344 L329,1594.7344 L44,1594.7344 " fill="#FBFB77" filter="url(#f84osvwiujq5p)" style="stroke:#A80036;stroke-width:1.0"/>
    <path d="M329,1594.7344 L329,1604.7344 L339,1604.7344 L329,1594.7344 " fill="#FBFB77" style="stroke:#A80036;stroke-width:1.0"/>
    <text fill="#000000" font-family="sans-serif" font-size="13" lengthAdjust="spacingAndGlyphs" textLength="274" x="50" y="1611.8013">Switch forwards error callback to Payer FSP</text>
    <polygon fill="#A80036" points="140,1646,130,1650,140,1650" style="stroke:#A80036;stroke-width:1.0"/>
    <line style="stroke:#A80036;stroke-width:1.0" x1="129" x2="347" y1="1650" y2="1650"/>
    <text fill="#000000" font-family="sans-serif" font-size="13" font-weight="bold" lengthAdjust="spacingAndGlyphs" textLength="18" x="146" y="1644.9341">24</text>
    <text fill="#000000" font-family="sans-serif" font-size="13" lengthAdjust="spacingAndGlyphs" textLength="173" x="168" y="1644.9341">PUT /bulkQuotes/{ID}/error</text>
    <polygon fill="#A80036" points="336,1680.1328,346,1680.1328,336,1684.1328" style="stroke:#A80036;stroke-width:1.0"/>
    <line style="stroke:#A80036;stroke-width:1.0;stroke-dasharray:2.0,2.0" x1="129" x2="347" y1="1679.1328" y2="1679.1328"/>
    <text fill="#000000" font-family="sans-serif" font-size="13" font-weight="bold" lengthAdjust="spacingAndGlyphs" textLength="18" x="136" y="1674.0669">25</text>
    <text fill="#000000" font-family="sans-serif" font-size="13" lengthAdjust="spacingAndGlyphs" textLength="46" x="158" y="1674.0669">200 OK</text>
    <line style="stroke:#000000;stroke-width:1.0;stroke-dasharray:2.0,2.0" x1="10" x2="970" y1="1695.1328" y2="1695.1328"/>
    <text fill="#000000" font-family="sans-serif" font-size="11" font-weight="bold" lengthAdjust="spacingAndGlyphs" textLength="252" x="15" y="1705.3433">[Payee FSP quotes endpoint not found]</text>
    <path d="M36,1713.9375 L36,1753.9375 L339,1753.9375 L339,1723.9375 L329,1713.9375 L36,1713.9375 " fill="#FBFB77" filter="url(#f84osvwiujq5p)" style="stroke:#A80036;stroke-width:1.0"/>
    <path d="M329,1713.9375 L329,1723.9375 L339,1723.9375 L329,1713.9375 " fill="#FBFB77" style="stroke:#A80036;stroke-width:1.0"/>
    <text fill="#000000" font-family="sans-serif" font-size="13" lengthAdjust="spacingAndGlyphs" textLength="278" x="42" y="1731.0044">Switch sends an error callback to Payer FSP</text>
    <text fill="#000000" font-family="sans-serif" font-size="13" lengthAdjust="spacingAndGlyphs" textLength="0" x="46" y="1746.1372"/>
    <text fill="#FF0000" font-family="sans-serif" font-size="13" font-weight="bold" lengthAdjust="spacingAndGlyphs" textLength="123" x="46" y="1746.1372">Error code: 3201</text>
    <polygon fill="#A80036" points="140,1780.3359,130,1784.3359,140,1784.3359" style="stroke:#A80036;stroke-width:1.0"/>
    <line style="stroke:#A80036;stroke-width:1.0" x1="129" x2="347" y1="1784.3359" y2="1784.3359"/>
    <text fill="#000000" font-family="sans-serif" font-size="13" font-weight="bold" lengthAdjust="spacingAndGlyphs" textLength="18" x="146" y="1779.27">26</text>
    <text fill="#000000" font-family="sans-serif" font-size="13" lengthAdjust="spacingAndGlyphs" textLength="173" x="168" y="1779.27">PUT /bulkQuotes/{ID}/error</text>
    <polygon fill="#A80036" points="336,1809.4688,346,1813.4688,336,1813.4688" style="stroke:#A80036;stroke-width:1.0"/>
    <line style="stroke:#A80036;stroke-width:1.0;stroke-dasharray:2.0,2.0" x1="129" x2="347" y1="1813.4688" y2="1813.4688"/>
    <text fill="#000000" font-family="sans-serif" font-size="13" font-weight="bold" lengthAdjust="spacingAndGlyphs" textLength="18" x="136" y="1808.4028">27</text>
    <text fill="#000000" font-family="sans-serif" font-size="13" lengthAdjust="spacingAndGlyphs" textLength="46" x="158" y="1808.4028">200 OK</text>
  </g>
</svg>
