<?xml version="1.0" encoding="UTF-8" standalone="no"?>
<svg xmlns="http://www.w3.org/2000/svg" xmlns:xlink="http://www.w3.org/1999/xlink" contentScriptType="application/ecmascript" contentStyleType="text/css" height="2371px" preserveAspectRatio="none" style="width:2736px;height:2371px" version="1.1" viewBox="0 0 2736 2371" width="2736px" zoomAndPan="magnify">
  <defs>
    <filter height="300%" id="f1lvtwcmp9td0g" width="300%" x="-1" y="-1">
      <feGaussianBlur result="blurOut" stdDeviation="2.0"/>
      <feColorMatrix in="blurOut" result="blurOut2" type="matrix" values="0 0 0 0 0 0 0 0 0 0 0 0 0 0 0 0 0 0 .4 0"/>
      <feOffset dx="4.0" dy="4.0" in="blurOut2" result="blurOut3"/>
      <feBlend in="SourceGraphic" in2="blurOut3" mode="normal"/>
    </filter>
  </defs>
  <g>
    <rect fill="#D3D3D3" height="2359.6094" style="stroke:#383838;stroke-width:1.0" width="785" x="375" y="6"/>
    <text fill="#000000" font-family="sans-serif" font-size="22" font-weight="bold" lengthAdjust="spacingAndGlyphs" textLength="144" x="695.5" y="26.4209">Payer DFSP</text>
    <rect fill="#D3D3D3" height="2359.6094" style="stroke:#383838;stroke-width:1.0" width="545" x="1846" y="6"/>
    <text fill="#000000" font-family="sans-serif" font-size="22" font-weight="bold" lengthAdjust="spacingAndGlyphs" textLength="148" x="2044.5" y="26.4209">Payee DFSP</text>
    <rect fill="#FFFFFF" filter="url(#f1lvtwcmp9td0g)" height="246.6563" style="stroke:#383838;stroke-width:1.0" width="10" x="1030" y="390.7031"/>
    <rect fill="#FFFFFF" filter="url(#f1lvtwcmp9td0g)" height="401.3125" style="stroke:#383838;stroke-width:1.0" width="10" x="1030" y="965.8438"/>
    <rect fill="#FFFFFF" filter="url(#f1lvtwcmp9td0g)" height="533.5313" style="stroke:#383838;stroke-width:1.0" width="10" x="1030" y="1643.0313"/>
    <rect fill="#FFFFFF" filter="url(#f1lvtwcmp9td0g)" height="419.3125" style="stroke:#000000;stroke-width:2.0" width="2123" x="596" y="226.0469"/>
    <rect fill="#FFFFFF" filter="url(#f1lvtwcmp9td0g)" height="573.9688" style="stroke:#000000;stroke-width:2.0" width="2028" x="543" y="801.1875"/>
    <rect fill="#FFFFFF" filter="url(#f1lvtwcmp9td0g)" height="268.4844" style="stroke:#000000;stroke-width:2.0" width="731" x="1830" y="1020.4531"/>
    <rect fill="#FFFFFF" height="155.0469" style="stroke:none;stroke-width:1.0" width="731" x="1830" y="1133.8906"/>
    <rect fill="#FFFFFF" filter="url(#f1lvtwcmp9td0g)" height="113.4375" style="stroke:#000000;stroke-width:2.0" width="668" x="1840" y="1168.5"/>
    <rect fill="#FFFFFF" filter="url(#f1lvtwcmp9td0g)" height="706.1875" style="stroke:#000000;stroke-width:2.0" width="2036" x="606" y="1478.375"/>
    <rect fill="#FFFFFF" filter="url(#f1lvtwcmp9td0g)" height="217.2656" style="stroke:#000000;stroke-width:2.0" width="802" x="1830" y="1828.4688"/>
    <rect fill="#FFFFFF" height="129.4375" style="stroke:none;stroke-width:1.0" width="802" x="1830" y="1916.2969"/>
    <rect fill="#FFFFFF" filter="url(#f1lvtwcmp9td0g)" height="87.8281" style="stroke:#000000;stroke-width:2.0" width="782" x="1840" y="1950.9063"/>
    <line style="stroke:#383838;stroke-width:1.0;stroke-dasharray:5.0,5.0" x1="480" x2="480" y1="80.2188" y2="2292.3906"/>
    <line style="stroke:#383838;stroke-width:1.0;stroke-dasharray:5.0,5.0" x1="1035" x2="1035" y1="80.2188" y2="2292.3906"/>
    <line style="stroke:#383838;stroke-width:1.0;stroke-dasharray:5.0,5.0" x1="1480.5" x2="1480.5" y1="80.2188" y2="2292.3906"/>
    <line style="stroke:#383838;stroke-width:1.0;stroke-dasharray:5.0,5.0" x1="1971" x2="1971" y1="80.2188" y2="2292.3906"/>
    <line style="stroke:#383838;stroke-width:1.0;stroke-dasharray:5.0,5.0" x1="2286" x2="2286" y1="80.2188" y2="2292.3906"/>
    <rect fill="#F8F8F8" filter="url(#f1lvtwcmp9td0g)" height="39.6094" style="stroke:#383838;stroke-width:1.5" width="198" x="379" y="35.6094"/>
    <text fill="#000000" font-family="sans-serif" font-size="22" lengthAdjust="spacingAndGlyphs" textLength="184" x="386" y="63.0303">Backend System</text>
    <rect fill="#F8F8F8" filter="url(#f1lvtwcmp9td0g)" height="39.6094" style="stroke:#383838;stroke-width:1.5" width="198" x="379" y="2291.3906"/>
    <text fill="#000000" font-family="sans-serif" font-size="22" lengthAdjust="spacingAndGlyphs" textLength="184" x="386" y="2318.8115">Backend System</text>
    <rect fill="#F8F8F8" filter="url(#f1lvtwcmp9td0g)" height="39.6094" style="stroke:#383838;stroke-width:1.5" width="238" x="914" y="35.6094"/>
    <text fill="#000000" font-family="sans-serif" font-size="22" lengthAdjust="spacingAndGlyphs" textLength="224" x="921" y="63.0303">sdk-scheme-adapter</text>
    <rect fill="#F8F8F8" filter="url(#f1lvtwcmp9td0g)" height="39.6094" style="stroke:#383838;stroke-width:1.5" width="238" x="914" y="2291.3906"/>
    <text fill="#000000" font-family="sans-serif" font-size="22" lengthAdjust="spacingAndGlyphs" textLength="224" x="921" y="2318.8115">sdk-scheme-adapter</text>
    <rect fill="#F8F8F8" filter="url(#f1lvtwcmp9td0g)" height="65.2188" style="stroke:#383838;stroke-width:1.5" width="111" x="1423.5" y="10"/>
    <text fill="#000000" font-family="sans-serif" font-size="22" lengthAdjust="spacingAndGlyphs" textLength="97" x="1430.5" y="37.4209">Mojaloop</text>
    <text fill="#000000" font-family="sans-serif" font-size="22" lengthAdjust="spacingAndGlyphs" textLength="73" x="1442.5" y="63.0303">Switch</text>
    <rect fill="#F8F8F8" filter="url(#f1lvtwcmp9td0g)" height="65.2188" style="stroke:#383838;stroke-width:1.5" width="111" x="1423.5" y="2291.3906"/>
    <text fill="#000000" font-family="sans-serif" font-size="22" lengthAdjust="spacingAndGlyphs" textLength="97" x="1430.5" y="2318.8115">Mojaloop</text>
    <text fill="#000000" font-family="sans-serif" font-size="22" lengthAdjust="spacingAndGlyphs" textLength="73" x="1442.5" y="2344.4209">Switch</text>
    <rect fill="#F8F8F8" filter="url(#f1lvtwcmp9td0g)" height="39.6094" style="stroke:#383838;stroke-width:1.5" width="238" x="1850" y="35.6094"/>
    <text fill="#000000" font-family="sans-serif" font-size="22" lengthAdjust="spacingAndGlyphs" textLength="224" x="1857" y="63.0303">sdk-scheme-adapter</text>
    <rect fill="#F8F8F8" filter="url(#f1lvtwcmp9td0g)" height="39.6094" style="stroke:#383838;stroke-width:1.5" width="238" x="1850" y="2291.3906"/>
    <text fill="#000000" font-family="sans-serif" font-size="22" lengthAdjust="spacingAndGlyphs" textLength="224" x="1857" y="2318.8115">sdk-scheme-adapter</text>
    <rect fill="#F8F8F8" filter="url(#f1lvtwcmp9td0g)" height="39.6094" style="stroke:#383838;stroke-width:1.5" width="198" x="2185" y="35.6094"/>
    <text fill="#000000" font-family="sans-serif" font-size="22" lengthAdjust="spacingAndGlyphs" textLength="184" x="2192" y="63.0303">Backend System</text>
    <rect fill="#F8F8F8" filter="url(#f1lvtwcmp9td0g)" height="39.6094" style="stroke:#383838;stroke-width:1.5" width="198" x="2185" y="2291.3906"/>
    <text fill="#000000" font-family="sans-serif" font-size="22" lengthAdjust="spacingAndGlyphs" textLength="184" x="2192" y="2318.8115">Backend System</text>
    <rect fill="#FFFFFF" filter="url(#f1lvtwcmp9td0g)" height="246.6563" style="stroke:#383838;stroke-width:1.0" width="10" x="1030" y="390.7031"/>
    <rect fill="#FFFFFF" filter="url(#f1lvtwcmp9td0g)" height="401.3125" style="stroke:#383838;stroke-width:1.0" width="10" x="1030" y="965.8438"/>
    <rect fill="#FFFFFF" filter="url(#f1lvtwcmp9td0g)" height="533.5313" style="stroke:#383838;stroke-width:1.0" width="10" x="1030" y="1643.0313"/>
    <rect fill="#EEEEEE" filter="url(#f1lvtwcmp9td0g)" height="3" style="stroke:#EEEEEE;stroke-width:1.0" width="2729" x="0" y="116.0234"/>
    <line style="stroke:#000000;stroke-width:1.0" x1="0" x2="2729" y1="116.0234" y2="116.0234"/>
    <line style="stroke:#000000;stroke-width:1.0" x1="0" x2="2729" y1="119.0234" y2="119.0234"/>
    <rect fill="#EEEEEE" filter="url(#f1lvtwcmp9td0g)" height="33.6094" style="stroke:#000000;stroke-width:2.0" width="621" x="1054" y="100.2188"/>
    <text fill="#000000" font-family="sans-serif" font-size="22" font-weight="bold" lengthAdjust="spacingAndGlyphs" textLength="599" x="1060" y="124.6396">MVP Bulk Transfers using SDK-Scheme-Adapter</text>
    <line style="stroke:#383838;stroke-width:1.0" x1="1033" x2="1023" y1="193.2422" y2="189.2422"/>
    <line style="stroke:#383838;stroke-width:1.0" x1="1033" x2="1023" y1="193.2422" y2="197.2422"/>
    <line style="stroke:#383838;stroke-width:1.0" x1="480" x2="1034" y1="193.2422" y2="193.2422"/>
    <text fill="#000000" font-family="sans-serif" font-size="22" font-weight="bold" lengthAdjust="spacingAndGlyphs" textLength="35" x="487" y="186.0537">[1]</text>
    <text fill="#000000" font-family="sans-serif" font-size="22" font-weight="bold" lengthAdjust="spacingAndGlyphs" textLength="66" x="526" y="186.0537">POST</text>
    <text fill="#000000" font-family="sans-serif" font-size="22" lengthAdjust="spacingAndGlyphs" textLength="192" x="599" y="186.0537">/bulkTransactions</text>
    <path d="M5,148.8281 L5,209.8281 L471,209.8281 L471,158.8281 L461,148.8281 L5,148.8281 " fill="#ECECEC" filter="url(#f1lvtwcmp9td0g)" style="stroke:#383838;stroke-width:1.0"/>
    <path d="M461,148.8281 L461,158.8281 L471,158.8281 L461,148.8281 " fill="#ECECEC" style="stroke:#383838;stroke-width:1.0"/>
    <text fill="#000000" font-family="sans-serif" font-size="22" lengthAdjust="spacingAndGlyphs" textLength="327" x="11" y="174.249">Bulk Disbursement is triggerd</text>
    <text fill="#000000" font-family="sans-serif" font-size="22" lengthAdjust="spacingAndGlyphs" textLength="445" x="11" y="199.8584">by beneficiary management sub-system</text>
    <path d="M596,226.0469 L695,226.0469 L695,243.0469 L685,253.0469 L596,253.0469 L596,226.0469 " fill="#EEEEEE" style="stroke:#000000;stroke-width:1.0"/>
    <rect fill="none" height="419.3125" style="stroke:#000000;stroke-width:2.0" width="2123" x="596" y="226.0469"/>
    <text fill="#000000" font-family="sans-serif" font-size="22" font-weight="bold" lengthAdjust="spacingAndGlyphs" textLength="54" x="611" y="247.4678">loop</text>
    <text fill="#000000" font-family="sans-serif" font-size="22" font-weight="bold" lengthAdjust="spacingAndGlyphs" textLength="862" x="710" y="248.4678">[Discovery Processing: For each individualTransfer in bulk message]</text>
    <polygon fill="#ECECEC" filter="url(#f1lvtwcmp9td0g)" points="616,269.2656,1020,269.2656,1030,311.2656,1020,353.2656,616,353.2656,606,311.2656,616,269.2656" style="stroke:#383838;stroke-width:1.0"/>
    <text fill="#000000" font-family="sans-serif" font-size="22" lengthAdjust="spacingAndGlyphs" textLength="356" x="618" y="293.6865">Resolving all potential recipients</text>
    <text fill="#000000" font-family="sans-serif" font-size="22" lengthAdjust="spacingAndGlyphs" textLength="393" x="618" y="319.2959">which might be at any of the DFSPs</text>
    <text fill="#000000" font-family="sans-serif" font-size="22" lengthAdjust="spacingAndGlyphs" textLength="162" x="618" y="344.9053">on the service.</text>
    <line style="stroke:#383838;stroke-width:1.0" x1="1479" x2="1469" y1="390.7031" y2="386.7031"/>
    <line style="stroke:#383838;stroke-width:1.0" x1="1479" x2="1469" y1="390.7031" y2="394.7031"/>
    <line style="stroke:#383838;stroke-width:1.0" x1="1040" x2="1480" y1="390.7031" y2="390.7031"/>
    <text fill="#000000" font-family="sans-serif" font-size="22" font-weight="bold" lengthAdjust="spacingAndGlyphs" textLength="35" x="1047" y="383.5146">[2]</text>
    <text fill="#000000" font-family="sans-serif" font-size="22" font-weight="bold" lengthAdjust="spacingAndGlyphs" textLength="48" x="1086" y="383.5146">GET</text>
    <text fill="#000000" font-family="sans-serif" font-size="22" lengthAdjust="spacingAndGlyphs" textLength="100" x="1141" y="383.5146">/parties/*</text>
    <line style="stroke:#383838;stroke-width:1.0" x1="1481" x2="1523" y1="455.9219" y2="455.9219"/>
    <line style="stroke:#383838;stroke-width:1.0" x1="1523" x2="1523" y1="455.9219" y2="468.9219"/>
    <line style="stroke:#383838;stroke-width:1.0" x1="1482" x2="1523" y1="468.9219" y2="468.9219"/>
    <polygon fill="#383838" points="1492,464.9219,1482,468.9219,1492,472.9219,1488,468.9219" style="stroke:#383838;stroke-width:1.0"/>
    <text fill="#000000" font-family="sans-serif" font-size="22" font-weight="bold" lengthAdjust="spacingAndGlyphs" textLength="35" x="1488" y="435.9287">[3]</text>
    <text fill="#000000" font-family="sans-serif" font-size="22" lengthAdjust="spacingAndGlyphs" textLength="166" x="1527" y="423.124">query oracle to</text>
    <text fill="#000000" font-family="sans-serif" font-size="22" lengthAdjust="spacingAndGlyphs" textLength="250" x="1527" y="448.7334">determine Payee DFSP</text>
    <line style="stroke:#383838;stroke-width:1.0" x1="1969" x2="1959" y1="508.5313" y2="504.5313"/>
    <line style="stroke:#383838;stroke-width:1.0" x1="1969" x2="1959" y1="508.5313" y2="512.5313"/>
    <line style="stroke:#383838;stroke-width:1.0" x1="1481" x2="1970" y1="508.5313" y2="508.5313"/>
    <text fill="#000000" font-family="sans-serif" font-size="22" font-weight="bold" lengthAdjust="spacingAndGlyphs" textLength="35" x="1488" y="501.3428">[4]</text>
    <text fill="#000000" font-family="sans-serif" font-size="22" font-weight="bold" lengthAdjust="spacingAndGlyphs" textLength="48" x="1527" y="501.3428">GET</text>
    <text fill="#000000" font-family="sans-serif" font-size="22" lengthAdjust="spacingAndGlyphs" textLength="100" x="1582" y="501.3428">/parties/*</text>
    <polygon fill="#383838" points="2274,549.1406,2284,553.1406,2274,557.1406,2278,553.1406" style="stroke:#383838;stroke-width:1.0"/>
    <line style="stroke:#383838;stroke-width:1.0" x1="1971" x2="2280" y1="553.1406" y2="553.1406"/>
    <text fill="#000000" font-family="sans-serif" font-size="22" font-weight="bold" lengthAdjust="spacingAndGlyphs" textLength="35" x="1978" y="545.9521">[5]</text>
    <text fill="#000000" font-family="sans-serif" font-size="22" font-weight="bold" lengthAdjust="spacingAndGlyphs" textLength="48" x="2017" y="545.9521">GET</text>
    <text fill="#000000" font-family="sans-serif" font-size="22" lengthAdjust="spacingAndGlyphs" textLength="100" x="2072" y="545.9521">/parties/*</text>
    <path d="M2291,521.5313 L2291,556.5313 L2700,556.5313 L2700,531.5313 L2690,521.5313 L2291,521.5313 " fill="#ECECEC" filter="url(#f1lvtwcmp9td0g)" style="stroke:#383838;stroke-width:1.0"/>
    <path d="M2690,521.5313 L2690,531.5313 L2700,531.5313 L2690,521.5313 " fill="#ECECEC" style="stroke:#383838;stroke-width:1.0"/>
    <text fill="#000000" font-family="sans-serif" font-size="22" lengthAdjust="spacingAndGlyphs" textLength="388" x="2297" y="546.9521">Lookup / validate party information</text>
    <line style="stroke:#383838;stroke-width:1.0" x1="1481" x2="1491" y1="597.75" y2="593.75"/>
    <line style="stroke:#383838;stroke-width:1.0" x1="1481" x2="1491" y1="597.75" y2="601.75"/>
    <line style="stroke:#383838;stroke-width:1.0;stroke-dasharray:2.0,2.0" x1="1481" x2="1970" y1="597.75" y2="597.75"/>
    <text fill="#000000" font-family="sans-serif" font-size="22" font-weight="bold" lengthAdjust="spacingAndGlyphs" textLength="35" x="1498" y="590.5615">[6]</text>
    <text fill="#000000" font-family="sans-serif" font-size="22" font-weight="bold" lengthAdjust="spacingAndGlyphs" textLength="49" x="1537" y="590.5615">PUT</text>
    <text fill="#000000" font-family="sans-serif" font-size="22" lengthAdjust="spacingAndGlyphs" textLength="222" x="1593" y="590.5615">/parties/{type}/{id}</text>
    <line style="stroke:#383838;stroke-width:1.0" x1="1035" x2="1045" y1="637.3594" y2="633.3594"/>
    <line style="stroke:#383838;stroke-width:1.0" x1="1035" x2="1045" y1="637.3594" y2="641.3594"/>
    <line style="stroke:#383838;stroke-width:1.0;stroke-dasharray:2.0,2.0" x1="1035" x2="1480" y1="637.3594" y2="637.3594"/>
    <text fill="#000000" font-family="sans-serif" font-size="22" font-weight="bold" lengthAdjust="spacingAndGlyphs" textLength="35" x="1052" y="630.1709">[7]</text>
    <text fill="#000000" font-family="sans-serif" font-size="22" font-weight="bold" lengthAdjust="spacingAndGlyphs" textLength="49" x="1091" y="630.1709">PUT</text>
    <text fill="#000000" font-family="sans-serif" font-size="22" lengthAdjust="spacingAndGlyphs" textLength="222" x="1147" y="630.1709">/parties/{type}/{id}</text>
    <line style="stroke:#383838;stroke-width:1.0" x1="480" x2="490" y1="683.9688" y2="679.9688"/>
    <line style="stroke:#383838;stroke-width:1.0" x1="480" x2="490" y1="683.9688" y2="687.9688"/>
    <line style="stroke:#383838;stroke-width:1.0;stroke-dasharray:2.0,2.0" x1="480" x2="1034" y1="683.9688" y2="683.9688"/>
    <text fill="#000000" font-family="sans-serif" font-size="22" font-weight="bold" lengthAdjust="spacingAndGlyphs" textLength="35" x="497" y="676.7803">[8]</text>
    <text fill="#000000" font-family="sans-serif" font-size="22" font-weight="bold" lengthAdjust="spacingAndGlyphs" textLength="49" x="536" y="676.7803">PUT</text>
    <text fill="#000000" font-family="sans-serif" font-size="22" lengthAdjust="spacingAndGlyphs" textLength="421" x="592" y="676.7803">/bulkTransactions/{bulkTransactionId}</text>
    <line style="stroke:#383838;stroke-width:1.0" x1="1033" x2="1023" y1="728.5781" y2="724.5781"/>
    <line style="stroke:#383838;stroke-width:1.0" x1="1033" x2="1023" y1="728.5781" y2="732.5781"/>
    <line style="stroke:#383838;stroke-width:1.0" x1="480" x2="1034" y1="728.5781" y2="728.5781"/>
    <text fill="#000000" font-family="sans-serif" font-size="22" font-weight="bold" lengthAdjust="spacingAndGlyphs" textLength="35" x="487" y="721.3896">[9]</text>
    <text fill="#000000" font-family="sans-serif" font-size="22" font-weight="bold" lengthAdjust="spacingAndGlyphs" textLength="49" x="526" y="721.3896">PUT</text>
    <text fill="#000000" font-family="sans-serif" font-size="22" lengthAdjust="spacingAndGlyphs" textLength="421" x="582" y="721.3896">/bulkTransactions/{bulkTransactionId}</text>
    <path d="M87,696.9688 L87,731.9688 L471,731.9688 L471,706.9688 L461,696.9688 L87,696.9688 " fill="#ECECEC" filter="url(#f1lvtwcmp9td0g)" style="stroke:#383838;stroke-width:1.0"/>
    <path d="M461,696.9688 L461,706.9688 L471,706.9688 L461,696.9688 " fill="#ECECEC" style="stroke:#383838;stroke-width:1.0"/>
    <text fill="#000000" font-family="sans-serif" font-size="22" lengthAdjust="spacingAndGlyphs" textLength="363" x="93" y="722.3896">Confirmation of party integration</text>
    <line style="stroke:#383838;stroke-width:1.0" x1="1035" x2="1077" y1="773.1875" y2="773.1875"/>
    <line style="stroke:#383838;stroke-width:1.0" x1="1077" x2="1077" y1="773.1875" y2="786.1875"/>
    <line style="stroke:#383838;stroke-width:1.0" x1="1036" x2="1077" y1="786.1875" y2="786.1875"/>
    <polygon fill="#383838" points="1046,782.1875,1036,786.1875,1046,790.1875,1042,786.1875" style="stroke:#383838;stroke-width:1.0"/>
    <text fill="#000000" font-family="sans-serif" font-size="22" font-weight="bold" lengthAdjust="spacingAndGlyphs" textLength="50" x="1042" y="765.999">[10]</text>
    <text fill="#000000" font-family="sans-serif" font-size="22" lengthAdjust="spacingAndGlyphs" textLength="378" x="1096" y="765.999">Group Valid Transfers into batches</text>
    <path d="M543,801.1875 L642,801.1875 L642,818.1875 L632,828.1875 L543,828.1875 L543,801.1875 " fill="#EEEEEE" style="stroke:#000000;stroke-width:1.0"/>
    <rect fill="none" height="573.9688" style="stroke:#000000;stroke-width:2.0" width="2028" x="543" y="801.1875"/>
    <text fill="#000000" font-family="sans-serif" font-size="22" font-weight="bold" lengthAdjust="spacingAndGlyphs" textLength="54" x="558" y="822.6084">loop</text>
    <text fill="#000000" font-family="sans-serif" font-size="22" font-weight="bold" lengthAdjust="spacingAndGlyphs" textLength="720" x="657" y="823.6084">[Agreement Processing: For each batch in bulk message]</text>
    <polygon fill="#ECECEC" filter="url(#f1lvtwcmp9td0g)" points="563,844.4063,1020,844.4063,1030,886.4063,1020,928.4063,563,928.4063,553,886.4063,563,844.4063" style="stroke:#383838;stroke-width:1.0"/>
    <text fill="#000000" font-family="sans-serif" font-size="22" lengthAdjust="spacingAndGlyphs" textLength="453" x="565" y="868.8271">Each DFSP is provided the opportunity to</text>
    <text fill="#000000" font-family="sans-serif" font-size="22" lengthAdjust="spacingAndGlyphs" textLength="382" x="565" y="894.4365">perform AML checks and add costs</text>
    <text fill="#000000" font-family="sans-serif" font-size="22" lengthAdjust="spacingAndGlyphs" textLength="321" x="565" y="920.0459">or discounts to each transfer.</text>
    <line style="stroke:#383838;stroke-width:1.0" x1="1479" x2="1469" y1="965.8438" y2="961.8438"/>
    <line style="stroke:#383838;stroke-width:1.0" x1="1479" x2="1469" y1="965.8438" y2="969.8438"/>
    <line style="stroke:#383838;stroke-width:1.0" x1="1040" x2="1480" y1="965.8438" y2="965.8438"/>
    <text fill="#000000" font-family="sans-serif" font-size="22" font-weight="bold" lengthAdjust="spacingAndGlyphs" textLength="50" x="1047" y="958.6553">[11]</text>
    <text fill="#000000" font-family="sans-serif" font-size="22" font-weight="bold" lengthAdjust="spacingAndGlyphs" textLength="66" x="1101" y="958.6553">POST</text>
    <text fill="#000000" font-family="sans-serif" font-size="22" lengthAdjust="spacingAndGlyphs" textLength="128" x="1174" y="958.6553">/bulkquotes</text>
    <line style="stroke:#383838;stroke-width:1.0" x1="1969" x2="1959" y1="1005.4531" y2="1001.4531"/>
    <line style="stroke:#383838;stroke-width:1.0" x1="1969" x2="1959" y1="1005.4531" y2="1009.4531"/>
    <line style="stroke:#383838;stroke-width:1.0" x1="1481" x2="1970" y1="1005.4531" y2="1005.4531"/>
    <text fill="#000000" font-family="sans-serif" font-size="22" font-weight="bold" lengthAdjust="spacingAndGlyphs" textLength="50" x="1488" y="998.2646">[12]</text>
    <text fill="#000000" font-family="sans-serif" font-size="22" font-weight="bold" lengthAdjust="spacingAndGlyphs" textLength="66" x="1542" y="998.2646">POST</text>
    <text fill="#000000" font-family="sans-serif" font-size="22" lengthAdjust="spacingAndGlyphs" textLength="128" x="1615" y="998.2646">/bulkquotes</text>
    <path d="M1830,1020.4531 L1909,1020.4531 L1909,1037.4531 L1899,1047.4531 L1830,1047.4531 L1830,1020.4531 " fill="#EEEEEE" style="stroke:#000000;stroke-width:1.0"/>
    <rect fill="none" height="268.4844" style="stroke:#000000;stroke-width:2.0" width="731" x="1830" y="1020.4531"/>
    <text fill="#000000" font-family="sans-serif" font-size="22" font-weight="bold" lengthAdjust="spacingAndGlyphs" textLength="34" x="1845" y="1041.874">alt</text>
    <text fill="#000000" font-family="sans-serif" font-size="22" font-weight="bold" lengthAdjust="spacingAndGlyphs" textLength="399" x="1924" y="1042.874">[if (HasSupportForBulkQuotes)]</text>
    <polygon fill="#383838" points="2274,1104.0859,2284,1108.0859,2274,1112.0859,2278,1108.0859" style="stroke:#383838;stroke-width:1.0"/>
    <line style="stroke:#383838;stroke-width:1.0" x1="1971" x2="2280" y1="1108.0859" y2="1108.0859"/>
    <text fill="#000000" font-family="sans-serif" font-size="22" font-weight="bold" lengthAdjust="spacingAndGlyphs" textLength="50" x="1978" y="1100.8975">[13]</text>
    <text fill="#000000" font-family="sans-serif" font-size="22" font-weight="bold" lengthAdjust="spacingAndGlyphs" textLength="66" x="2032" y="1100.8975">POST</text>
    <text fill="#000000" font-family="sans-serif" font-size="22" lengthAdjust="spacingAndGlyphs" textLength="128" x="2105" y="1100.8975">/bulkquotes</text>
    <path d="M2291,1063.6719 L2291,1124.6719 L2542,1124.6719 L2542,1073.6719 L2532,1063.6719 L2291,1063.6719 " fill="#ECECEC" filter="url(#f1lvtwcmp9td0g)" style="stroke:#383838;stroke-width:1.0"/>
    <path d="M2532,1063.6719 L2532,1073.6719 L2542,1073.6719 L2532,1063.6719 " fill="#ECECEC" style="stroke:#383838;stroke-width:1.0"/>
    <text fill="#000000" font-family="sans-serif" font-size="22" lengthAdjust="spacingAndGlyphs" textLength="183" x="2297" y="1089.0928">Bulk AML checks</text>
    <text fill="#000000" font-family="sans-serif" font-size="22" lengthAdjust="spacingAndGlyphs" textLength="230" x="2297" y="1114.7021">Bulk Fee calculations</text>
    <line style="stroke:#000000;stroke-width:1.0;stroke-dasharray:2.0,2.0" x1="1830" x2="2561" y1="1134.8906" y2="1134.8906"/>
    <text fill="#000000" font-family="sans-serif" font-size="22" font-weight="bold" lengthAdjust="spacingAndGlyphs" textLength="409" x="1835" y="1155.3115">[if (!HasSupportForBulkQuotes)]</text>
    <path d="M1840,1168.5 L1939,1168.5 L1939,1185.5 L1929,1195.5 L1840,1195.5 L1840,1168.5 " fill="#EEEEEE" style="stroke:#000000;stroke-width:1.0"/>
    <rect fill="none" height="113.4375" style="stroke:#000000;stroke-width:2.0" width="668" x="1840" y="1168.5"/>
    <text fill="#000000" font-family="sans-serif" font-size="22" font-weight="bold" lengthAdjust="spacingAndGlyphs" textLength="54" x="1855" y="1189.9209">loop</text>
    <text fill="#000000" font-family="sans-serif" font-size="22" font-weight="bold" lengthAdjust="spacingAndGlyphs" textLength="549" x="1954" y="1190.9209">[X times for each transfer in bulk message]</text>
    <polygon fill="#383838" points="2274,1252.1328,2284,1256.1328,2274,1260.1328,2278,1256.1328" style="stroke:#383838;stroke-width:1.0"/>
    <line style="stroke:#383838;stroke-width:1.0" x1="1971" x2="2280" y1="1256.1328" y2="1256.1328"/>
    <text fill="#000000" font-family="sans-serif" font-size="22" font-weight="bold" lengthAdjust="spacingAndGlyphs" textLength="50" x="1978" y="1248.9443">[14]</text>
    <text fill="#000000" font-family="sans-serif" font-size="22" font-weight="bold" lengthAdjust="spacingAndGlyphs" textLength="66" x="2032" y="1248.9443">POST</text>
    <text fill="#000000" font-family="sans-serif" font-size="22" lengthAdjust="spacingAndGlyphs" textLength="164" x="2105" y="1248.9443">/quoterequests</text>
    <path d="M2291,1211.7188 L2291,1272.7188 L2487,1272.7188 L2487,1221.7188 L2477,1211.7188 L2291,1211.7188 " fill="#ECECEC" filter="url(#f1lvtwcmp9td0g)" style="stroke:#383838;stroke-width:1.0"/>
    <path d="M2477,1211.7188 L2477,1221.7188 L2487,1221.7188 L2477,1211.7188 " fill="#ECECEC" style="stroke:#383838;stroke-width:1.0"/>
    <text fill="#000000" font-family="sans-serif" font-size="22" lengthAdjust="spacingAndGlyphs" textLength="128" x="2297" y="1237.1396">AML checks</text>
    <text fill="#000000" font-family="sans-serif" font-size="22" lengthAdjust="spacingAndGlyphs" textLength="175" x="2297" y="1262.749">Fee calculations</text>
    <line style="stroke:#383838;stroke-width:1.0" x1="1481" x2="1491" y1="1327.5469" y2="1323.5469"/>
    <line style="stroke:#383838;stroke-width:1.0" x1="1481" x2="1491" y1="1327.5469" y2="1331.5469"/>
    <line style="stroke:#383838;stroke-width:1.0;stroke-dasharray:2.0,2.0" x1="1481" x2="1970" y1="1327.5469" y2="1327.5469"/>
    <text fill="#000000" font-family="sans-serif" font-size="22" font-weight="bold" lengthAdjust="spacingAndGlyphs" textLength="50" x="1498" y="1320.3584">[15]</text>
    <text fill="#000000" font-family="sans-serif" font-size="22" font-weight="bold" lengthAdjust="spacingAndGlyphs" textLength="49" x="1552" y="1320.3584">PUT</text>
    <text fill="#000000" font-family="sans-serif" font-size="22" lengthAdjust="spacingAndGlyphs" textLength="178" x="1608" y="1320.3584">/bulkquotes/{id)</text>
    <line style="stroke:#383838;stroke-width:1.0" x1="1035" x2="1045" y1="1367.1563" y2="1363.1563"/>
    <line style="stroke:#383838;stroke-width:1.0" x1="1035" x2="1045" y1="1367.1563" y2="1371.1563"/>
    <line style="stroke:#383838;stroke-width:1.0;stroke-dasharray:2.0,2.0" x1="1035" x2="1480" y1="1367.1563" y2="1367.1563"/>
    <text fill="#000000" font-family="sans-serif" font-size="22" font-weight="bold" lengthAdjust="spacingAndGlyphs" textLength="50" x="1052" y="1359.9678">[16]</text>
    <text fill="#000000" font-family="sans-serif" font-size="22" font-weight="bold" lengthAdjust="spacingAndGlyphs" textLength="49" x="1106" y="1359.9678">PUT</text>
    <text fill="#000000" font-family="sans-serif" font-size="22" lengthAdjust="spacingAndGlyphs" textLength="178" x="1162" y="1359.9678">/bulkquotes/{id)</text>
    <line style="stroke:#383838;stroke-width:1.0" x1="480" x2="490" y1="1413.7656" y2="1409.7656"/>
    <line style="stroke:#383838;stroke-width:1.0" x1="480" x2="490" y1="1413.7656" y2="1417.7656"/>
    <line style="stroke:#383838;stroke-width:1.0;stroke-dasharray:2.0,2.0" x1="480" x2="1034" y1="1413.7656" y2="1413.7656"/>
    <text fill="#000000" font-family="sans-serif" font-size="22" font-weight="bold" lengthAdjust="spacingAndGlyphs" textLength="50" x="497" y="1406.5771">[17]</text>
    <text fill="#000000" font-family="sans-serif" font-size="22" font-weight="bold" lengthAdjust="spacingAndGlyphs" textLength="49" x="551" y="1406.5771">PUT</text>
    <text fill="#000000" font-family="sans-serif" font-size="22" lengthAdjust="spacingAndGlyphs" textLength="421" x="607" y="1406.5771">/bulkTransactions/{bulkTransactionId}</text>
    <line style="stroke:#383838;stroke-width:1.0" x1="1033" x2="1023" y1="1458.375" y2="1454.375"/>
    <line style="stroke:#383838;stroke-width:1.0" x1="1033" x2="1023" y1="1458.375" y2="1462.375"/>
    <line style="stroke:#383838;stroke-width:1.0" x1="480" x2="1034" y1="1458.375" y2="1458.375"/>
    <text fill="#000000" font-family="sans-serif" font-size="22" font-weight="bold" lengthAdjust="spacingAndGlyphs" textLength="50" x="487" y="1451.1865">[18]</text>
    <text fill="#000000" font-family="sans-serif" font-size="22" font-weight="bold" lengthAdjust="spacingAndGlyphs" textLength="49" x="541" y="1451.1865">PUT</text>
    <text fill="#000000" font-family="sans-serif" font-size="22" lengthAdjust="spacingAndGlyphs" textLength="421" x="597" y="1451.1865">/bulkTransactions/{bulkTransactionId}</text>
    <path d="M86,1426.7656 L86,1461.7656 L471,1461.7656 L471,1436.7656 L461,1426.7656 L86,1426.7656 " fill="#ECECEC" filter="url(#f1lvtwcmp9td0g)" style="stroke:#383838;stroke-width:1.0"/>
    <path d="M461,1426.7656 L461,1436.7656 L471,1436.7656 L461,1426.7656 " fill="#ECECEC" style="stroke:#383838;stroke-width:1.0"/>
    <text fill="#000000" font-family="sans-serif" font-size="22" lengthAdjust="spacingAndGlyphs" textLength="364" x="92" y="1452.1865">confirmation of quote integration</text>
    <path d="M606,1478.375 L705,1478.375 L705,1495.375 L695,1505.375 L606,1505.375 L606,1478.375 " fill="#EEEEEE" style="stroke:#000000;stroke-width:1.0"/>
    <rect fill="none" height="706.1875" style="stroke:#000000;stroke-width:2.0" width="2036" x="606" y="1478.375"/>
    <text fill="#000000" font-family="sans-serif" font-size="22" font-weight="bold" lengthAdjust="spacingAndGlyphs" textLength="54" x="621" y="1499.7959">loop</text>
    <text fill="#000000" font-family="sans-serif" font-size="22" font-weight="bold" lengthAdjust="spacingAndGlyphs" textLength="687" x="720" y="1500.7959">[Transfer Processing: For each batch in bulk message]</text>
    <polygon fill="#ECECEC" filter="url(#f1lvtwcmp9td0g)" points="626,1521.5938,1020,1521.5938,1030,1563.5938,1020,1605.5938,626,1605.5938,616,1563.5938,626,1521.5938" style="stroke:#383838;stroke-width:1.0"/>
    <text fill="#000000" font-family="sans-serif" font-size="22" lengthAdjust="spacingAndGlyphs" textLength="383" x="628" y="1546.0146">Each DFSP is messaged to proceed</text>
    <text fill="#000000" font-family="sans-serif" font-size="22" lengthAdjust="spacingAndGlyphs" textLength="276" x="628" y="1571.624">with the transfer. Results</text>
    <text fill="#000000" font-family="sans-serif" font-size="22" lengthAdjust="spacingAndGlyphs" textLength="297" x="628" y="1597.2334">are captured and returned.</text>
    <line style="stroke:#383838;stroke-width:1.0" x1="1479" x2="1469" y1="1643.0313" y2="1639.0313"/>
    <line style="stroke:#383838;stroke-width:1.0" x1="1479" x2="1469" y1="1643.0313" y2="1647.0313"/>
    <line style="stroke:#383838;stroke-width:1.0" x1="1040" x2="1480" y1="1643.0313" y2="1643.0313"/>
    <text fill="#000000" font-family="sans-serif" font-size="22" font-weight="bold" lengthAdjust="spacingAndGlyphs" textLength="50" x="1047" y="1635.8428">[19]</text>
    <text fill="#000000" font-family="sans-serif" font-size="22" font-weight="bold" lengthAdjust="spacingAndGlyphs" textLength="66" x="1101" y="1635.8428">POST</text>
    <text fill="#000000" font-family="sans-serif" font-size="22" lengthAdjust="spacingAndGlyphs" textLength="151" x="1174" y="1635.8428">/bulktransfers</text>
    <line style="stroke:#383838;stroke-width:1.0" x1="1481" x2="1523" y1="1708.25" y2="1708.25"/>
    <line style="stroke:#383838;stroke-width:1.0" x1="1523" x2="1523" y1="1708.25" y2="1721.25"/>
    <line style="stroke:#383838;stroke-width:1.0" x1="1482" x2="1523" y1="1721.25" y2="1721.25"/>
    <polygon fill="#383838" points="1492,1717.25,1482,1721.25,1492,1725.25,1488,1721.25" style="stroke:#383838;stroke-width:1.0"/>
    <text fill="#000000" font-family="sans-serif" font-size="22" font-weight="bold" lengthAdjust="spacingAndGlyphs" textLength="50" x="1488" y="1688.2568">[20]</text>
    <text fill="#000000" font-family="sans-serif" font-size="22" lengthAdjust="spacingAndGlyphs" textLength="320" x="1542" y="1675.4521">Perform liquidity(NDC) check</text>
    <text fill="#000000" font-family="sans-serif" font-size="22" lengthAdjust="spacingAndGlyphs" textLength="288" x="1549" y="1701.0615">at individual transfer level</text>
    <line style="stroke:#383838;stroke-width:1.0" x1="1481" x2="1523" y1="1760.8594" y2="1760.8594"/>
    <line style="stroke:#383838;stroke-width:1.0" x1="1523" x2="1523" y1="1760.8594" y2="1773.8594"/>
    <line style="stroke:#383838;stroke-width:1.0" x1="1482" x2="1523" y1="1773.8594" y2="1773.8594"/>
    <polygon fill="#383838" points="1492,1769.8594,1482,1773.8594,1492,1777.8594,1488,1773.8594" style="stroke:#383838;stroke-width:1.0"/>
    <text fill="#000000" font-family="sans-serif" font-size="22" font-weight="bold" lengthAdjust="spacingAndGlyphs" textLength="50" x="1488" y="1753.6709">[21]</text>
    <text fill="#000000" font-family="sans-serif" font-size="22" lengthAdjust="spacingAndGlyphs" textLength="161" x="1542" y="1753.6709">Reserve Funds</text>
    <line style="stroke:#383838;stroke-width:1.0" x1="1969" x2="1959" y1="1813.4688" y2="1809.4688"/>
    <line style="stroke:#383838;stroke-width:1.0" x1="1969" x2="1959" y1="1813.4688" y2="1817.4688"/>
    <line style="stroke:#383838;stroke-width:1.0" x1="1481" x2="1970" y1="1813.4688" y2="1813.4688"/>
    <text fill="#000000" font-family="sans-serif" font-size="22" font-weight="bold" lengthAdjust="spacingAndGlyphs" textLength="50" x="1488" y="1806.2803">[22]</text>
    <text fill="#000000" font-family="sans-serif" font-size="22" font-weight="bold" lengthAdjust="spacingAndGlyphs" textLength="66" x="1542" y="1806.2803">POST</text>
    <text fill="#000000" font-family="sans-serif" font-size="22" lengthAdjust="spacingAndGlyphs" textLength="151" x="1615" y="1806.2803">/bulktransfers</text>
    <path d="M1830,1828.4688 L1909,1828.4688 L1909,1845.4688 L1899,1855.4688 L1830,1855.4688 L1830,1828.4688 " fill="#EEEEEE" style="stroke:#000000;stroke-width:1.0"/>
    <rect fill="none" height="217.2656" style="stroke:#000000;stroke-width:2.0" width="802" x="1830" y="1828.4688"/>
    <text fill="#000000" font-family="sans-serif" font-size="22" font-weight="bold" lengthAdjust="spacingAndGlyphs" textLength="34" x="1845" y="1849.8896">alt</text>
    <text fill="#000000" font-family="sans-serif" font-size="22" font-weight="bold" lengthAdjust="spacingAndGlyphs" textLength="429" x="1924" y="1850.8896">[if (HasSupportForBulkTransfers)]</text>
    <polygon fill="#383838" points="2274,1899.2969,2284,1903.2969,2274,1907.2969,2278,1903.2969" style="stroke:#383838;stroke-width:1.0"/>
    <line style="stroke:#383838;stroke-width:1.0" x1="1971" x2="2280" y1="1903.2969" y2="1903.2969"/>
    <text fill="#000000" font-family="sans-serif" font-size="22" font-weight="bold" lengthAdjust="spacingAndGlyphs" textLength="50" x="1978" y="1896.1084">[23]</text>
    <text fill="#000000" font-family="sans-serif" font-size="22" font-weight="bold" lengthAdjust="spacingAndGlyphs" textLength="66" x="2032" y="1896.1084">POST</text>
    <text fill="#000000" font-family="sans-serif" font-size="22" lengthAdjust="spacingAndGlyphs" textLength="151" x="2105" y="1896.1084">/bulktransfers</text>
    <path d="M2291,1871.6875 L2291,1906.6875 L2584,1906.6875 L2584,1881.6875 L2574,1871.6875 L2291,1871.6875 " fill="#ECECEC" filter="url(#f1lvtwcmp9td0g)" style="stroke:#383838;stroke-width:1.0"/>
    <path d="M2574,1871.6875 L2574,1881.6875 L2584,1881.6875 L2574,1871.6875 " fill="#ECECEC" style="stroke:#383838;stroke-width:1.0"/>
    <text fill="#000000" font-family="sans-serif" font-size="22" lengthAdjust="spacingAndGlyphs" textLength="272" x="2297" y="1897.1084">Bulk Transfer integration</text>
    <line style="stroke:#000000;stroke-width:1.0;stroke-dasharray:2.0,2.0" x1="1830" x2="2632" y1="1917.2969" y2="1917.2969"/>
    <text fill="#000000" font-family="sans-serif" font-size="22" font-weight="bold" lengthAdjust="spacingAndGlyphs" textLength="439" x="1835" y="1937.7178">[if (!HasSupportForBulkTransfers)]</text>
    <path d="M1840,1950.9063 L1939,1950.9063 L1939,1967.9063 L1929,1977.9063 L1840,1977.9063 L1840,1950.9063 " fill="#EEEEEE" style="stroke:#000000;stroke-width:1.0"/>
    <rect fill="none" height="87.8281" style="stroke:#000000;stroke-width:2.0" width="782" x="1840" y="1950.9063"/>
    <text fill="#000000" font-family="sans-serif" font-size="22" font-weight="bold" lengthAdjust="spacingAndGlyphs" textLength="54" x="1855" y="1972.3271">loop</text>
    <text fill="#000000" font-family="sans-serif" font-size="22" font-weight="bold" lengthAdjust="spacingAndGlyphs" textLength="549" x="1954" y="1973.3271">[X times for each transfer in bulk message]</text>
    <polygon fill="#383838" points="2274,2021.7344,2284,2025.7344,2274,2029.7344,2278,2025.7344" style="stroke:#383838;stroke-width:1.0"/>
    <line style="stroke:#383838;stroke-width:1.0" x1="1971" x2="2280" y1="2025.7344" y2="2025.7344"/>
    <text fill="#000000" font-family="sans-serif" font-size="22" font-weight="bold" lengthAdjust="spacingAndGlyphs" textLength="50" x="1978" y="2018.5459">[24]</text>
    <text fill="#000000" font-family="sans-serif" font-size="22" font-weight="bold" lengthAdjust="spacingAndGlyphs" textLength="66" x="2032" y="2018.5459">POST</text>
    <text fill="#000000" font-family="sans-serif" font-size="22" lengthAdjust="spacingAndGlyphs" textLength="104" x="2105" y="2018.5459">/transfers</text>
    <path d="M2291,1994.125 L2291,2029.125 L2603,2029.125 L2603,2004.125 L2593,1994.125 L2291,1994.125 " fill="#ECECEC" filter="url(#f1lvtwcmp9td0g)" style="stroke:#383838;stroke-width:1.0"/>
    <path d="M2593,1994.125 L2593,2004.125 L2603,2004.125 L2593,1994.125 " fill="#ECECEC" style="stroke:#383838;stroke-width:1.0"/>
    <text fill="#000000" font-family="sans-serif" font-size="22" lengthAdjust="spacingAndGlyphs" textLength="291" x="2297" y="2019.5459">Single Transfer integration</text>
    <line style="stroke:#383838;stroke-width:1.0" x1="1481" x2="1491" y1="2084.3438" y2="2080.3438"/>
    <line style="stroke:#383838;stroke-width:1.0" x1="1481" x2="1491" y1="2084.3438" y2="2088.3438"/>
    <line style="stroke:#383838;stroke-width:1.0;stroke-dasharray:2.0,2.0" x1="1481" x2="1970" y1="2084.3438" y2="2084.3438"/>
    <text fill="#000000" font-family="sans-serif" font-size="22" font-weight="bold" lengthAdjust="spacingAndGlyphs" textLength="50" x="1498" y="2077.1553">[25]</text>
    <text fill="#000000" font-family="sans-serif" font-size="22" font-weight="bold" lengthAdjust="spacingAndGlyphs" textLength="49" x="1552" y="2077.1553">PUT</text>
    <text fill="#000000" font-family="sans-serif" font-size="22" lengthAdjust="spacingAndGlyphs" textLength="349" x="1608" y="2077.1553">/bulktransfers/{id} (BulkStatus)</text>
    <line style="stroke:#383838;stroke-width:1.0" x1="1481" x2="1523" y1="2123.9531" y2="2123.9531"/>
    <line style="stroke:#383838;stroke-width:1.0" x1="1523" x2="1523" y1="2123.9531" y2="2136.9531"/>
    <line style="stroke:#383838;stroke-width:1.0" x1="1482" x2="1523" y1="2136.9531" y2="2136.9531"/>
    <polygon fill="#383838" points="1492,2132.9531,1482,2136.9531,1492,2140.9531,1488,2136.9531" style="stroke:#383838;stroke-width:1.0"/>
    <text fill="#000000" font-family="sans-serif" font-size="22" font-weight="bold" lengthAdjust="spacingAndGlyphs" textLength="50" x="1488" y="2116.7646">[26]</text>
    <text fill="#000000" font-family="sans-serif" font-size="22" lengthAdjust="spacingAndGlyphs" textLength="422" x="1542" y="2116.7646">Commit funds at indivial transfer level</text>
    <line style="stroke:#383838;stroke-width:1.0" x1="1035" x2="1045" y1="2176.5625" y2="2172.5625"/>
    <line style="stroke:#383838;stroke-width:1.0" x1="1035" x2="1045" y1="2176.5625" y2="2180.5625"/>
    <line style="stroke:#383838;stroke-width:1.0;stroke-dasharray:2.0,2.0" x1="1035" x2="1480" y1="2176.5625" y2="2176.5625"/>
    <text fill="#000000" font-family="sans-serif" font-size="22" font-weight="bold" lengthAdjust="spacingAndGlyphs" textLength="50" x="1052" y="2169.374">[27]</text>
    <text fill="#000000" font-family="sans-serif" font-size="22" font-weight="bold" lengthAdjust="spacingAndGlyphs" textLength="49" x="1106" y="2169.374">PUT</text>
    <text fill="#000000" font-family="sans-serif" font-size="22" lengthAdjust="spacingAndGlyphs" textLength="206" x="1162" y="2169.374">/bulktransfers/{id}</text>
    <line style="stroke:#383838;stroke-width:1.0" x1="480" x2="490" y1="2274.3906" y2="2270.3906"/>
    <line style="stroke:#383838;stroke-width:1.0" x1="480" x2="490" y1="2274.3906" y2="2278.3906"/>
    <line style="stroke:#383838;stroke-width:1.0;stroke-dasharray:2.0,2.0" x1="480" x2="1034" y1="2274.3906" y2="2274.3906"/>
    <text fill="#000000" font-family="sans-serif" font-size="22" font-weight="bold" lengthAdjust="spacingAndGlyphs" textLength="50" x="497" y="2241.5928">[28]</text>
    <text fill="#000000" font-family="sans-serif" font-size="22" lengthAdjust="spacingAndGlyphs" textLength="203" x="551" y="2215.9834">Callback Response</text>
    <text fill="#000000" font-family="sans-serif" font-size="22" font-weight="bold" lengthAdjust="spacingAndGlyphs" textLength="49" x="551" y="2241.5928">PUT</text>
    <text fill="#000000" font-family="sans-serif" font-size="22" lengthAdjust="spacingAndGlyphs" textLength="421" x="607" y="2241.5928">/bulkTransactions/{bulkTransactionId}</text>
    <text fill="#000000" font-family="sans-serif" font-size="22" lengthAdjust="spacingAndGlyphs" textLength="374" x="551" y="2267.2021">Transfer Response (success &amp; fail)</text>
    <path d="M35,2217.1719 L35,2252.1719 L471,2252.1719 L471,2227.1719 L461,2217.1719 L35,2217.1719 " fill="#ECECEC" filter="url(#f1lvtwcmp9td0g)" style="stroke:#383838;stroke-width:1.0"/>
    <path d="M461,2217.1719 L461,2227.1719 L471,2227.1719 L461,2217.1719 " fill="#ECECEC" style="stroke:#383838;stroke-width:1.0"/>
    <text fill="#000000" font-family="sans-serif" font-size="22" lengthAdjust="spacingAndGlyphs" textLength="415" x="41" y="2242.5928">Result of bulk disbursement received.</text>
  </g>
</svg>
