<svg xmlns="http://www.w3.org/2000/svg" xmlns:xlink="http://www.w3.org/1999/xlink" contentStyleType="text/css" height="2331px" preserveAspectRatio="none" style="width:2743px;height:2331px;background:#FFFFFF;" version="1.1" viewBox="0 0 2743 2331" width="2743px" zoomAndPan="magnify">
  <defs/>
  <g>
    <rect fill="#D3D3D3" height="2319.6094" style="stroke:#181818;stroke-width:0.5;" width="788.1602" x="372" y="6"/>
    <text fill="#000000" font-family="sans-serif" font-size="22" font-weight="bold" lengthAdjust="spacing" textLength="143.999" x="694.0806" y="26.4209">Payer DFSP</text>
    <rect fill="#D3D3D3" height="2319.6094" style="stroke:#181818;stroke-width:0.5;" width="544.9248" x="1854.6348" y="6"/>
    <text fill="#000000" font-family="sans-serif" font-size="22" font-weight="bold" lengthAdjust="spacing" textLength="148.0703" x="2053.062" y="26.4209">Payee DFSP</text>
    <rect fill="#FFFFFF" height="242.6563" style="stroke:#181818;stroke-width:1.0;" width="10" x="1031.0879" y="382.7031"/>
    <rect fill="#FFFFFF" height="393.3125" style="stroke:#181818;stroke-width:1.0;" width="10" x="1031.0879" y="949.8438"/>
    <rect fill="#FFFFFF" height="525.5313" style="stroke:#181818;stroke-width:1.0;" width="10" x="1031.0879" y="1615.0313"/>
    <rect fill="none" height="415.3125" style="stroke:#000000;stroke-width:1.5;" width="2129.6563" x="597" y="218.0469"/>
    <rect fill="none" height="565.9688" style="stroke:#000000;stroke-width:1.5;" width="2037.1426" x="543" y="785.1875"/>
    <rect fill="none" height="260.4844" style="stroke:#000000;stroke-width:1.5;" width="731.5078" x="1838.6348" y="1004.4531"/>
    <rect fill="none" height="109.4375" style="stroke:#000000;stroke-width:1.5;" width="666.626" x="1848.6348" y="1148.5"/>
    <rect fill="none" height="698.1875" style="stroke:#000000;stroke-width:1.5;" width="2049.7813" x="602" y="1450.375"/>
    <rect fill="none" height="209.2656" style="stroke:#000000;stroke-width:1.5;" width="803.1465" x="1838.6348" y="1800.4688"/>
    <rect fill="none" height="83.8281" style="stroke:#000000;stroke-width:1.5;" width="783.1465" x="1848.6348" y="1918.9063"/>
    <line style="stroke:#181818;stroke-width:0.5;stroke-dasharray:5.0,5.0;" x1="474" x2="474" y1="76.2188" y2="2256.3906"/>
    <line style="stroke:#181818;stroke-width:0.5;stroke-dasharray:5.0,5.0;" x1="1036.0156" x2="1036.0156" y1="76.2188" y2="2256.3906"/>
    <line style="stroke:#181818;stroke-width:0.5;stroke-dasharray:5.0,5.0;" x1="1486.8579" x2="1486.8579" y1="76.2188" y2="2256.3906"/>
    <line style="stroke:#181818;stroke-width:0.5;stroke-dasharray:5.0,5.0;" x1="1978.6348" x2="1978.6348" y1="76.2188" y2="2256.3906"/>
    <line style="stroke:#181818;stroke-width:0.5;stroke-dasharray:5.0,5.0;" x1="2295.6748" x2="2295.6748" y1="76.2188" y2="2256.3906"/>
    <rect fill="#E3E3E3" height="39.6094" rx="2.5" ry="2.5" style="stroke:#181818;stroke-width:0.5;" width="197.8848" x="376" y="35.6094"/>
    <text fill="#000000" font-family="sans-serif" font-size="22" lengthAdjust="spacing" textLength="183.8848" x="383" y="63.0303">Backend System</text>
    <rect fill="#E3E3E3" height="39.6094" rx="2.5" ry="2.5" style="stroke:#181818;stroke-width:0.5;" width="197.8848" x="376" y="2255.3906"/>
    <text fill="#000000" font-family="sans-serif" font-size="22" lengthAdjust="spacing" textLength="183.8848" x="383" y="2282.8115">Backend System</text>
    <rect fill="#E3E3E3" height="39.6094" rx="2.5" ry="2.5" style="stroke:#181818;stroke-width:0.5;" width="240.1445" x="916.0156" y="35.6094"/>
    <text fill="#000000" font-family="sans-serif" font-size="22" lengthAdjust="spacing" textLength="226.1445" x="923.0156" y="63.0303">sdk-scheme-adapter</text>
    <rect fill="#E3E3E3" height="39.6094" rx="2.5" ry="2.5" style="stroke:#181818;stroke-width:0.5;" width="240.1445" x="916.0156" y="2255.3906"/>
    <text fill="#000000" font-family="sans-serif" font-size="22" lengthAdjust="spacing" textLength="226.1445" x="923.0156" y="2282.8115">sdk-scheme-adapter</text>
    <rect fill="#E3E3E3" height="65.2188" rx="2.5" ry="2.5" style="stroke:#181818;stroke-width:0.5;" width="113.0322" x="1430.8579" y="10"/>
    <text fill="#000000" font-family="sans-serif" font-size="22" lengthAdjust="spacing" textLength="99.0322" x="1437.8579" y="37.4209">Mojaloop</text>
    <text fill="#000000" font-family="sans-serif" font-size="22" lengthAdjust="spacing" textLength="72.7354" x="1451.0063" y="63.0303">Switch</text>
    <rect fill="#E3E3E3" height="65.2188" rx="2.5" ry="2.5" style="stroke:#181818;stroke-width:0.5;" width="113.0322" x="1430.8579" y="2255.3906"/>
    <text fill="#000000" font-family="sans-serif" font-size="22" lengthAdjust="spacing" textLength="99.0322" x="1437.8579" y="2282.8115">Mojaloop</text>
    <text fill="#000000" font-family="sans-serif" font-size="22" lengthAdjust="spacing" textLength="72.7354" x="1451.0063" y="2308.4209">Switch</text>
    <rect fill="#E3E3E3" height="39.6094" rx="2.5" ry="2.5" style="stroke:#181818;stroke-width:0.5;" width="240.1445" x="1858.6348" y="35.6094"/>
    <text fill="#000000" font-family="sans-serif" font-size="22" lengthAdjust="spacing" textLength="226.1445" x="1865.6348" y="63.0303">sdk-scheme-adapter</text>
    <rect fill="#E3E3E3" height="39.6094" rx="2.5" ry="2.5" style="stroke:#181818;stroke-width:0.5;" width="240.1445" x="1858.6348" y="2255.3906"/>
    <text fill="#000000" font-family="sans-serif" font-size="22" lengthAdjust="spacing" textLength="226.1445" x="1865.6348" y="2282.8115">sdk-scheme-adapter</text>
    <rect fill="#E3E3E3" height="39.6094" rx="2.5" ry="2.5" style="stroke:#181818;stroke-width:0.5;" width="197.8848" x="2197.6748" y="35.6094"/>
    <text fill="#000000" font-family="sans-serif" font-size="22" lengthAdjust="spacing" textLength="183.8848" x="2204.6748" y="63.0303">Backend System</text>
    <rect fill="#E3E3E3" height="39.6094" rx="2.5" ry="2.5" style="stroke:#181818;stroke-width:0.5;" width="197.8848" x="2197.6748" y="2255.3906"/>
    <text fill="#000000" font-family="sans-serif" font-size="22" lengthAdjust="spacing" textLength="183.8848" x="2204.6748" y="2282.8115">Backend System</text>
    <rect fill="#FFFFFF" height="242.6563" style="stroke:#181818;stroke-width:1.0;" width="10" x="1031.0879" y="382.7031"/>
    <rect fill="#FFFFFF" height="393.3125" style="stroke:#181818;stroke-width:1.0;" width="10" x="1031.0879" y="949.8438"/>
    <rect fill="#FFFFFF" height="525.5313" style="stroke:#181818;stroke-width:1.0;" width="10" x="1031.0879" y="1615.0313"/>
    <rect fill="#EEEEEE" height="3" style="stroke:#EEEEEE;stroke-width:1.0;" width="2736.6563" x="0" y="112.0234"/>
    <line style="stroke:#000000;stroke-width:1.0;" x1="0" x2="2736.6563" y1="112.0234" y2="112.0234"/>
    <line style="stroke:#000000;stroke-width:1.0;" x1="0" x2="2736.6563" y1="115.0234" y2="115.0234"/>
    <rect fill="#EEEEEE" height="33.6094" style="stroke:#000000;stroke-width:2.0;" width="613.9297" x="1061.3633" y="96.2188"/>
    <text fill="#000000" font-family="sans-serif" font-size="22" font-weight="bold" lengthAdjust="spacing" textLength="592.2705" x="1067.3633" y="120.6396">MVP Bulk Transfers using SDK-Scheme-Adapter</text>
    <line style="stroke:#181818;stroke-width:1.0;" x1="1034.0879" x2="1024.0879" y1="187.2422" y2="183.2422"/>
    <line style="stroke:#181818;stroke-width:1.0;" x1="1034.0879" x2="1024.0879" y1="187.2422" y2="191.2422"/>
    <line style="stroke:#181818;stroke-width:1.0;" x1="474.9424" x2="1035.0879" y1="187.2422" y2="187.2422"/>
    <text fill="#000000" font-family="sans-serif" font-size="22" font-weight="bold" lengthAdjust="spacing" textLength="35.417" x="481.9424" y="180.0537">[1]</text>
    <text fill="#000000" font-family="sans-serif" font-size="22" font-weight="bold" lengthAdjust="spacing" textLength="65.6777" x="521.3594" y="180.0537">POST</text>
    <text fill="#000000" font-family="sans-serif" font-size="22" lengthAdjust="spacing" textLength="194.7236" x="594.0303" y="180.0537">/bulkTransactions</text>
    <path d="M5,144.8281 L5,205.8281 L470,205.8281 L470,154.8281 L460,144.8281 L5,144.8281 " fill="#FAFAFA" style="stroke:#181818;stroke-width:0.5;"/>
    <path d="M460,144.8281 L460,154.8281 L470,154.8281 L460,144.8281 " fill="#FAFAFA" style="stroke:#181818;stroke-width:0.5;"/>
    <text fill="#000000" font-family="sans-serif" font-size="22" lengthAdjust="spacing" textLength="328.7002" x="11" y="170.249">Bulk Disbursement is triggerd</text>
    <text fill="#000000" font-family="sans-serif" font-size="22" lengthAdjust="spacing" textLength="444.7695" x="11" y="195.8584">by beneficiary management sub-system</text>
    <path d="M597,218.0469 L695.5176,218.0469 L695.5176,235.6563 L685.5176,245.6563 L597,245.6563 L597,218.0469 " fill="#EEEEEE" style="stroke:#000000;stroke-width:1.5;"/>
    <rect fill="none" height="415.3125" style="stroke:#000000;stroke-width:1.5;" width="2129.6563" x="597" y="218.0469"/>
    <text fill="#000000" font-family="sans-serif" font-size="22" font-weight="bold" lengthAdjust="spacing" textLength="53.5176" x="612" y="239.4678">loop</text>
    <text fill="#000000" font-family="sans-serif" font-size="22" font-weight="bold" lengthAdjust="spacing" textLength="851.9844" x="710.5176" y="240.4678">[Discovery Processing: For each individualTransfer in bulk message]</text>
    <polygon fill="#FAFAFA" points="617,261.2656,1020,261.2656,1030,303.2656,1020,345.2656,617,345.2656,607,303.2656,617,261.2656" style="stroke:#181818;stroke-width:0.5;"/>
    <text fill="#000000" font-family="sans-serif" font-size="22" lengthAdjust="spacing" textLength="359.874" x="619" y="285.6865">Resolving all potential recipients</text>
    <text fill="#000000" font-family="sans-serif" font-size="22" lengthAdjust="spacing" textLength="392.7666" x="619" y="311.2959">which might be at any of the DFSPs</text>
    <text fill="#000000" font-family="sans-serif" font-size="22" lengthAdjust="spacing" textLength="163.292" x="619" y="336.9053">on the service.</text>
    <line style="stroke:#181818;stroke-width:1.0;" x1="1485.374" x2="1475.374" y1="382.7031" y2="378.7031"/>
    <line style="stroke:#181818;stroke-width:1.0;" x1="1485.374" x2="1475.374" y1="382.7031" y2="386.7031"/>
    <line style="stroke:#181818;stroke-width:1.0;" x1="1041.0879" x2="1486.374" y1="382.7031" y2="382.7031"/>
    <text fill="#000000" font-family="sans-serif" font-size="22" font-weight="bold" lengthAdjust="spacing" textLength="35.417" x="1048.0879" y="375.5146">[2]</text>
    <text fill="#000000" font-family="sans-serif" font-size="22" font-weight="bold" lengthAdjust="spacing" textLength="48.0928" x="1087.5049" y="375.5146">GET</text>
    <text fill="#000000" font-family="sans-serif" font-size="22" lengthAdjust="spacing" textLength="102.0508" x="1142.5908" y="375.5146">/parties/*</text>
    <line style="stroke:#181818;stroke-width:1.0;" x1="1487.374" x2="1529.374" y1="447.9219" y2="447.9219"/>
    <line style="stroke:#181818;stroke-width:1.0;" x1="1529.374" x2="1529.374" y1="447.9219" y2="460.9219"/>
    <line style="stroke:#181818;stroke-width:1.0;" x1="1488.374" x2="1529.374" y1="460.9219" y2="460.9219"/>
    <polygon fill="#181818" points="1498.374,456.9219,1488.374,460.9219,1498.374,464.9219,1494.374,460.9219" style="stroke:#181818;stroke-width:1.0;"/>
    <text fill="#000000" font-family="sans-serif" font-size="22" font-weight="bold" lengthAdjust="spacing" textLength="35.417" x="1494.374" y="427.9287">[3]</text>
    <text fill="#000000" font-family="sans-serif" font-size="22" lengthAdjust="spacing" textLength="167.3096" x="1533.791" y="415.124">query oracle to</text>
    <text fill="#000000" font-family="sans-serif" font-size="22" lengthAdjust="spacing" textLength="251.3779" x="1533.791" y="440.7334">determine Payee DFSP</text>
    <line style="stroke:#181818;stroke-width:1.0;" x1="1976.707" x2="1966.707" y1="500.5313" y2="496.5313"/>
    <line style="stroke:#181818;stroke-width:1.0;" x1="1976.707" x2="1966.707" y1="500.5313" y2="504.5313"/>
    <line style="stroke:#181818;stroke-width:1.0;" x1="1487.374" x2="1977.707" y1="500.5313" y2="500.5313"/>
    <text fill="#000000" font-family="sans-serif" font-size="22" font-weight="bold" lengthAdjust="spacing" textLength="35.417" x="1494.374" y="493.3428">[4]</text>
    <text fill="#000000" font-family="sans-serif" font-size="22" font-weight="bold" lengthAdjust="spacing" textLength="48.0928" x="1533.791" y="493.3428">GET</text>
    <text fill="#000000" font-family="sans-serif" font-size="22" lengthAdjust="spacing" textLength="102.0508" x="1588.877" y="493.3428">/parties/*</text>
    <polygon fill="#181818" points="2284.6172,539.1406,2294.6172,543.1406,2284.6172,547.1406,2288.6172,543.1406" style="stroke:#181818;stroke-width:1.0;"/>
    <line style="stroke:#181818;stroke-width:1.0;" x1="1978.707" x2="2290.6172" y1="543.1406" y2="543.1406"/>
    <text fill="#000000" font-family="sans-serif" font-size="22" font-weight="bold" lengthAdjust="spacing" textLength="35.417" x="1985.707" y="535.9521">[5]</text>
    <text fill="#000000" font-family="sans-serif" font-size="22" font-weight="bold" lengthAdjust="spacing" textLength="48.0928" x="2025.124" y="535.9521">GET</text>
    <text fill="#000000" font-family="sans-serif" font-size="22" lengthAdjust="spacing" textLength="102.0508" x="2080.21" y="535.9521">/parties/*</text>
    <path d="M2301,513.5313 L2301,548.5313 L2711,548.5313 L2711,523.5313 L2701,513.5313 L2301,513.5313 " fill="#FAFAFA" style="stroke:#181818;stroke-width:0.5;"/>
    <path d="M2701,513.5313 L2701,523.5313 L2711,523.5313 L2701,513.5313 " fill="#FAFAFA" style="stroke:#181818;stroke-width:0.5;"/>
    <text fill="#000000" font-family="sans-serif" font-size="22" lengthAdjust="spacing" textLength="389.0391" x="2307" y="538.9521">Lookup / validate party information</text>
    <line style="stroke:#181818;stroke-width:1.0;" x1="1488.374" x2="1498.374" y1="585.75" y2="581.75"/>
    <line style="stroke:#181818;stroke-width:1.0;" x1="1488.374" x2="1498.374" y1="585.75" y2="589.75"/>
    <line style="stroke:#181818;stroke-width:1.0;stroke-dasharray:2.0,2.0;" x1="1487.374" x2="1977.707" y1="585.75" y2="585.75"/>
    <text fill="#000000" font-family="sans-serif" font-size="22" font-weight="bold" lengthAdjust="spacing" textLength="35.417" x="1504.374" y="578.5615">[6]</text>
    <text fill="#000000" font-family="sans-serif" font-size="22" font-weight="bold" lengthAdjust="spacing" textLength="48.9951" x="1543.791" y="578.5615">PUT</text>
    <text fill="#000000" font-family="sans-serif" font-size="22" lengthAdjust="spacing" textLength="223.6738" x="1599.7793" y="578.5615">/parties/{type}/{id}</text>
    <line style="stroke:#181818;stroke-width:1.0;" x1="1037.0879" x2="1047.0879" y1="625.3594" y2="621.3594"/>
    <line style="stroke:#181818;stroke-width:1.0;" x1="1037.0879" x2="1047.0879" y1="625.3594" y2="629.3594"/>
    <line style="stroke:#181818;stroke-width:1.0;stroke-dasharray:2.0,2.0;" x1="1036.0879" x2="1486.374" y1="625.3594" y2="625.3594"/>
    <text fill="#000000" font-family="sans-serif" font-size="22" font-weight="bold" lengthAdjust="spacing" textLength="35.417" x="1053.0879" y="618.1709">[7]</text>
    <text fill="#000000" font-family="sans-serif" font-size="22" font-weight="bold" lengthAdjust="spacing" textLength="48.9951" x="1092.5049" y="618.1709">PUT</text>
    <text fill="#000000" font-family="sans-serif" font-size="22" lengthAdjust="spacing" textLength="223.6738" x="1148.4932" y="618.1709">/parties/{type}/{id}</text>
    <line style="stroke:#181818;stroke-width:1.0;" x1="475.9424" x2="485.9424" y1="671.9688" y2="667.9688"/>
    <line style="stroke:#181818;stroke-width:1.0;" x1="475.9424" x2="485.9424" y1="671.9688" y2="675.9688"/>
    <line style="stroke:#181818;stroke-width:1.0;stroke-dasharray:2.0,2.0;" x1="474.9424" x2="1035.0879" y1="671.9688" y2="671.9688"/>
    <text fill="#000000" font-family="sans-serif" font-size="22" font-weight="bold" lengthAdjust="spacing" textLength="35.417" x="491.9424" y="664.7803">[8]</text>
    <text fill="#000000" font-family="sans-serif" font-size="22" font-weight="bold" lengthAdjust="spacing" textLength="48.9951" x="531.3594" y="664.7803">PUT</text>
    <text fill="#000000" font-family="sans-serif" font-size="22" lengthAdjust="spacing" textLength="426.4326" x="587.3477" y="664.7803">/bulkTransactions/{bulkTransactionId}</text>
    <line style="stroke:#181818;stroke-width:1.0;" x1="1034.0879" x2="1024.0879" y1="714.5781" y2="710.5781"/>
    <line style="stroke:#181818;stroke-width:1.0;" x1="1034.0879" x2="1024.0879" y1="714.5781" y2="718.5781"/>
    <line style="stroke:#181818;stroke-width:1.0;" x1="474.9424" x2="1035.0879" y1="714.5781" y2="714.5781"/>
    <text fill="#000000" font-family="sans-serif" font-size="22" font-weight="bold" lengthAdjust="spacing" textLength="35.417" x="481.9424" y="707.3896">[9]</text>
    <text fill="#000000" font-family="sans-serif" font-size="22" font-weight="bold" lengthAdjust="spacing" textLength="48.9951" x="521.3594" y="707.3896">PUT</text>
    <text fill="#000000" font-family="sans-serif" font-size="22" lengthAdjust="spacing" textLength="426.4326" x="577.3477" y="707.3896">/bulkTransactions/{bulkTransactionId}</text>
    <path d="M85,684.9688 L85,719.9688 L469,719.9688 L469,694.9688 L459,684.9688 L85,684.9688 " fill="#FAFAFA" style="stroke:#181818;stroke-width:0.5;"/>
    <path d="M459,684.9688 L459,694.9688 L469,694.9688 L459,684.9688 " fill="#FAFAFA" style="stroke:#181818;stroke-width:0.5;"/>
    <text fill="#000000" font-family="sans-serif" font-size="22" lengthAdjust="spacing" textLength="363.8916" x="91" y="710.3896">Confirmation of party integration</text>
    <line style="stroke:#181818;stroke-width:1.0;" x1="1036.0879" x2="1078.0879" y1="757.1875" y2="757.1875"/>
    <line style="stroke:#181818;stroke-width:1.0;" x1="1078.0879" x2="1078.0879" y1="757.1875" y2="770.1875"/>
    <line style="stroke:#181818;stroke-width:1.0;" x1="1037.0879" x2="1078.0879" y1="770.1875" y2="770.1875"/>
    <polygon fill="#181818" points="1047.0879,766.1875,1037.0879,770.1875,1047.0879,774.1875,1043.0879,770.1875" style="stroke:#181818;stroke-width:1.0;"/>
    <text fill="#000000" font-family="sans-serif" font-size="22" font-weight="bold" lengthAdjust="spacing" textLength="50.7246" x="1043.0879" y="749.999">[10]</text>
    <text fill="#000000" font-family="sans-serif" font-size="22" lengthAdjust="spacing" textLength="382.5615" x="1097.8125" y="749.999">Group Valid Transfers into batches</text>
    <path d="M543,785.1875 L641.5176,785.1875 L641.5176,802.7969 L631.5176,812.7969 L543,812.7969 L543,785.1875 " fill="#EEEEEE" style="stroke:#000000;stroke-width:1.5;"/>
    <rect fill="none" height="565.9688" style="stroke:#000000;stroke-width:1.5;" width="2037.1426" x="543" y="785.1875"/>
    <text fill="#000000" font-family="sans-serif" font-size="22" font-weight="bold" lengthAdjust="spacing" textLength="53.5176" x="558" y="806.6084">loop</text>
    <text fill="#000000" font-family="sans-serif" font-size="22" font-weight="bold" lengthAdjust="spacing" textLength="710.8105" x="656.5176" y="807.6084">[Agreement Processing: For each batch in bulk message]</text>
    <polygon fill="#FAFAFA" points="563,828.4063,1020,828.4063,1030,870.4063,1020,912.4063,563,912.4063,553,870.4063,563,828.4063" style="stroke:#181818;stroke-width:0.5;"/>
    <text fill="#000000" font-family="sans-serif" font-size="22" lengthAdjust="spacing" textLength="453.2021" x="565" y="852.8271">Each DFSP is provided the opportunity to</text>
    <text fill="#000000" font-family="sans-serif" font-size="22" lengthAdjust="spacing" textLength="385.2578" x="565" y="878.4365">perform AML checks and add costs</text>
    <text fill="#000000" font-family="sans-serif" font-size="22" lengthAdjust="spacing" textLength="324.5645" x="565" y="904.0459">or discounts to each transfer.</text>
    <line style="stroke:#181818;stroke-width:1.0;" x1="1485.374" x2="1475.374" y1="949.8438" y2="945.8438"/>
    <line style="stroke:#181818;stroke-width:1.0;" x1="1485.374" x2="1475.374" y1="949.8438" y2="953.8438"/>
    <line style="stroke:#181818;stroke-width:1.0;" x1="1041.0879" x2="1486.374" y1="949.8438" y2="949.8438"/>
    <text fill="#000000" font-family="sans-serif" font-size="22" font-weight="bold" lengthAdjust="spacing" textLength="50.7246" x="1048.0879" y="942.6553">[11]</text>
    <text fill="#000000" font-family="sans-serif" font-size="22" font-weight="bold" lengthAdjust="spacing" textLength="65.6777" x="1102.8125" y="942.6553">POST</text>
    <text fill="#000000" font-family="sans-serif" font-size="22" lengthAdjust="spacing" textLength="129.1641" x="1175.4834" y="942.6553">/bulkquotes</text>
    <line style="stroke:#181818;stroke-width:1.0;" x1="1976.707" x2="1966.707" y1="989.4531" y2="985.4531"/>
    <line style="stroke:#181818;stroke-width:1.0;" x1="1976.707" x2="1966.707" y1="989.4531" y2="993.4531"/>
    <line style="stroke:#181818;stroke-width:1.0;" x1="1487.374" x2="1977.707" y1="989.4531" y2="989.4531"/>
    <text fill="#000000" font-family="sans-serif" font-size="22" font-weight="bold" lengthAdjust="spacing" textLength="50.7246" x="1494.374" y="982.2646">[12]</text>
    <text fill="#000000" font-family="sans-serif" font-size="22" font-weight="bold" lengthAdjust="spacing" textLength="65.6777" x="1549.0986" y="982.2646">POST</text>
    <text fill="#000000" font-family="sans-serif" font-size="22" lengthAdjust="spacing" textLength="129.1641" x="1621.7695" y="982.2646">/bulkquotes</text>
    <path d="M1838.6348,1004.4531 L1916.5381,1004.4531 L1916.5381,1022.0625 L1906.5381,1032.0625 L1838.6348,1032.0625 L1838.6348,1004.4531 " fill="#EEEEEE" style="stroke:#000000;stroke-width:1.5;"/>
    <rect fill="none" height="260.4844" style="stroke:#000000;stroke-width:1.5;" width="731.5078" x="1838.6348" y="1004.4531"/>
    <text fill="#000000" font-family="sans-serif" font-size="22" font-weight="bold" lengthAdjust="spacing" textLength="32.9033" x="1853.6348" y="1025.874">alt</text>
    <text fill="#000000" font-family="sans-serif" font-size="22" font-weight="bold" lengthAdjust="spacing" textLength="394.4316" x="1931.5381" y="1026.874">[if (HasSupportForBulkQuotes)]</text>
    <polygon fill="#181818" points="2284.6172,1086.0859,2294.6172,1090.0859,2284.6172,1094.0859,2288.6172,1090.0859" style="stroke:#181818;stroke-width:1.0;"/>
    <line style="stroke:#181818;stroke-width:1.0;" x1="1978.707" x2="2290.6172" y1="1090.0859" y2="1090.0859"/>
    <text fill="#000000" font-family="sans-serif" font-size="22" font-weight="bold" lengthAdjust="spacing" textLength="50.7246" x="1985.707" y="1082.8975">[13]</text>
    <text fill="#000000" font-family="sans-serif" font-size="22" font-weight="bold" lengthAdjust="spacing" textLength="65.6777" x="2040.4316" y="1082.8975">POST</text>
    <text fill="#000000" font-family="sans-serif" font-size="22" lengthAdjust="spacing" textLength="129.1641" x="2113.1025" y="1082.8975">/bulkquotes</text>
    <path d="M2301,1047.6719 L2301,1108.6719 L2554,1108.6719 L2554,1057.6719 L2544,1047.6719 L2301,1047.6719 " fill="#FAFAFA" style="stroke:#181818;stroke-width:0.5;"/>
    <path d="M2544,1047.6719 L2544,1057.6719 L2554,1057.6719 L2544,1047.6719 " fill="#FAFAFA" style="stroke:#181818;stroke-width:0.5;"/>
    <text fill="#000000" font-family="sans-serif" font-size="22" lengthAdjust="spacing" textLength="184.0352" x="2307" y="1073.0928">Bulk AML checks</text>
    <text fill="#000000" font-family="sans-serif" font-size="22" lengthAdjust="spacing" textLength="232.5254" x="2307" y="1098.7021">Bulk Fee calculations</text>
    <line style="stroke:#000000;stroke-width:1.0;stroke-dasharray:2.0,2.0;" x1="1838.6348" x2="2570.1426" y1="1114.8906" y2="1114.8906"/>
    <text fill="#000000" font-family="sans-serif" font-size="22" font-weight="bold" lengthAdjust="spacing" textLength="404.4648" x="1843.6348" y="1135.3115">[if (!HasSupportForBulkQuotes)]</text>
    <path d="M1848.6348,1148.5 L1947.1523,1148.5 L1947.1523,1166.1094 L1937.1523,1176.1094 L1848.6348,1176.1094 L1848.6348,1148.5 " fill="#EEEEEE" style="stroke:#000000;stroke-width:1.5;"/>
    <rect fill="none" height="109.4375" style="stroke:#000000;stroke-width:1.5;" width="666.626" x="1848.6348" y="1148.5"/>
    <text fill="#000000" font-family="sans-serif" font-size="22" font-weight="bold" lengthAdjust="spacing" textLength="53.5176" x="1863.6348" y="1169.9209">loop</text>
    <text fill="#000000" font-family="sans-serif" font-size="22" font-weight="bold" lengthAdjust="spacing" textLength="540.332" x="1962.1523" y="1170.9209">[X times for each transfer in bulk message]</text>
    <polygon fill="#181818" points="2284.6172,1230.1328,2294.6172,1234.1328,2284.6172,1238.1328,2288.6172,1234.1328" style="stroke:#181818;stroke-width:1.0;"/>
    <line style="stroke:#181818;stroke-width:1.0;" x1="1978.707" x2="2290.6172" y1="1234.1328" y2="1234.1328"/>
    <text fill="#000000" font-family="sans-serif" font-size="22" font-weight="bold" lengthAdjust="spacing" textLength="50.7246" x="1985.707" y="1226.9443">[14]</text>
    <text fill="#000000" font-family="sans-serif" font-size="22" font-weight="bold" lengthAdjust="spacing" textLength="65.6777" x="2040.4316" y="1226.9443">POST</text>
    <text fill="#000000" font-family="sans-serif" font-size="22" lengthAdjust="spacing" textLength="166.5146" x="2113.1025" y="1226.9443">/quoterequests</text>
    <path d="M2301,1191.7188 L2301,1252.7188 L2499,1252.7188 L2499,1201.7188 L2489,1191.7188 L2301,1191.7188 " fill="#FAFAFA" style="stroke:#181818;stroke-width:0.5;"/>
    <path d="M2489,1191.7188 L2489,1201.7188 L2499,1201.7188 L2489,1191.7188 " fill="#FAFAFA" style="stroke:#181818;stroke-width:0.5;"/>
    <text fill="#000000" font-family="sans-serif" font-size="22" lengthAdjust="spacing" textLength="129.1533" x="2307" y="1217.1396">AML checks</text>
    <text fill="#000000" font-family="sans-serif" font-size="22" lengthAdjust="spacing" textLength="177.6436" x="2307" y="1242.749">Fee calculations</text>
    <line style="stroke:#181818;stroke-width:1.0;" x1="1488.374" x2="1498.374" y1="1303.5469" y2="1299.5469"/>
    <line style="stroke:#181818;stroke-width:1.0;" x1="1488.374" x2="1498.374" y1="1303.5469" y2="1307.5469"/>
    <line style="stroke:#181818;stroke-width:1.0;stroke-dasharray:2.0,2.0;" x1="1487.374" x2="1977.707" y1="1303.5469" y2="1303.5469"/>
    <text fill="#000000" font-family="sans-serif" font-size="22" font-weight="bold" lengthAdjust="spacing" textLength="50.7246" x="1504.374" y="1296.3584">[15]</text>
    <text fill="#000000" font-family="sans-serif" font-size="22" font-weight="bold" lengthAdjust="spacing" textLength="48.9951" x="1559.0986" y="1296.3584">PUT</text>
    <text fill="#000000" font-family="sans-serif" font-size="22" lengthAdjust="spacing" textLength="179.2334" x="1615.0869" y="1296.3584">/bulkquotes/{id)</text>
    <line style="stroke:#181818;stroke-width:1.0;" x1="1037.0879" x2="1047.0879" y1="1343.1563" y2="1339.1563"/>
    <line style="stroke:#181818;stroke-width:1.0;" x1="1037.0879" x2="1047.0879" y1="1343.1563" y2="1347.1563"/>
    <line style="stroke:#181818;stroke-width:1.0;stroke-dasharray:2.0,2.0;" x1="1036.0879" x2="1486.374" y1="1343.1563" y2="1343.1563"/>
    <text fill="#000000" font-family="sans-serif" font-size="22" font-weight="bold" lengthAdjust="spacing" textLength="50.7246" x="1053.0879" y="1335.9678">[16]</text>
    <text fill="#000000" font-family="sans-serif" font-size="22" font-weight="bold" lengthAdjust="spacing" textLength="48.9951" x="1107.8125" y="1335.9678">PUT</text>
    <text fill="#000000" font-family="sans-serif" font-size="22" lengthAdjust="spacing" textLength="179.2334" x="1163.8008" y="1335.9678">/bulkquotes/{id)</text>
    <line style="stroke:#181818;stroke-width:1.0;" x1="475.9424" x2="485.9424" y1="1389.7656" y2="1385.7656"/>
    <line style="stroke:#181818;stroke-width:1.0;" x1="475.9424" x2="485.9424" y1="1389.7656" y2="1393.7656"/>
    <line style="stroke:#181818;stroke-width:1.0;stroke-dasharray:2.0,2.0;" x1="474.9424" x2="1035.0879" y1="1389.7656" y2="1389.7656"/>
    <text fill="#000000" font-family="sans-serif" font-size="22" font-weight="bold" lengthAdjust="spacing" textLength="50.7246" x="491.9424" y="1382.5771">[17]</text>
    <text fill="#000000" font-family="sans-serif" font-size="22" font-weight="bold" lengthAdjust="spacing" textLength="48.9951" x="546.667" y="1382.5771">PUT</text>
    <text fill="#000000" font-family="sans-serif" font-size="22" lengthAdjust="spacing" textLength="426.4326" x="602.6553" y="1382.5771">/bulkTransactions/{bulkTransactionId}</text>
    <line style="stroke:#181818;stroke-width:1.0;" x1="1034.0879" x2="1024.0879" y1="1432.375" y2="1428.375"/>
    <line style="stroke:#181818;stroke-width:1.0;" x1="1034.0879" x2="1024.0879" y1="1432.375" y2="1436.375"/>
    <line style="stroke:#181818;stroke-width:1.0;" x1="474.9424" x2="1035.0879" y1="1432.375" y2="1432.375"/>
    <text fill="#000000" font-family="sans-serif" font-size="22" font-weight="bold" lengthAdjust="spacing" textLength="50.7246" x="481.9424" y="1425.1865">[18]</text>
    <text fill="#000000" font-family="sans-serif" font-size="22" font-weight="bold" lengthAdjust="spacing" textLength="48.9951" x="536.667" y="1425.1865">PUT</text>
    <text fill="#000000" font-family="sans-serif" font-size="22" lengthAdjust="spacing" textLength="426.4326" x="592.6553" y="1425.1865">/bulkTransactions/{bulkTransactionId}</text>
    <path d="M82,1402.7656 L82,1437.7656 L469,1437.7656 L469,1412.7656 L459,1402.7656 L82,1402.7656 " fill="#FAFAFA" style="stroke:#181818;stroke-width:0.5;"/>
    <path d="M459,1402.7656 L459,1412.7656 L469,1412.7656 L459,1402.7656 " fill="#FAFAFA" style="stroke:#181818;stroke-width:0.5;"/>
    <text fill="#000000" font-family="sans-serif" font-size="22" lengthAdjust="spacing" textLength="366.0186" x="88" y="1428.1865">confirmation of quote integration</text>
    <path d="M602,1450.375 L700.5176,1450.375 L700.5176,1467.9844 L690.5176,1477.9844 L602,1477.9844 L602,1450.375 " fill="#EEEEEE" style="stroke:#000000;stroke-width:1.5;"/>
    <rect fill="none" height="698.1875" style="stroke:#000000;stroke-width:1.5;" width="2049.7813" x="602" y="1450.375"/>
    <text fill="#000000" font-family="sans-serif" font-size="22" font-weight="bold" lengthAdjust="spacing" textLength="53.5176" x="617" y="1471.7959">loop</text>
    <text fill="#000000" font-family="sans-serif" font-size="22" font-weight="bold" lengthAdjust="spacing" textLength="678.1221" x="715.5176" y="1472.7959">[Transfer Processing: For each batch in bulk message]</text>
    <polygon fill="#FAFAFA" points="622,1493.5938,1020,1493.5938,1030,1535.5938,1020,1577.5938,622,1577.5938,612,1535.5938,622,1493.5938" style="stroke:#181818;stroke-width:0.5;"/>
    <text fill="#000000" font-family="sans-serif" font-size="22" lengthAdjust="spacing" textLength="387.3096" x="624" y="1518.0146">Each DFSP is messaged to proceed</text>
    <text fill="#000000" font-family="sans-serif" font-size="22" lengthAdjust="spacing" textLength="278.0615" x="624" y="1543.624">with the transfer. Results</text>
    <text fill="#000000" font-family="sans-serif" font-size="22" lengthAdjust="spacing" textLength="299.7178" x="624" y="1569.2334">are captured and returned.</text>
    <line style="stroke:#181818;stroke-width:1.0;" x1="1485.374" x2="1475.374" y1="1615.0313" y2="1611.0313"/>
    <line style="stroke:#181818;stroke-width:1.0;" x1="1485.374" x2="1475.374" y1="1615.0313" y2="1619.0313"/>
    <line style="stroke:#181818;stroke-width:1.0;" x1="1041.0879" x2="1486.374" y1="1615.0313" y2="1615.0313"/>
    <text fill="#000000" font-family="sans-serif" font-size="22" font-weight="bold" lengthAdjust="spacing" textLength="50.7246" x="1048.0879" y="1607.8428">[19]</text>
    <text fill="#000000" font-family="sans-serif" font-size="22" font-weight="bold" lengthAdjust="spacing" textLength="65.6777" x="1102.8125" y="1607.8428">POST</text>
    <text fill="#000000" font-family="sans-serif" font-size="22" lengthAdjust="spacing" textLength="152.5176" x="1175.4834" y="1607.8428">/bulktransfers</text>
    <line style="stroke:#181818;stroke-width:1.0;" x1="1487.374" x2="1529.374" y1="1680.25" y2="1680.25"/>
    <line style="stroke:#181818;stroke-width:1.0;" x1="1529.374" x2="1529.374" y1="1680.25" y2="1693.25"/>
    <line style="stroke:#181818;stroke-width:1.0;" x1="1488.374" x2="1529.374" y1="1693.25" y2="1693.25"/>
    <polygon fill="#181818" points="1498.374,1689.25,1488.374,1693.25,1498.374,1697.25,1494.374,1693.25" style="stroke:#181818;stroke-width:1.0;"/>
    <text fill="#000000" font-family="sans-serif" font-size="22" font-weight="bold" lengthAdjust="spacing" textLength="50.7246" x="1494.374" y="1660.2568">[20]</text>
    <text fill="#000000" font-family="sans-serif" font-size="22" lengthAdjust="spacing" textLength="319.8164" x="1549.0986" y="1647.4521">Perform liquidity(NDC) check</text>
    <text fill="#000000" font-family="sans-serif" font-size="22" lengthAdjust="spacing" textLength="289.0508" x="1556.0918" y="1673.0615">at individual transfer level</text>
    <line style="stroke:#181818;stroke-width:1.0;" x1="1487.374" x2="1529.374" y1="1732.8594" y2="1732.8594"/>
    <line style="stroke:#181818;stroke-width:1.0;" x1="1529.374" x2="1529.374" y1="1732.8594" y2="1745.8594"/>
    <line style="stroke:#181818;stroke-width:1.0;" x1="1488.374" x2="1529.374" y1="1745.8594" y2="1745.8594"/>
    <polygon fill="#181818" points="1498.374,1741.8594,1488.374,1745.8594,1498.374,1749.8594,1494.374,1745.8594" style="stroke:#181818;stroke-width:1.0;"/>
    <text fill="#000000" font-family="sans-serif" font-size="22" font-weight="bold" lengthAdjust="spacing" textLength="50.7246" x="1494.374" y="1725.6709">[21]</text>
    <text fill="#000000" font-family="sans-serif" font-size="22" lengthAdjust="spacing" textLength="162.3789" x="1549.0986" y="1725.6709">Reserve Funds</text>
    <line style="stroke:#181818;stroke-width:1.0;" x1="1976.707" x2="1966.707" y1="1785.4688" y2="1781.4688"/>
    <line style="stroke:#181818;stroke-width:1.0;" x1="1976.707" x2="1966.707" y1="1785.4688" y2="1789.4688"/>
    <line style="stroke:#181818;stroke-width:1.0;" x1="1487.374" x2="1977.707" y1="1785.4688" y2="1785.4688"/>
    <text fill="#000000" font-family="sans-serif" font-size="22" font-weight="bold" lengthAdjust="spacing" textLength="50.7246" x="1494.374" y="1778.2803">[22]</text>
    <text fill="#000000" font-family="sans-serif" font-size="22" font-weight="bold" lengthAdjust="spacing" textLength="65.6777" x="1549.0986" y="1778.2803">POST</text>
    <text fill="#000000" font-family="sans-serif" font-size="22" lengthAdjust="spacing" textLength="152.5176" x="1621.7695" y="1778.2803">/bulktransfers</text>
    <path d="M1838.6348,1800.4688 L1916.5381,1800.4688 L1916.5381,1818.0781 L1906.5381,1828.0781 L1838.6348,1828.0781 L1838.6348,1800.4688 " fill="#EEEEEE" style="stroke:#000000;stroke-width:1.5;"/>
    <rect fill="none" height="209.2656" style="stroke:#000000;stroke-width:1.5;" width="803.1465" x="1838.6348" y="1800.4688"/>
    <text fill="#000000" font-family="sans-serif" font-size="22" font-weight="bold" lengthAdjust="spacing" textLength="32.9033" x="1853.6348" y="1821.8896">alt</text>
    <text fill="#000000" font-family="sans-serif" font-size="22" font-weight="bold" lengthAdjust="spacing" textLength="424.3164" x="1931.5381" y="1822.8896">[if (HasSupportForBulkTransfers)]</text>
    <polygon fill="#181818" points="2284.6172,1869.2969,2294.6172,1873.2969,2284.6172,1877.2969,2288.6172,1873.2969" style="stroke:#181818;stroke-width:1.0;"/>
    <line style="stroke:#181818;stroke-width:1.0;" x1="1978.707" x2="2290.6172" y1="1873.2969" y2="1873.2969"/>
    <text fill="#000000" font-family="sans-serif" font-size="22" font-weight="bold" lengthAdjust="spacing" textLength="50.7246" x="1985.707" y="1866.1084">[23]</text>
    <text fill="#000000" font-family="sans-serif" font-size="22" font-weight="bold" lengthAdjust="spacing" textLength="65.6777" x="2040.4316" y="1866.1084">POST</text>
    <text fill="#000000" font-family="sans-serif" font-size="22" lengthAdjust="spacing" textLength="152.5176" x="2113.1025" y="1866.1084">/bulktransfers</text>
    <path d="M2301,1843.6875 L2301,1878.6875 L2596,1878.6875 L2596,1853.6875 L2586,1843.6875 L2301,1843.6875 " fill="#FAFAFA" style="stroke:#181818;stroke-width:0.5;"/>
    <path d="M2586,1843.6875 L2586,1853.6875 L2596,1853.6875 L2586,1843.6875 " fill="#FAFAFA" style="stroke:#181818;stroke-width:0.5;"/>
    <text fill="#000000" font-family="sans-serif" font-size="22" lengthAdjust="spacing" textLength="274.4199" x="2307" y="1869.1084">Bulk Transfer integration</text>
    <line style="stroke:#000000;stroke-width:1.0;stroke-dasharray:2.0,2.0;" x1="1838.6348" x2="2641.7813" y1="1885.2969" y2="1885.2969"/>
    <text fill="#000000" font-family="sans-serif" font-size="22" font-weight="bold" lengthAdjust="spacing" textLength="434.3496" x="1843.6348" y="1905.7178">[if (!HasSupportForBulkTransfers)]</text>
    <path d="M1848.6348,1918.9063 L1947.1523,1918.9063 L1947.1523,1936.5156 L1937.1523,1946.5156 L1848.6348,1946.5156 L1848.6348,1918.9063 " fill="#EEEEEE" style="stroke:#000000;stroke-width:1.5;"/>
    <rect fill="none" height="83.8281" style="stroke:#000000;stroke-width:1.5;" width="783.1465" x="1848.6348" y="1918.9063"/>
    <text fill="#000000" font-family="sans-serif" font-size="22" font-weight="bold" lengthAdjust="spacing" textLength="53.5176" x="1863.6348" y="1940.3271">loop</text>
    <text fill="#000000" font-family="sans-serif" font-size="22" font-weight="bold" lengthAdjust="spacing" textLength="540.332" x="1962.1523" y="1941.3271">[X times for each transfer in bulk message]</text>
    <polygon fill="#181818" points="2284.6172,1987.7344,2294.6172,1991.7344,2284.6172,1995.7344,2288.6172,1991.7344" style="stroke:#181818;stroke-width:1.0;"/>
    <line style="stroke:#181818;stroke-width:1.0;" x1="1978.707" x2="2290.6172" y1="1991.7344" y2="1991.7344"/>
    <text fill="#000000" font-family="sans-serif" font-size="22" font-weight="bold" lengthAdjust="spacing" textLength="50.7246" x="1985.707" y="1984.5459">[24]</text>
    <text fill="#000000" font-family="sans-serif" font-size="22" font-weight="bold" lengthAdjust="spacing" textLength="65.6777" x="2040.4316" y="1984.5459">POST</text>
    <text fill="#000000" font-family="sans-serif" font-size="22" lengthAdjust="spacing" textLength="105.7568" x="2113.1025" y="1984.5459">/transfers</text>
    <path d="M2301,1962.125 L2301,1997.125 L2616,1997.125 L2616,1972.125 L2606,1962.125 L2301,1962.125 " fill="#FAFAFA" style="stroke:#181818;stroke-width:0.5;"/>
    <path d="M2606,1962.125 L2606,1972.125 L2616,1972.125 L2606,1962.125 " fill="#FAFAFA" style="stroke:#181818;stroke-width:0.5;"/>
    <text fill="#000000" font-family="sans-serif" font-size="22" lengthAdjust="spacing" textLength="294.1641" x="2307" y="1987.5459">Single Transfer integration</text>
    <line style="stroke:#181818;stroke-width:1.0;" x1="1488.374" x2="1498.374" y1="2048.3438" y2="2044.3438"/>
    <line style="stroke:#181818;stroke-width:1.0;" x1="1488.374" x2="1498.374" y1="2048.3438" y2="2052.3438"/>
    <line style="stroke:#181818;stroke-width:1.0;stroke-dasharray:2.0,2.0;" x1="1487.374" x2="1977.707" y1="2048.3438" y2="2048.3438"/>
    <text fill="#000000" font-family="sans-serif" font-size="22" font-weight="bold" lengthAdjust="spacing" textLength="50.7246" x="1504.374" y="2041.1553">[25]</text>
    <text fill="#000000" font-family="sans-serif" font-size="22" font-weight="bold" lengthAdjust="spacing" textLength="48.9951" x="1559.0986" y="2041.1553">PUT</text>
    <text fill="#000000" font-family="sans-serif" font-size="22" lengthAdjust="spacing" textLength="350.1523" x="1615.0869" y="2041.1553">/bulktransfers/{id} (BulkStatus)</text>
    <line style="stroke:#181818;stroke-width:1.0;" x1="1487.374" x2="1529.374" y1="2087.9531" y2="2087.9531"/>
    <line style="stroke:#181818;stroke-width:1.0;" x1="1529.374" x2="1529.374" y1="2087.9531" y2="2100.9531"/>
    <line style="stroke:#181818;stroke-width:1.0;" x1="1488.374" x2="1529.374" y1="2100.9531" y2="2100.9531"/>
    <polygon fill="#181818" points="1498.374,2096.9531,1488.374,2100.9531,1498.374,2104.9531,1494.374,2100.9531" style="stroke:#181818;stroke-width:1.0;"/>
    <text fill="#000000" font-family="sans-serif" font-size="22" font-weight="bold" lengthAdjust="spacing" textLength="50.7246" x="1494.374" y="2080.7646">[26]</text>
    <text fill="#000000" font-family="sans-serif" font-size="22" lengthAdjust="spacing" textLength="422.6084" x="1549.0986" y="2080.7646">Commit funds at indivial transfer level</text>
    <line style="stroke:#181818;stroke-width:1.0;" x1="1037.0879" x2="1047.0879" y1="2140.5625" y2="2136.5625"/>
    <line style="stroke:#181818;stroke-width:1.0;" x1="1037.0879" x2="1047.0879" y1="2140.5625" y2="2144.5625"/>
    <line style="stroke:#181818;stroke-width:1.0;stroke-dasharray:2.0,2.0;" x1="1036.0879" x2="1486.374" y1="2140.5625" y2="2140.5625"/>
    <text fill="#000000" font-family="sans-serif" font-size="22" font-weight="bold" lengthAdjust="spacing" textLength="50.7246" x="1053.0879" y="2133.374">[27]</text>
    <text fill="#000000" font-family="sans-serif" font-size="22" font-weight="bold" lengthAdjust="spacing" textLength="48.9951" x="1107.8125" y="2133.374">PUT</text>
    <text fill="#000000" font-family="sans-serif" font-size="22" lengthAdjust="spacing" textLength="208.001" x="1163.8008" y="2133.374">/bulktransfers/{id}</text>
    <line style="stroke:#181818;stroke-width:1.0;" x1="475.9424" x2="485.9424" y1="2238.3906" y2="2234.3906"/>
    <line style="stroke:#181818;stroke-width:1.0;" x1="475.9424" x2="485.9424" y1="2238.3906" y2="2242.3906"/>
    <line style="stroke:#181818;stroke-width:1.0;stroke-dasharray:2.0,2.0;" x1="474.9424" x2="1035.0879" y1="2238.3906" y2="2238.3906"/>
    <text fill="#000000" font-family="sans-serif" font-size="22" font-weight="bold" lengthAdjust="spacing" textLength="50.7246" x="491.9424" y="2205.5928">[28]</text>
    <text fill="#000000" font-family="sans-serif" font-size="22" lengthAdjust="spacing" textLength="206.9912" x="546.667" y="2179.9834">Callback Response</text>
    <text fill="#000000" font-family="sans-serif" font-size="22" font-weight="bold" lengthAdjust="spacing" textLength="48.9951" x="546.667" y="2205.5928">PUT</text>
    <text fill="#000000" font-family="sans-serif" font-size="22" lengthAdjust="spacing" textLength="426.4326" x="602.6553" y="2205.5928">/bulkTransactions/{bulkTransactionId}</text>
    <text fill="#000000" font-family="sans-serif" font-size="22" lengthAdjust="spacing" textLength="380.1445" x="546.667" y="2231.2021">Transfer Response (success &amp; fail)</text>
    <path d="M31,2183.1719 L31,2218.1719 L469,2218.1719 L469,2193.1719 L459,2183.1719 L31,2183.1719 " fill="#FAFAFA" style="stroke:#181818;stroke-width:0.5;"/>
    <path d="M459,2183.1719 L459,2193.1719 L469,2193.1719 L459,2183.1719 " fill="#FAFAFA" style="stroke:#181818;stroke-width:0.5;"/>
    <text fill="#000000" font-family="sans-serif" font-size="22" lengthAdjust="spacing" textLength="417.7637" x="37" y="2208.5928">Result of bulk disbursement received.</text>
  </g>
</svg>
