<svg xmlns="http://www.w3.org/2000/svg" xmlns:xlink="http://www.w3.org/1999/xlink" contentStyleType="text/css" height="1278px" preserveAspectRatio="none" style="width:1723px;height:1278px;background:#FFFFFF;" version="1.1" viewBox="0 0 1723 1278" width="1723px" zoomAndPan="magnify">
  <title>5.1.1. Gestionnaire de notifications pour les rejets</title>
  <defs/>
  <g>
    <text fill="#000000" font-family="sans-serif" font-size="14" font-weight="bold" lengthAdjust="spacing" textLength="398.9248" x="663.8147" y="27.9951">5.1.1. Gestionnaire de notifications pour les rejets</text>
    <rect fill="#D3D3D3" height="1229.0781" style="stroke:#181818;stroke-width:0.5;" width="265.2637" x="1" y="43.2969"/>
    <text fill="#000000" font-family="sans-serif" font-size="13" font-weight="bold" lengthAdjust="spacing" textLength="259.2637" x="4" y="55.3638">Fournisseurs de services financiers</text>
    <rect fill="#ADD8E6" height="1229.0781" style="stroke:#181818;stroke-width:0.5;" width="363.4326" x="333.749" y="43.2969"/>
    <text fill="#000000" font-family="sans-serif" font-size="13" font-weight="bold" lengthAdjust="spacing" textLength="195.1079" x="417.9114" y="55.3638">Service adaptateur ML API</text>
    <rect fill="#FFFFE0" height="1229.0781" style="stroke:#181818;stroke-width:0.5;" width="481.1475" x="1230.4067" y="43.2969"/>
    <text fill="#000000" font-family="sans-serif" font-size="13" font-weight="bold" lengthAdjust="spacing" textLength="110.2017" x="1415.8796" y="55.3638">Service central</text>
    <rect fill="#FFFFFF" height="1002.7578" style="stroke:#181818;stroke-width:1.0;" width="10" x="510.4653" y="165.0234"/>
    <rect fill="#FFFFFF" height="30" style="stroke:#181818;stroke-width:1.0;" width="10" x="1471.3008" y="323.8203"/>
    <rect fill="#FFFFFF" height="30" style="stroke:#181818;stroke-width:1.0;" width="10" x="1471.3008" y="1020.4141"/>
    <rect fill="#FFFFFF" height="30" style="stroke:#181818;stroke-width:1.0;" width="10" x="1628.7222" y="225.4219"/>
    <rect fill="none" height="987.7578" style="stroke:#000000;stroke-width:1.5;" width="1631.1968" x="86.3574" y="172.0234"/>
    <rect fill="none" height="135.5" style="stroke:#000000;stroke-width:1.5;" width="1252.7124" x="327.749" y="270.4219"/>
    <rect fill="none" height="732.8594" style="stroke:#000000;stroke-width:1.5;" width="1484.104" x="96.3574" y="419.9219"/>
    <rect fill="none" height="59.2656" style="stroke:#000000;stroke-width:1.5;" width="985.8101" x="327.749" y="444.0547"/>
    <line style="stroke:#181818;stroke-width:0.5;stroke-dasharray:5.0,5.0;" x1="133.3574" x2="133.3574" y1="155.0234" y2="1176.7813"/>
    <line style="stroke:#181818;stroke-width:0.5;stroke-dasharray:5.0,5.0;" x1="514.749" x2="514.749" y1="155.0234" y2="1176.7813"/>
    <line style="stroke:#181818;stroke-width:0.5;stroke-dasharray:5.0,5.0;" x1="1313.4067" x2="1313.4067" y1="155.0234" y2="1176.7813"/>
    <line style="stroke:#181818;stroke-width:0.5;stroke-dasharray:5.0,5.0;" x1="1475.7114" x2="1475.7114" y1="155.0234" y2="1176.7813"/>
    <line style="stroke:#181818;stroke-width:0.5;stroke-dasharray:5.0,5.0;" x1="1632.8901" x2="1632.8901" y1="155.0234" y2="1176.7813"/>
    <text fill="#000000" font-family="sans-serif" font-size="14" lengthAdjust="spacing" textLength="45.0693" x="108.0972" y="135.4248">DFSP1</text>
    <text fill="#000000" font-family="sans-serif" font-size="14" lengthAdjust="spacing" textLength="48.5488" x="106.3574" y="151.7217">Payeur</text>
    <ellipse cx="133.6318" cy="70.9297" fill="#E2E2F0" rx="8" ry="8" style="stroke:#181818;stroke-width:0.5;"/>
    <path d="M133.6318,78.9297 L133.6318,105.9297 M120.6318,86.9297 L146.6318,86.9297 M133.6318,105.9297 L120.6318,120.9297 M133.6318,105.9297 L146.6318,120.9297 " fill="none" style="stroke:#181818;stroke-width:0.5;"/>
    <text fill="#000000" font-family="sans-serif" font-size="14" lengthAdjust="spacing" textLength="45.0693" x="108.0972" y="1188.7764">DFSP1</text>
    <text fill="#000000" font-family="sans-serif" font-size="14" lengthAdjust="spacing" textLength="48.5488" x="106.3574" y="1205.0732">Payeur</text>
    <ellipse cx="133.6318" cy="1216.875" fill="#E2E2F0" rx="8" ry="8" style="stroke:#181818;stroke-width:0.5;"/>
    <path d="M133.6318,1224.875 L133.6318,1251.875 M120.6318,1232.875 L146.6318,1232.875 M133.6318,1251.875 L120.6318,1266.875 M133.6318,1251.875 L146.6318,1266.875 " fill="none" style="stroke:#181818;stroke-width:0.5;"/>
    <text fill="#000000" font-family="sans-serif" font-size="14" lengthAdjust="spacing" textLength="349.4326" x="337.749" y="151.7217">Gestionnaire d&apos;événements de notification ML API</text>
    <ellipse cx="515.4653" cy="122.7266" fill="#E2E2F0" rx="12" ry="12" style="stroke:#181818;stroke-width:0.5;"/>
    <polygon fill="#181818" points="511.4653,110.7266,517.4653,105.7266,515.4653,110.7266,517.4653,115.7266,511.4653,110.7266" style="stroke:#181818;stroke-width:1.0;"/>
    <text fill="#000000" font-family="sans-serif" font-size="14" lengthAdjust="spacing" textLength="349.4326" x="337.749" y="1188.7764">Gestionnaire d&apos;événements de notification ML API</text>
    <ellipse cx="515.4653" cy="1208.0781" fill="#E2E2F0" rx="12" ry="12" style="stroke:#181818;stroke-width:0.5;"/>
    <polygon fill="#181818" points="511.4653,1196.0781,517.4653,1191.0781,515.4653,1196.0781,517.4653,1201.0781,511.4653,1196.0781" style="stroke:#181818;stroke-width:1.0;"/>
    <text fill="#000000" font-family="sans-serif" font-size="14" lengthAdjust="spacing" textLength="152.3047" x="1234.4067" y="151.7217">API du service central</text>
    <path d="M1293.0591,110.7266 L1293.0591,134.7266 M1293.0591,122.7266 L1310.0591,122.7266 " fill="none" style="stroke:#181818;stroke-width:0.5;"/>
    <ellipse cx="1322.0591" cy="122.7266" fill="#E2E2F0" rx="12" ry="12" style="stroke:#181818;stroke-width:0.5;"/>
    <text fill="#000000" font-family="sans-serif" font-size="14" lengthAdjust="spacing" textLength="152.3047" x="1234.4067" y="1188.7764">API du service central</text>
    <path d="M1293.0591,1196.0781 L1293.0591,1220.0781 M1293.0591,1208.0781 L1310.0591,1208.0781 " fill="none" style="stroke:#181818;stroke-width:0.5;"/>
    <ellipse cx="1322.0591" cy="1208.0781" fill="#E2E2F0" rx="12" ry="12" style="stroke:#181818;stroke-width:0.5;"/>
    <rect fill="#E2E2F0" height="30.2969" style="stroke:#181818;stroke-width:0.5;" width="143.1787" x="1406.7114" y="119.7266"/>
    <rect fill="#E2E2F0" height="30.2969" style="stroke:#181818;stroke-width:0.5;" width="143.1787" x="1402.7114" y="123.7266"/>
    <text fill="#000000" font-family="sans-serif" font-size="14" lengthAdjust="spacing" textLength="129.1787" x="1409.7114" y="143.7217">Topic Événements</text>
    <rect fill="#E2E2F0" height="30.2969" style="stroke:#181818;stroke-width:0.5;" width="143.1787" x="1406.7114" y="1175.7813"/>
    <rect fill="#E2E2F0" height="30.2969" style="stroke:#181818;stroke-width:0.5;" width="143.1787" x="1402.7114" y="1179.7813"/>
    <text fill="#000000" font-family="sans-serif" font-size="14" lengthAdjust="spacing" textLength="129.1787" x="1409.7114" y="1199.7764">Topic Événements</text>
    <rect fill="#E2E2F0" height="30.2969" style="stroke:#181818;stroke-width:0.5;" width="143.6641" x="1563.8901" y="119.7266"/>
    <rect fill="#E2E2F0" height="30.2969" style="stroke:#181818;stroke-width:0.5;" width="143.6641" x="1559.8901" y="123.7266"/>
    <text fill="#000000" font-family="sans-serif" font-size="14" lengthAdjust="spacing" textLength="129.6641" x="1566.8901" y="143.7217">Topic Notifications</text>
    <rect fill="#E2E2F0" height="30.2969" style="stroke:#181818;stroke-width:0.5;" width="143.6641" x="1563.8901" y="1175.7813"/>
    <rect fill="#E2E2F0" height="30.2969" style="stroke:#181818;stroke-width:0.5;" width="143.6641" x="1559.8901" y="1179.7813"/>
    <text fill="#000000" font-family="sans-serif" font-size="14" lengthAdjust="spacing" textLength="129.6641" x="1566.8901" y="1199.7764">Topic Notifications</text>
    <rect fill="#FFFFFF" height="1002.7578" style="stroke:#181818;stroke-width:1.0;" width="10" x="510.4653" y="165.0234"/>
    <rect fill="#FFFFFF" height="30" style="stroke:#181818;stroke-width:1.0;" width="10" x="1471.3008" y="323.8203"/>
    <rect fill="#FFFFFF" height="30" style="stroke:#181818;stroke-width:1.0;" width="10" x="1471.3008" y="1020.4141"/>
    <rect fill="#FFFFFF" height="30" style="stroke:#181818;stroke-width:1.0;" width="10" x="1628.7222" y="225.4219"/>
    <path d="M86.3574,172.0234 L396.6895,172.0234 L396.6895,179.1563 L386.6895,189.1563 L86.3574,189.1563 L86.3574,172.0234 " fill="#EEEEEE" style="stroke:#000000;stroke-width:1.5;"/>
    <rect fill="none" height="987.7578" style="stroke:#000000;stroke-width:1.5;" width="1631.1968" x="86.3574" y="172.0234"/>
    <text fill="#000000" font-family="sans-serif" font-size="13" font-weight="bold" lengthAdjust="spacing" textLength="265.332" x="101.3574" y="185.0903">Notification du DFSP en cas de rejet</text>
    <polygon fill="#181818" points="1616.7222,221.4219,1626.7222,225.4219,1616.7222,229.4219,1620.7222,225.4219" style="stroke:#181818;stroke-width:1.0;"/>
    <line style="stroke:#181818;stroke-width:1.0;" x1="520.4653" x2="1622.7222" y1="225.4219" y2="225.4219"/>
    <text fill="#000000" font-family="sans-serif" font-size="13" font-weight="bold" lengthAdjust="spacing" textLength="9.0454" x="527.4653" y="212.7896">1</text>
    <text fill="#000000" font-family="sans-serif" font-size="13" lengthAdjust="spacing" textLength="344.4683" x="540.5107" y="205.2231">Consommer le message d&apos;événement de notification</text>
    <text fill="#000000" font-family="sans-serif" font-size="13" lengthAdjust="spacing" textLength="4.1323" x="540.5107" y="220.356"> </text>
    <text fill="#FF0000" font-family="sans-serif" font-size="13" font-weight="bold" lengthAdjust="spacing" textLength="110.2524" x="544.6431" y="220.356">Code d&apos;erreur :</text>
    <text fill="#FF0000" font-family="sans-serif" font-size="13" lengthAdjust="spacing" textLength="33.084" x="659.0278" y="220.356">2001</text>
    <path d="M327.749,270.4219 L662.3862,270.4219 L662.3862,277.5547 L652.3862,287.5547 L327.749,287.5547 L327.749,270.4219 " fill="#EEEEEE" style="stroke:#000000;stroke-width:1.5;"/>
    <rect fill="none" height="135.5" style="stroke:#000000;stroke-width:1.5;" width="1252.7124" x="327.749" y="270.4219"/>
    <text fill="#000000" font-family="sans-serif" font-size="13" font-weight="bold" lengthAdjust="spacing" textLength="289.6372" x="342.749" y="283.4888">Persister les informations d&apos;événement</text>
    <polygon fill="#181818" points="1459.3008,319.8203,1469.3008,323.8203,1459.3008,327.8203,1463.3008,323.8203" style="stroke:#181818;stroke-width:1.0;"/>
    <line style="stroke:#181818;stroke-width:1.0;" x1="520.4653" x2="1465.3008" y1="323.8203" y2="323.8203"/>
    <text fill="#000000" font-family="sans-serif" font-size="13" font-weight="bold" lengthAdjust="spacing" textLength="9.0454" x="527.4653" y="311.188">2</text>
    <text fill="#000000" font-family="sans-serif" font-size="13" lengthAdjust="spacing" textLength="243.458" x="540.5107" y="303.6216">Publier les informations d&apos;événement</text>
    <text fill="#000000" font-family="sans-serif" font-size="13" lengthAdjust="spacing" textLength="4.1323" x="540.5107" y="318.7544"> </text>
    <text fill="#FF0000" font-family="sans-serif" font-size="13" font-weight="bold" lengthAdjust="spacing" textLength="110.2524" x="544.6431" y="318.7544">Code d&apos;erreur :</text>
    <text fill="#FF0000" font-family="sans-serif" font-size="13" lengthAdjust="spacing" textLength="33.084" x="659.0278" y="318.7544">3201</text>
    <rect fill="none" height="39.1016" style="stroke:#000000;stroke-width:1.5;" width="173.75" x="1399.7114" y="361.8203"/>
    <path d="M1399.7114,361.8203 L1464.7114,361.8203 L1464.7114,368.8203 L1454.7114,378.8203 L1399.7114,378.8203 L1399.7114,361.8203 " fill="#EEEEEE" style="stroke:#000000;stroke-width:2.0;"/>
    <text fill="#000000" font-family="sans-serif" font-size="13" font-weight="bold" lengthAdjust="spacing" textLength="20.8838" x="1412.7114" y="375.8872">ref</text>
    <text fill="#000000" font-family="sans-serif" font-size="12" lengthAdjust="spacing" textLength="165.75" x="1403.7114" y="393.959">Gestionnaire d&apos;événements</text>
    <path d="M96.3574,419.9219 L160.8003,419.9219 L160.8003,427.0547 L150.8003,437.0547 L96.3574,437.0547 L96.3574,419.9219 " fill="#EEEEEE" style="stroke:#000000;stroke-width:1.5;"/>
    <rect fill="none" height="732.8594" style="stroke:#000000;stroke-width:1.5;" width="1484.104" x="96.3574" y="419.9219"/>
    <text fill="#000000" font-family="sans-serif" font-size="13" font-weight="bold" lengthAdjust="spacing" textLength="19.4429" x="111.3574" y="432.9888">alt</text>
    <text fill="#000000" font-family="sans-serif" font-size="11" font-weight="bold" lengthAdjust="spacing" textLength="206.4004" x="175.8003" y="432.1323">[consommer un message unique]</text>
    <path d="M327.749,444.0547 L520.002,444.0547 L520.002,451.1875 L510.002,461.1875 L327.749,461.1875 L327.749,444.0547 " fill="#EEEEEE" style="stroke:#000000;stroke-width:1.5;"/>
    <rect fill="none" height="59.2656" style="stroke:#000000;stroke-width:1.5;" width="985.8101" x="327.749" y="444.0547"/>
    <text fill="#000000" font-family="sans-serif" font-size="13" font-weight="bold" lengthAdjust="spacing" textLength="147.2529" x="342.749" y="457.1216">Valider l&apos;événement</text>
    <line style="stroke:#181818;stroke-width:1.0;" x1="520.4653" x2="562.4653" y1="482.3203" y2="482.3203"/>
    <line style="stroke:#181818;stroke-width:1.0;" x1="562.4653" x2="562.4653" y1="482.3203" y2="495.3203"/>
    <line style="stroke:#181818;stroke-width:1.0;" x1="521.4653" x2="562.4653" y1="495.3203" y2="495.3203"/>
    <polygon fill="#181818" points="530.4653,478.3203,520.4653,482.3203,530.4653,486.3203,526.4653,482.3203" style="stroke:#181818;stroke-width:1.0;"/>
    <polygon fill="#181818" points="531.4653,491.3203,521.4653,495.3203,531.4653,499.3203,527.4653,495.3203" style="stroke:#181818;stroke-width:1.0;"/>
    <text fill="#000000" font-family="sans-serif" font-size="13" font-weight="bold" lengthAdjust="spacing" textLength="9.0454" x="527.4653" y="477.2544">3</text>
    <text fill="#000000" font-family="sans-serif" font-size="13" lengthAdjust="spacing" textLength="751.0483" x="540.5107" y="477.2544">Valider l&apos;événement — Règle : type == &apos;notification&apos; &amp;&amp; [action IN [&apos;reject&apos;, &apos;timeout-received&apos;, &apos;timeout-reserved&apos;]]</text>
    <polygon fill="#181818" points="1301.5591,542.5859,1311.5591,546.5859,1301.5591,550.5859,1305.5591,546.5859" style="stroke:#181818;stroke-width:1.0;"/>
    <line style="stroke:#181818;stroke-width:1.0;" x1="520.4653" x2="1307.5591" y1="546.5859" y2="546.5859"/>
    <text fill="#000000" font-family="sans-serif" font-size="13" font-weight="bold" lengthAdjust="spacing" textLength="9.0454" x="527.4653" y="533.9536">4</text>
    <text fill="#000000" font-family="sans-serif" font-size="13" lengthAdjust="spacing" textLength="311.5176" x="540.5107" y="526.3872">Demander les détails de callback du participant</text>
    <text fill="#000000" font-family="sans-serif" font-size="13" lengthAdjust="spacing" textLength="4.1323" x="540.5107" y="541.52"> </text>
    <text fill="#FF0000" font-family="sans-serif" font-size="13" font-weight="bold" lengthAdjust="spacing" textLength="110.2524" x="544.6431" y="541.52">Code d&apos;erreur :</text>
    <text fill="#FF0000" font-family="sans-serif" font-size="13" lengthAdjust="spacing" textLength="33.084" x="659.0278" y="541.52">3201</text>
    <rect fill="none" height="39.1016" style="stroke:#000000;stroke-width:1.5;" width="1060.9624" x="334.749" y="554.5859"/>
    <path d="M334.749,554.5859 L399.749,554.5859 L399.749,561.5859 L389.749,571.5859 L334.749,571.5859 L334.749,554.5859 " fill="#EEEEEE" style="stroke:#000000;stroke-width:2.0;"/>
    <text fill="#000000" font-family="sans-serif" font-size="13" font-weight="bold" lengthAdjust="spacing" textLength="20.8838" x="347.749" y="568.6528">ref</text>
    <text fill="#000000" font-family="sans-serif" font-size="12" lengthAdjust="spacing" textLength="269.373" x="730.5437" y="586.7246">Obtenir les détails de callback du participant</text>
    <polygon fill="#181818" points="531.4653,615.8203,521.4653,619.8203,531.4653,623.8203,527.4653,619.8203" style="stroke:#181818;stroke-width:1.0;"/>
    <line style="stroke:#181818;stroke-width:1.0;stroke-dasharray:2.0,2.0;" x1="525.4653" x2="1312.5591" y1="619.8203" y2="619.8203"/>
    <text fill="#000000" font-family="sans-serif" font-size="13" font-weight="bold" lengthAdjust="spacing" textLength="9.0454" x="537.4653" y="614.7544">5</text>
    <text fill="#000000" font-family="sans-serif" font-size="13" lengthAdjust="spacing" textLength="308.293" x="550.5107" y="614.7544">Retourner les détails de callback du participant</text>
    <path d="M186,632.8203 L186,793.8203 L505,793.8203 L505,642.8203 L495,632.8203 L186,632.8203 " fill="#FFFF00" style="stroke:#181818;stroke-width:0.5;"/>
    <path d="M495,632.8203 L495,642.8203 L505,642.8203 L495,632.8203 " fill="#FFFF00" style="stroke:#181818;stroke-width:0.5;"/>
    <text fill="#000000" font-family="sans-serif" font-size="13" lengthAdjust="spacing" textLength="65.4888" x="192" y="649.8872">Message :</text>
    <text fill="#000000" font-family="sans-serif" font-size="13" lengthAdjust="spacing" textLength="8.271" x="192" y="665.02">{</text>
    <text fill="#000000" font-family="sans-serif" font-size="13" lengthAdjust="spacing" textLength="60.1377" x="208.5293" y="680.1528">id: &lt;ID&gt;,</text>
    <text fill="#000000" font-family="sans-serif" font-size="13" lengthAdjust="spacing" textLength="269.6484" x="208.5293" y="695.2856">from: &lt;transferHeaders.FSPIOP-Source&gt;,</text>
    <text fill="#000000" font-family="sans-serif" font-size="13" lengthAdjust="spacing" textLength="281.8232" x="208.5293" y="710.4185">to: &lt;transferHeaders.FSPIOP-Destination&gt;,</text>
    <text fill="#000000" font-family="sans-serif" font-size="13" lengthAdjust="spacing" textLength="144.3521" x="208.5293" y="725.5513">type: application/json,</text>
    <text fill="#000000" font-family="sans-serif" font-size="13" lengthAdjust="spacing" textLength="66.5552" x="208.5293" y="740.6841">content: {</text>
    <text fill="#000000" font-family="sans-serif" font-size="13" lengthAdjust="spacing" textLength="190.3091" x="225.0586" y="755.8169">payload: &lt;transferMessage&gt;</text>
    <text fill="#000000" font-family="sans-serif" font-size="13" lengthAdjust="spacing" textLength="12.4033" x="208.5293" y="770.9497">},</text>
    <text fill="#000000" font-family="sans-serif" font-size="13" lengthAdjust="spacing" textLength="8.271" x="192" y="786.0825">}</text>
    <polygon fill="#181818" points="144.6318,831.4141,134.6318,835.4141,144.6318,839.4141,140.6318,835.4141" style="stroke:#181818;stroke-width:1.0;"/>
    <line style="stroke:#181818;stroke-width:1.0;stroke-dasharray:2.0,2.0;" x1="138.6318" x2="509.4653" y1="835.4141" y2="835.4141"/>
    <text fill="#000000" font-family="sans-serif" font-size="13" font-weight="bold" lengthAdjust="spacing" textLength="9.0454" x="150.6318" y="822.7817">6</text>
    <text fill="#000000" font-family="sans-serif" font-size="13" lengthAdjust="spacing" textLength="223.8311" x="163.6772" y="815.2153">Envoyer la notification de callback</text>
    <text fill="#000000" font-family="sans-serif" font-size="13" lengthAdjust="spacing" textLength="4.1323" x="163.6772" y="830.3481"> </text>
    <text fill="#FF0000" font-family="sans-serif" font-size="13" font-weight="bold" lengthAdjust="spacing" textLength="110.2524" x="167.8096" y="830.3481">Code d&apos;erreur :</text>
    <text fill="#FF0000" font-family="sans-serif" font-size="13" lengthAdjust="spacing" textLength="115.7813" x="282.1943" y="830.3481">1000, 1001, 3002</text>
    <line style="stroke:#000000;stroke-width:1.0;stroke-dasharray:2.0,2.0;" x1="96.3574" x2="1580.4614" y1="844.4141" y2="844.4141"/>
    <text fill="#000000" font-family="sans-serif" font-size="11" font-weight="bold" lengthAdjust="spacing" textLength="312.2432" x="101.3574" y="854.6245">[Règle de validation type != &apos;notification&apos; / Erreur]</text>
    <path d="M525,863.2188 L525,978.2188 L820,978.2188 L820,873.2188 L810,863.2188 L525,863.2188 " fill="#FFFF00" style="stroke:#181818;stroke-width:0.5;"/>
    <path d="M810,863.2188 L810,873.2188 L820,873.2188 L810,863.2188 " fill="#FFFF00" style="stroke:#181818;stroke-width:0.5;"/>
    <text fill="#000000" font-family="sans-serif" font-size="13" lengthAdjust="spacing" textLength="65.4888" x="531" y="880.2856">Message :</text>
    <text fill="#000000" font-family="sans-serif" font-size="13" lengthAdjust="spacing" textLength="8.271" x="531" y="895.4185">{</text>
    <text fill="#000000" font-family="sans-serif" font-size="13" lengthAdjust="spacing" textLength="136.208" x="547.5293" y="910.5513">&quot;errorInformation&quot;: {</text>
    <text fill="#000000" font-family="sans-serif" font-size="13" lengthAdjust="spacing" textLength="176.9219" x="564.0586" y="925.6841">&quot;errorCode&quot;: &lt;errorCode&gt;,</text>
    <text fill="#000000" font-family="sans-serif" font-size="13" lengthAdjust="spacing" textLength="241.5918" x="564.0586" y="940.8169">&quot;errorDescription&quot;: &lt;ErrorMessage&gt;,</text>
    <text fill="#000000" font-family="sans-serif" font-size="13" lengthAdjust="spacing" textLength="8.271" x="547.5293" y="955.9497">}</text>
    <text fill="#000000" font-family="sans-serif" font-size="13" lengthAdjust="spacing" textLength="8.271" x="531" y="971.0825">}</text>
    <polygon fill="#181818" points="1459.3008,1016.4141,1469.3008,1020.4141,1459.3008,1024.4141,1463.3008,1020.4141" style="stroke:#181818;stroke-width:1.0;"/>
    <line style="stroke:#181818;stroke-width:1.0;" x1="520.4653" x2="1465.3008" y1="1020.4141" y2="1020.4141"/>
    <text fill="#000000" font-family="sans-serif" font-size="13" font-weight="bold" lengthAdjust="spacing" textLength="9.0454" x="527.4653" y="1007.7817">7</text>
    <text fill="#000000" font-family="sans-serif" font-size="13" lengthAdjust="spacing" textLength="379.5581" x="540.5107" y="1000.2153">Messages invalides récupérés depuis le topic Notifications</text>
    <text fill="#000000" font-family="sans-serif" font-size="13" lengthAdjust="spacing" textLength="4.1323" x="540.5107" y="1015.3481"> </text>
    <text fill="#FF0000" font-family="sans-serif" font-size="13" font-weight="bold" lengthAdjust="spacing" textLength="110.2524" x="544.6431" y="1015.3481">Code d&apos;erreur :</text>
    <text fill="#FF0000" font-family="sans-serif" font-size="13" lengthAdjust="spacing" textLength="33.084" x="659.0278" y="1015.3481">3201</text>
    <rect fill="none" height="39.1016" style="stroke:#000000;stroke-width:1.5;" width="173.75" x="1399.7114" y="1058.4141"/>
    <path d="M1399.7114,1058.4141 L1464.7114,1058.4141 L1464.7114,1065.4141 L1454.7114,1075.4141 L1399.7114,1075.4141 L1399.7114,1058.4141 " fill="#EEEEEE" style="stroke:#000000;stroke-width:2.0;"/>
    <text fill="#000000" font-family="sans-serif" font-size="13" font-weight="bold" lengthAdjust="spacing" textLength="20.8838" x="1412.7114" y="1072.481">ref</text>
    <text fill="#000000" font-family="sans-serif" font-size="12" lengthAdjust="spacing" textLength="165.75" x="1403.7114" y="1090.5527">Gestionnaire d&apos;événements</text>
    <path d="M525,1107.5156 L525,1147.5156 L1001,1147.5156 L1001,1117.5156 L991,1107.5156 L525,1107.5156 " fill="#ADD8E6" style="stroke:#181818;stroke-width:0.5;"/>
    <path d="M991,1107.5156 L991,1117.5156 L1001,1117.5156 L991,1107.5156 " fill="#ADD8E6" style="stroke:#181818;stroke-width:0.5;"/>
    <text fill="#000000" font-family="sans-serif" font-size="13" lengthAdjust="spacing" textLength="229.7598" x="531" y="1124.5825">Journaliser les messages d&apos;ERREUR</text>
    <text fill="#000000" font-family="sans-serif" font-size="13" lengthAdjust="spacing" textLength="455.7744" x="531" y="1139.7153">Mettre à jour le journal d&apos;événements lors de la notification d&apos;ERREUR</text>
  </g>
</svg>
