<svg xmlns="http://www.w3.org/2000/svg" height="1992" preserveAspectRatio="none" style="width:1743px;height:1992px" width="1743">
  <defs>
    <filter height="300%" id="a" width="300%" x="-1" y="-1">
      <feGaussianBlur result="blurOut" stdDeviation="2"/>
      <feColorMatrix in="blurOut" result="blurOut2" values="0 0 0 0 0 0 0 0 0 0 0 0 0 0 0 0 0 0 .4 0"/>
      <feOffset dx="4" dy="4" in="blurOut2" result="blurOut3"/>
      <feBlend in="SourceGraphic" in2="blurOut3"/>
    </filter>
  </defs>
  <text font-family="sans-serif" font-size="18" lengthAdjust="spacingAndGlyphs" textLength="278" x="730.5" y="28.708">
    1.1.0 Manage Participant Limits
  </text>
  <path fill="#FFFFE0" stroke="#a80036" d="M961.5 40.953H1680v1945.164H961.5z"/>
  <text font-family="sans-serif" font-size="13" font-weight="bold" lengthAdjust="spacingAndGlyphs" textLength="119" x="1261.25" y="53.02">
    Central Services
  </text>
  <path fill="#FFF" filter="url(#a)" stroke="#a80036" d="M84 133.25h10v1741.57H84zM721 178.516h10v1696.305h-10zM1028 382.977h10v1462.711h-10zM1385 427.242h10v135.664h-10zM1385 673.438h10v120.531h-10zM1385 1058.563h10v120.531h-10zM1623 456.375h10v77.398h-10zM1623 702.57h10v62.266h-10zM1623 1087.695h10v62.266h-10z"/>
  <path fill="#FFF" filter="url(#a)" stroke="#000" stroke-width="2" d="M10 140.25h1719v1742.57H10z"/>
  <path fill="#FFF" filter="url(#a)" stroke="#000" stroke-width="2" d="M20 620.039h1699v1197.516H20z"/>
  <path fill="#FFF" filter="url(#a)" stroke="#000" stroke-width="2" d="M945.5 851.102H1709v526.859H945.5z"/>
  <path fill="#FFF" filter="url(#a)" stroke="#000" stroke-width="2" d="M955.5 875.234H1699v311.859H955.5z"/>
  <path fill="#FFF" d="M945.5 1194.094H1709v183.867H945.5zM20 1633.688h1699v183.867H20z"/>
  <path stroke="#a80036" stroke-dasharray="5,5" d="M89 123.25v1776.57M726 123.25v1776.57M1032.5 123.25v1776.57M1389.5 123.25v1776.57M1628 123.25v1776.57"/>
  <text font-family="sans-serif" font-size="14" lengthAdjust="spacingAndGlyphs" textLength="112" x="30" y="119.948">
    HUB OPERATOR
  </text>
  <circle cx="89" cy="49.953" fill="#FEFECE" filter="url(#a)" stroke="#a80036" stroke-width="2" r="8"/>
  <path d="M89 57.953v27m-13-19h26m-13 19l-13 15m13-15l13 15" fill="none" filter="url(#a)" stroke="#a80036" stroke-width="2"/>
  <text font-family="sans-serif" font-size="14" lengthAdjust="spacingAndGlyphs" textLength="112" x="30" y="1911.815">
    HUB OPERATOR
  </text>
  <circle cx="89" cy="1925.117" fill="#FEFECE" filter="url(#a)" stroke="#a80036" stroke-width="2" r="8"/>
  <path d="M89 1933.117v27m-13-19h26m-13 19l-13 15m13-15l13 15" fill="none" filter="url(#a)" stroke="#a80036" stroke-width="2"/>
  <text font-family="sans-serif" font-size="14" lengthAdjust="spacingAndGlyphs" textLength="128" x="659" y="119.948">
    Central Service API
  </text>
  <path d="M705.5 78.953v24m0-12h17" fill="none" filter="url(#a)" stroke="#a80036" stroke-width="2"/>
  <circle cx="734.5" cy="90.953" fill="#FEFECE" filter="url(#a)" stroke="#a80036" stroke-width="2" r="12"/>
  <text font-family="sans-serif" font-size="14" lengthAdjust="spacingAndGlyphs" textLength="128" x="659" y="1911.815">
    Central Service API
  </text>
  <path d="M705.5 1919.117v24m0-12h17" fill="none" filter="url(#a)" stroke="#a80036" stroke-width="2"/>
  <circle cx="734.5" cy="1931.117" fill="#FEFECE" filter="url(#a)" stroke="#a80036" stroke-width="2" r="12"/>
  <text font-family="sans-serif" font-size="14" lengthAdjust="spacingAndGlyphs" textLength="129" x="965.5" y="119.948">
    Participant Handler
  </text>
  <circle cx="1033" cy="90.953" fill="#FEFECE" filter="url(#a)" stroke="#a80036" stroke-width="2" r="12"/>
  <path fill="#A80036" stroke="#a80036" d="M1029 78.953l6-5-2 5 2 5-6-5z"/>
  <text font-family="sans-serif" font-size="14" lengthAdjust="spacingAndGlyphs" textLength="129" x="965.5" y="1911.815">
    Participant Handler
  </text>
  <circle cx="1033" cy="1931.117" fill="#FEFECE" filter="url(#a)" stroke="#a80036" stroke-width="2" r="12"/>
  <path fill="#A80036" stroke="#a80036" d="M1029 1919.117l6-5-2 5 2 5-6-5z"/>
  <text font-family="sans-serif" font-size="14" lengthAdjust="spacingAndGlyphs" textLength="107" x="1333.5" y="119.948">
    Participant DAO
  </text>
  <circle cx="1390" cy="90.953" fill="#FEFECE" filter="url(#a)" stroke="#a80036" stroke-width="2" r="12"/>
  <path stroke="#a80036" stroke-width="2" d="M1378 104.953h24"/>
  <text font-family="sans-serif" font-size="14" lengthAdjust="spacingAndGlyphs" textLength="107" x="1333.5" y="1911.815">
    Participant DAO
  </text>
  <circle cx="1390" cy="1931.117" fill="#FEFECE" filter="url(#a)" stroke="#a80036" stroke-width="2" r="12"/>
  <path stroke="#a80036" stroke-width="2" d="M1378 1945.117h24"/>
  <text font-family="sans-serif" font-size="14" lengthAdjust="spacingAndGlyphs" textLength="90" x="1580" y="119.948">
    Central Store
  </text>
  <path d="M1610 70.953c0-10 18-10 18-10s18 0 18 10v26c0 10-18 10-18 10s-18 0-18-10v-26" fill="#FEFECE" filter="url(#a)" stroke="#000" stroke-width="1.5"/>
  <path d="M1610 70.953c0 10 18 10 18 10s18 0 18-10" fill="none" stroke="#000" stroke-width="1.5"/>
  <text font-family="sans-serif" font-size="14" lengthAdjust="spacingAndGlyphs" textLength="90" x="1580" y="1911.815">
    Central Store
  </text>
  <path d="M1610 1925.117c0-10 18-10 18-10s18 0 18 10v26c0 10-18 10-18 10s-18 0-18-10v-26" fill="#FEFECE" filter="url(#a)" stroke="#000" stroke-width="1.5"/>
  <path d="M1610 1925.117c0 10 18 10 18 10s18 0 18-10" fill="none" stroke="#000" stroke-width="1.5"/>
  <path fill="#FFF" filter="url(#a)" stroke="#a80036" d="M84 133.25h10v1741.57H84zM721 178.516h10v1696.305h-10zM1028 382.977h10v1462.711h-10zM1385 427.242h10v135.664h-10zM1385 673.438h10v120.531h-10zM1385 1058.563h10v120.531h-10zM1623 456.375h10v77.398h-10zM1623 702.57h10v62.266h-10zM1623 1087.695h10v62.266h-10z"/>
  <path d="M10 140.25h214v7l-10 10H10v-17" fill="#EEE" stroke="#000"/>
  <path fill="none" stroke="#000" stroke-width="2" d="M10 140.25h1719v1742.57H10z"/>
  <text font-family="sans-serif" font-size="13" font-weight="bold" lengthAdjust="spacingAndGlyphs" textLength="169" x="25" y="153.317">
    Manage Net Debit Cap
  </text>
  <path fill="#A80036" stroke="#a80036" d="M709 174.516l10 4-10 4 4-4z"/>
  <path stroke="#a80036" d="M94 178.516h621"/>
  <text font-family="sans-serif" font-size="13" font-weight="bold" lengthAdjust="spacingAndGlyphs" textLength="9" x="101" y="173.45">
    1
  </text>
  <text font-family="sans-serif" font-size="13" lengthAdjust="spacingAndGlyphs" textLength="595" x="114" y="173.45">
    Request to adjust Participant Limit for a certain Currency - POST - /participants/{name}/limits
  </text>
  <path d="M99 191.516v161h178v-151l-10-10H99" fill="#FF0" filter="url(#a)" stroke="#a80036"/>
  <path d="M267 191.516v10h10l-10-10" fill="#FF0" stroke="#a80036"/>
  <text font-family="sans-serif" font-size="13" lengthAdjust="spacingAndGlyphs" textLength="61" x="105" y="208.583">
    Message:
  </text>
  <text font-family="sans-serif" font-size="13" lengthAdjust="spacingAndGlyphs" textLength="8" x="105" y="223.715">
    {
  </text>
  <text font-family="sans-serif" font-size="13" lengthAdjust="spacingAndGlyphs" textLength="66" x="121" y="238.848">
    payload: {
  </text>
  <text font-family="sans-serif" font-size="13" lengthAdjust="spacingAndGlyphs" textLength="125" x="137" y="253.981">
    currency: &lt;string&gt;,
  </text>
  <text font-family="sans-serif" font-size="13" lengthAdjust="spacingAndGlyphs" textLength="43" x="137" y="269.114">
    limit: {
  </text>
  <text font-family="sans-serif" font-size="13" lengthAdjust="spacingAndGlyphs" textLength="98" x="153" y="284.247">
    type: &lt;string&gt;,
  </text>
  <text font-family="sans-serif" font-size="13" lengthAdjust="spacingAndGlyphs" textLength="75" x="153" y="299.379">
    value: &lt;Id&gt;
  </text>
  <text font-family="sans-serif" font-size="13" lengthAdjust="spacingAndGlyphs" textLength="8" x="137" y="314.512">
    }
  </text>
  <text font-family="sans-serif" font-size="13" lengthAdjust="spacingAndGlyphs" textLength="8" x="121" y="329.645">
    }
  </text>
  <text font-family="sans-serif" font-size="13" lengthAdjust="spacingAndGlyphs" textLength="8" x="105" y="344.778">
    }
  </text>
  <path fill="#A80036" stroke="#a80036" d="M1016 378.977l10 4-10 4 4-4z"/>
  <path stroke="#a80036" d="M731 382.977h291"/>
  <text font-family="sans-serif" font-size="13" font-weight="bold" lengthAdjust="spacingAndGlyphs" textLength="9" x="738" y="377.911">
    2
  </text>
  <text font-family="sans-serif" font-size="13" lengthAdjust="spacingAndGlyphs" textLength="168" x="751" y="377.911">
    Adjust Limit for Participant
  </text>
  <path fill="#A80036" stroke="#a80036" d="M1373 423.242l10 4-10 4 4-4z"/>
  <path stroke="#a80036" d="M1038 427.242h341"/>
  <text font-family="sans-serif" font-size="13" font-weight="bold" lengthAdjust="spacingAndGlyphs" textLength="9" x="1045" y="414.61">
    3
  </text>
  <text font-family="sans-serif" font-size="13" lengthAdjust="spacingAndGlyphs" textLength="166" x="1058" y="407.043">
    Fetch Participant/currency
  </text>
  <text fill="red" font-family="sans-serif" font-size="13" font-weight="bold" lengthAdjust="spacingAndGlyphs" textLength="82" x="1058" y="422.176">
    Error code:
  </text>
  <text fill="red" font-family="sans-serif" font-size="13" lengthAdjust="spacingAndGlyphs" textLength="32" x="1144" y="422.176">
    3200
  </text>
  <path fill="#A80036" stroke="#a80036" d="M1611 452.375l10 4-10 4 4-4z"/>
  <path stroke="#a80036" d="M1395 456.375h222"/>
  <text font-family="sans-serif" font-size="13" font-weight="bold" lengthAdjust="spacingAndGlyphs" textLength="9" x="1402" y="451.309">
    4
  </text>
  <text font-family="sans-serif" font-size="13" lengthAdjust="spacingAndGlyphs" textLength="166" x="1415" y="451.309">
    Fetch Participant/currency
  </text>
  <path fill="#FFFFE0" filter="url(#a)" stroke="#a80036" d="M1563 469.375h129l10 19-10 19h-129l-10-19 10-19z"/>
  <text font-family="sans-serif" font-size="13" lengthAdjust="spacingAndGlyphs" textLength="68" x="1565" y="485.442">
    participant
  </text>
  <text font-family="sans-serif" font-size="13" lengthAdjust="spacingAndGlyphs" textLength="125" x="1565" y="500.575">
    participantCurrency
  </text>
  <path fill="#A80036" stroke="#a80036" d="M1406 529.773l-10 4 10 4-4-4z"/>
  <path stroke="#a80036" stroke-dasharray="2,2" d="M1400 533.773h227"/>
  <text font-family="sans-serif" font-size="13" font-weight="bold" lengthAdjust="spacingAndGlyphs" textLength="9" x="1412" y="528.707">
    5
  </text>
  <text font-family="sans-serif" font-size="13" lengthAdjust="spacingAndGlyphs" textLength="191" x="1425" y="528.707">
    Retrieved Participant/currency
  </text>
  <path fill="#A80036" stroke="#a80036" d="M1049 558.906l-10 4 10 4-4-4z"/>
  <path stroke="#a80036" stroke-dasharray="2,2" d="M1043 562.906h346"/>
  <text font-family="sans-serif" font-size="13" font-weight="bold" lengthAdjust="spacingAndGlyphs" textLength="9" x="1055" y="557.84">
    6
  </text>
  <text font-family="sans-serif" font-size="13" lengthAdjust="spacingAndGlyphs" textLength="173" x="1068" y="557.84">
    Return Participant/currency
  </text>
  <path stroke="#a80036" d="M1038 592.039h42M1080 592.039v13M1039 605.039h41"/>
  <path fill="#A80036" stroke="#a80036" d="M1049 601.04l-10 4 10 4-4-4z"/>
  <text font-family="sans-serif" font-size="13" font-weight="bold" lengthAdjust="spacingAndGlyphs" textLength="9" x="1045" y="586.973">
    7
  </text>
  <text font-family="sans-serif" font-size="13" lengthAdjust="spacingAndGlyphs" textLength="90" x="1058" y="586.973">
    Validate DFSP
  </text>
  <path d="M20 620.04h64v7l-10 10H20v-17" fill="#EEE" stroke="#000"/>
  <path fill="none" stroke="#000" stroke-width="2" d="M20 620.039h1699v1197.516H20z"/>
  <text font-family="sans-serif" font-size="13" font-weight="bold" lengthAdjust="spacingAndGlyphs" textLength="19" x="35" y="633.106">
    alt
  </text>
  <text font-family="sans-serif" font-size="11" font-weight="bold" lengthAdjust="spacingAndGlyphs" textLength="202" x="99" y="632.25">
    [Validate participant (success)]
  </text>
  <path fill="#A80036" stroke="#a80036" d="M1373 669.438l10 4-10 4 4-4z"/>
  <path stroke="#a80036" d="M1038 673.438h341"/>
  <text font-family="sans-serif" font-size="13" font-weight="bold" lengthAdjust="spacingAndGlyphs" textLength="9" x="1045" y="660.805">
    8
  </text>
  <text font-family="sans-serif" font-size="13" lengthAdjust="spacingAndGlyphs" textLength="298" x="1058" y="653.239">
    (for ParticipantCurrency) Fetch ParticipantLimit
  </text>
  <text fill="red" font-family="sans-serif" font-size="13" font-weight="bold" lengthAdjust="spacingAndGlyphs" textLength="82" x="1058" y="668.372">
    Error code:
  </text>
  <text fill="red" font-family="sans-serif" font-size="13" lengthAdjust="spacingAndGlyphs" textLength="32" x="1144" y="668.372">
    3200
  </text>
  <path fill="#A80036" stroke="#a80036" d="M1611 698.57l10 4-10 4 4-4z"/>
  <path stroke="#a80036" d="M1395 702.57h222"/>
  <text font-family="sans-serif" font-size="13" font-weight="bold" lengthAdjust="spacingAndGlyphs" textLength="9" x="1402" y="697.504">
    9
  </text>
  <text font-family="sans-serif" font-size="13" lengthAdjust="spacingAndGlyphs" textLength="138" x="1415" y="697.504">
    Fetch ParticipantLimit
  </text>
  <path fill="#FFFFE0" filter="url(#a)" stroke="#a80036" d="M1576 715.57h103l10 11-10 12h-103l-10-12 10-11z"/>
  <text font-family="sans-serif" font-size="13" lengthAdjust="spacingAndGlyphs" textLength="99" x="1578" y="731.637">
    participantLimit
  </text>
  <path fill="#A80036" stroke="#a80036" d="M1406 760.836l-10 4 10 4-4-4z"/>
  <path stroke="#a80036" stroke-dasharray="2,2" d="M1400 764.836h227"/>
  <text font-family="sans-serif" font-size="13" font-weight="bold" lengthAdjust="spacingAndGlyphs" textLength="18" x="1412" y="759.77">
    10
  </text>
  <text font-family="sans-serif" font-size="13" lengthAdjust="spacingAndGlyphs" textLength="163" x="1434" y="759.77">
    Retrieved ParticipantLimit
  </text>
  <path fill="#A80036" stroke="#a80036" d="M1049 789.969l-10 4 10 4-4-4z"/>
  <path stroke="#a80036" stroke-dasharray="2,2" d="M1043 793.969h346"/>
  <text font-family="sans-serif" font-size="13" font-weight="bold" lengthAdjust="spacingAndGlyphs" textLength="18" x="1055" y="788.903">
    11
  </text>
  <text font-family="sans-serif" font-size="13" lengthAdjust="spacingAndGlyphs" textLength="145" x="1077" y="788.903">
    Return ParticipantLimit
  </text>
  <path stroke="#a80036" d="M1038 823.102h42M1080 823.102v13M1039 836.102h41"/>
  <path fill="#A80036" stroke="#a80036" d="M1049 832.102l-10 4 10 4-4-4z"/>
  <text font-family="sans-serif" font-size="13" font-weight="bold" lengthAdjust="spacingAndGlyphs" textLength="18" x="1045" y="818.036">
    12
  </text>
  <text font-family="sans-serif" font-size="13" lengthAdjust="spacingAndGlyphs" textLength="155" x="1067" y="818.036">
    Validate ParticipantLimit
  </text>
  <path d="M945.5 851.102h64v7l-10 10h-54v-17" fill="#EEE" stroke="#000"/>
  <path fill="none" stroke="#000" stroke-width="2" d="M945.5 851.102H1709v526.859H945.5z"/>
  <text font-family="sans-serif" font-size="13" font-weight="bold" lengthAdjust="spacingAndGlyphs" textLength="19" x="960.5" y="864.168">
    alt
  </text>
  <text font-family="sans-serif" font-size="11" font-weight="bold" lengthAdjust="spacingAndGlyphs" textLength="233" x="1024.5" y="863.312">
    [Validate participantLimit (success)]
  </text>
  <path d="M955.5 875.234h643v7l-10 10h-633v-17" fill="#EEE" stroke="#000"/>
  <path fill="none" stroke="#000" stroke-width="2" d="M955.5 875.234H1699v311.859H955.5z"/>
  <text font-family="sans-serif" font-size="13" font-weight="bold" lengthAdjust="spacingAndGlyphs" textLength="598" x="970.5" y="888.301">
    DB TRANSACTION IMPLEMENTATION - Lock on ParticipantLimit table with UPDATE
  </text>
  <path d="M1395 897.367v115h230v-105l-10-10h-220" fill="#D3D3D3" filter="url(#a)" stroke="#a80036"/>
  <path d="M1615 897.367v10h10l-10-10" fill="#D3D3D3" stroke="#a80036"/>
  <text font-family="sans-serif" font-size="13" lengthAdjust="spacingAndGlyphs" textLength="209" x="1401" y="914.434">
    If (record exists &amp;&amp; isActive = 1)
  </text>
  <text font-family="sans-serif" font-size="13" lengthAdjust="spacingAndGlyphs" textLength="148" x="1417" y="929.567">
    oldIsActive.isActive = 0
  </text>
  <text font-family="sans-serif" font-size="13" lengthAdjust="spacingAndGlyphs" textLength="84" x="1417" y="944.7">
    insert Record
  </text>
  <text font-family="sans-serif" font-size="13" lengthAdjust="spacingAndGlyphs" textLength="26" x="1401" y="959.832">
    Else
  </text>
  <text font-family="sans-serif" font-size="13" lengthAdjust="spacingAndGlyphs" textLength="84" x="1417" y="974.965">
    insert Record
  </text>
  <text font-family="sans-serif" font-size="13" lengthAdjust="spacingAndGlyphs" textLength="24" x="1401" y="990.098">
    End
  </text>
  <path fill="#A80036" stroke="#a80036" d="M1373 1054.563l10 4-10 4 4-4z"/>
  <path stroke="#a80036" d="M1038 1058.563h341"/>
  <text font-family="sans-serif" font-size="13" font-weight="bold" lengthAdjust="spacingAndGlyphs" textLength="18" x="1045" y="1045.93">
    13
  </text>
  <text font-family="sans-serif" font-size="13" lengthAdjust="spacingAndGlyphs" textLength="302" x="1067" y="1038.364">
    (for ParticipantLimit) Insert new ParticipantLimit
  </text>
  <text fill="red" font-family="sans-serif" font-size="13" font-weight="bold" lengthAdjust="spacingAndGlyphs" textLength="82" x="1067" y="1053.497">
    Error code:
  </text>
  <text fill="red" font-family="sans-serif" font-size="13" lengthAdjust="spacingAndGlyphs" textLength="32" x="1153" y="1053.497">
    3200
  </text>
  <path fill="#A80036" stroke="#a80036" d="M1611 1083.695l10 4-10 4 4-4z"/>
  <path stroke="#a80036" d="M1395 1087.695h222"/>
  <text font-family="sans-serif" font-size="13" font-weight="bold" lengthAdjust="spacingAndGlyphs" textLength="18" x="1402" y="1082.629">
    14
  </text>
  <text font-family="sans-serif" font-size="13" lengthAdjust="spacingAndGlyphs" textLength="139" x="1424" y="1082.629">
    Insert ParticipantLimit
  </text>
  <path fill="#FFFFE0" filter="url(#a)" stroke="#a80036" d="M1576 1100.695h103l10 11-10 12h-103l-10-12 10-11z"/>
  <text font-family="sans-serif" font-size="13" lengthAdjust="spacingAndGlyphs" textLength="99" x="1578" y="1116.762">
    participantLimit
  </text>
  <path fill="#A80036" stroke="#a80036" d="M1406 1145.96l-10 4 10 4-4-4z"/>
  <path stroke="#a80036" stroke-dasharray="2,2" d="M1400 1149.961h227"/>
  <text font-family="sans-serif" font-size="13" font-weight="bold" lengthAdjust="spacingAndGlyphs" textLength="18" x="1412" y="1144.895">
    15
  </text>
  <text font-family="sans-serif" font-size="13" lengthAdjust="spacingAndGlyphs" textLength="155" x="1434" y="1144.895">
    Inserted ParticipantLimit
  </text>
  <path fill="#A80036" stroke="#a80036" d="M1049 1175.094l-10 4 10 4-4-4z"/>
  <path stroke="#a80036" stroke-dasharray="2,2" d="M1043 1179.094h346"/>
  <text font-family="sans-serif" font-size="13" font-weight="bold" lengthAdjust="spacingAndGlyphs" textLength="18" x="1055" y="1174.028">
    16
  </text>
  <text font-family="sans-serif" font-size="13" lengthAdjust="spacingAndGlyphs" textLength="145" x="1077" y="1174.028">
    Return ParticipantLimit
  </text>
  <path stroke="#000" stroke-dasharray="2,2" d="M945.5 1195.094H1709"/>
  <text font-family="sans-serif" font-size="11" font-weight="bold" lengthAdjust="spacingAndGlyphs" textLength="224" x="950.5" y="1205.304">
    [Validate participantLimit (failure)]
  </text>
  <path d="M1043 1213.898v25h132v-15l-10-10h-122" fill="red" filter="url(#a)" stroke="#a80036"/>
  <path d="M1165 1213.898v10h10l-10-10" fill="red" stroke="#a80036"/>
  <text font-family="sans-serif" font-size="13" lengthAdjust="spacingAndGlyphs" textLength="111" x="1049" y="1230.965">
    Validation failure!
  </text>
  <path d="M1043 1253.031v115h373v-105l-10-10h-363" fill="#FF0" filter="url(#a)" stroke="#a80036"/>
  <path d="M1406 1253.031v10h10l-10-10" fill="#FF0" stroke="#a80036"/>
  <text font-family="sans-serif" font-size="13" lengthAdjust="spacingAndGlyphs" textLength="61" x="1049" y="1270.098">
    Message:
  </text>
  <text font-family="sans-serif" font-size="13" lengthAdjust="spacingAndGlyphs" textLength="8" x="1065" y="1285.231">
    {
  </text>
  <text font-family="sans-serif" font-size="13" lengthAdjust="spacingAndGlyphs" textLength="130" x="1081" y="1300.364">
    &quot;errorInformation&quot;: {
  </text>
  <text font-family="sans-serif" font-size="13" lengthAdjust="spacingAndGlyphs" textLength="118" x="1097" y="1315.497">
    &quot;errorCode&quot;: 3200,
  </text>
  <text font-family="sans-serif" font-size="13" lengthAdjust="spacingAndGlyphs" textLength="304" x="1097" y="1330.629">
    &quot;errorDescription&quot;: &quot;ParticipantLimit Not Found&quot;,
  </text>
  <text font-family="sans-serif" font-size="13" lengthAdjust="spacingAndGlyphs" textLength="8" x="1081" y="1345.762">
    }
  </text>
  <text font-family="sans-serif" font-size="13" lengthAdjust="spacingAndGlyphs" textLength="8" x="1065" y="1360.895">
    }
  </text>
  <path fill="#A80036" stroke="#a80036" d="M742 1402.094l-10 4 10 4-4-4z"/>
  <path stroke="#a80036" stroke-dasharray="2,2" d="M736 1406.094h291"/>
  <text font-family="sans-serif" font-size="13" font-weight="bold" lengthAdjust="spacingAndGlyphs" textLength="18" x="748" y="1401.028">
    17
  </text>
  <text font-family="sans-serif" font-size="13" lengthAdjust="spacingAndGlyphs" textLength="251" x="770" y="1401.028">
    Return new Limit values and status 200
  </text>
  <path d="M1043 1419.094v176h287v-166l-10-10h-277" fill="#FF0" filter="url(#a)" stroke="#a80036"/>
  <path d="M1320 1419.094v10h10l-10-10" fill="#FF0" stroke="#a80036"/>
  <text font-family="sans-serif" font-size="13" lengthAdjust="spacingAndGlyphs" textLength="61" x="1049" y="1436.161">
    Message:
  </text>
  <text font-family="sans-serif" font-size="13" lengthAdjust="spacingAndGlyphs" textLength="8" x="1049" y="1451.293">
    {
  </text>
  <text font-family="sans-serif" font-size="13" lengthAdjust="spacingAndGlyphs" textLength="113" x="1065" y="1466.426">
    &quot;currency&quot;: &quot;EUR&quot;,
  </text>
  <text font-family="sans-serif" font-size="13" lengthAdjust="spacingAndGlyphs" textLength="53" x="1065" y="1481.559">
    &quot;limit&quot;: {
  </text>
  <text font-family="sans-serif" font-size="13" lengthAdjust="spacingAndGlyphs" textLength="204" x="1081" y="1496.692">
    &quot;participantLimitId&quot;: &lt;number&gt;,
  </text>
  <text font-family="sans-serif" font-size="13" lengthAdjust="spacingAndGlyphs" textLength="234" x="1081" y="1511.825">
    &quot;participantLimitTypeId&quot;: &lt;number&gt;,
  </text>
  <text font-family="sans-serif" font-size="13" lengthAdjust="spacingAndGlyphs" textLength="108" x="1081" y="1526.957">
    &quot;type&quot;: &lt;string&gt;,
  </text>
  <text font-family="sans-serif" font-size="13" lengthAdjust="spacingAndGlyphs" textLength="114" x="1081" y="1542.09">
    &quot;value&quot;: &lt;string&gt;,
  </text>
  <text font-family="sans-serif" font-size="13" lengthAdjust="spacingAndGlyphs" textLength="75" x="1081" y="1557.223">
    &quot;isActive&quot;: 1
  </text>
  <text font-family="sans-serif" font-size="13" lengthAdjust="spacingAndGlyphs" textLength="8" x="1065" y="1572.356">
    }
  </text>
  <text font-family="sans-serif" font-size="13" lengthAdjust="spacingAndGlyphs" textLength="8" x="1049" y="1587.489">
    }
  </text>
  <path fill="#A80036" stroke="#a80036" d="M105 1621.688l-10 4 10 4-4-4z"/>
  <path stroke="#a80036" stroke-dasharray="2,2" d="M99 1625.688h621"/>
  <text font-family="sans-serif" font-size="13" font-weight="bold" lengthAdjust="spacingAndGlyphs" textLength="18" x="111" y="1620.622">
    18
  </text>
  <text font-family="sans-serif" font-size="13" lengthAdjust="spacingAndGlyphs" textLength="251" x="133" y="1620.622">
    Return new Limit values and status 200
  </text>
  <path stroke="#000" stroke-dasharray="2,2" d="M20 1634.688h1699"/>
  <text font-family="sans-serif" font-size="11" font-weight="bold" lengthAdjust="spacingAndGlyphs" textLength="193" x="25" y="1644.898">
    [Validate participant (failure)]
  </text>
  <path d="M1043 1653.492v25h132v-15l-10-10h-122" fill="red" filter="url(#a)" stroke="#a80036"/>
  <path d="M1165 1653.492v10h10l-10-10" fill="red" stroke="#a80036"/>
  <text font-family="sans-serif" font-size="13" lengthAdjust="spacingAndGlyphs" textLength="111" x="1049" y="1670.559">
    Validation failure!
  </text>
  <path d="M1043 1692.625v115h313v-105l-10-10h-303" fill="#FF0" filter="url(#a)" stroke="#a80036"/>
  <path d="M1346 1692.625v10h10l-10-10" fill="#FF0" stroke="#a80036"/>
  <text font-family="sans-serif" font-size="13" lengthAdjust="spacingAndGlyphs" textLength="61" x="1049" y="1709.692">
    Message:
  </text>
  <text font-family="sans-serif" font-size="13" lengthAdjust="spacingAndGlyphs" textLength="8" x="1065" y="1724.825">
    {
  </text>
  <text font-family="sans-serif" font-size="13" lengthAdjust="spacingAndGlyphs" textLength="130" x="1081" y="1739.957">
    &quot;errorInformation&quot;: {
  </text>
  <text font-family="sans-serif" font-size="13" lengthAdjust="spacingAndGlyphs" textLength="118" x="1097" y="1755.09">
    &quot;errorCode&quot;: 3200,
  </text>
  <text font-family="sans-serif" font-size="13" lengthAdjust="spacingAndGlyphs" textLength="244" x="1097" y="1770.223">
    &quot;errorDescription&quot;: &quot;FSP id Not Found&quot;,
  </text>
  <text font-family="sans-serif" font-size="13" lengthAdjust="spacingAndGlyphs" textLength="8" x="1081" y="1785.356">
    }
  </text>
  <text font-family="sans-serif" font-size="13" lengthAdjust="spacingAndGlyphs" textLength="8" x="1065" y="1800.489">
    }
  </text>
  <path fill="#A80036" stroke="#a80036" d="M742 1841.688l-10 4 10 4-4-4z"/>
  <path stroke="#a80036" stroke-dasharray="2,2" d="M736 1845.688h296"/>
  <text font-family="sans-serif" font-size="13" font-weight="bold" lengthAdjust="spacingAndGlyphs" textLength="18" x="748" y="1840.622">
    19
  </text>
  <text font-family="sans-serif" font-size="13" lengthAdjust="spacingAndGlyphs" textLength="42" x="770" y="1840.622">
    Return
  </text>
  <text fill="red" font-family="sans-serif" font-size="13" font-weight="bold" lengthAdjust="spacingAndGlyphs" textLength="82" x="816" y="1840.622">
    Error code:
  </text>
  <text fill="red" font-family="sans-serif" font-size="13" lengthAdjust="spacingAndGlyphs" textLength="32" x="902" y="1840.622">
    3200
  </text>
  <path fill="#A80036" stroke="#a80036" d="M100 1870.82l-10 4 10 4-4-4z"/>
  <path stroke="#a80036" stroke-dasharray="2,2" d="M94 1874.82h631"/>
  <text font-family="sans-serif" font-size="13" font-weight="bold" lengthAdjust="spacingAndGlyphs" textLength="18" x="106" y="1869.754">
    20
  </text>
  <text font-family="sans-serif" font-size="13" lengthAdjust="spacingAndGlyphs" textLength="42" x="128" y="1869.754">
    Return
  </text>
  <text fill="red" font-family="sans-serif" font-size="13" font-weight="bold" lengthAdjust="spacingAndGlyphs" textLength="82" x="174" y="1869.754">
    Error code:
  </text>
  <text fill="red" font-family="sans-serif" font-size="13" lengthAdjust="spacingAndGlyphs" textLength="32" x="260" y="1869.754">
    3200
  </text>
</svg>
