<?xml version="1.0" encoding="UTF-8" standalone="no"?><svg xmlns="http://www.w3.org/2000/svg" xmlns:xlink="http://www.w3.org/1999/xlink" contentScriptType="application/ecmascript" contentStyleType="text/css" height="1664px" preserveAspectRatio="none" style="width:1853px;height:1664px;" version="1.1" viewBox="0 0 1853 1664" width="1853px" zoomAndPan="magnify"><defs><filter height="300%" id="f1as0212fdbe98" width="300%" x="-1" y="-1"><feGaussianBlur result="blurOut" stdDeviation="2.0"/><feColorMatrix in="blurOut" result="blurOut2" type="matrix" values="0 0 0 0 0 0 0 0 0 0 0 0 0 0 0 0 0 0 .4 0"/><feOffset dx="4.0" dy="4.0" in="blurOut2" result="blurOut3"/><feBlend in="SourceGraphic" in2="blurOut3" mode="normal"/></filter></defs><g><text fill="#000000" font-family="sans-serif" font-size="14" font-weight="bold" lengthAdjust="spacingAndGlyphs" textLength="267" x="794" y="23.5352">3.1.0 Get Participant Callback Details</text><rect fill="#ADD8E6" height="1619.2773" style="stroke: #A80036; stroke-width: 1.0;" width="163" x="25" y="34.4883"/><text fill="#000000" font-family="sans-serif" font-size="13" font-weight="bold" lengthAdjust="spacingAndGlyphs" textLength="157" x="28" y="47.0566">ML API Adapter Service</text><rect fill="#FFFFE0" height="1619.2773" style="stroke: #A80036; stroke-width: 1.0;" width="1138" x="652.5" y="34.4883"/><text fill="#000000" font-family="sans-serif" font-size="13" font-weight="bold" lengthAdjust="spacingAndGlyphs" textLength="108" x="1167.5" y="47.0566">Central Services</text><rect fill="#FFFFFF" filter="url(#f1as0212fdbe98)" height="1444.9902" style="stroke: #A80036; stroke-width: 1.0;" width="10" x="101.5" y="126.2871"/><rect fill="#FFFFFF" filter="url(#f1as0212fdbe98)" height="1399.3691" style="stroke: #A80036; stroke-width: 1.0;" width="10" x="718.5" y="171.9082"/><rect fill="#FFFFFF" filter="url(#f1as0212fdbe98)" height="649.4531" style="stroke: #A80036; stroke-width: 1.0;" width="10" x="1012.5" y="201.2188"/><rect fill="#FFFFFF" filter="url(#f1as0212fdbe98)" height="646.9844" style="stroke: #A80036; stroke-width: 1.0;" width="10" x="1012.5" y="879.9824"/><rect fill="#FFFFFF" filter="url(#f1as0212fdbe98)" height="121.2422" style="stroke: #A80036; stroke-width: 1.0;" width="10" x="1364.5" y="245.8398"/><rect fill="#FFFFFF" filter="url(#f1as0212fdbe98)" height="191.1738" style="stroke: #A80036; stroke-width: 1.0;" width="10" x="1364.5" y="544.9453"/><rect fill="#FFFFFF" filter="url(#f1as0212fdbe98)" height="175.8633" style="stroke: #A80036; stroke-width: 1.0;" width="10" x="1364.5" y="939.5586"/><rect fill="#FFFFFF" filter="url(#f1as0212fdbe98)" height="62.6211" style="stroke: #A80036; stroke-width: 1.0;" width="10" x="1733.5" y="275.1504"/><rect fill="#FFFFFF" filter="url(#f1as0212fdbe98)" height="132.5527" style="stroke: #A80036; stroke-width: 1.0;" width="10" x="1733.5" y="574.2559"/><rect fill="#FFFFFF" filter="url(#f1as0212fdbe98)" height="117.2422" style="stroke: #A80036; stroke-width: 1.0;" width="10" x="1733.5" y="968.8691"/><rect fill="#FFFFFF" filter="url(#f1as0212fdbe98)" height="1437.9902" style="stroke: #000000; stroke-width: 2.0;" width="1829" x="13" y="133.2871"/><rect fill="#FFFFFF" filter="url(#f1as0212fdbe98)" height="1139.8848" style="stroke: #000000; stroke-width: 2.0;" width="1809" x="23" y="424.3926"/><rect fill="#FFFFFF" filter="url(#f1as0212fdbe98)" height="822.2031" style="stroke: #000000; stroke-width: 2.0;" width="1789" x="33" y="491.0137"/><rect fill="#FFFFFF" height="425.2344" style="stroke: none; stroke-width: 1.0;" width="1789" x="33" y="887.9824"/><rect fill="#FFFFFF" height="244.0605" style="stroke: none; stroke-width: 1.0;" width="1809" x="23" y="1320.2168"/><line style="stroke: #A80036; stroke-width: 1.0; stroke-dasharray: 5.0,5.0;" x1="106" x2="106" y1="116.2871" y2="1588.2773"/><line style="stroke: #A80036; stroke-width: 1.0; stroke-dasharray: 5.0,5.0;" x1="723.5" x2="723.5" y1="116.2871" y2="1588.2773"/><line style="stroke: #A80036; stroke-width: 1.0; stroke-dasharray: 5.0,5.0;" x1="1017" x2="1017" y1="116.2871" y2="1588.2773"/><line style="stroke: #A80036; stroke-width: 1.0; stroke-dasharray: 5.0,5.0;" x1="1369.5" x2="1369.5" y1="116.2871" y2="1588.2773"/><line style="stroke: #A80036; stroke-width: 1.0; stroke-dasharray: 5.0,5.0;" x1="1738.5" x2="1738.5" y1="116.2871" y2="1588.2773"/><text fill="#000000" font-family="sans-serif" font-size="14" lengthAdjust="spacingAndGlyphs" textLength="121" x="43" y="113.334">ML-API-ADAPTER</text><ellipse cx="106.5" cy="83.7988" fill="#FEFECE" filter="url(#f1as0212fdbe98)" rx="12" ry="12" style="stroke: #A80036; stroke-width: 2.0;"/><line style="stroke: #A80036; stroke-width: 2.0;" x1="94.5" x2="118.5" y1="97.7988" y2="97.7988"/><text fill="#000000" font-family="sans-serif" font-size="14" lengthAdjust="spacingAndGlyphs" textLength="121" x="43" y="1600.8125">ML-API-ADAPTER</text><ellipse cx="106.5" cy="1619.7656" fill="#FEFECE" filter="url(#f1as0212fdbe98)" rx="12" ry="12" style="stroke: #A80036; stroke-width: 2.0;"/><line style="stroke: #A80036; stroke-width: 2.0;" x1="94.5" x2="118.5" y1="1633.7656" y2="1633.7656"/><text fill="#000000" font-family="sans-serif" font-size="14" lengthAdjust="spacingAndGlyphs" textLength="128" x="656.5" y="113.334">Central Service API</text><path d="M703,71.7988 L703,95.7988 M703,83.7988 L720,83.7988 " fill="none" filter="url(#f1as0212fdbe98)" style="stroke: #A80036; stroke-width: 2.0;"/><ellipse cx="732" cy="83.7988" fill="#FEFECE" filter="url(#f1as0212fdbe98)" rx="12" ry="12" style="stroke: #A80036; stroke-width: 2.0;"/><text fill="#000000" font-family="sans-serif" font-size="14" lengthAdjust="spacingAndGlyphs" textLength="128" x="656.5" y="1600.8125">Central Service API</text><path d="M703,1607.7656 L703,1631.7656 M703,1619.7656 L720,1619.7656 " fill="none" filter="url(#f1as0212fdbe98)" style="stroke: #A80036; stroke-width: 2.0;"/><ellipse cx="732" cy="1619.7656" fill="#FEFECE" filter="url(#f1as0212fdbe98)" rx="12" ry="12" style="stroke: #A80036; stroke-width: 2.0;"/><text fill="#000000" font-family="sans-serif" font-size="14" lengthAdjust="spacingAndGlyphs" textLength="131" x="949" y="113.334">Participant Handler</text><ellipse cx="1017.5" cy="83.7988" fill="#FEFECE" filter="url(#f1as0212fdbe98)" rx="12" ry="12" style="stroke: #A80036; stroke-width: 2.0;"/><polygon fill="#A80036" points="1013.5,71.7988,1019.5,66.7988,1017.5,71.7988,1019.5,76.7988,1013.5,71.7988" style="stroke: #A80036; stroke-width: 1.0;"/><text fill="#000000" font-family="sans-serif" font-size="14" lengthAdjust="spacingAndGlyphs" textLength="131" x="949" y="1600.8125">Participant Handler</text><ellipse cx="1017.5" cy="1619.7656" fill="#FEFECE" filter="url(#f1as0212fdbe98)" rx="12" ry="12" style="stroke: #A80036; stroke-width: 2.0;"/><polygon fill="#A80036" points="1013.5,1607.7656,1019.5,1602.7656,1017.5,1607.7656,1019.5,1612.7656,1013.5,1607.7656" style="stroke: #A80036; stroke-width: 1.0;"/><text fill="#000000" font-family="sans-serif" font-size="14" lengthAdjust="spacingAndGlyphs" textLength="108" x="1312.5" y="113.334">Participant DAO</text><ellipse cx="1369.5" cy="83.7988" fill="#FEFECE" filter="url(#f1as0212fdbe98)" rx="12" ry="12" style="stroke: #A80036; stroke-width: 2.0;"/><line style="stroke: #A80036; stroke-width: 2.0;" x1="1357.5" x2="1381.5" y1="97.7988" y2="97.7988"/><text fill="#000000" font-family="sans-serif" font-size="14" lengthAdjust="spacingAndGlyphs" textLength="108" x="1312.5" y="1600.8125">Participant DAO</text><ellipse cx="1369.5" cy="1619.7656" fill="#FEFECE" filter="url(#f1as0212fdbe98)" rx="12" ry="12" style="stroke: #A80036; stroke-width: 2.0;"/><line style="stroke: #A80036; stroke-width: 2.0;" x1="1357.5" x2="1381.5" y1="1633.7656" y2="1633.7656"/><text fill="#000000" font-family="sans-serif" font-size="14" lengthAdjust="spacingAndGlyphs" textLength="90" x="1690.5" y="113.334">Central Store</text><path d="M1720.5,63.7988 C1720.5,53.7988 1738.5,53.7988 1738.5,53.7988 C1738.5,53.7988 1756.5,53.7988 1756.5,63.7988 L1756.5,89.7988 C1756.5,99.7988 1738.5,99.7988 1738.5,99.7988 C1738.5,99.7988 1720.5,99.7988 1720.5,89.7988 L1720.5,63.7988 " fill="#FEFECE" filter="url(#f1as0212fdbe98)" style="stroke: #000000; stroke-width: 1.5;"/><path d="M1720.5,63.7988 C1720.5,73.7988 1738.5,73.7988 1738.5,73.7988 C1738.5,73.7988 1756.5,73.7988 1756.5,63.7988 " fill="none" style="stroke: #000000; stroke-width: 1.5;"/><text fill="#000000" font-family="sans-serif" font-size="14" lengthAdjust="spacingAndGlyphs" textLength="90" x="1690.5" y="1600.8125">Central Store</text><path d="M1720.5,1613.7656 C1720.5,1603.7656 1738.5,1603.7656 1738.5,1603.7656 C1738.5,1603.7656 1756.5,1603.7656 1756.5,1613.7656 L1756.5,1639.7656 C1756.5,1649.7656 1738.5,1649.7656 1738.5,1649.7656 C1738.5,1649.7656 1720.5,1649.7656 1720.5,1639.7656 L1720.5,1613.7656 " fill="#FEFECE" filter="url(#f1as0212fdbe98)" style="stroke: #000000; stroke-width: 1.5;"/><path d="M1720.5,1613.7656 C1720.5,1623.7656 1738.5,1623.7656 1738.5,1623.7656 C1738.5,1623.7656 1756.5,1623.7656 1756.5,1613.7656 " fill="none" style="stroke: #000000; stroke-width: 1.5;"/><rect fill="#FFFFFF" filter="url(#f1as0212fdbe98)" height="1444.9902" style="stroke: #A80036; stroke-width: 1.0;" width="10" x="101.5" y="126.2871"/><rect fill="#FFFFFF" filter="url(#f1as0212fdbe98)" height="1399.3691" style="stroke: #A80036; stroke-width: 1.0;" width="10" x="718.5" y="171.9082"/><rect fill="#FFFFFF" filter="url(#f1as0212fdbe98)" height="649.4531" style="stroke: #A80036; stroke-width: 1.0;" width="10" x="1012.5" y="201.2188"/><rect fill="#FFFFFF" filter="url(#f1as0212fdbe98)" height="646.9844" style="stroke: #A80036; stroke-width: 1.0;" width="10" x="1012.5" y="879.9824"/><rect fill="#FFFFFF" filter="url(#f1as0212fdbe98)" height="121.2422" style="stroke: #A80036; stroke-width: 1.0;" width="10" x="1364.5" y="245.8398"/><rect fill="#FFFFFF" filter="url(#f1as0212fdbe98)" height="191.1738" style="stroke: #A80036; stroke-width: 1.0;" width="10" x="1364.5" y="544.9453"/><rect fill="#FFFFFF" filter="url(#f1as0212fdbe98)" height="175.8633" style="stroke: #A80036; stroke-width: 1.0;" width="10" x="1364.5" y="939.5586"/><rect fill="#FFFFFF" filter="url(#f1as0212fdbe98)" height="62.6211" style="stroke: #A80036; stroke-width: 1.0;" width="10" x="1733.5" y="275.1504"/><rect fill="#FFFFFF" filter="url(#f1as0212fdbe98)" height="132.5527" style="stroke: #A80036; stroke-width: 1.0;" width="10" x="1733.5" y="574.2559"/><rect fill="#FFFFFF" filter="url(#f1as0212fdbe98)" height="117.2422" style="stroke: #A80036; stroke-width: 1.0;" width="10" x="1733.5" y="968.8691"/><path d="M13,133.2871 L192,133.2871 L192,140.2871 L182,150.2871 L13,150.2871 L13,133.2871 " fill="#EEEEEE" style="stroke: #000000; stroke-width: 1.0;"/><rect fill="none" height="1437.9902" style="stroke: #000000; stroke-width: 2.0;" width="1829" x="13" y="133.2871"/><text fill="#000000" font-family="sans-serif" font-size="13" font-weight="bold" lengthAdjust="spacingAndGlyphs" textLength="134" x="28" y="146.8555">Get Callback Details</text><polygon fill="#A80036" points="706.5,167.9082,716.5,171.9082,706.5,175.9082,710.5,171.9082" style="stroke: #A80036; stroke-width: 1.0;"/><line style="stroke: #A80036; stroke-width: 1.0;" x1="111.5" x2="712.5" y1="171.9082" y2="171.9082"/><text fill="#000000" font-family="sans-serif" font-size="13" font-weight="bold" lengthAdjust="spacingAndGlyphs" textLength="9" x="118.5" y="167.166">1</text><text fill="#000000" font-family="sans-serif" font-size="13" lengthAdjust="spacingAndGlyphs" textLength="561" x="131.5" y="167.166">Request to get callback details - GET - /participants/{name}/endpoints?type={typeValue}</text><polygon fill="#A80036" points="1000.5,197.2188,1010.5,201.2188,1000.5,205.2188,1004.5,201.2188" style="stroke: #A80036; stroke-width: 1.0;"/><line style="stroke: #A80036; stroke-width: 1.0;" x1="728.5" x2="1006.5" y1="201.2188" y2="201.2188"/><text fill="#000000" font-family="sans-serif" font-size="13" font-weight="bold" lengthAdjust="spacingAndGlyphs" textLength="9" x="735.5" y="196.4766">2</text><text fill="#000000" font-family="sans-serif" font-size="13" lengthAdjust="spacingAndGlyphs" textLength="231" x="748.5" y="196.4766">Fetch Callback details for Participant</text><polygon fill="#A80036" points="1352.5,241.8398,1362.5,245.8398,1352.5,249.8398,1356.5,245.8398" style="stroke: #A80036; stroke-width: 1.0;"/><line style="stroke: #A80036; stroke-width: 1.0;" x1="1022.5" x2="1358.5" y1="245.8398" y2="245.8398"/><text fill="#000000" font-family="sans-serif" font-size="13" font-weight="bold" lengthAdjust="spacingAndGlyphs" textLength="9" x="1029.5" y="233.4424">3</text><text fill="#000000" font-family="sans-serif" font-size="13" lengthAdjust="spacingAndGlyphs" textLength="105" x="1042.5" y="225.7871">Fetch Participant</text><text fill="#FF0000" font-family="sans-serif" font-size="13" font-weight="bold" lengthAdjust="spacingAndGlyphs" textLength="73" x="1042.5" y="241.0977">Error code:</text><text fill="#FF0000" font-family="sans-serif" font-size="13" lengthAdjust="spacingAndGlyphs" textLength="32" x="1119.5" y="241.0977">3200</text><polygon fill="#A80036" points="1721.5,271.1504,1731.5,275.1504,1721.5,279.1504,1725.5,275.1504" style="stroke: #A80036; stroke-width: 1.0;"/><line style="stroke: #A80036; stroke-width: 1.0;" x1="1374.5" x2="1727.5" y1="275.1504" y2="275.1504"/><text fill="#000000" font-family="sans-serif" font-size="13" font-weight="bold" lengthAdjust="spacingAndGlyphs" textLength="9" x="1381.5" y="270.4082">4</text><text fill="#000000" font-family="sans-serif" font-size="13" lengthAdjust="spacingAndGlyphs" textLength="105" x="1394.5" y="270.4082">Fetch Participant</text><polygon fill="#FFFFE0" filter="url(#f1as0212fdbe98)" points="1702,288.1504,1774,288.1504,1784,299.1504,1774,311.1504,1702,311.1504,1692,299.1504,1702,288.1504" style="stroke: #A80036; stroke-width: 1.0;"/><text fill="#000000" font-family="sans-serif" font-size="13" lengthAdjust="spacingAndGlyphs" textLength="68" x="1704" y="304.7188">participant</text><polygon fill="#A80036" points="1385.5,333.7715,1375.5,337.7715,1385.5,341.7715,1381.5,337.7715" style="stroke: #A80036; stroke-width: 1.0;"/><line style="stroke: #A80036; stroke-width: 1.0; stroke-dasharray: 2.0,2.0;" x1="1379.5" x2="1737.5" y1="337.7715" y2="337.7715"/><text fill="#000000" font-family="sans-serif" font-size="13" font-weight="bold" lengthAdjust="spacingAndGlyphs" textLength="9" x="1391.5" y="333.0293">5</text><text fill="#000000" font-family="sans-serif" font-size="13" lengthAdjust="spacingAndGlyphs" textLength="129" x="1404.5" y="333.0293">Retrieved Participant</text><polygon fill="#A80036" points="1033.5,363.082,1023.5,367.082,1033.5,371.082,1029.5,367.082" style="stroke: #A80036; stroke-width: 1.0;"/><line style="stroke: #A80036; stroke-width: 1.0; stroke-dasharray: 2.0,2.0;" x1="1027.5" x2="1368.5" y1="367.082" y2="367.082"/><text fill="#000000" font-family="sans-serif" font-size="13" font-weight="bold" lengthAdjust="spacingAndGlyphs" textLength="9" x="1039.5" y="362.3398">6</text><text fill="#000000" font-family="sans-serif" font-size="13" lengthAdjust="spacingAndGlyphs" textLength="112" x="1052.5" y="362.3398">Return Participant</text><line style="stroke: #A80036; stroke-width: 1.0;" x1="1022.5" x2="1064.5" y1="396.3926" y2="396.3926"/><line style="stroke: #A80036; stroke-width: 1.0;" x1="1064.5" x2="1064.5" y1="396.3926" y2="409.3926"/><line style="stroke: #A80036; stroke-width: 1.0;" x1="1023.5" x2="1064.5" y1="409.3926" y2="409.3926"/><polygon fill="#A80036" points="1033.5,405.3926,1023.5,409.3926,1033.5,413.3926,1029.5,409.3926" style="stroke: #A80036; stroke-width: 1.0;"/><text fill="#000000" font-family="sans-serif" font-size="13" font-weight="bold" lengthAdjust="spacingAndGlyphs" textLength="9" x="1029.5" y="391.6504">7</text><text fill="#000000" font-family="sans-serif" font-size="13" lengthAdjust="spacingAndGlyphs" textLength="85" x="1042.5" y="391.6504">Validate DFSP</text><path d="M23,424.3926 L85,424.3926 L85,431.3926 L75,441.3926 L23,441.3926 L23,424.3926 " fill="#EEEEEE" style="stroke: #000000; stroke-width: 1.0;"/><rect fill="none" height="1139.8848" style="stroke: #000000; stroke-width: 2.0;" width="1809" x="23" y="424.3926"/><text fill="#000000" font-family="sans-serif" font-size="13" font-weight="bold" lengthAdjust="spacingAndGlyphs" textLength="17" x="38" y="437.9609">alt</text><text fill="#000000" font-family="sans-serif" font-size="11" font-weight="bold" lengthAdjust="spacingAndGlyphs" textLength="172" x="100" y="437.0273">[Validate participant (success)]</text><line style="stroke: #A80036; stroke-width: 1.0;" x1="1022.5" x2="1064.5" y1="463.0137" y2="463.0137"/><line style="stroke: #A80036; stroke-width: 1.0;" x1="1064.5" x2="1064.5" y1="463.0137" y2="476.0137"/><line style="stroke: #A80036; stroke-width: 1.0;" x1="1023.5" x2="1064.5" y1="476.0137" y2="476.0137"/><polygon fill="#A80036" points="1033.5,472.0137,1023.5,476.0137,1033.5,480.0137,1029.5,476.0137" style="stroke: #A80036; stroke-width: 1.0;"/><text fill="#000000" font-family="sans-serif" font-size="13" font-weight="bold" lengthAdjust="spacingAndGlyphs" textLength="9" x="1029.5" y="458.2715">8</text><text fill="#000000" font-family="sans-serif" font-size="13" lengthAdjust="spacingAndGlyphs" textLength="204" x="1042.5" y="458.2715">check if "type" parameter is sent</text><path d="M33,491.0137 L95,491.0137 L95,498.0137 L85,508.0137 L33,508.0137 L33,491.0137 " fill="#EEEEEE" style="stroke: #000000; stroke-width: 1.0;"/><rect fill="none" height="822.2031" style="stroke: #000000; stroke-width: 2.0;" width="1789" x="33" y="491.0137"/><text fill="#000000" font-family="sans-serif" font-size="13" font-weight="bold" lengthAdjust="spacingAndGlyphs" textLength="17" x="48" y="504.582">alt</text><text fill="#000000" font-family="sans-serif" font-size="11" font-weight="bold" lengthAdjust="spacingAndGlyphs" textLength="228" x="110" y="503.6484">[Check if "type" parameter is sent (Sent)]</text><polygon fill="#A80036" points="1352.5,540.9453,1362.5,544.9453,1352.5,548.9453,1356.5,544.9453" style="stroke: #A80036; stroke-width: 1.0;"/><line style="stroke: #A80036; stroke-width: 1.0;" x1="1022.5" x2="1358.5" y1="544.9453" y2="544.9453"/><text fill="#000000" font-family="sans-serif" font-size="13" font-weight="bold" lengthAdjust="spacingAndGlyphs" textLength="9" x="1029.5" y="532.5479">9</text><text fill="#000000" font-family="sans-serif" font-size="13" lengthAdjust="spacingAndGlyphs" textLength="289" x="1042.5" y="524.8926">Fetch Callback details for Participant and type</text><text fill="#FF0000" font-family="sans-serif" font-size="13" font-weight="bold" lengthAdjust="spacingAndGlyphs" textLength="73" x="1042.5" y="540.2031">Error code:</text><text fill="#FF0000" font-family="sans-serif" font-size="13" lengthAdjust="spacingAndGlyphs" textLength="32" x="1119.5" y="540.2031">3000</text><polygon fill="#A80036" points="1721.5,570.2559,1731.5,574.2559,1721.5,578.2559,1725.5,574.2559" style="stroke: #A80036; stroke-width: 1.0;"/><line style="stroke: #A80036; stroke-width: 1.0;" x1="1374.5" x2="1727.5" y1="574.2559" y2="574.2559"/><text fill="#000000" font-family="sans-serif" font-size="13" font-weight="bold" lengthAdjust="spacingAndGlyphs" textLength="18" x="1381.5" y="569.5137">10</text><text fill="#000000" font-family="sans-serif" font-size="13" lengthAdjust="spacingAndGlyphs" textLength="289" x="1403.5" y="569.5137">Fetch Callback details for Participant and type</text><path d="M1379,587.2559 L1379,642.2559 L1587,642.2559 L1587,597.2559 L1577,587.2559 L1379,587.2559 " fill="#D3D3D3" filter="url(#f1as0212fdbe98)" style="stroke: #A80036; stroke-width: 1.0;"/><path d="M1577,587.2559 L1577,597.2559 L1587,597.2559 L1577,587.2559 " fill="#D3D3D3" style="stroke: #A80036; stroke-width: 1.0;"/><text fill="#000000" font-family="sans-serif" font-size="13" lengthAdjust="spacingAndGlyphs" textLength="66" x="1385" y="604.8242">Condition:</text><text fill="#000000" font-family="sans-serif" font-size="13" lengthAdjust="spacingAndGlyphs" textLength="76" x="1401" y="620.1348">isActive = 1</text><text fill="#000000" font-family="sans-serif" font-size="13" lengthAdjust="spacingAndGlyphs" textLength="171" x="1401" y="635.4453">[endpointTypeId = &lt;type&gt;]</text><polygon fill="#FFFFE0" filter="url(#f1as0212fdbe98)" points="1674,657.1875,1802,657.1875,1812,668.1875,1802,680.1875,1674,680.1875,1664,668.1875,1674,657.1875" style="stroke: #A80036; stroke-width: 1.0;"/><text fill="#000000" font-family="sans-serif" font-size="13" lengthAdjust="spacingAndGlyphs" textLength="124" x="1676" y="673.7559">participantEndpoint</text><polygon fill="#A80036" points="1385.5,702.8086,1375.5,706.8086,1385.5,710.8086,1381.5,706.8086" style="stroke: #A80036; stroke-width: 1.0;"/><line style="stroke: #A80036; stroke-width: 1.0; stroke-dasharray: 2.0,2.0;" x1="1379.5" x2="1737.5" y1="706.8086" y2="706.8086"/><text fill="#000000" font-family="sans-serif" font-size="13" font-weight="bold" lengthAdjust="spacingAndGlyphs" textLength="18" x="1391.5" y="702.0664">11</text><text fill="#000000" font-family="sans-serif" font-size="13" lengthAdjust="spacingAndGlyphs" textLength="313" x="1413.5" y="702.0664">Retrieved Callback details for Participant and type</text><polygon fill="#A80036" points="1033.5,732.1191,1023.5,736.1191,1033.5,740.1191,1029.5,736.1191" style="stroke: #A80036; stroke-width: 1.0;"/><line style="stroke: #A80036; stroke-width: 1.0; stroke-dasharray: 2.0,2.0;" x1="1027.5" x2="1368.5" y1="736.1191" y2="736.1191"/><text fill="#000000" font-family="sans-serif" font-size="13" font-weight="bold" lengthAdjust="spacingAndGlyphs" textLength="18" x="1039.5" y="731.377">12</text><text fill="#000000" font-family="sans-serif" font-size="13" lengthAdjust="spacingAndGlyphs" textLength="296" x="1061.5" y="731.377">Return Callback details for Participant and type</text><path d="M1027,749.1191 L1027,820.1191 L1327,820.1191 L1327,759.1191 L1317,749.1191 L1027,749.1191 " fill="#FFFF00" filter="url(#f1as0212fdbe98)" style="stroke: #A80036; stroke-width: 1.0;"/><path d="M1317,749.1191 L1317,759.1191 L1327,759.1191 L1317,749.1191 " fill="#FFFF00" style="stroke: #A80036; stroke-width: 1.0;"/><text fill="#000000" font-family="sans-serif" font-size="13" lengthAdjust="spacingAndGlyphs" textLength="58" x="1033" y="766.6875">Message:</text><text fill="#000000" font-family="sans-serif" font-size="13" lengthAdjust="spacingAndGlyphs" textLength="4" x="1033" y="781.998">{</text><text fill="#000000" font-family="sans-serif" font-size="13" lengthAdjust="spacingAndGlyphs" textLength="263" x="1049" y="797.3086">endpoints: {type: &lt;type&gt;, value: &lt;value&gt;}</text><text fill="#000000" font-family="sans-serif" font-size="13" lengthAdjust="spacingAndGlyphs" textLength="4" x="1033" y="812.6191">}</text><polygon fill="#A80036" points="739.5,846.6719,729.5,850.6719,739.5,854.6719,735.5,850.6719" style="stroke: #A80036; stroke-width: 1.0;"/><line style="stroke: #A80036; stroke-width: 1.0; stroke-dasharray: 2.0,2.0;" x1="733.5" x2="1016.5" y1="850.6719" y2="850.6719"/><text fill="#000000" font-family="sans-serif" font-size="13" font-weight="bold" lengthAdjust="spacingAndGlyphs" textLength="18" x="745.5" y="845.9297">13</text><text fill="#000000" font-family="sans-serif" font-size="13" lengthAdjust="spacingAndGlyphs" textLength="238" x="767.5" y="845.9297">Return Callback details for Participant</text><polygon fill="#A80036" points="122.5,875.9824,112.5,879.9824,122.5,883.9824,118.5,879.9824" style="stroke: #A80036; stroke-width: 1.0;"/><line style="stroke: #A80036; stroke-width: 1.0; stroke-dasharray: 2.0,2.0;" x1="116.5" x2="717.5" y1="879.9824" y2="879.9824"/><text fill="#000000" font-family="sans-serif" font-size="13" font-weight="bold" lengthAdjust="spacingAndGlyphs" textLength="18" x="128.5" y="875.2402">14</text><text fill="#000000" font-family="sans-serif" font-size="13" lengthAdjust="spacingAndGlyphs" textLength="238" x="150.5" y="875.2402">Return Callback details for Participant</text><line style="stroke: #000000; stroke-width: 1.0; stroke-dasharray: 2.0,2.0;" x1="33" x2="1822" y1="888.9824" y2="888.9824"/><text fill="#000000" font-family="sans-serif" font-size="11" font-weight="bold" lengthAdjust="spacingAndGlyphs" textLength="251" x="38" y="899.6172">[Check if "type" parameter is sent (Not Sent)]</text><polygon fill="#A80036" points="1352.5,935.5586,1362.5,939.5586,1352.5,943.5586,1356.5,939.5586" style="stroke: #A80036; stroke-width: 1.0;"/><line style="stroke: #A80036; stroke-width: 1.0;" x1="1022.5" x2="1358.5" y1="939.5586" y2="939.5586"/><text fill="#000000" font-family="sans-serif" font-size="13" font-weight="bold" lengthAdjust="spacingAndGlyphs" textLength="18" x="1029.5" y="927.1611">15</text><text fill="#000000" font-family="sans-serif" font-size="13" lengthAdjust="spacingAndGlyphs" textLength="231" x="1051.5" y="919.5059">Fetch Callback details for Participant</text><text fill="#FF0000" font-family="sans-serif" font-size="13" font-weight="bold" lengthAdjust="spacingAndGlyphs" textLength="73" x="1051.5" y="934.8164">Error code:</text><text fill="#FF0000" font-family="sans-serif" font-size="13" lengthAdjust="spacingAndGlyphs" textLength="32" x="1128.5" y="934.8164">3000</text><polygon fill="#A80036" points="1721.5,964.8691,1731.5,968.8691,1721.5,972.8691,1725.5,968.8691" style="stroke: #A80036; stroke-width: 1.0;"/><line style="stroke: #A80036; stroke-width: 1.0;" x1="1374.5" x2="1727.5" y1="968.8691" y2="968.8691"/><text fill="#000000" font-family="sans-serif" font-size="13" font-weight="bold" lengthAdjust="spacingAndGlyphs" textLength="18" x="1381.5" y="964.127">16</text><text fill="#000000" font-family="sans-serif" font-size="13" lengthAdjust="spacingAndGlyphs" textLength="231" x="1403.5" y="964.127">Fetch Callback details for Participant</text><path d="M1379,981.8691 L1379,1021.8691 L1492,1021.8691 L1492,991.8691 L1482,981.8691 L1379,981.8691 " fill="#D3D3D3" filter="url(#f1as0212fdbe98)" style="stroke: #A80036; stroke-width: 1.0;"/><path d="M1482,981.8691 L1482,991.8691 L1492,991.8691 L1482,981.8691 " fill="#D3D3D3" style="stroke: #A80036; stroke-width: 1.0;"/><text fill="#000000" font-family="sans-serif" font-size="13" lengthAdjust="spacingAndGlyphs" textLength="66" x="1385" y="999.4375">Condition:</text><text fill="#000000" font-family="sans-serif" font-size="13" lengthAdjust="spacingAndGlyphs" textLength="76" x="1401" y="1014.748">isActive = 1</text><polygon fill="#FFFFE0" filter="url(#f1as0212fdbe98)" points="1674,1036.4902,1802,1036.4902,1812,1047.4902,1802,1059.4902,1674,1059.4902,1664,1047.4902,1674,1036.4902" style="stroke: #A80036; stroke-width: 1.0;"/><text fill="#000000" font-family="sans-serif" font-size="13" lengthAdjust="spacingAndGlyphs" textLength="124" x="1676" y="1053.0586">participantEndpoint</text><polygon fill="#A80036" points="1385.5,1082.1113,1375.5,1086.1113,1385.5,1090.1113,1381.5,1086.1113" style="stroke: #A80036; stroke-width: 1.0;"/><line style="stroke: #A80036; stroke-width: 1.0; stroke-dasharray: 2.0,2.0;" x1="1379.5" x2="1737.5" y1="1086.1113" y2="1086.1113"/><text fill="#000000" font-family="sans-serif" font-size="13" font-weight="bold" lengthAdjust="spacingAndGlyphs" textLength="18" x="1391.5" y="1081.3691">17</text><text fill="#000000" font-family="sans-serif" font-size="13" lengthAdjust="spacingAndGlyphs" textLength="255" x="1413.5" y="1081.3691">Retrieved Callback details for Participant</text><polygon fill="#A80036" points="1033.5,1111.4219,1023.5,1115.4219,1033.5,1119.4219,1029.5,1115.4219" style="stroke: #A80036; stroke-width: 1.0;"/><line style="stroke: #A80036; stroke-width: 1.0; stroke-dasharray: 2.0,2.0;" x1="1027.5" x2="1368.5" y1="1115.4219" y2="1115.4219"/><text fill="#000000" font-family="sans-serif" font-size="13" font-weight="bold" lengthAdjust="spacingAndGlyphs" textLength="18" x="1039.5" y="1110.6797">18</text><text fill="#000000" font-family="sans-serif" font-size="13" lengthAdjust="spacingAndGlyphs" textLength="238" x="1061.5" y="1110.6797">Return Callback details for Participant</text><path d="M1027,1128.4219 L1027,1245.4219 L1276,1245.4219 L1276,1138.4219 L1266,1128.4219 L1027,1128.4219 " fill="#FFFF00" filter="url(#f1as0212fdbe98)" style="stroke: #A80036; stroke-width: 1.0;"/><path d="M1266,1128.4219 L1266,1138.4219 L1276,1138.4219 L1266,1128.4219 " fill="#FFFF00" style="stroke: #A80036; stroke-width: 1.0;"/><text fill="#000000" font-family="sans-serif" font-size="13" lengthAdjust="spacingAndGlyphs" textLength="58" x="1033" y="1145.9902">Message:</text><text fill="#000000" font-family="sans-serif" font-size="13" lengthAdjust="spacingAndGlyphs" textLength="4" x="1033" y="1161.3008">{</text><text fill="#000000" font-family="sans-serif" font-size="13" lengthAdjust="spacingAndGlyphs" textLength="75" x="1049" y="1176.6113">endpoints: [</text><text fill="#000000" font-family="sans-serif" font-size="13" lengthAdjust="spacingAndGlyphs" textLength="196" x="1065" y="1191.9219">{type: &lt;type&gt;, value: &lt;value&gt;},</text><text fill="#000000" font-family="sans-serif" font-size="13" lengthAdjust="spacingAndGlyphs" textLength="192" x="1065" y="1207.2324">{type: &lt;type&gt;, value: &lt;value&gt;}</text><text fill="#000000" font-family="sans-serif" font-size="13" lengthAdjust="spacingAndGlyphs" textLength="4" x="1049" y="1222.543">]</text><text fill="#000000" font-family="sans-serif" font-size="13" lengthAdjust="spacingAndGlyphs" textLength="4" x="1033" y="1237.8535">}</text><polygon fill="#A80036" points="739.5,1271.9063,729.5,1275.9063,739.5,1279.9063,735.5,1275.9063" style="stroke: #A80036; stroke-width: 1.0;"/><line style="stroke: #A80036; stroke-width: 1.0; stroke-dasharray: 2.0,2.0;" x1="733.5" x2="1011.5" y1="1275.9063" y2="1275.9063"/><text fill="#000000" font-family="sans-serif" font-size="13" font-weight="bold" lengthAdjust="spacingAndGlyphs" textLength="18" x="745.5" y="1271.1641">19</text><text fill="#000000" font-family="sans-serif" font-size="13" lengthAdjust="spacingAndGlyphs" textLength="238" x="767.5" y="1271.1641">Return Callback details for Participant</text><polygon fill="#A80036" points="122.5,1301.2168,112.5,1305.2168,122.5,1309.2168,118.5,1305.2168" style="stroke: #A80036; stroke-width: 1.0;"/><line style="stroke: #A80036; stroke-width: 1.0; stroke-dasharray: 2.0,2.0;" x1="116.5" x2="717.5" y1="1305.2168" y2="1305.2168"/><text fill="#000000" font-family="sans-serif" font-size="13" font-weight="bold" lengthAdjust="spacingAndGlyphs" textLength="18" x="128.5" y="1300.4746">20</text><text fill="#000000" font-family="sans-serif" font-size="13" lengthAdjust="spacingAndGlyphs" textLength="238" x="150.5" y="1300.4746">Return Callback details for Participant</text><line style="stroke: #000000; stroke-width: 1.0; stroke-dasharray: 2.0,2.0;" x1="23" x2="1832" y1="1321.2168" y2="1321.2168"/><text fill="#000000" font-family="sans-serif" font-size="11" font-weight="bold" lengthAdjust="spacingAndGlyphs" textLength="205" x="28" y="1331.8516">[Validate participant (failure)/ Error]</text><path d="M1027,1340.1719 L1027,1365.1719 L1200,1365.1719 L1200,1350.1719 L1190,1340.1719 L1027,1340.1719 " fill="#FF0000" filter="url(#f1as0212fdbe98)" style="stroke: #A80036; stroke-width: 1.0;"/><path d="M1190,1340.1719 L1190,1350.1719 L1200,1350.1719 L1190,1340.1719 " fill="#FF0000" style="stroke: #A80036; stroke-width: 1.0;"/><text fill="#000000" font-family="sans-serif" font-size="13" lengthAdjust="spacingAndGlyphs" textLength="152" x="1033" y="1357.7402">Validation failure/ Error!</text><path d="M1027,1379.4824 L1027,1496.4824 L1309,1496.4824 L1309,1389.4824 L1299,1379.4824 L1027,1379.4824 " fill="#FFFF00" filter="url(#f1as0212fdbe98)" style="stroke: #A80036; stroke-width: 1.0;"/><path d="M1299,1379.4824 L1299,1389.4824 L1309,1389.4824 L1299,1379.4824 " fill="#FFFF00" style="stroke: #A80036; stroke-width: 1.0;"/><text fill="#000000" font-family="sans-serif" font-size="13" lengthAdjust="spacingAndGlyphs" textLength="58" x="1033" y="1397.0508">Message:</text><text fill="#000000" font-family="sans-serif" font-size="13" lengthAdjust="spacingAndGlyphs" textLength="4" x="1033" y="1412.3613">{</text><text fill="#000000" font-family="sans-serif" font-size="13" lengthAdjust="spacingAndGlyphs" textLength="126" x="1049" y="1427.6719">"errorInformation": {</text><text fill="#000000" font-family="sans-serif" font-size="13" lengthAdjust="spacingAndGlyphs" textLength="166" x="1065" y="1442.9824">"errorCode": &lt;errorCode&gt;,</text><text fill="#000000" font-family="sans-serif" font-size="13" lengthAdjust="spacingAndGlyphs" textLength="229" x="1065" y="1458.293">"errorDescription": &lt;ErrorMessage&gt;,</text><text fill="#000000" font-family="sans-serif" font-size="13" lengthAdjust="spacingAndGlyphs" textLength="4" x="1049" y="1473.6035">}</text><text fill="#000000" font-family="sans-serif" font-size="13" lengthAdjust="spacingAndGlyphs" textLength="4" x="1033" y="1488.9141">}</text><polygon fill="#A80036" points="739.5,1522.9668,729.5,1526.9668,739.5,1530.9668,735.5,1526.9668" style="stroke: #A80036; stroke-width: 1.0;"/><line style="stroke: #A80036; stroke-width: 1.0; stroke-dasharray: 2.0,2.0;" x1="733.5" x2="1016.5" y1="1526.9668" y2="1526.9668"/><text fill="#000000" font-family="sans-serif" font-size="13" font-weight="bold" lengthAdjust="spacingAndGlyphs" textLength="18" x="745.5" y="1522.2246">21</text><text fill="#000000" font-family="sans-serif" font-size="13" lengthAdjust="spacingAndGlyphs" textLength="41" x="767.5" y="1522.2246">Return</text><text fill="#FF0000" font-family="sans-serif" font-size="13" font-weight="bold" lengthAdjust="spacingAndGlyphs" textLength="73" x="812.5" y="1522.2246">Error code:</text><text fill="#FF0000" font-family="sans-serif" font-size="13" lengthAdjust="spacingAndGlyphs" textLength="72" x="889.5" y="1522.2246">3000, 3200</text><polygon fill="#A80036" points="122.5,1552.2773,112.5,1556.2773,122.5,1560.2773,118.5,1556.2773" style="stroke: #A80036; stroke-width: 1.0;"/><line style="stroke: #A80036; stroke-width: 1.0; stroke-dasharray: 2.0,2.0;" x1="116.5" x2="717.5" y1="1556.2773" y2="1556.2773"/><text fill="#000000" font-family="sans-serif" font-size="13" font-weight="bold" lengthAdjust="spacingAndGlyphs" textLength="18" x="128.5" y="1551.5352">22</text><text fill="#000000" font-family="sans-serif" font-size="13" lengthAdjust="spacingAndGlyphs" textLength="41" x="150.5" y="1551.5352">Return</text><text fill="#FF0000" font-family="sans-serif" font-size="13" font-weight="bold" lengthAdjust="spacingAndGlyphs" textLength="73" x="195.5" y="1551.5352">Error code:</text><text fill="#FF0000" font-family="sans-serif" font-size="13" lengthAdjust="spacingAndGlyphs" textLength="72" x="272.5" y="1551.5352">3000, 3200</text><!--
@startuml
title 3.1.0 Get Participant Callback Details

autonumber

entity "ML-API-ADAPTER" as MLAPI
boundary "Central Service API" as CSAPI
control "Participant Handler" as PARTICIPANT_HANDLER
entity "Central Service API" as CSAPI
entity "Participant DAO" as PARTICIPANT_DAO
database "Central Store" as DB
box "ML API Adapter Service" #LightBlue
participant MLAPI
end box

box "Central Services" #LightYellow
participant CSAPI
participant PARTICIPANT_HANDLER
participant PARTICIPANT_DAO
participant DB
end box


activate MLAPI
group Get Callback Details
    MLAPI -> CSAPI: Request to get callback details - GET - /participants/{name}/endpoints?type={typeValue}
    activate CSAPI
    CSAPI -> PARTICIPANT_HANDLER: Fetch Callback details for Participant
    activate PARTICIPANT_HANDLER
    PARTICIPANT_HANDLER ->PARTICIPANT_DAO: Fetch Participant \n<color #FF0000><b>Error code:</b> 3200</color>

    activate PARTICIPANT_DAO
    PARTICIPANT_DAO ->DB: Fetch Participant
    activate DB
    hnote over DB #lightyellow
        participant
    end note
    DB - -> PARTICIPANT_DAO: Retrieved Participant
    deactivate DB
    PARTICIPANT_DAO - ->PARTICIPANT_HANDLER: Return Participant
    deactivate PARTICIPANT_DAO
    PARTICIPANT_HANDLER ->PARTICIPANT_HANDLER: Validate DFSP
    alt Validate participant (success)
        PARTICIPANT_HANDLER -> PARTICIPANT_HANDLER: check if "type" parameter is sent
        alt Check if "type" parameter is sent (Sent)
            PARTICIPANT_HANDLER ->PARTICIPANT_DAO: Fetch Callback details for Participant and type \n<color #FF0000><b>Error code:</b> 3000</color>
            activate PARTICIPANT_DAO
            PARTICIPANT_DAO ->DB: Fetch Callback details for Participant and type
            note right of PARTICIPANT_DAO #lightgrey
                Condition:
                    isActive = 1
                    [endpointTypeId = <type>]
            end note

            activate DB
            hnote over DB #lightyellow
                participantEndpoint
            end note
            DB - -> PARTICIPANT_DAO: Retrieved Callback details for Participant and type
            deactivate DB
            PARTICIPANT_DAO - ->PARTICIPANT_HANDLER: Return Callback details for Participant and type
            deactivate PARTICIPANT_DAO
            note right of PARTICIPANT_HANDLER #yellow
                Message:
                {
                    endpoints: {type: <type>, value: <value>}
                }
            end note
            PARTICIPANT_HANDLER - ->CSAPI: Return Callback details for Participant
            deactivate PARTICIPANT_HANDLER
            CSAPI - ->MLAPI: Return Callback details for Participant
        else Check if "type" parameter is sent (Not Sent)
            activate PARTICIPANT_HANDLER
            PARTICIPANT_HANDLER ->PARTICIPANT_DAO: Fetch Callback details for Participant \n<color #FF0000><b>Error code:</b> 3000</color>
            activate PARTICIPANT_DAO
            PARTICIPANT_DAO ->DB: Fetch Callback details for Participant
            note right of PARTICIPANT_DAO #lightgrey
                Condition:
                    isActive = 1
            end note

            activate DB
            hnote over DB #lightyellow
                participantEndpoint
            end note
            DB - -> PARTICIPANT_DAO: Retrieved Callback details for Participant
            deactivate DB
            PARTICIPANT_DAO - ->PARTICIPANT_HANDLER: Return Callback details for Participant
            deactivate PARTICIPANT_DAO
            note right of PARTICIPANT_HANDLER #yellow
                Message:
                {
                    endpoints: [
                        {type: <type>, value: <value>},
                        {type: <type>, value: <value>}
                    ]
                }
            end note
            PARTICIPANT_HANDLER - ->CSAPI: Return Callback details for Participant
            CSAPI - ->MLAPI: Return Callback details for Participant
        end


    else Validate participant (failure)/ Error
        activate PARTICIPANT_HANDLER
        note right of PARTICIPANT_HANDLER #red: Validation failure/ Error!
        activate PARTICIPANT_HANDLER
        note right of PARTICIPANT_HANDLER #yellow
            Message:
            {
                "errorInformation": {
                    "errorCode": <errorCode>,
                    "errorDescription": <ErrorMessage>,
                }
            }
        end note
        PARTICIPANT_HANDLER - ->CSAPI: Return <color #FF0000><b>Error code:</b> 3000, 3200</color>
        deactivate PARTICIPANT_HANDLER
        CSAPI - ->MLAPI: Return <color #FF0000><b>Error code:</b> 3000, 3200</color>

    end
    deactivate CSAPI
    deactivate MLAPI
end

@enduml

PlantUML version 1.2018.05(Sat May 05 23:00:17 EEST 2018)
(GPL source distribution)
Java Runtime: Java(TM) SE Runtime Environment
JVM: Java HotSpot(TM) 64-Bit Server VM
Java Version: 1.8.0_131-b11
Operating System: Mac OS X
OS Version: 10.14.5
Default Encoding: UTF-8
Language: en
Country: US
--></g></svg>