<svg xmlns="http://www.w3.org/2000/svg" height="1655" preserveAspectRatio="none" style="width:1880px;height:1655px" width="1880">
  <defs>
    <filter height="300%" id="a" width="300%" x="-1" y="-1">
      <feGaussianBlur result="blurOut" stdDeviation="2"/>
      <feColorMatrix in="blurOut" result="blurOut2" values="0 0 0 0 0 0 0 0 0 0 0 0 0 0 0 0 0 0 .4 0"/>
      <feOffset dx="4" dy="4" in="blurOut2" result="blurOut3"/>
      <feBlend in="SourceGraphic" in2="blurOut3"/>
    </filter>
  </defs>
  <text font-family="sans-serif" font-size="18" lengthAdjust="spacingAndGlyphs" textLength="328" x="774.25" y="28.708">
    3.1.0 Get Participant Callback Details
  </text>
  <path fill="#ADD8E6" stroke="#a80036" d="M11.5 40.953h179v1608.641h-179z"/>
  <text font-family="sans-serif" font-size="13" font-weight="bold" lengthAdjust="spacingAndGlyphs" textLength="173" x="14.5" y="53.02">
    ML API Adapter Service
  </text>
  <path fill="#FFFFE0" stroke="#a80036" d="M671.5 40.953h1143v1608.641h-1143z"/>
  <text font-family="sans-serif" font-size="13" font-weight="bold" lengthAdjust="spacingAndGlyphs" textLength="119" x="1183.5" y="53.02">
    Central Services
  </text>
  <path fill="#FFF" filter="url(#a)" stroke="#a80036" d="M96 132.383h10v1434.914H96zM737.5 177.648h10v1389.648h-10zM1031.5 206.781h10v645.188h-10zM1031.5 881.102h10v642.063h-10zM1385.5 251.047h10v120.531h-10zM1385.5 548.375h10v189.93h-10zM1385.5 940.172h10v174.797h-10zM1757.5 280.18h10v62.266h-10zM1757.5 577.508h10v131.664h-10zM1757.5 969.305h10v116.531h-10z"/>
  <path fill="#FFF" filter="url(#a)" stroke="#000" stroke-width="2" d="M10 139.383h1856v1427.914H10z"/>
  <path fill="#FFF" filter="url(#a)" stroke="#000" stroke-width="2" d="M20 428.711h1836v1131.586H20z"/>
  <path fill="#FFF" filter="url(#a)" stroke="#000" stroke-width="2" d="M30 494.977h1816v816.188H30z"/>
  <path fill="#FFF" d="M30 889.102h1816v422.063H30zM20 1318.164h1836v242.133H20z"/>
  <path stroke="#a80036" stroke-dasharray="5,5" d="M101 122.383v1461.914M742.5 122.383v1461.914M1036 122.383v1461.914M1390 122.383v1461.914M1762.5 122.383v1461.914"/>
  <text font-family="sans-serif" font-size="14" lengthAdjust="spacingAndGlyphs" textLength="116" x="40" y="119.081">
    ML-API-ADAPTER
  </text>
  <circle cx="101" cy="90.086" fill="#FEFECE" filter="url(#a)" stroke="#a80036" stroke-width="2" r="12"/>
  <path stroke="#a80036" stroke-width="2" d="M89 104.086h24"/>
  <text font-family="sans-serif" font-size="14" lengthAdjust="spacingAndGlyphs" textLength="116" x="40" y="1596.292">
    ML-API-ADAPTER
  </text>
  <circle cx="101" cy="1615.594" fill="#FEFECE" filter="url(#a)" stroke="#a80036" stroke-width="2" r="12"/>
  <path stroke="#a80036" stroke-width="2" d="M89 1629.594h24"/>
  <text font-family="sans-serif" font-size="14" lengthAdjust="spacingAndGlyphs" textLength="128" x="675.5" y="119.081">
    Central Service API
  </text>
  <path d="M722 78.086v24m0-12h17" fill="none" filter="url(#a)" stroke="#a80036" stroke-width="2"/>
  <circle cx="751" cy="90.086" fill="#FEFECE" filter="url(#a)" stroke="#a80036" stroke-width="2" r="12"/>
  <text font-family="sans-serif" font-size="14" lengthAdjust="spacingAndGlyphs" textLength="128" x="675.5" y="1596.292">
    Central Service API
  </text>
  <path d="M722 1603.594v24m0-12h17" fill="none" filter="url(#a)" stroke="#a80036" stroke-width="2"/>
  <circle cx="751" cy="1615.594" fill="#FEFECE" filter="url(#a)" stroke="#a80036" stroke-width="2" r="12"/>
  <text font-family="sans-serif" font-size="14" lengthAdjust="spacingAndGlyphs" textLength="129" x="969" y="119.081">
    Participant Handler
  </text>
  <circle cx="1036.5" cy="90.086" fill="#FEFECE" filter="url(#a)" stroke="#a80036" stroke-width="2" r="12"/>
  <path fill="#A80036" stroke="#a80036" d="M1032.5 78.086l6-5-2 5 2 5-6-5z"/>
  <text font-family="sans-serif" font-size="14" lengthAdjust="spacingAndGlyphs" textLength="129" x="969" y="1596.292">
    Participant Handler
  </text>
  <circle cx="1036.5" cy="1615.594" fill="#FEFECE" filter="url(#a)" stroke="#a80036" stroke-width="2" r="12"/>
  <path fill="#A80036" stroke="#a80036" d="M1032.5 1603.594l6-5-2 5 2 5-6-5z"/>
  <text font-family="sans-serif" font-size="14" lengthAdjust="spacingAndGlyphs" textLength="107" x="1334" y="119.081">
    Participant DAO
  </text>
  <circle cx="1390.5" cy="90.086" fill="#FEFECE" filter="url(#a)" stroke="#a80036" stroke-width="2" r="12"/>
  <path stroke="#a80036" stroke-width="2" d="M1378.5 104.086h24"/>
  <text font-family="sans-serif" font-size="14" lengthAdjust="spacingAndGlyphs" textLength="107" x="1334" y="1596.292">
    Participant DAO
  </text>
  <circle cx="1390.5" cy="1615.594" fill="#FEFECE" filter="url(#a)" stroke="#a80036" stroke-width="2" r="12"/>
  <path stroke="#a80036" stroke-width="2" d="M1378.5 1629.594h24"/>
  <text font-family="sans-serif" font-size="14" lengthAdjust="spacingAndGlyphs" textLength="90" x="1714.5" y="119.081">
    Central Store
  </text>
  <path d="M1744.5 70.086c0-10 18-10 18-10s18 0 18 10v26c0 10-18 10-18 10s-18 0-18-10v-26" fill="#FEFECE" filter="url(#a)" stroke="#000" stroke-width="1.5"/>
  <path d="M1744.5 70.086c0 10 18 10 18 10s18 0 18-10" fill="none" stroke="#000" stroke-width="1.5"/>
  <text font-family="sans-serif" font-size="14" lengthAdjust="spacingAndGlyphs" textLength="90" x="1714.5" y="1596.292">
    Central Store
  </text>
  <path d="M1744.5 1609.594c0-10 18-10 18-10s18 0 18 10v26c0 10-18 10-18 10s-18 0-18-10v-26" fill="#FEFECE" filter="url(#a)" stroke="#000" stroke-width="1.5"/>
  <path d="M1744.5 1609.594c0 10 18 10 18 10s18 0 18-10" fill="none" stroke="#000" stroke-width="1.5"/>
  <path fill="#FFF" filter="url(#a)" stroke="#a80036" d="M96 132.383h10v1434.914H96zM737.5 177.648h10v1389.648h-10zM1031.5 206.781h10v645.188h-10zM1031.5 881.102h10v642.063h-10zM1385.5 251.047h10v120.531h-10zM1385.5 548.375h10v189.93h-10zM1385.5 940.172h10v174.797h-10zM1757.5 280.18h10v62.266h-10zM1757.5 577.508h10v131.664h-10zM1757.5 969.305h10v116.531h-10z"/>
  <path d="M10 139.383h195v7l-10 10H10v-17" fill="#EEE" stroke="#000"/>
  <path fill="none" stroke="#000" stroke-width="2" d="M10 139.383h1856v1427.914H10z"/>
  <text font-family="sans-serif" font-size="13" font-weight="bold" lengthAdjust="spacingAndGlyphs" textLength="150" x="25" y="152.45">
    Get Callback Details
  </text>
  <path fill="#A80036" stroke="#a80036" d="M725.5 173.648l10 4-10 4 4-4z"/>
  <path stroke="#a80036" d="M106 177.648h625.5"/>
  <text font-family="sans-serif" font-size="13" font-weight="bold" lengthAdjust="spacingAndGlyphs" textLength="9" x="113" y="172.583">
    1
  </text>
  <text font-family="sans-serif" font-size="13" lengthAdjust="spacingAndGlyphs" textLength="575" x="126" y="172.583">
    Request to get callback details - GET - /participants/{name}/endpoints?type={typeValue}
  </text>
  <path fill="#A80036" stroke="#a80036" d="M1019.5 202.781l10 4-10 4 4-4z"/>
  <path stroke="#a80036" d="M747.5 206.781h278"/>
  <text font-family="sans-serif" font-size="13" font-weight="bold" lengthAdjust="spacingAndGlyphs" textLength="9" x="754.5" y="201.715">
    2
  </text>
  <text font-family="sans-serif" font-size="13" lengthAdjust="spacingAndGlyphs" textLength="231" x="767.5" y="201.715">
    Fetch Callback details for Participant
  </text>
  <path fill="#A80036" stroke="#a80036" d="M1373.5 247.047l10 4-10 4 4-4z"/>
  <path stroke="#a80036" d="M1041.5 251.047h338"/>
  <text font-family="sans-serif" font-size="13" font-weight="bold" lengthAdjust="spacingAndGlyphs" textLength="9" x="1048.5" y="238.415">
    3
  </text>
  <text font-family="sans-serif" font-size="13" lengthAdjust="spacingAndGlyphs" textLength="107" x="1061.5" y="230.848">
    Fetch Participant
  </text>
  <text fill="red" font-family="sans-serif" font-size="13" font-weight="bold" lengthAdjust="spacingAndGlyphs" textLength="82" x="1061.5" y="245.981">
    Error code:
  </text>
  <text fill="red" font-family="sans-serif" font-size="13" lengthAdjust="spacingAndGlyphs" textLength="32" x="1147.5" y="245.981">
    3200
  </text>
  <path fill="#A80036" stroke="#a80036" d="M1745.5 276.18l10 4-10 4 4-4z"/>
  <path stroke="#a80036" d="M1395.5 280.18h356"/>
  <text font-family="sans-serif" font-size="13" font-weight="bold" lengthAdjust="spacingAndGlyphs" textLength="9" x="1402.5" y="275.114">
    4
  </text>
  <text font-family="sans-serif" font-size="13" lengthAdjust="spacingAndGlyphs" textLength="107" x="1415.5" y="275.114">
    Fetch Participant
  </text>
  <path fill="#FFFFE0" filter="url(#a)" stroke="#a80036" d="M1726 293.18h72l10 11-10 12h-72l-10-12 10-11z"/>
  <text font-family="sans-serif" font-size="13" lengthAdjust="spacingAndGlyphs" textLength="68" x="1728" y="309.247">
    participant
  </text>
  <path fill="#A80036" stroke="#a80036" d="M1406.5 338.445l-10 4 10 4-4-4z"/>
  <path stroke="#a80036" stroke-dasharray="2,2" d="M1400.5 342.445h361"/>
  <text font-family="sans-serif" font-size="13" font-weight="bold" lengthAdjust="spacingAndGlyphs" textLength="9" x="1412.5" y="337.379">
    5
  </text>
  <text font-family="sans-serif" font-size="13" lengthAdjust="spacingAndGlyphs" textLength="132" x="1425.5" y="337.379">
    Retrieved Participant
  </text>
  <path fill="#A80036" stroke="#a80036" d="M1052.5 367.578l-10 4 10 4-4-4z"/>
  <path stroke="#a80036" stroke-dasharray="2,2" d="M1046.5 371.578h343"/>
  <text font-family="sans-serif" font-size="13" font-weight="bold" lengthAdjust="spacingAndGlyphs" textLength="9" x="1058.5" y="366.512">
    6
  </text>
  <text font-family="sans-serif" font-size="13" lengthAdjust="spacingAndGlyphs" textLength="114" x="1071.5" y="366.512">
    Return Participant
  </text>
  <path stroke="#a80036" d="M1041.5 400.711h42M1083.5 400.711v13M1042.5 413.711h41"/>
  <path fill="#A80036" stroke="#a80036" d="M1052.5 409.71l-10 4 10 4-4-4z"/>
  <text font-family="sans-serif" font-size="13" font-weight="bold" lengthAdjust="spacingAndGlyphs" textLength="9" x="1048.5" y="395.645">
    7
  </text>
  <text font-family="sans-serif" font-size="13" lengthAdjust="spacingAndGlyphs" textLength="90" x="1061.5" y="395.645">
    Validate DFSP
  </text>
  <path d="M20 428.71h64v7l-10 10H20v-17" fill="#EEE" stroke="#000"/>
  <path fill="none" stroke="#000" stroke-width="2" d="M20 428.711h1836v1131.586H20z"/>
  <text font-family="sans-serif" font-size="13" font-weight="bold" lengthAdjust="spacingAndGlyphs" textLength="19" x="35" y="441.778">
    alt
  </text>
  <text font-family="sans-serif" font-size="11" font-weight="bold" lengthAdjust="spacingAndGlyphs" textLength="202" x="99" y="440.921">
    [Validate participant (success)]
  </text>
  <path stroke="#a80036" d="M1041.5 466.977h42M1083.5 466.977v13M1042.5 479.977h41"/>
  <path fill="#A80036" stroke="#a80036" d="M1052.5 475.977l-10 4 10 4-4-4z"/>
  <text font-family="sans-serif" font-size="13" font-weight="bold" lengthAdjust="spacingAndGlyphs" textLength="9" x="1048.5" y="461.911">
    8
  </text>
  <text font-family="sans-serif" font-size="13" lengthAdjust="spacingAndGlyphs" textLength="208" x="1061.5" y="461.911">
    check if &quot;type&quot; parameter is sent
  </text>
  <path d="M30 494.977h64v7l-10 10H30v-17" fill="#EEE" stroke="#000"/>
  <path fill="none" stroke="#000" stroke-width="2" d="M30 494.977h1816v816.188H30z"/>
  <text font-family="sans-serif" font-size="13" font-weight="bold" lengthAdjust="spacingAndGlyphs" textLength="19" x="45" y="508.043">
    alt
  </text>
  <text font-family="sans-serif" font-size="11" font-weight="bold" lengthAdjust="spacingAndGlyphs" textLength="266" x="109" y="507.187">
    [Check if &quot;type&quot; parameter is sent (Sent)]
  </text>
  <path fill="#A80036" stroke="#a80036" d="M1373.5 544.375l10 4-10 4 4-4z"/>
  <path stroke="#a80036" d="M1041.5 548.375h338"/>
  <text font-family="sans-serif" font-size="13" font-weight="bold" lengthAdjust="spacingAndGlyphs" textLength="9" x="1048.5" y="535.743">
    9
  </text>
  <text font-family="sans-serif" font-size="13" lengthAdjust="spacingAndGlyphs" textLength="291" x="1061.5" y="528.176">
    Fetch Callback details for Participant and type
  </text>
  <text fill="red" font-family="sans-serif" font-size="13" font-weight="bold" lengthAdjust="spacingAndGlyphs" textLength="82" x="1061.5" y="543.309">
    Error code:
  </text>
  <text fill="red" font-family="sans-serif" font-size="13" lengthAdjust="spacingAndGlyphs" textLength="32" x="1147.5" y="543.309">
    3000
  </text>
  <path fill="#A80036" stroke="#a80036" d="M1745.5 573.508l10 4-10 4 4-4z"/>
  <path stroke="#a80036" d="M1395.5 577.508h356"/>
  <text font-family="sans-serif" font-size="13" font-weight="bold" lengthAdjust="spacingAndGlyphs" textLength="18" x="1402.5" y="572.442">
    10
  </text>
  <text font-family="sans-serif" font-size="13" lengthAdjust="spacingAndGlyphs" textLength="291" x="1424.5" y="572.442">
    Fetch Callback details for Participant and type
  </text>
  <path d="M1400 590.508v55h213v-45l-10-10h-203" fill="#D3D3D3" filter="url(#a)" stroke="#a80036"/>
  <path d="M1603 590.508v10h10l-10-10" fill="#D3D3D3" stroke="#a80036"/>
  <text font-family="sans-serif" font-size="13" lengthAdjust="spacingAndGlyphs" textLength="64" x="1406" y="607.575">
    Condition:
  </text>
  <text font-family="sans-serif" font-size="13" lengthAdjust="spacingAndGlyphs" textLength="76" x="1422" y="622.707">
    isActive = 1
  </text>
  <text font-family="sans-serif" font-size="13" lengthAdjust="spacingAndGlyphs" textLength="176" x="1422" y="637.84">
    [endpointTypeId = &lt;type&gt;]
  </text>
  <path fill="#FFFFE0" filter="url(#a)" stroke="#a80036" d="M1698 659.906h128l10 11-10 12h-128l-10-12 10-11z"/>
  <text font-family="sans-serif" font-size="13" lengthAdjust="spacingAndGlyphs" textLength="124" x="1700" y="675.973">
    participantEndpoint
  </text>
  <path fill="#A80036" stroke="#a80036" d="M1406.5 705.172l-10 4 10 4-4-4z"/>
  <path stroke="#a80036" stroke-dasharray="2,2" d="M1400.5 709.172h361"/>
  <text font-family="sans-serif" font-size="13" font-weight="bold" lengthAdjust="spacingAndGlyphs" textLength="18" x="1412.5" y="704.106">
    11
  </text>
  <text font-family="sans-serif" font-size="13" lengthAdjust="spacingAndGlyphs" textLength="316" x="1434.5" y="704.106">
    Retrieved Callback details for Participant and type
  </text>
  <path fill="#A80036" stroke="#a80036" d="M1052.5 734.305l-10 4 10 4-4-4z"/>
  <path stroke="#a80036" stroke-dasharray="2,2" d="M1046.5 738.305h343"/>
  <text font-family="sans-serif" font-size="13" font-weight="bold" lengthAdjust="spacingAndGlyphs" textLength="18" x="1058.5" y="733.239">
    12
  </text>
  <text font-family="sans-serif" font-size="13" lengthAdjust="spacingAndGlyphs" textLength="298" x="1080.5" y="733.239">
    Return Callback details for Participant and type
  </text>
  <path d="M1046 751.305v70h316v-60l-10-10h-306" fill="#FF0" filter="url(#a)" stroke="#a80036"/>
  <path d="M1352 751.305v10h10l-10-10" fill="#FF0" stroke="#a80036"/>
  <text font-family="sans-serif" font-size="13" lengthAdjust="spacingAndGlyphs" textLength="61" x="1052" y="768.372">
    Message:
  </text>
  <text font-family="sans-serif" font-size="13" lengthAdjust="spacingAndGlyphs" textLength="8" x="1052" y="783.504">
    {
  </text>
  <text font-family="sans-serif" font-size="13" lengthAdjust="spacingAndGlyphs" textLength="279" x="1068" y="798.637">
    endpoints: {type: &lt;type&gt;, value: &lt;value&gt;}
  </text>
  <text font-family="sans-serif" font-size="13" lengthAdjust="spacingAndGlyphs" textLength="8" x="1052" y="813.77">
    }
  </text>
  <path fill="#A80036" stroke="#a80036" d="M758.5 847.969l-10 4 10 4-4-4z"/>
  <path stroke="#a80036" stroke-dasharray="2,2" d="M752.5 851.969h283"/>
  <text font-family="sans-serif" font-size="13" font-weight="bold" lengthAdjust="spacingAndGlyphs" textLength="18" x="764.5" y="846.903">
    13
  </text>
  <text font-family="sans-serif" font-size="13" lengthAdjust="spacingAndGlyphs" textLength="238" x="786.5" y="846.903">
    Return Callback details for Participant
  </text>
  <path fill="#A80036" stroke="#a80036" d="M117 877.102l-10 4 10 4-4-4z"/>
  <path stroke="#a80036" stroke-dasharray="2,2" d="M111 881.102h625.5"/>
  <text font-family="sans-serif" font-size="13" font-weight="bold" lengthAdjust="spacingAndGlyphs" textLength="18" x="123" y="876.036">
    14
  </text>
  <text font-family="sans-serif" font-size="13" lengthAdjust="spacingAndGlyphs" textLength="238" x="145" y="876.036">
    Return Callback details for Participant
  </text>
  <path stroke="#000" stroke-dasharray="2,2" d="M30 890.102h1816"/>
  <text font-family="sans-serif" font-size="11" font-weight="bold" lengthAdjust="spacingAndGlyphs" textLength="292" x="35" y="900.312">
    [Check if &quot;type&quot; parameter is sent (Not Sent)]
  </text>
  <path fill="#A80036" stroke="#a80036" d="M1373.5 936.172l10 4-10 4 4-4z"/>
  <path stroke="#a80036" d="M1041.5 940.172h338"/>
  <text font-family="sans-serif" font-size="13" font-weight="bold" lengthAdjust="spacingAndGlyphs" textLength="18" x="1048.5" y="927.54">
    15
  </text>
  <text font-family="sans-serif" font-size="13" lengthAdjust="spacingAndGlyphs" textLength="231" x="1070.5" y="919.973">
    Fetch Callback details for Participant
  </text>
  <text fill="red" font-family="sans-serif" font-size="13" font-weight="bold" lengthAdjust="spacingAndGlyphs" textLength="82" x="1070.5" y="935.106">
    Error code:
  </text>
  <text fill="red" font-family="sans-serif" font-size="13" lengthAdjust="spacingAndGlyphs" textLength="32" x="1156.5" y="935.106">
    3000
  </text>
  <path fill="#A80036" stroke="#a80036" d="M1745.5 965.305l10 4-10 4 4-4z"/>
  <path stroke="#a80036" d="M1395.5 969.305h356"/>
  <text font-family="sans-serif" font-size="13" font-weight="bold" lengthAdjust="spacingAndGlyphs" textLength="18" x="1402.5" y="964.239">
    16
  </text>
  <text font-family="sans-serif" font-size="13" lengthAdjust="spacingAndGlyphs" textLength="231" x="1424.5" y="964.239">
    Fetch Callback details for Participant
  </text>
  <path d="M1400 982.305v40h113v-30l-10-10h-103" fill="#D3D3D3" filter="url(#a)" stroke="#a80036"/>
  <path d="M1503 982.305v10h10l-10-10" fill="#D3D3D3" stroke="#a80036"/>
  <text font-family="sans-serif" font-size="13" lengthAdjust="spacingAndGlyphs" textLength="64" x="1406" y="999.372">
    Condition:
  </text>
  <text font-family="sans-serif" font-size="13" lengthAdjust="spacingAndGlyphs" textLength="76" x="1422" y="1014.504">
    isActive = 1
  </text>
  <path fill="#FFFFE0" filter="url(#a)" stroke="#a80036" d="M1698 1036.57h128l10 11-10 12h-128l-10-12 10-11z"/>
  <text font-family="sans-serif" font-size="13" lengthAdjust="spacingAndGlyphs" textLength="124" x="1700" y="1052.637">
    participantEndpoint
  </text>
  <path fill="#A80036" stroke="#a80036" d="M1406.5 1081.836l-10 4 10 4-4-4z"/>
  <path stroke="#a80036" stroke-dasharray="2,2" d="M1400.5 1085.836h361"/>
  <text font-family="sans-serif" font-size="13" font-weight="bold" lengthAdjust="spacingAndGlyphs" textLength="18" x="1412.5" y="1080.77">
    17
  </text>
  <text font-family="sans-serif" font-size="13" lengthAdjust="spacingAndGlyphs" textLength="256" x="1434.5" y="1080.77">
    Retrieved Callback details for Participant
  </text>
  <path fill="#A80036" stroke="#a80036" d="M1052.5 1110.969l-10 4 10 4-4-4z"/>
  <path stroke="#a80036" stroke-dasharray="2,2" d="M1046.5 1114.969h343"/>
  <text font-family="sans-serif" font-size="13" font-weight="bold" lengthAdjust="spacingAndGlyphs" textLength="18" x="1058.5" y="1109.903">
    18
  </text>
  <text font-family="sans-serif" font-size="13" lengthAdjust="spacingAndGlyphs" textLength="238" x="1080.5" y="1109.903">
    Return Callback details for Participant
  </text>
  <path d="M1046 1127.969v115h265v-105l-10-10h-255" fill="#FF0" filter="url(#a)" stroke="#a80036"/>
  <path d="M1301 1127.969v10h10l-10-10" fill="#FF0" stroke="#a80036"/>
  <text font-family="sans-serif" font-size="13" lengthAdjust="spacingAndGlyphs" textLength="61" x="1052" y="1145.036">
    Message:
  </text>
  <text font-family="sans-serif" font-size="13" lengthAdjust="spacingAndGlyphs" textLength="8" x="1052" y="1160.168">
    {
  </text>
  <text font-family="sans-serif" font-size="13" lengthAdjust="spacingAndGlyphs" textLength="76" x="1068" y="1175.301">
    endpoints: [
  </text>
  <text font-family="sans-serif" font-size="13" lengthAdjust="spacingAndGlyphs" textLength="212" x="1084" y="1190.434">
    {type: &lt;type&gt;, value: &lt;value&gt;},
  </text>
  <text font-family="sans-serif" font-size="13" lengthAdjust="spacingAndGlyphs" textLength="208" x="1084" y="1205.567">
    {type: &lt;type&gt;, value: &lt;value&gt;}
  </text>
  <text font-family="sans-serif" font-size="13" lengthAdjust="spacingAndGlyphs" textLength="5" x="1068" y="1220.7">
    ]
  </text>
  <text font-family="sans-serif" font-size="13" lengthAdjust="spacingAndGlyphs" textLength="8" x="1052" y="1235.832">
    }
  </text>
  <path fill="#A80036" stroke="#a80036" d="M758.5 1270.031l-10 4 10 4-4-4z"/>
  <path stroke="#a80036" stroke-dasharray="2,2" d="M752.5 1274.031h278"/>
  <text font-family="sans-serif" font-size="13" font-weight="bold" lengthAdjust="spacingAndGlyphs" textLength="18" x="764.5" y="1268.965">
    19
  </text>
  <text font-family="sans-serif" font-size="13" lengthAdjust="spacingAndGlyphs" textLength="238" x="786.5" y="1268.965">
    Return Callback details for Participant
  </text>
  <path fill="#A80036" stroke="#a80036" d="M117 1299.164l-10 4 10 4-4-4z"/>
  <path stroke="#a80036" stroke-dasharray="2,2" d="M111 1303.164h625.5"/>
  <text font-family="sans-serif" font-size="13" font-weight="bold" lengthAdjust="spacingAndGlyphs" textLength="18" x="123" y="1298.098">
    20
  </text>
  <text font-family="sans-serif" font-size="13" lengthAdjust="spacingAndGlyphs" textLength="238" x="145" y="1298.098">
    Return Callback details for Participant
  </text>
  <path stroke="#000" stroke-dasharray="2,2" d="M20 1319.164h1836"/>
  <text font-family="sans-serif" font-size="11" font-weight="bold" lengthAdjust="spacingAndGlyphs" textLength="232" x="25" y="1329.374">
    [Validate participant (failure)/ Error]
  </text>
  <path d="M1046 1337.969v25h171v-15l-10-10h-161" fill="red" filter="url(#a)" stroke="#a80036"/>
  <path d="M1207 1337.969v10h10l-10-10" fill="red" stroke="#a80036"/>
  <text font-family="sans-serif" font-size="13" lengthAdjust="spacingAndGlyphs" textLength="150" x="1052" y="1355.036">
    Validation failure/ Error!
  </text>
  <path d="M1046 1377.102v115h288v-105l-10-10h-278" fill="#FF0" filter="url(#a)" stroke="#a80036"/>
  <path d="M1324 1377.102v10h10l-10-10" fill="#FF0" stroke="#a80036"/>
  <text font-family="sans-serif" font-size="13" lengthAdjust="spacingAndGlyphs" textLength="61" x="1052" y="1394.168">
    Message:
  </text>
  <text font-family="sans-serif" font-size="13" lengthAdjust="spacingAndGlyphs" textLength="8" x="1052" y="1409.301">
    {
  </text>
  <text font-family="sans-serif" font-size="13" lengthAdjust="spacingAndGlyphs" textLength="130" x="1068" y="1424.434">
    &quot;errorInformation&quot;: {
  </text>
  <text font-family="sans-serif" font-size="13" lengthAdjust="spacingAndGlyphs" textLength="172" x="1084" y="1439.567">
    &quot;errorCode&quot;: &lt;errorCode&gt;,
  </text>
  <text font-family="sans-serif" font-size="13" lengthAdjust="spacingAndGlyphs" textLength="235" x="1084" y="1454.7">
    &quot;errorDescription&quot;: &lt;ErrorMessage&gt;,
  </text>
  <text font-family="sans-serif" font-size="13" lengthAdjust="spacingAndGlyphs" textLength="8" x="1068" y="1469.832">
    }
  </text>
  <text font-family="sans-serif" font-size="13" lengthAdjust="spacingAndGlyphs" textLength="8" x="1052" y="1484.965">
    }
  </text>
  <path fill="#A80036" stroke="#a80036" d="M758.5 1519.164l-10 4 10 4-4-4z"/>
  <path stroke="#a80036" stroke-dasharray="2,2" d="M752.5 1523.164h283"/>
  <text font-family="sans-serif" font-size="13" font-weight="bold" lengthAdjust="spacingAndGlyphs" textLength="18" x="764.5" y="1518.098">
    21
  </text>
  <text font-family="sans-serif" font-size="13" lengthAdjust="spacingAndGlyphs" textLength="42" x="786.5" y="1518.098">
    Return
  </text>
  <text fill="red" font-family="sans-serif" font-size="13" font-weight="bold" lengthAdjust="spacingAndGlyphs" textLength="82" x="832.5" y="1518.098">
    Error code:
  </text>
  <text fill="red" font-family="sans-serif" font-size="13" lengthAdjust="spacingAndGlyphs" textLength="72" x="918.5" y="1518.098">
    3000, 3200
  </text>
  <path fill="#A80036" stroke="#a80036" d="M117 1548.297l-10 4 10 4-4-4z"/>
  <path stroke="#a80036" stroke-dasharray="2,2" d="M111 1552.297h625.5"/>
  <text font-family="sans-serif" font-size="13" font-weight="bold" lengthAdjust="spacingAndGlyphs" textLength="18" x="123" y="1547.231">
    22
  </text>
  <text font-family="sans-serif" font-size="13" lengthAdjust="spacingAndGlyphs" textLength="42" x="145" y="1547.231">
    Return
  </text>
  <text fill="red" font-family="sans-serif" font-size="13" font-weight="bold" lengthAdjust="spacingAndGlyphs" textLength="82" x="191" y="1547.231">
    Error code:
  </text>
  <text fill="red" font-family="sans-serif" font-size="13" lengthAdjust="spacingAndGlyphs" textLength="72" x="277" y="1547.231">
    3000, 3200
  </text>
</svg>
