<?xml version="1.0" encoding="UTF-8" standalone="no"?><svg xmlns="http://www.w3.org/2000/svg" xmlns:xlink="http://www.w3.org/1999/xlink" contentScriptType="application/ecmascript" contentStyleType="text/css" height="1167px" preserveAspectRatio="none" style="width:2000px;height:1167px;" version="1.1" viewBox="0 0 2000 1167" width="2000px" zoomAndPan="magnify"><defs><filter height="300%" id="f1eu1pekslom85" width="300%" x="-1" y="-1"><feGaussianBlur result="blurOut" stdDeviation="2.0"/><feColorMatrix in="blurOut" result="blurOut2" type="matrix" values="0 0 0 0 0 0 0 0 0 0 0 0 0 0 0 0 0 0 .4 0"/><feOffset dx="4.0" dy="4.0" in="blurOut2" result="blurOut3"/><feBlend in="SourceGraphic" in2="blurOut3" mode="normal"/></filter></defs><g><text fill="#000000" font-family="sans-serif" font-size="14" font-weight="bold" lengthAdjust="spacingAndGlyphs" textLength="508" x="742.5" y="23.5352">1.1.4.a. Send notification to Participant (Payer/Payee) (single message)</text><rect fill="#D3D3D3" height="1121.5801" style="stroke: #A80036; stroke-width: 1.0;" width="231" x="4" y="34.4883"/><text fill="#000000" font-family="sans-serif" font-size="13" font-weight="bold" lengthAdjust="spacingAndGlyphs" textLength="225" x="7" y="47.0566">Financial Service Provider (Payer)</text><rect fill="#ADD8E6" height="1121.5801" style="stroke: #A80036; stroke-width: 1.0;" width="241" x="412" y="34.4883"/><text fill="#000000" font-family="sans-serif" font-size="13" font-weight="bold" lengthAdjust="spacingAndGlyphs" textLength="157" x="454" y="47.0566">ML API Adapter Service</text><rect fill="#FFFFE0" height="1121.5801" style="stroke: #A80036; stroke-width: 1.0;" width="1081" x="673" y="34.4883"/><text fill="#000000" font-family="sans-serif" font-size="13" font-weight="bold" lengthAdjust="spacingAndGlyphs" textLength="101" x="1163" y="47.0566">Central Service</text><rect fill="#D3D3D3" height="1121.5801" style="stroke: #A80036; stroke-width: 1.0;" width="233" x="1756" y="34.4883"/><text fill="#000000" font-family="sans-serif" font-size="13" font-weight="bold" lengthAdjust="spacingAndGlyphs" textLength="227" x="1759" y="47.0566">Financial Service Provider (Payee)</text><rect fill="#FFFFFF" filter="url(#f1eu1pekslom85)" height="879.3164" style="stroke: #A80036; stroke-width: 1.0;" width="10" x="527.5" y="163.7754"/><rect fill="#FFFFFF" filter="url(#f1eu1pekslom85)" height="30" style="stroke: #A80036; stroke-width: 1.0;" width="10" x="745.5" y="209.3965"/><rect fill="#FFFFFF" filter="url(#f1eu1pekslom85)" height="198.8633" style="stroke: #A80036; stroke-width: 1.0;" width="10" x="1069.5" y="293.0176"/><rect fill="#FFFFFF" filter="url(#f1eu1pekslom85)" height="210.4844" style="stroke: #A80036; stroke-width: 1.0;" width="10" x="1069.5" y="598.123"/><rect fill="#FFFFFF" filter="url(#f1eu1pekslom85)" height="140.2422" style="stroke: #A80036; stroke-width: 1.0;" width="10" x="1273.5" y="322.3281"/><rect fill="#FFFFFF" filter="url(#f1eu1pekslom85)" height="121.2422" style="stroke: #A80036; stroke-width: 1.0;" width="10" x="1393" y="642.7441"/><rect fill="#FFFFFF" filter="url(#f1eu1pekslom85)" height="62.6211" style="stroke: #A80036; stroke-width: 1.0;" width="10" x="1697" y="672.0547"/><rect fill="#FFFFFF" filter="url(#f1eu1pekslom85)" height="865.3164" style="stroke: #000000; stroke-width: 2.0;" width="1865" x="69" y="170.7754"/><rect fill="#FFFFFF" filter="url(#f1eu1pekslom85)" height="245.4844" style="stroke: #000000; stroke-width: 2.0;" width="935" x="406" y="254.3965"/><rect fill="#FFFFFF" filter="url(#f1eu1pekslom85)" height="116.2422" style="stroke: #000000; stroke-width: 2.0;" width="1518" x="406" y="912.8496"/><line style="stroke: #A80036; stroke-width: 1.0; stroke-dasharray: 5.0,5.0;" x1="119" x2="119" y1="153.7754" y2="1053.0918"/><line style="stroke: #A80036; stroke-width: 1.0; stroke-dasharray: 5.0,5.0;" x1="532" x2="532" y1="153.7754" y2="1053.0918"/><line style="stroke: #A80036; stroke-width: 1.0; stroke-dasharray: 5.0,5.0;" x1="750" x2="750" y1="153.7754" y2="1053.0918"/><line style="stroke: #A80036; stroke-width: 1.0; stroke-dasharray: 5.0,5.0;" x1="1074.5" x2="1074.5" y1="153.7754" y2="1053.0918"/><line style="stroke: #A80036; stroke-width: 1.0; stroke-dasharray: 5.0,5.0;" x1="1278" x2="1278" y1="153.7754" y2="1053.0918"/><line style="stroke: #A80036; stroke-width: 1.0; stroke-dasharray: 5.0,5.0;" x1="1398" x2="1398" y1="153.7754" y2="1053.0918"/><line style="stroke: #A80036; stroke-width: 1.0; stroke-dasharray: 5.0,5.0;" x1="1702" x2="1702" y1="153.7754" y2="1053.0918"/><line style="stroke: #A80036; stroke-width: 1.0; stroke-dasharray: 5.0,5.0;" x1="1872" x2="1872" y1="153.7754" y2="1053.0918"/><text fill="#000000" font-family="sans-serif" font-size="14" lengthAdjust="spacingAndGlyphs" textLength="75" x="79" y="134.334">Payer DFSP</text><text fill="#000000" font-family="sans-serif" font-size="14" lengthAdjust="spacingAndGlyphs" textLength="73" x="80" y="150.8223">Participant</text><ellipse cx="119.5" cy="63.7988" fill="#FEFECE" filter="url(#f1eu1pekslom85)" rx="8" ry="8" style="stroke: #A80036; stroke-width: 2.0;"/><path d="M119.5,71.7988 L119.5,98.7988 M106.5,79.7988 L132.5,79.7988 M119.5,98.7988 L106.5,113.7988 M119.5,98.7988 L132.5,113.7988 " fill="none" filter="url(#f1eu1pekslom85)" style="stroke: #A80036; stroke-width: 2.0;"/><text fill="#000000" font-family="sans-serif" font-size="14" lengthAdjust="spacingAndGlyphs" textLength="75" x="79" y="1065.627">Payer DFSP</text><text fill="#000000" font-family="sans-serif" font-size="14" lengthAdjust="spacingAndGlyphs" textLength="73" x="80" y="1082.1152">Participant</text><ellipse cx="119.5" cy="1095.0684" fill="#FEFECE" filter="url(#f1eu1pekslom85)" rx="8" ry="8" style="stroke: #A80036; stroke-width: 2.0;"/><path d="M119.5,1103.0684 L119.5,1130.0684 M106.5,1111.0684 L132.5,1111.0684 M119.5,1130.0684 L106.5,1145.0684 M119.5,1130.0684 L132.5,1145.0684 " fill="none" filter="url(#f1eu1pekslom85)" style="stroke: #A80036; stroke-width: 2.0;"/><text fill="#000000" font-family="sans-serif" font-size="14" lengthAdjust="spacingAndGlyphs" textLength="227" x="416" y="150.8223">ML API Notification Event Handler</text><ellipse cx="532.5" cy="121.2871" fill="#FEFECE" filter="url(#f1eu1pekslom85)" rx="12" ry="12" style="stroke: #A80036; stroke-width: 2.0;"/><polygon fill="#A80036" points="528.5,109.2871,534.5,104.2871,532.5,109.2871,534.5,114.2871,528.5,109.2871" style="stroke: #A80036; stroke-width: 1.0;"/><text fill="#000000" font-family="sans-serif" font-size="14" lengthAdjust="spacingAndGlyphs" textLength="227" x="416" y="1065.627">ML API Notification Event Handler</text><ellipse cx="532.5" cy="1084.5801" fill="#FEFECE" filter="url(#f1eu1pekslom85)" rx="12" ry="12" style="stroke: #A80036; stroke-width: 2.0;"/><polygon fill="#A80036" points="528.5,1072.5801,534.5,1067.5801,532.5,1072.5801,534.5,1077.5801,528.5,1072.5801" style="stroke: #A80036; stroke-width: 1.0;"/><rect fill="#FEFECE" filter="url(#f1eu1pekslom85)" height="30.4883" style="stroke: #A80036; stroke-width: 1.5;" width="139" x="681" y="114.2871"/><rect fill="#FEFECE" filter="url(#f1eu1pekslom85)" height="30.4883" style="stroke: #A80036; stroke-width: 1.5;" width="139" x="677" y="118.2871"/><text fill="#000000" font-family="sans-serif" font-size="14" lengthAdjust="spacingAndGlyphs" textLength="125" x="684" y="138.8223">Notification-Topic</text><rect fill="#FEFECE" filter="url(#f1eu1pekslom85)" height="30.4883" style="stroke: #A80036; stroke-width: 1.5;" width="139" x="681" y="1052.0918"/><rect fill="#FEFECE" filter="url(#f1eu1pekslom85)" height="30.4883" style="stroke: #A80036; stroke-width: 1.5;" width="139" x="677" y="1056.0918"/><text fill="#000000" font-family="sans-serif" font-size="14" lengthAdjust="spacingAndGlyphs" textLength="125" x="684" y="1076.627">Notification-Topic</text><text fill="#000000" font-family="sans-serif" font-size="14" lengthAdjust="spacingAndGlyphs" textLength="128" x="1007.5" y="150.8223">Central Service API</text><path d="M1054,109.2871 L1054,133.2871 M1054,121.2871 L1071,121.2871 " fill="none" filter="url(#f1eu1pekslom85)" style="stroke: #A80036; stroke-width: 2.0;"/><ellipse cx="1083" cy="121.2871" fill="#FEFECE" filter="url(#f1eu1pekslom85)" rx="12" ry="12" style="stroke: #A80036; stroke-width: 2.0;"/><text fill="#000000" font-family="sans-serif" font-size="14" lengthAdjust="spacingAndGlyphs" textLength="128" x="1007.5" y="1065.627">Central Service API</text><path d="M1054,1072.5801 L1054,1096.5801 M1054,1084.5801 L1071,1084.5801 " fill="none" filter="url(#f1eu1pekslom85)" style="stroke: #A80036; stroke-width: 2.0;"/><ellipse cx="1083" cy="1084.5801" fill="#FEFECE" filter="url(#f1eu1pekslom85)" rx="12" ry="12" style="stroke: #A80036; stroke-width: 2.0;"/><rect fill="#FEFECE" filter="url(#f1eu1pekslom85)" height="30.4883" style="stroke: #A80036; stroke-width: 1.5;" width="97" x="1230" y="114.2871"/><rect fill="#FEFECE" filter="url(#f1eu1pekslom85)" height="30.4883" style="stroke: #A80036; stroke-width: 1.5;" width="97" x="1226" y="118.2871"/><text fill="#000000" font-family="sans-serif" font-size="14" lengthAdjust="spacingAndGlyphs" textLength="83" x="1233" y="138.8223">Event-Topic</text><rect fill="#FEFECE" filter="url(#f1eu1pekslom85)" height="30.4883" style="stroke: #A80036; stroke-width: 1.5;" width="97" x="1230" y="1052.0918"/><rect fill="#FEFECE" filter="url(#f1eu1pekslom85)" height="30.4883" style="stroke: #A80036; stroke-width: 1.5;" width="97" x="1226" y="1056.0918"/><text fill="#000000" font-family="sans-serif" font-size="14" lengthAdjust="spacingAndGlyphs" textLength="83" x="1233" y="1076.627">Event-Topic</text><text fill="#000000" font-family="sans-serif" font-size="14" lengthAdjust="spacingAndGlyphs" textLength="108" x="1341" y="150.8223">Participant DAO</text><ellipse cx="1398" cy="121.2871" fill="#FEFECE" filter="url(#f1eu1pekslom85)" rx="12" ry="12" style="stroke: #A80036; stroke-width: 2.0;"/><line style="stroke: #A80036; stroke-width: 2.0;" x1="1386" x2="1410" y1="135.2871" y2="135.2871"/><text fill="#000000" font-family="sans-serif" font-size="14" lengthAdjust="spacingAndGlyphs" textLength="108" x="1341" y="1065.627">Participant DAO</text><ellipse cx="1398" cy="1084.5801" fill="#FEFECE" filter="url(#f1eu1pekslom85)" rx="12" ry="12" style="stroke: #A80036; stroke-width: 2.0;"/><line style="stroke: #A80036; stroke-width: 2.0;" x1="1386" x2="1410" y1="1098.5801" y2="1098.5801"/><text fill="#000000" font-family="sans-serif" font-size="14" lengthAdjust="spacingAndGlyphs" textLength="90" x="1654" y="150.8223">Central Store</text><path d="M1684,101.2871 C1684,91.2871 1702,91.2871 1702,91.2871 C1702,91.2871 1720,91.2871 1720,101.2871 L1720,127.2871 C1720,137.2871 1702,137.2871 1702,137.2871 C1702,137.2871 1684,137.2871 1684,127.2871 L1684,101.2871 " fill="#FEFECE" filter="url(#f1eu1pekslom85)" style="stroke: #000000; stroke-width: 1.5;"/><path d="M1684,101.2871 C1684,111.2871 1702,111.2871 1702,111.2871 C1702,111.2871 1720,111.2871 1720,101.2871 " fill="none" style="stroke: #000000; stroke-width: 1.5;"/><text fill="#000000" font-family="sans-serif" font-size="14" lengthAdjust="spacingAndGlyphs" textLength="90" x="1654" y="1065.627">Central Store</text><path d="M1684,1078.5801 C1684,1068.5801 1702,1068.5801 1702,1068.5801 C1702,1068.5801 1720,1068.5801 1720,1078.5801 L1720,1104.5801 C1720,1114.5801 1702,1114.5801 1702,1114.5801 C1702,1114.5801 1684,1114.5801 1684,1104.5801 L1684,1078.5801 " fill="#FEFECE" filter="url(#f1eu1pekslom85)" style="stroke: #000000; stroke-width: 1.5;"/><path d="M1684,1078.5801 C1684,1088.5801 1702,1088.5801 1702,1088.5801 C1702,1088.5801 1720,1088.5801 1720,1078.5801 " fill="none" style="stroke: #000000; stroke-width: 1.5;"/><text fill="#000000" font-family="sans-serif" font-size="14" lengthAdjust="spacingAndGlyphs" textLength="77" x="1831" y="134.334">Payee DFSP</text><text fill="#000000" font-family="sans-serif" font-size="14" lengthAdjust="spacingAndGlyphs" textLength="73" x="1833" y="150.8223">Participant</text><ellipse cx="1872.5" cy="63.7988" fill="#FEFECE" filter="url(#f1eu1pekslom85)" rx="8" ry="8" style="stroke: #A80036; stroke-width: 2.0;"/><path d="M1872.5,71.7988 L1872.5,98.7988 M1859.5,79.7988 L1885.5,79.7988 M1872.5,98.7988 L1859.5,113.7988 M1872.5,98.7988 L1885.5,113.7988 " fill="none" filter="url(#f1eu1pekslom85)" style="stroke: #A80036; stroke-width: 2.0;"/><text fill="#000000" font-family="sans-serif" font-size="14" lengthAdjust="spacingAndGlyphs" textLength="77" x="1831" y="1065.627">Payee DFSP</text><text fill="#000000" font-family="sans-serif" font-size="14" lengthAdjust="spacingAndGlyphs" textLength="73" x="1833" y="1082.1152">Participant</text><ellipse cx="1872.5" cy="1095.0684" fill="#FEFECE" filter="url(#f1eu1pekslom85)" rx="8" ry="8" style="stroke: #A80036; stroke-width: 2.0;"/><path d="M1872.5,1103.0684 L1872.5,1130.0684 M1859.5,1111.0684 L1885.5,1111.0684 M1872.5,1130.0684 L1859.5,1145.0684 M1872.5,1130.0684 L1885.5,1145.0684 " fill="none" filter="url(#f1eu1pekslom85)" style="stroke: #A80036; stroke-width: 2.0;"/><rect fill="#FFFFFF" filter="url(#f1eu1pekslom85)" height="879.3164" style="stroke: #A80036; stroke-width: 1.0;" width="10" x="527.5" y="163.7754"/><rect fill="#FFFFFF" filter="url(#f1eu1pekslom85)" height="30" style="stroke: #A80036; stroke-width: 1.0;" width="10" x="745.5" y="209.3965"/><rect fill="#FFFFFF" filter="url(#f1eu1pekslom85)" height="198.8633" style="stroke: #A80036; stroke-width: 1.0;" width="10" x="1069.5" y="293.0176"/><rect fill="#FFFFFF" filter="url(#f1eu1pekslom85)" height="210.4844" style="stroke: #A80036; stroke-width: 1.0;" width="10" x="1069.5" y="598.123"/><rect fill="#FFFFFF" filter="url(#f1eu1pekslom85)" height="140.2422" style="stroke: #A80036; stroke-width: 1.0;" width="10" x="1273.5" y="322.3281"/><rect fill="#FFFFFF" filter="url(#f1eu1pekslom85)" height="121.2422" style="stroke: #A80036; stroke-width: 1.0;" width="10" x="1393" y="642.7441"/><rect fill="#FFFFFF" filter="url(#f1eu1pekslom85)" height="62.6211" style="stroke: #A80036; stroke-width: 1.0;" width="10" x="1697" y="672.0547"/><path d="M69,170.7754 L328,170.7754 L328,177.7754 L318,187.7754 L69,187.7754 L69,170.7754 " fill="#EEEEEE" style="stroke: #000000; stroke-width: 1.0;"/><rect fill="none" height="865.3164" style="stroke: #000000; stroke-width: 2.0;" width="1865" x="69" y="170.7754"/><text fill="#000000" font-family="sans-serif" font-size="13" font-weight="bold" lengthAdjust="spacingAndGlyphs" textLength="214" x="84" y="184.3438">Send notification to Participants</text><polygon fill="#A80036" points="733.5,205.3965,743.5,209.3965,733.5,213.3965,737.5,209.3965" style="stroke: #A80036; stroke-width: 1.0;"/><line style="stroke: #A80036; stroke-width: 1.0;" x1="537.5" x2="739.5" y1="209.3965" y2="209.3965"/><text fill="#000000" font-family="sans-serif" font-size="13" font-weight="bold" lengthAdjust="spacingAndGlyphs" textLength="9" x="544.5" y="204.6543">1</text><text fill="#000000" font-family="sans-serif" font-size="13" lengthAdjust="spacingAndGlyphs" textLength="176" x="557.5" y="204.6543">Consume Notification event</text><path d="M406,254.3965 L621,254.3965 L621,261.3965 L611,271.3965 L406,271.3965 L406,254.3965 " fill="#EEEEEE" style="stroke: #000000; stroke-width: 1.0;"/><rect fill="none" height="245.4844" style="stroke: #000000; stroke-width: 2.0;" width="935" x="406" y="254.3965"/><text fill="#000000" font-family="sans-serif" font-size="13" font-weight="bold" lengthAdjust="spacingAndGlyphs" textLength="170" x="421" y="267.9648">Persist Event Information</text><polygon fill="#A80036" points="1057.5,289.0176,1067.5,293.0176,1057.5,297.0176,1061.5,293.0176" style="stroke: #A80036; stroke-width: 1.0;"/><line style="stroke: #A80036; stroke-width: 1.0;" x1="537.5" x2="1063.5" y1="293.0176" y2="293.0176"/><text fill="#000000" font-family="sans-serif" font-size="13" font-weight="bold" lengthAdjust="spacingAndGlyphs" textLength="9" x="544.5" y="288.2754">2</text><text fill="#000000" font-family="sans-serif" font-size="13" lengthAdjust="spacingAndGlyphs" textLength="342" x="557.5" y="288.2754">Request to persist event information - POST - /events</text><polygon fill="#A80036" points="1261.5,318.3281,1271.5,322.3281,1261.5,326.3281,1265.5,322.3281" style="stroke: #A80036; stroke-width: 1.0;"/><line style="stroke: #A80036; stroke-width: 1.0;" x1="1079.5" x2="1267.5" y1="322.3281" y2="322.3281"/><text fill="#000000" font-family="sans-serif" font-size="13" font-weight="bold" lengthAdjust="spacingAndGlyphs" textLength="9" x="1086.5" y="317.5859">3</text><text fill="#000000" font-family="sans-serif" font-size="13" lengthAdjust="spacingAndGlyphs" textLength="162" x="1099.5" y="317.5859">Publish event information</text><rect fill="#FFFFFF" filter="url(#f1eu1pekslom85)" height="55.9316" style="stroke: #000000; stroke-width: 2.0;" width="158" x="1223" y="355.3281"/><polygon fill="#EEEEEE" points="1223,355.3281,1287,355.3281,1287,362.3281,1277,372.3281,1223,372.3281,1223,355.3281" style="stroke: #000000; stroke-width: 2.0;"/><text fill="#000000" font-family="sans-serif" font-size="13" font-weight="bold" lengthAdjust="spacingAndGlyphs" textLength="19" x="1236" y="369.8965">ref</text><text fill="#000000" font-family="sans-serif" font-size="13" lengthAdjust="spacingAndGlyphs" textLength="150" x="1229" y="388.8965">Event Handler Consume</text><text fill="#000000" font-family="sans-serif" font-size="13" lengthAdjust="spacingAndGlyphs" textLength="0" x="1233" y="404.207"/><polygon fill="#A80036" points="1090.5,458.5703,1080.5,462.5703,1090.5,466.5703,1086.5,462.5703" style="stroke: #A80036; stroke-width: 1.0;"/><line style="stroke: #A80036; stroke-width: 1.0; stroke-dasharray: 2.0,2.0;" x1="1084.5" x2="1277.5" y1="462.5703" y2="462.5703"/><text fill="#000000" font-family="sans-serif" font-size="13" font-weight="bold" lengthAdjust="spacingAndGlyphs" textLength="9" x="1096.5" y="457.8281">4</text><text fill="#000000" font-family="sans-serif" font-size="13" lengthAdjust="spacingAndGlyphs" textLength="95" x="1109.5" y="457.8281">Return success</text><polygon fill="#A80036" points="548.5,487.8809,538.5,491.8809,548.5,495.8809,544.5,491.8809" style="stroke: #A80036; stroke-width: 1.0;"/><line style="stroke: #A80036; stroke-width: 1.0; stroke-dasharray: 2.0,2.0;" x1="542.5" x2="1073.5" y1="491.8809" y2="491.8809"/><text fill="#000000" font-family="sans-serif" font-size="13" font-weight="bold" lengthAdjust="spacingAndGlyphs" textLength="9" x="554.5" y="487.1387">5</text><text fill="#000000" font-family="sans-serif" font-size="13" lengthAdjust="spacingAndGlyphs" textLength="95" x="567.5" y="487.1387">Return success</text><path d="M542,511.8809 L542,551.8809 L868,551.8809 L868,521.8809 L858,511.8809 L542,511.8809 " fill="#D3D3D3" filter="url(#f1eu1pekslom85)" style="stroke: #A80036; stroke-width: 1.0;"/><path d="M858,511.8809 L858,521.8809 L868,521.8809 L858,511.8809 " fill="#D3D3D3" style="stroke: #A80036; stroke-width: 1.0;"/><text fill="#000000" font-family="sans-serif" font-size="13" lengthAdjust="spacingAndGlyphs" textLength="305" x="548" y="529.4492">The endpoint details are cached, when the cache</text><text fill="#000000" font-family="sans-serif" font-size="13" lengthAdjust="spacingAndGlyphs" textLength="232" x="548" y="544.7598">expires, the details are fetched again</text><polygon fill="#A80036" points="1057.5,594.123,1067.5,598.123,1057.5,602.123,1061.5,598.123" style="stroke: #A80036; stroke-width: 1.0;"/><line style="stroke: #A80036; stroke-width: 1.0;" x1="537.5" x2="1063.5" y1="598.123" y2="598.123"/><text fill="#000000" font-family="sans-serif" font-size="13" font-weight="bold" lengthAdjust="spacingAndGlyphs" textLength="9" x="544.5" y="585.7256">6</text><text fill="#000000" font-family="sans-serif" font-size="13" lengthAdjust="spacingAndGlyphs" textLength="500" x="557.5" y="578.0703">Request Endpoint details for Participant - GET - /participants/{{fsp}}/endpoints</text><text fill="#FF0000" font-family="sans-serif" font-size="13" font-weight="bold" lengthAdjust="spacingAndGlyphs" textLength="73" x="557.5" y="593.3809">Error code:</text><text fill="#FF0000" font-family="sans-serif" font-size="13" lengthAdjust="spacingAndGlyphs" textLength="32" x="634.5" y="593.3809">2003</text><polygon fill="#A80036" points="1381,638.7441,1391,642.7441,1381,646.7441,1385,642.7441" style="stroke: #A80036; stroke-width: 1.0;"/><line style="stroke: #A80036; stroke-width: 1.0;" x1="1079.5" x2="1387" y1="642.7441" y2="642.7441"/><text fill="#000000" font-family="sans-serif" font-size="13" font-weight="bold" lengthAdjust="spacingAndGlyphs" textLength="9" x="1086.5" y="630.3467">7</text><text fill="#000000" font-family="sans-serif" font-size="13" lengthAdjust="spacingAndGlyphs" textLength="233" x="1099.5" y="622.6914">Fetch Endpoint details for Participant</text><text fill="#FF0000" font-family="sans-serif" font-size="13" font-weight="bold" lengthAdjust="spacingAndGlyphs" textLength="73" x="1099.5" y="638.002">Error code:</text><text fill="#FF0000" font-family="sans-serif" font-size="13" lengthAdjust="spacingAndGlyphs" textLength="32" x="1176.5" y="638.002">2003</text><polygon fill="#A80036" points="1685,668.0547,1695,672.0547,1685,676.0547,1689,672.0547" style="stroke: #A80036; stroke-width: 1.0;"/><line style="stroke: #A80036; stroke-width: 1.0;" x1="1403" x2="1691" y1="672.0547" y2="672.0547"/><text fill="#000000" font-family="sans-serif" font-size="13" font-weight="bold" lengthAdjust="spacingAndGlyphs" textLength="9" x="1410" y="667.3125">8</text><text fill="#000000" font-family="sans-serif" font-size="13" lengthAdjust="spacingAndGlyphs" textLength="233" x="1423" y="667.3125">Fetch Endpoint details for Participant</text><polygon fill="#FFFFE0" filter="url(#f1eu1pekslom85)" points="1638,685.0547,1766,685.0547,1776,696.0547,1766,708.0547,1638,708.0547,1628,696.0547,1638,685.0547" style="stroke: #A80036; stroke-width: 1.0;"/><text fill="#000000" font-family="sans-serif" font-size="13" lengthAdjust="spacingAndGlyphs" textLength="124" x="1640" y="701.623">participantEndpoint</text><polygon fill="#A80036" points="1414,730.6758,1404,734.6758,1414,738.6758,1410,734.6758" style="stroke: #A80036; stroke-width: 1.0;"/><line style="stroke: #A80036; stroke-width: 1.0;" x1="1408" x2="1701" y1="734.6758" y2="734.6758"/><text fill="#000000" font-family="sans-serif" font-size="13" font-weight="bold" lengthAdjust="spacingAndGlyphs" textLength="9" x="1420" y="729.9336">9</text><text fill="#000000" font-family="sans-serif" font-size="13" lengthAdjust="spacingAndGlyphs" textLength="257" x="1433" y="729.9336">Retrieved Endpoint details for Participant</text><polygon fill="#A80036" points="1090.5,759.9863,1080.5,763.9863,1090.5,767.9863,1086.5,763.9863" style="stroke: #A80036; stroke-width: 1.0;"/><line style="stroke: #A80036; stroke-width: 1.0; stroke-dasharray: 2.0,2.0;" x1="1084.5" x2="1397" y1="763.9863" y2="763.9863"/><text fill="#000000" font-family="sans-serif" font-size="13" font-weight="bold" lengthAdjust="spacingAndGlyphs" textLength="18" x="1096.5" y="759.2441">10</text><text fill="#000000" font-family="sans-serif" font-size="13" lengthAdjust="spacingAndGlyphs" textLength="240" x="1118.5" y="759.2441">Return Endpoint details for Participant</text><polygon fill="#A80036" points="548.5,804.6074,538.5,808.6074,548.5,812.6074,544.5,808.6074" style="stroke: #A80036; stroke-width: 1.0;"/><line style="stroke: #A80036; stroke-width: 1.0; stroke-dasharray: 2.0,2.0;" x1="542.5" x2="1073.5" y1="808.6074" y2="808.6074"/><text fill="#000000" font-family="sans-serif" font-size="13" font-weight="bold" lengthAdjust="spacingAndGlyphs" textLength="18" x="554.5" y="796.21">11</text><text fill="#000000" font-family="sans-serif" font-size="13" lengthAdjust="spacingAndGlyphs" textLength="240" x="576.5" y="788.5547">Return Endpoint details for Participant</text><text fill="#FF0000" font-family="sans-serif" font-size="13" font-weight="bold" lengthAdjust="spacingAndGlyphs" textLength="80" x="576.5" y="803.8652">Error codes:</text><text fill="#FF0000" font-family="sans-serif" font-size="13" lengthAdjust="spacingAndGlyphs" textLength="72" x="660.5" y="803.8652">3202, 3203</text><polygon fill="#A80036" points="130.5,864.5391,120.5,868.5391,130.5,872.5391,126.5,868.5391" style="stroke: #A80036; stroke-width: 1.0;"/><line style="stroke: #A80036; stroke-width: 1.0;" x1="124.5" x2="526.5" y1="868.5391" y2="868.5391"/><text fill="#000000" font-family="sans-serif" font-size="13" font-weight="bold" lengthAdjust="spacingAndGlyphs" textLength="18" x="136.5" y="848.4863">12</text><text fill="#000000" font-family="sans-serif" font-size="13" lengthAdjust="spacingAndGlyphs" textLength="287" x="158.5" y="833.1758">Notification with Prepare/fulfil result/error to</text><text fill="#000000" font-family="sans-serif" font-size="13" lengthAdjust="spacingAndGlyphs" textLength="246" x="158.5" y="848.4863">Payer DFSP to specified Endpoint - PUT</text><text fill="#FF0000" font-family="sans-serif" font-size="13" font-weight="bold" lengthAdjust="spacingAndGlyphs" textLength="73" x="158.5" y="863.7969">Error code:</text><text fill="#FF0000" font-family="sans-serif" font-size="13" lengthAdjust="spacingAndGlyphs" textLength="32" x="235.5" y="863.7969">1001</text><polygon fill="#A80036" points="515.5,893.8496,525.5,897.8496,515.5,901.8496,519.5,897.8496" style="stroke: #A80036; stroke-width: 1.0;"/><line style="stroke: #A80036; stroke-width: 1.0; stroke-dasharray: 2.0,2.0;" x1="119.5" x2="521.5" y1="897.8496" y2="897.8496"/><text fill="#000000" font-family="sans-serif" font-size="13" font-weight="bold" lengthAdjust="spacingAndGlyphs" textLength="18" x="126.5" y="893.1074">13</text><text fill="#000000" font-family="sans-serif" font-size="13" lengthAdjust="spacingAndGlyphs" textLength="83" x="148.5" y="893.1074">HTTP 200 OK</text><path d="M406,912.8496 L468,912.8496 L468,919.8496 L458,929.8496 L406,929.8496 L406,912.8496 " fill="#EEEEEE" style="stroke: #000000; stroke-width: 1.0;"/><rect fill="none" height="116.2422" style="stroke: #000000; stroke-width: 2.0;" width="1518" x="406" y="912.8496"/><text fill="#000000" font-family="sans-serif" font-size="13" font-weight="bold" lengthAdjust="spacingAndGlyphs" textLength="17" x="421" y="926.418">alt</text><text fill="#000000" font-family="sans-serif" font-size="11" font-weight="bold" lengthAdjust="spacingAndGlyphs" textLength="363" x="483" y="925.4844">[Config.SEND_TRANSFER_CONFIRMATION_TO_PAYEE === true]</text><polygon fill="#A80036" points="1860.5,962.7813,1870.5,966.7813,1860.5,970.7813,1864.5,966.7813" style="stroke: #A80036; stroke-width: 1.0;"/><line style="stroke: #A80036; stroke-width: 1.0;" x1="537.5" x2="1866.5" y1="966.7813" y2="966.7813"/><text fill="#000000" font-family="sans-serif" font-size="13" font-weight="bold" lengthAdjust="spacingAndGlyphs" textLength="18" x="544.5" y="954.3838">14</text><text fill="#000000" font-family="sans-serif" font-size="13" lengthAdjust="spacingAndGlyphs" textLength="658" x="566.5" y="946.7285">Notification to with fulfil result (committed/aborted/rejected) to Payee DFSP to specified Endpoint - PUT</text><text fill="#FF0000" font-family="sans-serif" font-size="13" font-weight="bold" lengthAdjust="spacingAndGlyphs" textLength="73" x="566.5" y="962.0391">Error code:</text><text fill="#FF0000" font-family="sans-serif" font-size="13" lengthAdjust="spacingAndGlyphs" textLength="32" x="643.5" y="962.0391">1001</text><polygon fill="#A80036" points="548.5,1017.0918,538.5,1021.0918,548.5,1025.0918,544.5,1021.0918" style="stroke: #A80036; stroke-width: 1.0;"/><line style="stroke: #A80036; stroke-width: 1.0; stroke-dasharray: 2.0,2.0;" x1="542.5" x2="1871.5" y1="1021.0918" y2="1021.0918"/><text fill="#000000" font-family="sans-serif" font-size="13" font-weight="bold" lengthAdjust="spacingAndGlyphs" textLength="18" x="554.5" y="1016.3496">15</text><text fill="#000000" font-family="sans-serif" font-size="13" lengthAdjust="spacingAndGlyphs" textLength="83" x="576.5" y="1016.3496">HTTP 200 OK</text><!--
@startuml
title 1.1.4.a. Send notification to Participant (Payer/Payee) (single message)

autonumber


actor "Payer DFSP\nParticipant" as PAYER_DFSP
actor "Payee DFSP\nParticipant" as PAYEE_DFSP
control "ML API Notification Event Handler" as NOTIFY_HANDLER
boundary "Central Service API" as CSAPI
collections "Notification-Topic" as TOPIC_NOTIFICATIONS
collections "Event-Topic" as TOPIC_EVENTS
entity "Participant DAO" as PARTICIPANT_DAO
database "Central Store" as DB

box "Financial Service Provider (Payer)" #lightGray
	participant PAYER_DFSP
end box

box "ML API Adapter Service" #LightBlue
	participant NOTIFY_HANDLER
end box

box "Central Service" #LightYellow
    participant TOPIC_NOTIFICATIONS
    participant CSAPI
    participant TOPIC_EVENTS
    participant PARTICIPANT_DAO
    participant DB
end box

box "Financial Service Provider (Payee)" #lightGray
	participant PAYEE_DFSP
end box

activate NOTIFY_HANDLER
group Send notification to Participants
    TOPIC_NOTIFICATIONS <- NOTIFY_HANDLER: Consume Notification event
    activate TOPIC_NOTIFICATIONS
    deactivate TOPIC_NOTIFICATIONS

    group Persist Event Information
        NOTIFY_HANDLER -> CSAPI: Request to persist event information - POST - /events
        activate CSAPI
        CSAPI -> TOPIC_EVENTS: Publish event information
        activate TOPIC_EVENTS
        |||
        ref over TOPIC_EVENTS :  Event Handler Consume\n
        |||
        TOPIC_EVENTS - -> CSAPI: Return success
        deactivate TOPIC_EVENTS
        CSAPI - -> NOTIFY_HANDLER: Return success
        deactivate CSAPI
    end
    note right of NOTIFY_HANDLER #lightgray
        The endpoint details are cached, when the cache
        expires, the details are fetched again
    end note
    NOTIFY_HANDLER -> CSAPI: Request Endpoint details for Participant - GET - /participants/{{fsp}}/endpoints\n<color #FF0000><b>Error code:</b> 2003</color>

    activate CSAPI
    CSAPI -> PARTICIPANT_DAO: Fetch Endpoint details for Participant\n<color #FF0000><b>Error code:</b> 2003</color>
    activate PARTICIPANT_DAO
    PARTICIPANT_DAO -> DB: Fetch Endpoint details for Participant
    activate DB
    hnote over DB #lightyellow
        participantEndpoint
    end note
    DB -> PARTICIPANT_DAO: Retrieved Endpoint details for Participant
    deactivate DB
    PARTICIPANT_DAO - -> CSAPI: Return Endpoint details for Participant
    deactivate PARTICIPANT_DAO
    CSAPI - -> NOTIFY_HANDLER: Return Endpoint details for Participant\n<color #FF0000><b>Error codes:</b> 3202, 3203</color>
    deactivate CSAPI
    NOTIFY_HANDLER -> PAYER_DFSP: Notification with Prepare/fulfil result/error to \nPayer DFSP to specified Endpoint - PUT \n<color #FF0000><b>Error code:</b> 1001</color>
    NOTIFY_HANDLER <- - PAYER_DFSP: HTTP 200 OK 
    alt Config.SEND_TRANSFER_CONFIRMATION_TO_PAYEE === true
        NOTIFY_HANDLER -> PAYEE_DFSP: Notification to with fulfil result (committed/aborted/rejected) to Payee DFSP to specified Endpoint - PUT \n<color #FF0000><b>Error code:</b> 1001</color>
        |||
        NOTIFY_HANDLER <- - PAYEE_DFSP: HTTP 200 OK 
    end
end
deactivate NOTIFY_HANDLER
@enduml

PlantUML version 1.2019.06(Sat May 25 01:10:25 PHT 2019)
(GPL source distribution)
Java Runtime: Java(TM) SE Runtime Environment
JVM: Java HotSpot(TM) 64-Bit Server VM
Java Version: 1.8.0_171-b11
Operating System: Mac OS X
OS Version: 10.13.6
Default Encoding: UTF-8
Language: en
Country: AU
--></g></svg>