<svg xmlns="http://www.w3.org/2000/svg" height="1041" preserveAspectRatio="none" style="width:2294px;height:1041px" width="2294">
  <defs>
    <filter height="300%" id="a" width="300%" x="-1" y="-1">
      <feGaussianBlur result="blurOut" stdDeviation="2"/>
      <feColorMatrix in="blurOut" result="blurOut2" values="0 0 0 0 0 0 0 0 0 0 0 0 0 0 0 0 0 0 .4 0"/>
      <feOffset dx="4" dy="4" in="blurOut2" result="blurOut3"/>
      <feBlend in="SourceGraphic" in2="blurOut3"/>
    </filter>
  </defs>
  <text font-family="sans-serif" font-size="18" lengthAdjust="spacingAndGlyphs" textLength="674" x="808" y="28.708">
    1.1.4.a. Send notification to Participant (Payer/Payee) (single message) v1.1
  </text>
  <path fill="#D3D3D3" stroke="#a80036" d="M1 40.953h255v994.305H1z"/>
  <text font-family="sans-serif" font-size="13" font-weight="bold" lengthAdjust="spacingAndGlyphs" textLength="249" x="4" y="53.02">
    Financial Service Provider (Payer)
  </text>
  <path fill="#ADD8E6" stroke="#a80036" d="M412.5 40.953h238v994.305h-238z"/>
  <text font-family="sans-serif" font-size="13" font-weight="bold" lengthAdjust="spacingAndGlyphs" textLength="173" x="445" y="53.02">
    ML API Adapter Service
  </text>
  <path fill="#FFFFE0" stroke="#a80036" d="M676 40.953h1046.5v994.305H676z"/>
  <text font-family="sans-serif" font-size="13" font-weight="bold" lengthAdjust="spacingAndGlyphs" textLength="111" x="1143.75" y="53.02">
    Central Service
  </text>
  <path fill="#D3D3D3" stroke="#a80036" d="M1724.5 40.953h258v994.305h-258z"/>
  <text font-family="sans-serif" font-size="13" font-weight="bold" lengthAdjust="spacingAndGlyphs" textLength="252" x="1727.5" y="53.02">
    Financial Service Provider (Payee)
  </text>
  <path fill="#FFF" filter="url(#a)" stroke="#a80036" d="M526.5 169.68h10v752.984h-10zM745.5 214.945h10v30h-10zM1071.5 449.406h10v209.063h-10zM1359.5 493.672h10v120.531h-10zM1665.5 522.805h10v62.266h-10z"/>
  <path fill="#FFF" filter="url(#a)" stroke="#000" stroke-width="2" d="M76 176.68h2204v738.984H76z"/>
  <path fill="#FFF" filter="url(#a)" stroke="#000" stroke-width="2" d="M396.5 762H1918v146.664H396.5z"/>
  <path fill="#FFF" filter="url(#a)" stroke="#000" stroke-width="2" d="M406.5 786.133H1908v115.531H406.5z"/>
  <path stroke="#a80036" stroke-dasharray="5,5" d="M128 159.68v772.984M531.5 159.68v772.984M750 159.68v772.984M1076.5 159.68v772.984M1205.5 159.68v772.984M1364 159.68v772.984M1670.5 159.68v772.984M1853 159.68v772.984M2036.5 159.68v772.984"/>
  <text font-family="sans-serif" font-size="14" lengthAdjust="spacingAndGlyphs" textLength="79" x="86" y="140.081">
    Payer DFSP
  </text>
  <text font-family="sans-serif" font-size="14" lengthAdjust="spacingAndGlyphs" textLength="72" x="89.5" y="156.378">
    Participant
  </text>
  <circle cx="128.5" cy="70.086" fill="#FEFECE" filter="url(#a)" stroke="#a80036" stroke-width="2" r="8"/>
  <path d="M128.5 78.086v27m-13-19h26m-13 19l-13 15m13-15l13 15" fill="none" filter="url(#a)" stroke="#a80036" stroke-width="2"/>
  <text font-family="sans-serif" font-size="14" lengthAdjust="spacingAndGlyphs" textLength="79" x="86" y="944.659">
    Payer DFSP
  </text>
  <text font-family="sans-serif" font-size="14" lengthAdjust="spacingAndGlyphs" textLength="72" x="89.5" y="960.956">
    Participant
  </text>
  <circle cx="128.5" cy="974.258" fill="#FEFECE" filter="url(#a)" stroke="#a80036" stroke-width="2" r="8"/>
  <path d="M128.5 982.258v27m-13-19h26m-13 19l-13 15m13-15l13 15" fill="none" filter="url(#a)" stroke="#a80036" stroke-width="2"/>
  <text font-family="sans-serif" font-size="14" lengthAdjust="spacingAndGlyphs" textLength="224" x="416.5" y="156.378">
    ML API Notification Event Handler
  </text>
  <circle cx="531.5" cy="127.383" fill="#FEFECE" filter="url(#a)" stroke="#a80036" stroke-width="2" r="12"/>
  <path fill="#A80036" stroke="#a80036" d="M527.5 115.383l6-5-2 5 2 5-6-5z"/>
  <text font-family="sans-serif" font-size="14" lengthAdjust="spacingAndGlyphs" textLength="224" x="416.5" y="944.659">
    ML API Notification Event Handler
  </text>
  <circle cx="531.5" cy="963.961" fill="#FEFECE" filter="url(#a)" stroke="#a80036" stroke-width="2" r="12"/>
  <path fill="#A80036" stroke="#a80036" d="M527.5 951.96l6-5-2 5 2 5-6-5z"/>
  <path fill="#FEFECE" filter="url(#a)" stroke="#a80036" stroke-width="1.5" d="M684 120.383h133v30.297H684z"/>
  <path fill="#FEFECE" filter="url(#a)" stroke="#a80036" stroke-width="1.5" d="M680 124.383h133v30.297H680z"/>
  <text font-family="sans-serif" font-size="14" lengthAdjust="spacingAndGlyphs" textLength="119" x="687" y="144.378">
    Notification-Topic
  </text>
  <path fill="#FEFECE" filter="url(#a)" stroke="#a80036" stroke-width="1.5" d="M684 931.664h133v30.297H684z"/>
  <path fill="#FEFECE" filter="url(#a)" stroke="#a80036" stroke-width="1.5" d="M680 935.664h133v30.297H680z"/>
  <text font-family="sans-serif" font-size="14" lengthAdjust="spacingAndGlyphs" textLength="119" x="687" y="955.659">
    Notification-Topic
  </text>
  <text font-family="sans-serif" font-size="14" lengthAdjust="spacingAndGlyphs" textLength="128" x="1009.5" y="156.378">
    Central Service API
  </text>
  <path d="M1056 115.383v24m0-12h17" fill="none" filter="url(#a)" stroke="#a80036" stroke-width="2"/>
  <circle cx="1085" cy="127.383" fill="#FEFECE" filter="url(#a)" stroke="#a80036" stroke-width="2" r="12"/>
  <text font-family="sans-serif" font-size="14" lengthAdjust="spacingAndGlyphs" textLength="128" x="1009.5" y="944.659">
    Central Service API
  </text>
  <path d="M1056 951.96v24m0-12h17" fill="none" filter="url(#a)" stroke="#a80036" stroke-width="2"/>
  <circle cx="1085" cy="963.961" fill="#FEFECE" filter="url(#a)" stroke="#a80036" stroke-width="2" r="12"/>
  <path fill="#FEFECE" filter="url(#a)" stroke="#a80036" stroke-width="1.5" d="M1157.5 120.383h96v30.297h-96z"/>
  <path fill="#FEFECE" filter="url(#a)" stroke="#a80036" stroke-width="1.5" d="M1153.5 124.383h96v30.297h-96z"/>
  <text font-family="sans-serif" font-size="14" lengthAdjust="spacingAndGlyphs" textLength="82" x="1160.5" y="144.378">
    Event-Topic
  </text>
  <path fill="#FEFECE" filter="url(#a)" stroke="#a80036" stroke-width="1.5" d="M1157.5 931.664h96v30.297h-96z"/>
  <path fill="#FEFECE" filter="url(#a)" stroke="#a80036" stroke-width="1.5" d="M1153.5 935.664h96v30.297h-96z"/>
  <text font-family="sans-serif" font-size="14" lengthAdjust="spacingAndGlyphs" textLength="82" x="1160.5" y="955.659">
    Event-Topic
  </text>
  <text font-family="sans-serif" font-size="14" lengthAdjust="spacingAndGlyphs" textLength="107" x="1308" y="156.378">
    Participant DAO
  </text>
  <circle cx="1364.5" cy="127.383" fill="#FEFECE" filter="url(#a)" stroke="#a80036" stroke-width="2" r="12"/>
  <path stroke="#a80036" stroke-width="2" d="M1352.5 141.383h24"/>
  <text font-family="sans-serif" font-size="14" lengthAdjust="spacingAndGlyphs" textLength="107" x="1308" y="944.659">
    Participant DAO
  </text>
  <circle cx="1364.5" cy="963.961" fill="#FEFECE" filter="url(#a)" stroke="#a80036" stroke-width="2" r="12"/>
  <path stroke="#a80036" stroke-width="2" d="M1352.5 977.961h24"/>
  <text font-family="sans-serif" font-size="14" lengthAdjust="spacingAndGlyphs" textLength="90" x="1622.5" y="156.378">
    Central Store
  </text>
  <path d="M1652.5 107.383c0-10 18-10 18-10s18 0 18 10v26c0 10-18 10-18 10s-18 0-18-10v-26" fill="#FEFECE" filter="url(#a)" stroke="#000" stroke-width="1.5"/>
  <path d="M1652.5 107.383c0 10 18 10 18 10s18 0 18-10" fill="none" stroke="#000" stroke-width="1.5"/>
  <text font-family="sans-serif" font-size="14" lengthAdjust="spacingAndGlyphs" textLength="90" x="1622.5" y="944.659">
    Central Store
  </text>
  <path d="M1652.5 957.96c0-10 18-10 18-10s18 0 18 10v26c0 10-18 10-18 10s-18 0-18-10v-26" fill="#FEFECE" filter="url(#a)" stroke="#000" stroke-width="1.5"/>
  <path d="M1652.5 957.96c0 10 18 10 18 10s18 0 18-10" fill="none" stroke="#000" stroke-width="1.5"/>
  <text font-family="sans-serif" font-size="14" lengthAdjust="spacingAndGlyphs" textLength="83" x="1809" y="140.081">
    Payee DFSP
  </text>
  <text font-family="sans-serif" font-size="14" lengthAdjust="spacingAndGlyphs" textLength="72" x="1814.5" y="156.378">
    Participant
  </text>
  <circle cx="1853.5" cy="70.086" fill="#FEFECE" filter="url(#a)" stroke="#a80036" stroke-width="2" r="8"/>
  <path d="M1853.5 78.086v27m-13-19h26m-13 19l-13 15m13-15l13 15" fill="none" filter="url(#a)" stroke="#a80036" stroke-width="2"/>
  <text font-family="sans-serif" font-size="14" lengthAdjust="spacingAndGlyphs" textLength="83" x="1809" y="944.659">
    Payee DFSP
  </text>
  <text font-family="sans-serif" font-size="14" lengthAdjust="spacingAndGlyphs" textLength="72" x="1814.5" y="960.956">
    Participant
  </text>
  <circle cx="1853.5" cy="974.258" fill="#FEFECE" filter="url(#a)" stroke="#a80036" stroke-width="2" r="8"/>
  <path d="M1853.5 982.258v27m-13-19h26m-13 19l-13 15m13-15l13 15" fill="none" filter="url(#a)" stroke="#a80036" stroke-width="2"/>
  <path fill="#FEFECE" filter="url(#a)" stroke="#a80036" stroke-width="1.5" d="M1988.5 124.383h92v30.297h-92z"/>
  <text font-family="sans-serif" font-size="14" lengthAdjust="spacingAndGlyphs" textLength="78" x="1995.5" y="144.378">
    OPERATOR
  </text>
  <path fill="#FEFECE" filter="url(#a)" stroke="#a80036" stroke-width="1.5" d="M1988.5 931.664h92v30.297h-92z"/>
  <text font-family="sans-serif" font-size="14" lengthAdjust="spacingAndGlyphs" textLength="78" x="1995.5" y="951.659">
    OPERATOR
  </text>
  <path fill="#FFF" filter="url(#a)" stroke="#a80036" d="M526.5 169.68h10v752.984h-10zM745.5 214.945h10v30h-10zM1071.5 449.406h10v209.063h-10zM1359.5 493.672h10v120.531h-10zM1665.5 522.805h10v62.266h-10z"/>
  <path d="M76 176.68h284v7l-10 10H76v-17" fill="#EEE" stroke="#000"/>
  <path fill="none" stroke="#000" stroke-width="2" d="M76 176.68h2204v738.984H76z"/>
  <text font-family="sans-serif" font-size="13" font-weight="bold" lengthAdjust="spacingAndGlyphs" textLength="239" x="91" y="189.747">
    Send notification to Participants
  </text>
  <path fill="#A80036" stroke="#a80036" d="M733.5 210.945l10 4-10 4 4-4z"/>
  <path stroke="#a80036" d="M536.5 214.945h203"/>
  <text font-family="sans-serif" font-size="13" font-weight="bold" lengthAdjust="spacingAndGlyphs" textLength="9" x="543.5" y="209.879">
    1
  </text>
  <text font-family="sans-serif" font-size="13" lengthAdjust="spacingAndGlyphs" textLength="177" x="556.5" y="209.879">
    Consume Notification event
  </text>
  <path d="M2041 257.945v146h225v-136l-10-10h-215" fill="#FF0" filter="url(#a)" stroke="#a80036"/>
  <path d="M2256 257.945v10h10l-10-10" fill="#FF0" stroke="#a80036"/>
  <text font-family="sans-serif" font-size="13" lengthAdjust="spacingAndGlyphs" textLength="61" x="2047" y="275.012">
    Message:
  </text>
  <text font-family="sans-serif" font-size="13" lengthAdjust="spacingAndGlyphs" textLength="8" x="2047" y="290.145">
    {
  </text>
  <text font-family="sans-serif" font-size="13" lengthAdjust="spacingAndGlyphs" textLength="66" x="2063" y="305.278">
    payload: {
  </text>
  <text font-family="sans-serif" font-size="13" lengthAdjust="spacingAndGlyphs" textLength="72" x="2079" y="320.411">
    endpoint: {
  </text>
  <text font-family="sans-serif" font-size="13" lengthAdjust="spacingAndGlyphs" textLength="126" x="2095" y="335.543">
    type: &lt;typeValue&gt;,
  </text>
  <text font-family="sans-serif" font-size="13" lengthAdjust="spacingAndGlyphs" textLength="156" x="2095" y="350.676">
    value: &lt;endpointValue&gt;
  </text>
  <text font-family="sans-serif" font-size="13" lengthAdjust="spacingAndGlyphs" textLength="8" x="2075" y="365.809">
    }
  </text>
  <text font-family="sans-serif" font-size="13" lengthAdjust="spacingAndGlyphs" textLength="8" x="2063" y="380.942">
    }
  </text>
  <text font-family="sans-serif" font-size="13" lengthAdjust="spacingAndGlyphs" textLength="8" x="2047" y="396.075">
    }
  </text>
  <path fill="#A80036" stroke="#a80036" d="M1059.5 445.406l10 4-10 4 4-4z"/>
  <path stroke="#a80036" d="M536.5 449.406h529"/>
  <text font-family="sans-serif" font-size="13" font-weight="bold" lengthAdjust="spacingAndGlyphs" textLength="9" x="543.5" y="436.774">
    2
  </text>
  <text font-family="sans-serif" font-size="13" lengthAdjust="spacingAndGlyphs" textLength="503" x="556.5" y="429.207">
    Request Endpoint details for Participant - GET - /participants/{{fsp}}/endpoints
  </text>
  <text fill="red" font-family="sans-serif" font-size="13" font-weight="bold" lengthAdjust="spacingAndGlyphs" textLength="82" x="556.5" y="444.34">
    Error code:
  </text>
  <text fill="red" font-family="sans-serif" font-size="13" lengthAdjust="spacingAndGlyphs" textLength="32" x="642.5" y="444.34">
    2003
  </text>
  <path fill="#A80036" stroke="#a80036" d="M1347.5 489.672l10 4-10 4 4-4z"/>
  <path stroke="#a80036" d="M1081.5 493.672h272"/>
  <text font-family="sans-serif" font-size="13" font-weight="bold" lengthAdjust="spacingAndGlyphs" textLength="9" x="1088.5" y="481.04">
    3
  </text>
  <text font-family="sans-serif" font-size="13" lengthAdjust="spacingAndGlyphs" textLength="234" x="1101.5" y="473.473">
    Fetch Endpoint details for Participant
  </text>
  <text fill="red" font-family="sans-serif" font-size="13" font-weight="bold" lengthAdjust="spacingAndGlyphs" textLength="82" x="1101.5" y="488.606">
    Error code:
  </text>
  <text fill="red" font-family="sans-serif" font-size="13" lengthAdjust="spacingAndGlyphs" textLength="32" x="1187.5" y="488.606">
    2003
  </text>
  <path fill="#A80036" stroke="#a80036" d="M1653.5 518.805l10 4-10 4 4-4z"/>
  <path stroke="#a80036" d="M1369.5 522.805h290"/>
  <text font-family="sans-serif" font-size="13" font-weight="bold" lengthAdjust="spacingAndGlyphs" textLength="9" x="1376.5" y="517.739">
    4
  </text>
  <text font-family="sans-serif" font-size="13" lengthAdjust="spacingAndGlyphs" textLength="234" x="1389.5" y="517.739">
    Fetch Endpoint details for Participant
  </text>
  <path fill="#FFFFE0" filter="url(#a)" stroke="#a80036" d="M1606 535.805h128l10 11-10 12h-128l-10-12 10-11z"/>
  <text font-family="sans-serif" font-size="13" lengthAdjust="spacingAndGlyphs" textLength="124" x="1608" y="551.872">
    participantEndpoint
  </text>
  <path fill="#A80036" stroke="#a80036" d="M1380.5 581.07l-10 4 10 4-4-4z"/>
  <path stroke="#a80036" d="M1374.5 585.07h295"/>
  <text font-family="sans-serif" font-size="13" font-weight="bold" lengthAdjust="spacingAndGlyphs" textLength="9" x="1386.5" y="580.004">
    5
  </text>
  <text font-family="sans-serif" font-size="13" lengthAdjust="spacingAndGlyphs" textLength="259" x="1399.5" y="580.004">
    Retrieved Endpoint details for Participant
  </text>
  <path fill="#A80036" stroke="#a80036" d="M1092.5 610.203l-10 4 10 4-4-4z"/>
  <path stroke="#a80036" stroke-dasharray="2,2" d="M1086.5 614.203h277"/>
  <text font-family="sans-serif" font-size="13" font-weight="bold" lengthAdjust="spacingAndGlyphs" textLength="9" x="1098.5" y="609.137">
    6
  </text>
  <text font-family="sans-serif" font-size="13" lengthAdjust="spacingAndGlyphs" textLength="241" x="1111.5" y="609.137">
    Return Endpoint details for Participant
  </text>
  <path fill="#A80036" stroke="#a80036" d="M547.5 654.469l-10 4 10 4-4-4z"/>
  <path stroke="#a80036" stroke-dasharray="2,2" d="M541.5 658.469h534"/>
  <text font-family="sans-serif" font-size="13" font-weight="bold" lengthAdjust="spacingAndGlyphs" textLength="9" x="553.5" y="645.836">
    7
  </text>
  <text font-family="sans-serif" font-size="13" lengthAdjust="spacingAndGlyphs" textLength="241" x="566.5" y="638.27">
    Return Endpoint details for Participant
  </text>
  <text fill="red" font-family="sans-serif" font-size="13" font-weight="bold" lengthAdjust="spacingAndGlyphs" textLength="90" x="566.5" y="653.403">
    Error codes:
  </text>
  <text fill="red" font-family="sans-serif" font-size="13" lengthAdjust="spacingAndGlyphs" textLength="72" x="660.5" y="653.403">
    3202, 3203
  </text>
  <path fill="#A80036" stroke="#a80036" d="M139.5 713.867l-10 4 10 4-4-4z"/>
  <path stroke="#a80036" d="M133.5 717.867h392"/>
  <text font-family="sans-serif" font-size="13" font-weight="bold" lengthAdjust="spacingAndGlyphs" textLength="9" x="145.5" y="697.668">
    8
  </text>
  <text font-family="sans-serif" font-size="13" lengthAdjust="spacingAndGlyphs" textLength="276" x="158.5" y="682.536">
    Notification with Prepare/fulfil result/error to
  </text>
  <text font-family="sans-serif" font-size="13" lengthAdjust="spacingAndGlyphs" textLength="249" x="158.5" y="697.668">
    Payer DFSP to specified Endpoint - PUT
  </text>
  <text fill="red" font-family="sans-serif" font-size="13" font-weight="bold" lengthAdjust="spacingAndGlyphs" textLength="82" x="158.5" y="712.801">
    Error code:
  </text>
  <text fill="red" font-family="sans-serif" font-size="13" lengthAdjust="spacingAndGlyphs" textLength="32" x="244.5" y="712.801">
    1001
  </text>
  <path fill="#A80036" stroke="#a80036" d="M514.5 743l10 4-10 4 4-4z"/>
  <path stroke="#a80036" stroke-dasharray="2,2" d="M128.5 747h392"/>
  <text font-family="sans-serif" font-size="13" font-weight="bold" lengthAdjust="spacingAndGlyphs" textLength="9" x="135.5" y="741.934">
    9
  </text>
  <text font-family="sans-serif" font-size="13" lengthAdjust="spacingAndGlyphs" textLength="82" x="148.5" y="741.934">
    HTTP 200 OK
  </text>
  <path d="M396.5 762h64v7l-10 10h-54v-17" fill="#EEE" stroke="#000"/>
  <path fill="none" stroke="#000" stroke-width="2" d="M396.5 762H1918v146.664H396.5z"/>
  <text font-family="sans-serif" font-size="13" font-weight="bold" lengthAdjust="spacingAndGlyphs" textLength="19" x="411.5" y="775.067">
    alt
  </text>
  <text font-family="sans-serif" font-size="11" font-weight="bold" lengthAdjust="spacingAndGlyphs" textLength="179" x="475.5" y="774.21">
    [event.action === &apos;reserve&apos;]
  </text>
  <path d="M406.5 786.133h64v7l-10 10h-54v-17" fill="#EEE" stroke="#000"/>
  <path fill="none" stroke="#000" stroke-width="2" d="M406.5 786.133H1908v115.531H406.5z"/>
  <text font-family="sans-serif" font-size="13" font-weight="bold" lengthAdjust="spacingAndGlyphs" textLength="19" x="421.5" y="799.2">
    alt
  </text>
  <text font-family="sans-serif" font-size="11" font-weight="bold" lengthAdjust="spacingAndGlyphs" textLength="182" x="485.5" y="798.343">
    [event.status === &apos;success&apos;]
  </text>
  <path fill="#A80036" stroke="#a80036" d="M1841.5 835.531l10 4-10 4 4-4z"/>
  <path stroke="#a80036" d="M536.5 839.531h1311"/>
  <text font-family="sans-serif" font-size="13" font-weight="bold" lengthAdjust="spacingAndGlyphs" textLength="18" x="543.5" y="826.899">
    10
  </text>
  <text font-family="sans-serif" font-size="13" lengthAdjust="spacingAndGlyphs" textLength="625" x="565.5" y="819.332">
    Notification to with succesful fulfil result (committed) to Payee DFSP to specified Endpoint - PATCH
  </text>
  <text fill="red" font-family="sans-serif" font-size="13" font-weight="bold" lengthAdjust="spacingAndGlyphs" textLength="82" x="565.5" y="834.465">
    Error code:
  </text>
  <text fill="red" font-family="sans-serif" font-size="13" lengthAdjust="spacingAndGlyphs" textLength="32" x="651.5" y="834.465">
    1001
  </text>
  <path fill="#A80036" stroke="#a80036" d="M547.5 889.664l-10 4 10 4-4-4z"/>
  <path stroke="#a80036" stroke-dasharray="2,2" d="M541.5 893.664h1311"/>
  <text font-family="sans-serif" font-size="13" font-weight="bold" lengthAdjust="spacingAndGlyphs" textLength="18" x="553.5" y="888.598">
    11
  </text>
  <text font-family="sans-serif" font-size="13" lengthAdjust="spacingAndGlyphs" textLength="82" x="575.5" y="888.598">
    HTTP 200 OK
  </text>
</svg>
