<svg xmlns="http://www.w3.org/2000/svg" height="1775" preserveAspectRatio="none" style="width:1615px;height:1775px" width="1615">
  <defs>
    <filter height="300%" id="a" width="300%" x="-1" y="-1">
      <feGaussianBlur result="blurOut" stdDeviation="2"/>
      <feColorMatrix in="blurOut" result="blurOut2" values="0 0 0 0 0 0 0 0 0 0 0 0 0 0 0 0 0 0 .4 0"/>
      <feOffset dx="4" dy="4" in="blurOut2" result="blurOut3"/>
      <feBlend in="SourceGraphic" in2="blurOut3"/>
    </filter>
  </defs>
  <text font-family="sans-serif" font-size="18" lengthAdjust="spacingAndGlyphs" textLength="630" x="490.5" y="28.708">
    1.1.5. Request transfer status (getTransferStatusById) - Phase2 version
  </text>
  <path fill="#D3D3D3" stroke="#a80036" d="M1 40.953h196v1728.906H1z"/>
  <text font-family="sans-serif" font-size="13" font-weight="bold" lengthAdjust="spacingAndGlyphs" textLength="190" x="4" y="53.02">
    Financial Service Provider
  </text>
  <path fill="#ADD8E6" stroke="#a80036" d="M455 40.953h238v1728.906H455z"/>
  <text font-family="sans-serif" font-size="13" font-weight="bold" lengthAdjust="spacingAndGlyphs" textLength="173" x="487.5" y="53.02">
    ML API Adapter Service
  </text>
  <path fill="#FFFFE0" stroke="#a80036" d="M868 40.953h618.5v1728.906H868z"/>
  <text font-family="sans-serif" font-size="13" font-weight="bold" lengthAdjust="spacingAndGlyphs" textLength="111" x="1121.75" y="53.02">
    Central Service
  </text>
  <path fill="#FFF" filter="url(#a)" stroke="#a80036" d="M94 169.68h10v1480.586H94zM934 293.211h10v197.797h-10zM934 571.406h10v255.328h-10zM1143 293.211h10v168.664h-10zM1254.5 615.672h10v166.797h-10zM1429.5 644.805h10v30h-10z"/>
  <path fill="#FFF" filter="url(#a)" stroke="#000" stroke-width="2" d="M30 176.68h1571v1473.586H30z"/>
  <path fill="#FFF" filter="url(#a)" stroke="#000" stroke-width="2" d="M449 254.945h761v244.063H449zM40 841.734h683v801.531H40z"/>
  <path fill="#FFF" filter="url(#a)" stroke="#000" stroke-width="2" d="M50 865.867h649v572.531H50z"/>
  <path fill="#FFF" d="M50 1173.734h649v264.664H50zM40 1484.531h683v158.734H40z"/>
  <path stroke="#a80036" stroke-dasharray="5,5" d="M99 159.68v1507.586M574 159.68v1507.586M939 159.68v1507.586M1148 159.68v1507.586M1259 159.68v1507.586M1434.5 159.68v1507.586"/>
  <text font-family="sans-serif" font-size="14" lengthAdjust="spacingAndGlyphs" textLength="56" x="68" y="140.081">
    DFSP(n)
  </text>
  <text font-family="sans-serif" font-size="14" lengthAdjust="spacingAndGlyphs" textLength="72" x="60" y="156.378">
    Participant
  </text>
  <circle cx="99" cy="70.086" fill="#FEFECE" filter="url(#a)" stroke="#a80036" stroke-width="2" r="8"/>
  <path d="M99 78.086v27m-13-19h26m-13 19l-13 15m13-15l13 15" fill="none" filter="url(#a)" stroke="#a80036" stroke-width="2"/>
  <text font-family="sans-serif" font-size="14" lengthAdjust="spacingAndGlyphs" textLength="56" x="68" y="1679.261">
    DFSP(n)
  </text>
  <text font-family="sans-serif" font-size="14" lengthAdjust="spacingAndGlyphs" textLength="72" x="60" y="1695.558">
    Participant
  </text>
  <circle cx="99" cy="1708.859" fill="#FEFECE" filter="url(#a)" stroke="#a80036" stroke-width="2" r="8"/>
  <path d="M99 1716.86v27m-13-19h26m-13 19l-13 15m13-15l13 15" fill="none" filter="url(#a)" stroke="#a80036" stroke-width="2"/>
  <text font-family="sans-serif" font-size="14" lengthAdjust="spacingAndGlyphs" textLength="224" x="459" y="156.378">
    ML API Notification Event Handler
  </text>
  <circle cx="574" cy="127.383" fill="#FEFECE" filter="url(#a)" stroke="#a80036" stroke-width="2" r="12"/>
  <path fill="#A80036" stroke="#a80036" d="M570 115.383l6-5-2 5 2 5-6-5z"/>
  <text font-family="sans-serif" font-size="14" lengthAdjust="spacingAndGlyphs" textLength="224" x="459" y="1679.261">
    ML API Notification Event Handler
  </text>
  <circle cx="574" cy="1698.563" fill="#FEFECE" filter="url(#a)" stroke="#a80036" stroke-width="2" r="12"/>
  <path fill="#A80036" stroke="#a80036" d="M570 1686.563l6-5-2 5 2 5-6-5z"/>
  <text font-family="sans-serif" font-size="14" lengthAdjust="spacingAndGlyphs" textLength="128" x="872" y="156.378">
    Central Service API
  </text>
  <path d="M918.5 115.383v24m0-12h17" fill="none" filter="url(#a)" stroke="#a80036" stroke-width="2"/>
  <circle cx="947.5" cy="127.383" fill="#FEFECE" filter="url(#a)" stroke="#a80036" stroke-width="2" r="12"/>
  <text font-family="sans-serif" font-size="14" lengthAdjust="spacingAndGlyphs" textLength="128" x="872" y="1679.261">
    Central Service API
  </text>
  <path d="M918.5 1686.563v24m0-12h17" fill="none" filter="url(#a)" stroke="#a80036" stroke-width="2"/>
  <circle cx="947.5" cy="1698.563" fill="#FEFECE" filter="url(#a)" stroke="#a80036" stroke-width="2" r="12"/>
  <path fill="#FEFECE" filter="url(#a)" stroke="#a80036" stroke-width="1.5" d="M1100 120.383h96v30.297h-96z"/>
  <path fill="#FEFECE" filter="url(#a)" stroke="#a80036" stroke-width="1.5" d="M1096 124.383h96v30.297h-96z"/>
  <text font-family="sans-serif" font-size="14" lengthAdjust="spacingAndGlyphs" textLength="82" x="1103" y="144.378">
    Event-Topic
  </text>
  <path fill="#FEFECE" filter="url(#a)" stroke="#a80036" stroke-width="1.5" d="M1100 1666.266h96v30.297h-96z"/>
  <path fill="#FEFECE" filter="url(#a)" stroke="#a80036" stroke-width="1.5" d="M1096 1670.266h96v30.297h-96z"/>
  <text font-family="sans-serif" font-size="14" lengthAdjust="spacingAndGlyphs" textLength="82" x="1103" y="1690.261">
    Event-Topic
  </text>
  <text font-family="sans-serif" font-size="14" lengthAdjust="spacingAndGlyphs" textLength="93" x="1210" y="156.378">
    Transfer-DAO
  </text>
  <circle cx="1259.5" cy="127.383" fill="#FEFECE" filter="url(#a)" stroke="#a80036" stroke-width="2" r="12"/>
  <path stroke="#a80036" stroke-width="2" d="M1247.5 141.383h24"/>
  <text font-family="sans-serif" font-size="14" lengthAdjust="spacingAndGlyphs" textLength="93" x="1210" y="1679.261">
    Transfer-DAO
  </text>
  <circle cx="1259.5" cy="1698.563" fill="#FEFECE" filter="url(#a)" stroke="#a80036" stroke-width="2" r="12"/>
  <path stroke="#a80036" stroke-width="2" d="M1247.5 1712.563h24"/>
  <text font-family="sans-serif" font-size="14" lengthAdjust="spacingAndGlyphs" textLength="90" x="1386.5" y="156.378">
    Central Store
  </text>
  <path d="M1416.5 107.383c0-10 18-10 18-10s18 0 18 10v26c0 10-18 10-18 10s-18 0-18-10v-26" fill="#FEFECE" filter="url(#a)" stroke="#000" stroke-width="1.5"/>
  <path d="M1416.5 107.383c0 10 18 10 18 10s18 0 18-10" fill="none" stroke="#000" stroke-width="1.5"/>
  <text font-family="sans-serif" font-size="14" lengthAdjust="spacingAndGlyphs" textLength="90" x="1386.5" y="1679.261">
    Central Store
  </text>
  <path d="M1416.5 1692.563c0-10 18-10 18-10s18 0 18 10v26c0 10-18 10-18 10s-18 0-18-10v-26" fill="#FEFECE" filter="url(#a)" stroke="#000" stroke-width="1.5"/>
  <path d="M1416.5 1692.563c0 10 18 10 18 10s18 0 18-10" fill="none" stroke="#000" stroke-width="1.5"/>
  <path fill="#FFF" filter="url(#a)" stroke="#a80036" d="M94 169.68h10v1480.586H94zM934 293.211h10v197.797h-10zM934 571.406h10v255.328h-10zM1143 293.211h10v168.664h-10zM1254.5 615.672h10v166.797h-10zM1429.5 644.805h10v30h-10z"/>
  <path d="M30 176.68h221v7l-10 10H30v-17" fill="#EEE" stroke="#000"/>
  <path fill="none" stroke="#000" stroke-width="2" d="M30 176.68h1571v1473.586H30z"/>
  <text font-family="sans-serif" font-size="13" font-weight="bold" lengthAdjust="spacingAndGlyphs" textLength="176" x="45" y="189.747">
    Request transfer status
  </text>
  <path fill="#A80036" stroke="#a80036" d="M562 210.945l10 4-10 4 4-4z"/>
  <path stroke="#a80036" d="M104 214.945h464"/>
  <text font-family="sans-serif" font-size="13" font-weight="bold" lengthAdjust="spacingAndGlyphs" textLength="9" x="111" y="209.879">
    1
  </text>
  <text font-family="sans-serif" font-size="13" lengthAdjust="spacingAndGlyphs" textLength="378" x="124" y="209.879">
    Callback transfer status request URL - GET - /transfers/{ID}
  </text>
  <path d="M449 254.945h232v7l-10 10H449v-17" fill="#EEE" stroke="#000"/>
  <path fill="none" stroke="#000" stroke-width="2" d="M449 254.945h761v244.063H449z"/>
  <text font-family="sans-serif" font-size="13" font-weight="bold" lengthAdjust="spacingAndGlyphs" textLength="187" x="464" y="268.012">
    Persist Event Information
  </text>
  <path fill="#A80036" stroke="#a80036" d="M922 289.21l10 4-10 4 4-4z"/>
  <path stroke="#a80036" d="M574 293.211h354"/>
  <text font-family="sans-serif" font-size="13" font-weight="bold" lengthAdjust="spacingAndGlyphs" textLength="9" x="581" y="288.145">
    2
  </text>
  <text font-family="sans-serif" font-size="13" lengthAdjust="spacingAndGlyphs" textLength="328" x="594" y="288.145">
    Request transfer information - GET - /transfers/{ID}
  </text>
  <path fill="#A80036" stroke="#a80036" d="M1131 318.344l10 4-10 4 4-4z"/>
  <path stroke="#a80036" d="M944 322.344h193"/>
  <text font-family="sans-serif" font-size="13" font-weight="bold" lengthAdjust="spacingAndGlyphs" textLength="9" x="951" y="317.278">
    3
  </text>
  <text font-family="sans-serif" font-size="13" lengthAdjust="spacingAndGlyphs" textLength="162" x="964" y="317.278">
    Publish event information
  </text>
  <path fill="#FFF" filter="url(#a)" stroke="#000" stroke-width="2" d="M1093 355.344h163v55.398h-163z"/>
  <path fill="#EEE" stroke="#000" stroke-width="2" d="M1093 355.344h66v7l-10 10h-56v-17z"/>
  <text font-family="sans-serif" font-size="13" font-weight="bold" lengthAdjust="spacingAndGlyphs" textLength="21" x="1106" y="369.411">
    ref
  </text>
  <text font-family="sans-serif" font-size="13" lengthAdjust="spacingAndGlyphs" textLength="155" x="1099" y="388.411">
    Event Handler Consume
  </text>
  <path fill="#A80036" stroke="#a80036" d="M955 457.875l-10 4 10 4-4-4z"/>
  <path stroke="#a80036" stroke-dasharray="2,2" d="M949 461.875h198"/>
  <text font-family="sans-serif" font-size="13" font-weight="bold" lengthAdjust="spacingAndGlyphs" textLength="9" x="961" y="456.809">
    4
  </text>
  <text font-family="sans-serif" font-size="13" lengthAdjust="spacingAndGlyphs" textLength="97" x="974" y="456.809">
    Return success
  </text>
  <path fill="#A80036" stroke="#a80036" d="M585 487.008l-10 4 10 4-4-4z"/>
  <path stroke="#a80036" stroke-dasharray="2,2" d="M579 491.008h359"/>
  <text font-family="sans-serif" font-size="13" font-weight="bold" lengthAdjust="spacingAndGlyphs" textLength="9" x="591" y="485.942">
    5
  </text>
  <text font-family="sans-serif" font-size="13" lengthAdjust="spacingAndGlyphs" textLength="97" x="604" y="485.942">
    Return success
  </text>
  <path fill="#A80036" stroke="#a80036" d="M115 523.14l-10 4 10 4-4-4z"/>
  <path stroke="#a80036" stroke-dasharray="2,2" d="M109 527.141h464"/>
  <text font-family="sans-serif" font-size="13" font-weight="bold" lengthAdjust="spacingAndGlyphs" textLength="9" x="121" y="522.075">
    6
  </text>
  <text font-family="sans-serif" font-size="13" lengthAdjust="spacingAndGlyphs" textLength="160" x="134" y="522.075">
    Respond HTTP - 200 (OK)
  </text>
  <path fill="#A80036" stroke="#a80036" d="M922 567.406l10 4-10 4 4-4z"/>
  <path stroke="#a80036" d="M574 571.406h354"/>
  <text font-family="sans-serif" font-size="13" font-weight="bold" lengthAdjust="spacingAndGlyphs" textLength="9" x="581" y="558.774">
    7
  </text>
  <text font-family="sans-serif" font-size="13" lengthAdjust="spacingAndGlyphs" textLength="320" x="594" y="551.207">
    Request details for Transfer - GET - /transfers/{ID}
  </text>
  <text fill="red" font-family="sans-serif" font-size="13" font-weight="bold" lengthAdjust="spacingAndGlyphs" textLength="82" x="594" y="566.34">
    Error code:
  </text>
  <text fill="red" font-family="sans-serif" font-size="13" lengthAdjust="spacingAndGlyphs" textLength="32" x="680" y="566.34">
    2003
  </text>
  <path fill="#A80036" stroke="#a80036" d="M1242.5 611.672l10 4-10 4 4-4z"/>
  <path stroke="#a80036" d="M944 615.672h304.5"/>
  <text font-family="sans-serif" font-size="13" font-weight="bold" lengthAdjust="spacingAndGlyphs" textLength="9" x="951" y="603.04">
    8
  </text>
  <text font-family="sans-serif" font-size="13" lengthAdjust="spacingAndGlyphs" textLength="150" x="964" y="595.473">
    Request transfer status
  </text>
  <text fill="red" font-family="sans-serif" font-size="13" font-weight="bold" lengthAdjust="spacingAndGlyphs" textLength="82" x="964" y="610.606">
    Error code:
  </text>
  <text fill="red" font-family="sans-serif" font-size="13" lengthAdjust="spacingAndGlyphs" textLength="32" x="1050" y="610.606">
    2003
  </text>
  <path fill="#A80036" stroke="#a80036" d="M1417.5 640.805l10 4-10 4 4-4z"/>
  <path stroke="#a80036" d="M1264.5 644.805h159"/>
  <text font-family="sans-serif" font-size="13" font-weight="bold" lengthAdjust="spacingAndGlyphs" textLength="9" x="1271.5" y="639.739">
    9
  </text>
  <text font-family="sans-serif" font-size="13" lengthAdjust="spacingAndGlyphs" textLength="133" x="1284.5" y="639.739">
    Fetch transfer status
  </text>
  <path fill="#FFFFE0" filter="url(#a)" stroke="#a80036" d="M1287 687.805h294l10 34-10 34h-294l-10-34 10-34z"/>
  <text font-family="sans-serif" font-size="13" lengthAdjust="spacingAndGlyphs" textLength="217" x="1289" y="703.872">
    SELECT transferId, transferStateId
  </text>
  <text font-family="sans-serif" font-size="13" lengthAdjust="spacingAndGlyphs" textLength="36" x="1289" y="719.004">
    FROM
  </text>
  <text font-family="sans-serif" font-size="13" font-weight="bold" lengthAdjust="spacingAndGlyphs" textLength="154" x="1329" y="719.004">
    transferStateChange
  </text>
  <text font-family="sans-serif" font-size="13" lengthAdjust="spacingAndGlyphs" textLength="158" x="1289" y="734.137">
    WHERE transferId = {ID}
  </text>
  <text font-family="sans-serif" font-size="13" lengthAdjust="spacingAndGlyphs" textLength="290" x="1289" y="749.27">
    ORDER BY transferStateChangeId desc limit 1
  </text>
  <path fill="#A80036" stroke="#a80036" d="M955 778.469l-10 4 10 4-4-4z"/>
  <path stroke="#a80036" stroke-dasharray="2,2" d="M949 782.469h309.5"/>
  <text font-family="sans-serif" font-size="13" font-weight="bold" lengthAdjust="spacingAndGlyphs" textLength="18" x="961" y="777.403">
    10
  </text>
  <text font-family="sans-serif" font-size="13" lengthAdjust="spacingAndGlyphs" textLength="140" x="983" y="777.403">
    Return transfer status
  </text>
  <path fill="#A80036" stroke="#a80036" d="M585 822.734l-10 4 10 4-4-4z"/>
  <path stroke="#a80036" stroke-dasharray="2,2" d="M579 826.734h359"/>
  <text font-family="sans-serif" font-size="13" font-weight="bold" lengthAdjust="spacingAndGlyphs" textLength="18" x="591" y="814.102">
    11
  </text>
  <text font-family="sans-serif" font-size="13" lengthAdjust="spacingAndGlyphs" textLength="140" x="613" y="806.536">
    Return transfer status
  </text>
  <text fill="red" font-family="sans-serif" font-size="13" font-weight="bold" lengthAdjust="spacingAndGlyphs" textLength="90" x="613" y="821.668">
    Error codes:
  </text>
  <text fill="red" font-family="sans-serif" font-size="13" lengthAdjust="spacingAndGlyphs" textLength="72" x="707" y="821.668">
    3202, 3203
  </text>
  <path d="M40 841.734h64v7l-10 10H40v-17" fill="#EEE" stroke="#000"/>
  <path fill="none" stroke="#000" stroke-width="2" d="M40 841.734h683v801.531H40z"/>
  <text font-family="sans-serif" font-size="13" font-weight="bold" lengthAdjust="spacingAndGlyphs" textLength="19" x="55" y="854.801">
    alt
  </text>
  <text font-family="sans-serif" font-size="11" font-weight="bold" lengthAdjust="spacingAndGlyphs" textLength="396" x="119" y="853.945">
    [Is there a transfer with the given ID recorded in the system?]
  </text>
  <path d="M50 865.867h64v7l-10 10H50v-17" fill="#EEE" stroke="#000"/>
  <path fill="none" stroke="#000" stroke-width="2" d="M50 865.867h649v572.531H50z"/>
  <text font-family="sans-serif" font-size="13" font-weight="bold" lengthAdjust="spacingAndGlyphs" textLength="19" x="65" y="878.934">
    alt
  </text>
  <text font-family="sans-serif" font-size="11" font-weight="bold" lengthAdjust="spacingAndGlyphs" textLength="244" x="129" y="878.078">
    [Yes AND transferState is COMMITTED
  </text>
  <text font-family="sans-serif" font-size="11" font-weight="bold" lengthAdjust="spacingAndGlyphs" textLength="523" x="129" y="890.882">
    This implies that a succesful transfer with the given ID is recorded in the system]
  </text>
  <path d="M101 898.61v236h464v-226l-10-10H101" fill="#FF0" filter="url(#a)" stroke="#a80036"/>
  <path d="M555 898.61v10h10l-10-10" fill="#FF0" stroke="#a80036"/>
  <text font-family="sans-serif" font-size="13" lengthAdjust="spacingAndGlyphs" textLength="8" x="107" y="915.676">
    {
  </text>
  <text font-family="sans-serif" font-size="13" lengthAdjust="spacingAndGlyphs" textLength="427" x="123" y="930.809">
    &quot;fulfilment&quot;: &quot;WLctttbu2HvTsa1XWvUoGRcQozHsqeu9Ahl2JW9Bsu8&quot;,
  </text>
  <text font-family="sans-serif" font-size="13" lengthAdjust="spacingAndGlyphs" textLength="378" x="123" y="945.942">
    &quot;completedTimestamp&quot;: &quot;2018-09-24T08:38:08.699-04:00&quot;,
  </text>
  <text font-family="sans-serif" font-size="13" lengthAdjust="spacingAndGlyphs" textLength="193" x="123" y="961.075">
    &quot;transferState&quot;: &quot;COMMITTED&quot;,
  </text>
  <text font-family="sans-serif" font-size="13" lengthAdjust="spacingAndGlyphs" textLength="88" x="123" y="976.207">
    extensionList:
  </text>
  <text font-family="sans-serif" font-size="13" lengthAdjust="spacingAndGlyphs" textLength="8" x="139" y="991.34">
    {
  </text>
  <text font-family="sans-serif" font-size="13" lengthAdjust="spacingAndGlyphs" textLength="66" x="139" y="1006.473">
    extension:
  </text>
  <text font-family="sans-serif" font-size="13" lengthAdjust="spacingAndGlyphs" textLength="5" x="139" y="1021.606">
    [
  </text>
  <text font-family="sans-serif" font-size="13" lengthAdjust="spacingAndGlyphs" textLength="8" x="155" y="1036.739">
    {
  </text>
  <text font-family="sans-serif" font-size="13" lengthAdjust="spacingAndGlyphs" textLength="126" x="155" y="1051.872">
    &quot;key&quot;: &quot;Description&quot;,
  </text>
  <text font-family="sans-serif" font-size="13" lengthAdjust="spacingAndGlyphs" textLength="280" x="155" y="1067.004">
    &quot;value&quot;: &quot;This is a more detailed description&quot;
  </text>
  <text font-family="sans-serif" font-size="13" lengthAdjust="spacingAndGlyphs" textLength="8" x="155" y="1082.137">
    }
  </text>
  <text font-family="sans-serif" font-size="13" lengthAdjust="spacingAndGlyphs" textLength="5" x="139" y="1097.27">
    ]
  </text>
  <text font-family="sans-serif" font-size="13" lengthAdjust="spacingAndGlyphs" textLength="8" x="123" y="1112.403">
    }
  </text>
  <text font-family="sans-serif" font-size="13" lengthAdjust="spacingAndGlyphs" textLength="8" x="107" y="1127.536">
    }
  </text>
  <path fill="#A80036" stroke="#a80036" d="M115 1161.734l-10 4 10 4-4-4z"/>
  <path stroke="#a80036" d="M109 1165.734h464"/>
  <text font-family="sans-serif" font-size="13" font-weight="bold" lengthAdjust="spacingAndGlyphs" textLength="18" x="121" y="1160.668">
    12
  </text>
  <text font-family="sans-serif" font-size="13" lengthAdjust="spacingAndGlyphs" textLength="198" x="143" y="1160.668">
    callback PUT on /transfers/{ID}
  </text>
  <path stroke="#000" stroke-dasharray="2,2" d="M50 1174.734h649"/>
  <text font-family="sans-serif" font-size="11" font-weight="bold" lengthAdjust="spacingAndGlyphs" textLength="328" x="55" y="1184.945">
    [transferState in [RECEIVED, RESERVED, ABORTED]]
  </text>
  <path d="M216 1193.54v206h349v-196l-10-10H216" fill="#FF0" filter="url(#a)" stroke="#a80036"/>
  <path d="M555 1193.54v10h10l-10-10" fill="#FF0" stroke="#a80036"/>
  <text font-family="sans-serif" font-size="13" lengthAdjust="spacingAndGlyphs" textLength="8" x="222" y="1210.606">
    {
  </text>
  <text font-family="sans-serif" font-size="13" lengthAdjust="spacingAndGlyphs" textLength="180" x="238" y="1225.739">
    &quot;transferState&quot;: &quot;RECEIVED&quot;,
  </text>
  <text font-family="sans-serif" font-size="13" lengthAdjust="spacingAndGlyphs" textLength="88" x="238" y="1240.872">
    extensionList:
  </text>
  <text font-family="sans-serif" font-size="13" lengthAdjust="spacingAndGlyphs" textLength="8" x="254" y="1256.004">
    {
  </text>
  <text font-family="sans-serif" font-size="13" lengthAdjust="spacingAndGlyphs" textLength="66" x="254" y="1271.137">
    extension:
  </text>
  <text font-family="sans-serif" font-size="13" lengthAdjust="spacingAndGlyphs" textLength="5" x="254" y="1286.27">
    [
  </text>
  <text font-family="sans-serif" font-size="13" lengthAdjust="spacingAndGlyphs" textLength="8" x="270" y="1301.403">
    {
  </text>
  <text font-family="sans-serif" font-size="13" lengthAdjust="spacingAndGlyphs" textLength="126" x="270" y="1316.536">
    &quot;key&quot;: &quot;Description&quot;,
  </text>
  <text font-family="sans-serif" font-size="13" lengthAdjust="spacingAndGlyphs" textLength="280" x="270" y="1331.668">
    &quot;value&quot;: &quot;This is a more detailed description&quot;
  </text>
  <text font-family="sans-serif" font-size="13" lengthAdjust="spacingAndGlyphs" textLength="8" x="270" y="1346.801">
    }
  </text>
  <text font-family="sans-serif" font-size="13" lengthAdjust="spacingAndGlyphs" textLength="5" x="254" y="1361.934">
    ]
  </text>
  <text font-family="sans-serif" font-size="13" lengthAdjust="spacingAndGlyphs" textLength="8" x="238" y="1377.067">
    }
  </text>
  <text font-family="sans-serif" font-size="13" lengthAdjust="spacingAndGlyphs" textLength="8" x="222" y="1392.2">
    }
  </text>
  <path fill="#A80036" stroke="#a80036" d="M115 1426.398l-10 4 10 4-4-4z"/>
  <path stroke="#a80036" d="M109 1430.398h464"/>
  <text font-family="sans-serif" font-size="13" font-weight="bold" lengthAdjust="spacingAndGlyphs" textLength="18" x="121" y="1425.332">
    13
  </text>
  <text font-family="sans-serif" font-size="13" lengthAdjust="spacingAndGlyphs" textLength="198" x="143" y="1425.332">
    callback PUT on /transfers/{ID}
  </text>
  <path d="M579 1450.398v25h130v-15l-10-10H579" fill="#D3D3D3" filter="url(#a)" stroke="#a80036"/>
  <path d="M699 1450.398v10h10l-10-10" fill="#D3D3D3" stroke="#a80036"/>
  <text font-family="sans-serif" font-size="13" lengthAdjust="spacingAndGlyphs" textLength="109" x="585" y="1467.465">
    Log ERROR event
  </text>
  <path stroke="#000" stroke-dasharray="2,2" d="M40 1485.531h683"/>
  <text font-family="sans-serif" font-size="11" font-weight="bold" lengthAdjust="spacingAndGlyphs" textLength="550" x="45" y="1495.742">
    [A transfer with the given ID is not present in the System or this is an invalid request]
  </text>
  <path d="M236 1504.336v100h329v-90l-10-10H236" fill="#FF0" filter="url(#a)" stroke="#a80036"/>
  <path d="M555 1504.336v10h10l-10-10" fill="#FF0" stroke="#a80036"/>
  <text font-family="sans-serif" font-size="13" lengthAdjust="spacingAndGlyphs" textLength="8" x="242" y="1521.403">
    {
  </text>
  <text font-family="sans-serif" font-size="13" lengthAdjust="spacingAndGlyphs" textLength="130" x="258" y="1536.536">
    &quot;errorInformation&quot;: {
  </text>
  <text font-family="sans-serif" font-size="13" lengthAdjust="spacingAndGlyphs" textLength="153" x="274" y="1551.668">
    &quot;errorCode&quot;: &lt;integer&gt;,
  </text>
  <text font-family="sans-serif" font-size="13" lengthAdjust="spacingAndGlyphs" textLength="276" x="274" y="1566.801">
    &quot;errorDescription&quot;: &quot;Client error description&quot;
  </text>
  <text font-family="sans-serif" font-size="13" lengthAdjust="spacingAndGlyphs" textLength="8" x="258" y="1581.934">
    }
  </text>
  <text font-family="sans-serif" font-size="13" lengthAdjust="spacingAndGlyphs" textLength="8" x="242" y="1597.067">
    }
  </text>
  <path fill="#A80036" stroke="#a80036" d="M115 1631.266l-10 4 10 4-4-4z"/>
  <path stroke="#a80036" d="M109 1635.266h464"/>
  <text font-family="sans-serif" font-size="13" font-weight="bold" lengthAdjust="spacingAndGlyphs" textLength="18" x="121" y="1630.2">
    14
  </text>
  <text font-family="sans-serif" font-size="13" lengthAdjust="spacingAndGlyphs" textLength="233" x="143" y="1630.2">
    callback PUT on /transfers/{ID}/error
  </text>
</svg>
