<svg xmlns="http://www.w3.org/2000/svg" height="982" preserveAspectRatio="none" style="width:1997px;height:982px" width="1997">
  <defs>
    <filter height="300%" id="a" width="300%" x="-1" y="-1">
      <feGaussianBlur result="blurOut" stdDeviation="2"/>
      <feColorMatrix in="blurOut" result="blurOut2" values="0 0 0 0 0 0 0 0 0 0 0 0 0 0 0 0 0 0 .4 0"/>
      <feOffset dx="4" dy="4" in="blurOut2" result="blurOut3"/>
      <feBlend in="SourceGraphic" in2="blurOut3"/>
    </filter>
  </defs>
  <text font-family="sans-serif" font-size="18" lengthAdjust="spacingAndGlyphs" textLength="470" x="761.5" y="28.708">
    1.0.0 Get Participant Limit Details For All Participants
  </text>
  <path fill="#FFFFE0" stroke="#a80036" d="M658 40.953h1137v935.773H658z"/>
  <text font-family="sans-serif" font-size="13" font-weight="bold" lengthAdjust="spacingAndGlyphs" textLength="119" x="1167" y="53.02">
    Central Services
  </text>
  <path fill="#FFF" filter="url(#a)" stroke="#a80036" d="M74 132.383h10V886.43H74zM724 177.648h10v708.781h-10zM977 206.781h10v635.383h-10zM1366 251.047h10v326.125h-10zM1738 280.18h10v267.859h-10z"/>
  <path fill="#FFF" filter="url(#a)" stroke="#000" stroke-width="2" d="M10 139.383h1973V894.43H10z"/>
  <path stroke="#a80036" stroke-dasharray="5,5" d="M79 122.383V911.43M729 122.383V911.43M981.5 122.383V911.43M1371 122.383V911.43M1743 122.383V911.43"/>
  <text font-family="sans-serif" font-size="14" lengthAdjust="spacingAndGlyphs" textLength="112" x="20" y="119.081">
    HUB OPERATOR
  </text>
  <circle cx="79" cy="90.086" fill="#FEFECE" filter="url(#a)" stroke="#a80036" stroke-width="2" r="12"/>
  <path stroke="#a80036" stroke-width="2" d="M67 104.086h24"/>
  <text font-family="sans-serif" font-size="14" lengthAdjust="spacingAndGlyphs" textLength="112" x="20" y="923.425">
    HUB OPERATOR
  </text>
  <circle cx="79" cy="942.727" fill="#FEFECE" filter="url(#a)" stroke="#a80036" stroke-width="2" r="12"/>
  <path stroke="#a80036" stroke-width="2" d="M67 956.727h24"/>
  <text font-family="sans-serif" font-size="14" lengthAdjust="spacingAndGlyphs" textLength="128" x="662" y="119.081">
    Central Service API
  </text>
  <path d="M708.5 78.086v24m0-12h17" fill="none" filter="url(#a)" stroke="#a80036" stroke-width="2"/>
  <circle cx="737.5" cy="90.086" fill="#FEFECE" filter="url(#a)" stroke="#a80036" stroke-width="2" r="12"/>
  <text font-family="sans-serif" font-size="14" lengthAdjust="spacingAndGlyphs" textLength="128" x="662" y="923.425">
    Central Service API
  </text>
  <path d="M708.5 930.727v24m0-12h17" fill="none" filter="url(#a)" stroke="#a80036" stroke-width="2"/>
  <circle cx="737.5" cy="942.727" fill="#FEFECE" filter="url(#a)" stroke="#a80036" stroke-width="2" r="12"/>
  <text font-family="sans-serif" font-size="14" lengthAdjust="spacingAndGlyphs" textLength="129" x="914.5" y="119.081">
    Participant Handler
  </text>
  <circle cx="982" cy="90.086" fill="#FEFECE" filter="url(#a)" stroke="#a80036" stroke-width="2" r="12"/>
  <path fill="#A80036" stroke="#a80036" d="M978 78.086l6-5-2 5 2 5-6-5z"/>
  <text font-family="sans-serif" font-size="14" lengthAdjust="spacingAndGlyphs" textLength="129" x="914.5" y="923.425">
    Participant Handler
  </text>
  <circle cx="982" cy="942.727" fill="#FEFECE" filter="url(#a)" stroke="#a80036" stroke-width="2" r="12"/>
  <path fill="#A80036" stroke="#a80036" d="M978 930.727l6-5-2 5 2 5-6-5z"/>
  <text font-family="sans-serif" font-size="14" lengthAdjust="spacingAndGlyphs" textLength="126" x="1305" y="119.081">
    Participant Facade
  </text>
  <circle cx="1371" cy="90.086" fill="#FEFECE" filter="url(#a)" stroke="#a80036" stroke-width="2" r="12"/>
  <path stroke="#a80036" stroke-width="2" d="M1359 104.086h24"/>
  <text font-family="sans-serif" font-size="14" lengthAdjust="spacingAndGlyphs" textLength="126" x="1305" y="923.425">
    Participant Facade
  </text>
  <circle cx="1371" cy="942.727" fill="#FEFECE" filter="url(#a)" stroke="#a80036" stroke-width="2" r="12"/>
  <path stroke="#a80036" stroke-width="2" d="M1359 956.727h24"/>
  <text font-family="sans-serif" font-size="14" lengthAdjust="spacingAndGlyphs" textLength="90" x="1695" y="119.081">
    Central Store
  </text>
  <path d="M1725 70.086c0-10 18-10 18-10s18 0 18 10v26c0 10-18 10-18 10s-18 0-18-10v-26" fill="#FEFECE" filter="url(#a)" stroke="#000" stroke-width="1.5"/>
  <path d="M1725 70.086c0 10 18 10 18 10s18 0 18-10" fill="none" stroke="#000" stroke-width="1.5"/>
  <text font-family="sans-serif" font-size="14" lengthAdjust="spacingAndGlyphs" textLength="90" x="1695" y="923.425">
    Central Store
  </text>
  <path d="M1725 936.727c0-10 18-10 18-10s18 0 18 10v26c0 10-18 10-18 10s-18 0-18-10v-26" fill="#FEFECE" filter="url(#a)" stroke="#000" stroke-width="1.5"/>
  <path d="M1725 936.727c0 10 18 10 18 10s18 0 18-10" fill="none" stroke="#000" stroke-width="1.5"/>
  <path fill="#FFF" filter="url(#a)" stroke="#a80036" d="M74 132.383h10V886.43H74zM724 177.648h10v708.781h-10zM977 206.781h10v635.383h-10zM1366 251.047h10v326.125h-10zM1738 280.18h10v267.859h-10z"/>
  <path d="M10 139.383h262v7l-10 10H10v-17" fill="#EEE" stroke="#000"/>
  <path fill="none" stroke="#000" stroke-width="2" d="M10 139.383h1973V894.43H10z"/>
  <text font-family="sans-serif" font-size="13" font-weight="bold" lengthAdjust="spacingAndGlyphs" textLength="217" x="25" y="152.45">
    Get Limits for all Participants
  </text>
  <path fill="#A80036" stroke="#a80036" d="M712 173.648l10 4-10 4 4-4z"/>
  <path stroke="#a80036" d="M84 177.648h634"/>
  <text font-family="sans-serif" font-size="13" font-weight="bold" lengthAdjust="spacingAndGlyphs" textLength="9" x="91" y="172.583">
    1
  </text>
  <text font-family="sans-serif" font-size="13" lengthAdjust="spacingAndGlyphs" textLength="608" x="104" y="172.583">
    Request to get Limits - GET - /participants/limits?type={typeValue}&amp;currency={currencyType}
  </text>
  <path fill="#A80036" stroke="#a80036" d="M965 202.781l10 4-10 4 4-4z"/>
  <path stroke="#a80036" d="M734 206.781h237"/>
  <text font-family="sans-serif" font-size="13" font-weight="bold" lengthAdjust="spacingAndGlyphs" textLength="9" x="741" y="201.715">
    2
  </text>
  <text font-family="sans-serif" font-size="13" lengthAdjust="spacingAndGlyphs" textLength="195" x="754" y="201.715">
    Fetch Limits for all Participants
  </text>
  <path fill="#A80036" stroke="#a80036" d="M1354 247.047l10 4-10 4 4-4z"/>
  <path stroke="#a80036" d="M987 251.047h373"/>
  <text font-family="sans-serif" font-size="13" font-weight="bold" lengthAdjust="spacingAndGlyphs" textLength="9" x="994" y="238.415">
    3
  </text>
  <text font-family="sans-serif" font-size="13" lengthAdjust="spacingAndGlyphs" textLength="343" x="1007" y="230.848">
    Fetch Limits for all participants with currency and type
  </text>
  <text fill="red" font-family="sans-serif" font-size="13" font-weight="bold" lengthAdjust="spacingAndGlyphs" textLength="82" x="1007" y="245.981">
    Error code:
  </text>
  <text fill="red" font-family="sans-serif" font-size="13" lengthAdjust="spacingAndGlyphs" textLength="32" x="1093" y="245.981">
    3000
  </text>
  <path fill="#A80036" stroke="#a80036" d="M1726 276.18l10 4-10 4 4-4z"/>
  <path stroke="#a80036" d="M1376 280.18h356"/>
  <text font-family="sans-serif" font-size="13" font-weight="bold" lengthAdjust="spacingAndGlyphs" textLength="9" x="1383" y="275.114">
    4
  </text>
  <text font-family="sans-serif" font-size="13" lengthAdjust="spacingAndGlyphs" textLength="299" x="1396" y="275.114">
    Fetch Limits for currencyId and type(if passed)
  </text>
  <path d="M1381 293.18v146h588v-136l-10-10h-578" fill="#D3D3D3" filter="url(#a)" stroke="#a80036"/>
  <path d="M1959 293.18v10h10l-10-10" fill="#D3D3D3" stroke="#a80036"/>
  <text font-family="sans-serif" font-size="13" lengthAdjust="spacingAndGlyphs" textLength="64" x="1387" y="310.247">
    Condition:
  </text>
  <text font-family="sans-serif" font-size="13" lengthAdjust="spacingAndGlyphs" textLength="492" x="1403" y="325.379">
    participantCurrency.participantCurrencyId = participant.participantCurrencyId
  </text>
  <text font-family="sans-serif" font-size="13" lengthAdjust="spacingAndGlyphs" textLength="179" x="1403" y="340.512">
    participantLimit.isActive = 1
  </text>
  <text font-family="sans-serif" font-size="13" lengthAdjust="spacingAndGlyphs" textLength="523" x="1403" y="355.645">
    participantLimit.participantCurrencyId = participantCurrency.participantCurrencyId
  </text>
  <text font-family="sans-serif" font-size="13" lengthAdjust="spacingAndGlyphs" textLength="5" x="1403" y="370.778">
    [
  </text>
  <text font-family="sans-serif" font-size="13" lengthAdjust="spacingAndGlyphs" textLength="535" x="1419" y="385.911">
    participantLimit.participantLimitTypeId = participantLimitType.participantLimitTypeId
  </text>
  <text font-family="sans-serif" font-size="13" lengthAdjust="spacingAndGlyphs" textLength="346" x="1419" y="401.043">
    participantLimit.participantCurrencyId = &lt;currencyId&gt;
  </text>
  <text font-family="sans-serif" font-size="13" lengthAdjust="spacingAndGlyphs" textLength="239" x="1419" y="416.176">
    participantLimitType.name = &lt;type&gt;
  </text>
  <text font-family="sans-serif" font-size="13" lengthAdjust="spacingAndGlyphs" textLength="5" x="1403" y="431.309">
    ]
  </text>
  <path fill="#FFFFE0" filter="url(#a)" stroke="#a80036" d="M1676 453.375h133l10 34-10 34h-133l-10-34 10-34z"/>
  <text font-family="sans-serif" font-size="13" lengthAdjust="spacingAndGlyphs" textLength="68" x="1678" y="469.442">
    participant
  </text>
  <text font-family="sans-serif" font-size="13" lengthAdjust="spacingAndGlyphs" textLength="125" x="1678" y="484.575">
    participantCurrency
  </text>
  <text font-family="sans-serif" font-size="13" lengthAdjust="spacingAndGlyphs" textLength="99" x="1678" y="499.707">
    participantLimit
  </text>
  <text font-family="sans-serif" font-size="13" lengthAdjust="spacingAndGlyphs" textLength="129" x="1678" y="514.84">
    participantLimitType
  </text>
  <path fill="#A80036" stroke="#a80036" d="M1387 544.04l-10 4 10 4-4-4z"/>
  <path stroke="#a80036" stroke-dasharray="2,2" d="M1381 548.039h361"/>
  <text font-family="sans-serif" font-size="13" font-weight="bold" lengthAdjust="spacingAndGlyphs" textLength="9" x="1393" y="542.973">
    5
  </text>
  <text font-family="sans-serif" font-size="13" lengthAdjust="spacingAndGlyphs" textLength="325" x="1406" y="542.973">
    Retrieved Participant Limits for currencyId and type
  </text>
  <path fill="#A80036" stroke="#a80036" d="M998 573.172l-10 4 10 4-4-4z"/>
  <path stroke="#a80036" stroke-dasharray="2,2" d="M992 577.172h378"/>
  <text font-family="sans-serif" font-size="13" font-weight="bold" lengthAdjust="spacingAndGlyphs" textLength="9" x="1004" y="572.106">
    6
  </text>
  <text font-family="sans-serif" font-size="13" lengthAdjust="spacingAndGlyphs" textLength="202" x="1017" y="572.106">
    Return Limits for all participants
  </text>
  <path d="M992 590.172v206h296v-196l-10-10H992" fill="#FF0" filter="url(#a)" stroke="#a80036"/>
  <path d="M1278 590.172v10h10l-10-10" fill="#FF0" stroke="#a80036"/>
  <text font-family="sans-serif" font-size="13" lengthAdjust="spacingAndGlyphs" textLength="61" x="998" y="607.239">
    Message:
  </text>
  <text font-family="sans-serif" font-size="13" lengthAdjust="spacingAndGlyphs" textLength="5" x="998" y="622.372">
    [
  </text>
  <text font-family="sans-serif" font-size="13" lengthAdjust="spacingAndGlyphs" textLength="8" x="1014" y="637.504">
    {
  </text>
  <text font-family="sans-serif" font-size="13" lengthAdjust="spacingAndGlyphs" textLength="86" x="1030" y="652.637">
    name: &lt;fsp&gt;
  </text>
  <text font-family="sans-serif" font-size="13" lengthAdjust="spacingAndGlyphs" textLength="155" x="1030" y="667.77">
    currency: &lt;currencyId&gt;,
  </text>
  <text font-family="sans-serif" font-size="13" lengthAdjust="spacingAndGlyphs" textLength="243" x="1030" y="682.903">
    limit: {type: &lt;type&gt;, value: &lt;value&gt;}
  </text>
  <text font-family="sans-serif" font-size="13" lengthAdjust="spacingAndGlyphs" textLength="12" x="1014" y="698.036">
    },
  </text>
  <text font-family="sans-serif" font-size="13" lengthAdjust="spacingAndGlyphs" textLength="8" x="1014" y="713.168">
    {
  </text>
  <text font-family="sans-serif" font-size="13" lengthAdjust="spacingAndGlyphs" textLength="86" x="1030" y="728.301">
    name: &lt;fsp&gt;
  </text>
  <text font-family="sans-serif" font-size="13" lengthAdjust="spacingAndGlyphs" textLength="155" x="1030" y="743.434">
    currency: &lt;currencyId&gt;,
  </text>
  <text font-family="sans-serif" font-size="13" lengthAdjust="spacingAndGlyphs" textLength="243" x="1030" y="758.567">
    limit: {type: &lt;type&gt;, value: &lt;value&gt;}
  </text>
  <text font-family="sans-serif" font-size="13" lengthAdjust="spacingAndGlyphs" textLength="8" x="1014" y="773.7">
    }
  </text>
  <text font-family="sans-serif" font-size="13" lengthAdjust="spacingAndGlyphs" textLength="5" x="998" y="788.832">
    ]
  </text>
  <path fill="#A80036" stroke="#a80036" d="M745 838.164l-10 4 10 4-4-4z"/>
  <path stroke="#a80036" stroke-dasharray="2,2" d="M739 842.164h242"/>
  <text font-family="sans-serif" font-size="13" font-weight="bold" lengthAdjust="spacingAndGlyphs" textLength="9" x="751" y="829.532">
    7
  </text>
  <text font-family="sans-serif" font-size="13" lengthAdjust="spacingAndGlyphs" textLength="202" x="764" y="821.965">
    Return Limits for all participants
  </text>
  <text fill="red" font-family="sans-serif" font-size="13" font-weight="bold" lengthAdjust="spacingAndGlyphs" textLength="82" x="764" y="837.098">
    Error code:
  </text>
  <text fill="red" font-family="sans-serif" font-size="13" lengthAdjust="spacingAndGlyphs" textLength="32" x="850" y="837.098">
    3000
  </text>
  <path fill="#A80036" stroke="#a80036" d="M90 882.43l-10 4 10 4-4-4z"/>
  <path stroke="#a80036" stroke-dasharray="2,2" d="M84 886.43h644"/>
  <text font-family="sans-serif" font-size="13" font-weight="bold" lengthAdjust="spacingAndGlyphs" textLength="9" x="96" y="873.797">
    8
  </text>
  <text font-family="sans-serif" font-size="13" lengthAdjust="spacingAndGlyphs" textLength="202" x="109" y="866.231">
    Return Limits for all participants
  </text>
  <text fill="red" font-family="sans-serif" font-size="13" font-weight="bold" lengthAdjust="spacingAndGlyphs" textLength="82" x="109" y="881.364">
    Error code:
  </text>
  <text fill="red" font-family="sans-serif" font-size="13" lengthAdjust="spacingAndGlyphs" textLength="32" x="195" y="881.364">
    3000
  </text>
</svg>
