<svg xmlns="http://www.w3.org/2000/svg" height="1070" preserveAspectRatio="none" style="width:1128px;height:1070px" width="1128">
  <defs>
    <filter height="300%" id="a" width="300%" x="-1" y="-1">
      <feGaussianBlur result="blurOut" stdDeviation="2"/>
      <feColorMatrix in="blurOut" result="blurOut2" values="0 0 0 0 0 0 0 0 0 0 0 0 0 0 0 0 0 0 .4 0"/>
      <feOffset dx="4" dy="4" in="blurOut2" result="blurOut3"/>
      <feBlend in="SourceGraphic" in2="blurOut3"/>
    </filter>
  </defs>
  <text font-family="sans-serif" font-size="18" lengthAdjust="spacingAndGlyphs" textLength="752" x="186" y="28.708">
    9.1.1. Request Duplicate Check (incl. Transfers, Quotes, Bulk Transfers, Bulk Quotes)
  </text>
  <path fill="#FFFFE0" stroke="#a80036" d="M16 40.953h1034.5v1023.844H16z"/>
  <text font-family="sans-serif" font-size="13" font-weight="bold" lengthAdjust="spacingAndGlyphs" textLength="111" x="477.75" y="53.02">
    Central Service
  </text>
  <path fill="#FFF" filter="url(#a)" stroke="#a80036" d="M69.5 179.945h10v30h-10zM235.5 134.68h10v853.523h-10zM742.5 320.477h10V525.54h-10zM742.5 752.273h10v121.398h-10zM993.5 434.141h10v62.266h-10zM993.5 781.406h10v30h-10z"/>
  <path fill="#FFF" filter="url(#a)" stroke="#000" stroke-width="2" d="M10 141.68h1104v838.523H10z"/>
  <path fill="#FFF" filter="url(#a)" stroke="#000" stroke-width="2" d="M189 267.078h905v266.461H189zM179 547.539h925v341.133H179z"/>
  <path fill="#FFF" filter="url(#a)" stroke="#000" stroke-width="2" d="M189 571.672h395v98.398H189z"/>
  <path fill="#FFF" d="M179 677.07h925v211.602H179z"/>
  <path fill="#FFF" filter="url(#a)" stroke="#000" stroke-width="2" d="M189 698.875h905v182.797H189z"/>
  <path stroke="#a80036" stroke-dasharray="5,5" d="M74 124.68v872.523M240 124.68v872.523M494.5 124.68v872.523M620.5 124.68v872.523M747.5 124.68v872.523M998.5 124.68v872.523"/>
  <path fill="#FEFECE" filter="url(#a)" stroke="#a80036" stroke-width="1.5" d="M24 85.383h101v30.297H24z"/>
  <path fill="#FEFECE" filter="url(#a)" stroke="#a80036" stroke-width="1.5" d="M20 89.383h101v30.297H20z"/>
  <text font-family="sans-serif" font-size="14" lengthAdjust="spacingAndGlyphs" textLength="87" x="27" y="109.378">
    topic-source
  </text>
  <path fill="#FEFECE" filter="url(#a)" stroke="#a80036" stroke-width="1.5" d="M24 996.203h101v30.297H24z"/>
  <path fill="#FEFECE" filter="url(#a)" stroke="#a80036" stroke-width="1.5" d="M20 1000.203h101v30.297H20z"/>
  <text font-family="sans-serif" font-size="14" lengthAdjust="spacingAndGlyphs" textLength="87" x="27" y="1020.198">
    topic-source
  </text>
  <text font-family="sans-serif" font-size="14" lengthAdjust="spacingAndGlyphs" textLength="77" x="199" y="105.081">
    Processing
  </text>
  <text font-family="sans-serif" font-size="14" lengthAdjust="spacingAndGlyphs" textLength="53" x="211" y="121.378">
    Handler
  </text>
  <circle cx="240.5" cy="76.086" fill="#FEFECE" filter="url(#a)" stroke="#a80036" stroke-width="2" r="12"/>
  <path fill="#A80036" stroke="#a80036" d="M236.5 64.086l6-5-2 5 2 5-6-5z"/>
  <text font-family="sans-serif" font-size="14" lengthAdjust="spacingAndGlyphs" textLength="77" x="199" y="1009.198">
    Processing
  </text>
  <text font-family="sans-serif" font-size="14" lengthAdjust="spacingAndGlyphs" textLength="53" x="211" y="1025.495">
    Handler
  </text>
  <circle cx="240.5" cy="1044.797" fill="#FEFECE" filter="url(#a)" stroke="#a80036" stroke-width="2" r="12"/>
  <path fill="#A80036" stroke="#a80036" d="M236.5 1032.797l6-5-2 5 2 5-6-5z"/>
  <path fill="#FEFECE" filter="url(#a)" stroke="#a80036" stroke-width="1.5" d="M448.5 85.383h92v30.297h-92z"/>
  <path fill="#FEFECE" filter="url(#a)" stroke="#a80036" stroke-width="1.5" d="M444.5 89.383h92v30.297h-92z"/>
  <text font-family="sans-serif" font-size="14" lengthAdjust="spacingAndGlyphs" textLength="78" x="451.5" y="109.378">
    topic-event
  </text>
  <path fill="#FEFECE" filter="url(#a)" stroke="#a80036" stroke-width="1.5" d="M448.5 996.203h92v30.297h-92z"/>
  <path fill="#FEFECE" filter="url(#a)" stroke="#a80036" stroke-width="1.5" d="M444.5 1000.203h92v30.297h-92z"/>
  <text font-family="sans-serif" font-size="14" lengthAdjust="spacingAndGlyphs" textLength="78" x="451.5" y="1020.198">
    topic-event
  </text>
  <path fill="#FEFECE" filter="url(#a)" stroke="#a80036" stroke-width="1.5" d="M558.5 85.383h125v30.297h-125z"/>
  <path fill="#FEFECE" filter="url(#a)" stroke="#a80036" stroke-width="1.5" d="M554.5 89.383h125v30.297h-125z"/>
  <text font-family="sans-serif" font-size="14" lengthAdjust="spacingAndGlyphs" textLength="111" x="561.5" y="109.378">
    topic-notifcation
  </text>
  <path fill="#FEFECE" filter="url(#a)" stroke="#a80036" stroke-width="1.5" d="M558.5 996.203h125v30.297h-125z"/>
  <path fill="#FEFECE" filter="url(#a)" stroke="#a80036" stroke-width="1.5" d="M554.5 1000.203h125v30.297h-125z"/>
  <text font-family="sans-serif" font-size="14" lengthAdjust="spacingAndGlyphs" textLength="111" x="561.5" y="1020.198">
    topic-notifcation
  </text>
  <text font-family="sans-serif" font-size="14" lengthAdjust="spacingAndGlyphs" textLength="94" x="697.5" y="121.378">
    Request DAO
  </text>
  <circle cx="747.5" cy="92.383" fill="#FEFECE" filter="url(#a)" stroke="#a80036" stroke-width="2" r="12"/>
  <path stroke="#a80036" stroke-width="2" d="M735.5 106.383h24"/>
  <text font-family="sans-serif" font-size="14" lengthAdjust="spacingAndGlyphs" textLength="94" x="697.5" y="1009.198">
    Request DAO
  </text>
  <circle cx="747.5" cy="1028.5" fill="#FEFECE" filter="url(#a)" stroke="#a80036" stroke-width="2" r="12"/>
  <path stroke="#a80036" stroke-width="2" d="M735.5 1042.5h24"/>
  <text font-family="sans-serif" font-size="14" lengthAdjust="spacingAndGlyphs" textLength="90" x="950.5" y="121.378">
    Central Store
  </text>
  <path d="M980.5 72.383c0-10 18-10 18-10s18 0 18 10v26c0 10-18 10-18 10s-18 0-18-10v-26" fill="#FEFECE" filter="url(#a)" stroke="#000" stroke-width="1.5"/>
  <path d="M980.5 72.383c0 10 18 10 18 10s18 0 18-10" fill="none" stroke="#000" stroke-width="1.5"/>
  <text font-family="sans-serif" font-size="14" lengthAdjust="spacingAndGlyphs" textLength="90" x="950.5" y="1009.198">
    Central Store
  </text>
  <path d="M980.5 1022.5c0-10 18-10 18-10s18 0 18 10v26c0 10-18 10-18 10s-18 0-18-10v-26" fill="#FEFECE" filter="url(#a)" stroke="#000" stroke-width="1.5"/>
  <path d="M980.5 1022.5c0 10 18 10 18 10s18 0 18-10" fill="none" stroke="#000" stroke-width="1.5"/>
  <path fill="#FFF" filter="url(#a)" stroke="#a80036" d="M69.5 179.945h10v30h-10zM235.5 134.68h10v853.523h-10zM742.5 320.477h10V525.54h-10zM742.5 752.273h10v121.398h-10zM993.5 434.141h10v62.266h-10zM993.5 781.406h10v30h-10z"/>
  <path d="M10 141.68h231v7l-10 10H10v-17" fill="#EEE" stroke="#000"/>
  <path fill="none" stroke="#000" stroke-width="2" d="M10 141.68h1104v838.523H10z"/>
  <text font-family="sans-serif" font-size="13" font-weight="bold" lengthAdjust="spacingAndGlyphs" textLength="186" x="25" y="154.747">
    Request Duplicate Check
  </text>
  <path fill="#A80036" stroke="#a80036" d="M90.5 175.945l-10 4 10 4-4-4z"/>
  <path stroke="#a80036" d="M84.5 179.945h150"/>
  <text font-family="sans-serif" font-size="13" font-weight="bold" lengthAdjust="spacingAndGlyphs" textLength="9" x="96.5" y="174.879">
    1
  </text>
  <text font-family="sans-serif" font-size="13" lengthAdjust="spacingAndGlyphs" textLength="124" x="109.5" y="174.879">
    Consume message
  </text>
  <path stroke="#a80036" d="M245.5 239.078h42M287.5 239.078v13M246.5 252.078h41"/>
  <path fill="#A80036" stroke="#a80036" d="M256.5 248.078l-10 4 10 4-4-4z"/>
  <text font-family="sans-serif" font-size="13" font-weight="bold" lengthAdjust="spacingAndGlyphs" textLength="9" x="252.5" y="234.012">
    2
  </text>
  <text font-family="sans-serif" font-size="13" lengthAdjust="spacingAndGlyphs" textLength="99" x="265.5" y="234.012">
    Generate hash:
  </text>
  <text font-family="sans-serif" font-size="13" font-weight="bold" lengthAdjust="spacingAndGlyphs" textLength="114" x="368.5" y="234.012">
    generatedHash
  </text>
  <path d="M189 267.078h244v7l-10 10H189v-17" fill="#EEE" stroke="#000"/>
  <path fill="none" stroke="#000" stroke-width="2" d="M189 267.078h905v266.461H189z"/>
  <text font-family="sans-serif" font-size="13" font-weight="bold" lengthAdjust="spacingAndGlyphs" textLength="199" x="204" y="280.145">
    UUID Check (compareById)
  </text>
  <path fill="#A80036" stroke="#a80036" d="M730.5 316.477l10 4-10 4 4-4z"/>
  <path stroke="#a80036" d="M245.5 320.477h491"/>
  <text font-family="sans-serif" font-size="13" font-weight="bold" lengthAdjust="spacingAndGlyphs" textLength="9" x="252.5" y="307.844">
    3
  </text>
  <text font-family="sans-serif" font-size="13" lengthAdjust="spacingAndGlyphs" textLength="332" x="265.5" y="300.278">
    Query hash using getDuplicateDataFuncOverride(id)
  </text>
  <text fill="red" font-family="sans-serif" font-size="13" font-weight="bold" lengthAdjust="spacingAndGlyphs" textLength="82" x="265.5" y="315.411">
    Error code:
  </text>
  <text fill="red" font-family="sans-serif" font-size="13" lengthAdjust="spacingAndGlyphs" textLength="32" x="351.5" y="315.411">
    2003
  </text>
  <path d="M757 333.477v70h244v-60l-10-10H757" fill="#D3D3D3" filter="url(#a)" stroke="#a80036"/>
  <path d="M991 333.477v10h10l-10-10" fill="#D3D3D3" stroke="#a80036"/>
  <text font-family="sans-serif" font-size="13" font-style="italic" lengthAdjust="spacingAndGlyphs" textLength="49" x="763" y="350.543">
    request
  </text>
  <text font-family="sans-serif" font-size="13" lengthAdjust="spacingAndGlyphs" textLength="167" x="816" y="350.543">
    keyword to be replaced by
  </text>
  <text font-family="sans-serif" font-size="13" font-weight="bold" lengthAdjust="spacingAndGlyphs" textLength="59" x="763" y="365.676">
    transfer
  </text>
  <text font-family="sans-serif" font-size="13" lengthAdjust="spacingAndGlyphs" textLength="4" x="822" y="365.676">
    ,
  </text>
  <text font-family="sans-serif" font-size="13" font-weight="bold" lengthAdjust="spacingAndGlyphs" textLength="133" x="830" y="365.676">
    transferFulfilment
  </text>
  <text font-family="sans-serif" font-size="13" lengthAdjust="spacingAndGlyphs" textLength="4" x="963" y="365.676">
    ,
  </text>
  <text font-family="sans-serif" font-size="13" font-weight="bold" lengthAdjust="spacingAndGlyphs" textLength="93" x="763" y="380.809">
    bulkTransfer
  </text>
  <text font-family="sans-serif" font-size="13" lengthAdjust="spacingAndGlyphs" textLength="122" x="860" y="380.809">
    or other depending
  </text>
  <text font-family="sans-serif" font-size="13" lengthAdjust="spacingAndGlyphs" textLength="97" x="763" y="395.942">
    on the override
  </text>
  <path fill="#A80036" stroke="#a80036" d="M981.5 430.14l10 4-10 4 4-4z"/>
  <path stroke="#a80036" d="M752.5 434.141h235"/>
  <text font-family="sans-serif" font-size="13" font-weight="bold" lengthAdjust="spacingAndGlyphs" textLength="9" x="759.5" y="429.075">
    4
  </text>
  <text font-family="sans-serif" font-size="13" lengthAdjust="spacingAndGlyphs" textLength="196" x="772.5" y="429.075">
    getDuplicateDataFuncOverride
  </text>
  <path fill="#FFFFE0" filter="url(#a)" stroke="#a80036" d="M922 447.14h152l10 11-10 12H922l-10-12 10-11z"/>
  <text font-family="sans-serif" font-size="13" font-style="italic" lengthAdjust="spacingAndGlyphs" textLength="49" x="924" y="463.207">
    request
  </text>
  <text font-family="sans-serif" font-size="13" lengthAdjust="spacingAndGlyphs" textLength="99" x="973" y="463.207">
    DuplicateCheck
  </text>
  <path fill="#A80036" stroke="#a80036" d="M763.5 492.406l-10 4 10 4-4-4z"/>
  <path stroke="#a80036" stroke-dasharray="2,2" d="M757.5 496.406h240"/>
  <text font-family="sans-serif" font-size="13" font-weight="bold" lengthAdjust="spacingAndGlyphs" textLength="9" x="769.5" y="491.34">
    5
  </text>
  <text font-family="sans-serif" font-size="13" lengthAdjust="spacingAndGlyphs" textLength="42" x="782.5" y="491.34">
    Return
  </text>
  <text font-family="sans-serif" font-size="13" font-weight="bold" lengthAdjust="spacingAndGlyphs" textLength="158" x="828.5" y="491.34">
    duplicateHashRecord
  </text>
  <path fill="#A80036" stroke="#a80036" d="M256.5 521.54l-10 4 10 4-4-4z"/>
  <path stroke="#a80036" stroke-dasharray="2,2" d="M250.5 525.539h496"/>
  <text font-family="sans-serif" font-size="13" font-weight="bold" lengthAdjust="spacingAndGlyphs" textLength="9" x="262.5" y="520.473">
    6
  </text>
  <text font-family="sans-serif" font-size="13" lengthAdjust="spacingAndGlyphs" textLength="42" x="275.5" y="520.473">
    Return
  </text>
  <text font-family="sans-serif" font-size="13" font-weight="bold" lengthAdjust="spacingAndGlyphs" textLength="110" x="321.5" y="520.473">
    hasDuplicateId
  </text>
  <path d="M179 547.54h64v7l-10 10h-54v-17" fill="#EEE" stroke="#000"/>
  <path fill="none" stroke="#000" stroke-width="2" d="M179 547.539h925v341.133H179z"/>
  <text font-family="sans-serif" font-size="13" font-weight="bold" lengthAdjust="spacingAndGlyphs" textLength="19" x="194" y="560.606">
    alt
  </text>
  <text font-family="sans-serif" font-size="11" font-weight="bold" lengthAdjust="spacingAndGlyphs" textLength="165" x="258" y="559.75">
    [hasDuplicateId == TRUE]
  </text>
  <path d="M189 571.672h269v7l-10 10H189v-17" fill="#EEE" stroke="#000"/>
  <path fill="none" stroke="#000" stroke-width="2" d="M189 571.672h395v98.398H189z"/>
  <text font-family="sans-serif" font-size="13" font-weight="bold" lengthAdjust="spacingAndGlyphs" textLength="224" x="204" y="584.739">
    Hash Check (compareByHash)
  </text>
  <path d="M250 593.805v25h320v-15l-10-10H250" fill="#D3D3D3" filter="url(#a)" stroke="#a80036"/>
  <path d="M560 593.805v10h10l-10-10" fill="#D3D3D3" stroke="#a80036"/>
  <text font-family="sans-serif" font-size="13" lengthAdjust="spacingAndGlyphs" textLength="299" x="256" y="610.872">
    generatedHash == duplicateHashRecord.hash
  </text>
  <path stroke="#a80036" d="M245.5 649.07h42M287.5 649.07v13M246.5 662.07h41"/>
  <path fill="#A80036" stroke="#a80036" d="M256.5 658.07l-10 4 10 4-4-4z"/>
  <text font-family="sans-serif" font-size="13" font-weight="bold" lengthAdjust="spacingAndGlyphs" textLength="9" x="252.5" y="644.004">
    7
  </text>
  <text font-family="sans-serif" font-size="13" lengthAdjust="spacingAndGlyphs" textLength="42" x="265.5" y="644.004">
    Return
  </text>
  <text font-family="sans-serif" font-size="13" font-weight="bold" lengthAdjust="spacingAndGlyphs" textLength="133" x="311.5" y="644.004">
    hasDuplicateHash
  </text>
  <path stroke="#000" stroke-dasharray="2,2" d="M179 678.07h925"/>
  <text font-family="sans-serif" font-size="11" font-weight="bold" lengthAdjust="spacingAndGlyphs" textLength="171" x="184" y="688.281">
    [hasDuplicateId == FALSE]
  </text>
  <path d="M189 698.875h197v7l-10 10H189v-17" fill="#EEE" stroke="#000"/>
  <path fill="none" stroke="#000" stroke-width="2" d="M189 698.875h905v182.797H189z"/>
  <text font-family="sans-serif" font-size="13" font-weight="bold" lengthAdjust="spacingAndGlyphs" textLength="152" x="204" y="711.942">
    Store Message Hash
  </text>
  <path fill="#A80036" stroke="#a80036" d="M730.5 748.273l10 4-10 4 4-4z"/>
  <path stroke="#a80036" d="M245.5 752.273h491"/>
  <text font-family="sans-serif" font-size="13" font-weight="bold" lengthAdjust="spacingAndGlyphs" textLength="9" x="252.5" y="739.641">
    8
  </text>
  <text font-family="sans-serif" font-size="13" lengthAdjust="spacingAndGlyphs" textLength="395" x="265.5" y="732.075">
    Persist hash using saveHashFuncOverride(id, generatedHash)
  </text>
  <text fill="red" font-family="sans-serif" font-size="13" font-weight="bold" lengthAdjust="spacingAndGlyphs" textLength="82" x="265.5" y="747.207">
    Error code:
  </text>
  <text fill="red" font-family="sans-serif" font-size="13" lengthAdjust="spacingAndGlyphs" textLength="32" x="351.5" y="747.207">
    2003
  </text>
  <path fill="#A80036" stroke="#a80036" d="M981.5 777.406l10 4-10 4 4-4z"/>
  <path stroke="#a80036" d="M752.5 781.406h235"/>
  <text font-family="sans-serif" font-size="13" font-weight="bold" lengthAdjust="spacingAndGlyphs" textLength="9" x="759.5" y="776.34">
    9
  </text>
  <text font-family="sans-serif" font-size="13" lengthAdjust="spacingAndGlyphs" textLength="43" x="772.5" y="776.34">
    Persist
  </text>
  <text font-family="sans-serif" font-size="13" font-weight="bold" lengthAdjust="spacingAndGlyphs" textLength="114" x="819.5" y="776.34">
    generatedHash
  </text>
  <path fill="#FFFFE0" filter="url(#a)" stroke="#a80036" d="M922 824.406h152l10 11-10 12H922l-10-12 10-11z"/>
  <text font-family="sans-serif" font-size="13" font-style="italic" lengthAdjust="spacingAndGlyphs" textLength="49" x="924" y="840.473">
    request
  </text>
  <text font-family="sans-serif" font-size="13" lengthAdjust="spacingAndGlyphs" textLength="99" x="973" y="840.473">
    DuplicateCheck
  </text>
  <path fill="#A80036" stroke="#a80036" d="M256.5 869.672l-10 4 10 4-4-4z"/>
  <path stroke="#a80036" stroke-dasharray="2,2" d="M250.5 873.672h496"/>
  <text font-family="sans-serif" font-size="13" font-weight="bold" lengthAdjust="spacingAndGlyphs" textLength="18" x="262.5" y="868.606">
    10
  </text>
  <text font-family="sans-serif" font-size="13" lengthAdjust="spacingAndGlyphs" textLength="97" x="284.5" y="868.606">
    Return success
  </text>
  <path d="M250 900.672v70h213v-60l-10-10H250" fill="#FF0" filter="url(#a)" stroke="#a80036"/>
  <path d="M453 900.672v10h10l-10-10" fill="#FF0" stroke="#a80036"/>
  <text font-family="sans-serif" font-size="13" lengthAdjust="spacingAndGlyphs" textLength="51" x="256" y="917.739">
    return {
  </text>
  <text font-family="sans-serif" font-size="13" lengthAdjust="spacingAndGlyphs" textLength="158" x="272" y="932.872">
    hasDuplicateId: Boolean,
  </text>
  <text font-family="sans-serif" font-size="13" lengthAdjust="spacingAndGlyphs" textLength="176" x="272" y="948.004">
    hasDuplicateHash: Boolean
  </text>
  <text font-family="sans-serif" font-size="13" lengthAdjust="spacingAndGlyphs" textLength="8" x="256" y="963.137">
    }
  </text>
</svg>
