<svg xmlns="http://www.w3.org/2000/svg" height="1758" preserveAspectRatio="none" style="width:1864px;height:1758px" width="1864">
  <defs>
    <filter height="300%" id="a" width="300%" x="-1" y="-1">
      <feGaussianBlur result="blurOut" stdDeviation="2"/>
      <feColorMatrix in="blurOut" result="blurOut2" values="0 0 0 0 0 0 0 0 0 0 0 0 0 0 0 0 0 0 .4 0"/>
      <feOffset dx="4" dy="4" in="blurOut2" result="blurOut3"/>
      <feBlend in="SourceGraphic" in2="blurOut3"/>
    </filter>
  </defs>
  <text font-family="sans-serif" font-size="18" lengthAdjust="spacingAndGlyphs" textLength="324" x="768" y="28.708">
    4.1.0 Get Participant Position Details
  </text>
  <path fill="#ADD8E6" stroke="#a80036" d="M36 40.953h126v1711.969H36z"/>
  <text font-family="sans-serif" font-size="13" font-weight="bold" lengthAdjust="spacingAndGlyphs" textLength="102" x="48" y="53.02">
    HUB Operator
  </text>
  <path fill="#FFFFE0" stroke="#a80036" d="M628 40.953h1170v1711.969H628z"/>
  <text font-family="sans-serif" font-size="13" font-weight="bold" lengthAdjust="spacingAndGlyphs" textLength="111" x="1157.5" y="53.02">
    Central Service
  </text>
  <path fill="#FFF" filter="url(#a)" stroke="#a80036" d="M94 132.383h10v1545.242H94zM694 177.648h10v1499.977h-10zM1034 206.781h10v1419.711h-10zM1259 251.047h10v120.531h-10zM1383 563.508h10v135.664h-10zM1383 961.57h10v135.664h-10zM1741 280.18h10v62.266h-10zM1741 592.641h10v77.398h-10zM1741 990.703h10v77.398h-10z"/>
  <path fill="#FFF" filter="url(#a)" stroke="#000" stroke-width="2" d="M10 139.383h1840v1531.242H10z"/>
  <path fill="#FFF" filter="url(#a)" stroke="#000" stroke-width="2" d="M20 443.844h1820v1219.781H20z"/>
  <path fill="#FFF" filter="url(#a)" stroke="#000" stroke-width="2" d="M30 510.109h1800v904.383H30z"/>
  <path fill="#FFF" d="M30 910.5h1800v503.992H30zM20 1421.492h1820v242.133H20z"/>
  <path stroke="#a80036" stroke-dasharray="5,5" d="M99 122.383v1565.242M699 122.383v1565.242M1038.5 122.383v1565.242M1263.5 122.383v1565.242M1387.5 122.383v1565.242M1746 122.383v1565.242"/>
  <text font-family="sans-serif" font-size="14" lengthAdjust="spacingAndGlyphs" textLength="112" x="40" y="119.081">
    HUB OPERATOR
  </text>
  <circle cx="99" cy="90.086" fill="#FEFECE" filter="url(#a)" stroke="#a80036" stroke-width="2" r="12"/>
  <path stroke="#a80036" stroke-width="2" d="M87 104.086h24"/>
  <text font-family="sans-serif" font-size="14" lengthAdjust="spacingAndGlyphs" textLength="112" x="40" y="1699.62">
    HUB OPERATOR
  </text>
  <circle cx="99" cy="1718.922" fill="#FEFECE" filter="url(#a)" stroke="#a80036" stroke-width="2" r="12"/>
  <path stroke="#a80036" stroke-width="2" d="M87 1732.922h24"/>
  <text font-family="sans-serif" font-size="14" lengthAdjust="spacingAndGlyphs" textLength="128" x="632" y="119.081">
    Central Service API
  </text>
  <path d="M678.5 78.086v24m0-12h17" fill="none" filter="url(#a)" stroke="#a80036" stroke-width="2"/>
  <circle cx="707.5" cy="90.086" fill="#FEFECE" filter="url(#a)" stroke="#a80036" stroke-width="2" r="12"/>
  <text font-family="sans-serif" font-size="14" lengthAdjust="spacingAndGlyphs" textLength="128" x="632" y="1699.62">
    Central Service API
  </text>
  <path d="M678.5 1706.922v24m0-12h17" fill="none" filter="url(#a)" stroke="#a80036" stroke-width="2"/>
  <circle cx="707.5" cy="1718.922" fill="#FEFECE" filter="url(#a)" stroke="#a80036" stroke-width="2" r="12"/>
  <text font-family="sans-serif" font-size="14" lengthAdjust="spacingAndGlyphs" textLength="129" x="971.5" y="119.081">
    Participant Handler
  </text>
  <circle cx="1039" cy="90.086" fill="#FEFECE" filter="url(#a)" stroke="#a80036" stroke-width="2" r="12"/>
  <path fill="#A80036" stroke="#a80036" d="M1035 78.086l6-5-2 5 2 5-6-5z"/>
  <text font-family="sans-serif" font-size="14" lengthAdjust="spacingAndGlyphs" textLength="129" x="971.5" y="1699.62">
    Participant Handler
  </text>
  <circle cx="1039" cy="1718.922" fill="#FEFECE" filter="url(#a)" stroke="#a80036" stroke-width="2" r="12"/>
  <path fill="#A80036" stroke="#a80036" d="M1035 1706.922l6-5-2 5 2 5-6-5z"/>
  <text font-family="sans-serif" font-size="14" lengthAdjust="spacingAndGlyphs" textLength="107" x="1207.5" y="119.081">
    Participant DAO
  </text>
  <circle cx="1264" cy="90.086" fill="#FEFECE" filter="url(#a)" stroke="#a80036" stroke-width="2" r="12"/>
  <path stroke="#a80036" stroke-width="2" d="M1252 104.086h24"/>
  <text font-family="sans-serif" font-size="14" lengthAdjust="spacingAndGlyphs" textLength="107" x="1207.5" y="1699.62">
    Participant DAO
  </text>
  <circle cx="1264" cy="1718.922" fill="#FEFECE" filter="url(#a)" stroke="#a80036" stroke-width="2" r="12"/>
  <path stroke="#a80036" stroke-width="2" d="M1252 1732.922h24"/>
  <text font-family="sans-serif" font-size="14" lengthAdjust="spacingAndGlyphs" textLength="109" x="1330.5" y="119.081">
    Position Facade
  </text>
  <circle cx="1388" cy="90.086" fill="#FEFECE" filter="url(#a)" stroke="#a80036" stroke-width="2" r="12"/>
  <path stroke="#a80036" stroke-width="2" d="M1376 104.086h24"/>
  <text font-family="sans-serif" font-size="14" lengthAdjust="spacingAndGlyphs" textLength="109" x="1330.5" y="1699.62">
    Position Facade
  </text>
  <circle cx="1388" cy="1718.922" fill="#FEFECE" filter="url(#a)" stroke="#a80036" stroke-width="2" r="12"/>
  <path stroke="#a80036" stroke-width="2" d="M1376 1732.922h24"/>
  <text font-family="sans-serif" font-size="14" lengthAdjust="spacingAndGlyphs" textLength="90" x="1698" y="119.081">
    Central Store
  </text>
  <path d="M1728 70.086c0-10 18-10 18-10s18 0 18 10v26c0 10-18 10-18 10s-18 0-18-10v-26" fill="#FEFECE" filter="url(#a)" stroke="#000" stroke-width="1.5"/>
  <path d="M1728 70.086c0 10 18 10 18 10s18 0 18-10" fill="none" stroke="#000" stroke-width="1.5"/>
  <text font-family="sans-serif" font-size="14" lengthAdjust="spacingAndGlyphs" textLength="90" x="1698" y="1699.62">
    Central Store
  </text>
  <path d="M1728 1712.922c0-10 18-10 18-10s18 0 18 10v26c0 10-18 10-18 10s-18 0-18-10v-26" fill="#FEFECE" filter="url(#a)" stroke="#000" stroke-width="1.5"/>
  <path d="M1728 1712.922c0 10 18 10 18 10s18 0 18-10" fill="none" stroke="#000" stroke-width="1.5"/>
  <path fill="#FFF" filter="url(#a)" stroke="#a80036" d="M94 132.383h10v1545.242H94zM694 177.648h10v1499.977h-10zM1034 206.781h10v1419.711h-10zM1259 251.047h10v120.531h-10zM1383 563.508h10v135.664h-10zM1383 961.57h10v135.664h-10zM1741 280.18h10v62.266h-10zM1741 592.641h10v77.398h-10zM1741 990.703h10v77.398h-10z"/>
  <path d="M10 139.383h191v7l-10 10H10v-17" fill="#EEE" stroke="#000"/>
  <path fill="none" stroke="#000" stroke-width="2" d="M10 139.383h1840v1531.242H10z"/>
  <text font-family="sans-serif" font-size="13" font-weight="bold" lengthAdjust="spacingAndGlyphs" textLength="146" x="25" y="152.45">
    Get Position Details
  </text>
  <path fill="#A80036" stroke="#a80036" d="M682 173.648l10 4-10 4 4-4z"/>
  <path stroke="#a80036" d="M104 177.648h584"/>
  <text font-family="sans-serif" font-size="13" font-weight="bold" lengthAdjust="spacingAndGlyphs" textLength="9" x="111" y="172.583">
    1
  </text>
  <text font-family="sans-serif" font-size="13" lengthAdjust="spacingAndGlyphs" textLength="558" x="124" y="172.583">
    Request to get positions - GET - /participants/{name}/positions?currency={currencyId}
  </text>
  <path fill="#A80036" stroke="#a80036" d="M1022 202.781l10 4-10 4 4-4z"/>
  <path stroke="#a80036" d="M704 206.781h324"/>
  <text font-family="sans-serif" font-size="13" font-weight="bold" lengthAdjust="spacingAndGlyphs" textLength="9" x="711" y="201.715">
    2
  </text>
  <text font-family="sans-serif" font-size="13" lengthAdjust="spacingAndGlyphs" textLength="189" x="724" y="201.715">
    Fetch Positions for Participant
  </text>
  <path fill="#A80036" stroke="#a80036" d="M1247 247.047l10 4-10 4 4-4z"/>
  <path stroke="#a80036" d="M1044 251.047h209"/>
  <text font-family="sans-serif" font-size="13" font-weight="bold" lengthAdjust="spacingAndGlyphs" textLength="9" x="1051" y="238.415">
    3
  </text>
  <text font-family="sans-serif" font-size="13" lengthAdjust="spacingAndGlyphs" textLength="107" x="1064" y="230.848">
    Fetch Participant
  </text>
  <text fill="red" font-family="sans-serif" font-size="13" font-weight="bold" lengthAdjust="spacingAndGlyphs" textLength="82" x="1064" y="245.981">
    Error code:
  </text>
  <text fill="red" font-family="sans-serif" font-size="13" lengthAdjust="spacingAndGlyphs" textLength="68" x="1150" y="245.981">
    2003,3201
  </text>
  <path fill="#A80036" stroke="#a80036" d="M1729 276.18l10 4-10 4 4-4z"/>
  <path stroke="#a80036" d="M1269 280.18h466"/>
  <text font-family="sans-serif" font-size="13" font-weight="bold" lengthAdjust="spacingAndGlyphs" textLength="9" x="1276" y="275.114">
    4
  </text>
  <text font-family="sans-serif" font-size="13" lengthAdjust="spacingAndGlyphs" textLength="107" x="1289" y="275.114">
    Fetch Participant
  </text>
  <path fill="#FFFFE0" filter="url(#a)" stroke="#a80036" d="M1710 293.18h72l10 11-10 12h-72l-10-12 10-11z"/>
  <text font-family="sans-serif" font-size="13" lengthAdjust="spacingAndGlyphs" textLength="68" x="1712" y="309.247">
    participant
  </text>
  <path fill="#A80036" stroke="#a80036" d="M1280 338.445l-10 4 10 4-4-4z"/>
  <path stroke="#a80036" stroke-dasharray="2,2" d="M1274 342.445h471"/>
  <text font-family="sans-serif" font-size="13" font-weight="bold" lengthAdjust="spacingAndGlyphs" textLength="9" x="1286" y="337.379">
    5
  </text>
  <text font-family="sans-serif" font-size="13" lengthAdjust="spacingAndGlyphs" textLength="132" x="1299" y="337.379">
    Retrieved Participant
  </text>
  <path fill="#A80036" stroke="#a80036" d="M1055 367.578l-10 4 10 4-4-4z"/>
  <path stroke="#a80036" stroke-dasharray="2,2" d="M1049 371.578h214"/>
  <text font-family="sans-serif" font-size="13" font-weight="bold" lengthAdjust="spacingAndGlyphs" textLength="9" x="1061" y="366.512">
    6
  </text>
  <text font-family="sans-serif" font-size="13" lengthAdjust="spacingAndGlyphs" textLength="114" x="1074" y="366.512">
    Return Participant
  </text>
  <path stroke="#a80036" d="M1044 415.844h42M1086 415.844v13M1045 428.844h41"/>
  <path fill="#A80036" stroke="#a80036" d="M1055 424.844l-10 4 10 4-4-4z"/>
  <text font-family="sans-serif" font-size="13" font-weight="bold" lengthAdjust="spacingAndGlyphs" textLength="9" x="1051" y="403.211">
    7
  </text>
  <text font-family="sans-serif" font-size="13" lengthAdjust="spacingAndGlyphs" textLength="90" x="1064" y="395.645">
    Validate DFSP
  </text>
  <text fill="red" font-family="sans-serif" font-size="13" font-weight="bold" lengthAdjust="spacingAndGlyphs" textLength="82" x="1064" y="410.778">
    Error code:
  </text>
  <text fill="red" font-family="sans-serif" font-size="13" lengthAdjust="spacingAndGlyphs" textLength="32" x="1150" y="410.778">
    3201
  </text>
  <path d="M20 443.844h64v7l-10 10H20v-17" fill="#EEE" stroke="#000"/>
  <path fill="none" stroke="#000" stroke-width="2" d="M20 443.844h1820v1219.781H20z"/>
  <text font-family="sans-serif" font-size="13" font-weight="bold" lengthAdjust="spacingAndGlyphs" textLength="19" x="35" y="456.911">
    alt
  </text>
  <text font-family="sans-serif" font-size="11" font-weight="bold" lengthAdjust="spacingAndGlyphs" textLength="202" x="99" y="456.054">
    [Validate participant (success)]
  </text>
  <path stroke="#a80036" d="M1044 482.109h42M1086 482.109v13M1045 495.109h41"/>
  <path fill="#A80036" stroke="#a80036" d="M1055 491.11l-10 4 10 4-4-4z"/>
  <text font-family="sans-serif" font-size="13" font-weight="bold" lengthAdjust="spacingAndGlyphs" textLength="9" x="1051" y="477.043">
    8
  </text>
  <text font-family="sans-serif" font-size="13" lengthAdjust="spacingAndGlyphs" textLength="188" x="1064" y="477.043">
    currency parameter passed ?
  </text>
  <path d="M30 510.11h64v7l-10 10H30v-17" fill="#EEE" stroke="#000"/>
  <path fill="none" stroke="#000" stroke-width="2" d="M30 510.109h1800v904.383H30z"/>
  <text font-family="sans-serif" font-size="13" font-weight="bold" lengthAdjust="spacingAndGlyphs" textLength="19" x="45" y="523.176">
    alt
  </text>
  <text font-family="sans-serif" font-size="11" font-weight="bold" lengthAdjust="spacingAndGlyphs" textLength="185" x="109" y="522.32">
    [currency parameter passed]
  </text>
  <path fill="#A80036" stroke="#a80036" d="M1371 559.508l10 4-10 4 4-4z"/>
  <path stroke="#a80036" d="M1044 563.508h333"/>
  <text font-family="sans-serif" font-size="13" font-weight="bold" lengthAdjust="spacingAndGlyphs" textLength="9" x="1051" y="550.875">
    9
  </text>
  <text font-family="sans-serif" font-size="13" lengthAdjust="spacingAndGlyphs" textLength="268" x="1064" y="543.309">
    Fetch Participant position for a currency id
  </text>
  <text fill="red" font-family="sans-serif" font-size="13" font-weight="bold" lengthAdjust="spacingAndGlyphs" textLength="82" x="1064" y="558.442">
    Error code:
  </text>
  <text fill="red" font-family="sans-serif" font-size="13" lengthAdjust="spacingAndGlyphs" textLength="32" x="1150" y="558.442">
    2003
  </text>
  <path fill="#A80036" stroke="#a80036" d="M1729 588.64l10 4-10 4 4-4z"/>
  <path stroke="#a80036" d="M1393 592.641h342"/>
  <text font-family="sans-serif" font-size="13" font-weight="bold" lengthAdjust="spacingAndGlyphs" textLength="18" x="1400" y="587.575">
    10
  </text>
  <text font-family="sans-serif" font-size="13" lengthAdjust="spacingAndGlyphs" textLength="268" x="1422" y="587.575">
    Fetch Participant position for a currency id
  </text>
  <path fill="#FFFFE0" filter="url(#a)" stroke="#a80036" d="M1681 605.64h129l10 19-10 19h-129l-10-19 10-19z"/>
  <text font-family="sans-serif" font-size="13" lengthAdjust="spacingAndGlyphs" textLength="125" x="1683" y="621.707">
    participantCurrency
  </text>
  <text font-family="sans-serif" font-size="13" lengthAdjust="spacingAndGlyphs" textLength="118" x="1683" y="636.84">
    participantPosition
  </text>
  <path fill="#A80036" stroke="#a80036" d="M1404 666.04l-10 4 10 4-4-4z"/>
  <path stroke="#a80036" stroke-dasharray="2,2" d="M1398 670.039h347"/>
  <text font-family="sans-serif" font-size="13" font-weight="bold" lengthAdjust="spacingAndGlyphs" textLength="18" x="1410" y="664.973">
    11
  </text>
  <text font-family="sans-serif" font-size="13" lengthAdjust="spacingAndGlyphs" textLength="293" x="1432" y="664.973">
    Retrieved Participant position for a currency id
  </text>
  <path fill="#A80036" stroke="#a80036" d="M1055 695.172l-10 4 10 4-4-4z"/>
  <path stroke="#a80036" stroke-dasharray="2,2" d="M1049 699.172h338"/>
  <text font-family="sans-serif" font-size="13" font-weight="bold" lengthAdjust="spacingAndGlyphs" textLength="18" x="1061" y="694.106">
    12
  </text>
  <text font-family="sans-serif" font-size="13" lengthAdjust="spacingAndGlyphs" textLength="196" x="1083" y="694.106">
    Return Positions for Participant
  </text>
  <path d="M1049 712.172v131h247v-121l-10-10h-237" fill="#FF0" filter="url(#a)" stroke="#a80036"/>
  <path d="M1286 712.172v10h10l-10-10" fill="#FF0" stroke="#a80036"/>
  <text font-family="sans-serif" font-size="13" lengthAdjust="spacingAndGlyphs" textLength="61" x="1055" y="729.239">
    Message:
  </text>
  <text font-family="sans-serif" font-size="13" lengthAdjust="spacingAndGlyphs" textLength="8" x="1055" y="744.372">
    {
  </text>
  <text font-family="sans-serif" font-size="13" lengthAdjust="spacingAndGlyphs" textLength="8" x="1071" y="759.504">
    {
  </text>
  <text font-family="sans-serif" font-size="13" lengthAdjust="spacingAndGlyphs" textLength="155" x="1087" y="774.637">
    currency: &lt;currencyId&gt;,
  </text>
  <text font-family="sans-serif" font-size="13" lengthAdjust="spacingAndGlyphs" textLength="154" x="1087" y="789.77">
    value: &lt;positionValue&gt;,
  </text>
  <text font-family="sans-serif" font-size="13" lengthAdjust="spacingAndGlyphs" textLength="194" x="1087" y="804.903">
    updatedTime: &lt;timeStamp1&gt;
  </text>
  <text font-family="sans-serif" font-size="13" lengthAdjust="spacingAndGlyphs" textLength="8" x="1071" y="820.036">
    }
  </text>
  <text font-family="sans-serif" font-size="13" lengthAdjust="spacingAndGlyphs" textLength="8" x="1055" y="835.168">
    }
  </text>
  <path fill="#A80036" stroke="#a80036" d="M715 869.367l-10 4 10 4-4-4z"/>
  <path stroke="#a80036" stroke-dasharray="2,2" d="M709 873.367h324"/>
  <text font-family="sans-serif" font-size="13" font-weight="bold" lengthAdjust="spacingAndGlyphs" textLength="18" x="721" y="868.301">
    13
  </text>
  <text font-family="sans-serif" font-size="13" lengthAdjust="spacingAndGlyphs" textLength="275" x="743" y="868.301">
    Return Participant position for a currency id
  </text>
  <path fill="#A80036" stroke="#a80036" d="M115 898.5l-10 4 10 4-4-4z"/>
  <path stroke="#a80036" stroke-dasharray="2,2" d="M109 902.5h584"/>
  <text font-family="sans-serif" font-size="13" font-weight="bold" lengthAdjust="spacingAndGlyphs" textLength="18" x="121" y="897.434">
    14
  </text>
  <text font-family="sans-serif" font-size="13" lengthAdjust="spacingAndGlyphs" textLength="275" x="143" y="897.434">
    Return Participant position for a currency id
  </text>
  <path stroke="#000" stroke-dasharray="2,2" d="M30 911.5h1800"/>
  <text font-family="sans-serif" font-size="11" font-weight="bold" lengthAdjust="spacingAndGlyphs" textLength="210" x="35" y="921.71">
    [currency parameter not passed]
  </text>
  <path fill="#A80036" stroke="#a80036" d="M1371 957.57l10 4-10 4 4-4z"/>
  <path stroke="#a80036" d="M1044 961.57h333"/>
  <text font-family="sans-serif" font-size="13" font-weight="bold" lengthAdjust="spacingAndGlyphs" textLength="18" x="1051" y="948.938">
    15
  </text>
  <text font-family="sans-serif" font-size="13" lengthAdjust="spacingAndGlyphs" textLength="277" x="1073" y="941.372">
    Fetch Participant Positions for all currencies
  </text>
  <text fill="red" font-family="sans-serif" font-size="13" font-weight="bold" lengthAdjust="spacingAndGlyphs" textLength="82" x="1073" y="956.504">
    Error code:
  </text>
  <text fill="red" font-family="sans-serif" font-size="13" lengthAdjust="spacingAndGlyphs" textLength="32" x="1159" y="956.504">
    2003
  </text>
  <path fill="#A80036" stroke="#a80036" d="M1729 986.703l10 4-10 4 4-4z"/>
  <path stroke="#a80036" d="M1393 990.703h342"/>
  <text font-family="sans-serif" font-size="13" font-weight="bold" lengthAdjust="spacingAndGlyphs" textLength="18" x="1400" y="985.637">
    16
  </text>
  <text font-family="sans-serif" font-size="13" lengthAdjust="spacingAndGlyphs" textLength="277" x="1422" y="985.637">
    Fetch Participant Positions for all currencies
  </text>
  <path fill="#FFFFE0" filter="url(#a)" stroke="#a80036" d="M1681 1003.703h129l10 19-10 19h-129l-10-19 10-19z"/>
  <text font-family="sans-serif" font-size="13" lengthAdjust="spacingAndGlyphs" textLength="125" x="1683" y="1019.77">
    participantCurrency
  </text>
  <text font-family="sans-serif" font-size="13" lengthAdjust="spacingAndGlyphs" textLength="118" x="1683" y="1034.903">
    participantPosition
  </text>
  <path fill="#A80036" stroke="#a80036" d="M1404 1064.102l-10 4 10 4-4-4z"/>
  <path stroke="#a80036" stroke-dasharray="2,2" d="M1398 1068.102h347"/>
  <text font-family="sans-serif" font-size="13" font-weight="bold" lengthAdjust="spacingAndGlyphs" textLength="18" x="1410" y="1063.036">
    17
  </text>
  <text font-family="sans-serif" font-size="13" lengthAdjust="spacingAndGlyphs" textLength="302" x="1432" y="1063.036">
    Retrieved Participant Positions for all currencies
  </text>
  <path fill="#A80036" stroke="#a80036" d="M1055 1093.234l-10 4 10 4-4-4z"/>
  <path stroke="#a80036" stroke-dasharray="2,2" d="M1049 1097.234h338"/>
  <text font-family="sans-serif" font-size="13" font-weight="bold" lengthAdjust="spacingAndGlyphs" textLength="18" x="1061" y="1092.168">
    18
  </text>
  <text font-family="sans-serif" font-size="13" lengthAdjust="spacingAndGlyphs" textLength="284" x="1083" y="1092.168">
    Return Participant Positions for all currencies
  </text>
  <path d="M1049 1110.234v236h263v-226l-10-10h-253" fill="#FF0" filter="url(#a)" stroke="#a80036"/>
  <path d="M1302 1110.234v10h10l-10-10" fill="#FF0" stroke="#a80036"/>
  <text font-family="sans-serif" font-size="13" lengthAdjust="spacingAndGlyphs" textLength="61" x="1055" y="1127.301">
    Message:
  </text>
  <text font-family="sans-serif" font-size="13" lengthAdjust="spacingAndGlyphs" textLength="8" x="1055" y="1142.434">
    {
  </text>
  <text font-family="sans-serif" font-size="13" lengthAdjust="spacingAndGlyphs" textLength="5" x="1071" y="1157.567">
    [
  </text>
  <text font-family="sans-serif" font-size="13" lengthAdjust="spacingAndGlyphs" textLength="8" x="1087" y="1172.7">
    {
  </text>
  <text font-family="sans-serif" font-size="13" lengthAdjust="spacingAndGlyphs" textLength="163" x="1103" y="1187.832">
    currency: &lt;currencyId1&gt;,
  </text>
  <text font-family="sans-serif" font-size="13" lengthAdjust="spacingAndGlyphs" textLength="162" x="1103" y="1202.965">
    value: &lt;positionValue1&gt;,
  </text>
  <text font-family="sans-serif" font-size="13" lengthAdjust="spacingAndGlyphs" textLength="194" x="1103" y="1218.098">
    updatedTime: &lt;timeStamp1&gt;
  </text>
  <text font-family="sans-serif" font-size="13" lengthAdjust="spacingAndGlyphs" textLength="12" x="1087" y="1233.231">
    },
  </text>
  <text font-family="sans-serif" font-size="13" lengthAdjust="spacingAndGlyphs" textLength="8" x="1087" y="1248.364">
    {
  </text>
  <text font-family="sans-serif" font-size="13" lengthAdjust="spacingAndGlyphs" textLength="163" x="1103" y="1263.497">
    currency: &lt;currencyId2&gt;,
  </text>
  <text font-family="sans-serif" font-size="13" lengthAdjust="spacingAndGlyphs" textLength="162" x="1103" y="1278.629">
    value: &lt;positionValue2&gt;,
  </text>
  <text font-family="sans-serif" font-size="13" lengthAdjust="spacingAndGlyphs" textLength="194" x="1103" y="1293.762">
    updatedTime: &lt;timeStamp2&gt;
  </text>
  <text font-family="sans-serif" font-size="13" lengthAdjust="spacingAndGlyphs" textLength="8" x="1087" y="1308.895">
    }
  </text>
  <text font-family="sans-serif" font-size="13" lengthAdjust="spacingAndGlyphs" textLength="5" x="1071" y="1324.028">
    ]
  </text>
  <text font-family="sans-serif" font-size="13" lengthAdjust="spacingAndGlyphs" textLength="8" x="1055" y="1339.161">
    }
  </text>
  <path fill="#A80036" stroke="#a80036" d="M715 1373.36l-10 4 10 4-4-4z"/>
  <path stroke="#a80036" stroke-dasharray="2,2" d="M709 1377.359h324"/>
  <text font-family="sans-serif" font-size="13" font-weight="bold" lengthAdjust="spacingAndGlyphs" textLength="18" x="721" y="1372.293">
    19
  </text>
  <text font-family="sans-serif" font-size="13" lengthAdjust="spacingAndGlyphs" textLength="284" x="743" y="1372.293">
    Return Participant Positions for all currencies
  </text>
  <path fill="#A80036" stroke="#a80036" d="M115 1402.492l-10 4 10 4-4-4z"/>
  <path stroke="#a80036" stroke-dasharray="2,2" d="M109 1406.492h584"/>
  <text font-family="sans-serif" font-size="13" font-weight="bold" lengthAdjust="spacingAndGlyphs" textLength="18" x="121" y="1401.426">
    20
  </text>
  <text font-family="sans-serif" font-size="13" lengthAdjust="spacingAndGlyphs" textLength="284" x="143" y="1401.426">
    Return Participant Positions for all currencies
  </text>
  <path stroke="#000" stroke-dasharray="2,2" d="M20 1422.492h1820"/>
  <text font-family="sans-serif" font-size="11" font-weight="bold" lengthAdjust="spacingAndGlyphs" textLength="193" x="25" y="1432.703">
    [Validate participant (failure)]
  </text>
  <path d="M1049 1441.297v25h132v-15l-10-10h-122" fill="red" filter="url(#a)" stroke="#a80036"/>
  <path d="M1171 1441.297v10h10l-10-10" fill="red" stroke="#a80036"/>
  <text font-family="sans-serif" font-size="13" lengthAdjust="spacingAndGlyphs" textLength="111" x="1055" y="1458.364">
    Validation failure!
  </text>
  <path d="M1049 1480.43v115h387v-105l-10-10h-377" fill="#FF0" filter="url(#a)" stroke="#a80036"/>
  <path d="M1426 1480.43v10h10l-10-10" fill="#FF0" stroke="#a80036"/>
  <text font-family="sans-serif" font-size="13" lengthAdjust="spacingAndGlyphs" textLength="61" x="1055" y="1497.497">
    Message:
  </text>
  <text font-family="sans-serif" font-size="13" lengthAdjust="spacingAndGlyphs" textLength="8" x="1055" y="1512.629">
    {
  </text>
  <text font-family="sans-serif" font-size="13" lengthAdjust="spacingAndGlyphs" textLength="130" x="1071" y="1527.762">
    &quot;errorInformation&quot;: {
  </text>
  <text font-family="sans-serif" font-size="13" lengthAdjust="spacingAndGlyphs" textLength="118" x="1071" y="1542.895">
    &quot;errorCode&quot;: 3201,
  </text>
  <text font-family="sans-serif" font-size="13" lengthAdjust="spacingAndGlyphs" textLength="350" x="1071" y="1558.028">
    &quot;errorDescription&quot;: &quot;FSP id does not exist or not found&quot;,
  </text>
  <text font-family="sans-serif" font-size="13" lengthAdjust="spacingAndGlyphs" textLength="8" x="1071" y="1573.161">
    }
  </text>
  <text font-family="sans-serif" font-size="13" lengthAdjust="spacingAndGlyphs" textLength="8" x="1055" y="1588.293">
    }
  </text>
  <path fill="#A80036" stroke="#a80036" d="M715 1622.492l-10 4 10 4-4-4z"/>
  <path stroke="#a80036" stroke-dasharray="2,2" d="M709 1626.492h329"/>
  <text font-family="sans-serif" font-size="13" font-weight="bold" lengthAdjust="spacingAndGlyphs" textLength="18" x="721" y="1621.426">
    21
  </text>
  <text font-family="sans-serif" font-size="13" lengthAdjust="spacingAndGlyphs" textLength="42" x="743" y="1621.426">
    Return
  </text>
  <text fill="red" font-family="sans-serif" font-size="13" font-weight="bold" lengthAdjust="spacingAndGlyphs" textLength="82" x="789" y="1621.426">
    Error code:
  </text>
  <text fill="red" font-family="sans-serif" font-size="13" lengthAdjust="spacingAndGlyphs" textLength="32" x="875" y="1621.426">
    3201
  </text>
  <path fill="#A80036" stroke="#a80036" d="M115 1651.625l-10 4 10 4-4-4z"/>
  <path stroke="#a80036" stroke-dasharray="2,2" d="M109 1655.625h584"/>
  <text font-family="sans-serif" font-size="13" font-weight="bold" lengthAdjust="spacingAndGlyphs" textLength="18" x="121" y="1650.559">
    22
  </text>
  <text font-family="sans-serif" font-size="13" lengthAdjust="spacingAndGlyphs" textLength="42" x="143" y="1650.559">
    Return
  </text>
  <text fill="red" font-family="sans-serif" font-size="13" font-weight="bold" lengthAdjust="spacingAndGlyphs" textLength="82" x="189" y="1650.559">
    Error code:
  </text>
  <text fill="red" font-family="sans-serif" font-size="13" lengthAdjust="spacingAndGlyphs" textLength="32" x="275" y="1650.559">
    3201
  </text>
</svg>
