<svg xmlns="http://www.w3.org/2000/svg" height="2718" preserveAspectRatio="none" style="width:1173px;height:2718px" width="1173">
  <defs>
    <filter height="300%" id="a" width="300%" x="-1" y="-1">
      <feGaussianBlur result="blurOut" stdDeviation="2"/>
      <feColorMatrix in="blurOut" result="blurOut2" values="0 0 0 0 0 0 0 0 0 0 0 0 0 0 0 0 0 0 .4 0"/>
      <feOffset dx="4" dy="4" in="blurOut2" result="blurOut3"/>
      <feBlend in="SourceGraphic" in2="blurOut3"/>
    </filter>
  </defs>
  <text font-family="sans-serif" font-size="18" lengthAdjust="spacingAndGlyphs" textLength="207" x="481" y="28.708">
    2.3.2. Timeout Handler
  </text>
  <path fill="#FFFFE0" stroke="#a80036" d="M16 40.953h1096v2671.602H16z"/>
  <text font-family="sans-serif" font-size="13" font-weight="bold" lengthAdjust="spacingAndGlyphs" textLength="111" x="508.5" y="53.02">
    Central Service
  </text>
  <path fill="#FFF" filter="url(#a)" stroke="#a80036" d="M81.5 177.648h10v30h-10zM248.5 132.383h10v2497.875h-10zM494.5 2347.328h10v30h-10zM620.5 1448.148h10v30h-10zM838 396.711h10v181.063h-10zM838 653.172h10V774.57h-10zM838 1537.219h10v121.398h-10zM838 2493.859h10v121.398h-10zM1055 425.844h10v122.797h-10zM1055 682.305h10v30h-10zM1055 1566.352h10v30h-10zM1055 2522.992h10v30h-10z"/>
  <path fill="#FFF" filter="url(#a)" stroke="#000" stroke-width="2" d="M10 139.383h1149v2490.875H10z"/>
  <path fill="#FFF" filter="url(#a)" stroke="#000" stroke-width="2" d="M153 222.648h641v106.664H153zM153 343.313h996v242.461H153zM153 599.773h996v1826.688H153z"/>
  <path fill="#FFF" d="M153 1486.148h996v899.18H153zM153 2385.328h996v41.133H153z"/>
  <path fill="#FFF" filter="url(#a)" stroke="#000" stroke-width="2" d="M153 2440.461h980v182.797H153z"/>
  <path stroke="#a80036" stroke-dasharray="5,5" d="M86 122.383v2524.875M253 122.383v2524.875M499 122.383v2524.875M625 122.383v2524.875M734 122.383v2524.875M843 122.383v2524.875M1060 122.383v2524.875"/>
  <path fill="#FEFECE" filter="url(#a)" stroke="#a80036" stroke-width="1.5" d="M24 66.789h125v46.594H24z"/>
  <path fill="#FEFECE" filter="url(#a)" stroke="#a80036" stroke-width="1.5" d="M20 70.789h125v46.594H20z"/>
  <text font-family="sans-serif" font-size="14" lengthAdjust="spacingAndGlyphs" textLength="39" x="63" y="90.784">
    topic-
  </text>
  <text font-family="sans-serif" font-size="14" lengthAdjust="spacingAndGlyphs" textLength="111" x="27" y="107.081">
    transfer-timeout
  </text>
  <path fill="#FEFECE" filter="url(#a)" stroke="#a80036" stroke-width="1.5" d="M24 2646.258h125v46.594H24z"/>
  <path fill="#FEFECE" filter="url(#a)" stroke="#a80036" stroke-width="1.5" d="M20 2650.258h125v46.594H20z"/>
  <text font-family="sans-serif" font-size="14" lengthAdjust="spacingAndGlyphs" textLength="39" x="63" y="2670.253">
    topic-
  </text>
  <text font-family="sans-serif" font-size="14" lengthAdjust="spacingAndGlyphs" textLength="111" x="27" y="2686.55">
    transfer-timeout
  </text>
  <text font-family="sans-serif" font-size="14" lengthAdjust="spacingAndGlyphs" textLength="175" x="163" y="119.081">
    Transfer Timeout Handler
  </text>
  <circle cx="253.5" cy="90.086" fill="#FEFECE" filter="url(#a)" stroke="#a80036" stroke-width="2" r="12"/>
  <path fill="#A80036" stroke="#a80036" d="M249.5 78.086l6-5-2 5 2 5-6-5z"/>
  <text font-family="sans-serif" font-size="14" lengthAdjust="spacingAndGlyphs" textLength="175" x="163" y="2659.253">
    Transfer Timeout Handler
  </text>
  <circle cx="253.5" cy="2678.555" fill="#FEFECE" filter="url(#a)" stroke="#a80036" stroke-width="2" r="12"/>
  <path fill="#A80036" stroke="#a80036" d="M249.5 2666.555l6-5-2 5 2 5-6-5z"/>
  <path fill="#FEFECE" filter="url(#a)" stroke="#a80036" stroke-width="1.5" d="M436 66.789h127v46.594H436z"/>
  <path fill="#FEFECE" filter="url(#a)" stroke="#a80036" stroke-width="1.5" d="M432 70.789h127v46.594H432z"/>
  <text font-family="sans-serif" font-size="14" lengthAdjust="spacingAndGlyphs" textLength="39" x="476" y="90.784">
    topic-
  </text>
  <text font-family="sans-serif" font-size="14" lengthAdjust="spacingAndGlyphs" textLength="113" x="439" y="107.081">
    transfer-position
  </text>
  <path fill="#FEFECE" filter="url(#a)" stroke="#a80036" stroke-width="1.5" d="M436 2646.258h127v46.594H436z"/>
  <path fill="#FEFECE" filter="url(#a)" stroke="#a80036" stroke-width="1.5" d="M432 2650.258h127v46.594H432z"/>
  <text font-family="sans-serif" font-size="14" lengthAdjust="spacingAndGlyphs" textLength="39" x="476" y="2670.253">
    topic-
  </text>
  <text font-family="sans-serif" font-size="14" lengthAdjust="spacingAndGlyphs" textLength="113" x="439" y="2686.55">
    transfer-position
  </text>
  <path fill="#FEFECE" filter="url(#a)" stroke="#a80036" stroke-width="1.5" d="M581 66.789h89v46.594h-89z"/>
  <path fill="#FEFECE" filter="url(#a)" stroke="#a80036" stroke-width="1.5" d="M577 70.789h89v46.594h-89z"/>
  <text font-family="sans-serif" font-size="14" lengthAdjust="spacingAndGlyphs" textLength="39" x="602" y="90.784">
    topic-
  </text>
  <text font-family="sans-serif" font-size="14" lengthAdjust="spacingAndGlyphs" textLength="75" x="584" y="107.081">
    notification
  </text>
  <path fill="#FEFECE" filter="url(#a)" stroke="#a80036" stroke-width="1.5" d="M581 2646.258h89v46.594h-89z"/>
  <path fill="#FEFECE" filter="url(#a)" stroke="#a80036" stroke-width="1.5" d="M577 2650.258h89v46.594h-89z"/>
  <text font-family="sans-serif" font-size="14" lengthAdjust="spacingAndGlyphs" textLength="39" x="602" y="2670.253">
    topic-
  </text>
  <text font-family="sans-serif" font-size="14" lengthAdjust="spacingAndGlyphs" textLength="75" x="584" y="2686.55">
    notification
  </text>
  <path fill="#FEFECE" filter="url(#a)" stroke="#a80036" stroke-width="1.5" d="M688 83.086h92v30.297h-92z"/>
  <path fill="#FEFECE" filter="url(#a)" stroke="#a80036" stroke-width="1.5" d="M684 87.086h92v30.297h-92z"/>
  <text font-family="sans-serif" font-size="14" lengthAdjust="spacingAndGlyphs" textLength="78" x="691" y="107.081">
    topic-event
  </text>
  <path fill="#FEFECE" filter="url(#a)" stroke="#a80036" stroke-width="1.5" d="M688 2646.258h92v30.297h-92z"/>
  <path fill="#FEFECE" filter="url(#a)" stroke="#a80036" stroke-width="1.5" d="M684 2650.258h92v30.297h-92z"/>
  <text font-family="sans-serif" font-size="14" lengthAdjust="spacingAndGlyphs" textLength="78" x="691" y="2670.253">
    topic-event
  </text>
  <text font-family="sans-serif" font-size="14" lengthAdjust="spacingAndGlyphs" textLength="92" x="794" y="119.081">
    Timeout DAO
  </text>
  <circle cx="843" cy="90.086" fill="#FEFECE" filter="url(#a)" stroke="#a80036" stroke-width="2" r="12"/>
  <path stroke="#a80036" stroke-width="2" d="M831 104.086h24"/>
  <text font-family="sans-serif" font-size="14" lengthAdjust="spacingAndGlyphs" textLength="92" x="794" y="2659.253">
    Timeout DAO
  </text>
  <circle cx="843" cy="2678.555" fill="#FEFECE" filter="url(#a)" stroke="#a80036" stroke-width="2" r="12"/>
  <path stroke="#a80036" stroke-width="2" d="M831 2692.555h24"/>
  <text font-family="sans-serif" font-size="14" lengthAdjust="spacingAndGlyphs" textLength="90" x="1012" y="119.081">
    Central Store
  </text>
  <path d="M1042 70.086c0-10 18-10 18-10s18 0 18 10v26c0 10-18 10-18 10s-18 0-18-10v-26" fill="#FEFECE" filter="url(#a)" stroke="#000" stroke-width="1.5"/>
  <path d="M1042 70.086c0 10 18 10 18 10s18 0 18-10" fill="none" stroke="#000" stroke-width="1.5"/>
  <text font-family="sans-serif" font-size="14" lengthAdjust="spacingAndGlyphs" textLength="90" x="1012" y="2659.253">
    Central Store
  </text>
  <path d="M1042 2672.555c0-10 18-10 18-10s18 0 18 10v26c0 10-18 10-18 10s-18 0-18-10v-26" fill="#FEFECE" filter="url(#a)" stroke="#000" stroke-width="1.5"/>
  <path d="M1042 2672.555c0 10 18 10 18 10s18 0 18-10" fill="none" stroke="#000" stroke-width="1.5"/>
  <path fill="#FFF" filter="url(#a)" stroke="#a80036" d="M81.5 177.648h10v30h-10zM248.5 132.383h10v2497.875h-10zM494.5 2347.328h10v30h-10zM620.5 1448.148h10v30h-10zM838 396.711h10v181.063h-10zM838 653.172h10V774.57h-10zM838 1537.219h10v121.398h-10zM838 2493.859h10v121.398h-10zM1055 425.844h10v122.797h-10zM1055 682.305h10v30h-10zM1055 1566.352h10v30h-10zM1055 2522.992h10v30h-10z"/>
  <path d="M10 139.383h240v7l-10 10H10v-17" fill="#EEE" stroke="#000"/>
  <path fill="none" stroke="#000" stroke-width="2" d="M10 139.383h1149v2490.875H10z"/>
  <text font-family="sans-serif" font-size="13" font-weight="bold" lengthAdjust="spacingAndGlyphs" textLength="195" x="25" y="152.45">
    Timeout Handler Consume
  </text>
  <path fill="#A80036" stroke="#a80036" d="M102.5 173.648l-10 4 10 4-4-4z"/>
  <path stroke="#a80036" d="M96.5 177.648h151"/>
  <text font-family="sans-serif" font-size="13" font-weight="bold" lengthAdjust="spacingAndGlyphs" textLength="9" x="108.5" y="172.583">
    1
  </text>
  <text font-family="sans-serif" font-size="13" lengthAdjust="spacingAndGlyphs" textLength="124" x="121.5" y="172.583">
    Consume message
  </text>
  <path d="M153 222.648h232v7l-10 10H153v-17" fill="#EEE" stroke="#000"/>
  <path fill="none" stroke="#000" stroke-width="2" d="M153 222.648h641v106.664H153z"/>
  <text font-family="sans-serif" font-size="13" font-weight="bold" lengthAdjust="spacingAndGlyphs" textLength="187" x="168" y="235.715">
    Persist Event Information
  </text>
  <path fill="#A80036" stroke="#a80036" d="M722 256.914l10 4-10 4 4-4z"/>
  <path stroke="#a80036" d="M258.5 260.914H728"/>
  <text font-family="sans-serif" font-size="13" font-weight="bold" lengthAdjust="spacingAndGlyphs" textLength="9" x="265.5" y="255.848">
    2
  </text>
  <text font-family="sans-serif" font-size="13" lengthAdjust="spacingAndGlyphs" textLength="162" x="278.5" y="255.848">
    Publish event information
  </text>
  <path fill="#FFF" filter="url(#a)" stroke="#000" stroke-width="2" d="M160 268.914h623v55.398H160z"/>
  <path fill="#EEE" stroke="#000" stroke-width="2" d="M160 268.914h66v7l-10 10h-56v-17z"/>
  <text font-family="sans-serif" font-size="13" font-weight="bold" lengthAdjust="spacingAndGlyphs" textLength="21" x="173" y="282.981">
    ref
  </text>
  <text font-family="sans-serif" font-size="13" lengthAdjust="spacingAndGlyphs" textLength="155" x="396" y="301.981">
    Event Handler Consume
  </text>
  <path d="M153 343.313h168v7l-10 10H153v-17" fill="#EEE" stroke="#000"/>
  <path fill="none" stroke="#000" stroke-width="2" d="M153 343.313h996v242.461H153z"/>
  <text font-family="sans-serif" font-size="13" font-weight="bold" lengthAdjust="spacingAndGlyphs" textLength="123" x="168" y="356.379">
    Get transfer info
  </text>
  <path fill="#A80036" stroke="#a80036" d="M826 392.71l10 4-10 4 4-4z"/>
  <path stroke="#a80036" d="M258.5 396.711H832"/>
  <text font-family="sans-serif" font-size="13" font-weight="bold" lengthAdjust="spacingAndGlyphs" textLength="9" x="265.5" y="384.079">
    3
  </text>
  <text font-family="sans-serif" font-size="13" lengthAdjust="spacingAndGlyphs" textLength="179" x="278.5" y="376.512">
    Acquire transfer information
  </text>
  <text fill="red" font-family="sans-serif" font-size="13" font-weight="bold" lengthAdjust="spacingAndGlyphs" textLength="82" x="278.5" y="391.645">
    Error code:
  </text>
  <text fill="red" font-family="sans-serif" font-size="13" lengthAdjust="spacingAndGlyphs" textLength="32" x="364.5" y="391.645">
    2003
  </text>
  <path fill="#A80036" stroke="#a80036" d="M1043 421.844l10 4-10 4 4-4z"/>
  <path stroke="#a80036" d="M848 425.844h201"/>
  <text font-family="sans-serif" font-size="13" font-weight="bold" lengthAdjust="spacingAndGlyphs" textLength="9" x="855" y="420.778">
    4
  </text>
  <text font-family="sans-serif" font-size="13" lengthAdjust="spacingAndGlyphs" textLength="175" x="868" y="420.778">
    Get transfer data and state
  </text>
  <path fill="#FFFFE0" filter="url(#a)" stroke="#a80036" d="M991 438.844h138l10 41-10 42H991l-10-42 10-41z"/>
  <text font-family="sans-serif" font-size="13" lengthAdjust="spacingAndGlyphs" textLength="50" x="993" y="454.911">
    transfer
  </text>
  <text font-family="sans-serif" font-size="13" lengthAdjust="spacingAndGlyphs" textLength="118" x="993" y="470.043">
    transferParticipant
  </text>
  <text font-family="sans-serif" font-size="13" lengthAdjust="spacingAndGlyphs" textLength="125" x="993" y="485.176">
    participantCurrency
  </text>
  <text font-family="sans-serif" font-size="13" lengthAdjust="spacingAndGlyphs" textLength="68" x="993" y="500.309">
    participant
  </text>
  <text font-family="sans-serif" font-size="13" lengthAdjust="spacingAndGlyphs" textLength="134" x="993" y="515.442">
    transferStateChange
  </text>
  <path fill="#A80036" stroke="#a80036" d="M859 544.64l-10 4 10 4-4-4z"/>
  <path stroke="#a80036" stroke-dasharray="2,2" d="M853 548.641h206"/>
  <text font-family="sans-serif" font-size="13" font-weight="bold" lengthAdjust="spacingAndGlyphs" textLength="9" x="865" y="543.575">
    5
  </text>
  <text font-family="sans-serif" font-size="13" lengthAdjust="spacingAndGlyphs" textLength="42" x="878" y="543.575">
    Return
  </text>
  <text font-family="sans-serif" font-size="13" font-weight="bold" lengthAdjust="spacingAndGlyphs" textLength="87" x="924" y="543.575">
    transferInfo
  </text>
  <path fill="#A80036" stroke="#a80036" d="M269.5 573.773l-10 4 10 4-4-4z"/>
  <path stroke="#a80036" stroke-dasharray="2,2" d="M263.5 577.773H842"/>
  <text font-family="sans-serif" font-size="13" font-weight="bold" lengthAdjust="spacingAndGlyphs" textLength="9" x="275.5" y="572.707">
    6
  </text>
  <text font-family="sans-serif" font-size="13" lengthAdjust="spacingAndGlyphs" textLength="42" x="288.5" y="572.707">
    Return
  </text>
  <text font-family="sans-serif" font-size="13" font-weight="bold" lengthAdjust="spacingAndGlyphs" textLength="87" x="334.5" y="572.707">
    transferInfo
  </text>
  <path d="M153 599.773h64v7l-10 10h-54v-17" fill="#EEE" stroke="#000"/>
  <path fill="none" stroke="#000" stroke-width="2" d="M153 599.773h996v1826.688H153z"/>
  <text font-family="sans-serif" font-size="13" font-weight="bold" lengthAdjust="spacingAndGlyphs" textLength="19" x="168" y="612.84">
    alt
  </text>
  <text font-family="sans-serif" font-size="11" font-weight="bold" lengthAdjust="spacingAndGlyphs" textLength="343" x="232" y="611.984">
    [transferInfo.transferStateId == &apos;RECEIVED_PREPARE&apos;]
  </text>
  <path fill="#A80036" stroke="#a80036" d="M826 649.172l10 4-10 4 4-4z"/>
  <path stroke="#a80036" d="M258.5 653.172H832"/>
  <text font-family="sans-serif" font-size="13" font-weight="bold" lengthAdjust="spacingAndGlyphs" textLength="9" x="265.5" y="640.54">
    7
  </text>
  <text font-family="sans-serif" font-size="13" lengthAdjust="spacingAndGlyphs" textLength="190" x="278.5" y="632.973">
    Set EXPIRED_PREPARED state
  </text>
  <text fill="red" font-family="sans-serif" font-size="13" font-weight="bold" lengthAdjust="spacingAndGlyphs" textLength="82" x="278.5" y="648.106">
    Error code:
  </text>
  <text fill="red" font-family="sans-serif" font-size="13" lengthAdjust="spacingAndGlyphs" textLength="32" x="364.5" y="648.106">
    2003
  </text>
  <path fill="#A80036" stroke="#a80036" d="M1043 678.305l10 4-10 4 4-4z"/>
  <path stroke="#a80036" d="M848 682.305h201"/>
  <text font-family="sans-serif" font-size="13" font-weight="bold" lengthAdjust="spacingAndGlyphs" textLength="9" x="855" y="677.239">
    8
  </text>
  <text font-family="sans-serif" font-size="13" lengthAdjust="spacingAndGlyphs" textLength="124" x="868" y="677.239">
    Insert state change
  </text>
  <path fill="#FFFFE0" filter="url(#a)" stroke="#a80036" d="M991 725.305h138l10 11-10 12H991l-10-12 10-11z"/>
  <text font-family="sans-serif" font-size="13" lengthAdjust="spacingAndGlyphs" textLength="134" x="993" y="741.372">
    transferStateChange
  </text>
  <path fill="#A80036" stroke="#a80036" d="M269.5 770.57l-10 4 10 4-4-4z"/>
  <path stroke="#a80036" stroke-dasharray="2,2" d="M263.5 774.57H842"/>
  <text font-family="sans-serif" font-size="13" font-weight="bold" lengthAdjust="spacingAndGlyphs" textLength="9" x="275.5" y="769.504">
    9
  </text>
  <text font-family="sans-serif" font-size="13" lengthAdjust="spacingAndGlyphs" textLength="97" x="288.5" y="769.504">
    Return success
  </text>
  <path d="M263 787.57v630h420v-620l-10-10H263" fill="#FF0" filter="url(#a)" stroke="#a80036"/>
  <path d="M673 787.57v10h10l-10-10" fill="#FF0" stroke="#a80036"/>
  <text font-family="sans-serif" font-size="13" lengthAdjust="spacingAndGlyphs" textLength="61" x="269" y="804.637">
    Message:
  </text>
  <text font-family="sans-serif" font-size="13" lengthAdjust="spacingAndGlyphs" textLength="8" x="269" y="819.77">
    {
  </text>
  <text font-family="sans-serif" font-size="13" lengthAdjust="spacingAndGlyphs" textLength="106" x="285" y="834.903">
    id: &lt;transferId&gt;,
  </text>
  <text font-family="sans-serif" font-size="13" lengthAdjust="spacingAndGlyphs" textLength="179" x="285" y="850.036">
    from: &lt;payerParticipantId&gt;,
  </text>
  <text font-family="sans-serif" font-size="13" lengthAdjust="spacingAndGlyphs" textLength="165" x="285" y="865.168">
    to: &lt;payeeParticipantId&gt;,
  </text>
  <text font-family="sans-serif" font-size="13" lengthAdjust="spacingAndGlyphs" textLength="139" x="285" y="880.301">
    type: application/json,
  </text>
  <text font-family="sans-serif" font-size="13" lengthAdjust="spacingAndGlyphs" textLength="65" x="285" y="895.434">
    content: {
  </text>
  <text fill="red" font-family="sans-serif" font-size="13" lengthAdjust="spacingAndGlyphs" textLength="56" x="301" y="910.567">
    headers:
  </text>
  <text font-family="sans-serif" font-size="13" lengthAdjust="spacingAndGlyphs" textLength="8" x="361" y="910.567">
    {
  </text>
  <text font-family="sans-serif" font-size="13" lengthAdjust="spacingAndGlyphs" textLength="234" x="317" y="925.7">
    Content-Length: &lt;Content-Length&gt;,
  </text>
  <text font-family="sans-serif" font-size="13" lengthAdjust="spacingAndGlyphs" textLength="206" x="317" y="940.832">
    Content-Type: &lt;Content-Type&gt;,
  </text>
  <text font-family="sans-serif" font-size="13" lengthAdjust="spacingAndGlyphs" textLength="96" x="317" y="955.965">
    Date: &lt;Date&gt;,
  </text>
  <text font-family="sans-serif" font-size="13" lengthAdjust="spacingAndGlyphs" textLength="242" x="317" y="971.098">
    X-Forwarded-For: &lt;X-Forwarded-For&gt;,
  </text>
  <text font-family="sans-serif" font-size="13" lengthAdjust="spacingAndGlyphs" textLength="224" x="317" y="986.231">
    FSPIOP-Source: &lt;FSPIOP-Source&gt;,
  </text>
  <text font-family="sans-serif" font-size="13" lengthAdjust="spacingAndGlyphs" textLength="280" x="317" y="1001.364">
    FSPIOP-Destination: &lt;FSPIOP-Destination&gt;,
  </text>
  <text font-family="sans-serif" font-size="13" lengthAdjust="spacingAndGlyphs" textLength="268" x="317" y="1016.497">
    FSPIOP-Encryption: &lt;FSPIOP-Encryption&gt;,
  </text>
  <text font-family="sans-serif" font-size="13" lengthAdjust="spacingAndGlyphs" textLength="258" x="317" y="1031.629">
    FSPIOP-Signature: &lt;FSPIOP-Signature&gt;,
  </text>
  <text font-family="sans-serif" font-size="13" lengthAdjust="spacingAndGlyphs" textLength="176" x="317" y="1046.762">
    FSPIOP-URI: &lt;FSPIOP-URI&gt;,
  </text>
  <text font-family="sans-serif" font-size="13" lengthAdjust="spacingAndGlyphs" textLength="300" x="317" y="1061.895">
    FSPIOP-HTTP-Method: &lt;FSPIOP-HTTP-Method&gt;
  </text>
  <text font-family="sans-serif" font-size="13" lengthAdjust="spacingAndGlyphs" textLength="12" x="301" y="1077.028">
    },
  </text>
  <text font-family="sans-serif" font-size="13" lengthAdjust="spacingAndGlyphs" textLength="66" x="301" y="1092.161">
    payload: {
  </text>
  <text font-family="sans-serif" font-size="13" lengthAdjust="spacingAndGlyphs" textLength="130" x="333" y="1107.293">
    &quot;errorInformation&quot;: {
  </text>
  <text font-family="sans-serif" font-size="13" lengthAdjust="spacingAndGlyphs" textLength="118" x="349" y="1122.426">
    &quot;errorCode&quot;: 3303,
  </text>
  <text font-family="sans-serif" font-size="13" lengthAdjust="spacingAndGlyphs" textLength="238" x="349" y="1137.559">
    &quot;errorDescription&quot;: &quot;Transfer expired&quot;,
  </text>
  <text font-family="sans-serif" font-size="13" lengthAdjust="spacingAndGlyphs" textLength="319" x="349" y="1152.692">
    &quot;extensionList&quot;: &lt;transferMessage.extensionList&gt;
  </text>
  <text font-family="sans-serif" font-size="13" lengthAdjust="spacingAndGlyphs" textLength="8" x="333" y="1167.825">
    }
  </text>
  <text font-family="sans-serif" font-size="13" lengthAdjust="spacingAndGlyphs" textLength="8" x="301" y="1182.957">
    }
  </text>
  <text font-family="sans-serif" font-size="13" lengthAdjust="spacingAndGlyphs" textLength="12" x="285" y="1198.09">
    },
  </text>
  <text font-family="sans-serif" font-size="13" lengthAdjust="spacingAndGlyphs" textLength="79" x="285" y="1213.223">
    metadata: {
  </text>
  <text font-family="sans-serif" font-size="13" lengthAdjust="spacingAndGlyphs" textLength="52" x="301" y="1228.356">
    event: {
  </text>
  <text font-family="sans-serif" font-size="13" lengthAdjust="spacingAndGlyphs" textLength="72" x="317" y="1243.489">
    id: &lt;uuid&gt;,
  </text>
  <text font-family="sans-serif" font-size="13" lengthAdjust="spacingAndGlyphs" textLength="110" x="317" y="1258.622">
    type: notification,
  </text>
  <text font-family="sans-serif" font-size="13" lengthAdjust="spacingAndGlyphs" textLength="160" x="317" y="1273.754">
    action: timeout-received,
  </text>
  <text font-family="sans-serif" font-size="13" lengthAdjust="spacingAndGlyphs" textLength="167" x="317" y="1288.887">
    createdAt: &lt;timestamp&gt;,
  </text>
  <text font-family="sans-serif" font-size="13" lengthAdjust="spacingAndGlyphs" textLength="49" x="317" y="1304.02">
    state: {
  </text>
  <text font-family="sans-serif" font-size="13" lengthAdjust="spacingAndGlyphs" textLength="89" x="333" y="1319.153">
    status: &apos;error&apos;,
  </text>
  <text font-family="sans-serif" font-size="13" lengthAdjust="spacingAndGlyphs" textLength="233" x="333" y="1334.286">
    code: &lt;errorInformation.errorCode&gt;
  </text>
  <text font-family="sans-serif" font-size="13" lengthAdjust="spacingAndGlyphs" textLength="311" x="333" y="1349.418">
    description: &lt;errorInformation.errorDescription&gt;
  </text>
  <text font-family="sans-serif" font-size="13" lengthAdjust="spacingAndGlyphs" textLength="8" x="317" y="1364.551">
    }
  </text>
  <text font-family="sans-serif" font-size="13" lengthAdjust="spacingAndGlyphs" textLength="8" x="301" y="1379.684">
    }
  </text>
  <text font-family="sans-serif" font-size="13" lengthAdjust="spacingAndGlyphs" textLength="8" x="285" y="1394.817">
    }
  </text>
  <text font-family="sans-serif" font-size="13" lengthAdjust="spacingAndGlyphs" textLength="8" x="269" y="1409.95">
    }
  </text>
  <path fill="#A80036" stroke="#a80036" d="M608.5 1444.148l10 4-10 4 4-4z"/>
  <path stroke="#a80036" d="M258.5 1448.148h356"/>
  <text font-family="sans-serif" font-size="13" font-weight="bold" lengthAdjust="spacingAndGlyphs" textLength="18" x="265.5" y="1443.082">
    10
  </text>
  <text font-family="sans-serif" font-size="13" lengthAdjust="spacingAndGlyphs" textLength="161" x="287.5" y="1443.082">
    Publish Notification event
  </text>
  <path stroke="#000" stroke-dasharray="2,2" d="M153 1487.148h996"/>
  <text font-family="sans-serif" font-size="11" font-weight="bold" lengthAdjust="spacingAndGlyphs" textLength="284" x="158" y="1497.359">
    [transferInfo.transferStateId == &apos;RESERVED&apos;]
  </text>
  <path fill="#A80036" stroke="#a80036" d="M826 1533.219l10 4-10 4 4-4z"/>
  <path stroke="#a80036" d="M258.5 1537.219H832"/>
  <text font-family="sans-serif" font-size="13" font-weight="bold" lengthAdjust="spacingAndGlyphs" textLength="18" x="265.5" y="1524.586">
    11
  </text>
  <text font-family="sans-serif" font-size="13" lengthAdjust="spacingAndGlyphs" textLength="194" x="287.5" y="1517.02">
    Set RESERVED_TIMEOUT state
  </text>
  <text fill="red" font-family="sans-serif" font-size="13" font-weight="bold" lengthAdjust="spacingAndGlyphs" textLength="82" x="287.5" y="1532.153">
    Error code:
  </text>
  <text fill="red" font-family="sans-serif" font-size="13" lengthAdjust="spacingAndGlyphs" textLength="32" x="373.5" y="1532.153">
    2003
  </text>
  <path fill="#A80036" stroke="#a80036" d="M1043 1562.352l10 4-10 4 4-4z"/>
  <path stroke="#a80036" d="M848 1566.352h201"/>
  <text font-family="sans-serif" font-size="13" font-weight="bold" lengthAdjust="spacingAndGlyphs" textLength="18" x="855" y="1561.286">
    12
  </text>
  <text font-family="sans-serif" font-size="13" lengthAdjust="spacingAndGlyphs" textLength="124" x="877" y="1561.286">
    Insert state change
  </text>
  <path fill="#FFFFE0" filter="url(#a)" stroke="#a80036" d="M991 1609.352h138l10 11-10 12H991l-10-12 10-11z"/>
  <text font-family="sans-serif" font-size="13" lengthAdjust="spacingAndGlyphs" textLength="134" x="993" y="1625.418">
    transferStateChange
  </text>
  <path fill="#A80036" stroke="#a80036" d="M269.5 1654.617l-10 4 10 4-4-4z"/>
  <path stroke="#a80036" stroke-dasharray="2,2" d="M263.5 1658.617H842"/>
  <text font-family="sans-serif" font-size="13" font-weight="bold" lengthAdjust="spacingAndGlyphs" textLength="18" x="275.5" y="1653.551">
    13
  </text>
  <text font-family="sans-serif" font-size="13" lengthAdjust="spacingAndGlyphs" textLength="97" x="297.5" y="1653.551">
    Return success
  </text>
  <path d="M263 1671.617v630h404v-620l-10-10H263" fill="#FF0" filter="url(#a)" stroke="#a80036"/>
  <path d="M657 1671.617v10h10l-10-10" fill="#FF0" stroke="#a80036"/>
  <text font-family="sans-serif" font-size="13" lengthAdjust="spacingAndGlyphs" textLength="61" x="269" y="1688.684">
    Message:
  </text>
  <text font-family="sans-serif" font-size="13" lengthAdjust="spacingAndGlyphs" textLength="8" x="269" y="1703.817">
    {
  </text>
  <text font-family="sans-serif" font-size="13" lengthAdjust="spacingAndGlyphs" textLength="106" x="285" y="1718.95">
    id: &lt;transferId&gt;,
  </text>
  <text font-family="sans-serif" font-size="13" lengthAdjust="spacingAndGlyphs" textLength="179" x="285" y="1734.082">
    from: &lt;payerParticipantId&gt;,
  </text>
  <text font-family="sans-serif" font-size="13" lengthAdjust="spacingAndGlyphs" textLength="165" x="285" y="1749.215">
    to: &lt;payeeParticipantId&gt;,
  </text>
  <text font-family="sans-serif" font-size="13" lengthAdjust="spacingAndGlyphs" textLength="139" x="285" y="1764.348">
    type: application/json,
  </text>
  <text font-family="sans-serif" font-size="13" lengthAdjust="spacingAndGlyphs" textLength="65" x="285" y="1779.481">
    content: {
  </text>
  <text fill="red" font-family="sans-serif" font-size="13" lengthAdjust="spacingAndGlyphs" textLength="56" x="301" y="1794.614">
    headers:
  </text>
  <text font-family="sans-serif" font-size="13" lengthAdjust="spacingAndGlyphs" textLength="8" x="361" y="1794.614">
    {
  </text>
  <text font-family="sans-serif" font-size="13" lengthAdjust="spacingAndGlyphs" textLength="234" x="317" y="1809.747">
    Content-Length: &lt;Content-Length&gt;,
  </text>
  <text font-family="sans-serif" font-size="13" lengthAdjust="spacingAndGlyphs" textLength="206" x="317" y="1824.879">
    Content-Type: &lt;Content-Type&gt;,
  </text>
  <text font-family="sans-serif" font-size="13" lengthAdjust="spacingAndGlyphs" textLength="96" x="317" y="1840.012">
    Date: &lt;Date&gt;,
  </text>
  <text font-family="sans-serif" font-size="13" lengthAdjust="spacingAndGlyphs" textLength="242" x="317" y="1855.145">
    X-Forwarded-For: &lt;X-Forwarded-For&gt;,
  </text>
  <text font-family="sans-serif" font-size="13" lengthAdjust="spacingAndGlyphs" textLength="224" x="317" y="1870.278">
    FSPIOP-Source: &lt;FSPIOP-Source&gt;,
  </text>
  <text font-family="sans-serif" font-size="13" lengthAdjust="spacingAndGlyphs" textLength="280" x="317" y="1885.411">
    FSPIOP-Destination: &lt;FSPIOP-Destination&gt;,
  </text>
  <text font-family="sans-serif" font-size="13" lengthAdjust="spacingAndGlyphs" textLength="268" x="317" y="1900.543">
    FSPIOP-Encryption: &lt;FSPIOP-Encryption&gt;,
  </text>
  <text font-family="sans-serif" font-size="13" lengthAdjust="spacingAndGlyphs" textLength="258" x="317" y="1915.676">
    FSPIOP-Signature: &lt;FSPIOP-Signature&gt;,
  </text>
  <text font-family="sans-serif" font-size="13" lengthAdjust="spacingAndGlyphs" textLength="176" x="317" y="1930.809">
    FSPIOP-URI: &lt;FSPIOP-URI&gt;,
  </text>
  <text font-family="sans-serif" font-size="13" lengthAdjust="spacingAndGlyphs" textLength="300" x="317" y="1945.942">
    FSPIOP-HTTP-Method: &lt;FSPIOP-HTTP-Method&gt;
  </text>
  <text font-family="sans-serif" font-size="13" lengthAdjust="spacingAndGlyphs" textLength="12" x="301" y="1961.075">
    },
  </text>
  <text font-family="sans-serif" font-size="13" lengthAdjust="spacingAndGlyphs" textLength="66" x="301" y="1976.207">
    payload: {
  </text>
  <text font-family="sans-serif" font-size="13" lengthAdjust="spacingAndGlyphs" textLength="130" x="317" y="1991.34">
    &quot;errorInformation&quot;: {
  </text>
  <text font-family="sans-serif" font-size="13" lengthAdjust="spacingAndGlyphs" textLength="118" x="333" y="2006.473">
    &quot;errorCode&quot;: 3303,
  </text>
  <text font-family="sans-serif" font-size="13" lengthAdjust="spacingAndGlyphs" textLength="238" x="333" y="2021.606">
    &quot;errorDescription&quot;: &quot;Transfer expired&quot;,
  </text>
  <text font-family="sans-serif" font-size="13" lengthAdjust="spacingAndGlyphs" textLength="319" x="333" y="2036.739">
    &quot;extensionList&quot;: &lt;transferMessage.extensionList&gt;
  </text>
  <text font-family="sans-serif" font-size="13" lengthAdjust="spacingAndGlyphs" textLength="8" x="317" y="2051.872">
    }
  </text>
  <text font-family="sans-serif" font-size="13" lengthAdjust="spacingAndGlyphs" textLength="8" x="301" y="2067.004">
    }
  </text>
  <text font-family="sans-serif" font-size="13" lengthAdjust="spacingAndGlyphs" textLength="12" x="285" y="2082.137">
    },
  </text>
  <text font-family="sans-serif" font-size="13" lengthAdjust="spacingAndGlyphs" textLength="79" x="285" y="2097.27">
    metadata: {
  </text>
  <text font-family="sans-serif" font-size="13" lengthAdjust="spacingAndGlyphs" textLength="52" x="301" y="2112.403">
    event: {
  </text>
  <text font-family="sans-serif" font-size="13" lengthAdjust="spacingAndGlyphs" textLength="72" x="317" y="2127.536">
    id: &lt;uuid&gt;,
  </text>
  <text font-family="sans-serif" font-size="13" lengthAdjust="spacingAndGlyphs" textLength="90" x="317" y="2142.669">
    type: position,
  </text>
  <text font-family="sans-serif" font-size="13" lengthAdjust="spacingAndGlyphs" textLength="162" x="317" y="2157.801">
    action: timeout-reserved,
  </text>
  <text font-family="sans-serif" font-size="13" lengthAdjust="spacingAndGlyphs" textLength="167" x="317" y="2172.934">
    createdAt: &lt;timestamp&gt;,
  </text>
  <text font-family="sans-serif" font-size="13" lengthAdjust="spacingAndGlyphs" textLength="49" x="317" y="2188.067">
    state: {
  </text>
  <text font-family="sans-serif" font-size="13" lengthAdjust="spacingAndGlyphs" textLength="89" x="333" y="2203.2">
    status: &apos;error&apos;,
  </text>
  <text font-family="sans-serif" font-size="13" lengthAdjust="spacingAndGlyphs" textLength="233" x="333" y="2218.332">
    code: &lt;errorInformation.errorCode&gt;
  </text>
  <text font-family="sans-serif" font-size="13" lengthAdjust="spacingAndGlyphs" textLength="311" x="333" y="2233.465">
    description: &lt;errorInformation.errorDescription&gt;
  </text>
  <text font-family="sans-serif" font-size="13" lengthAdjust="spacingAndGlyphs" textLength="8" x="317" y="2248.598">
    }
  </text>
  <text font-family="sans-serif" font-size="13" lengthAdjust="spacingAndGlyphs" textLength="8" x="301" y="2263.731">
    }
  </text>
  <text font-family="sans-serif" font-size="13" lengthAdjust="spacingAndGlyphs" textLength="8" x="285" y="2278.864">
    }
  </text>
  <text font-family="sans-serif" font-size="13" lengthAdjust="spacingAndGlyphs" textLength="8" x="269" y="2293.997">
    }
  </text>
  <path fill="#A80036" stroke="#a80036" d="M482.5 2343.328l10 4-10 4 4-4z"/>
  <path stroke="#a80036" d="M258.5 2347.328h230"/>
  <text font-family="sans-serif" font-size="13" font-weight="bold" lengthAdjust="spacingAndGlyphs" textLength="18" x="265.5" y="2334.696">
    14
  </text>
  <text font-family="sans-serif" font-size="13" lengthAdjust="spacingAndGlyphs" textLength="195" x="287.5" y="2327.129">
    Route &amp; Publish Position event
  </text>
  <text fill="red" font-family="sans-serif" font-size="13" font-weight="bold" lengthAdjust="spacingAndGlyphs" textLength="82" x="287.5" y="2342.262">
    Error code:
  </text>
  <text fill="red" font-family="sans-serif" font-size="13" lengthAdjust="spacingAndGlyphs" textLength="32" x="373.5" y="2342.262">
    2003
  </text>
  <path stroke="#000" stroke-dasharray="2,2" d="M153 2386.328h996"/>
  <path d="M263 2392.328v25h186v-15l-10-10H263" fill="#D3D3D3" filter="url(#a)" stroke="#a80036"/>
  <path d="M439 2392.328v10h10l-10-10" fill="#D3D3D3" stroke="#a80036"/>
  <text font-family="sans-serif" font-size="13" lengthAdjust="spacingAndGlyphs" textLength="165" x="269" y="2409.395">
    Any other state is ignored
  </text>
  <path d="M153 2440.46h105v7l-10 10h-95v-17" fill="#EEE" stroke="#000"/>
  <path fill="none" stroke="#000" stroke-width="2" d="M153 2440.461h980v182.797H153z"/>
  <text font-family="sans-serif" font-size="13" font-weight="bold" lengthAdjust="spacingAndGlyphs" textLength="60" x="168" y="2453.528">
    Cleanup
  </text>
  <path fill="#A80036" stroke="#a80036" d="M826 2489.86l10 4-10 4 4-4z"/>
  <path stroke="#a80036" d="M258.5 2493.859H832"/>
  <text font-family="sans-serif" font-size="13" font-weight="bold" lengthAdjust="spacingAndGlyphs" textLength="18" x="265.5" y="2481.227">
    15
  </text>
  <text font-family="sans-serif" font-size="13" lengthAdjust="spacingAndGlyphs" textLength="215" x="287.5" y="2473.661">
    Cleanup handled expiring transfer
  </text>
  <text fill="red" font-family="sans-serif" font-size="13" font-weight="bold" lengthAdjust="spacingAndGlyphs" textLength="82" x="287.5" y="2488.794">
    Error code:
  </text>
  <text fill="red" font-family="sans-serif" font-size="13" lengthAdjust="spacingAndGlyphs" textLength="32" x="373.5" y="2488.794">
    2003
  </text>
  <path fill="#A80036" stroke="#a80036" d="M1043 2518.992l10 4-10 4 4-4z"/>
  <path stroke="#a80036" d="M848 2522.992h201"/>
  <text font-family="sans-serif" font-size="13" font-weight="bold" lengthAdjust="spacingAndGlyphs" textLength="18" x="855" y="2517.926">
    16
  </text>
  <text font-family="sans-serif" font-size="13" lengthAdjust="spacingAndGlyphs" textLength="87" x="877" y="2517.926">
    Delete record
  </text>
  <path fill="#FFFFE0" filter="url(#a)" stroke="#a80036" d="M1007 2565.992h106l10 11-10 12h-106l-10-12 10-11z"/>
  <text font-family="sans-serif" font-size="13" lengthAdjust="spacingAndGlyphs" textLength="102" x="1009" y="2582.059">
    expiringTransfer
  </text>
  <path fill="#A80036" stroke="#a80036" d="M269.5 2611.258l-10 4 10 4-4-4z"/>
  <path stroke="#a80036" stroke-dasharray="2,2" d="M263.5 2615.258H842"/>
  <text font-family="sans-serif" font-size="13" font-weight="bold" lengthAdjust="spacingAndGlyphs" textLength="18" x="275.5" y="2610.192">
    17
  </text>
  <text font-family="sans-serif" font-size="13" lengthAdjust="spacingAndGlyphs" textLength="97" x="297.5" y="2610.192">
    Return success
  </text>
</svg>
