<?xml version="1.0" encoding="UTF-8" standalone="no"?><svg xmlns="http://www.w3.org/2000/svg" xmlns:xlink="http://www.w3.org/1999/xlink" contentScriptType="application/ecmascript" contentStyleType="text/css" height="2135px" preserveAspectRatio="none" style="width:1881px;height:2135px;" version="1.1" viewBox="0 0 1881 2135" width="1881px" zoomAndPan="magnify"><defs><filter height="300%" id="fffmzlsfdauxc" width="300%" x="-1" y="-1"><feGaussianBlur result="blurOut" stdDeviation="2.0"/><feColorMatrix in="blurOut" result="blurOut2" type="matrix" values="0 0 0 0 0 0 0 0 0 0 0 0 0 0 0 0 0 0 .4 0"/><feOffset dx="4.0" dy="4.0" in="blurOut2" result="blurOut3"/><feBlend in="SourceGraphic" in2="blurOut3" mode="normal"/></filter></defs><g><text fill="#000000" font-family="sans-serif" font-size="14" font-weight="bold" lengthAdjust="spacingAndGlyphs" textLength="385" x="749" y="23.5352">1.0.0 Create initial position and limits for Participant</text><rect fill="#FFFFE0" height="2089.5117" style="stroke: #A80036; stroke-width: 1.0;" width="1118" x="702.5" y="34.4883"/><text fill="#000000" font-family="sans-serif" font-size="13" font-weight="bold" lengthAdjust="spacingAndGlyphs" textLength="108" x="1207.5" y="47.0566">Central Services</text><rect fill="#FFFFFF" filter="url(#fffmzlsfdauxc)" height="1893.5352" style="stroke: #A80036; stroke-width: 1.0;" width="10" x="104.5" y="126.9766"/><rect fill="#FFFFFF" filter="url(#fffmzlsfdauxc)" height="1847.9141" style="stroke: #A80036; stroke-width: 1.0;" width="10" x="768.5" y="172.5977"/><rect fill="#FFFFFF" filter="url(#fffmzlsfdauxc)" height="866.3164" style="stroke: #A80036; stroke-width: 1.0;" width="10" x="1106.5" y="363.7031"/><rect fill="#FFFFFF" filter="url(#fffmzlsfdauxc)" height="716.8711" style="stroke: #A80036; stroke-width: 1.0;" width="10" x="1106.5" y="1259.3301"/><rect fill="#FFFFFF" filter="url(#fffmzlsfdauxc)" height="136.5527" style="stroke: #A80036; stroke-width: 1.0;" width="10" x="1460.5" y="408.3242"/><rect fill="#FFFFFF" filter="url(#fffmzlsfdauxc)" height="121.2422" style="stroke: #A80036; stroke-width: 1.0;" width="10" x="1460.5" y="640.8086"/><rect fill="#FFFFFF" filter="url(#fffmzlsfdauxc)" height="121.2422" style="stroke: #A80036; stroke-width: 1.0;" width="10" x="1460.5" y="791.3613"/><rect fill="#FFFFFF" filter="url(#fffmzlsfdauxc)" height="137.2422" style="stroke: #A80036; stroke-width: 1.0;" width="10" x="1460.5" y="1039.1563"/><rect fill="#FFFFFF" filter="url(#fffmzlsfdauxc)" height="77.9316" style="stroke: #A80036; stroke-width: 1.0;" width="10" x="1763.5" y="437.6348"/><rect fill="#FFFFFF" filter="url(#fffmzlsfdauxc)" height="62.6211" style="stroke: #A80036; stroke-width: 1.0;" width="10" x="1763.5" y="670.1191"/><rect fill="#FFFFFF" filter="url(#fffmzlsfdauxc)" height="62.6211" style="stroke: #A80036; stroke-width: 1.0;" width="10" x="1763.5" y="820.6719"/><rect fill="#FFFFFF" filter="url(#fffmzlsfdauxc)" height="30" style="stroke: #A80036; stroke-width: 1.0;" width="10" x="1763.5" y="1068.4668"/><rect fill="#FFFFFF" filter="url(#fffmzlsfdauxc)" height="1886.5352" style="stroke: #000000; stroke-width: 2.0;" width="1857" x="13" y="133.9766"/><rect fill="#FFFFFF" filter="url(#fffmzlsfdauxc)" height="1411.3242" style="stroke: #000000; stroke-width: 2.0;" width="1837" x="23" y="602.1875"/><rect fill="#FFFFFF" filter="url(#fffmzlsfdauxc)" height="792.5371" style="stroke: #000000; stroke-width: 2.0;" width="1817" x="33" y="969.9141"/><rect fill="#FFFFFF" filter="url(#fffmzlsfdauxc)" height="319.9922" style="stroke: #000000; stroke-width: 2.0;" width="1332" x="43" y="1191.3984"/><rect fill="#FFFFFF" height="244.0605" style="stroke: none; stroke-width: 1.0;" width="1332" x="43" y="1267.3301"/><rect fill="#FFFFFF" height="244.0605" style="stroke: none; stroke-width: 1.0;" width="1817" x="33" y="1518.3906"/><rect fill="#FFFFFF" height="244.0605" style="stroke: none; stroke-width: 1.0;" width="1837" x="23" y="1769.4512"/><line style="stroke: #A80036; stroke-width: 1.0; stroke-dasharray: 5.0,5.0;" x1="109" x2="109" y1="116.9766" y2="2037.5117"/><line style="stroke: #A80036; stroke-width: 1.0; stroke-dasharray: 5.0,5.0;" x1="773.5" x2="773.5" y1="116.9766" y2="2037.5117"/><line style="stroke: #A80036; stroke-width: 1.0; stroke-dasharray: 5.0,5.0;" x1="1111" x2="1111" y1="116.9766" y2="2037.5117"/><line style="stroke: #A80036; stroke-width: 1.0; stroke-dasharray: 5.0,5.0;" x1="1465" x2="1465" y1="116.9766" y2="2037.5117"/><line style="stroke: #A80036; stroke-width: 1.0; stroke-dasharray: 5.0,5.0;" x1="1768.5" x2="1768.5" y1="116.9766" y2="2037.5117"/><text fill="#000000" font-family="sans-serif" font-size="14" lengthAdjust="spacingAndGlyphs" textLength="107" x="53" y="114.0234">HUB OPERATOR</text><ellipse cx="109.5" cy="43.4883" fill="#FEFECE" filter="url(#fffmzlsfdauxc)" rx="8" ry="8" style="stroke: #A80036; stroke-width: 2.0;"/><path d="M109.5,51.4883 L109.5,78.4883 M96.5,59.4883 L122.5,59.4883 M109.5,78.4883 L96.5,93.4883 M109.5,78.4883 L122.5,93.4883 " fill="none" filter="url(#fffmzlsfdauxc)" style="stroke: #A80036; stroke-width: 2.0;"/><text fill="#000000" font-family="sans-serif" font-size="14" lengthAdjust="spacingAndGlyphs" textLength="107" x="53" y="2050.0469">HUB OPERATOR</text><ellipse cx="109.5" cy="2063" fill="#FEFECE" filter="url(#fffmzlsfdauxc)" rx="8" ry="8" style="stroke: #A80036; stroke-width: 2.0;"/><path d="M109.5,2071 L109.5,2098 M96.5,2079 L122.5,2079 M109.5,2098 L96.5,2113 M109.5,2098 L122.5,2113 " fill="none" filter="url(#fffmzlsfdauxc)" style="stroke: #A80036; stroke-width: 2.0;"/><text fill="#000000" font-family="sans-serif" font-size="14" lengthAdjust="spacingAndGlyphs" textLength="128" x="706.5" y="114.0234">Central Service API</text><path d="M753,72.4883 L753,96.4883 M753,84.4883 L770,84.4883 " fill="none" filter="url(#fffmzlsfdauxc)" style="stroke: #A80036; stroke-width: 2.0;"/><ellipse cx="782" cy="84.4883" fill="#FEFECE" filter="url(#fffmzlsfdauxc)" rx="12" ry="12" style="stroke: #A80036; stroke-width: 2.0;"/><text fill="#000000" font-family="sans-serif" font-size="14" lengthAdjust="spacingAndGlyphs" textLength="128" x="706.5" y="2050.0469">Central Service API</text><path d="M753,2057 L753,2081 M753,2069 L770,2069 " fill="none" filter="url(#fffmzlsfdauxc)" style="stroke: #A80036; stroke-width: 2.0;"/><ellipse cx="782" cy="2069" fill="#FEFECE" filter="url(#fffmzlsfdauxc)" rx="12" ry="12" style="stroke: #A80036; stroke-width: 2.0;"/><text fill="#000000" font-family="sans-serif" font-size="14" lengthAdjust="spacingAndGlyphs" textLength="131" x="1043" y="114.0234">Participant Handler</text><ellipse cx="1111.5" cy="84.4883" fill="#FEFECE" filter="url(#fffmzlsfdauxc)" rx="12" ry="12" style="stroke: #A80036; stroke-width: 2.0;"/><polygon fill="#A80036" points="1107.5,72.4883,1113.5,67.4883,1111.5,72.4883,1113.5,77.4883,1107.5,72.4883" style="stroke: #A80036; stroke-width: 1.0;"/><text fill="#000000" font-family="sans-serif" font-size="14" lengthAdjust="spacingAndGlyphs" textLength="131" x="1043" y="2050.0469">Participant Handler</text><ellipse cx="1111.5" cy="2069" fill="#FEFECE" filter="url(#fffmzlsfdauxc)" rx="12" ry="12" style="stroke: #A80036; stroke-width: 2.0;"/><polygon fill="#A80036" points="1107.5,2057,1113.5,2052,1111.5,2057,1113.5,2062,1107.5,2057" style="stroke: #A80036; stroke-width: 1.0;"/><text fill="#000000" font-family="sans-serif" font-size="14" lengthAdjust="spacingAndGlyphs" textLength="133" x="1396" y="114.0234">Participant FACADE</text><ellipse cx="1465.5" cy="84.4883" fill="#FEFECE" filter="url(#fffmzlsfdauxc)" rx="12" ry="12" style="stroke: #A80036; stroke-width: 2.0;"/><line style="stroke: #A80036; stroke-width: 2.0;" x1="1453.5" x2="1477.5" y1="98.4883" y2="98.4883"/><text fill="#000000" font-family="sans-serif" font-size="14" lengthAdjust="spacingAndGlyphs" textLength="133" x="1396" y="2050.0469">Participant FACADE</text><ellipse cx="1465.5" cy="2069" fill="#FEFECE" filter="url(#fffmzlsfdauxc)" rx="12" ry="12" style="stroke: #A80036; stroke-width: 2.0;"/><line style="stroke: #A80036; stroke-width: 2.0;" x1="1453.5" x2="1477.5" y1="2083" y2="2083"/><text fill="#000000" font-family="sans-serif" font-size="14" lengthAdjust="spacingAndGlyphs" textLength="90" x="1720.5" y="114.0234">Central Store</text><path d="M1750.5,64.4883 C1750.5,54.4883 1768.5,54.4883 1768.5,54.4883 C1768.5,54.4883 1786.5,54.4883 1786.5,64.4883 L1786.5,90.4883 C1786.5,100.4883 1768.5,100.4883 1768.5,100.4883 C1768.5,100.4883 1750.5,100.4883 1750.5,90.4883 L1750.5,64.4883 " fill="#FEFECE" filter="url(#fffmzlsfdauxc)" style="stroke: #000000; stroke-width: 1.5;"/><path d="M1750.5,64.4883 C1750.5,74.4883 1768.5,74.4883 1768.5,74.4883 C1768.5,74.4883 1786.5,74.4883 1786.5,64.4883 " fill="none" style="stroke: #000000; stroke-width: 1.5;"/><text fill="#000000" font-family="sans-serif" font-size="14" lengthAdjust="spacingAndGlyphs" textLength="90" x="1720.5" y="2050.0469">Central Store</text><path d="M1750.5,2063 C1750.5,2053 1768.5,2053 1768.5,2053 C1768.5,2053 1786.5,2053 1786.5,2063 L1786.5,2089 C1786.5,2099 1768.5,2099 1768.5,2099 C1768.5,2099 1750.5,2099 1750.5,2089 L1750.5,2063 " fill="#FEFECE" filter="url(#fffmzlsfdauxc)" style="stroke: #000000; stroke-width: 1.5;"/><path d="M1750.5,2063 C1750.5,2073 1768.5,2073 1768.5,2073 C1768.5,2073 1786.5,2073 1786.5,2063 " fill="none" style="stroke: #000000; stroke-width: 1.5;"/><rect fill="#FFFFFF" filter="url(#fffmzlsfdauxc)" height="1893.5352" style="stroke: #A80036; stroke-width: 1.0;" width="10" x="104.5" y="126.9766"/><rect fill="#FFFFFF" filter="url(#fffmzlsfdauxc)" height="1847.9141" style="stroke: #A80036; stroke-width: 1.0;" width="10" x="768.5" y="172.5977"/><rect fill="#FFFFFF" filter="url(#fffmzlsfdauxc)" height="866.3164" style="stroke: #A80036; stroke-width: 1.0;" width="10" x="1106.5" y="363.7031"/><rect fill="#FFFFFF" filter="url(#fffmzlsfdauxc)" height="716.8711" style="stroke: #A80036; stroke-width: 1.0;" width="10" x="1106.5" y="1259.3301"/><rect fill="#FFFFFF" filter="url(#fffmzlsfdauxc)" height="136.5527" style="stroke: #A80036; stroke-width: 1.0;" width="10" x="1460.5" y="408.3242"/><rect fill="#FFFFFF" filter="url(#fffmzlsfdauxc)" height="121.2422" style="stroke: #A80036; stroke-width: 1.0;" width="10" x="1460.5" y="640.8086"/><rect fill="#FFFFFF" filter="url(#fffmzlsfdauxc)" height="121.2422" style="stroke: #A80036; stroke-width: 1.0;" width="10" x="1460.5" y="791.3613"/><rect fill="#FFFFFF" filter="url(#fffmzlsfdauxc)" height="137.2422" style="stroke: #A80036; stroke-width: 1.0;" width="10" x="1460.5" y="1039.1563"/><rect fill="#FFFFFF" filter="url(#fffmzlsfdauxc)" height="77.9316" style="stroke: #A80036; stroke-width: 1.0;" width="10" x="1763.5" y="437.6348"/><rect fill="#FFFFFF" filter="url(#fffmzlsfdauxc)" height="62.6211" style="stroke: #A80036; stroke-width: 1.0;" width="10" x="1763.5" y="670.1191"/><rect fill="#FFFFFF" filter="url(#fffmzlsfdauxc)" height="62.6211" style="stroke: #A80036; stroke-width: 1.0;" width="10" x="1763.5" y="820.6719"/><rect fill="#FFFFFF" filter="url(#fffmzlsfdauxc)" height="30" style="stroke: #A80036; stroke-width: 1.0;" width="10" x="1763.5" y="1068.4668"/><path d="M13,133.9766 L273,133.9766 L273,140.9766 L263,150.9766 L13,150.9766 L13,133.9766 " fill="#EEEEEE" style="stroke: #000000; stroke-width: 1.0;"/><rect fill="none" height="1886.5352" style="stroke: #000000; stroke-width: 2.0;" width="1857" x="13" y="133.9766"/><text fill="#000000" font-family="sans-serif" font-size="13" font-weight="bold" lengthAdjust="spacingAndGlyphs" textLength="215" x="28" y="147.5449">Create initial position and limits</text><polygon fill="#A80036" points="756.5,168.5977,766.5,172.5977,756.5,176.5977,760.5,172.5977" style="stroke: #A80036; stroke-width: 1.0;"/><line style="stroke: #A80036; stroke-width: 1.0;" x1="114.5" x2="762.5" y1="172.5977" y2="172.5977"/><text fill="#000000" font-family="sans-serif" font-size="13" font-weight="bold" lengthAdjust="spacingAndGlyphs" textLength="9" x="121.5" y="167.8555">1</text><text fill="#000000" font-family="sans-serif" font-size="13" lengthAdjust="spacingAndGlyphs" textLength="622" x="134.5" y="167.8555">Request to Create initial position and limits - POST - /paticipants/{name}/initialPositionAndLimits</text><path d="M119,185.5977 L119,332.5977 L357,332.5977 L357,195.5977 L347,185.5977 L119,185.5977 " fill="#FFFF00" filter="url(#fffmzlsfdauxc)" style="stroke: #A80036; stroke-width: 1.0;"/><path d="M347,185.5977 L347,195.5977 L357,195.5977 L347,185.5977 " fill="#FFFF00" style="stroke: #A80036; stroke-width: 1.0;"/><text fill="#000000" font-family="sans-serif" font-size="13" lengthAdjust="spacingAndGlyphs" textLength="58" x="125" y="203.166">Message:</text><text fill="#000000" font-family="sans-serif" font-size="13" lengthAdjust="spacingAndGlyphs" textLength="4" x="125" y="218.4766">{</text><text fill="#000000" font-family="sans-serif" font-size="13" lengthAdjust="spacingAndGlyphs" textLength="152" x="141" y="233.7871">currency: &lt;currencyId&gt;,</text><text fill="#000000" font-family="sans-serif" font-size="13" lengthAdjust="spacingAndGlyphs" textLength="41" x="141" y="249.0977">limit: {</text><text fill="#000000" font-family="sans-serif" font-size="13" lengthAdjust="spacingAndGlyphs" textLength="118" x="157" y="264.4082">type: &lt;limitType&gt;,</text><text fill="#000000" font-family="sans-serif" font-size="13" lengthAdjust="spacingAndGlyphs" textLength="124" x="157" y="279.7188">value: &lt;limitValue&gt;</text><text fill="#000000" font-family="sans-serif" font-size="13" lengthAdjust="spacingAndGlyphs" textLength="8" x="141" y="295.0293">},</text><text fill="#000000" font-family="sans-serif" font-size="13" lengthAdjust="spacingAndGlyphs" textLength="201" x="141" y="310.3398">initialPosition: &lt;positionValue&gt;</text><text fill="#000000" font-family="sans-serif" font-size="13" lengthAdjust="spacingAndGlyphs" textLength="4" x="125" y="325.6504">}</text><polygon fill="#A80036" points="1094.5,359.7031,1104.5,363.7031,1094.5,367.7031,1098.5,363.7031" style="stroke: #A80036; stroke-width: 1.0;"/><line style="stroke: #A80036; stroke-width: 1.0;" x1="778.5" x2="1100.5" y1="363.7031" y2="363.7031"/><text fill="#000000" font-family="sans-serif" font-size="13" font-weight="bold" lengthAdjust="spacingAndGlyphs" textLength="9" x="785.5" y="358.9609">2</text><text fill="#000000" font-family="sans-serif" font-size="13" lengthAdjust="spacingAndGlyphs" textLength="296" x="798.5" y="358.9609">Create initial position and limits for Participant</text><polygon fill="#A80036" points="1448.5,404.3242,1458.5,408.3242,1448.5,412.3242,1452.5,408.3242" style="stroke: #A80036; stroke-width: 1.0;"/><line style="stroke: #A80036; stroke-width: 1.0;" x1="1116.5" x2="1454.5" y1="408.3242" y2="408.3242"/><text fill="#000000" font-family="sans-serif" font-size="13" font-weight="bold" lengthAdjust="spacingAndGlyphs" textLength="9" x="1123.5" y="395.9268">3</text><text fill="#000000" font-family="sans-serif" font-size="13" lengthAdjust="spacingAndGlyphs" textLength="188" x="1136.5" y="388.2715">Fetch Participant/ Currency Id</text><text fill="#FF0000" font-family="sans-serif" font-size="13" font-weight="bold" lengthAdjust="spacingAndGlyphs" textLength="73" x="1136.5" y="403.582">Error code:</text><text fill="#FF0000" font-family="sans-serif" font-size="13" lengthAdjust="spacingAndGlyphs" textLength="32" x="1213.5" y="403.582">3200</text><polygon fill="#A80036" points="1751.5,433.6348,1761.5,437.6348,1751.5,441.6348,1755.5,437.6348" style="stroke: #A80036; stroke-width: 1.0;"/><line style="stroke: #A80036; stroke-width: 1.0;" x1="1470.5" x2="1757.5" y1="437.6348" y2="437.6348"/><text fill="#000000" font-family="sans-serif" font-size="13" font-weight="bold" lengthAdjust="spacingAndGlyphs" textLength="9" x="1477.5" y="432.8926">4</text><text fill="#000000" font-family="sans-serif" font-size="13" lengthAdjust="spacingAndGlyphs" textLength="184" x="1490.5" y="432.8926">Fetch Participant/Currency Id</text><polygon fill="#FFFFE0" filter="url(#fffmzlsfdauxc)" points="1704,450.6348,1832,450.6348,1842,469.6348,1832,488.6348,1704,488.6348,1694,469.6348,1704,450.6348" style="stroke: #A80036; stroke-width: 1.0;"/><text fill="#000000" font-family="sans-serif" font-size="13" lengthAdjust="spacingAndGlyphs" textLength="68" x="1706" y="467.2031">participant</text><text fill="#000000" font-family="sans-serif" font-size="13" lengthAdjust="spacingAndGlyphs" textLength="124" x="1706" y="482.5137">participantCurrency</text><polygon fill="#A80036" points="1481.5,511.5664,1471.5,515.5664,1481.5,519.5664,1477.5,515.5664" style="stroke: #A80036; stroke-width: 1.0;"/><line style="stroke: #A80036; stroke-width: 1.0; stroke-dasharray: 2.0,2.0;" x1="1475.5" x2="1767.5" y1="515.5664" y2="515.5664"/><text fill="#000000" font-family="sans-serif" font-size="13" font-weight="bold" lengthAdjust="spacingAndGlyphs" textLength="9" x="1487.5" y="510.8242">5</text><text fill="#000000" font-family="sans-serif" font-size="13" lengthAdjust="spacingAndGlyphs" textLength="208" x="1500.5" y="510.8242">Retrieved Participant/Currency Id</text><polygon fill="#A80036" points="1127.5,540.877,1117.5,544.877,1127.5,548.877,1123.5,544.877" style="stroke: #A80036; stroke-width: 1.0;"/><line style="stroke: #A80036; stroke-width: 1.0; stroke-dasharray: 2.0,2.0;" x1="1121.5" x2="1464.5" y1="544.877" y2="544.877"/><text fill="#000000" font-family="sans-serif" font-size="13" font-weight="bold" lengthAdjust="spacingAndGlyphs" textLength="9" x="1133.5" y="540.1348">6</text><text fill="#000000" font-family="sans-serif" font-size="13" lengthAdjust="spacingAndGlyphs" textLength="191" x="1146.5" y="540.1348">Return Participant/Currency Id</text><line style="stroke: #A80036; stroke-width: 1.0;" x1="1116.5" x2="1158.5" y1="574.1875" y2="574.1875"/><line style="stroke: #A80036; stroke-width: 1.0;" x1="1158.5" x2="1158.5" y1="574.1875" y2="587.1875"/><line style="stroke: #A80036; stroke-width: 1.0;" x1="1117.5" x2="1158.5" y1="587.1875" y2="587.1875"/><polygon fill="#A80036" points="1127.5,583.1875,1117.5,587.1875,1127.5,591.1875,1123.5,587.1875" style="stroke: #A80036; stroke-width: 1.0;"/><text fill="#000000" font-family="sans-serif" font-size="13" font-weight="bold" lengthAdjust="spacingAndGlyphs" textLength="9" x="1123.5" y="569.4453">7</text><text fill="#000000" font-family="sans-serif" font-size="13" lengthAdjust="spacingAndGlyphs" textLength="85" x="1136.5" y="569.4453">Validate DFSP</text><path d="M23,602.1875 L85,602.1875 L85,609.1875 L75,619.1875 L23,619.1875 L23,602.1875 " fill="#EEEEEE" style="stroke: #000000; stroke-width: 1.0;"/><rect fill="none" height="1411.3242" style="stroke: #000000; stroke-width: 2.0;" width="1837" x="23" y="602.1875"/><text fill="#000000" font-family="sans-serif" font-size="13" font-weight="bold" lengthAdjust="spacingAndGlyphs" textLength="17" x="38" y="615.7559">alt</text><text fill="#000000" font-family="sans-serif" font-size="11" font-weight="bold" lengthAdjust="spacingAndGlyphs" textLength="172" x="100" y="614.8223">[Validate participant (success)]</text><polygon fill="#A80036" points="1448.5,636.8086,1458.5,640.8086,1448.5,644.8086,1452.5,640.8086" style="stroke: #A80036; stroke-width: 1.0;"/><line style="stroke: #A80036; stroke-width: 1.0;" x1="1116.5" x2="1454.5" y1="640.8086" y2="640.8086"/><text fill="#000000" font-family="sans-serif" font-size="13" font-weight="bold" lengthAdjust="spacingAndGlyphs" textLength="9" x="1123.5" y="636.0664">8</text><text fill="#000000" font-family="sans-serif" font-size="13" lengthAdjust="spacingAndGlyphs" textLength="229" x="1136.5" y="636.0664">Fetch limit for participantCurrencyId</text><polygon fill="#A80036" points="1751.5,666.1191,1761.5,670.1191,1751.5,674.1191,1755.5,670.1191" style="stroke: #A80036; stroke-width: 1.0;"/><line style="stroke: #A80036; stroke-width: 1.0;" x1="1470.5" x2="1757.5" y1="670.1191" y2="670.1191"/><text fill="#000000" font-family="sans-serif" font-size="13" font-weight="bold" lengthAdjust="spacingAndGlyphs" textLength="9" x="1477.5" y="665.377">9</text><text fill="#000000" font-family="sans-serif" font-size="13" lengthAdjust="spacingAndGlyphs" textLength="229" x="1490.5" y="665.377">Fetch limit for participantCurrencyId</text><polygon fill="#FFFFE0" filter="url(#fffmzlsfdauxc)" points="1716,683.1191,1820,683.1191,1830,694.1191,1820,706.1191,1716,706.1191,1706,694.1191,1716,683.1191" style="stroke: #A80036; stroke-width: 1.0;"/><text fill="#000000" font-family="sans-serif" font-size="13" lengthAdjust="spacingAndGlyphs" textLength="100" x="1718" y="699.6875">participantLimit</text><polygon fill="#A80036" points="1481.5,728.7402,1471.5,732.7402,1481.5,736.7402,1477.5,732.7402" style="stroke: #A80036; stroke-width: 1.0;"/><line style="stroke: #A80036; stroke-width: 1.0; stroke-dasharray: 2.0,2.0;" x1="1475.5" x2="1767.5" y1="732.7402" y2="732.7402"/><text fill="#000000" font-family="sans-serif" font-size="13" font-weight="bold" lengthAdjust="spacingAndGlyphs" textLength="18" x="1487.5" y="727.998">10</text><text fill="#000000" font-family="sans-serif" font-size="13" lengthAdjust="spacingAndGlyphs" textLength="163" x="1509.5" y="727.998">Retrieved participant limit</text><polygon fill="#A80036" points="1127.5,758.0508,1117.5,762.0508,1127.5,766.0508,1123.5,762.0508" style="stroke: #A80036; stroke-width: 1.0;"/><line style="stroke: #A80036; stroke-width: 1.0; stroke-dasharray: 2.0,2.0;" x1="1121.5" x2="1464.5" y1="762.0508" y2="762.0508"/><text fill="#000000" font-family="sans-serif" font-size="13" font-weight="bold" lengthAdjust="spacingAndGlyphs" textLength="18" x="1133.5" y="757.3086">11</text><text fill="#000000" font-family="sans-serif" font-size="13" lengthAdjust="spacingAndGlyphs" textLength="146" x="1155.5" y="757.3086">Return participant limit</text><polygon fill="#A80036" points="1448.5,787.3613,1458.5,791.3613,1448.5,795.3613,1452.5,791.3613" style="stroke: #A80036; stroke-width: 1.0;"/><line style="stroke: #A80036; stroke-width: 1.0;" x1="1116.5" x2="1454.5" y1="791.3613" y2="791.3613"/><text fill="#000000" font-family="sans-serif" font-size="13" font-weight="bold" lengthAdjust="spacingAndGlyphs" textLength="18" x="1123.5" y="786.6191">12</text><text fill="#000000" font-family="sans-serif" font-size="13" lengthAdjust="spacingAndGlyphs" textLength="252" x="1145.5" y="786.6191">Fetch position for participantCurrencyId</text><polygon fill="#A80036" points="1751.5,816.6719,1761.5,820.6719,1751.5,824.6719,1755.5,820.6719" style="stroke: #A80036; stroke-width: 1.0;"/><line style="stroke: #A80036; stroke-width: 1.0;" x1="1470.5" x2="1757.5" y1="820.6719" y2="820.6719"/><text fill="#000000" font-family="sans-serif" font-size="13" font-weight="bold" lengthAdjust="spacingAndGlyphs" textLength="18" x="1477.5" y="815.9297">13</text><text fill="#000000" font-family="sans-serif" font-size="13" lengthAdjust="spacingAndGlyphs" textLength="252" x="1499.5" y="815.9297">Fetch position for participantCurrencyId</text><polygon fill="#FFFFE0" filter="url(#fffmzlsfdauxc)" points="1707,833.6719,1830,833.6719,1840,844.6719,1830,856.6719,1707,856.6719,1697,844.6719,1707,833.6719" style="stroke: #A80036; stroke-width: 1.0;"/><text fill="#000000" font-family="sans-serif" font-size="13" lengthAdjust="spacingAndGlyphs" textLength="119" x="1709" y="850.2402">participantPosition</text><polygon fill="#A80036" points="1481.5,879.293,1471.5,883.293,1481.5,887.293,1477.5,883.293" style="stroke: #A80036; stroke-width: 1.0;"/><line style="stroke: #A80036; stroke-width: 1.0; stroke-dasharray: 2.0,2.0;" x1="1475.5" x2="1767.5" y1="883.293" y2="883.293"/><text fill="#000000" font-family="sans-serif" font-size="13" font-weight="bold" lengthAdjust="spacingAndGlyphs" textLength="18" x="1487.5" y="878.5508">14</text><text fill="#000000" font-family="sans-serif" font-size="13" lengthAdjust="spacingAndGlyphs" textLength="186" x="1509.5" y="878.5508">Retrieved participant position</text><polygon fill="#A80036" points="1127.5,908.6035,1117.5,912.6035,1127.5,916.6035,1123.5,912.6035" style="stroke: #A80036; stroke-width: 1.0;"/><line style="stroke: #A80036; stroke-width: 1.0; stroke-dasharray: 2.0,2.0;" x1="1121.5" x2="1464.5" y1="912.6035" y2="912.6035"/><text fill="#000000" font-family="sans-serif" font-size="13" font-weight="bold" lengthAdjust="spacingAndGlyphs" textLength="18" x="1133.5" y="907.8613">15</text><text fill="#000000" font-family="sans-serif" font-size="13" lengthAdjust="spacingAndGlyphs" textLength="169" x="1155.5" y="907.8613">Return participant position</text><line style="stroke: #A80036; stroke-width: 1.0;" x1="1116.5" x2="1158.5" y1="941.9141" y2="941.9141"/><line style="stroke: #A80036; stroke-width: 1.0;" x1="1158.5" x2="1158.5" y1="941.9141" y2="954.9141"/><line style="stroke: #A80036; stroke-width: 1.0;" x1="1117.5" x2="1158.5" y1="954.9141" y2="954.9141"/><polygon fill="#A80036" points="1127.5,950.9141,1117.5,954.9141,1127.5,958.9141,1123.5,954.9141" style="stroke: #A80036; stroke-width: 1.0;"/><text fill="#000000" font-family="sans-serif" font-size="13" font-weight="bold" lengthAdjust="spacingAndGlyphs" textLength="18" x="1123.5" y="937.1719">16</text><text fill="#000000" font-family="sans-serif" font-size="13" lengthAdjust="spacingAndGlyphs" textLength="256" x="1145.5" y="937.1719">Participant position or limit exists check</text><path d="M33,969.9141 L95,969.9141 L95,976.9141 L85,986.9141 L33,986.9141 L33,969.9141 " fill="#EEEEEE" style="stroke: #000000; stroke-width: 1.0;"/><rect fill="none" height="792.5371" style="stroke: #000000; stroke-width: 2.0;" width="1817" x="33" y="969.9141"/><text fill="#000000" font-family="sans-serif" font-size="13" font-weight="bold" lengthAdjust="spacingAndGlyphs" textLength="17" x="48" y="983.4824">alt</text><text fill="#000000" font-family="sans-serif" font-size="11" font-weight="bold" lengthAdjust="spacingAndGlyphs" textLength="238" x="110" y="982.5488">[position or limit does not exist (success)]</text><polygon fill="#A80036" points="1448.5,1035.1563,1458.5,1039.1563,1448.5,1043.1563,1452.5,1039.1563" style="stroke: #A80036; stroke-width: 1.0;"/><line style="stroke: #A80036; stroke-width: 1.0;" x1="1116.5" x2="1454.5" y1="1039.1563" y2="1039.1563"/><text fill="#000000" font-family="sans-serif" font-size="13" font-weight="bold" lengthAdjust="spacingAndGlyphs" textLength="18" x="1123.5" y="1019.1035">17</text><text fill="#000000" font-family="sans-serif" font-size="13" lengthAdjust="spacingAndGlyphs" textLength="299" x="1145.5" y="1003.793">create initial position and limits for Participantt</text><text fill="#FF0000" font-family="sans-serif" font-size="13" font-weight="bold" lengthAdjust="spacingAndGlyphs" textLength="73" x="1145.5" y="1019.1035">Error code:</text><text fill="#FF0000" font-family="sans-serif" font-size="13" lengthAdjust="spacingAndGlyphs" textLength="39" x="1222.5" y="1019.1035">2003/</text><text fill="#FF0000" font-family="sans-serif" font-size="13" font-weight="bold" lengthAdjust="spacingAndGlyphs" textLength="31" x="1261.5" y="1019.1035">Msg:</text><text fill="#FF0000" font-family="sans-serif" font-size="13" lengthAdjust="spacingAndGlyphs" textLength="119" x="1296.5" y="1019.1035">Service unavailable</text><text fill="#000000" font-family="sans-serif" font-size="13" lengthAdjust="spacingAndGlyphs" textLength="0" x="1423.5" y="1019.1035"/><text fill="#FF0000" font-family="sans-serif" font-size="13" font-weight="bold" lengthAdjust="spacingAndGlyphs" textLength="73" x="1145.5" y="1034.4141">Error code:</text><text fill="#FF0000" font-family="sans-serif" font-size="13" lengthAdjust="spacingAndGlyphs" textLength="39" x="1222.5" y="1034.4141">2001/</text><text fill="#FF0000" font-family="sans-serif" font-size="13" font-weight="bold" lengthAdjust="spacingAndGlyphs" textLength="31" x="1261.5" y="1034.4141">Msg:</text><text fill="#FF0000" font-family="sans-serif" font-size="13" lengthAdjust="spacingAndGlyphs" textLength="124" x="1296.5" y="1034.4141">Internal Server Error</text><polygon fill="#A80036" points="1751.5,1064.4668,1761.5,1068.4668,1751.5,1072.4668,1755.5,1068.4668" style="stroke: #A80036; stroke-width: 1.0;"/><line style="stroke: #A80036; stroke-width: 1.0;" x1="1470.5" x2="1757.5" y1="1068.4668" y2="1068.4668"/><text fill="#000000" font-family="sans-serif" font-size="13" font-weight="bold" lengthAdjust="spacingAndGlyphs" textLength="18" x="1477.5" y="1063.7246">18</text><text fill="#000000" font-family="sans-serif" font-size="13" lengthAdjust="spacingAndGlyphs" textLength="212" x="1499.5" y="1063.7246">Persist Participant limits/position</text><polygon fill="#FFFFE0" filter="url(#fffmzlsfdauxc)" points="1707,1111.4668,1830,1111.4668,1840,1130.4668,1830,1149.4668,1707,1149.4668,1697,1130.4668,1707,1111.4668" style="stroke: #A80036; stroke-width: 1.0;"/><text fill="#000000" font-family="sans-serif" font-size="13" lengthAdjust="spacingAndGlyphs" textLength="119" x="1709" y="1128.0352">participantPosition</text><text fill="#000000" font-family="sans-serif" font-size="13" lengthAdjust="spacingAndGlyphs" textLength="100" x="1709" y="1143.3457">participantLimit</text><polygon fill="#A80036" points="1127.5,1172.3984,1117.5,1176.3984,1127.5,1180.3984,1123.5,1176.3984" style="stroke: #A80036; stroke-width: 1.0;"/><line style="stroke: #A80036; stroke-width: 1.0; stroke-dasharray: 2.0,2.0;" x1="1121.5" x2="1464.5" y1="1176.3984" y2="1176.3984"/><text fill="#000000" font-family="sans-serif" font-size="13" font-weight="bold" lengthAdjust="spacingAndGlyphs" textLength="18" x="1133.5" y="1171.6563">19</text><text fill="#000000" font-family="sans-serif" font-size="13" lengthAdjust="spacingAndGlyphs" textLength="84" x="1155.5" y="1171.6563">Return status</text><path d="M43,1191.3984 L105,1191.3984 L105,1198.3984 L95,1208.3984 L43,1208.3984 L43,1191.3984 " fill="#EEEEEE" style="stroke: #000000; stroke-width: 1.0;"/><rect fill="none" height="319.9922" style="stroke: #000000; stroke-width: 2.0;" width="1332" x="43" y="1191.3984"/><text fill="#000000" font-family="sans-serif" font-size="13" font-weight="bold" lengthAdjust="spacingAndGlyphs" textLength="17" x="58" y="1204.9668">alt</text><text fill="#000000" font-family="sans-serif" font-size="11" font-weight="bold" lengthAdjust="spacingAndGlyphs" textLength="175" x="120" y="1204.0332">[Details persisted successfully]</text><polygon fill="#A80036" points="789.5,1226.0195,779.5,1230.0195,789.5,1234.0195,785.5,1230.0195" style="stroke: #A80036; stroke-width: 1.0;"/><line style="stroke: #A80036; stroke-width: 1.0; stroke-dasharray: 2.0,2.0;" x1="783.5" x2="1110.5" y1="1230.0195" y2="1230.0195"/><text fill="#000000" font-family="sans-serif" font-size="13" font-weight="bold" lengthAdjust="spacingAndGlyphs" textLength="18" x="795.5" y="1225.2773">20</text><text fill="#000000" font-family="sans-serif" font-size="13" lengthAdjust="spacingAndGlyphs" textLength="148" x="817.5" y="1225.2773">Return Status Code 201</text><polygon fill="#A80036" points="125.5,1255.3301,115.5,1259.3301,125.5,1263.3301,121.5,1259.3301" style="stroke: #A80036; stroke-width: 1.0;"/><line style="stroke: #A80036; stroke-width: 1.0; stroke-dasharray: 2.0,2.0;" x1="119.5" x2="767.5" y1="1259.3301" y2="1259.3301"/><text fill="#000000" font-family="sans-serif" font-size="13" font-weight="bold" lengthAdjust="spacingAndGlyphs" textLength="18" x="131.5" y="1254.5879">21</text><text fill="#000000" font-family="sans-serif" font-size="13" lengthAdjust="spacingAndGlyphs" textLength="148" x="153.5" y="1254.5879">Return Status Code 201</text><line style="stroke: #000000; stroke-width: 1.0; stroke-dasharray: 2.0,2.0;" x1="43" x2="1375" y1="1268.3301" y2="1268.3301"/><text fill="#000000" font-family="sans-serif" font-size="11" font-weight="bold" lengthAdjust="spacingAndGlyphs" textLength="159" x="48" y="1278.9648">[Details not persisted/Error]</text><path d="M1121,1287.2852 L1121,1312.2852 L1176,1312.2852 L1176,1297.2852 L1166,1287.2852 L1121,1287.2852 " fill="#FF0000" filter="url(#fffmzlsfdauxc)" style="stroke: #A80036; stroke-width: 1.0;"/><path d="M1166,1287.2852 L1166,1297.2852 L1176,1297.2852 L1166,1287.2852 " fill="#FF0000" style="stroke: #A80036; stroke-width: 1.0;"/><text fill="#000000" font-family="sans-serif" font-size="13" lengthAdjust="spacingAndGlyphs" textLength="34" x="1127" y="1304.8535">Error!</text><path d="M1121,1326.5957 L1121,1443.5957 L1361,1443.5957 L1361,1336.5957 L1351,1326.5957 L1121,1326.5957 " fill="#FFFF00" filter="url(#fffmzlsfdauxc)" style="stroke: #A80036; stroke-width: 1.0;"/><path d="M1351,1326.5957 L1351,1336.5957 L1361,1336.5957 L1351,1326.5957 " fill="#FFFF00" style="stroke: #A80036; stroke-width: 1.0;"/><text fill="#000000" font-family="sans-serif" font-size="13" lengthAdjust="spacingAndGlyphs" textLength="58" x="1127" y="1344.1641">Message:</text><text fill="#000000" font-family="sans-serif" font-size="13" lengthAdjust="spacingAndGlyphs" textLength="4" x="1143" y="1359.4746">{</text><text fill="#000000" font-family="sans-serif" font-size="13" lengthAdjust="spacingAndGlyphs" textLength="126" x="1159" y="1374.7852">"errorInformation": {</text><text fill="#000000" font-family="sans-serif" font-size="13" lengthAdjust="spacingAndGlyphs" textLength="170" x="1175" y="1390.0957">"errorCode": &lt;Error Code&gt;,</text><text fill="#000000" font-family="sans-serif" font-size="13" lengthAdjust="spacingAndGlyphs" textLength="171" x="1175" y="1405.4063">"errorDescription": &lt;Msg&gt;,</text><text fill="#000000" font-family="sans-serif" font-size="13" lengthAdjust="spacingAndGlyphs" textLength="4" x="1159" y="1420.7168">}</text><text fill="#000000" font-family="sans-serif" font-size="13" lengthAdjust="spacingAndGlyphs" textLength="4" x="1143" y="1436.0273">}</text><polygon fill="#A80036" points="789.5,1470.0801,779.5,1474.0801,789.5,1478.0801,785.5,1474.0801" style="stroke: #A80036; stroke-width: 1.0;"/><line style="stroke: #A80036; stroke-width: 1.0; stroke-dasharray: 2.0,2.0;" x1="783.5" x2="1105.5" y1="1474.0801" y2="1474.0801"/><text fill="#000000" font-family="sans-serif" font-size="13" font-weight="bold" lengthAdjust="spacingAndGlyphs" textLength="18" x="795.5" y="1469.3379">22</text><text fill="#000000" font-family="sans-serif" font-size="13" lengthAdjust="spacingAndGlyphs" textLength="41" x="817.5" y="1469.3379">Return</text><text fill="#FF0000" font-family="sans-serif" font-size="13" font-weight="bold" lengthAdjust="spacingAndGlyphs" textLength="70" x="862.5" y="1469.3379">Error code</text><polygon fill="#A80036" points="125.5,1499.3906,115.5,1503.3906,125.5,1507.3906,121.5,1503.3906" style="stroke: #A80036; stroke-width: 1.0;"/><line style="stroke: #A80036; stroke-width: 1.0; stroke-dasharray: 2.0,2.0;" x1="119.5" x2="767.5" y1="1503.3906" y2="1503.3906"/><text fill="#000000" font-family="sans-serif" font-size="13" font-weight="bold" lengthAdjust="spacingAndGlyphs" textLength="18" x="131.5" y="1498.6484">23</text><text fill="#000000" font-family="sans-serif" font-size="13" lengthAdjust="spacingAndGlyphs" textLength="41" x="153.5" y="1498.6484">Return</text><text fill="#FF0000" font-family="sans-serif" font-size="13" font-weight="bold" lengthAdjust="spacingAndGlyphs" textLength="70" x="198.5" y="1498.6484">Error code</text><line style="stroke: #000000; stroke-width: 1.0; stroke-dasharray: 2.0,2.0;" x1="33" x2="1850" y1="1519.3906" y2="1519.3906"/><text fill="#000000" font-family="sans-serif" font-size="11" font-weight="bold" lengthAdjust="spacingAndGlyphs" textLength="186" x="38" y="1530.0254">[position or limit exists (failure)]</text><path d="M1121,1538.3457 L1121,1563.3457 L1176,1563.3457 L1176,1548.3457 L1166,1538.3457 L1121,1538.3457 " fill="#FF0000" filter="url(#fffmzlsfdauxc)" style="stroke: #A80036; stroke-width: 1.0;"/><path d="M1166,1538.3457 L1166,1548.3457 L1176,1548.3457 L1166,1538.3457 " fill="#FF0000" style="stroke: #A80036; stroke-width: 1.0;"/><text fill="#000000" font-family="sans-serif" font-size="13" lengthAdjust="spacingAndGlyphs" textLength="34" x="1127" y="1555.9141">Error!</text><path d="M1121,1577.6563 L1121,1694.6563 L1612,1694.6563 L1612,1587.6563 L1602,1577.6563 L1121,1577.6563 " fill="#FFFF00" filter="url(#fffmzlsfdauxc)" style="stroke: #A80036; stroke-width: 1.0;"/><path d="M1602,1577.6563 L1602,1587.6563 L1612,1587.6563 L1602,1577.6563 " fill="#FFFF00" style="stroke: #A80036; stroke-width: 1.0;"/><text fill="#000000" font-family="sans-serif" font-size="13" lengthAdjust="spacingAndGlyphs" textLength="58" x="1127" y="1595.2246">Message:</text><text fill="#000000" font-family="sans-serif" font-size="13" lengthAdjust="spacingAndGlyphs" textLength="4" x="1143" y="1610.5352">{</text><text fill="#000000" font-family="sans-serif" font-size="13" lengthAdjust="spacingAndGlyphs" textLength="126" x="1159" y="1625.8457">"errorInformation": {</text><text fill="#000000" font-family="sans-serif" font-size="13" lengthAdjust="spacingAndGlyphs" textLength="116" x="1175" y="1641.1563">"errorCode": 3200,</text><text fill="#000000" font-family="sans-serif" font-size="13" lengthAdjust="spacingAndGlyphs" textLength="422" x="1175" y="1656.4668">"errorDescription": "Participant Limit or Initial Position already set",</text><text fill="#000000" font-family="sans-serif" font-size="13" lengthAdjust="spacingAndGlyphs" textLength="4" x="1159" y="1671.7773">}</text><text fill="#000000" font-family="sans-serif" font-size="13" lengthAdjust="spacingAndGlyphs" textLength="4" x="1143" y="1687.0879">}</text><polygon fill="#A80036" points="789.5,1721.1406,779.5,1725.1406,789.5,1729.1406,785.5,1725.1406" style="stroke: #A80036; stroke-width: 1.0;"/><line style="stroke: #A80036; stroke-width: 1.0; stroke-dasharray: 2.0,2.0;" x1="783.5" x2="1105.5" y1="1725.1406" y2="1725.1406"/><text fill="#000000" font-family="sans-serif" font-size="13" font-weight="bold" lengthAdjust="spacingAndGlyphs" textLength="18" x="795.5" y="1720.3984">24</text><text fill="#000000" font-family="sans-serif" font-size="13" lengthAdjust="spacingAndGlyphs" textLength="41" x="817.5" y="1720.3984">Return</text><text fill="#FF0000" font-family="sans-serif" font-size="13" font-weight="bold" lengthAdjust="spacingAndGlyphs" textLength="73" x="862.5" y="1720.3984">Error code:</text><text fill="#FF0000" font-family="sans-serif" font-size="13" lengthAdjust="spacingAndGlyphs" textLength="32" x="939.5" y="1720.3984">3200</text><polygon fill="#A80036" points="125.5,1750.4512,115.5,1754.4512,125.5,1758.4512,121.5,1754.4512" style="stroke: #A80036; stroke-width: 1.0;"/><line style="stroke: #A80036; stroke-width: 1.0; stroke-dasharray: 2.0,2.0;" x1="119.5" x2="767.5" y1="1754.4512" y2="1754.4512"/><text fill="#000000" font-family="sans-serif" font-size="13" font-weight="bold" lengthAdjust="spacingAndGlyphs" textLength="18" x="131.5" y="1749.709">25</text><text fill="#000000" font-family="sans-serif" font-size="13" lengthAdjust="spacingAndGlyphs" textLength="41" x="153.5" y="1749.709">Return</text><text fill="#FF0000" font-family="sans-serif" font-size="13" font-weight="bold" lengthAdjust="spacingAndGlyphs" textLength="73" x="198.5" y="1749.709">Error code:</text><text fill="#FF0000" font-family="sans-serif" font-size="13" lengthAdjust="spacingAndGlyphs" textLength="32" x="275.5" y="1749.709">3200</text><line style="stroke: #000000; stroke-width: 1.0; stroke-dasharray: 2.0,2.0;" x1="23" x2="1860" y1="1770.4512" y2="1770.4512"/><text fill="#000000" font-family="sans-serif" font-size="11" font-weight="bold" lengthAdjust="spacingAndGlyphs" textLength="166" x="28" y="1781.0859">[Validate participant (failure)]</text><path d="M1121,1789.4063 L1121,1814.4063 L1253,1814.4063 L1253,1799.4063 L1243,1789.4063 L1121,1789.4063 " fill="#FF0000" filter="url(#fffmzlsfdauxc)" style="stroke: #A80036; stroke-width: 1.0;"/><path d="M1243,1789.4063 L1243,1799.4063 L1253,1799.4063 L1243,1789.4063 " fill="#FF0000" style="stroke: #A80036; stroke-width: 1.0;"/><text fill="#000000" font-family="sans-serif" font-size="13" lengthAdjust="spacingAndGlyphs" textLength="111" x="1127" y="1806.9746">Validation failure!</text><path d="M1121,1828.7168 L1121,1945.7168 L1432,1945.7168 L1432,1838.7168 L1422,1828.7168 L1121,1828.7168 " fill="#FFFF00" filter="url(#fffmzlsfdauxc)" style="stroke: #A80036; stroke-width: 1.0;"/><path d="M1422,1828.7168 L1422,1838.7168 L1432,1838.7168 L1422,1828.7168 " fill="#FFFF00" style="stroke: #A80036; stroke-width: 1.0;"/><text fill="#000000" font-family="sans-serif" font-size="13" lengthAdjust="spacingAndGlyphs" textLength="58" x="1127" y="1846.2852">Message:</text><text fill="#000000" font-family="sans-serif" font-size="13" lengthAdjust="spacingAndGlyphs" textLength="4" x="1143" y="1861.5957">{</text><text fill="#000000" font-family="sans-serif" font-size="13" lengthAdjust="spacingAndGlyphs" textLength="126" x="1159" y="1876.9063">"errorInformation": {</text><text fill="#000000" font-family="sans-serif" font-size="13" lengthAdjust="spacingAndGlyphs" textLength="116" x="1175" y="1892.2168">"errorCode": 3200,</text><text fill="#000000" font-family="sans-serif" font-size="13" lengthAdjust="spacingAndGlyphs" textLength="242" x="1175" y="1907.5273">"errorDescription": "FSP id Not Found",</text><text fill="#000000" font-family="sans-serif" font-size="13" lengthAdjust="spacingAndGlyphs" textLength="4" x="1159" y="1922.8379">}</text><text fill="#000000" font-family="sans-serif" font-size="13" lengthAdjust="spacingAndGlyphs" textLength="4" x="1143" y="1938.1484">}</text><polygon fill="#A80036" points="789.5,1972.2012,779.5,1976.2012,789.5,1980.2012,785.5,1976.2012" style="stroke: #A80036; stroke-width: 1.0;"/><line style="stroke: #A80036; stroke-width: 1.0; stroke-dasharray: 2.0,2.0;" x1="783.5" x2="1110.5" y1="1976.2012" y2="1976.2012"/><text fill="#000000" font-family="sans-serif" font-size="13" font-weight="bold" lengthAdjust="spacingAndGlyphs" textLength="18" x="795.5" y="1971.459">26</text><text fill="#000000" font-family="sans-serif" font-size="13" lengthAdjust="spacingAndGlyphs" textLength="41" x="817.5" y="1971.459">Return</text><text fill="#FF0000" font-family="sans-serif" font-size="13" font-weight="bold" lengthAdjust="spacingAndGlyphs" textLength="73" x="862.5" y="1971.459">Error code:</text><text fill="#FF0000" font-family="sans-serif" font-size="13" lengthAdjust="spacingAndGlyphs" textLength="32" x="939.5" y="1971.459">3200</text><polygon fill="#A80036" points="125.5,2001.5117,115.5,2005.5117,125.5,2009.5117,121.5,2005.5117" style="stroke: #A80036; stroke-width: 1.0;"/><line style="stroke: #A80036; stroke-width: 1.0; stroke-dasharray: 2.0,2.0;" x1="119.5" x2="767.5" y1="2005.5117" y2="2005.5117"/><text fill="#000000" font-family="sans-serif" font-size="13" font-weight="bold" lengthAdjust="spacingAndGlyphs" textLength="18" x="131.5" y="2000.7695">27</text><text fill="#000000" font-family="sans-serif" font-size="13" lengthAdjust="spacingAndGlyphs" textLength="41" x="153.5" y="2000.7695">Return</text><text fill="#FF0000" font-family="sans-serif" font-size="13" font-weight="bold" lengthAdjust="spacingAndGlyphs" textLength="73" x="198.5" y="2000.7695">Error code:</text><text fill="#FF0000" font-family="sans-serif" font-size="13" lengthAdjust="spacingAndGlyphs" textLength="32" x="275.5" y="2000.7695">3200</text><!--
@startuml
title 1.0.0 Create initial position and limits for Participant

autonumber



actor "HUB OPERATOR" as OPERATOR
boundary "Central Service API" as CSAPI
control "Participant Handler" as PARTICIPANT_HANDLER
entity "Central Service API" as CSAPI
entity "Participant FACADE" as PARTICIPANT_DAO
database "Central Store" as DB

box "Central Services" #LightYellow
participant CSAPI
participant PARTICIPANT_HANDLER
participant PARTICIPANT_DAO
participant DB
end box


activate OPERATOR
group Create initial position and limits
    OPERATOR -> CSAPI: Request to Create initial position and limits - POST - /paticipants/{name}/initialPositionAndLimits
    note right of OPERATOR #yellow
        Message:
        {
            currency: <currencyId>,
            limit: {
                type: <limitType>,
                value: <limitValue>
            },
            initialPosition: <positionValue>
        }
    end note

    activate CSAPI
    CSAPI -> PARTICIPANT_HANDLER: Create initial position and limits for Participant
    activate PARTICIPANT_HANDLER
    PARTICIPANT_HANDLER ->PARTICIPANT_DAO: Fetch Participant/ Currency Id \n<color #FF0000><b>Error code:</b> 3200</color>

    activate PARTICIPANT_DAO
    PARTICIPANT_DAO -> DB: Fetch Participant/Currency Id
    activate DB
    hnote over DB #lightyellow
        participant
        participantCurrency
    end note
    DB - -> PARTICIPANT_DAO: Retrieved Participant/Currency Id
    deactivate DB
    PARTICIPANT_DAO - -> PARTICIPANT_HANDLER: Return Participant/Currency Id
    deactivate PARTICIPANT_DAO
    PARTICIPANT_HANDLER ->PARTICIPANT_HANDLER: Validate DFSP
    alt Validate participant (success)
        PARTICIPANT_HANDLER ->PARTICIPANT_DAO: Fetch limit for participantCurrencyId
        activate PARTICIPANT_DAO
        PARTICIPANT_DAO -> DB: Fetch limit for participantCurrencyId
        activate DB
        hnote over DB #lightyellow
            participantLimit
        end note
        DB - -> PARTICIPANT_DAO: Retrieved participant limit
        deactivate DB
        PARTICIPANT_DAO - -> PARTICIPANT_HANDLER: Return participant limit
        deactivate PARTICIPANT_DAO

        PARTICIPANT_HANDLER ->PARTICIPANT_DAO: Fetch position for participantCurrencyId
        activate PARTICIPANT_DAO
        PARTICIPANT_DAO -> DB: Fetch position for participantCurrencyId
        activate DB
        hnote over DB #lightyellow
            participantPosition
        end note
        DB - -> PARTICIPANT_DAO: Retrieved participant position
        deactivate DB
        PARTICIPANT_DAO - -> PARTICIPANT_HANDLER: Return participant position
        deactivate PARTICIPANT_DAO
        
        PARTICIPANT_HANDLER ->PARTICIPANT_HANDLER: Participant position or limit exists check

        alt position or limit does not exist (success)


        PARTICIPANT_HANDLER ->PARTICIPANT_DAO: create initial position and limits for Participantt \n<color #FF0000><b>Error code:</b> 2003/<b>Msg:</b> Service unavailable </color> \n<color #FF0000><b>Error code:</b> 2001/<b>Msg:</b> Internal Server Error </color>
        activate PARTICIPANT_DAO
        PARTICIPANT_DAO -> DB: Persist Participant limits/position
        activate DB
        hnote over DB #lightyellow
            participantPosition
            participantLimit
        end note
        deactivate DB
        PARTICIPANT_DAO - -> PARTICIPANT_HANDLER: Return status
        deactivate PARTICIPANT_DAO
        alt Details persisted successfully
            PARTICIPANT_HANDLER - ->CSAPI: Return Status Code 201
            deactivate PARTICIPANT_HANDLER
            CSAPI - ->OPERATOR: Return Status Code 201
        else Details not persisted/Error
            note right of PARTICIPANT_HANDLER #red: Error!
            activate PARTICIPANT_HANDLER
            note right of PARTICIPANT_HANDLER #yellow
            Message:
                {
                    "errorInformation": {
                        "errorCode": <Error Code>,
                        "errorDescription": <Msg>,
                    }
                }
            end note
            PARTICIPANT_HANDLER - ->CSAPI: Return <color #FF0000><b>Error code</b></color>
            CSAPI - ->OPERATOR: Return <color #FF0000><b>Error code</b></color>
            
        end
        
        else position or limit exists (failure)
            note right of PARTICIPANT_HANDLER #red: Error!
            activate PARTICIPANT_HANDLER
            note right of PARTICIPANT_HANDLER #yellow
            Message:
                {
                    "errorInformation": {
                        "errorCode": 3200,
                        "errorDescription": "Participant Limit or Initial Position already set",
                    }
                }
            end note
            PARTICIPANT_HANDLER - ->CSAPI: Return <color #FF0000><b>Error code:</b> 3200</color>
            CSAPI - ->OPERATOR: Return <color #FF0000><b>Error code:</b> 3200</color>
        
        end

    else Validate participant (failure)
        note right of PARTICIPANT_HANDLER #red: Validation failure!
        activate PARTICIPANT_HANDLER
        note right of PARTICIPANT_HANDLER #yellow
            Message:
                {
                    "errorInformation": {
                        "errorCode": 3200,
                        "errorDescription": "FSP id Not Found",
                    }
                }
        end note
        PARTICIPANT_HANDLER - ->CSAPI: Return <color #FF0000><b>Error code:</b> 3200</color>
        deactivate PARTICIPANT_HANDLER
        CSAPI - ->OPERATOR: Return <color #FF0000><b>Error code:</b> 3200</color>

    end
    deactivate CSAPI
    deactivate OPERATOR
end
@enduml

PlantUML version 1.2018.05(Sat May 05 23:00:17 EEST 2018)
(GPL source distribution)
Java Runtime: Java(TM) SE Runtime Environment
JVM: Java HotSpot(TM) 64-Bit Server VM
Java Version: 1.8.0_131-b11
Operating System: Mac OS X
OS Version: 10.14.5
Default Encoding: UTF-8
Language: en
Country: US
--></g></svg>