<svg xmlns="http://www.w3.org/2000/svg" height="1589" preserveAspectRatio="none" style="width:1942px;height:1589px" width="1942">
  <defs>
    <filter height="300%" id="a" width="300%" x="-1" y="-1">
      <feGaussianBlur result="blurOut" stdDeviation="2"/>
      <feColorMatrix in="blurOut" result="blurOut2" values="0 0 0 0 0 0 0 0 0 0 0 0 0 0 0 0 0 0 .4 0"/>
      <feOffset dx="4" dy="4" in="blurOut2" result="blurOut3"/>
      <feBlend in="SourceGraphic" in2="blurOut3"/>
    </filter>
  </defs>
  <text font-family="sans-serif" font-size="18" lengthAdjust="spacingAndGlyphs" textLength="465" x="736.5" y="28.708">
    1.1.2.b. Position Handler Consume (batch messages)
  </text>
  <path fill="#FFFFE0" stroke="#a80036" d="M56 40.953h1815V1583.32H56z"/>
  <text font-family="sans-serif" font-size="13" font-weight="bold" lengthAdjust="spacingAndGlyphs" textLength="111" x="908" y="53.02">
    Central Service
  </text>
  <path fill="#FFF" filter="url(#a)" stroke="#a80036" d="M142 216.781h10v30h-10zM526 132.383h10v1375.641h-10zM1140 1456.023h10v30h-10zM1508 494.844h10v121.398h-10zM1508 729.641h10v121.398h-10zM1615 911.305h10v121.398h-10zM1814 523.977h10v30h-10zM1814 758.773h10v30h-10zM1814 940.438h10v30h-10z"/>
  <path fill="#FFF" filter="url(#a)" stroke="#000" stroke-width="2" d="M9 139.383h1919v1361.641H9z"/>
  <path fill="#FFF" filter="url(#a)" stroke="#000" stroke-width="2" d="M440.5 261.781H1314v156.664H440.5zM430.5 432.445H1918v1061.578H430.5z"/>
  <path fill="#FFF" filter="url(#a)" stroke="#000" stroke-width="2" d="M440.5 456.578H1891v402.461H440.5zM440.5 873.039H1908v167.664H440.5z"/>
  <path stroke="#a80036" stroke-dasharray="5,5" d="M147 122.383v1395.64M530.5 122.383v1395.64M1145 122.383v1395.64M1260 122.383v1395.64M1384 122.383v1395.64M1513 122.383v1395.64M1620 122.383v1395.64M1819 122.383v1395.64"/>
  <path fill="#FEFECE" filter="url(#a)" stroke="#a80036" stroke-width="1.5" d="M64 83.086h166v30.297H64z"/>
  <path fill="#FEFECE" filter="url(#a)" stroke="#a80036" stroke-width="1.5" d="M60 87.086h166v30.297H60z"/>
  <text font-family="sans-serif" font-size="14" lengthAdjust="spacingAndGlyphs" textLength="152" x="67" y="107.081">
    topic-transfer-position
  </text>
  <path fill="#FEFECE" filter="url(#a)" stroke="#a80036" stroke-width="1.5" d="M64 1517.023h166v30.297H64z"/>
  <path fill="#FEFECE" filter="url(#a)" stroke="#a80036" stroke-width="1.5" d="M60 1521.023h166v30.297H60z"/>
  <text font-family="sans-serif" font-size="14" lengthAdjust="spacingAndGlyphs" textLength="152" x="67" y="1541.019">
    topic-transfer-position
  </text>
  <text font-family="sans-serif" font-size="14" lengthAdjust="spacingAndGlyphs" textLength="155" x="450.5" y="119.081">
    Position Event Handler
  </text>
  <circle cx="531" cy="90.086" fill="#FEFECE" filter="url(#a)" stroke="#a80036" stroke-width="2" r="12"/>
  <path fill="#A80036" stroke="#a80036" d="M527 78.086l6-5-2 5 2 5-6-5z"/>
  <text font-family="sans-serif" font-size="14" lengthAdjust="spacingAndGlyphs" textLength="155" x="450.5" y="1530.019">
    Position Event Handler
  </text>
  <circle cx="531" cy="1549.32" fill="#FEFECE" filter="url(#a)" stroke="#a80036" stroke-width="2" r="12"/>
  <path fill="#A80036" stroke="#a80036" d="M527 1537.32l6-5-2 5 2 5-6-5z"/>
  <path fill="#FEFECE" filter="url(#a)" stroke="#a80036" stroke-width="1.5" d="M1088 83.086h114v30.297h-114z"/>
  <path fill="#FEFECE" filter="url(#a)" stroke="#a80036" stroke-width="1.5" d="M1084 87.086h114v30.297h-114z"/>
  <text font-family="sans-serif" font-size="14" lengthAdjust="spacingAndGlyphs" textLength="100" x="1091" y="107.081">
    Transfer-Topic
  </text>
  <path fill="#FEFECE" filter="url(#a)" stroke="#a80036" stroke-width="1.5" d="M1088 1517.023h114v30.297h-114z"/>
  <path fill="#FEFECE" filter="url(#a)" stroke="#a80036" stroke-width="1.5" d="M1084 1521.023h114v30.297h-114z"/>
  <text font-family="sans-serif" font-size="14" lengthAdjust="spacingAndGlyphs" textLength="100" x="1091" y="1541.019">
    Transfer-Topic
  </text>
  <text font-family="sans-serif" font-size="14" lengthAdjust="spacingAndGlyphs" textLength="82" x="1216" y="119.081">
    Event-Topic
  </text>
  <circle cx="1260" cy="90.086" fill="#FEFECE" filter="url(#a)" stroke="#a80036" stroke-width="2" r="12"/>
  <path stroke="#a80036" stroke-width="2" d="M1248 104.086h24"/>
  <text font-family="sans-serif" font-size="14" lengthAdjust="spacingAndGlyphs" textLength="82" x="1216" y="1530.019">
    Event-Topic
  </text>
  <circle cx="1260" cy="1549.32" fill="#FEFECE" filter="url(#a)" stroke="#a80036" stroke-width="2" r="12"/>
  <path stroke="#a80036" stroke-width="2" d="M1248 1563.32h24"/>
  <path fill="#FEFECE" filter="url(#a)" stroke="#a80036" stroke-width="1.5" d="M1318 83.086h133v30.297h-133z"/>
  <path fill="#FEFECE" filter="url(#a)" stroke="#a80036" stroke-width="1.5" d="M1314 87.086h133v30.297h-133z"/>
  <text font-family="sans-serif" font-size="14" lengthAdjust="spacingAndGlyphs" textLength="119" x="1321" y="107.081">
    Notification-Topic
  </text>
  <path fill="#FEFECE" filter="url(#a)" stroke="#a80036" stroke-width="1.5" d="M1318 1517.023h133v30.297h-133z"/>
  <path fill="#FEFECE" filter="url(#a)" stroke="#a80036" stroke-width="1.5" d="M1314 1521.023h133v30.297h-133z"/>
  <text font-family="sans-serif" font-size="14" lengthAdjust="spacingAndGlyphs" textLength="119" x="1321" y="1541.019">
    Notification-Topic
  </text>
  <text font-family="sans-serif" font-size="14" lengthAdjust="spacingAndGlyphs" textLength="90" x="1465" y="119.081">
    Position DAO
  </text>
  <circle cx="1513" cy="90.086" fill="#FEFECE" filter="url(#a)" stroke="#a80036" stroke-width="2" r="12"/>
  <path stroke="#a80036" stroke-width="2" d="M1501 104.086h24"/>
  <text font-family="sans-serif" font-size="14" lengthAdjust="spacingAndGlyphs" textLength="90" x="1465" y="1530.019">
    Position DAO
  </text>
  <circle cx="1513" cy="1549.32" fill="#FEFECE" filter="url(#a)" stroke="#a80036" stroke-width="2" r="12"/>
  <path stroke="#a80036" stroke-width="2" d="M1501 1563.32h24"/>
  <text font-family="sans-serif" font-size="14" lengthAdjust="spacingAndGlyphs" textLength="92" x="1571" y="119.081">
    Transfer DAO
  </text>
  <circle cx="1620" cy="90.086" fill="#FEFECE" filter="url(#a)" stroke="#a80036" stroke-width="2" r="12"/>
  <path stroke="#a80036" stroke-width="2" d="M1608 104.086h24"/>
  <text font-family="sans-serif" font-size="14" lengthAdjust="spacingAndGlyphs" textLength="92" x="1571" y="1530.019">
    Transfer DAO
  </text>
  <circle cx="1620" cy="1549.32" fill="#FEFECE" filter="url(#a)" stroke="#a80036" stroke-width="2" r="12"/>
  <path stroke="#a80036" stroke-width="2" d="M1608 1563.32h24"/>
  <text font-family="sans-serif" font-size="14" lengthAdjust="spacingAndGlyphs" textLength="90" x="1771" y="119.081">
    Central Store
  </text>
  <path d="M1801 70.086c0-10 18-10 18-10s18 0 18 10v26c0 10-18 10-18 10s-18 0-18-10v-26" fill="#FEFECE" filter="url(#a)" stroke="#000" stroke-width="1.5"/>
  <path d="M1801 70.086c0 10 18 10 18 10s18 0 18-10" fill="none" stroke="#000" stroke-width="1.5"/>
  <text font-family="sans-serif" font-size="14" lengthAdjust="spacingAndGlyphs" textLength="90" x="1771" y="1530.019">
    Central Store
  </text>
  <path d="M1801 1543.32c0-10 18-10 18-10s18 0 18 10v26c0 10-18 10-18 10s-18 0-18-10v-26" fill="#FEFECE" filter="url(#a)" stroke="#000" stroke-width="1.5"/>
  <path d="M1801 1543.32c0 10 18 10 18 10s18 0 18-10" fill="none" stroke="#000" stroke-width="1.5"/>
  <path fill="#FFF" filter="url(#a)" stroke="#a80036" d="M142 216.781h10v30h-10zM526 132.383h10v1375.641h-10zM1140 1456.023h10v30h-10zM1508 494.844h10v121.398h-10zM1508 729.641h10v121.398h-10zM1615 911.305h10v121.398h-10zM1814 523.977h10v30h-10zM1814 758.773h10v30h-10zM1814 940.438h10v30h-10z"/>
  <path d="M9 139.383h240v7l-10 10H9v-17" fill="#EEE" stroke="#000"/>
  <path fill="none" stroke="#000" stroke-width="2" d="M9 139.383h1919v1361.641H9z"/>
  <text font-family="sans-serif" font-size="13" font-weight="bold" lengthAdjust="spacingAndGlyphs" textLength="195" x="24" y="152.45">
    Position Handler Consume
  </text>
  <path d="M19 161.516v25h251v-15l-10-10H19" fill="#FFA07A" filter="url(#a)" stroke="#a80036"/>
  <path d="M260 161.516v10h10l-10-10" fill="#FFA07A" stroke="#a80036"/>
  <text font-family="sans-serif" font-size="13" lengthAdjust="spacingAndGlyphs" textLength="230" x="25" y="178.583">
    This flow has not been implemented
  </text>
  <path fill="#A80036" stroke="#a80036" d="M163 212.781l-10 4 10 4-4-4z"/>
  <path stroke="#a80036" d="M157 216.781h368"/>
  <text font-family="sans-serif" font-size="13" font-weight="bold" lengthAdjust="spacingAndGlyphs" textLength="9" x="169" y="211.715">
    1
  </text>
  <text font-family="sans-serif" font-size="13" lengthAdjust="spacingAndGlyphs" textLength="342" x="182" y="211.715">
    Consume Position event batch of messages for Payer
  </text>
  <path d="M440.5 261.781h232v7l-10 10h-222v-17" fill="#EEE" stroke="#000"/>
  <path fill="none" stroke="#000" stroke-width="2" d="M440.5 261.781H1314v156.664H440.5z"/>
  <text font-family="sans-serif" font-size="13" font-weight="bold" lengthAdjust="spacingAndGlyphs" textLength="187" x="455.5" y="274.848">
    Persist Event Information
  </text>
  <path fill="#A80036" stroke="#a80036" d="M1248 321.047l10 4-10 4 4-4z"/>
  <path stroke="#a80036" d="M536 325.047h718"/>
  <text font-family="sans-serif" font-size="13" font-weight="bold" lengthAdjust="spacingAndGlyphs" textLength="9" x="543" y="319.981">
    2
  </text>
  <text font-family="sans-serif" font-size="13" lengthAdjust="spacingAndGlyphs" textLength="162" x="556" y="319.981">
    Publish event information
  </text>
  <path fill="#FFF" filter="url(#a)" stroke="#000" stroke-width="2" d="M447.5 333.047H1303v55.398H447.5z"/>
  <path fill="#EEE" stroke="#000" stroke-width="2" d="M447.5 333.047h66v7l-10 10h-56v-17z"/>
  <text font-family="sans-serif" font-size="13" font-weight="bold" lengthAdjust="spacingAndGlyphs" textLength="21" x="460.5" y="347.114">
    ref
  </text>
  <text font-family="sans-serif" font-size="13" lengthAdjust="spacingAndGlyphs" textLength="155" x="799.75" y="366.114">
    Event Handler Consume
  </text>
  <path d="M430.5 432.445h77v7l-10 10h-67v-17" fill="#EEE" stroke="#000"/>
  <path fill="none" stroke="#000" stroke-width="2" d="M430.5 432.445H1918v1061.578H430.5z"/>
  <text font-family="sans-serif" font-size="13" font-weight="bold" lengthAdjust="spacingAndGlyphs" textLength="32" x="445.5" y="445.512">
    loop
  </text>
  <text font-family="sans-serif" font-size="11" font-weight="bold" lengthAdjust="spacingAndGlyphs" textLength="180" x="522.5" y="444.656">
    [for each message in batch]
  </text>
  <path d="M440.5 456.578h325v7l-10 10h-315v-17" fill="#EEE" stroke="#000"/>
  <path fill="none" stroke="#000" stroke-width="2" d="M440.5 456.578H1891v402.461H440.5z"/>
  <text font-family="sans-serif" font-size="13" font-weight="bold" lengthAdjust="spacingAndGlyphs" textLength="280" x="455.5" y="469.645">
    Calculate position and persist change
  </text>
  <path fill="#A80036" stroke="#a80036" d="M1496 490.844l10 4-10 4 4-4z"/>
  <path stroke="#a80036" d="M536 494.844h966"/>
  <text font-family="sans-serif" font-size="13" font-weight="bold" lengthAdjust="spacingAndGlyphs" textLength="9" x="543" y="489.778">
    3
  </text>
  <text font-family="sans-serif" font-size="13" lengthAdjust="spacingAndGlyphs" textLength="264" x="556" y="489.778">
    Request latest position from DB for Payer
  </text>
  <path fill="#A80036" stroke="#a80036" d="M1802 519.977l10 4-10 4 4-4z"/>
  <path stroke="#a80036" d="M1518 523.977h290"/>
  <text font-family="sans-serif" font-size="13" font-weight="bold" lengthAdjust="spacingAndGlyphs" textLength="9" x="1525" y="518.911">
    4
  </text>
  <text font-family="sans-serif" font-size="13" lengthAdjust="spacingAndGlyphs" textLength="264" x="1538" y="518.911">
    Retrieve latest position from DB for Payer
  </text>
  <path fill="#FFFFE0" filter="url(#a)" stroke="#a80036" d="M1767 566.977h104l10 11-10 12h-104l-10-12 10-11z"/>
  <text font-family="sans-serif" font-size="13" lengthAdjust="spacingAndGlyphs" textLength="100" x="1769" y="583.043">
    transferPosition
  </text>
  <path fill="#A80036" stroke="#a80036" d="M547 612.242l-10 4 10 4-4-4z"/>
  <path stroke="#a80036" stroke-dasharray="2,2" d="M541 616.242h971"/>
  <text font-family="sans-serif" font-size="13" font-weight="bold" lengthAdjust="spacingAndGlyphs" textLength="9" x="553" y="611.176">
    5
  </text>
  <text font-family="sans-serif" font-size="13" lengthAdjust="spacingAndGlyphs" textLength="136" x="566" y="611.176">
    Return latest position
  </text>
  <path stroke="#a80036" d="M536 645.375h42M578 645.375v13M537 658.375h41"/>
  <path fill="#A80036" stroke="#a80036" d="M547 654.375l-10 4 10 4-4-4z"/>
  <text font-family="sans-serif" font-size="13" font-weight="bold" lengthAdjust="spacingAndGlyphs" textLength="9" x="543" y="640.309">
    6
  </text>
  <text font-family="sans-serif" font-size="13" lengthAdjust="spacingAndGlyphs" textLength="429" x="556" y="640.309">
    Calculate latest position (lpos) by incrementing transfer for prepare
  </text>
  <path stroke="#a80036" d="M536 687.508h42M578 687.508v13M537 700.508h41"/>
  <path fill="#A80036" stroke="#a80036" d="M547 696.508l-10 4 10 4-4-4z"/>
  <text font-family="sans-serif" font-size="13" font-weight="bold" lengthAdjust="spacingAndGlyphs" textLength="9" x="543" y="682.442">
    7
  </text>
  <text font-family="sans-serif" font-size="13" lengthAdjust="spacingAndGlyphs" textLength="577" x="556" y="682.442">
    Validate Calculated latest position against the net-debit cap (netcap) - Rule: lpos &lt; netcap
  </text>
  <path fill="#A80036" stroke="#a80036" d="M1496 725.64l10 4-10 4 4-4z"/>
  <path stroke="#a80036" d="M536 729.641h966"/>
  <text font-family="sans-serif" font-size="13" font-weight="bold" lengthAdjust="spacingAndGlyphs" textLength="9" x="543" y="724.575">
    8
  </text>
  <text font-family="sans-serif" font-size="13" lengthAdjust="spacingAndGlyphs" textLength="271" x="556" y="724.575">
    Request to persist latest position for Payer
  </text>
  <path fill="#A80036" stroke="#a80036" d="M1802 754.773l10 4-10 4 4-4z"/>
  <path stroke="#a80036" d="M1518 758.773h290"/>
  <text font-family="sans-serif" font-size="13" font-weight="bold" lengthAdjust="spacingAndGlyphs" textLength="9" x="1525" y="753.707">
    9
  </text>
  <text font-family="sans-serif" font-size="13" lengthAdjust="spacingAndGlyphs" textLength="238" x="1538" y="753.707">
    Persist latest position to DB for Payer
  </text>
  <path fill="#FFFFE0" filter="url(#a)" stroke="#a80036" d="M1767 801.773h104l10 11-10 12h-104l-10-12 10-11z"/>
  <text font-family="sans-serif" font-size="13" lengthAdjust="spacingAndGlyphs" textLength="100" x="1769" y="817.84">
    transferPosition
  </text>
  <path fill="#A80036" stroke="#a80036" d="M547 847.04l-10 4 10 4-4-4z"/>
  <path stroke="#a80036" stroke-dasharray="2,2" d="M541 851.039h971"/>
  <text font-family="sans-serif" font-size="13" font-weight="bold" lengthAdjust="spacingAndGlyphs" textLength="18" x="553" y="845.973">
    10
  </text>
  <text font-family="sans-serif" font-size="13" lengthAdjust="spacingAndGlyphs" textLength="97" x="575" y="845.973">
    Return success
  </text>
  <path d="M440.5 873.04h628v7l-10 10h-618v-17" fill="#EEE" stroke="#000"/>
  <path fill="none" stroke="#000" stroke-width="2" d="M440.5 873.039H1908v167.664H440.5z"/>
  <text font-family="sans-serif" font-size="13" font-weight="bold" lengthAdjust="spacingAndGlyphs" textLength="583" x="455.5" y="886.106">
    Persist Transfer State (with transferState=&apos;RESERVED&apos; on position check pass)
  </text>
  <path fill="#A80036" stroke="#a80036" d="M1603 907.305l10 4-10 4 4-4z"/>
  <path stroke="#a80036" d="M536 911.305h1073"/>
  <text font-family="sans-serif" font-size="13" font-weight="bold" lengthAdjust="spacingAndGlyphs" textLength="18" x="543" y="906.239">
    11
  </text>
  <text font-family="sans-serif" font-size="13" lengthAdjust="spacingAndGlyphs" textLength="210" x="565" y="906.239">
    Request to persist batch transfer
  </text>
  <path fill="#A80036" stroke="#a80036" d="M1802 936.438l10 4-10 4 4-4z"/>
  <path stroke="#a80036" d="M1625 940.438h183"/>
  <text font-family="sans-serif" font-size="13" font-weight="bold" lengthAdjust="spacingAndGlyphs" textLength="18" x="1632" y="935.372">
    12
  </text>
  <text font-family="sans-serif" font-size="13" lengthAdjust="spacingAndGlyphs" textLength="137" x="1654" y="935.372">
    Persist batch transfer
  </text>
  <path fill="#FFFFE0" filter="url(#a)" stroke="#a80036" d="M1750 983.438h138l10 11-10 12h-138l-10-12 10-11z"/>
  <text font-family="sans-serif" font-size="13" lengthAdjust="spacingAndGlyphs" textLength="134" x="1752" y="999.504">
    transferStateChange
  </text>
  <path fill="#A80036" stroke="#a80036" d="M547 1028.703l-10 4 10 4-4-4z"/>
  <path stroke="#a80036" stroke-dasharray="2,2" d="M541 1032.703h1078"/>
  <text font-family="sans-serif" font-size="13" font-weight="bold" lengthAdjust="spacingAndGlyphs" textLength="18" x="553" y="1027.637">
    13
  </text>
  <text font-family="sans-serif" font-size="13" lengthAdjust="spacingAndGlyphs" textLength="97" x="575" y="1027.637">
    Return success
  </text>
  <path d="M541 1052.703v373h270v-363l-10-10H541" fill="#FF0" filter="url(#a)" stroke="#a80036"/>
  <path d="M801 1052.703v10h10l-10-10" fill="#FF0" stroke="#a80036"/>
  <text font-family="sans-serif" font-size="13" lengthAdjust="spacingAndGlyphs" textLength="61" x="547" y="1069.77">
    Message:
  </text>
  <text font-family="sans-serif" font-size="13" lengthAdjust="spacingAndGlyphs" textLength="8" x="547" y="1084.903">
    {
  </text>
  <text font-family="sans-serif" font-size="13" lengthAdjust="spacingAndGlyphs" textLength="213" x="563" y="1100.036">
    id: &lt;transferMessage.transferId&gt;
  </text>
  <text font-family="sans-serif" font-size="13" lengthAdjust="spacingAndGlyphs" textLength="233" x="563" y="1115.168">
    from: &lt;transferMessage.payerFsp&gt;,
  </text>
  <text font-family="sans-serif" font-size="13" lengthAdjust="spacingAndGlyphs" textLength="219" x="563" y="1130.301">
    to: &lt;transferMessage.payeeFsp&gt;,
  </text>
  <text font-family="sans-serif" font-size="13" lengthAdjust="spacingAndGlyphs" textLength="135" x="563" y="1145.434">
    type: application/json
  </text>
  <text font-family="sans-serif" font-size="13" lengthAdjust="spacingAndGlyphs" textLength="65" x="563" y="1160.567">
    content: {
  </text>
  <text font-family="sans-serif" font-size="13" lengthAdjust="spacingAndGlyphs" textLength="190" x="579" y="1175.7">
    headers: &lt;transferHeaders&gt;,
  </text>
  <text font-family="sans-serif" font-size="13" lengthAdjust="spacingAndGlyphs" textLength="187" x="579" y="1190.832">
    payload: &lt;transferMessage&gt;
  </text>
  <text font-family="sans-serif" font-size="13" lengthAdjust="spacingAndGlyphs" textLength="12" x="563" y="1205.965">
    },
  </text>
  <text font-family="sans-serif" font-size="13" lengthAdjust="spacingAndGlyphs" textLength="79" x="563" y="1221.098">
    metadata: {
  </text>
  <text font-family="sans-serif" font-size="13" lengthAdjust="spacingAndGlyphs" textLength="52" x="579" y="1236.231">
    event: {
  </text>
  <text font-family="sans-serif" font-size="13" lengthAdjust="spacingAndGlyphs" textLength="72" x="595" y="1251.364">
    id: &lt;uuid&gt;,
  </text>
  <text font-family="sans-serif" font-size="13" lengthAdjust="spacingAndGlyphs" textLength="193" x="595" y="1266.497">
    responseTo: &lt;previous.uuid&gt;,
  </text>
  <text font-family="sans-serif" font-size="13" lengthAdjust="spacingAndGlyphs" textLength="90" x="595" y="1281.629">
    type: transfer,
  </text>
  <text font-family="sans-serif" font-size="13" lengthAdjust="spacingAndGlyphs" textLength="101" x="595" y="1296.762">
    action: prepare,
  </text>
  <text font-family="sans-serif" font-size="13" lengthAdjust="spacingAndGlyphs" textLength="167" x="595" y="1311.895">
    createdAt: &lt;timestamp&gt;,
  </text>
  <text font-family="sans-serif" font-size="13" lengthAdjust="spacingAndGlyphs" textLength="49" x="595" y="1327.028">
    state: {
  </text>
  <text font-family="sans-serif" font-size="13" lengthAdjust="spacingAndGlyphs" textLength="113" x="611" y="1342.161">
    status: &quot;success&quot;,
  </text>
  <text font-family="sans-serif" font-size="13" lengthAdjust="spacingAndGlyphs" textLength="47" x="611" y="1357.293">
    code: 0
  </text>
  <text font-family="sans-serif" font-size="13" lengthAdjust="spacingAndGlyphs" textLength="8" x="595" y="1372.426">
    }
  </text>
  <text font-family="sans-serif" font-size="13" lengthAdjust="spacingAndGlyphs" textLength="8" x="579" y="1387.559">
    }
  </text>
  <text font-family="sans-serif" font-size="13" lengthAdjust="spacingAndGlyphs" textLength="8" x="563" y="1402.692">
    }
  </text>
  <text font-family="sans-serif" font-size="13" lengthAdjust="spacingAndGlyphs" textLength="8" x="547" y="1417.825">
    }
  </text>
  <path fill="#A80036" stroke="#a80036" d="M1128 1452.023l10 4-10 4 4-4z"/>
  <path stroke="#a80036" d="M536 1456.023h598"/>
  <text font-family="sans-serif" font-size="13" font-weight="bold" lengthAdjust="spacingAndGlyphs" textLength="18" x="543" y="1450.957">
    14
  </text>
  <text font-family="sans-serif" font-size="13" lengthAdjust="spacingAndGlyphs" textLength="141" x="565" y="1450.957">
    Publish Transfer event
  </text>
</svg>
