<svg xmlns="http://www.w3.org/2000/svg" height="1649" preserveAspectRatio="none" style="width:1522px;height:1649px" width="1522">
  <defs>
    <filter height="300%" id="a" width="300%" x="-1" y="-1">
      <feGaussianBlur result="blurOut" stdDeviation="2"/>
      <feColorMatrix in="blurOut" result="blurOut2" values="0 0 0 0 0 0 0 0 0 0 0 0 0 0 0 0 0 0 .4 0"/>
      <feOffset dx="4" dy="4" in="blurOut2" result="blurOut3"/>
      <feBlend in="SourceGraphic" in2="blurOut3"/>
    </filter>
  </defs>
  <text font-family="sans-serif" font-size="18" lengthAdjust="spacingAndGlyphs" textLength="330" x="594" y="28.708">
    3.1.0 Add Participant Callback Details
  </text>
  <path fill="#FFFFE0" stroke="#a80036" d="M526 40.953h940v1602.773H526z"/>
  <text font-family="sans-serif" font-size="13" font-weight="bold" lengthAdjust="spacingAndGlyphs" textLength="119" x="936.5" y="53.02">
    Central Services
  </text>
  <path fill="#FFF" filter="url(#a)" stroke="#a80036" d="M94 133.25h10v1407.18H94zM592 178.516h10V1540.43h-10zM855 367.844h10v637.188h-10zM855 1034.164h10v462.133h-10zM1192 412.109h10V532.64h-10zM1192 658.305h10v251.328h-10zM1409 441.242h10v62.266h-10zM1409 687.438h10v30h-10z"/>
  <path fill="#FFF" filter="url(#a)" stroke="#000" stroke-width="2" d="M10 140.25h1498v1400.18H10z"/>
  <path fill="#FFF" filter="url(#a)" stroke="#000" stroke-width="2" d="M20 589.773h1478v943.656H20z"/>
  <path fill="#FFF" filter="url(#a)" stroke="#000" stroke-width="2" d="M30 966.766h1099v317.531H30z"/>
  <path fill="#FFF" d="M30 1042.164h1099v242.133H30zM20 1291.297h1478v242.133H20z"/>
  <path stroke="#a80036" stroke-dasharray="5,5" d="M99 123.25v1434.18M597 123.25v1434.18M859.5 123.25v1434.18M1196.5 123.25v1434.18M1414 123.25v1434.18"/>
  <text font-family="sans-serif" font-size="14" lengthAdjust="spacingAndGlyphs" textLength="112" x="40" y="119.948">
    HUB OPERATOR
  </text>
  <circle cx="99" cy="49.953" fill="#FEFECE" filter="url(#a)" stroke="#a80036" stroke-width="2" r="8"/>
  <path d="M99 57.953v27m-13-19h26m-13 19l-13 15m13-15l13 15" fill="none" filter="url(#a)" stroke="#a80036" stroke-width="2"/>
  <text font-family="sans-serif" font-size="14" lengthAdjust="spacingAndGlyphs" textLength="112" x="40" y="1569.425">
    HUB OPERATOR
  </text>
  <circle cx="99" cy="1582.727" fill="#FEFECE" filter="url(#a)" stroke="#a80036" stroke-width="2" r="8"/>
  <path d="M99 1590.727v27m-13-19h26m-13 19l-13 15m13-15l13 15" fill="none" filter="url(#a)" stroke="#a80036" stroke-width="2"/>
  <text font-family="sans-serif" font-size="14" lengthAdjust="spacingAndGlyphs" textLength="128" x="530" y="119.948">
    Central Service API
  </text>
  <path d="M576.5 78.953v24m0-12h17" fill="none" filter="url(#a)" stroke="#a80036" stroke-width="2"/>
  <circle cx="605.5" cy="90.953" fill="#FEFECE" filter="url(#a)" stroke="#a80036" stroke-width="2" r="12"/>
  <text font-family="sans-serif" font-size="14" lengthAdjust="spacingAndGlyphs" textLength="128" x="530" y="1569.425">
    Central Service API
  </text>
  <path d="M576.5 1576.727v24m0-12h17" fill="none" filter="url(#a)" stroke="#a80036" stroke-width="2"/>
  <circle cx="605.5" cy="1588.727" fill="#FEFECE" filter="url(#a)" stroke="#a80036" stroke-width="2" r="12"/>
  <text font-family="sans-serif" font-size="14" lengthAdjust="spacingAndGlyphs" textLength="129" x="792.5" y="119.948">
    Participant Handler
  </text>
  <circle cx="860" cy="90.953" fill="#FEFECE" filter="url(#a)" stroke="#a80036" stroke-width="2" r="12"/>
  <path fill="#A80036" stroke="#a80036" d="M856 78.953l6-5-2 5 2 5-6-5z"/>
  <text font-family="sans-serif" font-size="14" lengthAdjust="spacingAndGlyphs" textLength="129" x="792.5" y="1569.425">
    Participant Handler
  </text>
  <circle cx="860" cy="1588.727" fill="#FEFECE" filter="url(#a)" stroke="#a80036" stroke-width="2" r="12"/>
  <path fill="#A80036" stroke="#a80036" d="M856 1576.727l6-5-2 5 2 5-6-5z"/>
  <text font-family="sans-serif" font-size="14" lengthAdjust="spacingAndGlyphs" textLength="107" x="1140.5" y="119.948">
    Participant DAO
  </text>
  <circle cx="1197" cy="90.953" fill="#FEFECE" filter="url(#a)" stroke="#a80036" stroke-width="2" r="12"/>
  <path stroke="#a80036" stroke-width="2" d="M1185 104.953h24"/>
  <text font-family="sans-serif" font-size="14" lengthAdjust="spacingAndGlyphs" textLength="107" x="1140.5" y="1569.425">
    Participant DAO
  </text>
  <circle cx="1197" cy="1588.727" fill="#FEFECE" filter="url(#a)" stroke="#a80036" stroke-width="2" r="12"/>
  <path stroke="#a80036" stroke-width="2" d="M1185 1602.727h24"/>
  <text font-family="sans-serif" font-size="14" lengthAdjust="spacingAndGlyphs" textLength="90" x="1366" y="119.948">
    Central Store
  </text>
  <path d="M1396 70.953c0-10 18-10 18-10s18 0 18 10v26c0 10-18 10-18 10s-18 0-18-10v-26" fill="#FEFECE" filter="url(#a)" stroke="#000" stroke-width="1.5"/>
  <path d="M1396 70.953c0 10 18 10 18 10s18 0 18-10" fill="none" stroke="#000" stroke-width="1.5"/>
  <text font-family="sans-serif" font-size="14" lengthAdjust="spacingAndGlyphs" textLength="90" x="1366" y="1569.425">
    Central Store
  </text>
  <path d="M1396 1582.727c0-10 18-10 18-10s18 0 18 10v26c0 10-18 10-18 10s-18 0-18-10v-26" fill="#FEFECE" filter="url(#a)" stroke="#000" stroke-width="1.5"/>
  <path d="M1396 1582.727c0 10 18 10 18 10s18 0 18-10" fill="none" stroke="#000" stroke-width="1.5"/>
  <path fill="#FFF" filter="url(#a)" stroke="#a80036" d="M94 133.25h10v1407.18H94zM592 178.516h10V1540.43h-10zM855 367.844h10v637.188h-10zM855 1034.164h10v462.133h-10zM1192 412.109h10V532.64h-10zM1192 658.305h10v251.328h-10zM1409 441.242h10v62.266h-10zM1409 687.438h10v30h-10z"/>
  <path d="M10 140.25h199v7l-10 10H10v-17" fill="#EEE" stroke="#000"/>
  <path fill="none" stroke="#000" stroke-width="2" d="M10 140.25h1498v1400.18H10z"/>
  <text font-family="sans-serif" font-size="13" font-weight="bold" lengthAdjust="spacingAndGlyphs" textLength="154" x="25" y="153.317">
    Add Callback Details
  </text>
  <path fill="#A80036" stroke="#a80036" d="M580 174.516l10 4-10 4 4-4z"/>
  <path stroke="#a80036" d="M104 178.516h482"/>
  <text font-family="sans-serif" font-size="13" font-weight="bold" lengthAdjust="spacingAndGlyphs" textLength="9" x="111" y="173.45">
    1
  </text>
  <text font-family="sans-serif" font-size="13" lengthAdjust="spacingAndGlyphs" textLength="456" x="124" y="173.45">
    Request to add callback details - POST - /paticipants/{name}/endpoints
  </text>
  <path d="M109 191.516v146h225v-136l-10-10H109" fill="#FF0" filter="url(#a)" stroke="#a80036"/>
  <path d="M324 191.516v10h10l-10-10" fill="#FF0" stroke="#a80036"/>
  <text font-family="sans-serif" font-size="13" lengthAdjust="spacingAndGlyphs" textLength="61" x="115" y="208.583">
    Message:
  </text>
  <text font-family="sans-serif" font-size="13" lengthAdjust="spacingAndGlyphs" textLength="8" x="115" y="223.715">
    {
  </text>
  <text font-family="sans-serif" font-size="13" lengthAdjust="spacingAndGlyphs" textLength="66" x="131" y="238.848">
    payload: {
  </text>
  <text font-family="sans-serif" font-size="13" lengthAdjust="spacingAndGlyphs" textLength="72" x="147" y="253.981">
    endpoint: {
  </text>
  <text font-family="sans-serif" font-size="13" lengthAdjust="spacingAndGlyphs" textLength="126" x="163" y="269.114">
    type: &lt;typeValue&gt;,
  </text>
  <text font-family="sans-serif" font-size="13" lengthAdjust="spacingAndGlyphs" textLength="156" x="163" y="284.247">
    value: &lt;endpointValue&gt;
  </text>
  <text font-family="sans-serif" font-size="13" lengthAdjust="spacingAndGlyphs" textLength="8" x="143" y="299.379">
    }
  </text>
  <text font-family="sans-serif" font-size="13" lengthAdjust="spacingAndGlyphs" textLength="8" x="131" y="314.512">
    }
  </text>
  <text font-family="sans-serif" font-size="13" lengthAdjust="spacingAndGlyphs" textLength="8" x="115" y="329.645">
    }
  </text>
  <path fill="#A80036" stroke="#a80036" d="M843 363.844l10 4-10 4 4-4z"/>
  <path stroke="#a80036" d="M602 367.844h247"/>
  <text font-family="sans-serif" font-size="13" font-weight="bold" lengthAdjust="spacingAndGlyphs" textLength="9" x="609" y="362.778">
    2
  </text>
  <text font-family="sans-serif" font-size="13" lengthAdjust="spacingAndGlyphs" textLength="221" x="622" y="362.778">
    Add Callback details for Participant
  </text>
  <path fill="#A80036" stroke="#a80036" d="M1180 408.11l10 4-10 4 4-4z"/>
  <path stroke="#a80036" d="M865 412.109h321"/>
  <text font-family="sans-serif" font-size="13" font-weight="bold" lengthAdjust="spacingAndGlyphs" textLength="9" x="872" y="399.477">
    3
  </text>
  <text font-family="sans-serif" font-size="13" lengthAdjust="spacingAndGlyphs" textLength="107" x="885" y="391.911">
    Fetch Participant
  </text>
  <text fill="red" font-family="sans-serif" font-size="13" font-weight="bold" lengthAdjust="spacingAndGlyphs" textLength="82" x="885" y="407.043">
    Error code:
  </text>
  <text fill="red" font-family="sans-serif" font-size="13" lengthAdjust="spacingAndGlyphs" textLength="32" x="971" y="407.043">
    3200
  </text>
  <path fill="#A80036" stroke="#a80036" d="M1397 437.242l10 4-10 4 4-4z"/>
  <path stroke="#a80036" d="M1202 441.242h201"/>
  <text font-family="sans-serif" font-size="13" font-weight="bold" lengthAdjust="spacingAndGlyphs" textLength="9" x="1209" y="436.176">
    4
  </text>
  <text font-family="sans-serif" font-size="13" lengthAdjust="spacingAndGlyphs" textLength="107" x="1222" y="436.176">
    Fetch Participant
  </text>
  <path fill="#FFFFE0" filter="url(#a)" stroke="#a80036" d="M1378 454.242h72l10 11-10 12h-72l-10-12 10-11z"/>
  <text font-family="sans-serif" font-size="13" lengthAdjust="spacingAndGlyphs" textLength="68" x="1380" y="470.309">
    participant
  </text>
  <path fill="#A80036" stroke="#a80036" d="M1213 499.508l-10 4 10 4-4-4z"/>
  <path stroke="#a80036" stroke-dasharray="2,2" d="M1207 503.508h206"/>
  <text font-family="sans-serif" font-size="13" font-weight="bold" lengthAdjust="spacingAndGlyphs" textLength="9" x="1219" y="498.442">
    5
  </text>
  <text font-family="sans-serif" font-size="13" lengthAdjust="spacingAndGlyphs" textLength="132" x="1232" y="498.442">
    Retrieved Participant
  </text>
  <path fill="#A80036" stroke="#a80036" d="M876 528.64l-10 4 10 4-4-4z"/>
  <path stroke="#a80036" stroke-dasharray="2,2" d="M870 532.641h326"/>
  <text font-family="sans-serif" font-size="13" font-weight="bold" lengthAdjust="spacingAndGlyphs" textLength="9" x="882" y="527.575">
    6
  </text>
  <text font-family="sans-serif" font-size="13" lengthAdjust="spacingAndGlyphs" textLength="114" x="895" y="527.575">
    Return Participant
  </text>
  <path stroke="#a80036" d="M865 561.773h42M907 561.773v13M866 574.773h41"/>
  <path fill="#A80036" stroke="#a80036" d="M876 570.773l-10 4 10 4-4-4z"/>
  <text font-family="sans-serif" font-size="13" font-weight="bold" lengthAdjust="spacingAndGlyphs" textLength="9" x="872" y="556.707">
    7
  </text>
  <text font-family="sans-serif" font-size="13" lengthAdjust="spacingAndGlyphs" textLength="90" x="885" y="556.707">
    Validate DFSP
  </text>
  <path d="M20 589.773h64v7l-10 10H20v-17" fill="#EEE" stroke="#000"/>
  <path fill="none" stroke="#000" stroke-width="2" d="M20 589.773h1478v943.656H20z"/>
  <text font-family="sans-serif" font-size="13" font-weight="bold" lengthAdjust="spacingAndGlyphs" textLength="19" x="35" y="602.84">
    alt
  </text>
  <text font-family="sans-serif" font-size="11" font-weight="bold" lengthAdjust="spacingAndGlyphs" textLength="202" x="99" y="601.984">
    [Validate participant (success)]
  </text>
  <path fill="#A80036" stroke="#a80036" d="M1180 654.305l10 4-10 4 4-4z"/>
  <path stroke="#a80036" d="M865 658.305h321"/>
  <text font-family="sans-serif" font-size="13" font-weight="bold" lengthAdjust="spacingAndGlyphs" textLength="9" x="872" y="638.106">
    8
  </text>
  <text font-family="sans-serif" font-size="13" lengthAdjust="spacingAndGlyphs" textLength="221" x="885" y="622.973">
    Add Callback details for Participant
  </text>
  <text fill="red" font-family="sans-serif" font-size="13" font-weight="bold" lengthAdjust="spacingAndGlyphs" textLength="82" x="885" y="638.106">
    Error code:
  </text>
  <text fill="red" font-family="sans-serif" font-size="13" lengthAdjust="spacingAndGlyphs" textLength="36" x="971" y="638.106">
    2003/
  </text>
  <text fill="red" font-family="sans-serif" font-size="13" font-weight="bold" lengthAdjust="spacingAndGlyphs" textLength="36" x="1007" y="638.106">
    Msg:
  </text>
  <text fill="red" font-family="sans-serif" font-size="13" lengthAdjust="spacingAndGlyphs" textLength="123" x="1047" y="638.106">
    Service unavailable
  </text>
  <text fill="red" font-family="sans-serif" font-size="13" font-weight="bold" lengthAdjust="spacingAndGlyphs" textLength="82" x="885" y="653.239">
    Error code:
  </text>
  <text fill="red" font-family="sans-serif" font-size="13" lengthAdjust="spacingAndGlyphs" textLength="36" x="971" y="653.239">
    2001/
  </text>
  <text fill="red" font-family="sans-serif" font-size="13" font-weight="bold" lengthAdjust="spacingAndGlyphs" textLength="36" x="1007" y="653.239">
    Msg:
  </text>
  <text fill="red" font-family="sans-serif" font-size="13" lengthAdjust="spacingAndGlyphs" textLength="129" x="1047" y="653.239">
    Internal Server Error
  </text>
  <path fill="#A80036" stroke="#a80036" d="M1397 683.438l10 4-10 4 4-4z"/>
  <path stroke="#a80036" d="M1202 687.438h201"/>
  <text font-family="sans-serif" font-size="13" font-weight="bold" lengthAdjust="spacingAndGlyphs" textLength="9" x="1209" y="682.372">
    9
  </text>
  <text font-family="sans-serif" font-size="13" lengthAdjust="spacingAndGlyphs" textLength="175" x="1222" y="682.372">
    Persist Participant Endpoint
  </text>
  <path fill="#FFFFE0" filter="url(#a)" stroke="#a80036" d="M1350 730.438h128l10 11-10 12h-128l-10-12 10-11z"/>
  <text font-family="sans-serif" font-size="13" lengthAdjust="spacingAndGlyphs" textLength="124" x="1352" y="746.504">
    participantEndpoint
  </text>
  <path d="M1207 763.57v115h245v-105l-10-10h-235" fill="#D3D3D3" filter="url(#a)" stroke="#a80036"/>
  <path d="M1442 763.57v10h10l-10-10" fill="#D3D3D3" stroke="#a80036"/>
  <text font-family="sans-serif" font-size="13" lengthAdjust="spacingAndGlyphs" textLength="224" x="1213" y="780.637">
    If (endpoint exists &amp;&amp; isActive = 1)
  </text>
  <text font-family="sans-serif" font-size="13" lengthAdjust="spacingAndGlyphs" textLength="155" x="1229" y="795.77">
    oldEndpoint.isActive = 0
  </text>
  <text font-family="sans-serif" font-size="13" lengthAdjust="spacingAndGlyphs" textLength="96" x="1229" y="810.903">
    insert endpoint
  </text>
  <text font-family="sans-serif" font-size="13" lengthAdjust="spacingAndGlyphs" textLength="26" x="1213" y="826.036">
    Else
  </text>
  <text font-family="sans-serif" font-size="13" lengthAdjust="spacingAndGlyphs" textLength="96" x="1229" y="841.168">
    insert endpoint
  </text>
  <text font-family="sans-serif" font-size="13" lengthAdjust="spacingAndGlyphs" textLength="24" x="1213" y="856.301">
    End
  </text>
  <path fill="#A80036" stroke="#a80036" d="M876 905.633l-10 4 10 4-4-4z"/>
  <path stroke="#a80036" stroke-dasharray="2,2" d="M870 909.633h326"/>
  <text font-family="sans-serif" font-size="13" font-weight="bold" lengthAdjust="spacingAndGlyphs" textLength="18" x="882" y="904.567">
    10
  </text>
  <text font-family="sans-serif" font-size="13" lengthAdjust="spacingAndGlyphs" textLength="86" x="904" y="904.567">
    Return status
  </text>
  <path stroke="#a80036" d="M865 938.766h42M907 938.766v13M866 951.766h41"/>
  <path fill="#A80036" stroke="#a80036" d="M876 947.766l-10 4 10 4-4-4z"/>
  <text font-family="sans-serif" font-size="13" font-weight="bold" lengthAdjust="spacingAndGlyphs" textLength="18" x="872" y="933.7">
    11
  </text>
  <text font-family="sans-serif" font-size="13" lengthAdjust="spacingAndGlyphs" textLength="96" x="894" y="933.7">
    Validate status
  </text>
  <path d="M30 966.766h64v7l-10 10H30v-17" fill="#EEE" stroke="#000"/>
  <path fill="none" stroke="#000" stroke-width="2" d="M30 966.766h1099v317.531H30z"/>
  <text font-family="sans-serif" font-size="13" font-weight="bold" lengthAdjust="spacingAndGlyphs" textLength="19" x="45" y="979.832">
    alt
  </text>
  <text font-family="sans-serif" font-size="11" font-weight="bold" lengthAdjust="spacingAndGlyphs" textLength="172" x="109" y="978.976">
    [Validate status (success)]
  </text>
  <path fill="#A80036" stroke="#a80036" d="M613 1001.031l-10 4 10 4-4-4z"/>
  <path stroke="#a80036" stroke-dasharray="2,2" d="M607 1005.031h252"/>
  <text font-family="sans-serif" font-size="13" font-weight="bold" lengthAdjust="spacingAndGlyphs" textLength="18" x="619" y="999.965">
    12
  </text>
  <text font-family="sans-serif" font-size="13" lengthAdjust="spacingAndGlyphs" textLength="153" x="641" y="999.965">
    Return Status Code 201
  </text>
  <path fill="#A80036" stroke="#a80036" d="M115 1030.164l-10 4 10 4-4-4z"/>
  <path stroke="#a80036" stroke-dasharray="2,2" d="M109 1034.164h482"/>
  <text font-family="sans-serif" font-size="13" font-weight="bold" lengthAdjust="spacingAndGlyphs" textLength="18" x="121" y="1029.098">
    13
  </text>
  <text font-family="sans-serif" font-size="13" lengthAdjust="spacingAndGlyphs" textLength="153" x="143" y="1029.098">
    Return Status Code 201
  </text>
  <path stroke="#000" stroke-dasharray="2,2" d="M30 1043.164h1099"/>
  <text font-family="sans-serif" font-size="11" font-weight="bold" lengthAdjust="spacingAndGlyphs" textLength="206" x="35" y="1053.374">
    [Validate status (failure) / Error]
  </text>
  <path d="M870 1061.969v25h57v-15l-10-10h-47" fill="red" filter="url(#a)" stroke="#a80036"/>
  <path d="M917 1061.969v10h10l-10-10" fill="red" stroke="#a80036"/>
  <text font-family="sans-serif" font-size="13" lengthAdjust="spacingAndGlyphs" textLength="36" x="876" y="1079.036">
    Error!
  </text>
  <path d="M870 1101.102v115h245v-105l-10-10H870" fill="#FF0" filter="url(#a)" stroke="#a80036"/>
  <path d="M1105 1101.102v10h10l-10-10" fill="#FF0" stroke="#a80036"/>
  <text font-family="sans-serif" font-size="13" lengthAdjust="spacingAndGlyphs" textLength="61" x="876" y="1118.168">
    Message:
  </text>
  <text font-family="sans-serif" font-size="13" lengthAdjust="spacingAndGlyphs" textLength="8" x="892" y="1133.301">
    {
  </text>
  <text font-family="sans-serif" font-size="13" lengthAdjust="spacingAndGlyphs" textLength="130" x="908" y="1148.434">
    &quot;errorInformation&quot;: {
  </text>
  <text font-family="sans-serif" font-size="13" lengthAdjust="spacingAndGlyphs" textLength="176" x="924" y="1163.567">
    &quot;errorCode&quot;: &lt;Error Code&gt;,
  </text>
  <text font-family="sans-serif" font-size="13" lengthAdjust="spacingAndGlyphs" textLength="173" x="924" y="1178.7">
    &quot;errorDescription&quot;: &lt;Msg&gt;,
  </text>
  <text font-family="sans-serif" font-size="13" lengthAdjust="spacingAndGlyphs" textLength="8" x="908" y="1193.832">
    }
  </text>
  <text font-family="sans-serif" font-size="13" lengthAdjust="spacingAndGlyphs" textLength="8" x="892" y="1208.965">
    }
  </text>
  <path fill="#A80036" stroke="#a80036" d="M613 1243.164l-10 4 10 4-4-4z"/>
  <path stroke="#a80036" stroke-dasharray="2,2" d="M607 1247.164h247"/>
  <text font-family="sans-serif" font-size="13" font-weight="bold" lengthAdjust="spacingAndGlyphs" textLength="18" x="619" y="1242.098">
    14
  </text>
  <text font-family="sans-serif" font-size="13" lengthAdjust="spacingAndGlyphs" textLength="42" x="641" y="1242.098">
    Return
  </text>
  <text fill="red" font-family="sans-serif" font-size="13" font-weight="bold" lengthAdjust="spacingAndGlyphs" textLength="77" x="687" y="1242.098">
    Error code
  </text>
  <path fill="#A80036" stroke="#a80036" d="M115 1272.297l-10 4 10 4-4-4z"/>
  <path stroke="#a80036" stroke-dasharray="2,2" d="M109 1276.297h482"/>
  <text font-family="sans-serif" font-size="13" font-weight="bold" lengthAdjust="spacingAndGlyphs" textLength="18" x="121" y="1271.231">
    15
  </text>
  <text font-family="sans-serif" font-size="13" lengthAdjust="spacingAndGlyphs" textLength="42" x="143" y="1271.231">
    Return
  </text>
  <text fill="red" font-family="sans-serif" font-size="13" font-weight="bold" lengthAdjust="spacingAndGlyphs" textLength="77" x="189" y="1271.231">
    Error code
  </text>
  <path stroke="#000" stroke-dasharray="2,2" d="M20 1292.297h1478"/>
  <text font-family="sans-serif" font-size="11" font-weight="bold" lengthAdjust="spacingAndGlyphs" textLength="193" x="25" y="1302.507">
    [Validate participant (failure)]
  </text>
  <path d="M870 1311.102v25h132v-15l-10-10H870" fill="red" filter="url(#a)" stroke="#a80036"/>
  <path d="M992 1311.102v10h10l-10-10" fill="red" stroke="#a80036"/>
  <text font-family="sans-serif" font-size="13" lengthAdjust="spacingAndGlyphs" textLength="111" x="876" y="1328.168">
    Validation failure!
  </text>
  <path d="M870 1350.234v115h313v-105l-10-10H870" fill="#FF0" filter="url(#a)" stroke="#a80036"/>
  <path d="M1173 1350.234v10h10l-10-10" fill="#FF0" stroke="#a80036"/>
  <text font-family="sans-serif" font-size="13" lengthAdjust="spacingAndGlyphs" textLength="61" x="876" y="1367.301">
    Message:
  </text>
  <text font-family="sans-serif" font-size="13" lengthAdjust="spacingAndGlyphs" textLength="8" x="892" y="1382.434">
    {
  </text>
  <text font-family="sans-serif" font-size="13" lengthAdjust="spacingAndGlyphs" textLength="130" x="908" y="1397.567">
    &quot;errorInformation&quot;: {
  </text>
  <text font-family="sans-serif" font-size="13" lengthAdjust="spacingAndGlyphs" textLength="118" x="924" y="1412.7">
    &quot;errorCode&quot;: 3200,
  </text>
  <text font-family="sans-serif" font-size="13" lengthAdjust="spacingAndGlyphs" textLength="244" x="924" y="1427.832">
    &quot;errorDescription&quot;: &quot;FSP id Not Found&quot;,
  </text>
  <text font-family="sans-serif" font-size="13" lengthAdjust="spacingAndGlyphs" textLength="8" x="908" y="1442.965">
    }
  </text>
  <text font-family="sans-serif" font-size="13" lengthAdjust="spacingAndGlyphs" textLength="8" x="892" y="1458.098">
    }
  </text>
  <path fill="#A80036" stroke="#a80036" d="M613 1492.297l-10 4 10 4-4-4z"/>
  <path stroke="#a80036" stroke-dasharray="2,2" d="M607 1496.297h252"/>
  <text font-family="sans-serif" font-size="13" font-weight="bold" lengthAdjust="spacingAndGlyphs" textLength="18" x="619" y="1491.231">
    16
  </text>
  <text font-family="sans-serif" font-size="13" lengthAdjust="spacingAndGlyphs" textLength="42" x="641" y="1491.231">
    Return
  </text>
  <text fill="red" font-family="sans-serif" font-size="13" font-weight="bold" lengthAdjust="spacingAndGlyphs" textLength="82" x="687" y="1491.231">
    Error code:
  </text>
  <text fill="red" font-family="sans-serif" font-size="13" lengthAdjust="spacingAndGlyphs" textLength="32" x="773" y="1491.231">
    3200
  </text>
  <path fill="#A80036" stroke="#a80036" d="M115 1521.43l-10 4 10 4-4-4z"/>
  <path stroke="#a80036" stroke-dasharray="2,2" d="M109 1525.43h482"/>
  <text font-family="sans-serif" font-size="13" font-weight="bold" lengthAdjust="spacingAndGlyphs" textLength="18" x="121" y="1520.364">
    17
  </text>
  <text font-family="sans-serif" font-size="13" lengthAdjust="spacingAndGlyphs" textLength="42" x="143" y="1520.364">
    Return
  </text>
  <text fill="red" font-family="sans-serif" font-size="13" font-weight="bold" lengthAdjust="spacingAndGlyphs" textLength="82" x="189" y="1520.364">
    Error code:
  </text>
  <text fill="red" font-family="sans-serif" font-size="13" lengthAdjust="spacingAndGlyphs" textLength="32" x="275" y="1520.364">
    3200
  </text>
</svg>
