<?xml version="1.0" encoding="UTF-8" standalone="no"?>
<svg xmlns="http://www.w3.org/2000/svg" xmlns:xlink="http://www.w3.org/1999/xlink" contentScriptType="application/ecmascript" contentStyleType="text/css" height="1269px" preserveAspectRatio="none" style="width:933px;height:1269px" version="1.1" viewBox="0 0 933 1269" width="933px" zoomAndPan="magnify">
  <defs>
    <filter height="300%" id="fxjjjxj8arj38" width="300%" x="-1" y="-1">
      <feGaussianBlur result="blurOut" stdDeviation="2.0"/>
      <feColorMatrix in="blurOut" result="blurOut2" type="matrix" values="0 0 0 0 0 0 0 0 0 0 0 0 0 0 0 0 0 0 .4 0"/>
      <feOffset dx="4.0" dy="4.0" in="blurOut2" result="blurOut3"/>
      <feBlend in="SourceGraphic" in2="blurOut3" mode="normal"/>
    </filter>
  </defs>
  <g>
    <text fill="#000000" font-family="sans-serif" font-size="18" lengthAdjust="spacingAndGlyphs" textLength="262" x="333.5" y="28.708">7.3.3 Update Oracle Endpoint</text>
    <rect fill="#FFFFE0" height="1222.7031" style="stroke:#A80036;stroke-width:1.0" width="644" x="249" y="40.9531"/>
    <text fill="#000000" font-family="sans-serif" font-size="13" font-weight="bold" lengthAdjust="spacingAndGlyphs" textLength="176" x="483" y="53.02">Account Lookup Service</text>
    <rect fill="#FFFFFF" filter="url(#fxjjjxj8arj38)" height="530.0547" style="stroke:#A80036;stroke-width:1.0" width="10" x="94" y="132.3828"/>
    <rect fill="#FFFFFF" filter="url(#fxjjjxj8arj38)" height="469.6563" style="stroke:#A80036;stroke-width:1.0" width="10" x="370" y="192.7813"/>
    <rect fill="#FFFFFF" filter="url(#fxjjjxj8arj38)" height="236.0625" style="stroke:#A80036;stroke-width:1.0" width="10" x="577" y="397.2422"/>
    <rect fill="#FFFFFF" filter="url(#fxjjjxj8arj38)" height="53.2656" style="stroke:#A80036;stroke-width:1.0" width="10" x="848" y="426.375"/>
    <rect fill="#FFFFFF" filter="url(#fxjjjxj8arj38)" height="53.2656" style="stroke:#A80036;stroke-width:1.0" width="10" x="848" y="550.9063"/>
    <rect fill="#FFFFFF" filter="url(#fxjjjxj8arj38)" height="1041.9766" style="stroke:#000000;stroke-width:2.0" width="909" x="10" y="139.3828"/>
    <rect fill="#FFFFFF" filter="url(#fxjjjxj8arj38)" height="484.5234" style="stroke:#000000;stroke-width:2.0" width="889" x="20" y="441.375"/>
    <rect fill="#FFFFFF" filter="url(#fxjjjxj8arj38)" height="104.5313" style="stroke:#000000;stroke-width:2.0" width="869" x="30" y="565.9063"/>
    <rect fill="#FFFFFF" filter="url(#fxjjjxj8arj38)" height="234.4609" style="stroke:#000000;stroke-width:2.0" width="869" x="30" y="684.4375"/>
    <rect fill="#FFFFFF" filter="url(#fxjjjxj8arj38)" height="234.4609" style="stroke:#000000;stroke-width:2.0" width="869" x="30" y="939.8984"/>
    <line style="stroke:#A80036;stroke-width:1.0;stroke-dasharray:5.0,5.0" x1="99" x2="99" y1="122.3828" y2="1198.3594"/>
    <line style="stroke:#A80036;stroke-width:1.0;stroke-dasharray:5.0,5.0" x1="375" x2="375" y1="122.3828" y2="1198.3594"/>
    <line style="stroke:#A80036;stroke-width:1.0;stroke-dasharray:5.0,5.0" x1="581.5" x2="581.5" y1="122.3828" y2="1198.3594"/>
    <line style="stroke:#A80036;stroke-width:1.0;stroke-dasharray:5.0,5.0" x1="853" x2="853" y1="122.3828" y2="1198.3594"/>
    <text fill="#000000" font-family="sans-serif" font-size="14" lengthAdjust="spacingAndGlyphs" textLength="112" x="40" y="119.0811">HUB OPERATOR</text>
    <ellipse cx="99" cy="90.0859" fill="#FEFECE" filter="url(#fxjjjxj8arj38)" rx="12" ry="12" style="stroke:#A80036;stroke-width:2.0"/>
    <line style="stroke:#A80036;stroke-width:2.0" x1="87" x2="111" y1="104.0859" y2="104.0859"/>
    <text fill="#000000" font-family="sans-serif" font-size="14" lengthAdjust="spacingAndGlyphs" textLength="112" x="40" y="1210.3545">HUB OPERATOR</text>
    <ellipse cx="99" cy="1229.6563" fill="#FEFECE" filter="url(#fxjjjxj8arj38)" rx="12" ry="12" style="stroke:#A80036;stroke-width:2.0"/>
    <line style="stroke:#A80036;stroke-width:2.0" x1="87" x2="111" y1="1243.6563" y2="1243.6563"/>
    <text fill="#000000" font-family="sans-serif" font-size="14" lengthAdjust="spacingAndGlyphs" textLength="238" x="253" y="119.0811">Account Lookup Service Admin API</text>
    <path d="M354.5,78.0859 L354.5,102.0859 M354.5,90.0859 L371.5,90.0859 " fill="none" filter="url(#fxjjjxj8arj38)" style="stroke:#A80036;stroke-width:2.0"/>
    <ellipse cx="383.5" cy="90.0859" fill="#FEFECE" filter="url(#fxjjjxj8arj38)" rx="12" ry="12" style="stroke:#A80036;stroke-width:2.0"/>
    <text fill="#000000" font-family="sans-serif" font-size="14" lengthAdjust="spacingAndGlyphs" textLength="238" x="253" y="1210.3545">Account Lookup Service Admin API</text>
    <path d="M354.5,1217.6563 L354.5,1241.6563 M354.5,1229.6563 L371.5,1229.6563 " fill="none" filter="url(#fxjjjxj8arj38)" style="stroke:#A80036;stroke-width:2.0"/>
    <ellipse cx="383.5" cy="1229.6563" fill="#FEFECE" filter="url(#fxjjjxj8arj38)" rx="12" ry="12" style="stroke:#A80036;stroke-width:2.0"/>
    <text fill="#000000" font-family="sans-serif" font-size="14" lengthAdjust="spacingAndGlyphs" textLength="133" x="512.5" y="119.0811">PUT Oracle Handler</text>
    <ellipse cx="582" cy="90.0859" fill="#FEFECE" filter="url(#fxjjjxj8arj38)" rx="12" ry="12" style="stroke:#A80036;stroke-width:2.0"/>
    <polygon fill="#A80036" points="578,78.0859,584,73.0859,582,78.0859,584,83.0859,578,78.0859" style="stroke:#A80036;stroke-width:1.0"/>
    <text fill="#000000" font-family="sans-serif" font-size="14" lengthAdjust="spacingAndGlyphs" textLength="133" x="512.5" y="1210.3545">PUT Oracle Handler</text>
    <ellipse cx="582" cy="1229.6563" fill="#FEFECE" filter="url(#fxjjjxj8arj38)" rx="12" ry="12" style="stroke:#A80036;stroke-width:2.0"/>
    <polygon fill="#A80036" points="578,1217.6563,584,1212.6563,582,1217.6563,584,1222.6563,578,1217.6563" style="stroke:#A80036;stroke-width:1.0"/>
    <text fill="#000000" font-family="sans-serif" font-size="14" lengthAdjust="spacingAndGlyphs" textLength="66" x="817" y="119.0811">ALS Store</text>
    <path d="M835,70.0859 C835,60.0859 853,60.0859 853,60.0859 C853,60.0859 871,60.0859 871,70.0859 L871,96.0859 C871,106.0859 853,106.0859 853,106.0859 C853,106.0859 835,106.0859 835,96.0859 L835,70.0859 " fill="#FEFECE" filter="url(#fxjjjxj8arj38)" style="stroke:#000000;stroke-width:1.5"/>
    <path d="M835,70.0859 C835,80.0859 853,80.0859 853,80.0859 C853,80.0859 871,80.0859 871,70.0859 " fill="none" style="stroke:#000000;stroke-width:1.5"/>
    <text fill="#000000" font-family="sans-serif" font-size="14" lengthAdjust="spacingAndGlyphs" textLength="66" x="817" y="1210.3545">ALS Store</text>
    <path d="M835,1223.6563 C835,1213.6563 853,1213.6563 853,1213.6563 C853,1213.6563 871,1213.6563 871,1223.6563 L871,1249.6563 C871,1259.6563 853,1259.6563 853,1259.6563 C853,1259.6563 835,1259.6563 835,1249.6563 L835,1223.6563 " fill="#FEFECE" filter="url(#fxjjjxj8arj38)" style="stroke:#000000;stroke-width:1.5"/>
    <path d="M835,1223.6563 C835,1233.6563 853,1233.6563 853,1233.6563 C853,1233.6563 871,1233.6563 871,1223.6563 " fill="none" style="stroke:#000000;stroke-width:1.5"/>
    <rect fill="#FFFFFF" filter="url(#fxjjjxj8arj38)" height="530.0547" style="stroke:#A80036;stroke-width:1.0" width="10" x="94" y="132.3828"/>
    <rect fill="#FFFFFF" filter="url(#fxjjjxj8arj38)" height="469.6563" style="stroke:#A80036;stroke-width:1.0" width="10" x="370" y="192.7813"/>
    <rect fill="#FFFFFF" filter="url(#fxjjjxj8arj38)" height="236.0625" style="stroke:#A80036;stroke-width:1.0" width="10" x="577" y="397.2422"/>
    <rect fill="#FFFFFF" filter="url(#fxjjjxj8arj38)" height="53.2656" style="stroke:#A80036;stroke-width:1.0" width="10" x="848" y="426.375"/>
    <rect fill="#FFFFFF" filter="url(#fxjjjxj8arj38)" height="53.2656" style="stroke:#A80036;stroke-width:1.0" width="10" x="848" y="550.9063"/>
    <path d="M10,139.3828 L204,139.3828 L204,146.3828 L194,156.3828 L10,156.3828 L10,139.3828 " fill="#EEEEEE" style="stroke:#000000;stroke-width:1.0"/>
    <rect fill="none" height="1041.9766" style="stroke:#000000;stroke-width:2.0" width="909" x="10" y="139.3828"/>
    <text fill="#000000" font-family="sans-serif" font-size="13" font-weight="bold" lengthAdjust="spacingAndGlyphs" textLength="149" x="25" y="152.4497">Get Oracle Endpoint</text>
    <polygon fill="#A80036" points="358,188.7813,368,192.7813,358,196.7813,362,192.7813" style="stroke:#A80036;stroke-width:1.0"/>
    <line style="stroke:#A80036;stroke-width:1.0" x1="104" x2="364" y1="192.7813" y2="192.7813"/>
    <text fill="#000000" font-family="sans-serif" font-size="13" font-weight="bold" lengthAdjust="spacingAndGlyphs" textLength="9" x="111" y="180.1489">1</text>
    <text fill="#000000" font-family="sans-serif" font-size="13" lengthAdjust="spacingAndGlyphs" textLength="234" x="124" y="172.5825">Request to Update Oracle Endpoint -</text>
    <text fill="#000000" font-family="sans-serif" font-size="13" lengthAdjust="spacingAndGlyphs" textLength="112" x="124" y="187.7153">PUT /oracles/{ID}</text>
    <path d="M96,205.7813 L96,366.7813 L361,366.7813 L361,215.7813 L351,205.7813 L96,205.7813 " fill="#FFFF00" filter="url(#fxjjjxj8arj38)" style="stroke:#A80036;stroke-width:1.0"/>
    <path d="M351,205.7813 L351,215.7813 L361,215.7813 L351,205.7813 " fill="#FFFF00" style="stroke:#A80036;stroke-width:1.0"/>
    <text fill="#000000" font-family="sans-serif" font-size="13" lengthAdjust="spacingAndGlyphs" textLength="61" x="102" y="222.8481">Message:</text>
    <text fill="#000000" font-family="sans-serif" font-size="13" lengthAdjust="spacingAndGlyphs" textLength="8" x="102" y="237.981">{</text>
    <text fill="#000000" font-family="sans-serif" font-size="13" lengthAdjust="spacingAndGlyphs" textLength="198" x="118" y="253.1138">&quot;oracleIdType&quot;: &lt;PartyIdType&gt;,</text>
    <text fill="#000000" font-family="sans-serif" font-size="13" lengthAdjust="spacingAndGlyphs" textLength="82" x="118" y="268.2466">&quot;endpoint&quot;: {</text>
    <text fill="#000000" font-family="sans-serif" font-size="13" lengthAdjust="spacingAndGlyphs" textLength="114" x="134" y="283.3794">&quot;value&quot;: &lt;string&gt;,</text>
    <text fill="#000000" font-family="sans-serif" font-size="13" lengthAdjust="spacingAndGlyphs" textLength="212" x="134" y="298.5122">&quot;endpointType&quot;: &lt;EndpointType&gt;</text>
    <text fill="#000000" font-family="sans-serif" font-size="13" lengthAdjust="spacingAndGlyphs" textLength="12" x="118" y="313.645">},</text>
    <text fill="#000000" font-family="sans-serif" font-size="13" lengthAdjust="spacingAndGlyphs" textLength="156" x="118" y="328.7778">&quot;currency&quot;: &lt;Currency&gt;,</text>
    <text fill="#000000" font-family="sans-serif" font-size="13" lengthAdjust="spacingAndGlyphs" textLength="147" x="118" y="343.9106">&quot;isDefault&quot;: &lt;boolean&gt;</text>
    <text fill="#000000" font-family="sans-serif" font-size="13" lengthAdjust="spacingAndGlyphs" textLength="8" x="102" y="359.0435">}</text>
    <polygon fill="#A80036" points="565,393.2422,575,397.2422,565,401.2422,569,397.2422" style="stroke:#A80036;stroke-width:1.0"/>
    <line style="stroke:#A80036;stroke-width:1.0" x1="380" x2="571" y1="397.2422" y2="397.2422"/>
    <text fill="#000000" font-family="sans-serif" font-size="13" font-weight="bold" lengthAdjust="spacingAndGlyphs" textLength="9" x="387" y="392.1763">2</text>
    <text fill="#000000" font-family="sans-serif" font-size="13" lengthAdjust="spacingAndGlyphs" textLength="152" x="400" y="392.1763">Update Oracle Endpoint</text>
    <polygon fill="#A80036" points="836,422.375,846,426.375,836,430.375,840,426.375" style="stroke:#A80036;stroke-width:1.0"/>
    <line style="stroke:#A80036;stroke-width:1.0" x1="587" x2="842" y1="426.375" y2="426.375"/>
    <text fill="#000000" font-family="sans-serif" font-size="13" font-weight="bold" lengthAdjust="spacingAndGlyphs" textLength="9" x="594" y="421.3091">3</text>
    <text fill="#000000" font-family="sans-serif" font-size="13" lengthAdjust="spacingAndGlyphs" textLength="184" x="607" y="421.3091">Find existing Oracle Endpoint</text>
    <path d="M20,441.375 L84,441.375 L84,448.375 L74,458.375 L20,458.375 L20,441.375 " fill="#EEEEEE" style="stroke:#000000;stroke-width:1.0"/>
    <rect fill="none" height="484.5234" style="stroke:#000000;stroke-width:2.0" width="889" x="20" y="441.375"/>
    <text fill="#000000" font-family="sans-serif" font-size="13" font-weight="bold" lengthAdjust="spacingAndGlyphs" textLength="19" x="35" y="454.4419">alt</text>
    <text fill="#000000" font-family="sans-serif" font-size="11" font-weight="bold" lengthAdjust="spacingAndGlyphs" textLength="265" x="99" y="453.5854">[Find existing Oracle Endpoint (success)]</text>
    <polygon fill="#A80036" points="598,475.6406,588,479.6406,598,483.6406,594,479.6406" style="stroke:#A80036;stroke-width:1.0"/>
    <line style="stroke:#A80036;stroke-width:1.0" x1="592" x2="852" y1="479.6406" y2="479.6406"/>
    <text fill="#000000" font-family="sans-serif" font-size="13" font-weight="bold" lengthAdjust="spacingAndGlyphs" textLength="9" x="604" y="474.5747">4</text>
    <text fill="#000000" font-family="sans-serif" font-size="13" lengthAdjust="spacingAndGlyphs" textLength="190" x="617" y="474.5747">Return Oracle Endpoint Result</text>
    <line style="stroke:#A80036;stroke-width:1.0" x1="587" x2="629" y1="508.7734" y2="508.7734"/>
    <line style="stroke:#A80036;stroke-width:1.0" x1="629" x2="629" y1="508.7734" y2="521.7734"/>
    <line style="stroke:#A80036;stroke-width:1.0" x1="588" x2="629" y1="521.7734" y2="521.7734"/>
    <polygon fill="#A80036" points="598,517.7734,588,521.7734,598,525.7734,594,521.7734" style="stroke:#A80036;stroke-width:1.0"/>
    <text fill="#000000" font-family="sans-serif" font-size="13" font-weight="bold" lengthAdjust="spacingAndGlyphs" textLength="9" x="594" y="503.7075">5</text>
    <text fill="#000000" font-family="sans-serif" font-size="13" lengthAdjust="spacingAndGlyphs" textLength="234" x="607" y="503.7075">Update Returned Oracle Data Object</text>
    <polygon fill="#A80036" points="836,546.9063,846,550.9063,836,554.9063,840,550.9063" style="stroke:#A80036;stroke-width:1.0"/>
    <line style="stroke:#A80036;stroke-width:1.0" x1="587" x2="842" y1="550.9063" y2="550.9063"/>
    <text fill="#000000" font-family="sans-serif" font-size="13" font-weight="bold" lengthAdjust="spacingAndGlyphs" textLength="9" x="594" y="545.8403">6</text>
    <text fill="#000000" font-family="sans-serif" font-size="13" lengthAdjust="spacingAndGlyphs" textLength="172" x="607" y="545.8403">Update Oracle Data Object</text>
    <path d="M30,565.9063 L94,565.9063 L94,572.9063 L84,582.9063 L30,582.9063 L30,565.9063 " fill="#EEEEEE" style="stroke:#000000;stroke-width:1.0"/>
    <rect fill="none" height="104.5313" style="stroke:#000000;stroke-width:2.0" width="869" x="30" y="565.9063"/>
    <text fill="#000000" font-family="sans-serif" font-size="13" font-weight="bold" lengthAdjust="spacingAndGlyphs" textLength="19" x="45" y="578.9731">alt</text>
    <text fill="#000000" font-family="sans-serif" font-size="11" font-weight="bold" lengthAdjust="spacingAndGlyphs" textLength="204" x="109" y="578.1167">[Update Oracle Entry (success)]</text>
    <polygon fill="#A80036" points="598,600.1719,588,604.1719,598,608.1719,594,604.1719" style="stroke:#A80036;stroke-width:1.0"/>
    <line style="stroke:#A80036;stroke-width:1.0;stroke-dasharray:2.0,2.0" x1="592" x2="852" y1="604.1719" y2="604.1719"/>
    <text fill="#000000" font-family="sans-serif" font-size="13" font-weight="bold" lengthAdjust="spacingAndGlyphs" textLength="9" x="604" y="599.106">7</text>
    <text fill="#000000" font-family="sans-serif" font-size="13" lengthAdjust="spacingAndGlyphs" textLength="160" x="617" y="599.106">Return success response</text>
    <polygon fill="#A80036" points="391,629.3047,381,633.3047,391,637.3047,387,633.3047" style="stroke:#A80036;stroke-width:1.0"/>
    <line style="stroke:#A80036;stroke-width:1.0" x1="385" x2="581" y1="633.3047" y2="633.3047"/>
    <text fill="#000000" font-family="sans-serif" font-size="13" font-weight="bold" lengthAdjust="spacingAndGlyphs" textLength="9" x="397" y="628.2388">8</text>
    <text fill="#000000" font-family="sans-serif" font-size="13" lengthAdjust="spacingAndGlyphs" textLength="160" x="410" y="628.2388">Return success response</text>
    <polygon fill="#A80036" points="110,658.4375,100,662.4375,110,666.4375,106,662.4375" style="stroke:#A80036;stroke-width:1.0"/>
    <line style="stroke:#A80036;stroke-width:1.0;stroke-dasharray:2.0,2.0" x1="104" x2="374" y1="662.4375" y2="662.4375"/>
    <text fill="#000000" font-family="sans-serif" font-size="13" font-weight="bold" lengthAdjust="spacingAndGlyphs" textLength="9" x="116" y="657.3716">9</text>
    <text fill="#000000" font-family="sans-serif" font-size="13" lengthAdjust="spacingAndGlyphs" textLength="42" x="129" y="657.3716">Return</text>
    <text fill="#000000" font-family="sans-serif" font-size="13" font-weight="bold" lengthAdjust="spacingAndGlyphs" textLength="94" x="175" y="657.3716">HTTP Status:</text>
    <text fill="#000000" font-family="sans-serif" font-size="13" lengthAdjust="spacingAndGlyphs" textLength="24" x="273" y="657.3716">204</text>
    <path d="M30,684.4375 L94,684.4375 L94,691.4375 L84,701.4375 L30,701.4375 L30,684.4375 " fill="#EEEEEE" style="stroke:#000000;stroke-width:1.0"/>
    <rect fill="none" height="234.4609" style="stroke:#000000;stroke-width:2.0" width="869" x="30" y="684.4375"/>
    <text fill="#000000" font-family="sans-serif" font-size="13" font-weight="bold" lengthAdjust="spacingAndGlyphs" textLength="19" x="45" y="697.5044">alt</text>
    <text fill="#000000" font-family="sans-serif" font-size="11" font-weight="bold" lengthAdjust="spacingAndGlyphs" textLength="195" x="109" y="696.6479">[Update Oracle Entry (failure)]</text>
    <polygon fill="#A80036" points="593,718.7031,583,722.7031,593,726.7031,589,722.7031" style="stroke:#A80036;stroke-width:1.0"/>
    <line style="stroke:#A80036;stroke-width:1.0;stroke-dasharray:2.0,2.0" x1="587" x2="852" y1="722.7031" y2="722.7031"/>
    <text fill="#000000" font-family="sans-serif" font-size="13" font-weight="bold" lengthAdjust="spacingAndGlyphs" textLength="18" x="599" y="717.6372">10</text>
    <text fill="#000000" font-family="sans-serif" font-size="13" lengthAdjust="spacingAndGlyphs" textLength="72" x="621" y="717.6372">Throw Error</text>
    <polygon fill="#A80036" points="386,747.8359,376,751.8359,386,755.8359,382,751.8359" style="stroke:#A80036;stroke-width:1.0"/>
    <line style="stroke:#A80036;stroke-width:1.0" x1="380" x2="581" y1="751.8359" y2="751.8359"/>
    <text fill="#000000" font-family="sans-serif" font-size="13" font-weight="bold" lengthAdjust="spacingAndGlyphs" textLength="18" x="392" y="746.77">11</text>
    <text fill="#000000" font-family="sans-serif" font-size="13" lengthAdjust="spacingAndGlyphs" textLength="72" x="414" y="746.77">Throw Error</text>
    <path d="M137,764.8359 L137,879.8359 L366,879.8359 L366,774.8359 L356,764.8359 L137,764.8359 " fill="#FFFF00" filter="url(#fxjjjxj8arj38)" style="stroke:#A80036;stroke-width:1.0"/>
    <path d="M356,764.8359 L356,774.8359 L366,774.8359 L356,764.8359 " fill="#FFFF00" style="stroke:#A80036;stroke-width:1.0"/>
    <text fill="#000000" font-family="sans-serif" font-size="13" lengthAdjust="spacingAndGlyphs" textLength="61" x="143" y="781.9028">Message:</text>
    <text fill="#000000" font-family="sans-serif" font-size="13" lengthAdjust="spacingAndGlyphs" textLength="8" x="143" y="797.0356">{</text>
    <text fill="#000000" font-family="sans-serif" font-size="13" lengthAdjust="spacingAndGlyphs" textLength="130" x="159" y="812.1685">&quot;errorInformation&quot;: {</text>
    <text fill="#000000" font-family="sans-serif" font-size="13" lengthAdjust="spacingAndGlyphs" textLength="176" x="175" y="827.3013">&quot;errorCode&quot;: &lt;Error Code&gt;,</text>
    <text fill="#000000" font-family="sans-serif" font-size="13" lengthAdjust="spacingAndGlyphs" textLength="173" x="175" y="842.4341">&quot;errorDescription&quot;: &lt;Msg&gt;,</text>
    <text fill="#000000" font-family="sans-serif" font-size="13" lengthAdjust="spacingAndGlyphs" textLength="8" x="159" y="857.5669">}</text>
    <text fill="#000000" font-family="sans-serif" font-size="13" lengthAdjust="spacingAndGlyphs" textLength="8" x="143" y="872.6997">}</text>
    <polygon fill="#A80036" points="110,906.8984,100,910.8984,110,914.8984,106,910.8984" style="stroke:#A80036;stroke-width:1.0"/>
    <line style="stroke:#A80036;stroke-width:1.0;stroke-dasharray:2.0,2.0" x1="104" x2="374" y1="910.8984" y2="910.8984"/>
    <text fill="#000000" font-family="sans-serif" font-size="13" font-weight="bold" lengthAdjust="spacingAndGlyphs" textLength="18" x="116" y="905.8325">12</text>
    <text fill="#000000" font-family="sans-serif" font-size="13" lengthAdjust="spacingAndGlyphs" textLength="42" x="138" y="905.8325">Return</text>
    <text fill="#FF0000" font-family="sans-serif" font-size="13" font-weight="bold" lengthAdjust="spacingAndGlyphs" textLength="94" x="184" y="905.8325">HTTP Status:</text>
    <text fill="#FF0000" font-family="sans-serif" font-size="13" lengthAdjust="spacingAndGlyphs" textLength="24" x="282" y="905.8325">502</text>
    <path d="M30,939.8984 L94,939.8984 L94,946.8984 L84,956.8984 L30,956.8984 L30,939.8984 " fill="#EEEEEE" style="stroke:#000000;stroke-width:1.0"/>
    <rect fill="none" height="234.4609" style="stroke:#000000;stroke-width:2.0" width="869" x="30" y="939.8984"/>
    <text fill="#000000" font-family="sans-serif" font-size="13" font-weight="bold" lengthAdjust="spacingAndGlyphs" textLength="19" x="45" y="952.9653">alt</text>
    <text fill="#000000" font-family="sans-serif" font-size="11" font-weight="bold" lengthAdjust="spacingAndGlyphs" textLength="256" x="109" y="952.1089">[Find existing Oracle Endpoint (failure)]</text>
    <polygon fill="#A80036" points="593,974.1641,583,978.1641,593,982.1641,589,978.1641" style="stroke:#A80036;stroke-width:1.0"/>
    <line style="stroke:#A80036;stroke-width:1.0" x1="587" x2="852" y1="978.1641" y2="978.1641"/>
    <text fill="#000000" font-family="sans-serif" font-size="13" font-weight="bold" lengthAdjust="spacingAndGlyphs" textLength="18" x="599" y="973.0981">13</text>
    <text fill="#000000" font-family="sans-serif" font-size="13" lengthAdjust="spacingAndGlyphs" textLength="139" x="621" y="973.0981">Returns Empty Object</text>
    <polygon fill="#A80036" points="386,1003.2969,376,1007.2969,386,1011.2969,382,1007.2969" style="stroke:#A80036;stroke-width:1.0"/>
    <line style="stroke:#A80036;stroke-width:1.0" x1="380" x2="581" y1="1007.2969" y2="1007.2969"/>
    <text fill="#000000" font-family="sans-serif" font-size="13" font-weight="bold" lengthAdjust="spacingAndGlyphs" textLength="18" x="392" y="1002.231">14</text>
    <text fill="#000000" font-family="sans-serif" font-size="13" lengthAdjust="spacingAndGlyphs" textLength="72" x="414" y="1002.231">Throw Error</text>
    <path d="M137,1020.2969 L137,1135.2969 L366,1135.2969 L366,1030.2969 L356,1020.2969 L137,1020.2969 " fill="#FFFF00" filter="url(#fxjjjxj8arj38)" style="stroke:#A80036;stroke-width:1.0"/>
    <path d="M356,1020.2969 L356,1030.2969 L366,1030.2969 L356,1020.2969 " fill="#FFFF00" style="stroke:#A80036;stroke-width:1.0"/>
    <text fill="#000000" font-family="sans-serif" font-size="13" lengthAdjust="spacingAndGlyphs" textLength="61" x="143" y="1037.3638">Message:</text>
    <text fill="#000000" font-family="sans-serif" font-size="13" lengthAdjust="spacingAndGlyphs" textLength="8" x="143" y="1052.4966">{</text>
    <text fill="#000000" font-family="sans-serif" font-size="13" lengthAdjust="spacingAndGlyphs" textLength="130" x="159" y="1067.6294">&quot;errorInformation&quot;: {</text>
    <text fill="#000000" font-family="sans-serif" font-size="13" lengthAdjust="spacingAndGlyphs" textLength="176" x="175" y="1082.7622">&quot;errorCode&quot;: &lt;Error Code&gt;,</text>
    <text fill="#000000" font-family="sans-serif" font-size="13" lengthAdjust="spacingAndGlyphs" textLength="173" x="175" y="1097.895">&quot;errorDescription&quot;: &lt;Msg&gt;,</text>
    <text fill="#000000" font-family="sans-serif" font-size="13" lengthAdjust="spacingAndGlyphs" textLength="8" x="159" y="1113.0278">}</text>
    <text fill="#000000" font-family="sans-serif" font-size="13" lengthAdjust="spacingAndGlyphs" textLength="8" x="143" y="1128.1606">}</text>
    <polygon fill="#A80036" points="110,1162.3594,100,1166.3594,110,1170.3594,106,1166.3594" style="stroke:#A80036;stroke-width:1.0"/>
    <line style="stroke:#A80036;stroke-width:1.0;stroke-dasharray:2.0,2.0" x1="104" x2="374" y1="1166.3594" y2="1166.3594"/>
    <text fill="#000000" font-family="sans-serif" font-size="13" font-weight="bold" lengthAdjust="spacingAndGlyphs" textLength="18" x="116" y="1161.2935">15</text>
    <text fill="#000000" font-family="sans-serif" font-size="13" lengthAdjust="spacingAndGlyphs" textLength="42" x="138" y="1161.2935">Return</text>
    <text fill="#FF0000" font-family="sans-serif" font-size="13" font-weight="bold" lengthAdjust="spacingAndGlyphs" textLength="94" x="184" y="1161.2935">HTTP Status:</text>
    <text fill="#FF0000" font-family="sans-serif" font-size="13" lengthAdjust="spacingAndGlyphs" textLength="24" x="282" y="1161.2935">502</text>
  </g>
</svg>
