<svg xmlns="http://www.w3.org/2000/svg" height="1823" preserveAspectRatio="none" style="width:1120px;height:1823px" width="1120">
  <defs>
    <filter height="300%" id="a" width="300%" x="-1" y="-1">
      <feGaussianBlur result="blurOut" stdDeviation="2"/>
      <feColorMatrix in="blurOut" result="blurOut2" values="0 0 0 0 0 0 0 0 0 0 0 0 0 0 0 0 0 0 .4 0"/>
      <feOffset dx="4" dy="4" in="blurOut2" result="blurOut3"/>
      <feBlend in="SourceGraphic" in2="blurOut3"/>
    </filter>
  </defs>
  <text font-family="sans-serif" font-size="18" lengthAdjust="spacingAndGlyphs" textLength="432" x="342" y="28.708">
    6.2.4. Get Settlement By Id (getSettlementById)
  </text>
  <path fill="#FFB6C1" stroke="#a80036" d="M72 40.953h114v1776.82H72z"/>
  <text font-family="sans-serif" font-size="13" font-weight="bold" lengthAdjust="spacingAndGlyphs" textLength="89" x="84.5" y="53.02">
    Central HUB
  </text>
  <path fill="#90EE90" stroke="#a80036" d="M311.5 40.953h377v1776.82h-377z"/>
  <text font-family="sans-serif" font-size="13" font-weight="bold" lengthAdjust="spacingAndGlyphs" textLength="139" x="430.5" y="53.02">
    Settlement Service
  </text>
  <path fill="#FFFFE0" stroke="#a80036" d="M742 40.953h125v1776.82H742z"/>
  <text font-family="sans-serif" font-size="13" font-weight="bold" lengthAdjust="spacingAndGlyphs" textLength="119" x="745" y="53.02">
    Central Services
  </text>
  <path fill="#FFF" filter="url(#a)" stroke="#a80036" d="M124 153.383h10v1546.094h-10zM391 198.648h10v1500.828h-10zM621 242.914h10v181.93h-10zM621 493.242h10V720.57h-10zM621 764.836h10v227.328h-10zM799.5 272.047h10v30h-10zM799.5 522.375h10v30h-10zM799.5 793.969h10v30h-10z"/>
  <path fill="#FFF" filter="url(#a)" stroke="#000" stroke-width="2" d="M10 160.383h1096v1554.094H10z"/>
  <path fill="#FFF" filter="url(#a)" stroke="#000" stroke-width="2" d="M20 439.844h1076v1267.633H20z"/>
  <path fill="#FFF" d="M20 1522.414h1076v185.063H20z"/>
  <path stroke="#a80036" stroke-dasharray="5,5" d="M129 143.383v1588.094M395.5 143.383v1588.094M625.5 143.383v1588.094M804.5 143.383v1588.094"/>
  <text font-family="sans-serif" font-size="14" lengthAdjust="spacingAndGlyphs" textLength="100" x="76" y="140.081">
    Hub Employee
  </text>
  <circle cx="129" cy="70.086" fill="#FEFECE" filter="url(#a)" stroke="#a80036" stroke-width="2" r="8"/>
  <path d="M129 78.086v27m-13-19h26m-13 19l-13 15m13-15l13 15" fill="none" filter="url(#a)" stroke="#a80036" stroke-width="2"/>
  <text font-family="sans-serif" font-size="14" lengthAdjust="spacingAndGlyphs" textLength="100" x="76" y="1743.472">
    Hub Employee
  </text>
  <circle cx="129" cy="1756.773" fill="#FEFECE" filter="url(#a)" stroke="#a80036" stroke-width="2" r="8"/>
  <path d="M129 1764.773v27m-13-19h26m-13 19l-13 15m13-15l13 15" fill="none" filter="url(#a)" stroke="#a80036" stroke-width="2"/>
  <text font-family="sans-serif" font-size="14" lengthAdjust="spacingAndGlyphs" textLength="155" x="315.5" y="140.081">
    Settlement Service API
  </text>
  <path d="M375.5 99.086v24m0-12h17" fill="none" filter="url(#a)" stroke="#a80036" stroke-width="2"/>
  <circle cx="404.5" cy="111.086" fill="#FEFECE" filter="url(#a)" stroke="#a80036" stroke-width="2" r="12"/>
  <text font-family="sans-serif" font-size="14" lengthAdjust="spacingAndGlyphs" textLength="155" x="315.5" y="1743.472">
    Settlement Service API
  </text>
  <path d="M375.5 1750.773v24m0-12h17" fill="none" filter="url(#a)" stroke="#a80036" stroke-width="2"/>
  <circle cx="404.5" cy="1762.773" fill="#FEFECE" filter="url(#a)" stroke="#a80036" stroke-width="2" r="12"/>
  <text font-family="sans-serif" font-size="14" lengthAdjust="spacingAndGlyphs" textLength="111" x="567.5" y="140.081">
    Settlement DAO
  </text>
  <circle cx="626" cy="111.086" fill="#FEFECE" filter="url(#a)" stroke="#a80036" stroke-width="2" r="12"/>
  <path stroke="#a80036" stroke-width="2" d="M614 125.086h24"/>
  <text font-family="sans-serif" font-size="14" lengthAdjust="spacingAndGlyphs" textLength="111" x="567.5" y="1743.472">
    Settlement DAO
  </text>
  <circle cx="626" cy="1762.773" fill="#FEFECE" filter="url(#a)" stroke="#a80036" stroke-width="2" r="12"/>
  <path stroke="#a80036" stroke-width="2" d="M614 1776.773h24"/>
  <text font-family="sans-serif" font-size="14" lengthAdjust="spacingAndGlyphs" textLength="90" x="756.5" y="140.081">
    Central Store
  </text>
  <path d="M786.5 91.086c0-10 18-10 18-10s18 0 18 10v26c0 10-18 10-18 10s-18 0-18-10v-26" fill="#FEFECE" filter="url(#a)" stroke="#000" stroke-width="1.5"/>
  <path d="M786.5 91.086c0 10 18 10 18 10s18 0 18-10" fill="none" stroke="#000" stroke-width="1.5"/>
  <text font-family="sans-serif" font-size="14" lengthAdjust="spacingAndGlyphs" textLength="90" x="756.5" y="1743.472">
    Central Store
  </text>
  <path d="M786.5 1756.773c0-10 18-10 18-10s18 0 18 10v26c0 10-18 10-18 10s-18 0-18-10v-26" fill="#FEFECE" filter="url(#a)" stroke="#000" stroke-width="1.5"/>
  <path d="M786.5 1756.773c0 10 18 10 18 10s18 0 18-10" fill="none" stroke="#000" stroke-width="1.5"/>
  <path fill="#FFF" filter="url(#a)" stroke="#a80036" d="M124 153.383h10v1546.094h-10zM391 198.648h10v1500.828h-10zM621 242.914h10v181.93h-10zM621 493.242h10V720.57h-10zM621 764.836h10v227.328h-10zM799.5 272.047h10v30h-10zM799.5 522.375h10v30h-10zM799.5 793.969h10v30h-10z"/>
  <path d="M10 160.383h199v7l-10 10H10v-17" fill="#EEE" stroke="#000"/>
  <path fill="none" stroke="#000" stroke-width="2" d="M10 160.383h1096v1554.094H10z"/>
  <text font-family="sans-serif" font-size="13" font-weight="bold" lengthAdjust="spacingAndGlyphs" textLength="154" x="25" y="173.45">
    Get Settlement By Id
  </text>
  <path fill="#A80036" stroke="#a80036" d="M379 194.648l10 4-10 4 4-4z"/>
  <path stroke="#a80036" d="M134 198.648h251"/>
  <text font-family="sans-serif" font-size="13" font-weight="bold" lengthAdjust="spacingAndGlyphs" textLength="9" x="141" y="193.583">
    1
  </text>
  <text font-family="sans-serif" font-size="13" lengthAdjust="spacingAndGlyphs" textLength="150" x="154" y="193.583">
    GET - /settlements/{id}
  </text>
  <path fill="#A80036" stroke="#a80036" d="M609 238.914l10 4-10 4 4-4z"/>
  <path stroke="#a80036" d="M401 242.914h214"/>
  <text font-family="sans-serif" font-size="13" font-weight="bold" lengthAdjust="spacingAndGlyphs" textLength="9" x="408" y="230.282">
    2
  </text>
  <text font-family="sans-serif" font-size="13" lengthAdjust="spacingAndGlyphs" textLength="163" x="421" y="222.715">
    Request settlement state
  </text>
  <text fill="red" font-family="sans-serif" font-size="13" font-weight="bold" lengthAdjust="spacingAndGlyphs" textLength="82" x="421" y="237.848">
    Error code:
  </text>
  <text fill="red" font-family="sans-serif" font-size="13" lengthAdjust="spacingAndGlyphs" textLength="32" x="507" y="237.848">
    2001
  </text>
  <path fill="#A80036" stroke="#a80036" d="M787.5 268.047l10 4-10 4 4-4z"/>
  <path stroke="#a80036" d="M631 272.047h162.5"/>
  <text font-family="sans-serif" font-size="13" font-weight="bold" lengthAdjust="spacingAndGlyphs" textLength="9" x="638" y="266.981">
    3
  </text>
  <text font-family="sans-serif" font-size="13" lengthAdjust="spacingAndGlyphs" textLength="126" x="651" y="266.981">
    Retrieve settlement
  </text>
  <path fill="#FFFFE0" filter="url(#a)" stroke="#a80036" d="M575 315.047h459l10 41-10 42H575l-10-42 10-41z"/>
  <text font-family="sans-serif" font-size="13" lengthAdjust="spacingAndGlyphs" textLength="455" x="577" y="331.114">
    SELECT s.settlementId, ssc.settlementStateId, s.reason, s.createdDate
  </text>
  <text font-family="sans-serif" font-size="13" lengthAdjust="spacingAndGlyphs" textLength="36" x="577" y="346.247">
    FROM
  </text>
  <text font-family="sans-serif" font-size="13" font-weight="bold" lengthAdjust="spacingAndGlyphs" textLength="80" x="617" y="346.247">
    settlement
  </text>
  <text font-family="sans-serif" font-size="13" lengthAdjust="spacingAndGlyphs" textLength="7" x="701" y="346.247">
    s
  </text>
  <text font-family="sans-serif" font-size="13" lengthAdjust="spacingAndGlyphs" textLength="26" x="577" y="361.379">
    JOIN
  </text>
  <text font-family="sans-serif" font-size="13" font-weight="bold" lengthAdjust="spacingAndGlyphs" textLength="175" x="607" y="361.379">
    settlementStateChange
  </text>
  <text font-family="sans-serif" font-size="13" lengthAdjust="spacingAndGlyphs" textLength="21" x="786" y="361.379">
    ssc
  </text>
  <text font-family="sans-serif" font-size="13" lengthAdjust="spacingAndGlyphs" textLength="385" x="577" y="376.512">
    ON ssc.settlementStateChangeId = s.currentStateChangeId
  </text>
  <text font-family="sans-serif" font-size="13" lengthAdjust="spacingAndGlyphs" textLength="187" x="577" y="391.645">
    WHERE s.settlementId = {id}
  </text>
  <path fill="#A80036" stroke="#a80036" d="M412 420.844l-10 4 10 4-4-4z"/>
  <path stroke="#a80036" stroke-dasharray="2,2" d="M406 424.844h219"/>
  <text font-family="sans-serif" font-size="13" font-weight="bold" lengthAdjust="spacingAndGlyphs" textLength="9" x="418" y="419.778">
    4
  </text>
  <text font-family="sans-serif" font-size="13" lengthAdjust="spacingAndGlyphs" textLength="42" x="431" y="419.778">
    Return
  </text>
  <text font-family="sans-serif" font-size="13" font-weight="bold" lengthAdjust="spacingAndGlyphs" textLength="80" x="477" y="419.778">
    settlement
  </text>
  <path d="M20 439.844h64v7l-10 10H20v-17" fill="#EEE" stroke="#000"/>
  <path fill="none" stroke="#000" stroke-width="2" d="M20 439.844h1076v1267.633H20z"/>
  <text font-family="sans-serif" font-size="13" font-weight="bold" lengthAdjust="spacingAndGlyphs" textLength="19" x="35" y="452.911">
    alt
  </text>
  <text font-family="sans-serif" font-size="11" font-weight="bold" lengthAdjust="spacingAndGlyphs" textLength="120" x="99" y="452.054">
    [settlement found]
  </text>
  <path fill="#A80036" stroke="#a80036" d="M609 489.242l10 4-10 4 4-4z"/>
  <path stroke="#a80036" d="M401 493.242h214"/>
  <text font-family="sans-serif" font-size="13" font-weight="bold" lengthAdjust="spacingAndGlyphs" textLength="9" x="408" y="480.61">
    5
  </text>
  <text font-family="sans-serif" font-size="13" lengthAdjust="spacingAndGlyphs" textLength="182" x="421" y="473.043">
    Request settlement windows
  </text>
  <text fill="red" font-family="sans-serif" font-size="13" font-weight="bold" lengthAdjust="spacingAndGlyphs" textLength="82" x="421" y="488.176">
    Error code:
  </text>
  <text fill="red" font-family="sans-serif" font-size="13" lengthAdjust="spacingAndGlyphs" textLength="32" x="507" y="488.176">
    2001
  </text>
  <path fill="#A80036" stroke="#a80036" d="M787.5 518.375l10 4-10 4 4-4z"/>
  <path stroke="#a80036" d="M631 522.375h162.5"/>
  <text font-family="sans-serif" font-size="13" font-weight="bold" lengthAdjust="spacingAndGlyphs" textLength="9" x="638" y="517.309">
    6
  </text>
  <text font-family="sans-serif" font-size="13" lengthAdjust="spacingAndGlyphs" textLength="108" x="651" y="517.309">
    Retrieve windows
  </text>
  <path fill="#FFFFE0" filter="url(#a)" stroke="#a80036" d="M577 565.375h454l10 64-10 65H577l-10-65 10-64z"/>
  <text font-family="sans-serif" font-size="13" lengthAdjust="spacingAndGlyphs" textLength="409" x="579" y="581.442">
    SELECT sw.settlementWindowId, swsc.settlementWindowStateId,
  </text>
  <text font-family="sans-serif" font-size="13" lengthAdjust="spacingAndGlyphs" textLength="398" x="607" y="596.575">
    swsc.reason, sw.createdDate, swsc.createdDate changedDate
  </text>
  <text font-family="sans-serif" font-size="13" lengthAdjust="spacingAndGlyphs" textLength="36" x="579" y="611.707">
    FROM
  </text>
  <text font-family="sans-serif" font-size="13" font-weight="bold" lengthAdjust="spacingAndGlyphs" textLength="219" x="619" y="611.707">
    settlementSettlementWindow
  </text>
  <text font-family="sans-serif" font-size="13" lengthAdjust="spacingAndGlyphs" textLength="23" x="842" y="611.707">
    ssw
  </text>
  <text font-family="sans-serif" font-size="13" lengthAdjust="spacingAndGlyphs" textLength="26" x="579" y="626.84">
    JOIN
  </text>
  <text font-family="sans-serif" font-size="13" font-weight="bold" lengthAdjust="spacingAndGlyphs" textLength="138" x="609" y="626.84">
    settlementWindow
  </text>
  <text font-family="sans-serif" font-size="13" lengthAdjust="spacingAndGlyphs" textLength="16" x="751" y="626.84">
    sw
  </text>
  <text font-family="sans-serif" font-size="13" lengthAdjust="spacingAndGlyphs" textLength="346" x="579" y="641.973">
    ON sw.settlementWindowId = ssw.settlementWindowId
  </text>
  <text font-family="sans-serif" font-size="13" lengthAdjust="spacingAndGlyphs" textLength="26" x="579" y="657.106">
    JOIN
  </text>
  <text font-family="sans-serif" font-size="13" font-weight="bold" lengthAdjust="spacingAndGlyphs" textLength="233" x="609" y="657.106">
    settlementWindowStateChange
  </text>
  <text font-family="sans-serif" font-size="13" lengthAdjust="spacingAndGlyphs" textLength="30" x="846" y="657.106">
    swsc
  </text>
  <text font-family="sans-serif" font-size="13" lengthAdjust="spacingAndGlyphs" textLength="450" x="579" y="672.239">
    ON swsc.settlementWindowStateChangeId = sw.currentStateChangeId
  </text>
  <text font-family="sans-serif" font-size="13" lengthAdjust="spacingAndGlyphs" textLength="203" x="579" y="687.372">
    WHERE ssw.settlementId = {id}
  </text>
  <path fill="#A80036" stroke="#a80036" d="M412 716.57l-10 4 10 4-4-4z"/>
  <path stroke="#a80036" stroke-dasharray="2,2" d="M406 720.57h219"/>
  <text font-family="sans-serif" font-size="13" font-weight="bold" lengthAdjust="spacingAndGlyphs" textLength="9" x="418" y="715.504">
    7
  </text>
  <text font-family="sans-serif" font-size="13" lengthAdjust="spacingAndGlyphs" textLength="42" x="431" y="715.504">
    Return
  </text>
  <text font-family="sans-serif" font-size="13" font-weight="bold" lengthAdjust="spacingAndGlyphs" textLength="64" x="477" y="715.504">
    windows
  </text>
  <path fill="#A80036" stroke="#a80036" d="M609 760.836l10 4-10 4 4-4z"/>
  <path stroke="#a80036" d="M401 764.836h214"/>
  <text font-family="sans-serif" font-size="13" font-weight="bold" lengthAdjust="spacingAndGlyphs" textLength="9" x="408" y="752.204">
    8
  </text>
  <text font-family="sans-serif" font-size="13" lengthAdjust="spacingAndGlyphs" textLength="188" x="421" y="744.637">
    Request settlement accounts
  </text>
  <text fill="red" font-family="sans-serif" font-size="13" font-weight="bold" lengthAdjust="spacingAndGlyphs" textLength="82" x="421" y="759.77">
    Error code:
  </text>
  <text fill="red" font-family="sans-serif" font-size="13" lengthAdjust="spacingAndGlyphs" textLength="32" x="507" y="759.77">
    2001
  </text>
  <path fill="#A80036" stroke="#a80036" d="M787.5 789.969l10 4-10 4 4-4z"/>
  <path stroke="#a80036" d="M631 793.969h162.5"/>
  <text font-family="sans-serif" font-size="13" font-weight="bold" lengthAdjust="spacingAndGlyphs" textLength="9" x="638" y="788.903">
    9
  </text>
  <text font-family="sans-serif" font-size="13" lengthAdjust="spacingAndGlyphs" textLength="114" x="651" y="788.903">
    Retrieve accounts
  </text>
  <path fill="#FFFFE0" filter="url(#a)" stroke="#a80036" d="M532 836.969h544l10 64-10 65H532l-10-65 10-64z"/>
  <text font-family="sans-serif" font-size="13" lengthAdjust="spacingAndGlyphs" textLength="488" x="534" y="853.036">
    SELECT pc.participantId, spc.participantCurrencyId, spcsc.settlementStateId,
  </text>
  <text font-family="sans-serif" font-size="13" lengthAdjust="spacingAndGlyphs" textLength="283" x="562" y="868.168">
    spcsc.reason, spc.netAmount, pc.currencyId
  </text>
  <text font-family="sans-serif" font-size="13" lengthAdjust="spacingAndGlyphs" textLength="36" x="534" y="883.301">
    FROM
  </text>
  <text font-family="sans-serif" font-size="13" font-weight="bold" lengthAdjust="spacingAndGlyphs" textLength="226" x="574" y="883.301">
    settlementParticipantCurrency
  </text>
  <text font-family="sans-serif" font-size="13" lengthAdjust="spacingAndGlyphs" textLength="22" x="804" y="883.301">
    spc
  </text>
  <text font-family="sans-serif" font-size="13" lengthAdjust="spacingAndGlyphs" textLength="26" x="534" y="898.434">
    JOIN
  </text>
  <text font-family="sans-serif" font-size="13" font-weight="bold" lengthAdjust="spacingAndGlyphs" textLength="321" x="564" y="898.434">
    settlementParticipantCurrencyStateChange
  </text>
  <text font-family="sans-serif" font-size="13" lengthAdjust="spacingAndGlyphs" textLength="36" x="889" y="898.434">
    spcsc
  </text>
  <text font-family="sans-serif" font-size="13" lengthAdjust="spacingAndGlyphs" textLength="540" x="534" y="913.567">
    ON spcsc.settlementParticipantCurrencyStateChangeId = spc.currentStateChangeId
  </text>
  <text font-family="sans-serif" font-size="13" lengthAdjust="spacingAndGlyphs" textLength="26" x="534" y="928.7">
    JOIN
  </text>
  <text font-family="sans-serif" font-size="13" font-weight="bold" lengthAdjust="spacingAndGlyphs" textLength="146" x="564" y="928.7">
    participantCurrency
  </text>
  <text font-family="sans-serif" font-size="13" lengthAdjust="spacingAndGlyphs" textLength="15" x="714" y="928.7">
    pc
  </text>
  <text font-family="sans-serif" font-size="13" lengthAdjust="spacingAndGlyphs" textLength="360" x="534" y="943.832">
    ON pc.participantCurrencyId = spc.participantCurrencyId
  </text>
  <text font-family="sans-serif" font-size="13" lengthAdjust="spacingAndGlyphs" textLength="202" x="534" y="958.965">
    WHERE spc.settlementId = {id}
  </text>
  <path fill="#A80036" stroke="#a80036" d="M412 988.164l-10 4 10 4-4-4z"/>
  <path stroke="#a80036" stroke-dasharray="2,2" d="M406 992.164h219"/>
  <text font-family="sans-serif" font-size="13" font-weight="bold" lengthAdjust="spacingAndGlyphs" textLength="18" x="418" y="987.098">
    10
  </text>
  <text font-family="sans-serif" font-size="13" lengthAdjust="spacingAndGlyphs" textLength="42" x="440" y="987.098">
    Return
  </text>
  <text font-family="sans-serif" font-size="13" font-weight="bold" lengthAdjust="spacingAndGlyphs" textLength="66" x="486" y="987.098">
    accounts
  </text>
  <path d="M30 1005.164v479h352v-469l-10-10H30" fill="#FF0" filter="url(#a)" stroke="#a80036"/>
  <path d="M372 1005.164v10h10l-10-10" fill="#FF0" stroke="#a80036"/>
  <text font-family="sans-serif" font-size="13" lengthAdjust="spacingAndGlyphs" textLength="8" x="36" y="1022.231">
    {
  </text>
  <text font-family="sans-serif" font-size="13" lengthAdjust="spacingAndGlyphs" textLength="188" x="52" y="1037.364">
    &quot;id&quot;: settlement.settlementId,
  </text>
  <text font-family="sans-serif" font-size="13" lengthAdjust="spacingAndGlyphs" textLength="245" x="52" y="1052.497">
    &quot;state&quot;: settlement.settlementStateId,
  </text>
  <text font-family="sans-serif" font-size="13" lengthAdjust="spacingAndGlyphs" textLength="147" x="52" y="1067.629">
    &quot;settlementWindows&quot;: [
  </text>
  <text font-family="sans-serif" font-size="13" lengthAdjust="spacingAndGlyphs" textLength="5" x="68" y="1082.762">
    [
  </text>
  <text font-family="sans-serif" font-size="13" lengthAdjust="spacingAndGlyphs" textLength="8" x="84" y="1097.895">
    {
  </text>
  <text font-family="sans-serif" font-size="13" lengthAdjust="spacingAndGlyphs" textLength="210" x="100" y="1113.028">
    &quot;id&quot;: window.settlementWindowId,
  </text>
  <text font-family="sans-serif" font-size="13" lengthAdjust="spacingAndGlyphs" textLength="159" x="100" y="1128.161">
    &quot;reason&quot;: window.reason,
  </text>
  <text font-family="sans-serif" font-size="13" lengthAdjust="spacingAndGlyphs" textLength="267" x="100" y="1143.293">
    &quot;state&quot;: window.settlementWindowStateId,
  </text>
  <text font-family="sans-serif" font-size="13" lengthAdjust="spacingAndGlyphs" textLength="231" x="100" y="1158.426">
    &quot;createdDate&quot;: window.createdDate,
  </text>
  <text font-family="sans-serif" font-size="13" lengthAdjust="spacingAndGlyphs" textLength="239" x="100" y="1173.559">
    &quot;changedDate&quot;: window.changedDate
  </text>
  <text font-family="sans-serif" font-size="13" lengthAdjust="spacingAndGlyphs" textLength="8" x="84" y="1188.692">
    }
  </text>
  <text font-family="sans-serif" font-size="13" lengthAdjust="spacingAndGlyphs" textLength="5" x="68" y="1203.825">
    ]
  </text>
  <text font-family="sans-serif" font-size="13" lengthAdjust="spacingAndGlyphs" textLength="9" x="52" y="1218.957">
    ],
  </text>
  <text font-family="sans-serif" font-size="13" lengthAdjust="spacingAndGlyphs" textLength="98" x="52" y="1234.09">
    &quot;participants&quot;: [
  </text>
  <text font-family="sans-serif" font-size="13" lengthAdjust="spacingAndGlyphs" textLength="8" x="68" y="1249.223">
    {
  </text>
  <text font-family="sans-serif" font-size="13" lengthAdjust="spacingAndGlyphs" textLength="167" x="84" y="1264.356">
    &quot;id&quot;: account.participantId,
  </text>
  <text font-family="sans-serif" font-size="13" lengthAdjust="spacingAndGlyphs" textLength="81" x="84" y="1279.489">
    &quot;accounts&quot;: [
  </text>
  <text font-family="sans-serif" font-size="13" lengthAdjust="spacingAndGlyphs" textLength="8" x="100" y="1294.622">
    {
  </text>
  <text font-family="sans-serif" font-size="13" lengthAdjust="spacingAndGlyphs" textLength="224" x="116" y="1309.754">
    &quot;id&quot;: account.participantCurrencyId,
  </text>
  <text font-family="sans-serif" font-size="13" lengthAdjust="spacingAndGlyphs" textLength="165" x="116" y="1324.887">
    &quot;reason&quot;: account.reason,
  </text>
  <text font-family="sans-serif" font-size="13" lengthAdjust="spacingAndGlyphs" textLength="226" x="116" y="1340.02">
    &quot;state&quot;: account.settlementStateId,
  </text>
  <text font-family="sans-serif" font-size="13" lengthAdjust="spacingAndGlyphs" textLength="170" x="116" y="1355.153">
    &quot;netSettlementAmount&quot;: {
  </text>
  <text font-family="sans-serif" font-size="13" lengthAdjust="spacingAndGlyphs" textLength="199" x="132" y="1370.286">
    &quot;amount&quot;: account.netAmount,
  </text>
  <text font-family="sans-serif" font-size="13" lengthAdjust="spacingAndGlyphs" textLength="194" x="132" y="1385.418">
    &quot;currency&quot;: account.currencyId
  </text>
  <text font-family="sans-serif" font-size="13" lengthAdjust="spacingAndGlyphs" textLength="8" x="116" y="1400.551">
    }
  </text>
  <text font-family="sans-serif" font-size="13" lengthAdjust="spacingAndGlyphs" textLength="8" x="100" y="1415.684">
    }
  </text>
  <text font-family="sans-serif" font-size="13" lengthAdjust="spacingAndGlyphs" textLength="5" x="84" y="1430.817">
    ]
  </text>
  <text font-family="sans-serif" font-size="13" lengthAdjust="spacingAndGlyphs" textLength="8" x="68" y="1445.95">
    }
  </text>
  <text font-family="sans-serif" font-size="13" lengthAdjust="spacingAndGlyphs" textLength="5" x="52" y="1461.082">
    ]
  </text>
  <text font-family="sans-serif" font-size="13" lengthAdjust="spacingAndGlyphs" textLength="8" x="36" y="1476.215">
    }
  </text>
  <path fill="#A80036" stroke="#a80036" d="M145 1510.414l-10 4 10 4-4-4z"/>
  <path stroke="#a80036" stroke-dasharray="2,2" d="M139 1514.414h251"/>
  <text font-family="sans-serif" font-size="13" font-weight="bold" lengthAdjust="spacingAndGlyphs" textLength="18" x="151" y="1509.348">
    11
  </text>
  <text font-family="sans-serif" font-size="13" lengthAdjust="spacingAndGlyphs" textLength="160" x="173" y="1509.348">
    Respond HTTP - 200 (OK)
  </text>
  <path stroke="#000" stroke-dasharray="2,2" d="M20 1523.414h1076"/>
  <path d="M406 1529.414v25h130v-15l-10-10H406" fill="#D3D3D3" filter="url(#a)" stroke="#a80036"/>
  <path d="M526 1529.414v10h10l-10-10" fill="#D3D3D3" stroke="#a80036"/>
  <text font-family="sans-serif" font-size="13" lengthAdjust="spacingAndGlyphs" textLength="109" x="412" y="1546.481">
    Log ERROR event
  </text>
  <path d="M53 1568.547v100h329v-90l-10-10H53" fill="#FF0" filter="url(#a)" stroke="#a80036"/>
  <path d="M372 1568.547v10h10l-10-10" fill="#FF0" stroke="#a80036"/>
  <text font-family="sans-serif" font-size="13" lengthAdjust="spacingAndGlyphs" textLength="8" x="59" y="1585.614">
    {
  </text>
  <text font-family="sans-serif" font-size="13" lengthAdjust="spacingAndGlyphs" textLength="120" x="75" y="1600.747">
    errorInformation: {
  </text>
  <text font-family="sans-serif" font-size="13" lengthAdjust="spacingAndGlyphs" textLength="153" x="91" y="1615.879">
    &quot;errorCode&quot;: &lt;integer&gt;,
  </text>
  <text font-family="sans-serif" font-size="13" lengthAdjust="spacingAndGlyphs" textLength="276" x="91" y="1631.012">
    &quot;errorDescription&quot;: &quot;Client error description&quot;
  </text>
  <text font-family="sans-serif" font-size="13" lengthAdjust="spacingAndGlyphs" textLength="8" x="75" y="1646.145">
    }
  </text>
  <text font-family="sans-serif" font-size="13" lengthAdjust="spacingAndGlyphs" textLength="8" x="59" y="1661.278">
    }
  </text>
  <path fill="#A80036" stroke="#a80036" d="M140 1695.477l-10 4 10 4-4-4z"/>
  <path stroke="#a80036" stroke-dasharray="2,2" d="M134 1699.477h261"/>
  <text font-family="sans-serif" font-size="13" font-weight="bold" lengthAdjust="spacingAndGlyphs" textLength="18" x="146" y="1694.411">
    12
  </text>
  <text font-family="sans-serif" font-size="13" lengthAdjust="spacingAndGlyphs" textLength="211" x="168" y="1694.411">
    Respond HTTP - 4xx (Client error)
  </text>
</svg>
