<svg xmlns="http://www.w3.org/2000/svg" height="1294" preserveAspectRatio="none" style="width:1147px;height:1294px" width="1147">
  <defs>
    <filter height="300%" id="a" width="300%" x="-1" y="-1">
      <feGaussianBlur result="blurOut" stdDeviation="2"/>
      <feColorMatrix in="blurOut" result="blurOut2" values="0 0 0 0 0 0 0 0 0 0 0 0 0 0 0 0 0 0 .4 0"/>
      <feOffset dx="4" dy="4" in="blurOut2" result="blurOut3"/>
      <feBlend in="SourceGraphic" in2="blurOut3"/>
    </filter>
  </defs>
  <text font-family="sans-serif" font-size="18" lengthAdjust="spacingAndGlyphs" textLength="624" x="259.5" y="28.708">
    6.1.1. Request Settlement Window By Id (getSettlementWindowById)
  </text>
  <path fill="#FFB6C1" stroke="#a80036" d="M139 40.953h114v1247.969H139z"/>
  <text font-family="sans-serif" font-size="13" font-weight="bold" lengthAdjust="spacingAndGlyphs" textLength="89" x="151.5" y="53.02">
    Central HUB
  </text>
  <path fill="#90EE90" stroke="#a80036" d="M369.5 40.953h430v1247.969h-430z"/>
  <text font-family="sans-serif" font-size="13" font-weight="bold" lengthAdjust="spacingAndGlyphs" textLength="139" x="515" y="53.02">
    Settlement Service
  </text>
  <path fill="#FFFFE0" stroke="#a80036" d="M824 40.953h125v1247.969H824z"/>
  <text font-family="sans-serif" font-size="13" font-weight="bold" lengthAdjust="spacingAndGlyphs" textLength="119" x="827" y="53.02">
    Central Services
  </text>
  <path fill="#FFF" filter="url(#a)" stroke="#a80036" d="M191 153.383h10v1017.242h-10zM449 198.648h10v971.977h-10zM732 242.914h10v197.063h-10zM732 508.375h10v151.664h-10zM881.5 272.047h10v30h-10zM881.5 537.508h10v30h-10z"/>
  <path fill="#FFF" filter="url(#a)" stroke="#000" stroke-width="2" d="M10 160.383h1123v1025.242H10z"/>
  <path fill="#FFF" filter="url(#a)" stroke="#000" stroke-width="2" d="M20 454.977h1014v723.648H20z"/>
  <path fill="#FFF" d="M20 993.563h1014v185.063H20z"/>
  <path stroke="#a80036" stroke-dasharray="5,5" d="M196 143.383v1059.242M453.5 143.383v1059.242M736.5 143.383v1059.242M886.5 143.383v1059.242"/>
  <text font-family="sans-serif" font-size="14" lengthAdjust="spacingAndGlyphs" textLength="100" x="143" y="140.081">
    Hub Employee
  </text>
  <circle cx="196" cy="70.086" fill="#FEFECE" filter="url(#a)" stroke="#a80036" stroke-width="2" r="8"/>
  <path d="M196 78.086v27m-13-19h26m-13 19l-13 15m13-15l13 15" fill="none" filter="url(#a)" stroke="#a80036" stroke-width="2"/>
  <text font-family="sans-serif" font-size="14" lengthAdjust="spacingAndGlyphs" textLength="100" x="143" y="1214.62">
    Hub Employee
  </text>
  <circle cx="196" cy="1227.922" fill="#FEFECE" filter="url(#a)" stroke="#a80036" stroke-width="2" r="8"/>
  <path d="M196 1235.922v27m-13-19h26m-13 19l-13 15m13-15l13 15" fill="none" filter="url(#a)" stroke="#a80036" stroke-width="2"/>
  <text font-family="sans-serif" font-size="14" lengthAdjust="spacingAndGlyphs" textLength="155" x="373.5" y="140.081">
    Settlement Service API
  </text>
  <path d="M433.5 99.086v24m0-12h17" fill="none" filter="url(#a)" stroke="#a80036" stroke-width="2"/>
  <circle cx="462.5" cy="111.086" fill="#FEFECE" filter="url(#a)" stroke="#a80036" stroke-width="2" r="12"/>
  <text font-family="sans-serif" font-size="14" lengthAdjust="spacingAndGlyphs" textLength="155" x="373.5" y="1214.62">
    Settlement Service API
  </text>
  <path d="M433.5 1221.922v24m0-12h17" fill="none" filter="url(#a)" stroke="#a80036" stroke-width="2"/>
  <circle cx="462.5" cy="1233.922" fill="#FEFECE" filter="url(#a)" stroke="#a80036" stroke-width="2" r="12"/>
  <text font-family="sans-serif" font-size="14" lengthAdjust="spacingAndGlyphs" textLength="111" x="678.5" y="140.081">
    Settlement DAO
  </text>
  <circle cx="737" cy="111.086" fill="#FEFECE" filter="url(#a)" stroke="#a80036" stroke-width="2" r="12"/>
  <path stroke="#a80036" stroke-width="2" d="M725 125.086h24"/>
  <text font-family="sans-serif" font-size="14" lengthAdjust="spacingAndGlyphs" textLength="111" x="678.5" y="1214.62">
    Settlement DAO
  </text>
  <circle cx="737" cy="1233.922" fill="#FEFECE" filter="url(#a)" stroke="#a80036" stroke-width="2" r="12"/>
  <path stroke="#a80036" stroke-width="2" d="M725 1247.922h24"/>
  <text font-family="sans-serif" font-size="14" lengthAdjust="spacingAndGlyphs" textLength="90" x="838.5" y="140.081">
    Central Store
  </text>
  <path d="M868.5 91.086c0-10 18-10 18-10s18 0 18 10v26c0 10-18 10-18 10s-18 0-18-10v-26" fill="#FEFECE" filter="url(#a)" stroke="#000" stroke-width="1.5"/>
  <path d="M868.5 91.086c0 10 18 10 18 10s18 0 18-10" fill="none" stroke="#000" stroke-width="1.5"/>
  <text font-family="sans-serif" font-size="14" lengthAdjust="spacingAndGlyphs" textLength="90" x="838.5" y="1214.62">
    Central Store
  </text>
  <path d="M868.5 1227.922c0-10 18-10 18-10s18 0 18 10v26c0 10-18 10-18 10s-18 0-18-10v-26" fill="#FEFECE" filter="url(#a)" stroke="#000" stroke-width="1.5"/>
  <path d="M868.5 1227.922c0 10 18 10 18 10s18 0 18-10" fill="none" stroke="#000" stroke-width="1.5"/>
  <path fill="#FFF" filter="url(#a)" stroke="#a80036" d="M191 153.383h10v1017.242h-10zM449 198.648h10v971.977h-10zM732 242.914h10v197.063h-10zM732 508.375h10v151.664h-10zM881.5 272.047h10v30h-10zM881.5 537.508h10v30h-10z"/>
  <path d="M10 160.383h255v7l-10 10H10v-17" fill="#EEE" stroke="#000"/>
  <path fill="none" stroke="#000" stroke-width="2" d="M10 160.383h1123v1025.242H10z"/>
  <text font-family="sans-serif" font-size="13" font-weight="bold" lengthAdjust="spacingAndGlyphs" textLength="210" x="25" y="173.45">
    Request Settlement Window
  </text>
  <path fill="#A80036" stroke="#a80036" d="M437 194.648l10 4-10 4 4-4z"/>
  <path stroke="#a80036" d="M201 198.648h242"/>
  <text font-family="sans-serif" font-size="13" font-weight="bold" lengthAdjust="spacingAndGlyphs" textLength="9" x="208" y="193.583">
    1
  </text>
  <text font-family="sans-serif" font-size="13" lengthAdjust="spacingAndGlyphs" textLength="197" x="221" y="193.583">
    GET - /settlementWindows/{id}
  </text>
  <path fill="#A80036" stroke="#a80036" d="M720 238.914l10 4-10 4 4-4z"/>
  <path stroke="#a80036" d="M459 242.914h267"/>
  <text font-family="sans-serif" font-size="13" font-weight="bold" lengthAdjust="spacingAndGlyphs" textLength="9" x="466" y="230.282">
    2
  </text>
  <text font-family="sans-serif" font-size="13" lengthAdjust="spacingAndGlyphs" textLength="207" x="479" y="222.715">
    Request settlementWindow by id
  </text>
  <text fill="red" font-family="sans-serif" font-size="13" font-weight="bold" lengthAdjust="spacingAndGlyphs" textLength="82" x="479" y="237.848">
    Error code:
  </text>
  <text fill="red" font-family="sans-serif" font-size="13" lengthAdjust="spacingAndGlyphs" textLength="32" x="565" y="237.848">
    2001
  </text>
  <path fill="#A80036" stroke="#a80036" d="M869.5 268.047l10 4-10 4 4-4z"/>
  <path stroke="#a80036" d="M742 272.047h133.5"/>
  <text font-family="sans-serif" font-size="13" font-weight="bold" lengthAdjust="spacingAndGlyphs" textLength="9" x="749" y="266.981">
    3
  </text>
  <text font-family="sans-serif" font-size="13" lengthAdjust="spacingAndGlyphs" textLength="97" x="762" y="266.981">
    Select from DB
  </text>
  <path fill="#FFFFE0" filter="url(#a)" stroke="#a80036" d="M659 315.047h454l10 49-10 49H659l-10-49 10-49z"/>
  <text font-family="sans-serif" font-size="13" lengthAdjust="spacingAndGlyphs" textLength="409" x="661" y="331.114">
    SELECT sw.settlementWindowId, swsc.settlementWindowStateId,
  </text>
  <text font-family="sans-serif" font-size="13" lengthAdjust="spacingAndGlyphs" textLength="398" x="689" y="346.247">
    swsc.reason, sw.createdDate, swsc.createdDate changedDate
  </text>
  <text font-family="sans-serif" font-size="13" lengthAdjust="spacingAndGlyphs" textLength="36" x="661" y="361.379">
    FROM
  </text>
  <text font-family="sans-serif" font-size="13" font-weight="bold" lengthAdjust="spacingAndGlyphs" textLength="138" x="701" y="361.379">
    settlementWindow
  </text>
  <text font-family="sans-serif" font-size="13" lengthAdjust="spacingAndGlyphs" textLength="38" x="843" y="361.379">
    AS sw
  </text>
  <text font-family="sans-serif" font-size="13" lengthAdjust="spacingAndGlyphs" textLength="26" x="661" y="376.512">
    JOIN
  </text>
  <text font-family="sans-serif" font-size="13" font-weight="bold" lengthAdjust="spacingAndGlyphs" textLength="233" x="691" y="376.512">
    settlementWindowStateChange
  </text>
  <text font-family="sans-serif" font-size="13" lengthAdjust="spacingAndGlyphs" textLength="52" x="928" y="376.512">
    AS swsc
  </text>
  <text font-family="sans-serif" font-size="13" lengthAdjust="spacingAndGlyphs" textLength="450" x="661" y="391.645">
    ON swsc.settlementWindowStateChangeId = sw.currentStateChangeId
  </text>
  <text font-family="sans-serif" font-size="13" lengthAdjust="spacingAndGlyphs" textLength="243" x="661" y="406.778">
    WHERE sw.settlementWindowId = {id}
  </text>
  <path fill="#A80036" stroke="#a80036" d="M470 435.977l-10 4 10 4-4-4z"/>
  <path stroke="#a80036" stroke-dasharray="2,2" d="M464 439.977h272"/>
  <text font-family="sans-serif" font-size="13" font-weight="bold" lengthAdjust="spacingAndGlyphs" textLength="9" x="476" y="434.911">
    4
  </text>
  <text font-family="sans-serif" font-size="13" lengthAdjust="spacingAndGlyphs" textLength="42" x="489" y="434.911">
    Return
  </text>
  <text font-family="sans-serif" font-size="13" font-weight="bold" lengthAdjust="spacingAndGlyphs" textLength="34" x="535" y="434.911">
    data
  </text>
  <path d="M20 454.977h64v7l-10 10H20v-17" fill="#EEE" stroke="#000"/>
  <path fill="none" stroke="#000" stroke-width="2" d="M20 454.977h1014v723.648H20z"/>
  <text font-family="sans-serif" font-size="13" font-weight="bold" lengthAdjust="spacingAndGlyphs" textLength="19" x="35" y="468.043">
    alt
  </text>
  <text font-family="sans-serif" font-size="11" font-weight="bold" lengthAdjust="spacingAndGlyphs" textLength="172" x="99" y="467.187">
    [settlementWindow found]
  </text>
  <path fill="#A80036" stroke="#a80036" d="M720 504.375l10 4-10 4 4-4z"/>
  <path stroke="#a80036" d="M459 508.375h267"/>
  <text font-family="sans-serif" font-size="13" font-weight="bold" lengthAdjust="spacingAndGlyphs" textLength="9" x="466" y="495.743">
    5
  </text>
  <text font-family="sans-serif" font-size="13" lengthAdjust="spacingAndGlyphs" textLength="241" x="479" y="488.176">
    Request settlementWindowContent(s)
  </text>
  <text fill="red" font-family="sans-serif" font-size="13" font-weight="bold" lengthAdjust="spacingAndGlyphs" textLength="82" x="479" y="503.309">
    Error code:
  </text>
  <text fill="red" font-family="sans-serif" font-size="13" lengthAdjust="spacingAndGlyphs" textLength="32" x="565" y="503.309">
    2001
  </text>
  <path fill="#A80036" stroke="#a80036" d="M869.5 533.508l10 4-10 4 4-4z"/>
  <path stroke="#a80036" d="M742 537.508h133.5"/>
  <text font-family="sans-serif" font-size="13" font-weight="bold" lengthAdjust="spacingAndGlyphs" textLength="9" x="749" y="532.442">
    6
  </text>
  <text font-family="sans-serif" font-size="13" lengthAdjust="spacingAndGlyphs" textLength="97" x="762" y="532.442">
    Select from DB
  </text>
  <path fill="#FFFFE0" filter="url(#a)" stroke="#a80036" d="M758 580.508h256l10 26-10 27H758l-10-27 10-26z"/>
  <text font-family="sans-serif" font-size="13" lengthAdjust="spacingAndGlyphs" textLength="168" x="760" y="596.575">
    settlementWindowContent
  </text>
  <text font-family="sans-serif" font-size="13" lengthAdjust="spacingAndGlyphs" textLength="252" x="760" y="611.707">
    settlementWindowContentStateChange
  </text>
  <text font-family="sans-serif" font-size="13" lengthAdjust="spacingAndGlyphs" textLength="122" x="760" y="626.84">
    ledgerAccountType
  </text>
  <path fill="#A80036" stroke="#a80036" d="M470 656.04l-10 4 10 4-4-4z"/>
  <path stroke="#a80036" stroke-dasharray="2,2" d="M464 660.039h272"/>
  <text font-family="sans-serif" font-size="13" font-weight="bold" lengthAdjust="spacingAndGlyphs" textLength="9" x="476" y="654.973">
    7
  </text>
  <text font-family="sans-serif" font-size="13" lengthAdjust="spacingAndGlyphs" textLength="42" x="489" y="654.973">
    Return
  </text>
  <text font-family="sans-serif" font-size="13" font-weight="bold" lengthAdjust="spacingAndGlyphs" textLength="82" x="535" y="654.973">
    contentList
  </text>
  <path d="M30 673.04v282h410v-272l-10-10H30" fill="#FF0" filter="url(#a)" stroke="#a80036"/>
  <path d="M430 673.04v10h10l-10-10" fill="#FF0" stroke="#a80036"/>
  <text font-family="sans-serif" font-size="13" lengthAdjust="spacingAndGlyphs" textLength="8" x="36" y="690.106">
    {
  </text>
  <text font-family="sans-serif" font-size="13" lengthAdjust="spacingAndGlyphs" textLength="194" x="52" y="705.239">
    &quot;id&quot;: data.settlementWindowId,
  </text>
  <text font-family="sans-serif" font-size="13" lengthAdjust="spacingAndGlyphs" textLength="251" x="52" y="720.372">
    &quot;state&quot;: data.settlementWindowStateId,
  </text>
  <text font-family="sans-serif" font-size="13" lengthAdjust="spacingAndGlyphs" textLength="143" x="52" y="735.504">
    &quot;reason&quot;: data.reason,
  </text>
  <text font-family="sans-serif" font-size="13" lengthAdjust="spacingAndGlyphs" textLength="215" x="52" y="750.637">
    &quot;createdDate&quot;: data.createdDate,
  </text>
  <text font-family="sans-serif" font-size="13" lengthAdjust="spacingAndGlyphs" textLength="227" x="52" y="765.77">
    &quot;changedDate&quot;: data.changedDate,
  </text>
  <text font-family="sans-serif" font-size="13" lengthAdjust="spacingAndGlyphs" textLength="72" x="52" y="780.903">
    &quot;content&quot;: [
  </text>
  <text font-family="sans-serif" font-size="13" lengthAdjust="spacingAndGlyphs" textLength="8" x="68" y="796.036">
    {
  </text>
  <text font-family="sans-serif" font-size="13" lengthAdjust="spacingAndGlyphs" textLength="287" x="84" y="811.168">
    &quot;id&quot;: contentList.settlementWindowContentId,
  </text>
  <text font-family="sans-serif" font-size="13" lengthAdjust="spacingAndGlyphs" textLength="293" x="84" y="826.301">
    &quot;state&quot;: contentList.settlementWindowStateId,
  </text>
  <text font-family="sans-serif" font-size="13" lengthAdjust="spacingAndGlyphs" textLength="341" x="84" y="841.434">
    &quot;ledgerAccountType&quot;: contentList.ledgerAccountType,
  </text>
  <text font-family="sans-serif" font-size="13" lengthAdjust="spacingAndGlyphs" textLength="229" x="84" y="856.567">
    &quot;currencyId&quot;: contentList.currencyId,
  </text>
  <text font-family="sans-serif" font-size="13" lengthAdjust="spacingAndGlyphs" textLength="257" x="84" y="871.7">
    &quot;createdDate&quot;: contentList.createdDate,
  </text>
  <text font-family="sans-serif" font-size="13" lengthAdjust="spacingAndGlyphs" textLength="269" x="84" y="886.832">
    &quot;changedDate&quot;: contentList.changedDate,
  </text>
  <text font-family="sans-serif" font-size="13" lengthAdjust="spacingAndGlyphs" textLength="255" x="84" y="901.965">
    &quot;settlementId&quot;: contentList.settlementId
  </text>
  <text font-family="sans-serif" font-size="13" lengthAdjust="spacingAndGlyphs" textLength="8" x="68" y="917.098">
    }
  </text>
  <text font-family="sans-serif" font-size="13" lengthAdjust="spacingAndGlyphs" textLength="5" x="52" y="932.231">
    ]
  </text>
  <text font-family="sans-serif" font-size="13" lengthAdjust="spacingAndGlyphs" textLength="8" x="36" y="947.364">
    }
  </text>
  <path fill="#A80036" stroke="#a80036" d="M212 981.563l-10 4 10 4-4-4z"/>
  <path stroke="#a80036" stroke-dasharray="2,2" d="M206 985.563h242"/>
  <text font-family="sans-serif" font-size="13" font-weight="bold" lengthAdjust="spacingAndGlyphs" textLength="9" x="218" y="980.497">
    8
  </text>
  <text font-family="sans-serif" font-size="13" lengthAdjust="spacingAndGlyphs" textLength="160" x="231" y="980.497">
    Respond HTTP - 200 (OK)
  </text>
  <path stroke="#000" stroke-dasharray="2,2" d="M20 994.563h1014"/>
  <path d="M464 1000.563v25h130v-15l-10-10H464" fill="#D3D3D3" filter="url(#a)" stroke="#a80036"/>
  <path d="M584 1000.563v10h10l-10-10" fill="#D3D3D3" stroke="#a80036"/>
  <text font-family="sans-serif" font-size="13" lengthAdjust="spacingAndGlyphs" textLength="109" x="470" y="1017.629">
    Log ERROR event
  </text>
  <path d="M208 1039.695v100h232v-90l-10-10H208" fill="#FF0" filter="url(#a)" stroke="#a80036"/>
  <path d="M430 1039.695v10h10l-10-10" fill="#FF0" stroke="#a80036"/>
  <text font-family="sans-serif" font-size="13" lengthAdjust="spacingAndGlyphs" textLength="8" x="214" y="1056.762">
    {
  </text>
  <text font-family="sans-serif" font-size="13" lengthAdjust="spacingAndGlyphs" textLength="130" x="230" y="1071.895">
    &quot;errorInformation&quot;: {
  </text>
  <text font-family="sans-serif" font-size="13" lengthAdjust="spacingAndGlyphs" textLength="153" x="246" y="1087.028">
    &quot;errorCode&quot;: &lt;integer&gt;,
  </text>
  <text font-family="sans-serif" font-size="13" lengthAdjust="spacingAndGlyphs" textLength="179" x="246" y="1102.161">
    &quot;errorDescription&quot;: &lt;string&gt;
  </text>
  <text font-family="sans-serif" font-size="13" lengthAdjust="spacingAndGlyphs" textLength="8" x="230" y="1117.293">
    }
  </text>
  <text font-family="sans-serif" font-size="13" lengthAdjust="spacingAndGlyphs" textLength="8" x="214" y="1132.426">
    }
  </text>
  <path fill="#A80036" stroke="#a80036" d="M207 1166.625l-10 4 10 4-4-4z"/>
  <path stroke="#a80036" stroke-dasharray="2,2" d="M201 1170.625h252"/>
  <text font-family="sans-serif" font-size="13" font-weight="bold" lengthAdjust="spacingAndGlyphs" textLength="9" x="213" y="1165.559">
    9
  </text>
  <text font-family="sans-serif" font-size="13" lengthAdjust="spacingAndGlyphs" textLength="211" x="226" y="1165.559">
    Respond HTTP - 4xx (Client error)
  </text>
</svg>
