<?xml version="1.0" encoding="UTF-8" standalone="no"?><svg xmlns="http://www.w3.org/2000/svg" xmlns:xlink="http://www.w3.org/1999/xlink" contentScriptType="application/ecmascript" contentStyleType="text/css" height="976px" preserveAspectRatio="none" style="width:1074px;height:976px;" version="1.1" viewBox="0 0 1074 976" width="1074px" zoomAndPan="magnify"><defs><filter height="300%" id="fxh2404djwwdw" width="300%" x="-1" y="-1"><feGaussianBlur result="blurOut" stdDeviation="2.0"/><feColorMatrix in="blurOut" result="blurOut2" type="matrix" values="0 0 0 0 0 0 0 0 0 0 0 0 0 0 0 0 0 0 .4 0"/><feOffset dx="4.0" dy="4.0" in="blurOut2" result="blurOut3"/><feBlend in="SourceGraphic" in2="blurOut3" mode="normal"/></filter></defs><g><text fill="#000000" font-family="sans-serif" font-size="14" font-weight="bold" lengthAdjust="spacingAndGlyphs" textLength="489" x="293" y="23.5352">6.1.1. Request Settlement Window By Id (getSettlementWindowById)</text><rect fill="#FFB6C1" height="930.6035" style="stroke: #A80036; stroke-width: 1.0;" width="112" x="118" y="34.4883"/><text fill="#000000" font-family="sans-serif" font-size="13" font-weight="bold" lengthAdjust="spacingAndGlyphs" textLength="81" x="133.5" y="47.0566">Central HUB</text><rect fill="#90EE90" height="930.6035" style="stroke: #A80036; stroke-width: 1.0;" width="390.5" x="352.5" y="34.4883"/><text fill="#000000" font-family="sans-serif" font-size="13" font-weight="bold" lengthAdjust="spacingAndGlyphs" textLength="124" x="485.75" y="47.0566">Settlement Service</text><rect fill="#FFFFE0" height="930.6035" style="stroke: #A80036; stroke-width: 1.0;" width="114" x="764" y="34.4883"/><text fill="#000000" font-family="sans-serif" font-size="13" font-weight="bold" lengthAdjust="spacingAndGlyphs" textLength="108" x="767" y="47.0566">Central Services</text><rect fill="#FFFFFF" filter="url(#fxh2404djwwdw)" height="699.3164" style="stroke: #A80036; stroke-width: 1.0;" width="10" x="169" y="147.2871"/><rect fill="#FFFFFF" filter="url(#fxh2404djwwdw)" height="653.6953" style="stroke: #A80036; stroke-width: 1.0;" width="10" x="430" y="192.9082"/><rect fill="#FFFFFF" filter="url(#fxh2404djwwdw)" height="198.4844" style="stroke: #A80036; stroke-width: 1.0;" width="10" x="677" y="237.5293"/><rect fill="#FFFFFF" filter="url(#fxh2404djwwdw)" height="30" style="stroke: #A80036; stroke-width: 1.0;" width="10" x="816" y="266.8398"/><rect fill="#FFFFFF" filter="url(#fxh2404djwwdw)" height="707.3164" style="stroke: #000000; stroke-width: 2.0;" width="1049" x="13" y="154.2871"/><rect fill="#FFFFFF" filter="url(#fxh2404djwwdw)" height="403.5898" style="stroke: #000000; stroke-width: 2.0;" width="563" x="23" y="451.0137"/><rect fill="#FFFFFF" height="186.4844" style="stroke: none; stroke-width: 1.0;" width="563" x="23" y="668.1191"/><line style="stroke: #A80036; stroke-width: 1.0; stroke-dasharray: 5.0,5.0;" x1="174" x2="174" y1="137.2871" y2="878.6035"/><line style="stroke: #A80036; stroke-width: 1.0; stroke-dasharray: 5.0,5.0;" x1="434.5" x2="434.5" y1="137.2871" y2="878.6035"/><line style="stroke: #A80036; stroke-width: 1.0; stroke-dasharray: 5.0,5.0;" x1="682" x2="682" y1="137.2871" y2="878.6035"/><line style="stroke: #A80036; stroke-width: 1.0; stroke-dasharray: 5.0,5.0;" x1="821" x2="821" y1="137.2871" y2="878.6035"/><text fill="#000000" font-family="sans-serif" font-size="14" lengthAdjust="spacingAndGlyphs" textLength="98" x="122" y="134.334">Hub Employee</text><ellipse cx="174" cy="63.7988" fill="#FEFECE" filter="url(#fxh2404djwwdw)" rx="8" ry="8" style="stroke: #A80036; stroke-width: 2.0;"/><path d="M174,71.7988 L174,98.7988 M161,79.7988 L187,79.7988 M174,98.7988 L161,113.7988 M174,98.7988 L187,113.7988 " fill="none" filter="url(#fxh2404djwwdw)" style="stroke: #A80036; stroke-width: 2.0;"/><text fill="#000000" font-family="sans-serif" font-size="14" lengthAdjust="spacingAndGlyphs" textLength="98" x="122" y="891.1387">Hub Employee</text><ellipse cx="174" cy="904.0918" fill="#FEFECE" filter="url(#fxh2404djwwdw)" rx="8" ry="8" style="stroke: #A80036; stroke-width: 2.0;"/><path d="M174,912.0918 L174,939.0918 M161,920.0918 L187,920.0918 M174,939.0918 L161,954.0918 M174,939.0918 L187,954.0918 " fill="none" filter="url(#fxh2404djwwdw)" style="stroke: #A80036; stroke-width: 2.0;"/><text fill="#000000" font-family="sans-serif" font-size="14" lengthAdjust="spacingAndGlyphs" textLength="151" x="356.5" y="134.334">Settlement Service API</text><path d="M414.5,92.7988 L414.5,116.7988 M414.5,104.7988 L431.5,104.7988 " fill="none" filter="url(#fxh2404djwwdw)" style="stroke: #A80036; stroke-width: 2.0;"/><ellipse cx="443.5" cy="104.7988" fill="#FEFECE" filter="url(#fxh2404djwwdw)" rx="12" ry="12" style="stroke: #A80036; stroke-width: 2.0;"/><text fill="#000000" font-family="sans-serif" font-size="14" lengthAdjust="spacingAndGlyphs" textLength="151" x="356.5" y="891.1387">Settlement Service API</text><path d="M414.5,898.0918 L414.5,922.0918 M414.5,910.0918 L431.5,910.0918 " fill="none" filter="url(#fxh2404djwwdw)" style="stroke: #A80036; stroke-width: 2.0;"/><ellipse cx="443.5" cy="910.0918" fill="#FEFECE" filter="url(#fxh2404djwwdw)" rx="12" ry="12" style="stroke: #A80036; stroke-width: 2.0;"/><text fill="#000000" font-family="sans-serif" font-size="14" lengthAdjust="spacingAndGlyphs" textLength="108" x="625" y="134.334">Settlement DAO</text><ellipse cx="682" cy="104.7988" fill="#FEFECE" filter="url(#fxh2404djwwdw)" rx="12" ry="12" style="stroke: #A80036; stroke-width: 2.0;"/><line style="stroke: #A80036; stroke-width: 2.0;" x1="670" x2="694" y1="118.7988" y2="118.7988"/><text fill="#000000" font-family="sans-serif" font-size="14" lengthAdjust="spacingAndGlyphs" textLength="108" x="625" y="891.1387">Settlement DAO</text><ellipse cx="682" cy="910.0918" fill="#FEFECE" filter="url(#fxh2404djwwdw)" rx="12" ry="12" style="stroke: #A80036; stroke-width: 2.0;"/><line style="stroke: #A80036; stroke-width: 2.0;" x1="670" x2="694" y1="924.0918" y2="924.0918"/><text fill="#000000" font-family="sans-serif" font-size="14" lengthAdjust="spacingAndGlyphs" textLength="90" x="773" y="134.334">Central Store</text><path d="M803,84.7988 C803,74.7988 821,74.7988 821,74.7988 C821,74.7988 839,74.7988 839,84.7988 L839,110.7988 C839,120.7988 821,120.7988 821,120.7988 C821,120.7988 803,120.7988 803,110.7988 L803,84.7988 " fill="#FEFECE" filter="url(#fxh2404djwwdw)" style="stroke: #000000; stroke-width: 1.5;"/><path d="M803,84.7988 C803,94.7988 821,94.7988 821,94.7988 C821,94.7988 839,94.7988 839,84.7988 " fill="none" style="stroke: #000000; stroke-width: 1.5;"/><text fill="#000000" font-family="sans-serif" font-size="14" lengthAdjust="spacingAndGlyphs" textLength="90" x="773" y="891.1387">Central Store</text><path d="M803,904.0918 C803,894.0918 821,894.0918 821,894.0918 C821,894.0918 839,894.0918 839,904.0918 L839,930.0918 C839,940.0918 821,940.0918 821,940.0918 C821,940.0918 803,940.0918 803,930.0918 L803,904.0918 " fill="#FEFECE" filter="url(#fxh2404djwwdw)" style="stroke: #000000; stroke-width: 1.5;"/><path d="M803,904.0918 C803,914.0918 821,914.0918 821,914.0918 C821,914.0918 839,914.0918 839,904.0918 " fill="none" style="stroke: #000000; stroke-width: 1.5;"/><rect fill="#FFFFFF" filter="url(#fxh2404djwwdw)" height="699.3164" style="stroke: #A80036; stroke-width: 1.0;" width="10" x="169" y="147.2871"/><rect fill="#FFFFFF" filter="url(#fxh2404djwwdw)" height="653.6953" style="stroke: #A80036; stroke-width: 1.0;" width="10" x="430" y="192.9082"/><rect fill="#FFFFFF" filter="url(#fxh2404djwwdw)" height="198.4844" style="stroke: #A80036; stroke-width: 1.0;" width="10" x="677" y="237.5293"/><rect fill="#FFFFFF" filter="url(#fxh2404djwwdw)" height="30" style="stroke: #A80036; stroke-width: 1.0;" width="10" x="816" y="266.8398"/><path d="M13,154.2871 L246,154.2871 L246,161.2871 L236,171.2871 L13,171.2871 L13,154.2871 " fill="#EEEEEE" style="stroke: #000000; stroke-width: 1.0;"/><rect fill="none" height="707.3164" style="stroke: #000000; stroke-width: 2.0;" width="1049" x="13" y="154.2871"/><text fill="#000000" font-family="sans-serif" font-size="13" font-weight="bold" lengthAdjust="spacingAndGlyphs" textLength="188" x="28" y="167.8555">Request Settlement Window</text><polygon fill="#A80036" points="418,188.9082,428,192.9082,418,196.9082,422,192.9082" style="stroke: #A80036; stroke-width: 1.0;"/><line style="stroke: #A80036; stroke-width: 1.0;" x1="179" x2="424" y1="192.9082" y2="192.9082"/><text fill="#000000" font-family="sans-serif" font-size="13" font-weight="bold" lengthAdjust="spacingAndGlyphs" textLength="9" x="186" y="188.166">1</text><text fill="#000000" font-family="sans-serif" font-size="13" lengthAdjust="spacingAndGlyphs" textLength="197" x="199" y="188.166">GET - /settlementWindows/{id}</text><polygon fill="#A80036" points="665,233.5293,675,237.5293,665,241.5293,669,237.5293" style="stroke: #A80036; stroke-width: 1.0;"/><line style="stroke: #A80036; stroke-width: 1.0;" x1="440" x2="671" y1="237.5293" y2="237.5293"/><text fill="#000000" font-family="sans-serif" font-size="13" font-weight="bold" lengthAdjust="spacingAndGlyphs" textLength="9" x="447" y="225.1318">2</text><text fill="#000000" font-family="sans-serif" font-size="13" lengthAdjust="spacingAndGlyphs" textLength="205" x="460" y="217.4766">Request settlementWindow by id</text><text fill="#FF0000" font-family="sans-serif" font-size="13" font-weight="bold" lengthAdjust="spacingAndGlyphs" textLength="73" x="460" y="232.7871">Error code:</text><text fill="#FF0000" font-family="sans-serif" font-size="13" lengthAdjust="spacingAndGlyphs" textLength="32" x="537" y="232.7871">2001</text><polygon fill="#A80036" points="804,262.8398,814,266.8398,804,270.8398,808,266.8398" style="stroke: #A80036; stroke-width: 1.0;"/><line style="stroke: #A80036; stroke-width: 1.0;" x1="687" x2="810" y1="266.8398" y2="266.8398"/><text fill="#000000" font-family="sans-serif" font-size="13" font-weight="bold" lengthAdjust="spacingAndGlyphs" textLength="9" x="694" y="262.0977">3</text><text fill="#000000" font-family="sans-serif" font-size="13" lengthAdjust="spacingAndGlyphs" textLength="92" x="707" y="262.0977">Select from DB</text><polygon fill="#FFFFE0" filter="url(#fxh2404djwwdw)" points="599,309.8398,1042,309.8398,1052,358.8398,1042,408.8398,599,408.8398,589,358.8398,599,309.8398" style="stroke: #A80036; stroke-width: 1.0;"/><text fill="#000000" font-family="sans-serif" font-size="13" lengthAdjust="spacingAndGlyphs" textLength="404" x="601" y="326.4082">SELECT sw.settlementWindowId, swsc.settlementWindowStateId,</text><text fill="#000000" font-family="sans-serif" font-size="13" lengthAdjust="spacingAndGlyphs" textLength="385" x="629" y="341.7188">swsc.reason, sw.createdDate, swsc.createdDate changedDate</text><text fill="#000000" font-family="sans-serif" font-size="13" lengthAdjust="spacingAndGlyphs" textLength="36" x="601" y="357.0293">FROM</text><text fill="#000000" font-family="sans-serif" font-size="13" font-weight="bold" lengthAdjust="spacingAndGlyphs" textLength="125" x="641" y="357.0293">settlementWindow</text><text fill="#000000" font-family="sans-serif" font-size="13" lengthAdjust="spacingAndGlyphs" textLength="37" x="770" y="357.0293">AS sw</text><text fill="#000000" font-family="sans-serif" font-size="13" lengthAdjust="spacingAndGlyphs" textLength="28" x="601" y="372.3398">JOIN</text><text fill="#000000" font-family="sans-serif" font-size="13" font-weight="bold" lengthAdjust="spacingAndGlyphs" textLength="210" x="633" y="372.3398">settlementWindowStateChange</text><text fill="#000000" font-family="sans-serif" font-size="13" lengthAdjust="spacingAndGlyphs" textLength="51" x="847" y="372.3398">AS swsc</text><text fill="#000000" font-family="sans-serif" font-size="13" lengthAdjust="spacingAndGlyphs" textLength="439" x="601" y="387.6504">ON swsc.settlementWindowStateChangeId = sw.currentStateChangeId</text><text fill="#000000" font-family="sans-serif" font-size="13" lengthAdjust="spacingAndGlyphs" textLength="234" x="601" y="402.9609">WHERE sw.settlementWindowId = {id}</text><polygon fill="#A80036" points="451,432.0137,441,436.0137,451,440.0137,447,436.0137" style="stroke: #A80036; stroke-width: 1.0;"/><line style="stroke: #A80036; stroke-width: 1.0; stroke-dasharray: 2.0,2.0;" x1="445" x2="681" y1="436.0137" y2="436.0137"/><text fill="#000000" font-family="sans-serif" font-size="13" font-weight="bold" lengthAdjust="spacingAndGlyphs" textLength="9" x="457" y="431.2715">4</text><text fill="#000000" font-family="sans-serif" font-size="13" lengthAdjust="spacingAndGlyphs" textLength="41" x="470" y="431.2715">Return</text><text fill="#000000" font-family="sans-serif" font-size="13" font-weight="bold" lengthAdjust="spacingAndGlyphs" textLength="30" x="515" y="431.2715">data</text><path d="M23,451.0137 L85,451.0137 L85,458.0137 L75,468.0137 L23,468.0137 L23,451.0137 " fill="#EEEEEE" style="stroke: #000000; stroke-width: 1.0;"/><rect fill="none" height="403.5898" style="stroke: #000000; stroke-width: 2.0;" width="563" x="23" y="451.0137"/><text fill="#000000" font-family="sans-serif" font-size="13" font-weight="bold" lengthAdjust="spacingAndGlyphs" textLength="17" x="38" y="464.582">alt</text><text fill="#000000" font-family="sans-serif" font-size="11" font-weight="bold" lengthAdjust="spacingAndGlyphs" textLength="147" x="100" y="463.6484">[settlementWindow found]</text><path d="M33,473.3242 L33,498.3242 L421,498.3242 L421,483.3242 L411,473.3242 L33,473.3242 " fill="#D3D3D3" filter="url(#fxh2404djwwdw)" style="stroke: #A80036; stroke-width: 1.0;"/><path d="M411,473.3242 L411,483.3242 L421,483.3242 L411,473.3242 " fill="#D3D3D3" style="stroke: #A80036; stroke-width: 1.0;"/><text fill="#FF0000" font-family="sans-serif" font-size="13" lengthAdjust="spacingAndGlyphs" textLength="367" x="39" y="490.8926">Are we going to report window content related info below?</text><path d="M141,512.6348 L141,629.6348 L421,629.6348 L421,522.6348 L411,512.6348 L141,512.6348 " fill="#FFFF00" filter="url(#fxh2404djwwdw)" style="stroke: #A80036; stroke-width: 1.0;"/><path d="M411,512.6348 L411,522.6348 L421,522.6348 L411,512.6348 " fill="#FFFF00" style="stroke: #A80036; stroke-width: 1.0;"/><text fill="#000000" font-family="sans-serif" font-size="13" lengthAdjust="spacingAndGlyphs" textLength="4" x="147" y="530.2031">{</text><text fill="#000000" font-family="sans-serif" font-size="13" lengthAdjust="spacingAndGlyphs" textLength="193" x="163" y="545.5137">"id": data.settlementWindowId,</text><text fill="#000000" font-family="sans-serif" font-size="13" lengthAdjust="spacingAndGlyphs" textLength="243" x="163" y="560.8242">"state": data.settlementWindowStateId,</text><text fill="#000000" font-family="sans-serif" font-size="13" lengthAdjust="spacingAndGlyphs" textLength="137" x="163" y="576.1348">"reason": data.reason,</text><text fill="#000000" font-family="sans-serif" font-size="13" lengthAdjust="spacingAndGlyphs" textLength="203" x="163" y="591.4453">"createdDate": data.createdDate,</text><text fill="#000000" font-family="sans-serif" font-size="13" lengthAdjust="spacingAndGlyphs" textLength="213" x="163" y="606.7559">"changedDate": data.changedDate</text><text fill="#000000" font-family="sans-serif" font-size="13" lengthAdjust="spacingAndGlyphs" textLength="4" x="147" y="622.0664">}</text><polygon fill="#A80036" points="190,656.1191,180,660.1191,190,664.1191,186,660.1191" style="stroke: #A80036; stroke-width: 1.0;"/><line style="stroke: #A80036; stroke-width: 1.0; stroke-dasharray: 2.0,2.0;" x1="184" x2="429" y1="660.1191" y2="660.1191"/><text fill="#000000" font-family="sans-serif" font-size="13" font-weight="bold" lengthAdjust="spacingAndGlyphs" textLength="9" x="196" y="655.377">5</text><text fill="#000000" font-family="sans-serif" font-size="13" lengthAdjust="spacingAndGlyphs" textLength="161" x="209" y="655.377">Respond HTTP - 200 (OK)</text><line style="stroke: #000000; stroke-width: 1.0; stroke-dasharray: 2.0,2.0;" x1="23" x2="586" y1="669.1191" y2="669.1191"/><path d="M445,675.1191 L445,700.1191 L572,700.1191 L572,685.1191 L562,675.1191 L445,675.1191 " fill="#D3D3D3" filter="url(#fxh2404djwwdw)" style="stroke: #A80036; stroke-width: 1.0;"/><path d="M562,675.1191 L562,685.1191 L572,685.1191 L562,675.1191 " fill="#D3D3D3" style="stroke: #A80036; stroke-width: 1.0;"/><text fill="#000000" font-family="sans-serif" font-size="13" lengthAdjust="spacingAndGlyphs" textLength="106" x="451" y="692.6875">Log ERROR event</text><path d="M190,714.4297 L190,815.4297 L421,815.4297 L421,724.4297 L411,714.4297 L190,714.4297 " fill="#FFFF00" filter="url(#fxh2404djwwdw)" style="stroke: #A80036; stroke-width: 1.0;"/><path d="M411,714.4297 L411,724.4297 L421,724.4297 L411,714.4297 " fill="#FFFF00" style="stroke: #A80036; stroke-width: 1.0;"/><text fill="#000000" font-family="sans-serif" font-size="13" lengthAdjust="spacingAndGlyphs" textLength="4" x="196" y="731.998">{</text><text fill="#000000" font-family="sans-serif" font-size="13" lengthAdjust="spacingAndGlyphs" textLength="126" x="212" y="747.3086">"errorInformation": {</text><text fill="#000000" font-family="sans-serif" font-size="13" lengthAdjust="spacingAndGlyphs" textLength="148" x="228" y="762.6191">"errorCode": &lt;integer&gt;,</text><text fill="#000000" font-family="sans-serif" font-size="13" lengthAdjust="spacingAndGlyphs" textLength="178" x="228" y="777.9297">"errorDescription": &lt;string&gt;</text><text fill="#000000" font-family="sans-serif" font-size="13" lengthAdjust="spacingAndGlyphs" textLength="4" x="212" y="793.2402">}</text><text fill="#000000" font-family="sans-serif" font-size="13" lengthAdjust="spacingAndGlyphs" textLength="4" x="196" y="808.5508">}</text><polygon fill="#A80036" points="185,842.6035,175,846.6035,185,850.6035,181,846.6035" style="stroke: #A80036; stroke-width: 1.0;"/><line style="stroke: #A80036; stroke-width: 1.0; stroke-dasharray: 2.0,2.0;" x1="179" x2="434" y1="846.6035" y2="846.6035"/><text fill="#000000" font-family="sans-serif" font-size="13" font-weight="bold" lengthAdjust="spacingAndGlyphs" textLength="9" x="191" y="841.8613">6</text><text fill="#000000" font-family="sans-serif" font-size="13" lengthAdjust="spacingAndGlyphs" textLength="214" x="204" y="841.8613">Respond HTTP - 4xx (Client error)</text><!--
@startuml
title 6.1.1. Request Settlement Window By Id (getSettlementWindowById)

autonumber

actor "Hub Employee" as OPERATOR
boundary "Settlement Service API" as SSAPI
entity "Settlement DAO" as SETTLE_DAO
database "Central Store" as DB

box "Central HUB" #lightpink
    participant OPERATOR
end box

box "Settlement Service" #lightgreen
    participant SSAPI
    participant SETTLE_DAO
end box

box "Central Services" #lightyellow
    participant DB
end box

group Request Settlement Window
    activate OPERATOR
    OPERATOR -> SSAPI: GET - /settlementWindows/{id}
    activate SSAPI
    SSAPI -> SETTLE_DAO: Request settlementWindow by id\n<color #FF0000><b>Error code:</b> 2001</color>
    activate SETTLE_DAO
    SETTLE_DAO -> DB: Select from DB
    activate DB
    hnote over DB #lightyellow
        SELECT sw.settlementWindowId, swsc.settlementWindowStateId, 
               swsc.reason, sw.createdDate, swsc.createdDate changedDate
        FROM **settlementWindow** AS sw
        JOIN **settlementWindowStateChange** AS swsc
        ON swsc.settlementWindowStateChangeId = sw.currentStateChangeId
        WHERE sw.settlementWindowId = {id}
    end hnote
    deactivate DB
    SSAPI <- - SETTLE_DAO: Return **data**
    deactivate SETTLE_DAO

    alt settlementWindow found
        note left of SSAPI #lightgray
            <color #red>Are we going to report window content related info below?</color>
        end note
        note left of SSAPI #yellow
            {
                "id": data.settlementWindowId,
                "state": data.settlementWindowStateId,
                "reason": data.reason,
                "createdDate": data.createdDate,
                "changedDate": data.changedDate
            }
        end note
        OPERATOR <- - SSAPI: Respond HTTP - 200 (OK)
    else
        note right of SSAPI #lightgray
            Log ERROR event
        end note
        note left of SSAPI #yellow
            {
                "errorInformation": {
                    "errorCode": <integer>,
                    "errorDescription": <string>
                }
            }
        end note
        OPERATOR <- - SSAPI: Respond HTTP - 4xx (Client error)
        deactivate SSAPI
        deactivate OPERATOR
    end
end
@enduml

PlantUML version 1.2018.05(Sat May 05 23:00:17 EEST 2018)
(GPL source distribution)
Java Runtime: Java(TM) SE Runtime Environment
JVM: Java HotSpot(TM) 64-Bit Server VM
Java Version: 1.8.0_131-b11
Operating System: Mac OS X
OS Version: 10.15.1
Default Encoding: UTF-8
Language: en
Country: US
--></g></svg>