<svg xmlns="http://www.w3.org/2000/svg" xmlns:xlink="http://www.w3.org/1999/xlink" contentStyleType="text/css" height="762px" preserveAspectRatio="none" style="width:1158px;height:762px;background:#FFFFFF;" version="1.1" viewBox="0 0 1158 762" width="1158px" zoomAndPan="magnify">
  <title>7.3.0 Suppression du cache des points de terminaison</title>
  <defs/>
  <g>
    <text fill="#000000" font-family="sans-serif" font-size="14" font-weight="bold" lengthAdjust="spacing" textLength="428.4219" x="366.3347" y="27.9951">7.3.0 Suppression du cache des points de terminaison</text>
    <rect fill="#FFFFE0" height="706.5156" style="stroke:#181818;stroke-width:0.5;" width="552.3789" x="583.7124" y="43.2969"/>
    <text fill="#000000" font-family="sans-serif" font-size="13" font-weight="bold" lengthAdjust="spacing" textLength="175.5762" x="772.1138" y="55.3638">Account Lookup Service</text>
    <rect fill="#FFFFFF" height="273.3281" style="stroke:#181818;stroke-width:1.0;" width="10" x="100.6455" y="134.7266"/>
    <rect fill="#FFFFFF" height="472.5234" style="stroke:#181818;stroke-width:1.0;" width="10" x="683.1177" y="179.9922"/>
    <rect fill="#FFFFFF" height="228.0625" style="stroke:#181818;stroke-width:1.0;" width="10" x="688.1177" y="179.9922"/>
    <rect fill="#FFFFFF" height="169.7969" style="stroke:#181818;stroke-width:1.0;" width="10" x="930.5381" y="209.125"/>
    <rect fill="#FFFFFF" height="53.2656" style="stroke:#181818;stroke-width:1.0;" width="10" x="1102.3223" y="238.2578"/>
    <rect fill="#FFFFFF" height="29.1328" style="stroke:#181818;stroke-width:1.0;" width="10" x="1102.3223" y="320.6563"/>
    <rect fill="none" height="525.7891" style="stroke:#000000;stroke-width:1.5;" width="1142.0913" x="10" y="141.7266"/>
    <rect fill="none" height="162.7969" style="stroke:#000000;stroke-width:1.5;" width="1122.0913" x="20" y="253.2578"/>
    <rect fill="none" height="230.4609" style="stroke:#000000;stroke-width:1.5;" width="1122.0913" x="20" y="430.0547"/>
    <line style="stroke:#181818;stroke-width:0.5;stroke-dasharray:5.0,5.0;" x1="105" x2="105" y1="124.7266" y2="684.5156"/>
    <line style="stroke:#181818;stroke-width:0.5;stroke-dasharray:5.0,5.0;" x1="687.7124" x2="687.7124" y1="124.7266" y2="684.5156"/>
    <line style="stroke:#181818;stroke-width:0.5;stroke-dasharray:5.0,5.0;" x1="935.5229" x2="935.5229" y1="124.7266" y2="684.5156"/>
    <line style="stroke:#181818;stroke-width:0.5;stroke-dasharray:5.0,5.0;" x1="1106.5532" x2="1106.5532" y1="124.7266" y2="684.5156"/>
    <text fill="#000000" font-family="sans-serif" font-size="14" lengthAdjust="spacing" textLength="145.291" x="30" y="121.4248">OPÉRATEUR DU HUB</text>
    <ellipse cx="105.6455" cy="92.4297" fill="#E2E2F0" rx="12" ry="12" style="stroke:#181818;stroke-width:0.5;"/>
    <line style="stroke:#181818;stroke-width:0.5;" x1="93.6455" x2="117.6455" y1="106.4297" y2="106.4297"/>
    <text fill="#000000" font-family="sans-serif" font-size="14" lengthAdjust="spacing" textLength="145.291" x="30" y="696.5107">OPÉRATEUR DU HUB</text>
    <ellipse cx="105.6455" cy="715.8125" fill="#E2E2F0" rx="12" ry="12" style="stroke:#181818;stroke-width:0.5;"/>
    <line style="stroke:#181818;stroke-width:0.5;" x1="93.6455" x2="117.6455" y1="729.8125" y2="729.8125"/>
    <text fill="#000000" font-family="sans-serif" font-size="14" lengthAdjust="spacing" textLength="194.8105" x="587.7124" y="121.4248">API Account Lookup Service</text>
    <path d="M667.6177,80.4297 L667.6177,104.4297 M667.6177,92.4297 L684.6177,92.4297 " fill="none" style="stroke:#181818;stroke-width:0.5;"/>
    <ellipse cx="696.6177" cy="92.4297" fill="#E2E2F0" rx="12" ry="12" style="stroke:#181818;stroke-width:0.5;"/>
    <text fill="#000000" font-family="sans-serif" font-size="14" lengthAdjust="spacing" textLength="194.8105" x="587.7124" y="696.5107">API Account Lookup Service</text>
    <path d="M667.6177,703.8125 L667.6177,727.8125 M667.6177,715.8125 L684.6177,715.8125 " fill="none" style="stroke:#181818;stroke-width:0.5;"/>
    <ellipse cx="696.6177" cy="715.8125" fill="#E2E2F0" rx="12" ry="12" style="stroke:#181818;stroke-width:0.5;"/>
    <text fill="#000000" font-family="sans-serif" font-size="14" lengthAdjust="spacing" textLength="268.0303" x="798.5229" y="121.4248">Gestionnaire de suppression du cache</text>
    <ellipse cx="935.5381" cy="92.4297" fill="#E2E2F0" rx="12" ry="12" style="stroke:#181818;stroke-width:0.5;"/>
    <polygon fill="#181818" points="931.5381,80.4297,937.5381,75.4297,935.5381,80.4297,937.5381,85.4297,931.5381,80.4297" style="stroke:#181818;stroke-width:1.0;"/>
    <text fill="#000000" font-family="sans-serif" font-size="14" lengthAdjust="spacing" textLength="268.0303" x="798.5229" y="696.5107">Gestionnaire de suppression du cache</text>
    <ellipse cx="935.5381" cy="715.8125" fill="#E2E2F0" rx="12" ry="12" style="stroke:#181818;stroke-width:0.5;"/>
    <polygon fill="#181818" points="931.5381,703.8125,937.5381,698.8125,935.5381,703.8125,937.5381,708.8125,931.5381,703.8125" style="stroke:#181818;stroke-width:1.0;"/>
    <text fill="#000000" font-family="sans-serif" font-size="14" lengthAdjust="spacing" textLength="43.5381" x="1082.5532" y="121.4248">Cache</text>
    <path d="M1089.3223,72.4297 C1089.3223,62.4297 1107.3223,62.4297 1107.3223,62.4297 C1107.3223,62.4297 1125.3223,62.4297 1125.3223,72.4297 L1125.3223,98.4297 C1125.3223,108.4297 1107.3223,108.4297 1107.3223,108.4297 C1107.3223,108.4297 1089.3223,108.4297 1089.3223,98.4297 L1089.3223,72.4297 " fill="#E2E2F0" style="stroke:#181818;stroke-width:1.5;"/>
    <path d="M1089.3223,72.4297 C1089.3223,82.4297 1107.3223,82.4297 1107.3223,82.4297 C1107.3223,82.4297 1125.3223,82.4297 1125.3223,72.4297 " fill="none" style="stroke:#181818;stroke-width:1.5;"/>
    <text fill="#000000" font-family="sans-serif" font-size="14" lengthAdjust="spacing" textLength="43.5381" x="1082.5532" y="696.5107">Cache</text>
    <path d="M1089.3223,709.8125 C1089.3223,699.8125 1107.3223,699.8125 1107.3223,699.8125 C1107.3223,699.8125 1125.3223,699.8125 1125.3223,709.8125 L1125.3223,735.8125 C1125.3223,745.8125 1107.3223,745.8125 1107.3223,745.8125 C1107.3223,745.8125 1089.3223,745.8125 1089.3223,735.8125 L1089.3223,709.8125 " fill="#E2E2F0" style="stroke:#181818;stroke-width:1.5;"/>
    <path d="M1089.3223,709.8125 C1089.3223,719.8125 1107.3223,719.8125 1107.3223,719.8125 C1107.3223,719.8125 1125.3223,719.8125 1125.3223,709.8125 " fill="none" style="stroke:#181818;stroke-width:1.5;"/>
    <rect fill="#FFFFFF" height="273.3281" style="stroke:#181818;stroke-width:1.0;" width="10" x="100.6455" y="134.7266"/>
    <rect fill="#FFFFFF" height="472.5234" style="stroke:#181818;stroke-width:1.0;" width="10" x="683.1177" y="179.9922"/>
    <rect fill="#FFFFFF" height="228.0625" style="stroke:#181818;stroke-width:1.0;" width="10" x="688.1177" y="179.9922"/>
    <rect fill="#FFFFFF" height="169.7969" style="stroke:#181818;stroke-width:1.0;" width="10" x="930.5381" y="209.125"/>
    <rect fill="#FFFFFF" height="53.2656" style="stroke:#181818;stroke-width:1.0;" width="10" x="1102.3223" y="238.2578"/>
    <rect fill="#FFFFFF" height="29.1328" style="stroke:#181818;stroke-width:1.0;" width="10" x="1102.3223" y="320.6563"/>
    <path d="M10,141.7266 L411.2813,141.7266 L411.2813,148.8594 L401.2813,158.8594 L10,158.8594 L10,141.7266 " fill="#EEEEEE" style="stroke:#000000;stroke-width:1.5;"/>
    <rect fill="none" height="525.7891" style="stroke:#000000;stroke-width:1.5;" width="1142.0913" x="10" y="141.7266"/>
    <text fill="#000000" font-family="sans-serif" font-size="13" font-weight="bold" lengthAdjust="spacing" textLength="356.2813" x="25" y="154.7935">Suppression du cache des points de terminaison</text>
    <polygon fill="#181818" points="676.1177,175.9922,686.1177,179.9922,676.1177,183.9922,680.1177,179.9922" style="stroke:#181818;stroke-width:1.0;"/>
    <line style="stroke:#181818;stroke-width:1.0;" x1="110.6455" x2="682.1177" y1="179.9922" y2="179.9922"/>
    <text fill="#000000" font-family="sans-serif" font-size="13" font-weight="bold" lengthAdjust="spacing" textLength="9.0454" x="117.6455" y="174.9263">1</text>
    <text fill="#000000" font-family="sans-serif" font-size="13" lengthAdjust="spacing" textLength="540.4268" x="130.6909" y="174.9263">Requête DELETE sur le cache des points de terminaison — DELETE /endpointcache</text>
    <polygon fill="#181818" points="918.5381,205.125,928.5381,209.125,918.5381,213.125,922.5381,209.125" style="stroke:#181818;stroke-width:1.0;"/>
    <line style="stroke:#181818;stroke-width:1.0;" x1="698.1177" x2="924.5381" y1="209.125" y2="209.125"/>
    <text fill="#000000" font-family="sans-serif" font-size="13" font-weight="bold" lengthAdjust="spacing" textLength="9.0454" x="705.1177" y="204.0591">2</text>
    <text fill="#000000" font-family="sans-serif" font-size="13" lengthAdjust="spacing" textLength="126.3311" x="718.1631" y="204.0591">Supprimer le cache</text>
    <polygon fill="#181818" points="1090.3223,234.2578,1100.3223,238.2578,1090.3223,242.2578,1094.3223,238.2578" style="stroke:#181818;stroke-width:1.0;"/>
    <line style="stroke:#181818;stroke-width:1.0;" x1="940.5381" x2="1096.3223" y1="238.2578" y2="238.2578"/>
    <text fill="#000000" font-family="sans-serif" font-size="13" font-weight="bold" lengthAdjust="spacing" textLength="9.0454" x="947.5381" y="233.1919">3</text>
    <text fill="#000000" font-family="sans-serif" font-size="13" lengthAdjust="spacing" textLength="104.3936" x="960.5835" y="233.1919">Arrêter le cache</text>
    <path d="M20,253.2578 L84.4429,253.2578 L84.4429,260.3906 L74.4429,270.3906 L20,270.3906 L20,253.2578 " fill="#EEEEEE" style="stroke:#000000;stroke-width:1.5;"/>
    <rect fill="none" height="162.7969" style="stroke:#000000;stroke-width:1.5;" width="1122.0913" x="20" y="253.2578"/>
    <text fill="#000000" font-family="sans-serif" font-size="13" font-weight="bold" lengthAdjust="spacing" textLength="19.4429" x="35" y="266.3247">alt</text>
    <text fill="#000000" font-family="sans-serif" font-size="11" font-weight="bold" lengthAdjust="spacing" textLength="210.3105" x="99.4429" y="265.4683">[Statut d’arrêt du cache (succès)]</text>
    <polygon fill="#181818" points="951.5381,287.5234,941.5381,291.5234,951.5381,295.5234,947.5381,291.5234" style="stroke:#181818;stroke-width:1.0;"/>
    <line style="stroke:#181818;stroke-width:1.0;stroke-dasharray:2.0,2.0;" x1="945.5381" x2="1106.3223" y1="291.5234" y2="291.5234"/>
    <text fill="#000000" font-family="sans-serif" font-size="13" font-weight="bold" lengthAdjust="spacing" textLength="9.0454" x="957.5381" y="286.4575">4</text>
    <text fill="#000000" font-family="sans-serif" font-size="13" lengthAdjust="spacing" textLength="123.3921" x="970.5835" y="286.4575">Retourner le statut</text>
    <polygon fill="#181818" points="1090.3223,316.6563,1100.3223,320.6563,1090.3223,324.6563,1094.3223,320.6563" style="stroke:#181818;stroke-width:1.0;"/>
    <line style="stroke:#181818;stroke-width:1.0;" x1="940.5381" x2="1096.3223" y1="320.6563" y2="320.6563"/>
    <text fill="#000000" font-family="sans-serif" font-size="13" font-weight="bold" lengthAdjust="spacing" textLength="9.0454" x="947.5381" y="315.5903">5</text>
    <text fill="#000000" font-family="sans-serif" font-size="13" lengthAdjust="spacing" textLength="118.0728" x="960.5835" y="315.5903">Initialiser le cache</text>
    <polygon fill="#181818" points="951.5381,345.7891,941.5381,349.7891,951.5381,353.7891,947.5381,349.7891" style="stroke:#181818;stroke-width:1.0;"/>
    <line style="stroke:#181818;stroke-width:1.0;" x1="945.5381" x2="1106.3223" y1="349.7891" y2="349.7891"/>
    <text fill="#000000" font-family="sans-serif" font-size="13" font-weight="bold" lengthAdjust="spacing" textLength="9.0454" x="957.5381" y="344.7231">6</text>
    <text fill="#000000" font-family="sans-serif" font-size="13" lengthAdjust="spacing" textLength="123.3921" x="970.5835" y="344.7231">Retourner le statut</text>
    <polygon fill="#181818" points="709.1177,374.9219,699.1177,378.9219,709.1177,382.9219,705.1177,378.9219" style="stroke:#181818;stroke-width:1.0;"/>
    <line style="stroke:#181818;stroke-width:1.0;" x1="703.1177" x2="934.5381" y1="378.9219" y2="378.9219"/>
    <text fill="#000000" font-family="sans-serif" font-size="13" font-weight="bold" lengthAdjust="spacing" textLength="9.0454" x="715.1177" y="373.856">7</text>
    <text fill="#000000" font-family="sans-serif" font-size="13" lengthAdjust="spacing" textLength="123.3921" x="728.1631" y="373.856">Retourner le statut</text>
    <polygon fill="#181818" points="116.6455,404.0547,106.6455,408.0547,116.6455,412.0547,112.6455,408.0547" style="stroke:#181818;stroke-width:1.0;"/>
    <line style="stroke:#181818;stroke-width:1.0;stroke-dasharray:2.0,2.0;" x1="110.6455" x2="682.1177" y1="408.0547" y2="408.0547"/>
    <text fill="#000000" font-family="sans-serif" font-size="13" font-weight="bold" lengthAdjust="spacing" textLength="9.0454" x="122.6455" y="402.9888">8</text>
    <text fill="#000000" font-family="sans-serif" font-size="13" lengthAdjust="spacing" textLength="43.6655" x="135.6909" y="402.9888">Retour</text>
    <text fill="#000000" font-family="sans-serif" font-size="13" font-weight="bold" lengthAdjust="spacing" textLength="98.4268" x="183.4888" y="402.9888">Statut HTTP :</text>
    <text fill="#000000" font-family="sans-serif" font-size="13" lengthAdjust="spacing" textLength="24.813" x="286.0479" y="402.9888">202</text>
    <path d="M20,430.0547 L84.4429,430.0547 L84.4429,437.1875 L74.4429,447.1875 L20,447.1875 L20,430.0547 " fill="#EEEEEE" style="stroke:#000000;stroke-width:1.5;"/>
    <rect fill="none" height="230.4609" style="stroke:#000000;stroke-width:1.5;" width="1122.0913" x="20" y="430.0547"/>
    <text fill="#000000" font-family="sans-serif" font-size="13" font-weight="bold" lengthAdjust="spacing" textLength="19.4429" x="35" y="443.1216">alt</text>
    <text fill="#000000" font-family="sans-serif" font-size="11" font-weight="bold" lengthAdjust="spacing" textLength="251.582" x="99.4429" y="442.2651">[Validation du statut (échec du service)]</text>
    <polygon fill="#181818" points="946.5381,464.3203,936.5381,468.3203,946.5381,472.3203,942.5381,468.3203" style="stroke:#181818;stroke-width:1.0;"/>
    <line style="stroke:#181818;stroke-width:1.0;stroke-dasharray:2.0,2.0;" x1="940.5381" x2="1106.3223" y1="468.3203" y2="468.3203"/>
    <text fill="#000000" font-family="sans-serif" font-size="13" font-weight="bold" lengthAdjust="spacing" textLength="9.0454" x="952.5381" y="463.2544">9</text>
    <text fill="#000000" font-family="sans-serif" font-size="13" lengthAdjust="spacing" textLength="109.2876" x="965.5835" y="463.2544">Lever une erreur</text>
    <polygon fill="#181818" points="704.1177,493.4531,694.1177,497.4531,704.1177,501.4531,700.1177,497.4531" style="stroke:#181818;stroke-width:1.0;"/>
    <line style="stroke:#181818;stroke-width:1.0;" x1="698.1177" x2="934.5381" y1="497.4531" y2="497.4531"/>
    <text fill="#000000" font-family="sans-serif" font-size="13" font-weight="bold" lengthAdjust="spacing" textLength="18.0908" x="710.1177" y="492.3872">10</text>
    <text fill="#000000" font-family="sans-serif" font-size="13" lengthAdjust="spacing" textLength="109.2876" x="732.2085" y="492.3872">Lever une erreur</text>
    <path d="M442,510.4531 L442,625.4531 L677,625.4531 L677,520.4531 L667,510.4531 L442,510.4531 " fill="#FFFF00" style="stroke:#181818;stroke-width:0.5;"/>
    <path d="M667,510.4531 L667,520.4531 L677,520.4531 L667,510.4531 " fill="#FFFF00" style="stroke:#181818;stroke-width:0.5;"/>
    <text fill="#000000" font-family="sans-serif" font-size="13" lengthAdjust="spacing" textLength="65.4888" x="448" y="527.52">Message :</text>
    <text fill="#000000" font-family="sans-serif" font-size="13" lengthAdjust="spacing" textLength="8.271" x="448" y="542.6528">{</text>
    <text fill="#000000" font-family="sans-serif" font-size="13" lengthAdjust="spacing" textLength="136.208" x="464.5293" y="557.7856">&quot;errorInformation&quot;: {</text>
    <text fill="#000000" font-family="sans-serif" font-size="13" lengthAdjust="spacing" textLength="181.27" x="481.0586" y="572.9185">&quot;errorCode&quot;: &lt;Error Code&gt;,</text>
    <text fill="#000000" font-family="sans-serif" font-size="13" lengthAdjust="spacing" textLength="178.6548" x="481.0586" y="588.0513">&quot;errorDescription&quot;: &lt;Msg&gt;,</text>
    <text fill="#000000" font-family="sans-serif" font-size="13" lengthAdjust="spacing" textLength="8.271" x="464.5293" y="603.1841">}</text>
    <text fill="#000000" font-family="sans-serif" font-size="13" lengthAdjust="spacing" textLength="8.271" x="448" y="618.3169">}</text>
    <polygon fill="#181818" points="116.6455,648.5156,106.6455,652.5156,116.6455,656.5156,112.6455,652.5156" style="stroke:#181818;stroke-width:1.0;"/>
    <line style="stroke:#181818;stroke-width:1.0;stroke-dasharray:2.0,2.0;" x1="110.6455" x2="687.1177" y1="652.5156" y2="652.5156"/>
    <text fill="#000000" font-family="sans-serif" font-size="13" font-weight="bold" lengthAdjust="spacing" textLength="18.0908" x="122.6455" y="647.4497">11</text>
    <text fill="#000000" font-family="sans-serif" font-size="13" lengthAdjust="spacing" textLength="43.6655" x="144.7363" y="647.4497">Retour</text>
    <text fill="#FF0000" font-family="sans-serif" font-size="13" font-weight="bold" lengthAdjust="spacing" textLength="98.4268" x="192.5342" y="647.4497">Statut HTTP :</text>
    <text fill="#FF0000" font-family="sans-serif" font-size="13" lengthAdjust="spacing" textLength="24.813" x="295.0933" y="647.4497">502</text>
  </g>
</svg>
