<svg xmlns="http://www.w3.org/2000/svg" xmlns:xlink="http://www.w3.org/1999/xlink" contentStyleType="text/css" height="762px" preserveAspectRatio="none" style="width:1080px;height:762px;background:#FFFFFF;" version="1.1" viewBox="0 0 1080 762" width="1080px" zoomAndPan="magnify">
  <title>7.3.0 Suppression du cache des endpoints</title>
  <defs/>
  <g>
    <text fill="#000000" font-family="sans-serif" font-size="14" font-weight="bold" lengthAdjust="spacing" textLength="334.0313" x="374.7681" y="27.9951">7.3.0 Suppression du cache des endpoints</text>
    <rect fill="#FFFFE0" height="706.5156" style="stroke:#181818;stroke-width:0.5;" width="552.3789" x="506.1885" y="43.2969"/>
    <text fill="#000000" font-family="sans-serif" font-size="13" font-weight="bold" lengthAdjust="spacing" textLength="175.5762" x="694.5898" y="55.3638">Account Lookup Service</text>
    <rect fill="#FFFFFF" height="273.3281" style="stroke:#181818;stroke-width:1.0;" width="10" x="100.6455" y="134.7266"/>
    <rect fill="#FFFFFF" height="472.5234" style="stroke:#181818;stroke-width:1.0;" width="10" x="605.5938" y="179.9922"/>
    <rect fill="#FFFFFF" height="228.0625" style="stroke:#181818;stroke-width:1.0;" width="10" x="610.5938" y="179.9922"/>
    <rect fill="#FFFFFF" height="169.7969" style="stroke:#181818;stroke-width:1.0;" width="10" x="853.0142" y="209.125"/>
    <rect fill="#FFFFFF" height="53.2656" style="stroke:#181818;stroke-width:1.0;" width="10" x="1024.7983" y="238.2578"/>
    <rect fill="#FFFFFF" height="29.1328" style="stroke:#181818;stroke-width:1.0;" width="10" x="1024.7983" y="320.6563"/>
    <rect fill="none" height="525.7891" style="stroke:#000000;stroke-width:1.5;" width="1064.5674" x="10" y="141.7266"/>
    <rect fill="none" height="162.7969" style="stroke:#000000;stroke-width:1.5;" width="1044.5674" x="20" y="253.2578"/>
    <rect fill="none" height="230.4609" style="stroke:#000000;stroke-width:1.5;" width="1044.5674" x="20" y="430.0547"/>
    <line style="stroke:#181818;stroke-width:0.5;stroke-dasharray:5.0,5.0;" x1="105" x2="105" y1="124.7266" y2="684.5156"/>
    <line style="stroke:#181818;stroke-width:0.5;stroke-dasharray:5.0,5.0;" x1="610.1885" x2="610.1885" y1="124.7266" y2="684.5156"/>
    <line style="stroke:#181818;stroke-width:0.5;stroke-dasharray:5.0,5.0;" x1="857.999" x2="857.999" y1="124.7266" y2="684.5156"/>
    <line style="stroke:#181818;stroke-width:0.5;stroke-dasharray:5.0,5.0;" x1="1029.0293" x2="1029.0293" y1="124.7266" y2="684.5156"/>
    <text fill="#000000" font-family="sans-serif" font-size="14" lengthAdjust="spacing" textLength="145.291" x="30" y="121.4248">OPÉRATEUR DU HUB</text>
    <ellipse cx="105.6455" cy="92.4297" fill="#E2E2F0" rx="12" ry="12" style="stroke:#181818;stroke-width:0.5;"/>
    <line style="stroke:#181818;stroke-width:0.5;" x1="93.6455" x2="117.6455" y1="106.4297" y2="106.4297"/>
    <text fill="#000000" font-family="sans-serif" font-size="14" lengthAdjust="spacing" textLength="145.291" x="30" y="696.5107">OPÉRATEUR DU HUB</text>
    <ellipse cx="105.6455" cy="715.8125" fill="#E2E2F0" rx="12" ry="12" style="stroke:#181818;stroke-width:0.5;"/>
    <line style="stroke:#181818;stroke-width:0.5;" x1="93.6455" x2="117.6455" y1="729.8125" y2="729.8125"/>
    <text fill="#000000" font-family="sans-serif" font-size="14" lengthAdjust="spacing" textLength="194.8105" x="510.1885" y="121.4248">API Account Lookup Service</text>
    <path d="M590.0938,80.4297 L590.0938,104.4297 M590.0938,92.4297 L607.0938,92.4297 " fill="none" style="stroke:#181818;stroke-width:0.5;"/>
    <ellipse cx="619.0938" cy="92.4297" fill="#E2E2F0" rx="12" ry="12" style="stroke:#181818;stroke-width:0.5;"/>
    <text fill="#000000" font-family="sans-serif" font-size="14" lengthAdjust="spacing" textLength="194.8105" x="510.1885" y="696.5107">API Account Lookup Service</text>
    <path d="M590.0938,703.8125 L590.0938,727.8125 M590.0938,715.8125 L607.0938,715.8125 " fill="none" style="stroke:#181818;stroke-width:0.5;"/>
    <ellipse cx="619.0938" cy="715.8125" fill="#E2E2F0" rx="12" ry="12" style="stroke:#181818;stroke-width:0.5;"/>
    <text fill="#000000" font-family="sans-serif" font-size="14" lengthAdjust="spacing" textLength="268.0303" x="720.999" y="121.4248">Gestionnaire de suppression du cache</text>
    <ellipse cx="858.0142" cy="92.4297" fill="#E2E2F0" rx="12" ry="12" style="stroke:#181818;stroke-width:0.5;"/>
    <polygon fill="#181818" points="854.0142,80.4297,860.0142,75.4297,858.0142,80.4297,860.0142,85.4297,854.0142,80.4297" style="stroke:#181818;stroke-width:1.0;"/>
    <text fill="#000000" font-family="sans-serif" font-size="14" lengthAdjust="spacing" textLength="268.0303" x="720.999" y="696.5107">Gestionnaire de suppression du cache</text>
    <ellipse cx="858.0142" cy="715.8125" fill="#E2E2F0" rx="12" ry="12" style="stroke:#181818;stroke-width:0.5;"/>
    <polygon fill="#181818" points="854.0142,703.8125,860.0142,698.8125,858.0142,703.8125,860.0142,708.8125,854.0142,703.8125" style="stroke:#181818;stroke-width:1.0;"/>
    <text fill="#000000" font-family="sans-serif" font-size="14" lengthAdjust="spacing" textLength="43.5381" x="1005.0293" y="121.4248">Cache</text>
    <path d="M1011.7983,72.4297 C1011.7983,62.4297 1029.7983,62.4297 1029.7983,62.4297 C1029.7983,62.4297 1047.7983,62.4297 1047.7983,72.4297 L1047.7983,98.4297 C1047.7983,108.4297 1029.7983,108.4297 1029.7983,108.4297 C1029.7983,108.4297 1011.7983,108.4297 1011.7983,98.4297 L1011.7983,72.4297 " fill="#E2E2F0" style="stroke:#181818;stroke-width:1.5;"/>
    <path d="M1011.7983,72.4297 C1011.7983,82.4297 1029.7983,82.4297 1029.7983,82.4297 C1029.7983,82.4297 1047.7983,82.4297 1047.7983,72.4297 " fill="none" style="stroke:#181818;stroke-width:1.5;"/>
    <text fill="#000000" font-family="sans-serif" font-size="14" lengthAdjust="spacing" textLength="43.5381" x="1005.0293" y="696.5107">Cache</text>
    <path d="M1011.7983,709.8125 C1011.7983,699.8125 1029.7983,699.8125 1029.7983,699.8125 C1029.7983,699.8125 1047.7983,699.8125 1047.7983,709.8125 L1047.7983,735.8125 C1047.7983,745.8125 1029.7983,745.8125 1029.7983,745.8125 C1029.7983,745.8125 1011.7983,745.8125 1011.7983,735.8125 L1011.7983,709.8125 " fill="#E2E2F0" style="stroke:#181818;stroke-width:1.5;"/>
    <path d="M1011.7983,709.8125 C1011.7983,719.8125 1029.7983,719.8125 1029.7983,719.8125 C1029.7983,719.8125 1047.7983,719.8125 1047.7983,709.8125 " fill="none" style="stroke:#181818;stroke-width:1.5;"/>
    <rect fill="#FFFFFF" height="273.3281" style="stroke:#181818;stroke-width:1.0;" width="10" x="100.6455" y="134.7266"/>
    <rect fill="#FFFFFF" height="472.5234" style="stroke:#181818;stroke-width:1.0;" width="10" x="605.5938" y="179.9922"/>
    <rect fill="#FFFFFF" height="228.0625" style="stroke:#181818;stroke-width:1.0;" width="10" x="610.5938" y="179.9922"/>
    <rect fill="#FFFFFF" height="169.7969" style="stroke:#181818;stroke-width:1.0;" width="10" x="853.0142" y="209.125"/>
    <rect fill="#FFFFFF" height="53.2656" style="stroke:#181818;stroke-width:1.0;" width="10" x="1024.7983" y="238.2578"/>
    <rect fill="#FFFFFF" height="29.1328" style="stroke:#181818;stroke-width:1.0;" width="10" x="1024.7983" y="320.6563"/>
    <path d="M10,141.7266 L323.6328,141.7266 L323.6328,148.8594 L313.6328,158.8594 L10,158.8594 L10,141.7266 " fill="#EEEEEE" style="stroke:#000000;stroke-width:1.5;"/>
    <rect fill="none" height="525.7891" style="stroke:#000000;stroke-width:1.5;" width="1064.5674" x="10" y="141.7266"/>
    <text fill="#000000" font-family="sans-serif" font-size="13" font-weight="bold" lengthAdjust="spacing" textLength="268.6328" x="25" y="154.7935">Suppression du cache des endpoints</text>
    <polygon fill="#181818" points="598.5938,175.9922,608.5938,179.9922,598.5938,183.9922,602.5938,179.9922" style="stroke:#181818;stroke-width:1.0;"/>
    <line style="stroke:#181818;stroke-width:1.0;" x1="110.6455" x2="604.5938" y1="179.9922" y2="179.9922"/>
    <text fill="#000000" font-family="sans-serif" font-size="13" font-weight="bold" lengthAdjust="spacing" textLength="9.0454" x="117.6455" y="174.9263">1</text>
    <text fill="#000000" font-family="sans-serif" font-size="13" lengthAdjust="spacing" textLength="462.9028" x="130.6909" y="174.9263">Requête DELETE sur le cache des endpoints — DELETE /endpointcache</text>
    <polygon fill="#181818" points="841.0142,205.125,851.0142,209.125,841.0142,213.125,845.0142,209.125" style="stroke:#181818;stroke-width:1.0;"/>
    <line style="stroke:#181818;stroke-width:1.0;" x1="620.5938" x2="847.0142" y1="209.125" y2="209.125"/>
    <text fill="#000000" font-family="sans-serif" font-size="13" font-weight="bold" lengthAdjust="spacing" textLength="9.0454" x="627.5938" y="204.0591">2</text>
    <text fill="#000000" font-family="sans-serif" font-size="13" lengthAdjust="spacing" textLength="126.3311" x="640.6392" y="204.0591">Supprimer le cache</text>
    <polygon fill="#181818" points="1012.7983,234.2578,1022.7983,238.2578,1012.7983,242.2578,1016.7983,238.2578" style="stroke:#181818;stroke-width:1.0;"/>
    <line style="stroke:#181818;stroke-width:1.0;" x1="863.0142" x2="1018.7983" y1="238.2578" y2="238.2578"/>
    <text fill="#000000" font-family="sans-serif" font-size="13" font-weight="bold" lengthAdjust="spacing" textLength="9.0454" x="870.0142" y="233.1919">3</text>
    <text fill="#000000" font-family="sans-serif" font-size="13" lengthAdjust="spacing" textLength="104.3936" x="883.0596" y="233.1919">Arrêter le cache</text>
    <path d="M20,253.2578 L84.4429,253.2578 L84.4429,260.3906 L74.4429,270.3906 L20,270.3906 L20,253.2578 " fill="#EEEEEE" style="stroke:#000000;stroke-width:1.5;"/>
    <rect fill="none" height="162.7969" style="stroke:#000000;stroke-width:1.5;" width="1044.5674" x="20" y="253.2578"/>
    <text fill="#000000" font-family="sans-serif" font-size="13" font-weight="bold" lengthAdjust="spacing" textLength="19.4429" x="35" y="266.3247">alt</text>
    <text fill="#000000" font-family="sans-serif" font-size="11" font-weight="bold" lengthAdjust="spacing" textLength="210.3105" x="99.4429" y="265.4683">[Statut d’arrêt du cache (succès)]</text>
    <polygon fill="#181818" points="874.0142,287.5234,864.0142,291.5234,874.0142,295.5234,870.0142,291.5234" style="stroke:#181818;stroke-width:1.0;"/>
    <line style="stroke:#181818;stroke-width:1.0;stroke-dasharray:2.0,2.0;" x1="868.0142" x2="1028.7983" y1="291.5234" y2="291.5234"/>
    <text fill="#000000" font-family="sans-serif" font-size="13" font-weight="bold" lengthAdjust="spacing" textLength="9.0454" x="880.0142" y="286.4575">4</text>
    <text fill="#000000" font-family="sans-serif" font-size="13" lengthAdjust="spacing" textLength="123.3921" x="893.0596" y="286.4575">Retourner le statut</text>
    <polygon fill="#181818" points="1012.7983,316.6563,1022.7983,320.6563,1012.7983,324.6563,1016.7983,320.6563" style="stroke:#181818;stroke-width:1.0;"/>
    <line style="stroke:#181818;stroke-width:1.0;" x1="863.0142" x2="1018.7983" y1="320.6563" y2="320.6563"/>
    <text fill="#000000" font-family="sans-serif" font-size="13" font-weight="bold" lengthAdjust="spacing" textLength="9.0454" x="870.0142" y="315.5903">5</text>
    <text fill="#000000" font-family="sans-serif" font-size="13" lengthAdjust="spacing" textLength="118.0728" x="883.0596" y="315.5903">Initialiser le cache</text>
    <polygon fill="#181818" points="874.0142,345.7891,864.0142,349.7891,874.0142,353.7891,870.0142,349.7891" style="stroke:#181818;stroke-width:1.0;"/>
    <line style="stroke:#181818;stroke-width:1.0;" x1="868.0142" x2="1028.7983" y1="349.7891" y2="349.7891"/>
    <text fill="#000000" font-family="sans-serif" font-size="13" font-weight="bold" lengthAdjust="spacing" textLength="9.0454" x="880.0142" y="344.7231">6</text>
    <text fill="#000000" font-family="sans-serif" font-size="13" lengthAdjust="spacing" textLength="123.3921" x="893.0596" y="344.7231">Retourner le statut</text>
    <polygon fill="#181818" points="631.5938,374.9219,621.5938,378.9219,631.5938,382.9219,627.5938,378.9219" style="stroke:#181818;stroke-width:1.0;"/>
    <line style="stroke:#181818;stroke-width:1.0;" x1="625.5938" x2="857.0142" y1="378.9219" y2="378.9219"/>
    <text fill="#000000" font-family="sans-serif" font-size="13" font-weight="bold" lengthAdjust="spacing" textLength="9.0454" x="637.5938" y="373.856">7</text>
    <text fill="#000000" font-family="sans-serif" font-size="13" lengthAdjust="spacing" textLength="123.3921" x="650.6392" y="373.856">Retourner le statut</text>
    <polygon fill="#181818" points="116.6455,404.0547,106.6455,408.0547,116.6455,412.0547,112.6455,408.0547" style="stroke:#181818;stroke-width:1.0;"/>
    <line style="stroke:#181818;stroke-width:1.0;stroke-dasharray:2.0,2.0;" x1="110.6455" x2="604.5938" y1="408.0547" y2="408.0547"/>
    <text fill="#000000" font-family="sans-serif" font-size="13" font-weight="bold" lengthAdjust="spacing" textLength="9.0454" x="122.6455" y="402.9888">8</text>
    <text fill="#000000" font-family="sans-serif" font-size="13" lengthAdjust="spacing" textLength="43.6655" x="135.6909" y="402.9888">Retour</text>
    <text fill="#000000" font-family="sans-serif" font-size="13" font-weight="bold" lengthAdjust="spacing" textLength="98.4268" x="183.4888" y="402.9888">Statut HTTP :</text>
    <text fill="#000000" font-family="sans-serif" font-size="13" lengthAdjust="spacing" textLength="24.813" x="286.0479" y="402.9888">202</text>
    <path d="M20,430.0547 L84.4429,430.0547 L84.4429,437.1875 L74.4429,447.1875 L20,447.1875 L20,430.0547 " fill="#EEEEEE" style="stroke:#000000;stroke-width:1.5;"/>
    <rect fill="none" height="230.4609" style="stroke:#000000;stroke-width:1.5;" width="1044.5674" x="20" y="430.0547"/>
    <text fill="#000000" font-family="sans-serif" font-size="13" font-weight="bold" lengthAdjust="spacing" textLength="19.4429" x="35" y="443.1216">alt</text>
    <text fill="#000000" font-family="sans-serif" font-size="11" font-weight="bold" lengthAdjust="spacing" textLength="251.582" x="99.4429" y="442.2651">[Validation du statut (échec du service)]</text>
    <polygon fill="#181818" points="869.0142,464.3203,859.0142,468.3203,869.0142,472.3203,865.0142,468.3203" style="stroke:#181818;stroke-width:1.0;"/>
    <line style="stroke:#181818;stroke-width:1.0;stroke-dasharray:2.0,2.0;" x1="863.0142" x2="1028.7983" y1="468.3203" y2="468.3203"/>
    <text fill="#000000" font-family="sans-serif" font-size="13" font-weight="bold" lengthAdjust="spacing" textLength="9.0454" x="875.0142" y="463.2544">9</text>
    <text fill="#000000" font-family="sans-serif" font-size="13" lengthAdjust="spacing" textLength="109.2876" x="888.0596" y="463.2544">Lever une erreur</text>
    <polygon fill="#181818" points="626.5938,493.4531,616.5938,497.4531,626.5938,501.4531,622.5938,497.4531" style="stroke:#181818;stroke-width:1.0;"/>
    <line style="stroke:#181818;stroke-width:1.0;" x1="620.5938" x2="857.0142" y1="497.4531" y2="497.4531"/>
    <text fill="#000000" font-family="sans-serif" font-size="13" font-weight="bold" lengthAdjust="spacing" textLength="18.0908" x="632.5938" y="492.3872">10</text>
    <text fill="#000000" font-family="sans-serif" font-size="13" lengthAdjust="spacing" textLength="109.2876" x="654.6846" y="492.3872">Lever une erreur</text>
    <path d="M365,510.4531 L365,625.4531 L600,625.4531 L600,520.4531 L590,510.4531 L365,510.4531 " fill="#FFFF00" style="stroke:#181818;stroke-width:0.5;"/>
    <path d="M590,510.4531 L590,520.4531 L600,520.4531 L590,510.4531 " fill="#FFFF00" style="stroke:#181818;stroke-width:0.5;"/>
    <text fill="#000000" font-family="sans-serif" font-size="13" lengthAdjust="spacing" textLength="65.4888" x="371" y="527.52">Message :</text>
    <text fill="#000000" font-family="sans-serif" font-size="13" lengthAdjust="spacing" textLength="8.271" x="371" y="542.6528">{</text>
    <text fill="#000000" font-family="sans-serif" font-size="13" lengthAdjust="spacing" textLength="136.208" x="387.5293" y="557.7856">&quot;errorInformation&quot;: {</text>
    <text fill="#000000" font-family="sans-serif" font-size="13" lengthAdjust="spacing" textLength="181.27" x="404.0586" y="572.9185">&quot;errorCode&quot;: &lt;Error Code&gt;,</text>
    <text fill="#000000" font-family="sans-serif" font-size="13" lengthAdjust="spacing" textLength="178.6548" x="404.0586" y="588.0513">&quot;errorDescription&quot;: &lt;Msg&gt;,</text>
    <text fill="#000000" font-family="sans-serif" font-size="13" lengthAdjust="spacing" textLength="8.271" x="387.5293" y="603.1841">}</text>
    <text fill="#000000" font-family="sans-serif" font-size="13" lengthAdjust="spacing" textLength="8.271" x="371" y="618.3169">}</text>
    <polygon fill="#181818" points="116.6455,648.5156,106.6455,652.5156,116.6455,656.5156,112.6455,652.5156" style="stroke:#181818;stroke-width:1.0;"/>
    <line style="stroke:#181818;stroke-width:1.0;stroke-dasharray:2.0,2.0;" x1="110.6455" x2="609.5938" y1="652.5156" y2="652.5156"/>
    <text fill="#000000" font-family="sans-serif" font-size="13" font-weight="bold" lengthAdjust="spacing" textLength="18.0908" x="122.6455" y="647.4497">11</text>
    <text fill="#000000" font-family="sans-serif" font-size="13" lengthAdjust="spacing" textLength="43.6655" x="144.7363" y="647.4497">Retour</text>
    <text fill="#FF0000" font-family="sans-serif" font-size="13" font-weight="bold" lengthAdjust="spacing" textLength="98.4268" x="192.5342" y="647.4497">Statut HTTP :</text>
    <text fill="#FF0000" font-family="sans-serif" font-size="13" lengthAdjust="spacing" textLength="24.813" x="295.0933" y="647.4497">502</text>
  </g>
</svg>
