<svg xmlns="http://www.w3.org/2000/svg" xmlns:xlink="http://www.w3.org/1999/xlink" contentStyleType="text/css" height="966px" preserveAspectRatio="none" style="width:1101px;height:966px;background:#FFFFFF;" version="1.1" viewBox="0 0 1101 966" width="1101px" zoomAndPan="magnify">
  <title>7.3.1 Obtenir tous les endpoints d&apos;oracle</title>
  <defs/>
  <g>
    <text fill="#000000" font-family="sans-serif" font-size="14" font-weight="bold" lengthAdjust="spacing" textLength="323.0322" x="390.9697" y="27.9951">7.3.1 Obtenir tous les endpoints d&apos;oracle</text>
    <rect fill="#FFFFE0" height="910.375" style="stroke:#181818;stroke-width:0.5;" width="781.1563" x="298.8154" y="43.2969"/>
    <text fill="#000000" font-family="sans-serif" font-size="13" font-weight="bold" lengthAdjust="spacing" textLength="175.5762" x="601.6055" y="55.3638">Account Lookup Service</text>
    <rect fill="#FFFFFF" height="477.1875" style="stroke:#181818;stroke-width:1.0;" width="10" x="100.6455" y="134.7266"/>
    <rect fill="#FFFFFF" height="416.7891" style="stroke:#181818;stroke-width:1.0;" width="10" x="457.96" y="195.125"/>
    <rect fill="#FFFFFF" height="111.5313" style="stroke:#181818;stroke-width:1.0;" width="10" x="760.3071" y="224.2578"/>
    <rect fill="#FFFFFF" height="53.2656" style="stroke:#181818;stroke-width:1.0;" width="10" x="1020.2021" y="253.3906"/>
    <rect fill="none" height="729.6484" style="stroke:#000000;stroke-width:1.5;" width="1085.9717" x="10" y="141.7266"/>
    <rect fill="none" height="351.5234" style="stroke:#000000;stroke-width:1.5;" width="1065.9717" x="20" y="268.3906"/>
    <rect fill="none" height="230.4609" style="stroke:#000000;stroke-width:1.5;" width="1065.9717" x="20" y="633.9141"/>
    <line style="stroke:#181818;stroke-width:0.5;stroke-dasharray:5.0,5.0;" x1="105" x2="105" y1="124.7266" y2="888.375"/>
    <line style="stroke:#181818;stroke-width:0.5;stroke-dasharray:5.0,5.0;" x1="462.8154" x2="462.8154" y1="124.7266" y2="888.375"/>
    <line style="stroke:#181818;stroke-width:0.5;stroke-dasharray:5.0,5.0;" x1="765.1045" x2="765.1045" y1="124.7266" y2="888.375"/>
    <line style="stroke:#181818;stroke-width:0.5;stroke-dasharray:5.0,5.0;" x1="1024.4326" x2="1024.4326" y1="124.7266" y2="888.375"/>
    <text fill="#000000" font-family="sans-serif" font-size="14" lengthAdjust="spacing" textLength="145.291" x="30" y="121.4248">OPÉRATEUR DU HUB</text>
    <ellipse cx="105.6455" cy="92.4297" fill="#E2E2F0" rx="12" ry="12" style="stroke:#181818;stroke-width:0.5;"/>
    <line style="stroke:#181818;stroke-width:0.5;" x1="93.6455" x2="117.6455" y1="106.4297" y2="106.4297"/>
    <text fill="#000000" font-family="sans-serif" font-size="14" lengthAdjust="spacing" textLength="145.291" x="30" y="900.3701">OPÉRATEUR DU HUB</text>
    <ellipse cx="105.6455" cy="919.6719" fill="#E2E2F0" rx="12" ry="12" style="stroke:#181818;stroke-width:0.5;"/>
    <line style="stroke:#181818;stroke-width:0.5;" x1="93.6455" x2="117.6455" y1="933.6719" y2="933.6719"/>
    <text fill="#000000" font-family="sans-serif" font-size="14" lengthAdjust="spacing" textLength="314.2891" x="302.8154" y="121.4248">API d’administration Account Lookup Service</text>
    <path d="M442.46,80.4297 L442.46,104.4297 M442.46,92.4297 L459.46,92.4297 " fill="none" style="stroke:#181818;stroke-width:0.5;"/>
    <ellipse cx="471.46" cy="92.4297" fill="#E2E2F0" rx="12" ry="12" style="stroke:#181818;stroke-width:0.5;"/>
    <text fill="#000000" font-family="sans-serif" font-size="14" lengthAdjust="spacing" textLength="314.2891" x="302.8154" y="900.3701">API d’administration Account Lookup Service</text>
    <path d="M442.46,907.6719 L442.46,931.6719 M442.46,919.6719 L459.46,919.6719 " fill="none" style="stroke:#181818;stroke-width:0.5;"/>
    <ellipse cx="471.46" cy="919.6719" fill="#E2E2F0" rx="12" ry="12" style="stroke:#181818;stroke-width:0.5;"/>
    <text fill="#000000" font-family="sans-serif" font-size="14" lengthAdjust="spacing" textLength="258.4053" x="633.1045" y="121.4248">Gestionnaire d’obtention des oracles</text>
    <ellipse cx="765.3071" cy="92.4297" fill="#E2E2F0" rx="12" ry="12" style="stroke:#181818;stroke-width:0.5;"/>
    <polygon fill="#181818" points="761.3071,80.4297,767.3071,75.4297,765.3071,80.4297,767.3071,85.4297,761.3071,80.4297" style="stroke:#181818;stroke-width:1.0;"/>
    <text fill="#000000" font-family="sans-serif" font-size="14" lengthAdjust="spacing" textLength="258.4053" x="633.1045" y="900.3701">Gestionnaire d’obtention des oracles</text>
    <ellipse cx="765.3071" cy="919.6719" fill="#E2E2F0" rx="12" ry="12" style="stroke:#181818;stroke-width:0.5;"/>
    <polygon fill="#181818" points="761.3071,907.6719,767.3071,902.6719,765.3071,907.6719,767.3071,912.6719,761.3071,907.6719" style="stroke:#181818;stroke-width:1.0;"/>
    <text fill="#000000" font-family="sans-serif" font-size="14" lengthAdjust="spacing" textLength="95.5391" x="974.4326" y="121.4248">Stockage ALS</text>
    <path d="M1007.2021,72.4297 C1007.2021,62.4297 1025.2021,62.4297 1025.2021,62.4297 C1025.2021,62.4297 1043.2021,62.4297 1043.2021,72.4297 L1043.2021,98.4297 C1043.2021,108.4297 1025.2021,108.4297 1025.2021,108.4297 C1025.2021,108.4297 1007.2021,108.4297 1007.2021,98.4297 L1007.2021,72.4297 " fill="#E2E2F0" style="stroke:#181818;stroke-width:1.5;"/>
    <path d="M1007.2021,72.4297 C1007.2021,82.4297 1025.2021,82.4297 1025.2021,82.4297 C1025.2021,82.4297 1043.2021,82.4297 1043.2021,72.4297 " fill="none" style="stroke:#181818;stroke-width:1.5;"/>
    <text fill="#000000" font-family="sans-serif" font-size="14" lengthAdjust="spacing" textLength="95.5391" x="974.4326" y="900.3701">Stockage ALS</text>
    <path d="M1007.2021,913.6719 C1007.2021,903.6719 1025.2021,903.6719 1025.2021,903.6719 C1025.2021,903.6719 1043.2021,903.6719 1043.2021,913.6719 L1043.2021,939.6719 C1043.2021,949.6719 1025.2021,949.6719 1025.2021,949.6719 C1025.2021,949.6719 1007.2021,949.6719 1007.2021,939.6719 L1007.2021,913.6719 " fill="#E2E2F0" style="stroke:#181818;stroke-width:1.5;"/>
    <path d="M1007.2021,913.6719 C1007.2021,923.6719 1025.2021,923.6719 1025.2021,923.6719 C1025.2021,923.6719 1043.2021,923.6719 1043.2021,913.6719 " fill="none" style="stroke:#181818;stroke-width:1.5;"/>
    <rect fill="#FFFFFF" height="477.1875" style="stroke:#181818;stroke-width:1.0;" width="10" x="100.6455" y="134.7266"/>
    <rect fill="#FFFFFF" height="416.7891" style="stroke:#181818;stroke-width:1.0;" width="10" x="457.96" y="195.125"/>
    <rect fill="#FFFFFF" height="111.5313" style="stroke:#181818;stroke-width:1.0;" width="10" x="760.3071" y="224.2578"/>
    <rect fill="#FFFFFF" height="53.2656" style="stroke:#181818;stroke-width:1.0;" width="10" x="1020.2021" y="253.3906"/>
    <path d="M10,141.7266 L276.7554,141.7266 L276.7554,148.8594 L266.7554,158.8594 L10,158.8594 L10,141.7266 " fill="#EEEEEE" style="stroke:#000000;stroke-width:1.5;"/>
    <rect fill="none" height="729.6484" style="stroke:#000000;stroke-width:1.5;" width="1085.9717" x="10" y="141.7266"/>
    <text fill="#000000" font-family="sans-serif" font-size="13" font-weight="bold" lengthAdjust="spacing" textLength="221.7554" x="25" y="154.7935">Obtenir les endpoints d&apos;oracle</text>
    <polygon fill="#181818" points="445.96,191.125,455.96,195.125,445.96,199.125,449.96,195.125" style="stroke:#181818;stroke-width:1.0;"/>
    <line style="stroke:#181818;stroke-width:1.0;" x1="110.6455" x2="451.96" y1="195.125" y2="195.125"/>
    <text fill="#000000" font-family="sans-serif" font-size="13" font-weight="bold" lengthAdjust="spacing" textLength="9.0454" x="117.6455" y="182.4927">1</text>
    <text fill="#000000" font-family="sans-serif" font-size="13" lengthAdjust="spacing" textLength="315.269" x="130.6909" y="174.9263">Requête GET pour tous les endpoints d&apos;oracle —</text>
    <text fill="#000000" font-family="sans-serif" font-size="13" lengthAdjust="spacing" textLength="285.6191" x="130.6909" y="190.0591">GET /oracles?currency=USD&amp;type=MSISDN</text>
    <polygon fill="#181818" points="748.3071,220.2578,758.3071,224.2578,748.3071,228.2578,752.3071,224.2578" style="stroke:#181818;stroke-width:1.0;"/>
    <line style="stroke:#181818;stroke-width:1.0;" x1="467.96" x2="754.3071" y1="224.2578" y2="224.2578"/>
    <text fill="#000000" font-family="sans-serif" font-size="13" font-weight="bold" lengthAdjust="spacing" textLength="9.0454" x="474.96" y="219.1919">2</text>
    <text fill="#000000" font-family="sans-serif" font-size="13" lengthAdjust="spacing" textLength="195.8188" x="488.0054" y="219.1919">Obtenir les endpoints d&apos;oracle</text>
    <polygon fill="#181818" points="1008.2021,249.3906,1018.2021,253.3906,1008.2021,257.3906,1012.2021,253.3906" style="stroke:#181818;stroke-width:1.0;"/>
    <line style="stroke:#181818;stroke-width:1.0;" x1="770.3071" x2="1014.2021" y1="253.3906" y2="253.3906"/>
    <text fill="#000000" font-family="sans-serif" font-size="13" font-weight="bold" lengthAdjust="spacing" textLength="9.0454" x="777.3071" y="248.3247">3</text>
    <text fill="#000000" font-family="sans-serif" font-size="13" lengthAdjust="spacing" textLength="171.2407" x="790.3525" y="248.3247">Lire les endpoints d&apos;oracle</text>
    <path d="M20,268.3906 L84.4429,268.3906 L84.4429,275.5234 L74.4429,285.5234 L20,285.5234 L20,268.3906 " fill="#EEEEEE" style="stroke:#000000;stroke-width:1.5;"/>
    <rect fill="none" height="351.5234" style="stroke:#000000;stroke-width:1.5;" width="1065.9717" x="20" y="268.3906"/>
    <text fill="#000000" font-family="sans-serif" font-size="13" font-weight="bold" lengthAdjust="spacing" textLength="19.4429" x="35" y="281.4575">alt</text>
    <text fill="#000000" font-family="sans-serif" font-size="11" font-weight="bold" lengthAdjust="spacing" textLength="253.8164" x="99.4429" y="280.6011">[Obtenir les endpoints d’oracle (succès)]</text>
    <polygon fill="#181818" points="781.3071,302.6563,771.3071,306.6563,781.3071,310.6563,777.3071,306.6563" style="stroke:#181818;stroke-width:1.0;"/>
    <line style="stroke:#181818;stroke-width:1.0;stroke-dasharray:2.0,2.0;" x1="775.3071" x2="1024.2021" y1="306.6563" y2="306.6563"/>
    <text fill="#000000" font-family="sans-serif" font-size="13" font-weight="bold" lengthAdjust="spacing" textLength="9.0454" x="787.3071" y="301.5903">4</text>
    <text fill="#000000" font-family="sans-serif" font-size="13" lengthAdjust="spacing" textLength="212.8496" x="800.3525" y="301.5903">Retourner les endpoints d’oracle</text>
    <polygon fill="#181818" points="478.96,331.7891,468.96,335.7891,478.96,339.7891,474.96,335.7891" style="stroke:#181818;stroke-width:1.0;"/>
    <line style="stroke:#181818;stroke-width:1.0;" x1="472.96" x2="764.3071" y1="335.7891" y2="335.7891"/>
    <text fill="#000000" font-family="sans-serif" font-size="13" font-weight="bold" lengthAdjust="spacing" textLength="9.0454" x="484.96" y="330.7231">5</text>
    <text fill="#000000" font-family="sans-serif" font-size="13" lengthAdjust="spacing" textLength="212.8496" x="498.0054" y="330.7231">Retourner les endpoints d’oracle</text>
    <path d="M144,348.7891 L144,584.7891 L452,584.7891 L452,358.7891 L442,348.7891 L144,348.7891 " fill="#FFFF00" style="stroke:#181818;stroke-width:0.5;"/>
    <path d="M442,348.7891 L442,358.7891 L452,358.7891 L442,348.7891 " fill="#FFFF00" style="stroke:#181818;stroke-width:0.5;"/>
    <text fill="#000000" font-family="sans-serif" font-size="13" lengthAdjust="spacing" textLength="65.4888" x="150" y="365.856">Message :</text>
    <text fill="#000000" font-family="sans-serif" font-size="13" lengthAdjust="spacing" textLength="8.271" x="150" y="380.9888">{</text>
    <text fill="#000000" font-family="sans-serif" font-size="13" lengthAdjust="spacing" textLength="5.0718" x="166.5293" y="396.1216">[</text>
    <text fill="#000000" font-family="sans-serif" font-size="13" lengthAdjust="spacing" textLength="8.271" x="183.0586" y="411.2544">{</text>
    <text fill="#000000" font-family="sans-serif" font-size="13" lengthAdjust="spacing" textLength="135.8145" x="199.5879" y="426.3872">&quot;oracleId&quot;: &lt;string&gt;,</text>
    <text fill="#000000" font-family="sans-serif" font-size="13" lengthAdjust="spacing" textLength="208.292" x="199.5879" y="441.52">&quot;oracleIdType&quot;: &lt;PartyIdType&gt;,</text>
    <text fill="#000000" font-family="sans-serif" font-size="13" lengthAdjust="spacing" textLength="86.3853" x="199.5879" y="456.6528">&quot;endpoint&quot;: {</text>
    <text fill="#000000" font-family="sans-serif" font-size="13" lengthAdjust="spacing" textLength="119.2153" x="216.1172" y="471.7856">&quot;value&quot;: &lt;string&gt;,</text>
    <text fill="#000000" font-family="sans-serif" font-size="13" lengthAdjust="spacing" textLength="221.5269" x="216.1172" y="486.9185">&quot;endpointType&quot;: &lt;EndpointType&gt;</text>
    <text fill="#000000" font-family="sans-serif" font-size="13" lengthAdjust="spacing" textLength="12.4033" x="199.5879" y="502.0513">},</text>
    <text fill="#000000" font-family="sans-serif" font-size="13" lengthAdjust="spacing" textLength="162.627" x="199.5879" y="517.1841">&quot;currency&quot;: &lt;Currency&gt;,</text>
    <text fill="#000000" font-family="sans-serif" font-size="13" lengthAdjust="spacing" textLength="152.1152" x="199.5879" y="532.3169">&quot;isDefault&quot;: &lt;boolean&gt;</text>
    <text fill="#000000" font-family="sans-serif" font-size="13" lengthAdjust="spacing" textLength="8.271" x="183.0586" y="547.4497">}</text>
    <text fill="#000000" font-family="sans-serif" font-size="13" lengthAdjust="spacing" textLength="5.0718" x="166.5293" y="562.5825">]</text>
    <text fill="#000000" font-family="sans-serif" font-size="13" lengthAdjust="spacing" textLength="8.271" x="150" y="577.7153">}</text>
    <polygon fill="#181818" points="116.6455,607.9141,106.6455,611.9141,116.6455,615.9141,112.6455,611.9141" style="stroke:#181818;stroke-width:1.0;"/>
    <line style="stroke:#181818;stroke-width:1.0;stroke-dasharray:2.0,2.0;" x1="110.6455" x2="461.96" y1="611.9141" y2="611.9141"/>
    <text fill="#000000" font-family="sans-serif" font-size="13" font-weight="bold" lengthAdjust="spacing" textLength="9.0454" x="122.6455" y="606.8481">6</text>
    <text fill="#000000" font-family="sans-serif" font-size="13" lengthAdjust="spacing" textLength="43.6655" x="135.6909" y="606.8481">Retour</text>
    <text fill="#000000" font-family="sans-serif" font-size="13" font-weight="bold" lengthAdjust="spacing" textLength="98.4268" x="183.4888" y="606.8481">Statut HTTP :</text>
    <text fill="#000000" font-family="sans-serif" font-size="13" lengthAdjust="spacing" textLength="24.813" x="286.0479" y="606.8481">200</text>
    <path d="M20,633.9141 L84.4429,633.9141 L84.4429,641.0469 L74.4429,651.0469 L20,651.0469 L20,633.9141 " fill="#EEEEEE" style="stroke:#000000;stroke-width:1.5;"/>
    <rect fill="none" height="230.4609" style="stroke:#000000;stroke-width:1.5;" width="1065.9717" x="20" y="633.9141"/>
    <text fill="#000000" font-family="sans-serif" font-size="13" font-weight="bold" lengthAdjust="spacing" textLength="19.4429" x="35" y="646.981">alt</text>
    <text fill="#000000" font-family="sans-serif" font-size="11" font-weight="bold" lengthAdjust="spacing" textLength="248.1821" x="99.4429" y="646.1245">[Obtenir les endpoints d’oracle (échec)]</text>
    <polygon fill="#181818" points="776.3071,668.1797,766.3071,672.1797,776.3071,676.1797,772.3071,672.1797" style="stroke:#181818;stroke-width:1.0;"/>
    <line style="stroke:#181818;stroke-width:1.0;stroke-dasharray:2.0,2.0;" x1="770.3071" x2="1024.2021" y1="672.1797" y2="672.1797"/>
    <text fill="#000000" font-family="sans-serif" font-size="13" font-weight="bold" lengthAdjust="spacing" textLength="9.0454" x="782.3071" y="667.1138">7</text>
    <text fill="#000000" font-family="sans-serif" font-size="13" lengthAdjust="spacing" textLength="109.2876" x="795.3525" y="667.1138">Lever une erreur</text>
    <polygon fill="#181818" points="473.96,697.3125,463.96,701.3125,473.96,705.3125,469.96,701.3125" style="stroke:#181818;stroke-width:1.0;"/>
    <line style="stroke:#181818;stroke-width:1.0;" x1="467.96" x2="764.3071" y1="701.3125" y2="701.3125"/>
    <text fill="#000000" font-family="sans-serif" font-size="13" font-weight="bold" lengthAdjust="spacing" textLength="9.0454" x="479.96" y="696.2466">8</text>
    <text fill="#000000" font-family="sans-serif" font-size="13" lengthAdjust="spacing" textLength="109.2876" x="493.0054" y="696.2466">Lever une erreur</text>
    <path d="M222,714.3125 L222,829.3125 L457,829.3125 L457,724.3125 L447,714.3125 L222,714.3125 " fill="#FFFF00" style="stroke:#181818;stroke-width:0.5;"/>
    <path d="M447,714.3125 L447,724.3125 L457,724.3125 L447,714.3125 " fill="#FFFF00" style="stroke:#181818;stroke-width:0.5;"/>
    <text fill="#000000" font-family="sans-serif" font-size="13" lengthAdjust="spacing" textLength="65.4888" x="228" y="731.3794">Message :</text>
    <text fill="#000000" font-family="sans-serif" font-size="13" lengthAdjust="spacing" textLength="8.271" x="228" y="746.5122">{</text>
    <text fill="#000000" font-family="sans-serif" font-size="13" lengthAdjust="spacing" textLength="136.208" x="244.5293" y="761.645">&quot;errorInformation&quot;: {</text>
    <text fill="#000000" font-family="sans-serif" font-size="13" lengthAdjust="spacing" textLength="181.27" x="261.0586" y="776.7778">&quot;errorCode&quot;: &lt;Error Code&gt;,</text>
    <text fill="#000000" font-family="sans-serif" font-size="13" lengthAdjust="spacing" textLength="178.6548" x="261.0586" y="791.9106">&quot;errorDescription&quot;: &lt;Msg&gt;,</text>
    <text fill="#000000" font-family="sans-serif" font-size="13" lengthAdjust="spacing" textLength="8.271" x="244.5293" y="807.0435">}</text>
    <text fill="#000000" font-family="sans-serif" font-size="13" lengthAdjust="spacing" textLength="8.271" x="228" y="822.1763">}</text>
    <polygon fill="#181818" points="116.6455,852.375,106.6455,856.375,116.6455,860.375,112.6455,856.375" style="stroke:#181818;stroke-width:1.0;"/>
    <line style="stroke:#181818;stroke-width:1.0;stroke-dasharray:2.0,2.0;" x1="110.6455" x2="461.96" y1="856.375" y2="856.375"/>
    <text fill="#000000" font-family="sans-serif" font-size="13" font-weight="bold" lengthAdjust="spacing" textLength="9.0454" x="122.6455" y="851.3091">9</text>
    <text fill="#000000" font-family="sans-serif" font-size="13" lengthAdjust="spacing" textLength="43.6655" x="135.6909" y="851.3091">Retour</text>
    <text fill="#FF0000" font-family="sans-serif" font-size="13" font-weight="bold" lengthAdjust="spacing" textLength="98.4268" x="183.4888" y="851.3091">Statut HTTP :</text>
    <text fill="#FF0000" font-family="sans-serif" font-size="13" lengthAdjust="spacing" textLength="24.813" x="286.0479" y="851.3091">502</text>
  </g>
</svg>
