<svg xmlns="http://www.w3.org/2000/svg" xmlns:xlink="http://www.w3.org/1999/xlink" contentStyleType="text/css" height="966px" preserveAspectRatio="none" style="width:1292px;height:966px;background:#FFFFFF;" version="1.1" viewBox="0 0 1292 966" width="1292px" zoomAndPan="magnify">
  <title>7.3.1 Obtenir tous les points de terminaison d&apos;oracle</title>
  <defs/>
  <g>
    <text fill="#000000" font-family="sans-serif" font-size="14" font-weight="bold" lengthAdjust="spacing" textLength="417.4229" x="438.8342" y="27.9951">7.3.1 Obtenir tous les points de terminaison d&apos;oracle</text>
    <rect fill="#FFFFE0" height="910.375" style="stroke:#181818;stroke-width:0.5;" width="893.752" x="376.3394" y="43.2969"/>
    <text fill="#000000" font-family="sans-serif" font-size="13" font-weight="bold" lengthAdjust="spacing" textLength="175.5762" x="735.4272" y="55.3638">Account Lookup Service</text>
    <rect fill="#FFFFFF" height="477.1875" style="stroke:#181818;stroke-width:1.0;" width="10" x="100.6455" y="134.7266"/>
    <rect fill="#FFFFFF" height="416.7891" style="stroke:#181818;stroke-width:1.0;" width="10" x="535.4839" y="195.125"/>
    <rect fill="#FFFFFF" height="111.5313" style="stroke:#181818;stroke-width:1.0;" width="10" x="872.9028" y="224.2578"/>
    <rect fill="#FFFFFF" height="53.2656" style="stroke:#181818;stroke-width:1.0;" width="10" x="1210.3218" y="253.3906"/>
    <rect fill="none" height="729.6484" style="stroke:#000000;stroke-width:1.5;" width="1276.0913" x="10" y="141.7266"/>
    <rect fill="none" height="351.5234" style="stroke:#000000;stroke-width:1.5;" width="1256.0913" x="20" y="268.3906"/>
    <rect fill="none" height="230.4609" style="stroke:#000000;stroke-width:1.5;" width="1256.0913" x="20" y="633.9141"/>
    <line style="stroke:#181818;stroke-width:0.5;stroke-dasharray:5.0,5.0;" x1="105" x2="105" y1="124.7266" y2="888.375"/>
    <line style="stroke:#181818;stroke-width:0.5;stroke-dasharray:5.0,5.0;" x1="540.3394" x2="540.3394" y1="124.7266" y2="888.375"/>
    <line style="stroke:#181818;stroke-width:0.5;stroke-dasharray:5.0,5.0;" x1="877.7002" x2="877.7002" y1="124.7266" y2="888.375"/>
    <line style="stroke:#181818;stroke-width:0.5;stroke-dasharray:5.0,5.0;" x1="1214.5522" x2="1214.5522" y1="124.7266" y2="888.375"/>
    <text fill="#000000" font-family="sans-serif" font-size="14" lengthAdjust="spacing" textLength="145.291" x="30" y="121.4248">OPÉRATEUR DU HUB</text>
    <ellipse cx="105.6455" cy="92.4297" fill="#E2E2F0" rx="12" ry="12" style="stroke:#181818;stroke-width:0.5;"/>
    <line style="stroke:#181818;stroke-width:0.5;" x1="93.6455" x2="117.6455" y1="106.4297" y2="106.4297"/>
    <text fill="#000000" font-family="sans-serif" font-size="14" lengthAdjust="spacing" textLength="145.291" x="30" y="900.3701">OPÉRATEUR DU HUB</text>
    <ellipse cx="105.6455" cy="919.6719" fill="#E2E2F0" rx="12" ry="12" style="stroke:#181818;stroke-width:0.5;"/>
    <line style="stroke:#181818;stroke-width:0.5;" x1="93.6455" x2="117.6455" y1="933.6719" y2="933.6719"/>
    <text fill="#000000" font-family="sans-serif" font-size="14" lengthAdjust="spacing" textLength="314.2891" x="380.3394" y="121.4248">API d’administration Account Lookup Service</text>
    <path d="M519.9839,80.4297 L519.9839,104.4297 M519.9839,92.4297 L536.9839,92.4297 " fill="none" style="stroke:#181818;stroke-width:0.5;"/>
    <ellipse cx="548.9839" cy="92.4297" fill="#E2E2F0" rx="12" ry="12" style="stroke:#181818;stroke-width:0.5;"/>
    <text fill="#000000" font-family="sans-serif" font-size="14" lengthAdjust="spacing" textLength="314.2891" x="380.3394" y="900.3701">API d’administration Account Lookup Service</text>
    <path d="M519.9839,907.6719 L519.9839,931.6719 M519.9839,919.6719 L536.9839,919.6719 " fill="none" style="stroke:#181818;stroke-width:0.5;"/>
    <ellipse cx="548.9839" cy="919.6719" fill="#E2E2F0" rx="12" ry="12" style="stroke:#181818;stroke-width:0.5;"/>
    <text fill="#000000" font-family="sans-serif" font-size="14" lengthAdjust="spacing" textLength="258.4053" x="745.7002" y="121.4248">Gestionnaire d’obtention des oracles</text>
    <ellipse cx="877.9028" cy="92.4297" fill="#E2E2F0" rx="12" ry="12" style="stroke:#181818;stroke-width:0.5;"/>
    <polygon fill="#181818" points="873.9028,80.4297,879.9028,75.4297,877.9028,80.4297,879.9028,85.4297,873.9028,80.4297" style="stroke:#181818;stroke-width:1.0;"/>
    <text fill="#000000" font-family="sans-serif" font-size="14" lengthAdjust="spacing" textLength="258.4053" x="745.7002" y="900.3701">Gestionnaire d’obtention des oracles</text>
    <ellipse cx="877.9028" cy="919.6719" fill="#E2E2F0" rx="12" ry="12" style="stroke:#181818;stroke-width:0.5;"/>
    <polygon fill="#181818" points="873.9028,907.6719,879.9028,902.6719,877.9028,907.6719,879.9028,912.6719,873.9028,907.6719" style="stroke:#181818;stroke-width:1.0;"/>
    <text fill="#000000" font-family="sans-serif" font-size="14" lengthAdjust="spacing" textLength="95.5391" x="1164.5522" y="121.4248">Stockage ALS</text>
    <path d="M1197.3218,72.4297 C1197.3218,62.4297 1215.3218,62.4297 1215.3218,62.4297 C1215.3218,62.4297 1233.3218,62.4297 1233.3218,72.4297 L1233.3218,98.4297 C1233.3218,108.4297 1215.3218,108.4297 1215.3218,108.4297 C1215.3218,108.4297 1197.3218,108.4297 1197.3218,98.4297 L1197.3218,72.4297 " fill="#E2E2F0" style="stroke:#181818;stroke-width:1.5;"/>
    <path d="M1197.3218,72.4297 C1197.3218,82.4297 1215.3218,82.4297 1215.3218,82.4297 C1215.3218,82.4297 1233.3218,82.4297 1233.3218,72.4297 " fill="none" style="stroke:#181818;stroke-width:1.5;"/>
    <text fill="#000000" font-family="sans-serif" font-size="14" lengthAdjust="spacing" textLength="95.5391" x="1164.5522" y="900.3701">Stockage ALS</text>
    <path d="M1197.3218,913.6719 C1197.3218,903.6719 1215.3218,903.6719 1215.3218,903.6719 C1215.3218,903.6719 1233.3218,903.6719 1233.3218,913.6719 L1233.3218,939.6719 C1233.3218,949.6719 1215.3218,949.6719 1215.3218,949.6719 C1215.3218,949.6719 1197.3218,949.6719 1197.3218,939.6719 L1197.3218,913.6719 " fill="#E2E2F0" style="stroke:#181818;stroke-width:1.5;"/>
    <path d="M1197.3218,913.6719 C1197.3218,923.6719 1215.3218,923.6719 1215.3218,923.6719 C1215.3218,923.6719 1233.3218,923.6719 1233.3218,913.6719 " fill="none" style="stroke:#181818;stroke-width:1.5;"/>
    <rect fill="#FFFFFF" height="477.1875" style="stroke:#181818;stroke-width:1.0;" width="10" x="100.6455" y="134.7266"/>
    <rect fill="#FFFFFF" height="416.7891" style="stroke:#181818;stroke-width:1.0;" width="10" x="535.4839" y="195.125"/>
    <rect fill="#FFFFFF" height="111.5313" style="stroke:#181818;stroke-width:1.0;" width="10" x="872.9028" y="224.2578"/>
    <rect fill="#FFFFFF" height="53.2656" style="stroke:#181818;stroke-width:1.0;" width="10" x="1210.3218" y="253.3906"/>
    <path d="M10,141.7266 L364.4038,141.7266 L364.4038,148.8594 L354.4038,158.8594 L10,158.8594 L10,141.7266 " fill="#EEEEEE" style="stroke:#000000;stroke-width:1.5;"/>
    <rect fill="none" height="729.6484" style="stroke:#000000;stroke-width:1.5;" width="1276.0913" x="10" y="141.7266"/>
    <text fill="#000000" font-family="sans-serif" font-size="13" font-weight="bold" lengthAdjust="spacing" textLength="309.4038" x="25" y="154.7935">Obtenir les points de terminaison d&apos;oracle</text>
    <polygon fill="#181818" points="523.4839,191.125,533.4839,195.125,523.4839,199.125,527.4839,195.125" style="stroke:#181818;stroke-width:1.0;"/>
    <line style="stroke:#181818;stroke-width:1.0;" x1="110.6455" x2="529.4839" y1="195.125" y2="195.125"/>
    <text fill="#000000" font-family="sans-serif" font-size="13" font-weight="bold" lengthAdjust="spacing" textLength="9.0454" x="117.6455" y="182.4927">1</text>
    <text fill="#000000" font-family="sans-serif" font-size="13" lengthAdjust="spacing" textLength="392.793" x="130.6909" y="174.9263">Requête GET pour tous les points de terminaison d&apos;oracle —</text>
    <text fill="#000000" font-family="sans-serif" font-size="13" lengthAdjust="spacing" textLength="285.6191" x="130.6909" y="190.0591">GET /oracles?currency=USD&amp;type=MSISDN</text>
    <polygon fill="#181818" points="860.9028,220.2578,870.9028,224.2578,860.9028,228.2578,864.9028,224.2578" style="stroke:#181818;stroke-width:1.0;"/>
    <line style="stroke:#181818;stroke-width:1.0;" x1="545.4839" x2="866.9028" y1="224.2578" y2="224.2578"/>
    <text fill="#000000" font-family="sans-serif" font-size="13" font-weight="bold" lengthAdjust="spacing" textLength="9.0454" x="552.4839" y="219.1919">2</text>
    <text fill="#000000" font-family="sans-serif" font-size="13" lengthAdjust="spacing" textLength="273.3428" x="565.5293" y="219.1919">Obtenir les points de terminaison d&apos;oracle</text>
    <polygon fill="#181818" points="1198.3218,249.3906,1208.3218,253.3906,1198.3218,257.3906,1202.3218,253.3906" style="stroke:#181818;stroke-width:1.0;"/>
    <line style="stroke:#181818;stroke-width:1.0;" x1="882.9028" x2="1204.3218" y1="253.3906" y2="253.3906"/>
    <text fill="#000000" font-family="sans-serif" font-size="13" font-weight="bold" lengthAdjust="spacing" textLength="9.0454" x="889.9028" y="248.3247">3</text>
    <text fill="#000000" font-family="sans-serif" font-size="13" lengthAdjust="spacing" textLength="248.7646" x="902.9482" y="248.3247">Lire les points de terminaison d&apos;oracle</text>
    <path d="M20,268.3906 L84.4429,268.3906 L84.4429,275.5234 L74.4429,285.5234 L20,285.5234 L20,268.3906 " fill="#EEEEEE" style="stroke:#000000;stroke-width:1.5;"/>
    <rect fill="none" height="351.5234" style="stroke:#000000;stroke-width:1.5;" width="1256.0913" x="20" y="268.3906"/>
    <text fill="#000000" font-family="sans-serif" font-size="13" font-weight="bold" lengthAdjust="spacing" textLength="19.4429" x="35" y="281.4575">alt</text>
    <text fill="#000000" font-family="sans-serif" font-size="11" font-weight="bold" lengthAdjust="spacing" textLength="327.9805" x="99.4429" y="280.6011">[Obtenir les points de terminaison d’oracle (succès)]</text>
    <polygon fill="#181818" points="893.9028,302.6563,883.9028,306.6563,893.9028,310.6563,889.9028,306.6563" style="stroke:#181818;stroke-width:1.0;"/>
    <line style="stroke:#181818;stroke-width:1.0;stroke-dasharray:2.0,2.0;" x1="887.9028" x2="1214.3218" y1="306.6563" y2="306.6563"/>
    <text fill="#000000" font-family="sans-serif" font-size="13" font-weight="bold" lengthAdjust="spacing" textLength="9.0454" x="899.9028" y="301.5903">4</text>
    <text fill="#000000" font-family="sans-serif" font-size="13" lengthAdjust="spacing" textLength="290.3735" x="912.9482" y="301.5903">Retourner les points de terminaison d’oracle</text>
    <polygon fill="#181818" points="556.4839,331.7891,546.4839,335.7891,556.4839,339.7891,552.4839,335.7891" style="stroke:#181818;stroke-width:1.0;"/>
    <line style="stroke:#181818;stroke-width:1.0;" x1="550.4839" x2="876.9028" y1="335.7891" y2="335.7891"/>
    <text fill="#000000" font-family="sans-serif" font-size="13" font-weight="bold" lengthAdjust="spacing" textLength="9.0454" x="562.4839" y="330.7231">5</text>
    <text fill="#000000" font-family="sans-serif" font-size="13" lengthAdjust="spacing" textLength="290.3735" x="575.5293" y="330.7231">Retourner les points de terminaison d’oracle</text>
    <path d="M221,348.7891 L221,584.7891 L529,584.7891 L529,358.7891 L519,348.7891 L221,348.7891 " fill="#FFFF00" style="stroke:#181818;stroke-width:0.5;"/>
    <path d="M519,348.7891 L519,358.7891 L529,358.7891 L519,348.7891 " fill="#FFFF00" style="stroke:#181818;stroke-width:0.5;"/>
    <text fill="#000000" font-family="sans-serif" font-size="13" lengthAdjust="spacing" textLength="65.4888" x="227" y="365.856">Message :</text>
    <text fill="#000000" font-family="sans-serif" font-size="13" lengthAdjust="spacing" textLength="8.271" x="227" y="380.9888">{</text>
    <text fill="#000000" font-family="sans-serif" font-size="13" lengthAdjust="spacing" textLength="5.0718" x="243.5293" y="396.1216">[</text>
    <text fill="#000000" font-family="sans-serif" font-size="13" lengthAdjust="spacing" textLength="8.271" x="260.0586" y="411.2544">{</text>
    <text fill="#000000" font-family="sans-serif" font-size="13" lengthAdjust="spacing" textLength="135.8145" x="276.5879" y="426.3872">&quot;oracleId&quot;: &lt;string&gt;,</text>
    <text fill="#000000" font-family="sans-serif" font-size="13" lengthAdjust="spacing" textLength="208.292" x="276.5879" y="441.52">&quot;oracleIdType&quot;: &lt;PartyIdType&gt;,</text>
    <text fill="#000000" font-family="sans-serif" font-size="13" lengthAdjust="spacing" textLength="86.3853" x="276.5879" y="456.6528">&quot;endpoint&quot;: {</text>
    <text fill="#000000" font-family="sans-serif" font-size="13" lengthAdjust="spacing" textLength="119.2153" x="293.1172" y="471.7856">&quot;value&quot;: &lt;string&gt;,</text>
    <text fill="#000000" font-family="sans-serif" font-size="13" lengthAdjust="spacing" textLength="221.5269" x="293.1172" y="486.9185">&quot;endpointType&quot;: &lt;EndpointType&gt;</text>
    <text fill="#000000" font-family="sans-serif" font-size="13" lengthAdjust="spacing" textLength="12.4033" x="276.5879" y="502.0513">},</text>
    <text fill="#000000" font-family="sans-serif" font-size="13" lengthAdjust="spacing" textLength="162.627" x="276.5879" y="517.1841">&quot;currency&quot;: &lt;Currency&gt;,</text>
    <text fill="#000000" font-family="sans-serif" font-size="13" lengthAdjust="spacing" textLength="152.1152" x="276.5879" y="532.3169">&quot;isDefault&quot;: &lt;boolean&gt;</text>
    <text fill="#000000" font-family="sans-serif" font-size="13" lengthAdjust="spacing" textLength="8.271" x="260.0586" y="547.4497">}</text>
    <text fill="#000000" font-family="sans-serif" font-size="13" lengthAdjust="spacing" textLength="5.0718" x="243.5293" y="562.5825">]</text>
    <text fill="#000000" font-family="sans-serif" font-size="13" lengthAdjust="spacing" textLength="8.271" x="227" y="577.7153">}</text>
    <polygon fill="#181818" points="116.6455,607.9141,106.6455,611.9141,116.6455,615.9141,112.6455,611.9141" style="stroke:#181818;stroke-width:1.0;"/>
    <line style="stroke:#181818;stroke-width:1.0;stroke-dasharray:2.0,2.0;" x1="110.6455" x2="539.4839" y1="611.9141" y2="611.9141"/>
    <text fill="#000000" font-family="sans-serif" font-size="13" font-weight="bold" lengthAdjust="spacing" textLength="9.0454" x="122.6455" y="606.8481">6</text>
    <text fill="#000000" font-family="sans-serif" font-size="13" lengthAdjust="spacing" textLength="43.6655" x="135.6909" y="606.8481">Retour</text>
    <text fill="#000000" font-family="sans-serif" font-size="13" font-weight="bold" lengthAdjust="spacing" textLength="98.4268" x="183.4888" y="606.8481">Statut HTTP :</text>
    <text fill="#000000" font-family="sans-serif" font-size="13" lengthAdjust="spacing" textLength="24.813" x="286.0479" y="606.8481">200</text>
    <path d="M20,633.9141 L84.4429,633.9141 L84.4429,641.0469 L74.4429,651.0469 L20,651.0469 L20,633.9141 " fill="#EEEEEE" style="stroke:#000000;stroke-width:1.5;"/>
    <rect fill="none" height="230.4609" style="stroke:#000000;stroke-width:1.5;" width="1256.0913" x="20" y="633.9141"/>
    <text fill="#000000" font-family="sans-serif" font-size="13" font-weight="bold" lengthAdjust="spacing" textLength="19.4429" x="35" y="646.981">alt</text>
    <text fill="#000000" font-family="sans-serif" font-size="11" font-weight="bold" lengthAdjust="spacing" textLength="322.3462" x="99.4429" y="646.1245">[Obtenir les points de terminaison d’oracle (échec)]</text>
    <polygon fill="#181818" points="888.9028,668.1797,878.9028,672.1797,888.9028,676.1797,884.9028,672.1797" style="stroke:#181818;stroke-width:1.0;"/>
    <line style="stroke:#181818;stroke-width:1.0;stroke-dasharray:2.0,2.0;" x1="882.9028" x2="1214.3218" y1="672.1797" y2="672.1797"/>
    <text fill="#000000" font-family="sans-serif" font-size="13" font-weight="bold" lengthAdjust="spacing" textLength="9.0454" x="894.9028" y="667.1138">7</text>
    <text fill="#000000" font-family="sans-serif" font-size="13" lengthAdjust="spacing" textLength="109.2876" x="907.9482" y="667.1138">Lever une erreur</text>
    <polygon fill="#181818" points="551.4839,697.3125,541.4839,701.3125,551.4839,705.3125,547.4839,701.3125" style="stroke:#181818;stroke-width:1.0;"/>
    <line style="stroke:#181818;stroke-width:1.0;" x1="545.4839" x2="876.9028" y1="701.3125" y2="701.3125"/>
    <text fill="#000000" font-family="sans-serif" font-size="13" font-weight="bold" lengthAdjust="spacing" textLength="9.0454" x="557.4839" y="696.2466">8</text>
    <text fill="#000000" font-family="sans-serif" font-size="13" lengthAdjust="spacing" textLength="109.2876" x="570.5293" y="696.2466">Lever une erreur</text>
    <path d="M300,714.3125 L300,829.3125 L535,829.3125 L535,724.3125 L525,714.3125 L300,714.3125 " fill="#FFFF00" style="stroke:#181818;stroke-width:0.5;"/>
    <path d="M525,714.3125 L525,724.3125 L535,724.3125 L525,714.3125 " fill="#FFFF00" style="stroke:#181818;stroke-width:0.5;"/>
    <text fill="#000000" font-family="sans-serif" font-size="13" lengthAdjust="spacing" textLength="65.4888" x="306" y="731.3794">Message :</text>
    <text fill="#000000" font-family="sans-serif" font-size="13" lengthAdjust="spacing" textLength="8.271" x="306" y="746.5122">{</text>
    <text fill="#000000" font-family="sans-serif" font-size="13" lengthAdjust="spacing" textLength="136.208" x="322.5293" y="761.645">&quot;errorInformation&quot;: {</text>
    <text fill="#000000" font-family="sans-serif" font-size="13" lengthAdjust="spacing" textLength="181.27" x="339.0586" y="776.7778">&quot;errorCode&quot;: &lt;Error Code&gt;,</text>
    <text fill="#000000" font-family="sans-serif" font-size="13" lengthAdjust="spacing" textLength="178.6548" x="339.0586" y="791.9106">&quot;errorDescription&quot;: &lt;Msg&gt;,</text>
    <text fill="#000000" font-family="sans-serif" font-size="13" lengthAdjust="spacing" textLength="8.271" x="322.5293" y="807.0435">}</text>
    <text fill="#000000" font-family="sans-serif" font-size="13" lengthAdjust="spacing" textLength="8.271" x="306" y="822.1763">}</text>
    <polygon fill="#181818" points="116.6455,852.375,106.6455,856.375,116.6455,860.375,112.6455,856.375" style="stroke:#181818;stroke-width:1.0;"/>
    <line style="stroke:#181818;stroke-width:1.0;stroke-dasharray:2.0,2.0;" x1="110.6455" x2="539.4839" y1="856.375" y2="856.375"/>
    <text fill="#000000" font-family="sans-serif" font-size="13" font-weight="bold" lengthAdjust="spacing" textLength="9.0454" x="122.6455" y="851.3091">9</text>
    <text fill="#000000" font-family="sans-serif" font-size="13" lengthAdjust="spacing" textLength="43.6655" x="135.6909" y="851.3091">Retour</text>
    <text fill="#FF0000" font-family="sans-serif" font-size="13" font-weight="bold" lengthAdjust="spacing" textLength="98.4268" x="183.4888" y="851.3091">Statut HTTP :</text>
    <text fill="#FF0000" font-family="sans-serif" font-size="13" lengthAdjust="spacing" textLength="24.813" x="286.0479" y="851.3091">502</text>
  </g>
</svg>
