<svg xmlns="http://www.w3.org/2000/svg" xmlns:xlink="http://www.w3.org/1999/xlink" contentStyleType="text/css" height="752px" preserveAspectRatio="none" style="width:1392px;height:752px;background:#FFFFFF;" version="1.1" viewBox="0 0 1392 752" width="1392px" zoomAndPan="magnify">
  <title>7.3.4 Supprimer un point de terminaison d’oracle</title>
  <defs/>
  <g>
    <text fill="#000000" font-family="sans-serif" font-size="14" font-weight="bold" lengthAdjust="spacing" textLength="390.9473" x="501.9226" y="27.9951">7.3.4 Supprimer un point de terminaison d’oracle</text>
    <rect fill="#FFFFE0" height="696.5156" style="stroke:#181818;stroke-width:0.5;" width="968.4297" x="376.2759" y="43.2969"/>
    <text fill="#000000" font-family="sans-serif" font-size="13" font-weight="bold" lengthAdjust="spacing" textLength="175.5762" x="772.7026" y="55.3638">Account Lookup Service</text>
    <rect fill="#FFFFFF" height="263.3281" style="stroke:#181818;stroke-width:1.0;" width="10" x="100.6455" y="134.7266"/>
    <rect fill="#FFFFFF" height="202.9297" style="stroke:#181818;stroke-width:1.0;" width="10" x="535.4204" y="195.125"/>
    <rect fill="#FFFFFF" height="144.6641" style="stroke:#181818;stroke-width:1.0;" width="10" x="857.0039" y="224.2578"/>
    <rect fill="#FFFFFF" height="86.3984" style="stroke:#181818;stroke-width:1.0;" width="10" x="1284.936" y="253.3906"/>
    <rect fill="none" height="515.7891" style="stroke:#000000;stroke-width:1.5;" width="1375.7925" x="10" y="141.7266"/>
    <rect fill="none" height="104.5313" style="stroke:#000000;stroke-width:1.5;" width="1330.7056" x="20" y="301.5234"/>
    <rect fill="none" height="230.4609" style="stroke:#000000;stroke-width:1.5;" width="1330.7056" x="20" y="420.0547"/>
    <line style="stroke:#181818;stroke-width:0.5;stroke-dasharray:5.0,5.0;" x1="105" x2="105" y1="124.7266" y2="674.5156"/>
    <line style="stroke:#181818;stroke-width:0.5;stroke-dasharray:5.0,5.0;" x1="540.2759" x2="540.2759" y1="124.7266" y2="674.5156"/>
    <line style="stroke:#181818;stroke-width:0.5;stroke-dasharray:5.0,5.0;" x1="861.2998" x2="861.2998" y1="124.7266" y2="674.5156"/>
    <line style="stroke:#181818;stroke-width:0.5;stroke-dasharray:5.0,5.0;" x1="1289.1665" x2="1289.1665" y1="124.7266" y2="674.5156"/>
    <text fill="#000000" font-family="sans-serif" font-size="14" lengthAdjust="spacing" textLength="145.291" x="30" y="121.4248">OPÉRATEUR DU HUB</text>
    <ellipse cx="105.6455" cy="92.4297" fill="#E2E2F0" rx="12" ry="12" style="stroke:#181818;stroke-width:0.5;"/>
    <line style="stroke:#181818;stroke-width:0.5;" x1="93.6455" x2="117.6455" y1="106.4297" y2="106.4297"/>
    <text fill="#000000" font-family="sans-serif" font-size="14" lengthAdjust="spacing" textLength="145.291" x="30" y="686.5107">OPÉRATEUR DU HUB</text>
    <ellipse cx="105.6455" cy="705.8125" fill="#E2E2F0" rx="12" ry="12" style="stroke:#181818;stroke-width:0.5;"/>
    <line style="stroke:#181818;stroke-width:0.5;" x1="93.6455" x2="117.6455" y1="719.8125" y2="719.8125"/>
    <text fill="#000000" font-family="sans-serif" font-size="14" lengthAdjust="spacing" textLength="314.2891" x="380.2759" y="121.4248">API d’administration Account Lookup Service</text>
    <path d="M519.9204,80.4297 L519.9204,104.4297 M519.9204,92.4297 L536.9204,92.4297 " fill="none" style="stroke:#181818;stroke-width:0.5;"/>
    <ellipse cx="548.9204" cy="92.4297" fill="#E2E2F0" rx="12" ry="12" style="stroke:#181818;stroke-width:0.5;"/>
    <text fill="#000000" font-family="sans-serif" font-size="14" lengthAdjust="spacing" textLength="314.2891" x="380.2759" y="686.5107">API d’administration Account Lookup Service</text>
    <path d="M519.9204,693.8125 L519.9204,717.8125 M519.9204,705.8125 L536.9204,705.8125 " fill="none" style="stroke:#181818;stroke-width:0.5;"/>
    <ellipse cx="548.9204" cy="705.8125" fill="#E2E2F0" rx="12" ry="12" style="stroke:#181818;stroke-width:0.5;"/>
    <text fill="#000000" font-family="sans-serif" font-size="14" lengthAdjust="spacing" textLength="197.4082" x="760.2998" y="121.4248">Gestionnaire DELETE Oracle</text>
    <ellipse cx="862.0039" cy="92.4297" fill="#E2E2F0" rx="12" ry="12" style="stroke:#181818;stroke-width:0.5;"/>
    <polygon fill="#181818" points="858.0039,80.4297,864.0039,75.4297,862.0039,80.4297,864.0039,85.4297,858.0039,80.4297" style="stroke:#181818;stroke-width:1.0;"/>
    <text fill="#000000" font-family="sans-serif" font-size="14" lengthAdjust="spacing" textLength="197.4082" x="760.2998" y="686.5107">Gestionnaire DELETE Oracle</text>
    <ellipse cx="862.0039" cy="705.8125" fill="#E2E2F0" rx="12" ry="12" style="stroke:#181818;stroke-width:0.5;"/>
    <polygon fill="#181818" points="858.0039,693.8125,864.0039,688.8125,862.0039,693.8125,864.0039,698.8125,858.0039,693.8125" style="stroke:#181818;stroke-width:1.0;"/>
    <text fill="#000000" font-family="sans-serif" font-size="14" lengthAdjust="spacing" textLength="95.5391" x="1239.1665" y="121.4248">Stockage ALS</text>
    <path d="M1271.936,72.4297 C1271.936,62.4297 1289.936,62.4297 1289.936,62.4297 C1289.936,62.4297 1307.936,62.4297 1307.936,72.4297 L1307.936,98.4297 C1307.936,108.4297 1289.936,108.4297 1289.936,108.4297 C1289.936,108.4297 1271.936,108.4297 1271.936,98.4297 L1271.936,72.4297 " fill="#E2E2F0" style="stroke:#181818;stroke-width:1.5;"/>
    <path d="M1271.936,72.4297 C1271.936,82.4297 1289.936,82.4297 1289.936,82.4297 C1289.936,82.4297 1307.936,82.4297 1307.936,72.4297 " fill="none" style="stroke:#181818;stroke-width:1.5;"/>
    <text fill="#000000" font-family="sans-serif" font-size="14" lengthAdjust="spacing" textLength="95.5391" x="1239.1665" y="686.5107">Stockage ALS</text>
    <path d="M1271.936,699.8125 C1271.936,689.8125 1289.936,689.8125 1289.936,689.8125 C1289.936,689.8125 1307.936,689.8125 1307.936,699.8125 L1307.936,725.8125 C1307.936,735.8125 1289.936,735.8125 1289.936,735.8125 C1289.936,735.8125 1271.936,735.8125 1271.936,725.8125 L1271.936,699.8125 " fill="#E2E2F0" style="stroke:#181818;stroke-width:1.5;"/>
    <path d="M1271.936,699.8125 C1271.936,709.8125 1289.936,709.8125 1289.936,709.8125 C1289.936,709.8125 1307.936,709.8125 1307.936,699.8125 " fill="none" style="stroke:#181818;stroke-width:1.5;"/>
    <rect fill="#FFFFFF" height="263.3281" style="stroke:#181818;stroke-width:1.0;" width="10" x="100.6455" y="134.7266"/>
    <rect fill="#FFFFFF" height="202.9297" style="stroke:#181818;stroke-width:1.0;" width="10" x="535.4204" y="195.125"/>
    <rect fill="#FFFFFF" height="144.6641" style="stroke:#181818;stroke-width:1.0;" width="10" x="857.0039" y="224.2578"/>
    <rect fill="#FFFFFF" height="86.3984" style="stroke:#181818;stroke-width:1.0;" width="10" x="1284.936" y="253.3906"/>
    <path d="M10,141.7266 L376.4834,141.7266 L376.4834,148.8594 L366.4834,158.8594 L10,158.8594 L10,141.7266 " fill="#EEEEEE" style="stroke:#000000;stroke-width:1.5;"/>
    <rect fill="none" height="515.7891" style="stroke:#000000;stroke-width:1.5;" width="1375.7925" x="10" y="141.7266"/>
    <text fill="#000000" font-family="sans-serif" font-size="13" font-weight="bold" lengthAdjust="spacing" textLength="321.4834" x="25" y="154.7935">Supprimer un point de terminaison d’oracle</text>
    <polygon fill="#181818" points="523.4204,191.125,533.4204,195.125,523.4204,199.125,527.4204,195.125" style="stroke:#181818;stroke-width:1.0;"/>
    <line style="stroke:#181818;stroke-width:1.0;" x1="110.6455" x2="529.4204" y1="195.125" y2="195.125"/>
    <text fill="#000000" font-family="sans-serif" font-size="13" font-weight="bold" lengthAdjust="spacing" textLength="9.0454" x="117.6455" y="182.4927">1</text>
    <text fill="#000000" font-family="sans-serif" font-size="13" lengthAdjust="spacing" textLength="392.7295" x="130.6909" y="174.9263">Requête pour supprimer un point de terminaison d’oracle —</text>
    <text fill="#000000" font-family="sans-serif" font-size="13" lengthAdjust="spacing" textLength="139.9087" x="130.6909" y="190.0591">DELETE /oracles/{ID}</text>
    <polygon fill="#181818" points="845.0039,220.2578,855.0039,224.2578,845.0039,228.2578,849.0039,224.2578" style="stroke:#181818;stroke-width:1.0;"/>
    <line style="stroke:#181818;stroke-width:1.0;" x1="545.4204" x2="851.0039" y1="224.2578" y2="224.2578"/>
    <text fill="#000000" font-family="sans-serif" font-size="13" font-weight="bold" lengthAdjust="spacing" textLength="9.0454" x="552.4204" y="219.1919">2</text>
    <text fill="#000000" font-family="sans-serif" font-size="13" lengthAdjust="spacing" textLength="279.5381" x="565.4658" y="219.1919">Supprimer le point de terminaison d’oracle</text>
    <polygon fill="#181818" points="1272.936,249.3906,1282.936,253.3906,1272.936,257.3906,1276.936,253.3906" style="stroke:#181818;stroke-width:1.0;"/>
    <line style="stroke:#181818;stroke-width:1.0;" x1="867.0039" x2="1278.936" y1="253.3906" y2="253.3906"/>
    <text fill="#000000" font-family="sans-serif" font-size="13" font-weight="bold" lengthAdjust="spacing" textLength="9.0454" x="874.0039" y="248.3247">3</text>
    <text fill="#000000" font-family="sans-serif" font-size="13" lengthAdjust="spacing" textLength="385.8867" x="887.0493" y="248.3247">Mettre à jour le point de terminaison Oracle existant par ID</text>
    <polygon fill="#FFFFE0" points="1214,266.3906,1365,266.3906,1375,277.3906,1365,289.3906,1214,289.3906,1204,277.3906,1214,266.3906" style="stroke:#181818;stroke-width:0.5;"/>
    <text fill="#000000" font-family="sans-serif" font-size="13" lengthAdjust="spacing" textLength="147.7925" x="1216" y="282.4575">Mettre isActive = false</text>
    <path d="M20,301.5234 L84.4429,301.5234 L84.4429,308.6563 L74.4429,318.6563 L20,318.6563 L20,301.5234 " fill="#EEEEEE" style="stroke:#000000;stroke-width:1.5;"/>
    <rect fill="none" height="104.5313" style="stroke:#000000;stroke-width:1.5;" width="1330.7056" x="20" y="301.5234"/>
    <text fill="#000000" font-family="sans-serif" font-size="13" font-weight="bold" lengthAdjust="spacing" textLength="19.4429" x="35" y="314.5903">alt</text>
    <text fill="#000000" font-family="sans-serif" font-size="11" font-weight="bold" lengthAdjust="spacing" textLength="393.2446" x="99.4429" y="313.7339">[Suppression du point de terminaison Oracle existant (succès)]</text>
    <polygon fill="#181818" points="878.0039,335.7891,868.0039,339.7891,878.0039,343.7891,874.0039,339.7891" style="stroke:#181818;stroke-width:1.0;"/>
    <line style="stroke:#181818;stroke-width:1.0;" x1="872.0039" x2="1288.936" y1="339.7891" y2="339.7891"/>
    <text fill="#000000" font-family="sans-serif" font-size="13" font-weight="bold" lengthAdjust="spacing" textLength="9.0454" x="884.0039" y="334.7231">4</text>
    <text fill="#000000" font-family="sans-serif" font-size="13" lengthAdjust="spacing" textLength="91.876" x="897.0493" y="334.7231">Retour succès</text>
    <polygon fill="#181818" points="556.4204,364.9219,546.4204,368.9219,556.4204,372.9219,552.4204,368.9219" style="stroke:#181818;stroke-width:1.0;"/>
    <line style="stroke:#181818;stroke-width:1.0;" x1="550.4204" x2="861.0039" y1="368.9219" y2="368.9219"/>
    <text fill="#000000" font-family="sans-serif" font-size="13" font-weight="bold" lengthAdjust="spacing" textLength="9.0454" x="562.4204" y="363.856">5</text>
    <text fill="#000000" font-family="sans-serif" font-size="13" lengthAdjust="spacing" textLength="219.1401" x="575.4658" y="363.856">Retourner une réponse de succès</text>
    <polygon fill="#181818" points="116.6455,394.0547,106.6455,398.0547,116.6455,402.0547,112.6455,398.0547" style="stroke:#181818;stroke-width:1.0;"/>
    <line style="stroke:#181818;stroke-width:1.0;stroke-dasharray:2.0,2.0;" x1="110.6455" x2="539.4204" y1="398.0547" y2="398.0547"/>
    <text fill="#000000" font-family="sans-serif" font-size="13" font-weight="bold" lengthAdjust="spacing" textLength="9.0454" x="122.6455" y="392.9888">6</text>
    <text fill="#000000" font-family="sans-serif" font-size="13" lengthAdjust="spacing" textLength="43.6655" x="135.6909" y="392.9888">Retour</text>
    <text fill="#000000" font-family="sans-serif" font-size="13" font-weight="bold" lengthAdjust="spacing" textLength="98.4268" x="183.4888" y="392.9888">Statut HTTP :</text>
    <text fill="#000000" font-family="sans-serif" font-size="13" lengthAdjust="spacing" textLength="24.813" x="286.0479" y="392.9888">204</text>
    <path d="M20,420.0547 L84.4429,420.0547 L84.4429,427.1875 L74.4429,437.1875 L20,437.1875 L20,420.0547 " fill="#EEEEEE" style="stroke:#000000;stroke-width:1.5;"/>
    <rect fill="none" height="230.4609" style="stroke:#000000;stroke-width:1.5;" width="1330.7056" x="20" y="420.0547"/>
    <text fill="#000000" font-family="sans-serif" font-size="13" font-weight="bold" lengthAdjust="spacing" textLength="19.4429" x="35" y="433.1216">alt</text>
    <text fill="#000000" font-family="sans-serif" font-size="11" font-weight="bold" lengthAdjust="spacing" textLength="387.6104" x="99.4429" y="432.2651">[Suppression du point de terminaison Oracle existant (échec)]</text>
    <polygon fill="#181818" points="873.0039,454.3203,863.0039,458.3203,873.0039,462.3203,869.0039,458.3203" style="stroke:#181818;stroke-width:1.0;"/>
    <line style="stroke:#181818;stroke-width:1.0;" x1="867.0039" x2="1288.936" y1="458.3203" y2="458.3203"/>
    <text fill="#000000" font-family="sans-serif" font-size="13" font-weight="bold" lengthAdjust="spacing" textLength="9.0454" x="879.0039" y="453.2544">7</text>
    <text fill="#000000" font-family="sans-serif" font-size="13" lengthAdjust="spacing" textLength="197.5708" x="892.0493" y="453.2544">Lever une erreur (introuvable)</text>
    <polygon fill="#181818" points="551.4204,483.4531,541.4204,487.4531,551.4204,491.4531,547.4204,487.4531" style="stroke:#181818;stroke-width:1.0;"/>
    <line style="stroke:#181818;stroke-width:1.0;" x1="545.4204" x2="861.0039" y1="487.4531" y2="487.4531"/>
    <text fill="#000000" font-family="sans-serif" font-size="13" font-weight="bold" lengthAdjust="spacing" textLength="9.0454" x="557.4204" y="482.3872">8</text>
    <text fill="#000000" font-family="sans-serif" font-size="13" lengthAdjust="spacing" textLength="109.2876" x="570.4658" y="482.3872">Lever une erreur</text>
    <path d="M300,500.4531 L300,615.4531 L535,615.4531 L535,510.4531 L525,500.4531 L300,500.4531 " fill="#FFFF00" style="stroke:#181818;stroke-width:0.5;"/>
    <path d="M525,500.4531 L525,510.4531 L535,510.4531 L525,500.4531 " fill="#FFFF00" style="stroke:#181818;stroke-width:0.5;"/>
    <text fill="#000000" font-family="sans-serif" font-size="13" lengthAdjust="spacing" textLength="65.4888" x="306" y="517.52">Message :</text>
    <text fill="#000000" font-family="sans-serif" font-size="13" lengthAdjust="spacing" textLength="8.271" x="306" y="532.6528">{</text>
    <text fill="#000000" font-family="sans-serif" font-size="13" lengthAdjust="spacing" textLength="136.208" x="322.5293" y="547.7856">&quot;errorInformation&quot;: {</text>
    <text fill="#000000" font-family="sans-serif" font-size="13" lengthAdjust="spacing" textLength="181.27" x="339.0586" y="562.9185">&quot;errorCode&quot;: &lt;Error Code&gt;,</text>
    <text fill="#000000" font-family="sans-serif" font-size="13" lengthAdjust="spacing" textLength="178.6548" x="339.0586" y="578.0513">&quot;errorDescription&quot;: &lt;Msg&gt;,</text>
    <text fill="#000000" font-family="sans-serif" font-size="13" lengthAdjust="spacing" textLength="8.271" x="322.5293" y="593.1841">}</text>
    <text fill="#000000" font-family="sans-serif" font-size="13" lengthAdjust="spacing" textLength="8.271" x="306" y="608.3169">}</text>
    <polygon fill="#181818" points="116.6455,638.5156,106.6455,642.5156,116.6455,646.5156,112.6455,642.5156" style="stroke:#181818;stroke-width:1.0;"/>
    <line style="stroke:#181818;stroke-width:1.0;stroke-dasharray:2.0,2.0;" x1="110.6455" x2="539.4204" y1="642.5156" y2="642.5156"/>
    <text fill="#000000" font-family="sans-serif" font-size="13" font-weight="bold" lengthAdjust="spacing" textLength="9.0454" x="122.6455" y="637.4497">9</text>
    <text fill="#000000" font-family="sans-serif" font-size="13" lengthAdjust="spacing" textLength="43.6655" x="135.6909" y="637.4497">Retour</text>
    <text fill="#FF0000" font-family="sans-serif" font-size="13" font-weight="bold" lengthAdjust="spacing" textLength="98.4268" x="183.4888" y="637.4497">Statut HTTP :</text>
    <text fill="#FF0000" font-family="sans-serif" font-size="13" lengthAdjust="spacing" textLength="24.813" x="286.0479" y="637.4497">502</text>
  </g>
</svg>
