<svg xmlns="http://www.w3.org/2000/svg" xmlns:xlink="http://www.w3.org/1999/xlink" contentStyleType="text/css" height="966px" preserveAspectRatio="none" style="width:1292px;height:966px;background:#FFFFFF;" version="1.1" viewBox="0 0 1292 966" width="1292px" zoomAndPan="magnify">
  <title>7.3.1 Obtenir tous les points de terminaison d’oracle</title>
  <defs/>
  <g>
    <text fill="#000000" font-family="sans-serif" font-size="14" font-weight="bold" lengthAdjust="spacing" textLength="418.4551" x="438.5974" y="27.9951">7.3.1 Obtenir tous les points de terminaison d’oracle</text>
    <rect fill="#FFFFE0" height="910.375" style="stroke:#181818;stroke-width:0.5;" width="893.752" x="376.8979" y="43.2969"/>
    <text fill="#000000" font-family="sans-serif" font-size="13" font-weight="bold" lengthAdjust="spacing" textLength="175.5762" x="735.9858" y="55.3638">Account Lookup Service</text>
    <rect fill="#FFFFFF" height="477.1875" style="stroke:#181818;stroke-width:1.0;" width="10" x="100.6455" y="134.7266"/>
    <rect fill="#FFFFFF" height="416.7891" style="stroke:#181818;stroke-width:1.0;" width="10" x="536.0425" y="195.125"/>
    <rect fill="#FFFFFF" height="111.5313" style="stroke:#181818;stroke-width:1.0;" width="10" x="873.4614" y="224.2578"/>
    <rect fill="#FFFFFF" height="53.2656" style="stroke:#181818;stroke-width:1.0;" width="10" x="1210.8804" y="253.3906"/>
    <rect fill="none" height="729.6484" style="stroke:#000000;stroke-width:1.5;" width="1276.6499" x="10" y="141.7266"/>
    <rect fill="none" height="351.5234" style="stroke:#000000;stroke-width:1.5;" width="1256.6499" x="20" y="268.3906"/>
    <rect fill="none" height="230.4609" style="stroke:#000000;stroke-width:1.5;" width="1256.6499" x="20" y="633.9141"/>
    <line style="stroke:#181818;stroke-width:0.5;stroke-dasharray:5.0,5.0;" x1="105" x2="105" y1="124.7266" y2="888.375"/>
    <line style="stroke:#181818;stroke-width:0.5;stroke-dasharray:5.0,5.0;" x1="540.8979" x2="540.8979" y1="124.7266" y2="888.375"/>
    <line style="stroke:#181818;stroke-width:0.5;stroke-dasharray:5.0,5.0;" x1="878.2588" x2="878.2588" y1="124.7266" y2="888.375"/>
    <line style="stroke:#181818;stroke-width:0.5;stroke-dasharray:5.0,5.0;" x1="1215.1108" x2="1215.1108" y1="124.7266" y2="888.375"/>
    <text fill="#000000" font-family="sans-serif" font-size="14" lengthAdjust="spacing" textLength="145.291" x="30" y="121.4248">OPÉRATEUR DU HUB</text>
    <ellipse cx="105.6455" cy="92.4297" fill="#E2E2F0" rx="12" ry="12" style="stroke:#181818;stroke-width:0.5;"/>
    <line style="stroke:#181818;stroke-width:0.5;" x1="93.6455" x2="117.6455" y1="106.4297" y2="106.4297"/>
    <text fill="#000000" font-family="sans-serif" font-size="14" lengthAdjust="spacing" textLength="145.291" x="30" y="900.3701">OPÉRATEUR DU HUB</text>
    <ellipse cx="105.6455" cy="919.6719" fill="#E2E2F0" rx="12" ry="12" style="stroke:#181818;stroke-width:0.5;"/>
    <line style="stroke:#181818;stroke-width:0.5;" x1="93.6455" x2="117.6455" y1="933.6719" y2="933.6719"/>
    <text fill="#000000" font-family="sans-serif" font-size="14" lengthAdjust="spacing" textLength="314.2891" x="380.8979" y="121.4248">API d’administration Account Lookup Service</text>
    <path d="M520.5425,80.4297 L520.5425,104.4297 M520.5425,92.4297 L537.5425,92.4297 " fill="none" style="stroke:#181818;stroke-width:0.5;"/>
    <ellipse cx="549.5425" cy="92.4297" fill="#E2E2F0" rx="12" ry="12" style="stroke:#181818;stroke-width:0.5;"/>
    <text fill="#000000" font-family="sans-serif" font-size="14" lengthAdjust="spacing" textLength="314.2891" x="380.8979" y="900.3701">API d’administration Account Lookup Service</text>
    <path d="M520.5425,907.6719 L520.5425,931.6719 M520.5425,919.6719 L537.5425,919.6719 " fill="none" style="stroke:#181818;stroke-width:0.5;"/>
    <ellipse cx="549.5425" cy="919.6719" fill="#E2E2F0" rx="12" ry="12" style="stroke:#181818;stroke-width:0.5;"/>
    <text fill="#000000" font-family="sans-serif" font-size="14" lengthAdjust="spacing" textLength="258.4053" x="746.2588" y="121.4248">Gestionnaire d’obtention des oracles</text>
    <ellipse cx="878.4614" cy="92.4297" fill="#E2E2F0" rx="12" ry="12" style="stroke:#181818;stroke-width:0.5;"/>
    <polygon fill="#181818" points="874.4614,80.4297,880.4614,75.4297,878.4614,80.4297,880.4614,85.4297,874.4614,80.4297" style="stroke:#181818;stroke-width:1.0;"/>
    <text fill="#000000" font-family="sans-serif" font-size="14" lengthAdjust="spacing" textLength="258.4053" x="746.2588" y="900.3701">Gestionnaire d’obtention des oracles</text>
    <ellipse cx="878.4614" cy="919.6719" fill="#E2E2F0" rx="12" ry="12" style="stroke:#181818;stroke-width:0.5;"/>
    <polygon fill="#181818" points="874.4614,907.6719,880.4614,902.6719,878.4614,907.6719,880.4614,912.6719,874.4614,907.6719" style="stroke:#181818;stroke-width:1.0;"/>
    <text fill="#000000" font-family="sans-serif" font-size="14" lengthAdjust="spacing" textLength="95.5391" x="1165.1108" y="121.4248">Stockage ALS</text>
    <path d="M1197.8804,72.4297 C1197.8804,62.4297 1215.8804,62.4297 1215.8804,62.4297 C1215.8804,62.4297 1233.8804,62.4297 1233.8804,72.4297 L1233.8804,98.4297 C1233.8804,108.4297 1215.8804,108.4297 1215.8804,108.4297 C1215.8804,108.4297 1197.8804,108.4297 1197.8804,98.4297 L1197.8804,72.4297 " fill="#E2E2F0" style="stroke:#181818;stroke-width:1.5;"/>
    <path d="M1197.8804,72.4297 C1197.8804,82.4297 1215.8804,82.4297 1215.8804,82.4297 C1215.8804,82.4297 1233.8804,82.4297 1233.8804,72.4297 " fill="none" style="stroke:#181818;stroke-width:1.5;"/>
    <text fill="#000000" font-family="sans-serif" font-size="14" lengthAdjust="spacing" textLength="95.5391" x="1165.1108" y="900.3701">Stockage ALS</text>
    <path d="M1197.8804,913.6719 C1197.8804,903.6719 1215.8804,903.6719 1215.8804,903.6719 C1215.8804,903.6719 1233.8804,903.6719 1233.8804,913.6719 L1233.8804,939.6719 C1233.8804,949.6719 1215.8804,949.6719 1215.8804,949.6719 C1215.8804,949.6719 1197.8804,949.6719 1197.8804,939.6719 L1197.8804,913.6719 " fill="#E2E2F0" style="stroke:#181818;stroke-width:1.5;"/>
    <path d="M1197.8804,913.6719 C1197.8804,923.6719 1215.8804,923.6719 1215.8804,923.6719 C1215.8804,923.6719 1233.8804,923.6719 1233.8804,913.6719 " fill="none" style="stroke:#181818;stroke-width:1.5;"/>
    <rect fill="#FFFFFF" height="477.1875" style="stroke:#181818;stroke-width:1.0;" width="10" x="100.6455" y="134.7266"/>
    <rect fill="#FFFFFF" height="416.7891" style="stroke:#181818;stroke-width:1.0;" width="10" x="536.0425" y="195.125"/>
    <rect fill="#FFFFFF" height="111.5313" style="stroke:#181818;stroke-width:1.0;" width="10" x="873.4614" y="224.2578"/>
    <rect fill="#FFFFFF" height="53.2656" style="stroke:#181818;stroke-width:1.0;" width="10" x="1210.8804" y="253.3906"/>
    <path d="M10,141.7266 L365.3623,141.7266 L365.3623,148.8594 L355.3623,158.8594 L10,158.8594 L10,141.7266 " fill="#EEEEEE" style="stroke:#000000;stroke-width:1.5;"/>
    <rect fill="none" height="729.6484" style="stroke:#000000;stroke-width:1.5;" width="1276.6499" x="10" y="141.7266"/>
    <text fill="#000000" font-family="sans-serif" font-size="13" font-weight="bold" lengthAdjust="spacing" textLength="310.3623" x="25" y="154.7935">Obtenir les points de terminaison d’oracle</text>
    <polygon fill="#181818" points="524.0425,191.125,534.0425,195.125,524.0425,199.125,528.0425,195.125" style="stroke:#181818;stroke-width:1.0;"/>
    <line style="stroke:#181818;stroke-width:1.0;" x1="110.6455" x2="530.0425" y1="195.125" y2="195.125"/>
    <text fill="#000000" font-family="sans-serif" font-size="13" font-weight="bold" lengthAdjust="spacing" textLength="9.0454" x="117.6455" y="182.4927">1</text>
    <text fill="#000000" font-family="sans-serif" font-size="13" lengthAdjust="spacing" textLength="393.3516" x="130.6909" y="174.9263">Requête GET pour tous les points de terminaison d’oracle —</text>
    <text fill="#000000" font-family="sans-serif" font-size="13" lengthAdjust="spacing" textLength="285.6191" x="130.6909" y="190.0591">GET /oracles?currency=USD&amp;type=MSISDN</text>
    <polygon fill="#181818" points="861.4614,220.2578,871.4614,224.2578,861.4614,228.2578,865.4614,224.2578" style="stroke:#181818;stroke-width:1.0;"/>
    <line style="stroke:#181818;stroke-width:1.0;" x1="546.0425" x2="867.4614" y1="224.2578" y2="224.2578"/>
    <text fill="#000000" font-family="sans-serif" font-size="13" font-weight="bold" lengthAdjust="spacing" textLength="9.0454" x="553.0425" y="219.1919">2</text>
    <text fill="#000000" font-family="sans-serif" font-size="13" lengthAdjust="spacing" textLength="273.9014" x="566.0879" y="219.1919">Obtenir les points de terminaison d’oracle</text>
    <polygon fill="#181818" points="1198.8804,249.3906,1208.8804,253.3906,1198.8804,257.3906,1202.8804,253.3906" style="stroke:#181818;stroke-width:1.0;"/>
    <line style="stroke:#181818;stroke-width:1.0;" x1="883.4614" x2="1204.8804" y1="253.3906" y2="253.3906"/>
    <text fill="#000000" font-family="sans-serif" font-size="13" font-weight="bold" lengthAdjust="spacing" textLength="9.0454" x="890.4614" y="248.3247">3</text>
    <text fill="#000000" font-family="sans-serif" font-size="13" lengthAdjust="spacing" textLength="249.3232" x="903.5068" y="248.3247">Lire les points de terminaison d’oracle</text>
    <path d="M20,268.3906 L84.4429,268.3906 L84.4429,275.5234 L74.4429,285.5234 L20,285.5234 L20,268.3906 " fill="#EEEEEE" style="stroke:#000000;stroke-width:1.5;"/>
    <rect fill="none" height="351.5234" style="stroke:#000000;stroke-width:1.5;" width="1256.6499" x="20" y="268.3906"/>
    <text fill="#000000" font-family="sans-serif" font-size="13" font-weight="bold" lengthAdjust="spacing" textLength="19.4429" x="35" y="281.4575">alt</text>
    <text fill="#000000" font-family="sans-serif" font-size="11" font-weight="bold" lengthAdjust="spacing" textLength="327.9805" x="99.4429" y="280.6011">[Obtenir les points de terminaison d’oracle (succès)]</text>
    <polygon fill="#181818" points="894.4614,302.6563,884.4614,306.6563,894.4614,310.6563,890.4614,306.6563" style="stroke:#181818;stroke-width:1.0;"/>
    <line style="stroke:#181818;stroke-width:1.0;stroke-dasharray:2.0,2.0;" x1="888.4614" x2="1214.8804" y1="306.6563" y2="306.6563"/>
    <text fill="#000000" font-family="sans-serif" font-size="13" font-weight="bold" lengthAdjust="spacing" textLength="9.0454" x="900.4614" y="301.5903">4</text>
    <text fill="#000000" font-family="sans-serif" font-size="13" lengthAdjust="spacing" textLength="290.3735" x="913.5068" y="301.5903">Retourner les points de terminaison d’oracle</text>
    <polygon fill="#181818" points="557.0425,331.7891,547.0425,335.7891,557.0425,339.7891,553.0425,335.7891" style="stroke:#181818;stroke-width:1.0;"/>
    <line style="stroke:#181818;stroke-width:1.0;" x1="551.0425" x2="877.4614" y1="335.7891" y2="335.7891"/>
    <text fill="#000000" font-family="sans-serif" font-size="13" font-weight="bold" lengthAdjust="spacing" textLength="9.0454" x="563.0425" y="330.7231">5</text>
    <text fill="#000000" font-family="sans-serif" font-size="13" lengthAdjust="spacing" textLength="290.3735" x="576.0879" y="330.7231">Retourner les points de terminaison d’oracle</text>
    <path d="M222,348.7891 L222,584.7891 L530,584.7891 L530,358.7891 L520,348.7891 L222,348.7891 " fill="#FFFF00" style="stroke:#181818;stroke-width:0.5;"/>
    <path d="M520,348.7891 L520,358.7891 L530,358.7891 L520,348.7891 " fill="#FFFF00" style="stroke:#181818;stroke-width:0.5;"/>
    <text fill="#000000" font-family="sans-serif" font-size="13" lengthAdjust="spacing" textLength="65.4888" x="228" y="365.856">Message :</text>
    <text fill="#000000" font-family="sans-serif" font-size="13" lengthAdjust="spacing" textLength="8.271" x="228" y="380.9888">{</text>
    <text fill="#000000" font-family="sans-serif" font-size="13" lengthAdjust="spacing" textLength="5.0718" x="244.5293" y="396.1216">[</text>
    <text fill="#000000" font-family="sans-serif" font-size="13" lengthAdjust="spacing" textLength="8.271" x="261.0586" y="411.2544">{</text>
    <text fill="#000000" font-family="sans-serif" font-size="13" lengthAdjust="spacing" textLength="135.8145" x="277.5879" y="426.3872">&quot;oracleId&quot;: &lt;string&gt;,</text>
    <text fill="#000000" font-family="sans-serif" font-size="13" lengthAdjust="spacing" textLength="208.292" x="277.5879" y="441.52">&quot;oracleIdType&quot;: &lt;PartyIdType&gt;,</text>
    <text fill="#000000" font-family="sans-serif" font-size="13" lengthAdjust="spacing" textLength="86.3853" x="277.5879" y="456.6528">&quot;endpoint&quot;: {</text>
    <text fill="#000000" font-family="sans-serif" font-size="13" lengthAdjust="spacing" textLength="119.2153" x="294.1172" y="471.7856">&quot;value&quot;: &lt;string&gt;,</text>
    <text fill="#000000" font-family="sans-serif" font-size="13" lengthAdjust="spacing" textLength="221.5269" x="294.1172" y="486.9185">&quot;endpointType&quot;: &lt;EndpointType&gt;</text>
    <text fill="#000000" font-family="sans-serif" font-size="13" lengthAdjust="spacing" textLength="12.4033" x="277.5879" y="502.0513">},</text>
    <text fill="#000000" font-family="sans-serif" font-size="13" lengthAdjust="spacing" textLength="162.627" x="277.5879" y="517.1841">&quot;currency&quot;: &lt;Currency&gt;,</text>
    <text fill="#000000" font-family="sans-serif" font-size="13" lengthAdjust="spacing" textLength="152.1152" x="277.5879" y="532.3169">&quot;isDefault&quot;: &lt;boolean&gt;</text>
    <text fill="#000000" font-family="sans-serif" font-size="13" lengthAdjust="spacing" textLength="8.271" x="261.0586" y="547.4497">}</text>
    <text fill="#000000" font-family="sans-serif" font-size="13" lengthAdjust="spacing" textLength="5.0718" x="244.5293" y="562.5825">]</text>
    <text fill="#000000" font-family="sans-serif" font-size="13" lengthAdjust="spacing" textLength="8.271" x="228" y="577.7153">}</text>
    <polygon fill="#181818" points="116.6455,607.9141,106.6455,611.9141,116.6455,615.9141,112.6455,611.9141" style="stroke:#181818;stroke-width:1.0;"/>
    <line style="stroke:#181818;stroke-width:1.0;stroke-dasharray:2.0,2.0;" x1="110.6455" x2="540.0425" y1="611.9141" y2="611.9141"/>
    <text fill="#000000" font-family="sans-serif" font-size="13" font-weight="bold" lengthAdjust="spacing" textLength="9.0454" x="122.6455" y="606.8481">6</text>
    <text fill="#000000" font-family="sans-serif" font-size="13" lengthAdjust="spacing" textLength="43.6655" x="135.6909" y="606.8481">Retour</text>
    <text fill="#000000" font-family="sans-serif" font-size="13" font-weight="bold" lengthAdjust="spacing" textLength="98.4268" x="183.4888" y="606.8481">Statut HTTP :</text>
    <text fill="#000000" font-family="sans-serif" font-size="13" lengthAdjust="spacing" textLength="24.813" x="286.0479" y="606.8481">200</text>
    <path d="M20,633.9141 L84.4429,633.9141 L84.4429,641.0469 L74.4429,651.0469 L20,651.0469 L20,633.9141 " fill="#EEEEEE" style="stroke:#000000;stroke-width:1.5;"/>
    <rect fill="none" height="230.4609" style="stroke:#000000;stroke-width:1.5;" width="1256.6499" x="20" y="633.9141"/>
    <text fill="#000000" font-family="sans-serif" font-size="13" font-weight="bold" lengthAdjust="spacing" textLength="19.4429" x="35" y="646.981">alt</text>
    <text fill="#000000" font-family="sans-serif" font-size="11" font-weight="bold" lengthAdjust="spacing" textLength="322.3462" x="99.4429" y="646.1245">[Obtenir les points de terminaison d’oracle (échec)]</text>
    <polygon fill="#181818" points="889.4614,668.1797,879.4614,672.1797,889.4614,676.1797,885.4614,672.1797" style="stroke:#181818;stroke-width:1.0;"/>
    <line style="stroke:#181818;stroke-width:1.0;stroke-dasharray:2.0,2.0;" x1="883.4614" x2="1214.8804" y1="672.1797" y2="672.1797"/>
    <text fill="#000000" font-family="sans-serif" font-size="13" font-weight="bold" lengthAdjust="spacing" textLength="9.0454" x="895.4614" y="667.1138">7</text>
    <text fill="#000000" font-family="sans-serif" font-size="13" lengthAdjust="spacing" textLength="109.2876" x="908.5068" y="667.1138">Lever une erreur</text>
    <polygon fill="#181818" points="552.0425,697.3125,542.0425,701.3125,552.0425,705.3125,548.0425,701.3125" style="stroke:#181818;stroke-width:1.0;"/>
    <line style="stroke:#181818;stroke-width:1.0;" x1="546.0425" x2="877.4614" y1="701.3125" y2="701.3125"/>
    <text fill="#000000" font-family="sans-serif" font-size="13" font-weight="bold" lengthAdjust="spacing" textLength="9.0454" x="558.0425" y="696.2466">8</text>
    <text fill="#000000" font-family="sans-serif" font-size="13" lengthAdjust="spacing" textLength="109.2876" x="571.0879" y="696.2466">Lever une erreur</text>
    <path d="M300,714.3125 L300,829.3125 L535,829.3125 L535,724.3125 L525,714.3125 L300,714.3125 " fill="#FFFF00" style="stroke:#181818;stroke-width:0.5;"/>
    <path d="M525,714.3125 L525,724.3125 L535,724.3125 L525,714.3125 " fill="#FFFF00" style="stroke:#181818;stroke-width:0.5;"/>
    <text fill="#000000" font-family="sans-serif" font-size="13" lengthAdjust="spacing" textLength="65.4888" x="306" y="731.3794">Message :</text>
    <text fill="#000000" font-family="sans-serif" font-size="13" lengthAdjust="spacing" textLength="8.271" x="306" y="746.5122">{</text>
    <text fill="#000000" font-family="sans-serif" font-size="13" lengthAdjust="spacing" textLength="136.208" x="322.5293" y="761.645">&quot;errorInformation&quot;: {</text>
    <text fill="#000000" font-family="sans-serif" font-size="13" lengthAdjust="spacing" textLength="181.27" x="339.0586" y="776.7778">&quot;errorCode&quot;: &lt;Error Code&gt;,</text>
    <text fill="#000000" font-family="sans-serif" font-size="13" lengthAdjust="spacing" textLength="178.6548" x="339.0586" y="791.9106">&quot;errorDescription&quot;: &lt;Msg&gt;,</text>
    <text fill="#000000" font-family="sans-serif" font-size="13" lengthAdjust="spacing" textLength="8.271" x="322.5293" y="807.0435">}</text>
    <text fill="#000000" font-family="sans-serif" font-size="13" lengthAdjust="spacing" textLength="8.271" x="306" y="822.1763">}</text>
    <polygon fill="#181818" points="116.6455,852.375,106.6455,856.375,116.6455,860.375,112.6455,856.375" style="stroke:#181818;stroke-width:1.0;"/>
    <line style="stroke:#181818;stroke-width:1.0;stroke-dasharray:2.0,2.0;" x1="110.6455" x2="540.0425" y1="856.375" y2="856.375"/>
    <text fill="#000000" font-family="sans-serif" font-size="13" font-weight="bold" lengthAdjust="spacing" textLength="9.0454" x="122.6455" y="851.3091">9</text>
    <text fill="#000000" font-family="sans-serif" font-size="13" lengthAdjust="spacing" textLength="43.6655" x="135.6909" y="851.3091">Retour</text>
    <text fill="#FF0000" font-family="sans-serif" font-size="13" font-weight="bold" lengthAdjust="spacing" textLength="98.4268" x="183.4888" y="851.3091">Statut HTTP :</text>
    <text fill="#FF0000" font-family="sans-serif" font-size="13" lengthAdjust="spacing" textLength="24.813" x="286.0479" y="851.3091">502</text>
  </g>
</svg>
