<svg xmlns="http://www.w3.org/2000/svg" xmlns:xlink="http://www.w3.org/1999/xlink" contentStyleType="text/css" height="933px" preserveAspectRatio="none" style="width:1324px;height:933px;background:#FFFFFF;" version="1.1" viewBox="0 0 1324 933" width="1324px" zoomAndPan="magnify">
  <title>7.3.2 Créer des points de terminaison d’oracle</title>
  <defs/>
  <g>
    <text fill="#000000" font-family="sans-serif" font-size="14" font-weight="bold" lengthAdjust="spacing" textLength="367.4863" x="480.0757" y="27.9951">7.3.2 Créer des points de terminaison d’oracle</text>
    <rect fill="#FFFFE0" height="876.8438" style="stroke:#181818;stroke-width:0.5;" width="959.0078" x="343.6299" y="43.2969"/>
    <text fill="#000000" font-family="sans-serif" font-size="13" font-weight="bold" lengthAdjust="spacing" textLength="175.5762" x="735.3457" y="55.3638">Account Lookup Service</text>
    <rect fill="#FFFFFF" height="443.6563" style="stroke:#181818;stroke-width:1.0;" width="10" x="100.6455" y="134.7266"/>
    <rect fill="#FFFFFF" height="383.2578" style="stroke:#181818;stroke-width:1.0;" width="10" x="502.7744" y="195.125"/>
    <rect fill="#FFFFFF" height="153.6641" style="stroke:#181818;stroke-width:1.0;" width="10" x="797.0313" y="395.5859"/>
    <rect fill="#FFFFFF" height="53.2656" style="stroke:#181818;stroke-width:1.0;" width="10" x="1242.8682" y="466.8516"/>
    <rect fill="none" height="696.1172" style="stroke:#000000;stroke-width:1.5;" width="1308.6377" x="10" y="141.7266"/>
    <rect fill="none" height="104.5313" style="stroke:#000000;stroke-width:1.5;" width="1288.6377" x="20" y="481.8516"/>
    <rect fill="none" height="230.4609" style="stroke:#000000;stroke-width:1.5;" width="1288.6377" x="20" y="600.3828"/>
    <line style="stroke:#181818;stroke-width:0.5;stroke-dasharray:5.0,5.0;" x1="105" x2="105" y1="124.7266" y2="854.8438"/>
    <line style="stroke:#181818;stroke-width:0.5;stroke-dasharray:5.0,5.0;" x1="507.6299" x2="507.6299" y1="124.7266" y2="854.8438"/>
    <line style="stroke:#181818;stroke-width:0.5;stroke-dasharray:5.0,5.0;" x1="801.7114" x2="801.7114" y1="124.7266" y2="854.8438"/>
    <line style="stroke:#181818;stroke-width:0.5;stroke-dasharray:5.0,5.0;" x1="1247.0986" x2="1247.0986" y1="124.7266" y2="854.8438"/>
    <text fill="#000000" font-family="sans-serif" font-size="14" lengthAdjust="spacing" textLength="145.291" x="30" y="121.4248">OPÉRATEUR DU HUB</text>
    <ellipse cx="105.6455" cy="92.4297" fill="#E2E2F0" rx="12" ry="12" style="stroke:#181818;stroke-width:0.5;"/>
    <line style="stroke:#181818;stroke-width:0.5;" x1="93.6455" x2="117.6455" y1="106.4297" y2="106.4297"/>
    <text fill="#000000" font-family="sans-serif" font-size="14" lengthAdjust="spacing" textLength="145.291" x="30" y="866.8389">OPÉRATEUR DU HUB</text>
    <ellipse cx="105.6455" cy="886.1406" fill="#E2E2F0" rx="12" ry="12" style="stroke:#181818;stroke-width:0.5;"/>
    <line style="stroke:#181818;stroke-width:0.5;" x1="93.6455" x2="117.6455" y1="900.1406" y2="900.1406"/>
    <text fill="#000000" font-family="sans-serif" font-size="14" lengthAdjust="spacing" textLength="314.2891" x="347.6299" y="121.4248">API d’administration Account Lookup Service</text>
    <path d="M487.2744,80.4297 L487.2744,104.4297 M487.2744,92.4297 L504.2744,92.4297 " fill="none" style="stroke:#181818;stroke-width:0.5;"/>
    <ellipse cx="516.2744" cy="92.4297" fill="#E2E2F0" rx="12" ry="12" style="stroke:#181818;stroke-width:0.5;"/>
    <text fill="#000000" font-family="sans-serif" font-size="14" lengthAdjust="spacing" textLength="314.2891" x="347.6299" y="866.8389">API d’administration Account Lookup Service</text>
    <path d="M487.2744,874.1406 L487.2744,898.1406 M487.2744,886.1406 L504.2744,886.1406 " fill="none" style="stroke:#181818;stroke-width:0.5;"/>
    <ellipse cx="516.2744" cy="886.1406" fill="#E2E2F0" rx="12" ry="12" style="stroke:#181818;stroke-width:0.5;"/>
    <text fill="#000000" font-family="sans-serif" font-size="14" lengthAdjust="spacing" textLength="180.6396" x="708.7114" y="121.4248">Gestionnaire POST Oracle</text>
    <ellipse cx="802.0313" cy="92.4297" fill="#E2E2F0" rx="12" ry="12" style="stroke:#181818;stroke-width:0.5;"/>
    <polygon fill="#181818" points="798.0313,80.4297,804.0313,75.4297,802.0313,80.4297,804.0313,85.4297,798.0313,80.4297" style="stroke:#181818;stroke-width:1.0;"/>
    <text fill="#000000" font-family="sans-serif" font-size="14" lengthAdjust="spacing" textLength="180.6396" x="708.7114" y="866.8389">Gestionnaire POST Oracle</text>
    <ellipse cx="802.0313" cy="886.1406" fill="#E2E2F0" rx="12" ry="12" style="stroke:#181818;stroke-width:0.5;"/>
    <polygon fill="#181818" points="798.0313,874.1406,804.0313,869.1406,802.0313,874.1406,804.0313,879.1406,798.0313,874.1406" style="stroke:#181818;stroke-width:1.0;"/>
    <text fill="#000000" font-family="sans-serif" font-size="14" lengthAdjust="spacing" textLength="95.5391" x="1197.0986" y="121.4248">Stockage ALS</text>
    <path d="M1229.8682,72.4297 C1229.8682,62.4297 1247.8682,62.4297 1247.8682,62.4297 C1247.8682,62.4297 1265.8682,62.4297 1265.8682,72.4297 L1265.8682,98.4297 C1265.8682,108.4297 1247.8682,108.4297 1247.8682,108.4297 C1247.8682,108.4297 1229.8682,108.4297 1229.8682,98.4297 L1229.8682,72.4297 " fill="#E2E2F0" style="stroke:#181818;stroke-width:1.5;"/>
    <path d="M1229.8682,72.4297 C1229.8682,82.4297 1247.8682,82.4297 1247.8682,82.4297 C1247.8682,82.4297 1265.8682,82.4297 1265.8682,72.4297 " fill="none" style="stroke:#181818;stroke-width:1.5;"/>
    <text fill="#000000" font-family="sans-serif" font-size="14" lengthAdjust="spacing" textLength="95.5391" x="1197.0986" y="866.8389">Stockage ALS</text>
    <path d="M1229.8682,880.1406 C1229.8682,870.1406 1247.8682,870.1406 1247.8682,870.1406 C1247.8682,870.1406 1265.8682,870.1406 1265.8682,880.1406 L1265.8682,906.1406 C1265.8682,916.1406 1247.8682,916.1406 1247.8682,916.1406 C1247.8682,916.1406 1229.8682,916.1406 1229.8682,906.1406 L1229.8682,880.1406 " fill="#E2E2F0" style="stroke:#181818;stroke-width:1.5;"/>
    <path d="M1229.8682,880.1406 C1229.8682,890.1406 1247.8682,890.1406 1247.8682,890.1406 C1247.8682,890.1406 1265.8682,890.1406 1265.8682,880.1406 " fill="none" style="stroke:#181818;stroke-width:1.5;"/>
    <rect fill="#FFFFFF" height="443.6563" style="stroke:#181818;stroke-width:1.0;" width="10" x="100.6455" y="134.7266"/>
    <rect fill="#FFFFFF" height="383.2578" style="stroke:#181818;stroke-width:1.0;" width="10" x="502.7744" y="195.125"/>
    <rect fill="#FFFFFF" height="153.6641" style="stroke:#181818;stroke-width:1.0;" width="10" x="797.0313" y="395.5859"/>
    <rect fill="#FFFFFF" height="53.2656" style="stroke:#181818;stroke-width:1.0;" width="10" x="1242.8682" y="466.8516"/>
    <path d="M10,141.7266 L339.6099,141.7266 L339.6099,148.8594 L329.6099,158.8594 L10,158.8594 L10,141.7266 " fill="#EEEEEE" style="stroke:#000000;stroke-width:1.5;"/>
    <rect fill="none" height="696.1172" style="stroke:#000000;stroke-width:1.5;" width="1308.6377" x="10" y="141.7266"/>
    <text fill="#000000" font-family="sans-serif" font-size="13" font-weight="bold" lengthAdjust="spacing" textLength="284.6099" x="25" y="154.7935">Créer un point de terminaison d’oracle</text>
    <polygon fill="#181818" points="490.7744,191.125,500.7744,195.125,490.7744,199.125,494.7744,195.125" style="stroke:#181818;stroke-width:1.0;"/>
    <line style="stroke:#181818;stroke-width:1.0;" x1="110.6455" x2="496.7744" y1="195.125" y2="195.125"/>
    <text fill="#000000" font-family="sans-serif" font-size="13" font-weight="bold" lengthAdjust="spacing" textLength="9.0454" x="117.6455" y="182.4927">1</text>
    <text fill="#000000" font-family="sans-serif" font-size="13" lengthAdjust="spacing" textLength="360.0835" x="130.6909" y="174.9263">Requête pour créer un point de terminaison d’oracle —</text>
    <text fill="#000000" font-family="sans-serif" font-size="13" lengthAdjust="spacing" textLength="89.5718" x="130.6909" y="190.0591">POST /oracles</text>
    <path d="M222,208.125 L222,369.125 L497,369.125 L497,218.125 L487,208.125 L222,208.125 " fill="#FFFF00" style="stroke:#181818;stroke-width:0.5;"/>
    <path d="M487,208.125 L487,218.125 L497,218.125 L487,208.125 " fill="#FFFF00" style="stroke:#181818;stroke-width:0.5;"/>
    <text fill="#000000" font-family="sans-serif" font-size="13" lengthAdjust="spacing" textLength="65.4888" x="228" y="225.1919">Message :</text>
    <text fill="#000000" font-family="sans-serif" font-size="13" lengthAdjust="spacing" textLength="8.271" x="228" y="240.3247">{</text>
    <text fill="#000000" font-family="sans-serif" font-size="13" lengthAdjust="spacing" textLength="208.292" x="244.5293" y="255.4575">&quot;oracleIdType&quot;: &lt;PartyIdType&gt;,</text>
    <text fill="#000000" font-family="sans-serif" font-size="13" lengthAdjust="spacing" textLength="86.3853" x="244.5293" y="270.5903">&quot;endpoint&quot;: {</text>
    <text fill="#000000" font-family="sans-serif" font-size="13" lengthAdjust="spacing" textLength="119.2153" x="261.0586" y="285.7231">&quot;value&quot;: &lt;string&gt;,</text>
    <text fill="#000000" font-family="sans-serif" font-size="13" lengthAdjust="spacing" textLength="221.5269" x="261.0586" y="300.856">&quot;endpointType&quot;: &lt;EndpointType&gt;</text>
    <text fill="#000000" font-family="sans-serif" font-size="13" lengthAdjust="spacing" textLength="12.4033" x="244.5293" y="315.9888">},</text>
    <text fill="#000000" font-family="sans-serif" font-size="13" lengthAdjust="spacing" textLength="162.627" x="244.5293" y="331.1216">&quot;currency&quot;: &lt;Currency&gt;,</text>
    <text fill="#000000" font-family="sans-serif" font-size="13" lengthAdjust="spacing" textLength="152.1152" x="244.5293" y="346.2544">&quot;isDefault&quot;: &lt;boolean&gt;</text>
    <text fill="#000000" font-family="sans-serif" font-size="13" lengthAdjust="spacing" textLength="8.271" x="228" y="361.3872">}</text>
    <polygon fill="#181818" points="785.0313,391.5859,795.0313,395.5859,785.0313,399.5859,789.0313,395.5859" style="stroke:#181818;stroke-width:1.0;"/>
    <line style="stroke:#181818;stroke-width:1.0;" x1="512.7744" x2="791.0313" y1="395.5859" y2="395.5859"/>
    <text fill="#000000" font-family="sans-serif" font-size="13" font-weight="bold" lengthAdjust="spacing" textLength="9.0454" x="519.7744" y="390.52">2</text>
    <text fill="#000000" font-family="sans-serif" font-size="13" lengthAdjust="spacing" textLength="252.2114" x="532.8198" y="390.52">Créer un point de terminaison d’oracle</text>
    <line style="stroke:#181818;stroke-width:1.0;" x1="807.0313" x2="849.0313" y1="424.7188" y2="424.7188"/>
    <line style="stroke:#181818;stroke-width:1.0;" x1="849.0313" x2="849.0313" y1="424.7188" y2="437.7188"/>
    <line style="stroke:#181818;stroke-width:1.0;" x1="808.0313" x2="849.0313" y1="437.7188" y2="437.7188"/>
    <polygon fill="#181818" points="818.0313,433.7188,808.0313,437.7188,818.0313,441.7188,814.0313,437.7188" style="stroke:#181818;stroke-width:1.0;"/>
    <text fill="#000000" font-family="sans-serif" font-size="13" font-weight="bold" lengthAdjust="spacing" textLength="9.0454" x="814.0313" y="419.6528">3</text>
    <text fill="#000000" font-family="sans-serif" font-size="13" lengthAdjust="spacing" textLength="398.7915" x="827.0767" y="419.6528">Construire l’objet de données du point de terminaison Oracle</text>
    <polygon fill="#181818" points="1230.8682,462.8516,1240.8682,466.8516,1230.8682,470.8516,1234.8682,466.8516" style="stroke:#181818;stroke-width:1.0;"/>
    <line style="stroke:#181818;stroke-width:1.0;" x1="807.0313" x2="1236.8682" y1="466.8516" y2="466.8516"/>
    <text fill="#000000" font-family="sans-serif" font-size="13" font-weight="bold" lengthAdjust="spacing" textLength="9.0454" x="814.0313" y="461.7856">4</text>
    <text fill="#000000" font-family="sans-serif" font-size="13" lengthAdjust="spacing" textLength="376.6445" x="827.0767" y="461.7856">Insérer l’objet de données du point de terminaison Oracle</text>
    <path d="M20,481.8516 L84.4429,481.8516 L84.4429,488.9844 L74.4429,498.9844 L20,498.9844 L20,481.8516 " fill="#EEEEEE" style="stroke:#000000;stroke-width:1.5;"/>
    <rect fill="none" height="104.5313" style="stroke:#000000;stroke-width:1.5;" width="1288.6377" x="20" y="481.8516"/>
    <text fill="#000000" font-family="sans-serif" font-size="13" font-weight="bold" lengthAdjust="spacing" textLength="19.4429" x="35" y="494.9185">alt</text>
    <text fill="#000000" font-family="sans-serif" font-size="11" font-weight="bold" lengthAdjust="spacing" textLength="245.6738" x="99.4429" y="494.062">[Création d’une entrée Oracle (succès)]</text>
    <polygon fill="#181818" points="818.0313,516.1172,808.0313,520.1172,818.0313,524.1172,814.0313,520.1172" style="stroke:#181818;stroke-width:1.0;"/>
    <line style="stroke:#181818;stroke-width:1.0;stroke-dasharray:2.0,2.0;" x1="812.0313" x2="1246.8682" y1="520.1172" y2="520.1172"/>
    <text fill="#000000" font-family="sans-serif" font-size="13" font-weight="bold" lengthAdjust="spacing" textLength="9.0454" x="824.0313" y="515.0513">5</text>
    <text fill="#000000" font-family="sans-serif" font-size="13" lengthAdjust="spacing" textLength="219.1401" x="837.0767" y="515.0513">Retourner une réponse de succès</text>
    <polygon fill="#181818" points="523.7744,545.25,513.7744,549.25,523.7744,553.25,519.7744,549.25" style="stroke:#181818;stroke-width:1.0;"/>
    <line style="stroke:#181818;stroke-width:1.0;" x1="517.7744" x2="801.0313" y1="549.25" y2="549.25"/>
    <text fill="#000000" font-family="sans-serif" font-size="13" font-weight="bold" lengthAdjust="spacing" textLength="9.0454" x="529.7744" y="544.1841">6</text>
    <text fill="#000000" font-family="sans-serif" font-size="13" lengthAdjust="spacing" textLength="219.1401" x="542.8198" y="544.1841">Retourner une réponse de succès</text>
    <polygon fill="#181818" points="116.6455,574.3828,106.6455,578.3828,116.6455,582.3828,112.6455,578.3828" style="stroke:#181818;stroke-width:1.0;"/>
    <line style="stroke:#181818;stroke-width:1.0;stroke-dasharray:2.0,2.0;" x1="110.6455" x2="506.7744" y1="578.3828" y2="578.3828"/>
    <text fill="#000000" font-family="sans-serif" font-size="13" font-weight="bold" lengthAdjust="spacing" textLength="9.0454" x="122.6455" y="573.3169">7</text>
    <text fill="#000000" font-family="sans-serif" font-size="13" lengthAdjust="spacing" textLength="43.6655" x="135.6909" y="573.3169">Retour</text>
    <text fill="#000000" font-family="sans-serif" font-size="13" font-weight="bold" lengthAdjust="spacing" textLength="98.4268" x="183.4888" y="573.3169">Statut HTTP :</text>
    <text fill="#000000" font-family="sans-serif" font-size="13" lengthAdjust="spacing" textLength="24.813" x="286.0479" y="573.3169">201</text>
    <path d="M20,600.3828 L84.4429,600.3828 L84.4429,607.5156 L74.4429,617.5156 L20,617.5156 L20,600.3828 " fill="#EEEEEE" style="stroke:#000000;stroke-width:1.5;"/>
    <rect fill="none" height="230.4609" style="stroke:#000000;stroke-width:1.5;" width="1288.6377" x="20" y="600.3828"/>
    <text fill="#000000" font-family="sans-serif" font-size="13" font-weight="bold" lengthAdjust="spacing" textLength="19.4429" x="35" y="613.4497">alt</text>
    <text fill="#000000" font-family="sans-serif" font-size="11" font-weight="bold" lengthAdjust="spacing" textLength="240.0396" x="99.4429" y="612.5933">[Création d’une entrée Oracle (échec)]</text>
    <polygon fill="#181818" points="813.0313,634.6484,803.0313,638.6484,813.0313,642.6484,809.0313,638.6484" style="stroke:#181818;stroke-width:1.0;"/>
    <line style="stroke:#181818;stroke-width:1.0;stroke-dasharray:2.0,2.0;" x1="807.0313" x2="1246.8682" y1="638.6484" y2="638.6484"/>
    <text fill="#000000" font-family="sans-serif" font-size="13" font-weight="bold" lengthAdjust="spacing" textLength="9.0454" x="819.0313" y="633.5825">8</text>
    <text fill="#000000" font-family="sans-serif" font-size="13" lengthAdjust="spacing" textLength="109.2876" x="832.0767" y="633.5825">Lever une erreur</text>
    <polygon fill="#181818" points="518.7744,663.7813,508.7744,667.7813,518.7744,671.7813,514.7744,667.7813" style="stroke:#181818;stroke-width:1.0;"/>
    <line style="stroke:#181818;stroke-width:1.0;" x1="512.7744" x2="801.0313" y1="667.7813" y2="667.7813"/>
    <text fill="#000000" font-family="sans-serif" font-size="13" font-weight="bold" lengthAdjust="spacing" textLength="9.0454" x="524.7744" y="662.7153">9</text>
    <text fill="#000000" font-family="sans-serif" font-size="13" lengthAdjust="spacing" textLength="109.2876" x="537.8198" y="662.7153">Lever une erreur</text>
    <path d="M267,680.7813 L267,795.7813 L502,795.7813 L502,690.7813 L492,680.7813 L267,680.7813 " fill="#FFFF00" style="stroke:#181818;stroke-width:0.5;"/>
    <path d="M492,680.7813 L492,690.7813 L502,690.7813 L492,680.7813 " fill="#FFFF00" style="stroke:#181818;stroke-width:0.5;"/>
    <text fill="#000000" font-family="sans-serif" font-size="13" lengthAdjust="spacing" textLength="65.4888" x="273" y="697.8481">Message :</text>
    <text fill="#000000" font-family="sans-serif" font-size="13" lengthAdjust="spacing" textLength="8.271" x="273" y="712.981">{</text>
    <text fill="#000000" font-family="sans-serif" font-size="13" lengthAdjust="spacing" textLength="136.208" x="289.5293" y="728.1138">&quot;errorInformation&quot;: {</text>
    <text fill="#000000" font-family="sans-serif" font-size="13" lengthAdjust="spacing" textLength="181.27" x="306.0586" y="743.2466">&quot;errorCode&quot;: &lt;Error Code&gt;,</text>
    <text fill="#000000" font-family="sans-serif" font-size="13" lengthAdjust="spacing" textLength="178.6548" x="306.0586" y="758.3794">&quot;errorDescription&quot;: &lt;Msg&gt;,</text>
    <text fill="#000000" font-family="sans-serif" font-size="13" lengthAdjust="spacing" textLength="8.271" x="289.5293" y="773.5122">}</text>
    <text fill="#000000" font-family="sans-serif" font-size="13" lengthAdjust="spacing" textLength="8.271" x="273" y="788.645">}</text>
    <polygon fill="#181818" points="116.6455,818.8438,106.6455,822.8438,116.6455,826.8438,112.6455,822.8438" style="stroke:#181818;stroke-width:1.0;"/>
    <line style="stroke:#181818;stroke-width:1.0;stroke-dasharray:2.0,2.0;" x1="110.6455" x2="506.7744" y1="822.8438" y2="822.8438"/>
    <text fill="#000000" font-family="sans-serif" font-size="13" font-weight="bold" lengthAdjust="spacing" textLength="18.0908" x="122.6455" y="817.7778">10</text>
    <text fill="#000000" font-family="sans-serif" font-size="13" lengthAdjust="spacing" textLength="43.6655" x="144.7363" y="817.7778">Retour</text>
    <text fill="#FF0000" font-family="sans-serif" font-size="13" font-weight="bold" lengthAdjust="spacing" textLength="98.4268" x="192.5342" y="817.7778">Statut HTTP :</text>
    <text fill="#FF0000" font-family="sans-serif" font-size="13" lengthAdjust="spacing" textLength="24.813" x="295.0933" y="817.7778">502</text>
  </g>
</svg>
