<svg xmlns="http://www.w3.org/2000/svg" xmlns:xlink="http://www.w3.org/1999/xlink" contentStyleType="text/css" height="1267px" preserveAspectRatio="none" style="width:1216px;height:1267px;background:#FFFFFF;" version="1.1" viewBox="0 0 1216 1267" width="1216px" zoomAndPan="magnify">
  <title>7.3.3 Mettre à jour un l&apos;endpoint d’oracle</title>
  <defs/>
  <g>
    <text fill="#000000" font-family="sans-serif" font-size="14" font-weight="bold" lengthAdjust="spacing" textLength="326.5527" x="446.2661" y="27.9951">7.3.3 Mettre à jour un l&apos;endpoint d’oracle</text>
    <rect fill="#FFFFE0" height="1210.7031" style="stroke:#181818;stroke-width:0.5;" width="849.0474" x="335.0376" y="43.2969"/>
    <text fill="#000000" font-family="sans-serif" font-size="13" font-weight="bold" lengthAdjust="spacing" textLength="175.5762" x="671.7732" y="55.3638">Account Lookup Service</text>
    <rect fill="#FFFFFF" height="526.0547" style="stroke:#181818;stroke-width:1.0;" width="10" x="110.6455" y="134.7266"/>
    <rect fill="#FFFFFF" height="465.6563" style="stroke:#181818;stroke-width:1.0;" width="10" x="494.1821" y="195.125"/>
    <rect fill="#FFFFFF" height="236.0625" style="stroke:#181818;stroke-width:1.0;" width="10" x="761.6011" y="395.5859"/>
    <rect fill="#FFFFFF" height="53.2656" style="stroke:#181818;stroke-width:1.0;" width="10" x="1124.3154" y="424.7188"/>
    <rect fill="#FFFFFF" height="53.2656" style="stroke:#181818;stroke-width:1.0;" width="10" x="1124.3154" y="549.25"/>
    <rect fill="none" height="1029.9766" style="stroke:#000000;stroke-width:1.5;" width="1200.085" x="10" y="141.7266"/>
    <rect fill="none" height="480.5234" style="stroke:#000000;stroke-width:1.5;" width="1180.085" x="20" y="439.7188"/>
    <rect fill="none" height="104.5313" style="stroke:#000000;stroke-width:1.5;" width="1160.085" x="30" y="564.25"/>
    <rect fill="none" height="230.4609" style="stroke:#000000;stroke-width:1.5;" width="1160.085" x="30" y="682.7813"/>
    <rect fill="none" height="230.4609" style="stroke:#000000;stroke-width:1.5;" width="1160.085" x="30" y="934.2422"/>
    <line style="stroke:#181818;stroke-width:0.5;stroke-dasharray:5.0,5.0;" x1="115" x2="115" y1="124.7266" y2="1188.7031"/>
    <line style="stroke:#181818;stroke-width:0.5;stroke-dasharray:5.0,5.0;" x1="499.0376" x2="499.0376" y1="124.7266" y2="1188.7031"/>
    <line style="stroke:#181818;stroke-width:0.5;stroke-dasharray:5.0,5.0;" x1="766.1108" x2="766.1108" y1="124.7266" y2="1188.7031"/>
    <line style="stroke:#181818;stroke-width:0.5;stroke-dasharray:5.0,5.0;" x1="1128.5459" x2="1128.5459" y1="124.7266" y2="1188.7031"/>
    <text fill="#000000" font-family="sans-serif" font-size="14" lengthAdjust="spacing" textLength="145.291" x="40" y="121.4248">OPÉRATEUR DU HUB</text>
    <ellipse cx="115.6455" cy="92.4297" fill="#E2E2F0" rx="12" ry="12" style="stroke:#181818;stroke-width:0.5;"/>
    <line style="stroke:#181818;stroke-width:0.5;" x1="103.6455" x2="127.6455" y1="106.4297" y2="106.4297"/>
    <text fill="#000000" font-family="sans-serif" font-size="14" lengthAdjust="spacing" textLength="145.291" x="40" y="1200.6982">OPÉRATEUR DU HUB</text>
    <ellipse cx="115.6455" cy="1220" fill="#E2E2F0" rx="12" ry="12" style="stroke:#181818;stroke-width:0.5;"/>
    <line style="stroke:#181818;stroke-width:0.5;" x1="103.6455" x2="127.6455" y1="1234" y2="1234"/>
    <text fill="#000000" font-family="sans-serif" font-size="14" lengthAdjust="spacing" textLength="314.2891" x="339.0376" y="121.4248">API d’administration Account Lookup Service</text>
    <path d="M478.6821,80.4297 L478.6821,104.4297 M478.6821,92.4297 L495.6821,92.4297 " fill="none" style="stroke:#181818;stroke-width:0.5;"/>
    <ellipse cx="507.6821" cy="92.4297" fill="#E2E2F0" rx="12" ry="12" style="stroke:#181818;stroke-width:0.5;"/>
    <text fill="#000000" font-family="sans-serif" font-size="14" lengthAdjust="spacing" textLength="314.2891" x="339.0376" y="1200.6982">API d’administration Account Lookup Service</text>
    <path d="M478.6821,1208 L478.6821,1232 M478.6821,1220 L495.6821,1220 " fill="none" style="stroke:#181818;stroke-width:0.5;"/>
    <ellipse cx="507.6821" cy="1220" fill="#E2E2F0" rx="12" ry="12" style="stroke:#181818;stroke-width:0.5;"/>
    <text fill="#000000" font-family="sans-serif" font-size="14" lengthAdjust="spacing" textLength="170.9805" x="678.1108" y="121.4248">Gestionnaire PUT Oracle</text>
    <ellipse cx="766.6011" cy="92.4297" fill="#E2E2F0" rx="12" ry="12" style="stroke:#181818;stroke-width:0.5;"/>
    <polygon fill="#181818" points="762.6011,80.4297,768.6011,75.4297,766.6011,80.4297,768.6011,85.4297,762.6011,80.4297" style="stroke:#181818;stroke-width:1.0;"/>
    <text fill="#000000" font-family="sans-serif" font-size="14" lengthAdjust="spacing" textLength="170.9805" x="678.1108" y="1200.6982">Gestionnaire PUT Oracle</text>
    <ellipse cx="766.6011" cy="1220" fill="#E2E2F0" rx="12" ry="12" style="stroke:#181818;stroke-width:0.5;"/>
    <polygon fill="#181818" points="762.6011,1208,768.6011,1203,766.6011,1208,768.6011,1213,762.6011,1208" style="stroke:#181818;stroke-width:1.0;"/>
    <text fill="#000000" font-family="sans-serif" font-size="14" lengthAdjust="spacing" textLength="95.5391" x="1078.5459" y="121.4248">Stockage ALS</text>
    <path d="M1111.3154,72.4297 C1111.3154,62.4297 1129.3154,62.4297 1129.3154,62.4297 C1129.3154,62.4297 1147.3154,62.4297 1147.3154,72.4297 L1147.3154,98.4297 C1147.3154,108.4297 1129.3154,108.4297 1129.3154,108.4297 C1129.3154,108.4297 1111.3154,108.4297 1111.3154,98.4297 L1111.3154,72.4297 " fill="#E2E2F0" style="stroke:#181818;stroke-width:1.5;"/>
    <path d="M1111.3154,72.4297 C1111.3154,82.4297 1129.3154,82.4297 1129.3154,82.4297 C1129.3154,82.4297 1147.3154,82.4297 1147.3154,72.4297 " fill="none" style="stroke:#181818;stroke-width:1.5;"/>
    <text fill="#000000" font-family="sans-serif" font-size="14" lengthAdjust="spacing" textLength="95.5391" x="1078.5459" y="1200.6982">Stockage ALS</text>
    <path d="M1111.3154,1214 C1111.3154,1204 1129.3154,1204 1129.3154,1204 C1129.3154,1204 1147.3154,1204 1147.3154,1214 L1147.3154,1240 C1147.3154,1250 1129.3154,1250 1129.3154,1250 C1129.3154,1250 1111.3154,1250 1111.3154,1240 L1111.3154,1214 " fill="#E2E2F0" style="stroke:#181818;stroke-width:1.5;"/>
    <path d="M1111.3154,1214 C1111.3154,1224 1129.3154,1224 1129.3154,1224 C1129.3154,1224 1147.3154,1224 1147.3154,1214 " fill="none" style="stroke:#181818;stroke-width:1.5;"/>
    <rect fill="#FFFFFF" height="526.0547" style="stroke:#181818;stroke-width:1.0;" width="10" x="110.6455" y="134.7266"/>
    <rect fill="#FFFFFF" height="465.6563" style="stroke:#181818;stroke-width:1.0;" width="10" x="494.1821" y="195.125"/>
    <rect fill="#FFFFFF" height="236.0625" style="stroke:#181818;stroke-width:1.0;" width="10" x="761.6011" y="395.5859"/>
    <rect fill="#FFFFFF" height="53.2656" style="stroke:#181818;stroke-width:1.0;" width="10" x="1124.3154" y="424.7188"/>
    <rect fill="#FFFFFF" height="53.2656" style="stroke:#181818;stroke-width:1.0;" width="10" x="1124.3154" y="549.25"/>
    <path d="M10,141.7266 L316.6885,141.7266 L316.6885,148.8594 L306.6885,158.8594 L10,158.8594 L10,141.7266 " fill="#EEEEEE" style="stroke:#000000;stroke-width:1.5;"/>
    <rect fill="none" height="1029.9766" style="stroke:#000000;stroke-width:1.5;" width="1200.085" x="10" y="141.7266"/>
    <text fill="#000000" font-family="sans-serif" font-size="13" font-weight="bold" lengthAdjust="spacing" textLength="261.6885" x="25" y="154.7935">Mettre à jour un l&apos;endpoint d’oracle</text>
    <polygon fill="#181818" points="482.1821,191.125,492.1821,195.125,482.1821,199.125,486.1821,195.125" style="stroke:#181818;stroke-width:1.0;"/>
    <line style="stroke:#181818;stroke-width:1.0;" x1="120.6455" x2="488.1821" y1="195.125" y2="195.125"/>
    <text fill="#000000" font-family="sans-serif" font-size="13" font-weight="bold" lengthAdjust="spacing" textLength="9.0454" x="127.6455" y="182.4927">1</text>
    <text fill="#000000" font-family="sans-serif" font-size="13" lengthAdjust="spacing" textLength="341.4912" x="140.6909" y="174.9263">Requête pour mettre à jour un l&apos;endpoint d’oracle —</text>
    <text fill="#000000" font-family="sans-serif" font-size="13" lengthAdjust="spacing" textLength="115.3687" x="140.6909" y="190.0591">PUT /oracles/{ID}</text>
    <path d="M213,208.125 L213,369.125 L488,369.125 L488,218.125 L478,208.125 L213,208.125 " fill="#FFFF00" style="stroke:#181818;stroke-width:0.5;"/>
    <path d="M478,208.125 L478,218.125 L488,218.125 L478,208.125 " fill="#FFFF00" style="stroke:#181818;stroke-width:0.5;"/>
    <text fill="#000000" font-family="sans-serif" font-size="13" lengthAdjust="spacing" textLength="65.4888" x="219" y="225.1919">Message :</text>
    <text fill="#000000" font-family="sans-serif" font-size="13" lengthAdjust="spacing" textLength="8.271" x="219" y="240.3247">{</text>
    <text fill="#000000" font-family="sans-serif" font-size="13" lengthAdjust="spacing" textLength="208.292" x="235.5293" y="255.4575">&quot;oracleIdType&quot;: &lt;PartyIdType&gt;,</text>
    <text fill="#000000" font-family="sans-serif" font-size="13" lengthAdjust="spacing" textLength="86.3853" x="235.5293" y="270.5903">&quot;endpoint&quot;: {</text>
    <text fill="#000000" font-family="sans-serif" font-size="13" lengthAdjust="spacing" textLength="119.2153" x="252.0586" y="285.7231">&quot;value&quot;: &lt;string&gt;,</text>
    <text fill="#000000" font-family="sans-serif" font-size="13" lengthAdjust="spacing" textLength="221.5269" x="252.0586" y="300.856">&quot;endpointType&quot;: &lt;EndpointType&gt;</text>
    <text fill="#000000" font-family="sans-serif" font-size="13" lengthAdjust="spacing" textLength="12.4033" x="235.5293" y="315.9888">},</text>
    <text fill="#000000" font-family="sans-serif" font-size="13" lengthAdjust="spacing" textLength="162.627" x="235.5293" y="331.1216">&quot;currency&quot;: &lt;Currency&gt;,</text>
    <text fill="#000000" font-family="sans-serif" font-size="13" lengthAdjust="spacing" textLength="152.1152" x="235.5293" y="346.2544">&quot;isDefault&quot;: &lt;boolean&gt;</text>
    <text fill="#000000" font-family="sans-serif" font-size="13" lengthAdjust="spacing" textLength="8.271" x="219" y="361.3872">}</text>
    <polygon fill="#181818" points="749.6011,391.5859,759.6011,395.5859,749.6011,399.5859,753.6011,395.5859" style="stroke:#181818;stroke-width:1.0;"/>
    <line style="stroke:#181818;stroke-width:1.0;" x1="504.1821" x2="755.6011" y1="395.5859" y2="395.5859"/>
    <text fill="#000000" font-family="sans-serif" font-size="13" font-weight="bold" lengthAdjust="spacing" textLength="9.0454" x="511.1821" y="390.52">2</text>
    <text fill="#000000" font-family="sans-serif" font-size="13" lengthAdjust="spacing" textLength="225.3735" x="524.2275" y="390.52">Mettre à jour le l&apos;endpoint d’oracle</text>
    <polygon fill="#181818" points="1112.3154,420.7188,1122.3154,424.7188,1112.3154,428.7188,1116.3154,424.7188" style="stroke:#181818;stroke-width:1.0;"/>
    <line style="stroke:#181818;stroke-width:1.0;" x1="771.6011" x2="1118.3154" y1="424.7188" y2="424.7188"/>
    <text fill="#000000" font-family="sans-serif" font-size="13" font-weight="bold" lengthAdjust="spacing" textLength="9.0454" x="778.6011" y="419.6528">3</text>
    <text fill="#000000" font-family="sans-serif" font-size="13" lengthAdjust="spacing" textLength="238.2593" x="791.6465" y="419.6528">Trouver le l&apos;endpoint Oracle existant</text>
    <path d="M20,439.7188 L84.4429,439.7188 L84.4429,446.8516 L74.4429,456.8516 L20,456.8516 L20,439.7188 " fill="#EEEEEE" style="stroke:#000000;stroke-width:1.5;"/>
    <rect fill="none" height="480.5234" style="stroke:#000000;stroke-width:1.5;" width="1180.085" x="20" y="439.7188"/>
    <text fill="#000000" font-family="sans-serif" font-size="13" font-weight="bold" lengthAdjust="spacing" textLength="19.4429" x="35" y="452.7856">alt</text>
    <text fill="#000000" font-family="sans-serif" font-size="11" font-weight="bold" lengthAdjust="spacing" textLength="293.4766" x="99.4429" y="451.9292">[Trouver le l&apos;endpoint Oracle existant (succès)]</text>
    <polygon fill="#181818" points="782.6011,473.9844,772.6011,477.9844,782.6011,481.9844,778.6011,477.9844" style="stroke:#181818;stroke-width:1.0;"/>
    <line style="stroke:#181818;stroke-width:1.0;" x1="776.6011" x2="1128.3154" y1="477.9844" y2="477.9844"/>
    <text fill="#000000" font-family="sans-serif" font-size="13" font-weight="bold" lengthAdjust="spacing" textLength="9.0454" x="788.6011" y="472.9185">4</text>
    <text fill="#000000" font-family="sans-serif" font-size="13" lengthAdjust="spacing" textLength="271.0259" x="801.6465" y="472.9185">Retourner le résultat de l&apos;endpoint Oracle</text>
    <line style="stroke:#181818;stroke-width:1.0;" x1="771.6011" x2="813.6011" y1="507.1172" y2="507.1172"/>
    <line style="stroke:#181818;stroke-width:1.0;" x1="813.6011" x2="813.6011" y1="507.1172" y2="520.1172"/>
    <line style="stroke:#181818;stroke-width:1.0;" x1="772.6011" x2="813.6011" y1="520.1172" y2="520.1172"/>
    <polygon fill="#181818" points="782.6011,516.1172,772.6011,520.1172,782.6011,524.1172,778.6011,520.1172" style="stroke:#181818;stroke-width:1.0;"/>
    <text fill="#000000" font-family="sans-serif" font-size="13" font-weight="bold" lengthAdjust="spacing" textLength="9.0454" x="778.6011" y="502.0513">5</text>
    <text fill="#000000" font-family="sans-serif" font-size="13" lengthAdjust="spacing" textLength="315.6689" x="791.6465" y="502.0513">Mettre à jour l’objet de données Oracle retourné</text>
    <polygon fill="#181818" points="1112.3154,545.25,1122.3154,549.25,1112.3154,553.25,1116.3154,549.25" style="stroke:#181818;stroke-width:1.0;"/>
    <line style="stroke:#181818;stroke-width:1.0;" x1="771.6011" x2="1118.3154" y1="549.25" y2="549.25"/>
    <text fill="#000000" font-family="sans-serif" font-size="13" font-weight="bold" lengthAdjust="spacing" textLength="9.0454" x="778.6011" y="544.1841">6</text>
    <text fill="#000000" font-family="sans-serif" font-size="13" lengthAdjust="spacing" textLength="255.3218" x="791.6465" y="544.1841">Mettre à jour l’objet de données Oracle</text>
    <path d="M30,564.25 L94.4429,564.25 L94.4429,571.3828 L84.4429,581.3828 L30,581.3828 L30,564.25 " fill="#EEEEEE" style="stroke:#000000;stroke-width:1.5;"/>
    <rect fill="none" height="104.5313" style="stroke:#000000;stroke-width:1.5;" width="1160.085" x="30" y="564.25"/>
    <text fill="#000000" font-family="sans-serif" font-size="13" font-weight="bold" lengthAdjust="spacing" textLength="19.4429" x="45" y="577.3169">alt</text>
    <text fill="#000000" font-family="sans-serif" font-size="11" font-weight="bold" lengthAdjust="spacing" textLength="261.2661" x="109.4429" y="576.4604">[Mise à jour d’une entrée Oracle (succès)]</text>
    <polygon fill="#181818" points="782.6011,598.5156,772.6011,602.5156,782.6011,606.5156,778.6011,602.5156" style="stroke:#181818;stroke-width:1.0;"/>
    <line style="stroke:#181818;stroke-width:1.0;stroke-dasharray:2.0,2.0;" x1="776.6011" x2="1128.3154" y1="602.5156" y2="602.5156"/>
    <text fill="#000000" font-family="sans-serif" font-size="13" font-weight="bold" lengthAdjust="spacing" textLength="9.0454" x="788.6011" y="597.4497">7</text>
    <text fill="#000000" font-family="sans-serif" font-size="13" lengthAdjust="spacing" textLength="219.1401" x="801.6465" y="597.4497">Retourner une réponse de succès</text>
    <polygon fill="#181818" points="515.1821,627.6484,505.1821,631.6484,515.1821,635.6484,511.1821,631.6484" style="stroke:#181818;stroke-width:1.0;"/>
    <line style="stroke:#181818;stroke-width:1.0;" x1="509.1821" x2="765.6011" y1="631.6484" y2="631.6484"/>
    <text fill="#000000" font-family="sans-serif" font-size="13" font-weight="bold" lengthAdjust="spacing" textLength="9.0454" x="521.1821" y="626.5825">8</text>
    <text fill="#000000" font-family="sans-serif" font-size="13" lengthAdjust="spacing" textLength="219.1401" x="534.2275" y="626.5825">Retourner une réponse de succès</text>
    <polygon fill="#181818" points="126.6455,656.7813,116.6455,660.7813,126.6455,664.7813,122.6455,660.7813" style="stroke:#181818;stroke-width:1.0;"/>
    <line style="stroke:#181818;stroke-width:1.0;stroke-dasharray:2.0,2.0;" x1="120.6455" x2="498.1821" y1="660.7813" y2="660.7813"/>
    <text fill="#000000" font-family="sans-serif" font-size="13" font-weight="bold" lengthAdjust="spacing" textLength="9.0454" x="132.6455" y="655.7153">9</text>
    <text fill="#000000" font-family="sans-serif" font-size="13" lengthAdjust="spacing" textLength="43.6655" x="145.6909" y="655.7153">Retour</text>
    <text fill="#000000" font-family="sans-serif" font-size="13" font-weight="bold" lengthAdjust="spacing" textLength="98.4268" x="193.4888" y="655.7153">Statut HTTP :</text>
    <text fill="#000000" font-family="sans-serif" font-size="13" lengthAdjust="spacing" textLength="24.813" x="296.0479" y="655.7153">204</text>
    <path d="M30,682.7813 L94.4429,682.7813 L94.4429,689.9141 L84.4429,699.9141 L30,699.9141 L30,682.7813 " fill="#EEEEEE" style="stroke:#000000;stroke-width:1.5;"/>
    <rect fill="none" height="230.4609" style="stroke:#000000;stroke-width:1.5;" width="1160.085" x="30" y="682.7813"/>
    <text fill="#000000" font-family="sans-serif" font-size="13" font-weight="bold" lengthAdjust="spacing" textLength="19.4429" x="45" y="695.8481">alt</text>
    <text fill="#000000" font-family="sans-serif" font-size="11" font-weight="bold" lengthAdjust="spacing" textLength="255.6318" x="109.4429" y="694.9917">[Mise à jour d’une entrée Oracle (échec)]</text>
    <polygon fill="#181818" points="777.6011,717.0469,767.6011,721.0469,777.6011,725.0469,773.6011,721.0469" style="stroke:#181818;stroke-width:1.0;"/>
    <line style="stroke:#181818;stroke-width:1.0;stroke-dasharray:2.0,2.0;" x1="771.6011" x2="1128.3154" y1="721.0469" y2="721.0469"/>
    <text fill="#000000" font-family="sans-serif" font-size="13" font-weight="bold" lengthAdjust="spacing" textLength="18.0908" x="783.6011" y="715.981">10</text>
    <text fill="#000000" font-family="sans-serif" font-size="13" lengthAdjust="spacing" textLength="109.2876" x="805.6919" y="715.981">Lever une erreur</text>
    <polygon fill="#181818" points="510.1821,746.1797,500.1821,750.1797,510.1821,754.1797,506.1821,750.1797" style="stroke:#181818;stroke-width:1.0;"/>
    <line style="stroke:#181818;stroke-width:1.0;" x1="504.1821" x2="765.6011" y1="750.1797" y2="750.1797"/>
    <text fill="#000000" font-family="sans-serif" font-size="13" font-weight="bold" lengthAdjust="spacing" textLength="18.0908" x="516.1821" y="745.1138">11</text>
    <text fill="#000000" font-family="sans-serif" font-size="13" lengthAdjust="spacing" textLength="109.2876" x="538.2729" y="745.1138">Lever une erreur</text>
    <path d="M258,763.1797 L258,878.1797 L493,878.1797 L493,773.1797 L483,763.1797 L258,763.1797 " fill="#FFFF00" style="stroke:#181818;stroke-width:0.5;"/>
    <path d="M483,763.1797 L483,773.1797 L493,773.1797 L483,763.1797 " fill="#FFFF00" style="stroke:#181818;stroke-width:0.5;"/>
    <text fill="#000000" font-family="sans-serif" font-size="13" lengthAdjust="spacing" textLength="65.4888" x="264" y="780.2466">Message :</text>
    <text fill="#000000" font-family="sans-serif" font-size="13" lengthAdjust="spacing" textLength="8.271" x="264" y="795.3794">{</text>
    <text fill="#000000" font-family="sans-serif" font-size="13" lengthAdjust="spacing" textLength="136.208" x="280.5293" y="810.5122">&quot;errorInformation&quot;: {</text>
    <text fill="#000000" font-family="sans-serif" font-size="13" lengthAdjust="spacing" textLength="181.27" x="297.0586" y="825.645">&quot;errorCode&quot;: &lt;Error Code&gt;,</text>
    <text fill="#000000" font-family="sans-serif" font-size="13" lengthAdjust="spacing" textLength="178.6548" x="297.0586" y="840.7778">&quot;errorDescription&quot;: &lt;Msg&gt;,</text>
    <text fill="#000000" font-family="sans-serif" font-size="13" lengthAdjust="spacing" textLength="8.271" x="280.5293" y="855.9106">}</text>
    <text fill="#000000" font-family="sans-serif" font-size="13" lengthAdjust="spacing" textLength="8.271" x="264" y="871.0435">}</text>
    <polygon fill="#181818" points="126.6455,901.2422,116.6455,905.2422,126.6455,909.2422,122.6455,905.2422" style="stroke:#181818;stroke-width:1.0;"/>
    <line style="stroke:#181818;stroke-width:1.0;stroke-dasharray:2.0,2.0;" x1="120.6455" x2="498.1821" y1="905.2422" y2="905.2422"/>
    <text fill="#000000" font-family="sans-serif" font-size="13" font-weight="bold" lengthAdjust="spacing" textLength="18.0908" x="132.6455" y="900.1763">12</text>
    <text fill="#000000" font-family="sans-serif" font-size="13" lengthAdjust="spacing" textLength="43.6655" x="154.7363" y="900.1763">Retour</text>
    <text fill="#FF0000" font-family="sans-serif" font-size="13" font-weight="bold" lengthAdjust="spacing" textLength="98.4268" x="202.5342" y="900.1763">Statut HTTP :</text>
    <text fill="#FF0000" font-family="sans-serif" font-size="13" lengthAdjust="spacing" textLength="24.813" x="305.0933" y="900.1763">502</text>
    <path d="M30,934.2422 L94.4429,934.2422 L94.4429,941.375 L84.4429,951.375 L30,951.375 L30,934.2422 " fill="#EEEEEE" style="stroke:#000000;stroke-width:1.5;"/>
    <rect fill="none" height="230.4609" style="stroke:#000000;stroke-width:1.5;" width="1160.085" x="30" y="934.2422"/>
    <text fill="#000000" font-family="sans-serif" font-size="13" font-weight="bold" lengthAdjust="spacing" textLength="19.4429" x="45" y="947.3091">alt</text>
    <text fill="#000000" font-family="sans-serif" font-size="11" font-weight="bold" lengthAdjust="spacing" textLength="287.8423" x="109.4429" y="946.4526">[Trouver le l&apos;endpoint Oracle existant (échec)]</text>
    <polygon fill="#181818" points="777.6011,968.5078,767.6011,972.5078,777.6011,976.5078,773.6011,972.5078" style="stroke:#181818;stroke-width:1.0;"/>
    <line style="stroke:#181818;stroke-width:1.0;" x1="771.6011" x2="1128.3154" y1="972.5078" y2="972.5078"/>
    <text fill="#000000" font-family="sans-serif" font-size="13" font-weight="bold" lengthAdjust="spacing" textLength="18.0908" x="783.6011" y="967.4419">13</text>
    <text fill="#000000" font-family="sans-serif" font-size="13" lengthAdjust="spacing" textLength="149.2461" x="805.6919" y="967.4419">Retourne un objet vide</text>
    <polygon fill="#181818" points="510.1821,997.6406,500.1821,1001.6406,510.1821,1005.6406,506.1821,1001.6406" style="stroke:#181818;stroke-width:1.0;"/>
    <line style="stroke:#181818;stroke-width:1.0;" x1="504.1821" x2="765.6011" y1="1001.6406" y2="1001.6406"/>
    <text fill="#000000" font-family="sans-serif" font-size="13" font-weight="bold" lengthAdjust="spacing" textLength="18.0908" x="516.1821" y="996.5747">14</text>
    <text fill="#000000" font-family="sans-serif" font-size="13" lengthAdjust="spacing" textLength="109.2876" x="538.2729" y="996.5747">Lever une erreur</text>
    <path d="M258,1014.6406 L258,1129.6406 L493,1129.6406 L493,1024.6406 L483,1014.6406 L258,1014.6406 " fill="#FFFF00" style="stroke:#181818;stroke-width:0.5;"/>
    <path d="M483,1014.6406 L483,1024.6406 L493,1024.6406 L483,1014.6406 " fill="#FFFF00" style="stroke:#181818;stroke-width:0.5;"/>
    <text fill="#000000" font-family="sans-serif" font-size="13" lengthAdjust="spacing" textLength="65.4888" x="264" y="1031.7075">Message :</text>
    <text fill="#000000" font-family="sans-serif" font-size="13" lengthAdjust="spacing" textLength="8.271" x="264" y="1046.8403">{</text>
    <text fill="#000000" font-family="sans-serif" font-size="13" lengthAdjust="spacing" textLength="136.208" x="280.5293" y="1061.9731">&quot;errorInformation&quot;: {</text>
    <text fill="#000000" font-family="sans-serif" font-size="13" lengthAdjust="spacing" textLength="181.27" x="297.0586" y="1077.106">&quot;errorCode&quot;: &lt;Error Code&gt;,</text>
    <text fill="#000000" font-family="sans-serif" font-size="13" lengthAdjust="spacing" textLength="178.6548" x="297.0586" y="1092.2388">&quot;errorDescription&quot;: &lt;Msg&gt;,</text>
    <text fill="#000000" font-family="sans-serif" font-size="13" lengthAdjust="spacing" textLength="8.271" x="280.5293" y="1107.3716">}</text>
    <text fill="#000000" font-family="sans-serif" font-size="13" lengthAdjust="spacing" textLength="8.271" x="264" y="1122.5044">}</text>
    <polygon fill="#181818" points="126.6455,1152.7031,116.6455,1156.7031,126.6455,1160.7031,122.6455,1156.7031" style="stroke:#181818;stroke-width:1.0;"/>
    <line style="stroke:#181818;stroke-width:1.0;stroke-dasharray:2.0,2.0;" x1="120.6455" x2="498.1821" y1="1156.7031" y2="1156.7031"/>
    <text fill="#000000" font-family="sans-serif" font-size="13" font-weight="bold" lengthAdjust="spacing" textLength="18.0908" x="132.6455" y="1151.6372">15</text>
    <text fill="#000000" font-family="sans-serif" font-size="13" lengthAdjust="spacing" textLength="43.6655" x="154.7363" y="1151.6372">Retour</text>
    <text fill="#FF0000" font-family="sans-serif" font-size="13" font-weight="bold" lengthAdjust="spacing" textLength="98.4268" x="202.5342" y="1151.6372">Statut HTTP :</text>
    <text fill="#FF0000" font-family="sans-serif" font-size="13" lengthAdjust="spacing" textLength="24.813" x="305.0933" y="1151.6372">502</text>
  </g>
</svg>
